<svg viewBox="0 0 324 113" xmlns="http://www.w3.org/2000/svg" xml:space="preserve" style="fill-rule:evenodd;clip-rule:evenodd;stroke-linejoin:round;stroke-miterlimit:2">
    <path d="M36.043 52.722v.324c14.07.272 24.461 3.184 31.169 8.736 6.708 5.552 10.064 12.266 10.064 20.132 0 8.788-3.813 16.042-11.453 21.748-7.626 5.724-17.788 8.586-30.452 8.586-10.947 0-19.406-2.284-25.395-6.832C3.987 100.87.993 95.694.993 89.866c0-3.864 1.343-6.998 4.026-9.366 2.683-2.368 5.907-3.542 9.655-3.542 3.516 0 6.544 1.04 9.048 3.098 2.519 2.08 3.761 4.822 3.761 8.212 0 4.53-2.911 8.326-8.753 11.394-1.145.594-1.733 1.276-1.733 2.026 0 1.396 1.635 2.622 4.924 3.678a32.45 32.45 0 0 0 10.045 1.568c11.243 0 16.872-8.602 16.872-25.804 0-17.03-6.757-25.546-20.257-25.546l-11.208.476c-2.26 0-3.406-.868-3.406-2.604 0-1.994 1.195-3 3.569-3l8.166.324c8.326 0 13.907-1.924 16.737-5.792 2.848-3.846 4.254-9.332 4.254-16.452 0-7.324-1.063-12.722-3.206-16.162-2.144-3.46-5.826-5.178-11.03-5.178-2.828 0-5.497.496-7.984 1.498-2.486.992-3.745 1.96-3.745 2.932 0 .9.817 1.838 2.454 2.81 4.287 2.844 6.447 5.924 6.447 9.248 0 3.268-1.196 5.858-3.601 7.8-2.405 1.926-5.106 2.896-8.118 2.896-3.467 0-6.559-1.108-9.277-3.306-2.715-2.214-4.09-4.938-4.09-8.224 0-5.588 3.028-10.424 9.082-14.494 6.053-4.09 13.809-6.132 23.301-6.132 10.488 0 19.324 2.316 26.524 6.93C70.665 13.77 74.264 19.68 74.264 26.92c0 14.238-12.747 22.838-38.221 25.802m67.15 52.234V7.026H88.434V1.732h59.135c17.098 0 30.646 5.038 40.611 15.138 9.965 10.082 14.955 22.822 14.955 38.202 0 7.97-1.522 15.48-4.563 22.48-3.046 7.02-7.723 13.406-14.041 19.146-6.316 5.738-12.796 9.434-19.439 11.086-6.643 1.652-14.791 2.472-24.477 2.472H88.434v-5.3h14.759Zm28.456-97.93v97.93h9.209c14.089 0 22.598-3.848 25.526-11.528 2.93-7.7 4.387-20.848 4.387-39.462 0-14.562-.901-25.038-2.7-31.388-1.783-6.37-4.515-10.562-8.167-12.552-3.647-1.996-8.294-3-13.907-3h-14.348m87.996 48.558c0-16.232 5.137-29.514 15.446-39.854C245.383 5.41 257.737.248 272.135.248c13.369 0 25.331 4.854 35.883 14.56 10.556 9.71 15.824 23.522 15.824 41.422 0 16.776-4.974 30.23-14.956 40.348-9.979 10.116-22.17 15.176-36.569 15.176-15.56 0-28.241-5.384-38.008-16.114-9.772-10.73-14.664-24.082-14.664-40.056Zm71.832.458c0-16.622-.329-27.574-.983-32.852-.67-5.298-2.372-9.556-5.12-12.794-2.751-3.234-7.283-4.852-13.58-4.852-5.319 0-9.557 1.31-12.716 3.918-3.155 2.622-5.119 6.812-5.907 12.586-.769 5.774-1.161 17.046-1.161 33.824 0 16.606.325 27.608.999 32.974.654 5.364 2.422 9.64 5.284 12.826 2.865 3.182 7.364 4.766 13.501 4.766 5.088 0 9.244-1.276 12.45-3.83 3.208-2.574 5.22-6.73 6.024-12.502.817-5.774 1.209-17.134 1.209-34.064" style="fill:#fff;fill-rule:nonzero"/>
</svg>
