<svg viewBox="0 0 632 78" xmlns="http://www.w3.org/2000/svg" xml:space="preserve" style="fill-rule:evenodd;clip-rule:evenodd;stroke-linejoin:round;stroke-miterlimit:2">
    <g transform="translate(-4 -21)">
        <clipPath id="a">
            <path d="M4 21.697h632v76.606H4z"/>
        </clipPath>
        <g clip-path="url(#a)">
            <path d="M142.564 28.649c0 .324-.327.649-.653.649H130.04c-.327 0-.654-.325-.654-.649v-8.54c0-.325.327-.649.654-.649h11.871c.326 0 .653.324.653.649v8.54Zm-.544-11.784-12.089.001c-1.743 0-3.159 1.406-3.159 3.136v8.541c0 1.729 1.416 3.134 3.159 3.134h12.089c1.743 0 3.158-1.405 3.158-3.134v-8.541c0-1.73-1.415-3.136-3.158-3.136" style="fill:#d9d9d9;fill-rule:nonzero" transform="translate(4 21.697) scale(2.39394)"/>
            <path d="M2.832 4.109v11.026H0V.216h2.396l11.327 10.92V.216h2.722v14.919h-2.178L2.832 4.109Zm27.99 0v11.026H27.99V.216h2.396l11.327 10.92V.216h2.723v14.919h-2.178L30.822 4.109Zm57.831 0v11.026h-2.831V.216h2.396l11.327 10.92V.216h2.722v14.919h-2.178L88.653 4.109ZM20.802.216h2.832v14.919h-2.832V.216Zm26.683 0h16.446v2.595h-6.753v12.324h-2.941V2.811h-6.752V.216Zm33.654 0h.544v2.595H69.812v3.351h9.257v2.595h-9.257v3.891h11.871v2.595H66.98V.325h14.159V.216Zm36.594 12.325h-8.496v-9.73h8.605c2.722 0 3.594 2.594 3.594 4.865 0 2.27-.981 4.865-3.594 4.865m4.574-10.163C121.327.973 119.693.216 117.733.216h-11.109v14.919h11.109c1.96 0 3.594-.756 4.683-2.162.98-1.296 1.525-3.135 1.525-5.297s-.545-4-1.525-5.298M142.564 12c0 .325-.327.648-.653.648H130.04c-.327 0-.654-.323-.654-.648V3.459c0-.324.327-.648.654-.648h11.871c.326 0 .653.324.653.648V12ZM142.02.216h-12.089c-1.743 0-3.159 1.406-3.159 3.135V12c0 1.73 1.416 3.135 3.159 3.135h12.089c1.743 0 3.158-1.405 3.158-3.135V3.351c0-1.729-1.415-3.135-3.158-3.135m90.396 25.406c2.832 1.081 8.931 2.054 13.723 2.054 5.227 0 7.406-1.729 7.406-3.999 0-1.947-1.961-3.136-7.733-5.298-7.733-2.811-13.287-5.081-13.287-10.055 0-5.189 6.752-8.216 17.099-8.216 5.554 0 7.406.325 11 .973v4.973c-3.485-.649-6.535-1.73-11.327-1.73-5.119 0-7.297 1.622-7.297 3.244 0 2.378 3.376 3.568 9.258 5.621 8.168 2.92 12.742 5.19 12.742 10.055 0 5.08-5.663 8.649-18.624 8.649-5.228 0-8.931-.325-12.96-.974v-5.297ZM205.079 4.433h-6.099V27.46h6.099c9.366 0 15.357-4 15.357-11.46 0-7.459-5.881-11.567-15.357-11.567m16.446 25.19c-3.05 1.405-8.713 2.27-13.723 2.27h-19.168V.216h19.168c5.01 0 10.782.865 13.832 2.271 7.406 3.351 9.802 8.54 9.802 13.622 0 4.972-2.396 10.27-9.802 13.621m-46.505-15.243s8.93-1.406 8.93-6.919c0-5.406-9.475-7.568-19.604-7.568-9.148 0-15.138 1.081-15.138 1.081v4.865c4.138-.973 8.059-1.837 13.505-1.837 5.772 0 10.237 1.729 10.237 4.107 0 2.92-4.356 4.649-13.831 4.649h-4.357v4.433h4.03c9.911 0 15.574 1.513 15.574 5.081 0 3.243-5.009 5.189-11.327 5.189-5.445 0-10.455-1.189-14.593-2.27v5.297c1.96.324 7.187 1.405 16.772 1.405 10.673 0 20.039-3.458 20.039-9.404 0-5.082-6.425-8.001-10.237-8.001" style="fill:#fff;fill-rule:nonzero" transform="translate(4 21.697) scale(2.39394)"/>
        </g>
    </g>
</svg>
