<?xml version="1.0" encoding="UTF-8" standalone="no"?>
<!DOCTYPE svg PUBLIC "-//W3C//DTD SVG 1.1//EN" "http://www.w3.org/Graphics/SVG/1.1/DTD/svg11.dtd">
<svg width="100%" height="100%" viewBox="0 0 632 78" version="1.1" xmlns="http://www.w3.org/2000/svg" xmlns:xlink="http://www.w3.org/1999/xlink" xml:space="preserve" xmlns:serif="http://www.serif.com/" style="fill-rule:evenodd;clip-rule:evenodd;stroke-linejoin:round;stroke-miterlimit:2;">
    <g transform="matrix(1,0,0,1,-824,-61)">
        <g id="_3ds.afdesign" serif:id="3ds.afdesign" transform="matrix(1,0,0,1,1140,100)">
            <g transform="matrix(1,0,0,1,-320,-60)">
                <clipPath id="_clip1">
                    <rect x="4" y="21.697" width="632" height="76.606"/>
                </clipPath>
                <g clip-path="url(#_clip1)">
                    <g transform="matrix(2.39394,0,0,2.39394,4,21.697)">
                        <path d="M142.564,28.649C142.564,28.973 142.237,29.298 141.911,29.298L130.04,29.298C129.713,29.298 129.386,28.973 129.386,28.649L129.386,20.109C129.386,19.784 129.713,19.46 130.04,19.46L141.911,19.46C142.237,19.46 142.564,19.784 142.564,20.109L142.564,28.649ZM142.02,16.865L129.931,16.866C128.188,16.866 126.772,18.272 126.772,20.002L126.772,28.543C126.772,30.272 128.188,31.677 129.931,31.677L142.02,31.677C143.763,31.677 145.178,30.272 145.178,28.543L145.178,20.002C145.178,18.272 143.763,16.866 142.02,16.866" style="fill:rgb(217,217,217);fill-rule:nonzero;"/>
                        <g>
                            <path d="M2.832,4.109L2.832,15.135L0,15.135L0,0.216L2.396,0.216L13.723,11.136L13.723,0.216L16.445,0.216L16.445,15.135L14.267,15.135L2.832,4.109Z" style="fill:white;fill-rule:nonzero;"/>
                            <path d="M30.822,4.109L30.822,15.135L27.99,15.135L27.99,0.216L30.386,0.216L41.713,11.136L41.713,0.216L44.436,0.216L44.436,15.135L42.258,15.135L30.822,4.109Z" style="fill:white;fill-rule:nonzero;"/>
                            <path d="M88.653,4.109L88.653,15.135L85.822,15.135L85.822,0.216L88.218,0.216L99.545,11.136L99.545,0.216L102.267,0.216L102.267,15.135L100.089,15.135L88.653,4.109Z" style="fill:white;fill-rule:nonzero;"/>
                            <path d="M20.802,0.216L23.634,0.216L23.634,15.135L20.802,15.135L20.802,0.216Z" style="fill:white;fill-rule:nonzero;"/>
                            <path d="M47.485,0.216L63.931,0.216L63.931,2.811L57.178,2.811L57.178,15.135L54.237,15.135L54.237,2.811L47.485,2.811L47.485,0.216Z" style="fill:white;fill-rule:nonzero;"/>
                            <path d="M81.139,0.216L81.683,0.216L81.683,2.811L69.812,2.811L69.812,6.162L79.069,6.162L79.069,8.757L69.812,8.757L69.812,12.648L81.683,12.648L81.683,15.243L66.98,15.243L66.98,0.325L81.139,0.325L81.139,0.216Z" style="fill:white;fill-rule:nonzero;"/>
                            <path d="M117.733,12.541L109.237,12.541L109.237,2.811L117.842,2.811C120.564,2.811 121.436,5.405 121.436,7.676C121.436,9.946 120.455,12.541 117.842,12.541M122.416,2.378C121.327,0.973 119.693,0.216 117.733,0.216L106.624,0.216L106.624,15.135L117.733,15.135C119.693,15.135 121.327,14.379 122.416,12.973C123.396,11.677 123.941,9.838 123.941,7.676C123.941,5.514 123.396,3.676 122.416,2.378" style="fill:white;fill-rule:nonzero;"/>
                            <path d="M142.564,12C142.564,12.325 142.237,12.648 141.911,12.648L130.04,12.648C129.713,12.648 129.386,12.325 129.386,12L129.386,3.459C129.386,3.135 129.713,2.811 130.04,2.811L141.911,2.811C142.237,2.811 142.564,3.135 142.564,3.459L142.564,12ZM142.02,0.216L129.931,0.216C128.188,0.216 126.772,1.622 126.772,3.351L126.772,12C126.772,13.73 128.188,15.135 129.931,15.135L142.02,15.135C143.763,15.135 145.178,13.73 145.178,12L145.178,3.351C145.178,1.622 143.763,0.216 142.02,0.216" style="fill:white;fill-rule:nonzero;"/>
                        </g>
                        <g>
                            <path d="M232.416,25.622C235.248,26.703 241.347,27.676 246.139,27.676C251.366,27.676 253.545,25.947 253.545,23.677C253.545,21.73 251.584,20.541 245.812,18.379C238.079,15.568 232.525,13.298 232.525,8.324C232.525,3.135 239.277,0.108 249.624,0.108C255.178,0.108 257.03,0.433 260.624,1.081L260.624,6.054C257.139,5.405 254.089,4.324 249.297,4.324C244.178,4.324 242,5.946 242,7.568C242,9.946 245.376,11.136 251.258,13.189C259.426,16.109 264,18.379 264,23.244C264,28.324 258.337,31.893 245.376,31.893C240.148,31.893 236.445,31.568 232.416,30.919L232.416,25.622Z" style="fill:white;fill-rule:nonzero;"/>
                            <path d="M205.079,4.433L198.98,4.433L198.98,27.46L205.079,27.46C214.445,27.46 220.436,23.46 220.436,16C220.436,8.541 214.555,4.433 205.079,4.433M221.525,29.623C218.475,31.028 212.812,31.893 207.802,31.893L188.634,31.893L188.634,0.216L207.802,0.216C212.812,0.216 218.584,1.081 221.634,2.487C229.04,5.838 231.436,11.027 231.436,16.109C231.436,21.081 229.04,26.379 221.634,29.73" style="fill:white;fill-rule:nonzero;"/>
                            <path d="M175.129,14.487C175.129,14.487 184.059,13.081 184.059,7.568C184.059,2.162 174.584,0 164.455,0C155.307,0 149.317,1.081 149.317,1.081L149.317,5.946C153.455,4.973 157.376,4.109 162.822,4.109C168.594,4.109 173.059,5.838 173.059,8.216C173.059,11.136 168.703,12.865 159.228,12.865L154.871,12.865L154.871,17.298L158.901,17.298C168.812,17.298 174.475,18.811 174.475,22.379C174.475,25.622 169.466,27.568 163.148,27.568C157.703,27.568 152.693,26.379 148.555,25.298L148.555,30.595C150.515,30.919 155.742,32 165.327,32C176,32 185.366,28.542 185.366,22.596C185.366,17.514 178.941,14.595 175.129,14.595" style="fill:white;fill-rule:nonzero;"/>
                        </g>
                    </g>
                </g>
            </g>
        </g>
    </g>
</svg>
