<svg data-name="Warstwa 1" viewBox="0 0 264 112" xmlns="http://www.w3.org/2000/svg">
    <path d="M263.975 72.984c-.555 1.057-1.122 2.115-1.658 3.185a4454.032 4454.032 0 0 0-8.355 16.812 1.03 1.03 0 0 1-1.079.687h-88.101a1.165 1.165 0 0 1-1.203-.717 44584.515 44584.515 0 0 0-29.227-53.983c-.104-.197-.222-.395-.388-.686l-6.487 13.726h5.907a.788.788 0 0 1 .851.489c3.289 6.643 6.577 13.28 9.866 19.911.049.099.092.205.191.427h-26.403a1.078 1.078 0 0 0-1.141.693c-3.175 6.47-6.412 12.941-9.576 19.46-.184.49-.678.789-1.196.724-7.855-.025-15.713-.025-23.573 0a1.024 1.024 0 0 1-1.128-.724c-3.188-6.452-6.407-12.884-9.588-19.343a1.234 1.234 0 0 0-1.32-.847c-8.478.03-16.957 0-25.429 0h-.814c.06-.177.13-.351.21-.519L54.2 52.484a.769.769 0 0 1 .832-.488h5.895l-6.474-13.708c-.192.322-.346.563-.481.817L24.775 93.049c-.185.341-.333.619-.851.619-7.81-.025-15.62-.025-23.431 0H0L54.422.048l39.802 71.964L133.995.03l42.361 72.818c3.576-6.966 7.109-13.856 10.673-20.809h-16.087c.044-.158.098-.312.16-.464l9.866-19.794a.83.83 0 0 1 .857-.587h61.476c-.111.24-.198.438-.296.618a71990.45 71990.45 0 0 0-9.743 19.627.874.874 0 0 1-.943.55h-20.755a.9.9 0 0 0-.931.501 5298.116 5298.116 0 0 1-11.253 19.844l-.198.359c.235 0 .407.043.574.043h2.885l60.89.049c.155 0 .315.031.469.043Z" fill="#fff"/>
    <path d="M263.975.204c-.912 1.793-1.849 3.587-2.744 5.393a4567.119 4567.119 0 0 0-7.3 14.703.925.925 0 0 1-.987.619h-61.371c.136-.291.222-.494.321-.693A9245.792 9245.792 0 0 0 201.55.772a1.063 1.063 0 0 1 1.135-.687h61.29Zm-77.754 108.44c1.178-2.956 2.306-5.765 3.404-8.586a.938.938 0 0 1 1.036-.736c1.726.043 1.726 0 1.726 1.769v9.835c0 .922 0 .922-.9.922a3.308 3.308 0 0 0-.345 0c-.678.092-.87-.229-.851-.879.068-2.202.086-4.404.123-6.6a2.117 2.117 0 0 0-.092-.766l-1.665 4.076c-.493 1.237-1.036 2.431-1.461 3.674-.21.618-.617.476-1.024.495-.407.018-.758.049-.968-.495-.919-2.375-1.893-4.726-2.849-7.089a.94.94 0 0 0-.296-.42v2.202c0 1.701 0 3.395.031 5.097 0 .537-.179.717-.715.717-1.381 0-1.381 0-1.381-1.385v-10.176c0-.915.043-.959.912-.959 1.566 0 1.566 0 2.146 1.454l2.849 7.101c.08.204.197.409.32.749Zm-170.047-5.14v7.639c0 .544-.185.711-.722.711-1.375 0-1.375 0-1.375-1.391v-10.17c0-.909.049-.884.913-.971a1.589 1.589 0 0 1 1.695.921c1.579 2.512 3.213 4.986 4.933 7.609 0-.328.056-.513.056-.699v-6.959c0-.668.24-.928.888-.86.205.018.411.018.616 0 .457 0 .666.198.666.662v11.227c0 .414-.179.619-.616.619a1.905 1.905 0 0 1-2.109-1.021c-1.523-2.511-3.176-4.948-4.779-7.423Zm65.625 3.092 2.466 4.441c.333.619.216.749-.481.836a1.72 1.72 0 0 1-2.09-1.238 24.733 24.733 0 0 0-1.695-3.197.962.962 0 0 0-.66-.415c-.617-.055-1.27 0-1.98 0 0 1.373-.03 2.672 0 3.977 0 .662-.178.947-.85.854a3.03 3.03 0 0 0-.617 0c-.426 0-.617-.174-.617-.619V99.928c0-.204.315-.582.481-.576a44.19 44.19 0 0 1 5.26.186 3.194 3.194 0 0 1 2.867 2.969 3.544 3.544 0 0 1-1.782 3.842 3.251 3.251 0 0 0-.302.247Zm-4.452-5.345v3.607c0 .117.204.34.308.334.934.024 1.868-.023 2.794-.143a1.853 1.853 0 0 0 1.381-1.966 1.804 1.804 0 0 0-1.554-1.812c-.937-.081-1.899-.013-2.929-.013Zm33.722 5.345 2.424 4.404c.382.7.277.799-.531.885a1.658 1.658 0 0 1-1.979-1.157 31.086 31.086 0 0 0-1.733-3.26.963.963 0 0 0-.659-.401c-.617-.056-1.271 0-1.974 0v3.982c0 .682-.209.935-.869.842a4.235 4.235 0 0 0-.617 0c-.437 0-.616-.185-.616-.619v-11.238c0-.223.283-.619.425-.619a45.23 45.23 0 0 1 5.334.185 3.182 3.182 0 0 1 2.855 2.97 3.531 3.531 0 0 1-1.795 3.841c-.037.006-.111.068-.265.185Zm-4.445-5.319v3.544a.56.56 0 0 0 .388.39c.842.018 1.685-.019 2.522-.111a1.855 1.855 0 0 0 1.572-1.856 1.811 1.811 0 0 0-1.51-1.924 27.807 27.807 0 0 0-2.972-.049Zm153.609 5.363 2.423 4.403c.339.619.222.749-.481.836a1.714 1.714 0 0 1-2.084-1.237 26.067 26.067 0 0 0-1.696-3.198.97.97 0 0 0-.66-.414c-.616-.056-1.27 0-1.979 0 0 1.366-.031 2.671 0 3.976 0 .656-.179.947-.857.854a3.03 3.03 0 0 0-.617 0c-.425 0-.616-.173-.616-.618V99.94c0-.203.314-.588.481-.581a43.862 43.862 0 0 1 5.265.186 3.194 3.194 0 0 1 2.868 2.968 3.55 3.55 0 0 1-1.782 3.842c-.08.05-.148.111-.222.167a.92.92 0 0 0-.043.118Zm-4.459-5.395v3.576c0 .136.216.384.327.377.913.025 1.826-.018 2.732-.129a1.856 1.856 0 0 0 1.418-2.005 1.816 1.816 0 0 0-1.714-1.806c-.913-.05-1.782-.013-2.763-.013Zm-196.993 5.123h-5.494v4.806c0 .482-.123.711-.66.699-1.523 0-1.436.129-1.43-1.392v-10.275c0-.661.222-.94.875-.872.183.018.367.018.549 0 .5-.043.691.167.685.681v3.928c0 .315 0 .618.437.618h5.02c0-.278.037-.52.037-.76v-3.712c0-.489.185-.699.684-.717 1.474-.044 1.474-.057 1.474 1.434v10.206c0 .836-.062.891-.907.898h-.407c-.616.067-.869-.192-.851-.823v-3.934Zm81.904-.755v-5.45c0-.618.24-.866.851-.829a31.893 31.893 0 0 1 4.421.291c2.195.458 3.552 2.289 3.829 4.547a10.015 10.015 0 0 1-.197 3.878 5.22 5.22 0 0 1-5.032 3.81H141.4c-.555 0-.715-.229-.709-.748.006-1.825-.006-3.662-.006-5.499Zm2.14-4.33v8.789c.573 0 1.103.038 1.621 0a3.222 3.222 0 0 0 3.194-2.752 7.666 7.666 0 0 0-.111-3.791 2.875 2.875 0 0 0-2.343-2.221 14.893 14.893 0 0 0-2.361-.05Zm-116.04 4.354a9.207 9.207 0 0 1 .845-3.798 4.77 4.77 0 0 1 4.649-2.665 4.62 4.62 0 0 1 4.317 3.359 9.618 9.618 0 0 1 0 6.185c-.716 2.11-2.411 3.415-5.087 3.272a4.901 4.901 0 0 1-4.317-3.811 25.614 25.614 0 0 1-.407-2.542Zm2.011-.049c.176.966.405 1.922.684 2.864a2.467 2.467 0 0 0 2.534 1.726c1.172-.043 2.041-.359 2.571-1.948a7.61 7.61 0 0 0 .364-2.147 7.202 7.202 0 0 0-.481-3.359 2.497 2.497 0 0 0-2.269-1.596 2.466 2.466 0 0 0-2.651 1.528 22.591 22.591 0 0 0-.752 2.932Zm211.514.433c.049-2.246.29-3.971 1.603-5.332 2.455-2.61 6.79-1.713 8.016 1.658a9.4 9.4 0 0 1 .043 6.439c-.783 2.283-2.559 3.353-5.118 3.216a4.863 4.863 0 0 1-4.242-3.792 17.51 17.51 0 0 1-.302-2.189Zm2.059-.712c.068.817.099 1.411.173 2.005a3.088 3.088 0 0 0 2.812 2.87c1.375.087 2.466-.854 2.83-2.53a9.51 9.51 0 0 0-.037-4.33 2.678 2.678 0 0 0-2.466-2.196c-1.523-.037-2.467.619-2.923 2.06a17.574 17.574 0 0 0-.389 2.121Zm-37.495-1.186v3.648c0 2.555-1.739 4.046-4.051 4.206a6.635 6.635 0 0 1-2.541-.321c-1.85-.619-2.559-2.171-2.59-4.033-.037-2.523 0-5.053 0-7.577 0-.489.191-.7.691-.718 1.474-.043 1.474-.056 1.474 1.441 0 2.32.043 4.64 0 6.953a2.242 2.242 0 0 0 2.429 2.475c1.616 0 2.516-.867 2.522-2.475v-7.645c0-.582.197-.805.758-.743.16.018.322.018.481 0 .648-.08.894.18.87.86-.074 1.305-.043 2.616-.043 3.929Zm-138.361 2.226v3.711c.228 0 .432.037.617.037h4.279c1.092 0 1.388.384 1.079 1.454a.617.617 0 0 1-.493.322H64.99c-.505 0-.616-.297-.616-.718v-10.868c0-.878.049-.922.949-.922h6.166c.87 0 .833 0 .882.966 0 .617-.099.965-.851.94-1.443-.057-2.886 0-4.316 0h-.728v2.95c0 .13.37.334.574.34 1.301.031 2.608.043 3.915 0 .709 0 .697.384.685.879-.013.494.049.971-.703.959-1.431-.074-2.892-.05-4.434-.05Zm88.526 0v3.711h4.964a.995.995 0 0 1 .987 1.528.615.615 0 0 1-.494.254h-7.004c-.407 0-.574-.199-.574-.619V99.922a.55.55 0 0 1 .617-.619h6.783c.394 0 .616.149.579.569a3.555 3.555 0 0 0 0 .619c.062.551-.185.723-.715.711h-5.198v2.895c0 .415.253.415.549.415 1.233 0 2.516.031 3.773 0 .697 0 .931.197.888.897-.055.908 0 .934-.931.934Zm16.186-5.122v2.902c0 .42.266.408.555.408h3.916c.653 0 .771.272.74.828-.031.557.08 1.027-.728 1.009-1.461-.037-2.923 0-4.433 0v3.711h5.093c.277 0 .771.068.795.179.065.47.065.947 0 1.416 0 .075-.296.18-.456.18h-7.011c-.407 0-.567-.204-.567-.618V99.94a.543.543 0 0 1 .617-.618h6.782c.401 0 .617.155.574.575a3.368 3.368 0 0 0 0 .619c.061.557-.204.711-.722.705-1.658-.007-3.348.006-5.155.006Zm-165.003 7.54c-.753 0-1.721-.291-2.196.074-.474.366-.616 1.405-.931 2.141-.123.303-.246.792-.45.835a4.785 4.785 0 0 1-1.628 0 1.132 1.132 0 0 1-.086-.798c.857-2.326 1.757-4.639 2.645-6.953.524-1.379 1.079-2.752 1.56-4.144a.748.748 0 0 1 .919-.576c.481.051.999-.179 1.27.557 1.394 3.755 2.843 7.485 4.273 11.221.179.476.087.761-.474.755h-.068c-1.344.043-1.332.043-1.807-1.207-.24-.618-.345-1.502-.814-1.817-.468-.316-1.319-.106-2.004-.125h-.209Zm0-6.408-1.628 4.515h3.262Zm94.723 9.507c-.617.174-.944-.129-1.135-.847-.191-.718-.364-1.787-.9-2.146-.537-.36-1.585-.137-2.405-.155a15.806 15.806 0 0 0-1.714 0 .821.821 0 0 0-.555.42 19.66 19.66 0 0 0-.802 2.178.66.66 0 0 1-.777.538c-1.51 0-1.72.223-1.042-1.534a971.164 971.164 0 0 0 3.977-10.46.698.698 0 0 1 .864-.538c.468.068 1.011-.247 1.295.52 1.368 3.711 2.793 7.422 4.199 11.103.302.786.222.897-.617.903Zm-2.639-4.992-1.616-4.509c-.58 1.602-1.098 3.032-1.628 4.509Zm30.219 4.992h-.456c-.721 0-.826-.154-.573-.809 1.015-2.677 2.043-5.357 3.083-8.042.394-1.045.826-2.073 1.184-3.13a.685.685 0 0 1 .857-.551c.462.075 1.011-.259 1.295.508 1.405 3.773 2.861 7.522 4.316 11.282.185.489.055.718-.487.742-1.388.056-1.382.062-1.85-1.237-.241-.618-.352-1.478-.82-1.812-.469-.334-1.277-.105-1.936-.118-.66-.012-1.375 0-2.06 0a.574.574 0 0 0-.684.49c-.161.618-.475 1.137-.617 1.731-.228.76-.561 1.151-1.252.946Zm5.932-4.992-1.64-4.515-1.622 4.515Zm84.284 4.992h-.617c-.616 0-.715-.166-.493-.76a587.033 587.033 0 0 1 1.714-4.535c.839-2.208 1.715-4.41 2.522-6.631a.796.796 0 0 1 .962-.618c.493.03.987-.13 1.233.587 1.382 3.712 2.818 7.424 4.236 11.166.21.556.087.754-.487.779-1.375.062-1.369.062-1.849-1.237-.235-.619-.315-1.479-.765-1.769-.45-.29-1.32-.124-2.004-.142h-1.443c-1.11 0-1.11 0-1.474 1.008-.168.404-.312.817-.431 1.237-.117.692-.401 1.151-1.104.915Zm4.249-9.507c-.58 1.608-1.098 3.038-1.628 4.515h3.262c-.537-1.477-1.061-2.919-1.634-4.515Zm-99.478 1.373c-.092-.34-.185-.619-.252-.946a2.105 2.105 0 0 0-2.078-1.75 2.554 2.554 0 0 0-2.467 1.039c-.894 1.28-.857 2.765-.789 4.224.026.705.151 1.403.37 2.073a2.71 2.71 0 0 0 3.909 1.54 2.14 2.14 0 0 0 1.129-1.77c.074-.494.277-.618.715-.575h.203c1.449 0 1.456 0 1.03 1.392a4.318 4.318 0 0 1-3.885 3.05c-3.453.272-5.179-2.097-5.475-4.59a10.26 10.26 0 0 1 .444-5.27 4.558 4.558 0 0 1 4.372-2.975c1.893-.056 3.434.618 4.316 2.474.174.396.301.811.376 1.237.167.792.105.841-.721.847Zm-78.617-2.505v9.749c0 .29-.129.81-.24.823a7.032 7.032 0 0 1-1.684-.062c-.068 0-.123-.403-.123-.619v-9.891h-2.984c-.851 0-.894-.056-.894-.977 0-.922.055-.91.894-.91h7.972c.851 0 .894.05.894.978 0 .927-.061.909-.894.909Zm187.744 0c-1.085 0-2.065-.031-3.046 0-.727 0-.82-.353-.814-.947.007-.593.05-.971.79-.965 2.725.025 5.45.025 8.176 0 .721 0 .82.347.814.947-.006.6-.043.989-.789.965-.999-.043-1.998 0-3.083 0v9.842c0 .574-.118.828-.759.81-1.511-.05-1.307.136-1.313-1.336v-8.481Zm-22.493 8.845c1.701 0 3.305.031 4.932 0 .71 0 .851.279.845.904-.006.624-.148.927-.845.915-2.059-.037-4.118 0-6.166 0-.579 0-.82-.16-.82-.779v-10.949c0-.618.21-.823.802-.817 1.504 0 1.289-.043 1.295 1.3v8.61Z" fill="#fff"/>
</svg>
