<svg viewBox="0 0 264 61" xmlns="http://www.w3.org/2000/svg">
    <path style="opacity:1;fill:#fff;fill-opacity:1;fill-rule:evenodd;stroke:none;stroke-width:11.27770996;stroke-linecap:butt;stroke-linejoin:miter;stroke-miterlimit:4;stroke-dasharray:none;stroke-opacity:1" d="M62.019 0C60.774 1.993 38.363 37.187 28.59 52.53H43c2.004-3.156 2.574-4.07 4.43-6.992l14.678-.112v7.104H75.69c.005-17.508-.013-35.023-.045-52.53Zm32.22 0L83.231 17.279l-.09.111-.067.112c-6.564 10.008-6.178 8.334.112 18.623l.089.158.09.156L93.993 52.53h14.588l-14.857-22.5c-.009-.016-.013-.029-.022-.045-1.235-2.145-1.832-3.365-.089-6.387L108.649 0h-14.41Zm19.936 0-11.008 17.279-.09.111-.067.112c-6.563 10.008-6.178 8.334.112 18.623l.089.158.09.156 10.628 16.091h14.566l-14.834-22.5c-.01-.016-.013-.029-.023-.045-1.234-2.145-1.832-3.365-.089-6.387L128.585 0h-14.41Zm16.357 0v52.53h13.089V0Zm58.757 0v9.815h13.112V0ZM166.31 11.72c-11.223 0-20.451 9.244-20.451 20.483 0 10.421 7.935 19.112 18.034 20.327h4.811a20.349 20.349 0 0 0 6.041-1.704v1.704h12.015V12.079h-12.015v1.502a20.135 20.135 0 0 0-8.435-1.861Zm22.979.717V52.53h13.112V12.437Zm16.177.091V52.53h12.172V29.783c0-2.985 2.21-5.199 5.191-5.199s5.191 2.214 5.191 5.199V52.53h13.134V29.896c0-2.987 2.211-5.201 5.192-5.201 2.98.001 5.191 2.214 5.191 5.201V52.53h12.172V29.896c0-9.529-3.822-17.122-17.497-16.854-4.288 0-7.063 1.907-9.734 4.527-2.673-2.99-7.026-4.771-13.783-4.639-1.549 0-3.078.22-4.542.628v-1.03ZM62.064 22.455c.003 2.245.019 2.125.022 5.154.002 1.517-.002 2.68 0 4.192l-5.974.044c2.863-4.509 3.097-4.891 5.952-9.39Zm104.246 1.456c4.636 0 8.278 3.649 8.278 8.292 0 4.644-3.642 8.292-8.278 8.292-4.637 0-8.279-3.648-8.279-8.292 0-4.643 3.642-8.292 8.279-8.292Z"/>
    <path style="opacity:1;fill:#fff;fill-opacity:1;fill-rule:evenodd;stroke:none;stroke-width:.66339463px;stroke-linecap:butt;stroke-linejoin:miter;stroke-opacity:1" d="M56.483 1.386 0 61h264v-5.04H16.992Z"/>
    <path style="opacity:1;fill:#fff;fill-opacity:1;fill-rule:evenodd;stroke:none;stroke-width:.66339463px;stroke-linecap:butt;stroke-linejoin:miter;stroke-opacity:1" d="M13.775 61H264v-5.04H16.992Z"/>
</svg>
