<svg viewBox="0 0 3839 1883.4" xmlns="http://www.w3.org/2000/svg">
    <path class="st25" style="fill:#fff" d="m588 1494.5-197.3-156.8h278.2l148.6-267.1v267.1h426.4V0L0 1883.4h363.1z"/>
    <path class="st25" style="fill:#fff" d="m828.3 1543.1 91.2 271.3h324.4v-271.3zM3839 1367.9v-11.5l-2658.2-6.9-58.3 25.5zm0 38.9v-11.5l-2746.6-7.2-59.4 26zm0 38.8v-11.4l-2835-7.4-60.4 26.4zm0 38.9v-11.4l-2923.5-7.6-61.4 26.9zm-3014.8 46.8 3014.8-7.9V1512l-3011.9-7.9-10.3 4.6zM1459.7 950v359.3h-121.5V685.6h164.1l52 287.2 54.5-287.2h152v623.7h-122.6V950l-60.9 359.3h-54.5L1459.7 950Zm356.8 359.4V685.6h215.1V777H1951v148.4h74.9v92.5H1951v201.8h80.7v89.6h-215.2Zm271.9 0V685.6h154.1c66.9 0 109.6 7.4 128 22.3 18.4 14.8 27.6 50.3 27.6 106.4v64.8c0 45.3-4.6 75.6-13.6 90.8-9.1 15.3-49.3 27-73.1 35.3 23 6.5 63 17.2 72.5 32 9.5 14.9 14.2 37.9 14.2 69.1v203.1h-130.2v-214.3c0-13-2.2-21.8-6.5-26.3s-17.7-6.8-29.6-6.8h-8v247.3h-135.4Zm179.5-406.9v-92c0-16.7-2-26.9-6-30.7-4-3.8-12.1-5.7-24.3-5.7h-13.2v172c1.7 0 4.1.2 7.3.4 3.1.3 5.4.4 6.8.4 11.4 0 19.2-1.8 23.3-5.5 4.1-3.6 6.2-10.6 6.2-20.8v-18.1Zm193.2 406.9V685.6h134.4v623.7h-134.4Zm197.3-497.7c0-58.1 8.6-94.2 25.7-108.2 17.2-14 68.5-29.6 136.9-29.6 69.9 0 104.8 16.1 121.7 31.2 16.9 15 25.4 50.6 25.4 106.7v86.9h-135.5v-83.1c0-12-1.5-20.2-4.6-24.4-3-4.3-15.2-6.4-23.5-6.4-6.3 0-10.8 1.9-13.3 5.6-2.5 3.8-3.8 12.2-3.8 25.2V1179c0 11.5 1.4 19.6 4.4 24.4 2.9 4.7 7.9 7.1 15 7.1 6.1 0 17.3-1.8 20.7-5.4 3.4-3.6 5.1-8.7 5.1-15.2v-146.1h135.5v139c0 57.5-8.7 93.7-26.1 108.6-17.4 14.9-51.5 31.2-119.9 31.2-69.2 0-121.1-16.5-138.1-31.8s-25.6-51.3-25.6-108V811.7Zm330.1 497.7 102.9-623.7h163.5l73.1 623.7h-116.1l-13.7-110h-69.4l-10.2 110h-130.1Zm160.8-223.7h42.5l-21.1-240.8-21.4 240.8Zm207.9 223.7V685.6h125.4l67.1 255.7V685.6h117.2v623.7h-108l-85.6-305.7v305.7h-116.1Zm-1997 482.9v-186.9h-22v209h150.5v-22.1zm770.9-164.8v-22.1h-162.2v209h162.2v-22.1h-140.2v-72.4h135.2v-22.1h-135.2v-70.3zm1314.7 0v-22.1h-162.2v209h162.2v-22.1h-140.1v-72.4h135.1v-22.1h-135.1v-70.3zm-1141.4 47.9c.3 0 .6-.1.9-.1-2.8-.1-4.6-.2-4.6-.2 1.2.1 2.4.3 3.7.3Z"/>
    <path class="st25" d="M2320.7 1723.6c18.4-5.3 31.7-19.3 31.7-35.9v-44c0-21.1-21.5-38.2-47.9-38.2h-138.3v208.9h22.1v-81.1h117.5c14.3 0 25.9 18.4 25.9 29.8v51.4h22.1v-54.7c-.2-17-14.1-31.2-33.1-36.2Zm-16.3-12.4c-.9 0-77.6-.1-116.2 0v-83.8c37.4-.3 110.4-1 116.2-1 14.3 0 25.9 9.2 25.9 20.6v37.4c0 11.4-11.6 26.8-25.9 26.8Zm-672.6-105.8h-26.5l-98.1 208.9h24.4l20.4-43.4h133.2l20.4 43.4h24.4l-98.2-208.9Zm-69.5 143.5 56.2-119.8 56.2 119.8h-112.4Zm1292.5-143.5h-26.5l-98.1 208.9h24.4l20.4-43.4h133.2l20.4 43.4h24.4l-98.2-208.9Zm-69.5 143.5 56.2-119.8 56.2 119.8h-112.4Zm-851.9-83.4v-21.9c0-21.1-21.5-38.2-47.9-38.2h-92.7c-26.5 0-47.9 17.1-47.9 38.2v40.5c0 21.1 21.5 38.2 47.9 38.2h92.8c14.3 0 25.9 9.2 25.9 20.6v28.6c0 11.4-11.6 20.7-25.9 20.7h-92.8c-14.3 0-25.9-9.2-25.9-20.7v-22.7h-22.1v27.2c0 21.1 21.5 38.2 47.9 38.2h92.8c26.5 0 47.9-17.1 47.9-38.2v-37.6c0-21.1-21.5-38.2-47.9-38.2h-92.8c-14.3 0-25.9-9.2-25.9-20.6V1648c0-11.4 11.6-20.7 25.9-20.7h92.8c14.3 0 25.9 9.3 25.9 20.7v17.4h22Zm1733.5 0v-21.9c0-21.1-21.5-38.2-47.9-38.2h-92.7c-26.5 0-47.9 17.1-47.9 38.2v40.5c0 21.1 21.4 38.2 47.9 38.2h92.8c14.3 0 25.9 9.2 25.9 20.6v28.6c0 11.4-11.6 20.7-25.9 20.7h-92.8c-14.3 0-25.9-9.2-25.9-20.7v-22.7h-22.1v27.2c0 21.1 21.4 38.2 47.9 38.2h92.8c26.5 0 47.9-17.1 47.9-38.2v-37.6c0-21.1-21.5-38.2-47.9-38.2h-92.8c-14.3 0-25.9-9.2-25.9-20.6V1648c0-11.4 11.6-20.7 25.9-20.7h92.8c14.3 0 25.9 9.3 25.9 20.7v17.4h22Zm-961.8 0v-21.9c0-21.1-21.5-38.2-47.9-38.2h-107.8c-26.5 0-47.9 17.1-47.9 38.2v132.5c0 21.1 21.5 38.2 47.9 38.2h107.8c26.5 0 47.9-17.1 47.9-38.2v-65H2598v22.1h85.1v38.4c0 11.4-11.6 20.7-25.9 20.7h-107.8c-14.3 0-25.9-9.2-25.9-20.7v-123.5c0-11.4 11.6-20.7 25.9-20.7h107.8c14.3 0 25.9 9.3 25.9 20.7v17.4h22Zm502.8-60.1-99.3 179.9-99.4-179.9h-33.7v208.4h22.1v-183.9l101.8 184.5h18.3l101.9-184.5v183.9h22v-208.4z" style="fill:#fff"/>
</svg>
