<svg viewBox="0 0 264 45" xmlns="http://www.w3.org/2000/svg">
    <g fill="#fff">
        <path d="M156.114.003c2.477.29 4.984.432 7.427.903 4.98.964 9.503 2.99 13.48 6.237 10.358 8.456 9.057 25.698-2.209 32.642-4.622 2.85-9.674 4.325-15.008 4.71-4.062.29-8.155.257-12.234.263-11.398.02-22.796-.03-34.194-.006-1.061.003-1.345-.288-1.35-1.349-.034-9.381-.128-18.766-.202-28.147-.003-.397 0-.793 0-1.253h20.678v20.512c.45.027.8.069 1.15.069 4.964.003 9.928.03 14.892-.006 3.985-.03 7.727-.972 11.02-3.322 7.2-5.137 6.525-15.006-1.313-19.073-3.507-1.82-7.316-2.452-11.21-2.472-11.177-.055-22.355-.033-33.532-.044h-1.735V0c14.776.003 29.558.003 44.34.003zm-46.331 0c.033.365.094.728.094 1.094.005 14.106.005 28.212.005 42.317v1.272H88.967c.292-8.417.587-16.827.885-25.421-.513.282-.86.46-1.194.662C75.343 27.979 62.034 36.044 48.7 44.065c-.673.405-1.56.63-2.352.635-6.029.052-12.055.028-18.083.028h-1.186l-.108-.222c.307-.205.604-.421.919-.615C51.257 29.49 74.626 15.095 97.993.695c.34-.21.657-.462.982-.692h10.808zm99.943 0v24.612c.496-.34.844-.565 1.18-.812 10.337-7.578 20.676-15.147 30.995-22.747.78-.574 1.54-.857 2.518-.848 5.185.044 10.37.02 15.554.02h1.572c-.526.429-.797.672-1.092.886-16.43 11.839-32.856 23.69-49.318 35.487-1.09.781-1.533 1.568-1.448 2.89.113 1.723.028 3.458.028 5.286h-21.784c-.025-.318-.066-.606-.066-.892-.003-14.518 0-29.037 0-43.553 0-.11.014-.221.02-.332 7.28.003 14.56.003 21.841.003z"/>
        <path d="M264 45c-8.048 0-16.095.007-24.145-.026-.483-.003-1.1-.216-1.423-.557-4.437-4.677-8.833-9.395-13.237-14.103-.125-.13-.227-.282-.417-.526 4.603-3.422 9.167-6.819 13.839-10.293.317.302.634.584.935.886 7.815 7.866 15.628 15.735 23.447 23.598.297.3.664.532 1 .798V45zM0 44.124c1.351-.815 2.703-1.632 4.057-2.447C26.343 28.256 48.626 14.826 70.928 1.435A5.29 5.29 0 0 1 73.49.723C78.893.66 84.298.69 89.7.69h1.046l.058.208c-.287.194-.568.401-.863.584-23.042 14.17-46.08 28.34-69.128 42.492-.446.274-1.01.501-1.52.504-6.174.011-12.352-.022-18.526-.047-.24 0-.48-.05-.72-.078-.017-.077-.03-.155-.047-.23z"/>
    </g>
</svg>
