<svg data-name="Warstwa 1" viewBox="0 0 264 74" xmlns="http://www.w3.org/2000/svg">
    <path d="m39.22 1.394-5.04.865 27.498 66.556c.86-1.293 2.333-2.486 2.26-3.579-.577-9.416-1.601-18.807-2.132-28.233-.098-4.2.128-8.402.677-12.568.064-.628 1.509-1.566 2.342-1.593 10.062-.383 20.198-.647 30.297-.847a3.712 3.712 0 0 1 2.306 1.111c3.348 3.232 7.144 3.379 10.364.281 4.574-4.416 14.765-2.576 17.152 3.307.522 1.293-.476 3.133-.485 4.718-.045 11.484-.091 22.968.055 34.453 0 1.329 1.189 2.641 2.022 4.381-2.315.819-4.766 2.021-7.318 2.523-4.849.91-8.288-2.15-8.325-7.132-.073-8.451 0-16.913-.192-25.364a44.43 44.43 0 0 0-1.025-6.311c-.795-.092-1.527-.246-2.259-.264-6.961-.138-7.044.054-7.108 6.958-.082 8.397-.421 16.793-.457 25.19 0 1.504.915 2.997 1.537 4.846-2.425.301-4.904.656-7.392.911-4.729.492-6.037-.702-6.056-5.465 0-7.468.046-14.936-.091-22.395-.055-2.678.073-5.719-1.162-7.878-.86-1.512-3.833-2.305-5.946-2.477-1.198-.1-3.531 1.593-3.659 2.677-.64 5.347-.778 10.757-.915 16.148-.146 4.672 0 9.353-.164 14.035.126 3.187-2.671 5.715-5.846 5.281-6.961-.91-13.621-1.274-20.125 1.986-.512.255-2.168-.765-2.616-1.567a62.166 62.166 0 0 1-4.071-8.469c-1.079-2.851-1.637-5.893-2.58-8.798-.942-2.905-2.46-5.182-6.11-5.465-2.937-.236-5.782-1.676-8.7-1.775-8.288-.283-10.52 1.821-12.212 9.872a27.843 27.843 0 0 1-3.156 7.422c-1.263 2.305-.394 4.272 2.351 4.646a2.99 2.99 0 0 1 2.195 1.447c-3.659.365-7.318.984-10.977 1.039C.269 71.93-.801 69.317.69 65.71c2.205-5.31 3.659-10.929 5.9-16.229 1.83-4.481 4.336-8.717 6.459-13.088.317-.947.568-1.915.75-2.896 1.546-4.79 2.89-9.673 4.766-14.335 1.564-3.889 3.302-7.377 1.829-11.885-1.71-5.319-.201-7.04 5.343-7.213 4.464-.146 8.946 0 13.419 0ZM20.833 37.686c4.108.566 7.319 1.185 10.557 1.303.805 0 2.525-1.776 2.369-2.386-1.326-5.338-2.982-10.592-4.574-15.875l-2.305.046Zm196.293 12.715c.375 7.185-3.924 11.084-9.578 14.253-1.921 1.074-3.238 3.178-5.104 4.407-7.318 4.828-22.421 2.213-27.809-4.735a7.494 7.494 0 0 1-1.647-3.297c-.567-4.162-.594-8.406-1.363-12.523-1.207-6.503 1.967-11.448 5.727-15.847 4.976-5.829 11.755-8.989 19.347-10.309.275-.055.586-.419.787-.355 4.867 1.62 9.87 2.95 14.545 5.026 4.876 2.159 5.745 6.795 5.717 11.631 0 1.302.119 2.595.183 3.898l1.299.245c.421-2.249.915-4.48 1.226-6.748.595-4.966 4.433-8.932 9.395-9.709 1.747-.272 3.878-.911 4.949-2.176 3.659-4.181 8.342-3.052 12.807-3.115 5.58-.082 9.696 3.644 12.87 7.067 2.571 2.732 3.541 7.851 3.568 11.913 0 3.361-3.321 5.464-7.135 5.583a1.71 1.71 0 0 0-1.208.564c-4.976 6.968-12.605 3.461-20.363 5.228 3.202 2.55 5.553 5.738 8.499 6.43 3.732.911 7.931-.409 11.937-.51 2.47-.064 6.523-.465 7.117.692 1.373 2.641 1.107 5.656-3.183 7.195-3.147 1.129-5.58 4.207-8.334 6.375-4.93 3.943-10.611 1.903-15.99 1.767-2.058-.055-4.153-1.275-6.111-2.213-8.681-4.135-10.52-12.186-12.148-20.737Zm-23.043 10.017c5.296 1.494 6.824-1.93 7.675-6.62 1.235-6.831 1.756-13.015-4.757-18.024-3.293-2.532-6.458-1.384-9.596-1.138-.713.054-1.473 3.807-1.619 5.901a54.605 54.605 0 0 0 .055 11.339c.247 1.821 1.921 3.643 3.339 5.091 1.418 1.448 3.247 2.358 4.903 3.488Zm42.171-21.757h11.892l-4.912-5.729-7.227 2.341Zm-65.882 18.242c1.912 8.425-17.454 17.75-28.916 13.661-3.266-1.174-6.065-3.642-8.627-5.218-.439-3.316-.914-6.476-1.271-9.636-1.107-9.435-2.433-18.88 5.864-26.302 6.055-5.419 24.104-6.649 30.343-1.767.439.346.302 1.821 0 2.586-1.921 5.465-7.428 5.957-11.801 7.779-.851.354-2.671-1.822-4.153-2.733-2.113-1.202-5.049-3.643-6.312-3.006-1.829.911-3.403 4.108-3.531 6.376a64.419 64.419 0 0 0 1.134 13.342c.156 1.011 1.903 1.822 3.001 2.595.311.228 1.143-.054 1.299.182 5.36 8.152 12.395 3.853 19.018 2.569 1.034-.2 2.04-.519 3.074-.72.283-.018.594.201.878.292Z" fill="#fff"/>
</svg>
