<?xml version="1.0" encoding="UTF-8"?>
<svg width="632px" height="96px" viewBox="0 0 632 96" version="1.1" xmlns="http://www.w3.org/2000/svg" xmlns:xlink="http://www.w3.org/1999/xlink">
    <title>arcade</title>
    <g id="Page-1" stroke="none" stroke-width="1" fill="none" fill-rule="evenodd" opacity="0.777953375">
        <g id="Emulation-Station-System-Logo-4:3" transform="translate(-4.000000, -12.000000)" fill="#FFFFFF" fill-rule="nonzero">
            <g id="arcade" transform="translate(4.000000, 12.000000)">
                <path d="M632,38.8927288 L632,0 L539.191458,0 L539.191458,95.9835757 L632,95.9835757 L632,85.4063302 L574.576875,85.4063302 L574.576875,63.8740804 L594.738333,63.8740804 L594.738333,60.4414029 L574.576875,60.4414029 L574.576875,38.8927288 L632,38.8927288 Z M548.243542,9.04978614 L548.243542,40.3052181 C548.243542,41.2414029 547.486458,42.0133447 546.531875,42.0133447 C545.577292,42.0133447 544.820208,41.2578272 544.820208,40.3052181 L544.820208,7.34165954 C544.820208,6.40547476 545.577292,5.63353293 546.531875,5.63353293 L590.047708,5.63353293 C590.985833,5.63353293 591.759375,6.38905047 591.759375,7.34165954 C591.759375,8.27784431 591.002292,9.04978614 590.047708,9.04978614 L548.243542,9.04978614 Z M303.392917,23.108982 C299.6075,16.9005988 294.456042,11.5955518 288.284167,7.63729683 C280.54875,2.64431138 271.546042,0 262.263542,0 C235.749167,0 214.172292,21.5322498 214.172292,47.9917879 C214.172292,74.4513259 235.749167,95.9835757 262.263542,95.9835757 C271.529583,95.9835757 280.532292,93.3392643 288.284167,88.3627032 C294.456042,84.388024 299.6075,79.0994012 303.392917,72.891018 L250.808542,48.0082121 L303.392917,23.108982 Z M258.955417,59.9650984 C259.350417,59.1110351 260.370833,58.7497006 261.226667,59.160308 L292.826667,74.12284 C293.320417,74.3527802 293.666042,74.8126604 293.764792,75.3382378 C293.863542,75.8638152 293.715417,76.4222412 293.336875,76.8164243 C290.9175,79.4114628 288.185417,81.6944397 285.222917,83.6160821 C284.943125,83.7967494 284.613958,83.8952951 284.30125,83.8952951 C283.741667,83.8952951 283.198542,83.6160821 282.869375,83.1233533 C282.359167,82.3349872 282.589583,81.2838323 283.379583,80.7746792 C285.453333,79.4443114 287.411875,77.9004277 289.205833,76.1923011 L259.761875,62.2644996 C258.906042,61.8374679 258.543958,60.8191617 258.955417,59.9650984 Z M49.424375,5.35431993 L0,95.9835757 L98.84875,95.9835757 L49.424375,5.35431993 Z M49.424375,67.1917879 C46.5770833,67.1917879 44.2729167,64.8923867 44.2729167,62.0509837 C44.2729167,59.2095808 46.5770833,56.9101796 49.424375,56.9101796 C52.2716667,56.9101796 54.5758333,59.2095808 54.5758333,62.0509837 C54.5758333,64.8923867 52.2716667,67.1917879 49.424375,67.1917879 Z M86.4720833,90.3336185 L64.7141667,90.3336185 C63.7760417,90.3336185 63.0025,89.5781009 63.0025,88.6254919 C63.0025,87.6893071 63.7595833,86.9173653 64.7141667,86.9173653 L83.6083333,86.9173653 L73.4535417,68.3250642 C73.0091667,67.5038494 73.3054167,66.4691189 74.1283333,66.025663 C74.95125,65.582207 75.988125,65.8778443 76.4325,66.699059 L87.9533333,87.8207015 C88.233125,88.3462789 88.233125,88.9868263 87.9204167,89.4959795 C87.6241667,90.0215569 87.0645833,90.3336185 86.4720833,90.3336185 L86.4720833,90.3336185 Z M356.438125,5.35431993 L307.01375,95.9835757 L405.8625,95.9835757 L356.438125,5.35431993 Z M356.438125,67.1917879 C353.590833,67.1917879 351.286667,64.8923867 351.286667,62.0509837 C351.286667,59.2095808 353.590833,56.9101796 356.438125,56.9101796 C359.285417,56.9101796 361.589583,59.2095808 361.589583,62.0509837 C361.589583,64.8923867 359.285417,67.1917879 356.438125,67.1917879 Z M393.469375,90.3336185 L371.711458,90.3336185 C370.773333,90.3336185 369.999792,89.5781009 369.999792,88.6254919 C369.999792,87.6893071 370.756875,86.9173653 371.711458,86.9173653 L390.605625,86.9173653 L380.467292,68.3250642 C380.022917,67.5038494 380.319167,66.4691189 381.142083,66.025663 C381.965,65.582207 383.001875,65.8778443 383.44625,66.699059 L394.967083,87.8207015 C395.246875,88.3462789 395.246875,88.9868263 394.934167,89.4959795 C394.637917,90.0215569 394.078333,90.3336185 393.469375,90.3336185 L393.469375,90.3336185 Z M476.007917,0 L421.629583,0 L421.629583,95.9835757 L476.007917,95.9835757 C502.522292,95.9835757 524.099167,74.4513259 524.099167,47.9917879 C524.099167,21.5322498 502.522292,0 476.007917,0 Z M475.563542,66.6662104 C472.71625,66.6662104 470.412083,64.3668092 470.412083,61.5254063 C470.412083,58.6840034 472.71625,56.3846022 475.563542,56.3846022 C478.410833,56.3846022 480.715,58.6840034 480.715,61.5254063 C480.715,64.3668092 478.410833,66.6662104 475.563542,66.6662104 Z M506.719167,77.1777588 C499.559792,84.6836612 489.948125,89.2988879 479.661667,90.1857998 L479.513542,90.1857998 C478.64125,90.1857998 477.900625,89.5124038 477.818333,88.6254919 C477.736042,87.6893071 478.427292,86.8680924 479.365417,86.7859709 C499.016667,85.1106929 514.339375,68.9984602 514.997708,49.3221557 C515.030625,48.3859709 515.804167,47.6468777 516.75875,47.6797263 C517.696875,47.7125749 518.4375,48.500941 518.404583,49.4371257 C518.058958,59.8008554 513.911458,69.655432 506.719167,77.1777588 L506.719167,77.1777588 Z M168.319375,60.3757057 C169.109375,58.601882 170.870417,57.4686056 172.8125,57.4686056 L174.079792,57.4686056 C189.962083,57.4686056 202.865417,44.5755346 202.865417,28.742515 C202.865417,12.893071 189.945625,0.0164242943 174.079792,0.0164242943 L114.615833,0.0164242943 L114.615833,96 L196.71,96 L169.175208,65.6643285 C167.875,64.2189906 167.529375,62.1495295 168.319375,60.3757057 Z M174.079792,48.4188195 C183.856042,48.4188195 192.26625,41.1428571 193.615833,31.4853721 C193.7475,30.5491873 194.603333,29.9086399 195.541458,30.0400342 C196.479583,30.1714286 197.121458,31.0254919 196.989792,31.9616766 C196.21625,37.4145423 193.500625,42.4403764 189.320208,46.102994 C185.106875,49.7984602 179.692083,51.8350727 174.079792,51.8350727 C173.141667,51.8350727 172.368125,51.0795552 172.368125,50.1269461 C172.368125,49.174337 173.141667,48.4188195 174.079792,48.4188195 L174.079792,48.4188195 Z M160.682708,24.1437126 C163.53,24.1437126 165.834167,26.4431138 165.834167,29.2845167 C165.834167,32.1259196 163.53,34.4253208 160.682708,34.4253208 C157.835417,34.4253208 155.53125,32.1259196 155.53125,29.2845167 C155.53125,26.4431138 157.835417,24.1437126 160.682708,24.1437126 Z M181.667083,89.3317365 C181.387292,89.9394354 180.778333,90.3500428 180.103542,90.3500428 L158.378542,90.3500428 C157.440417,90.3500428 156.666875,89.5945252 156.666875,88.6419162 C156.666875,87.7057314 157.423958,86.9337896 158.378542,86.9337896 L176.26875,86.9337896 L162.460208,71.7248931 C161.505625,70.6901625 160.732083,69.5076133 160.139583,68.2265184 C159.744583,67.3724551 160.123125,66.3705731 160.9625,65.9763901 C161.818333,65.582207 162.822292,65.9599658 163.217292,66.7976048 C163.661667,67.7666382 164.254167,68.65355 164.978333,69.4419162 L181.370833,87.4922156 C181.815208,87.9849444 181.930417,88.7076133 181.667083,89.3317365 L181.667083,89.3317365 Z" id="Shape"></path>
            </g>
        </g>
    </g>
</svg>