<svg viewBox="0 0 264 44" xmlns="http://www.w3.org/2000/svg">
    <path d="m235.827 0 3.482 2.222v5.716l6.648 7.303 3.165 2.541 9.18-9.209V2.222L260.518 0l2.849.952.633 1.27v7.621l-6.015 6.668-4.114 3.493-2.533 3.175v18.416l-1.583 1.589c-2.004.317-3.165-.212-3.482-1.589V22.544L233.612 9.843V2.222L235.827 0ZM41.468.635h18.993l8.546 7.938v14.606l-6.647 7.304-1.583.952 8.23 8.89v1.905c-.317 1.377-1.477 1.906-3.482 1.589l-1.582-.954-11.08-11.747-8.546.317V42.23l-1.583 1.589c-1.899.423-3.06.105-3.482-.954V2.222l.95-.952 1.266-.635Zm3.014 5.616-.326 19.587 14.971.327 4.882-4.897v-10.12l-4.882-4.897H44.482ZM80.086.635h19.626l7.914 7.303.633 1.27v26.037l-7.28 7.939-1.267.635H80.086l-1.582-.954-.633-1.27V2.222L80.086.635Zm3.124 4.963-.326 32.971 14.971.327 4.556-4.897V10.495l-4.556-4.897H83.21ZM118.705.635c2.005-.318 3.166.212 3.482 1.587v31.753l4.115 4.128h10.763l4.748-4.763V2.222l1.583-1.587c2.005-.318 3.165.212 3.482 1.587v33.659l-7.281 7.303-1.266.635h-12.662l-8.547-7.938-.633-33.024.95-1.587 1.266-.635Zm38.619 0h20.892l7.28 7.303.633 1.27v6.985l-5.064 5.716 5.064 5.715v7.621l-7.28 7.939h-21.525l-.95-.954-.633-1.27V2.857l1.583-2.222Zm3.667 4.963-.325 13.058 15.621.327 4.882-4.571v-3.264l-5.533-5.55h-14.645Zm.651 19.261-.325 13.057 14.97.327 4.882-4.897v-3.917l-4.882-4.57h-14.645ZM202.273.635h15.195l7.28 7.303.633 1.27V34.61l-7.913 8.574h-15.195l-7.28-7.303V7.938l7.28-7.303Zm2.653 4.963-4.881 4.897v22.851l4.881 4.897h10.089l4.557-4.897V10.495l-4.557-4.897h-10.089ZM13.612 1.27h2.532l13.611 13.653.633 1.27v25.402l-1.582 2.224c-2.322.423-3.693-.107-4.115-1.589l-.317-16.828-19.309.318v17.145l-.95.954C1.794 44.242.422 43.712 0 42.23V14.923L13.612 1.27Zm1.254 6.287L5.103 17.35l.325 2.286 19.202-.327V17.35l-9.764-9.793Z" style="fill:#fff"/>
</svg>
