<svg viewBox="0 0 633 85" xmlns="http://www.w3.org/2000/svg" xml:space="preserve" style="fill-rule:evenodd;clip-rule:evenodd;stroke-linejoin:round;stroke-miterlimit:2">
    <clipPath id="a">
        <path d="M.992.966h632v83.788h-632z"/>
    </clipPath>
    <g clip-path="url(#a)">
        <path d="m498.524 63.134-59.006 21.339H498.9l22.592-12.431-22.968-8.908ZM443.423 1.545h70.094l93.342 47.189h-36.61l-25.73-11.797-15.874 6.437-85.222-41.829Zm130.549 21.62 59.02-21.33H573.61l-22.58 12.424 22.942 8.906Z" style="fill:#fff;fill-rule:nonzero"/>
        <path d="M629.094 84.754H558.99l-93.342-47.19h36.611l25.73 11.798 15.872-6.438 85.233 41.83Z" style="fill:#fff;fill-rule:nonzero"/>
        <path style="fill:#fff" d="M.992.975h46.464v56.626H.992zm0 63.559h119.065v17.337H.992z"/>
        <path d="M76.494.975h55.185l37.757 31.773-27.29 19.967L76.494.975Zm69.707 54.886v26.005h43.56V55.861L273.975.975h-40.654l-84.214 54.886h-2.906ZM279.792 9.636l46.459 28.893v43.337h-46.459V9.636Zm5.806-8.661L404.67 81.866h26.132V.966h-22.651V57.86L323.352.975h-37.754Z" style="fill:#fff;fill-rule:nonzero"/>
    </g>
</svg>
