<svg viewBox="0 0 3840 911.2" xmlns="http://www.w3.org/2000/svg">
    <path class="st1" d="M404.5 2c23-.1 45.9 0 68.9-.1.1 54 0 108 0 162.1.2 45.1-1 90.2-2.9 135.2-3.1 65-7.1 130.2-17.9 194.5-7.4 44.3-22.7 87.1-41.8 127.7-31 65.4-79.8 120.8-134.6 167.3-49 43.2-107.6 74.6-169.1 95.8-34.8 12-70.7 21.2-107.2 26.4V775c43.9-6.6 86.2-22.2 125.4-42.8 46.5-24.6 88.4-57.7 123.7-96.7 36.4-40.3 65.4-86.9 87.5-136.4 25.9-56.9 39.8-118.4 49.3-180 11.8-78.3 16.8-157.5 18.6-236.6.3-26.9.1-53.7.1-80.5Zm96.7.1c42.3-.3 84.6 0 126.9-.1v909c-42.2.1-84.4-.2-126.6.2-.5-96.6-.1-193.2-.2-289.8-.1-206.6 0-412.9-.1-619.3Zm155.1-.2c22.9 0 45.7-.1 68.5 0-.7 92.4 2.4 184.9 13.4 276.7 9 71.3 21.7 143.1 50.1 209.5 26.9 64.3 65.7 124 116.3 172.1 48.3 46 106.8 81.4 170.4 101.8 17.7 5.7 35.9 10.1 54.3 12.8v135.8c-36.2-4.9-71.8-14.2-106.3-26-41.2-14.3-81-32.9-117.6-56.7-26.7-17.2-51-37.7-74.3-59.2-38.4-35.5-72.9-75.8-98.7-121.4-20.2-35.5-35-73.9-46.5-113.1-10.6-39.4-15.1-80-19.2-120.5-7.9-87.4-10.9-175.3-10.3-263.1-.1-49.3-.1-99-.1-148.7Zm890 37.6c35.4-45.2 108.5-53 151.9-15 17.7 14.9 30.2 35.6 36.5 57.7 80.3 276.3 161 552.5 241.2 828.9-47.4 0-94.8-.1-142.2 0-22.4-76.2-44.2-152.5-66.3-228.8-91.7-.2-183.3 0-274.9-.1-22.4 76.2-44.6 152.5-66.6 228.9-47.1-.2-94.3 0-141.4-.1 76.3-263.6 152.7-527.2 229.3-790.7 9.2-27.5 12.6-58.3 32.5-80.8m83.7 169.3c-33.6 114.5-66.5 229.2-99.9 343.7 66.6.3 133.2.1 199.8.1-33.4-114.6-66.6-229.2-99.9-343.8Zm914.7-163.4c24.7-35.8 72.4-53.2 114.5-42.1 38.5 8.9 67.9 42 78.1 79.4 80.2 276.1 160.8 552.1 241 828.3-47.5.4-94.9 0-142.4.2-22.1-76.3-43.9-152.6-66.1-228.8-91.5 0-183-.2-274.5.1-21.9 76.3-44.4 152.4-66.3 228.7h-141.3c76.3-265.1 153.4-529.9 230.3-794.8 8.1-23.9 11.2-50.3 26.7-71m-11.5 507.3c66.3.1 132.6.1 199 .1-33-114.9-66.6-229.6-99.4-344.4-33.2 114.7-66.6 229.4-99.6 344.3ZM1869.8 1.9h514.3v138.7c-63.2 0-126.2-.1-189.3 0V911h-135.6V140.6c-63.1-.1-126.2 0-189.4 0V1.9ZM3129 7.6c13-4.5 26.9-6 40.7-5.7 54.1.2 108.1 0 162.2.1 91 1.7 177.9 58.2 217.3 140.1 27.3 53.2 30.1 115.1 23.2 173.5-4.8 61.1-30.4 122.2-77.3 162.7-24.8 22.1-55.7 35.5-82.3 55.2-14.6 11.1-15.3 32.7-7.8 48.1 71.7 110.8 146.3 219.8 219.6 329.6-53.6.1-107.1-.1-160.7.1-70.1-105.3-139.5-211.2-209.4-316.7-20.5-30-26.1-69.8-13.8-104 9.6-26.3 32.6-45.5 58.2-55.4 48.8-18.6 97-47.9 124-94 20.6-34.6 19.5-77.4 10.3-115.3-10.9-49.2-58.8-87.9-109.5-86.2-35 .2-70-.2-105 .2-15.8-.4-30.7 13.4-30.5 29.4-.2 247.3.1 494.7-.1 742-45.6-.1-91.1 0-136.6-.1-.1-266.3.1-532.5-.1-798.8.1-46.8 33.3-90.7 77.6-104.8Zm567.2-5.7H3840c0 303.1.1 606.1-.1 909.2-47.9-.1-95.8 0-143.7 0V1.9Z" style="fill:#fff"/>
</svg>
