<?xml version="1.0" encoding="UTF-8" standalone="no"?>
<!DOCTYPE svg PUBLIC "-//W3C//DTD SVG 1.1//EN" "http://www.w3.org/Graphics/SVG/1.1/DTD/svg11.dtd">
<svg width="100%" height="100%" viewBox="0 0 322 114" version="1.1" xmlns="http://www.w3.org/2000/svg" xmlns:xlink="http://www.w3.org/1999/xlink" xml:space="preserve" xmlns:serif="http://www.serif.com/" style="fill-rule:evenodd;clip-rule:evenodd;stroke-linejoin:round;stroke-miterlimit:2;">
    <g transform="matrix(1,0,0,1,-1759,-43)">
        <g id="atarijaguar.afdesign" transform="matrix(1,0,0,1,1920,100)">
            <g transform="matrix(1,0,0,1,-320.237,-60.8777)">
                <g transform="matrix(1.21739,0,0,1.21739,159.304,3.99923)">
                    <path id="path5" d="M41.307,41.739C42.567,37.969 43.695,34.155 44.871,30.356C45.162,29.419 45.434,28.478 45.714,27.538C45.75,27.334 46.785,23.707 47.179,22.076C47.651,20.124 48.158,18.166 48.394,16.179C48.539,14.948 49.079,14.313 50.14,13.986C50.758,13.795 51.1,13.478 51.741,13.431C52.267,13.393 52.633,13.26 52.876,12.776C53.082,12.365 53.614,12.111 53.889,11.746C54.093,11.474 54.352,11.152 54.649,11.062C55.498,10.805 56.405,10.723 57.245,10.444C58.305,10.092 59.531,9.839 60.302,9.127C61.091,8.397 61.824,8.001 62.842,7.923C63.786,7.85 64.606,7.485 64.91,6.495C65.099,5.881 65.567,5.605 66.041,5.3C66.474,5.211 66.714,5.038 66.767,4.517C66.82,3.996 64.869,4.287 64.74,4.156C64.14,3.544 64.198,3.423 64.988,3.124C65.503,2.929 66.068,2.867 66.61,2.746C66.939,2.667 67.269,2.588 67.596,2.51C68.376,2.408 69.154,2.298 69.934,2.206C71.287,2.046 72.642,1.909 73.991,1.734C74.307,1.693 74.646,1.596 74.905,1.422C75.144,1.261 75.472,0.698 75.481,0.423C75.489,0.148 74.947,-0.008 74.688,0.001C73.609,0.037 72.526,0.112 71.457,0.264C69.794,0.501 68.138,0.792 66.485,1.097C65.107,1.352 63.739,1.66 62.367,1.943C62.174,1.966 59.698,2.544 59.521,2.595C58.99,2.722 58.46,2.848 57.929,2.974L57.811,2.991C57.292,3.083 56.773,3.175 56.254,3.267C54.643,3.602 53.035,3.952 51.421,4.266C50.546,4.436 49.65,4.654 48.779,4.841C47.537,5.107 46.319,5.34 45.074,5.584C42.318,6.125 39.552,6.611 36.79,7.12C36.525,7.129 26.983,8.827 21.907,8.977C20.73,9.011 19.549,8.991 18.368,8.981C17.96,8.978 17.634,9.046 17.503,9.516C17.336,10.119 17.474,10.315 18.172,10.593C18.486,10.718 18.745,10.984 19.028,11.185C18.702,11.406 18.397,11.678 18.04,11.826C17.796,11.928 17.478,11.835 17.2,11.875C16.977,11.907 16.726,11.959 16.554,12.09C15.807,12.659 16.036,13.332 17.129,13.832C18.58,14.496 18.665,14.807 17.761,16.121C17.587,16.241 17.237,16.353 17.237,16.481C17.238,16.608 17.55,16.779 17.734,16.832C17.89,16.877 18.086,16.779 18.265,16.744C18.503,17.008 18.823,17.236 18.961,17.545C19.254,18.199 19.679,18.46 20.399,18.403C22.409,18.246 24.441,18.261 26.431,17.972C28.511,17.67 30.53,17.009 32.646,16.822C34.374,16.669 36.085,16.331 37.805,16.077C38.269,16.009 38.537,16.186 38.521,16.682C38.499,17.343 38.559,18.045 38.441,18.661C38.324,19.276 37.963,21.322 37.636,22.765C37.203,24.676 36.574,26.83 36.562,26.942C36.371,27.601 36.181,28.259 35.99,28.919C35.348,30.93 33.837,35.956 33.714,36.456C33.151,38.752 30.71,44.644 30.357,45.406C29.545,47.16 28.728,48.923 27.746,50.582C26.777,52.218 25.602,53.733 24.514,55.297C23.677,56.501 21.549,58.606 21.521,58.637C18.347,62.266 14.745,63.038 14.662,63.067C12.302,63.885 10.049,63.867 7.735,62.693C6.692,62.164 5.583,61.699 4.678,60.984C3.71,60.22 2.66,59.236 1.771,58.441C1.504,58.202 1.315,57.86 0.949,57.667C0.406,57.384 0.03,57.629 0.003,58.257C-0.009,58.53 0.011,58.852 0.145,59.076C1.163,60.791 2.297,62.439 4.008,63.522C5.67,64.572 8.178,65.771 9.846,66.443C11.513,67.114 12.843,67.566 14.131,67.83C15.419,68.093 17.595,68.461 19.413,67.921C21.232,67.382 23.247,66.55 26.056,64.253C28.865,61.955 34.501,55.506 36.673,51.498C37.607,49.775 38.449,48.002 39.295,46.233C39.999,44.757 40.784,43.292 41.302,41.743L41.307,41.739Z" style="fill:white;fill-rule:nonzero;"/>
                    <path id="polygon7" d="M125.069,46.259L125.069,46.263L125.064,46.268L125.069,46.259Z" style="fill:white;fill-rule:nonzero;"/>
                    <path id="path9" d="M76.551,12.376L75.694,12.159L75.661,12.15C75.604,11.358 75.57,10.564 75.48,9.776C75.431,9.348 75.589,8.766 74.89,8.668L74.884,8.676C74.44,8.306 73.478,8.603 73.478,8.603C73.478,8.603 72.511,8.783 72.315,9.292C71.714,9.37 71.115,9.507 70.514,9.514C68.479,9.537 68.485,9.522 67.739,11.407C67.644,11.648 67.447,11.847 67.297,12.065C67.127,11.869 66.851,11.694 66.808,11.473C66.666,10.736 66.193,10.592 65.565,10.646C64.945,10.699 64.938,11.156 64.808,11.641C64.495,12.814 64.185,14.045 63.15,14.824C61.901,15.764 61.402,17.102 60.992,18.514C60.683,19.583 60.57,20.746 59.536,21.473C59.391,21.575 59.254,22.273 59.299,22.364C58.419,23.543 55.716,27.546 55.321,28.34C54.889,29.208 54.37,30.076 54.169,31.005C54.004,31.771 53.788,32.419 53.249,32.966C52.202,33.541 52.453,34.569 52.376,35.482C52.2,35.765 52.023,36.051 51.847,36.335C51.716,36.523 51.585,36.712 51.453,36.901C51.387,36.972 51.321,37.044 51.254,37.115C51.076,37.322 51.051,37.583 50.719,37.738C50.388,37.892 49.227,38.312 48.46,38.53C47.296,38.859 47.045,39.019 47.082,39.647C47.134,40.504 47.773,40.532 48.407,40.572C48.937,40.605 49.048,40.932 48.85,41.357C48.236,42.677 47.631,44.006 46.958,45.296C45.371,48.338 42.052,54.652 42.01,54.783C41.707,55.551 41.404,56.319 41.101,57.088L41.094,57.383C40.974,57.55 40.852,57.717 40.731,57.883C40.664,57.994 40.595,58.105 40.527,58.216C40.507,58.31 40.487,58.404 40.467,58.498C40.133,59.114 39.636,59.697 39.505,60.355C39.359,61.085 39.093,61.711 38.628,62.226C37.646,63.317 38.003,64.506 38.275,65.697C38.363,66.082 38.699,66.123 38.906,65.873C39.26,65.451 39.562,64.97 39.811,64.476C40.081,63.938 40.237,63.341 40.507,62.802C40.585,62.645 40.899,62.501 41.075,62.53C41.2,62.552 41.393,62.908 41.35,63.057C41.2,63.586 40.945,64.086 40.77,64.61C40.725,64.742 40.745,65.047 40.862,65.086C40.979,65.125 41.256,64.999 41.311,64.887C41.657,64.169 41.949,63.425 42.284,62.701C42.873,61.43 43.472,60.164 44.089,58.907C44.154,58.777 44.401,58.617 44.502,58.651C44.632,58.695 44.729,58.912 44.789,59.072C44.836,59.197 44.827,59.354 44.805,59.491C44.563,60.955 44.311,62.416 44.07,63.878C44.057,63.957 44.11,64.117 44.137,64.119C44.262,64.124 44.458,64.127 44.501,64.054C44.635,63.826 44.716,63.564 44.809,63.313C45.228,62.184 45.315,60.891 46.47,60.131C46.676,59.995 46.868,59.659 46.867,59.418C46.862,58.366 49.309,53.119 49.6,52.558L49.607,52.552C49.837,51.972 52.592,46.296 53.134,44.842C53.2,44.662 54.079,42.733 54.139,42.654C54.527,41.805 54.915,40.954 55.302,40.104C55.888,39.816 56.456,39.483 57.062,39.246C60.152,38.044 67.406,35.058 67.767,35.146C67.771,35.237 67.774,35.935 67.778,36.028C67.784,36.218 67.791,36.409 67.798,36.599C67.793,37.911 67.764,39.223 67.79,40.535C67.812,41.57 68.074,44.941 67.996,45.578C67.874,46.578 67.834,47.513 68.284,48.479C68.702,49.375 68.88,50.37 68.6,51.378L68.58,51.408C68.575,51.79 68.569,52.175 68.563,52.559L68.563,52.561C68.632,53.258 68.626,53.952 69.191,54.52C69.579,54.91 69.875,55.035 70.198,54.548C70.432,54.199 70.57,54.253 70.818,54.53C71.449,55.237 71.8,55.997 71.62,56.984C71.561,57.306 71.707,57.7 71.858,58.014C71.941,58.188 72.082,58.508 72.421,58.386C72.76,58.264 72.728,57.939 72.755,57.701C72.809,57.236 72.739,56.756 72.785,56.289C72.826,55.879 72.909,55.459 73.067,55.082C73.158,54.863 73.411,54.662 73.638,54.575C73.719,54.544 73.968,54.848 74.086,55.033C74.233,55.269 74.279,55.577 74.448,55.79C74.854,56.303 75.416,56.209 75.603,55.587C75.722,55.189 75.775,54.753 75.764,54.336C75.716,52.591 75.564,50.846 75.582,49.103C75.617,45.608 75.742,42.112 75.823,38.618C75.903,35.169 75.959,31.721 76.056,28.273C76.085,27.24 76.278,26.21 76.288,25.178C76.318,21.819 76.619,18.488 77.15,15.173C77.308,14.187 77.137,13.252 76.608,12.394L76.556,12.387L76.551,12.376ZM66.367,30.892C65.802,31.124 65.198,31.264 64.632,31.495C64.394,31.592 63.855,31.973 63.855,31.973C63.855,31.973 63.63,32.241 63.564,32.328C63.157,32.524 62.748,32.884 62.341,32.883C61.322,32.879 60.632,33.315 60.112,34.13C59.986,34.329 59.895,34.566 59.728,34.722C59.611,34.832 59.373,34.908 59.228,34.867C59.098,34.829 58.924,34.6 58.937,34.471C58.975,34.057 59.02,33.62 59.189,33.249C59.874,31.752 60.566,30.255 61.33,28.798C62.534,26.503 63.798,24.239 65.036,21.962C65.241,21.588 65.391,21.189 65.986,21.351C66.188,21.406 66.479,21.214 66.7,21.084C66.912,20.958 67.084,20.767 67.273,20.606C67.321,20.88 67.408,21.155 67.409,21.43C67.419,24.034 67.385,26.64 67.428,29.243C67.446,30.089 67.093,30.597 66.371,30.892L66.367,30.892Z" style="fill:white;fill-rule:nonzero;"/>
                    <path id="path11" d="M130.336,10.129C130.052,10.022 129.768,9.913 129.486,9.806C129.485,9.736 129.463,9.675 129.419,9.625C129.406,9.612 130.267,8.567 129.778,8.06C129.646,7.957 128.911,7.702 128.779,7.599C128.713,7.187 128.636,6.776 128.583,6.361C128.495,5.694 128.089,5.529 127.494,5.64C127.302,5.777 127.11,5.913 126.917,6.05L126.833,6.048L125.935,5.977C125.288,6.17 125.547,6.514 124.901,6.707C124.754,6.815 124.607,6.922 124.46,7.03C124.018,7.406 123.708,7.62 123.167,8.371C122.626,9.122 122.004,10.347 121.627,11.028C121.251,11.708 119.703,15.749 119.677,15.799C119.553,15.913 116.966,21.649 116.112,23.572C115.447,25.068 114.573,26.861 113.923,28.664C113.273,30.467 112.649,33.216 112.503,33.386C112.454,33.51 112.405,33.635 112.356,33.76L112.163,34.334C112.137,34.522 112.113,34.71 112.087,34.899C111.903,35.932 111.626,37.345 111.429,37.976C111.231,38.606 110.807,39.318 110.567,40.019C110.371,41.356 110.143,42.689 109.991,44.032C109.874,45.06 109.852,46.099 109.789,47.133C109.829,47.508 109.87,47.881 109.911,48.258C110.099,48.926 110.142,49.244 110.476,50.264C110.81,51.284 112.216,52.24 112.216,52.24C113.877,53.175 116.676,53.172 117.937,52.306C119.198,51.44 120.063,50.86 120.607,50.382C121.15,49.905 123.897,47.719 125.198,46.266C126.498,44.812 126.987,44.114 127.371,43.729C127.565,44.4 127.377,44.983 126.96,45.514C126.872,45.769 126.783,46.024 126.693,46.278C126.624,47.438 126.5,48.597 126.496,49.757C126.491,51.316 127.113,54.587 128.736,54.87C130.359,55.153 130.626,55.163 131.583,54.675C132.328,54.296 133.179,54.101 134.002,53.912C134.597,53.777 134.799,54.063 134.538,54.631C134.242,55.273 133.901,55.897 133.543,56.508C132.117,58.951 130.701,61.399 129.245,63.826C128.666,64.791 128.995,64.923 129.779,64.934C129.92,64.937 129.638,65.722 129.661,65.983C129.736,66.815 130.141,67.065 130.83,66.584C131.233,66.301 131.539,65.852 131.824,65.434C132.112,65.01 132.296,64.514 132.583,64.089C132.636,64.009 133.07,64.041 133.143,64.149C133.325,64.412 133.046,65.045 133.652,64.934C133.939,64.882 134.168,64.466 134.406,64.201C134.562,64.024 134.676,63.812 134.827,63.631C135.079,63.324 135.319,63.21 135.58,63.654C135.846,64.109 136.237,64.009 136.514,63.698C136.951,63.205 137.392,62.695 137.703,62.122C138.529,60.59 139.307,59.029 140.065,57.462C140.34,56.894 140.638,56.47 141.341,56.654C141.932,56.809 142.186,56.535 142.374,56.003C142.641,55.246 142.935,54.491 143.317,53.789C144.579,51.478 145.888,49.192 147.174,46.895C148.208,45.048 149.234,43.194 150.261,41.344C150.814,40.347 151.246,39.268 151.914,38.338C152.791,37.119 154.483,36.864 155.009,36.919C155.534,36.974 156.096,36.656 156.338,36.41C156.58,36.166 156.638,36.198 156.981,35.976C157.324,35.754 157.544,35.571 157.709,35.451C157.872,35.331 160.391,34.334 160.921,33.815C161.942,32.814 163.521,32.231 164.931,32.119C165.064,32.77 165.099,33.475 165.106,34.138C165.119,35.627 165.088,37.118 165.077,38.606C165.067,38.802 165.056,38.998 165.046,39.193C164.662,40.149 165.072,41.014 165.322,41.912C165.441,42.336 165.564,42.876 165.407,43.243C164.887,44.445 165.132,45.668 165.158,46.882C165.168,47.363 165.355,47.854 166.002,47.788C166.536,47.735 166.617,48.017 166.653,48.46C166.723,49.305 166.851,50.146 166.957,50.989C167.056,51.782 167.136,52.58 167.269,53.369C167.339,53.787 167.511,54.116 168.001,54.304C168.796,54.61 168.821,54.74 168.428,55.54C168.206,55.993 167.976,56.391 168.432,56.81C169.188,57.503 169.22,58.254 168.651,59.079C168.31,59.575 168.37,59.983 169.019,60.128C169.567,60.252 169.602,60.702 169.66,61.107C169.708,61.428 169.644,61.764 169.62,62.093C169.59,62.537 169.735,62.843 170.228,62.853C170.659,62.863 170.772,62.585 170.791,62.205C170.894,60.133 170.978,58.062 171.13,55.995C171.194,55.113 171.567,53.025 171.579,52.855C171.667,51.991 171.927,49.862 171.971,49.663C172.058,47.393 172.263,41.587 172.391,39.452C172.52,37.317 173.193,27.303 173.238,25.797C173.187,25.7 174.485,16.282 174.922,14.145C175.36,12.008 175.333,10.084 175.28,9.864C175.227,9.644 174.296,9.388 173.778,9.302C172.738,9.132 171.681,9.069 170.629,8.962C169.945,8.876 170.085,8.036 170.027,7.888C169.971,7.74 167.744,7.101 167.298,7.334C166.852,7.567 166.745,9.722 166.638,10.718C166.36,11.194 166.085,11.671 165.808,12.148C165.604,12.333 165.4,12.521 165.195,12.707C165.115,12.791 165.031,12.874 164.951,12.957C164.402,13.302 163.854,13.647 163.306,13.991C162.523,14.829 161.741,15.665 160.956,16.503C160.905,16.559 160.504,17.063 160.39,17.215C159.964,17.803 158.964,19.08 158.954,19.181C158.798,19.397 158.64,19.612 158.482,19.827C158.482,19.827 158.129,19.964 158.076,20.061C157.405,21.286 156.75,22.522 156.091,23.755C156.091,23.755 155.617,23.984 155.364,24.107C155.146,24.277 154.928,24.447 154.71,24.616C154.622,24.645 153.267,26.421 152.545,27.179C152.396,27.336 152.127,27.892 152.13,27.981C151.16,28.385 151.282,29.915 151.14,30.096C150.997,30.278 150.342,30.583 150.172,30.901C149.679,31.826 149.086,33.464 148.859,33.762C148.634,34.061 148.292,34.359 148.075,34.562C147.931,34.619 147.789,34.677 147.644,34.735C147.023,34.799 146.735,35.599 146.654,35.767C146.572,35.935 146.357,35.967 146.209,36.067C146.103,36.14 145.996,36.213 145.888,36.288L145.905,36.271C145.688,36.365 145.472,36.461 145.256,36.555C143.893,37.382 142.529,38.201 141.178,39.047C141.062,39.119 140.954,39.416 141.011,39.522C141.487,40.437 141.19,41.16 140.516,41.816C140.459,41.871 140.417,42.046 140.437,42.059C140.545,42.131 140.699,42.24 140.796,42.208C141.377,42.016 141.939,41.768 142.522,41.584C142.726,41.521 143.114,41.511 143.167,41.612C143.277,41.818 143.286,42.134 143.216,42.371C143.142,42.629 142.935,42.851 142.781,43.086C142.242,43.912 140.845,45.765 140.74,45.908C139.969,46.97 139.221,48.051 138.444,49.11C137.989,49.733 137.487,50.062 136.775,49.517C136.261,49.122 135.771,48.693 135.27,48.282C135.235,47.993 135.2,47.706 135.164,47.417C135.366,46.317 135.423,45.221 135.942,44.151C136.672,42.649 137.116,41.007 137.668,39.419C138.271,37.688 138.858,35.951 139.448,34.216C139.749,33.331 140.045,32.44 140.331,31.548C141.327,29.559 142.336,27.576 143.309,25.577C143.822,24.526 144.272,23.446 144.751,22.378C144.832,22.355 144.864,22.302 144.851,22.22C145.729,20.517 146.679,18.846 147.447,17.095C147.728,16.451 147.69,15.599 147.577,14.878C147.523,14.536 146.961,14.258 146.605,13.983C146.226,13.69 146.231,13.43 146.488,13.029C147.01,12.209 146.933,11.704 146.371,11.028C145.925,10.489 145.337,10.407 144.711,10.433C143.921,10.463 143.171,10.453 142.37,10.225C141.712,10.038 140.778,9.737 140.189,10.604L140.132,10.661C139.909,11.061 136.401,17.167 136.207,17.481L135.215,19.007C134.961,19.389 135.545,20.001 135.419,20.306C135.292,20.611 134.985,20.157 134.502,20.641C134.471,20.651 134.077,22.049 133.751,23.333C133.724,23.441 134.148,23.554 134.119,23.668C134.095,23.76 133.619,24.156 133.595,24.252C133.353,25.206 133.082,25.978 132.824,26.971C132.777,27.153 132.881,27.181 132.835,27.357C132.79,27.529 132.594,27.395 132.551,27.559C132.305,28.485 132.089,29.705 131.95,30.099C131.911,30.213 132.023,30.325 131.984,30.439C131.928,30.596 131.723,30.753 131.669,30.911C131.015,32.8 130.395,34.697 129.825,36.613C129.774,36.741 129.723,36.872 129.67,36.999C129.209,37.62 128.747,38.24 128.286,38.86C128.02,39.097 127.754,39.332 127.489,39.567C127.49,39.619 127.489,39.671 127.485,39.718C127.489,39.67 127.49,39.619 127.489,39.567C127.284,39.802 127.08,40.037 126.881,40.273C126.746,40.382 126.611,40.493 126.475,40.602C126.383,40.625 126.327,40.683 126.308,40.777C126.201,40.888 126.095,40.999 125.988,41.11C125.987,41.098 125.989,41.089 125.987,41.078C125.671,41.395 125.355,41.712 125.039,42.03C125.115,42.027 125.186,42.021 125.255,42.011C125.186,42.021 125.115,42.027 125.039,42.03C124.909,42.145 124.779,42.26 124.65,42.374C124.491,42.541 124.333,42.706 124.175,42.872C124.09,42.903 123.675,43.298 123.494,43.42C123.411,43.463 123.319,43.494 123.246,43.548C121.152,45.133 119.059,46.718 116.968,48.305C116.801,48.36 116.804,48.373 116.47,48.472C116.134,48.571 115.175,48.432 115.145,48.023C115.113,47.614 115.459,45.264 115.825,43.885C116.564,41.108 117.539,38.45 118.846,35.901C119.352,34.913 119.848,33.558 120.286,32.896C120.723,32.235 121.603,31.057 121.916,30.426C122.229,29.795 122.398,28.601 122.818,27.781C123.587,26.282 124.461,24.832 125.362,23.405C125.947,22.478 126.439,21.572 126.552,20.436C126.626,19.672 126.942,18.905 127.118,18.644C127.294,18.384 127.737,18.003 127.824,17.833C128.396,16.71 128.927,15.565 129.471,14.428C129.471,14.428 130.603,12.609 131.039,11.642C131.482,10.648 131.436,10.627 130.332,10.117M127.468,39.808C127.466,39.817 127.465,39.829 127.463,39.839C127.468,39.829 127.468,39.818 127.468,39.808ZM136.213,17.466L136.261,17.53L136.215,17.474L136.215,17.466L136.213,17.466ZM164.517,22.21C164.248,22.937 164.002,23.598 164.067,24.38C164.097,24.74 163.977,25.12 163.881,25.478C163.756,25.946 163.456,26.181 162.94,26.133C161.581,26.009 160.641,26.751 159.79,27.685C159.604,27.889 159.387,28.11 159.138,28.204C158.62,28.397 158.071,28.51 157.537,28.656C157.651,28.175 157.711,27.671 157.895,27.216C158.157,26.57 158.432,25.904 158.838,25.346C160.356,23.256 161.93,21.207 163.495,19.153C164.186,18.247 164.067,19.14 164.395,19.218C164.486,19.24 164.738,18.786 164.828,18.814C164.943,18.852 164.979,18.967 165.031,19.065C165.08,19.155 165.118,19.25 165.147,19.349C165.215,19.582 165.234,19.829 165.221,20.071C165.196,20.563 165.008,21.016 164.824,21.466C164.716,21.714 164.604,21.96 164.512,22.21L164.517,22.21Z" style="fill:white;fill-rule:nonzero;"/>
                    <path id="path13" d="M198.901,37.151C199.33,37.292 200.313,37.55 201.026,37.728C201.91,37.951 202.686,38.322 203.313,39.027C204.12,39.937 204.995,40.788 205.833,41.671C206.022,41.869 206.237,42.073 206.345,42.317C207.06,43.938 207.964,45.354 209.77,45.96C210.15,46.086 210.459,46.431 210.789,46.689C211.037,46.885 211.245,47.138 211.51,47.309C212.613,48.024 213.75,48.687 214.834,49.431C215.602,49.959 216.302,50.588 217.033,51.171C217.134,51.249 217.233,51.325 217.333,51.401C217.99,51.983 218.649,52.564 219.307,53.146C223.205,57.046 226.961,61.116 231.802,63.919C232.18,64.151 232.559,64.385 232.936,64.618C233.198,64.775 233.458,64.931 233.718,65.088C233.939,65.253 234.156,65.419 234.375,65.584C235.502,66.432 236.655,67.248 237.75,68.135C239.579,69.619 241.364,71.154 243.181,72.65C243.726,73.099 248.926,76.612 249.505,77.016C249.561,77.055 251.103,77.475 249.887,76.442C249.103,75.776 245.387,73.507 245.351,73.475C244.288,72.553 242.919,71.804 241.868,70.867C240.464,69.617 239.082,68.344 237.693,67.076C236.034,65.56 234.63,63.743 232.539,62.738C232.297,62.622 232.058,62.404 231.928,62.17C230.94,60.397 229.348,59.181 227.894,57.864C226.895,56.957 225.633,56.347 224.55,55.522C223.167,54.47 221.845,53.337 220.496,52.24C220.374,52.113 220.252,51.984 220.13,51.857C219.529,51.308 218.929,50.759 218.329,50.212C217.276,49.433 216.232,48.64 215.165,47.881C214.709,47.558 214.193,47.318 213.719,47.016C213.561,46.914 213.201,46.741 213.627,46.543C214.31,46.222 213.893,46.036 213.579,45.796C211.675,44.338 209.817,42.841 208.228,41.014C207.634,40.332 206.723,39.928 205.962,39.391C205.698,39.204 205.411,39.028 205.201,38.79C204.147,37.6 203.549,36.038 202.184,35.098C202.046,35.003 201.97,34.784 201.92,34.607C201.874,34.448 201.907,34.27 201.905,34.1C202.072,34.116 202.3,34.068 202.401,34.159C202.896,34.596 203.343,35.082 203.83,35.525C204.1,35.77 204.395,36.106 204.715,36.151C205.337,36.239 205.746,36.432 205.987,37.061C206.087,37.32 206.482,37.472 206.754,37.655C207.532,38.181 208.337,38.668 209.089,39.23C209.512,39.547 209.83,39.966 210.439,39.586C210.557,39.513 210.898,39.628 211.024,39.762C212.554,41.421 214.055,43.106 215.582,44.769C216.27,45.518 216.834,46.396 217.822,46.847C218.355,47.09 218.885,47.421 219.299,47.83C220.031,48.558 220.716,49.343 221.344,50.164C222.059,51.104 222.934,51.753 224.083,52.028C224.386,52.251 224.693,52.473 224.997,52.697C225.408,53.006 225.82,53.316 226.23,53.624C227.318,54.436 228.407,55.249 229.494,56.062C229.684,56.225 229.876,56.386 230.067,56.548C230.174,56.636 230.279,56.726 230.386,56.815C230.561,56.954 230.738,57.094 230.913,57.233C231.005,57.289 231.097,57.345 231.189,57.401C232.506,58.459 233.838,59.499 235.134,60.578C236.872,62.025 238.569,63.519 240.314,64.955C241.616,66.027 243.082,66.9 244.191,68.205C244.339,68.379 244.558,68.567 244.767,68.6C245.11,68.652 245.598,68.721 245.803,68.535C246.149,68.22 245.828,67.873 245.546,67.591C245.051,67.092 244.436,66.64 244.139,66.036C243.856,65.459 243.489,65.129 242.947,64.945C240.726,64.188 239.15,62.548 237.498,61.011C236.088,59.699 234.677,58.387 233.268,57.075C232.871,56.702 232.475,56.329 232.079,55.957C231.988,55.868 231.897,55.778 231.807,55.69C231.588,55.47 231.37,55.25 231.153,55.029C231,54.857 230.846,54.685 230.693,54.513C230.14,54.015 229.62,53.469 229.025,53.029C228.122,52.363 227.114,51.834 226.246,51.13C225.384,50.431 224.498,49.685 223.881,48.784C223.133,47.688 222.377,46.758 221.017,46.479C220.754,46.424 220.534,46.195 220.287,46.06C218.975,45.344 218.105,44.145 217.141,43.072C216.204,42.028 215.406,40.859 214.547,39.746C214.44,39.641 214.333,39.535 214.227,39.43C213.754,38.797 213.353,38.089 212.792,37.545C212.023,36.798 211.135,36.173 210.296,35.498C209.529,34.883 209.52,34.558 210.362,34.023C210.833,33.722 211.408,33.592 211.88,33.293C214.79,31.452 217.587,29.472 219.594,26.585C220.196,25.595 220.912,24.654 221.378,23.604C222.232,21.682 222.349,19.659 222.186,17.539C222.021,15.411 221.255,13.662 219.92,12.085C219.908,11.992 219.22,11.317 219.149,11.241C218.882,10.972 218.267,10.449 216.544,9.128C214.821,7.806 212.375,6.498 210.229,6.217C208.082,5.935 205.121,6.373 203.829,6.491C203.613,6.51 203.339,6.627 203.213,6.791C202.613,7.573 201.702,7.697 200.862,7.977C200.162,7.961 199.46,7.915 198.761,7.938C198.031,7.963 197.301,8.055 196.572,8.118C196.309,8.134 195.619,8.223 195.538,8.25C195.202,8.306 194.008,8.591 193.791,8.663C192.508,9.248 188.875,10.619 188.122,10.916C187.371,11.213 187.055,11.208 186.018,11.428C185.576,11.522 185.063,11.85 184.603,12.133L184.453,12.246C183.953,12.501 183.454,12.758 182.952,13.013C182.681,13.177 182.41,13.341 182.139,13.505C181.66,13.713 181.18,13.923 180.699,14.131C180.522,14.205 180.117,14.283 179.866,14.433C179.615,14.585 178.953,15.221 178.876,15.553C178.799,15.886 178.75,16.113 178.687,16.393C178.622,16.617 178.558,16.841 178.492,17.064C178.492,17.064 178.445,17.172 178.444,17.172C178.295,17.522 177.758,17.676 177.445,17.809C177.015,17.993 176.465,18.148 176.096,18.443C175.757,18.715 175.695,19.153 175.541,19.536C175.423,19.826 175.454,20.281 175.583,20.562C175.709,20.837 176.246,21.344 176.536,21.389C176.869,21.439 177.371,21.473 177.532,21.54C177.692,21.607 178.177,22.142 178.146,22.366C178.116,22.59 178.292,23.166 178.748,23.326C179.074,23.38 179.401,23.433 179.728,23.488C180.058,23.502 180.388,23.516 180.719,23.53C180.797,23.62 180.876,23.709 180.954,23.797C181.097,24.233 181.329,24.534 181.851,24.402C182.232,24.403 182.949,24.556 183.707,24.397C184.465,24.239 184.837,23.979 185.366,23.7C185.933,23.4 186.455,23.016 186.996,22.669C187.31,22.418 187.67,22.309 187.641,22.863C187.581,23.995 187.302,25.085 186.676,26.055C186.633,26.157 186.591,26.26 186.55,26.362C186.259,27.885 182.874,36.328 182.422,38.028C181.969,39.73 181.53,41.489 181.402,41.792C181.373,41.916 181.346,42.038 181.317,42.161C181.133,42.743 180.911,43.318 180.783,43.911C180.699,44.3 180.48,45.242 180.775,45.102C181.701,44.667 181.103,45.668 180.271,46.233C179.773,46.266 178.411,49.334 178.244,50.926C178.142,51.906 177.487,53.34 177.737,53.738C177.787,53.819 177.965,53.99 177.864,54.031C177.189,54.305 176.707,57.091 176.707,57.091C176.707,57.091 176.93,57.213 176.819,57.325C176.707,57.438 176.693,57.466 176.616,57.534C176.48,57.67 175.725,59.239 175.583,59.601C175.524,59.706 174.818,61.143 174.73,61.313C174.237,62.01 174.071,63.796 174.255,64.673C174.378,65.253 174.499,64.563 174.511,65.159C174.514,65.3 174.478,65.384 174.478,65.518C174.479,65.8 174.649,67.434 174.888,67.543C175.332,67.748 175.364,67.267 175.508,67C175.552,66.92 175.624,66.856 175.684,66.785C175.657,66.683 176.087,66.225 176.179,66.175C176.272,66.206 175.763,67.622 176.114,67.526C176.466,67.432 177.502,63.944 177.619,63.687C177.822,63.299 178.025,62.912 178.228,62.524C178.403,62.471 178.577,62.418 178.751,62.365C178.931,62.419 179.11,62.472 179.287,62.526C179.349,62.62 179.41,62.716 179.472,62.81C179.476,63.087 179.445,63.369 179.498,63.636C179.524,63.773 179.696,63.881 179.801,64.003C179.912,63.879 180.023,63.758 180.134,63.633C180.222,63.422 180.304,63.21 180.393,62.999C181.335,60.768 182.278,58.537 183.217,56.306C183.422,55.818 183.543,55.298 183.758,54.814C183.793,54.734 184.529,53.562 184.657,53.761C184.755,53.912 184.919,54.056 184.935,54.215C184.96,54.488 184.846,54.777 184.881,55.048C184.906,55.243 185.057,55.547 185.191,55.571C185.359,55.6 185.623,55.434 185.748,55.275C185.948,55.021 186.13,54.72 186.214,54.41C186.4,53.7 187.599,47.449 189.014,41.347C190.401,35.364 192.302,28.961 192.496,28.961C192.932,28.961 193.137,28.752 193.218,28.358C193.411,27.502 193.605,26.646 193.798,25.79C193.9,25.442 194,25.095 194.099,24.747C194.198,24.525 194.297,24.302 194.395,24.079C194.686,23.541 194.956,22.99 195.272,22.469C195.525,22.052 195.819,21.899 196.01,22.53C196.152,23.001 196.466,23.082 196.679,22.673C197.151,21.765 197.672,20.84 197.891,19.859C198.051,19.138 198.387,18.788 198.961,18.518C202.367,16.92 205.706,17.065 208.97,18.926C210.318,19.696 210.897,20.769 210.572,22.06C210.275,23.249 209.834,24.379 209.064,25.377C208,26.758 206.994,28.187 205.997,29.619C205.173,30.801 203.139,30.998 202.092,29.978C201.586,29.484 201.068,28.996 200.508,28.568C200.026,28.198 199.354,28.339 199.196,28.84C199.044,29.319 198.9,29.854 199.411,30.272C199.926,30.69 200.479,31.078 200.905,31.574C201.146,31.854 201.302,32.354 201.233,32.702C201.185,32.946 200.703,33.244 200.396,33.269C199.797,33.318 199.183,33.165 198.574,33.152C198.267,33.144 197.809,33.156 197.673,33.343C197.37,33.76 196.898,34.318 196.873,34.855C196.831,35.535 198.516,37.02 198.893,37.145L198.901,37.151Z" style="fill:white;fill-rule:nonzero;"/>
                    <path id="path15" d="M245.487,77.407C243.996,76.514 242.484,75.658 240.991,74.769C240.036,74.199 238.978,73.729 238.184,72.982C234.547,69.562 231.012,66.033 227.389,62.6C225.996,61.28 224.556,59.999 222.643,59.4C221.798,59.136 220.997,58.696 220.227,58.247C219.76,57.974 219.27,57.6 219.007,57.148C217.984,55.386 216.31,54.327 214.814,53.074C213.05,51.73 211.982,49.63 209.947,48.577C209.785,48.494 209.644,48.346 209.53,48.198C208.19,46.446 206.752,44.79 205.096,43.318C203.39,41.801 201.966,39.974 199.985,38.758C199.517,38.472 199.156,38.001 198.779,37.583C198.737,37.537 197.91,36.741 197.383,36.443C196.854,36.144 195.625,35.831 194.734,35.558C193.633,35.219 193.177,35.538 193.007,36.715C192.946,37.135 192.914,37.563 192.916,37.987C192.919,38.867 193.064,39.001 193.98,39.126C194.347,39.177 194.827,39.138 195.055,39.353C195.622,39.894 196.253,39.873 196.905,39.768C197.558,39.662 197.926,39.925 198.321,40.432C199.069,41.39 199.813,42.411 200.765,43.13C201.985,44.051 202.944,45.195 204.005,46.254C205.235,47.479 206.267,48.896 207.906,49.701C208.518,50.002 208.901,50.775 209.387,51.334C209.878,51.897 210.287,52.569 210.871,53.001C211.811,53.699 212.866,54.24 213.873,54.847C214.237,55.138 214.609,55.42 214.963,55.723C215.709,56.366 216.552,56.935 217.15,57.696C217.669,58.356 218.17,58.798 218.995,59.056C219.828,59.318 220.652,59.785 221.324,60.347C223.423,62.103 225.454,63.938 227.498,65.76C228.902,67.012 230.213,68.378 232.143,68.863C232.562,68.967 232.923,69.357 233.282,69.649C234.077,70.297 234.856,70.965 235.641,71.624C235.865,71.796 236.09,71.968 236.314,72.14C236.374,72.212 236.426,72.296 236.498,72.354C238.752,74.207 241.341,75.606 243.484,77.62C243.892,78.002 244.737,77.83 245.179,78.244C252.032,84.671 252.178,83.202 252.414,83.093C252.279,82.906 245.658,77.506 245.48,77.399L245.487,77.407Z" style="fill:white;fill-rule:nonzero;"/>
                    <path id="path17" d="M234.753,76.146C234.528,75.468 234.058,75.165 233.588,74.834C232.979,74.404 232.289,74.09 231.643,73.711C230.721,73.167 229.74,72.703 229.35,71.551C229.244,71.243 228.864,70.866 228.561,70.815C227.265,70.592 226.571,69.203 225.205,69.136C225.036,69.128 224.885,68.816 224.72,68.653C224.386,68.323 224.021,68.021 223.717,67.667C223.036,66.867 221.87,66.549 221.516,65.406C221.466,65.243 221.065,65.156 220.812,65.1C219.458,64.799 218.358,64.133 217.85,62.795C217.484,61.83 216.779,61.173 216.122,60.442C215.566,59.823 214.949,59.543 214.135,59.648C213.464,59.735 212.954,59.534 212.634,58.873C212.498,58.591 212.199,58.388 211.975,58.148C211.666,57.794 211.358,57.44 211.05,57.087C210.971,56.98 210.894,56.872 210.816,56.766C210.81,56.673 210.774,56.595 210.708,56.531C210.577,55.712 210.186,55.071 209.448,54.664C208.293,53.703 207.071,52.81 205.998,51.763C204.549,50.35 203.154,48.885 202.675,46.768C202.531,46.136 202.021,45.499 201.512,45.063C200.66,44.333 199.717,43.681 198.732,43.146C197.254,42.344 195.821,41.406 194.113,41.112C193.575,41.02 193.024,40.805 192.649,41.391C192.407,41.769 192.708,42.03 193.023,42.257C193.21,42.391 193.438,42.552 193.649,42.554C194.64,42.565 195.063,43.238 195.319,44.02C195.667,45.091 196.338,45.583 197.458,45.737C198.374,45.863 199.356,46.197 199.681,47.223C200.25,49.017 201.469,50.286 202.886,51.382C204.197,52.398 205.34,53.552 206.313,54.889C206.504,55.151 206.685,55.437 206.931,55.638C207.908,56.431 208.907,57.197 209.899,57.972C209.999,58.065 210.098,58.157 210.199,58.251C210.484,58.537 210.771,58.824 211.056,59.11C211.805,60.483 212.955,61.317 214.476,61.649C214.672,61.726 214.871,61.803 215.068,61.879C215.408,62.172 215.781,62.434 216.082,62.764C216.611,63.344 217.062,63.997 217.605,64.562C217.992,64.965 218.471,65.28 218.916,65.628C220.437,66.822 221.933,68.054 223.492,69.196C225.08,70.359 226.744,71.42 228.355,72.553C229.084,73.066 229.801,73.608 230.456,74.208C231.568,75.223 232.656,76.245 234.02,76.933C234.576,77.215 235.045,77.67 235.552,78.046C235.64,78.057 242.153,82.466 242.774,82.999C243.137,83.311 245.781,85.006 248.188,86.868C249.894,88.189 251.355,89.704 252.36,90.382C256.909,93.451 255.189,91.209 255.334,91.227C255.204,91.028 238.466,78.839 238.337,78.64C237.881,78.173 234.943,76.707 234.756,76.147L234.753,76.146Z" style="fill:white;fill-rule:nonzero;"/>
                    <path id="path19" d="M185.085,56.637C184.728,56.637 184.354,56.897 184.027,57.111C183.897,57.196 183.846,57.438 183.806,57.618C183.686,58.166 183.595,58.72 183.481,59.27C183.324,60.027 183.434,60.87 182.647,61.411C182.292,61.655 182.504,62.007 182.741,62.262C183.038,62.579 183.389,62.505 183.58,62.198C183.95,61.605 184.284,60.978 184.553,60.332C184.926,59.436 185.437,58.051 185.592,57.49C185.746,56.934 185.252,56.64 185.085,56.64L185.085,56.637Z" style="fill:white;fill-rule:nonzero;"/>
                    <path id="path21" d="M90.331,54.733C92.348,55.574 94.628,55.823 96.879,55.358C97.806,55.167 98.019,55.103 99.523,54.216C101.028,53.329 102.056,51.195 102.363,51.083C102.671,50.972 103.633,50.918 103.928,51.168C104.102,51.314 104.565,51.919 105.147,52.371C105.729,52.824 105.152,52.781 105.592,53.394C106.032,54.008 106.662,53.336 106.673,53.642C106.684,53.948 106.912,54.194 107.411,54.192C107.912,54.191 107.807,52.242 107.702,51.115C107.599,50.464 107.369,47.939 107.416,47.387C107.463,46.836 107.617,45.891 107.718,45.142C107.681,44.176 108.527,40.991 108.664,40.303C108.602,40.208 109.265,38.38 109.65,36.602C110.037,34.824 110.327,32.712 110.347,32.054C110.386,31.026 110.579,29.294 110.463,28.969C110.347,28.642 109.715,28.776 109.476,28.909C109.238,29.043 109.353,29.13 109.291,29.241L109.28,29.288C109.234,29.281 109.193,29.293 109.162,29.338C108.28,29.493 107.822,28.609 107.473,28.478C107.124,28.347 106.874,28.318 106.449,28.385C106.025,28.452 104.453,30.025 103.699,30.378C102.946,30.732 100.409,31.868 99.534,31.738C99.46,31.81 99.372,31.835 99.271,31.813C98.933,32.164 98.622,32.782 98.25,32.821C96.427,33.015 95.384,34.372 94.107,35.387C93.884,35.678 93.568,35.937 93.453,36.266C93.11,37.25 92.739,37.883 91.75,38.405C91.695,38.434 91.647,38.586 91.675,38.629C91.717,38.693 91.827,38.743 91.91,38.746C92.536,38.767 93.279,38.231 93.279,38.231C93.279,38.231 96.357,36.906 97.889,36.229C98.552,35.935 99.176,35.767 99.901,36.117C100.177,36.251 100.603,36.075 100.96,36.04L101.381,35.796C101.525,35.759 101.668,35.721 101.812,35.684L102.079,35.657C102.273,35.688 102.469,35.721 102.665,35.752C102.311,36.817 102.145,38.699 102.093,39.038C102.042,39.376 101.917,39.565 101.842,39.835C101.73,40.237 101.604,40.639 101.543,41.051C101.345,42.382 101.081,43.715 101.027,45.056C100.993,45.885 101.486,47.162 101.745,47.466C102.004,47.77 102.291,48.195 101.844,48.568C101.395,48.942 101.047,49.287 100.649,49.648C100.151,49.833 99.17,50.593 97.728,50.817C96.285,51.04 95.039,50.983 93,50.07C90.959,49.158 89.302,47.498 88.176,46.477C87.05,45.455 85.404,41.536 85.288,39.762C85.172,37.988 85.34,36.189 85.394,35.469C85.448,34.749 85.85,32.326 86.496,30.652C87.142,28.979 89.019,26.658 89.28,26.364C90.253,25.421 91.226,24.478 92.2,23.535C93.305,22.692 95.054,21.173 97.549,19.785C98.115,19.508 101.242,17.718 103.615,17.53C104.306,17.475 104.98,17.201 105.641,16.966C106.241,16.753 106.586,16.329 106.303,15.652C106.108,15.185 106.114,14.733 106.636,14.603C107.294,14.439 106.701,13.424 106.39,13.496C106.054,13.574 105.72,13.719 105.241,13.408C104.719,13.068 104.28,12.39 104.104,11.52C104.032,11.16 104.594,11.179 104.239,10.7C103.884,10.223 103.195,10.519 102.9,10.277C102.802,10.242 102.704,10.208 102.607,10.173C102.239,10.126 101.873,10.08 101.506,10.034C101.449,9.983 101.391,9.932 101.334,9.881C100.966,9.444 100.539,9.393 99.96,9.441C98.249,9.582 96.68,10.24 95.04,10.631C94.455,10.837 93.869,11.043 93.283,11.249C93.027,11.45 92.781,11.663 92.516,11.848C91.828,12.332 91.131,12.804 90.438,13.281C90.353,13.37 90.268,13.459 90.183,13.548L90.157,13.582C89.938,13.863 89.719,14.143 89.5,14.425C89.433,14.512 89.368,14.599 89.303,14.685C89.113,14.871 88.924,15.057 88.734,15.242C88.633,15.333 88.532,15.424 88.432,15.515C88.26,15.624 88.089,15.732 87.917,15.841L87.9,15.859C87.792,16.043 87.684,16.226 87.575,16.411L87.557,16.522C87.408,16.676 87.259,16.831 87.11,16.985C86.98,17.138 86.849,17.29 86.719,17.442C86.621,17.563 86.523,17.683 86.426,17.803L86.155,18.043C85.992,18.257 85.829,18.472 85.665,18.686L85.632,18.723C85.418,18.981 85.206,19.238 84.993,19.497L84.775,19.854L83.765,21.539C83.671,21.578 83.619,21.649 83.611,21.752C83.52,21.966 83.43,22.181 83.339,22.395C83.243,22.564 83.147,22.735 83.05,22.905C82.092,23.648 81.578,24.667 81.265,25.809C81.199,25.891 81.133,25.973 81.068,26.054C80.956,26.352 80.843,26.65 80.73,26.948C80.558,27.41 80.386,27.871 80.214,28.332C79.169,30.223 78.904,32.327 78.766,34.411C78.585,37.139 78.62,39.883 79.275,42.57C79.492,43.461 81.016,46.898 81.772,48.043C82.527,49.187 84.553,51.445 85.845,52.331C87.126,53.213 88.299,53.89 90.32,54.73L90.331,54.733Z" style="fill:white;fill-rule:nonzero;"/>
                    <path id="path23" d="M251.941,72.305C250.656,71.353 249.353,70.424 248.051,69.495C247.782,69.304 247.593,68.735 247.196,69.104C247.058,69.231 247.245,69.797 247.389,70.116C247.499,70.357 247.754,70.55 247.981,70.715C249.354,71.714 250.724,72.72 252.128,73.672C252.502,73.922 252.993,74 253.44,74.127C253.517,74.148 253.636,74.016 253.767,73.935C253.635,73.78 253.558,73.663 253.455,73.575C252.957,73.146 252.468,72.698 251.942,72.306L251.941,72.305Z" style="fill:white;fill-rule:nonzero;"/>
                    <path id="path25" d="M261.105,78.069C261.031,77.98 259.185,76.981 259.099,76.921C258.712,76.646 258.473,76.752 258.086,76.474C257.348,75.941 256.647,75.36 255.932,74.799C255.557,74.503 254.988,74.281 254.925,74.867C254.885,75.244 254.977,75.704 255.329,75.905C255.455,75.978 255.581,76.051 255.707,76.123C256.431,76.498 257.151,76.876 257.874,77.249C258.192,77.413 262.87,80.701 263.633,80.558C264.399,80.413 263.728,79.553 263.728,79.553C263.728,79.553 261.228,78.218 261.107,78.064L261.105,78.069Z" style="fill:white;fill-rule:nonzero;"/>
                    <path id="path27" d="M251.699,78.405C251.699,78.405 254.994,80.654 256.234,81.229C257.476,81.803 258.192,82.282 257.762,81.611C257.333,80.94 257.762,81.085 256.376,80.271C254.991,79.458 254.229,79.171 253.609,78.549C252.987,77.927 251.746,77.401 251.697,77.831C251.65,78.26 251.702,78.405 251.702,78.405L251.699,78.405Z" style="fill:white;fill-rule:nonzero;"/>
                    <path id="path29" d="M254.47,85.728C255.854,86.541 256.523,87.163 256.045,85.918C255.57,84.674 254.804,84.914 253.753,84.388C252.703,83.861 252.663,84.379 252.901,84.668L254.47,85.727L254.47,85.728Z" style="fill:white;fill-rule:nonzero;"/>
                </g>
            </g>
        </g>
    </g>
</svg>
