<svg viewBox="0 0 322 113" xmlns="http://www.w3.org/2000/svg" xml:space="preserve" style="fill-rule:evenodd;clip-rule:evenodd;stroke-linejoin:round;stroke-miterlimit:2">
    <clipPath id="a">
        <path d="M.296.86h321.392v112H.296z"/>
    </clipPath>
    <g clip-path="url(#a)">
        <path d="M50.583 51.672c1.533-4.59 2.907-9.233 4.338-13.858.355-1.141.686-2.286 1.027-3.431.043-.248 1.303-4.663 1.783-6.649.575-2.376 1.192-4.76 1.479-7.179.177-1.499.834-2.272 2.126-2.67.752-.232 1.169-.618 1.949-.675.64-.047 1.086-.209 1.382-.798.25-.5.898-.809 1.233-1.254.248-.331.563-.723.925-.832 1.034-.313 2.138-.413 3.16-.753 1.291-.428 2.783-.736 3.722-1.603.96-.889 1.853-1.371 3.092-1.466 1.149-.089 2.148-.533 2.518-1.738.23-.748.8-1.084 1.377-1.455.527-.108.819-.319.883-.953.065-.634-2.31-.28-2.467-.44-.731-.745-.66-.892.302-1.256.627-.237 1.314-.313 1.974-.46l1.201-.288c.949-.124 1.896-.258 2.846-.37 1.647-.194 3.297-.361 4.939-.574.385-.05.797-.168 1.113-.38.291-.196.69-.881.701-1.216.01-.335-.65-.525-.966-.514a36.705 36.705 0 0 0-3.933.32 151.25 151.25 0 0 0-6.053 1.014c-1.677.311-3.343.686-5.013 1.03-.235.028-3.249.732-3.465.794-.646.155-1.291.308-1.938.461l-.144.021-1.895.336c-1.961.408-3.919.834-5.884 1.216-1.065.207-2.156.473-3.216.7-1.512.324-2.995.608-4.511.905-3.355.658-6.722 1.25-10.084 1.87-.323.011-11.939 2.078-18.119 2.26-1.433.042-2.871.017-4.308.005-.497-.003-.894.079-1.053.652-.204.734-.036.972.814 1.311.382.152.698.476 1.042.72-.397.269-.768.601-1.203.781-.297.124-.684.011-1.022.059-.272.039-.577.103-.787.262-.909.693-.63 1.512.7 2.121 1.767.808 1.87 1.187.77 2.786-.212.147-.638.283-.638.439.001.154.381.362.605.427.19.055.428-.065.646-.107.29.321.68.599.848.975.356.796.874 1.114 1.75 1.045 2.447-.192 4.921-.173 7.344-.525 2.532-.368 4.99-1.173 7.566-1.4 2.103-.186 4.186-.598 6.28-.907.565-.083.891.133.872.736-.027.805.046 1.66-.097 2.41-.143.748-.582 3.239-.98 4.996-.528 2.326-1.293 4.948-1.308 5.085l-.696 2.407c-.782 2.448-2.621 8.566-2.771 9.175-.686 2.795-3.657 9.968-4.087 10.896-.988 2.135-1.983 4.281-3.179 6.301-1.179 1.992-2.61 3.836-3.934 5.74-1.019 1.466-3.61 4.028-3.644 4.066-3.864 4.418-8.249 5.358-8.35 5.393-2.873.996-5.616.974-8.433-.455-1.27-.644-2.62-1.21-3.721-2.081-1.179-.93-2.457-2.128-3.539-3.095-.325-.291-.555-.708-1.001-.943-.661-.344-1.119-.046-1.152.719-.014.332.01.724.173.997 1.239 2.087 2.62 4.094 4.703 5.412 2.023 1.278 5.077 2.738 7.107 3.556 2.03.817 3.649 1.367 5.217 1.689 1.568.32 4.217.768 6.43.11 2.214-.656 4.667-1.669 8.087-4.465 3.42-2.798 10.281-10.649 12.925-15.528 1.137-2.097 2.162-4.256 3.192-6.409.857-1.797 1.813-3.581 2.443-5.467l.007-.004Zm101.971 5.502v.005l-.006.006.006-.011Z" style="fill:#fff;fill-rule:nonzero"/>
        <path d="m93.488 15.925-1.043-.264-.04-.011c-.069-.964-.111-1.931-.22-2.89-.06-.521.132-1.23-.719-1.349l-.007.01c-.541-.451-1.712-.089-1.712-.089s-1.177.219-1.415.839c-.732.095-1.461.262-2.193.27-2.477.028-2.47.01-3.378 2.305-.116.293-.356.535-.538.801-.207-.239-.543-.452-.596-.721-.173-.897-.748-1.073-1.513-1.007-.755.065-.763.621-.921 1.211-.381 1.428-.759 2.927-2.019 3.875-1.52 1.145-2.128 2.774-2.627 4.493-.376 1.301-.514 2.717-1.773 3.602-.176.124-.343.974-.288 1.085-1.071 1.435-4.362 6.308-4.843 7.275-.526 1.056-1.158 2.113-1.402 3.244-.201.933-.464 1.722-1.12 2.387-1.275.7-.969 1.952-1.063 3.063l-.644 1.039-.48.689c-.08.086-.16.174-.242.26-.217.252-.247.57-.651.759-.403.187-1.817.699-2.75.964-1.417.401-1.723.595-1.678 1.36.063 1.043.841 1.077 1.613 1.126.645.04.78.438.539.956-.747 1.607-1.484 3.224-2.303 4.795-1.932 3.703-5.972 11.39-6.024 11.549l-1.106 2.806-.009.36c-.146.203-.294.406-.442.608-.081.135-.165.271-.248.406l-.073.343c-.407.75-1.012 1.46-1.171 2.261-.178.888-.502 1.65-1.068 2.277-1.195 1.329-.761 2.776-.43 4.226.108.469.517.519.769.214a8.866 8.866 0 0 0 1.101-1.7c.329-.655.519-1.382.848-2.038.095-.192.477-.367.691-.332.152.027.387.461.335.642-.183.644-.493 1.253-.706 1.891-.055.16-.031.532.112.579.142.048.479-.106.546-.242.422-.874.777-1.78 1.185-2.661a226.899 226.899 0 0 1 2.197-4.619c.079-.158.38-.353.503-.312.158.054.276.318.35.513.057.152.046.343.019.51-.295 1.782-.601 3.561-.895 5.341-.016.096.049.29.082.293.152.006.391.01.443-.079.163-.278.262-.597.375-.902.51-1.375.616-2.949 2.022-3.874.251-.166.484-.575.483-.868-.006-1.281 2.973-7.668 3.327-8.351l.009-.008c.28-.706 3.634-7.616 4.294-9.386.08-.219 1.15-2.567 1.223-2.663.473-1.034.945-2.07 1.416-3.105.713-.35 1.405-.756 2.143-1.044 3.761-1.464 12.592-5.099 13.032-4.992.005.111.008.961.013 1.074l.025.695c-.007 1.597-.042 3.195-.01 4.792.027 1.26.346 5.364.251 6.139-.149 1.218-.198 2.356.35 3.532.509 1.091.726 2.302.385 3.529l-.024.037-.021 1.401v.002c.084.849.077 1.694.764 2.385.473.475.833.627 1.226.034.285-.425.453-.359.755-.022.768.861 1.196 1.786.976 2.988-.071.392.106.871.29 1.254.101.212.273.601.686.453.412-.149.373-.545.406-.834.066-.566-.019-1.151.037-1.719.05-.499.151-1.011.343-1.47.111-.266.419-.511.695-.617.099-.038.402.332.546.558.178.287.234.662.44.921.494.625 1.179.51 1.406-.247a4.92 4.92 0 0 0 .196-1.523c-.058-2.124-.243-4.249-.221-6.37.042-4.255.195-8.511.293-12.765.098-4.199.166-8.396.284-12.594.035-1.257.27-2.511.282-3.768a81.478 81.478 0 0 1 1.05-12.18c.192-1.2-.016-2.338-.66-3.383l-.064-.008-.006-.014ZM81.09 38.467c-.687.282-1.423.452-2.112.734-.289.118-.946.582-.946.582s-.274.326-.354.432c-.495.238-.993.677-1.489.675-1.24-.004-2.08.526-2.713 1.518-.154.243-.265.531-.468.721-.142.134-.432.227-.609.177-.158-.047-.37-.325-.354-.482.046-.504.101-1.036.307-1.488.834-1.822 1.676-3.645 2.606-5.419 1.466-2.794 3.005-5.55 4.512-8.322.25-.455.432-.941 1.157-.744.246.067.6-.166.869-.325.258-.153.467-.386.697-.582.059.334.165.669.166 1.004.012 3.17-.029 6.342.023 9.511.022 1.03-.408 1.648-1.287 2.008h-.005Zm77.876-25.277c-.346-.13-.692-.263-1.035-.393a.332.332 0 0 0-.081-.221c-.016-.016 1.032-1.288.437-1.905-.161-.125-1.056-.436-1.217-.561-.08-.502-.174-1.002-.238-1.507-.107-.812-.602-1.013-1.326-.878l-.702.499-.103-.002-1.093-.087c-.787.235-.472.654-1.259.889l-.536.393c-.539.458-.916.718-1.575 1.633-.658.914-1.415 2.405-1.874 3.234-.458.828-2.343 5.748-2.374 5.808-.151.139-3.301 7.122-4.34 9.463-.81 1.821-1.874 4.004-2.665 6.199-.791 2.195-1.551 5.542-1.729 5.749l-.179.455-.235.699-.092.688c-.224 1.257-.561 2.977-.801 3.746-.241.767-.758 1.633-1.05 2.487-.238 1.627-.516 3.25-.701 4.885-.142 1.252-.169 2.516-.246 3.775l.149 1.37c.229.813.281 1.2.688 2.442.406 1.242 2.118 2.405 2.118 2.405 2.022 1.139 5.429 1.135 6.964.081 1.536-1.054 2.589-1.761 3.251-2.342.661-.581 4.005-3.242 5.589-5.011 1.583-1.77 2.178-2.62 2.645-3.089.237.817.008 1.527-.5 2.173-.107.311-.215.621-.325.93-.084 1.413-.235 2.824-.24 4.236-.006 1.898.751 5.88 2.727 6.224 1.976.345 2.301.357 3.466-.237.907-.462 1.943-.699 2.945-.929.724-.164.97.184.652.875-.36.782-.775 1.541-1.211 2.285-1.736 2.974-3.46 5.955-5.232 8.909-.705 1.175-.305 1.336.65 1.349.172.004-.172.959-.144 1.277.092 1.013.585 1.317 1.423.732.491-.345.863-.891 1.21-1.4.351-.516.575-1.12.924-1.638.065-.097.593-.058.682.073.222.321-.118 1.091.62.956.349-.063.628-.57.918-.892.19-.216.328-.474.512-.694.307-.374.599-.513.917.028.324.554.8.432 1.137.053.532-.6 1.069-1.221 1.448-1.918a146.364 146.364 0 0 0 2.875-5.673c.335-.692.698-1.208 1.553-.984.72.189 1.029-.145 1.258-.792.325-.922.683-1.841 1.148-2.696 1.536-2.813 3.13-5.596 4.695-8.392 1.259-2.249 2.508-4.506 3.759-6.758.673-1.214 1.199-2.528 2.012-3.66 1.068-1.484 3.127-1.794 3.768-1.727.639.067 1.323-.32 1.618-.62.294-.297.365-.258.782-.528.418-.27.686-.493.887-.639.198-.146 3.265-1.36 3.91-1.992 1.243-1.219 3.165-1.928 4.882-2.065.162.793.204 1.651.213 2.458.016 1.813-.022 3.628-.036 5.44l-.037.714c-.468 1.164.031 2.217.336 3.31.145.516.294 1.174.103 1.621-.633 1.463-.335 2.952-.303 4.43.012.585.24 1.183 1.028 1.103.65-.065.748.278.792.818.085 1.028.241 2.052.37 3.079.121.965.218 1.936.38 2.897.085.509.295.909.891 1.138.968.373.998.531.52 1.505-.27.551-.55 1.036.005 1.546.92.844.959 1.758.266 2.762-.415.604-.342 1.101.448 1.277.668.151.71.699.781 1.192.058.391-.02.8-.049 1.2-.036.541.14.914.74.926.525.012.663-.327.686-.789.125-2.523.227-5.044.412-7.56.078-1.074.532-3.616.547-3.823.107-1.052.424-3.643.477-3.886.106-2.763.356-9.831.511-12.431.158-2.599.977-14.79 1.032-16.623-.062-.118 1.518-11.584 2.05-14.185.533-2.602.5-4.944.436-5.212-.065-.268-1.198-.579-1.829-.684-1.266-.207-2.553-.284-3.834-.414-.832-.105-.662-1.127-.732-1.307-.069-.181-2.78-.958-3.323-.675-.543.284-.673 2.907-.803 4.12-.339.579-.673 1.16-1.011 1.741-.248.225-.496.454-.746.68-.097.102-.2.204-.297.305-.668.42-1.335.84-2.003 1.258-.953 1.021-1.905 2.038-2.86 3.058-.062.069-.551.682-.689.867-.519.716-1.736 2.271-1.749 2.394-.19.263-.382.524-.574.786 0 0-.43.167-.495.285-.816 1.491-1.614 2.996-2.416 4.497l-.885.429-.796.619c-.107.035-1.757 2.198-2.636 3.12-.181.191-.509.868-.505.977-1.181.492-1.032 2.354-1.205 2.575-.174.221-.972.592-1.179.98-.6 1.126-1.322 3.12-1.598 3.482-.274.364-.69.727-.955.974l-.524.211c-.756.078-1.107 1.052-1.206 1.256-.099.205-.361.244-.541.366-.129.088-.26.177-.391.269l.021-.021c-.265.114-.528.231-.791.346-1.659 1.006-3.319 2.003-4.964 3.033-.141.088-.273.45-.203.579.579 1.114.218 1.994-.603 2.792-.069.067-.12.28-.096.296.131.088.319.221.437.182.707-.234 1.391-.536 2.101-.76.248-.077.721-.089.785.034.134.251.145.635.06.924-.09.314-.342.584-.53.87-.656 1.006-2.356 3.262-2.484 3.436-.939 1.293-1.849 2.609-2.795 3.898-.554.758-1.165 1.159-2.032.496-.626-.481-1.222-1.004-1.832-1.504l-.129-1.053c.245-1.339.315-2.673.947-3.976.888-1.829 1.429-3.828 2.101-5.761.734-2.107 1.449-4.222 2.167-6.334a195.91 195.91 0 0 0 1.075-3.248c1.212-2.421 2.441-4.835 3.625-7.269.625-1.279 1.173-2.594 1.756-3.894.098-.028.137-.093.121-.193 1.069-2.073 2.226-4.107 3.161-6.239.342-.784.296-1.821.158-2.699-.066-.416-.75-.755-1.183-1.089-.462-.357-.456-.674-.143-1.162.636-.998.542-1.613-.142-2.436-.543-.656-1.259-.756-2.021-.724-.962.036-1.875.024-2.85-.253-.801-.228-1.938-.594-2.655.461l-.069.069c-.272.487-4.543 7.921-4.779 8.303l-1.207 1.858c-.31.465.401 1.21.248 1.581-.155.372-.528-.181-1.116.408-.038.012-.518 1.714-.915 3.277-.032.132.484.269.448.408-.029.112-.608.594-.638.711-.294 1.161-.624 2.101-.938 3.31-.057.222.069.256.013.47-.055.209-.293.046-.345.246-.3 1.127-.563 2.613-.732 3.092-.048.139.089.275.041.414-.068.191-.318.382-.383.575a165.49 165.49 0 0 0-2.245 6.941c-.062.156-.124.316-.189.47l-1.685 2.266-.97.86c-.25.287-.498.573-.74.86-.164.133-.329.268-.494.4a.257.257 0 0 0-.204.213l-.389.406c-.001-.015.001-.026-.001-.039l-1.155 1.159-.473.419-.578.606c-.104.038-.609.519-.829.667-.101.052-.213.09-.302.156-2.55 1.929-5.098 3.859-7.643 5.791-.203.067-.2.083-.606.203-.409.121-1.577-.048-1.613-.546-.039-.498.382-3.359.827-5.038.9-3.381 2.087-6.616 3.678-9.72.616-1.202 1.22-2.852 1.753-3.658.532-.804 1.603-2.239 1.985-3.007.381-.768.586-2.222 1.098-3.22.936-1.825 2-3.59 3.097-5.327.712-1.129 1.311-2.232 1.448-3.615.09-.93.475-1.863.689-2.181.215-.317.754-.78.86-.987.696-1.368 1.343-2.761 2.005-4.146 0 0 1.378-2.214 1.909-3.391.539-1.21.483-1.236-.861-1.857m-3.487 36.146-.006.038c.006-.013.006-.026.006-.038Zm10.647-27.199.058.078-.056-.068v-.01h-.002Zm34.457 5.775c-.328.885-.627 1.69-.548 2.642.036.438-.11.901-.227 1.337-.152.569-.517.855-1.145.797-1.655-.151-2.799.752-3.835 1.889-.226.249-.491.518-.794.632-.63.235-1.299.373-1.949.55.139-.585.212-1.199.436-1.753.319-.786.654-1.597 1.148-2.276 1.848-2.544 3.764-5.039 5.67-7.539.841-1.103.696-.016 1.095.079.111.026.418-.526.527-.492.14.046.184.186.247.305.06.11.106.226.142.346.082.284.106.585.09.879-.031.599-.26 1.151-.484 1.698-.131.302-.267.602-.379.906h.006Zm41.859 18.189c.522.172 1.719.486 2.587.703 1.076.271 2.02.723 2.784 1.581.982 1.108 2.047 2.144 3.068 3.219.23.241.491.489.623.786.87 1.974 1.971 3.698 4.169 4.435.463.154.839.574 1.241.888.302.238.555.546.878.755 1.343.87 2.727 1.677 4.046 2.583.935.643 1.788 1.408 2.677 2.118.123.095.244.188.366.28.799.709 1.602 1.416 2.403 2.124 4.745 4.748 9.318 9.703 15.211 13.115l1.381.851c.319.192.635.381.952.573.269.2.533.403.799.603 1.372 1.033 2.776 2.026 4.109 3.106 2.227 1.807 4.4 3.675 6.612 5.497.663.546 6.994 4.823 7.699 5.315.068.047 1.945.558.465-.699-.955-.811-5.479-3.573-5.522-3.612-1.294-1.123-2.961-2.034-4.241-3.175-1.709-1.522-3.391-3.072-5.082-4.615-2.02-1.846-3.729-4.058-6.275-5.281a1.778 1.778 0 0 1-.743-.692c-1.203-2.158-3.141-3.639-4.911-5.242-1.217-1.104-2.753-1.847-4.071-2.851-1.684-1.281-3.293-2.66-4.936-3.996l-.445-.466-2.193-2.002c-1.282-.949-2.553-1.914-3.852-2.838-.555-.393-1.183-.686-1.76-1.053-.192-.124-.631-.335-.112-.576.831-.391.324-.617-.058-.909-2.318-1.775-4.58-3.598-6.515-5.822-.723-.83-1.832-1.322-2.758-1.976-.322-.227-.671-.442-.927-.731-1.283-1.449-2.011-3.351-3.673-4.495-.168-.116-.26-.382-.321-.598-.056-.193-.016-.41-.018-.617.203.019.481-.039.604.072.602.532 1.146 1.123 1.739 1.663.329.298.688.707 1.078.762.757.107 1.255.342 1.548 1.108.122.315.603.5.934.723.947.64 1.927 1.233 2.842 1.917.515.386.903.896 1.644.434.144-.089.559.051.712.214 1.863 2.019 3.69 4.071 5.549 6.095.838.912 1.524 1.981 2.727 2.53.649.296 1.294.699 1.798 1.197a28.14 28.14 0 0 1 2.49 2.841c.87 1.145 1.935 1.935 3.334 2.269.369.272.743.542 1.113.815l1.501 1.128 3.973 2.968c.232.199.465.395.698.592.13.107.258.217.388.325l.642.509.336.204c1.603 1.288 3.225 2.555 4.802 3.868 2.116 1.762 4.182 3.58 6.307 5.329 1.585 1.305 3.369 2.367 4.719 3.956.181.212.447.441.702.481.417.063 1.011.147 1.261-.079.421-.384.03-.806-.313-1.149-.603-.608-1.351-1.158-1.713-1.893-.344-.703-.791-1.105-1.451-1.329-2.704-.921-4.622-2.918-6.634-4.789l-5.149-4.791a876.92 876.92 0 0 0-1.448-1.361l-.331-.326c-.266-.267-.532-.535-.796-.804l-.56-.628c-.673-.607-1.306-1.271-2.031-1.807-1.099-.811-2.326-1.455-3.383-2.312-1.049-.851-2.128-1.759-2.879-2.856-.91-1.334-1.831-2.466-3.486-2.806-.321-.067-.588-.346-.889-.51-1.597-.872-2.657-2.331-3.83-3.638-1.141-1.271-2.112-2.694-3.158-4.049l-.39-.384c-.575-.771-1.064-1.633-1.747-2.295-.936-.91-2.017-1.67-3.038-2.492-.934-.749-.945-1.144.08-1.796.574-.366 1.274-.524 1.848-.888 3.543-2.242 6.948-4.652 9.391-8.167.733-1.205 1.605-2.351 2.172-3.629 1.04-2.34 1.182-4.802.984-7.383-.201-2.591-1.134-4.72-2.759-6.64-.015-.113-.852-.935-.939-1.027-.325-.328-1.073-.965-3.171-2.573-2.097-1.609-5.075-3.202-7.688-3.544-2.613-.343-6.218.19-7.791.334-.263.023-.597.165-.75.365-.73.952-1.839 1.103-2.862 1.444-.852-.02-1.707-.076-2.558-.048-.889.031-1.777.143-2.665.22-.32.019-1.16.127-1.258.16-.41.068-1.863.415-2.127.503-1.562.712-5.985 2.381-6.902 2.743-.914.361-1.299.355-2.561.623-.538.115-1.163.514-1.723.858l-.182.138c-.609.31-1.216.623-1.828.934l-.989.599c-.583.253-1.168.509-1.753.762-.216.09-.709.185-1.014.367-.306.185-1.112.96-1.206 1.364-.093.405-.153.682-.23 1.023-.079.272-.157.545-.237.816 0 0-.057.132-.059.132-.181.426-.835.613-1.216.775-.523.224-1.193.413-1.642.772-.413.331-.488.865-.676 1.331-.143.353-.106.907.051 1.249.154.335.808.952 1.161 1.007.405.061 1.016.102 1.212.183.195.082.785.733.748 1.006-.037.273.177.974.732 1.169.397.065.795.13 1.194.197l1.206.051c.095.11.191.218.286.325.174.531.457.897 1.092.737.464.001 1.337.187 2.26-.006.922-.193 1.375-.509 2.019-.849.69-.365 1.326-.833 1.985-1.255.382-.306.82-.438.785.236-.073 1.378-.413 2.705-1.175 3.886-.052.124-.104.25-.153.374-.355 1.854-4.476 12.132-5.026 14.202-.551 2.072-1.086 4.213-1.242 4.582l-.103.449c-.224.709-.494 1.409-.65 2.131-.102.473-.369 1.62-.01 1.45 1.127-.53.399.689-.613 1.377-.607.04-2.265 3.775-2.468 5.713-.124 1.193-.922 2.939-.617 3.423.061.099.277.307.154.357-.821.333-1.408 3.725-1.408 3.725s.271.149.136.285c-.136.138-.153.172-.247.254-.166.166-1.085 2.076-1.258 2.517-.071.128-.931 1.877-1.038 2.084-.6.848-.802 3.023-.578 4.09.149.706.297-.134.311.592.004.172-.04.274-.04.437.001.343.208 2.333.499 2.465.541.25.58-.336.755-.661.054-.097.141-.175.214-.262-.032-.124.491-.681.603-.742.113.038-.506 1.761-.079 1.645.428-.115 1.69-4.361 1.832-4.674l.741-1.416.637-.193c.219.065.437.13.653.196.075.114.149.231.225.345.005.338-.033.681.032 1.006.031.167.241.298.368.447.136-.151.271-.299.406-.451.107-.257.207-.515.315-.772 1.147-2.716 2.295-5.432 3.438-8.148.25-.594.397-1.227.659-1.816.042-.097.938-1.524 1.094-1.282.119.184.319.359.338.553.031.332-.108.684-.065 1.014.03.237.214.607.377.637.205.035.526-.167.678-.361.244-.309.465-.675.568-1.053.226-.864 1.686-8.474 3.408-15.903 1.689-7.283 4.003-15.078 4.239-15.078.531 0 .781-.255.879-.734l.706-3.127c.124-.423.246-.846.367-1.269.12-.271.241-.542.36-.814.354-.655.683-1.325 1.068-1.96.308-.507.666-.693.898.075.173.573.555.672.815.174.574-1.106 1.208-2.232 1.475-3.426.195-.878.604-1.304 1.303-1.632 4.146-1.946 8.211-1.769 12.185.496 1.641.938 2.345 2.244 1.95 3.816-.362 1.447-.899 2.823-1.836 4.038-1.295 1.681-2.52 3.42-3.734 5.164-1.003 1.439-3.479 1.679-4.754.437-.616-.602-1.246-1.196-1.928-1.717-.587-.45-1.405-.278-1.597.331-.185.584-.361 1.235.261 1.744.627.509 1.301.981 1.819 1.585.294.341.484.949.4 1.373-.059.297-.646.66-1.019.69-.73.06-1.477-.126-2.218-.142-.374-.01-.932.005-1.097.232-.369.508-.944 1.187-.974 1.841-.051.828 2 2.636 2.459 2.788l.01.007Z" style="fill:#fff;fill-rule:nonzero"/>
        <path d="M299.15 95.094c-1.815-1.087-3.656-2.13-5.473-3.212-1.163-.694-2.451-1.266-3.417-2.175-4.428-4.164-8.732-8.46-13.142-12.639-1.696-1.607-3.449-3.167-5.778-3.896-1.029-.321-2.004-.857-2.941-1.404-.569-.332-1.165-.787-1.485-1.338-1.246-2.145-3.284-3.434-5.105-4.959-2.147-1.636-3.448-4.193-5.925-5.475-.197-.101-.369-.281-.508-.461-1.631-2.133-3.382-4.149-5.398-5.941-2.076-1.847-3.81-4.071-6.222-5.551-.569-.349-1.009-.922-1.468-1.431-.051-.056-1.058-1.025-1.699-1.388-.644-.364-2.141-.745-3.225-1.077-1.341-.413-1.896-.024-2.103 1.408a10.442 10.442 0 0 0-.11 1.549c.003 1.071.18 1.234 1.295 1.387.447.062 1.031.014 1.309.276.69.659 1.458.633 2.252.505.795-.129 1.243.191 1.724.808.91 1.167 1.816 2.41 2.975 3.285 1.485 1.121 2.653 2.514 3.944 3.803 1.498 1.491 2.754 3.217 4.749 4.197.745.366 1.212 1.307 1.803 1.988.598.685 1.096 1.503 1.807 2.029 1.144.85 2.429 1.508 3.654 2.247.444.354.896.698 1.327 1.067.909.782 1.935 1.475 2.663 2.402.632.803 1.242 1.341 2.246 1.655a8.533 8.533 0 0 1 2.835 1.572c2.556 2.138 5.028 4.372 7.516 6.59 1.71 1.524 3.306 3.187 5.655 3.777.51.127.95.602 1.387.957.968.789 1.916 1.602 2.872 2.404l.819.629c.073.087.136.19.224.26 2.744 2.256 5.896 3.959 8.505 6.411.496.465 1.525.256 2.063.76 8.343 7.824 8.521 6.035 8.808 5.903-.164-.228-8.225-6.802-8.441-6.932l.008.01Z" style="fill:#fff;fill-rule:nonzero"/>
        <path d="M286.083 93.559c-.274-.826-.846-1.195-1.419-1.598-.741-.523-1.581-.905-2.367-1.367-1.123-.662-2.317-1.227-2.792-2.629-.129-.375-.592-.834-.96-.896-1.578-.272-2.423-1.963-4.086-2.044-.206-.01-.39-.39-.59-.588-.407-.402-.851-.77-1.222-1.201-.829-.974-2.248-1.361-2.679-2.752-.061-.199-.549-.305-.857-.373-1.648-.366-2.988-1.177-3.606-2.806-.446-1.175-1.304-1.975-2.104-2.864-.676-.754-1.428-1.095-2.419-.967-.816.106-1.437-.139-1.827-.944-.165-.343-.529-.59-.802-.882l-1.126-1.292c-.096-.13-.19-.262-.285-.391a.42.42 0 0 0-.132-.286c-.159-.997-.635-1.777-1.534-2.273-1.406-1.169-2.893-2.257-4.2-3.531-1.764-1.72-3.462-3.504-4.045-6.081-.175-.769-.796-1.545-1.416-2.076a19.67 19.67 0 0 0-3.384-2.333c-1.799-.977-3.544-2.119-5.623-2.477-.655-.112-1.326-.373-1.783.34-.294.46.072.778.456 1.054.227.163.505.359.762.362 1.206.013 1.721.833 2.033 1.785.424 1.303 1.24 1.902 2.604 2.09 1.115.153 2.311.56 2.706 1.809.693 2.184 2.177 3.729 3.902 5.063a21.07 21.07 0 0 1 4.172 4.269c.232.319.453.667.752.912 1.19.966 2.406 1.898 3.614 2.842l.365.339 1.043 1.046c.912 1.671 2.312 2.687 4.164 3.091.238.094.48.187.72.28.414.357.868.676 1.235 1.077.644.706 1.193 1.501 1.854 2.189.471.491 1.054.874 1.596 1.298 1.851 1.454 3.673 2.953 5.571 4.344 1.933 1.415 3.959 2.707 5.92 4.086.887.625 1.76 1.285 2.558 2.015 1.353 1.236 2.678 2.48 4.338 3.318.677.343 1.248.897 1.865 1.355.107.013 8.036 5.38 8.792 6.029.442.38 3.661 2.444 6.591 4.71 2.077 1.609 3.856 3.453 5.079 4.278 5.538 3.737 3.444 1.007 3.621 1.029-.158-.242-20.535-15.081-20.692-15.323-.555-.569-4.132-2.354-4.36-3.035l-.003-.001Zm-60.466-23.751c-.435 0-.89.317-1.288.577-.158.104-.22.399-.269.618-.146.667-.257 1.341-.396 2.011-.191.921-.057 1.948-1.015 2.606-.432.297-.174.726.115 1.036.361.386.788.296 1.021-.078.45-.722.857-1.485 1.184-2.271.455-1.091 1.077-2.777 1.265-3.46.188-.677-.414-1.035-.617-1.035v-.004ZM110.264 67.49a13.579 13.579 0 0 0 7.972.761c1.128-.232 1.387-.31 3.218-1.39 1.833-1.08 3.084-3.678 3.458-3.814.375-.135 1.546-.201 1.905.103.212.178.775.915 1.484 1.465.709.551.006.499.542 1.245.535.748 1.302-.07 1.316.302.013.373.291.672.898.67.61-.001.482-2.374.354-3.746-.125-.793-.405-3.867-.348-4.539.058-.67.245-1.821.368-2.733-.045-1.176.985-5.053 1.152-5.891-.076-.115.731-2.341 1.2-4.505.471-2.165.824-4.736.848-5.537.048-1.251.283-3.36.142-3.756-.142-.398-.911-.234-1.202-.073-.29.164-.15.27-.225.405l-.013.057a.136.136 0 0 0-.144.061c-1.074.188-1.631-.888-2.056-1.047-.425-.16-.73-.195-1.247-.113-.516.081-2.43 1.996-3.348 2.426-.916.431-4.005 1.814-5.07 1.655a.331.331 0 0 1-.32.092c-.412.427-.79 1.179-1.243 1.227-2.22.236-3.489 1.888-5.044 3.124-.271.354-.656.669-.796 1.07-.418 1.198-.869 1.968-2.073 2.604-.067.035-.126.22-.092.273.051.077.185.138.286.142.762.026 1.667-.627 1.667-.627s3.747-1.613 5.612-2.437c.807-.358 1.567-.563 2.45-.137.336.164.854-.051 1.289-.093l.512-.297.525-.137.325-.033.713.116c-.431 1.297-.633 3.588-.696 4-.062.412-.214.642-.305.971-.137.489-.29.978-.364 1.48-.242 1.62-.563 3.243-.629 4.876-.041 1.009.559 2.564.874 2.934.316.37.665.887.121 1.341-.547.456-.97.876-1.455 1.315-.606.225-1.8 1.15-3.556 1.423-1.757.272-3.273.202-5.756-.909-2.484-1.111-4.502-3.131-5.872-4.374-1.371-1.245-3.375-6.016-3.516-8.175-.141-2.16.063-4.35.129-5.226.066-.877.555-3.827 1.341-5.865.787-2.036 3.072-4.862 3.39-5.22l3.554-3.444c1.346-1.026 3.475-2.875 6.512-4.565.689-.337 4.496-2.516 7.385-2.745.841-.067 1.662-.401 2.466-.687.731-.259 1.151-.775.806-1.6-.237-.568-.23-1.118.406-1.277.801-.199.079-1.435-.3-1.347-.409.095-.815.271-1.399-.107-.635-.414-1.169-1.24-1.384-2.299-.087-.438.597-.415.165-.998-.433-.581-1.271-.22-1.63-.515l-.357-.127-1.341-.169-.209-.186c-.448-.532-.968-.594-1.673-.536-2.083.172-3.993.973-5.989 1.449l-2.139.752c-.312.245-.611.504-.934.729-.837.59-1.686 1.164-2.53 1.745l-.31.325-.032.041-.8 1.027-.239.316-.693.678-.368.333-.627.397-.02.021-.396.672-.022.136-.544.563c-.158.187-.318.372-.476.557l-.357.439-.33.292-.596.783-.04.045c-.261.314-.519.627-.778.942l-.266.435-1.229 2.051a.287.287 0 0 0-.188.26l-.331.782-.352.621c-1.166.905-1.792 2.145-2.173 3.536l-.24.298c-.136.363-.274.725-.411 1.088l-.628 1.685c-1.272 2.302-1.595 4.864-1.763 7.401-.22 3.321-.178 6.661.62 9.932.264 1.085 2.119 5.269 3.039 6.663.92 1.393 3.386 4.142 4.959 5.22 1.559 1.074 2.987 1.898 5.448 2.921l.013.003Zm196.743 21.393c-1.564-1.159-3.15-2.29-4.735-3.421-.328-.233-.558-.926-1.041-.476-.168.154.059.843.235 1.232.134.293.444.528.72.729 1.672 1.216 3.34 2.441 5.049 3.6.455.304 1.053.399 1.597.554.094.025.239-.136.398-.234-.161-.189-.254-.331-.38-.438-.606-.523-1.201-1.068-1.842-1.545l-.001-.001Zm11.156 7.017c-.09-.109-2.337-1.325-2.442-1.398-.471-.335-.762-.206-1.233-.544-.898-.649-1.752-1.356-2.622-2.039-.457-.361-1.149-.631-1.226.082-.049.459.063 1.019.492 1.264l.46.266c.881.456 1.758.916 2.638 1.37.387.2 6.082 4.203 7.011 4.029.933-.177.116-1.224.116-1.224s-3.044-1.625-3.191-1.813l-.003.007Zm-11.45.409s4.011 2.738 5.52 3.438c1.513.698 2.384 1.281 1.861.465-.523-.817 0-.641-1.688-1.632-1.686-.989-2.613-1.339-3.368-2.096-.757-.757-2.268-1.398-2.328-.874-.057.522.006.699.006.699h-.003Zm3.373 8.915c1.685.989 2.499 1.747 1.917.231-.578-1.515-1.51-1.222-2.79-1.863-1.278-.641-1.327-.011-1.037.341l1.91 1.289v.002Z" style="fill:#fff;fill-rule:nonzero"/>
    </g>
</svg>
