<?xml version="1.0" encoding="UTF-8" standalone="no"?>
<!DOCTYPE svg PUBLIC "-//W3C//DTD SVG 1.1//EN" "http://www.w3.org/Graphics/SVG/1.1/DTD/svg11.dtd">
<svg width="100%" height="100%" viewBox="0 0 396 112" version="1.1" xmlns="http://www.w3.org/2000/svg" xmlns:xlink="http://www.w3.org/1999/xlink" xml:space="preserve" xmlns:serif="http://www.serif.com/" style="fill-rule:evenodd;clip-rule:evenodd;stroke-linejoin:round;stroke-miterlimit:2;">
    <g transform="matrix(1,0,0,1,-3282,-44)">
        <g id="atlus.afdesign" transform="matrix(1,0,0,1,3480,100)">
            <g transform="matrix(1,0,0,1,-320,-60)">
                <clipPath id="_clip1">
                    <rect x="122.88" y="4" width="394.24" height="112"/>
                </clipPath>
                <g clip-path="url(#_clip1)">
                    <g transform="matrix(1.49333,0,0,1.49333,122.88,4)">
                        <g>
                            <path id="path4198" d="M88.456,73.585L103.174,73.585L103.174,14.555L114.062,14.555L114.062,1.415L77.568,1.415L77.568,14.555L88.456,14.555L88.456,73.585Z" style="fill:white;fill-rule:nonzero;"/>
                            <path id="path4200" d="M157.539,73.585L157.539,60.445L142.014,60.445L142.014,1.415L127.295,1.415L127.295,73.585L157.539,73.585Z" style="fill:white;fill-rule:nonzero;"/>
                            <path id="path4202" d="M209.811,1.415L195.092,1.415L195.092,55.795C195.092,60.849 193.883,61.86 190.858,61.86C187.834,61.86 186.624,60.849 186.624,55.795L186.624,1.415L171.905,1.415L171.905,58.019C171.905,71.563 177.954,75 190.858,75C203.762,75 209.811,71.563 209.811,58.019L209.811,1.415Z" style="fill:white;fill-rule:nonzero;"/>
                            <path id="path4204" d="M263.597,23.147L263.597,17.487C263.597,4.65 257.548,0 245.047,0C230.933,0 226.094,5.458 226.094,18.396C226.094,42.453 249.181,40.937 249.281,55.896C249.281,60.142 248.072,61.86 245.047,61.86C242.124,61.86 240.813,60.04 240.813,55.896L240.813,50.842L226.094,50.842L226.094,57.615C226.094,70.957 231.538,75 244.946,75C259.363,75 264,70.35 264,55.29C264,31.739 240.813,31.739 240.813,19.104C240.813,14.858 242.023,13.14 245.047,13.14C247.971,13.14 249.281,14.96 249.281,19.104L249.281,23.147L263.597,23.147Z" style="fill:white;fill-rule:nonzero;"/>
                            <path id="path3395" d="M0,73.125L17.045,73.125L48.835,24.026L48.835,73.125L63.309,73.125L63.309,1.647L46.4,1.647L0,73.125Z" style="fill:white;"/>
                        </g>
                    </g>
                </g>
            </g>
        </g>
    </g>
</svg>
