<svg viewBox="0 0 395 113" xmlns="http://www.w3.org/2000/svg" xml:space="preserve" style="fill-rule:evenodd;clip-rule:evenodd;stroke-linejoin:round;stroke-miterlimit:2">
    <clipPath id="a">
        <path d="M.149.248h394.24v112H.149z"/>
    </clipPath>
    <g clip-path="url(#a)">
        <path d="M132.244 110.135h21.978V21.984h16.26V2.362h-54.498v19.622h16.26v88.151Zm103.164 0V90.513h-23.184V2.362h-21.981v107.773h45.165ZM313.467 2.362h-21.98v81.207c0 7.547-1.806 9.057-6.323 9.057-4.516 0-6.323-1.51-6.323-9.057V2.362h-21.98V86.89c0 20.226 9.033 25.358 28.303 25.358 19.27 0 28.303-5.132 28.303-25.358V2.362Zm80.32 32.453v-8.453c0-19.17-9.033-26.114-27.701-26.114-21.077 0-28.303 8.151-28.303 27.472 0 35.925 34.477 33.661 34.626 56 0 6.34-1.806 8.906-6.323 8.906-4.365 0-6.323-2.718-6.323-8.906v-7.548h-21.98v10.115c0 19.924 8.13 25.961 28.152 25.961 21.53 0 28.454-6.944 28.454-29.433 0-35.17-34.626-35.17-34.626-54.038 0-6.341 1.807-8.906 6.323-8.906 4.367 0 6.323 2.718 6.323 8.906v6.038h21.378Z" style="fill:#fff;fill-rule:nonzero"/>
        <path d="M.149 109.448h25.454l47.473-73.321v73.321h21.615V2.708H69.44L.149 109.448Z" style="fill:#fff"/>
    </g>
</svg>
