<?xml version="1.0" encoding="UTF-8" standalone="no"?>
<!DOCTYPE svg PUBLIC "-//W3C//DTD SVG 1.1//EN" "http://www.w3.org/Graphics/SVG/1.1/DTD/svg11.dtd">
<svg width="100%" height="100%" viewBox="0 0 633 97" version="1.1" xmlns="http://www.w3.org/2000/svg" xmlns:xlink="http://www.w3.org/1999/xlink" xml:space="preserve" xmlns:serif="http://www.serif.com/" style="fill-rule:evenodd;clip-rule:evenodd;stroke-linejoin:round;stroke-miterlimit:2;">
    <g transform="matrix(1,0,0,1,-3,-11)">
        <g transform="matrix(1.2441,0,0,1.2441,1.51124,7.27803)">
            <g transform="matrix(2.56565,0,0,2.56565,2.00046,-7.838)">
                <path d="M31.11,9.004L25.25,9.004L25.25,6.749C25.25,5.999 24.646,5.396 23.897,5.396L8.566,5.396C7.816,5.396 7.214,5.999 7.214,6.749L7.214,9.004L1.352,9.004C0.603,9.004 0,9.606 0,10.356L0,13.513C0,15.525 1.268,17.593 3.489,19.189C5.264,20.468 7.422,21.279 9.688,21.538C11.458,24.475 13.526,25.687 13.526,25.687L13.526,29.744L10.821,29.744C8.831,29.744 7.214,30.911 7.214,32.9L7.214,33.577C7.214,33.949 7.518,34.253 7.89,34.253L24.573,34.253C24.945,34.253 25.25,33.949 25.25,33.577L25.25,32.9C25.25,30.911 23.632,29.744 21.642,29.744L18.937,29.744L18.937,25.687C18.937,25.687 21.006,24.475 22.775,21.538C25.047,21.279 27.205,20.468 28.975,19.189C31.19,17.593 32.463,15.525 32.463,13.513L32.463,10.356C32.463,9.606 31.86,9.004 31.11,9.004ZM5.596,16.263C4.222,15.271 3.607,14.166 3.607,13.513L3.607,12.611L7.225,12.611C7.282,14.448 7.551,16.06 7.947,17.469C7.096,17.176 6.301,16.77 5.596,16.263ZM28.857,13.513C28.857,14.42 27.859,15.547 26.866,16.263C26.163,16.77 25.361,17.176 24.511,17.469C24.905,16.06 25.176,14.448 25.232,12.611L28.857,12.611L28.857,13.513Z" style="fill:rgb(241,222,186);fill-rule:nonzero;stroke:rgb(128,128,128);stroke-width:0.31px;"/>
            </g>
            <g>
                <g transform="matrix(3.76452,0,0,3.76452,95.1645,34.649)">
                    <path d="M7.296,0L2.508,-2.976L2.508,0L0.696,0L0.696,-8.184L7.104,-8.184C7.68,-8.184 8.172,-8.148 8.58,-8.076C8.988,-8.004 9.322,-7.876 9.582,-7.692C9.842,-7.508 10.032,-7.256 10.152,-6.936C10.272,-6.616 10.332,-6.212 10.332,-5.724L10.332,-5.16C10.332,-4.688 10.268,-4.298 10.14,-3.99C10.012,-3.682 9.814,-3.438 9.546,-3.258C9.278,-3.078 8.94,-2.952 8.532,-2.88C8.124,-2.808 7.64,-2.772 7.08,-2.772L5.64,-2.772L10.44,0L7.296,0ZM8.508,-5.628C8.508,-5.844 8.484,-6.02 8.436,-6.156C8.388,-6.292 8.308,-6.396 8.196,-6.468C8.084,-6.54 7.928,-6.588 7.728,-6.612C7.528,-6.636 7.28,-6.648 6.984,-6.648L2.508,-6.648L2.508,-4.152L6.984,-4.152C7.28,-4.152 7.526,-4.164 7.722,-4.188C7.918,-4.212 8.074,-4.26 8.19,-4.332C8.306,-4.404 8.388,-4.508 8.436,-4.644C8.484,-4.78 8.508,-4.96 8.508,-5.184L8.508,-5.628Z" style="fill:white;fill-rule:nonzero;"/>
                </g>
                <g transform="matrix(3.76452,0,0,3.76452,135.279,34.649)">
                    <path d="M2.436,-2.592L2.436,-2.292C2.436,-2.092 2.452,-1.932 2.484,-1.812C2.516,-1.692 2.574,-1.598 2.658,-1.53C2.742,-1.462 2.854,-1.416 2.994,-1.392C3.134,-1.368 3.308,-1.356 3.516,-1.356L5.628,-1.356L5.628,0L3.516,0C2.484,0 1.748,-0.196 1.308,-0.588C0.868,-0.98 0.648,-1.608 0.648,-2.472L0.648,-3.972C0.648,-4.444 0.694,-4.842 0.786,-5.166C0.878,-5.49 1.038,-5.75 1.266,-5.946C1.494,-6.142 1.796,-6.284 2.172,-6.372C2.548,-6.46 3.024,-6.504 3.6,-6.504L6.744,-6.504C7.208,-6.504 7.594,-6.46 7.902,-6.372C8.21,-6.284 8.454,-6.162 8.634,-6.006C8.814,-5.85 8.94,-5.662 9.012,-5.442C9.084,-5.222 9.12,-4.984 9.12,-4.728L9.12,-2.592L2.436,-2.592ZM7.332,-4.584C7.332,-4.8 7.278,-4.944 7.17,-5.016C7.062,-5.088 6.872,-5.124 6.6,-5.124L3.624,-5.124C3.4,-5.124 3.212,-5.114 3.06,-5.094C2.908,-5.074 2.786,-5.028 2.694,-4.956C2.602,-4.884 2.536,-4.78 2.496,-4.644C2.456,-4.508 2.436,-4.324 2.436,-4.092L2.436,-3.744L7.332,-3.744L7.332,-4.584Z" style="fill:white;fill-rule:nonzero;"/>
                </g>
                <g transform="matrix(3.76452,0,0,3.76452,135.279,34.649)">
                    <path d="M10.788,0L10.788,-5.052L9.876,-5.052L9.876,-6.504L10.788,-6.504L10.788,-8.34L12.612,-8.34L12.612,-6.504L14.664,-6.504L14.664,-5.052L12.612,-5.052L12.612,0L10.788,0Z" style="fill:white;fill-rule:nonzero;"/>
                </g>
                <g transform="matrix(3.76452,0,0,3.76452,135.279,34.649)">
                    <path d="M15.528,0L15.528,-3.768C15.528,-4.256 15.584,-4.672 15.696,-5.016C15.808,-5.36 15.986,-5.642 16.23,-5.862C16.474,-6.082 16.788,-6.244 17.172,-6.348C17.556,-6.452 18.024,-6.504 18.576,-6.504L19.74,-6.504L19.74,-5.052L18.624,-5.052C18.376,-5.052 18.168,-5.032 18,-4.992C17.832,-4.952 17.698,-4.884 17.598,-4.788C17.498,-4.692 17.426,-4.56 17.382,-4.392C17.338,-4.224 17.316,-4.012 17.316,-3.756L17.316,0L15.528,0Z" style="fill:white;fill-rule:nonzero;"/>
                </g>
                <g transform="matrix(3.76452,0,0,3.76452,210.269,34.649)">
                    <path d="M3.768,0C3.168,0 2.668,-0.05 2.268,-0.15C1.868,-0.25 1.548,-0.41 1.308,-0.63C1.068,-0.85 0.898,-1.138 0.798,-1.494C0.698,-1.85 0.648,-2.288 0.648,-2.808L0.648,-3.684C0.648,-4.204 0.698,-4.644 0.798,-5.004C0.898,-5.364 1.068,-5.654 1.308,-5.874C1.548,-6.094 1.868,-6.254 2.268,-6.354C2.668,-6.454 3.168,-6.504 3.768,-6.504L5.94,-6.504C6.548,-6.504 7.052,-6.454 7.452,-6.354C7.852,-6.254 8.172,-6.092 8.412,-5.868C8.652,-5.644 8.822,-5.352 8.922,-4.992C9.022,-4.632 9.072,-4.192 9.072,-3.672L9.072,-2.808C9.072,-2.288 9.022,-1.85 8.922,-1.494C8.822,-1.138 8.652,-0.85 8.412,-0.63C8.172,-0.41 7.852,-0.25 7.452,-0.15C7.052,-0.05 6.548,0 5.94,0L3.768,0ZM7.284,-3.624C7.284,-3.896 7.262,-4.12 7.218,-4.296C7.174,-4.472 7.094,-4.61 6.978,-4.71C6.862,-4.81 6.7,-4.878 6.492,-4.914C6.284,-4.95 6.02,-4.968 5.7,-4.968L4.008,-4.968C3.688,-4.968 3.426,-4.95 3.222,-4.914C3.018,-4.878 2.858,-4.81 2.742,-4.71C2.626,-4.61 2.546,-4.472 2.502,-4.296C2.458,-4.12 2.436,-3.896 2.436,-3.624L2.436,-2.856C2.436,-2.584 2.458,-2.362 2.502,-2.19C2.546,-2.018 2.626,-1.882 2.742,-1.782C2.858,-1.682 3.018,-1.612 3.222,-1.572C3.426,-1.532 3.688,-1.512 4.008,-1.512L5.7,-1.512C6.02,-1.512 6.284,-1.532 6.492,-1.572C6.7,-1.612 6.862,-1.682 6.978,-1.782C7.094,-1.882 7.174,-2.018 7.218,-2.19C7.262,-2.362 7.284,-2.584 7.284,-2.856L7.284,-3.624Z" style="fill:white;fill-rule:nonzero;"/>
                </g>
                <g transform="matrix(3.76452,0,0,3.76452,95.1645,79.823)">
                    <path d="M9.024,-1.884L3.36,-1.884L2.196,0L0.096,0L4.848,-7.56C4.992,-7.792 5.164,-7.984 5.364,-8.136C5.564,-8.288 5.852,-8.364 6.228,-8.364C6.596,-8.364 6.88,-8.288 7.08,-8.136C7.28,-7.984 7.452,-7.792 7.596,-7.56L12.324,0L10.212,0L9.024,-1.884ZM4.212,-3.288L8.172,-3.288L6.192,-6.516L4.212,-3.288Z" style="fill:white;fill-rule:nonzero;"/>
                </g>
                <g transform="matrix(3.76452,0,0,3.76452,140.565,79.823)">
                    <path d="M3.768,0C3.168,0 2.668,-0.05 2.268,-0.15C1.868,-0.25 1.548,-0.41 1.308,-0.63C1.068,-0.85 0.898,-1.138 0.798,-1.494C0.698,-1.85 0.648,-2.288 0.648,-2.808L0.648,-3.684C0.648,-4.204 0.698,-4.644 0.798,-5.004C0.898,-5.364 1.068,-5.654 1.308,-5.874C1.548,-6.094 1.868,-6.254 2.268,-6.354C2.668,-6.454 3.168,-6.504 3.768,-6.504L8.472,-6.504L8.472,-4.968L3.828,-4.968C3.548,-4.968 3.318,-4.948 3.138,-4.908C2.958,-4.868 2.816,-4.798 2.712,-4.698C2.608,-4.598 2.536,-4.46 2.496,-4.284C2.456,-4.108 2.436,-3.888 2.436,-3.624L2.436,-2.856C2.436,-2.6 2.456,-2.386 2.496,-2.214C2.536,-2.042 2.608,-1.904 2.712,-1.8C2.816,-1.696 2.958,-1.622 3.138,-1.578C3.318,-1.534 3.548,-1.512 3.828,-1.512L8.484,-1.512L8.484,0L3.768,0Z" style="fill:white;fill-rule:nonzero;"/>
                </g>
                <g transform="matrix(3.76452,0,0,3.76452,140.565,79.823)">
                    <path d="M16.536,0L16.536,-3.624C16.536,-3.896 16.514,-4.12 16.47,-4.296C16.426,-4.472 16.352,-4.61 16.248,-4.71C16.144,-4.81 16,-4.878 15.816,-4.914C15.632,-4.95 15.404,-4.968 15.132,-4.968L11.568,-4.968L11.568,0L9.78,0L9.78,-8.604L11.568,-8.604L11.568,-6.504L15.18,-6.504C15.788,-6.504 16.294,-6.454 16.698,-6.354C17.102,-6.254 17.424,-6.094 17.664,-5.874C17.904,-5.654 18.074,-5.364 18.174,-5.004C18.274,-4.644 18.324,-4.204 18.324,-3.684L18.324,0L16.536,0Z" style="fill:white;fill-rule:nonzero;"/>
                </g>
                <g transform="matrix(3.76452,0,0,3.76452,140.565,79.823)">
                    <path d="M19.704,0L19.704,-6.336L21.528,-6.336L21.528,0L19.704,0ZM20.316,-6.876C20.092,-6.876 19.934,-6.92 19.842,-7.008C19.75,-7.096 19.704,-7.236 19.704,-7.428L19.704,-8.124C19.704,-8.316 19.75,-8.454 19.842,-8.538C19.934,-8.622 20.092,-8.664 20.316,-8.664L20.904,-8.664C21.136,-8.664 21.298,-8.622 21.39,-8.538C21.482,-8.454 21.528,-8.316 21.528,-8.124L21.528,-7.428C21.528,-7.236 21.482,-7.096 21.39,-7.008C21.298,-6.92 21.136,-6.876 20.904,-6.876L20.316,-6.876Z" style="fill:white;fill-rule:nonzero;"/>
                </g>
                <g transform="matrix(3.76452,0,0,3.76452,140.565,79.823)">
                    <path d="M24.672,-2.592L24.672,-2.292C24.672,-2.092 24.688,-1.932 24.72,-1.812C24.752,-1.692 24.81,-1.598 24.894,-1.53C24.978,-1.462 25.09,-1.416 25.23,-1.392C25.37,-1.368 25.544,-1.356 25.752,-1.356L27.864,-1.356L27.864,0L25.752,0C24.72,0 23.984,-0.196 23.544,-0.588C23.104,-0.98 22.884,-1.608 22.884,-2.472L22.884,-3.972C22.884,-4.444 22.93,-4.842 23.022,-5.166C23.114,-5.49 23.274,-5.75 23.502,-5.946C23.73,-6.142 24.032,-6.284 24.408,-6.372C24.784,-6.46 25.26,-6.504 25.836,-6.504L28.98,-6.504C29.444,-6.504 29.83,-6.46 30.138,-6.372C30.446,-6.284 30.69,-6.162 30.87,-6.006C31.05,-5.85 31.176,-5.662 31.248,-5.442C31.32,-5.222 31.356,-4.984 31.356,-4.728L31.356,-2.592L24.672,-2.592ZM29.568,-4.584C29.568,-4.8 29.514,-4.944 29.406,-5.016C29.298,-5.088 29.108,-5.124 28.836,-5.124L25.86,-5.124C25.636,-5.124 25.448,-5.114 25.296,-5.094C25.144,-5.074 25.022,-5.028 24.93,-4.956C24.838,-4.884 24.772,-4.78 24.732,-4.644C24.692,-4.508 24.672,-4.324 24.672,-4.092L24.672,-3.744L29.568,-3.744L29.568,-4.584Z" style="fill:white;fill-rule:nonzero;"/>
                </g>
                <g transform="matrix(3.76452,0,0,3.76452,259.057,79.823)">
                    <path d="M6.852,-0.432C6.716,-0.248 6.558,-0.1 6.378,0.012C6.198,0.124 5.948,0.18 5.628,0.18C5.292,0.18 5.036,0.124 4.86,0.012C4.684,-0.1 4.528,-0.248 4.392,-0.432L0.108,-6.504L2.244,-6.504L5.652,-1.524L9.024,-6.504L11.136,-6.504L6.852,-0.432Z" style="fill:white;fill-rule:nonzero;"/>
                </g>
                <g transform="matrix(3.76452,0,0,3.76452,259.057,79.823)">
                    <path d="M13.092,-2.592L13.092,-2.292C13.092,-2.092 13.108,-1.932 13.14,-1.812C13.172,-1.692 13.23,-1.598 13.314,-1.53C13.398,-1.462 13.51,-1.416 13.65,-1.392C13.79,-1.368 13.964,-1.356 14.172,-1.356L16.284,-1.356L16.284,0L14.172,0C13.14,0 12.404,-0.196 11.964,-0.588C11.524,-0.98 11.304,-1.608 11.304,-2.472L11.304,-3.972C11.304,-4.444 11.35,-4.842 11.442,-5.166C11.534,-5.49 11.694,-5.75 11.922,-5.946C12.15,-6.142 12.452,-6.284 12.828,-6.372C13.204,-6.46 13.68,-6.504 14.256,-6.504L17.4,-6.504C17.864,-6.504 18.25,-6.46 18.558,-6.372C18.866,-6.284 19.11,-6.162 19.29,-6.006C19.47,-5.85 19.596,-5.662 19.668,-5.442C19.74,-5.222 19.776,-4.984 19.776,-4.728L19.776,-2.592L13.092,-2.592ZM17.988,-4.584C17.988,-4.8 17.934,-4.944 17.826,-5.016C17.718,-5.088 17.528,-5.124 17.256,-5.124L14.28,-5.124C14.056,-5.124 13.868,-5.114 13.716,-5.094C13.564,-5.074 13.442,-5.028 13.35,-4.956C13.258,-4.884 13.192,-4.78 13.152,-4.644C13.112,-4.508 13.092,-4.324 13.092,-4.092L13.092,-3.744L17.988,-3.744L17.988,-4.584Z" style="fill:white;fill-rule:nonzero;"/>
                </g>
                <g transform="matrix(3.76452,0,0,3.76452,259.057,79.823)">
                    <path d="M31.296,0L31.296,-3.912C31.296,-4.32 31.218,-4.598 31.062,-4.746C30.906,-4.894 30.656,-4.968 30.312,-4.968L29.148,-4.968C28.884,-4.968 28.666,-4.95 28.494,-4.914C28.322,-4.878 28.186,-4.818 28.086,-4.734C27.986,-4.65 27.916,-4.542 27.876,-4.41C27.836,-4.278 27.816,-4.112 27.816,-3.912L27.816,0L26.244,0L26.244,-3.912C26.244,-4.112 26.226,-4.278 26.19,-4.41C26.154,-4.542 26.086,-4.65 25.986,-4.734C25.886,-4.818 25.748,-4.878 25.572,-4.914C25.396,-4.95 25.172,-4.968 24.9,-4.968L23.76,-4.968C23.4,-4.968 23.146,-4.894 22.998,-4.746C22.85,-4.598 22.776,-4.32 22.776,-3.912L22.776,0L21.036,0L21.036,-4.176C21.036,-4.576 21.076,-4.922 21.156,-5.214C21.236,-5.506 21.368,-5.748 21.552,-5.94C21.736,-6.132 21.976,-6.274 22.272,-6.366C22.568,-6.458 22.932,-6.504 23.364,-6.504L24.936,-6.504C25.264,-6.504 25.546,-6.48 25.782,-6.432C26.018,-6.384 26.218,-6.314 26.382,-6.222C26.546,-6.13 26.678,-6.012 26.778,-5.868C26.878,-5.724 26.96,-5.556 27.024,-5.364C27.136,-5.748 27.35,-6.034 27.666,-6.222C27.982,-6.41 28.46,-6.504 29.1,-6.504L30.72,-6.504C31.152,-6.504 31.516,-6.458 31.812,-6.366C32.108,-6.274 32.348,-6.132 32.532,-5.94C32.716,-5.748 32.848,-5.506 32.928,-5.214C33.008,-4.922 33.048,-4.576 33.048,-4.176L33.048,0L31.296,0Z" style="fill:white;fill-rule:nonzero;"/>
                </g>
                <g transform="matrix(3.76452,0,0,3.76452,259.057,79.823)">
                    <path d="M36.156,-2.592L36.156,-2.292C36.156,-2.092 36.172,-1.932 36.204,-1.812C36.236,-1.692 36.294,-1.598 36.378,-1.53C36.462,-1.462 36.574,-1.416 36.714,-1.392C36.854,-1.368 37.028,-1.356 37.236,-1.356L39.348,-1.356L39.348,0L37.236,0C36.204,0 35.468,-0.196 35.028,-0.588C34.588,-0.98 34.368,-1.608 34.368,-2.472L34.368,-3.972C34.368,-4.444 34.414,-4.842 34.506,-5.166C34.598,-5.49 34.758,-5.75 34.986,-5.946C35.214,-6.142 35.516,-6.284 35.892,-6.372C36.268,-6.46 36.744,-6.504 37.32,-6.504L40.464,-6.504C40.928,-6.504 41.314,-6.46 41.622,-6.372C41.93,-6.284 42.174,-6.162 42.354,-6.006C42.534,-5.85 42.66,-5.662 42.732,-5.442C42.804,-5.222 42.84,-4.984 42.84,-4.728L42.84,-2.592L36.156,-2.592ZM41.052,-4.584C41.052,-4.8 40.998,-4.944 40.89,-5.016C40.782,-5.088 40.592,-5.124 40.32,-5.124L37.344,-5.124C37.12,-5.124 36.932,-5.114 36.78,-5.094C36.628,-5.074 36.506,-5.028 36.414,-4.956C36.322,-4.884 36.256,-4.78 36.216,-4.644C36.176,-4.508 36.156,-4.324 36.156,-4.092L36.156,-3.744L41.052,-3.744L41.052,-4.584Z" style="fill:white;fill-rule:nonzero;"/>
                </g>
                <g transform="matrix(3.76452,0,0,3.76452,259.057,79.823)">
                    <path d="M50.736,0L50.736,-3.624C50.736,-3.896 50.714,-4.118 50.67,-4.29C50.626,-4.462 50.55,-4.598 50.442,-4.698C50.334,-4.798 50.186,-4.868 49.998,-4.908C49.81,-4.948 49.572,-4.968 49.284,-4.968L47.34,-4.968C47.06,-4.968 46.826,-4.948 46.638,-4.908C46.45,-4.868 46.3,-4.798 46.188,-4.698C46.076,-4.598 45.998,-4.462 45.954,-4.29C45.91,-4.118 45.888,-3.896 45.888,-3.624L45.888,0L44.1,0L44.1,-3.684C44.1,-4.204 44.15,-4.644 44.25,-5.004C44.35,-5.364 44.52,-5.654 44.76,-5.874C45,-6.094 45.32,-6.254 45.72,-6.354C46.12,-6.454 46.62,-6.504 47.22,-6.504L49.392,-6.504C50,-6.504 50.504,-6.454 50.904,-6.354C51.304,-6.254 51.624,-6.094 51.864,-5.874C52.104,-5.654 52.274,-5.364 52.374,-5.004C52.474,-4.644 52.524,-4.204 52.524,-3.684L52.524,0L50.736,0Z" style="fill:white;fill-rule:nonzero;"/>
                </g>
                <g transform="matrix(3.76452,0,0,3.76452,259.057,79.823)">
                    <path d="M54.276,0L54.276,-5.052L53.364,-5.052L53.364,-6.504L54.276,-6.504L54.276,-8.34L56.1,-8.34L56.1,-6.504L58.152,-6.504L58.152,-5.052L56.1,-5.052L56.1,0L54.276,0Z" style="fill:white;fill-rule:nonzero;"/>
                </g>
                <g transform="matrix(3.76452,0,0,3.76452,259.057,79.823)">
                    <path d="M66.66,-1.728C66.66,-1.408 66.632,-1.138 66.576,-0.918C66.52,-0.698 66.41,-0.52 66.246,-0.384C66.082,-0.248 65.858,-0.15 65.574,-0.09C65.29,-0.03 64.92,0 64.464,0L58.872,0L58.872,-1.404L64.236,-1.404C64.476,-1.404 64.644,-1.444 64.74,-1.524C64.836,-1.604 64.884,-1.756 64.884,-1.98L64.884,-2.196C64.884,-2.436 64.838,-2.586 64.746,-2.646C64.654,-2.706 64.5,-2.736 64.284,-2.736L60.636,-2.736C60.268,-2.736 59.97,-2.772 59.742,-2.844C59.514,-2.916 59.336,-3.024 59.208,-3.168C59.08,-3.312 58.994,-3.49 58.95,-3.702C58.906,-3.914 58.884,-4.164 58.884,-4.452L58.884,-4.944C58.884,-5.224 58.914,-5.464 58.974,-5.664C59.034,-5.864 59.132,-6.026 59.268,-6.15C59.404,-6.274 59.588,-6.364 59.82,-6.42C60.052,-6.476 60.344,-6.504 60.696,-6.504L63.168,-6.504L63.168,-5.148L61.128,-5.148C60.952,-5.148 60.826,-5.116 60.75,-5.052C60.674,-4.988 60.636,-4.872 60.636,-4.704L60.636,-4.404C60.636,-4.22 60.672,-4.096 60.744,-4.032C60.816,-3.968 60.932,-3.936 61.092,-3.936L64.62,-3.936C65.036,-3.936 65.376,-3.902 65.64,-3.834C65.904,-3.766 66.112,-3.658 66.264,-3.51C66.416,-3.362 66.52,-3.17 66.576,-2.934C66.632,-2.698 66.66,-2.408 66.66,-2.064L66.66,-1.728Z" style="fill:white;fill-rule:nonzero;"/>
                </g>
            </g>
        </g>
    </g>
</svg>
