<?xml version="1.0" encoding="UTF-8" standalone="no"?>
<!DOCTYPE svg PUBLIC "-//W3C//DTD SVG 1.1//EN" "http://www.w3.org/Graphics/SVG/1.1/DTD/svg11.dtd">
<svg width="100%" height="100%" viewBox="0 0 554 104" version="1.1" xmlns="http://www.w3.org/2000/svg" xmlns:xlink="http://www.w3.org/1999/xlink" xml:space="preserve" xmlns:serif="http://www.serif.com/" style="fill-rule:evenodd;clip-rule:evenodd;stroke-linejoin:round;stroke-miterlimit:2;">
    <g>
        <path d="M184.745,74.63l-53.246,-0l-10.943,17.711l-19.742,-0l44.673,-71.071c1.354,-2.181 2.971,-3.986 4.851,-5.415c1.88,-1.429 4.588,-2.143 8.123,-2.143c3.459,-0 6.129,0.714 8.009,2.143c1.88,1.429 3.497,3.234 4.851,5.415l44.447,71.071l-19.854,-0l-11.169,-17.711Zm-45.237,-13.199l37.228,-0l-18.614,-30.346l-18.614,30.346Z" style="fill:#fff;fill-rule:nonzero;"/>
        <path d="M248.709,92.341c-5.64,-0 -10.341,-0.47 -14.101,-1.41c-3.761,-0.94 -6.769,-2.445 -9.025,-4.513c-2.256,-2.068 -3.854,-4.775 -4.795,-8.122c-0.94,-3.347 -1.41,-7.464 -1.41,-12.353l0,-8.235c0,-4.889 0.47,-9.025 1.41,-12.409c0.941,-3.385 2.539,-6.111 4.795,-8.179c2.256,-2.068 5.264,-3.572 9.025,-4.512c3.76,-0.941 8.461,-1.411 14.101,-1.411l44.222,0l-0,14.44l-43.658,0c-2.632,0 -4.794,0.188 -6.486,0.564c-1.693,0.376 -3.027,1.034 -4.005,1.974c-0.978,0.941 -1.655,2.238 -2.031,3.892c-0.376,1.655 -0.564,3.723 -0.564,6.205l0,7.22c0,2.407 0.188,4.418 0.564,6.035c0.376,1.617 1.053,2.915 2.031,3.892c0.978,0.978 2.312,1.674 4.005,2.087c1.692,0.414 3.854,0.621 6.486,0.621l43.771,-0l-0,14.214l-44.335,-0Z" style="fill:#fff;fill-rule:nonzero;"/>
        <path d="M308.724,92.341l0,-47.493l-8.573,-0l-0,-13.651l8.573,0l0,-17.26l17.148,0l-0,17.26l19.29,0l0,13.651l-19.29,-0l-0,47.493l-17.148,-0Z" style="fill:#fff;fill-rule:nonzero;"/>
        <path d="M353.285,92.341l-0,-59.564l17.147,-0l-0,59.564l-17.147,-0Zm5.753,-64.641c-2.106,0 -3.591,-0.413 -4.456,-1.241c-0.865,-0.827 -1.297,-2.143 -1.297,-3.948l-0,-6.543c-0,-1.805 0.432,-3.102 1.297,-3.892c0.865,-0.79 2.35,-1.185 4.456,-1.185l5.528,0c2.181,0 3.704,0.395 4.569,1.185c0.864,0.79 1.297,2.087 1.297,3.892l-0,6.543c-0,1.805 -0.433,3.121 -1.297,3.948c-0.865,0.828 -2.388,1.241 -4.569,1.241l-5.528,0Z" style="fill:#fff;fill-rule:nonzero;"/>
        <path d="M412.51,92.341c-5.64,-0 -10.341,-0.47 -14.101,-1.41c-3.76,-0.94 -6.769,-2.445 -9.025,-4.513c-2.256,-2.068 -3.854,-4.775 -4.794,-8.122c-0.94,-3.347 -1.41,-7.464 -1.41,-12.353l-0,-8.235c-0,-4.889 0.47,-9.025 1.41,-12.409c0.94,-3.385 2.538,-6.111 4.794,-8.179c2.256,-2.068 5.265,-3.572 9.025,-4.512c3.76,-0.941 8.461,-1.411 14.101,-1.411l20.419,0c5.716,0 10.454,0.47 14.214,1.411c3.761,0.94 6.769,2.463 9.025,4.568c2.256,2.106 3.854,4.851 4.795,8.236c0.94,3.384 1.41,7.52 1.41,12.409l-0,8.122c-0,4.889 -0.47,9.006 -1.41,12.353c-0.941,3.347 -2.539,6.054 -4.795,8.122c-2.256,2.068 -5.264,3.573 -9.025,4.513c-3.76,0.94 -8.498,1.41 -14.214,1.41l-20.419,-0Zm33.054,-34.069c-0,-2.557 -0.207,-4.663 -0.621,-6.317c-0.413,-1.655 -1.165,-2.952 -2.256,-3.892c-1.09,-0.94 -2.613,-1.58 -4.569,-1.918c-1.955,-0.339 -4.437,-0.508 -7.445,-0.508l-15.906,0c-3.009,0 -5.472,0.169 -7.39,0.508c-1.917,0.338 -3.421,0.978 -4.512,1.918c-1.09,0.94 -1.843,2.237 -2.256,3.892c-0.414,1.654 -0.621,3.76 -0.621,6.317l0,7.22c0,2.557 0.207,4.644 0.621,6.261c0.413,1.617 1.166,2.895 2.256,3.835c1.091,0.941 2.595,1.599 4.512,1.975c1.918,0.376 4.381,0.564 7.39,0.564l15.906,-0c3.008,-0 5.49,-0.188 7.445,-0.564c1.956,-0.376 3.479,-1.034 4.569,-1.975c1.091,-0.94 1.843,-2.218 2.256,-3.835c0.414,-1.617 0.621,-3.704 0.621,-6.261l-0,-7.22Z" style="fill:#fff;fill-rule:nonzero;"/>
        <path d="M537.166,92.341l0,-34.069c0,-2.557 -0.207,-4.644 -0.62,-6.261c-0.414,-1.617 -1.128,-2.895 -2.144,-3.836c-1.015,-0.94 -2.406,-1.598 -4.174,-1.974c-1.767,-0.376 -4.004,-0.564 -6.712,-0.564l-18.275,0c-2.632,0 -4.832,0.188 -6.6,0.564c-1.767,0.376 -3.177,1.034 -4.23,1.974c-1.053,0.941 -1.786,2.219 -2.2,3.836c-0.414,1.617 -0.62,3.704 -0.62,6.261l-0,34.069l-16.809,-0l-0,-34.633c-0,-4.889 0.47,-9.025 1.41,-12.409c0.94,-3.385 2.538,-6.111 4.794,-8.179c2.257,-2.068 5.265,-3.572 9.025,-4.512c3.761,-0.941 8.461,-1.411 14.102,-1.411l20.418,0c5.716,0 10.454,0.47 14.215,1.411c3.76,0.94 6.768,2.444 9.024,4.512c2.257,2.068 3.855,4.794 4.795,8.179c0.94,3.384 1.41,7.52 1.41,12.409l0,34.633l-16.809,-0Z" style="fill:#fff;fill-rule:nonzero;"/>
        <g>
            <path d="M71.366,53.016c-0,0 -3.995,-2.019 -8.61,10.859l7.935,8.214c0,-0 5.617,-12.48 0.675,-19.073Z" style="fill:#375dab;fill-rule:nonzero;"/>
            <path d="M39.581,37.992l0,8.576c0,1.974 -0.597,3.896 -1.719,5.52c-2.074,3.004 -5.687,7.991 -8.922,11.227c-0,-0 12.224,8.779 26.005,13.336l8.891,-13.225c-0,0 -7.265,-2.556 -6.8,-9.669l-17.455,-15.765Z" style="fill:url(#_Linear2);fill-rule:nonzero;"/>
            <path d="M57.036,53.757l-17.455,-15.765l0,8.576c0,0.114 -0.009,0.228 -0.013,0.343l20.762,21.73l3.505,-5.215c0,0 -7.264,-2.556 -6.799,-9.669Z" style="fill:#e8897b;fill-rule:nonzero;"/>
            <path d="M28.939,63.315c0,-0 12.225,8.779 26.006,13.336l8.89,-13.225c0,0 -2.337,-0.824 -4.275,-2.835c-0.417,0.962 -1.021,1.736 -1.665,2.344c-1.417,1.337 -3.305,2.049 -5.248,2.2c-9.934,0.776 -17.169,-5.678 -18.907,-7.397c-1.541,1.987 -3.216,3.992 -4.801,5.577Z" style="fill:#375dab;fill-rule:nonzero;"/>
            <path d="M18.833,72.044l13.262,-12.249c0,-0 10.446,9.311 20.878,13.144c0.661,0.243 1.405,0.04 1.867,-0.491c1.466,-1.687 4.573,-5.56 5.662,-9.244l3.333,0.222c0,0 3.425,3.864 6.45,6.362c0.783,0.646 1.357,1.506 1.613,2.488c1.249,4.781 3.299,19.165 -12.836,30.527c-0.517,0.364 -1.138,0.55 -1.771,0.549c-3.532,-0.005 -15.596,-0.91 -25.501,-12.253c-0,-0 -5.193,-5.728 -11.221,-8.406c-2.135,-0.948 -3.579,-2.987 -3.79,-5.313c-0.181,-2.001 0.578,-3.973 2.054,-5.336Z" style="fill:#fff;fill-rule:nonzero;"/>
            <path d="M70.285,69.787c-3.025,-2.498 -6.449,-6.361 -6.449,-6.361l-3.329,-0.222l-0.008,0.008c-1.057,3.566 -3.997,7.302 -5.512,9.064c1.589,23.031 -15.363,21.506 -22.118,20.004c9.685,10.223 21.018,11.067 24.422,11.072c0.633,0.001 1.255,-0.185 1.772,-0.549c16.134,-11.362 14.085,-25.746 12.836,-30.527c-0.257,-0.983 -0.831,-1.842 -1.614,-2.489Z" style="fill:#cde0ff;fill-rule:nonzero;"/>
            <path d="M71.898,72.276c-0.256,-0.983 -0.83,-1.842 -1.613,-2.489c-3.025,-2.498 -6.449,-6.361 -6.449,-6.361l-3.334,-0.222c-1.089,3.684 -4.196,7.557 -5.662,9.243c-0.216,0.249 -0.495,0.422 -0.797,0.515c4.301,12.896 3.985,26.289 3.764,30.346c0.449,-0.074 0.881,-0.241 1.256,-0.506c16.134,-11.361 14.084,-25.745 12.835,-30.526Z" style="fill:#afc8ff;fill-rule:nonzero;"/>
            <path d="M27.026,58.678l4.092,-2.321c1.053,-0.598 2.383,-0.373 3.169,0.549c1.292,1.517 3.182,4.029 4.424,6.982c0.753,1.79 0.093,3.863 -1.575,4.858c-1.412,0.842 -3.2,0.699 -4.464,-0.353c-1.685,-1.401 -4.091,-3.507 -6.23,-5.763c-1.134,-1.197 -0.849,-3.138 0.584,-3.952Z" style="fill:url(#_Linear3);fill-rule:nonzero;"/>
            <path d="M59.814,60.547l0.18,7c0.03,1.187 0.929,2.171 2.109,2.308c1.067,0.124 2.089,-0.476 2.487,-1.474c0.414,-1.037 0.884,-2.44 1.087,-3.866c0.097,-0.675 -0.158,-1.351 -0.659,-1.815c-0.801,-0.74 -2.198,-1.905 -3.99,-2.902c-0.552,-0.307 -1.23,0.117 -1.214,0.749Z" style="fill:url(#_Linear4);fill-rule:nonzero;"/>
            <path d="M16.669,49.725c4.372,2.421 13.626,9.293 13.943,24.208c0.013,0.584 -0.124,1.161 -0.384,1.684c-1.222,2.46 -5.56,9.226 -16.701,10.293c-0.976,0.093 -1.942,-0.275 -2.602,-0.999c-1.509,-1.653 -4.682,-4.756 -8.677,-6.556c-1.136,-0.512 -1.809,-1.707 -1.664,-2.943c0.471,-4.008 2.527,-12.341 11.4,-16.316c1.059,-0.474 1.854,-1.38 2.156,-2.501c0.357,-1.319 0.696,-3.264 0.559,-5.634c-0.06,-1.044 1.055,-1.743 1.97,-1.236Z" style="fill:#eef5ff;fill-rule:nonzero;"/>
            <path d="M30.228,75.617c0.26,-0.523 0.397,-1.1 0.385,-1.684c-0.311,-14.575 -9.151,-21.467 -13.634,-24.033c4.344,5.701 16.035,24.258 -7.289,33.736c0.481,0.473 0.905,0.912 1.235,1.275c0.661,0.724 1.626,1.092 2.602,0.999c11.141,-1.067 15.48,-7.832 16.701,-10.293Z" style="fill:#c7daff;fill-rule:nonzero;"/>
            <path d="M8.063,66.079c0.383,-0.841 1.088,-1.805 2.382,-2.507c0.056,-0.031 0.116,-0.059 0.176,-0.081c0.263,-0.097 1.058,-0.363 1.943,-0.366c0.951,-0.004 1.563,1.014 1.095,1.841c-0.605,1.069 -1.827,2.41 -4.229,2.823c-0.979,0.168 -1.779,-0.806 -1.367,-1.71Z" style="fill:#fff;fill-rule:nonzero;"/>
            <path d="M47.846,9.431c0,-5.034 -4.08,-9.115 -9.114,-9.115c-9.349,0 -16.927,7.579 -16.927,16.927l-0,27.344c-0,1.991 1.614,3.606 3.605,3.606c1.992,-0 3.606,-1.615 3.606,-3.606l0,-4.357c0,-0.913 0.74,-1.653 1.653,-1.653c0.912,0 1.652,0.74 1.652,1.653l0,1.553c0,1.216 0.987,2.203 2.204,2.203c1.217,0 2.204,-0.986 2.204,-2.203l-0,-11.319c-0,0 -0.301,-15.124 11.117,-21.033Z" style="fill:url(#_Linear5);fill-rule:nonzero;"/>
            <path d="M38.732,0.316c-2.475,0 -4.823,0.535 -6.942,1.49c4.073,0.867 10.205,3.69 8.115,12.874l1.375,0.549c1.579,-2.256 3.704,-4.317 6.567,-5.798c-0.001,-5.034 -4.081,-9.115 -9.115,-9.115Z" style="fill:#a03774;fill-rule:nonzero;"/>
            <path d="M37.304,36.215c-0,0 -3.568,-1.613 -3.938,-7.842c-0.258,-4.367 1.076,-8.701 3.658,-12.233c1.042,-1.424 2.392,-2.929 4.111,-4.276c6.526,-5.114 15.681,-5.314 22.475,-0.563c2.986,2.088 5.677,5.31 6.51,10.266c0.113,0.672 0.164,1.354 0.192,2.035c0.091,2.219 0.077,6.91 -1.499,8.87l-31.509,3.743Z" style="fill:#eef5ff;fill-rule:nonzero;"/>
            <path d="M68.813,32.472c1.576,-1.96 1.59,-6.651 1.499,-8.87c-0.028,-0.681 -0.08,-1.363 -0.192,-2.035c-0.833,-4.956 -3.524,-8.178 -6.51,-10.266c-3.89,-2.721 -8.554,-3.81 -13.056,-3.291c4.666,1.964 12.114,8.351 -6.824,27.441l25.083,-2.979Z" style="fill:#c7daff;fill-rule:nonzero;"/>
            <path d="M36.302,24.189c0.237,-1.439 1.063,-5.036 3.645,-7.46c0.655,-0.615 1.651,-0.694 2.395,-0.19c0.875,0.592 1.106,1.777 0.518,2.655c-1.095,1.635 -2.924,4.172 -4.8,5.93c-0.377,0.353 -0.953,0.38 -1.362,0.064c-0.306,-0.236 -0.459,-0.617 -0.396,-0.999Z" style="fill:#fff;fill-rule:nonzero;"/>
            <path d="M39.581,37.992l1.578,6.549c0.285,1.188 0.976,2.241 1.96,2.963c2.373,1.741 7.362,5.037 13.999,7.444c0.783,0.284 1.615,0.415 2.449,0.415l1.715,0c1.195,0 2.275,-0.699 2.763,-1.791c0.975,-2.179 2.497,-6.262 3.233,-11.782l-25.612,-5.575l-2.085,1.777Z" style="fill:url(#_Linear6);fill-rule:nonzero;"/>
            <path d="M44.655,36.866l-0.58,1.773c0,-0 7.43,4.768 14.472,7.709c1.386,0.579 2.322,1.905 2.34,3.408c0.015,1.352 -0.041,3.231 -0.299,5.608l0.693,-0c1.196,-0 2.276,-0.7 2.764,-1.792c0.974,-2.179 2.497,-6.262 3.233,-11.782l-22.623,-4.924Z" style="fill:#e8897b;fill-rule:nonzero;"/>
            <path d="M40.017,34.08c2.074,-2.039 9.581,-8.908 22.368,-15.049c0,-0 6.966,6.965 10.492,13.845l-0,3.353c-0,0 -3.321,5.47 -9.943,9.684c0,0 -11.065,-2.14 -22.666,-9.535c-0.32,-0.203 -0.55,-0.526 -0.642,-0.893c-0.127,-0.506 0.019,-1.039 0.391,-1.405Z" style="fill:#eef5ff;fill-rule:nonzero;"/>
            <path d="M50.837,41.938c6.951,2.977 12.097,3.975 12.097,3.975c6.622,-4.213 9.943,-9.683 9.943,-9.683l-0,-3.354c-2.876,-5.61 -8.036,-11.275 -9.843,-13.175c0.13,4.995 -0.69,18.042 -12.197,22.237Z" style="fill:#c7daff;fill-rule:nonzero;"/>
            <path d="M72.877,36.229l-0,-3.353c-3.526,-6.88 -10.491,-13.845 -10.491,-13.845c-0,-0 1.871,10.424 0.548,26.882c6.622,-4.214 9.943,-9.684 9.943,-9.684Z" style="fill:#819fea;fill-rule:nonzero;"/>
            <path d="M56.568,28.086c-0,0 1.166,-1.021 3.134,-2.258c-0,0 0.685,8.264 0.124,13.684l-3.133,-1.723l-0.125,-9.703Z" style="fill:#375dab;fill-rule:nonzero;"/>
            <path d="M52.013,31.179l0.365,4.277l-2.872,-1.646c-0,-0 1.744,-1.725 2.507,-2.631Z" style="fill:#375dab;fill-rule:nonzero;"/>
            <path d="M65.775,27.092c-0,0 0.411,5.83 0.068,12.185l1.991,-2.286l0.062,-7.547l-2.121,-2.352Z" style="fill:#375dab;fill-rule:nonzero;"/>
            <path d="M70.691,33.041c-0.273,-0.317 -0.605,-0.69 -0.903,-0.989l0,3.301l0.903,-1.023l0,-1.289Z" style="fill:#375dab;fill-rule:nonzero;"/>
            <circle cx="39.581" cy="35.456" r="3.557" style="fill:#c7daff;"/>
            <path d="M71.366,53.016c-0,0 3.428,6.422 -1.042,16.846c-0.496,1.157 -0.338,2.49 0.46,3.464c1.116,1.364 2.822,3.311 4.588,4.814c1.604,1.365 3.825,1.732 5.789,0.97c0.845,-0.328 1.784,-0.776 2.712,-1.384c0.875,-0.574 1.182,-1.713 0.723,-2.654c-1.132,-2.315 -3.789,-6.859 -8.932,-11.454c-0.289,-0.259 -0.469,-0.619 -0.487,-1.007c-0.086,-1.905 -0.612,-7.85 -3.811,-9.595Z" style="fill:#819fea;fill-rule:nonzero;"/>
            <path d="M28.57,88.014c3.58,-4.299 10.255,-11.943 17.464,-18.336c-1.45,-0.812 -2.85,-1.67 -4.166,-2.528c-2.226,4.966 -7.081,11.662 -17.667,17.548c1.656,1.077 3.151,2.259 4.369,3.316Z" style="fill:#cde0ff;fill-rule:nonzero;"/>
            <path d="M49.991,71.702c-0.688,-0.316 -1.371,-0.65 -2.047,-0.997c-3.533,4.115 -11.62,13.465 -17.168,19.35c0.644,0.637 1.014,1.043 1.014,1.043c0.095,0.11 0.192,0.211 0.287,0.318c3.787,-4.667 11.524,-13.916 17.914,-19.714Z" style="fill:#cde0ff;fill-rule:nonzero;"/>
        </g>
    </g>
    <defs>
        <linearGradient id="_Linear2" x1="0" y1="0" x2="1" y2="0" gradientUnits="userSpaceOnUse" gradientTransform="matrix(0.407598,-31.5176,31.5176,0.407598,46.3943,62.8533)"><stop offset="0" style="stop-color:#ffc3b0;stop-opacity:1"/><stop offset="0.01" style="stop-color:#ffc3b0;stop-opacity:1"/><stop offset="1" style="stop-color:#e8897b;stop-opacity:1"/></linearGradient>
        <linearGradient id="_Linear3" x1="0" y1="0" x2="1" y2="0" gradientUnits="userSpaceOnUse" gradientTransform="matrix(-10.2899,-16.2196,16.2196,-10.2899,32.1938,62.4082)"><stop offset="0" style="stop-color:#cc5697;stop-opacity:1"/><stop offset="1" style="stop-color:#8e3979;stop-opacity:1"/></linearGradient>
        <linearGradient id="_Linear4" x1="0" y1="0" x2="1" y2="0" gradientUnits="userSpaceOnUse" gradientTransform="matrix(3.66238,-12.208,12.208,3.66238,61.4564,67.0215)"><stop offset="0" style="stop-color:#cc5697;stop-opacity:1"/><stop offset="1" style="stop-color:#8e3979;stop-opacity:1"/></linearGradient>
        <linearGradient id="_Linear5" x1="0" y1="0" x2="1" y2="0" gradientUnits="userSpaceOnUse" gradientTransform="matrix(3.63269e-15,59.3264,-59.3264,3.63269e-15,34.8254,24.1163)"><stop offset="0" style="stop-color:#cc5697;stop-opacity:1"/><stop offset="1" style="stop-color:#8e3979;stop-opacity:1"/></linearGradient>
        <linearGradient id="_Linear6" x1="0" y1="0" x2="1" y2="0" gradientUnits="userSpaceOnUse" gradientTransform="matrix(-18.6116,-28.6647,28.6647,-18.6116,58.9769,50.7695)"><stop offset="0" style="stop-color:#ffc3b0;stop-opacity:1"/><stop offset="0.01" style="stop-color:#ffc3b0;stop-opacity:1"/><stop offset="1" style="stop-color:#e8897b;stop-opacity:1"/></linearGradient>
    </defs>
</svg>
