<svg viewBox="0 0 641 121" xmlns="http://www.w3.org/2000/svg" xml:space="preserve" style="fill-rule:evenodd;clip-rule:evenodd;stroke-linejoin:round;stroke-miterlimit:2">
    <path d="m116.608 83.463-28.654-17.81v17.81H77.109V34.484h38.35c3.447 0 6.392.216 8.833.647 2.442.431 4.441 1.197 5.997 2.298s2.693 2.609 3.411 4.524c.719 1.915 1.078 4.333 1.078 7.254v3.375c0 2.825-.383 5.159-1.149 7.002s-1.951 3.304-3.555 4.381c-1.604 1.077-3.627 1.831-6.069 2.262-2.442.431-5.338.646-8.69.646h-8.617l28.726 16.59h-18.816Zm7.254-33.682c0-1.292-.144-2.346-.431-3.16-.288-.814-.766-1.436-1.437-1.867-.67-.431-1.604-.718-2.8-.862-1.197-.143-2.682-.215-4.453-.215H87.954v14.938h26.787c1.771 0 3.244-.072 4.417-.216 1.173-.143 2.106-.431 2.8-.862.695-.43 1.185-1.053 1.473-1.867.287-.814.431-1.891.431-3.232v-2.657Zm35.405 33.682c-3.591 0-6.583-.299-8.977-.898-2.394-.598-4.309-1.556-5.745-2.872-1.437-1.317-2.454-3.041-3.053-5.171-.598-2.131-.897-4.752-.897-7.864v-5.243c0-3.112.299-5.745.897-7.899.599-2.155 1.616-3.89 3.053-5.207 1.436-1.317 3.351-2.274 5.745-2.873 2.394-.598 5.386-.897 8.977-.897h12.999c3.638 0 6.654.299 9.048.897 2.394.599 4.309 1.568 5.746 2.909 1.436 1.341 2.453 3.088 3.052 5.243.598 2.154.898 4.787.898 7.899v5.171c0 3.112-.3 5.733-.898 7.864-.599 2.13-1.616 3.854-3.052 5.171-1.437 1.316-3.352 2.274-5.746 2.872-2.394.599-5.41.898-9.048.898h-12.999Zm21.042-21.688c0-1.628-.132-2.969-.395-4.022-.263-1.053-.742-1.879-1.436-2.478-.695-.598-1.664-1.005-2.909-1.221-1.245-.215-2.825-.323-4.74-.323h-10.126c-1.915 0-3.483.108-4.704.323-1.221.216-2.178.623-2.872 1.221-.695.599-1.173 1.425-1.437 2.478-.263 1.053-.395 2.394-.395 4.022v4.596c0 1.628.132 2.956.395 3.986.264 1.029.742 1.843 1.437 2.441.694.599 1.651 1.018 2.872 1.257 1.221.239 2.789.359 4.704.359h10.126c1.915 0 3.495-.12 4.74-.359s2.214-.658 2.909-1.257c.694-.598 1.173-1.412 1.436-2.441.263-1.03.395-2.358.395-3.986v-4.596Z" style="fill:#fff;fill-rule:nonzero"/>
    <path style="fill:#fff" d="M199.125 31.971h10.916v51.492h-10.916z"/>
    <path d="M228.857 67.951v1.795c0 1.197.095 2.155.287 2.873.191.718.538 1.281 1.041 1.687.503.407 1.173.683 2.011.826.838.144 1.879.216 3.124.216h12.64v8.115h-12.64c-6.176 0-10.581-1.173-13.214-3.519-2.633-2.346-3.95-6.104-3.95-11.275v-8.977c0-2.825.275-5.207.826-7.146.55-1.939 1.508-3.495 2.873-4.668 1.364-1.173 3.171-2.023 5.422-2.549 2.25-.527 5.099-.79 8.546-.79h18.816c2.776 0 5.087.263 6.93.79 1.843.526 3.303 1.256 4.381 2.19 1.077.934 1.831 2.059 2.262 3.375.431 1.317.646 2.741.646 4.273v12.784h-40.001Zm29.301-11.922c0-1.292-.324-2.154-.97-2.585-.646-.431-1.783-.646-3.411-.646h-17.811c-1.34 0-2.465.059-3.375.179-.91.12-1.64.395-2.19.826-.551.431-.946 1.053-1.185 1.867-.24.814-.359 1.915-.359 3.304v2.082h29.301v-5.027Zm57.883 13.43v14.004h-10.916V34.484h39.212c3.495 0 6.415.276 8.761.826 2.346.551 4.238 1.461 5.674 2.729 1.436 1.269 2.454 2.909 3.052 4.92.599 2.011.898 4.452.898 7.325v4.237c0 2.921-.288 5.338-.862 7.254-.575 1.915-1.568 3.447-2.98 4.596-1.413 1.149-3.292 1.951-5.638 2.406-2.346.454-5.314.682-8.905.682h-28.296Zm35.765-18.744c0-2.633-.563-4.429-1.688-5.386-1.125-.958-3.148-1.437-6.068-1.437h-28.009v16.734h28.152c2.873 0 4.86-.443 5.961-1.329 1.101-.886 1.652-2.621 1.652-5.207v-3.375Z" style="fill:#fff;fill-rule:nonzero"/>
    <path style="fill:#fff" d="M369.544 31.971h10.916v51.492h-10.916z"/>
    <path d="M402.221 83.463c-2.825 0-5.147-.239-6.967-.718-1.819-.479-3.267-1.161-4.344-2.047-1.078-.886-1.832-1.963-2.263-3.232-.431-1.268-.646-2.693-.646-4.273v-3.662c0-1.628.204-3.076.61-4.345a7.144 7.144 0 0 1 2.119-3.232c1.005-.886 2.382-1.556 4.129-2.011 1.748-.455 3.962-.682 6.643-.682h28.799v-.862c0-2.489-.503-4.153-1.508-4.991-1.006-.838-2.706-1.257-5.099-1.257h-10.629v-7.612h10.629c3.112 0 5.757.287 7.935.861 2.179.575 3.962 1.449 5.351 2.622 1.388 1.173 2.405 2.657 3.052 4.452.646 1.796.969 3.938.969 6.428v9.48c0 2.824-.275 5.194-.826 7.109-.55 1.916-1.508 3.472-2.872 4.668-1.365 1.197-3.184 2.047-5.458 2.55-2.274.503-5.135.754-8.582.754h-21.042Zm28.08-17.595h-27.649c-1.245 0-2.227.275-2.945.826-.718.551-1.077 1.592-1.077 3.124v2.657c0 1.389.383 2.346 1.149 2.873.766.526 1.843.79 3.232.79h20.108c1.245 0 2.322-.096 3.232-.287.909-.192 1.652-.539 2.226-1.042.575-.503 1.006-1.209 1.293-2.118.287-.91.431-2.083.431-3.519v-3.304Zm28.583-1.077c0 2.154.467 3.65 1.4 4.488.934.838 2.502 1.257 4.704 1.257h23.915V44.539h10.413v38.206c0 4.357-1.077 7.505-3.231 9.444-2.155 1.939-5.674 2.908-10.557 2.908h-15.584v-8.761h14.65c1.484 0 2.573-.288 3.268-.862.694-.575 1.041-1.676 1.041-3.304v-3.16h-24.561c-2.921 0-5.398-.275-7.433-.825-2.035-.551-3.687-1.401-4.955-2.55-1.269-1.149-2.191-2.585-2.765-4.309-.575-1.723-.862-3.758-.862-6.104V44.539h10.557v20.252Zm48.978 18.672V45.544h10.917v37.919h-10.917Zm3.663-41.151c-1.34 0-2.286-.263-2.837-.79-.55-.526-.826-1.364-.826-2.513v-4.165c0-1.15.276-1.975.826-2.478.551-.503 1.497-.754 2.837-.754h3.519c1.389 0 2.358.251 2.909.754.55.503.826 1.328.826 2.478v4.165c0 1.149-.276 1.987-.826 2.513-.551.527-1.52.79-2.909.79h-3.519Zm55.227 41.151V61.775c0-1.628-.132-2.957-.395-3.986-.264-1.03-.718-1.844-1.365-2.442-.646-.598-1.532-1.017-2.657-1.257-1.125-.239-2.549-.359-4.273-.359h-11.634c-1.676 0-3.076.12-4.202.359-1.125.24-2.022.659-2.693 1.257-.67.598-1.137 1.412-1.4 2.442-.263 1.029-.395 2.358-.395 3.986v21.688h-10.701V61.415c0-3.112.3-5.745.898-7.899.599-2.155 1.616-3.89 3.052-5.207 1.437-1.317 3.352-2.274 5.746-2.873 2.393-.598 5.386-.897 8.977-.897h12.998c3.639 0 6.655.299 9.049.897 2.394.599 4.309 1.556 5.745 2.873 1.437 1.317 2.454 3.052 3.053 5.207.598 2.154.897 4.787.897 7.899v22.048h-10.7Zm39.858 11.634v-8.761h14.866c1.579 0 2.705-.312 3.375-.934.67-.622 1.005-1.7 1.005-3.232v-3.16h-24.417c-2.969 0-5.494-.239-7.577-.718-2.082-.479-3.77-1.233-5.063-2.262-1.292-1.029-2.226-2.37-2.801-4.022-.574-1.651-.861-3.65-.861-5.996v-5.961c0-2.968.251-5.446.754-7.433.502-1.987 1.388-3.579 2.657-4.776 1.269-1.197 2.992-2.047 5.171-2.549 2.178-.503 4.919-.754 8.223-.754h17.379c3.208 0 5.901.287 8.079.861 2.179.575 3.926 1.485 5.243 2.73 1.317 1.244 2.25 2.848 2.801 4.811.55 1.963.826 4.333.826 7.11v22.694c0 4.357-1.078 7.505-3.232 9.444-2.155 1.939-5.674 2.908-10.557 2.908H606.61Zm19.246-34.831c0-2.585-.502-4.332-1.508-5.242-1.005-.91-2.825-1.365-5.458-1.365h-16.805c-2.489 0-4.189.467-5.099 1.401-.909.933-1.364 2.693-1.364 5.278v5.099c0 1.053.107 1.915.323 2.586.215.67.574 1.208 1.077 1.615.503.407 1.161.683 1.975.826.814.144 1.843.216 3.088.216h23.771V60.266Z" style="fill:#fff;fill-rule:nonzero"/>
    <path d="M69.95 47.822s6.242 2.396 10.39 5.98c.6.518.767 1.404.371 2.091-.673 1.165-1.201 3.149 1.277 4.973 0 0 5.599 3.82 8.388 8.098.502.769.227 1.769-.528 2.292-.711.493-1.356 1.441-1.09 3.261.531 3.641 1.4 16.23-6.77 20.704 0 0 7.756-22.524-11.659-35.189l-.379-12.21Z" style="fill:url(#a);fill-rule:nonzero"/>
    <path d="M5.53 9.963c7.009.744 20.533 3.868 27.877 16.693.527.921.646 2.023.331 3.037-1.096 3.531-3.314 12.552.502 18.129l-1.931 1.744s-3.505-3.221-8.416-4.207c-.934-.188-1.533-1.099-1.3-2.023.725-2.876.618-8.548-9.894-11.511a1.65 1.65 0 0 1-1.204-1.739c.328-3.426.407-12.453-6.799-18.109-.886-.695-.286-2.133.834-2.014Z" style="fill:url(#b);fill-rule:nonzero"/>
    <path d="M54.773 4.994C50.225 8.13 42.082 15.345 41.827 26.925a3.003 3.003 0 0 0 .909 2.216c2.077 2.021 6.982 7.402 6.442 12.671l1.982.478s1.208-3.53 4.221-6.048c.573-.479.643-1.33.137-1.88-1.576-1.709-3.626-5.654 2.503-11.63.448-.436.528-1.13.178-1.648-1.508-2.236-4.942-8.423-2.098-15.015.35-.811-.601-1.576-1.328-1.075Z" style="fill:url(#c);fill-rule:nonzero"/>
    <path d="M99.437 34.857c-1.372-8.409-6.658-12.731-11.729-14.944-7.309-3.191-15.774-2.674-22.66 1.349-9.451 5.522-12.647 15.454-13.434 18.523a1.235 1.235 0 0 1-1.201.928c-18.342 0-33.211 14.869-33.211 33.21v.78c0 12.917 10.471 23.388 23.388 23.388h9.927c12.027 0 21.777-9.75 21.777-21.777V39.963a6.006 6.006 0 0 1 6.006-6.006h.407a3.252 3.252 0 0 1 3.253 3.253v6.324c0 .663.318 1.279.848 1.677 1.493 1.12 4.468 4.1 4.832 10.243a1.342 1.342 0 0 0 1.335 1.266h3.641c.71 0 1.293-.557 1.335-1.266.365-6.143 3.341-9.123 4.833-10.243.53-.398.847-1.014.847-1.677v-7.498c0-.413-.08-.804-.194-1.179Z" style="fill:url(#d);fill-rule:nonzero"/>
    <path d="M72.294 39.963c0-.896.201-1.743.553-2.507l-11.64 2.915s-8.76 27.752-27.11 27.996c0 0-11.586 1.092-10.959-13.383a33.048 33.048 0 0 0-5.936 18.939v.78c0 12.917 10.471 23.388 23.388 23.388h9.927c12.027 0 21.777-9.75 21.777-21.777V39.963Z" style="fill:#ce629d;fill-rule:nonzero"/>
    <path d="M73.734 30.522s-12.521 0-12.979 13.372v28.889c0 3.036-.792 6.024-2.346 8.632-3.481 5.841-11.502 14.549-28.27 14.21a23.278 23.278 0 0 0 10.451 2.466h9.927c12.027 0 21.777-9.75 21.777-21.777V39.963a6.007 6.007 0 0 1 6.006-6.007h.407a3.253 3.253 0 0 1 3.253 3.254v.8c0 .001.942-7.488-8.226-7.488Z" style="fill:#eacfe8;fill-rule:nonzero"/>
    <path d="M78.3 33.957h.407a3.252 3.252 0 0 1 3.253 3.253v.801s.942-7.489-8.226-7.489c0 0-12.521 0-12.979 13.372v3.439c2.246-6.118 5.883-6.124 5.883-6.124 3.35-.152 4.936 1.836 5.656 3.354v-4.6a6.006 6.006 0 0 1 6.006-6.006Zm-6.006 42.357V68.32c-.355 1.471-.912 3.257-1.766 4.838-1.962 3.633-6.932 4.285-9.59 1.125-.077-.092-.151-.199-.227-.297a16.742 16.742 0 0 1-2.302 7.429c-3.481 5.841-11.502 14.549-28.27 14.21a23.278 23.278 0 0 0 10.451 2.466h9.927c12.027 0 21.777-9.75 21.777-21.777Z" style="fill:#bf9dba;fill-rule:nonzero"/>
    <path d="M99.631 41.334s2.885.635 4.987-2.171c.491-.655.759-1.449.853-2.261.112-.973.413-2.502 1.225-3.683.338-.492-.054-1.14-.645-1.051-1.755.265-4.444 1.163-6.42 4.058v5.108Zm-17.643 0s-2.885.635-4.987-2.171c-.491-.655-.759-1.449-.853-2.261-.112-.973-.413-2.502-1.225-3.683-.338-.492.054-1.14.645-1.051 1.755.265 4.444 1.163 6.42 4.058v5.108Z" style="fill:#ce629d;fill-rule:nonzero"/>
    <path d="M82.159 36.778a2.456 2.456 0 0 1-2.456-2.456V31.24c0-.812-.165-1.613-.505-2.351-.351-.764-.946-1.747-1.949-2.837a2.082 2.082 0 0 1-.545-1.129c-.204-1.499-.455-5.185 1.409-8.005.405-.612 1.365-.305 1.367.429.001.329.008.687.025 1.065.125 2.92 1.252 5.679 3.006 8.018 1.058 1.41 2.296 3.961 2.099 8.055-.062 1.292-1.158 2.293-2.451 2.293Z" style="fill:#e3f3ff;fill-rule:nonzero"/>
    <path d="M72.294 58.665v17.42c0 2.75-.508 5.49-1.62 8.005-1.81 4.092-5.615 8.775-13.572 9.135 0 0-7.416.323-12.973-1.499-3.138-1.029-6.378-1.752-9.679-1.834-5.423-.133-12.512 1.103-18.031 7.003-1.161 1.241-.163 3.247 1.522 3.029 4.082-.526 10.181-.719 14.838 1.693.449.233.868.517 1.284.806 2.57 1.788 13.767 8.914 26.692 7.126 0 0 18.313-.563 23.939-17.441 1.95-5.85 1.841-12.226-.179-18.053-1.779-5.131-5.297-11.486-12.221-15.39Z" style="fill:url(#e);fill-rule:nonzero"/>
    <path d="M84.515 74.055c-1.779-5.131-5.297-11.486-12.221-15.39v17.42c0 2.75-.508 5.49-1.62 8.005-.057.128-.121.257-.181.386-1.837 18.328-14.84 22.987-23.224 24.065 4.006 1.091 8.623 1.68 13.486 1.008 0 0 18.313-.563 23.939-17.441 1.95-5.85 1.841-12.226-.179-18.053Zm14.922-39.198a23.549 23.549 0 0 0-.239-1.21c-.613 4.173-3.005 5.029-4.532 6.396-1.162 1.04-2.232 2.504-2.231 4.095.102.759.369 1.481.757 2.142.642 1.097 1.267 3.095 1.085 6.658.897-4.48 3.256-6.793 4.524-7.739a2.07 2.07 0 0 0 .83-1.665v-7.498c0-.413-.08-.804-.194-1.179Z" style="fill:#ce629d;fill-rule:nonzero"/>
    <path d="M85.561 40.319c.028.638.146 1.488.516 2.246.363.741 1.065 1.259 1.854 1.5l.513.157a.62.62 0 0 0 .733-.88 10.787 10.787 0 0 0-2.79-3.423c-.336-.271-.846-.032-.826.4Zm10.949 0c-.029.638-.147 1.488-.517 2.246-.362.741-1.065 1.259-1.854 1.5l-.513.157a.62.62 0 0 1-.732-.88 10.782 10.782 0 0 1 2.789-3.423c.337-.271.846-.032.827.4Z" style="fill:#fff;fill-rule:nonzero"/>
    <path d="M99.409 36.778a2.456 2.456 0 0 0 2.456-2.456V31.24c0-.812.166-1.613.505-2.351.351-.764.946-1.747 1.949-2.837.291-.316.487-.703.545-1.129.204-1.499.455-5.185-1.409-8.005-.405-.612-1.365-.305-1.367.429-.001.329-.008.687-.024 1.065-.125 2.92-1.253 5.679-3.007 8.018-1.057 1.41-2.296 3.961-2.099 8.055.062 1.292 1.158 2.293 2.451 2.293Z" style="fill:#e3f3ff;fill-rule:nonzero"/>
    <defs>
        <linearGradient id="a" x1="0" y1="0" x2="1" y2="0" gradientUnits="userSpaceOnUse" gradientTransform="rotate(56.725 -17.537 92.332) scale(18.666)">
            <stop offset="0" style="stop-color:#c5c391;stop-opacity:1"/>
            <stop offset="1" style="stop-color:#dee0b1;stop-opacity:1"/>
        </linearGradient>
        <linearGradient id="b" x1="0" y1="0" x2="1" y2="0" gradientUnits="userSpaceOnUse" gradientTransform="rotate(-116.328 28.993 12.86) scale(17.5933)">
            <stop offset="0" style="stop-color:#c5c391;stop-opacity:1"/>
            <stop offset="1" style="stop-color:#dee0b1;stop-opacity:1"/>
        </linearGradient>
        <linearGradient id="c" x1="0" y1="0" x2="1" y2="0" gradientUnits="userSpaceOnUse" gradientTransform="rotate(-88.137 44.167 -6.97) scale(20.00547)">
            <stop offset="0" style="stop-color:#c5c391;stop-opacity:1"/>
            <stop offset="1" style="stop-color:#dee0b1;stop-opacity:1"/>
        </linearGradient>
        <linearGradient id="d" x1="0" y1="0" x2="1" y2="0" gradientUnits="userSpaceOnUse" gradientTransform="rotate(90 17.134 41.283) scale(131.968)">
            <stop offset="0" style="stop-color:#ff88c5;stop-opacity:1"/>
            <stop offset="1" style="stop-color:#d569a2;stop-opacity:1"/>
        </linearGradient>
        <linearGradient id="e" x1="0" y1="0" x2="1" y2="0" gradientUnits="userSpaceOnUse" gradientTransform="rotate(-10.808 498.938 -92.075) scale(96.4131)">
            <stop offset="0" style="stop-color:#ff88c5;stop-opacity:1"/>
            <stop offset="1" style="stop-color:#d569a2;stop-opacity:1"/>
        </linearGradient>
    </defs>
</svg>
