<?xml version="1.0" encoding="UTF-8"?>
<svg width="628px" height="96px" viewBox="0 0 628 96" version="1.1" xmlns="http://www.w3.org/2000/svg" xmlns:xlink="http://www.w3.org/1999/xlink">
    <title>auto-favorites</title>
    <defs>
        <polygon id="path-1" points="0 0 627.961 0 627.961 95 0 95"></polygon>
    </defs>
    <g id="Page-1" stroke="none" stroke-width="1" fill="none" fill-rule="evenodd" opacity="0.78">
        <g id="Favorites" transform="translate(-6.000000, -12.000000)">
            <g id="auto-favorites" transform="translate(6.000000, 12.524482)">
                <mask id="mask-2" fill="white">
                    <use xlink:href="#path-1"></use>
                </mask>
                <g id="Path"></g>
                <g id="Group" mask="url(#mask-2)">
                    <g transform="translate(0.000120, 0.000000)">
                        <path d="M103.17788,24.105 C98.2438798,22.906 92.4598798,24.162 87.4688798,24.391 C80.2098798,24.734 73.2348798,22.849 65.9188798,23.705 C65.9188798,22.049 65.0688798,20.392 64.5578798,18.85 C63.5484928,15.7699026 62.394207,12.7391933 61.0988798,9.768 C59.3408798,5.712 56.3918798,2.33146835e-15 51.2878798,2.33146835e-15 C42.7248798,0.057 38.7548798,16.622 38.6418798,24.105 C33.7648798,21.592 24.9178798,22.677 20.1538798,22.849 C14.0298798,23.134 6.08987982,23.249 1.72387982,28.275 C-6.38612018,37.814 16.4118798,50.667 22.5928798,53.694 C22.7058798,53.751 22.8198798,53.751 22.9328798,53.808 C21.1188798,61.463 7.16787982,88.195 16.6378798,94.079 C26.5628798,100.305 49.8138798,72.944 49.9838798,73.058 C57.4698798,80.484 74.7098798,98.191 86.4488798,92.251 C96.3728798,87.281 79.6998798,61.063 76.5238798,55.008 C82.7058798,53.066 88.6598798,49.867 94.2748798,46.725 C99.4348798,43.812 106.69388,39.699 109.07588,33.816 C111.00388,29.132 107.77188,25.191 103.17788,24.105 Z" id="Path" fill="#EDCE04" fill-rule="nonzero"></path>
                        <path d="M33.2908798,62.622 C32.076476,63.6860008 30.6603625,64.4947226 29.1268798,65 C28.6958798,62.334 28.9118798,59.667 29.6298798,57 C31.8548798,57.793 34.2958798,58.442 36.8798798,58.946 C35.5158798,59.955 34.5108798,61.469 33.2908798,62.622 L33.2908798,62.622 Z M63.9958798,57.029 C63.9278798,56.957 63.8608798,56.885 63.7928798,56.885 C65.810476,55.8853874 67.6580996,54.574334 69.2678798,53 C69.6738798,54.439 70.6198798,55.878 71.1608798,57.317 C71.7688798,59.187 71.9038798,61.13 71.6338798,63 C68.4568798,61.993 65.9558798,59.979 63.9958798,57.029 L63.9958798,57.029 Z" id="Shape" fill="#E5E5E5" fill-rule="nonzero"></path>
                        <path d="M74.2968798,56.874 C73.8128798,54.669 72.4998798,51.184 70.1508798,50.544 C69.9438798,50.473 69.7358798,50.544 69.5288798,50.615 C69.2518798,50.117 68.6988798,49.833 68.0768798,50.117 C55.2238798,55.665 43.2688798,58.723 29.3788798,54.669 C28.4808798,54.385 27.9278798,55.167 27.9278798,55.878 C27.7898798,55.949 27.7208798,56.021 27.5828798,56.092 C25.5788798,59.15 25.6478798,63.56 26.4078798,67.045 C26.5458798,67.756 27.3058798,68.112 27.9278798,67.969 C30.1398798,67.471 32.0048798,66.333 33.8018798,64.84 C35.3908798,63.56 37.2568798,61.639 37.4648798,59.434 C37.4648798,59.363 37.4648798,59.292 37.3948798,59.292 C45.3418798,60.644 54.3258798,60.359 61.6508798,57.372 C61.6508798,57.514 61.7198798,57.657 61.7888798,57.87 C63.9308798,61.995 67.7318798,64.982 72.1548798,66.049 C72.9838798,66.262 73.7438798,65.836 74.0198798,64.982 C74.9878798,62.208 74.9188798,59.577 74.2968798,56.874 L74.2968798,56.874 Z M32.7648798,62.635 C31.6023307,63.6816766 30.2385446,64.480281 28.7568798,64.982 C28.3428798,62.351 28.5498798,59.719 29.2408798,57.087 C31.3828798,57.87 33.7328798,58.51 36.2208798,59.008 C34.9078798,60.003 33.9398798,61.497 32.7648798,62.635 L32.7648798,62.635 Z M63.8618798,56.661 C63.7928798,56.589 63.7238798,56.518 63.6548798,56.518 C65.7083909,55.5359916 67.5966348,54.2405018 69.2518798,52.678 C69.6668798,54.1 70.6338798,55.523 71.1868798,56.945 C71.8088798,58.794 71.9468798,60.715 71.6708798,62.564 C68.4228798,61.568 65.8658798,59.577 63.8618798,56.661 L63.8618798,56.661 Z M44.0978798,44.448 C40.2508798,42.478 38.0918798,39.827 35.3238798,36.418 C34.4468798,35.357 32.5568798,36.494 33.0968798,37.857 C34.2448798,41.115 36.4718798,43.842 39.1708798,45.66 C36.0668798,46.266 32.8268798,45.66 29.7898798,45.206 C29.1828798,45.13 28.5748798,45.887 29.1148798,46.493 C32.6918798,49.903 39.6438798,49.372 43.7608798,47.63 C44.7728798,47.099 45.4478798,45.13 44.0978798,44.448 L44.0978798,44.448 Z M67.6268798,41.423 C66.3478798,41.866 65.1368798,42.382 63.9918798,42.825 C65.8098798,40.907 67.2238798,38.619 67.8968798,36.037 C68.2328798,34.635 66.4158798,33.233 65.4728798,34.488 C62.3758798,38.546 59.8848798,42.456 55.0378798,44.227 C53.2868798,44.891 53.4218798,48.211 55.5088798,47.99 C60.0198798,47.473 64.9348798,46.366 68.5028798,43.046 C69.1758798,42.382 68.5028798,41.054 67.6268798,41.423 L67.6268798,41.423 Z" id="Shape" fill="#000000" fill-rule="evenodd"></path>
                        <path d="M108.35888,56.364 L108.35888,79.637 L94.6928798,79.637 L94.6928798,38.909 C94.6928798,35.031 95.0698798,31.728 95.8238798,29 C96.5778798,26.273 97.8598798,24.076 99.6698798,22.409 C101.48088,20.743 103.89388,19.531 106.91088,18.773 C109.92788,18.015 113.69888,17.637 118.22388,17.637 L132.70588,17.637 L132.70588,29.546 L118.58588,29.546 C114.78488,29.546 112.12988,30.334 110.62188,31.909 C109.11288,33.485 108.35888,36.091 108.35888,39.728 L108.35888,44.637 L160.40088,44.637 L160.40088,56.364 L108.35888,56.364 Z M184.56588,79.637 C181.00588,79.637 178.07988,79.334 175.78688,78.728 C173.49388,78.121 171.66888,77.258 170.31088,76.137 C168.95388,75.015 168.00288,73.652 167.45988,72.046 C166.91688,70.44 166.64588,68.637 166.64588,66.637 L166.64588,62 C166.64588,59.94 166.90188,58.106 167.41488,56.5 C167.912899,54.9172962 168.836576,53.502029 170.08488,52.409 C171.35188,51.288 173.08688,50.44 175.28888,49.864 C177.49188,49.288 180.28188,49 183.66088,49 L219.95488,49 L219.95488,47.909 C219.95488,44.758 219.32088,42.652 218.05388,41.591 C216.78688,40.531 214.64488,40 211.62788,40 L198.23288,40 L198.23288,30.364 L211.62788,30.364 C215.54988,30.364 218.88388,30.728 221.62888,31.455 C224.37388,32.182 226.62188,33.288 228.37188,34.773 C230.12188,36.258 231.40388,38.137 232.21788,40.409 C233.03288,42.682 233.43988,45.394 233.43988,48.546 L233.43988,60.546 C233.43988,64.121 233.09288,67.121 232.39888,69.546 C231.70488,71.97 230.49888,73.94 228.77888,75.455 C227.05888,76.97 224.76688,78.046 221.89988,78.682 C219.03388,79.318 215.42888,79.637 211.08488,79.637 L184.56588,79.637 Z M219.95488,57.364 L185.10888,57.364 C183.53988,57.364 182.30388,57.712 181.39788,58.409 C180.49288,59.106 180.04088,60.424 180.04088,62.364 L180.04088,65.728 C180.04088,67.485 180.52388,68.697 181.48888,69.364 C182.45388,70.031 183.81188,70.364 185.56188,70.364 L210.90388,70.364 C212.47288,70.364 213.82988,70.243 214.97688,70 C216.12288,69.758 217.05788,69.318 217.78188,68.682 C218.50588,68.046 219.04988,67.152 219.41188,66 C219.77388,64.849 219.95488,63.364 219.95488,61.546 L219.95488,57.364 L219.95488,57.364 Z M286.47688,76.364 C285.45188,77.758 284.25988,78.879 282.90188,79.728 C281.54488,80.576 279.65888,81 277.24588,81 C274.71088,81 272.78088,80.576 271.45288,79.728 C270.12588,78.879 268.94888,77.758 267.92288,76.364 L235.61188,30.364 L251.72288,30.364 L277.42688,68.091 L302.85888,30.364 L318.78888,30.364 L286.47688,76.364 Z M344.49288,79.637 C339.96688,79.637 336.19588,79.258 333.17888,78.5 C330.16188,77.743 327.74888,76.531 325.93888,74.864 C324.12788,73.197 322.84588,71.015 322.09188,68.318 C321.33788,65.621 320.96088,62.303 320.96088,58.364 L320.96088,51.728 C320.96088,47.788 321.33788,44.455 322.09188,41.728 C322.84588,39 324.12788,36.803 325.93888,35.137 C327.74888,33.47 330.16188,32.258 333.17888,31.5 C336.19588,30.743 339.96688,30.364 344.49288,30.364 L360.87388,30.364 C365.45988,30.364 369.26088,30.743 372.27788,31.5 C375.29488,32.258 377.70888,33.485 379.51888,35.182 C381.32888,36.879 382.61088,39.091 383.36488,41.818 C384.11988,44.546 384.49688,47.879 384.49688,51.818 L384.49688,58.364 C384.49688,62.303 384.11988,65.621 383.36488,68.318 C382.61088,71.015 381.32888,73.197 379.51888,74.864 C377.70888,76.531 375.29488,77.743 372.27788,78.5 C369.26088,79.258 365.45988,79.637 360.87388,79.637 L344.49288,79.637 Z M371.01088,52.182 C371.01088,50.121 370.84488,48.424 370.51288,47.091 C370.18188,45.758 369.57788,44.712 368.70288,43.955 C367.82788,43.197 366.60688,42.682 365.03788,42.409 C363.46888,42.137 361.47788,42 359.06388,42 L346.30288,42 C343.88888,42 341.91288,42.137 340.37488,42.409 C338.83588,42.682 337.62888,43.197 336.75388,43.955 C335.87888,44.712 335.27588,45.758 334.94388,47.091 C334.61188,48.424 334.44588,50.121 334.44588,52.182 L334.44588,58 C334.44588,60.061 334.61188,61.743 334.94388,63.046 C335.27588,64.349 335.87888,65.379 336.75388,66.137 C337.62888,66.894 338.83588,67.424 340.37488,67.728 C341.91288,68.031 343.88888,68.182 346.30288,68.182 L359.06388,68.182 C361.47788,68.182 363.46888,68.031 365.03788,67.728 C366.60688,67.424 367.82788,66.894 368.70288,66.137 C369.57788,65.379 370.18188,64.349 370.51288,63.046 C370.84488,61.743 371.01088,60.061 371.01088,58 L371.01088,52.182 L371.01088,52.182 Z M394.27188,79.637 L394.27188,51.091 C394.27188,47.394 394.69388,44.243 395.53888,41.637 C396.38288,39.031 397.72588,36.894 399.56588,35.228 C401.40688,33.561 403.77488,32.334 406.67088,31.546 C409.56688,30.758 413.09688,30.364 417.25988,30.364 L426.03988,30.364 L426.03988,41.364 L417.62188,41.364 C415.75188,41.364 414.18288,41.515 412.91588,41.818 C411.64888,42.121 410.63788,42.637 409.88388,43.364 C409.12988,44.091 408.58688,45.091 408.25488,46.364 C407.92288,47.637 407.75688,49.243 407.75688,51.182 L407.75688,79.637 L394.27188,79.637 L394.27188,79.637 Z M434.09488,79.637 L434.09488,31.637 L447.85188,31.637 L447.85188,79.637 L434.09488,79.637 Z M438.71088,27.546 C437.02088,27.546 435.82888,27.212 435.13588,26.546 C434.44188,25.879 434.09488,24.818 434.09488,23.364 L434.09488,18.091 C434.09488,16.637 434.44188,15.591 435.13588,14.955 C435.82888,14.318 437.02088,14 438.71088,14 L443.14488,14 C444.89488,14 446.11688,14.318 446.81088,14.955 C447.50488,15.591 447.85188,16.637 447.85188,18.091 L447.85188,23.364 C447.85188,24.818 447.50488,25.879 446.81088,26.546 C446.11688,27.212 444.89488,27.546 443.14488,27.546 L438.71088,27.546 Z M461.33688,79.637 L461.33688,41.364 L454.45888,41.364 L454.45888,30.364 L461.33688,30.364 L461.33688,16.455 L475.09488,16.455 L475.09488,30.364 L490.57088,30.364 L490.57088,41.364 L475.09488,41.364 L475.09488,79.637 L461.33688,79.637 Z M510.12088,60 L510.12088,62.273 C510.12088,63.788 510.24188,65 510.48288,65.909 C510.72388,66.818 511.16188,67.531 511.79488,68.046 C512.42888,68.561 513.27388,68.909 514.32888,69.091 C515.38488,69.273 516.69788,69.364 518.26688,69.364 L534.19588,69.364 L534.19588,79.637 L518.26688,79.637 C510.48288,79.637 504.93188,78.152 501.61288,75.182 C498.29488,72.212 496.63488,67.455 496.63488,60.909 L496.63488,49.546 C496.63488,45.97 496.98188,42.955 497.67588,40.5 C498.36988,38.046 499.57688,36.076 501.29588,34.591 C503.01588,33.106 505.29388,32.031 508.12988,31.364 C510.96588,30.697 514.55588,30.364 518.89988,30.364 L542.61288,30.364 C546.11288,30.364 549.02388,30.697 551.34688,31.364 C553.66988,32.031 555.50988,32.955 556.86788,34.137 C558.22488,35.318 559.17588,36.743 559.71888,38.409 C560.26188,40.076 560.53288,41.879 560.53288,43.818 L560.53288,60 L510.12088,60 L510.12088,60 Z M547.04788,44.909 C547.04788,43.273 546.64088,42.182 545.82588,41.637 C545.01088,41.091 543.57788,40.818 541.52688,40.818 L519.08088,40.818 C517.39188,40.818 515.97388,40.894 514.82688,41.046 C513.68088,41.197 512.76088,41.546 512.06688,42.091 C511.37288,42.637 510.87488,43.424 510.57288,44.455 C510.27188,45.485 510.12088,46.879 510.12088,48.637 L510.12088,51.273 L547.04788,51.273 L547.04788,44.909 L547.04788,44.909 Z M627.96088,66.546 C627.96088,68.97 627.74988,71.015 627.32788,72.682 C626.90488,74.349 626.07588,75.697 624.83888,76.728 C623.60188,77.758 621.91188,78.5 619.76988,78.955 C617.62788,79.409 614.83788,79.637 611.39888,79.637 L569.22188,79.637 L569.22188,69 L609.67888,69 C611.48888,69 612.75588,68.697 613.47988,68.091 C614.20388,67.485 614.56588,66.334 614.56588,64.637 L614.56588,63 C614.56588,61.182 614.21888,60.046 613.52488,59.591 C612.83188,59.137 611.66988,58.909 610.04088,58.909 L582.52688,58.909 C579.75088,58.909 577.50388,58.637 575.78388,58.091 C574.06388,57.546 572.72188,56.728 571.75588,55.637 C570.79088,54.546 570.14188,53.197 569.80988,51.591 C569.47888,49.985 569.31288,48.091 569.31288,45.909 L569.31288,42.182 C569.31288,40.061 569.53888,38.243 569.99088,36.728 C570.44388,35.212 571.18288,33.985 572.20888,33.046 C573.23488,32.106 574.62188,31.424 576.37188,31 C578.12188,30.576 580.32388,30.364 582.97888,30.364 L601.62388,30.364 L601.62388,40.637 L586.23688,40.637 C584.90988,40.637 583.95988,40.879 583.38688,41.364 C582.81288,41.849 582.52688,42.728 582.52688,44 L582.52688,46.273 C582.52688,47.667 582.79788,48.606 583.34088,49.091 C583.88388,49.576 584.75888,49.818 585.96588,49.818 L612.57488,49.818 C615.71288,49.818 618.27688,50.076 620.26788,50.591 C622.25888,51.106 623.82788,51.924 624.97488,53.046 C626.12088,54.167 626.90488,55.621 627.32788,57.409 C627.74988,59.197 627.96088,61.394 627.96088,64 L627.96088,66.546 L627.96088,66.546 Z" id="Shape" fill="#FFFFFF" fill-rule="nonzero"></path>
                    </g>
                </g>
            </g>
        </g>
    </g>
</svg>