<svg viewBox="0 0 200 40" xmlns="http://www.w3.org/2000/svg">
    <path d="M19.187 21.922h-1.793c.023-.255.086-.454.049-.636-.059-.317-.175-.624-.274-.932-.046-.139-.192-.294-.159-.4.057-.189.195-.368.341-.506.116-.11.291-.159.463-.242-.665-.242-.705-.288-.883-1.082-.11.216-.172.437-.314.59-.136.145-.348.218-.533.324.367.168.639.446.708.886-.02.01-.047.036-.063.03-.655-.202-1.131-.073-1.518.416-.436.553-.52 1.373-.119 1.926.189.26.152.452.019.671-.376.619-.764 1.23-1.157 1.865-.545-.308-1.061-.423-1.607-.232-.552.196-.89.596-1.102 1.188-1.22-.569-2.02-1.502-2.596-2.699.433-.463.628-1.022.605-1.653a2.887 2.887 0 0 0-.579-1.661c-.568-.754-1.273-1.187-2.262-.87a.37.37 0 0 1-.258-.033c-.235-.119-.46-.254-.738-.41.14-.35.268-.704.417-1.048.774-1.803 1.769-3.464 3.192-4.83.479-.462 1.039-.86 1.607-1.21.82-.51 1.68-.466 2.528-.006.909.496 1.65 1.187 2.304 1.974 1.853 2.22 2.994 4.776 3.56 7.598.059.304.098.604.162.982ZM11.9 19.104a3.377 3.377 0 0 0 3.357-3.368 3.377 3.377 0 0 0-3.386-3.373 3.374 3.374 0 0 0-3.358 3.363 3.376 3.376 0 0 0 3.387 3.378Z" style="fill:#ccc"/>
    <path d="M8.143 28.914c-1.24-.702-2.256-1.604-2.984-2.815a4.73 4.73 0 0 1-.694-2.683c.056-1.422.284-2.808.711-4.223.189.099.354.189.519.278-.556 1.135-.357 2.153.331 3.119a.519.519 0 0 1 .079.35c-.089.572-.37.986-1.108 1.062.725.324 1.049.85 1.231 1.525.169-.691.486-1.247 1.247-1.455-.708-.08-1.098-.447-1.194-1.184.509.406 1.035.644 1.666.542.368.728.801 1.386 1.374 1.944a5.41 5.41 0 0 0 1.663 1.132.64.64 0 0 1 .377.36c.264.589.734.93 1.38.99.218.019.36.102.496.26.413.49.919.87 1.574 1.168-1.164.503-2.316.672-3.54.582-.164-.734-.582-1.26-1.296-1.528-.718-.261-1.3-.082-1.832.576Zm-1.35-2.388c.887.03 1.115.718 1.39 1.359.138-.946.138-.946.976-1.405-.738-.143-1.059-.656-1.254-1.33-.093.701-.456 1.138-1.112 1.376Zm12.43-3.844c.261 1.518-.112 2.822-1.002 3.999a7.753 7.753 0 0 1-2.156 1.965.73.73 0 0 1-.477.089c-.708-.149-1.283-.529-1.799-1.141.096-.066.188-.112.261-.186.483-.479.651-1.054.443-1.702-.076-.238-.013-.378.112-.566.444-.668.858-1.36 1.294-2.034.06-.093.178-.162.288-.212.106-.05.258-.026.337-.096.324-.291.668-.158 1.032-.129.549.047 1.108.013 1.667.013Zm-1.508 1.598c-.526.33-1.048.519-1.614.036.367.702.106 1.294-.294 1.935.869-.466.869-.466 1.792-.165-.426-.85-.426-.85.116-1.806Zm1.72-11.798c-.936.053-.857.893-1.122 1.406-.102-.334-.162-.698-.32-1.012-.179-.348-.562-.404-.914-.427.302-.205.652-.367.9-.629.245-.258.388-.612.609-.982.059.688.182 1.304.847 1.644ZM4.822 17.874c-.565-.302-1.095-.573-1.756-.298.493-.688.079-1.168-.305-1.674.612.417 1.201.873 1.932.172-.34.642-.234 1.22.129 1.8Zm1.505-7.985c.076.559.314.989.8 1.27-.238.126-.496.209-.671.374-.172.162-.258.413-.381.628-.016-.255-.002-.513-.052-.754-.063-.294-.331-.387-.596-.459.196-.14.424-.246.57-.418.152-.178.224-.422.33-.641Zm14.748 6.803c-.622-.664-.738-.704-1.432-.4.397-.499.208-.946.016-1.422.447.367.936.48 1.582.334-.503.513-.398.992-.166 1.488Zm-16.95-4.074c-.268.314-.708.489-.576 1.018-.437-.274-.437-.274-1.181-.162.288-.386.457-.787.413-1.3.374.404.83.486 1.344.444Zm5.156 3.069c.552-.278 1.101-.562 1.66-.827a.688.688 0 0 0 .384-.42c.165-.44.347-.876.556-1.396.201.493.386.904.535 1.33.089.261.245.41.489.522.533.248 1.056.523 1.668.83-.586.15-1.076.298-1.574.391-.332.063-.494.209-.576.536a11.682 11.682 0 0 1-.569 1.66c-.149-.479-.341-.953-.44-1.445-.099-.5-.347-.738-.847-.807-.426-.06-.843-.202-1.263-.305-.007-.02-.017-.042-.023-.069Z" style="fill:#ccc"/>
    <path d="m35.571 24.291-.48 5.04c-1.28.52-2.9.78-4.86.78-2.52 0-4.325-.49-5.415-1.47-1.09-.98-1.635-2.49-1.635-4.53 0-.86.14-2.13.42-3.81.6-3.44 1.635-5.94 3.105-7.5 1.47-1.56 3.795-2.34 6.975-2.34.74 0 1.585.075 2.535.225.95.15 1.645.335 2.085.555l-1.68 4.59c-1.18-.28-2.285-.42-3.315-.42-1.03 0-1.765.1-2.205.3-.44.2-.71.6-.81 1.2l-1.38 7.86c.72.16 1.46.24 2.22.24 1.62 0 3.1-.24 4.44-.72Zm9.57-7.11-1.38 7.8h2.37c.78 0 1.36-.095 1.74-.285.38-.19.63-.625.75-1.305l1.38-7.8h-2.4c-.76 0-1.33.095-1.71.285-.38.19-.63.625-.75 1.305Zm3.45-6.72c2.54 0 4.35.495 5.43 1.485 1.08.99 1.62 2.515 1.62 4.575s-.325 4.215-.975 6.465c-.65 2.25-1.68 4-3.09 5.25s-3.47 1.875-6.18 1.875c-2.71 0-4.605-.495-5.685-1.485-1.08-.99-1.62-2.515-1.62-4.575 0-.98.14-2.275.42-3.885.28-1.61.65-3 1.11-4.17.46-1.17 1.08-2.185 1.86-3.045 1.5-1.66 3.87-2.49 7.11-2.49Zm13.38 19.2h-5.94l4.38-18.75h7.44l.54 9.54h.21l3.9-9.54h7.44l-2.22 18.75h-5.97l1.26-9.09h-.21l-3.75 9.09h-4.35l-.63-9.09h-.15Zm29.13-4.53h-3.72l-.78 4.53h-5.7l3.3-18.75h9c3.4 0 5.1 1.58 5.1 4.74 0 1.5-.21 2.855-.63 4.065-.42 1.21-.885 2.17-1.395 2.88s-1.21 1.31-2.1 1.8c-.89.49-1.915.735-3.075.735Zm-2.07-9.42-.81 4.62h1.32c.68 0 1.195-.075 1.545-.225.35-.15.575-.495.675-1.035.26-1.48.39-2.29.39-2.43 0-.38-.15-.63-.45-.75-.3-.12-.75-.18-1.35-.18Zm8.82 13.95 3.3-18.75h5.7l-3.3 18.75Zm20.64 0h-11.4l3.3-18.75h5.7l-2.46 13.95h5.7Zm4.14 0h-6l7.89-18.75h8.82l1.32 18.75h-6.03l-.12-2.97h-4.71Zm5.13-12.99-2.1 5.25h2.4v-5.25Zm22.86-.96h-4.14l-2.43 13.95h-5.7l2.43-13.95h-4.11l.87-4.8h13.95Zm-.27 13.95 3.3-18.75h5.7l-3.3 18.75Zm16.71-12.48-1.38 7.8h2.37c.78 0 1.36-.095 1.74-.285.38-.19.63-.625.75-1.305l1.38-7.8h-2.4c-.76 0-1.33.095-1.71.285-.38.19-.63.625-.75 1.305Zm3.45-6.72c2.54 0 4.35.495 5.43 1.485 1.08.99 1.62 2.515 1.62 4.575s-.325 4.215-.975 6.465c-.65 2.25-1.68 4-3.09 5.25s-3.47 1.875-6.18 1.875c-2.71 0-4.605-.495-5.685-1.485-1.08-.99-1.62-2.515-1.62-4.575 0-.98.14-2.275.42-3.885.28-1.61.65-3 1.11-4.17.46-1.17 1.08-2.185 1.86-3.045 1.5-1.66 3.87-2.49 7.11-2.49Zm18.45 19.2-3.06-6.66c-.08-.14-.12-.335-.12-.585 0-.25.02-.535.06-.855h-.24l-1.41 8.1h-5.7l3.3-18.75h5.37l3.06 6.66c.06.14.09.335.09.585 0 .25-.02.535-.06.855h.24l1.44-8.1h5.7l-3.3 18.75Z" style="fill:#fff;white-space:pre"/>
</svg>
