<?xml version="1.0" encoding="UTF-8" standalone="no"?>
<!DOCTYPE svg PUBLIC "-//W3C//DTD SVG 1.1//EN" "http://www.w3.org/Graphics/SVG/1.1/DTD/svg11.dtd">
<svg width="100%" height="100%" viewBox="0 0 641 121" version="1.1" xmlns="http://www.w3.org/2000/svg" xmlns:xlink="http://www.w3.org/1999/xlink" xml:space="preserve" xmlns:serif="http://www.serif.com/" style="fill-rule:evenodd;clip-rule:evenodd;stroke-linejoin:round;stroke-miterlimit:2;">
    <g>
        <path d="M615.715,6.997c-8.236,-3.529 -17.902,-2.191 -20.271,0.444c-3.977,4.425 -10.119,6.32 -16.935,7.44c-6.816,1.119 -13.242,1.286 -18.425,-1.634c-3.087,-1.739 -12.673,0.084 -19.348,6.061c-4.658,4.17 -5.349,42.032 -3.699,52.078c1.489,9.073 5.752,12.486 10.79,12.426c5.822,-0.068 11.077,-7.143 15.338,-13.167c4.261,-6.024 15.906,-9.711 22.722,-10.83c6.816,-1.12 19.029,-1.35 24.992,2.995c5.964,4.345 13.205,9.368 18.744,7.571c4.792,-1.554 7.74,-6.151 6.25,-15.224c-1.65,-10.046 -14.412,-45.699 -20.158,-48.16Z" style="fill:#e4eaf6;fill-rule:nonzero;"/>
        <path d="M566.407,37.096c5.643,-0.926 10.977,2.903 11.903,8.546c0.927,5.643 -2.902,10.977 -8.546,11.903c-5.643,0.927 -10.976,-2.902 -11.903,-8.545c-0.927,-5.643 2.903,-10.977 8.546,-11.904Z" style="fill:#d7deed;"/>
        <path d="M579.785,22.65c2.821,-0.464 5.488,1.451 5.951,4.272c0.464,2.822 -1.451,5.489 -4.272,5.952c-2.822,0.463 -5.489,-1.451 -5.952,-4.273c-0.463,-2.821 1.451,-5.488 4.273,-5.951Z" style="fill:#c7cfe2;"/>
        <path d="M615.715,6.997c-8.236,-3.529 -17.902,-2.191 -20.271,0.444c-3.977,4.425 -10.119,6.32 -16.935,7.439c-6.816,1.12 -13.242,1.287 -18.425,-1.633c-3.087,-1.739 -12.673,0.084 -19.348,6.061c-0.623,0.558 -1.172,1.732 -1.657,3.346c7.679,-4.988 13.485,-6.144 17.282,-6.768c1.917,-0.315 6.886,2.868 8.686,3.605c3.049,1.25 8.32,0.712 14.178,-0.25c5.858,-0.961 11.024,-2.138 13.513,-4.297c1.47,-1.274 5.16,-5.878 7.077,-6.193c3.798,-0.624 9.669,-1.384 18.539,0.886c-0.975,-1.375 -1.871,-2.311 -2.639,-2.64Z" style="fill:#d7deed;fill-rule:nonzero;"/>
        <path d="M581.603,33.726c-3.288,0.54 -6.403,-1.697 -6.943,-4.985c-0.54,-3.288 1.696,-6.404 4.985,-6.944c3.288,-0.54 6.404,1.697 6.943,4.985c0.54,3.289 -1.696,6.404 -4.985,6.944Zm-1.678,-10.224c-2.35,0.385 -3.947,2.61 -3.561,4.959c0.386,2.349 2.61,3.947 4.96,3.561c2.349,-0.386 3.946,-2.611 3.56,-4.96c-0.385,-2.349 -2.61,-3.946 -4.959,-3.56Z" style="fill:#d2fa50;fill-rule:nonzero;"/>
        <g>
            <path d="M570.679,31.145l-1.704,0.28c-0.941,0.154 -1.829,-0.484 -1.984,-1.425c-0.154,-0.941 0.483,-1.829 1.425,-1.984l1.704,-0.28c0.941,-0.154 1.829,0.484 1.984,1.425c0.154,0.941 -0.483,1.829 -1.425,1.984Z" style="fill:#d7deed;fill-rule:nonzero;"/>
            <path d="M592.832,27.507l-1.704,0.28c-0.941,0.154 -1.829,-0.483 -1.984,-1.424c-0.154,-0.941 0.484,-1.83 1.425,-1.984l1.704,-0.28c0.941,-0.155 1.829,0.483 1.984,1.424c0.154,0.941 -0.484,1.83 -1.425,1.984Z" style="fill:#d7deed;fill-rule:nonzero;"/>
            <path d="M597.08,32.06c5.643,-0.927 10.977,2.902 11.903,8.545c0.927,5.644 -2.902,10.977 -8.545,11.904c-5.643,0.926 -10.977,-2.903 -11.904,-8.546c-0.926,-5.643 2.903,-10.977 8.546,-11.903Z" style="fill:#d7deed;"/>
        </g>
        <g>
            <path d="M566.687,38.801c4.702,-0.773 9.147,2.418 9.919,7.121c0.772,4.702 -2.419,9.147 -7.121,9.919c-4.703,0.772 -9.148,-2.419 -9.92,-7.121c-0.772,-4.703 2.419,-9.147 7.122,-9.919Z" style="fill:#707487;"/>
            <path d="M597.779,36.32c3.292,-0.541 6.404,1.693 6.944,4.985c0.541,3.292 -1.693,6.403 -4.985,6.944c-3.292,0.54 -6.403,-1.694 -6.944,-4.985c-0.54,-3.292 1.694,-6.404 4.985,-6.944Z" style="fill:#707487;"/>
        </g>
        <path d="M549.976,22.294c5.643,-0.927 10.977,2.903 11.903,8.546c0.927,5.643 -2.902,10.977 -8.545,11.903c-5.643,0.927 -10.977,-2.902 -11.904,-8.546c-0.926,-5.643 2.903,-10.976 8.546,-11.903Z" style="fill:#d7deed;"/>
        <path d="M550.675,26.554c3.292,-0.54 6.404,1.693 6.944,4.985c0.541,3.292 -1.693,6.403 -4.985,6.944c-3.292,0.54 -6.403,-1.693 -6.944,-4.985c-0.54,-3.292 1.694,-6.403 4.985,-6.944Z" style="fill:#707487;"/>
        <path d="M602.218,20.716c1.881,-0.309 3.658,0.968 3.967,2.849c0.309,1.881 -0.967,3.659 -2.848,3.967c-1.881,0.309 -3.659,-0.967 -3.968,-2.848c-0.309,-1.881 0.968,-3.659 2.849,-3.968Z" style="fill:#82b9ff;"/>
        <path d="M615.85,18.478c1.881,-0.309 3.659,0.967 3.968,2.848c0.309,1.881 -0.968,3.659 -2.849,3.968c-1.881,0.309 -3.659,-0.968 -3.967,-2.849c-0.309,-1.881 0.967,-3.658 2.848,-3.967Z" style="fill:#ff6464;"/>
        <g>
            <path d="M576.044,44.02c-1.25,-3.019 -4.115,-5.076 -7.376,-5.296c-0.063,0.489 -0.082,0.989 0.002,1.501c0.464,2.823 3.129,4.736 5.952,4.273c0.511,-0.084 0.979,-0.262 1.422,-0.478Z" style="fill:#5b5d6e;fill-rule:nonzero;"/>
            <path d="M559.489,46.738c0.489,0.064 0.989,0.082 1.501,-0.002c2.823,-0.464 4.736,-3.128 4.272,-5.952c-0.084,-0.511 -0.261,-0.979 -0.477,-1.422c-3.019,1.251 -5.076,4.116 -5.296,7.376Z" style="fill:#5b5d6e;fill-rule:nonzero;"/>
            <path d="M576.682,47.904c-0.489,-0.064 -0.989,-0.082 -1.5,0.002c-2.824,0.463 -4.737,3.128 -4.273,5.952c0.084,0.511 0.261,0.979 0.477,1.422c3.02,-1.251 5.076,-4.116 5.296,-7.376Z" style="fill:#5b5d6e;fill-rule:nonzero;"/>
            <path d="M561.549,50.144c-0.511,0.084 -0.979,0.261 -1.422,0.478c1.25,3.019 4.115,5.076 7.376,5.295c0.063,-0.489 0.082,-0.988 -0.002,-1.5c-0.464,-2.823 -3.128,-4.737 -5.952,-4.273Z" style="fill:#5b5d6e;fill-rule:nonzero;"/>
        </g>
        <path d="M610.153,26.413c1.881,-0.309 3.659,0.968 3.968,2.849c0.309,1.881 -0.968,3.659 -2.849,3.967c-1.881,0.309 -3.659,-0.967 -3.967,-2.848c-0.309,-1.881 0.967,-3.659 2.848,-3.968Z" style="fill:#00dcc8;"/>
        <path d="M607.915,12.781c1.881,-0.309 3.658,0.967 3.967,2.848c0.309,1.881 -0.967,3.659 -2.848,3.968c-1.881,0.309 -3.659,-0.968 -3.968,-2.849c-0.309,-1.881 0.968,-3.659 2.849,-3.967Z" style="fill:#ffdc50;"/>
        <path d="M612.282,61.064c-6.507,-5.454 -19.606,-5.477 -26.893,-4.281c-7.286,1.197 -19.689,5.407 -24.111,12.656c-3.811,6.247 -8.54,12.538 -13.732,14.364c0.094,0.002 0.187,0.011 0.281,0.009c5.823,-0.068 11.077,-7.143 15.338,-13.167c4.261,-6.024 15.906,-9.711 22.722,-10.831c6.816,-1.119 19.029,-1.349 24.992,2.996c5.964,4.345 13.205,9.368 18.744,7.571c0.09,-0.029 0.175,-0.067 0.263,-0.098c-5.503,-0.07 -11.996,-4.519 -17.604,-9.219Z" style="fill:#707487;fill-rule:nonzero;"/>
    </g>
    <g>
        <path d="M39.969,69.975c-10.904,2.515 -38.272,14.568 -32.928,37.74c1.804,7.827 7.857,9.673 13.419,8.39c9.541,-2.2 12.059,-9.958 27.053,-13.416c14.993,-3.457 20.655,2.415 30.196,0.215c5.561,-1.282 10.195,-5.593 8.39,-13.419c-5.344,-23.172 -35.225,-22.024 -46.13,-19.51Z" style="fill:#3e3f4b;fill-rule:nonzero;"/>
        <g>
            <path d="M35.218,102.412c-4.543,6.482 -13.002,9.09 -18.893,5.824c-5.89,-3.265 -6.982,-11.167 -2.439,-17.649c4.544,-6.482 13.002,-9.09 18.893,-5.824c5.891,3.265 6.983,11.167 2.439,17.649Z" style="fill:#484858;fill-rule:nonzero;"/>
            <path d="M42.169,79.517c2.583,-0.595 5.064,-0.954 7.316,-1.098c0.791,-0.05 1.51,-0.437 1.999,-1.061c2.859,-3.642 6.785,-6.769 10.113,-7.965c-8.412,-1.359 -16.845,-0.52 -21.628,0.582c-4.783,1.103 -12.731,4.042 -19.699,8.948c3.516,-0.383 8.414,0.71 12.579,2.732c0.714,0.346 1.529,0.379 2.263,0.078c2.087,-0.856 4.475,-1.621 7.057,-2.216Z" style="fill:#444452;fill-rule:nonzero;"/>
        </g>
        <path d="M33.472,101.477c-3.619,5.129 -10.545,7.06 -15.471,4.311c-4.926,-2.75 -5.987,-9.136 -2.368,-14.266c3.618,-5.13 10.545,-7.06 15.471,-4.311c4.926,2.749 5.986,9.136 2.368,14.266Z" style="fill:#515262;fill-rule:nonzero;"/>
        <path d="M58.445,97.056c6.923,3.838 15.669,2.478 19.535,-3.037c3.866,-5.515 1.387,-13.098 -5.536,-16.935c-6.923,-3.838 -15.669,-2.479 -19.535,3.037c-3.866,5.515 -1.388,13.097 5.536,16.935Z" style="fill:#484858;fill-rule:nonzero;"/>
        <path d="M59.605,95.451c5.499,3.027 12.572,1.729 15.796,-2.9c3.226,-4.628 1.382,-10.835 -4.117,-13.862c-5.5,-3.027 -12.572,-1.729 -15.797,2.9c-3.225,4.628 -1.381,10.834 4.118,13.862Z" style="fill:#515262;fill-rule:nonzero;"/>
        <g>
            <path d="M22.666,88.321c4.514,-1.041 9.024,1.779 10.065,6.292c1.04,4.514 -1.779,9.024 -6.293,10.065c-4.514,1.041 -9.024,-1.779 -10.064,-6.293c-1.041,-4.514 1.778,-9.023 6.292,-10.064Z" style="fill:#505050;"/>
            <path d="M62.197,91.432c1.735,-0.4 3.469,0.684 3.869,2.419c0.4,1.735 -0.684,3.469 -2.419,3.869c-1.735,0.4 -3.468,-0.684 -3.868,-2.419c-0.4,-1.735 0.683,-3.468 2.418,-3.869Z" style="fill:#383843;"/>
            <path d="M56.422,86.749c1.388,-0.32 2.774,0.547 3.094,1.935c0.32,1.388 -0.547,2.775 -1.935,3.095c-1.388,0.32 -2.774,-0.547 -3.094,-1.935c-0.321,-1.388 0.547,-2.774 1.935,-3.095Z" style="fill:#7f7f7f;"/>
        </g>
        <g>
            <path d="M67.751,86.037c1.735,-0.4 3.468,0.684 3.868,2.419c0.4,1.735 -0.683,3.468 -2.419,3.869c-1.735,0.4 -3.468,-0.684 -3.868,-2.419c-0.4,-1.735 0.684,-3.469 2.419,-3.869Z" style="fill:#383843;"/>
            <path d="M61.431,81.914c1.388,-0.32 2.775,0.547 3.095,1.935c0.32,1.388 -0.547,2.775 -1.935,3.095c-1.388,0.32 -2.775,-0.547 -3.095,-1.935c-0.32,-1.388 0.547,-2.775 1.935,-3.095Z" style="fill:#7f7f7f;"/>
        </g>
        <g>
            <path d="M73.304,80.642c1.735,-0.4 3.468,0.684 3.868,2.419c0.4,1.735 -0.683,3.468 -2.418,3.868c-1.735,0.401 -3.469,-0.683 -3.869,-2.418c-0.4,-1.735 0.684,-3.469 2.419,-3.869Z" style="fill:#383843;"/>
            <path d="M66.44,77.079c1.388,-0.321 2.775,0.547 3.095,1.935c0.32,1.388 -0.547,2.774 -1.935,3.094c-1.388,0.32 -2.775,-0.547 -3.095,-1.935c-0.32,-1.388 0.547,-2.774 1.935,-3.094Z" style="fill:#7f7f7f;"/>
        </g>
        <path d="M32.731,94.613c-0.164,-0.707 -0.42,-1.367 -0.74,-1.982l-4.503,1.038c-0.752,0.174 -1.504,-0.296 -1.677,-1.049l-1.038,-4.503c-0.694,-0.018 -1.4,0.041 -2.107,0.204c-0.707,0.163 -1.367,0.42 -1.983,0.739l1.039,4.503c0.173,0.753 -0.296,1.504 -1.049,1.678l-4.503,1.038c-0.018,0.693 0.04,1.399 0.204,2.106c0.163,0.707 0.419,1.367 0.739,1.983l4.503,-1.038c0.753,-0.174 1.504,0.296 1.677,1.048l1.039,4.503c0.693,0.018 1.399,-0.04 2.106,-0.203c0.707,-0.163 1.367,-0.42 1.983,-0.74l-1.039,-4.502c-0.173,-0.753 0.296,-1.504 1.049,-1.678l4.503,-1.038c0.018,-0.694 -0.04,-1.399 -0.203,-2.107Z" style="fill:#5c5c5c;fill-rule:nonzero;"/>
        <path d="M24.238,95.136c0.752,-0.173 1.504,0.297 1.677,1.049c0.174,0.752 -0.296,1.504 -1.049,1.677c-0.752,0.174 -1.504,-0.296 -1.677,-1.048c-0.174,-0.753 0.296,-1.504 1.049,-1.678Z" style="fill:#505050;"/>
        <g>
            <path d="M42.172,92.734c-0.304,-0.19 -0.535,-0.496 -0.622,-0.872c-0.173,-0.753 0.296,-1.504 1.049,-1.677l3.855,-0.889c0.753,-0.174 1.504,0.295 1.678,1.048c0.173,0.753 -0.296,1.504 -1.049,1.677l-3.855,0.889c-0.377,0.087 -0.753,0.013 -1.056,-0.176Z" style="fill:#6262a5;fill-rule:nonzero;"/>
        </g>
    </g>
    <g>
        <path d="M86.324,18.743l-54.619,-8.697c-10.739,-1.71 -21.29,5.225 -23.197,15.931c-1.942,10.908 5.444,21.242 16.338,22.977c5.289,0.842 10.41,-0.513 14.466,-3.374c0.707,-0.499 1.562,-0.741 2.416,-0.605l23.577,3.755c0.852,0.135 1.587,0.629 2.103,1.321c3.355,4.502 8.605,7.597 14.827,7.928c9.136,0.484 17.599,-5.611 20.015,-14.436c3.165,-11.556 -4.426,-22.969 -15.926,-24.8Z" style="fill:#e4eaf6;fill-rule:nonzero;"/>
        <path d="M85.806,21.994c8.972,1.428 15.095,9.872 13.667,18.843c-1.429,8.971 -9.872,15.095 -18.843,13.666c-8.971,-1.428 -15.095,-9.871 -13.667,-18.843c1.429,-8.971 9.872,-15.095 18.843,-13.666Z" style="fill:#707487;"/>
        <path d="M29.635,18.883c5.831,0.928 9.811,6.417 8.883,12.248c-0.929,5.831 -6.417,9.811 -12.248,8.883c-5.831,-0.929 -9.812,-6.417 -8.883,-12.248c0.928,-5.831 6.416,-9.812 12.248,-8.883Z" style="fill:#d7deed;"/>
        <path d="M34.789,27.725l-2.743,-0.437c-0.505,-0.081 -0.849,-0.555 -0.768,-1.06l0.436,-2.743c0.081,-0.505 -0.263,-0.98 -0.769,-1.06l-3.657,-0.583c-0.505,-0.08 -0.979,0.264 -1.06,0.769l-0.436,2.743c-0.081,0.505 -0.555,0.85 -1.06,0.769l-2.743,-0.437c-0.505,-0.08 -0.98,0.264 -1.06,0.769l-0.583,3.657c-0.08,0.505 0.264,0.98 0.769,1.061l2.743,0.436c0.505,0.081 0.85,0.555 0.769,1.06l-0.437,2.743c-0.08,0.505 0.264,0.98 0.769,1.06l3.657,0.583c0.505,0.08 0.98,-0.264 1.06,-0.769l0.437,-2.743c0.081,-0.505 0.555,-0.849 1.06,-0.769l2.743,0.437c0.505,0.08 0.98,-0.264 1.06,-0.769l0.583,-3.657c0.08,-0.505 -0.265,-0.98 -0.77,-1.06Z" style="fill:#707487;fill-rule:nonzero;"/>
        <path d="M28.211,27.823c0.897,0.143 1.51,0.987 1.367,1.884c-0.143,0.897 -0.987,1.51 -1.885,1.367c-0.897,-0.143 -1.509,-0.987 -1.366,-1.884c0.143,-0.898 0.987,-1.51 1.884,-1.367Z" style="fill:#5b5d6e;"/>
        <g>
            <path d="M46.424,39.057c-0.597,-0.096 -1.118,-0.515 -1.313,-1.131c-0.274,-0.867 0.207,-1.791 1.074,-2.065l3.51,-1.108c0.867,-0.273 1.792,0.207 2.065,1.075c0.274,0.867 -0.207,1.791 -1.074,2.065l-3.51,1.108c-0.251,0.079 -0.508,0.094 -0.752,0.056Z" style="fill:#707487;fill-rule:nonzero;"/>
            <path d="M56.176,40.61c-0.596,-0.096 -1.117,-0.515 -1.312,-1.131c-0.274,-0.867 0.207,-1.791 1.074,-2.065l3.51,-1.108c0.865,-0.273 1.79,0.207 2.065,1.075c0.274,0.867 -0.207,1.791 -1.074,2.065l-3.51,1.108c-0.252,0.079 -0.508,0.094 -0.753,0.056Z" style="fill:#707487;fill-rule:nonzero;"/>
        </g>
        <g>
            <path d="M62.827,25.002l-14.629,-2.33c-1.346,-0.214 -2.264,-1.48 -2.05,-2.826c0.215,-1.347 1.48,-2.264 2.827,-2.05l14.629,2.329c1.346,0.215 2.264,1.48 2.05,2.827c-0.215,1.346 -1.48,2.264 -2.827,2.05Z" style="fill:#d7deed;fill-rule:nonzero;"/>
            <path d="M73.697,40.483c-0.954,-0.152 -1.832,-0.72 -2.345,-1.625c-0.899,-1.581 -0.346,-3.59 1.236,-4.488l9.162,-5.208c1.579,-0.9 3.591,-0.346 4.488,1.235c0.899,1.581 0.346,3.59 -1.236,4.488l-9.162,5.208c-0.675,0.385 -1.43,0.503 -2.143,0.39Z" style="fill:#d7deed;fill-rule:nonzero;"/>
            <path d="M82.544,47.725c-0.954,-0.152 -1.832,-0.72 -2.345,-1.624c-0.899,-1.582 -0.347,-3.591 1.235,-4.489l9.163,-5.207c1.577,-0.901 3.592,-0.345 4.488,1.234c0.898,1.581 0.346,3.591 -1.236,4.488l-9.163,5.208c-0.674,0.385 -1.429,0.503 -2.142,0.39Z" style="fill:#d7deed;fill-rule:nonzero;"/>
        </g>
        <path d="M74.731,33.981c1.794,0.285 3.019,1.974 2.733,3.768c-0.285,1.794 -1.974,3.019 -3.768,2.733c-1.794,-0.285 -3.019,-1.974 -2.733,-3.768c0.285,-1.794 1.974,-3.019 3.768,-2.733Z" style="fill:#00dcc8;"/>
        <path d="M83.894,28.773c1.794,0.286 3.019,1.974 2.733,3.768c-0.286,1.795 -1.974,3.019 -3.769,2.734c-1.794,-0.286 -3.018,-1.975 -2.733,-3.769c0.286,-1.794 1.975,-3.019 3.769,-2.733Z" style="fill:#82b9ff;"/>
        <path d="M92.741,36.015c1.794,0.286 3.019,1.974 2.733,3.768c-0.286,1.795 -1.974,3.019 -3.769,2.734c-1.794,-0.286 -3.019,-1.975 -2.733,-3.769c0.286,-1.794 1.974,-3.019 3.769,-2.733Z" style="fill:#ff6464;"/>
        <path d="M83.578,41.223c1.794,0.285 3.019,1.974 2.733,3.768c-0.286,1.795 -1.974,3.019 -3.768,2.734c-1.795,-0.286 -3.019,-1.975 -2.734,-3.769c0.286,-1.794 1.975,-3.019 3.769,-2.733Z" style="fill:#ffcd46;"/>
    </g>
    <g>
        <g>
            <path d="M127.435,79.324l-43.25,0l-8.888,14.386l-16.035,0l36.285,-57.727c1.1,-1.772 2.413,-3.238 3.941,-4.399c1.527,-1.16 3.726,-1.741 6.597,-1.741c2.81,0 4.979,0.581 6.506,1.741c1.527,1.161 2.84,2.627 3.94,4.399l36.102,57.727l-16.127,0l-9.071,-14.386Zm-36.744,-10.721l30.238,0l-15.119,-24.649l-15.119,24.649Z" style="fill:#fff;fill-rule:nonzero;"/>
            <rect x="158.773" y="28.011" width="13.928" height="65.699" style="fill:#fff;fill-rule:nonzero;"/>
            <rect x="183.513" y="28.011" width="13.928" height="65.699" style="fill:#fff;fill-rule:nonzero;"/>
            <path d="M267.997,93.71c-4.582,0 -8.4,-0.382 -11.454,-1.145c-3.054,-0.764 -5.498,-1.986 -7.331,-3.666c-1.832,-1.679 -3.13,-3.879 -3.894,-6.597c-0.764,-2.718 -1.145,-6.063 -1.145,-10.034l-0,-19.609c-0,-3.909 0.381,-7.238 1.145,-9.987c0.764,-2.749 2.062,-4.964 3.894,-6.644c1.833,-1.68 4.277,-2.901 7.331,-3.665c3.054,-0.763 6.872,-1.145 11.454,-1.145l16.31,-0l0,12.003l-15.669,0c-2.077,0 -3.803,0.168 -5.177,0.504c-1.374,0.336 -2.459,0.901 -3.253,1.696c-0.794,0.794 -1.359,1.832 -1.695,3.115c-0.336,1.283 -0.504,2.871 -0.504,4.765l-0,18.418c-0,2.077 0.168,3.772 0.504,5.085c0.336,1.314 0.916,2.337 1.741,3.07c0.825,0.733 1.924,1.237 3.299,1.512c1.374,0.275 3.069,0.412 5.085,0.412l23.549,0c1.955,0 3.604,-0.137 4.948,-0.412c1.344,-0.275 2.429,-0.794 3.253,-1.558c0.825,-0.764 1.421,-1.848 1.787,-3.253c0.367,-1.405 0.55,-3.207 0.55,-5.406l-0,-14.478l13.928,0l-0,15.577c-0,3.971 -0.382,7.316 -1.146,10.034c-0.763,2.718 -2.061,4.918 -3.894,6.597c-1.833,1.68 -4.291,2.902 -7.376,3.666c-3.085,0.763 -6.949,1.145 -11.592,1.145l-24.648,0Z" style="fill:#fff;fill-rule:nonzero;"/>
            <path d="M341.943,93.71c-3.604,0 -6.567,-0.305 -8.888,-0.916c-2.322,-0.611 -4.17,-1.482 -5.544,-2.612c-1.374,-1.13 -2.337,-2.504 -2.886,-4.123c-0.55,-1.619 -0.825,-3.436 -0.825,-5.452l-0,-4.673c-0,-2.077 0.26,-3.925 0.779,-5.544c0.519,-1.619 1.42,-2.993 2.703,-4.123c1.283,-1.131 3.039,-1.986 5.269,-2.566c2.229,-0.58 5.055,-0.871 8.476,-0.871l36.744,0l-0,-1.099c-0,-3.177 -0.642,-5.299 -1.925,-6.368c-1.283,-1.07 -3.451,-1.604 -6.505,-1.604l-13.562,-0l0,-9.713l13.562,0c3.97,0 7.345,0.367 10.125,1.1c2.779,0.733 5.055,1.848 6.826,3.344c1.772,1.497 3.07,3.391 3.895,5.681c0.824,2.291 1.237,5.025 1.237,8.201l-0,12.096c-0,3.604 -0.352,6.628 -1.054,9.071c-0.703,2.444 -1.924,4.429 -3.665,5.956c-1.741,1.527 -4.063,2.612 -6.964,3.253c-2.902,0.641 -6.552,0.962 -10.95,0.962l-26.848,0Zm35.828,-22.45l-35.278,0c-1.589,0 -2.841,0.352 -3.757,1.054c-0.917,0.703 -1.375,2.031 -1.375,3.986l0,3.391c0,1.771 0.489,2.993 1.466,3.665c0.978,0.672 2.352,1.008 4.124,1.008l25.656,-0c1.589,-0 2.963,-0.122 4.124,-0.367c1.161,-0.244 2.107,-0.687 2.84,-1.328c0.733,-0.642 1.283,-1.543 1.65,-2.704c0.366,-1.16 0.55,-2.657 0.55,-4.489l-0,-4.216Z" style="fill:#fff;fill-rule:nonzero;"/>
            <path d="M479.847,93.71l0,-29.872c0,-3.115 -0.595,-5.238 -1.786,-6.368c-1.192,-1.13 -3.101,-1.695 -5.727,-1.695l-8.889,-0c-2.015,-0 -3.68,0.137 -4.993,0.412c-1.314,0.275 -2.352,0.733 -3.116,1.375c-0.763,0.641 -1.298,1.466 -1.603,2.474c-0.306,1.008 -0.459,2.275 -0.459,3.802l0,29.872l-12.003,0l-0,-29.872c-0,-1.527 -0.138,-2.794 -0.413,-3.802c-0.274,-1.008 -0.794,-1.833 -1.557,-2.474c-0.764,-0.642 -1.818,-1.1 -3.162,-1.375c-1.343,-0.275 -3.054,-0.412 -5.131,-0.412l-8.705,-0c-2.749,-0 -4.688,0.565 -5.818,1.695c-1.13,1.13 -1.696,3.253 -1.696,6.368l0,29.872l-13.286,0l-0,-31.888c-0,-3.054 0.305,-5.696 0.916,-7.926c0.611,-2.229 1.619,-4.077 3.024,-5.543c1.405,-1.466 3.238,-2.551 5.498,-3.253c2.26,-0.703 5.04,-1.054 8.338,-1.054l12.004,0c2.505,0 4.658,0.183 6.46,0.55c1.802,0.366 3.329,0.901 4.582,1.603c1.252,0.703 2.26,1.604 3.023,2.704c0.764,1.099 1.39,2.382 1.879,3.848c0.855,-2.932 2.489,-5.116 4.902,-6.552c2.413,-1.435 6.063,-2.153 10.95,-2.153l12.37,0c3.299,0 6.078,0.351 8.339,1.054c2.26,0.702 4.092,1.787 5.497,3.253c1.405,1.466 2.413,3.314 3.024,5.543c0.611,2.23 0.916,4.872 0.916,7.926l0,31.888l-13.378,0Z" style="fill:#fff;fill-rule:nonzero;"/>
            <path d="M516.958,73.918l-0,2.291c-0,1.527 0.122,2.748 0.366,3.665c0.245,0.916 0.688,1.634 1.329,2.153c0.641,0.519 1.497,0.871 2.566,1.054c1.069,0.183 2.397,0.275 3.986,0.275l16.127,-0l-0,10.354l-16.127,0c-7.881,0 -13.501,-1.497 -16.86,-4.49c-3.36,-2.993 -5.04,-7.788 -5.04,-14.386l-0,-11.454c-0,-3.604 0.351,-6.643 1.054,-9.117c0.702,-2.474 1.924,-4.459 3.665,-5.956c1.741,-1.497 4.047,-2.581 6.918,-3.253c2.871,-0.672 6.506,-1.008 10.904,-1.008l24.007,0c3.543,0 6.491,0.336 8.843,1.008c2.352,0.672 4.215,1.604 5.589,2.795c1.375,1.191 2.337,2.627 2.887,4.306c0.549,1.68 0.824,3.498 0.824,5.452l0,16.311l-51.038,-0Zm37.385,-15.211c0,-1.649 -0.412,-2.749 -1.237,-3.299c-0.824,-0.549 -2.275,-0.824 -4.352,-0.824l-22.725,-0c-1.71,-0 -3.146,0.076 -4.306,0.229c-1.161,0.152 -2.093,0.504 -2.795,1.053c-0.703,0.55 -1.207,1.344 -1.512,2.383c-0.305,1.038 -0.458,2.443 -0.458,4.215l-0,2.657l37.385,0l0,-6.414Z" style="fill:#fff;fill-rule:nonzero;"/>
            <path d="M636.261,80.515c0,2.444 -0.213,4.505 -0.641,6.185c-0.428,1.68 -1.268,3.039 -2.52,4.078c-1.252,1.038 -2.963,1.787 -5.131,2.245c-2.169,0.458 -4.994,0.687 -8.476,0.687l-42.7,0l-0,-10.721l40.959,0c1.833,0 3.115,-0.305 3.848,-0.916c0.733,-0.611 1.1,-1.772 1.1,-3.482l-0,-1.649c-0,-1.833 -0.351,-2.978 -1.054,-3.437c-0.702,-0.458 -1.878,-0.687 -3.528,-0.687l-27.855,0c-2.81,0 -5.086,-0.275 -6.827,-0.824c-1.741,-0.55 -3.1,-1.375 -4.077,-2.475c-0.978,-1.099 -1.635,-2.458 -1.971,-4.077c-0.335,-1.619 -0.503,-3.528 -0.503,-5.727l-0,-3.757c-0,-2.138 0.229,-3.971 0.687,-5.498c0.458,-1.527 1.206,-2.764 2.245,-3.711c1.038,-0.947 2.443,-1.634 4.215,-2.061c1.771,-0.428 4.001,-0.642 6.689,-0.642l18.876,0l-0,10.354l-15.578,0c-1.343,0 -2.306,0.245 -2.886,0.733c-0.58,0.489 -0.87,1.375 -0.87,2.658l-0,2.291c-0,1.405 0.275,2.351 0.824,2.84c0.55,0.489 1.436,0.733 2.658,0.733l26.939,0c3.177,0 5.773,0.26 7.789,0.779c2.016,0.519 3.604,1.344 4.765,2.474c1.16,1.13 1.954,2.596 2.382,4.398c0.428,1.802 0.641,4.017 0.641,6.644l0,2.565Z" style="fill:#fff;fill-rule:nonzero;"/>
        </g>
    </g>
</svg>
