<svg viewBox="0 0 639 118" xmlns="http://www.w3.org/2000/svg" xml:space="preserve" style="fill-rule:evenodd;clip-rule:evenodd;stroke-linejoin:round;stroke-miterlimit:2">
    <path d="M615.678 6.096c-8.236-3.529-17.903-2.191-20.271.444-3.977 4.425-10.119 6.321-16.935 7.44-6.816 1.119-13.242 1.287-18.425-1.634-3.087-1.739-12.674.085-19.349 6.061-4.657 4.171-5.348 42.032-3.698 52.078 1.489 9.073 5.752 12.486 10.79 12.427 5.822-.069 11.077-7.144 15.338-13.168 4.261-6.024 15.906-9.711 22.722-10.83 6.816-1.119 19.029-1.35 24.992 2.995 5.964 4.346 13.205 9.369 18.744 7.572 4.792-1.555 7.74-6.152 6.25-15.225-1.65-10.046-14.412-45.698-20.158-48.16Z" style="fill:#e4eaf6;fill-rule:nonzero"/>
    <path d="M566.37 36.196c5.643-.927 10.976 2.902 11.903 8.545.927 5.643-2.903 10.977-8.546 11.904-5.643.926-10.976-2.903-11.903-8.546-.927-5.643 2.903-10.977 8.546-11.903Z" style="fill:#d7deed"/>
    <path d="M579.748 21.749a5.183 5.183 0 0 1 5.951 4.273 5.182 5.182 0 0 1-4.273 5.951 5.182 5.182 0 0 1-5.951-4.272 5.182 5.182 0 0 1 4.273-5.952Z" style="fill:#c7cfe2"/>
    <path d="M615.678 6.096c-8.236-3.529-17.903-2.191-20.271.444-3.977 4.425-10.119 6.321-16.935 7.44-6.816 1.119-13.242 1.287-18.425-1.634-3.087-1.739-12.674.085-19.349 6.061-.622.558-1.172 1.732-1.656 3.346 7.679-4.987 13.485-6.144 17.282-6.767 1.917-.315 6.885 2.867 8.686 3.605 3.049 1.249 8.32.712 14.178-.25 5.858-.962 11.024-2.139 13.513-4.297 1.47-1.275 5.16-5.879 7.077-6.194 3.798-.623 9.669-1.384 18.539.886-.975-1.375-1.871-2.311-2.639-2.64Z" style="fill:#d7deed;fill-rule:nonzero"/>
    <path d="M581.566 32.825a6.051 6.051 0 0 1-6.943-4.985 6.05 6.05 0 0 1 4.985-6.943 6.05 6.05 0 0 1 6.943 4.985 6.05 6.05 0 0 1-4.985 6.943Zm-1.678-10.224a4.322 4.322 0 0 0-3.561 4.96 4.321 4.321 0 0 0 4.96 3.56 4.322 4.322 0 0 0 3.56-4.959 4.321 4.321 0 0 0-4.959-3.561Z" style="fill:#d2fa50;fill-rule:nonzero"/>
    <path d="m570.642 30.244-1.704.28a1.728 1.728 0 0 1-.56-3.409l1.705-.279a1.727 1.727 0 1 1 .559 3.408Zm22.153-3.638-1.704.28a1.727 1.727 0 1 1-.559-3.408l1.704-.28a1.728 1.728 0 0 1 .559 3.408Z" style="fill:#d7deed;fill-rule:nonzero"/>
    <path d="M597.043 31.159c5.643-.927 10.977 2.903 11.903 8.546.927 5.643-2.902 10.977-8.545 11.903-5.643.927-10.977-2.902-11.904-8.546-.926-5.643 2.903-10.976 8.546-11.903Z" style="fill:#d7deed"/>
    <path d="M566.649 37.9c4.703-.772 9.148 2.419 9.92 7.121.772 4.703-2.419 9.147-7.121 9.92-4.703.772-9.148-2.419-9.92-7.122-.772-4.702 2.419-9.147 7.121-9.919Zm31.093-2.481a6.047 6.047 0 0 1 6.944 4.985 6.047 6.047 0 0 1-4.985 6.944 6.048 6.048 0 0 1-6.944-4.985 6.049 6.049 0 0 1 4.985-6.944Z" style="fill:#707487"/>
    <path d="M549.939 21.393c5.643-.926 10.977 2.903 11.903 8.546.927 5.643-2.902 10.977-8.545 11.903-5.643.927-10.977-2.902-11.904-8.545-.926-5.643 2.903-10.977 8.546-11.904Z" style="fill:#d7deed"/>
    <path d="M550.638 25.654a6.047 6.047 0 0 1 6.944 4.985 6.046 6.046 0 0 1-4.985 6.943 6.047 6.047 0 0 1-6.944-4.985 6.047 6.047 0 0 1 4.985-6.943Z" style="fill:#707487"/>
    <path d="M602.18 19.815a3.455 3.455 0 0 1 1.12 6.817 3.455 3.455 0 0 1-1.12-6.817Z" style="fill:#82b9ff"/>
    <path d="M615.813 17.577a3.455 3.455 0 0 1 3.968 2.848 3.455 3.455 0 0 1-6.817 1.12 3.457 3.457 0 0 1 2.849-3.968Z" style="fill:#ff6464"/>
    <path d="M576.007 43.119a8.618 8.618 0 0 0-7.376-5.295 5.13 5.13 0 0 0 .002 1.5 5.182 5.182 0 0 0 5.952 4.273 5.138 5.138 0 0 0 1.422-.478Zm-16.555 2.719a5.13 5.13 0 0 0 1.5-.003 5.18 5.18 0 0 0 4.273-5.951 5.132 5.132 0 0 0-.477-1.423 8.622 8.622 0 0 0-5.296 7.377Zm17.193 1.165a5.13 5.13 0 0 0-1.5.002 5.18 5.18 0 0 0-4.273 5.952c.084.511.261.979.477 1.422a8.621 8.621 0 0 0 5.296-7.376Zm-15.133 2.24a5.105 5.105 0 0 0-1.422.478 8.62 8.62 0 0 0 7.376 5.296 5.137 5.137 0 0 0-.002-1.501 5.182 5.182 0 0 0-5.952-4.273Z" style="fill:#5b5d6e;fill-rule:nonzero"/>
    <path d="M610.116 25.512a3.457 3.457 0 0 1 3.968 2.849 3.456 3.456 0 0 1-2.849 3.968 3.456 3.456 0 0 1-3.968-2.849 3.457 3.457 0 0 1 2.849-3.968Z" style="fill:#00dcc8"/>
    <path d="M607.877 11.88a3.455 3.455 0 0 1 3.968 2.848 3.455 3.455 0 0 1-2.848 3.968 3.455 3.455 0 0 1-3.968-2.848 3.455 3.455 0 0 1 2.848-3.968Z" style="fill:#ffdc50"/>
    <path d="M612.245 60.163c-6.507-5.453-19.606-5.477-26.893-4.281-7.286 1.197-19.69 5.408-24.111 12.656-3.811 6.247-8.54 12.538-13.732 14.365.094.001.187.01.281.009 5.822-.069 11.077-7.144 15.338-13.168 4.261-6.024 15.906-9.711 22.722-10.83 6.816-1.12 19.029-1.35 24.992 2.995 5.964 4.346 13.205 9.368 18.744 7.572.09-.03.174-.067.263-.099-5.503-.07-11.996-4.519-17.604-9.219Z" style="fill:#707487;fill-rule:nonzero"/>
    <path d="M39.932 69.075C29.027 71.589 1.66 83.642 7.004 106.814c1.804 7.827 7.857 9.673 13.419 8.39 9.541-2.2 12.059-9.958 27.053-13.416 14.993-3.457 20.655 2.415 30.196.215 5.561-1.282 10.194-5.592 8.39-13.419-5.344-23.172-35.225-22.024-46.13-19.509Z" style="fill:#3e3f4b;fill-rule:nonzero"/>
    <path d="M35.181 101.511c-4.544 6.483-13.002 9.09-18.893 5.824-5.89-3.265-6.983-11.167-2.439-17.649 4.544-6.482 13.002-9.09 18.893-5.824 5.89 3.265 6.983 11.167 2.439 17.649Z" style="fill:#484858;fill-rule:nonzero"/>
    <path d="M42.132 78.616c2.582-.595 5.064-.954 7.316-1.097a2.76 2.76 0 0 0 1.999-1.061c2.859-3.643 6.784-6.77 10.113-7.965-8.412-1.36-16.845-.521-21.628.582-4.783 1.103-12.731 4.041-19.699 8.947 3.516-.383 8.414.71 12.579 2.732.714.347 1.529.38 2.263.079 2.087-.857 4.475-1.621 7.057-2.217Z" style="fill:#444452;fill-rule:nonzero"/>
    <path d="M33.435 100.576c-3.619 5.13-10.545 7.06-15.471 4.311-4.927-2.749-5.987-9.136-2.369-14.266 3.619-5.129 10.545-7.06 15.472-4.311 4.926 2.75 5.986 9.136 2.368 14.266Z" style="fill:#515262;fill-rule:nonzero"/>
    <path d="M58.407 96.156c6.924 3.838 15.67 2.478 19.536-3.038 3.866-5.515 1.387-13.097-5.536-16.935-6.923-3.838-15.67-2.478-19.535 3.037-3.866 5.515-1.388 13.098 5.535 16.936Z" style="fill:#484858;fill-rule:nonzero"/>
    <path d="M59.568 94.55c5.499 3.027 12.572 1.729 15.796-2.899 3.225-4.629 1.382-10.835-4.118-13.863-5.499-3.027-12.571-1.729-15.796 2.9-3.225 4.628-1.381 10.835 4.118 13.862Z" style="fill:#515262;fill-rule:nonzero"/>
    <path d="M22.629 87.42c4.514-1.041 9.024 1.779 10.064 6.293 1.041 4.513-1.778 9.023-6.292 10.064-4.514 1.041-9.024-1.779-10.065-6.293-1.04-4.513 1.779-9.023 6.293-10.064Z" style="fill:#505050"/>
    <path d="M62.16 90.532a3.228 3.228 0 0 1 3.869 2.418 3.228 3.228 0 0 1-2.419 3.869 3.226 3.226 0 0 1-1.45-6.287Z" style="fill:#383843"/>
    <path d="M56.384 85.849a2.582 2.582 0 0 1 3.095 1.935 2.583 2.583 0 0 1-1.935 3.095 2.583 2.583 0 0 1-3.095-1.935 2.582 2.582 0 0 1 1.935-3.095Z" style="fill:#7f7f7f"/>
    <path d="M67.714 85.137a3.226 3.226 0 1 1 1.45 6.287 3.226 3.226 0 0 1-1.45-6.287Z" style="fill:#383843"/>
    <path d="M61.394 81.013a2.582 2.582 0 0 1 3.095 1.935 2.582 2.582 0 0 1-1.935 3.095 2.582 2.582 0 0 1-3.095-1.935 2.582 2.582 0 0 1 1.935-3.095Z" style="fill:#7f7f7f"/>
    <path d="M73.267 79.741a3.227 3.227 0 0 1 1.45 6.288 3.228 3.228 0 0 1-3.869-2.419 3.228 3.228 0 0 1 2.419-3.869Z" style="fill:#383843"/>
    <path d="M66.403 76.178a2.582 2.582 0 0 1 3.095 1.935 2.583 2.583 0 0 1-1.935 3.095 2.582 2.582 0 0 1-3.095-1.935 2.582 2.582 0 0 1 1.935-3.095Z" style="fill:#7f7f7f"/>
    <path d="M32.693 93.713a8.361 8.361 0 0 0-.739-1.983l-4.503 1.038a1.398 1.398 0 0 1-1.677-1.049l-1.039-4.502a8.377 8.377 0 0 0-2.106.203 8.38 8.38 0 0 0-1.983.74l1.039 4.502a1.4 1.4 0 0 1-1.049 1.678l-4.503 1.038c-.018.694.04 1.399.203 2.106a8.39 8.39 0 0 0 .74 1.983l4.503-1.038a1.398 1.398 0 0 1 1.677 1.049l1.039 4.502a8.377 8.377 0 0 0 2.106-.203 8.42 8.42 0 0 0 1.983-.739l-1.039-4.503a1.4 1.4 0 0 1 1.049-1.678l4.503-1.038a8.332 8.332 0 0 0-.204-2.106Z" style="fill:#5c5c5c;fill-rule:nonzero"/>
    <path d="M24.201 94.235a1.4 1.4 0 1 1 .626 2.729 1.4 1.4 0 0 1-.626-2.729Z" style="fill:#505050"/>
    <path d="M42.135 91.833a1.399 1.399 0 0 1 .427-2.549l3.855-.889a1.4 1.4 0 1 1 .629 2.726l-3.855.889a1.4 1.4 0 0 1-1.056-.177Z" style="fill:#6262a5;fill-rule:nonzero"/>
    <path d="M86.287 17.842 31.668 9.145c-10.739-1.71-21.29 5.225-23.197 15.932-1.942 10.908 5.444 21.242 16.338 22.976 5.289.842 10.41-.513 14.466-3.374.707-.498 1.562-.74 2.416-.604l23.577 3.754c.852.136 1.587.629 2.102 1.321 3.356 4.503 8.606 7.598 14.828 7.928 9.136.485 17.599-5.611 20.015-14.436 3.165-11.556-4.426-22.968-15.926-24.8Z" style="fill:#e4eaf6;fill-rule:nonzero"/>
    <path d="M85.769 21.093c8.972 1.429 15.095 9.872 13.667 18.843-1.429 8.971-9.872 15.095-18.843 13.667-8.971-1.429-15.095-9.872-13.667-18.843 1.429-8.972 9.872-15.095 18.843-13.667Z" style="fill:#707487"/>
    <path d="M29.598 17.982c5.831.929 9.811 6.417 8.883 12.248-.929 5.831-6.417 9.812-12.248 8.883-5.831-.928-9.812-6.416-8.883-12.248.928-5.831 6.416-9.811 12.248-8.883Z" style="fill:#d7deed"/>
    <path d="m34.752 26.824-2.743-.437a.926.926 0 0 1-.769-1.06l.437-2.743a.925.925 0 0 0-.769-1.06l-3.657-.582a.925.925 0 0 0-1.06.769l-.437 2.743a.925.925 0 0 1-1.06.768l-2.742-.436a.925.925 0 0 0-1.06.768l-.583 3.658a.927.927 0 0 0 .769 1.06l2.743.437c.505.08.849.555.769 1.06l-.437 2.743a.927.927 0 0 0 .769 1.06l3.657.582a.926.926 0 0 0 1.06-.769l.437-2.743a.927.927 0 0 1 1.06-.769l2.743.437a.925.925 0 0 0 1.06-.769l.583-3.657a.927.927 0 0 0-.77-1.06Z" style="fill:#707487;fill-rule:nonzero"/>
    <path d="M28.174 26.922a1.647 1.647 0 1 1-.518 3.25 1.647 1.647 0 0 1 .518-3.25Z" style="fill:#5b5d6e"/>
    <path d="M46.387 38.156a1.647 1.647 0 0 1-.239-3.196l3.51-1.107a1.646 1.646 0 0 1 .991 3.139l-3.51 1.108a1.64 1.64 0 0 1-.752.056Zm9.752 1.553a1.645 1.645 0 0 1-.238-3.196l3.51-1.107a1.646 1.646 0 0 1 .991 3.139l-3.51 1.108a1.644 1.644 0 0 1-.753.056Z" style="fill:#707487;fill-rule:nonzero"/>
    <path d="m62.79 24.101-14.629-2.329a2.47 2.47 0 0 1 .777-4.877l14.629 2.33a2.47 2.47 0 0 1-.777 4.876Zm10.87 15.481a3.291 3.291 0 0 1-1.11-6.113l9.163-5.207a3.29 3.29 0 1 1 3.252 5.723l-9.162 5.207a3.276 3.276 0 0 1-2.143.39Zm8.847 7.242a3.282 3.282 0 0 1-2.345-1.624 3.289 3.289 0 0 1 1.235-4.488l9.163-5.208a3.291 3.291 0 1 1 3.252 5.723l-9.163 5.207a3.267 3.267 0 0 1-2.142.39Z" style="fill:#d7deed;fill-rule:nonzero"/>
    <path d="M74.694 33.08a3.293 3.293 0 0 1-1.035 6.502 3.292 3.292 0 0 1 1.035-6.502Z" style="fill:#00dcc8"/>
    <path d="M83.857 27.872a3.294 3.294 0 0 1 2.733 3.769 3.293 3.293 0 0 1-3.769 2.733 3.293 3.293 0 0 1-2.733-3.769 3.293 3.293 0 0 1 3.769-2.733Z" style="fill:#82b9ff"/>
    <path d="M92.704 35.114a3.295 3.295 0 0 1 2.733 3.769 3.294 3.294 0 0 1-3.769 2.733 3.293 3.293 0 0 1-2.733-3.769 3.293 3.293 0 0 1 3.769-2.733Z" style="fill:#ff6464"/>
    <path d="M83.541 40.322a3.293 3.293 0 1 1-3.769 2.733 3.294 3.294 0 0 1 3.769-2.733Z" style="fill:#ffcd46"/>
    <path d="M127.398 78.423h-43.25L75.26 92.809H59.224L95.51 35.082c1.1-1.772 2.413-3.238 3.94-4.398 1.528-1.161 3.727-1.741 6.598-1.741 2.81 0 4.978.58 6.506 1.741 1.527 1.16 2.84 2.626 3.94 4.398l36.102 57.727h-16.127l-9.071-14.386ZM90.654 67.702h30.238l-15.119-24.648-15.119 24.648Zm68.082-40.592h13.928v65.699h-13.928zm24.74 0h13.928v65.699h-13.928zm84.484 65.699c-4.582 0-8.4-.381-11.454-1.145-3.055-.764-5.498-1.985-7.331-3.665-1.832-1.68-3.13-3.879-3.894-6.598-.764-2.718-1.145-6.063-1.145-10.033V51.759c0-3.91.381-7.239 1.145-9.988.764-2.749 2.062-4.963 3.894-6.643 1.833-1.68 4.276-2.902 7.331-3.666 3.054-.763 6.872-1.145 11.454-1.145h16.31v12.004h-15.669c-2.077 0-3.803.168-5.177.504-1.375.336-2.459.901-3.253 1.695s-1.359 1.832-1.695 3.115c-.336 1.283-.504 2.871-.504 4.765v18.418c0 2.077.168 3.772.504 5.085.336 1.314.916 2.337 1.741 3.07.825.733 1.924 1.237 3.299 1.512 1.374.275 3.069.412 5.085.412h23.549c1.955 0 3.604-.137 4.948-.412 1.344-.275 2.429-.794 3.253-1.558.825-.763 1.42-1.848 1.787-3.253s.55-3.207.55-5.406V55.79h13.928v15.578c0 3.97-.382 7.315-1.146 10.033-.763 2.719-2.061 4.918-3.894 6.598-1.833 1.68-4.291 2.901-7.376 3.665-3.085.764-6.949 1.145-11.592 1.145H267.96Zm73.946 0c-3.604 0-6.567-.305-8.888-.916-2.322-.611-4.17-1.481-5.544-2.611-1.375-1.131-2.337-2.505-2.886-4.124-.55-1.619-.825-3.436-.825-5.452v-4.673c0-2.077.259-3.925.779-5.544a9.102 9.102 0 0 1 2.703-4.123c1.283-1.13 3.039-1.985 5.269-2.566 2.229-.58 5.055-.87 8.475-.87h36.744v-1.1c0-3.176-.641-5.299-1.924-6.368s-3.451-1.604-6.506-1.604h-13.561v-9.713h13.561c3.971 0 7.346.367 10.126 1.1 2.779.733 5.055 1.848 6.826 3.344 1.772 1.497 3.07 3.391 3.894 5.682.825 2.29 1.237 5.024 1.237 8.201v12.095c0 3.604-.351 6.628-1.053 9.071-.703 2.444-1.925 4.429-3.666 5.956-1.74 1.527-4.062 2.612-6.963 3.253-2.902.642-6.552.962-10.95.962h-26.848Zm35.827-22.449h-35.277c-1.589 0-2.841.351-3.757 1.053-.917.703-1.375 2.032-1.375 3.986v3.391c0 1.771.489 2.993 1.466 3.665.978.672 2.352 1.008 4.124 1.008h25.656c1.589 0 2.963-.122 4.124-.367 1.16-.244 2.107-.687 2.84-1.328.733-.642 1.283-1.543 1.65-2.703.366-1.161.549-2.658.549-4.49V70.36ZM479.81 92.809V62.938c0-3.116-.595-5.239-1.786-6.369-1.192-1.13-3.101-1.695-5.727-1.695h-8.889c-2.016 0-3.68.138-4.994.412-1.313.275-2.351.734-3.115 1.375-.764.641-1.298 1.466-1.604 2.474-.305 1.008-.458 2.275-.458 3.803v29.871h-12.003V62.938c0-1.528-.138-2.795-.413-3.803-.275-1.008-.794-1.833-1.557-2.474-.764-.641-1.818-1.1-3.162-1.375-1.344-.274-3.054-.412-5.131-.412h-8.705c-2.749 0-4.688.565-5.818 1.695-1.131 1.13-1.696 3.253-1.696 6.369v29.871h-13.286V60.922c0-3.055.305-5.697.916-7.926.611-2.23 1.619-4.078 3.024-5.544 1.405-1.466 3.238-2.55 5.498-3.253 2.26-.702 5.04-1.054 8.338-1.054h12.004c2.505 0 4.658.184 6.46.55 1.802.367 3.329.901 4.581 1.604 1.253.702 2.261 1.603 3.024 2.703.764 1.099 1.39 2.382 1.879 3.848.855-2.932 2.489-5.116 4.902-6.551 2.413-1.436 6.063-2.154 10.95-2.154h12.37c3.299 0 6.078.352 8.338 1.054 2.261.703 4.093 1.787 5.498 3.253 1.405 1.466 2.413 3.314 3.024 5.544.611 2.229.916 4.871.916 7.926v31.887H479.81Zm37.111-19.792v2.291c0 1.527.122 2.749.366 3.665.245.916.688 1.634 1.329 2.153.641.52 1.497.871 2.566 1.054 1.069.183 2.397.275 3.986.275h16.127v10.354h-16.127c-7.881 0-13.501-1.496-16.86-4.49-3.36-2.993-5.04-7.788-5.04-14.386V62.479c0-3.604.351-6.643 1.054-9.117.702-2.474 1.924-4.459 3.665-5.956 1.741-1.496 4.047-2.581 6.918-3.253 2.871-.672 6.506-1.008 10.904-1.008h24.007c3.543 0 6.491.336 8.843 1.008 2.352.672 4.215 1.604 5.589 2.795 1.375 1.191 2.337 2.627 2.887 4.307.549 1.68.824 3.497.824 5.452v16.31h-51.038Zm37.385-15.211c0-1.649-.412-2.749-1.237-3.298-.824-.55-2.275-.825-4.352-.825h-22.725c-1.71 0-3.146.076-4.306.229-1.161.153-2.093.504-2.795 1.054-.703.55-1.207 1.344-1.512 2.382-.305 1.039-.458 2.444-.458 4.215v2.657h37.385v-6.414Zm81.918 21.808c0 2.444-.214 4.506-.641 6.186-.428 1.679-1.268 3.039-2.52 4.077-1.252 1.039-2.963 1.787-5.131 2.245-2.169.458-4.994.687-8.476.687h-42.7V82.088h40.959c1.832 0 3.115-.305 3.848-.916.733-.611 1.1-1.771 1.1-3.482v-1.649c0-1.833-.351-2.978-1.054-3.436-.702-.458-1.878-.688-3.528-.688h-27.855c-2.81 0-5.086-.274-6.827-.824-1.741-.55-3.1-1.375-4.078-2.474-.977-1.1-1.634-2.459-1.97-4.078-.336-1.619-.504-3.528-.504-5.727v-3.757c0-2.138.23-3.97.688-5.497.458-1.528 1.206-2.765 2.245-3.712 1.038-.946 2.443-1.634 4.215-2.061 1.771-.428 4.001-.642 6.689-.642h18.876V53.5h-15.578c-1.344 0-2.306.244-2.886.733-.58.488-.87 1.374-.87 2.657v2.291c0 1.405.274 2.352.824 2.84.55.489 1.436.733 2.658.733h26.939c3.177 0 5.773.26 7.789.779s3.604 1.344 4.764 2.474c1.161 1.13 1.955 2.596 2.383 4.399.427 1.802.641 4.016.641 6.643v2.565Z" style="fill:#fff;fill-rule:nonzero"/>
</svg>
