<?xml version="1.0" encoding="UTF-8" standalone="no"?>
<!DOCTYPE svg PUBLIC "-//W3C//DTD SVG 1.1//EN" "http://www.w3.org/Graphics/SVG/1.1/DTD/svg11.dtd">
<svg width="100%" height="100%" viewBox="0 0 642 76" version="1.1" xmlns="http://www.w3.org/2000/svg" xmlns:xlink="http://www.w3.org/1999/xlink" xml:space="preserve" xmlns:serif="http://www.serif.com/" style="fill-rule:evenodd;clip-rule:evenodd;stroke-linejoin:round;stroke-miterlimit:2;">
    <g transform="matrix(1,0,0,1,-1599,-280)">
        <g id="auto-allgames.afdesign" transform="matrix(1,0,0,1,1920,317.778)">
            <g transform="matrix(1,0,0,1,-315.849,-64.146)">
                <clipPath id="_clip1">
                    <rect x="-4.303" y="26.697" width="640.303" height="74.897"/>
                </clipPath>
                <g clip-path="url(#_clip1)">
                    <g transform="matrix(3.32995,0,0,3.32995,-745.583,-139.797)">
                        <g>
                            <g transform="matrix(1,0,0,1,220,40)">
                                <path d="M35.116,10L15.117,10C7.421,9.999 2.61,18.329 6.457,24.994C9.764,30.724 17.624,31.719 22.255,26.995L27.973,26.995C33.36,32.491 42.677,30.094 44.743,22.681C46.518,16.31 41.729,10.002 35.116,10ZM20.615,20.747C20.615,21.161 20.28,21.497 19.866,21.497L16.617,21.497L16.617,24.746C16.617,25.16 16.281,25.496 15.867,25.496L14.367,25.496C13.953,25.496 13.618,25.16 13.618,24.746L13.618,21.497L10.368,21.497C9.954,21.497 9.619,21.161 9.619,20.747L9.619,19.247C9.619,18.833 9.954,18.498 10.368,18.498L13.618,18.498L13.618,15.248C13.618,14.834 13.953,14.499 14.367,14.499L15.867,14.499C16.281,14.499 16.617,14.834 16.617,15.248L16.617,18.498L19.866,18.498C20.28,18.498 20.615,18.833 20.615,19.247L20.615,20.747ZM34.112,25.496C32.188,25.496 30.985,23.413 31.947,21.747C32.909,20.08 35.314,20.08 36.276,21.747C36.495,22.127 36.611,22.558 36.611,22.996C36.611,24.377 35.492,25.496 34.112,25.496ZM38.11,19.497C36.186,19.497 34.984,17.415 35.946,15.748C36.908,14.082 39.313,14.082 40.275,15.748C40.494,16.128 40.61,16.559 40.61,16.998C40.61,18.378 39.491,19.497 38.11,19.497Z" style="fill:rgb(221,221,221);fill-rule:nonzero;stroke:rgb(141,141,141);stroke-width:0.3px;"/>
                            </g>
                            <g transform="matrix(1.90363,0,0,1.90363,173.87,12.6351)">
                                <g transform="matrix(12,0,0,12,50.9541,29.1833)">
                                    <path d="M0.752,-0.157L0.28,-0.157L0.183,-0L0.008,-0L0.404,-0.63C0.416,-0.649 0.43,-0.665 0.447,-0.678C0.464,-0.691 0.488,-0.697 0.519,-0.697C0.55,-0.697 0.573,-0.691 0.59,-0.678C0.607,-0.665 0.621,-0.649 0.633,-0.63L1.027,-0L0.851,-0L0.752,-0.157ZM0.351,-0.274L0.681,-0.274L0.516,-0.543L0.351,-0.274Z" style="fill:white;fill-rule:nonzero;"/>
                                </g>
                                <g transform="matrix(12,0,0,12,63.3741,29.1833)">
                                    <rect x="0.059" y="-0.717" width="0.152" height="0.717" style="fill:white;fill-rule:nonzero;"/>
                                </g>
                                <g transform="matrix(12,0,0,12,66.6141,29.1833)">
                                    <rect x="0.059" y="-0.717" width="0.152" height="0.717" style="fill:white;fill-rule:nonzero;"/>
                                </g>
                                <g transform="matrix(12,0,0,12,74.6181,29.1833)">
                                    <path d="M0.314,-0C0.264,-0 0.222,-0.004 0.189,-0.013C0.156,-0.021 0.129,-0.034 0.109,-0.053C0.089,-0.071 0.075,-0.095 0.067,-0.125C0.058,-0.154 0.054,-0.191 0.054,-0.234L0.054,-0.448C0.054,-0.491 0.058,-0.527 0.067,-0.557C0.075,-0.587 0.089,-0.611 0.109,-0.63C0.129,-0.648 0.156,-0.661 0.189,-0.67C0.222,-0.678 0.264,-0.682 0.314,-0.682L0.492,-0.682L0.492,-0.551L0.321,-0.551C0.298,-0.551 0.28,-0.549 0.265,-0.546C0.249,-0.542 0.238,-0.536 0.229,-0.527C0.22,-0.518 0.214,-0.507 0.211,-0.493C0.207,-0.479 0.205,-0.462 0.205,-0.441L0.205,-0.24C0.205,-0.217 0.207,-0.199 0.211,-0.185C0.214,-0.17 0.221,-0.159 0.23,-0.151C0.239,-0.143 0.251,-0.138 0.266,-0.135C0.281,-0.132 0.299,-0.13 0.321,-0.13L0.578,-0.13C0.599,-0.13 0.617,-0.132 0.632,-0.135C0.647,-0.138 0.659,-0.143 0.668,-0.152C0.677,-0.16 0.683,-0.172 0.687,-0.187C0.691,-0.202 0.693,-0.222 0.693,-0.246L0.693,-0.404L0.845,-0.404L0.845,-0.234C0.845,-0.191 0.841,-0.154 0.833,-0.125C0.824,-0.095 0.81,-0.071 0.79,-0.053C0.77,-0.034 0.743,-0.021 0.71,-0.013C0.676,-0.004 0.634,-0 0.583,-0L0.314,-0Z" style="fill:white;fill-rule:nonzero;"/>
                                </g>
                                <g transform="matrix(12,0,0,12,85.1421,29.1833)">
                                    <path d="M0.244,-0C0.205,-0 0.172,-0.003 0.147,-0.01C0.122,-0.017 0.101,-0.026 0.087,-0.039C0.072,-0.051 0.061,-0.066 0.055,-0.084C0.049,-0.101 0.046,-0.121 0.046,-0.143L0.046,-0.194C0.046,-0.217 0.049,-0.237 0.055,-0.255C0.06,-0.272 0.07,-0.287 0.084,-0.3C0.098,-0.312 0.117,-0.321 0.142,-0.328C0.166,-0.334 0.197,-0.337 0.234,-0.337L0.635,-0.337L0.635,-0.349C0.635,-0.384 0.628,-0.407 0.614,-0.419C0.6,-0.43 0.576,-0.436 0.543,-0.436L0.395,-0.436L0.395,-0.542L0.543,-0.542C0.586,-0.542 0.623,-0.538 0.654,-0.53C0.684,-0.522 0.709,-0.51 0.728,-0.494C0.747,-0.477 0.761,-0.456 0.771,-0.432C0.78,-0.407 0.784,-0.377 0.784,-0.342L0.784,-0.21C0.784,-0.171 0.78,-0.138 0.773,-0.111C0.765,-0.084 0.752,-0.063 0.733,-0.046C0.713,-0.029 0.688,-0.018 0.657,-0.011C0.625,-0.004 0.585,-0 0.537,-0L0.244,-0ZM0.635,-0.245L0.25,-0.245C0.233,-0.245 0.219,-0.241 0.209,-0.234C0.199,-0.226 0.194,-0.211 0.194,-0.19L0.194,-0.153C0.194,-0.134 0.199,-0.12 0.21,-0.113C0.221,-0.106 0.236,-0.102 0.255,-0.102L0.535,-0.102C0.552,-0.102 0.567,-0.103 0.58,-0.106C0.593,-0.109 0.603,-0.114 0.611,-0.121C0.619,-0.128 0.625,-0.137 0.629,-0.15C0.633,-0.163 0.635,-0.179 0.635,-0.199L0.635,-0.245Z" style="fill:white;fill-rule:nonzero;"/>
                                </g>
                                <g transform="matrix(12,0,0,12,95.1981,29.1833)">
                                    <path d="M0.911,-0L0.911,-0.326C0.911,-0.36 0.905,-0.383 0.892,-0.396C0.878,-0.408 0.858,-0.414 0.829,-0.414L0.732,-0.414C0.71,-0.414 0.692,-0.413 0.678,-0.41C0.663,-0.407 0.652,-0.402 0.644,-0.395C0.635,-0.388 0.629,-0.379 0.626,-0.368C0.623,-0.357 0.621,-0.343 0.621,-0.326L0.621,-0L0.49,-0L0.49,-0.326C0.49,-0.343 0.489,-0.357 0.486,-0.368C0.483,-0.379 0.477,-0.388 0.469,-0.395C0.46,-0.402 0.449,-0.407 0.434,-0.41C0.419,-0.413 0.401,-0.414 0.378,-0.414L0.283,-0.414C0.253,-0.414 0.232,-0.408 0.22,-0.396C0.207,-0.383 0.201,-0.36 0.201,-0.326L0.201,-0L0.056,-0L0.056,-0.348C0.056,-0.381 0.059,-0.41 0.066,-0.435C0.073,-0.459 0.084,-0.479 0.099,-0.495C0.114,-0.511 0.134,-0.523 0.159,-0.531C0.184,-0.538 0.214,-0.542 0.25,-0.542L0.381,-0.542C0.408,-0.542 0.432,-0.54 0.452,-0.536C0.471,-0.532 0.488,-0.526 0.502,-0.519C0.515,-0.511 0.526,-0.501 0.535,-0.489C0.543,-0.477 0.55,-0.463 0.555,-0.447C0.564,-0.479 0.582,-0.503 0.609,-0.519C0.635,-0.534 0.675,-0.542 0.728,-0.542L0.863,-0.542C0.899,-0.542 0.929,-0.538 0.954,-0.531C0.979,-0.523 0.999,-0.511 1.014,-0.495C1.029,-0.479 1.04,-0.459 1.047,-0.435C1.054,-0.41 1.057,-0.381 1.057,-0.348L1.057,-0L0.911,-0Z" style="fill:white;fill-rule:nonzero;"/>
                                </g>
                                <g transform="matrix(12,0,0,12,108.554,29.1833)">
                                    <path d="M0.203,-0.216L0.203,-0.191C0.203,-0.174 0.204,-0.161 0.207,-0.151C0.21,-0.141 0.215,-0.133 0.222,-0.128C0.229,-0.122 0.238,-0.118 0.25,-0.116C0.261,-0.114 0.276,-0.113 0.293,-0.113L0.469,-0.113L0.469,-0L0.293,-0C0.207,-0 0.146,-0.016 0.109,-0.049C0.072,-0.082 0.054,-0.134 0.054,-0.206L0.054,-0.331C0.054,-0.37 0.058,-0.404 0.066,-0.431C0.073,-0.458 0.087,-0.479 0.106,-0.496C0.125,-0.512 0.15,-0.524 0.181,-0.531C0.212,-0.538 0.252,-0.542 0.3,-0.542L0.562,-0.542C0.601,-0.542 0.633,-0.538 0.659,-0.531C0.684,-0.524 0.705,-0.514 0.72,-0.501C0.735,-0.488 0.745,-0.472 0.751,-0.454C0.757,-0.435 0.76,-0.415 0.76,-0.394L0.76,-0.216L0.203,-0.216ZM0.611,-0.382C0.611,-0.4 0.607,-0.412 0.598,-0.418C0.588,-0.424 0.573,-0.427 0.55,-0.427L0.302,-0.427C0.283,-0.427 0.268,-0.426 0.255,-0.425C0.242,-0.423 0.232,-0.419 0.225,-0.413C0.217,-0.407 0.211,-0.398 0.208,-0.387C0.205,-0.376 0.203,-0.36 0.203,-0.341L0.203,-0.312L0.611,-0.312L0.611,-0.382Z" style="fill:white;fill-rule:nonzero;"/>
                                </g>
                                <g transform="matrix(12,0,0,12,118.262,29.1833)">
                                    <path d="M0.696,-0.144C0.696,-0.117 0.694,-0.095 0.689,-0.077C0.684,-0.058 0.675,-0.043 0.662,-0.032C0.648,-0.021 0.629,-0.012 0.606,-0.008C0.582,-0.003 0.551,-0 0.513,-0L0.047,-0L0.047,-0.117L0.494,-0.117C0.514,-0.117 0.528,-0.12 0.536,-0.127C0.544,-0.134 0.548,-0.146 0.548,-0.165L0.548,-0.183C0.548,-0.203 0.544,-0.216 0.537,-0.221C0.529,-0.226 0.516,-0.228 0.498,-0.228L0.194,-0.228C0.163,-0.228 0.138,-0.231 0.12,-0.237C0.1,-0.243 0.086,-0.252 0.075,-0.264C0.064,-0.276 0.057,-0.291 0.054,-0.309C0.05,-0.326 0.048,-0.347 0.048,-0.371L0.048,-0.412C0.048,-0.435 0.05,-0.455 0.056,-0.472C0.061,-0.489 0.069,-0.502 0.08,-0.513C0.091,-0.523 0.107,-0.53 0.126,-0.535C0.145,-0.54 0.17,-0.542 0.199,-0.542L0.405,-0.542L0.405,-0.429L0.235,-0.429C0.22,-0.429 0.21,-0.426 0.204,-0.421C0.197,-0.416 0.194,-0.406 0.194,-0.392L0.194,-0.367C0.194,-0.352 0.197,-0.341 0.203,-0.336C0.209,-0.331 0.219,-0.328 0.232,-0.328L0.526,-0.328C0.561,-0.328 0.589,-0.325 0.611,-0.32C0.633,-0.314 0.65,-0.305 0.663,-0.293C0.676,-0.28 0.684,-0.264 0.689,-0.245C0.694,-0.225 0.696,-0.201 0.696,-0.172L0.696,-0.144Z" style="fill:white;fill-rule:nonzero;"/>
                                </g>
                            </g>
                        </g>
                    </g>
                </g>
            </g>
        </g>
    </g>
</svg>
