<?xml version="1.0" encoding="UTF-8" standalone="no"?>
<!DOCTYPE svg PUBLIC "-//W3C//DTD SVG 1.1//EN" "http://www.w3.org/Graphics/SVG/1.1/DTD/svg11.dtd">
<svg width="100%" height="100%" viewBox="0 0 641 121" version="1.1" xmlns="http://www.w3.org/2000/svg" xmlns:xlink="http://www.w3.org/1999/xlink" xml:space="preserve" xmlns:serif="http://www.serif.com/" style="fill-rule:evenodd;clip-rule:evenodd;stroke-linejoin:round;stroke-miterlimit:2;">
    <g>
        <path d="M185.969,75.405l-35.387,0l-7.273,11.771l-13.12,0l29.69,-47.233c0.899,-1.45 1.974,-2.649 3.223,-3.599c1.25,-0.95 3.049,-1.425 5.398,-1.425c2.3,0 4.074,0.475 5.324,1.425c1.249,0.95 2.324,2.149 3.223,3.599l29.54,47.233l-13.195,0l-7.423,-11.771Zm-30.064,-8.772l24.741,0l-12.37,-20.168l-12.371,20.168Z" style="fill:#fff;fill-rule:nonzero;"/>
        <path d="M228.554,87.176c-3.798,0 -6.96,-0.312 -9.484,-0.937c-2.524,-0.625 -4.536,-1.625 -6.035,-2.999c-1.5,-1.375 -2.562,-3.174 -3.187,-5.398c-0.624,-2.224 -0.937,-4.961 -0.937,-8.21l0,-5.473c0,-3.249 0.313,-5.998 0.937,-8.247c0.625,-2.249 1.687,-4.061 3.187,-5.436c1.499,-1.374 3.511,-2.374 6.035,-2.999c2.524,-0.624 5.686,-0.937 9.484,-0.937l22.567,0l0,-13.12l11.172,-0l-0,36.212c-0,3.249 -0.313,5.986 -0.938,8.21c-0.624,2.224 -1.687,4.023 -3.186,5.398c-1.499,1.374 -3.499,2.374 -5.998,2.999c-2.499,0.625 -5.648,0.937 -9.447,0.937l-14.17,0Zm-8.472,-17.844c0,1.8 0.138,3.249 0.413,4.349c0.275,1.099 0.787,1.949 1.537,2.549c0.749,0.6 1.762,1 3.036,1.199c1.275,0.2 2.912,0.3 4.911,0.3l12.446,0c1.749,0 3.186,-0.112 4.311,-0.337c1.124,-0.225 2.011,-0.65 2.661,-1.275c0.65,-0.624 1.1,-1.474 1.35,-2.549c0.25,-1.074 0.374,-2.461 0.374,-4.161l0,-13.27l-21.217,-0c-1.949,-0 -3.561,0.1 -4.836,0.3c-1.274,0.2 -2.287,0.6 -3.036,1.199c-0.75,0.6 -1.262,1.45 -1.537,2.549c-0.275,1.1 -0.413,2.55 -0.413,4.349l0,4.798Z" style="fill:#fff;fill-rule:nonzero;"/>
        <path d="M309.301,84.477c-0.85,1.15 -1.837,2.074 -2.961,2.774c-1.125,0.7 -2.687,1.05 -4.686,1.05c-2.1,-0 -3.699,-0.35 -4.799,-1.05c-1.099,-0.7 -2.074,-1.624 -2.924,-2.774l-26.765,-37.937l13.345,0l21.293,31.114l21.067,-31.114l13.196,0l-26.766,37.937Z" style="fill:#fff;fill-rule:nonzero;"/>
        <path d="M348.287,70.982l0,1.874c0,1.25 0.1,2.249 0.3,2.999c0.2,0.75 0.563,1.337 1.087,1.762c0.525,0.425 1.225,0.712 2.1,0.862c0.874,0.15 1.961,0.225 3.261,0.225l13.195,-0l0,8.472l-13.195,0c-6.448,0 -11.046,-1.225 -13.795,-3.674c-2.749,-2.449 -4.124,-6.372 -4.124,-11.771l0,-9.371c0,-2.949 0.288,-5.436 0.863,-7.46c0.574,-2.024 1.574,-3.649 2.998,-4.873c1.425,-1.225 3.312,-2.112 5.661,-2.662c2.349,-0.55 5.323,-0.825 8.922,-0.825l19.643,0c2.899,0 5.311,0.275 7.235,0.825c1.924,0.55 3.449,1.312 4.573,2.287c1.125,0.974 1.912,2.149 2.362,3.523c0.45,1.375 0.675,2.862 0.675,4.461l-0,13.346l-41.761,-0Zm30.59,-12.446c-0,-1.349 -0.338,-2.249 -1.012,-2.699c-0.675,-0.45 -1.862,-0.675 -3.562,-0.675l-18.593,0c-1.4,0 -2.574,0.063 -3.524,0.188c-0.95,0.125 -1.712,0.412 -2.287,0.862c-0.574,0.45 -0.987,1.099 -1.237,1.949c-0.25,0.85 -0.375,1.999 -0.375,3.449l0,2.174l30.59,0l-0,-5.248Z" style="fill:#fff;fill-rule:nonzero;"/>
        <path d="M439.38,87.176l0,-22.642c0,-1.699 -0.137,-3.086 -0.412,-4.161c-0.275,-1.075 -0.75,-1.924 -1.424,-2.549c-0.675,-0.625 -1.6,-1.062 -2.774,-1.312c-1.175,-0.25 -2.662,-0.375 -4.461,-0.375l-12.146,-0c-1.75,-0 -3.212,0.125 -4.386,0.375c-1.175,0.25 -2.112,0.687 -2.812,1.312c-0.699,0.625 -1.187,1.474 -1.462,2.549c-0.274,1.075 -0.412,2.462 -0.412,4.161l0,22.642l-11.171,0l-0,-23.017c-0,-3.249 0.312,-5.998 0.937,-8.247c0.625,-2.249 1.687,-4.061 3.187,-5.436c1.499,-1.374 3.498,-2.374 5.997,-2.999c2.5,-0.624 5.623,-0.937 9.372,-0.937l13.57,0c3.799,0 6.948,0.313 9.447,0.937c2.499,0.625 4.498,1.625 5.998,2.999c1.499,1.375 2.562,3.187 3.186,5.436c0.625,2.249 0.938,4.998 0.938,8.247l-0,23.017l-11.172,0Z" style="fill:#fff;fill-rule:nonzero;"/>
        <path d="M461.498,87.176l-0,-31.564l-5.698,0l-0,-9.072l5.698,0l-0,-11.471l11.396,0l-0,11.471l12.82,0l0,9.072l-12.82,0l-0,31.564l-11.396,0Z" style="fill:#fff;fill-rule:nonzero;"/>
        <path d="M510.381,87.176c-3.749,0 -6.873,-0.312 -9.372,-0.937c-2.499,-0.625 -4.499,-1.625 -5.998,-2.999c-1.5,-1.375 -2.562,-3.174 -3.186,-5.398c-0.625,-2.224 -0.938,-4.961 -0.938,-8.21l0,-23.092l11.246,0l0,22.792c0,1.75 0.163,3.162 0.488,4.236c0.325,1.075 0.837,1.912 1.537,2.512c0.699,0.6 1.637,1.012 2.811,1.237c1.175,0.225 2.612,0.337 4.311,0.337l11.696,0c1.799,0 3.299,-0.112 4.499,-0.337c1.199,-0.225 2.136,-0.637 2.811,-1.237c0.675,-0.6 1.15,-1.437 1.425,-2.512c0.274,-1.074 0.412,-2.486 0.412,-4.236l-0,-22.792l11.096,0l-0,23.092c-0,3.249 -0.312,5.986 -0.937,8.21c-0.625,2.224 -1.687,4.023 -3.187,5.398c-1.499,1.374 -3.511,2.374 -6.035,2.999c-2.524,0.625 -5.685,0.937 -9.484,0.937l-13.195,0Z" style="fill:#fff;fill-rule:nonzero;"/>
        <path d="M551.841,87.176l-0,-23.542c-0,-3.049 0.35,-5.648 1.05,-7.797c0.699,-2.149 1.811,-3.911 3.336,-5.286c1.524,-1.374 3.486,-2.386 5.885,-3.036c2.4,-0.65 5.323,-0.975 8.772,-0.975l7.273,0l-0,9.072l-6.973,0c-1.549,0 -2.849,0.125 -3.898,0.375c-1.05,0.25 -1.887,0.675 -2.512,1.275c-0.625,0.599 -1.075,1.424 -1.35,2.474c-0.275,1.049 -0.412,2.374 -0.412,3.973l0,23.467l-11.171,0Z" style="fill:#fff;fill-rule:nonzero;"/>
        <path d="M594.501,70.982l-0,1.874c-0,1.25 0.1,2.249 0.3,2.999c0.2,0.75 0.562,1.337 1.087,1.762c0.525,0.425 1.225,0.712 2.099,0.862c0.875,0.15 1.962,0.225 3.262,0.225l13.195,-0l-0,8.472l-13.195,0c-6.448,0 -11.046,-1.225 -13.796,-3.674c-2.749,-2.449 -4.123,-6.372 -4.123,-11.771l-0,-9.371c-0,-2.949 0.287,-5.436 0.862,-7.46c0.575,-2.024 1.575,-3.649 2.999,-4.873c1.425,-1.225 3.311,-2.112 5.661,-2.662c2.349,-0.55 5.323,-0.825 8.921,-0.825l19.644,0c2.899,0 5.31,0.275 7.235,0.825c1.924,0.55 3.448,1.312 4.573,2.287c1.125,0.974 1.912,2.149 2.362,3.523c0.449,1.375 0.674,2.862 0.674,4.461l0,13.346l-41.76,-0Zm30.589,-12.446c0,-1.349 -0.337,-2.249 -1.012,-2.699c-0.675,-0.45 -1.862,-0.675 -3.561,-0.675l-18.594,0c-1.399,0 -2.574,0.063 -3.523,0.188c-0.95,0.125 -1.712,0.412 -2.287,0.862c-0.575,0.45 -0.987,1.099 -1.237,1.949c-0.25,0.85 -0.375,1.999 -0.375,3.449l-0,2.174l30.589,0l0,-5.248Z" style="fill:#fff;fill-rule:nonzero;"/>
        <g>
            <circle cx="21.777" cy="10.57" r="5.709" style="fill:#ffbf76;"/>
            <path d="M20.488,5.012c-2.531,0.585 -4.42,2.848 -4.42,5.558c-0,2.709 1.889,4.972 4.42,5.557c1.497,-1.383 2.44,-3.358 2.44,-5.557c0,-2.2 -0.943,-4.174 -2.44,-5.558Z" style="fill:#ffd9be;fill-rule:nonzero;"/>
            <path d="M5.161,76.965c10.327,-6.936 44.484,-29.966 53.875,-37.435c1.17,-0.93 2.729,-1.201 4.143,-0.714c6.775,2.331 26.48,9.071 35.408,11.686c1.138,0.333 1.711,1.598 1.218,2.677l-4.088,8.95l10.7,-7.282c0.692,-0.47 1.561,-0.593 2.355,-0.33c3.84,1.273 15.714,5.166 24.653,7.622c1.757,0.482 2.355,2.664 1.086,3.97c-6.074,6.247 -20.192,20.74 -25.968,26.414c-0.326,0.321 -0.751,0.515 -1.207,0.552l-7.801,0.637l2.292,2.084c0.828,0.753 0.855,2.045 0.056,2.829c-3.568,3.505 -12.721,12.494 -17.09,16.797c-1.361,1.342 -3.417,1.68 -5.137,0.846l-32.973,-15.965c-0.831,-0.403 -1.266,-1.333 -1.041,-2.228l0.966,-3.842l-7.777,3.993c-0.621,0.319 -1.36,0.285 -1.946,-0.095c-3.439,-2.23 -15.977,-10.166 -31.463,-17.635c-1.421,-0.686 -1.571,-2.651 -0.261,-3.531Z" style="fill:url(#_Linear1);fill-rule:nonzero;"/>
            <path d="M116.511,69.586c1.231,-1.155 0.805,-3.198 -0.785,-3.764c-4.129,-1.469 -10.1,-3.65 -16.57,-6.033l-3.439,2.34l1.411,-3.088c-13.224,-4.878 -27.921,-10.37 -33.142,-12.323c-1.223,-0.458 -2.588,-0.26 -3.629,0.53c-7.938,6.021 -30.725,22.901 -38.344,28.54c-1.041,0.771 -0.83,2.386 0.378,2.855c6.965,2.7 18.149,8.631 18.149,8.631c10.127,5.464 29.913,13.576 36.59,16.272c1.379,0.557 2.946,0.261 4.028,-0.759c7.84,-7.392 28.025,-26.328 35.353,-33.201Z" style="fill:#ffe7d0;fill-rule:nonzero;"/>
            <path d="M84.843,85.951l-3.048,-2.735c-0.215,-0.193 -0.511,-0.268 -0.793,-0.202l-4.97,1.177l-2.581,-2.789c-0.212,-0.228 -0.527,-0.328 -0.831,-0.264l-3.956,0.839c-0.651,0.138 -0.921,0.918 -0.495,1.429l1.843,2.211l-5.259,1.246c-0.679,0.16 -0.912,1.009 -0.409,1.494l2.871,2.771c0.216,0.208 0.524,0.293 0.816,0.223l5.647,-1.335l2.922,3.505c0.227,0.272 0.594,0.382 0.933,0.279l4.425,-1.339c0.624,-0.188 0.834,-0.965 0.391,-1.443l-2.317,-2.505l4.425,-1.046c0.693,-0.164 0.916,-1.04 0.386,-1.516Z" style="fill:#c14c82;fill-rule:nonzero;"/>
            <path d="M63.959,52.338c1.488,0.407 2.394,1.837 2.024,3.192c-0.371,1.355 -1.88,2.124 -3.367,1.717c-1.488,-0.407 -2.394,-1.837 -2.024,-3.192c0.371,-1.354 1.88,-2.124 3.367,-1.717Z" style="fill:#c14c82;"/>
            <path d="M83.891,72.733l-2.676,0.03c0.011,1.745 -0.172,3.52 -0.547,5.278l2.621,0.539c0.406,-1.907 0.615,-3.871 0.602,-5.847Z" style="fill:#c14c82;"/>
            <path d="M80.784,62.593l-2.172,1.562c0.964,1.368 1.7,2.897 2.102,4.551l2.593,-0.664c-0.476,-1.948 -1.357,-3.805 -2.523,-5.449Z" style="fill:#c14c82;"/>
            <path d="M72.278,56.316l-0.929,2.509c1.615,0.608 3.163,1.428 4.498,2.482l1.643,-2.113c-1.576,-1.239 -3.353,-2.179 -5.212,-2.878Z" style="fill:#c14c82;"/>
            <path d="M22.039,18.307c1.066,-1.283 3.206,-3.072 6.797,-2.957c0.754,0.024 1.443,0.439 1.856,1.07l11.422,17.446l-10.461,6.224c-0,0 -6.262,-10.957 -9.943,-19.323c-0.361,-0.82 -0.244,-1.771 0.329,-2.46Z" style="fill:#b75798;fill-rule:nonzero;"/>
            <path d="M21.598,20.686c1.084,-1.532 3.713,-4.411 8.265,-4.607c0.591,-0.026 0.927,-0.681 0.576,-1.158l-0.315,-0.428c-0.823,-1.12 -2.237,-1.651 -3.585,-1.315c-1.552,0.387 -3.65,1.235 -5.631,3.09c-1.216,1.139 -1.431,2.998 -0.523,4.396l0.003,0.006c0.282,0.435 0.911,0.439 1.21,0.016Z" style="fill:#ffd9be;fill-rule:nonzero;"/>
            <path d="M32.582,39.538l9.532,-5.671l-11.422,-17.447c-0.413,-0.631 -1.102,-1.045 -1.856,-1.069c-0.739,-0.024 -1.403,0.049 -2.022,0.165c3.967,4.552 11.138,14.73 5.768,24.022Z" style="fill:#7f2467;fill-rule:nonzero;"/>
            <path d="M26.308,16.862c1.023,-0.426 2.202,-0.725 3.554,-0.783c0.592,-0.026 0.928,-0.681 0.577,-1.158l-0.315,-0.428c-0.823,-1.12 -2.237,-1.651 -3.585,-1.315c-0.441,0.11 -0.929,0.263 -1.443,0.459c0.644,0.665 1.283,1.717 1.212,3.225Z" style="fill:#ffbf76;fill-rule:nonzero;"/>
            <path d="M30.582,43.976c-0,-0 9.88,17.068 14.947,23.069l14.402,-0c-0,-0 -10.014,-24.536 -14.675,-31.87l-14.674,8.801Z" style="fill:url(#_Linear2);fill-rule:nonzero;"/>
            <path d="M59.93,67.045c0,-0 -10.013,-24.536 -14.674,-31.87l-14.674,8.801c-0,-0 0.178,0.308 0.492,0.844c3.911,1.214 11.04,3.556 11.04,3.556l10.56,18.669l7.256,-0Z" style="fill:url(#_Linear3);fill-rule:nonzero;"/>
            <path d="M18.92,45.766l33.484,-18.623c0.961,-0.535 2.114,-0.658 3.143,-0.27c1.02,0.384 2.191,1.104 2.788,2.448c-0,-0 0.02,0.041 0.051,0.119c1.451,3.545 -2.323,7.096 -5.755,5.392c-0.324,-0.161 -0.636,-0.356 -0.917,-0.594c-0.528,-0.447 -1.273,-0.526 -1.87,-0.177l-2.495,1.461c-0.284,0.166 -0.51,0.415 -0.649,0.714l-3.91,8.416c-0.408,0.878 -1.31,1.42 -2.277,1.367l-10.741,-0.584c-0.288,-0.015 -0.574,0.046 -0.829,0.178l-2.771,1.429c-0.597,0.307 -0.944,0.947 -0.865,1.613c0.076,0.637 0.103,1.519 -0.085,2.529c-0.353,1.907 -2.175,3.185 -4.089,2.866c-0.039,-0.006 -0.079,-0.013 -0.119,-0.02c-3.133,-0.56 -5.048,-3.961 -3.565,-6.777c0.074,-0.14 0.155,-0.278 0.245,-0.413c0.305,-0.457 0.746,-0.807 1.226,-1.074Z" style="fill:#ffd9be;fill-rule:nonzero;"/>
            <path d="M42.79,44.652l3.91,-8.417c0.139,-0.298 0.365,-0.547 0.649,-0.714l2.495,-1.46c0.597,-0.349 1.342,-0.27 1.87,0.177c0.281,0.238 0.593,0.433 0.917,0.594c3.432,1.704 7.206,-1.847 5.755,-5.392c-0.031,-0.077 -0.051,-0.119 -0.051,-0.119c-0.597,-1.344 -1.769,-2.064 -2.788,-2.448c-1.029,-0.388 -2.182,-0.265 -3.143,0.27l-15.868,8.825c1.389,1.611 3.791,5.039 4.514,10.013c0.752,-0.133 1.409,-0.617 1.74,-1.329Z" style="fill:#ffbf76;fill-rule:nonzero;"/>
            <path d="M41.511,67.257c-0.319,-0.027 -0.331,-0.491 -0.012,-0.531c2.265,-0.281 6.071,-0.655 10.597,-0.704c-0,0 6.723,-0.202 12.312,0.672c0.31,0.049 0.292,0.503 -0.02,0.532c-2.825,0.255 -8.215,0.697 -12.228,0.746c-0.006,-0 -0.006,0 -0.012,-0c-0.154,-0.008 -5.998,-0.317 -10.637,-0.715Z" style="fill:url(#_Linear4);fill-rule:nonzero;"/>
        </g>
    </g>
    <defs>
        <linearGradient id="_Linear1" x1="0" y1="0" x2="1" y2="0" gradientUnits="userSpaceOnUse" gradientTransform="matrix(29.7717,89.7915,-89.7915,29.7717,60.052,42.3492)"><stop offset="0" style="stop-color:#a84a78;stop-opacity:1"/><stop offset="0.01" style="stop-color:#a84a78;stop-opacity:1"/><stop offset="1" style="stop-color:#c36c9a;stop-opacity:1"/></linearGradient>
        <linearGradient id="_Linear2" x1="0" y1="0" x2="1" y2="0" gradientUnits="userSpaceOnUse" gradientTransform="matrix(-14.1694,-23.4229,23.4229,-14.1694,50.7703,60.8671)"><stop offset="0" style="stop-color:#fff;stop-opacity:1"/><stop offset="1" style="stop-color:#c7daff;stop-opacity:1"/></linearGradient>
        <linearGradient id="_Linear3" x1="0" y1="0" x2="1" y2="0" gradientUnits="userSpaceOnUse" gradientTransform="matrix(29.3489,0,0,29.3489,30.5816,51.1097)"><stop offset="0" style="stop-color:#819fea;stop-opacity:1"/><stop offset="1" style="stop-color:#a7c1fc;stop-opacity:1"/></linearGradient>
        <linearGradient id="_Linear4" x1="0" y1="0" x2="1" y2="0" gradientUnits="userSpaceOnUse" gradientTransform="matrix(23.3655,0,0,23.3655,41.2658,66.9869)"><stop offset="0" style="stop-color:#a84a78;stop-opacity:1"/><stop offset="0.01" style="stop-color:#a84a78;stop-opacity:1"/><stop offset="1" style="stop-color:#c36c9a;stop-opacity:1"/></linearGradient>
    </defs>
</svg>
