<svg viewBox="0 0 200 40" xmlns="http://www.w3.org/2000/svg">
    <path d="m60.682 24.563-.835 4.788H48.511l3.281-18.702h5.668l-2.446 13.914h5.668Zm5.966 4.788h-5.667l3.281-18.702h5.668l-3.282 18.702Zm13.664-5.506.149-.808h-1.432l.805-4.578h6.832l-1.76 9.994c-2.426.898-4.863 1.347-7.309 1.347-2.447 0-4.213-.489-5.3-1.466-1.081-.978-1.621-2.484-1.621-4.518 0-.859.139-2.125.418-3.801.596-3.471 1.65-5.975 3.162-7.511 1.512-1.536 4.017-2.304 7.518-2.304.735 0 1.673.079 2.813.239 1.147.16 1.989.34 2.526.539l-1.641 4.579c-1.491-.28-2.86-.419-4.106-.419-1.24 0-2.128.099-2.665.299-.537.199-.856.598-.955 1.197l-1.462 8.468h1.88c.676 0 1.176-.073 1.501-.219.331-.153.547-.499.647-1.038Zm22.941 5.506h-5.669l1.134-6.613h-4.266l-1.133 6.613H87.65l3.282-18.702H96.6l-1.164 6.613h4.266l1.164-6.613h5.668l-3.281 18.702Zm19.599-18.702-.865 4.788h-4.117l-2.417 13.914h-5.667l2.416-13.914h-4.087l.865-4.788h13.872Zm9.248 13.196.149-.808h-1.432l.805-4.578h6.832l-1.76 9.994c-2.427.898-4.863 1.347-7.309 1.347-2.446 0-4.213-.489-5.3-1.466-1.081-.978-1.621-2.484-1.621-4.518 0-.859.139-2.125.418-3.801.596-3.471 1.65-5.975 3.162-7.511 1.511-1.536 4.017-2.304 7.517-2.304.736 0 1.674.079 2.815.239 1.146.16 1.989.34 2.526.539l-1.641 4.579c-1.492-.28-2.861-.419-4.107-.419-1.24 0-2.128.099-2.665.299-.537.199-.855.598-.955 1.197l-1.461 8.468h1.879c.676 0 1.176-.073 1.501-.219.331-.153.547-.499.647-1.038Zm10.202-13.196h5.668l-2.476 14.034h2.029c.696 0 1.193-.093 1.491-.279.298-.193.507-.628.627-1.307l2.207-12.448h5.669l-1.85 10.503c-.298 1.696-.643 3.062-1.034 4.1-.385 1.037-.925 1.914-1.621 2.633-.696.718-1.558 1.217-2.586 1.496-1.021.28-2.316.419-3.888.419-2.406 0-4.094-.366-5.061-1.097-.962-.725-1.442-1.975-1.442-3.75 0-.978.139-2.245.417-3.801l1.85-10.503Zm30.996 18.702h-5.341l-3.042-6.643c-.08-.14-.119-.336-.119-.589 0-.246.019-.528.059-.847h-.238l-1.403 8.079h-5.668l3.282-18.702h5.34l3.042 6.643c.06.14.09.336.09.589 0 .246-.02.528-.06.847h.239l1.432-8.079h5.668l-3.281 18.702Z" style="white-space:pre;fill:#fff"/>
    <path d="M28.513 30.389c-.277-.088-.598-.219-.685-.307-.291-.233-.228-1.957.124-3.183.618-2.249 1.744-4.075 3.892-6.294 1.665-1.738 1.87-2.176 1.435-3.126-.261-.54-1.119-1.241-1.527-1.241-.131 0-.364-.102-.524-.219-.146-.117-.51-.219-.801-.219-.685 0-.889-.175-1.586-1.387-.668-1.154-.682-1.329-.3-2.337l.278-.73.773-.073c.641-.073 1.035-.234 2.071-.92.701-.453 1.431-.832 1.606-.832.174 0 .539.131.801.292.422.262.728.292 2.957.292 2.274 0 2.522.029 2.915.292.378.277.436.292.845.087.365-.204.437-.204.51-.014.058.175.145.19.452.044.262-.117.423-.117.524-.015.117.117.262.117.525 0 .277-.117.379-.117.466.029.102.146.189.161.437.015.249-.117.38-.132.525 0 .146.131.277.117.51 0 .278-.146.35-.117.539.131.204.307.262.307 8.496.307h8.279l1.692-.657c1.59-.628 1.721-.657 2.1-.453 1.004.526 3.008 3.695 2.904 4.585-.045.366-.103.395-.876.439-.67.029-.86.102-1.035.379l-.22.336-5.946.088-5.947.102-.365.424-.38.438-5.539.379c-3.047.205-5.627.409-5.744.453-.146.044-.175.248-.118.818.057.409.158.818.245.905.219.219.174.76-.089.979-.161.131-.759.233-1.56.277l-1.312.073-1.874 3.359c-1.785 3.184-1.888 3.403-1.889 4.177-.002.482-.075.89-.178.978-.335.263-4.696 1.314-5.803 1.402-.598.044-1.327 0-1.603-.073Z" style="fill:#ccc" transform="rotate(-24.64 48.197 20)"/>
</svg>
