<svg viewBox="0 0 200 40" xmlns="http://www.w3.org/2000/svg">
    <path d="M71.626 24.845h-3.72l-.78 4.53h-5.7l3.3-18.75h9c3.4 0 5.1 1.58 5.1 4.74 0 1.5-.21 2.855-.63 4.065-.42 1.21-.885 2.17-1.395 2.88s-1.21 1.31-2.1 1.8c-.89.49-1.915.735-3.075.735Zm-2.07-9.42-.81 4.62h1.32c.68 0 1.195-.075 1.545-.225.35-.15.575-.495.675-1.035.26-1.48.39-2.29.39-2.43 0-.38-.15-.63-.45-.75-.3-.12-.75-.18-1.35-.18Zm20.459 13.95h-11.4l3.3-18.75h5.7l-2.46 13.95h5.7Zm4.139 0h-6l7.89-18.75h8.82l1.32 18.75h-6.03l-.12-2.97h-4.71Zm5.13-12.99-2.1 5.25h2.4v-5.25Zm14.489-5.76.39 6.6h.21l2.76-6.6h6.3l-7.56 13.65-.87 5.1h-5.7l.87-5.1-2.7-13.65Zm20.099 11.67h-5.7l-.39 2.28h6.99l-.84 4.8h-12.69l3.3-18.75h12.54l-1.56 4.8h-6.15l-.42 2.52h5.7Zm18.809 7.08h-6.27l-1.38-5.58h-1.23l-.96 5.58h-5.7l3.3-18.75h9c3.42 0 5.13 1.53 5.13 4.59 0 1.26-.19 2.46-.57 3.6-.7 2.16-1.8 3.6-3.3 4.32Zm-7.41-13.95-.66 3.75h1.32c.68 0 1.195-.075 1.545-.225.35-.15.59-.58.72-1.29.13-.71.195-1.145.195-1.305 0-.4-.155-.655-.465-.765-.31-.11-.815-.165-1.515-.165Zm9.298 13.62 1.68-4.95c1.68.46 3.22.69 4.62.69s2.53-.06 3.39-.18l.24-1.5-2.49-.24c-1.9-.18-3.245-.61-4.035-1.29s-1.185-1.64-1.185-2.88c0-.54.06-1.14.18-1.8.46-2.56 1.295-4.32 2.505-5.28s3.085-1.44 5.625-1.44 4.78.25 6.72.75l-1.56 4.8c-1.74-.3-3.14-.45-4.2-.45s-1.96.05-2.7.15l-.24 1.47 2.01.21c2.04.22 3.49.705 4.35 1.455.86.75 1.29 1.755 1.29 3.015 0 1.28-.28 2.6-.84 3.96-.28.7-.585 1.285-.915 1.755-.33.47-.75.87-1.26 1.2-.51.33-.975.58-1.395.75-.42.17-.95.295-1.59.375-.94.14-2.09.21-3.45.21-2.48 0-4.73-.26-6.75-.78Z" style="white-space:pre;fill:#fff"/>
    <path d="M36.752 20.001c2.764 0 5-2.238 5-5.001 0-2.763-2.236-5-5-5-2.763 0-5 2.237-5 5a4.999 4.999 0 0 0 5 5.001Zm3.429 1.428h-.371a7.02 7.02 0 0 1-3.058.715 7.04 7.04 0 0 1-3.058-.715h-.37a5.145 5.145 0 0 0-5.143 5.143v1.286c0 1.182.96 2.143 2.143 2.143h12.857a2.144 2.144 0 0 0 2.143-2.143v-1.286a5.145 5.145 0 0 0-5.143-5.143Zm9.429-1.428a4.286 4.286 0 1 0-.001-8.573 4.286 4.286 0 0 0 .001 8.573Zm2.142 1.428h-.169a6 6 0 0 1-1.973.357 6 6 0 0 1-1.974-.357h-.169c-.911 0-1.75.264-2.487.688 1.089 1.173 1.772 2.732 1.772 4.455v1.714c0 .099-.022.193-.026.286h7.884a2.143 2.143 0 0 0 2.142-2.143c0-2.764-2.236-5-5-5Z" style="fill:#ddd"/>
</svg>
