<?xml version="1.0" encoding="UTF-8" standalone="no"?>
<!DOCTYPE svg PUBLIC "-//W3C//DTD SVG 1.1//EN" "http://www.w3.org/Graphics/SVG/1.1/DTD/svg11.dtd">
<svg width="100%" height="100%" viewBox="0 0 641 121" version="1.1" xmlns="http://www.w3.org/2000/svg" xmlns:xlink="http://www.w3.org/1999/xlink" xml:space="preserve" xmlns:serif="http://www.serif.com/" style="fill-rule:evenodd;clip-rule:evenodd;stroke-linejoin:round;stroke-miterlimit:2;">
    <g>
        <g>
            <path d="M116.608,83.463l-28.654,-17.81l-0,17.81l-10.845,0l0,-48.979l38.35,0c3.447,0 6.392,0.216 8.833,0.647c2.442,0.431 4.441,1.197 5.997,2.298c1.556,1.101 2.693,2.609 3.411,4.524c0.719,1.915 1.078,4.333 1.078,7.254l-0,3.375c-0,2.825 -0.383,5.159 -1.149,7.002c-0.766,1.843 -1.951,3.304 -3.555,4.381c-1.604,1.077 -3.627,1.831 -6.069,2.262c-2.442,0.431 -5.338,0.646 -8.69,0.646l-8.617,0l28.726,16.59l-18.816,0Zm7.254,-33.682c-0,-1.292 -0.144,-2.346 -0.431,-3.16c-0.288,-0.814 -0.766,-1.436 -1.437,-1.867c-0.67,-0.431 -1.604,-0.718 -2.8,-0.862c-1.197,-0.143 -2.682,-0.215 -4.453,-0.215l-26.787,-0l-0,14.938l26.787,-0c1.771,-0 3.244,-0.072 4.417,-0.216c1.173,-0.143 2.106,-0.431 2.8,-0.862c0.695,-0.43 1.185,-1.053 1.473,-1.867c0.287,-0.814 0.431,-1.891 0.431,-3.232l-0,-2.657Z" style="fill:#fff;fill-rule:nonzero;"/>
            <path d="M159.267,83.463c-3.591,0 -6.583,-0.299 -8.977,-0.898c-2.394,-0.598 -4.309,-1.556 -5.745,-2.872c-1.437,-1.317 -2.454,-3.041 -3.053,-5.171c-0.598,-2.131 -0.897,-4.752 -0.897,-7.864l-0,-5.243c-0,-3.112 0.299,-5.745 0.897,-7.899c0.599,-2.155 1.616,-3.89 3.053,-5.207c1.436,-1.317 3.351,-2.274 5.745,-2.873c2.394,-0.598 5.386,-0.897 8.977,-0.897l12.999,-0c3.638,-0 6.654,0.299 9.048,0.897c2.394,0.599 4.309,1.568 5.746,2.909c1.436,1.341 2.453,3.088 3.052,5.243c0.598,2.154 0.898,4.787 0.898,7.899l-0,5.171c-0,3.112 -0.3,5.733 -0.898,7.864c-0.599,2.13 -1.616,3.854 -3.052,5.171c-1.437,1.316 -3.352,2.274 -5.746,2.872c-2.394,0.599 -5.41,0.898 -9.048,0.898l-12.999,0Zm21.042,-21.688c-0,-1.628 -0.132,-2.969 -0.395,-4.022c-0.263,-1.053 -0.742,-1.879 -1.436,-2.478c-0.695,-0.598 -1.664,-1.005 -2.909,-1.221c-1.245,-0.215 -2.825,-0.323 -4.74,-0.323l-10.126,0c-1.915,0 -3.483,0.108 -4.704,0.323c-1.221,0.216 -2.178,0.623 -2.872,1.221c-0.695,0.599 -1.173,1.425 -1.437,2.478c-0.263,1.053 -0.395,2.394 -0.395,4.022l0,4.596c0,1.628 0.132,2.956 0.395,3.986c0.264,1.029 0.742,1.843 1.437,2.441c0.694,0.599 1.651,1.018 2.872,1.257c1.221,0.239 2.789,0.359 4.704,0.359l10.126,0c1.915,0 3.495,-0.12 4.74,-0.359c1.245,-0.239 2.214,-0.658 2.909,-1.257c0.694,-0.598 1.173,-1.412 1.436,-2.441c0.263,-1.03 0.395,-2.358 0.395,-3.986l-0,-4.596Z" style="fill:#fff;fill-rule:nonzero;"/>
            <rect x="199.125" y="31.971" width="10.916" height="51.492" style="fill:#fff;"/>
            <path d="M228.857,67.951l-0,1.795c-0,1.197 0.095,2.155 0.287,2.873c0.191,0.718 0.538,1.281 1.041,1.687c0.503,0.407 1.173,0.683 2.011,0.826c0.838,0.144 1.879,0.216 3.124,0.216l12.64,-0l-0,8.115l-12.64,0c-6.176,0 -10.581,-1.173 -13.214,-3.519c-2.633,-2.346 -3.95,-6.104 -3.95,-11.275l0,-8.977c0,-2.825 0.275,-5.207 0.826,-7.146c0.55,-1.939 1.508,-3.495 2.873,-4.668c1.364,-1.173 3.171,-2.023 5.422,-2.549c2.25,-0.527 5.099,-0.79 8.546,-0.79l18.816,-0c2.776,-0 5.087,0.263 6.93,0.79c1.843,0.526 3.303,1.256 4.381,2.19c1.077,0.934 1.831,2.059 2.262,3.375c0.431,1.317 0.646,2.741 0.646,4.273l0,12.784l-40.001,-0Zm29.301,-11.922c-0,-1.292 -0.324,-2.154 -0.97,-2.585c-0.646,-0.431 -1.783,-0.646 -3.411,-0.646l-17.811,-0c-1.34,-0 -2.465,0.059 -3.375,0.179c-0.91,0.12 -1.64,0.395 -2.19,0.826c-0.551,0.431 -0.946,1.053 -1.185,1.867c-0.24,0.814 -0.359,1.915 -0.359,3.304l-0,2.082l29.301,0l-0,-5.027Z" style="fill:#fff;fill-rule:nonzero;"/>
            <path d="M316.041,69.459l0,14.004l-10.916,0l0,-48.979l39.212,0c3.495,0 6.415,0.276 8.761,0.826c2.346,0.551 4.238,1.461 5.674,2.729c1.436,1.269 2.454,2.909 3.052,4.92c0.599,2.011 0.898,4.452 0.898,7.325l-0,4.237c-0,2.921 -0.288,5.338 -0.862,7.254c-0.575,1.915 -1.568,3.447 -2.98,4.596c-1.413,1.149 -3.292,1.951 -5.638,2.406c-2.346,0.454 -5.314,0.682 -8.905,0.682l-28.296,-0Zm35.765,-18.744c-0,-2.633 -0.563,-4.429 -1.688,-5.386c-1.125,-0.958 -3.148,-1.437 -6.068,-1.437l-28.009,0l0,16.734l28.152,-0c2.873,-0 4.86,-0.443 5.961,-1.329c1.101,-0.886 1.652,-2.621 1.652,-5.207l-0,-3.375Z" style="fill:#fff;fill-rule:nonzero;"/>
            <rect x="369.544" y="31.971" width="10.916" height="51.492" style="fill:#fff;"/>
            <path d="M402.221,83.463c-2.825,0 -5.147,-0.239 -6.967,-0.718c-1.819,-0.479 -3.267,-1.161 -4.344,-2.047c-1.078,-0.886 -1.832,-1.963 -2.263,-3.232c-0.431,-1.268 -0.646,-2.693 -0.646,-4.273l0,-3.662c0,-1.628 0.204,-3.076 0.61,-4.345c0.407,-1.269 1.114,-2.346 2.119,-3.232c1.005,-0.886 2.382,-1.556 4.129,-2.011c1.748,-0.455 3.962,-0.682 6.643,-0.682l28.799,-0l-0,-0.862c-0,-2.489 -0.503,-4.153 -1.508,-4.991c-1.006,-0.838 -2.706,-1.257 -5.099,-1.257l-10.629,0l-0,-7.612l10.629,-0c3.112,-0 5.757,0.287 7.935,0.861c2.179,0.575 3.962,1.449 5.351,2.622c1.388,1.173 2.405,2.657 3.052,4.452c0.646,1.796 0.969,3.938 0.969,6.428l0,9.48c0,2.824 -0.275,5.194 -0.826,7.109c-0.55,1.916 -1.508,3.472 -2.872,4.668c-1.365,1.197 -3.184,2.047 -5.458,2.55c-2.274,0.503 -5.135,0.754 -8.582,0.754l-21.042,0Zm28.08,-17.595l-27.649,0c-1.245,0 -2.227,0.275 -2.945,0.826c-0.718,0.551 -1.077,1.592 -1.077,3.124l-0,2.657c-0,1.389 0.383,2.346 1.149,2.873c0.766,0.526 1.843,0.79 3.232,0.79l20.108,-0c1.245,-0 2.322,-0.096 3.232,-0.287c0.909,-0.192 1.652,-0.539 2.226,-1.042c0.575,-0.503 1.006,-1.209 1.293,-2.118c0.287,-0.91 0.431,-2.083 0.431,-3.519l-0,-3.304Z" style="fill:#fff;fill-rule:nonzero;"/>
            <path d="M458.884,64.791c-0,2.154 0.467,3.65 1.4,4.488c0.934,0.838 2.502,1.257 4.704,1.257l23.915,0l0,-25.997l10.413,-0l0,38.206c0,4.357 -1.077,7.505 -3.231,9.444c-2.155,1.939 -5.674,2.908 -10.557,2.908l-15.584,0l-0,-8.761l14.65,-0c1.484,-0 2.573,-0.288 3.268,-0.862c0.694,-0.575 1.041,-1.676 1.041,-3.304l0,-3.16l-24.561,0c-2.921,0 -5.398,-0.275 -7.433,-0.825c-2.035,-0.551 -3.687,-1.401 -4.955,-2.55c-1.269,-1.149 -2.191,-2.585 -2.765,-4.309c-0.575,-1.723 -0.862,-3.758 -0.862,-6.104l-0,-20.683l10.557,-0l-0,20.252Z" style="fill:#fff;fill-rule:nonzero;"/>
            <path d="M507.862,83.463l0,-37.919l10.917,0l-0,37.919l-10.917,0Zm3.663,-41.151c-1.34,0 -2.286,-0.263 -2.837,-0.79c-0.55,-0.526 -0.826,-1.364 -0.826,-2.513l0,-4.165c0,-1.15 0.276,-1.975 0.826,-2.478c0.551,-0.503 1.497,-0.754 2.837,-0.754l3.519,-0c1.389,-0 2.358,0.251 2.909,0.754c0.55,0.503 0.826,1.328 0.826,2.478l-0,4.165c-0,1.149 -0.276,1.987 -0.826,2.513c-0.551,0.527 -1.52,0.79 -2.909,0.79l-3.519,0Z" style="fill:#fff;fill-rule:nonzero;"/>
            <path d="M566.752,83.463l-0,-21.688c-0,-1.628 -0.132,-2.957 -0.395,-3.986c-0.264,-1.03 -0.718,-1.844 -1.365,-2.442c-0.646,-0.598 -1.532,-1.017 -2.657,-1.257c-1.125,-0.239 -2.549,-0.359 -4.273,-0.359l-11.634,0c-1.676,0 -3.076,0.12 -4.202,0.359c-1.125,0.24 -2.022,0.659 -2.693,1.257c-0.67,0.598 -1.137,1.412 -1.4,2.442c-0.263,1.029 -0.395,2.358 -0.395,3.986l-0,21.688l-10.701,0l0,-22.048c0,-3.112 0.3,-5.745 0.898,-7.899c0.599,-2.155 1.616,-3.89 3.052,-5.207c1.437,-1.317 3.352,-2.274 5.746,-2.873c2.393,-0.598 5.386,-0.897 8.977,-0.897l12.998,-0c3.639,-0 6.655,0.299 9.049,0.897c2.394,0.599 4.309,1.556 5.745,2.873c1.437,1.317 2.454,3.052 3.053,5.207c0.598,2.154 0.897,4.787 0.897,7.899l0,22.048l-10.7,0Z" style="fill:#fff;fill-rule:nonzero;"/>
            <path d="M606.61,95.097l-0,-8.761l14.866,-0c1.579,-0 2.705,-0.312 3.375,-0.934c0.67,-0.622 1.005,-1.7 1.005,-3.232l0,-3.16l-24.417,0c-2.969,0 -5.494,-0.239 -7.577,-0.718c-2.082,-0.479 -3.77,-1.233 -5.063,-2.262c-1.292,-1.029 -2.226,-2.37 -2.801,-4.022c-0.574,-1.651 -0.861,-3.65 -0.861,-5.996l-0,-5.961c-0,-2.968 0.251,-5.446 0.754,-7.433c0.502,-1.987 1.388,-3.579 2.657,-4.776c1.269,-1.197 2.992,-2.047 5.171,-2.549c2.178,-0.503 4.919,-0.754 8.223,-0.754l17.379,-0c3.208,-0 5.901,0.287 8.079,0.861c2.179,0.575 3.926,1.485 5.243,2.73c1.317,1.244 2.25,2.848 2.801,4.811c0.55,1.963 0.826,4.333 0.826,7.11l-0,22.694c-0,4.357 -1.078,7.505 -3.232,9.444c-2.155,1.939 -5.674,2.908 -10.557,2.908l-15.871,0Zm19.246,-34.831c0,-2.585 -0.502,-4.332 -1.508,-5.242c-1.005,-0.91 -2.825,-1.365 -5.458,-1.365l-16.805,0c-2.489,0 -4.189,0.467 -5.099,1.401c-0.909,0.933 -1.364,2.693 -1.364,5.278l-0,5.099c-0,1.053 0.107,1.915 0.323,2.586c0.215,0.67 0.574,1.208 1.077,1.615c0.503,0.407 1.161,0.683 1.975,0.826c0.814,0.144 1.843,0.216 3.088,0.216l23.771,-0l0,-10.414Z" style="fill:#fff;fill-rule:nonzero;"/>
        </g>
        <g>
            <path d="M69.95,47.822c-0,-0 6.242,2.396 10.39,5.98c0.6,0.518 0.767,1.404 0.371,2.091c-0.673,1.165 -1.201,3.149 1.277,4.973c-0,0 5.599,3.82 8.388,8.098c0.502,0.769 0.227,1.769 -0.528,2.292c-0.711,0.493 -1.356,1.441 -1.09,3.261c0.531,3.641 1.4,16.23 -6.77,20.704c-0,0 7.756,-22.524 -11.659,-35.189l-0.379,-12.21Z" style="fill:url(#_Linear1);fill-rule:nonzero;"/>
            <path d="M5.53,9.963c7.009,0.744 20.533,3.868 27.877,16.693c0.527,0.921 0.646,2.023 0.331,3.037c-1.096,3.531 -3.314,12.552 0.502,18.129l-1.931,1.744c0,-0 -3.505,-3.221 -8.416,-4.207c-0.934,-0.188 -1.533,-1.099 -1.3,-2.023c0.725,-2.876 0.618,-8.548 -9.894,-11.511c-0.767,-0.216 -1.28,-0.945 -1.204,-1.739c0.328,-3.426 0.407,-12.453 -6.799,-18.109c-0.886,-0.695 -0.286,-2.133 0.834,-2.014Z" style="fill:url(#_Linear2);fill-rule:nonzero;"/>
            <path d="M54.773,4.994c-4.548,3.136 -12.691,10.351 -12.946,21.931c-0.018,0.832 0.312,1.635 0.909,2.216c2.077,2.021 6.982,7.402 6.442,12.671l1.982,0.478c0,-0 1.208,-3.53 4.221,-6.048c0.573,-0.479 0.643,-1.33 0.137,-1.88c-1.576,-1.709 -3.626,-5.654 2.503,-11.63c0.448,-0.436 0.528,-1.13 0.178,-1.648c-1.508,-2.236 -4.942,-8.423 -2.098,-15.015c0.35,-0.811 -0.601,-1.576 -1.328,-1.075Z" style="fill:url(#_Linear3);fill-rule:nonzero;"/>
            <path d="M99.437,34.857c-1.372,-8.409 -6.658,-12.731 -11.729,-14.944c-7.309,-3.191 -15.774,-2.674 -22.66,1.349c-9.451,5.522 -12.647,15.454 -13.434,18.523c-0.141,0.549 -0.634,0.928 -1.201,0.928c-18.342,0 -33.211,14.869 -33.211,33.21l0,0.78c0,12.917 10.471,23.388 23.388,23.388l9.927,-0c12.027,-0 21.777,-9.75 21.777,-21.777l-0,-36.351c-0,-3.317 2.689,-6.006 6.006,-6.006l0.407,-0c1.797,-0 3.253,1.456 3.253,3.253l0,6.324c0,0.663 0.318,1.279 0.848,1.677c1.493,1.12 4.468,4.1 4.832,10.243c0.043,0.709 0.625,1.266 1.335,1.266l3.641,0c0.71,0 1.293,-0.557 1.335,-1.266c0.365,-6.143 3.341,-9.123 4.833,-10.243c0.53,-0.398 0.847,-1.014 0.847,-1.677l0,-7.498c0,-0.413 -0.08,-0.804 -0.194,-1.179Z" style="fill:url(#_Linear4);fill-rule:nonzero;"/>
            <path d="M72.294,39.963c-0,-0.896 0.201,-1.743 0.553,-2.507l-11.64,2.915c0,0 -8.76,27.752 -27.11,27.996c-0,0 -11.586,1.092 -10.959,-13.383c-3.738,5.373 -5.936,11.898 -5.936,18.939l0,0.78c0,12.917 10.471,23.388 23.388,23.388l9.927,-0c12.027,-0 21.777,-9.75 21.777,-21.777l-0,-36.351Z" style="fill:#ce629d;fill-rule:nonzero;"/>
            <path d="M73.734,30.522c-0,-0 -12.521,-0 -12.979,13.372l0,28.889c0,3.036 -0.792,6.024 -2.346,8.632c-3.481,5.841 -11.502,14.549 -28.27,14.21c3.146,1.575 6.694,2.466 10.451,2.466l9.927,-0c12.027,-0 21.777,-9.75 21.777,-21.777l-0,-36.351c-0,-3.317 2.689,-6.007 6.006,-6.007l0.407,0c1.797,0 3.253,1.457 3.253,3.254l0,0.8c0,0.001 0.942,-7.488 -8.226,-7.488Z" style="fill:#eacfe8;fill-rule:nonzero;"/>
            <path d="M78.3,33.957l0.407,-0c1.797,-0 3.253,1.456 3.253,3.253l0,0.801c0,-0 0.942,-7.489 -8.226,-7.489c-0,-0 -12.521,-0 -12.979,13.372l0,3.439c2.246,-6.118 5.883,-6.124 5.883,-6.124c3.35,-0.152 4.936,1.836 5.656,3.354l-0,-4.6c-0,-3.317 2.689,-6.006 6.006,-6.006Z" style="fill:#bf9dba;fill-rule:nonzero;"/>
            <path d="M72.294,76.314l-0,-7.994c-0.355,1.471 -0.912,3.257 -1.766,4.838c-1.962,3.633 -6.932,4.285 -9.59,1.125c-0.077,-0.092 -0.151,-0.199 -0.227,-0.297c-0.181,2.618 -0.953,5.167 -2.302,7.429c-3.481,5.841 -11.502,14.549 -28.27,14.21c3.146,1.575 6.694,2.466 10.451,2.466l9.927,-0c12.027,-0 21.777,-9.75 21.777,-21.777Z" style="fill:#bf9dba;fill-rule:nonzero;"/>
            <path d="M99.631,41.334c0,0 2.885,0.635 4.987,-2.171c0.491,-0.655 0.759,-1.449 0.853,-2.261c0.112,-0.973 0.413,-2.502 1.225,-3.683c0.338,-0.492 -0.054,-1.14 -0.645,-1.051c-1.755,0.265 -4.444,1.163 -6.42,4.058l0,5.108Z" style="fill:#ce629d;fill-rule:nonzero;"/>
            <path d="M81.988,41.334c-0,0 -2.885,0.635 -4.987,-2.171c-0.491,-0.655 -0.759,-1.449 -0.853,-2.261c-0.112,-0.973 -0.413,-2.502 -1.225,-3.683c-0.338,-0.492 0.054,-1.14 0.645,-1.051c1.755,0.265 4.444,1.163 6.42,4.058l-0,5.108Z" style="fill:#ce629d;fill-rule:nonzero;"/>
            <path d="M82.159,36.778c-1.356,0 -2.456,-1.099 -2.456,-2.456l0,-3.082c0,-0.812 -0.165,-1.613 -0.505,-2.351c-0.351,-0.764 -0.946,-1.747 -1.949,-2.837c-0.291,-0.316 -0.487,-0.703 -0.545,-1.129c-0.204,-1.499 -0.455,-5.185 1.409,-8.005c0.405,-0.612 1.365,-0.305 1.367,0.429c0.001,0.329 0.008,0.687 0.025,1.065c0.125,2.92 1.252,5.679 3.006,8.018c1.058,1.41 2.296,3.961 2.099,8.055c-0.062,1.292 -1.158,2.293 -2.451,2.293Z" style="fill:#e3f3ff;fill-rule:nonzero;"/>
            <path d="M72.294,58.665l-0,17.42c-0,2.75 -0.508,5.49 -1.62,8.005c-1.81,4.092 -5.615,8.775 -13.572,9.135c-0,0 -7.416,0.323 -12.973,-1.499c-3.138,-1.029 -6.378,-1.752 -9.679,-1.834c-5.423,-0.133 -12.512,1.103 -18.031,7.003c-1.161,1.241 -0.163,3.247 1.522,3.029c4.082,-0.526 10.181,-0.719 14.838,1.693c0.449,0.233 0.868,0.517 1.284,0.806c2.57,1.788 13.767,8.914 26.692,7.126c0,-0 18.313,-0.563 23.939,-17.441c1.95,-5.85 1.841,-12.226 -0.179,-18.053c-1.779,-5.131 -5.297,-11.486 -12.221,-15.39Z" style="fill:url(#_Linear5);fill-rule:nonzero;"/>
            <path d="M84.515,74.055c-1.779,-5.131 -5.297,-11.486 -12.221,-15.39l-0,17.42c-0,2.75 -0.508,5.49 -1.62,8.005c-0.057,0.128 -0.121,0.257 -0.181,0.386c-1.837,18.328 -14.84,22.987 -23.224,24.065c4.006,1.091 8.623,1.68 13.486,1.008c0,-0 18.313,-0.563 23.939,-17.441c1.95,-5.85 1.841,-12.226 -0.179,-18.053Z" style="fill:#ce629d;fill-rule:nonzero;"/>
            <path d="M99.437,34.857c-0.068,-0.416 -0.153,-0.814 -0.239,-1.21c-0.613,4.173 -3.005,5.029 -4.532,6.396c-1.162,1.04 -2.232,2.504 -2.231,4.095c0.102,0.759 0.369,1.481 0.757,2.142c0.642,1.097 1.267,3.095 1.085,6.658c0.897,-4.48 3.256,-6.793 4.524,-7.739c0.526,-0.393 0.83,-1.008 0.83,-1.665l0,-7.498c0,-0.413 -0.08,-0.804 -0.194,-1.179Z" style="fill:#ce629d;fill-rule:nonzero;"/>
            <path d="M85.561,40.319c0.028,0.638 0.146,1.488 0.516,2.246c0.363,0.741 1.065,1.259 1.854,1.5l0.513,0.157c0.528,0.162 0.987,-0.39 0.733,-0.88c-0.491,-0.949 -1.362,-2.273 -2.79,-3.423c-0.336,-0.271 -0.846,-0.032 -0.826,0.4Z" style="fill:#fff;fill-rule:nonzero;"/>
            <path d="M96.51,40.319c-0.029,0.638 -0.147,1.488 -0.517,2.246c-0.362,0.741 -1.065,1.259 -1.854,1.5l-0.513,0.157c-0.528,0.162 -0.987,-0.39 -0.732,-0.88c0.491,-0.949 1.361,-2.273 2.789,-3.423c0.337,-0.271 0.846,-0.032 0.827,0.4Z" style="fill:#fff;fill-rule:nonzero;"/>
            <path d="M99.409,36.778c1.356,0 2.456,-1.099 2.456,-2.456l-0,-3.082c-0,-0.812 0.166,-1.613 0.505,-2.351c0.351,-0.764 0.946,-1.747 1.949,-2.837c0.291,-0.316 0.487,-0.703 0.545,-1.129c0.204,-1.499 0.455,-5.185 -1.409,-8.005c-0.405,-0.612 -1.365,-0.305 -1.367,0.429c-0.001,0.329 -0.008,0.687 -0.024,1.065c-0.125,2.92 -1.253,5.679 -3.007,8.018c-1.057,1.41 -2.296,3.961 -2.099,8.055c0.062,1.292 1.158,2.293 2.451,2.293Z" style="fill:#e3f3ff;fill-rule:nonzero;"/>
        </g>
    </g>
    <defs>
        <linearGradient id="_Linear1" x1="0" y1="0" x2="1" y2="0" gradientUnits="userSpaceOnUse" gradientTransform="matrix(10.2412,15.6057,-15.6057,10.2412,69.2787,56.3351)"><stop offset="0" style="stop-color:#c5c391;stop-opacity:1"/><stop offset="1" style="stop-color:#dee0b1;stop-opacity:1"/></linearGradient>
        <linearGradient id="_Linear2" x1="0" y1="0" x2="1" y2="0" gradientUnits="userSpaceOnUse" gradientTransform="matrix(-7.80288,-15.7683,15.7683,-7.80288,30.3251,44.5499)"><stop offset="0" style="stop-color:#c5c391;stop-opacity:1"/><stop offset="1" style="stop-color:#dee0b1;stop-opacity:1"/></linearGradient>
        <linearGradient id="_Linear3" x1="0" y1="0" x2="1" y2="0" gradientUnits="userSpaceOnUse" gradientTransform="matrix(0.650213,-19.9949,19.9949,0.650213,49.6978,37.4001)"><stop offset="0" style="stop-color:#c5c391;stop-opacity:1"/><stop offset="1" style="stop-color:#dee0b1;stop-opacity:1"/></linearGradient>
        <linearGradient id="_Linear4" x1="0" y1="0" x2="1" y2="0" gradientUnits="userSpaceOnUse" gradientTransform="matrix(-2.10146e-05,131.968,-131.968,-2.10146e-05,58.417,24.1495)"><stop offset="0" style="stop-color:#ff88c5;stop-opacity:1"/><stop offset="1" style="stop-color:#d569a2;stop-opacity:1"/></linearGradient>
        <linearGradient id="_Linear5" x1="0" y1="0" x2="1" y2="0" gradientUnits="userSpaceOnUse" gradientTransform="matrix(94.7028,-18.0796,18.0796,94.7028,26.1186,91.9278)"><stop offset="0" style="stop-color:#ff88c5;stop-opacity:1"/><stop offset="1" style="stop-color:#d569a2;stop-opacity:1"/></linearGradient>
    </defs>
</svg>
