<svg viewBox="0 0 200 40" xmlns="http://www.w3.org/2000/svg">
    <path d="m65.197 29.202 3.3-18.75h7.98c2.58 0 4.415.455 5.505 1.365 1.09.91 1.635 2.385 1.635 4.425 0 1.04-.12 2.24-.36 3.6-.6 3.36-1.625 5.76-3.075 7.2-1.45 1.44-3.785 2.16-7.005 2.16Zm10.5-13.95h-2.37l-1.59 9.15h2.37c.78 0 1.36-.095 1.74-.285.38-.19.63-.625.75-1.305l1.05-5.97c.02-.12.03-.28.03-.48 0-.46-.16-.76-.48-.9-.32-.14-.82-.21-1.5-.21Zm21.48 6.87h-5.7l-.39 2.28h6.99l-.84 4.8h-12.69l3.3-18.75h12.54l-1.56 4.8h-6.15l-.42 2.52h5.7Zm8.669 7.08h-5.94l4.38-18.75h7.44l.54 9.54h.21l3.9-9.54h7.44l-2.22 18.75h-5.97l1.26-9.09h-.21l-3.75 9.09h-4.35l-.63-9.09h-.15Zm26.4-12.48-1.38 7.8h2.37c.78 0 1.36-.095 1.74-.285.38-.19.63-.625.75-1.305l1.38-7.8h-2.4c-.76 0-1.33.095-1.71.285-.38.19-.63.625-.75 1.305Zm3.45-6.72c2.54 0 4.35.495 5.43 1.485 1.08.99 1.62 2.515 1.62 4.575s-.325 4.215-.975 6.465c-.65 2.25-1.68 4-3.09 5.25s-3.47 1.875-6.18 1.875c-2.71 0-4.605-.495-5.685-1.485-1.08-.99-1.62-2.515-1.62-4.575 0-.98.14-2.275.42-3.885.28-1.61.65-3 1.11-4.17.46-1.17 1.08-2.185 1.86-3.045 1.5-1.66 3.87-2.49 7.11-2.49Zm7.439 18.87 1.68-4.95c1.68.46 3.22.69 4.62.69s2.53-.06 3.39-.18l.24-1.5-2.49-.24c-1.9-.18-3.245-.61-4.035-1.29s-1.185-1.64-1.185-2.88c0-.54.06-1.14.18-1.8.46-2.56 1.295-4.32 2.505-5.28s3.085-1.44 5.625-1.44 4.78.25 6.72.75l-1.56 4.8c-1.74-.3-3.14-.45-4.2-.45s-1.96.05-2.7.15l-.24 1.47 2.01.21c2.04.22 3.49.705 4.35 1.455.86.75 1.29 1.755 1.29 3.015 0 1.28-.28 2.6-.84 3.96-.28.7-.585 1.285-.915 1.755-.33.47-.75.87-1.26 1.2-.51.33-.975.58-1.395.75-.42.17-.95.295-1.59.375-.94.14-2.09.21-3.45.21-2.48 0-4.73-.26-6.75-.78Z" style="fill:#fff;white-space:pre"/>
    <path d="M46.75 18.965a.24.24 0 0 0 .222-.148c.099-.436.332-.83.665-1.128.056-.036.074-.11.074-.184a.185.185 0 0 0-.092-.148l-5.212-3.05 3.327-1.941a.444.444 0 0 0 .222-.369.41.41 0 0 0-.222-.37l-.998-.573a.435.435 0 0 0-.425 0l-4.474 2.587a.446.446 0 0 0-.221.37v5.139a.405.405 0 0 0 .221.369l.999.573a.39.39 0 0 0 .221.056.419.419 0 0 0 .296-.111.484.484 0 0 0 .13-.314v-3.808l5.175 3.031c.029.014.061.02.092.019Zm6.766 6.469a.552.552 0 0 0-.222.056l-3.327 1.922v-5.989c0-.129-.13-.259-.278-.203a2.37 2.37 0 0 1-1.294.018.218.218 0 0 0-.277.204v5.951l-3.327-1.922a.393.393 0 0 0-.222-.055.43.43 0 0 0-.425.425v1.164a.406.406 0 0 0 .222.37l4.473 2.569c.067.04.144.06.222.056a.494.494 0 0 0 .222-.056l4.473-2.569a.443.443 0 0 0 .222-.37v-1.164c-.037-.203-.24-.407-.462-.407Zm-1.664-13.38a1.027 1.027 0 1 0 0-2.053 1.027 1.027 0 0 0 0 2.053Zm2.841-.451a1.027 1.027 0 1 0 0 2.054 1.027 1.027 0 0 0 0-2.054Zm2.82 3.736a1.027 1.027 0 1 0 .001-2.054 1.027 1.027 0 0 0-.001 2.054Zm-2.82-.41a1.027 1.027 0 1 0 0 2.052 1.027 1.027 0 0 0 0-2.052Zm-2.841 3.716a1.027 1.027 0 1 0 0-2.053 1.027 1.027 0 0 0 0 2.053Zm-2.771 1.623a1.027 1.027 0 1 0 0-2.054 1.027 1.027 0 0 0 0 2.054Zm8.432-3.677a1.027 1.027 0 1 0 0 2.054 1.027 1.027 0 0 0 0-2.054Zm0 3.227a1.027 1.027 0 1 0 0 2.053 1.027 1.027 0 0 0 0-2.053Z" style="fill:#ccc"/>
</svg>
