<?xml version="1.0" encoding="UTF-8" standalone="no"?>
<!DOCTYPE svg PUBLIC "-//W3C//DTD SVG 1.1//EN" "http://www.w3.org/Graphics/SVG/1.1/DTD/svg11.dtd">
<svg width="100%" height="100%" viewBox="0 0 632 69" version="1.1" xmlns="http://www.w3.org/2000/svg" xmlns:xlink="http://www.w3.org/1999/xlink" xml:space="preserve" xmlns:serif="http://www.serif.com/" style="fill-rule:evenodd;clip-rule:evenodd;stroke-linejoin:round;stroke-miterlimit:2;">
    <g transform="matrix(1,0,0,1,-824,-501)">
        <g id="auto-roleplayings.afdesign" transform="matrix(1,0,0,1,1140,535.556)">
            <g transform="matrix(1,0,0,1,-319.996,-59.9956)">
                <clipPath id="_clip1">
                    <rect x="3.992" y="25.728" width="632.008" height="68.535"/>
                </clipPath>
                <g clip-path="url(#_clip1)">
                    <g transform="matrix(1.24453,0,0,1.24453,1.28968,-259.347)">
                        <g transform="matrix(2.64732,0,0,2.64732,-8.87887,202.065)">
                            <path d="M4.504,29.65C4.504,29.646 4.555,29.334 4.617,28.955C4.679,28.58 4.767,28.033 4.813,27.744L4.896,27.219L8.343,23.658L11.787,20.098L10.185,18.442L8.583,16.787L8.232,17.149L7.881,17.509L7.52,17.634C7.324,17.703 6.801,17.884 6.361,18.041C5.5,18.341 5.388,18.381 5.375,18.381C5.37,18.381 6.002,17.723 6.779,16.918L8.196,15.457L7.717,14.964C7.454,14.691 7.233,14.471 7.226,14.477C7.219,14.48 7.216,14.477 7.216,14.464C7.221,14.453 7.213,14.446 7.202,14.449C7.192,14.45 7.186,14.442 7.188,14.433C7.189,14.422 7.182,14.416 7.173,14.418C7.164,14.419 7.156,14.412 7.157,14.402C7.16,14.392 7.153,14.383 7.143,14.387C7.133,14.388 7.126,14.381 7.128,14.372C7.13,14.361 7.123,14.352 7.112,14.355C7.102,14.358 7.097,14.351 7.098,14.34C7.101,14.33 7.093,14.322 7.082,14.325C7.074,14.327 7.066,14.318 7.068,14.309C7.07,14.298 7.063,14.291 7.053,14.294C7.044,14.295 7.036,14.288 7.037,14.278C7.041,14.268 7.033,14.26 7.022,14.264C7.013,14.265 7.006,14.257 7.008,14.248C7.011,14.237 7.003,14.229 6.992,14.232C6.984,14.234 6.976,14.226 6.978,14.217C6.981,14.207 6.973,14.199 6.964,14.202C6.954,14.203 6.946,14.196 6.947,14.186C6.951,14.175 6.943,14.167 6.933,14.17C6.923,14.172 6.916,14.164 6.919,14.154C6.922,14.144 6.913,14.135 6.902,14.139C6.895,14.141 6.887,14.132 6.888,14.124C6.891,14.114 6.884,14.106 6.874,14.109C6.864,14.111 6.856,14.102 6.857,14.093C6.861,14.082 6.853,14.075 6.843,14.077C6.833,14.078 6.826,14.072 6.829,14.063C6.83,14.051 6.824,14.044 6.812,14.045C6.805,14.048 6.797,14.041 6.798,14.032C6.801,14.02 6.794,14.013 6.784,14.016C6.774,14.017 6.766,14.009 6.768,14C6.772,13.989 6.763,13.982 6.753,13.986C6.744,13.987 6.737,13.979 6.739,13.969C6.742,13.958 6.734,13.95 6.723,13.954C6.713,13.955 6.707,13.947 6.708,13.938C6.71,13.929 6.704,13.92 6.694,13.923C6.685,13.925 6.676,13.917 6.678,13.907C6.682,13.897 6.673,13.889 6.664,13.892C6.654,13.893 6.647,13.886 6.649,13.878C6.652,13.865 6.644,13.858 6.633,13.861C6.623,13.862 6.617,13.855 6.617,13.846C6.62,13.835 6.615,13.826 6.604,13.831C6.595,13.832 6.587,13.825 6.588,13.814C6.592,13.804 6.584,13.796 6.574,13.799C6.565,13.801 6.556,13.793 6.559,13.785C6.562,13.773 6.554,13.765 6.543,13.769C6.535,13.77 6.527,13.762 6.529,13.753C6.532,13.741 6.524,13.735 6.514,13.738C6.505,13.738 6.497,13.731 6.498,13.722C6.502,13.711 6.494,13.703 6.484,13.706C6.475,13.709 6.466,13.7 6.469,13.691C6.472,13.68 6.463,13.673 6.453,13.677C6.445,13.677 6.437,13.669 6.439,13.661C6.442,13.649 6.434,13.642 6.424,13.644C6.415,13.645 6.407,13.639 6.408,13.629C6.41,13.619 6.404,13.61 6.394,13.613C6.385,13.615 6.376,13.608 6.379,13.597C6.382,13.587 6.373,13.58 6.364,13.583C6.355,13.584 6.347,13.576 6.349,13.567C6.352,13.555 6.344,13.548 6.334,13.552C6.325,13.554 6.317,13.546 6.319,13.537C6.323,13.526 6.315,13.518 6.305,13.52C6.295,13.523 6.287,13.515 6.289,13.505C6.292,13.494 6.284,13.487 6.274,13.49C6.265,13.491 6.257,13.485 6.26,13.475C6.262,13.464 6.254,13.457 6.244,13.46C6.236,13.46 6.228,13.453 6.229,13.443C6.232,13.433 6.225,13.424 6.214,13.428C6.205,13.43 6.197,13.421 6.2,13.412C6.202,13.402 6.194,13.394 6.184,13.397C6.175,13.399 6.169,13.391 6.169,13.381C6.172,13.371 6.164,13.363 6.151,13.366C6.139,13.37 6.135,13.366 6.14,13.36C6.148,13.353 5.971,13.161 5.752,12.933L5.351,12.519L5.245,12.519C5.078,12.519 4.824,12.434 4.682,12.332C4.632,12.294 4.614,12.294 4.641,12.33C4.66,12.353 4.659,12.355 4.637,12.335C4.621,12.323 4.613,12.307 4.617,12.302C4.627,12.286 4.584,12.251 4.568,12.263C4.56,12.267 4.542,12.257 4.527,12.24C4.512,12.223 4.506,12.209 4.512,12.209C4.517,12.209 4.512,12.196 4.498,12.178C4.482,12.161 4.465,12.151 4.459,12.155C4.454,12.158 4.432,12.145 4.413,12.121C4.393,12.101 4.387,12.085 4.398,12.094C4.411,12.102 4.416,12.098 4.411,12.084C4.408,12.072 4.397,12.064 4.389,12.066C4.38,12.066 4.363,12.058 4.351,12.043C4.315,12.005 4.206,11.787 4.206,11.762C4.206,11.749 4.223,11.777 4.244,11.823C4.291,11.929 4.371,12.059 4.382,12.048C4.387,12.045 4.379,12.027 4.366,12.013C4.323,11.963 4.236,11.765 4.203,11.643C4.177,11.543 4.174,11.493 4.178,11.322C4.183,11.153 4.191,11.099 4.225,10.996C4.279,10.829 4.366,10.684 4.487,10.549C4.542,10.488 4.572,10.45 4.557,10.461C4.534,10.48 4.536,10.472 4.564,10.441C4.6,10.399 4.627,10.383 4.594,10.423C4.582,10.437 4.581,10.447 4.592,10.447C4.607,10.447 4.632,10.416 4.632,10.393C4.632,10.386 4.648,10.371 4.669,10.356L4.707,10.335L4.669,10.367C4.614,10.414 4.641,10.408 4.74,10.347C4.901,10.249 5.04,10.21 5.261,10.202C5.423,10.198 5.475,10.202 5.573,10.228C5.687,10.26 5.835,10.329 5.915,10.386C5.965,10.423 5.981,10.423 5.956,10.387C5.936,10.364 5.938,10.362 5.96,10.383C5.974,10.393 5.984,10.408 5.979,10.414C5.968,10.432 6.012,10.467 6.028,10.456C6.036,10.451 6.056,10.461 6.071,10.482L6.1,10.517L6.061,10.486L6.024,10.453L6.06,10.496C6.079,10.52 6.101,10.535 6.11,10.53C6.116,10.525 6.119,10.53 6.118,10.542C6.115,10.553 6.122,10.56 6.13,10.559C6.139,10.557 6.164,10.575 6.183,10.598C6.217,10.636 6.217,10.639 6.185,10.611C6.167,10.594 6.151,10.587 6.151,10.596C6.151,10.617 6.204,10.666 6.214,10.655C6.218,10.65 6.23,10.66 6.242,10.673C6.262,10.699 6.26,10.7 6.236,10.681C6.204,10.652 6.204,10.671 6.239,10.721C6.339,10.867 6.421,11.137 6.421,11.315L6.421,11.412L9.265,14.352L10.68,12.89C11.458,12.085 12.095,11.433 12.095,11.439C12.095,11.443 12.041,11.614 11.973,11.817C11.907,12.02 11.84,12.225 11.825,12.27C11.603,12.956 11.254,14.008 11.243,14.029C11.235,14.045 11.2,14.085 11.167,14.118C11.134,14.152 11.11,14.185 11.115,14.191C11.12,14.2 11.115,14.203 11.103,14.202C11.092,14.199 11.086,14.207 11.088,14.217C11.089,14.226 11.082,14.234 11.074,14.232C11.062,14.229 11.055,14.237 11.058,14.248C11.059,14.257 11.053,14.265 11.043,14.264C11.033,14.26 11.025,14.268 11.029,14.278C11.03,14.288 11.022,14.295 11.013,14.294C11.003,14.291 10.996,14.298 10.998,14.309C11.001,14.318 10.993,14.327 10.984,14.325C10.974,14.322 10.966,14.33 10.969,14.34C10.969,14.351 10.963,14.358 10.954,14.355C10.943,14.352 10.935,14.361 10.939,14.372C10.941,14.381 10.932,14.388 10.924,14.387C10.913,14.383 10.906,14.392 10.908,14.402C10.911,14.412 10.903,14.419 10.894,14.418C10.884,14.416 10.876,14.422 10.879,14.433C10.879,14.442 10.873,14.45 10.863,14.449C10.854,14.446 10.845,14.453 10.849,14.464C10.851,14.474 10.842,14.48 10.834,14.479C10.823,14.477 10.816,14.485 10.819,14.495C10.821,14.505 10.813,14.513 10.804,14.51C10.794,14.507 10.786,14.516 10.789,14.525C10.789,14.535 10.784,14.543 10.774,14.542C10.764,14.538 10.756,14.546 10.758,14.556C10.761,14.566 10.753,14.574 10.744,14.572C10.733,14.57 10.726,14.577 10.729,14.589C10.731,14.596 10.723,14.604 10.715,14.604C10.704,14.601 10.696,14.608 10.699,14.619C10.701,14.628 10.694,14.636 10.684,14.634C10.674,14.632 10.666,14.639 10.67,14.65C10.671,14.659 10.663,14.668 10.654,14.665C10.644,14.662 10.636,14.669 10.639,14.681C10.641,14.69 10.633,14.698 10.625,14.697C10.614,14.693 10.606,14.701 10.609,14.711C10.611,14.723 10.606,14.729 10.599,14.723C10.593,14.719 10.578,14.723 10.571,14.736C10.558,14.75 10.929,15.141 12.155,16.409L13.756,18.063L15.358,16.409C16.24,15.499 16.96,14.748 16.96,14.744C16.96,14.736 16.951,14.73 16.943,14.73C16.936,14.73 16.93,14.736 16.936,14.744C16.939,14.75 16.228,15.494 15.353,16.397L13.764,18.041L12.169,16.39L10.575,14.739L12.169,16.381L13.764,18.024L15.347,16.388L16.929,14.754L16.582,14.392C16.391,14.193 16.243,14.036 16.253,14.041C16.262,14.045 16.272,14.048 16.272,14.045C16.272,14.042 16.225,13.904 16.172,13.738C16.118,13.573 15.945,13.053 15.792,12.581C15.638,12.109 15.491,11.656 15.462,11.577C15.427,11.467 15.42,11.428 15.432,11.414C15.446,11.402 15.449,11.403 15.445,11.42C15.443,11.433 15.447,11.442 15.456,11.44C15.464,11.439 16.097,12.087 16.863,12.88L18.255,14.321L16.855,12.882L15.456,11.443L16.855,12.894L18.255,14.344L19.672,12.88L21.091,11.412L21.091,11.312C21.091,11.142 21.178,10.859 21.27,10.726C21.304,10.678 21.31,10.655 21.283,10.672C21.273,10.681 21.271,10.678 21.276,10.664C21.285,10.653 21.294,10.649 21.297,10.653C21.308,10.666 21.36,10.617 21.36,10.596C21.36,10.587 21.345,10.594 21.328,10.611C21.308,10.626 21.318,10.614 21.343,10.581C21.401,10.52 21.429,10.501 21.381,10.559C21.366,10.578 21.378,10.569 21.411,10.541C21.468,10.486 21.485,10.459 21.44,10.495C21.426,10.505 21.432,10.492 21.456,10.466C21.482,10.437 21.504,10.414 21.507,10.414C21.512,10.414 21.503,10.429 21.488,10.447C21.473,10.462 21.466,10.477 21.476,10.477C21.495,10.477 21.543,10.423 21.532,10.411C21.528,10.408 21.538,10.395 21.55,10.383C21.575,10.362 21.576,10.364 21.556,10.39C21.53,10.423 21.548,10.423 21.597,10.386C21.677,10.329 21.824,10.26 21.939,10.228C22.037,10.202 22.089,10.198 22.25,10.202C22.471,10.21 22.61,10.249 22.772,10.347C22.871,10.408 22.885,10.411 22.856,10.374C22.837,10.349 22.838,10.347 22.862,10.367C22.875,10.38 22.885,10.392 22.88,10.396C22.87,10.408 22.902,10.447 22.921,10.447C22.93,10.447 22.927,10.433 22.916,10.419C22.906,10.404 22.915,10.408 22.937,10.429C22.982,10.471 22.992,10.492 22.952,10.46C22.937,10.448 22.97,10.488 23.026,10.549C23.145,10.684 23.233,10.829 23.286,10.996C23.321,11.099 23.328,11.153 23.334,11.322C23.338,11.493 23.335,11.543 23.308,11.643C23.275,11.765 23.188,11.963 23.147,12.013C23.132,12.027 23.125,12.045 23.13,12.048C23.141,12.059 23.22,11.929 23.267,11.823C23.289,11.777 23.307,11.749 23.307,11.762C23.307,11.787 23.196,12.005 23.162,12.043C23.149,12.058 23.132,12.066 23.124,12.066C23.114,12.064 23.104,12.072 23.1,12.084C23.095,12.098 23.1,12.102 23.114,12.094C23.125,12.085 23.119,12.101 23.098,12.121C23.079,12.145 23.058,12.158 23.053,12.155C23.045,12.151 23.03,12.161 23.014,12.178C23,12.196 22.994,12.209 23,12.209C23.006,12.209 23,12.223 22.985,12.24C22.97,12.257 22.952,12.267 22.944,12.263C22.928,12.251 22.885,12.286 22.895,12.302C22.902,12.313 22.861,12.35 22.801,12.386C22.758,12.412 22.787,12.38 22.837,12.347C22.865,12.33 22.886,12.31 22.882,12.307C22.877,12.302 22.856,12.313 22.832,12.33C22.688,12.434 22.433,12.519 22.26,12.519L22.161,12.519L20.743,13.986L19.325,15.45L20.719,16.888L22.116,18.326L20.732,16.888L19.347,15.45L20.745,16.888C21.51,17.678 22.139,18.328 22.139,18.331C22.139,18.333 22.134,18.331 22.124,18.326C22.116,18.322 22.11,18.325 22.11,18.332C22.11,18.348 22.131,18.355 22.158,18.351C22.165,18.349 22.163,18.363 22.155,18.381C22.134,18.418 22.118,18.418 22.057,18.386C22.033,18.373 22.023,18.368 22.038,18.373C22.11,18.392 22.146,18.399 22.137,18.389C22.134,18.385 21.95,18.319 21.733,18.243C21.12,18.027 19.759,17.552 19.684,17.523C19.604,17.496 19.585,17.503 19.657,17.536C19.691,17.553 19.694,17.557 19.669,17.552C19.646,17.544 19.489,17.393 19.283,17.185L18.935,16.826L17.352,18.463L15.77,20.098L19.209,23.65C21.1,25.604 22.648,27.207 22.648,27.211C22.648,27.215 21.097,25.616 19.202,23.658L15.754,20.098L17.341,18.457C18.304,17.465 18.935,16.821 18.947,16.826C18.959,16.831 18.965,16.826 18.963,16.815C18.959,16.805 18.95,16.795 18.942,16.792C18.934,16.788 18.206,17.531 17.326,18.442L15.725,20.098L19.171,23.658L22.616,27.219L22.669,27.536C22.697,27.71 22.786,28.253 22.865,28.742C22.944,29.231 23.013,29.634 23.018,29.64C23.023,29.644 23.023,29.605 23.018,29.554L23.008,29.461L23.026,29.535C23.047,29.646 23.037,29.661 22.943,29.65C22.901,29.644 22.367,29.554 21.758,29.448L20.653,29.256L18.47,27.001C17.27,25.76 16.285,24.749 16.28,24.754C16.276,24.758 17.257,25.779 18.461,27.022C19.664,28.266 20.647,29.284 20.642,29.284C20.637,29.284 19.086,27.684 17.196,25.731L13.756,22.177L10.315,25.732C8.12,28 6.867,29.286 6.853,29.279C6.836,29.273 6.836,29.27 6.855,29.27C6.867,29.268 8.426,27.669 10.315,25.716L13.756,22.161L13.906,22.317C13.988,22.401 14.055,22.466 14.055,22.462C14.055,22.457 13.987,22.381 13.903,22.296L13.75,22.137L10.305,25.694L6.863,29.251L6.323,29.344C6.026,29.395 5.523,29.483 5.2,29.539C4.506,29.661 4.504,29.661 4.504,29.65ZM15.171,23.601C14.566,22.974 14.065,22.463 14.06,22.463C14.052,22.463 14.547,22.977 15.156,23.607C15.763,24.235 16.265,24.749 16.268,24.745C16.272,24.742 15.779,24.227 15.171,23.601ZM19.609,17.49C19.609,17.478 18.981,16.834 18.969,16.834C18.964,16.834 19.103,16.984 19.28,17.166C19.457,17.349 19.604,17.498 19.604,17.498C19.607,17.498 19.609,17.496 19.609,17.49ZM16.609,14.383C16.431,14.2 16.28,14.048 16.276,14.048C16.269,14.048 16.412,14.203 16.592,14.391C16.772,14.575 16.924,14.727 16.927,14.722C16.929,14.719 16.788,14.566 16.609,14.383ZM4.565,12.249C4.565,12.247 4.552,12.234 4.539,12.223C4.515,12.203 4.513,12.206 4.533,12.228C4.552,12.255 4.565,12.263 4.565,12.249ZM22.979,12.228C22.999,12.206 22.997,12.203 22.975,12.223C22.958,12.234 22.947,12.247 22.947,12.249C22.947,12.263 22.958,12.255 22.979,12.228ZM4.459,12.142C4.459,12.138 4.447,12.126 4.435,12.115C4.411,12.095 4.41,12.097 4.428,12.121C4.447,12.146 4.459,12.154 4.459,12.142ZM23.084,12.121C23.103,12.097 23.101,12.095 23.079,12.115C23.063,12.126 23.053,12.138 23.053,12.142C23.053,12.154 23.063,12.146 23.084,12.121Z" style="fill:rgb(166,165,165);fill-rule:nonzero;stroke:rgb(127,127,127);stroke-width:0.15px;"/>
                        </g>
                        <g transform="matrix(4.80878,0,0,4.80878,355.638,274.783)">
                            <g transform="matrix(1,0,0,1,-62.0281,0)">
                                <path d="M7.296,0L2.508,-2.976L2.508,0L0.696,0L0.696,-8.184L7.104,-8.184C7.68,-8.184 8.172,-8.148 8.58,-8.076C8.988,-8.004 9.322,-7.876 9.582,-7.692C9.842,-7.508 10.032,-7.256 10.152,-6.936C10.272,-6.616 10.332,-6.212 10.332,-5.724L10.332,-5.16C10.332,-4.688 10.268,-4.298 10.14,-3.99C10.012,-3.682 9.814,-3.438 9.546,-3.258C9.278,-3.078 8.94,-2.952 8.532,-2.88C8.124,-2.808 7.64,-2.772 7.08,-2.772L5.64,-2.772L10.44,0L7.296,0ZM8.508,-5.628C8.508,-5.844 8.484,-6.02 8.436,-6.156C8.388,-6.292 8.308,-6.396 8.196,-6.468C8.084,-6.54 7.928,-6.588 7.728,-6.612C7.528,-6.636 7.28,-6.648 6.984,-6.648L2.508,-6.648L2.508,-4.152L6.984,-4.152C7.28,-4.152 7.526,-4.164 7.722,-4.188C7.918,-4.212 8.074,-4.26 8.19,-4.332C8.306,-4.404 8.388,-4.508 8.436,-4.644C8.484,-4.78 8.508,-4.96 8.508,-5.184L8.508,-5.628Z" style="fill:white;fill-rule:nonzero;"/>
                            </g>
                            <g transform="matrix(1,0,0,1,-51.3721,0)">
                                <path d="M3.768,0C3.168,0 2.668,-0.05 2.268,-0.15C1.868,-0.25 1.548,-0.41 1.308,-0.63C1.068,-0.85 0.898,-1.138 0.798,-1.494C0.698,-1.85 0.648,-2.288 0.648,-2.808L0.648,-3.684C0.648,-4.204 0.698,-4.644 0.798,-5.004C0.898,-5.364 1.068,-5.654 1.308,-5.874C1.548,-6.094 1.868,-6.254 2.268,-6.354C2.668,-6.454 3.168,-6.504 3.768,-6.504L5.94,-6.504C6.548,-6.504 7.052,-6.454 7.452,-6.354C7.852,-6.254 8.172,-6.092 8.412,-5.868C8.652,-5.644 8.822,-5.352 8.922,-4.992C9.022,-4.632 9.072,-4.192 9.072,-3.672L9.072,-2.808C9.072,-2.288 9.022,-1.85 8.922,-1.494C8.822,-1.138 8.652,-0.85 8.412,-0.63C8.172,-0.41 7.852,-0.25 7.452,-0.15C7.052,-0.05 6.548,0 5.94,0L3.768,0ZM7.284,-3.624C7.284,-3.896 7.262,-4.12 7.218,-4.296C7.174,-4.472 7.094,-4.61 6.978,-4.71C6.862,-4.81 6.7,-4.878 6.492,-4.914C6.284,-4.95 6.02,-4.968 5.7,-4.968L4.008,-4.968C3.688,-4.968 3.426,-4.95 3.222,-4.914C3.018,-4.878 2.858,-4.81 2.742,-4.71C2.626,-4.61 2.546,-4.472 2.502,-4.296C2.458,-4.12 2.436,-3.896 2.436,-3.624L2.436,-2.856C2.436,-2.584 2.458,-2.362 2.502,-2.19C2.546,-2.018 2.626,-1.882 2.742,-1.782C2.858,-1.682 3.018,-1.612 3.222,-1.572C3.426,-1.532 3.688,-1.512 4.008,-1.512L5.7,-1.512C6.02,-1.512 6.284,-1.532 6.492,-1.572C6.7,-1.612 6.862,-1.682 6.978,-1.782C7.094,-1.882 7.174,-2.018 7.218,-2.19C7.262,-2.362 7.284,-2.584 7.284,-2.856L7.284,-3.624Z" style="fill:white;fill-rule:nonzero;"/>
                            </g>
                            <g transform="matrix(1,0,0,1,-51.3721,0)">
                                <rect x="10.428" y="-8.604" width="1.824" height="8.604" style="fill:white;"/>
                            </g>
                            <g transform="matrix(1,0,0,1,-51.3721,0)">
                                <path d="M15.396,-2.592L15.396,-2.292C15.396,-2.092 15.412,-1.932 15.444,-1.812C15.476,-1.692 15.534,-1.598 15.618,-1.53C15.702,-1.462 15.814,-1.416 15.954,-1.392C16.094,-1.368 16.268,-1.356 16.476,-1.356L18.588,-1.356L18.588,0L16.476,0C15.444,0 14.708,-0.196 14.268,-0.588C13.828,-0.98 13.608,-1.608 13.608,-2.472L13.608,-3.972C13.608,-4.444 13.654,-4.842 13.746,-5.166C13.838,-5.49 13.998,-5.75 14.226,-5.946C14.454,-6.142 14.756,-6.284 15.132,-6.372C15.508,-6.46 15.984,-6.504 16.56,-6.504L19.704,-6.504C20.168,-6.504 20.554,-6.46 20.862,-6.372C21.17,-6.284 21.414,-6.162 21.594,-6.006C21.774,-5.85 21.9,-5.662 21.972,-5.442C22.044,-5.222 22.08,-4.984 22.08,-4.728L22.08,-2.592L15.396,-2.592ZM20.292,-4.584C20.292,-4.8 20.238,-4.944 20.13,-5.016C20.022,-5.088 19.832,-5.124 19.56,-5.124L16.584,-5.124C16.36,-5.124 16.172,-5.114 16.02,-5.094C15.868,-5.074 15.746,-5.028 15.654,-4.956C15.562,-4.884 15.496,-4.78 15.456,-4.644C15.416,-4.508 15.396,-4.324 15.396,-4.092L15.396,-3.744L20.292,-3.744L20.292,-4.584Z" style="fill:white;fill-rule:nonzero;"/>
                            </g>
                            <g transform="matrix(1,0,0,1,-51.3721,0)">
                                <path d="M29.964,-2.34L29.964,0L28.14,0L28.14,-8.184L34.692,-8.184C35.276,-8.184 35.764,-8.138 36.156,-8.046C36.548,-7.954 36.864,-7.802 37.104,-7.59C37.344,-7.378 37.514,-7.104 37.614,-6.768C37.714,-6.432 37.764,-6.024 37.764,-5.544L37.764,-4.836C37.764,-4.348 37.716,-3.944 37.62,-3.624C37.524,-3.304 37.358,-3.048 37.122,-2.856C36.886,-2.664 36.572,-2.53 36.18,-2.454C35.788,-2.378 35.292,-2.34 34.692,-2.34L29.964,-2.34ZM35.94,-5.472C35.94,-5.912 35.846,-6.212 35.658,-6.372C35.47,-6.532 35.132,-6.612 34.644,-6.612L29.964,-6.612L29.964,-3.816L34.668,-3.816C35.148,-3.816 35.48,-3.89 35.664,-4.038C35.848,-4.186 35.94,-4.476 35.94,-4.908L35.94,-5.472Z" style="fill:white;fill-rule:nonzero;"/>
                            </g>
                            <g transform="matrix(1,0,0,1,-51.3721,0)">
                                <rect x="38.904" y="-8.604" width="1.824" height="8.604" style="fill:white;"/>
                            </g>
                            <g transform="matrix(1,0,0,1,-51.3721,0)">
                                <path d="M44.364,0C43.892,0 43.504,-0.04 43.2,-0.12C42.896,-0.2 42.654,-0.314 42.474,-0.462C42.294,-0.61 42.168,-0.79 42.096,-1.002C42.024,-1.214 41.988,-1.452 41.988,-1.716L41.988,-2.328C41.988,-2.6 42.022,-2.842 42.09,-3.054C42.158,-3.266 42.276,-3.446 42.444,-3.594C42.612,-3.742 42.842,-3.854 43.134,-3.93C43.426,-4.006 43.796,-4.044 44.244,-4.044L49.056,-4.044L49.056,-4.188C49.056,-4.604 48.972,-4.882 48.804,-5.022C48.636,-5.162 48.352,-5.232 47.952,-5.232L46.176,-5.232L46.176,-6.504L47.952,-6.504C48.472,-6.504 48.914,-6.456 49.278,-6.36C49.642,-6.264 49.94,-6.118 50.172,-5.922C50.404,-5.726 50.574,-5.478 50.682,-5.178C50.79,-4.878 50.844,-4.52 50.844,-4.104L50.844,-2.52C50.844,-2.048 50.798,-1.652 50.706,-1.332C50.614,-1.012 50.454,-0.752 50.226,-0.552C49.998,-0.352 49.694,-0.21 49.314,-0.126C48.934,-0.042 48.456,0 47.88,0L44.364,0ZM49.056,-2.94L44.436,-2.94C44.228,-2.94 44.064,-2.894 43.944,-2.802C43.824,-2.71 43.764,-2.536 43.764,-2.28L43.764,-1.836C43.764,-1.604 43.828,-1.444 43.956,-1.356C44.084,-1.268 44.264,-1.224 44.496,-1.224L47.856,-1.224C48.064,-1.224 48.244,-1.24 48.396,-1.272C48.548,-1.304 48.672,-1.362 48.768,-1.446C48.864,-1.53 48.936,-1.648 48.984,-1.8C49.032,-1.952 49.056,-2.148 49.056,-2.388L49.056,-2.94Z" style="fill:white;fill-rule:nonzero;"/>
                            </g>
                            <path d="M2.46,-3.12C2.46,-2.76 2.538,-2.51 2.694,-2.37C2.85,-2.23 3.112,-2.16 3.48,-2.16L7.476,-2.16L7.476,-6.504L9.216,-6.504L9.216,-0.12C9.216,0.608 9.036,1.134 8.676,1.458C8.316,1.782 7.728,1.944 6.912,1.944L4.308,1.944L4.308,0.48L6.756,0.48C7.004,0.48 7.186,0.432 7.302,0.336C7.418,0.24 7.476,0.056 7.476,-0.216L7.476,-0.744L3.372,-0.744C2.884,-0.744 2.47,-0.79 2.13,-0.882C1.79,-0.974 1.514,-1.116 1.302,-1.308C1.09,-1.5 0.936,-1.74 0.84,-2.028C0.744,-2.316 0.696,-2.656 0.696,-3.048L0.696,-6.504L2.46,-6.504L2.46,-3.12Z" style="fill:white;fill-rule:nonzero;"/>
                            <path d="M10.644,0L10.644,-6.336L12.468,-6.336L12.468,0L10.644,0ZM11.256,-6.876C11.032,-6.876 10.874,-6.92 10.782,-7.008C10.69,-7.096 10.644,-7.236 10.644,-7.428L10.644,-8.124C10.644,-8.316 10.69,-8.454 10.782,-8.538C10.874,-8.622 11.032,-8.664 11.256,-8.664L11.844,-8.664C12.076,-8.664 12.238,-8.622 12.33,-8.538C12.422,-8.454 12.468,-8.316 12.468,-8.124L12.468,-7.428C12.468,-7.236 12.422,-7.096 12.33,-7.008C12.238,-6.92 12.076,-6.876 11.844,-6.876L11.256,-6.876Z" style="fill:white;fill-rule:nonzero;"/>
                            <path d="M20.484,0L20.484,-3.624C20.484,-3.896 20.462,-4.118 20.418,-4.29C20.374,-4.462 20.298,-4.598 20.19,-4.698C20.082,-4.798 19.934,-4.868 19.746,-4.908C19.558,-4.948 19.32,-4.968 19.032,-4.968L17.088,-4.968C16.808,-4.968 16.574,-4.948 16.386,-4.908C16.198,-4.868 16.048,-4.798 15.936,-4.698C15.824,-4.598 15.746,-4.462 15.702,-4.29C15.658,-4.118 15.636,-3.896 15.636,-3.624L15.636,0L13.848,0L13.848,-3.684C13.848,-4.204 13.898,-4.644 13.998,-5.004C14.098,-5.364 14.268,-5.654 14.508,-5.874C14.748,-6.094 15.068,-6.254 15.468,-6.354C15.868,-6.454 16.368,-6.504 16.968,-6.504L19.14,-6.504C19.748,-6.504 20.252,-6.454 20.652,-6.354C21.052,-6.254 21.372,-6.094 21.612,-5.874C21.852,-5.654 22.022,-5.364 22.122,-5.004C22.222,-4.644 22.272,-4.204 22.272,-3.684L22.272,0L20.484,0Z" style="fill:white;fill-rule:nonzero;"/>
                            <path d="M27.144,1.944L27.144,0.48L29.628,0.48C29.892,0.48 30.08,0.428 30.192,0.324C30.304,0.22 30.36,0.04 30.36,-0.216L30.36,-0.744L26.28,-0.744C25.784,-0.744 25.362,-0.784 25.014,-0.864C24.666,-0.944 24.384,-1.07 24.168,-1.242C23.952,-1.414 23.796,-1.638 23.7,-1.914C23.604,-2.19 23.556,-2.524 23.556,-2.916L23.556,-3.912C23.556,-4.408 23.598,-4.822 23.682,-5.154C23.766,-5.486 23.914,-5.752 24.126,-5.952C24.338,-6.152 24.626,-6.294 24.99,-6.378C25.354,-6.462 25.812,-6.504 26.364,-6.504L29.268,-6.504C29.804,-6.504 30.254,-6.456 30.618,-6.36C30.982,-6.264 31.274,-6.112 31.494,-5.904C31.714,-5.696 31.87,-5.428 31.962,-5.1C32.054,-4.772 32.1,-4.376 32.1,-3.912L32.1,-0.12C32.1,0.608 31.92,1.134 31.56,1.458C31.2,1.782 30.612,1.944 29.796,1.944L27.144,1.944ZM30.36,-3.876C30.36,-4.308 30.276,-4.6 30.108,-4.752C29.94,-4.904 29.636,-4.98 29.196,-4.98L26.388,-4.98C25.972,-4.98 25.688,-4.902 25.536,-4.746C25.384,-4.59 25.308,-4.296 25.308,-3.864L25.308,-3.012C25.308,-2.836 25.326,-2.692 25.362,-2.58C25.398,-2.468 25.458,-2.378 25.542,-2.31C25.626,-2.242 25.736,-2.196 25.872,-2.172C26.008,-2.148 26.18,-2.136 26.388,-2.136L30.36,-2.136L30.36,-3.876Z" style="fill:white;fill-rule:nonzero;"/>
                        </g>
                    </g>
                </g>
            </g>
        </g>
    </g>
</svg>
