<svg viewBox="0 0 200 40" xmlns="http://www.w3.org/2000/svg">
    <path d="M60.36 25.698V10.739H40.943v19.372h8.87c.106.659.202 1.24.297 1.854-.163.006-.353.028-.548.028-2.815 0-5.63.006-8.446 0-1.43 0-2.072-.653-2.072-2.095V10.934c0-1.44.648-2.105 2.072-2.105 6.346-.006 12.692-.006 19.032 0 1.373 0 2.066.693 2.066 2.061.006 4.133.011 8.267-.011 12.4 0 .291-.162.632-.358.86-.407.493-.888.933-1.485 1.548Z" style="fill:#ccc"/>
    <path d="M57.226 31.183c1.134-1.251 2.217-2.536 3.39-3.715a133.02 133.02 0 0 1 4.799-4.557c.536-.486 1.195-.86 1.854-1.179.375-.184.871-.245 1.291-.195.726.089 1.016.798.614 1.413-.218.33-.503.626-.799.894-4.435 4.044-7.574 8.965-9.803 14.501-.017.038-.028.089-.055.122-.241.229-.465.604-.733.642-.223.034-.58-.279-.742-.524-.565-.855-.995-1.805-1.609-2.615-1.162-1.519-2.402-2.977-3.648-4.429-.329-.386-.614-.71-.397-1.229.213-.508.621-.816 1.151-.748.698.083 1.408.223 2.073.463.871.307 1.703.743 2.614 1.156Zm-8.34-10.071c0-.268-.011-.536 0-.804.028-.581.319-.956.906-1.084.306-.067.614-.117.91-.207.592-.178 1.039-.508 1.106-1.189.055-.554-.173-.972-.637-1.229-.575-.313-1.179-.296-1.704.1-.296.223-.519.542-.776.827-.514.564-1.079.737-1.671.497-.603-.246-.955-.821-.854-1.575.061-.431.195-.883.43-1.24 1.709-2.62 6.407-2.458 7.96.257 1.351 2.368.329 5.049-2.273 5.915-.319.107-.447.241-.47.592-.056.883-.653 1.414-1.48 1.397-.793-.017-1.358-.547-1.441-1.386-.028-.284-.006-.58-.006-.871Zm1.458 3.061c.877-.011 1.659.766 1.665 1.659.006.888-.783 1.676-1.659 1.664-.861-.01-1.609-.759-1.626-1.624-.022-.883.743-1.682 1.62-1.699Z" style="fill:#ccc"/>
    <path d="m78.157 34.022.15-.812h-1.444l.813-4.602h6.887l-1.775 10.045c-2.446.903-4.902 1.354-7.368 1.354-2.467 0-4.246-.491-5.339-1.474-1.092-.983-1.639-2.497-1.639-4.541 0-.862.14-2.136.421-3.82.602-3.488 1.664-6.005 3.188-7.549 1.524-1.544 4.051-2.316 7.579-2.316.743 0 1.69.08 2.842.24 1.154.161 2.001.342 2.542.542L83.36 25.69c-1.504-.28-2.882-.42-4.136-.42-1.253 0-2.15.1-2.691.3-.542.201-.863.602-.963 1.203l-1.474 8.512h1.895c.682 0 1.189-.076 1.519-.225.331-.151.546-.496.647-1.038Zm11.668 5.534H83.81l7.91-18.798h8.842l1.324 18.798h-6.045l-.12-2.978h-4.723Zm5.144-13.023-2.106 5.263h2.406v-5.263Zm14.315 13.023h-5.954l4.391-18.798h7.458l.542 9.564h.211l3.909-9.564h7.46l-2.226 18.798h-5.985l1.263-9.114h-.211l-3.759 9.114h-4.362l-.631-9.114h-.151Zm31.641-7.098h-5.715l-.391 2.286h7.008l-.842 4.812h-12.722l3.309-18.798h12.571l-1.564 4.812h-6.166l-.421 2.526h5.715Zm2.737 6.767 1.684-4.963c1.684.462 3.229.693 4.632.693 1.403 0 2.537-.061 3.398-.182l.242-1.503-2.497-.241c-1.905-.18-3.253-.611-4.045-1.293-.793-.681-1.189-1.644-1.189-2.887 0-.542.06-1.143.181-1.805.461-2.566 1.298-4.331 2.511-5.294 1.213-.962 3.093-1.443 5.64-1.443 2.546 0 4.791.251 6.737.752l-1.564 4.812c-1.745-.301-3.148-.451-4.211-.451-1.063 0-1.965.05-2.706.15l-.242 1.474 2.016.211c2.044.22 3.498.707 4.361 1.459.862.751 1.293 1.759 1.293 3.022 0 1.283-.281 2.606-.842 3.97-.28.702-.587 1.288-.918 1.76-.33.471-.751.871-1.263 1.203a8.432 8.432 0 0 1-1.398.751c-.421.171-.952.296-1.595.376-.941.14-2.094.211-3.458.211-2.486 0-4.742-.26-6.767-.782Z" style="white-space:pre;fill:#fff"/>
    <path d="M64.568 13.583c0-.98.14-2.275.42-3.885.28-1.61.65-3 1.11-4.17.46-1.17 1.08-2.185 1.86-3.045 1.5-1.66 3.87-2.49 7.11-2.49 2.52 0 4.325.505 5.415 1.515 1.09 1.01 1.635 2.515 1.635 4.515 0 2-.29 3.915-.87 5.745-.58 1.83-1.28 3.235-2.1 4.215l1.86 1.26-2.1 3.45-5.28-1.05.21-1.14-2.55.69c-2.42 0-4.145-.485-5.175-1.455-1.03-.97-1.545-2.355-1.545-4.155Zm5.67.93h2.37c.78 0 1.36-.095 1.74-.285.38-.19.63-.625.75-1.305l1.38-7.8h-2.4c-.76 0-1.33.095-1.71.285-.38.19-.63.625-.75 1.305ZM91.627.443l-2.49 14.07h2.04c.7 0 1.2-.095 1.5-.285.3-.19.51-.625.63-1.305l2.22-12.48h5.7l-1.86 10.53c-.3 1.7-.645 3.07-1.035 4.11-.39 1.04-.935 1.92-1.635 2.64-.7.72-1.565 1.22-2.595 1.5-1.03.28-2.335.42-3.915.42-2.42 0-4.115-.365-5.085-1.095-.97-.73-1.455-1.985-1.455-3.765 0-.98.14-2.25.42-3.81l1.86-10.53Zm9.39 18.75 3.3-18.75h5.7l-3.3 18.75Zm22.86 0h-15.36l.66-3.75 9.03-10.02-.06-.18h-5.97l.33-4.8h14.55l-.66 3.75-8.97 10.02.03.18h7.26Z" style="white-space:pre;fill:#fff"/>
</svg>
