<svg viewBox="0 0 200 40" xmlns="http://www.w3.org/2000/svg">
    <path d="M33.763 22.12h-5.7l-.39 2.28h6.99l-.84 4.8h-12.69l3.3-18.75h12.54l-1.56 4.8h-6.15l-.42 2.52h5.7Zm3.269 7.08 3.3-18.75h7.98c2.58 0 4.415.455 5.505 1.365 1.09.91 1.635 2.385 1.635 4.425 0 1.04-.12 2.24-.36 3.6-.6 3.36-1.625 5.76-3.075 7.2-1.45 1.44-3.785 2.16-7.005 2.16Zm10.5-13.95h-2.37l-1.59 9.15h2.37c.78 0 1.36-.095 1.74-.285.38-.19.63-.625.75-1.305l1.05-5.97c.02-.12.03-.28.03-.48 0-.46-.16-.76-.48-.9-.32-.14-.82-.21-1.5-.21Zm17.429-4.8-2.49 14.07h2.04c.7 0 1.2-.095 1.5-.285.3-.19.51-.625.63-1.305l2.22-12.48h5.7l-1.86 10.53c-.3 1.7-.645 3.07-1.035 4.11-.39 1.04-.935 1.92-1.635 2.64-.7.72-1.565 1.22-2.595 1.5-1.03.28-2.335.42-3.915.42-2.42 0-4.115-.365-5.085-1.095-.97-.73-1.455-1.985-1.455-3.765 0-.98.14-2.25.42-3.81l1.86-10.53Zm22.53 13.38-.48 5.04c-1.28.52-2.9.78-4.86.78-2.52 0-4.325-.49-5.415-1.47-1.09-.98-1.635-2.49-1.635-4.53 0-.86.14-2.13.42-3.81.6-3.44 1.635-5.94 3.105-7.5 1.47-1.56 3.795-2.34 6.975-2.34.74 0 1.585.075 2.535.225.95.15 1.645.335 2.085.555l-1.68 4.59c-1.18-.28-2.285-.42-3.315-.42-1.03 0-1.765.1-2.205.3-.44.2-.71.6-.81 1.2l-1.38 7.86c.72.16 1.46.24 2.22.24 1.62 0 3.1-.24 4.44-.72Zm6.359 5.37h-6l7.89-18.75h8.82l1.32 18.75h-6.03l-.12-2.97h-4.71Zm5.13-12.99-2.1 5.25h2.4v-5.25Zm22.859-.96h-4.14l-2.43 13.95h-5.7l2.43-13.95h-4.11l.87-4.8h13.95Zm-.27 13.95 3.3-18.75h5.7l-3.3 18.75Zm16.709-12.48-1.38 7.8h2.37c.78 0 1.36-.095 1.74-.285.38-.19.63-.625.75-1.305l1.38-7.8h-2.4c-.76 0-1.33.095-1.71.285-.38.19-.63.625-.75 1.305Zm3.45-6.72c2.54 0 4.35.495 5.43 1.485 1.08.99 1.62 2.515 1.62 4.575s-.325 4.215-.975 6.465c-.65 2.25-1.68 4-3.09 5.25s-3.47 1.875-6.18 1.875c-2.71 0-4.605-.495-5.685-1.485-1.08-.99-1.62-2.515-1.62-4.575 0-.98.14-2.275.42-3.885.28-1.61.65-3 1.11-4.17.46-1.17 1.08-2.185 1.86-3.045 1.5-1.66 3.87-2.49 7.11-2.49Zm18.449 19.2-3.06-6.66c-.08-.14-.12-.335-.12-.585 0-.25.02-.535.06-.855h-.24l-1.41 8.1h-5.7l3.3-18.75h5.37l3.06 6.66c.06.14.09.335.09.585 0 .25-.02.535-.06.855h.24l1.44-8.1h5.7l-3.3 18.75Zm13.439 0h-6l7.89-18.75h8.82l1.32 18.75h-6.03l-.12-2.97h-4.71Zm5.13-12.99-2.1 5.25h2.4v-5.25Zm20.28 12.99h-11.4l3.3-18.75h5.7l-2.46 13.95h5.7Z" style="fill:#fff;white-space:pre"/>
    <path d="M17.633 24.062V10.937a.935.935 0 0 0-.937-.937H3.883a3.75 3.75 0 0 0-3.75 3.75v12.5c0 2.07 1.68 3.75 3.75 3.75h12.813a.935.935 0 0 0 .937-.938v-.625a.943.943 0 0 0-.347-.73c-.164-.602-.164-2.317 0-2.918a.931.931 0 0 0 .347-.727Zm-12.5-8.828c0-.129.106-.234.235-.234h8.281c.129 0 .234.105.234.234v.781a.235.235 0 0 1-.234.235H5.368a.236.236 0 0 1-.235-.235v-.781Zm0 2.5c0-.129.106-.234.235-.234h8.281c.129 0 .234.105.234.234v.781a.235.235 0 0 1-.234.235H5.368a.236.236 0 0 1-.235-.235v-.781Zm9.899 9.766H3.883a1.25 1.25 0 1 1 0-2.5h11.149a14.104 14.104 0 0 0 0 2.5Z" style="fill:#ccc"/>
</svg>
