<svg viewBox="0 0 200 40" xmlns="http://www.w3.org/2000/svg">
    <path d="M24.928 11.243h.993c4.393 0 8.785.053 13.178-.026 2.058-.04 3.857 1.535 3.823 3.79-.106 7.171-.078 14.342-.006 21.507.019 1.706-1.528 3.499-3.46 3.486-4.974-.033-9.949-.006-14.924-.013-2.057-.007-3.533-1.482-3.546-3.566-.019-2.222-.006-4.446-.006-6.668v-.973h-2.654c-.29 0-.628.087-.859-.032-.305-.16-.688-.444-.748-.735-.099-.483.291-.761.787-.768.874-.013 1.746-.006 2.62-.006.258 0 .516-.02.86-.033v-.9c0-3.757.013-7.515-.006-11.272-.007-1.548.614-2.686 1.977-3.447.199-.113.391-.43.391-.648.026-2.461.033-4.922.007-7.383-.014-1.158-.801-1.958-1.953-1.965-4.975-.02-9.948-.013-14.923 0-1.086.007-1.833.741-1.959 1.813-.013.106-.013.212-.013.317 0 7.119-.007 14.236.006 21.348 0 1.389.774 2.143 2.178 2.17 1.164.02 2.328.006 3.492 0 .536 0 .986.152.999.761.013.608-.424.794-.966.787-1.271-.007-2.54-.007-3.81-.007-2.038 0-3.427-1.885-3.407-3.532.079-7.224.079-14.449 0-21.665C2.979 1.981 4.236.043 6.386.03c5.027-.04 10.056-.04 15.076 0 2.012.013 3.44 1.561 3.453 3.592.021 2.223.007 4.445.007 6.669.006.284.006.568.006.952Zm-2.381 14.382v10.551c0 1.522.721 2.256 2.216 2.256 4.817.007 9.626.007 14.441 0 1.443 0 2.191-.754 2.191-2.216.006-7.065.006-14.124 0-21.189 0-1.489-.755-2.223-2.263-2.223-4.763-.006-9.519-.006-14.282 0-1.601 0-2.296.708-2.296 2.336-.007 3.506-.007 6.998-.007 10.485Z" style="fill:#ddd"/>
    <path d="M14.735 8.987c1.441.238 2.652.722 3.704 1.581.516.417.761.926.688 1.594-.086.761-.139 1.529-.238 2.29-.146 1.197-1.078 1.779-2.223 1.415-.596-.185-1.204-.35-1.939-.562v1.693c0 1.536-.006 3.07 0 4.598 0 .563-.152 1.059-.786 1.059-.642 0-.787-.49-.781-1.059.007-2.011-.006-4.016-.013-6.027 0-.026-.021-.046-.106-.211-.529.139-1.105.258-1.661.443-1.349.449-2.216-.073-2.407-1.489-.093-.681-.132-1.369-.225-2.05-.1-.762.152-1.403.8-1.766 1.118-.623 2.282-1.152 3.612-1.806 0-.318.013-.92 0-1.522-.013-.543.146-.985.754-.999.655-.014.821.464.813 1.025.008.603.008 1.204.008 1.793Zm-4.175 5.372 2.547-.629v-3.155c-.403.105-.741.172-1.058.284-1.621.582-1.767.827-1.588 2.501.033.311.059.621.099.999Zm6.754.007c.08-.729.166-1.41.218-2.091.014-.178-.039-.444-.164-.55-.742-.601-1.575-1.011-2.594-1.11v3.102c.846.218 1.653.424 2.54.649Zm-3.433 12.548c.397.491.794.774.787 1.04-.006.277-.37.694-.655.78-.463.133-.859-.198-.807-.695.033-.317.344-.602.675-1.125Zm17.266-7.342v-1.826c-.754 0-1.489-.006-2.216 0-.569.007-1.038-.172-1.019-.821.02-.601.47-.76 1.006-.747.714.013 1.422 0 2.203 0 .086-.596.019-1.369.873-1.343.754.026.754.675.768 1.343.753 0 1.481.007 2.215 0 .569-.006 1.052.139 1.052.794-.007.648-.502.794-1.058.781-.708-.007-1.415 0-2.177 0v1.826h4.724c.589 0 .965.257.965.893v6.582c0 .694-.423.893-1.038.893-1.475-.006-2.95 0-4.538 0 .41 1.204 1.138 1.919 2.262 2.216.252.066.569.006.768.138.291.193.661.484.708.781.073.49-.357.814-.82.722-.815-.166-1.609-.443-2.403-.709-.21-.065-.383-.238-.674-.429 0 1.422.007 2.739 0 4.048-.007 1.092-.436 1.369-1.448.94-.391-.166-.775-.337-1.165-.503-.457-.199-.794-.489-.602-1.032.205-.582.662-.608 1.17-.424.119.041.246.073.431.132v-2.851c-.827.266-1.674.582-2.547.814-.562.146-1.131.014-1.198-.674-.059-.642.431-.794.993-.854 1.356-.152 2.269-.88 2.771-2.302H26.82c-1.209 0-1.369-.159-1.369-1.362 0-1.959-.006-3.917 0-5.868 0-.881.245-1.125 1.138-1.132 1.488-.033 2.991-.026 4.558-.026Zm-4.095 1.594v5.16h4.062v-1.773c-.483 0-.906.014-1.323-.006-.509-.027-.893-.265-.866-.821.019-.502.37-.734.859-.734.443-.007.88 0 1.337 0v-1.826h-4.069Zm5.723 1.826h1.408c.517-.007.913.186.926.74.02.603-.403.815-.939.821-.463.007-.926 0-1.376 0v1.773h4.069v-5.14h-4.088v1.806Z" style="fill:#ddd"/>
    <path d="M54.63 21.2h-6l7.89-18.75h8.82l1.32 18.75h-6.03l-.12-2.97H55.8Zm5.13-12.99-2.1 5.25h2.4V8.21Zm8.34 12.66 1.68-4.95c1.68.46 3.22.69 4.62.69s2.53-.06 3.39-.18l.24-1.5-2.49-.24c-1.9-.18-3.245-.61-4.035-1.29s-1.185-1.64-1.185-2.88c0-.54.06-1.14.18-1.8.46-2.56 1.295-4.32 2.505-5.28S76.09 2 78.63 2s4.78.25 6.72.75l-1.56 4.8c-1.74-.3-3.14-.45-4.2-.45s-1.96.05-2.7.15l-.24 1.47 2.01.21c2.04.22 3.49.705 4.35 1.455.86.75 1.29 1.755 1.29 3.015 0 1.28-.28 2.6-.84 3.96-.28.7-.585 1.285-.915 1.755-.33.47-.75.87-1.26 1.2-.51.33-.975.58-1.395.75-.42.17-.95.295-1.59.375-.94.14-2.09.21-3.45.21-2.48 0-4.73-.26-6.75-.78Zm17.549.33 3.3-18.75h5.7l-3.3 18.75Zm13.5 0h-6l7.89-18.75h8.82l1.32 18.75h-6.03l-.12-2.97h-4.71Zm5.13-12.99-2.1 5.25h2.4V8.21Zm22.86-.96h-4.14l-2.43 13.95h-5.7l2.43-13.95h-4.11l.87-4.8h13.95Zm-.27 13.95 3.3-18.75h5.7l-3.3 18.75Zm22.14-5.37-.48 5.04c-1.28.52-2.9.78-4.86.78-2.52 0-4.325-.49-5.415-1.47-1.09-.98-1.635-2.49-1.635-4.53 0-.86.14-2.13.42-3.81.6-3.44 1.635-5.94 3.105-7.5 1.47-1.56 3.795-2.34 6.975-2.34.74 0 1.585.075 2.535.225.95.15 1.645.335 2.085.555l-1.68 4.59c-1.18-.28-2.285-.42-3.315-.42-1.03 0-1.765.1-2.205.3-.44.2-.71.6-.81 1.2l-1.38 7.86c.72.16 1.46.24 2.22.24 1.62 0 3.1-.24 4.44-.72ZM45.72 38.216l2.619-14.881h7.333c1.143 0 1.972.199 2.488.595.516.397.774 1.008.774 1.834 0 1.206-.266 2.198-.797 2.976-.532.778-1.179 1.262-1.941 1.452l-.024.143c1.429.27 2.143 1.214 2.143 2.833 0 1.429-.389 2.627-1.167 3.596-.777.968-1.873 1.452-3.285 1.452Zm7.333-5.929h-1.785l-.429 2.429h1.762c.397 0 .698-.159.905-.476.206-.318.309-.722.309-1.214 0-.493-.254-.739-.762-.739Zm.667-5.69h-1.429l-.404 2.214h1.404c.731 0 1.096-.516 1.096-1.547 0-.445-.223-.667-.667-.667Zm11.69 1.714-1.095 6.191h1.881c.619 0 1.079-.076 1.381-.226.301-.151.5-.497.595-1.036l1.095-6.191h-1.904c-.604 0-1.056.076-1.357.227-.302.15-.5.496-.596 1.035Zm2.738-5.333c2.016 0 3.453.393 4.31 1.179.857.785 1.286 1.996 1.286 3.63 0 1.635-.258 3.346-.774 5.131-.516 1.786-1.334 3.175-2.453 4.167-1.119.992-2.754 1.488-4.904 1.488-2.151 0-3.655-.393-4.512-1.178-.857-.786-1.286-1.996-1.286-3.631 0-.778.111-1.806.333-3.084.223-1.277.516-2.381.881-3.309a7.794 7.794 0 0 1 1.477-2.417c1.19-1.317 3.071-1.976 5.642-1.976Zm9.714 15.238H73.1l6.262-14.881h7l1.047 14.881h-4.785l-.096-2.357H78.79Zm4.071-10.309-1.667 4.166h1.905v-4.166Zm19.381 10.309h-4.976l-1.096-4.429h-.976l-.762 4.429h-4.523L91.6 23.335h7.142c2.715 0 4.072 1.214 4.072 3.643 0 1-.151 1.952-.453 2.857-.555 1.714-1.428 2.857-2.619 3.429Zm-5.881-11.071-.524 2.976h1.048c.539 0 .948-.06 1.226-.179s.468-.46.571-1.024c.104-.563.155-.908.155-1.035 0-.318-.123-.52-.369-.607-.246-.088-.647-.131-1.202-.131Zm7.809 11.071 2.619-14.881h6.334c2.047 0 3.504.361 4.369 1.083.865.723 1.297 1.893 1.297 3.512 0 .826-.095 1.778-.285 2.857-.477 2.667-1.29 4.572-2.441 5.715-1.151 1.143-3.004 1.714-5.559 1.714Zm8.334-11.071h-1.881l-1.262 7.261h1.881c.619 0 1.079-.075 1.381-.226.301-.151.5-.496.595-1.035l.833-4.738c.016-.096.024-.223.024-.381 0-.366-.127-.604-.381-.715-.254-.111-.651-.166-1.19-.166Zm19.88 6.69.119-.643h-1.143l.643-3.643h5.452l-1.405 7.953c-1.936.714-3.881 1.071-5.833 1.071-1.952 0-3.361-.389-4.226-1.167-.865-.777-1.298-1.976-1.298-3.595 0-.682.111-1.69.334-3.024.476-2.761 1.317-4.753 2.523-5.976 1.207-1.222 3.207-1.833 6-1.833.588 0 1.338.063 2.25.19.913.127 1.584.27 2.012.429l-1.309 3.643c-1.191-.222-2.282-.333-3.274-.333s-1.703.079-2.131.238c-.429.158-.683.476-.762.952l-1.167 6.738h1.5c.54 0 .941-.06 1.203-.179.262-.119.432-.392.512-.821Zm9.238 4.381h-4.762l6.262-14.881h7l1.047 14.881h-4.786l-.095-2.357h-3.738Zm4.071-10.309-1.667 4.166h1.905v-4.166Zm11.333 10.309h-4.714l3.476-14.881h5.905l.428 7.571h.167l3.095-7.571h5.905l-1.762 14.881h-4.738l1-7.214h-.167l-2.976 7.214h-3.452l-.5-7.214h-.119Zm25.047-5.619h-4.524l-.31 1.809h5.548l-.667 3.81h-10.071l2.619-14.881h9.952l-1.238 3.81h-4.881l-.333 2h4.524Zm2.166 5.357 1.334-3.928c1.333.365 2.555.547 3.666.547 1.111 0 2.008-.048 2.691-.143l.19-1.19-1.976-.191c-1.508-.143-2.575-.484-3.202-1.023-.627-.54-.941-1.302-.941-2.286 0-.429.048-.905.143-1.429.365-2.031 1.028-3.428 1.988-4.19.961-.762 2.449-1.143 4.464-1.143 2.016 0 3.794.198 5.334.595l-1.238 3.81c-1.381-.238-2.492-.357-3.334-.357-.841 0-1.555.039-2.142.119l-.191 1.166 1.595.167c1.619.175 2.77.559 3.453 1.155.682.595 1.023 1.393 1.023 2.393 0 1.015-.222 2.063-.666 3.142a6.892 6.892 0 0 1-.726 1.393 3.6 3.6 0 0 1-1 .953c-.405.261-.774.46-1.108.595-.333.135-.754.234-1.261.297-.746.112-1.659.167-2.738.167-1.969 0-3.754-.206-5.358-.619Z" style="white-space:pre;fill:#fff"/>
</svg>
