<svg style="enable-background:new 0 0 500 500" viewBox="0 0 200 40" xmlns="http://www.w3.org/2000/svg">
    <path d="M50.082 4.651c.221-.153.388-.274.568-.381.448-.28.929-.366 1.457-.26 3.341.675 6.688 1.329 10.036 2.011 1.805.368 3.602.755 5.399 1.129.208.047.415.101.621.155 1.123.314 1.645 1.128 1.417 2.291-.454 2.379-.928 4.751-1.403 7.13-.655 3.288-1.316 6.575-1.964 9.863-.041.207-.041.421-.067.708.427.24.869.474 1.302.729a25 25 0 0 1 1.504.915c.421.28.642.681.648 1.216.014 2.325.054 4.644.081 6.969 0 .161-.02.321-.034.481-.107 1.217-.441 1.283-1.356 1.444-1.57.28-3.161.468-4.744.681-.608.081-1.23.101-1.825.221-.501.1-.955.04-1.39-.18-1.376-.702-2.739-1.424-4.116-2.139-.508-.26-.728-.688-.741-1.236-.014-.642-.007-1.277-.007-2.052-.287.154-.468.235-.621.341-.635.448-1.25.916-1.892 1.35-.42.288-.868.448-1.417.427-1.202-.04-2.405.014-3.607.021-.241 0-.482-.007-.722-.021-.601-.026-1.043-.253-1.343-.821-.735-1.39-1.524-2.746-2.285-4.123-.114-.207-.241-.401-.361-.602-1.143.354-2.232.695-3.328 1.023-.715.221-1.39.16-1.911-.421-.221-.248-.387-.575-.501-.889a738.167 738.167 0 0 1-2.953-8.519c-1.451-4.284-2.874-8.573-4.311-12.863a24.526 24.526 0 0 1-.507-1.684c-.228-.895.126-1.717.942-2.165.274-.153.588-.254.888-.354 4.878-1.631 9.756-3.247 14.627-4.885.582-.194 1.13-.24 1.704.013.615.275.936.776 1.15 1.363.341 1.016.682 2.026 1.062 3.114Zm-.447 3.362c-.041-.127-.088-.282-.141-.428-.588-1.711-1.169-3.421-1.758-5.132-.139-.401-.273-.815-.767-1.009-.195.06-.422.127-.648.207-2.728.909-5.46 1.805-8.187 2.726-2.091.709-4.176 1.444-6.261 2.172-.32.114-.681.2-.754.648l.213.662c2.018 6.08 4.036 12.161 6.061 18.242a160.09 160.09 0 0 0 1.33 3.842c.2.562.4.675.969.508.915-.267 1.811-.582 2.746-.882-.187-.434-.347-.795-.468-1.083.127-.708.601-1.036 1.036-1.383.815-.648 1.65-1.269 2.466-1.911.354-.28.681-.567.782-1.062.641-3.128 1.296-6.255 1.957-9.375.475-2.245.949-4.484 1.424-6.742Zm2.125-2.6c-.455.168-.569.495-.642.836-.214.962-.428 1.924-.628 2.886-.902 4.437-1.797 8.874-2.693 13.304-.066.341-.107.695-.194 1.209.662-.534 1.209-.915 1.911-.915 1.744 0 3.495-.173 5.306.08-.141-.187-.247-.334-.354-.481-.695-.915-1.357-1.85-1.664-2.98-.208-.755-.281-1.544-.007-2.286.695-1.85 3.101-2.218 4.37-.701.154.181.287.381.448.595.22-.127.421-.255.635-.361.935-.488 2.078-.367 2.846.301.869.748 1.13 1.724.776 2.813-.248.755-.715 1.37-1.291 1.891-1.282 1.163-2.779 1.958-4.376 2.573l-.534-.448c-.027.026-.06.046-.087.073.634 1.143 1.262 2.292 1.91 3.455.91-.141 1.744-.267 2.573-.394-.14-1.544 1.043-1.858 1.971-2.419.675.521 1.069 1.176 1.357 1.925h1.236c.046-.094.08-.134.093-.181.549-2.659 1.096-5.32 1.638-7.979.561-2.766 1.108-5.532 1.657-8.299.06-.307.074-.621.113-.982-.294-.114-.527-.24-.774-.301a202.786 202.786 0 0 0-3.829-.822c-3.93-.794-7.845-1.59-11.767-2.392Zm9.622 25.599c-.328 2.713.06 5.373-.094 8.025.916.147 6.582-.621 7.471-1.015.033-.314.106-.655.106-.996.013-2.111.013-4.223.02-6.328 0-.267-.007-.541-.314-.708-2.385.274-4.784.561-7.189 1.022Zm-6.802-7.257c-2.119 1.524-4.15 2.887-6.015 4.437.608 1.578 3.428 6.682 3.977 7.183.955-.695 1.917-1.402 2.892-2.111v-5.225c.368-.241.735-.488 1.163-.769a635.887 635.887 0 0 1-2.017-3.515Zm-11.079 3.936c1.443 0 2.712.021 3.982-.013.241-.007.495-.174.701-.327a633.326 633.326 0 0 0 4.732-3.415c.133-.1.254-.221.467-.407-1.296 0-2.466.013-3.635-.007-.454-.007-.822.14-1.176.401-1.042.781-2.098 1.55-3.147 2.332-.601.441-1.189.888-1.924 1.436Zm24.222 1.59c0-.06.007-.12.007-.186-.956-.515-1.925-1.016-2.867-1.564-.568-.328-1.156-.348-1.778-.261-1.055.153-2.111.287-3.167.442-.855.119-1.704.253-2.726.4.253.167.347.241.454.301.815.447 1.644.882 2.453 1.357.541.32 1.089.367 1.69.273.655-.1 1.323-.174 1.978-.26l3.956-.502Zm-10.946 1.103c-.52.548-.453.909.188 1.276.374-.574.347-.808-.188-1.276Zm2.733 2.612c.428-.601.368-.948-.186-1.269-.469.515-.442.749.186 1.269Zm-15.235-3.213c-.086.18-.22.327-.193.434.107.394.367.668.768.782.361-.528.287-.695-.575-1.216Zm14.026 4.845c.314-.709.287-.809-.287-1.244-.481.569-.414.883.287 1.244Zm-1.544.473c-.494.529-.44.836.201 1.25.401-.555.348-.869-.201-1.25Zm-6.474-.294c-.054-.461-.288-.728-.648-.848-.121-.04-.294.073-.455.127.374.882.441.922 1.103.721Zm9.395 2.787c.166-.461.206-.888-.314-1.222-.314.186-.448.426-.314.781.099.281.2.562.628.441Z" style="fill:#ccc"/>
    <path d="M40.567 16.893c.334-1.845.654-3.642.982-5.446.488.214 2.833 2.279 4.143 3.648-.18 1.771-.568 3.556-.922 5.459-.24-.159-.448-.26-.615-.4a994.586 994.586 0 0 1-3.588-3.261Zm-5.058-5.6c.253.221.414.348.567.489.235.213.462.426.695.648-.113.52-.22 1.002-.354 1.596-.454-.401-.841-.735-1.209-1.062.007-.207 0-.341.027-.467.073-.355.167-.715.274-1.204Zm.541-1.189-.715-.674c-.127.039-.274.079-.421.133-.147.053-.288.12-.387.167-.201.328.06.754-.334.982-.121-.421-.195-2.345-.087-2.759.026-.114.146-.201.22-.301.648.474 1.53 1.63 1.724 2.452Zm-.781-.963c-.322-.406-.569-.715-.816-1.029-.047.021-.101.041-.147.061l.147 1.237c.287-.094.501-.161.816-.269Zm17.693 2.647c.167-.053.314-.12.468-.141.327-.046.648-.026.849.288.213.327.294.688.073 1.049-.388.648-.996 1.015-1.677 1.257-.147.052-.415-.074-.555-.201a3.087 3.087 0 0 1-.882-1.39c-.16-.534-.053-.936.321-1.196.334-.234.728-.187 1.163.14.087.06.167.134.24.194Zm1.196-.969a59.553 59.553 0 0 1-.407-1.016c-.234-.059-.489-.133-.789-.214-.234.268-.481.548-.729.823-.039-.027-.086-.054-.126-.081.034-.107.047-.22.101-.32.354-.622.714-1.237 1.081-1.852.134-.226.275-.473.656-.314.18.962.321 1.939.373 2.928a1.27 1.27 0 0 1-.16.046Zm-1.116-1.624c.294.194.294.194.762.154.034-.361.007-.708-.213-1.096-.208.354-.375.648-.549.942Zm9.943 27.524c.555.153.722.434.655.868-.04.261-.154.488-.421.509-.181.013-.401-.094-.555-.202-.22-.159-.247-.427-.126-.648.099-.2.294-.354.447-.527Zm4.337-3.903c-.414-.12-.682-.314-.668-.728.013-.408.267-.608.641-.668.722.468.735.815.027 1.396Zm-2.118 1.163c.742.535.715.956-.061 1.409-.354-.066-.54-.293-.561-.648-.026-.401.207-.627.622-.761Zm-12.028-1.657c.2.187.421.394.695.654l-.495.749c-.52-.06-.795-.281-.828-.709-.027-.38.227-.56.628-.694Zm-2.88-4.003c.267-.04.515-.154.681-.087.188.081.361.301.442.502.126.3-.04.621-.301.722-.261.092-.588-.034-.742-.302a.548.548 0 0 1-.08-.22c-.013-.147 0-.307 0-.615Zm4.042-1.289c-.413-.087-.634-.321-.688-.702-.033-.268.013-.34.448-.688.348.066.641.2.708.615.061.361-.073.621-.468.775Zm-6.34-1.136c.2-.408.534-.568 1.069-.655-.307.507-.668.615-1.069.655Zm14.747 1.858c.461-.221.802-.241 1.235.013-.44.194-.781.274-1.235-.013Zm-2.125.247c.494-.208.849-.161 1.223-.101-.321.368-.361.368-1.223.101Zm2.472.788h-1.156c.421-.454.789-.201 1.136-.241l.02.241Zm-3.287.167c.507-.2.861-.193 1.323-.013-.455.287-.809.247-1.323.013Zm6.568.101c-.708.26-.708.26-1.209.06.508-.215.508-.215 1.209-.06Zm-4.07.527c-.5.241-.821.274-1.229-.02.408-.187.742-.18 1.229.02Zm-2.445-1.316c-.474.26-.474.26-1.003.047.462-.188.462-.188 1.003-.047Zm5.259.233h-1.123c.468-.34.468-.34 1.123 0Zm-.922.95h-1.016c.388-.374.421-.381 1.016 0Z" style="fill:#ccc"/>
    <path d="m86.12 25.951-.48 5.04c-1.28.52-2.9.78-4.86.78-2.52 0-4.325-.49-5.415-1.47-1.09-.98-1.635-2.49-1.635-4.53 0-.86.14-2.13.42-3.81.6-3.44 1.635-5.94 3.105-7.5 1.47-1.56 3.795-2.34 6.975-2.34.74 0 1.585.075 2.535.225.95.15 1.645.335 2.085.555l-1.68 4.59c-1.18-.28-2.285-.42-3.315-.42-1.03 0-1.765.1-2.205.3-.44.2-.71.6-.81 1.2l-1.38 7.86c.72.16 1.46.24 2.22.24 1.62 0 3.1-.24 4.44-.72Zm6.36 5.37h-6l7.89-18.75h8.82l1.32 18.75h-6.03l-.12-2.97h-4.71Zm5.13-12.99-2.1 5.25h2.4v-5.25Zm8.34 12.66 1.68-4.95c1.68.46 3.22.69 4.62.69s2.53-.06 3.39-.18l.24-1.5-2.49-.24c-1.9-.18-3.245-.61-4.035-1.29s-1.185-1.64-1.185-2.88c0-.54.06-1.14.18-1.8.46-2.56 1.295-4.32 2.505-5.28s3.085-1.44 5.625-1.44 4.78.25 6.72.75l-1.56 4.8c-1.74-.3-3.14-.45-4.2-.45s-1.96.05-2.7.15l-.24 1.47 2.01.21c2.04.22 3.49.705 4.35 1.455.86.75 1.29 1.755 1.29 3.015 0 1.28-.28 2.6-.84 3.96-.28.7-.585 1.285-.915 1.755-.33.47-.75.87-1.26 1.2-.51.33-.975.58-1.395.75-.42.17-.95.295-1.59.375-.94.14-2.09.21-3.45.21-2.48 0-4.73-.26-6.75-.78Zm17.549.33 3.3-18.75h5.7l-3.3 18.75Zm19.71 0-3.06-6.66c-.08-.14-.12-.335-.12-.585 0-.25.02-.535.06-.855h-.24l-1.41 8.1h-5.7l3.3-18.75h5.37l3.06 6.66c.06.14.09.335.09.585 0 .25-.02.535-.06.855h.24l1.44-8.1h5.7l-3.3 18.75Zm16.65-12.48-1.38 7.8h2.37c.78 0 1.36-.095 1.74-.285.38-.19.63-.625.75-1.305l1.38-7.8h-2.4c-.76 0-1.33.095-1.71.285-.38.19-.63.625-.75 1.305Zm3.45-6.72c2.54 0 4.35.495 5.43 1.485 1.08.99 1.62 2.515 1.62 4.575s-.325 4.215-.975 6.465c-.65 2.25-1.68 4-3.09 5.25s-3.47 1.875-6.18 1.875c-2.71 0-4.605-.495-5.685-1.485-1.08-.99-1.62-2.515-1.62-4.575 0-.98.14-2.275.42-3.885.28-1.61.65-3 1.11-4.17.46-1.17 1.08-2.185 1.86-3.045 1.5-1.66 3.87-2.49 7.11-2.49Z" style="fill:#fff;white-space:pre"/>
</svg>
