<svg viewBox="0 0 633 104" xmlns="http://www.w3.org/2000/svg" xml:space="preserve" style="fill-rule:evenodd;clip-rule:evenodd;stroke-linejoin:round;stroke-miterlimit:2">
    <clipPath id="a">
        <path d="M.261.143h632v103.435h-632z"/>
    </clipPath>
    <g clip-path="url(#a)">
        <path d="M122.261 51.86c0 28.511-23.074 51.718-51.452 51.718-10.476 0-20.554-3.183-29.174-9.018-2.387-1.724-3.05-4.906-1.326-7.426 1.724-2.387 4.907-3.05 7.426-1.326a40.898 40.898 0 0 0 23.074 7.161c22.544 0 40.844-18.433 40.844-41.109 0-22.676-18.3-41.108-40.844-41.108-22.013 0-40.048 17.637-40.843 39.65l12.332-12.466c2.122-2.121 5.437-2.121 7.559 0 2.122 2.122 2.122 5.437 0 7.559L29.568 65.784c-1.061 1.061-2.387 1.592-3.713 1.592-1.459 0-2.785-.531-3.713-1.592L1.853 45.363c-2.122-2.122-2.122-5.437 0-7.559 2.121-2.122 5.437-2.122 7.558 0L19.49 48.015C21.346 21.36 43.624.143 70.809.143c28.378 0 51.452 23.207 51.452 51.717ZM70.544 21.758c-2.917 0-5.304 2.387-5.304 5.305V51.86c0 1.459.663 2.785 1.724 3.713l11.404 11.405a5.31 5.31 0 0 0 3.846 1.591c1.326 0 2.784-.53 3.713-1.591 2.121-2.122 1.989-5.437-.133-7.559l-9.946-9.813V27.063c0-2.918-2.387-5.305-5.304-5.305Z" style="fill:#4a4a4a;fill-rule:nonzero"/>
        <path d="M113.952 74.052c-3.589 0-6.579-.299-8.972-.897-2.393-.598-4.307-1.555-5.742-2.871-1.436-1.316-2.453-3.039-3.051-5.168-.598-2.129-.897-4.749-.897-7.86V25.1h10.839v31.726c0 1.435.131 2.644.394 3.624.264.981.73 1.795 1.4 2.441.67.646 1.567 1.112 2.692 1.4 1.124.287 2.548.43 4.27.43h29.071v9.331h-30.004Zm48.953 0c-2.823 0-5.144-.239-6.963-.717-1.818-.479-3.265-1.161-4.342-2.046-1.077-.885-1.83-1.962-2.261-3.23-.431-1.268-.646-2.692-.646-4.271v-3.661c0-1.626.203-3.074.61-4.342a7.142 7.142 0 0 1 2.117-3.23c1.005-.885 2.381-1.555 4.128-2.01 1.746-.454 3.959-.682 6.639-.682h28.783v-.861c0-2.488-.502-4.151-1.507-4.989-1.005-.837-2.704-1.256-5.096-1.256h-10.624v-7.608h10.624c3.11 0 5.754.287 7.931.861 2.177.574 3.96 1.448 5.348 2.62 1.387 1.172 2.404 2.656 3.05 4.45.646 1.795.969 3.936.969 6.424v9.475c0 2.823-.275 5.192-.825 7.106-.551 1.914-1.508 3.469-2.871 4.666-1.364 1.196-3.183 2.045-5.456 2.548-2.273.502-5.132.753-8.577.753h-21.031Zm28.065-17.585h-27.634c-1.245 0-2.226.275-2.943.825-.718.551-1.077 1.591-1.077 3.123v2.655c0 1.388.383 2.345 1.148 2.871.766.527 1.843.79 3.231.79h20.097c1.244 0 2.321-.096 3.23-.287.91-.191 1.651-.538 2.225-1.041.575-.502 1.005-1.208 1.292-2.117.288-.909.431-2.082.431-3.517v-3.302Zm64.529 7.249c0 1.914-.168 3.529-.503 4.845-.335 1.316-.993 2.381-1.974 3.195-.981.813-2.321 1.399-4.019 1.758-1.699.359-3.912.538-6.64.538h-33.448v-8.398h32.084c1.436 0 2.441-.239 3.015-.717.574-.479.861-1.388.861-2.728v-1.292c0-1.436-.275-2.333-.825-2.692-.55-.359-1.471-.538-2.763-.538h-21.821c-2.201 0-3.984-.215-5.347-.646-1.364-.431-2.429-1.077-3.195-1.938-.765-.861-1.28-1.926-1.543-3.194-.263-1.268-.395-2.764-.395-4.486V44.48c0-1.675.18-3.111.539-4.307.359-1.196.945-2.165 1.758-2.907.814-.742 1.914-1.28 3.302-1.615 1.388-.335 3.134-.502 5.24-.502h14.786v8.111h-12.202c-1.053 0-1.806.191-2.261.574-.455.383-.682 1.077-.682 2.081v1.795c0 1.1.215 1.842.646 2.225.431.383 1.125.574 2.082.574h21.102c2.489 0 4.522.204 6.101.61 1.58.407 2.824 1.053 3.733 1.938.909.886 1.531 2.034 1.866 3.446.335 1.411.503 3.146.503 5.204v2.009Zm8.9 10.336V43.834h-5.455v-8.685h5.455V24.167h10.91v10.982h12.274v8.685h-12.274v30.218h-10.91Zm67.758-13.996v13.996h-10.91V25.1h39.191c3.493 0 6.412.275 8.757.825 2.345.551 4.235 1.46 5.67 2.728 1.436 1.268 2.453 2.907 3.051 4.917.598 2.009.897 4.45.897 7.321v4.235c0 2.919-.287 5.335-.861 7.249-.574 1.915-1.567 3.446-2.979 4.594-1.412 1.149-3.29 1.95-5.635 2.405-2.344.454-5.311.682-8.9.682h-28.281Zm35.746-18.734c0-2.632-.562-4.427-1.687-5.384-1.124-.957-3.146-1.435-6.065-1.435h-27.994v16.724h28.137c2.872 0 4.857-.443 5.958-1.328s1.651-2.62 1.651-5.204v-3.373Zm17.729-18.734h10.91v51.465h-10.91zm32.659 51.464c-2.823 0-5.144-.239-6.962-.717-1.819-.479-3.266-1.161-4.343-2.046-1.077-.885-1.83-1.962-2.261-3.23-.431-1.268-.646-2.692-.646-4.271v-3.661c0-1.626.203-3.074.61-4.342a7.136 7.136 0 0 1 2.118-3.23c1.005-.885 2.38-1.555 4.127-2.01 1.746-.454 3.96-.682 6.639-.682h28.783v-.861c0-2.488-.502-4.151-1.507-4.989-1.005-.837-2.704-1.256-5.096-1.256H429.13v-7.608h10.623c3.11 0 5.754.287 7.931.861 2.177.574 3.96 1.448 5.348 2.62 1.387 1.172 2.404 2.656 3.05 4.45.646 1.795.969 3.936.969 6.424v9.475c0 2.823-.275 5.192-.825 7.106-.551 1.914-1.508 3.469-2.871 4.666-1.364 1.196-3.183 2.045-5.455 2.548-2.273.502-5.133.753-8.578.753h-21.031Zm28.065-17.585h-27.634c-1.244 0-2.225.275-2.943.825-.718.551-1.077 1.591-1.077 3.123v2.655c0 1.388.383 2.345 1.149 2.871.765.527 1.842.79 3.23.79h20.097c1.245 0 2.321-.096 3.231-.287.909-.191 1.65-.538 2.225-1.041.574-.502 1.005-1.208 1.292-2.117.287-.909.43-2.082.43-3.517v-3.302Zm28.568-1.077c0 2.153.467 3.649 1.4 4.486.933.838 2.5 1.256 4.701 1.256h23.902V35.149h10.408v38.186c0 4.354-1.077 7.5-3.23 9.438-2.153 1.938-5.671 2.907-10.551 2.907h-15.576v-8.756h14.642c1.484 0 2.573-.288 3.266-.862.694-.574 1.041-1.675 1.041-3.302v-3.158h-24.548c-2.919 0-5.395-.275-7.429-.825-2.034-.551-3.685-1.4-4.953-2.548-1.268-1.149-2.189-2.584-2.763-4.307-.574-1.723-.861-3.756-.861-6.101V35.149h10.551V55.39Zm58.93 3.158v1.795c0 1.196.095 2.153.287 2.871.191.718.538 1.28 1.041 1.687.502.406 1.172.682 2.009.825.838.144 1.879.215 3.123.215h12.633v8.111h-12.633c-6.173 0-10.576-1.172-13.207-3.517-2.632-2.344-3.948-6.101-3.948-11.269v-8.972c0-2.823.275-5.204.825-7.142.551-1.938 1.508-3.493 2.871-4.666 1.364-1.172 3.171-2.021 5.42-2.548 2.249-.526 5.096-.789 8.541-.789h18.806c2.775 0 5.084.263 6.927.789 1.842.527 3.301 1.256 4.378 2.19 1.077.933 1.83 2.057 2.261 3.373.431 1.316.646 2.74.646 4.271v12.776h-39.98Zm29.285-11.915c0-1.292-.323-2.153-.969-2.584-.646-.43-1.782-.646-3.409-.646H540.96c-1.34 0-2.465.06-3.374.18-.909.119-1.639.394-2.189.825-.55.431-.945 1.053-1.184 1.866-.24.814-.359 1.914-.359 3.302v2.082h29.285v-5.025Zm36.822 27.419c-3.637 0-6.663-.299-9.08-.897-2.416-.598-4.342-1.555-5.778-2.871-1.435-1.316-2.452-3.039-3.05-5.168-.599-2.129-.898-4.749-.898-7.86v-5.239c0-3.111.299-5.743.898-7.896.598-2.153 1.615-3.888 3.05-5.204 1.436-1.316 3.362-2.273 5.778-2.871 2.417-.598 5.443-.897 9.08-.897h21.605V22.588h10.695v34.668c0 3.111-.299 5.731-.897 7.86-.598 2.129-1.615 3.852-3.05 5.168-1.436 1.316-3.35 2.273-5.743 2.871-2.392.598-5.407.897-9.044.897h-13.566Zm-8.111-17.083c0 1.723.132 3.111.395 4.163.263 1.053.754 1.867 1.472 2.441.717.574 1.686.957 2.907 1.148 1.22.192 2.787.287 4.701.287h11.915c1.675 0 3.051-.107 4.127-.323 1.077-.215 1.926-.622 2.549-1.22.622-.598 1.052-1.411 1.292-2.44.239-1.029.358-2.357.358-3.984V44.336h-20.313c-1.866 0-3.409.096-4.629.287-1.221.192-2.19.575-2.907 1.149-.718.574-1.209 1.388-1.472 2.44-.263 1.053-.395 2.441-.395 4.163v4.594Z" style="fill:#fff;fill-rule:nonzero"/>
    </g>
</svg>
