<svg width="629" height="96" xmlns="http://www.w3.org/2000/svg" xml:space="preserve" style="fill-rule:evenodd;clip-rule:evenodd;stroke-linejoin:round;stroke-miterlimit:2">
    <clipPath id="a">
        <path d="M.289.251H628.25v95H.289z"/>
    </clipPath>
    <g clip-path="url(#a)">
        <path d="M103.467 24.356c-4.934-1.199-10.718.057-15.709.286-7.259.343-14.234-1.542-21.55-.686 0-1.656-.85-3.313-1.361-4.855a102.949 102.949 0 0 0-3.459-9.082C59.63 5.963 56.681.251 51.577.251c-8.563.057-12.533 16.622-12.646 24.105-4.877-2.513-13.724-1.428-18.488-1.256-6.124.285-14.064.4-18.43 5.426-8.11 9.539 14.688 22.392 20.869 25.419.113.057.227.057.34.114-1.814 7.655-15.765 34.387-6.295 40.271 9.925 6.226 33.176-21.135 33.346-21.021 7.486 7.426 24.726 25.133 36.465 19.193 9.924-4.97-6.749-31.188-9.925-37.243 6.182-1.942 12.136-5.141 17.751-8.283 5.16-2.913 12.419-7.026 14.801-12.909 1.928-4.684-1.304-8.625-5.898-9.711Z" style="fill:#edce04;fill-rule:nonzero"/>
        <path d="M33.58 62.873a12.033 12.033 0 0 1-4.164 2.378c-.431-2.666-.215-5.333.503-8 2.225.793 4.666 1.442 7.25 1.946-1.364 1.009-2.369 2.523-3.589 3.676Zm30.705-5.593c-.068-.072-.135-.144-.203-.144a21.45 21.45 0 0 0 5.475-3.885c.406 1.439 1.352 2.878 1.893 4.317.608 1.87.743 3.813.473 5.683-3.177-1.007-5.678-3.021-7.638-5.971Z" style="fill:#e5e5e5;fill-rule:nonzero"/>
        <path d="M74.586 57.125c-.484-2.205-1.797-5.69-4.146-6.33-.207-.071-.415 0-.622.071-.277-.498-.83-.782-1.452-.498-12.853 5.548-24.808 8.606-38.698 4.552-.898-.284-1.451.498-1.451 1.209-.138.071-.207.143-.345.214-2.004 3.058-1.935 7.468-1.175 10.953.138.711.898 1.067 1.52.924 2.212-.498 4.077-1.636 5.874-3.129 1.589-1.28 3.455-3.201 3.663-5.406 0-.071 0-.142-.07-.142 7.947 1.352 16.931 1.067 24.256-1.92 0 .142.069.285.138.498 2.142 4.125 5.943 7.112 10.366 8.179.829.213 1.589-.213 1.865-1.067.968-2.774.899-5.405.277-8.108Zm-41.532 5.761a11.505 11.505 0 0 1-4.008 2.347c-.414-2.631-.207-5.263.484-7.895 2.142.783 4.492 1.423 6.98 1.921-1.313.995-2.281 2.489-3.456 3.627Zm31.097-5.974c-.069-.072-.138-.143-.207-.143a21.947 21.947 0 0 0 5.597-3.84c.415 1.422 1.382 2.845 1.935 4.267.622 1.849.76 3.77.484 5.619-3.248-.996-5.805-2.987-7.809-5.903ZM44.387 44.699c-3.847-1.97-6.006-4.621-8.774-8.03-.877-1.061-2.767.076-2.227 1.439 1.148 3.258 3.375 5.985 6.074 7.803-3.104.606-6.344 0-9.381-.454-.607-.076-1.215.681-.675 1.287 3.577 3.41 10.529 2.879 14.646 1.137 1.012-.531 1.687-2.5.337-3.182Zm23.529-3.025c-1.279.443-2.49.959-3.635 1.402 1.818-1.918 3.232-4.206 3.905-6.788.336-1.402-1.481-2.804-2.424-1.549-3.097 4.058-5.588 7.968-10.435 9.739-1.751.664-1.616 3.984.471 3.763 4.511-.517 9.426-1.624 12.994-4.944.673-.664 0-1.992-.876-1.623Z" style="fill-rule:nonzero"/>
        <path d="M108.648 56.615v23.273H94.982V39.16c0-3.878.377-7.181 1.131-9.909.754-2.727 2.036-4.924 3.846-6.591 1.811-1.666 4.224-2.878 7.241-3.636 3.017-.758 6.788-1.136 11.313-1.136h14.482v11.909h-14.12c-3.801 0-6.456.788-7.964 2.363-1.509 1.576-2.263 4.182-2.263 7.819v4.909h52.042v11.727h-52.042Zm76.207 23.273c-3.56 0-6.486-.303-8.779-.909-2.293-.607-4.118-1.47-5.476-2.591-1.357-1.122-2.308-2.485-2.851-4.091-.543-1.606-.814-3.409-.814-5.409v-4.637c0-2.06.256-3.894.769-5.5a9.047 9.047 0 0 1 2.67-4.091c1.267-1.121 3.002-1.969 5.204-2.545 2.203-.576 4.993-.864 8.372-.864h36.294V48.16c0-3.151-.634-5.257-1.901-6.318-1.267-1.06-3.409-1.591-6.426-1.591h-13.395v-9.636h13.395c3.922 0 7.256.364 10.001 1.091 2.745.727 4.993 1.833 6.743 3.318s3.032 3.364 3.846 5.636c.815 2.273 1.222 4.985 1.222 8.137v12c0 3.575-.347 6.575-1.041 9-.694 2.424-1.9 4.394-3.62 5.909-1.72 1.515-4.012 2.591-6.879 3.227-2.866.636-6.471.955-10.815.955h-26.519Zm35.389-22.273h-34.846c-1.569 0-2.805.348-3.711 1.045-.905.697-1.357 2.015-1.357 3.955v3.364c0 1.757.483 2.969 1.448 3.636.965.667 2.323 1 4.073 1h25.342c1.569 0 2.926-.121 4.073-.364 1.146-.242 2.081-.682 2.805-1.318.724-.636 1.268-1.53 1.63-2.682.362-1.151.543-2.636.543-4.454v-4.182Zm66.522 19c-1.025 1.394-2.217 2.515-3.575 3.364-1.357.848-3.243 1.272-5.656 1.272-2.535 0-4.465-.424-5.793-1.272-1.327-.849-2.504-1.97-3.53-3.364l-32.311-46h16.111l25.704 37.727 25.432-37.727h15.93l-32.312 46Zm58.016 3.273c-4.526 0-8.297-.379-11.314-1.137-3.017-.757-5.43-1.969-7.24-3.636-1.811-1.667-3.093-3.849-3.847-6.546s-1.131-6.015-1.131-9.954v-6.636c0-3.94.377-7.273 1.131-10 .754-2.728 2.036-4.925 3.847-6.591 1.81-1.667 4.223-2.879 7.24-3.637 3.017-.757 6.788-1.136 11.314-1.136h16.381c4.586 0 8.387.379 11.404 1.136 3.017.758 5.431 1.985 7.241 3.682 1.81 1.697 3.092 3.909 3.846 6.636.755 2.728 1.132 6.061 1.132 10v6.546c0 3.939-.377 7.257-1.132 9.954-.754 2.697-2.036 4.879-3.846 6.546-1.81 1.667-4.224 2.879-7.241 3.636-3.017.758-6.818 1.137-11.404 1.137h-16.381ZM371.3 52.433c0-2.061-.166-3.758-.498-5.091-.331-1.333-.935-2.379-1.81-3.136-.875-.758-2.096-1.273-3.665-1.546-1.569-.272-3.56-.409-5.974-.409h-12.761c-2.414 0-4.39.137-5.928.409-1.539.273-2.746.788-3.621 1.546-.875.757-1.478 1.803-1.81 3.136-.332 1.333-.498 3.03-.498 5.091v5.818c0 2.061.166 3.743.498 5.046.332 1.303.935 2.333 1.81 3.091.875.757 2.082 1.287 3.621 1.591 1.538.303 3.514.454 5.928.454h12.761c2.414 0 4.405-.151 5.974-.454 1.569-.304 2.79-.834 3.665-1.591.875-.758 1.479-1.788 1.81-3.091.332-1.303.498-2.985.498-5.046v-5.818Zm23.261 27.455V51.342c0-3.697.422-6.848 1.267-9.454.844-2.606 2.187-4.743 4.027-6.409 1.841-1.667 4.209-2.894 7.105-3.682 2.896-.788 6.426-1.182 10.589-1.182h8.78v11h-8.418c-1.87 0-3.439.151-4.706.454-1.267.303-2.278.819-3.032 1.546-.754.727-1.297 1.727-1.629 3-.332 1.273-.498 2.879-.498 4.818v28.455h-13.485Zm39.823 0v-48h13.757v48h-13.757ZM439 27.797c-1.69 0-2.882-.334-3.575-1-.694-.667-1.041-1.728-1.041-3.182v-5.273c0-1.454.347-2.5 1.041-3.136.693-.637 1.885-.955 3.575-.955h4.434c1.75 0 2.972.318 3.666.955.694.636 1.041 1.682 1.041 3.136v5.273c0 1.454-.347 2.515-1.041 3.182-.694.666-1.916 1-3.666 1H439Zm22.626 52.091V41.615h-6.878v-11h6.878V16.706h13.758v13.909h15.476v11h-15.476v38.273h-13.758Zm48.784-19.637v2.273c0 1.515.121 2.727.362 3.636.241.909.679 1.622 1.312 2.137.634.515 1.479.863 2.534 1.045 1.056.182 2.369.273 3.938.273h15.929v10.273h-15.929c-7.784 0-13.335-1.485-16.654-4.455-3.318-2.97-4.978-7.727-4.978-14.273V49.797c0-3.576.347-6.591 1.041-9.046.694-2.454 1.901-4.424 3.62-5.909 1.72-1.485 3.998-2.56 6.834-3.227 2.836-.667 6.426-1 10.77-1h23.713c3.5 0 6.411.333 8.734 1 2.323.667 4.163 1.591 5.521 2.773 1.357 1.181 2.308 2.606 2.851 4.272.543 1.667.814 3.47.814 5.409v16.182H510.41Zm36.927-15.091c0-1.636-.407-2.727-1.222-3.272-.815-.546-2.248-.819-4.299-.819H519.37c-1.689 0-3.107.076-4.254.228-1.146.151-2.066.5-2.76 1.045-.694.546-1.192 1.333-1.494 2.364-.301 1.03-.452 2.424-.452 4.182v2.636h36.927V45.16Zm80.913 21.637c0 2.424-.211 4.469-.633 6.136-.423 1.667-1.252 3.015-2.489 4.046-1.237 1.03-2.927 1.772-5.069 2.227-2.142.454-4.932.682-8.371.682h-42.177V69.251h40.457c1.81 0 3.077-.303 3.801-.909.724-.606 1.086-1.757 1.086-3.454v-1.637c0-1.818-.347-2.954-1.041-3.409-.693-.454-1.855-.682-3.484-.682h-27.514c-2.776 0-5.023-.272-6.743-.818-1.72-.545-3.062-1.363-4.028-2.454-.965-1.091-1.614-2.44-1.946-4.046-.331-1.606-.497-3.5-.497-5.682v-3.727c0-2.121.226-3.939.678-5.454.453-1.516 1.192-2.743 2.218-3.682 1.026-.94 2.413-1.622 4.163-2.046 1.75-.424 3.952-.636 6.607-.636h18.645v10.273h-15.387c-1.327 0-2.277.242-2.85.727-.574.485-.86 1.364-.86 2.636v2.273c0 1.394.271 2.333.814 2.818.543.485 1.418.727 2.625.727h26.609c3.138 0 5.702.258 7.693.773 1.991.515 3.56 1.333 4.707 2.455 1.146 1.121 1.93 2.575 2.353 4.363.422 1.788.633 3.985.633 6.591v2.546Z" style="fill:#fff;fill-rule:nonzero"/>
    </g>
</svg>
