<svg viewBox="0 0 630 60" xmlns="http://www.w3.org/2000/svg" xml:space="preserve" style="fill-rule:evenodd;clip-rule:evenodd;stroke-linejoin:round;stroke-miterlimit:2">
    <path d="m58.611 7.43-10.838.942-.363-4.171a2.506 2.506 0 0 0-2.72-2.285L16.334 4.379a2.505 2.505 0 0 0-2.283 2.72l.362 4.171-10.842.942a2.502 2.502 0 0 0-2.283 2.717l.507 5.84c.323 3.721 3.001 7.342 7.365 9.937 3.489 2.081 7.61 3.234 11.843 3.349 3.746 5.148 7.766 7.057 7.766 7.057l.651 7.504-5.003.434c-3.68.32-6.484 2.739-6.164 6.417l.109 1.253c.06.688.671 1.201 1.359 1.141l30.856-2.68a1.26 1.26 0 0 0 1.144-1.359l-.109-1.253c-.319-3.678-3.5-5.577-7.18-5.257l-5.003.434-.652-7.503s3.632-2.575 6.432-8.291c4.16-.844 8.022-2.691 11.09-5.341 3.84-3.308 5.862-7.337 5.539-11.059l-.507-5.839a2.505 2.505 0 0 0-2.72-2.283ZM12.587 24.956c-2.701-1.614-4.016-3.559-4.121-4.767l-.145-1.668 6.692-.582c.401 3.389 1.157 6.327 2.116 8.87a16.946 16.946 0 0 1-4.542-1.853Zm42.582-8.824c.145 1.677-1.52 3.922-3.241 5.406a16.895 16.895 0 0 1-4.162 2.609c.502-2.669.744-5.694.553-9.101l6.705-.582.145 1.668Z" style="fill:#e0b668;fill-rule:nonzero"/>
    <path d="M31.504 14.562a5.851 5.851 0 0 1 6.333 5.32 5.852 5.852 0 0 1-5.32 6.334 5.852 5.852 0 0 1-6.333-5.321 5.85 5.85 0 0 1 5.32-6.333Z" style="fill:#e1b347"/>
    <path d="M31.431 13.59a6.863 6.863 0 0 1 2.8.345 6.906 6.906 0 0 1 3.591 2.877 6.877 6.877 0 0 1 1.004 3.93 6.843 6.843 0 0 1-.989 3.197 6.877 6.877 0 0 1-3.193 2.746 6.888 6.888 0 0 1-4.706.206 6.89 6.89 0 0 1-3.115-2.07 6.865 6.865 0 0 1-1.608-3.809 6.837 6.837 0 0 1 .489-3.23 6.902 6.902 0 0 1 3.025-3.377 6.843 6.843 0 0 1 2.702-.815Zm.15 1.944a4.898 4.898 0 0 0-2.588 1.027 4.932 4.932 0 0 0-1.826 3.277 4.905 4.905 0 0 0 .638 3.015 4.942 4.942 0 0 0 3.231 2.312 4.905 4.905 0 0 0 3.219-.449 4.929 4.929 0 0 0 2.318-2.611 4.912 4.912 0 0 0-.112-3.707 4.932 4.932 0 0 0-2.138-2.3 4.9 4.9 0 0 0-2.742-.564Z" style="fill:#e6d554;fill-rule:nonzero"/>
    <path d="M31.01 20.137a.993.993 0 0 1-.727-.686.991.991 0 0 1 .171-.867l.021-.026.627-.746a.99.99 0 0 1 .65-.343l.032-.003.033-.002a.997.997 0 0 1 .857.456.992.992 0 0 1 .148.543l.244 2.812.027-.002c.025-.001.03-.002.055-.001a.99.99 0 0 1 .879.549.99.99 0 0 1-.113 1.031.996.996 0 0 1-.679.366l-1.943.169a1.001 1.001 0 0 1-.791-.301.99.99 0 0 1-.223-.965.99.99 0 0 1 .457-.558c.119-.066.253-.105.389-.119l-.114-1.307Z" style="fill:#e6d554;fill-rule:nonzero"/>
    <path d="m80.984 45.911-4.588 6.171h4.588v2.336H68.369v-8.259c0-.743.055-1.377.166-1.903.111-.526.309-.956.592-1.291.284-.335.672-.58 1.166-.735.493-.154 1.115-.232 1.868-.232h.869c.728 0 1.329.083 1.803.248.475.165.851.42 1.129.765.277.346.471.781.582 1.307.111.526.167 1.15.167 1.872v1.856l4.273-6.187v4.052Zm-8.675-1.562c-.333 0-.605.031-.814.093a.91.91 0 0 0-.481.309c-.111.145-.185.346-.222.603a6.92 6.92 0 0 0-.056.959v5.769h3.848v-5.769c0-.381-.019-.698-.056-.951-.037-.252-.111-.453-.222-.603a.887.887 0 0 0-.481-.317c-.209-.062-.487-.093-.832-.093h-.684Zm4.679-5.908h.463c.308 0 .555-.021.74-.062a.841.841 0 0 0 .434-.224.852.852 0 0 0 .213-.433c.037-.181.056-.405.056-.673v-2.722h2.09v2.722c0 1.33-.302 2.279-.907 2.846-.604.567-1.572.85-2.904.85h-2.312c-.727 0-1.341-.059-1.84-.177-.5-.119-.9-.325-1.203-.619-.302-.294-.521-.683-.656-1.168-.136-.484-.204-1.098-.204-1.84v-4.053c0-.598.068-1.095.204-1.492.135-.397.324-.712.564-.944.24-.232.53-.394.869-.487a4.15 4.15 0 0 1 1.101-.139h3.292v8.615Zm-3.07-6.31c-.333 0-.555.069-.666.208-.111.14-.166.384-.166.735v3.836c0 .288.015.531.046.727a.864.864 0 0 0 .212.471.955.955 0 0 0 .481.256c.21.051.494.077.851.077h.537v-6.31h-1.295Zm7.066-4.455h-7.788v1.176h-2.238v-1.176h-2.83v-2.351h2.83V22.68h2.238v2.645h7.788v2.351Zm0-6.109h-5.808c-.753 0-1.394-.072-1.924-.217-.53-.144-.965-.373-1.304-.688a2.786 2.786 0 0 1-.749-1.214c-.16-.495-.241-1.098-.241-1.81v-1.5h2.238v1.439c0 .319.031.587.093.804.062.216.166.389.314.518s.352.222.611.278c.259.057.586.085.98.085h5.79v2.305Zm0-10.518c0 .774-.077 1.418-.232 1.934-.154.515-.4.928-.739 1.237-.34.309-.783.528-1.332.657s-1.224.194-2.026.194h-1.35c-.801 0-1.48-.065-2.035-.194-.554-.129-1.001-.348-1.341-.657-.339-.309-.585-.722-.739-1.237-.155-.516-.232-1.16-.232-1.934V8.25c0-.784.077-1.433.232-1.949.154-.515.403-.928.749-1.237.345-.31.795-.529 1.35-.658.555-.128 1.233-.193 2.035-.193h1.331c.802 0 1.477.065 2.026.193.549.129.992.348 1.332.658.339.309.585.722.739 1.237.155.516.232 1.165.232 1.949v2.799Zm-5.586-4.531c-.42 0-.765.028-1.036.085-.271.056-.484.16-.638.309-.154.15-.259.358-.315.626a5.226 5.226 0 0 0-.083 1.021v2.181c0 .412.028.75.083 1.013.056.263.161.469.315.619.154.149.367.252.638.309.271.057.616.085 1.036.085h1.183c.42 0 .762-.028 1.027-.085.265-.057.475-.16.629-.309.154-.15.262-.356.324-.619.061-.263.092-.601.092-1.013V8.559c0-.412-.031-.752-.092-1.021-.062-.268-.17-.476-.324-.626a1.256 1.256 0 0 0-.629-.309 5.04 5.04 0 0 0-1.027-.085h-1.183Zm50.835 37.058H98.057l-5.79 10.938H81.821l23.638-43.891c.717-1.347 1.572-2.462 2.567-3.344.995-.883 2.428-1.324 4.298-1.324 1.831 0 3.243.441 4.238 1.324.995.882 1.851 1.997 2.567 3.344l23.519 43.891h-10.506l-5.909-10.938Zm-23.938-8.151h19.699l-9.849-18.741-9.85 18.741Zm57.784 19.089c-2.984 0-5.472-.29-7.461-.871-1.99-.581-3.582-1.509-4.776-2.787-1.194-1.277-2.039-2.949-2.537-5.016-.497-2.067-.746-4.61-.746-7.629v-5.085c0-3.019.249-5.574.746-7.664.498-2.09 1.343-3.774 2.537-5.051 1.194-1.277 2.786-2.206 4.776-2.787 1.989-.58 4.477-.871 7.461-.871h23.4v8.918h-23.101c-1.393 0-2.537.116-3.433.348-.895.233-1.601.639-2.119 1.22-.517.58-.875 1.381-1.074 2.403-.199 1.022-.299 2.299-.299 3.832v4.459c0 1.486.1 2.728.299 3.727.199.999.557 1.8 1.074 2.404.518.603 1.224 1.033 2.119 1.288.896.256 2.04.384 3.433.384h23.161v8.778h-23.46Zm63.514 0v-21.04c0-1.579-.109-2.88-.328-3.902-.219-1.021-.587-1.823-1.104-2.403-.518-.581-1.234-.975-2.149-1.184-.916-.209-2.05-.314-3.403-.314H198.88v28.843h-8.894V4.561h8.894v12.192h17.968c3.024 0 5.541.291 7.551.871 2.01.581 3.612 1.51 4.805 2.787 1.194 1.277 2.04 2.961 2.537 5.051.498 2.09.747 4.645.747 7.664v21.388h-8.895Zm15.759 0V17.729h9.074v36.785h-9.074Zm3.045-39.92c-1.115 0-1.901-.256-2.358-.767-.458-.511-.687-1.323-.687-2.438V7.348c0-1.115.229-1.916.687-2.403.457-.488 1.243-.732 2.358-.732h2.925c1.154 0 1.96.244 2.417.732.458.487.687 1.288.687 2.403v4.041c0 1.115-.229 1.927-.687 2.438-.457.511-1.263.767-2.417.767h-2.925Zm21.668 24.871v1.742c0 1.161.08 2.09.239 2.787.159.697.448 1.242.866 1.637s.975.662 1.671.801c.697.14 1.562.209 2.597.209h10.506v7.873h-10.506c-5.134 0-8.795-1.138-10.984-3.414-2.188-2.276-3.283-5.922-3.283-10.938v-8.708c0-2.741.229-5.051.687-6.932.457-1.882 1.253-3.391 2.387-4.529 1.135-1.138 2.637-1.962 4.507-2.473 1.871-.511 4.238-.767 7.104-.767h15.639c2.309 0 4.229.256 5.761.767s2.746 1.219 3.641 2.125c.896.905 1.522 1.997 1.881 3.274.358 1.277.537 2.659.537 4.145v12.401h-33.25ZM288.42 27.9c0-1.254-.268-2.09-.805-2.508-.538-.418-1.483-.627-2.836-.627h-14.804c-1.114 0-2.049.058-2.805.175-.757.116-1.363.383-1.821.801-.458.418-.786 1.022-.985 1.811-.199.79-.299 1.858-.299 3.205v2.02h24.355V27.9Zm43.577 24.106c-.677 1.068-1.463 1.927-2.358 2.578-.896.65-2.139.975-3.731.975-1.671 0-2.945-.325-3.82-.975-.876-.651-1.652-1.51-2.328-2.578l-21.311-35.253h10.625l16.953 28.913 16.774-28.913h10.506l-21.31 35.253Zm31.04-12.541v1.742c0 1.161.08 2.09.239 2.787.159.697.448 1.242.866 1.637s.975.662 1.671.801c.696.14 1.562.209 2.597.209h10.506v7.873H368.41c-5.134 0-8.795-1.138-10.984-3.414-2.189-2.276-3.283-5.922-3.283-10.938v-8.708c0-2.741.229-5.051.686-6.932.458-1.882 1.254-3.391 2.388-4.529s2.637-1.962 4.507-2.473c1.87-.511 4.238-.767 7.104-.767h15.639c2.308 0 4.229.256 5.761.767s2.746 1.219 3.641 2.125c.895.905 1.522 1.997 1.88 3.274.359 1.277.538 2.659.538 4.145v12.401h-33.25ZM387.392 27.9c0-1.254-.268-2.09-.806-2.508-.537-.418-1.482-.627-2.835-.627h-14.804c-1.114 0-2.05.058-2.806.175-.756.116-1.363.383-1.82.801-.458.418-.786 1.022-.985 1.811-.199.79-.299 1.858-.299 3.205v2.02h24.355V27.9Zm66.2 26.614V31.802c0-2.369-.388-3.983-1.164-4.842-.776-.859-2.019-1.289-3.73-1.289h-5.791c-1.313 0-2.397.105-3.253.314-.856.209-1.532.557-2.03 1.045-.497.487-.845 1.114-1.044 1.881-.199.766-.299 1.73-.299 2.891v22.712h-7.82V31.802c0-1.161-.089-2.125-.268-2.891-.179-.767-.518-1.394-1.015-1.881-.497-.488-1.184-.836-2.059-1.045-.876-.209-1.99-.314-3.343-.314h-5.671c-1.791 0-3.054.43-3.791 1.289-.736.859-1.104 2.473-1.104 4.842v22.712h-8.656V30.269c0-2.322.199-4.331.597-6.026.398-1.695 1.055-3.1 1.97-4.215.916-1.115 2.109-1.939 3.582-2.473 1.472-.534 3.283-.802 5.432-.802h7.82c1.631 0 3.034.14 4.208.418 1.174.279 2.169.686 2.985 1.22a6.242 6.242 0 0 1 1.97 2.055c.497.836.905 1.811 1.224 2.926.557-2.229 1.621-3.89 3.193-4.981 1.572-1.092 3.95-1.638 7.133-1.638h8.059c2.149 0 3.96.268 5.432.802 1.473.534 2.667 1.358 3.582 2.473.915 1.115 1.572 2.52 1.97 4.215.398 1.695.597 3.704.597 6.026v24.245h-8.716Zm24.176-15.049v1.742c0 1.161.08 2.09.239 2.787.159.697.448 1.242.866 1.637.417.395.975.662 1.671.801.696.14 1.562.209 2.597.209h10.506v7.873h-10.506c-5.134 0-8.795-1.138-10.984-3.414-2.189-2.276-3.283-5.922-3.283-10.938v-8.708c0-2.741.229-5.051.686-6.932.458-1.882 1.254-3.391 2.388-4.529s2.637-1.962 4.507-2.473c1.87-.511 4.238-.767 7.104-.767h15.639c2.308 0 4.229.256 5.761.767s2.746 1.219 3.641 2.125c.895.905 1.522 1.997 1.88 3.274.359 1.277.538 2.659.538 4.145v12.401h-33.25ZM502.123 27.9c0-1.254-.268-2.09-.806-2.508-.537-.418-1.482-.627-2.835-.627h-14.804c-1.114 0-2.05.058-2.806.175-.756.116-1.363.383-1.82.801-.458.418-.786 1.022-.985 1.811-.199.79-.299 1.858-.299 3.205v2.02h24.355V27.9Zm48.173 26.614v-21.04c0-1.579-.11-2.868-.328-3.867-.219-.998-.597-1.788-1.135-2.368-.537-.581-1.273-.987-2.208-1.22-.935-.232-2.119-.348-3.552-.348h-9.67c-1.393 0-2.557.116-3.492.348-.936.233-1.682.639-2.239 1.22-.557.58-.945 1.37-1.164 2.368-.219.999-.328 2.288-.328 3.867v21.04h-8.895V33.126c0-3.019.249-5.574.747-7.664.497-2.09 1.343-3.774 2.537-5.051 1.193-1.277 2.785-2.206 4.775-2.787 1.99-.58 4.477-.871 7.462-.871h10.804c3.025 0 5.532.291 7.522.871 1.989.581 3.581 1.51 4.775 2.787 1.194 1.277 2.04 2.961 2.537 5.051.498 2.09.746 4.645.746 7.664v21.388h-8.894Zm17.61 0V25.183h-4.537v-8.43h4.537V6.094h9.073v10.659h10.208v8.43h-10.208v29.331h-9.073Zm61.603-10.032c0 1.857-.139 3.425-.418 4.702-.278 1.277-.825 2.311-1.641 3.1-.816.79-1.93 1.359-3.343 1.707-1.413.349-3.253.523-5.522.523h-27.817v-8.151h26.683c1.194 0 2.03-.233 2.507-.697.478-.465.717-1.347.717-2.647v-1.254c0-1.394-.229-2.265-.687-2.613-.458-.348-1.224-.523-2.298-.523h-18.147c-1.83 0-3.313-.209-4.447-.627-1.134-.418-2.02-1.045-2.656-1.881-.637-.836-1.065-1.869-1.284-3.1-.219-1.231-.328-2.682-.328-4.354V25.81c0-1.625.149-3.019.448-4.18.298-1.161.786-2.101 1.462-2.821.677-.72 1.592-1.243 2.746-1.568 1.154-.325 2.607-.488 4.358-.488h12.296v7.873h-10.147c-.876 0-1.503.186-1.881.557-.378.372-.567 1.045-.567 2.021v1.741c0 1.069.179 1.789.537 2.16.359.372.936.558 1.731.558h17.55c2.07 0 3.761.197 5.074.592 1.314.395 2.348 1.022 3.104 1.881.756.859 1.274 1.974 1.552 3.344.279 1.37.418 3.054.418 5.051v1.951Z" style="fill:#fff;fill-rule:nonzero"/>
</svg>
