<svg viewBox="0 0 633 113" xmlns="http://www.w3.org/2000/svg" xml:space="preserve" style="fill-rule:evenodd;clip-rule:evenodd;stroke-linejoin:round;stroke-miterlimit:2">
    <clipPath id="a">
        <path d="M.261.93h632v111.86h-632z"/>
    </clipPath>
    <g clip-path="url(#a)">
        <path d="M181.969 71.475h-35.387l-7.273 11.771h-13.12l29.69-47.234c.899-1.449 1.974-2.649 3.223-3.598 1.25-.95 3.049-1.425 5.398-1.425 2.3 0 4.074.475 5.324 1.425 1.249.949 2.324 2.149 3.223 3.598l29.54 47.234h-13.195l-7.423-11.771Zm-30.064-8.772h24.741l-12.37-20.168-12.371 20.168Zm72.649 20.543c-3.798 0-6.96-.313-9.484-.937-2.524-.625-4.536-1.625-6.035-2.999-1.5-1.375-2.562-3.174-3.187-5.398-.624-2.225-.937-4.961-.937-8.21v-5.473c0-3.249.313-5.998.937-8.247.625-2.249 1.687-4.061 3.187-5.436 1.499-1.374 3.511-2.374 6.035-2.999s5.686-.937 9.484-.937h22.567V29.49h11.172v36.212c0 3.249-.313 5.985-.938 8.21-.624 2.224-1.687 4.023-3.186 5.398-1.499 1.374-3.499 2.374-5.998 2.999-2.499.624-5.648.937-9.447.937h-14.17Zm-8.472-17.844c0 1.799.138 3.249.413 4.349.275 1.099.787 1.949 1.537 2.549.749.599 1.762.999 3.036 1.199 1.275.2 2.912.3 4.911.3h12.446c1.749 0 3.186-.112 4.311-.337 1.124-.225 2.011-.65 2.661-1.275.65-.625 1.1-1.474 1.35-2.549s.374-2.462.374-4.161v-13.27h-21.217c-1.949 0-3.561.1-4.836.3-1.274.2-2.287.599-3.036 1.199-.75.6-1.262 1.45-1.537 2.549-.275 1.1-.413 2.549-.413 4.349v4.798Zm89.219 15.145c-.85 1.149-1.837 2.074-2.961 2.774-1.125.7-2.687 1.049-4.686 1.049-2.1 0-3.699-.349-4.799-1.049-1.099-.7-2.074-1.625-2.924-2.774L263.166 42.61h13.345l21.293 31.114 21.067-31.114h13.196l-26.766 37.937Zm38.986-13.496v1.875c0 1.249.1 2.249.3 2.999.2.75.563 1.337 1.087 1.762.525.425 1.225.712 2.1.862.874.15 1.961.225 3.261.225h13.195v8.472h-13.195c-6.448 0-11.046-1.225-13.795-3.674-2.749-2.449-4.124-6.373-4.124-11.771V58.43c0-2.949.288-5.436.863-7.46.574-2.025 1.574-3.649 2.998-4.874 1.425-1.224 3.312-2.111 5.661-2.661 2.349-.55 5.323-.825 8.922-.825h19.643c2.899 0 5.311.275 7.235.825 1.924.55 3.449 1.312 4.573 2.286 1.125.975 1.912 2.15 2.362 3.524.45 1.375.675 2.862.675 4.461v13.345h-41.761Zm30.59-12.445c0-1.35-.338-2.249-1.012-2.699-.675-.45-1.862-.675-3.562-.675H351.71c-1.4 0-2.574.063-3.524.187-.95.125-1.712.413-2.287.863-.574.45-.987 1.099-1.237 1.949-.25.85-.375 1.999-.375 3.449v2.174h30.59v-5.248Zm60.503 28.64V60.604c0-1.7-.137-3.087-.412-4.161-.275-1.075-.75-1.925-1.424-2.549-.675-.625-1.6-1.063-2.774-1.312-1.175-.25-2.662-.375-4.461-.375h-12.146c-1.75 0-3.212.125-4.386.375-1.175.249-2.112.687-2.812 1.312-.699.624-1.187 1.474-1.462 2.549-.274 1.074-.412 2.461-.412 4.161v22.642H393.92V60.229c0-3.249.312-5.998.937-8.247.625-2.249 1.687-4.061 3.187-5.436 1.499-1.374 3.498-2.374 5.997-2.999 2.5-.625 5.623-.937 9.372-.937h13.57c3.799 0 6.948.312 9.447.937 2.499.625 4.498 1.625 5.998 2.999 1.499 1.375 2.562 3.187 3.186 5.436.625 2.249.938 4.998.938 8.247v23.017H435.38Zm22.118 0V51.682H451.8V42.61h5.698V31.139h11.396V42.61h12.82v9.072h-12.82v31.564h-11.396Zm48.883 0c-3.749 0-6.873-.313-9.372-.937-2.499-.625-4.499-1.625-5.998-2.999-1.5-1.375-2.562-3.174-3.186-5.398-.625-2.225-.938-4.961-.938-8.21V42.61h11.246v22.792c0 1.749.163 3.161.488 4.236.325 1.075.837 1.912 1.537 2.512.699.599 1.637 1.012 2.811 1.237 1.175.225 2.612.337 4.311.337h11.696c1.799 0 3.299-.112 4.499-.337 1.199-.225 2.136-.638 2.811-1.237.675-.6 1.15-1.437 1.425-2.512.274-1.075.412-2.487.412-4.236V42.61h11.096v23.092c0 3.249-.312 5.985-.937 8.21-.625 2.224-1.687 4.023-3.187 5.398-1.499 1.374-3.511 2.374-6.035 2.999-2.524.624-5.685.937-9.484.937h-13.195Zm41.46 0V59.704c0-3.049.35-5.648 1.05-7.797.699-2.149 1.811-3.911 3.336-5.286 1.524-1.374 3.486-2.387 5.885-3.036 2.4-.65 5.323-.975 8.772-.975h7.273v9.072h-6.973c-1.549 0-2.849.125-3.898.375-1.05.25-1.887.675-2.512 1.274-.625.6-1.075 1.425-1.35 2.474-.275 1.05-.412 2.375-.412 3.974v23.467h-11.171Zm42.66-16.195v1.875c0 1.249.1 2.249.3 2.999.2.75.562 1.337 1.087 1.762.525.425 1.225.712 2.099.862.875.15 1.962.225 3.262.225h13.195v8.472h-13.195c-6.448 0-11.046-1.225-13.796-3.674-2.749-2.449-4.123-6.373-4.123-11.771V58.43c0-2.949.287-5.436.862-7.46.575-2.025 1.575-3.649 2.999-4.874 1.425-1.224 3.311-2.111 5.661-2.661 2.349-.55 5.323-.825 8.921-.825h19.644c2.899 0 5.31.275 7.235.825 1.924.55 3.448 1.312 4.573 2.286 1.125.975 1.912 2.15 2.362 3.524.449 1.375.674 2.862.674 4.461v13.345h-41.76Zm30.589-12.445c0-1.35-.337-2.249-1.012-2.699-.675-.45-1.862-.675-3.561-.675h-18.594c-1.399 0-2.574.063-3.523.187-.95.125-1.712.413-2.287.863s-.987 1.099-1.237 1.949c-.25.85-.375 1.999-.375 3.449v2.174h30.589v-5.248Z" style="fill:#fff;fill-rule:nonzero"/>
        <circle cx="17.777" cy="6.639" r="5.709" style="fill:#ffbf76"/>
        <path d="M16.488 1.082a5.707 5.707 0 0 0-4.42 5.557 5.707 5.707 0 0 0 4.42 5.558 7.546 7.546 0 0 0 0-11.115Z" style="fill:#ffd9be;fill-rule:nonzero"/>
        <path d="M1.161 73.035C11.488 66.099 45.645 43.069 55.036 35.6a4.364 4.364 0 0 1 4.143-.714c6.775 2.331 26.48 9.071 35.408 11.686a1.944 1.944 0 0 1 1.218 2.677l-4.088 8.95 10.7-7.282a2.683 2.683 0 0 1 2.355-.33c3.84 1.273 15.714 5.166 24.653 7.622 1.757.482 2.355 2.664 1.086 3.97-6.074 6.247-20.192 20.739-25.968 26.414-.326.32-.751.515-1.207.552l-7.801.637 2.292 2.083c.828.753.855 2.046.056 2.83-3.568 3.505-12.721 12.493-17.09 16.797a4.513 4.513 0 0 1-5.137.846L42.683 96.373a1.95 1.95 0 0 1-1.041-2.229l.966-3.842-7.777 3.994a1.942 1.942 0 0 1-1.946-.095C29.446 91.97 16.908 84.035 1.422 76.566c-1.421-.686-1.571-2.651-.261-3.531Z" style="fill:url(#b);fill-rule:nonzero"/>
        <path d="M112.511 65.656c1.231-1.155.805-3.199-.785-3.764-4.129-1.469-10.1-3.65-16.57-6.033l-3.439 2.34 1.411-3.088a8481.678 8481.678 0 0 1-33.142-12.323 3.791 3.791 0 0 0-3.629.53c-7.938 6.02-30.725 22.901-38.344 28.54-1.041.771-.83 2.386.378 2.855 6.965 2.7 18.149 8.63 18.149 8.63 10.127 5.465 29.913 13.577 36.59 16.273a3.79 3.79 0 0 0 4.028-.759c7.84-7.392 28.025-26.328 35.353-33.201Z" style="fill:#ffe7d0;fill-rule:nonzero"/>
        <path d="m80.843 82.021-3.048-2.735a.882.882 0 0 0-.793-.202l-4.97 1.177-2.581-2.789a.885.885 0 0 0-.831-.264l-3.956.839a.882.882 0 0 0-.495 1.428l1.843 2.212-5.259 1.246a.881.881 0 0 0-.409 1.493l2.871 2.771a.882.882 0 0 0 .816.224l5.647-1.335 2.922 3.505a.881.881 0 0 0 .933.279l4.425-1.339a.882.882 0 0 0 .391-1.444l-2.317-2.504 4.425-1.046a.883.883 0 0 0 .386-1.516Z" style="fill:#c14c82;fill-rule:nonzero"/>
        <path d="M59.959 48.408c1.488.407 2.394 1.837 2.024 3.192-.371 1.355-1.88 2.124-3.367 1.717-1.488-.407-2.394-1.837-2.024-3.192.371-1.355 1.88-2.124 3.367-1.717Zm19.932 20.395-2.676.03a24.592 24.592 0 0 1-.547 5.277l2.621.54a27.25 27.25 0 0 0 .602-5.847Zm-3.107-10.14-2.172 1.562c.964 1.367 1.7 2.897 2.102 4.55l2.593-.663c-.476-1.948-1.357-3.806-2.523-5.449Zm-8.506-6.278-.929 2.51c1.615.607 3.163 1.428 4.498 2.481l1.643-2.112c-1.576-1.239-3.353-2.18-5.212-2.879Z" style="fill:#c14c82"/>
        <path d="M18.039 14.376c1.066-1.283 3.206-3.071 6.797-2.956.754.024 1.443.439 1.856 1.069l11.422 17.447-10.461 6.224s-6.262-10.957-9.943-19.323a2.356 2.356 0 0 1 .329-2.461Z" style="fill:#b75798;fill-rule:nonzero"/>
        <path d="M17.598 16.755c1.084-1.532 3.713-4.41 8.265-4.606.591-.026.927-.682.576-1.158l-.315-.429c-.823-1.119-2.237-1.65-3.585-1.314a12.732 12.732 0 0 0-5.631 3.09 3.454 3.454 0 0 0-.523 4.396l.003.005a.73.73 0 0 0 1.21.016Z" style="fill:#ffd9be;fill-rule:nonzero"/>
        <path d="m28.582 35.607 9.532-5.671L26.692 12.49c-.413-.631-1.102-1.045-1.856-1.069a9.142 9.142 0 0 0-2.022.165c3.967 4.551 11.138 14.73 5.768 24.021Z" style="fill:#7f2467;fill-rule:nonzero"/>
        <path d="M22.308 12.932a10.318 10.318 0 0 1 3.554-.783c.592-.026.928-.682.577-1.158l-.315-.429c-.823-1.119-2.237-1.65-3.585-1.314-.441.11-.929.262-1.443.459a4.223 4.223 0 0 1 1.212 3.225Z" style="fill:#ffbf76;fill-rule:nonzero"/>
        <path d="M26.582 40.046s9.88 17.068 14.947 23.068h14.402S45.917 38.579 41.256 31.245l-14.674 8.801Z" style="fill:url(#c);fill-rule:nonzero"/>
        <path d="M55.93 63.114S45.917 38.579 41.256 31.245l-14.674 8.801s.178.308.492.844c3.911 1.214 11.04 3.556 11.04 3.556l10.56 18.668h7.256Z" style="fill:url(#d);fill-rule:nonzero"/>
        <path d="m14.92 41.836 33.484-18.623c.961-.535 2.114-.659 3.143-.271 1.02.384 2.191 1.105 2.788 2.449 0 0 .02.041.051.119 1.451 3.545-2.323 7.095-5.755 5.392a4.538 4.538 0 0 1-.917-.594 1.62 1.62 0 0 0-1.87-.177l-2.495 1.46c-.284.167-.51.416-.649.714l-3.91 8.417a2.369 2.369 0 0 1-2.277 1.367l-10.741-.584a1.609 1.609 0 0 0-.829.178l-2.771 1.429a1.602 1.602 0 0 0-.865 1.613 8.426 8.426 0 0 1-.085 2.528 3.567 3.567 0 0 1-4.208 2.847c-3.133-.56-5.048-3.962-3.565-6.777.074-.141.155-.278.245-.413.305-.458.746-.807 1.226-1.074Z" style="fill:#ffd9be;fill-rule:nonzero"/>
        <path d="m38.79 40.722 3.91-8.417c.139-.299.365-.548.649-.714l2.495-1.46a1.62 1.62 0 0 1 1.87.177c.281.238.593.433.917.594 3.432 1.703 7.206-1.847 5.755-5.392-.031-.077-.051-.119-.051-.119-.597-1.344-1.769-2.065-2.788-2.449-1.029-.388-2.182-.264-3.143.271l-15.868 8.825c1.389 1.611 3.791 5.038 4.514 10.013a2.367 2.367 0 0 0 1.74-1.329Z" style="fill:#ffbf76;fill-rule:nonzero"/>
        <path d="M37.511 63.327c-.319-.027-.331-.492-.012-.531a95.942 95.942 0 0 1 10.597-.704s6.723-.202 12.312.672c.31.049.292.503-.02.531-2.825.256-8.215.697-12.228.747h-.012c-.154-.008-5.998-.317-10.637-.715Z" style="fill:url(#e);fill-rule:nonzero"/>
    </g>
    <defs>
        <linearGradient id="b" x1="0" y1="0" x2="1" y2="0" gradientUnits="userSpaceOnUse" gradientTransform="rotate(71.656 1.419 57.989) scale(94.5985)">
            <stop offset="0" style="stop-color:#a84a78;stop-opacity:1"/>
            <stop offset=".01" style="stop-color:#a84a78;stop-opacity:1"/>
            <stop offset="1" style="stop-color:#c36c9a;stop-opacity:1"/>
        </linearGradient>
        <linearGradient id="c" x1="0" y1="0" x2="1" y2="0" gradientUnits="userSpaceOnUse" gradientTransform="rotate(-121.171 39.435 15.28) scale(27.3752)">
            <stop offset="0" style="stop-color:#fff;stop-opacity:1"/>
            <stop offset="1" style="stop-color:#c7daff;stop-opacity:1"/>
        </linearGradient>
        <linearGradient id="d" x1="0" y1="0" x2="1" y2="0" gradientUnits="userSpaceOnUse" gradientTransform="translate(26.582 47.18) scale(29.3489)">
            <stop offset="0" style="stop-color:#819fea;stop-opacity:1"/>
            <stop offset="1" style="stop-color:#a7c1fc;stop-opacity:1"/>
        </linearGradient>
        <linearGradient id="e" x1="0" y1="0" x2="1" y2="0" gradientUnits="userSpaceOnUse" gradientTransform="translate(37.266 63.057) scale(23.3655)">
            <stop offset="0" style="stop-color:#a84a78;stop-opacity:1"/>
            <stop offset=".01" style="stop-color:#a84a78;stop-opacity:1"/>
            <stop offset="1" style="stop-color:#c36c9a;stop-opacity:1"/>
        </linearGradient>
    </defs>
</svg>
