<svg viewBox="0 0 200 40" xmlns="http://www.w3.org/2000/svg">
    <path d="M39.865 43.157c-5.357 0-10.715-.012-16.073.012-.684.005-.873-.213-.779-.862.213-1.416.561-2.732 1.906-3.54.112-.071.183-.301.177-.455-.023-.584-.136-1.168-.136-1.746-.017-7.931-.017-15.861-.023-23.791 0-.962 0-.962.979-.962 9.347 0 18.693.006 28.04-.018.732 0 .909.224.903.926-.024 8.45-.012 16.9-.024 25.349 0 .449.089.762.466 1.08 1.086.927 1.346 2.231 1.416 3.576.03.478-.342.419-.643.425-1.935.012-3.87.023-5.806.029-3.469.006-6.939 0-10.409 0 .006-.006.006-.017.006-.023ZM25.491 12.426v26.193h28.742V12.426H25.491Zm30.872 30.129c-.395-.974-.672-1.812-1.068-2.591-.265-.531-.773-.773-1.422-.725-.655.047-1.321.012-1.982.012-8.68 0-17.366-.006-26.045.011-.349 0-.785.089-1.033.301-.903.761-1.139 1.824-1.222 2.992h32.772Z" style="fill:#ccc" transform="translate(11.095 -7.392)"/>
    <path d="M30.159 33.114a2.32 2.32 0 0 1 2.331 2.325c0 1.268-1.08 2.348-2.343 2.336a2.353 2.353 0 0 1-2.325-2.348 2.304 2.304 0 0 1 2.337-2.313Zm15.371 2.325c-.006 1.28-1.068 2.342-2.343 2.336a2.363 2.363 0 0 1-2.33-2.354c.006-1.298 1.038-2.313 2.342-2.313a2.32 2.32 0 0 1 2.331 2.331Zm4.431-10.492a2.311 2.311 0 0 1-2.342-2.313 2.32 2.32 0 0 1 2.301-2.354c1.269-.012 2.354 1.05 2.36 2.319.018 1.275-1.038 2.331-2.319 2.348Zm0 6.403a2.307 2.307 0 0 1-2.342-2.308 2.324 2.324 0 0 1 2.307-2.354c1.269-.012 2.348 1.05 2.36 2.319a2.348 2.348 0 0 1-2.325 2.343Zm-15.495 4.112c-.012-1.31.992-2.336 2.296-2.348 1.304-.012 2.354 1.003 2.372 2.289.017 1.257-1.051 2.349-2.313 2.372-1.275.024-2.349-1.032-2.355-2.313Zm13.153-.006c-.006-1.31.997-2.336 2.301-2.342 1.292-.006 2.354 1.021 2.366 2.301.012 1.263-1.05 2.343-2.319 2.366-1.274.018-2.342-1.044-2.348-2.325Zm-2.089-12.81a2.333 2.333 0 0 1-2.366 2.301 2.339 2.339 0 0 1-2.307-2.36 2.345 2.345 0 0 1 2.366-2.307 2.346 2.346 0 0 1 2.307 2.366Zm-2.354 1.735a1.778 1.778 0 0 0 1.787-1.729 1.782 1.782 0 0 0-1.711-1.805 1.77 1.77 0 0 0-1.817 1.764 1.758 1.758 0 0 0 1.741 1.77Zm-13.041.566a2.327 2.327 0 0 1-2.319-2.342 2.341 2.341 0 0 1 2.343-2.325c1.28.006 2.325 1.068 2.325 2.349 0 1.274-1.062 2.324-2.349 2.318Zm1.782-2.366a1.781 1.781 0 0 0-1.782-1.734 1.768 1.768 0 1 0 .065 3.534 1.779 1.779 0 0 0 1.717-1.8Zm18.015-8.862c1.28-.006 2.348 1.05 2.354 2.319 0 1.268-1.068 2.336-2.337 2.348-1.28.012-2.33-1.039-2.33-2.331 0-1.31 1.009-2.331 2.313-2.336Zm-1.753 2.336c.006.956.803 1.765 1.753 1.765.944 0 1.758-.803 1.782-1.753.017-.985-.809-1.8-1.8-1.782a1.754 1.754 0 0 0-1.735 1.77Zm-4.992-2.336a2.316 2.316 0 0 1 2.343 2.319c.006 1.274-1.056 2.348-2.325 2.348a2.353 2.353 0 0 1-2.342-2.331 2.319 2.319 0 0 1 2.324-2.336Zm-.006.566a1.749 1.749 0 0 0-1.746 1.758c0 .962.791 1.765 1.741 1.782.973.012 1.805-.832 1.787-1.811a1.761 1.761 0 0 0-1.782-1.729Zm-15.359 1.758a2.312 2.312 0 0 1 2.331-2.324 2.328 2.328 0 0 1 2.337 2.324 2.358 2.358 0 0 1-2.337 2.337 2.341 2.341 0 0 1-2.331-2.337Zm.567.024c.011.962.814 1.758 1.764 1.758.974-.005 1.794-.855 1.764-1.835a1.766 1.766 0 0 0-1.805-1.705 1.749 1.749 0 0 0-1.723 1.782Zm8.379 8.88a2.311 2.311 0 0 1-2.302-2.354 2.324 2.324 0 0 1 2.349-2.313c1.274.012 2.33 1.092 2.319 2.36-.012 1.269-1.086 2.319-2.366 2.307Zm.005-.566a1.787 1.787 0 0 0 1.788-1.735c.018-.979-.808-1.811-1.793-1.799a1.76 1.76 0 0 0-1.741 1.77c0 .973.779 1.758 1.746 1.764Zm-2.307-8.338a2.3 2.3 0 0 1 2.325-2.324c1.286 0 2.343 1.044 2.343 2.324 0 1.263-1.08 2.343-2.343 2.343a2.337 2.337 0 0 1-2.325-2.343Zm.561-.035a1.788 1.788 0 0 0 1.705 1.812c.962.035 1.823-.803 1.823-1.777a1.77 1.77 0 0 0-1.758-1.758 1.75 1.75 0 0 0-1.77 1.723Zm-4.868 15.347a2.32 2.32 0 0 1-2.337-2.324 2.341 2.341 0 0 1 2.325-2.343c1.275-.006 2.337 1.05 2.343 2.331.005 1.274-1.057 2.336-2.331 2.336Zm1.764-2.307a1.786 1.786 0 0 0-1.729-1.793 1.764 1.764 0 0 0-1.805 1.705 1.745 1.745 0 0 0 1.752 1.817 1.766 1.766 0 0 0 1.782-1.729Zm2.543 0a2.329 2.329 0 0 1 2.302-2.36c1.268-.018 2.354 1.039 2.366 2.313.017 1.269-1.045 2.343-2.319 2.354a2.312 2.312 0 0 1-2.349-2.307Zm2.331 1.729a1.765 1.765 0 0 0 1.764-1.746 1.79 1.79 0 0 0-1.746-1.776c-.992-.018-1.8.79-1.788 1.793a1.744 1.744 0 0 0 1.77 1.729Zm8.733-1.752a2.34 2.34 0 0 1-2.337 2.33 2.331 2.331 0 0 1-2.33-2.33 2.349 2.349 0 0 1 2.336-2.337c1.275-.006 2.331 1.056 2.331 2.337Zm-.567.006a1.777 1.777 0 0 0-1.74-1.776 1.768 1.768 0 0 0-1.788 1.793 1.744 1.744 0 0 0 1.77 1.729c.974 0 1.753-.779 1.758-1.746ZM31.457 41.198c1.086 0 2.171-.012 3.257.012.165.005.325.165.49.259-.159.1-.319.277-.478.283-2.171.018-4.337.018-6.508 0-.177 0-.354-.194-.526-.301.172-.082.343-.236.514-.236 1.08-.029 2.165-.017 3.251-.017Zm-5.912.684c-.331-.141-.62-.271-.909-.395.295-.095.59-.195.879-.289a.142.142 0 0 1 .071 0c.289.094.584.194.873.295-.295.124-.584.248-.914.389Z" style="fill:#ccc" transform="translate(11.095 -7.392)"/>
    <path d="m70.793 19.378 3.3-18.75h9.24c1.44 0 2.485.25 3.135.75.65.5.975 1.27.975 2.31 0 1.52-.335 2.77-1.005 3.75-.67.98-1.485 1.59-2.445 1.83l-.03.18c1.8.34 2.7 1.53 2.7 3.57 0 1.8-.49 3.31-1.47 4.53-.98 1.22-2.36 1.83-4.14 1.83Zm9.24-7.47h-2.25l-.54 3.06h2.22c.5 0 .88-.2 1.14-.6.26-.4.39-.91.39-1.53s-.32-.93-.96-.93Zm.84-7.17h-1.8l-.51 2.79h1.77c.92 0 1.38-.65 1.38-1.95 0-.56-.28-.84-.84-.84Zm14.729 2.16-1.38 7.8h2.37c.78 0 1.36-.095 1.74-.285.38-.19.63-.625.75-1.305l1.38-7.8h-2.4c-.76 0-1.33.095-1.71.285-.38.19-.63.625-.75 1.305Zm3.45-6.72c2.54 0 4.35.495 5.43 1.485 1.08.99 1.62 2.515 1.62 4.575s-.325 4.215-.975 6.465c-.65 2.25-1.68 4-3.09 5.25s-3.47 1.875-6.18 1.875c-2.71 0-4.605-.495-5.685-1.485-1.08-.99-1.62-2.515-1.62-4.575 0-.98.14-2.275.42-3.885.28-1.61.65-3 1.11-4.17.46-1.17 1.08-2.185 1.86-3.045 1.5-1.66 3.87-2.49 7.11-2.49Zm12.239 19.2h-6l7.89-18.75h8.82l1.32 18.75h-6.03l-.12-2.97h-4.71Zm5.13-12.99-2.1 5.25h2.4v-5.25Zm24.419 12.99h-6.27l-1.38-5.58h-1.23l-.96 5.58h-5.7l3.3-18.75h9c3.42 0 5.13 1.53 5.13 4.59 0 1.26-.19 2.46-.57 3.6-.7 2.16-1.8 3.6-3.3 4.32Zm-7.41-13.95-.66 3.75h1.32c.68 0 1.195-.075 1.545-.225.35-.15.59-.58.72-1.29.13-.71.195-1.145.195-1.305 0-.4-.155-.655-.465-.765-.31-.11-.815-.165-1.515-.165Zm9.84 13.95 3.3-18.75h7.98c2.58 0 4.415.455 5.505 1.365 1.09.91 1.635 2.385 1.635 4.425 0 1.04-.12 2.24-.36 3.6-.6 3.36-1.625 5.76-3.075 7.2-1.45 1.44-3.785 2.16-7.005 2.16Zm10.5-13.95h-2.37l-1.59 9.15h2.37c.78 0 1.36-.095 1.74-.285.38-.19.63-.625.75-1.305l1.05-5.97c.02-.12.03-.28.03-.48 0-.46-.16-.76-.48-.9-.32-.14-.82-.21-1.5-.21ZM83.328 33.852l.15-.81h-1.44l.81-4.59h6.87l-1.77 10.02c-2.44.9-4.89 1.35-7.35 1.35s-4.235-.49-5.325-1.47c-1.09-.98-1.635-2.49-1.635-4.53 0-.86.14-2.13.42-3.81.6-3.48 1.66-5.99 3.18-7.53 1.52-1.54 4.04-2.31 7.56-2.31.74 0 1.685.08 2.835.24 1.15.16 1.995.34 2.535.54l-1.65 4.59c-1.5-.28-2.875-.42-4.125-.42s-2.145.1-2.685.3c-.54.2-.86.6-.96 1.2l-1.47 8.49h1.89c.68 0 1.185-.075 1.515-.225.33-.15.545-.495.645-1.035Zm11.639 5.52h-6l7.89-18.75h8.82l1.32 18.75h-6.03l-.12-2.97h-4.71Zm5.13-12.99-2.1 5.25h2.4v-5.25Zm14.28 12.99h-5.94l4.38-18.75h7.44l.54 9.54h.21l3.9-9.54h7.44l-2.22 18.75h-5.97l1.26-9.09h-.21l-3.75 9.09h-4.35l-.63-9.09h-.15Zm31.559-7.08h-5.7l-.39 2.28h6.99l-.84 4.8h-12.69l3.3-18.75h12.54l-1.56 4.8h-6.15l-.42 2.52h5.7Zm2.729 6.75 1.68-4.95c1.68.46 3.22.69 4.62.69s2.53-.06 3.39-.18l.24-1.5-2.49-.24c-1.9-.18-3.245-.61-4.035-1.29s-1.185-1.64-1.185-2.88c0-.54.06-1.14.18-1.8.46-2.56 1.295-4.32 2.505-5.28s3.085-1.44 5.625-1.44 4.78.25 6.72.75l-1.56 4.8c-1.74-.3-3.14-.45-4.2-.45s-1.96.05-2.7.15l-.24 1.47 2.01.21c2.04.22 3.49.705 4.35 1.455.86.75 1.29 1.755 1.29 3.015 0 1.28-.28 2.6-.84 3.96-.28.7-.585 1.285-.915 1.755-.33.47-.75.87-1.26 1.2-.51.33-.975.58-1.395.75-.42.17-.95.295-1.59.375-.94.14-2.09.21-3.45.21-2.48 0-4.73-.26-6.75-.78Z" style="white-space:pre;fill:#fff"/>
</svg>
