<?xml version="1.0" encoding="UTF-8" standalone="no"?>
<!DOCTYPE svg PUBLIC "-//W3C//DTD SVG 1.1//EN" "http://www.w3.org/Graphics/SVG/1.1/DTD/svg11.dtd">
<svg width="100%" height="100%" viewBox="0 0 633 78" version="1.1" xmlns="http://www.w3.org/2000/svg" xmlns:xlink="http://www.w3.org/1999/xlink" xml:space="preserve" xmlns:serif="http://www.serif.com/" style="fill-rule:evenodd;clip-rule:evenodd;stroke-linejoin:round;stroke-miterlimit:2;">
    <g transform="matrix(1,0,0,1,-3,-21)">
        <g transform="matrix(1.24689,0,0,1.24689,-79.7144,-14.4399)">
            <g>
                <g transform="matrix(3.03759,0,0,3.03759,15.0814,-0.14)">
                    <path d="M27.521,9.7C27.305,9.7 27.089,9.869 26.926,10.206L24.709,14.739C24.38,15.414 23.507,16.051 22.772,16.159L17.82,16.886C17.083,16.994 16.917,17.512 17.45,18.036L21.035,21.564C21.568,22.09 21.901,23.124 21.775,23.863L20.927,28.848C20.835,29.384 21.039,29.7 21.41,29.7C21.58,29.693 21.747,29.645 21.896,29.559L26.327,27.204C26.658,27.03 27.09,26.945 27.522,26.945C27.957,26.945 28.393,27.031 28.719,27.204L33.152,29.559C33.33,29.654 33.498,29.7 33.637,29.7C34.009,29.7 34.211,29.384 34.121,28.848L33.272,23.863C33.148,23.124 33.481,22.089 34.011,21.564L37.598,18.036C38.13,17.512 37.965,16.994 37.227,16.886L32.273,16.161C31.538,16.052 30.666,15.415 30.337,14.74L28.122,10.206C27.955,9.869 27.741,9.7 27.521,9.7Z" style="fill:rgb(255,251,223);fill-rule:nonzero;stroke:rgb(129,129,129);stroke-width:0.26px;"/>
                </g>
                <g>
                    <g transform="matrix(6.0434,0,0,6.0434,142.646,87.028)">
                        <path d="M2.484,-3.072L2.484,0L0.672,0L0.672,-5.376C0.672,-5.888 0.722,-6.324 0.822,-6.684C0.922,-7.044 1.092,-7.334 1.332,-7.554C1.572,-7.774 1.892,-7.934 2.292,-8.034C2.692,-8.134 3.192,-8.184 3.792,-8.184L5.712,-8.184L5.712,-6.612L3.84,-6.612C3.336,-6.612 2.984,-6.508 2.784,-6.3C2.584,-6.092 2.484,-5.748 2.484,-5.268L2.484,-4.62L9.384,-4.62L9.384,-3.072L2.484,-3.072Z" style="fill:white;fill-rule:nonzero;"/>
                    </g>
                    <g transform="matrix(6.0434,0,0,6.0434,142.646,87.028)">
                        <path d="M12.588,0C12.116,0 11.728,-0.04 11.424,-0.12C11.12,-0.2 10.878,-0.314 10.698,-0.462C10.518,-0.61 10.392,-0.79 10.32,-1.002C10.248,-1.214 10.212,-1.452 10.212,-1.716L10.212,-2.328C10.212,-2.6 10.246,-2.842 10.314,-3.054C10.382,-3.266 10.5,-3.446 10.668,-3.594C10.836,-3.742 11.066,-3.854 11.358,-3.93C11.65,-4.006 12.02,-4.044 12.468,-4.044L17.28,-4.044L17.28,-4.188C17.28,-4.604 17.196,-4.882 17.028,-5.022C16.86,-5.162 16.576,-5.232 16.176,-5.232L14.4,-5.232L14.4,-6.504L16.176,-6.504C16.696,-6.504 17.138,-6.456 17.502,-6.36C17.866,-6.264 18.164,-6.118 18.396,-5.922C18.628,-5.726 18.798,-5.478 18.906,-5.178C19.014,-4.878 19.068,-4.52 19.068,-4.104L19.068,-2.52C19.068,-2.048 19.022,-1.652 18.93,-1.332C18.838,-1.012 18.678,-0.752 18.45,-0.552C18.222,-0.352 17.918,-0.21 17.538,-0.126C17.158,-0.042 16.68,0 16.104,0L12.588,0ZM17.28,-2.94L12.66,-2.94C12.452,-2.94 12.288,-2.894 12.168,-2.802C12.048,-2.71 11.988,-2.536 11.988,-2.28L11.988,-1.836C11.988,-1.604 12.052,-1.444 12.18,-1.356C12.308,-1.268 12.488,-1.224 12.72,-1.224L16.08,-1.224C16.288,-1.224 16.468,-1.24 16.62,-1.272C16.772,-1.304 16.896,-1.362 16.992,-1.446C17.088,-1.53 17.16,-1.648 17.208,-1.8C17.256,-1.952 17.28,-2.148 17.28,-2.388L17.28,-2.94Z" style="fill:white;fill-rule:nonzero;"/>
                    </g>
                    <g transform="matrix(6.0434,0,0,6.0434,258.97,87.028)">
                        <path d="M6.852,-0.432C6.716,-0.248 6.558,-0.1 6.378,0.012C6.198,0.124 5.948,0.18 5.628,0.18C5.292,0.18 5.036,0.124 4.86,0.012C4.684,-0.1 4.528,-0.248 4.392,-0.432L0.108,-6.504L2.244,-6.504L5.652,-1.524L9.024,-6.504L11.136,-6.504L6.852,-0.432Z" style="fill:white;fill-rule:nonzero;"/>
                    </g>
                    <g transform="matrix(6.0434,0,0,6.0434,258.97,87.028)">
                        <path d="M14.544,0C13.944,0 13.444,-0.05 13.044,-0.15C12.644,-0.25 12.324,-0.41 12.084,-0.63C11.844,-0.85 11.674,-1.138 11.574,-1.494C11.474,-1.85 11.424,-2.288 11.424,-2.808L11.424,-3.684C11.424,-4.204 11.474,-4.644 11.574,-5.004C11.674,-5.364 11.844,-5.654 12.084,-5.874C12.324,-6.094 12.644,-6.254 13.044,-6.354C13.444,-6.454 13.944,-6.504 14.544,-6.504L16.716,-6.504C17.324,-6.504 17.828,-6.454 18.228,-6.354C18.628,-6.254 18.948,-6.092 19.188,-5.868C19.428,-5.644 19.598,-5.352 19.698,-4.992C19.798,-4.632 19.848,-4.192 19.848,-3.672L19.848,-2.808C19.848,-2.288 19.798,-1.85 19.698,-1.494C19.598,-1.138 19.428,-0.85 19.188,-0.63C18.948,-0.41 18.628,-0.25 18.228,-0.15C17.828,-0.05 17.324,0 16.716,0L14.544,0ZM18.06,-3.624C18.06,-3.896 18.038,-4.12 17.994,-4.296C17.95,-4.472 17.87,-4.61 17.754,-4.71C17.638,-4.81 17.476,-4.878 17.268,-4.914C17.06,-4.95 16.796,-4.968 16.476,-4.968L14.784,-4.968C14.464,-4.968 14.202,-4.95 13.998,-4.914C13.794,-4.878 13.634,-4.81 13.518,-4.71C13.402,-4.61 13.322,-4.472 13.278,-4.296C13.234,-4.12 13.212,-3.896 13.212,-3.624L13.212,-2.856C13.212,-2.584 13.234,-2.362 13.278,-2.19C13.322,-2.018 13.402,-1.882 13.518,-1.782C13.634,-1.682 13.794,-1.612 13.998,-1.572C14.202,-1.532 14.464,-1.512 14.784,-1.512L16.476,-1.512C16.796,-1.512 17.06,-1.532 17.268,-1.572C17.476,-1.612 17.638,-1.682 17.754,-1.782C17.87,-1.882 17.95,-2.018 17.994,-2.19C18.038,-2.362 18.06,-2.584 18.06,-2.856L18.06,-3.624Z" style="fill:white;fill-rule:nonzero;"/>
                    </g>
                    <g transform="matrix(6.0434,0,0,6.0434,258.97,87.028)">
                        <path d="M21.144,0L21.144,-3.768C21.144,-4.256 21.2,-4.672 21.312,-5.016C21.424,-5.36 21.602,-5.642 21.846,-5.862C22.09,-6.082 22.404,-6.244 22.788,-6.348C23.172,-6.452 23.64,-6.504 24.192,-6.504L25.356,-6.504L25.356,-5.052L24.24,-5.052C23.992,-5.052 23.784,-5.032 23.616,-4.992C23.448,-4.952 23.314,-4.884 23.214,-4.788C23.114,-4.692 23.042,-4.56 22.998,-4.392C22.954,-4.224 22.932,-4.012 22.932,-3.756L22.932,0L21.144,0Z" style="fill:white;fill-rule:nonzero;"/>
                    </g>
                    <g transform="matrix(6.0434,0,0,6.0434,258.97,87.028)">
                        <path d="M26.424,0L26.424,-6.336L28.248,-6.336L28.248,0L26.424,0ZM27.036,-6.876C26.812,-6.876 26.654,-6.92 26.562,-7.008C26.47,-7.096 26.424,-7.236 26.424,-7.428L26.424,-8.124C26.424,-8.316 26.47,-8.454 26.562,-8.538C26.654,-8.622 26.812,-8.664 27.036,-8.664L27.624,-8.664C27.856,-8.664 28.018,-8.622 28.11,-8.538C28.202,-8.454 28.248,-8.316 28.248,-8.124L28.248,-7.428C28.248,-7.236 28.202,-7.096 28.11,-7.008C28.018,-6.92 27.856,-6.876 27.624,-6.876L27.036,-6.876Z" style="fill:white;fill-rule:nonzero;"/>
                    </g>
                    <g transform="matrix(6.0434,0,0,6.0434,258.97,87.028)">
                        <path d="M30.036,0L30.036,-5.052L29.124,-5.052L29.124,-6.504L30.036,-6.504L30.036,-8.34L31.86,-8.34L31.86,-6.504L33.912,-6.504L33.912,-5.052L31.86,-5.052L31.86,0L30.036,0Z" style="fill:white;fill-rule:nonzero;"/>
                    </g>
                    <g transform="matrix(6.0434,0,0,6.0434,258.97,87.028)">
                        <path d="M36.504,-2.592L36.504,-2.292C36.504,-2.092 36.52,-1.932 36.552,-1.812C36.584,-1.692 36.642,-1.598 36.726,-1.53C36.81,-1.462 36.922,-1.416 37.062,-1.392C37.202,-1.368 37.376,-1.356 37.584,-1.356L39.696,-1.356L39.696,0L37.584,0C36.552,0 35.816,-0.196 35.376,-0.588C34.936,-0.98 34.716,-1.608 34.716,-2.472L34.716,-3.972C34.716,-4.444 34.762,-4.842 34.854,-5.166C34.946,-5.49 35.106,-5.75 35.334,-5.946C35.562,-6.142 35.864,-6.284 36.24,-6.372C36.616,-6.46 37.092,-6.504 37.668,-6.504L40.812,-6.504C41.276,-6.504 41.662,-6.46 41.97,-6.372C42.278,-6.284 42.522,-6.162 42.702,-6.006C42.882,-5.85 43.008,-5.662 43.08,-5.442C43.152,-5.222 43.188,-4.984 43.188,-4.728L43.188,-2.592L36.504,-2.592ZM41.4,-4.584C41.4,-4.8 41.346,-4.944 41.238,-5.016C41.13,-5.088 40.94,-5.124 40.668,-5.124L37.692,-5.124C37.468,-5.124 37.28,-5.114 37.128,-5.094C36.976,-5.074 36.854,-5.028 36.762,-4.956C36.67,-4.884 36.604,-4.78 36.564,-4.644C36.524,-4.508 36.504,-4.324 36.504,-4.092L36.504,-3.744L41.4,-3.744L41.4,-4.584Z" style="fill:white;fill-rule:nonzero;"/>
                    </g>
                    <g transform="matrix(6.0434,0,0,6.0434,258.97,87.028)">
                        <path d="M52.128,-1.728C52.128,-1.408 52.1,-1.138 52.044,-0.918C51.988,-0.698 51.878,-0.52 51.714,-0.384C51.55,-0.248 51.326,-0.15 51.042,-0.09C50.758,-0.03 50.388,0 49.932,0L44.34,0L44.34,-1.404L49.704,-1.404C49.944,-1.404 50.112,-1.444 50.208,-1.524C50.304,-1.604 50.352,-1.756 50.352,-1.98L50.352,-2.196C50.352,-2.436 50.306,-2.586 50.214,-2.646C50.122,-2.706 49.968,-2.736 49.752,-2.736L46.104,-2.736C45.736,-2.736 45.438,-2.772 45.21,-2.844C44.982,-2.916 44.804,-3.024 44.676,-3.168C44.548,-3.312 44.462,-3.49 44.418,-3.702C44.374,-3.914 44.352,-4.164 44.352,-4.452L44.352,-4.944C44.352,-5.224 44.382,-5.464 44.442,-5.664C44.502,-5.864 44.6,-6.026 44.736,-6.15C44.872,-6.274 45.056,-6.364 45.288,-6.42C45.52,-6.476 45.812,-6.504 46.164,-6.504L48.636,-6.504L48.636,-5.148L46.596,-5.148C46.42,-5.148 46.294,-5.116 46.218,-5.052C46.142,-4.988 46.104,-4.872 46.104,-4.704L46.104,-4.404C46.104,-4.22 46.14,-4.096 46.212,-4.032C46.284,-3.968 46.4,-3.936 46.56,-3.936L50.088,-3.936C50.504,-3.936 50.844,-3.902 51.108,-3.834C51.372,-3.766 51.58,-3.658 51.732,-3.51C51.884,-3.362 51.988,-3.17 52.044,-2.934C52.1,-2.698 52.128,-2.408 52.128,-2.064L52.128,-1.728Z" style="fill:white;fill-rule:nonzero;"/>
                    </g>
                </g>
            </g>
        </g>
    </g>
</svg>
