<?xml version="1.0" encoding="UTF-8" standalone="no"?>
<!DOCTYPE svg PUBLIC "-//W3C//DTD SVG 1.1//EN" "http://www.w3.org/Graphics/SVG/1.1/DTD/svg11.dtd">
<svg width="100%" height="100%" viewBox="0 0 524 113" version="1.1" xmlns="http://www.w3.org/2000/svg" xmlns:xlink="http://www.w3.org/1999/xlink" xml:space="preserve" xmlns:serif="http://www.serif.com/" style="fill-rule:evenodd;clip-rule:evenodd;stroke-linejoin:round;stroke-miterlimit:2;">
    <g transform="matrix(1,0,0,1,-878,-261)">
        <g id="auto-adventure.afdesign" transform="matrix(1,0,0,1,1140,317.778)">
            <g transform="matrix(1,0,0,1,-320,-59.8711)">
                <clipPath id="_clip1">
                    <rect x="58.78" y="3.677" width="522.44" height="112.387"/>
                </clipPath>
                <g clip-path="url(#_clip1)">
                    <g transform="matrix(2.80002,0,0,2.80002,42.5093,3.9995)">
                        <g>
                            <path d="M28.247,20.343C28.466,19.901 28.654,19.529 28.837,19.148C29.05,18.706 29.36,18.36 29.879,18.584C30.347,18.787 30.469,19.184 30.286,19.702C29.991,20.536 29.767,21.4 29.488,22.244C29.274,22.885 28.847,23.058 28.206,22.829C26.915,22.366 25.629,21.894 24.327,21.451C24.144,21.39 23.844,21.421 23.697,21.533C23.183,21.924 22.71,22.366 22.111,22.885C22.777,23.088 23.356,23.271 23.936,23.439C24.246,23.531 24.561,23.612 24.876,23.683C25.476,23.82 25.837,24.181 26.086,24.751C26.788,26.342 27.545,27.903 28.257,29.489C28.405,29.82 28.588,29.957 28.944,29.931C29.371,29.901 29.798,29.916 30.225,29.911C30.652,29.906 30.937,30.099 31.008,30.521C31.084,30.969 30.886,31.294 30.428,31.365C29.569,31.502 28.71,31.645 27.845,31.706C27.601,31.721 27.276,31.508 27.088,31.304C25.959,30.109 24.831,28.91 23.758,27.664C23.377,27.222 22.995,27.217 22.477,27.252C21.211,27.344 19.935,27.359 18.664,27.374C18.15,27.379 17.992,27.115 18.084,26.581C18.414,24.664 18.679,22.737 19.004,20.821C19.055,20.516 19.233,20.165 19.462,19.972C20.484,19.138 21.551,18.365 22.594,17.557C23,17.242 23.382,17.231 23.814,17.511C25.085,18.34 26.366,19.158 27.647,19.977C27.815,20.089 27.988,20.185 28.247,20.343Z" style="fill:rgb(221,221,221);fill-rule:nonzero;"/>
                            <path d="M15.262,17.704C15.796,18.411 16.345,19.113 16.859,19.834C16.965,19.982 17.042,20.277 16.965,20.404C16.066,21.894 15.13,23.358 14.205,24.832C14.184,24.863 14.134,24.868 13.981,24.939C13.371,24.212 12.705,23.485 12.12,22.697C11.261,21.538 10.59,20.272 10.27,18.843C10.204,18.548 10.173,18.248 10.138,17.948C10.066,17.333 10.412,17.053 10.966,16.962C12.898,16.642 14.352,15.579 15.491,14.044C15.639,13.845 15.649,13.51 15.633,13.245C15.557,11.827 15.45,10.409 15.354,8.99C15.344,8.827 15.303,8.665 15.323,8.507C15.374,8.075 15.608,7.77 16.05,7.734C16.508,7.694 16.767,8.004 16.843,8.416C17.123,9.992 17.281,11.593 17.667,13.139C17.977,14.384 17.672,15.269 16.737,16.077C16.208,16.545 15.781,17.13 15.262,17.704Z" style="fill:rgb(221,221,221);fill-rule:nonzero;"/>
                            <path d="M10.661,15.615C9.207,15.62 7.748,14.583 7.377,13.281C7.057,12.173 7.509,11.314 8.602,10.942C10.3,10.368 12.624,11.934 12.761,13.673C12.837,14.715 11.947,15.737 10.661,15.615Z" style="fill:rgb(221,221,221);fill-rule:nonzero;"/>
                            <path d="M14.022,12.371C11.292,8.299 8.561,4.226 5.811,0.129C6.96,-0.115 7.067,-0.075 7.662,0.805C9.695,3.83 11.714,6.87 13.773,9.875C14.312,10.658 13.981,11.507 14.23,12.3C14.159,12.325 14.088,12.346 14.022,12.371Z" style="fill:rgb(221,221,221);fill-rule:nonzero;"/>
                            <path d="M22.827,39.988C22.446,39.988 22.182,40.023 21.933,39.973C21.795,39.947 21.602,39.805 21.572,39.683C20.895,36.978 20.235,34.268 19.569,31.563C19.36,30.725 19.147,29.891 18.928,29.011C19.141,28.981 19.274,28.965 19.411,28.945C19.889,28.884 20.138,28.991 20.265,29.565C20.926,32.458 21.658,35.341 22.37,38.224C22.512,38.778 22.66,39.337 22.827,39.988Z" style="fill:rgb(221,221,221);fill-rule:nonzero;"/>
                            <path d="M17.281,22.946C17.077,24.303 16.899,25.483 16.701,26.81C16.198,26.515 15.796,26.306 15.425,26.047C15.333,25.981 15.278,25.712 15.333,25.61C15.806,24.812 16.299,24.029 16.803,23.246C16.874,23.154 17.016,23.114 17.281,22.946Z" style="fill:rgb(221,221,221);fill-rule:nonzero;"/>
                        </g>
                        <g transform="matrix(1.96777,0,0,1.96777,-31.9424,-29.1473)">
                            <g transform="matrix(12,0,0,12,32.9103,29.1882)">
                                <path d="M0.752,-0.157L0.28,-0.157L0.183,-0L0.008,-0L0.404,-0.63C0.416,-0.649 0.43,-0.665 0.447,-0.678C0.464,-0.691 0.488,-0.697 0.519,-0.697C0.55,-0.697 0.573,-0.691 0.59,-0.678C0.607,-0.665 0.621,-0.649 0.633,-0.63L1.027,-0L0.851,-0L0.752,-0.157ZM0.351,-0.274L0.681,-0.274L0.516,-0.543L0.351,-0.274Z" style="fill:white;fill-rule:nonzero;"/>
                            </g>
                            <g transform="matrix(12,0,0,12,44.9703,29.1882)">
                                <path d="M0.315,-0C0.264,-0 0.222,-0.004 0.189,-0.013C0.155,-0.021 0.128,-0.034 0.108,-0.053C0.088,-0.071 0.074,-0.095 0.066,-0.125C0.057,-0.154 0.053,-0.191 0.053,-0.234L0.053,-0.307C0.053,-0.35 0.057,-0.387 0.066,-0.417C0.074,-0.447 0.088,-0.471 0.108,-0.49C0.128,-0.508 0.155,-0.521 0.189,-0.53C0.222,-0.538 0.264,-0.542 0.315,-0.542L0.616,-0.542L0.616,-0.717L0.765,-0.717L0.765,-0.234C0.765,-0.191 0.761,-0.154 0.753,-0.125C0.744,-0.095 0.73,-0.071 0.71,-0.053C0.69,-0.034 0.663,-0.021 0.63,-0.013C0.597,-0.004 0.555,-0 0.504,-0L0.315,-0ZM0.202,-0.238C0.202,-0.214 0.204,-0.195 0.208,-0.18C0.211,-0.165 0.218,-0.154 0.228,-0.146C0.238,-0.138 0.252,-0.133 0.269,-0.13C0.286,-0.127 0.307,-0.126 0.334,-0.126L0.5,-0.126C0.523,-0.126 0.543,-0.128 0.558,-0.131C0.572,-0.134 0.584,-0.139 0.593,-0.148C0.602,-0.156 0.608,-0.167 0.611,-0.182C0.614,-0.196 0.616,-0.214 0.616,-0.237L0.616,-0.414L0.333,-0.414C0.307,-0.414 0.286,-0.413 0.269,-0.41C0.252,-0.407 0.238,-0.402 0.228,-0.394C0.218,-0.386 0.211,-0.375 0.208,-0.36C0.204,-0.345 0.202,-0.326 0.202,-0.302L0.202,-0.238Z" style="fill:white;fill-rule:nonzero;"/>
                            </g>
                            <g transform="matrix(12,0,0,12,54.8223,29.1882)">
                                <path d="M0.571,-0.036C0.56,-0.021 0.547,-0.008 0.532,0.001C0.517,0.01 0.496,0.015 0.469,0.015C0.441,0.015 0.42,0.01 0.405,0.001C0.39,-0.008 0.377,-0.021 0.366,-0.036L0.009,-0.542L0.187,-0.542L0.471,-0.127L0.752,-0.542L0.928,-0.542L0.571,-0.036Z" style="fill:white;fill-rule:nonzero;"/>
                            </g>
                            <g transform="matrix(12,0,0,12,65.4783,29.1882)">
                                <path d="M0.203,-0.216L0.203,-0.191C0.203,-0.174 0.204,-0.161 0.207,-0.151C0.21,-0.141 0.215,-0.133 0.222,-0.128C0.229,-0.122 0.238,-0.118 0.25,-0.116C0.261,-0.114 0.276,-0.113 0.293,-0.113L0.469,-0.113L0.469,-0L0.293,-0C0.207,-0 0.146,-0.016 0.109,-0.049C0.072,-0.082 0.054,-0.134 0.054,-0.206L0.054,-0.331C0.054,-0.37 0.058,-0.404 0.066,-0.431C0.073,-0.458 0.087,-0.479 0.106,-0.496C0.125,-0.512 0.15,-0.524 0.181,-0.531C0.212,-0.538 0.252,-0.542 0.3,-0.542L0.562,-0.542C0.601,-0.542 0.633,-0.538 0.659,-0.531C0.684,-0.524 0.705,-0.514 0.72,-0.501C0.735,-0.488 0.745,-0.472 0.751,-0.454C0.757,-0.435 0.76,-0.415 0.76,-0.394L0.76,-0.216L0.203,-0.216ZM0.611,-0.382C0.611,-0.4 0.607,-0.412 0.598,-0.418C0.588,-0.424 0.573,-0.427 0.55,-0.427L0.302,-0.427C0.283,-0.427 0.268,-0.426 0.255,-0.425C0.242,-0.423 0.232,-0.419 0.225,-0.413C0.217,-0.407 0.211,-0.398 0.208,-0.387C0.205,-0.376 0.203,-0.36 0.203,-0.341L0.203,-0.312L0.611,-0.312L0.611,-0.382Z" style="fill:white;fill-rule:nonzero;"/>
                            </g>
                            <g transform="matrix(12,0,0,12,75.1863,29.1882)">
                                <path d="M0.609,-0L0.609,-0.302C0.609,-0.325 0.607,-0.343 0.604,-0.358C0.6,-0.372 0.594,-0.383 0.585,-0.392C0.576,-0.4 0.563,-0.406 0.548,-0.409C0.532,-0.412 0.512,-0.414 0.488,-0.414L0.326,-0.414C0.303,-0.414 0.283,-0.412 0.268,-0.409C0.252,-0.406 0.239,-0.4 0.23,-0.392C0.221,-0.383 0.214,-0.372 0.211,-0.358C0.207,-0.343 0.205,-0.325 0.205,-0.302L0.205,-0L0.056,-0L0.056,-0.307C0.056,-0.35 0.06,-0.387 0.069,-0.417C0.077,-0.447 0.091,-0.471 0.111,-0.49C0.131,-0.508 0.158,-0.521 0.191,-0.53C0.224,-0.538 0.266,-0.542 0.316,-0.542L0.497,-0.542C0.548,-0.542 0.59,-0.538 0.623,-0.53C0.656,-0.521 0.683,-0.508 0.703,-0.49C0.723,-0.471 0.737,-0.447 0.746,-0.417C0.754,-0.387 0.758,-0.35 0.758,-0.307L0.758,-0L0.609,-0Z" style="fill:white;fill-rule:nonzero;"/>
                            </g>
                            <g transform="matrix(12,0,0,12,84.9543,29.1882)">
                                <path d="M0.09,-0L0.09,-0.421L0.014,-0.421L0.014,-0.542L0.09,-0.542L0.09,-0.695L0.242,-0.695L0.242,-0.542L0.413,-0.542L0.413,-0.421L0.242,-0.421L0.242,-0L0.09,-0Z" style="fill:white;fill-rule:nonzero;"/>
                            </g>
                            <g transform="matrix(12,0,0,12,90.0663,29.1882)">
                                <path d="M0.316,-0C0.266,-0 0.224,-0.004 0.191,-0.013C0.158,-0.021 0.131,-0.034 0.111,-0.053C0.091,-0.071 0.077,-0.095 0.069,-0.125C0.06,-0.154 0.056,-0.191 0.056,-0.234L0.056,-0.542L0.206,-0.542L0.206,-0.238C0.206,-0.215 0.208,-0.196 0.213,-0.182C0.217,-0.167 0.224,-0.156 0.233,-0.148C0.242,-0.14 0.255,-0.135 0.271,-0.132C0.286,-0.129 0.305,-0.127 0.328,-0.127L0.484,-0.127C0.508,-0.127 0.528,-0.129 0.544,-0.132C0.56,-0.135 0.573,-0.14 0.582,-0.148C0.591,-0.156 0.597,-0.167 0.601,-0.182C0.604,-0.196 0.606,-0.215 0.606,-0.238L0.606,-0.542L0.754,-0.542L0.754,-0.234C0.754,-0.191 0.75,-0.154 0.742,-0.125C0.733,-0.095 0.719,-0.071 0.699,-0.053C0.679,-0.034 0.652,-0.021 0.619,-0.013C0.585,-0.004 0.543,-0 0.492,-0L0.316,-0Z" style="fill:white;fill-rule:nonzero;"/>
                            </g>
                            <g transform="matrix(12,0,0,12,99.7863,29.1882)">
                                <path d="M0.059,-0L0.059,-0.314C0.059,-0.355 0.064,-0.389 0.073,-0.418C0.082,-0.447 0.097,-0.47 0.118,-0.489C0.138,-0.507 0.164,-0.52 0.196,-0.529C0.228,-0.538 0.267,-0.542 0.313,-0.542L0.41,-0.542L0.41,-0.421L0.317,-0.421C0.296,-0.421 0.279,-0.419 0.265,-0.416C0.251,-0.413 0.24,-0.407 0.232,-0.399C0.223,-0.391 0.217,-0.38 0.214,-0.366C0.21,-0.352 0.208,-0.334 0.208,-0.313L0.208,-0L0.059,-0Z" style="fill:white;fill-rule:nonzero;"/>
                            </g>
                            <g transform="matrix(12,0,0,12,104.886,29.1882)">
                                <path d="M0.203,-0.216L0.203,-0.191C0.203,-0.174 0.204,-0.161 0.207,-0.151C0.21,-0.141 0.215,-0.133 0.222,-0.128C0.229,-0.122 0.238,-0.118 0.25,-0.116C0.261,-0.114 0.276,-0.113 0.293,-0.113L0.469,-0.113L0.469,-0L0.293,-0C0.207,-0 0.146,-0.016 0.109,-0.049C0.072,-0.082 0.054,-0.134 0.054,-0.206L0.054,-0.331C0.054,-0.37 0.058,-0.404 0.066,-0.431C0.073,-0.458 0.087,-0.479 0.106,-0.496C0.125,-0.512 0.15,-0.524 0.181,-0.531C0.212,-0.538 0.252,-0.542 0.3,-0.542L0.562,-0.542C0.601,-0.542 0.633,-0.538 0.659,-0.531C0.684,-0.524 0.705,-0.514 0.72,-0.501C0.735,-0.488 0.745,-0.472 0.751,-0.454C0.757,-0.435 0.76,-0.415 0.76,-0.394L0.76,-0.216L0.203,-0.216ZM0.611,-0.382C0.611,-0.4 0.607,-0.412 0.598,-0.418C0.588,-0.424 0.573,-0.427 0.55,-0.427L0.302,-0.427C0.283,-0.427 0.268,-0.426 0.255,-0.425C0.242,-0.423 0.232,-0.419 0.225,-0.413C0.217,-0.407 0.211,-0.398 0.208,-0.387C0.205,-0.376 0.203,-0.36 0.203,-0.341L0.203,-0.312L0.611,-0.312L0.611,-0.382Z" style="fill:white;fill-rule:nonzero;"/>
                            </g>
                        </g>
                    </g>
                </g>
            </g>
        </g>
    </g>
</svg>
