<svg viewBox="0 0 200 40" xmlns="http://www.w3.org/2000/svg">
    <path d="m59.11 29.391 1.678-4.938c1.679.459 3.217.688 4.616.688 1.399 0 2.527-.06 3.387-.18l.239-1.496-2.487-.239c-1.899-.179-3.244-.609-4.037-1.287-.786-.678-1.178-1.636-1.178-2.872 0-.54.06-1.138.179-1.796.46-2.553 1.292-4.31 2.498-5.266 1.212-.958 3.087-1.437 5.625-1.437 2.537 0 4.776.249 6.714.748l-1.559 4.788c-1.738-.299-3.137-.449-4.196-.449-1.059 0-1.958.05-2.698.15l-.239 1.466 2.008.21c2.038.219 3.487.704 4.346 1.456.859.745 1.289 1.745 1.289 3.002 0 1.277-.28 2.594-.84 3.95-.279.698-.586 1.284-.919 1.756a4.378 4.378 0 0 1-1.259 1.187 7.946 7.946 0 0 1-1.388.748c-.42.172-.949.299-1.589.379-.939.14-2.088.209-3.446.209-2.478 0-4.726-.259-6.744-.777Zm27.963-4.19h-3.716l-.78 4.518h-5.694l3.297-18.702h8.992c3.396 0 5.095 1.576 5.095 4.727 0 1.497-.21 2.846-.63 4.051-.42 1.209-.883 2.171-1.389 2.883-.513.704-1.215 1.303-2.107 1.795-.887.486-1.909.728-3.068.728Zm-.749-9.396h-1.319l-.809 4.608h1.319c.679 0 1.192-.073 1.539-.219.352-.153.579-.499.679-1.038.259-1.476.389-2.284.389-2.424 0-.379-.149-.628-.449-.747-.3-.12-.749-.18-1.349-.18Zm15.195 1.466-1.379 7.78h2.368c.779 0 1.359-.092 1.738-.279.38-.192.63-.628.749-1.307l1.379-7.78h-2.398c-.759 0-1.328.092-1.708.28-.38.192-.629.628-.749 1.306Zm3.447-6.703c2.537 0 4.345.496 5.424 1.486 1.079.985 1.619 2.504 1.619 4.559s-.326 4.206-.979 6.453c-.646 2.242-1.675 3.983-3.087 5.227-1.405 1.25-3.463 1.875-6.174 1.875-2.704 0-4.596-.491-5.675-1.476-1.079-.991-1.618-2.514-1.618-4.569 0-.977.139-2.267.419-3.869.28-1.609.65-2.996 1.109-4.16.46-1.17 1.079-2.185 1.858-3.042 1.499-1.656 3.867-2.484 7.104-2.484Zm21.519 12.927 1.978 6.224h-6.264l-1.378-5.566h-1.229l-.959 5.566h-5.695l3.297-18.702h8.991c3.417 0 5.125 1.526 5.125 4.578 0 1.257-.189 2.454-.569 3.591-.699 2.154-1.798 3.591-3.297 4.309Zm-4.286-7.69h-1.139l-.659 3.74h1.319c.679 0 1.191-.073 1.538-.219.353-.153.593-.582.719-1.287.133-.711.2-1.147.2-1.307 0-.399-.153-.655-.459-.767-.313-.108-.819-.16-1.519-.16Zm24.577-4.788-.869 4.788h-4.136l-2.428 13.914h-5.695l2.428-13.914h-4.106l.869-4.788h13.937Zm-1.439 18.374 1.679-4.938c1.678.459 3.217.688 4.615.688 1.399 0 2.528-.06 3.387-.18l.24-1.496-2.488-.239c-1.898-.179-3.244-.609-4.036-1.287-.786-.678-1.179-1.636-1.179-2.872 0-.54.06-1.138.18-1.796.46-2.553 1.292-4.31 2.498-5.266 1.212-.958 3.087-1.437 5.625-1.437 2.537 0 4.775.249 6.713.748l-1.558 4.788c-1.739-.299-3.138-.449-4.196-.449-1.059 0-1.958.05-2.698.15l-.24 1.466 2.008.21c2.038.219 3.487.704 4.346 1.456.859.745 1.289 1.745 1.289 3.002 0 1.277-.28 2.594-.839 3.95-.28.698-.586 1.284-.919 1.756a4.391 4.391 0 0 1-1.259 1.187 7.916 7.916 0 0 1-1.389.748c-.419.172-.949.299-1.588.379-.94.14-2.088.209-3.447.209-2.477 0-4.725-.259-6.744-.777Z" style="white-space:pre;fill:#fff"/>
    <path d="M47.423 9.832c5.549 0 10.025 4.48 10.039 10.036.009 5.426-4.51 9.955-9.954 9.964-5.605.013-10.082-4.486-10.078-10.118.003-5.379 4.555-9.882 9.993-9.882Zm.23 5.494c0 .412-.023.691.01.964.017.149.088.335.2.421.895.67 1.801 1.321 2.713 1.965a.505.505 0 0 0 .385.062 19.385 19.385 0 0 0 1.543-.48c.125-.046.277-.21.287-.332.099-1.005.177-2.014.24-3.023a.526.526 0 0 0-.171-.388 34.667 34.667 0 0 0-1.711-1.33c-.116-.082-.346-.102-.484-.05-.685.266-1.34.618-2.038.845-.757.246-1.237.601-.974 1.346Zm-.448.156c0-.237-.02-.474.007-.71.026-.263-.062-.394-.313-.497-.911-.371-1.81-.775-2.725-1.147a.553.553 0 0 0-.451.04c-.579.411-1.145.837-1.695 1.285a.576.576 0 0 0-.181.42c.069 1.009.171 2.015.247 3.024.016.223.119.311.323.375.466.138.927.285 1.385.456.228.085.388.044.573-.096.652-.488 1.287-1.005 1.981-1.426.678-.42 1.067-.903.849-1.724Zm8.005 5.909c-.034-.064-.066-.149-.119-.215-.678-.802-1.353-1.607-2.047-2.398-.069-.08-.257-.116-.365-.086a20.51 20.51 0 0 0-1.543.473.555.555 0 0 0-.307.3 134.059 134.059 0 0 0-1.037 3.18.569.569 0 0 0 .063.424c.296.447.612.888.948 1.308a.45.45 0 0 0 .379.132c.72-.151 1.424-.392 2.152-.487.819-.105 1.29-.46 1.435-1.295.082-.446.286-.871.441-1.336ZM42.028 18.6c-.069.066-.158.135-.23.217-.658.749-1.323 1.498-1.965 2.264a.597.597 0 0 0-.096.477c.184.643.392 1.278.626 1.905a.61.61 0 0 0 .358.332c.968.254 1.942.471 2.91.717.213.052.332.026.458-.161.286-.424.608-.825.888-1.252.079-.122.126-.319.086-.454-.323-1.055-.669-2.099-1.014-3.148-.033-.096-.072-.24-.145-.265-.606-.215-1.218-.412-1.876-.632Zm2.251 6.234c.583.953 1.139 1.873 1.718 2.779.08.126.277.241.425.248.681.025 1.366.023 2.051.003a.511.511 0 0 0 .372-.205 89.255 89.255 0 0 0 1.596-2.621c.059-.099.046-.303-.02-.401a18.044 18.044 0 0 0-.948-1.308.574.574 0 0 0-.388-.187 140.892 140.892 0 0 0-3.315 0 .567.567 0 0 0-.385.183c-.382.49-.734.996-1.106 1.509Zm11.102-10.345c-1.28-1.808-2.873-3.024-4.953-3.73.155.395.306.7.401 1.022.171.594.514 1.036 1.031 1.377.447.296.849.661 1.28.982.122.092.27.181.415.198.573.065 1.148.098 1.826.151Zm-15.745-.111c1.112.058 2.142-.046 2.942-.911.142-.151.316-.282.497-.381.888-.487.908-1.446 1.34-2.254-1.571.315-4.004 2.139-4.779 3.546Zm17.365 5.957c-1.666.874-2.561 3.684-1.825 5.117 1.11-1.532 1.7-3.214 1.825-5.117Zm-19.067.003a9.138 9.138 0 0 0 1.748 5.075c.417-1.168.391-1.397-.376-3.714-.227-.684-.922-.89-1.372-1.361Zm12.019 8.709c-1.023-1.127-4.417-.923-5.107-.02a9.562 9.562 0 0 0 5.107.02Z" style="fill:#ccc"/>
</svg>
