<svg viewBox="0 0 200 40" xmlns="http://www.w3.org/2000/svg">
    <path d="M15.924 32c-.298-.109-.621-.183-.898-.343-3.285-1.883-6.566-3.77-9.842-5.67-.997-.576-1.23-1.45-.654-2.447 2.811-4.873 5.63-9.748 8.448-14.617.544-.936 1.439-1.181 2.382-.637 3.297 1.896 6.59 3.79 9.883 5.698.952.552 1.185 1.422.637 2.374-2.819 4.89-5.645 9.777-8.469 14.662-.331.569-.788.912-1.487.98ZM5.665 24.537c.192.123.328.213.471.29 3.113 1.794 6.226 3.583 9.331 5.392.408.238.592.192.829-.216 2.709-4.714 5.426-9.416 8.163-14.114.236-.406.158-.561-.221-.781-3.133-1.79-6.259-3.591-9.376-5.409-.384-.224-.531-.159-.744.208-1.842 3.216-3.7 6.419-5.556 9.625-.96 1.651-1.911 3.301-2.897 5.005Z" style="fill:#ccc"/>
    <path d="M9.184 29.615c-.212.016-.34.033-.462.033-1.716 0-3.432.004-5.143 0-1.268-.005-1.888-.63-1.888-1.901V11.088c0-1.263.596-1.863 1.855-1.863 2.483-.003 4.964 0 7.448 0h.567c-.302.519-.535.972-.833 1.381-.082.111-.36.106-.548.106-2.141.008-4.277.017-6.418-.004-.449-.004-.584.131-.584.585.017 4.064.008 8.134.008 12.198 0 1.385.009 2.774-.003 4.159-.005.372.093.551.498.507.273-.029.555-.004.832-.004 2.452 0 2.452 0 4.515 1.286.034.021.058.065.156.176Zm9.224-10.368c1.332 1.286.989 2.786.323 3.554-.899 1.037-2.166 1.12-3.685.163.082.539.163 1.013.212 1.487.021.192-.037.396-.061.593-.192-.033-.413-.017-.576-.107a159.42 159.42 0 0 1-3.517-2.03c-.16-.094-.258-.294-.384-.446.146-.11.282-.248.445-.318.429-.188.87-.351 1.38-.552-.216-.114-.355-.183-.489-.261-1.013-.576-1.499-1.834-1.128-2.909.404-1.164 1.52-1.842 2.725-1.655.241.037.425.086.608-.208.732-1.168 2.129-1.527 3.285-.886 1.177.654 1.598 2.042.997 3.296-.041.087-.082.177-.135.279Z" style="fill:#ccc"/>
    <path d="m41.832 23.83-.48 5.04c-1.28.52-2.9.78-4.86.78-2.52 0-4.325-.49-5.415-1.47-1.09-.98-1.635-2.49-1.635-4.53 0-.86.14-2.13.42-3.81.6-3.44 1.635-5.94 3.105-7.5 1.47-1.56 3.795-2.34 6.975-2.34.74 0 1.585.075 2.535.225.95.15 1.645.335 2.085.555l-1.68 4.59c-1.18-.28-2.285-.42-3.315-.42-1.03 0-1.765.1-2.205.3-.44.2-.71.6-.81 1.2l-1.38 7.86c.72.16 1.46.24 2.22.24 1.62 0 3.1-.24 4.44-.72Zm6.359 5.37h-6l7.89-18.75h8.82l1.32 18.75h-6.03l-.12-2.97h-4.71Zm5.13-12.99-2.1 5.25h2.4v-5.25Zm24.42 12.99h-6.27l-1.38-5.58h-1.23l-.96 5.58h-5.7l3.3-18.75h9c3.42 0 5.13 1.53 5.13 4.59 0 1.26-.19 2.46-.57 3.6-.7 2.16-1.8 3.6-3.3 4.32Zm-7.41-13.95-.66 3.75h1.32c.68 0 1.195-.075 1.545-.225.35-.15.59-.58.72-1.29.13-.71.195-1.145.195-1.305 0-.4-.155-.655-.465-.765-.31-.11-.815-.165-1.515-.165ZM80.17 29.2l3.3-18.75h7.98c2.58 0 4.415.455 5.505 1.365 1.09.91 1.635 2.385 1.635 4.425 0 1.04-.12 2.24-.36 3.6-.6 3.36-1.625 5.76-3.075 7.2-1.45 1.44-3.785 2.16-7.005 2.16Zm10.5-13.95H88.3l-1.59 9.15h2.37c.78 0 1.36-.095 1.74-.285.38-.19.63-.625.75-1.305l1.05-5.97c.02-.12.03-.28.03-.48 0-.46-.16-.76-.48-.9-.32-.14-.82-.21-1.5-.21Zm25.05 8.43.15-.81h-1.44l.81-4.59h6.87l-1.77 10.02c-2.44.9-4.89 1.35-7.35 1.35s-4.235-.49-5.325-1.47c-1.09-.98-1.635-2.49-1.635-4.53 0-.86.14-2.13.42-3.81.6-3.48 1.66-5.99 3.18-7.53 1.52-1.54 4.04-2.31 7.56-2.31.74 0 1.685.08 2.835.24 1.15.16 1.995.34 2.535.54l-1.65 4.59c-1.5-.28-2.875-.42-4.125-.42s-2.145.1-2.685.3c-.54.2-.86.6-.96 1.2l-1.47 8.49h1.89c.68 0 1.185-.075 1.515-.225.33-.15.545-.495.645-1.035Zm11.639 5.52h-6l7.89-18.75h8.82l1.32 18.75h-6.03l-.12-2.97h-4.71Zm5.13-12.99-2.1 5.25h2.4v-5.25Zm14.28 12.99h-5.94l4.38-18.75h7.44l.54 9.54h.21l3.9-9.54h7.44l-2.22 18.75h-5.97l1.26-9.09h-.21l-3.75 9.09h-4.35l-.63-9.09h-.15Zm31.559-7.08h-5.7l-.39 2.28h6.99l-.84 4.8h-12.69l3.3-18.75h12.54l-1.56 4.8h-6.15l-.42 2.52h5.7Zm2.73 6.75 1.68-4.95c1.68.46 3.22.69 4.62.69s2.53-.06 3.39-.18l.24-1.5-2.49-.24c-1.9-.18-3.245-.61-4.035-1.29s-1.185-1.64-1.185-2.88c0-.54.06-1.14.18-1.8.46-2.56 1.295-4.32 2.505-5.28s3.085-1.44 5.625-1.44 4.78.25 6.72.75l-1.56 4.8c-1.74-.3-3.14-.45-4.2-.45s-1.96.05-2.7.15l-.24 1.47 2.01.21c2.04.22 3.49.705 4.35 1.455.86.75 1.29 1.755 1.29 3.015 0 1.28-.28 2.6-.84 3.96-.28.7-.585 1.285-.915 1.755-.33.47-.75.87-1.26 1.2-.51.33-.975.58-1.395.75-.42.17-.95.295-1.59.375-.94.14-2.09.21-3.45.21-2.48 0-4.73-.26-6.75-.78Z" style="fill:#fff;white-space:pre"/>
</svg>
