<?xml version="1.0" encoding="UTF-8" standalone="no"?>
<!DOCTYPE svg PUBLIC "-//W3C//DTD SVG 1.1//EN" "http://www.w3.org/Graphics/SVG/1.1/DTD/svg11.dtd">
<svg width="100%" height="100%" viewBox="0 0 630 60" version="1.1" xmlns="http://www.w3.org/2000/svg" xmlns:xlink="http://www.w3.org/1999/xlink" xml:space="preserve" xmlns:serif="http://www.serif.com/" style="fill-rule:evenodd;clip-rule:evenodd;stroke-linejoin:round;stroke-miterlimit:2;">
    <g>
        <g>
            <path d="M58.881,7.43l-10.839,0.942l-0.362,-4.171c-0.121,-1.387 -1.335,-2.406 -2.72,-2.285l-28.356,2.463c-1.387,0.121 -2.404,1.333 -2.283,2.72l0.362,4.171l-10.842,0.942c-1.386,0.12 -2.404,1.33 -2.284,2.717l0.508,5.84c0.323,3.721 3,7.342 7.365,9.937c3.488,2.081 7.61,3.234 11.843,3.349c3.746,5.148 7.765,7.057 7.765,7.057l0.652,7.504l-5.003,0.434c-3.681,0.32 -6.484,2.739 -6.164,6.417l0.108,1.253c0.06,0.688 0.671,1.201 1.359,1.141l30.857,-2.68c0.688,-0.06 1.203,-0.671 1.144,-1.359l-0.109,-1.253c-0.32,-3.678 -3.5,-5.577 -7.181,-5.257l-5.003,0.434l-0.652,-7.503c0,-0 3.632,-2.575 6.432,-8.291c4.161,-0.844 8.022,-2.691 11.09,-5.341c3.841,-3.308 5.863,-7.337 5.54,-11.059l-0.508,-5.839c-0.12,-1.387 -1.332,-2.403 -2.719,-2.283Zm-46.024,17.526c-2.701,-1.614 -4.016,-3.559 -4.121,-4.767l-0.145,-1.668l6.692,-0.582c0.401,3.389 1.157,6.327 2.116,8.87c-1.621,-0.406 -3.157,-1.029 -4.542,-1.853Zm42.581,-8.824c0.146,1.677 -1.519,3.922 -3.241,5.406c-1.218,1.051 -2.636,1.931 -4.162,2.609c0.503,-2.669 0.745,-5.694 0.553,-9.101l6.705,-0.582l0.145,1.668Z" style="fill:#e0b668;fill-rule:nonzero;"/>
            <g>
                <path d="M31.774,14.562c3.216,-0.28 6.054,2.105 6.333,5.32c0.279,3.216 -2.105,6.054 -5.321,6.334c-3.216,0.279 -6.053,-2.105 -6.333,-5.321c-0.279,-3.216 2.105,-6.054 5.321,-6.333Z" style="fill:#e1b347;"/>
                <path d="M31.7,13.59c0.942,-0.08 1.905,0.037 2.8,0.345c1.48,0.511 2.772,1.546 3.592,2.877c0.721,1.17 1.074,2.561 1.004,3.93c-0.058,1.125 -0.401,2.233 -0.99,3.197c-0.742,1.217 -1.869,2.192 -3.193,2.746c-1.478,0.618 -3.176,0.694 -4.705,0.206c-1.205,-0.385 -2.295,-1.112 -3.115,-2.07c-0.912,-1.064 -1.48,-2.415 -1.608,-3.809c-0.1,-1.095 0.067,-2.214 0.488,-3.23c0.59,-1.423 1.677,-2.637 3.026,-3.377c0.829,-0.456 1.756,-0.734 2.701,-0.815Zm0.15,1.944c-0.937,0.083 -1.848,0.443 -2.587,1.027c-1.006,0.796 -1.682,1.996 -1.826,3.277c-0.118,1.038 0.107,2.113 0.637,3.015c0.69,1.174 1.891,2.039 3.232,2.312c1.082,0.221 2.236,0.062 3.219,-0.449c1.056,-0.548 1.897,-1.496 2.317,-2.611c0.448,-1.185 0.409,-2.544 -0.111,-3.707c-0.436,-0.973 -1.201,-1.793 -2.139,-2.3c-0.79,-0.427 -1.702,-0.628 -2.6,-0.575c-0.047,0.003 -0.095,0.007 -0.142,0.011Z" style="fill:#e6d554;fill-rule:nonzero;"/>
                <path d="M31.28,20.137c-0.027,-0.006 -0.054,-0.013 -0.081,-0.021c-0.306,-0.097 -0.558,-0.353 -0.646,-0.665c-0.083,-0.294 -0.018,-0.626 0.171,-0.867c0.009,-0.012 0.011,-0.014 0.02,-0.026l0.627,-0.746c0.166,-0.193 0.399,-0.318 0.651,-0.343c0.01,-0.001 0.021,-0.002 0.032,-0.003c0.014,-0 0.018,-0.001 0.033,-0.002c0.337,-0.011 0.675,0.169 0.856,0.456c0.101,0.162 0.152,0.353 0.148,0.543l0.245,2.812c0.008,-0 0.018,-0.001 0.027,-0.002c0.024,-0.001 0.03,-0.002 0.055,-0.001c0.364,-0.001 0.719,0.218 0.879,0.549c0.158,0.327 0.116,0.742 -0.113,1.031c-0.165,0.208 -0.413,0.339 -0.68,0.366l-1.942,0.169c-0.293,0.021 -0.591,-0.089 -0.791,-0.301c-0.238,-0.25 -0.329,-0.63 -0.223,-0.965c0.075,-0.234 0.241,-0.438 0.456,-0.558c0.12,-0.066 0.254,-0.105 0.389,-0.119l-0.113,-1.307Z" style="fill:#e6d554;fill-rule:nonzero;"/>
            </g>
        </g>
        <g>
            <g>
                <path d="M81.253,45.911l-4.587,6.171l4.587,0l0,2.336l-12.615,-0l0,-8.259c0,-0.743 0.056,-1.377 0.167,-1.903c0.111,-0.526 0.308,-0.956 0.592,-1.291c0.283,-0.335 0.672,-0.58 1.165,-0.735c0.493,-0.154 1.116,-0.232 1.868,-0.232l0.87,0c0.727,0 1.328,0.083 1.803,0.248c0.475,0.165 0.851,0.42 1.128,0.765c0.278,0.346 0.472,0.781 0.583,1.307c0.111,0.526 0.167,1.15 0.167,1.872l-0,1.856l4.272,-6.187l0,4.052Zm-8.675,-1.562c-0.333,0 -0.604,0.031 -0.814,0.093c-0.209,0.062 -0.37,0.165 -0.48,0.309c-0.111,0.145 -0.185,0.346 -0.222,0.603c-0.037,0.258 -0.056,0.578 -0.056,0.959l0,5.769l3.847,0l0,-5.769c0,-0.381 -0.018,-0.698 -0.055,-0.951c-0.037,-0.252 -0.111,-0.453 -0.222,-0.603c-0.111,-0.15 -0.271,-0.255 -0.481,-0.317c-0.21,-0.062 -0.487,-0.093 -0.832,-0.093l-0.685,0Z" style="fill:#fff;fill-rule:nonzero;"/>
                <path d="M77.258,38.441l0.462,-0c0.309,-0 0.555,-0.021 0.74,-0.062c0.185,-0.041 0.33,-0.116 0.435,-0.224c0.105,-0.108 0.176,-0.253 0.213,-0.433c0.037,-0.181 0.055,-0.405 0.055,-0.673l0,-2.722l2.09,-0l0,2.722c0,1.33 -0.302,2.279 -0.906,2.846c-0.604,0.567 -1.572,0.85 -2.904,0.85l-2.312,0c-0.728,0 -1.341,-0.059 -1.841,-0.177c-0.499,-0.119 -0.9,-0.325 -1.202,-0.619c-0.302,-0.294 -0.521,-0.683 -0.657,-1.168c-0.135,-0.484 -0.203,-1.098 -0.203,-1.84l0,-4.053c0,-0.598 0.068,-1.095 0.203,-1.492c0.136,-0.397 0.324,-0.712 0.565,-0.944c0.24,-0.232 0.53,-0.394 0.869,-0.487c0.339,-0.093 0.706,-0.139 1.101,-0.139l3.292,0l-0,8.615Zm-3.07,-6.31c-0.333,-0 -0.555,0.069 -0.666,0.208c-0.111,0.14 -0.167,0.384 -0.167,0.735l0,3.836c0,0.288 0.016,0.531 0.046,0.727c0.031,0.196 0.102,0.353 0.213,0.471c0.111,0.119 0.271,0.204 0.481,0.256c0.21,0.051 0.493,0.077 0.851,0.077l0.536,-0l0,-6.31l-1.294,-0Z" style="fill:#fff;fill-rule:nonzero;"/>
                <path d="M81.253,27.676l-7.787,0l0,1.176l-2.238,-0l0,-1.176l-2.83,0l0,-2.351l2.83,0l0,-2.645l2.238,0l0,2.645l7.787,0l0,2.351Z" style="fill:#fff;fill-rule:nonzero;"/>
                <path d="M81.253,21.567l-5.808,-0c-0.752,-0 -1.393,-0.072 -1.923,-0.217c-0.531,-0.144 -0.965,-0.373 -1.304,-0.688c-0.34,-0.314 -0.589,-0.719 -0.75,-1.214c-0.16,-0.495 -0.24,-1.098 -0.24,-1.81l0,-1.5l2.238,0l0,1.439c0,0.319 0.031,0.587 0.093,0.804c0.061,0.216 0.166,0.389 0.314,0.518c0.148,0.129 0.352,0.222 0.61,0.278c0.259,0.057 0.586,0.085 0.981,0.085l5.789,0l0,2.305Z" style="fill:#fff;fill-rule:nonzero;"/>
                <path d="M81.253,11.049c0,0.774 -0.077,1.418 -0.231,1.934c-0.154,0.515 -0.401,0.928 -0.74,1.237c-0.339,0.309 -0.783,0.528 -1.332,0.657c-0.548,0.129 -1.223,0.194 -2.025,0.194l-1.35,-0c-0.802,-0 -1.48,-0.065 -2.035,-0.194c-0.555,-0.129 -1.002,-0.348 -1.341,-0.657c-0.339,-0.309 -0.586,-0.722 -0.74,-1.237c-0.154,-0.516 -0.231,-1.16 -0.231,-1.934l0,-2.799c0,-0.784 0.077,-1.433 0.231,-1.949c0.154,-0.515 0.404,-0.928 0.749,-1.237c0.346,-0.31 0.796,-0.529 1.351,-0.658c0.555,-0.128 1.233,-0.193 2.034,-0.193l1.332,0c0.802,0 1.477,0.065 2.025,0.193c0.549,0.129 0.993,0.348 1.332,0.658c0.339,0.309 0.586,0.722 0.74,1.237c0.154,0.516 0.231,1.165 0.231,1.949l0,2.799Zm-5.586,-4.531c-0.419,-0 -0.764,0.028 -1.036,0.085c-0.271,0.056 -0.484,0.16 -0.638,0.309c-0.154,0.15 -0.259,0.358 -0.314,0.626c-0.056,0.269 -0.083,0.609 -0.083,1.021l-0,2.181c-0,0.412 0.027,0.75 0.083,1.013c0.055,0.263 0.16,0.469 0.314,0.619c0.154,0.149 0.367,0.252 0.638,0.309c0.272,0.057 0.617,0.085 1.036,0.085l1.184,0c0.419,0 0.761,-0.028 1.027,-0.085c0.265,-0.057 0.474,-0.16 0.629,-0.309c0.154,-0.15 0.262,-0.356 0.323,-0.619c0.062,-0.263 0.093,-0.601 0.093,-1.013l-0,-2.181c-0,-0.412 -0.031,-0.752 -0.093,-1.021c-0.061,-0.268 -0.169,-0.476 -0.323,-0.626c-0.155,-0.149 -0.364,-0.253 -0.629,-0.309c-0.266,-0.057 -0.608,-0.085 -1.027,-0.085l-1.184,-0Z" style="fill:#fff;fill-rule:nonzero;"/>
            </g>
            <g>
                <path d="M126.502,43.576l-28.175,-0l-5.79,10.938l-10.447,-0l23.639,-43.891c0.716,-1.347 1.572,-2.462 2.567,-3.344c0.995,-0.883 2.427,-1.324 4.298,-1.324c1.83,-0 3.243,0.441 4.238,1.324c0.995,0.882 1.85,1.997 2.567,3.344l23.519,43.891l-10.506,-0l-5.91,-10.938Zm-23.937,-8.151l19.699,-0l-9.849,-18.741l-9.85,18.741Z" style="fill:#fff;fill-rule:nonzero;"/>
                <path d="M160.349,54.514c-2.985,-0 -5.472,-0.29 -7.462,-0.871c-1.99,-0.581 -3.581,-1.509 -4.775,-2.787c-1.194,-1.277 -2.04,-2.949 -2.537,-5.016c-0.498,-2.067 -0.746,-4.61 -0.746,-7.629l-0,-5.085c-0,-3.019 0.248,-5.574 0.746,-7.664c0.497,-2.09 1.343,-3.774 2.537,-5.051c1.194,-1.277 2.785,-2.206 4.775,-2.787c1.99,-0.58 4.477,-0.871 7.462,-0.871l23.4,0l-0,8.918l-23.102,0c-1.392,0 -2.537,0.116 -3.432,0.348c-0.895,0.233 -1.602,0.639 -2.119,1.22c-0.517,0.58 -0.876,1.381 -1.075,2.403c-0.199,1.022 -0.298,2.299 -0.298,3.832l-0,4.459c-0,1.486 0.099,2.728 0.298,3.727c0.199,0.999 0.558,1.8 1.075,2.404c0.517,0.603 1.224,1.033 2.119,1.288c0.895,0.256 2.04,0.384 3.432,0.384l23.162,-0l-0,8.778l-23.46,-0Z" style="fill:#fff;fill-rule:nonzero;"/>
                <path d="M223.863,54.514l-0,-21.04c-0,-1.579 -0.11,-2.88 -0.328,-3.902c-0.219,-1.021 -0.587,-1.823 -1.105,-2.403c-0.517,-0.581 -1.233,-0.975 -2.149,-1.184c-0.915,-0.209 -2.049,-0.314 -3.402,-0.314l-17.729,0l-0,28.843l-8.895,-0l0,-49.953l8.895,0l-0,12.192l17.968,0c3.024,0 5.541,0.291 7.551,0.871c2.009,0.581 3.611,1.51 4.805,2.787c1.194,1.277 2.04,2.961 2.537,5.051c0.498,2.09 0.746,4.645 0.746,7.664l0,21.388l-8.894,-0Z" style="fill:#fff;fill-rule:nonzero;"/>
                <path d="M239.622,54.514l-0,-36.785l9.073,-0l0,36.785l-9.073,-0Zm3.044,-39.92c-1.114,-0 -1.9,-0.256 -2.358,-0.767c-0.457,-0.511 -0.686,-1.323 -0.686,-2.438l-0,-4.041c-0,-1.115 0.229,-1.916 0.686,-2.403c0.458,-0.488 1.244,-0.732 2.358,-0.732l2.925,0c1.154,0 1.96,0.244 2.418,0.732c0.458,0.487 0.686,1.288 0.686,2.403l0,4.041c0,1.115 -0.228,1.927 -0.686,2.438c-0.458,0.511 -1.264,0.767 -2.418,0.767l-2.925,-0Z" style="fill:#fff;fill-rule:nonzero;"/>
                <path d="M264.335,39.465l0,1.742c0,1.161 0.08,2.09 0.239,2.787c0.159,0.697 0.448,1.242 0.865,1.637c0.418,0.395 0.975,0.662 1.672,0.801c0.696,0.14 1.562,0.209 2.597,0.209l10.506,0l-0,7.873l-10.506,-0c-5.134,-0 -8.795,-1.138 -10.984,-3.414c-2.189,-2.276 -3.283,-5.922 -3.283,-10.938l-0,-8.708c-0,-2.741 0.229,-5.051 0.686,-6.932c0.458,-1.882 1.254,-3.391 2.388,-4.529c1.134,-1.138 2.636,-1.962 4.507,-2.473c1.87,-0.511 4.238,-0.767 7.103,-0.767l15.64,0c2.308,0 4.228,0.256 5.761,0.767c1.532,0.511 2.745,1.219 3.641,2.125c0.895,0.905 1.522,1.997 1.88,3.274c0.358,1.277 0.537,2.659 0.537,4.145l0,12.401l-33.249,0Zm24.355,-11.565c0,-1.254 -0.269,-2.09 -0.806,-2.508c-0.537,-0.418 -1.482,-0.627 -2.835,-0.627l-14.804,0c-1.115,0 -2.05,0.058 -2.806,0.175c-0.756,0.116 -1.363,0.383 -1.82,0.801c-0.458,0.418 -0.786,1.022 -0.985,1.811c-0.199,0.79 -0.299,1.858 -0.299,3.205l0,2.02l24.355,0l0,-4.877Z" style="fill:#fff;fill-rule:nonzero;"/>
                <path d="M332.266,52.006c-0.676,1.068 -1.462,1.927 -2.358,2.578c-0.895,0.65 -2.139,0.975 -3.73,0.975c-1.672,-0 -2.945,-0.325 -3.821,-0.975c-0.875,-0.651 -1.651,-1.51 -2.328,-2.578l-21.31,-35.253l10.625,0l16.953,28.913l16.774,-28.913l10.506,0l-21.311,35.253Z" style="fill:#fff;fill-rule:nonzero;"/>
                <path d="M363.307,39.465l-0,1.742c-0,1.161 0.08,2.09 0.239,2.787c0.159,0.697 0.447,1.242 0.865,1.637c0.418,0.395 0.975,0.662 1.672,0.801c0.696,0.14 1.562,0.209 2.596,0.209l10.506,0l0,7.873l-10.506,-0c-5.133,-0 -8.794,-1.138 -10.983,-3.414c-2.189,-2.276 -3.283,-5.922 -3.283,-10.938l-0,-8.708c-0,-2.741 0.228,-5.051 0.686,-6.932c0.458,-1.882 1.254,-3.391 2.388,-4.529c1.134,-1.138 2.636,-1.962 4.507,-2.473c1.87,-0.511 4.238,-0.767 7.103,-0.767l15.64,0c2.308,0 4.228,0.256 5.76,0.767c1.532,0.511 2.746,1.219 3.642,2.125c0.895,0.905 1.522,1.997 1.88,3.274c0.358,1.277 0.537,2.659 0.537,4.145l0,12.401l-33.249,0Zm24.355,-11.565c-0,-1.254 -0.269,-2.09 -0.806,-2.508c-0.537,-0.418 -1.482,-0.627 -2.835,-0.627l-14.804,0c-1.115,0 -2.05,0.058 -2.806,0.175c-0.756,0.116 -1.363,0.383 -1.821,0.801c-0.457,0.418 -0.786,1.022 -0.985,1.811c-0.199,0.79 -0.298,1.858 -0.298,3.205l-0,2.02l24.355,0l-0,-4.877Z" style="fill:#fff;fill-rule:nonzero;"/>
                <path d="M453.862,54.514l0,-22.712c0,-2.369 -0.388,-3.983 -1.164,-4.842c-0.776,-0.859 -2.02,-1.289 -3.731,-1.289l-5.79,0c-1.313,0 -2.398,0.105 -3.253,0.314c-0.856,0.209 -1.533,0.557 -2.03,1.045c-0.497,0.487 -0.846,1.114 -1.045,1.881c-0.199,0.766 -0.298,1.73 -0.298,2.891l-0,22.712l-7.82,-0l0,-22.712c0,-1.161 -0.089,-2.125 -0.269,-2.891c-0.179,-0.767 -0.517,-1.394 -1.014,-1.881c-0.498,-0.488 -1.184,-0.836 -2.06,-1.045c-0.875,-0.209 -1.99,-0.314 -3.343,-0.314l-5.67,0c-1.791,0 -3.055,0.43 -3.791,1.289c-0.736,0.859 -1.104,2.473 -1.104,4.842l-0,22.712l-8.656,-0l0,-24.245c0,-2.322 0.199,-4.331 0.597,-6.026c0.398,-1.695 1.055,-3.1 1.97,-4.215c0.915,-1.115 2.109,-1.939 3.582,-2.473c1.472,-0.534 3.283,-0.802 5.432,-0.802l7.819,0c1.632,0 3.035,0.14 4.209,0.418c1.174,0.279 2.169,0.686 2.985,1.22c0.815,0.534 1.472,1.219 1.969,2.055c0.498,0.836 0.906,1.811 1.224,2.926c0.557,-2.229 1.622,-3.89 3.194,-4.981c1.572,-1.092 3.949,-1.638 7.133,-1.638l8.059,0c2.149,0 3.959,0.268 5.432,0.802c1.472,0.534 2.666,1.358 3.581,2.473c0.916,1.115 1.572,2.52 1.97,4.215c0.398,1.695 0.597,3.704 0.597,6.026l0,24.245l-8.715,-0Z" style="fill:#fff;fill-rule:nonzero;"/>
                <path d="M478.038,39.465l-0,1.742c-0,1.161 0.08,2.09 0.239,2.787c0.159,0.697 0.447,1.242 0.865,1.637c0.418,0.395 0.975,0.662 1.672,0.801c0.696,0.14 1.562,0.209 2.596,0.209l10.506,0l0,7.873l-10.506,-0c-5.133,-0 -8.795,-1.138 -10.983,-3.414c-2.189,-2.276 -3.283,-5.922 -3.283,-10.938l-0,-8.708c-0,-2.741 0.228,-5.051 0.686,-6.932c0.458,-1.882 1.254,-3.391 2.388,-4.529c1.134,-1.138 2.636,-1.962 4.507,-2.473c1.87,-0.511 4.238,-0.767 7.103,-0.767l15.64,0c2.308,0 4.228,0.256 5.76,0.767c1.532,0.511 2.746,1.219 3.642,2.125c0.895,0.905 1.522,1.997 1.88,3.274c0.358,1.277 0.537,2.659 0.537,4.145l0,12.401l-33.249,0Zm24.355,-11.565c-0,-1.254 -0.269,-2.09 -0.806,-2.508c-0.537,-0.418 -1.482,-0.627 -2.835,-0.627l-14.804,0c-1.115,0 -2.05,0.058 -2.806,0.175c-0.756,0.116 -1.363,0.383 -1.821,0.801c-0.457,0.418 -0.786,1.022 -0.985,1.811c-0.199,0.79 -0.298,1.858 -0.298,3.205l-0,2.02l24.355,0l-0,-4.877Z" style="fill:#fff;fill-rule:nonzero;"/>
                <path d="M550.566,54.514l-0,-21.04c-0,-1.579 -0.11,-2.868 -0.329,-3.867c-0.219,-0.998 -0.597,-1.788 -1.134,-2.368c-0.537,-0.581 -1.273,-0.987 -2.209,-1.22c-0.935,-0.232 -2.119,-0.348 -3.551,-0.348l-9.671,0c-1.393,0 -2.557,0.116 -3.492,0.348c-0.935,0.233 -1.681,0.639 -2.238,1.22c-0.557,0.58 -0.945,1.37 -1.164,2.368c-0.219,0.999 -0.329,2.288 -0.329,3.867l0,21.04l-8.894,-0l0,-21.388c0,-3.019 0.249,-5.574 0.746,-7.664c0.498,-2.09 1.343,-3.774 2.537,-5.051c1.194,-1.277 2.786,-2.206 4.776,-2.787c1.989,-0.58 4.477,-0.871 7.461,-0.871l10.805,0c3.024,0 5.532,0.291 7.521,0.871c1.99,0.581 3.582,1.51 4.776,2.787c1.194,1.277 2.039,2.961 2.537,5.051c0.497,2.09 0.746,4.645 0.746,7.664l-0,21.388l-8.894,-0Z" style="fill:#fff;fill-rule:nonzero;"/>
                <path d="M568.175,54.514l0,-29.331l-4.537,0l0,-8.43l4.537,0l0,-10.659l9.074,0l-0,10.659l10.207,0l0,8.43l-10.207,0l-0,29.331l-9.074,-0Z" style="fill:#fff;fill-rule:nonzero;"/>
                <path d="M629.779,44.482c-0,1.857 -0.139,3.425 -0.418,4.702c-0.279,1.277 -0.826,2.311 -1.642,3.1c-0.815,0.79 -1.93,1.359 -3.342,1.707c-1.413,0.349 -3.254,0.523 -5.522,0.523l-27.817,-0l-0,-8.151l26.683,-0c1.194,-0 2.029,-0.233 2.507,-0.697c0.477,-0.465 0.716,-1.347 0.716,-2.647l0,-1.254c0,-1.394 -0.229,-2.265 -0.686,-2.613c-0.458,-0.348 -1.224,-0.523 -2.298,-0.523l-18.147,0c-1.831,0 -3.313,-0.209 -4.447,-0.627c-1.135,-0.418 -2.02,-1.045 -2.657,-1.881c-0.637,-0.836 -1.064,-1.869 -1.283,-3.1c-0.219,-1.231 -0.329,-2.682 -0.329,-4.354l0,-2.857c0,-1.625 0.15,-3.019 0.448,-4.18c0.299,-1.161 0.786,-2.101 1.463,-2.821c0.676,-0.72 1.592,-1.243 2.746,-1.568c1.154,-0.325 2.606,-0.488 4.357,-0.488l12.297,0l0,7.873l-10.148,0c-0.875,0 -1.502,0.186 -1.88,0.557c-0.378,0.372 -0.567,1.045 -0.567,2.021l-0,1.741c-0,1.069 0.179,1.789 0.537,2.16c0.358,0.372 0.935,0.558 1.731,0.558l17.55,-0c2.069,-0 3.761,0.197 5.074,0.592c1.313,0.395 2.348,1.022 3.104,1.881c0.756,0.859 1.273,1.974 1.552,3.344c0.279,1.37 0.418,3.054 0.418,5.051l-0,1.951Z" style="fill:#fff;fill-rule:nonzero;"/>
            </g>
        </g>
    </g>
</svg>
