<svg viewBox="0 0 200 40" xmlns="http://www.w3.org/2000/svg">
    <path d="M1790 2655c-19-22-8-150 17-206l21-46 406-101c394-98 497-130 543-174 49-46 48-52-36-518-43-239-77-436-76-438 2-2 68 39 149 89l146 92v41c0 23-9 263-20 533-15 381-23 499-34 521-16 31-90 103-125 121-12 7-219 30-459 51s-456 41-479 44c-29 4-45 1-53-9z" style="fill:#ccc" transform="matrix(.00867 0 0 .00862 7.641 7.105)"/>
    <path d="M936 2431c-4-6-206-739-276-1000l-11-43-42 6c-23 4-43 9-45 10-2 2 49 197 112 433 64 236 116 436 116 445 0 34-149 84-281 95-69 5-78 4-87-13-30-57-345-958-353-1009-10-68-12-239-3-272 4-14 44-47 107-88l100-65 89 1c127 2 130-1 216-203 11-25 31-53 44-61 12-8 76-29 140-47l117-33 79 23c79 23 80 23 118 4 33-16 46-33 81-103 23-46 46-88 51-93 15-15 314-80 339-73 13 3 53 33 91 67 81 74 119 98 153 98 23 0 65-24 145-83 40-30 319-76 352-58 26 14 99 124 147 221 35 71 42 108 160 765 122 684 123 690 103 707-59 52-417 120-466 90-7-5-63-235-128-533-64-288-117-525-119-527-5-6-85 19-85 26 0 4 47 244 105 532 58 289 104 534 103 545-4 24-81 57-218 91-128 32-320 57-351 46-23-9-31-40-149-543l-126-534-34 3c-19 1-39 7-44 12-6 6 35 209 108 537 134 604 133 537 5 578-138 43-348 70-363 46z" style="fill:#ccc" transform="matrix(.00867 0 0 .00862 7.641 7.105)"/>
    <path d="m36.683 29.427 3.3-18.75h9.24c1.44 0 2.485.25 3.135.75.65.5.975 1.27.975 2.31 0 1.52-.335 2.77-1.005 3.75-.67.98-1.485 1.59-2.445 1.83l-.03.18c1.8.34 2.7 1.53 2.7 3.57 0 1.8-.49 3.31-1.47 4.53-.98 1.22-2.36 1.83-4.14 1.83Zm9.24-7.47h-2.25l-.54 3.06h2.22c.5 0 .88-.2 1.14-.6.26-.4.39-.91.39-1.53s-.32-.93-.96-.93Zm.84-7.17h-1.8l-.51 2.79h1.77c.92 0 1.38-.65 1.38-1.95 0-.56-.28-.84-.84-.84Zm19.889 7.56h-5.7l-.39 2.28h6.99l-.84 4.8h-12.69l3.3-18.75h12.54l-1.56 4.8h-6.15l-.42 2.52h5.7Zm7.53 7.08h-6l7.89-18.75h8.82l1.32 18.75h-6.03l-.12-2.97h-4.71Zm5.13-12.99-2.1 5.25h2.4v-5.25Zm22.859-.96h-4.14l-2.43 13.95h-5.7l2.43-13.95h-4.11l.87-4.8h13.95Zm8.039-4.92-.33 1.92c-.02.08-.97 2.73-2.85 7.95h-2.85v-6.93c0-.72.1-1.64.3-2.76.08-.54.48-.81 1.2-.81h3.6c.62 0 .93.21.93.63Zm12.42 11.79h-5.7l-.39 2.28h6.99l-.84 4.8H110l3.3-18.75h12.54l-1.56 4.8h-6.15l-.42 2.52h5.7Zm8.669 7.08h-5.94l4.38-18.75h7.44l.54 9.54h.21l3.9-9.54h7.44l-2.22 18.75h-5.97l1.26-9.09h-.21l-3.75 9.09h-4.35l-.63-9.09h-.15Zm33.509-18.75-2.49 14.07h2.04c.7 0 1.2-.095 1.5-.285.3-.19.51-.625.63-1.305l2.22-12.48h5.7l-1.86 10.53c-.3 1.7-.645 3.07-1.035 4.11-.39 1.04-.935 1.92-1.635 2.64-.7.72-1.565 1.22-2.595 1.5-1.03.28-2.335.42-3.915.42-2.42 0-4.115-.365-5.085-1.095-.97-.73-1.455-1.985-1.455-3.765 0-.98.14-2.25.42-3.81l1.86-10.53Zm19.829 14.22h-3.72l-.78 4.53h-5.7l3.3-18.75h9c3.4 0 5.1 1.58 5.1 4.74 0 1.5-.21 2.855-.63 4.065-.42 1.21-.885 2.17-1.395 2.88s-1.21 1.31-2.1 1.8c-.89.49-1.915.735-3.075.735Zm-2.07-9.42-.81 4.62h1.32c.68 0 1.195-.075 1.545-.225.35-.15.575-.495.675-1.035.26-1.48.39-2.29.39-2.43 0-.38-.15-.63-.45-.75-.3-.12-.75-.18-1.35-.18Z" style="white-space:pre;fill:#fff"/>
</svg>
