<svg viewBox="0 0 200 40" xmlns="http://www.w3.org/2000/svg">
    <path d="M74.121 1.25h6.03L72.441 20h-8.34l-1.11-18.75h6.33v11.91h.27Zm17.4 11.67h-5.7l-.39 2.28h6.99l-.84 4.8h-12.69l3.3-18.75h12.54l-1.56 4.8h-6.15l-.42 2.52h5.7Zm18.81 7.08h-6.27l-1.38-5.58h-1.23l-.96 5.58h-5.7l3.3-18.75h9c3.42 0 5.13 1.53 5.13 4.59 0 1.26-.19 2.46-.57 3.6-.7 2.16-1.8 3.6-3.3 4.32Zm-7.41-13.95-.66 3.75h1.32c.68 0 1.195-.075 1.545-.225.35-.15.59-.58.72-1.29.13-.71.195-1.145.195-1.305 0-.4-.155-.655-.465-.765-.31-.11-.815-.165-1.515-.165Zm24.87 0h-4.14L121.221 20h-5.7l2.43-13.95h-4.11l.87-4.8h13.95ZM127.52 20l3.3-18.75h5.7L133.22 20Zm22.14-5.37-.48 5.04c-1.28.52-2.9.78-4.86.78-2.52 0-4.325-.49-5.415-1.47-1.09-.98-1.635-2.49-1.635-4.53 0-.86.14-2.13.42-3.81.6-3.44 1.635-5.94 3.105-7.5C142.265 1.58 144.59.8 147.77.8c.74 0 1.585.075 2.535.225.95.15 1.645.335 2.085.555l-1.68 4.59c-1.18-.28-2.285-.42-3.315-.42-1.03 0-1.765.1-2.205.3-.44.2-.71.6-.81 1.2L143 15.11c.72.16 1.46.24 2.22.24 1.62 0 3.1-.24 4.44-.72Zm6.36 5.37h-6l7.89-18.75h8.82L168.05 20h-6.03l-.12-2.97h-4.71Zm5.13-12.99-2.1 5.25h2.4V7.01ZM181.43 20h-11.4l3.3-18.75h5.7l-2.46 13.95h5.7ZM66.01 39.587h-6l7.89-18.75h8.82l1.32 18.75h-6.03l-.12-2.97h-4.71Zm5.13-12.99-2.1 5.25h2.4v-5.25Zm24.42 12.99h-6.27l-1.38-5.58h-1.23l-.96 5.58h-5.7l3.3-18.75h9c3.42 0 5.13 1.53 5.13 4.59 0 1.26-.19 2.46-.57 3.6-.7 2.16-1.8 3.6-3.3 4.32Zm-7.41-13.95-.66 3.75h1.32c.68 0 1.195-.075 1.545-.225.35-.15.59-.58.72-1.29.13-.71.195-1.145.195-1.305 0-.4-.155-.655-.465-.765-.31-.11-.815-.165-1.515-.165Zm22.74 8.58-.48 5.04c-1.28.52-2.9.78-4.86.78-2.52 0-4.325-.49-5.415-1.47-1.09-.98-1.635-2.49-1.635-4.53 0-.86.14-2.13.42-3.81.6-3.44 1.635-5.94 3.105-7.5 1.47-1.56 3.795-2.34 6.975-2.34.74 0 1.585.075 2.535.225.95.15 1.645.335 2.085.555l-1.68 4.59c-1.18-.28-2.285-.42-3.315-.42-1.03 0-1.765.1-2.205.3-.44.2-.71.6-.81 1.2l-1.38 7.86c.72.16 1.46.24 2.22.24 1.62 0 3.1-.24 4.44-.72Zm6.36 5.37h-6l7.89-18.75h8.82l1.32 18.75h-6.03l-.12-2.97h-4.71Zm5.13-12.99-2.1 5.25h2.4v-5.25Zm8.879 12.99 3.3-18.75h7.98c2.58 0 4.415.455 5.505 1.365 1.09.91 1.635 2.385 1.635 4.425 0 1.04-.12 2.24-.36 3.6-.6 3.36-1.625 5.76-3.075 7.2-1.45 1.44-3.785 2.16-7.005 2.16Zm10.5-13.95h-2.37l-1.59 9.15h2.37c.78 0 1.36-.095 1.74-.285.38-.19.63-.625.75-1.305l1.05-5.97c.02-.12.03-.28.03-.48 0-.46-.16-.76-.48-.9-.32-.14-.82-.21-1.5-.21Zm21.48 6.87h-5.7l-.39 2.28h6.99l-.84 4.8h-12.69l3.3-18.75h12.54l-1.56 4.8h-6.15l-.42 2.52h5.7Z" style="white-space:pre;fill:#fff"/>
    <path style="fill-rule:evenodd;stroke-width:0;stroke-miterlimit:4;fill:#ccc" d="M43.981 16.25V20h3.75v-3.75h-3.75Zm-15 0V20h3.75v-3.75h-3.75Zm0 15h7.5V35h-7.5v-3.75Zm18.75 0V35h-7.5v-3.75h7.5Zm0-22.5V5h3.75v3.75h-3.75Zm-18.75 0h3.75v3.75h11.25V8.75h3.75v3.75h3.75v3.75h3.75V20h3.75v11.25h-3.75v-7.5h-3.75v7.5h-3.75V27.5h-18.75v3.75h-3.75v-7.5h-3.75v7.5h-3.75V20h3.75v-3.75h3.75V12.5h3.75V8.75ZM25.231 5h3.75v3.75h-3.75V5Z"/>
</svg>
