<svg viewBox="0 0 200 40" xmlns="http://www.w3.org/2000/svg">
    <path d="M58.129 23.087c0 1.202.004 2.408-.004 3.612a.638.638 0 0 1-.082.258c-.702 1.378-1.408 2.757-2.111 4.138-.47.927-.278 1.613.6 2.163.338.212.679.415 1.007.636.097.067.206.193.209.295.02.607.01 1.216.01 1.918a3658.236 3658.236 0 0 1-4.83-3.017c.927-1.823 1.839-3.608 2.789-5.474-.086-.056-.185-.103-.262-.172-.686-.603-1.354-1.229-2.057-1.813-.765-.632-1.872-.546-2.564.156a1.92 1.92 0 0 0-.113 2.568c.04.047.089.083.172.159l.302-.964.076-.01c.473 1.133.95 2.266 1.425 3.4a.478.478 0 0 1-.063.045c-.07-.043-.15-.079-.209-.132-.656-.577-1.319-1.149-1.965-1.74-1.093-.993-1.199-2.63-.254-3.713.966-1.111 2.603-1.229 3.743-.258.695.592 1.369 1.208 2.084 1.848.679-1.329 1.345-2.628 2.011-3.929.029.013.056.02.086.026Zm8.409 7.912c.496-1.186.967-2.316 1.441-3.446a.6.6 0 0 1 .072-.006c.103.311.203.619.309.944 1.053-.915.682-2.681-.64-3.158-.686-.248-1.344-.152-1.901.328-.795.68-1.567 1.385-2.379 2.108l2.713 5.321c-1.574.983-3.131 1.957-4.761 2.978 0-.527.037-.984-.01-1.435-.049-.483.103-.798.554-.997.252-.113.477-.284.709-.437.738-.477.951-1.213.556-1.995-.672-1.335-1.365-2.664-2.031-4.002a1.736 1.736 0 0 1-.175-.716c-.017-1.109-.007-2.219-.007-3.33l.079-.029 2.025 3.956c.096-.073.182-.13.255-.199.666-.587 1.315-1.196 1.995-1.763 1.418-1.179 3.531-.645 4.171 1.07.384 1.031.209 2.008-.583 2.79-.706.696-1.482 1.326-2.227 1.981-.016.014-.047.01-.165.037Zm-5.957 5.655h-2.078c0-.454.004-.898 0-1.341-.006-1.498-.019-2.992-.023-4.49 0-.888.01-1.773.03-2.66a1.19 1.19 0 0 1 .126-.527c.145-.278.212-.56.199-.874-.017-.465-.004-.925-.004-1.422h1.418c.01.086.034.186.037.285.003.384.013.769 0 1.153-.011.298.046.57.192.838.079.143.126.325.126.488.006 2.765.006 5.536.004 8.302-.004.076-.018.152-.027.248Zm3.545-1.501.629-.4c.514.453 1.014.901 1.517 1.348.15.132.302.258.445.398.201.201.424.268.719.228.814-.109 1.434.55 1.285 1.335-.11.57-.64.981-1.206.928-.587-.053-1.09-.527-1.034-1.1.05-.53-.185-.831-.55-1.137-.599-.5-1.169-1.033-1.805-1.6Zm3.949 2.7a.47.47 0 0 0-.457-.487.494.494 0 0 0-.507.491.508.508 0 0 0 .49.473.48.48 0 0 0 .474-.477Zm-13.633-3.031.695.447c-.145.087-.261.133-.348.209-.576.507-1.146 1.023-1.726 1.527-.205.18-.308.378-.281.66.016.178.006.374-.043.546a1.131 1.131 0 0 1-1.316.763 1.138 1.138 0 0 1-.894-1.233c.056-.59.533-1.084 1.116-1.007.527.069.846-.16 1.183-.474.52-.487 1.064-.951 1.614-1.438Zm-2.296 3.029a.48.48 0 0 0-.477-.475.46.46 0 0 0-.481.461.472.472 0 0 0 .487.497.491.491 0 0 0 .471-.483Zm8.129-13.21h-1.423c-.087-1.196-.004-2.342.496-3.429.04-.082.133-.143.202-.212.07.069.169.126.206.212.288.686.503 1.394.519 2.147.008.417 0 .838 0 1.282Zm-1.732 13.305v-.655h2.028v.655h-2.028Z" style="fill:#ccc"/>
    <path d="m31.148 19.2 1.14-6.63h-4.29l-1.14 6.63h-5.7l3.3-18.75h5.7l-1.17 6.63h4.29l1.17-6.63h5.7l-3.3 18.75h-5.7Z" style="white-space:pre;fill:#fff"/>
    <path d="m142.635 12 .75-4.32h4.44l.84-4.65h4.08l-.84 4.65h4.47l-.75 4.32h-4.47l-.84 4.68h-4.08l.84-4.68h-4.44Z" style="white-space:pre;fill:#ccc"/>
    <path d="m132.366 13.68.15-.81h-1.44l.81-4.59h6.87l-1.77 10.02c-2.44.9-4.89 1.35-7.35 1.35s-4.235-.49-5.325-1.47c-1.09-.98-1.635-2.49-1.635-4.53 0-.86.14-2.13.42-3.81.6-3.48 1.66-5.99 3.18-7.53 1.52-1.54 4.04-2.31 7.56-2.31.74 0 1.685.08 2.835.24 1.15.16 1.995.34 2.535.54l-1.65 4.59c-1.5-.28-2.875-.42-4.125-.42s-2.145.1-2.685.3c-.54.2-.86.6-.96 1.2l-1.47 8.49h1.89c.68 0 1.185-.075 1.515-.225.33-.15.545-.495.645-1.035Zm-19.38 5.52-3.06-6.66c-.08-.14-.12-.335-.12-.585 0-.25.02-.535.06-.855h-.24l-1.41 8.1h-5.7l3.3-18.75h5.37l3.06 6.66c.06.14.09.335.09.585 0 .25-.02.535-.06.855h.24l1.44-8.1h5.7l-3.3 18.75h-5.37Zm-19.71 0 3.3-18.75h5.7l-3.3 18.75h-5.7Zm.271-13.95h-4.14l-2.43 13.95h-5.7l2.43-13.95h-4.11l.87-4.8h13.95l-.87 4.8ZM69.337 19.2l-3.06-6.66c-.08-.14-.12-.335-.12-.585 0-.25.02-.535.06-.855h-.24l-1.41 8.1h-5.7l3.3-18.75h5.37l3.06 6.66c.06.14.09.335.09.585 0 .25-.02.535-.06.855h.24l1.44-8.1h5.7l-3.3 18.75h-5.37ZM49.238.45l-2.49 14.07h2.04c.7 0 1.2-.095 1.5-.285.3-.19.51-.625.63-1.305L53.138.45h5.7l-1.86 10.53c-.3 1.7-.645 3.07-1.035 4.11-.39 1.04-.935 1.92-1.635 2.64-.7.72-1.565 1.22-2.595 1.5-1.03.28-2.335.42-3.915.42-2.42 0-4.115-.365-5.085-1.095-.97-.73-1.455-1.985-1.455-3.765 0-.98.14-2.25.42-3.81L43.538.45h5.7Zm35.827 31.79h-4.86l-1.2 6.96h-5.7l3.3-18.75h11.7l-1.59 4.8h-5.28l-.42 2.52h4.86Zm2.1 6.96 3.3-18.75h5.7l-3.3 18.75Zm8.699-.33 1.68-4.95c1.68.46 3.22.69 4.62.69s2.53-.06 3.39-.18l.24-1.5-2.49-.24c-1.9-.18-3.245-.61-4.035-1.29s-1.185-1.64-1.185-2.88c0-.54.06-1.14.18-1.8.46-2.56 1.295-4.32 2.505-5.28s3.085-1.44 5.625-1.44 4.78.25 6.72.75l-1.56 4.8c-1.74-.3-3.14-.45-4.2-.45s-1.96.05-2.7.15l-.24 1.47 2.01.21c2.04.22 3.49.705 4.35 1.455.86.75 1.29 1.755 1.29 3.015 0 1.28-.28 2.6-.84 3.96-.28.7-.585 1.285-.915 1.755-.33.47-.75.87-1.26 1.2-.51.33-.975.58-1.395.75-.42.17-.95.295-1.59.375-.94.14-2.09.21-3.45.21-2.48 0-4.73-.26-6.75-.78Zm27.78.33 1.14-6.63h-4.29l-1.14 6.63h-5.7l3.3-18.75h5.7l-1.17 6.63h4.29l1.17-6.63h5.7l-3.3 18.75Zm9.27 0 3.3-18.75h5.7l-3.3 18.75Zm19.709 0-3.06-6.66c-.08-.14-.12-.335-.12-.585 0-.25.02-.535.06-.855h-.24l-1.41 8.1h-5.7l3.3-18.75h5.37l3.06 6.66c.06.14.09.335.09.585 0 .25-.02.535-.06.855h.24l1.44-8.1h5.7l-3.3 18.75Zm19.38-5.52.15-.81h-1.44l.81-4.59h6.87l-1.77 10.02c-2.44.9-4.89 1.35-7.35 1.35s-4.235-.49-5.325-1.47c-1.09-.98-1.635-2.49-1.635-4.53 0-.86.14-2.13.42-3.81.6-3.48 1.66-5.99 3.18-7.53 1.52-1.54 4.04-2.31 7.56-2.31.74 0 1.685.08 2.835.24 1.15.16 1.995.34 2.535.54l-1.65 4.59c-1.5-.28-2.875-.42-4.125-.42s-2.145.1-2.685.3c-.54.2-.86.6-.96 1.2l-1.47 8.49h1.89c.68 0 1.185-.075 1.515-.225.33-.15.545-.495.645-1.035Z" style="white-space:pre;fill:#fff"/>
</svg>
