<svg viewBox="0 0 200 40" xmlns="http://www.w3.org/2000/svg">
    <path d="M50.863 14.516h-3.82l-.801 4.625h-5.853L43.778 0h9.242c3.492 0 5.237 1.613 5.237 4.839 0 1.531-.216 2.912-.647 4.144-.431 1.238-.907 2.223-1.427 2.95-.527.722-1.25 1.335-2.167 1.838-.911.497-1.961.745-3.153.745Zm-.77-9.616h-1.355l-.832 4.716h1.355c.699 0 1.226-.074 1.582-.225.363-.156.596-.51.698-1.061.267-1.511.401-2.338.401-2.481 0-.387-.154-.643-.462-.765-.308-.123-.77-.184-1.387-.184ZM60.999 0h5.853l-2.557 14.363h2.095c.719 0 1.233-.095 1.541-.286.308-.197.523-.643.647-1.337L70.858 0h5.853l-1.91 10.749c-.308 1.736-.665 3.134-1.068 4.196-.398 1.062-.955 1.96-1.674 2.695-.719.735-1.609 1.245-2.67 1.531-1.055.286-2.393.429-4.015.429-2.485 0-4.228-.375-5.227-1.123-.993-.742-1.489-2.021-1.489-3.838 0-1.001.144-2.297.431-3.89L60.999 0Zm30.592 14.241-.863 4.9H74.955l.677-3.828 9.274-10.229-.062-.184h-6.131l.339-4.9h14.942l-.678 3.828-9.211 10.229.03.184h7.456Zm16.882 0-.862 4.9H91.837l.678-3.828 9.273-10.229-.062-.184h-6.13l.339-4.9h14.941l-.677 3.828-9.212 10.229.031.184h7.455Zm28.928-6.768-.801 4.44h-5.853l-.4 2.328h7.178l-.863 4.9h-13.031L127.019 0h12.878l-1.602 4.9h-6.316l-.431 2.573h5.853Z" style="white-space:pre;fill:#fff"/>
    <path d="M116.584 13.518h5.776l-.006 5.771h-5.776l.006-5.771Z" style="fill:#ccc" transform="rotate(5.105 119.47 16.403)"/>
    <path d="M110.866 6.652h5.777l-.006 5.771h-5.777l.006-5.771Z" style="fill:#ccc" transform="rotate(5.105 113.752 9.537)"/>
    <path d="M110.289 13.037h5.776l-.006 5.772h-5.776l.006-5.772Z" style="fill:#ccc" transform="rotate(5.105 113.174 15.923)"/>
    <path d="M111.444.265h5.777l-.006 5.771h-5.777l.006-5.771Z" style="fill:#ccc" transform="rotate(5.105 114.33 3.15)"/>
    <path d="m77.024 33.98.15-.81h-1.44l.81-4.59h6.87l-1.77 10.02c-2.44.9-4.89 1.35-7.35 1.35s-4.235-.49-5.325-1.47c-1.09-.98-1.635-2.49-1.635-4.53 0-.86.14-2.13.42-3.81.6-3.48 1.66-5.99 3.18-7.53 1.52-1.54 4.04-2.31 7.56-2.31.74 0 1.685.08 2.835.24 1.15.16 1.995.34 2.535.54l-1.65 4.59c-1.5-.28-2.875-.42-4.125-.42s-2.145.1-2.685.3c-.54.2-.86.6-.96 1.2l-1.47 8.49h1.89c.68 0 1.185-.075 1.515-.225.33-.15.545-.495.645-1.035Zm11.639 5.52h-6l7.89-18.75h8.82l1.32 18.75h-6.03l-.12-2.97h-4.71Zm5.13-12.99-2.1 5.25h2.4v-5.25Zm14.28 12.99h-5.94l4.38-18.75h7.44l.54 9.54h.21l3.9-9.54h7.44l-2.22 18.75h-5.97l1.26-9.09h-.21l-3.75 9.09h-4.35l-.63-9.09h-.15Zm31.559-7.08h-5.7l-.39 2.28h6.99l-.84 4.8h-12.69l3.3-18.75h12.54l-1.56 4.8h-6.15l-.42 2.52h5.7Zm2.729 6.75 1.68-4.95c1.68.46 3.22.69 4.62.69s2.53-.06 3.39-.18l.24-1.5-2.49-.24c-1.9-.18-3.245-.61-4.035-1.29s-1.185-1.64-1.185-2.88c0-.54.06-1.14.18-1.8.46-2.56 1.295-4.32 2.505-5.28s3.085-1.44 5.625-1.44 4.78.25 6.72.75l-1.56 4.8c-1.74-.3-3.14-.45-4.2-.45s-1.96.05-2.7.15l-.24 1.47 2.01.21c2.04.22 3.49.705 4.35 1.455.86.75 1.29 1.755 1.29 3.015 0 1.28-.28 2.6-.84 3.96-.28.7-.585 1.285-.915 1.755-.33.47-.75.87-1.26 1.2-.51.33-.975.58-1.395.75-.42.17-.95.295-1.59.375-.94.14-2.09.21-3.45.21-2.48 0-4.73-.26-6.75-.78Z" style="white-space:pre;fill:#fff"/>
</svg>
