<?xml version="1.0" encoding="UTF-8" standalone="no"?>
<!DOCTYPE svg PUBLIC "-//W3C//DTD SVG 1.1//EN" "http://www.w3.org/Graphics/SVG/1.1/DTD/svg11.dtd">
<svg width="100%" height="100%" viewBox="0 0 633 70" version="1.1" xmlns="http://www.w3.org/2000/svg" xmlns:xlink="http://www.w3.org/1999/xlink" xml:space="preserve" xmlns:serif="http://www.serif.com/" style="fill-rule:evenodd;clip-rule:evenodd;stroke-linejoin:round;stroke-miterlimit:2;">
    <g transform="matrix(1,0,0,1,-3,-25)">
        <g transform="matrix(3.37718,0,0,3.37718,-758.774,-143.679)">
            <g>
                <g>
                    <g id="Group" transform="matrix(1.66729,0,0,1.66353,225.351,49.8622)">
                        <path id="path4921" d="M7.388,0.083C4.478,0.083 2.051,2.152 1.496,4.899L0.43,4.899C0.383,4.899 0.34,4.926 0.319,4.968C0.298,5.01 0.303,5.061 0.331,5.098L1.936,7.239C1.96,7.271 1.997,7.289 2.036,7.289C2.075,7.289 2.112,7.271 2.136,7.239L3.741,5.098C3.769,5.061 3.774,5.01 3.753,4.968C3.732,4.926 3.689,4.899 3.641,4.899L2.853,4.899C3.382,2.888 5.209,1.402 7.388,1.402C9.981,1.402 12.08,3.501 12.08,6.094C12.08,8.687 9.981,10.786 7.388,10.786C5.761,10.786 4.329,9.959 3.487,8.703C3.464,8.669 3.426,8.648 3.384,8.648L2.144,8.648C2.101,8.648 2.061,8.671 2.038,8.708C2.015,8.745 2.014,8.791 2.033,8.829C3.029,10.774 5.054,12.105 7.388,12.105C10.706,12.105 13.399,9.413 13.399,6.094C13.399,2.776 10.706,0.083 7.388,0.083Z" style="fill:rgb(192,192,192);fill-rule:nonzero;stroke:rgb(127,127,127);stroke-width:0.03px;"/>
                        <path id="polygon4923" d="M6.988,2.689C6.889,2.689 6.808,2.769 6.808,2.869L6.808,6.785C6.808,6.849 6.842,6.908 6.897,6.94L9.686,8.584C9.771,8.634 9.881,8.606 9.932,8.52L10.204,8.059C10.254,7.974 10.226,7.864 10.141,7.813L7.703,6.364L7.703,2.869C7.703,2.769 7.623,2.689 7.523,2.689L6.988,2.689Z" style="fill:rgb(192,192,192);fill-rule:nonzero;stroke:rgb(127,127,127);stroke-width:0.03px;"/>
                    </g>
                    <g transform="matrix(1.77115,0,0,1.77115,191.971,16.5992)">
                        <path d="M38.142,28.557C37.542,28.557 37.042,28.507 36.642,28.407C36.242,28.307 35.922,28.147 35.682,27.927C35.442,27.707 35.272,27.419 35.172,27.063C35.072,26.707 35.022,26.269 35.022,25.749L35.022,20.373L36.834,20.373L36.834,25.677C36.834,25.917 36.856,26.119 36.9,26.283C36.944,26.447 37.022,26.583 37.134,26.691C37.246,26.799 37.396,26.877 37.584,26.925C37.772,26.973 38.01,26.997 38.298,26.997L43.158,26.997L43.158,28.557L38.142,28.557Z" style="fill:white;fill-rule:nonzero;"/>
                        <path d="M46.326,28.557C45.854,28.557 45.466,28.517 45.162,28.437C44.858,28.357 44.616,28.243 44.436,28.095C44.256,27.947 44.13,27.767 44.058,27.555C43.986,27.343 43.95,27.105 43.95,26.841L43.95,26.229C43.95,25.957 43.984,25.715 44.052,25.503C44.12,25.291 44.238,25.111 44.406,24.963C44.574,24.815 44.804,24.703 45.096,24.627C45.388,24.551 45.758,24.513 46.206,24.513L51.018,24.513L51.018,24.369C51.018,23.953 50.934,23.675 50.766,23.535C50.598,23.395 50.314,23.325 49.914,23.325L48.138,23.325L48.138,22.053L49.914,22.053C50.434,22.053 50.876,22.101 51.24,22.197C51.604,22.293 51.902,22.439 52.134,22.635C52.366,22.831 52.536,23.079 52.644,23.379C52.752,23.679 52.806,24.037 52.806,24.453L52.806,26.037C52.806,26.509 52.76,26.905 52.668,27.225C52.576,27.545 52.416,27.805 52.188,28.005C51.96,28.205 51.656,28.347 51.276,28.431C50.896,28.515 50.418,28.557 49.842,28.557L46.326,28.557ZM51.018,25.617L46.398,25.617C46.19,25.617 46.026,25.663 45.906,25.755C45.786,25.847 45.726,26.021 45.726,26.277L45.726,26.721C45.726,26.953 45.79,27.113 45.918,27.201C46.046,27.289 46.226,27.333 46.458,27.333L49.818,27.333C50.026,27.333 50.206,27.317 50.358,27.285C50.51,27.253 50.634,27.195 50.73,27.111C50.826,27.027 50.898,26.909 50.946,26.757C50.994,26.605 51.018,26.409 51.018,26.169L51.018,25.617Z" style="fill:white;fill-rule:nonzero;"/>
                        <path d="M61.806,26.829C61.806,27.149 61.778,27.419 61.722,27.639C61.666,27.859 61.556,28.037 61.392,28.173C61.228,28.309 61.004,28.407 60.72,28.467C60.436,28.527 60.066,28.557 59.61,28.557L54.018,28.557L54.018,27.153L59.382,27.153C59.622,27.153 59.79,27.113 59.886,27.033C59.982,26.953 60.03,26.801 60.03,26.577L60.03,26.361C60.03,26.121 59.984,25.971 59.892,25.911C59.8,25.851 59.646,25.821 59.43,25.821L55.782,25.821C55.414,25.821 55.116,25.785 54.888,25.713C54.66,25.641 54.482,25.533 54.354,25.389C54.226,25.245 54.14,25.067 54.096,24.855C54.052,24.643 54.03,24.393 54.03,24.105L54.03,23.613C54.03,23.333 54.06,23.093 54.12,22.893C54.18,22.693 54.278,22.531 54.414,22.407C54.55,22.283 54.734,22.193 54.966,22.137C55.198,22.081 55.49,22.053 55.842,22.053L58.314,22.053L58.314,23.409L56.274,23.409C56.098,23.409 55.972,23.441 55.896,23.505C55.82,23.569 55.782,23.685 55.782,23.853L55.782,24.153C55.782,24.337 55.818,24.461 55.89,24.525C55.962,24.589 56.078,24.621 56.238,24.621L59.766,24.621C60.182,24.621 60.522,24.655 60.786,24.723C61.05,24.791 61.258,24.899 61.41,25.047C61.562,25.195 61.666,25.387 61.722,25.623C61.778,25.859 61.806,26.149 61.806,26.493L61.806,26.829Z" style="fill:white;fill-rule:nonzero;"/>
                        <path d="M63.294,28.557L63.294,23.505L62.382,23.505L62.382,22.053L63.294,22.053L63.294,20.217L65.118,20.217L65.118,22.053L67.17,22.053L67.17,23.505L65.118,23.505L65.118,28.557L63.294,28.557Z" style="fill:white;fill-rule:nonzero;"/>
                        <path d="M74.622,26.217L74.622,28.557L72.798,28.557L72.798,20.373L79.35,20.373C79.934,20.373 80.422,20.419 80.814,20.511C81.206,20.603 81.522,20.755 81.762,20.967C82.002,21.179 82.172,21.453 82.272,21.789C82.372,22.125 82.422,22.533 82.422,23.013L82.422,23.721C82.422,24.209 82.374,24.613 82.278,24.933C82.182,25.253 82.016,25.509 81.78,25.701C81.544,25.893 81.23,26.027 80.838,26.103C80.446,26.179 79.95,26.217 79.35,26.217L74.622,26.217ZM80.598,23.085C80.598,22.645 80.504,22.345 80.316,22.185C80.128,22.025 79.79,21.945 79.302,21.945L74.622,21.945L74.622,24.741L79.326,24.741C79.806,24.741 80.138,24.667 80.322,24.519C80.506,24.371 80.598,24.081 80.598,23.649L80.598,23.085Z" style="fill:white;fill-rule:nonzero;"/>
                        <rect x="83.562" y="19.953" width="1.824" height="8.604" style="fill:white;fill-rule:nonzero;"/>
                        <path d="M89.022,28.557C88.55,28.557 88.162,28.517 87.858,28.437C87.554,28.357 87.312,28.243 87.132,28.095C86.952,27.947 86.826,27.767 86.754,27.555C86.682,27.343 86.646,27.105 86.646,26.841L86.646,26.229C86.646,25.957 86.68,25.715 86.748,25.503C86.816,25.291 86.934,25.111 87.102,24.963C87.27,24.815 87.5,24.703 87.792,24.627C88.084,24.551 88.454,24.513 88.902,24.513L93.714,24.513L93.714,24.369C93.714,23.953 93.63,23.675 93.462,23.535C93.294,23.395 93.01,23.325 92.61,23.325L90.834,23.325L90.834,22.053L92.61,22.053C93.13,22.053 93.572,22.101 93.936,22.197C94.3,22.293 94.598,22.439 94.83,22.635C95.062,22.831 95.232,23.079 95.34,23.379C95.448,23.679 95.502,24.037 95.502,24.453L95.502,26.037C95.502,26.509 95.456,26.905 95.364,27.225C95.272,27.545 95.112,27.805 94.884,28.005C94.656,28.205 94.352,28.347 93.972,28.431C93.592,28.515 93.114,28.557 92.538,28.557L89.022,28.557ZM93.714,25.617L89.094,25.617C88.886,25.617 88.722,25.663 88.602,25.755C88.482,25.847 88.422,26.021 88.422,26.277L88.422,26.721C88.422,26.953 88.486,27.113 88.614,27.201C88.742,27.289 88.922,27.333 89.154,27.333L92.514,27.333C92.722,27.333 92.902,27.317 93.054,27.285C93.206,27.253 93.33,27.195 93.426,27.111C93.522,27.027 93.594,26.909 93.642,26.757C93.69,26.605 93.714,26.409 93.714,26.169L93.714,25.617Z" style="fill:white;fill-rule:nonzero;"/>
                        <path d="M98.49,25.437C98.49,25.797 98.568,26.047 98.724,26.187C98.88,26.327 99.142,26.397 99.51,26.397L103.506,26.397L103.506,22.053L105.246,22.053L105.246,28.437C105.246,29.165 105.066,29.691 104.706,30.015C104.346,30.339 103.758,30.501 102.942,30.501L100.338,30.501L100.338,29.037L102.786,29.037C103.034,29.037 103.216,28.989 103.332,28.893C103.448,28.797 103.506,28.613 103.506,28.341L103.506,27.813L99.402,27.813C98.914,27.813 98.5,27.767 98.16,27.675C97.82,27.583 97.544,27.441 97.332,27.249C97.12,27.057 96.966,26.817 96.87,26.529C96.774,26.241 96.726,25.901 96.726,25.509L96.726,22.053L98.49,22.053L98.49,25.437Z" style="fill:white;fill-rule:nonzero;"/>
                        <path d="M108.342,25.965L108.342,26.265C108.342,26.465 108.358,26.625 108.39,26.745C108.422,26.865 108.48,26.959 108.564,27.027C108.648,27.095 108.76,27.141 108.9,27.165C109.04,27.189 109.214,27.201 109.422,27.201L111.534,27.201L111.534,28.557L109.422,28.557C108.39,28.557 107.654,28.361 107.214,27.969C106.774,27.577 106.554,26.949 106.554,26.085L106.554,24.585C106.554,24.113 106.6,23.715 106.692,23.391C106.784,23.067 106.944,22.807 107.172,22.611C107.4,22.415 107.702,22.273 108.078,22.185C108.454,22.097 108.93,22.053 109.506,22.053L112.65,22.053C113.114,22.053 113.5,22.097 113.808,22.185C114.116,22.273 114.36,22.395 114.54,22.551C114.72,22.707 114.846,22.895 114.918,23.115C114.99,23.335 115.026,23.573 115.026,23.829L115.026,25.965L108.342,25.965ZM113.238,23.973C113.238,23.757 113.184,23.613 113.076,23.541C112.968,23.469 112.778,23.433 112.506,23.433L109.53,23.433C109.306,23.433 109.118,23.443 108.966,23.463C108.814,23.483 108.692,23.529 108.6,23.601C108.508,23.673 108.442,23.777 108.402,23.913C108.362,24.049 108.342,24.233 108.342,24.465L108.342,24.813L113.238,24.813L113.238,23.973Z" style="fill:white;fill-rule:nonzero;"/>
                        <path d="M119.394,28.557C118.786,28.557 118.28,28.507 117.876,28.407C117.472,28.307 117.15,28.147 116.91,27.927C116.67,27.707 116.5,27.419 116.4,27.063C116.3,26.707 116.25,26.269 116.25,25.749L116.25,24.873C116.25,24.353 116.3,23.913 116.4,23.553C116.5,23.193 116.67,22.903 116.91,22.683C117.15,22.463 117.472,22.303 117.876,22.203C118.28,22.103 118.786,22.053 119.394,22.053L123.006,22.053L123.006,19.953L124.794,19.953L124.794,25.749C124.794,26.269 124.744,26.707 124.644,27.063C124.544,27.419 124.374,27.707 124.134,27.927C123.894,28.147 123.574,28.307 123.174,28.407C122.774,28.507 122.27,28.557 121.662,28.557L119.394,28.557ZM118.038,25.701C118.038,25.989 118.06,26.221 118.104,26.397C118.148,26.573 118.23,26.709 118.35,26.805C118.47,26.901 118.632,26.965 118.836,26.997C119.04,27.029 119.302,27.045 119.622,27.045L121.614,27.045C121.894,27.045 122.124,27.027 122.304,26.991C122.484,26.955 122.626,26.887 122.73,26.787C122.834,26.687 122.906,26.551 122.946,26.379C122.986,26.207 123.006,25.985 123.006,25.713L123.006,23.589L119.61,23.589C119.298,23.589 119.04,23.605 118.836,23.637C118.632,23.669 118.47,23.733 118.35,23.829C118.23,23.925 118.148,24.061 118.104,24.237C118.06,24.413 118.038,24.645 118.038,24.933L118.038,25.701Z" style="fill:white;fill-rule:nonzero;"/>
                    </g>
                </g>
            </g>
        </g>
    </g>
</svg>
