<svg viewBox="0 0 200 40" xmlns="http://www.w3.org/2000/svg">
    <path d="M37.59 24.985h-3.728l-.782 4.519h-5.712l3.307-18.702h9.02c3.407 0 5.111 1.575 5.111 4.728 0 1.496-.21 2.846-.631 4.049-.422 1.21-.885 2.172-1.393 2.882-.515.707-1.22 1.305-2.115 1.797-.889.485-1.914.727-3.077.727Zm-.752-9.395h-1.322l-.812 4.608h1.323c.681 0 1.195-.074 1.543-.22.354-.152.582-.498.682-1.037.26-1.476.39-2.284.39-2.423 0-.38-.15-.629-.451-.749-.3-.119-.752-.179-1.353-.179Zm20.024 9.126-.841 4.788H44.596l3.307-18.702h5.712L51.15 24.716h5.712Zm4.48 1.826-1.172 2.962h-6.013l7.907-18.702h8.839l1.323 18.702h-6.043l-.12-2.962h-4.721Zm4.27-9.994h-.301l-2.105 5.236h2.406v-5.236Zm23.481-5.746-.873 4.788h-4.149l-2.434 13.914h-5.713l2.435-13.914H74.24l.872-4.788h13.981Zm11.695 7.302-.812 4.458h-4.87l-1.203 6.942h-5.712l3.307-18.702h11.725l-1.593 4.788h-5.291l-.422 2.514h4.871Zm9.02-1.049-1.383 7.781h2.375c.782 0 1.363-.093 1.744-.28.381-.192.631-.628.752-1.306l1.383-7.78h-2.406c-.761 0-1.333.093-1.714.28-.38.192-.631.628-.751 1.305Zm3.457-6.702c2.546 0 4.36.495 5.442 1.486 1.083.985 1.624 2.504 1.624 4.559 0 2.054-.328 4.205-.983 6.453-.648 2.241-1.68 3.983-3.096 5.227-1.41 1.25-3.475 1.875-6.194 1.875-2.713 0-4.61-.492-5.692-1.476-1.082-.991-1.624-2.514-1.624-4.569 0-.977.141-2.267.421-3.87.281-1.609.652-2.995 1.112-4.159.462-1.17 1.083-2.185 1.864-3.042 1.504-1.656 3.879-2.484 7.126-2.484Zm21.587 12.927 1.985 6.224h-6.284l-1.383-5.565h-1.232l-.963 5.565h-5.712l3.307-18.702h9.02c3.427 0 5.141 1.526 5.141 4.578 0 1.257-.19 2.454-.571 3.591-.702 2.154-1.804 3.591-3.308 4.309Zm-4.299-7.69h-1.142l-.662 3.741h1.323c.682 0 1.196-.074 1.544-.22.354-.153.594-.582.721-1.288.133-.71.2-1.146.2-1.305 0-.4-.153-.656-.461-.768-.313-.108-.822-.16-1.523-.16Zm16.086 4.847-1.955 9.067h-5.953l4.39-18.702h7.456l.541 9.515h.21l3.909-9.515h7.457l-2.226 18.702h-5.982l1.262-9.067h-.211l-3.758 9.067h-4.359l-.631-9.067h-.15Zm30.456-2.333-.782 4.338h-5.712l-.391 2.274h7.005l-.842 4.788h-12.718l3.307-18.702h12.568l-1.563 4.788h-6.164l-.421 2.514h5.713Zm16.085 5.176 1.984 6.224h-6.284l-1.383-5.565h-1.232l-.963 5.565h-5.712l3.308-18.702h9.019c3.427 0 5.141 1.526 5.141 4.578 0 1.257-.19 2.454-.571 3.591-.701 2.154-1.804 3.591-3.307 4.309Zm-4.3-7.69h-1.142l-.661 3.741h1.322c.682 0 1.196-.074 1.544-.22.354-.153.594-.582.721-1.288.133-.71.201-1.146.201-1.305 0-.4-.154-.656-.461-.768-.314-.108-.822-.16-1.524-.16Z" style="white-space:pre;fill:#fff"/>
    <path d="M0 1120V0h2240v2240H0V1120zm300 920v-100H100v200h200v-100zm1840 0v-100h-200v200h200v-100zm-780-285v-155h-320v310h320v-155zm0-485v-160h320V480h-170V320H710v160H560v480h320V480h480v480h-170v150h-150v320h320v-160zM300 200V100H100v200h200V200zm1840 0V100h-200v200h200V200z" style="fill:#ccc" transform="matrix(.00897 0 0 .00893 2.942 10)" fill="#d4d4d4"/>
</svg>
