<svg viewBox="0 0 200 40" xmlns="http://www.w3.org/2000/svg">
    <path d="M66.863 25.433h-3.72l-.78 4.53h-5.7l3.3-18.75h9c3.4 0 5.1 1.58 5.1 4.74 0 1.5-.21 2.855-.63 4.065-.42 1.21-.885 2.17-1.395 2.88s-1.21 1.31-2.1 1.8c-.89.49-1.915.735-3.075.735Zm-2.07-9.42-.81 4.62h1.32c.68 0 1.195-.075 1.545-.225.35-.15.575-.495.675-1.035.26-1.48.39-2.29.39-2.43 0-.38-.15-.63-.45-.75-.3-.12-.75-.18-1.35-.18Zm20.459 13.95h-11.4l3.3-18.75h5.7l-2.46 13.95h5.7Zm4.139 0h-6l7.89-18.75h8.82l1.32 18.75h-6.03l-.12-2.97h-4.71Zm5.13-12.99-2.1 5.25h2.4v-5.25Zm14.489-5.76.39 6.6h.21l2.76-6.6h6.3l-7.56 13.65-.87 5.1h-5.7l.87-5.1-2.7-13.65Zm20.099 11.67h-5.7l-.39 2.28h6.99l-.84 4.8h-12.69l3.3-18.75h12.54l-1.56 4.8h-6.15l-.42 2.52h5.7Zm18.809 7.08h-6.27l-1.38-5.58h-1.23l-.96 5.58h-5.7l3.3-18.75h9c3.42 0 5.13 1.53 5.13 4.59 0 1.26-.19 2.46-.57 3.6-.7 2.16-1.8 3.6-3.3 4.32Zm-7.41-13.95-.66 3.75h1.32c.68 0 1.195-.075 1.545-.225.35-.15.59-.58.72-1.29.13-.71.195-1.145.195-1.305 0-.4-.155-.655-.465-.765-.31-.11-.815-.165-1.515-.165Zm9.298 13.62 1.68-4.95c1.68.46 3.22.69 4.62.69s2.53-.06 3.39-.18l.24-1.5-2.49-.24c-1.9-.18-3.245-.61-4.035-1.29s-1.185-1.64-1.185-2.88c0-.54.06-1.14.18-1.8.46-2.56 1.295-4.32 2.505-5.28s3.085-1.44 5.625-1.44 4.78.25 6.72.75l-1.56 4.8c-1.74-.3-3.14-.45-4.2-.45s-1.96.05-2.7.15l-.24 1.47 2.01.21c2.04.22 3.49.705 4.35 1.455.86.75 1.29 1.755 1.29 3.015 0 1.28-.28 2.6-.84 3.96-.28.7-.585 1.285-.915 1.755-.33.47-.75.87-1.26 1.2-.51.33-.975.58-1.395.75-.42.17-.95.295-1.59.375-.94.14-2.09.21-3.45.21-2.48 0-4.73-.26-6.75-.78Z" style="white-space:pre;fill:#fff"/>
    <path d="M38.742 13.182c1.8 0 3.257-1.457 3.257-3.257a3.255 3.255 0 0 0-3.257-3.256 3.255 3.255 0 0 0-3.256 3.256c0 1.8 1.457 3.257 3.256 3.257Zm2.234.93h-.242a4.574 4.574 0 0 1-1.992.466 4.583 4.583 0 0 1-1.991-.466h-.241a3.351 3.351 0 0 0-3.35 3.35v.837c0 .77.625 1.396 1.396 1.396h8.373c.771 0 1.396-.626 1.396-1.396v-.837a3.35 3.35 0 0 0-3.349-3.35Zm6.141-.93a2.792 2.792 0 1 0-.004-5.584 2.792 2.792 0 0 0 .004 5.584Zm1.395.93h-.11c-.405.14-.832.233-1.285.233-.454 0-.882-.093-1.286-.233h-.11c-.593 0-1.14.172-1.62.448a4.257 4.257 0 0 1 1.154 2.902v1.116c0 .065-.014.126-.017.186h5.135c.77 0 1.395-.626 1.395-1.395a3.254 3.254 0 0 0-3.256-3.257Z" style="fill:#ddd"/>
    <path d="M38.655 26.666a3.33 3.33 0 0 1 3.333 3.333 3.33 3.33 0 0 1-3.333 3.332 3.331 3.331 0 0 1-3.332-3.332 3.331 3.331 0 0 1 3.332-3.333Zm2.286-.952h-.248a4.673 4.673 0 0 0-2.038-.476c-.731 0-1.416.178-2.038.476h-.246a3.429 3.429 0 0 1-3.428-3.428v-.857c0-.788.64-1.428 1.428-1.428h8.569c.789 0 1.428.64 1.428 1.428v.857a3.428 3.428 0 0 1-3.427 3.428Zm6.284.952a2.857 2.857 0 1 1-.003 5.715 2.857 2.857 0 0 1 .003-5.715Zm1.428-.952h-.113a4.006 4.006 0 0 0-1.315-.238c-.465 0-.902.095-1.316.238h-.112a3.314 3.314 0 0 1-1.658-.458 4.354 4.354 0 0 0 1.181-2.97v-1.142c0-.066-.014-.129-.017-.191h5.254a1.43 1.43 0 0 1 1.428 1.429 3.33 3.33 0 0 1-3.332 3.332Z" style="fill:#ddd" transform="rotate(180 42.464 26.666)"/>
</svg>
