<?xml version="1.0" encoding="UTF-8" standalone="no"?>
<!DOCTYPE svg PUBLIC "-//W3C//DTD SVG 1.1//EN" "http://www.w3.org/Graphics/SVG/1.1/DTD/svg11.dtd">
<svg width="100%" height="100%" viewBox="0 0 634 104" version="1.1" xmlns="http://www.w3.org/2000/svg" xmlns:xlink="http://www.w3.org/1999/xlink" xml:space="preserve" xmlns:serif="http://www.serif.com/" style="fill-rule:evenodd;clip-rule:evenodd;stroke-linejoin:round;stroke-miterlimit:2;">
    <g transform="matrix(1,0,0,1,-43,-266)">
        <g id="auto-action.afdesign" transform="matrix(1,0,0,1,360,317.778)">
            <g transform="matrix(1,0,0,1,-319.678,-59.8868)">
                <clipPath id="_clip1">
                    <rect x="3.355" y="8.135" width="632.645" height="103.503"/>
                </clipPath>
                <g clip-path="url(#_clip1)">
                    <g transform="matrix(5.2569,0,0,5.2569,-1361.55,-255.288)">
                        <g transform="matrix(1,0,0,1,220,40)">
                            <path d="M44.099,18.93C44.099,18.37 44.11,17.93 44.097,17.493C44.085,17.181 44.212,17.035 44.526,16.986C46.325,16.694 48.032,16.169 49.491,15.019C49.707,14.849 49.892,14.863 50.102,15.03C51.549,16.169 53.247,16.691 55.028,16.986C55.298,17.027 55.493,17.113 55.489,17.422C55.468,19.239 55.454,21.061 54.943,22.824C54.499,24.347 53.63,25.585 52.323,26.491C51.603,26.991 50.851,27.452 50.091,27.893C49.931,27.984 49.627,27.984 49.47,27.889C48.632,27.386 47.791,26.882 47.006,26.295C45.253,24.986 44.493,23.133 44.27,21.018C44.198,20.283 44.149,19.549 44.099,18.93Z" style="fill:rgb(102,102,102);fill-rule:nonzero;stroke:rgb(192,192,192);stroke-width:0.19px;"/>
                            <path d="M45.487,13.989C46.065,14.526 46.601,15.022 47.191,15.573C46.158,15.995 45.193,16.251 44.192,16.329C44.003,16.343 43.798,16.109 43.535,15.953C43.138,16.357 42.719,16.794 42.289,17.223C41.927,17.586 41.838,17.59 41.491,17.238C40.45,16.179 40.458,16.46 41.483,15.417C41.74,15.157 42.001,14.902 42.292,14.611C41.551,13.872 40.841,13.166 40.131,12.46C39.641,11.973 39.645,11.963 40.12,11.487C40.493,11.119 40.869,10.752 41.231,10.373C41.469,10.125 41.672,10.125 41.913,10.373C42.662,11.147 43.418,11.911 44.234,12.741C44.692,12.257 45.108,11.815 45.53,11.38C45.885,11.019 45.98,11.015 46.329,11.364C47.372,12.41 47.376,12.144 46.343,13.177C46.091,13.429 45.817,13.674 45.487,13.989Z" style="fill:rgb(102,102,102);fill-rule:nonzero;stroke:rgb(192,192,192);stroke-width:0.19px;"/>
                            <path d="M57.35,14.65C57.81,15.094 58.254,15.531 58.713,15.946C59,16.208 58.996,16.431 58.709,16.687C58.489,16.886 58.283,17.103 58.077,17.319C57.867,17.543 57.672,17.532 57.46,17.315C57.009,16.851 56.547,16.389 56.047,15.878C55.713,16.52 55.206,16.357 54.726,16.247C53.988,16.076 53.257,15.878 52.429,15.669C53.055,15.072 53.584,14.564 54.169,14.004C53.704,13.553 53.293,13.152 52.884,12.747C52.416,12.282 52.416,12.248 52.866,11.804C53.839,10.849 53.608,10.877 54.538,11.789C54.822,12.065 55.084,12.364 55.443,12.744C55.801,12.354 56.114,11.995 56.447,11.654C56.874,11.218 57.317,10.799 57.74,10.358C57.981,10.11 58.183,10.117 58.422,10.362C58.823,10.782 59.23,11.197 59.657,11.594C59.948,11.864 59.912,12.073 59.642,12.336C58.968,12.985 58.314,13.652 57.651,14.316C57.569,14.405 57.488,14.501 57.35,14.65Z" style="fill:rgb(102,102,102);fill-rule:nonzero;stroke:rgb(192,192,192);stroke-width:0.19px;"/>
                            <path d="M45.846,26.295C45.115,27.062 44.344,27.872 43.566,28.677C43.493,28.755 43.379,28.802 43.272,28.841C42.475,29.135 41.679,29.437 40.873,29.71C40.724,29.76 40.472,29.76 40.38,29.671C40.294,29.586 40.312,29.33 40.37,29.185C40.661,28.447 40.976,27.716 41.289,26.988C41.338,26.871 41.392,26.743 41.476,26.657C42.399,25.738 43.329,24.83 44.242,23.928C44.781,24.727 45.303,25.494 45.846,26.295Z" style="fill:rgb(102,102,102);fill-rule:nonzero;stroke:rgb(192,192,192);stroke-width:0.19px;"/>
                            <path d="M53.74,26.303C54.282,25.501 54.801,24.73 55.337,23.935C55.972,24.556 56.604,25.231 57.292,25.831C57.931,26.388 58.383,27.041 58.659,27.84C58.83,28.333 59.071,28.805 59.255,29.295C59.298,29.404 59.283,29.593 59.213,29.671C59.138,29.752 58.946,29.799 58.839,29.763C57.956,29.454 57.079,29.128 56.202,28.798C56.125,28.769 56.05,28.716 55.994,28.656C55.227,27.861 54.463,27.062 53.74,26.303Z" style="fill:rgb(102,102,102);fill-rule:nonzero;stroke:rgb(192,192,192);stroke-width:0.19px;"/>
                        </g>
                        <g transform="matrix(2.0133,0,0,2.0133,156.226,10.5825)">
                            <g transform="matrix(12,0,0,12,62.8416,29.0314)">
                                <path d="M0.752,-0.157L0.28,-0.157L0.183,-0L0.008,-0L0.404,-0.63C0.416,-0.649 0.43,-0.665 0.447,-0.678C0.464,-0.691 0.488,-0.697 0.519,-0.697C0.55,-0.697 0.573,-0.691 0.59,-0.678C0.607,-0.665 0.621,-0.649 0.633,-0.63L1.027,-0L0.851,-0L0.752,-0.157ZM0.351,-0.274L0.681,-0.274L0.516,-0.543L0.351,-0.274Z" style="fill:white;fill-rule:nonzero;"/>
                            </g>
                            <g transform="matrix(12,0,0,12,74.9016,29.0314)">
                                <path d="M0.314,-0C0.264,-0 0.222,-0.004 0.189,-0.013C0.156,-0.021 0.129,-0.034 0.109,-0.053C0.089,-0.071 0.075,-0.095 0.067,-0.125C0.058,-0.154 0.054,-0.191 0.054,-0.234L0.054,-0.307C0.054,-0.35 0.058,-0.387 0.067,-0.417C0.075,-0.447 0.089,-0.471 0.109,-0.49C0.129,-0.508 0.156,-0.521 0.189,-0.53C0.222,-0.538 0.264,-0.542 0.314,-0.542L0.706,-0.542L0.706,-0.414L0.319,-0.414C0.296,-0.414 0.277,-0.412 0.262,-0.409C0.247,-0.406 0.235,-0.4 0.226,-0.392C0.217,-0.383 0.211,-0.372 0.208,-0.357C0.205,-0.342 0.203,-0.324 0.203,-0.302L0.203,-0.238C0.203,-0.217 0.205,-0.199 0.208,-0.185C0.211,-0.17 0.217,-0.159 0.226,-0.15C0.235,-0.141 0.247,-0.135 0.262,-0.132C0.277,-0.128 0.296,-0.126 0.319,-0.126L0.707,-0.126L0.707,-0L0.314,-0Z" style="fill:white;fill-rule:nonzero;"/>
                            </g>
                            <g transform="matrix(12,0,0,12,83.9736,29.0314)">
                                <path d="M0.09,-0L0.09,-0.421L0.014,-0.421L0.014,-0.542L0.09,-0.542L0.09,-0.695L0.242,-0.695L0.242,-0.542L0.413,-0.542L0.413,-0.421L0.242,-0.421L0.242,-0L0.09,-0Z" style="fill:white;fill-rule:nonzero;"/>
                            </g>
                            <g transform="matrix(12,0,0,12,89.0856,29.0314)">
                                <path d="M0.059,-0L0.059,-0.528L0.211,-0.528L0.211,-0L0.059,-0ZM0.11,-0.573C0.091,-0.573 0.078,-0.577 0.071,-0.584C0.063,-0.591 0.059,-0.603 0.059,-0.619L0.059,-0.677C0.059,-0.693 0.063,-0.705 0.071,-0.712C0.078,-0.719 0.091,-0.722 0.11,-0.722L0.159,-0.722C0.178,-0.722 0.192,-0.719 0.2,-0.712C0.207,-0.705 0.211,-0.693 0.211,-0.677L0.211,-0.619C0.211,-0.603 0.207,-0.591 0.2,-0.584C0.192,-0.577 0.178,-0.573 0.159,-0.573L0.11,-0.573Z" style="fill:white;fill-rule:nonzero;"/>
                            </g>
                            <g transform="matrix(12,0,0,12,92.3256,29.0314)">
                                <path d="M0.314,-0C0.264,-0 0.222,-0.004 0.189,-0.013C0.156,-0.021 0.129,-0.034 0.109,-0.053C0.089,-0.071 0.075,-0.095 0.067,-0.125C0.058,-0.154 0.054,-0.191 0.054,-0.234L0.054,-0.307C0.054,-0.35 0.058,-0.387 0.067,-0.417C0.075,-0.447 0.089,-0.471 0.109,-0.49C0.129,-0.508 0.156,-0.521 0.189,-0.53C0.222,-0.538 0.264,-0.542 0.314,-0.542L0.495,-0.542C0.546,-0.542 0.588,-0.538 0.621,-0.53C0.654,-0.521 0.681,-0.508 0.701,-0.489C0.721,-0.47 0.735,-0.446 0.744,-0.416C0.752,-0.386 0.756,-0.349 0.756,-0.306L0.756,-0.234C0.756,-0.191 0.752,-0.154 0.744,-0.125C0.735,-0.095 0.721,-0.071 0.701,-0.053C0.681,-0.034 0.654,-0.021 0.621,-0.013C0.588,-0.004 0.546,-0 0.495,-0L0.314,-0ZM0.607,-0.302C0.607,-0.325 0.605,-0.343 0.602,-0.358C0.598,-0.373 0.591,-0.384 0.582,-0.393C0.572,-0.401 0.558,-0.407 0.541,-0.41C0.524,-0.413 0.502,-0.414 0.475,-0.414L0.334,-0.414C0.307,-0.414 0.286,-0.413 0.269,-0.41C0.252,-0.407 0.238,-0.401 0.229,-0.393C0.219,-0.384 0.212,-0.373 0.209,-0.358C0.205,-0.343 0.203,-0.325 0.203,-0.302L0.203,-0.238C0.203,-0.215 0.205,-0.197 0.209,-0.183C0.212,-0.168 0.219,-0.157 0.229,-0.149C0.238,-0.14 0.252,-0.134 0.269,-0.131C0.286,-0.128 0.307,-0.126 0.334,-0.126L0.475,-0.126C0.502,-0.126 0.524,-0.128 0.541,-0.131C0.558,-0.134 0.572,-0.14 0.582,-0.149C0.591,-0.157 0.598,-0.168 0.602,-0.183C0.605,-0.197 0.607,-0.215 0.607,-0.238L0.607,-0.302Z" style="fill:white;fill-rule:nonzero;"/>
                            </g>
                            <g transform="matrix(12,0,0,12,102.046,29.0314)">
                                <path d="M0.609,-0L0.609,-0.302C0.609,-0.325 0.607,-0.343 0.604,-0.358C0.6,-0.372 0.594,-0.383 0.585,-0.392C0.576,-0.4 0.563,-0.406 0.548,-0.409C0.532,-0.412 0.512,-0.414 0.488,-0.414L0.326,-0.414C0.303,-0.414 0.283,-0.412 0.268,-0.409C0.252,-0.406 0.239,-0.4 0.23,-0.392C0.221,-0.383 0.214,-0.372 0.211,-0.358C0.207,-0.343 0.205,-0.325 0.205,-0.302L0.205,-0L0.056,-0L0.056,-0.307C0.056,-0.35 0.06,-0.387 0.069,-0.417C0.077,-0.447 0.091,-0.471 0.111,-0.49C0.131,-0.508 0.158,-0.521 0.191,-0.53C0.224,-0.538 0.266,-0.542 0.316,-0.542L0.497,-0.542C0.548,-0.542 0.59,-0.538 0.623,-0.53C0.656,-0.521 0.683,-0.508 0.703,-0.49C0.723,-0.471 0.737,-0.447 0.746,-0.417C0.754,-0.387 0.758,-0.35 0.758,-0.307L0.758,-0L0.609,-0Z" style="fill:white;fill-rule:nonzero;"/>
                            </g>
                        </g>
                    </g>
                </g>
            </g>
        </g>
    </g>
</svg>
