<svg viewBox="0 0 200 40" xmlns="http://www.w3.org/2000/svg">
    <path d="M58.858 1.587c.244-.409.436-.785.673-1.129.41-.601 1.03-.62 1.393 0a270.117 270.117 0 0 1 3.202 5.553c.35.627.014 1.175-.726 1.188-2.113.026-4.225.026-6.338 0-.772-.007-1.063-.548-.713-1.248.185-.376.409-.733.667-1.188-.601-.185-1.136-.383-1.684-.522-9.078-2.31-18.4 3.691-20.03 12.888-1.671 9.408 4.958 18.228 14.399 19.165 12.412 1.235 21.556-11.269 16.644-22.724-.205-.482-.311-1.076-.245-1.591.086-.74.819-1.288 1.578-1.321.819-.033 1.433.337 1.776 1.083a19.225 19.225 0 0 1 1.763 6.781c.739 10.035-6.001 19.027-15.786 21.054-9.824 2.04-19.674-3.433-22.869-12.973-2.602-7.771-1.01-14.862 4.819-20.639C43.184.214 50.216-1.172 58.006 1.29c.264.073.509.172.852.297Z" style="fill:#ccc"/>
    <path d="M48.75 16.277c0-1.637-.007-3.268 0-4.905.007-.885.442-1.407 1.149-1.407.706.007 1.122.515 1.122 1.42.007 2.905.02 5.803-.013 8.701-.007.528.178.799.621 1.05 3.175 1.776 6.338 3.578 9.5 5.374.158.093.33.172.482.277.601.41.779 1.011.462 1.572-.317.554-.944.746-1.578.422-.7-.363-1.38-.772-2.066-1.162-2.912-1.65-5.817-3.321-8.741-4.945-.687-.383-.971-.865-.951-1.65.039-1.578.013-3.163.013-4.747Z" style="fill:#ccc"/>
    <path d="m88.567 19.267-3.06-6.66c-.08-.14-.12-.335-.12-.585 0-.25.02-.535.06-.855h-.24l-1.41 8.1h-5.7l3.3-18.75h5.37l3.06 6.66c.06.14.09.335.09.585 0 .25-.02.535-.06.855h.24l1.44-8.1h5.7l-3.3 18.75Zm21.81-7.08h-5.7l-.39 2.28h6.99l-.84 4.8h-12.69l3.3-18.75h12.54l-1.56 4.8h-6.15l-.42 2.52h5.7Zm15.96-11.67h6.03l-7.71 18.75h-8.34l-1.11-18.75h6.33v11.91h.27Zm17.4 11.67h-5.7l-.39 2.28h6.99l-.84 4.8h-12.69l3.3-18.75h12.54l-1.56 4.8h-6.15l-.42 2.52h5.7Zm18.809 7.08h-6.27l-1.38-5.58h-1.23l-.96 5.58h-5.7l3.3-18.75h9c3.42 0 5.13 1.53 5.13 4.59 0 1.26-.19 2.46-.57 3.6-.7 2.16-1.8 3.6-3.3 4.32Zm-7.41-13.95-.66 3.75h1.32c.68 0 1.195-.075 1.545-.225.35-.15.59-.58.72-1.29.13-.71.195-1.145.195-1.305 0-.4-.155-.655-.465-.765-.31-.11-.815-.165-1.515-.165Zm-70.428 29.84h-3.72l-.78 4.53h-5.7l3.3-18.75h9c3.4 0 5.1 1.58 5.1 4.74 0 1.5-.21 2.855-.63 4.065-.42 1.21-.885 2.17-1.395 2.88s-1.21 1.31-2.1 1.8c-.89.49-1.915.735-3.075.735Zm-2.07-9.42-.81 4.62h1.32c.68 0 1.195-.075 1.545-.225.35-.15.575-.495.675-1.035.26-1.48.39-2.29.39-2.43 0-.38-.15-.63-.45-.75-.3-.12-.75-.18-1.35-.18Zm20.46 13.95h-11.4l3.3-18.75h5.7l-2.46 13.95h5.7Zm4.14 0h-6l7.89-18.75h8.82l1.32 18.75h-6.03l-.12-2.97h-4.71Zm5.13-12.99-2.1 5.25h2.4v-5.25Zm14.489-5.76.39 6.6h.21l2.76-6.6h6.3l-7.56 13.65-.87 5.1h-5.7l.87-5.1-2.7-13.65Zm20.1 11.67h-5.7l-.39 2.28h6.99l-.84 4.8h-12.69l3.3-18.75h12.54l-1.56 4.8h-6.15l-.42 2.52h5.7Zm3.27 7.08 3.3-18.75h7.98c2.58 0 4.415.455 5.505 1.365 1.09.91 1.635 2.385 1.635 4.425 0 1.04-.12 2.24-.36 3.6-.6 3.36-1.625 5.76-3.075 7.2-1.45 1.44-3.785 2.16-7.005 2.16Zm10.5-13.95h-2.37l-1.59 9.15h2.37c.78 0 1.36-.095 1.74-.285.38-.19.63-.625.75-1.305l1.05-5.97c.02-.12.03-.28.03-.48 0-.46-.16-.76-.48-.9-.32-.14-.82-.21-1.5-.21Z" style="white-space:pre;fill:#fff"/>
</svg>
