<svg viewBox="0 0 200 40" xmlns="http://www.w3.org/2000/svg">
    <path d="M48.057 29.944a10.051 10.051 0 0 1-4.291-1.577c-1.982-1.31-3.426-3.225-4.102-5.45a11.342 11.342 0 0 1-.378-1.829c-.052-.49-.052-1.685 0-2.173.425-3.961 3.246-7.346 7.096-8.502a11.43 11.43 0 0 1 1.841-.375 15.635 15.635 0 0 1 2.186 0 10.07 10.07 0 0 1 6.15 2.992 9.897 9.897 0 0 1 2.412 4.055c.291.95.415 1.83.415 2.917 0 .815-.038 1.264-.18 1.973-.713 3.594-3.41 6.548-6.955 7.614-.519.16-1.31.317-1.842.375-.514.056-1.843.043-2.352-.02Zm-.314-4.364c0-2.148-.007-2.211-.263-2.703-.196-.376-.681-.856-1.06-1.051-.506-.261-.518-.261-2.701-.261H41.76l.027.148c.048.268.358 1.156.535 1.531a7.582 7.582 0 0 0 1.543 2.173 7.578 7.578 0 0 0 2.876 1.809c.349.124.861.269.954.274.037.003.048-.407.048-1.92Zm3.953 1.708a7.448 7.448 0 0 0 3.072-1.871 7.544 7.544 0 0 0 1.543-2.173c.177-.375.487-1.263.535-1.531l.027-.148h-1.94c-2.162 0-2.174 0-2.682.265-.381.194-.896.707-1.093 1.087-.267.503-.267.515-.267 2.663v1.927l.148-.028a8.15 8.15 0 0 0 .657-.191Zm-1.829-5.544a1.898 1.898 0 0 0 1.224-1.255c.07-.249.07-.727 0-.976a1.907 1.907 0 0 0-1.282-1.274 2.332 2.332 0 0 0-.984 0 1.904 1.904 0 0 0-1.283 1.274 2.206 2.206 0 0 0 0 .976c.131.446.469.877.873 1.103.186.101.304.139.646.223.13.031.618-.013.806-.071Zm-6.726-3.072a12.942 12.942 0 0 0 1.711-.382c.394-.125.712-.255 1.534-.625 1.436-.642 1.79-.731 2.931-.731 1.051 0 1.518.101 2.553.555l.971.423a10.81 10.81 0 0 0 3.666.862l.44.028-.022-.133a7.928 7.928 0 0 0-1.48-3.329c-.311-.41-1.022-1.118-1.436-1.426a7.915 7.915 0 0 0-3.788-1.531 10.508 10.508 0 0 0-1.809 0 7.919 7.919 0 0 0-3.789 1.531c-.412.308-1.123 1.016-1.435 1.426a7.927 7.927 0 0 0-1.479 3.329l-.023.133.459-.028c.257-.015.705-.061.996-.102Z" style="fill:#ccc"/>
    <path d="m77.014 22.927 1.989 6.224h-6.298l-1.386-5.565h-1.235l-.965 5.565h-5.725l3.314-18.702h9.04c3.435 0 5.153 1.526 5.153 4.578 0 1.257-.191 2.454-.572 3.591-.704 2.154-1.808 3.591-3.315 4.309Zm-4.309-7.69H71.56l-.663 3.74h1.326c.683 0 1.198-.073 1.547-.219.354-.153.595-.582.723-1.287.133-.711.201-1.147.201-1.307 0-.399-.154-.655-.462-.767-.315-.108-.824-.16-1.527-.16Zm14.193 10.952-1.176 2.962h-6.026l7.924-18.702h8.86l1.326 18.702h-6.057l-.121-2.962h-4.73Zm4.278-9.994h-.301l-2.109 5.236h2.41v-5.236Zm21.575 7.6-.482 5.027c-1.286.519-2.913.778-4.881.778-2.531 0-4.346-.489-5.444-1.467-1.092-.977-1.638-2.483-1.638-4.517 0-.859.141-2.125.422-3.801.603-3.431 1.641-5.925 3.114-7.481 1.479-1.556 3.817-2.334 7.011-2.334.743 0 1.594.077 2.551.23.951.146 1.648.329 2.089.548l-1.687 4.578c-1.185-.279-2.293-.419-3.325-.419-1.037 0-1.777.1-2.22.3-.441.199-.713.598-.813 1.197l-1.386 7.84a10.35 10.35 0 0 0 2.23.239c1.627 0 3.114-.239 4.459-.718Zm7.594 5.356h-5.725l3.314-18.702h5.726l-3.315 18.702Zm19.466 0h-5.394l-3.074-6.643c-.08-.14-.12-.336-.12-.588 0-.247.02-.529.06-.848h-.241l-1.416 8.079H123.9l3.315-18.702h5.394l3.074 6.643c.06.14.09.336.09.588 0 .247-.02.529-.06.848h.24l1.447-8.079h5.725l-3.314 18.702Zm14.071-5.506.151-.808h-1.446l.813-4.578h6.901l-1.778 9.995c-2.451.897-4.912 1.346-7.383 1.346-2.47 0-4.255-.489-5.353-1.467-1.092-.977-1.637-2.483-1.637-4.517 0-.859.14-2.125.422-3.801.602-3.471 1.667-5.975 3.194-7.511 1.526-1.536 4.057-2.304 7.593-2.304.743 0 1.691.08 2.843.239 1.158.16 2.008.34 2.551.539l-1.657 4.578c-1.507-.279-2.89-.419-4.149-.419-1.252 0-2.149.1-2.692.3-.542.199-.864.598-.964 1.197l-1.476 8.468h1.898c.683 0 1.188-.073 1.517-.22.334-.152.552-.498.652-1.037Z" style="white-space:pre;fill:#fff"/>
</svg>
