<svg viewBox="0 0 554 104" xmlns="http://www.w3.org/2000/svg" xml:space="preserve" style="fill-rule:evenodd;clip-rule:evenodd;stroke-linejoin:round;stroke-miterlimit:2">
    <clipPath id="a">
        <path d="M.564.15h553.411v103.036H.564z"/>
    </clipPath>
    <g clip-path="url(#a)">
        <path d="M184.745 74.464h-53.246l-10.943 17.711h-19.742l44.673-71.071c1.354-2.181 2.971-3.986 4.851-5.415 1.88-1.429 4.588-2.143 8.123-2.143 3.459 0 6.129.714 8.009 2.143 1.88 1.429 3.497 3.234 4.851 5.415l44.447 71.071h-19.854l-11.169-17.711Zm-45.237-13.199h37.228l-18.614-30.346-18.614 30.346Zm109.201 30.91c-5.64 0-10.341-.47-14.101-1.41-3.761-.94-6.769-2.444-9.025-4.513-2.256-2.068-3.854-4.775-4.795-8.122-.94-3.347-1.41-7.464-1.41-12.353v-8.235c0-4.888.47-9.025 1.41-12.409.941-3.384 2.539-6.111 4.795-8.179 2.256-2.068 5.264-3.572 9.025-4.512 3.76-.94 8.461-1.41 14.101-1.41h44.222v14.439h-43.658c-2.632 0-4.794.188-6.486.564-1.693.376-3.027 1.034-4.005 1.975-.978.94-1.655 2.237-2.031 3.892-.376 1.654-.564 3.722-.564 6.204v7.22c0 2.407.188 4.418.564 6.035.376 1.617 1.053 2.915 2.031 3.892.978.978 2.312 1.674 4.005 2.087 1.692.414 3.854.621 6.486.621h43.771v14.214h-44.335Zm60.015 0V44.682h-8.573v-13.65h8.573v-17.26h17.148v17.26h19.29v13.65h-19.29v47.493h-17.148Zm44.561 0V32.611h17.147v59.564h-17.147Zm5.753-64.641c-2.106 0-3.591-.413-4.456-1.24-.865-.828-1.297-2.144-1.297-3.949v-6.543c0-1.805.432-3.102 1.297-3.892s2.35-1.184 4.456-1.184h5.528c2.181 0 3.704.394 4.569 1.184.864.79 1.297 2.087 1.297 3.892v6.543c0 1.805-.433 3.121-1.297 3.949-.865.827-2.388 1.24-4.569 1.24h-5.528Zm53.472 64.641c-5.64 0-10.341-.47-14.101-1.41-3.76-.94-6.769-2.444-9.025-4.513-2.256-2.068-3.854-4.775-4.794-8.122-.94-3.347-1.41-7.464-1.41-12.353v-8.235c0-4.888.47-9.025 1.41-12.409.94-3.384 2.538-6.111 4.794-8.179 2.256-2.068 5.265-3.572 9.025-4.512 3.76-.94 8.461-1.41 14.101-1.41h20.419c5.716 0 10.454.47 14.214 1.41 3.761.94 6.769 2.463 9.025 4.569 2.256 2.105 3.854 4.85 4.795 8.235.94 3.384 1.41 7.52 1.41 12.409v8.122c0 4.889-.47 9.006-1.41 12.353-.941 3.347-2.539 6.054-4.795 8.122-2.256 2.069-5.264 3.573-9.025 4.513-3.76.94-8.498 1.41-14.214 1.41H412.51Zm33.054-34.069c0-2.557-.207-4.663-.621-6.317-.413-1.655-1.165-2.952-2.256-3.892-1.09-.94-2.613-1.58-4.569-1.918-1.955-.338-4.437-.508-7.445-.508h-15.906c-3.009 0-5.472.17-7.39.508-1.917.338-3.421.978-4.512 1.918-1.09.94-1.843 2.237-2.256 3.892-.414 1.654-.621 3.76-.621 6.317v7.22c0 2.557.207 4.644.621 6.261.413 1.617 1.166 2.895 2.256 3.836 1.091.94 2.595 1.598 4.512 1.974 1.918.376 4.381.564 7.39.564h15.906c3.008 0 5.49-.188 7.445-.564 1.956-.376 3.479-1.034 4.569-1.974 1.091-.941 1.843-2.219 2.256-3.836.414-1.617.621-3.704.621-6.261v-7.22Zm91.602 34.069V58.106c0-2.557-.207-4.644-.62-6.261-.414-1.617-1.128-2.895-2.144-3.835-1.015-.941-2.406-1.599-4.174-1.975-1.767-.376-4.004-.564-6.712-.564h-18.275c-2.632 0-4.832.188-6.6.564-1.767.376-3.177 1.034-4.23 1.975-1.053.94-1.786 2.218-2.2 3.835-.414 1.617-.62 3.704-.62 6.261v34.069h-16.809V57.542c0-4.888.47-9.025 1.41-12.409.94-3.384 2.538-6.111 4.794-8.179 2.257-2.068 5.265-3.572 9.025-4.512 3.761-.94 8.461-1.41 14.102-1.41h20.418c5.716 0 10.454.47 14.215 1.41 3.76.94 6.768 2.444 9.024 4.512 2.257 2.068 3.855 4.795 4.795 8.179.94 3.384 1.41 7.521 1.41 12.409v34.633h-16.809Z" style="fill:#fff;fill-rule:nonzero"/>
        <path d="M71.366 52.85s-3.995-2.018-8.61 10.859l7.935 8.214s5.617-12.48.675-19.073Z" style="fill:#375dab;fill-rule:nonzero"/>
        <path d="M39.581 37.827v8.575a9.7 9.7 0 0 1-1.719 5.52c-2.074 3.005-5.687 7.992-8.922 11.227 0 0 12.224 8.779 26.005 13.336l8.891-13.225s-7.265-2.556-6.8-9.669L39.581 37.827Z" style="fill:url(#b);fill-rule:nonzero"/>
        <path d="M57.036 53.591 39.581 37.827v8.575c0 .114-.009.228-.013.343l20.762 21.73 3.505-5.215s-7.264-2.556-6.799-9.669Z" style="fill:#e8897b;fill-rule:nonzero"/>
        <path d="M28.939 63.149s12.225 8.779 26.006 13.336l8.89-13.225s-2.337-.824-4.275-2.835a7.126 7.126 0 0 1-1.665 2.344c-1.417 1.337-3.305 2.049-5.248 2.2-9.934.776-17.169-5.678-18.907-7.397-1.541 1.987-3.216 3.992-4.801 5.577Z" style="fill:#375dab;fill-rule:nonzero"/>
        <path d="m18.833 71.878 13.262-12.249s10.446 9.311 20.878 13.145a1.706 1.706 0 0 0 1.867-.492c1.466-1.686 4.573-5.56 5.662-9.244l3.333.222s3.425 3.864 6.45 6.362a4.81 4.81 0 0 1 1.613 2.488c1.249 4.781 3.299 19.165-12.836 30.527a3.057 3.057 0 0 1-1.771.549c-3.532-.005-15.596-.91-25.501-12.253 0 0-5.193-5.728-11.221-8.406a6.443 6.443 0 0 1-3.79-5.313 6.47 6.47 0 0 1 2.054-5.336Z" style="fill:#fff;fill-rule:nonzero"/>
        <path d="M70.285 69.622c-3.025-2.498-6.449-6.362-6.449-6.362l-3.329-.222-.008.008c-1.057 3.566-3.997 7.302-5.512 9.064 1.589 23.031-15.363 21.506-22.118 20.004 9.685 10.223 21.018 11.067 24.422 11.072a3.067 3.067 0 0 0 1.772-.549C75.197 91.275 73.148 76.891 71.899 72.11a4.81 4.81 0 0 0-1.614-2.488Z" style="fill:#cde0ff;fill-rule:nonzero"/>
        <path d="M71.898 72.11a4.802 4.802 0 0 0-1.613-2.488c-3.025-2.498-6.449-6.362-6.449-6.362l-3.334-.222c-1.089 3.684-4.196 7.558-5.662 9.244a1.728 1.728 0 0 1-.797.514c4.301 12.896 3.985 26.289 3.764 30.346a3.034 3.034 0 0 0 1.256-.505C75.197 91.275 73.147 76.891 71.898 72.11Z" style="fill:#afc8ff;fill-rule:nonzero"/>
        <path d="m27.026 58.513 4.092-2.322a2.524 2.524 0 0 1 3.169.549c1.292 1.517 3.182 4.03 4.424 6.982.753 1.791.093 3.863-1.575 4.858a3.873 3.873 0 0 1-4.464-.353c-1.685-1.401-4.091-3.507-6.23-5.763a2.535 2.535 0 0 1 .584-3.951Z" style="fill:url(#c);fill-rule:nonzero"/>
        <path d="m59.814 60.381.18 7a2.384 2.384 0 0 0 2.109 2.308 2.378 2.378 0 0 0 2.487-1.473c.414-1.038.884-2.441 1.087-3.866a2.08 2.08 0 0 0-.659-1.816 21.253 21.253 0 0 0-3.99-2.902c-.552-.307-1.23.117-1.214.749Z" style="fill:url(#d);fill-rule:nonzero"/>
        <path d="M16.669 49.559c4.372 2.421 13.626 9.293 13.943 24.208a3.614 3.614 0 0 1-.384 1.685c-1.222 2.459-5.56 9.225-16.701 10.292a3.12 3.12 0 0 1-2.602-.999c-1.509-1.653-4.682-4.756-8.677-6.556a2.864 2.864 0 0 1-1.664-2.943c.471-4.008 2.527-12.341 11.4-16.316a3.836 3.836 0 0 0 2.156-2.501c.357-1.319.696-3.264.559-5.633a1.328 1.328 0 0 1 1.97-1.237Z" style="fill:#eef5ff;fill-rule:nonzero"/>
        <path d="M30.228 75.452c.26-.524.397-1.101.385-1.685-.311-14.575-9.151-21.467-13.634-24.033 4.344 5.701 16.035 24.258-7.289 33.736.481.473.905.913 1.235 1.275a3.121 3.121 0 0 0 2.602.999c11.141-1.067 15.48-7.832 16.701-10.292Z" style="fill:#c7daff;fill-rule:nonzero"/>
        <path d="M8.063 65.913c.383-.841 1.088-1.804 2.382-2.507.056-.031.116-.058.176-.081.263-.097 1.058-.363 1.943-.366.951-.004 1.563 1.014 1.095 1.841-.605 1.069-1.827 2.41-4.229 2.823-.979.168-1.779-.806-1.367-1.71Z" style="fill:#fff;fill-rule:nonzero"/>
        <path d="M47.846 9.265A9.114 9.114 0 0 0 38.732.15c-9.349 0-16.927 7.579-16.927 16.927v27.344a3.606 3.606 0 1 0 7.211 0v-4.357a1.652 1.652 0 0 1 3.305 0v1.553a2.203 2.203 0 0 0 4.408 0V30.299s-.301-15.125 11.117-21.034Z" style="fill:url(#e);fill-rule:nonzero"/>
        <path d="M38.732.15c-2.475 0-4.823.536-6.942 1.49 4.073.868 10.205 3.69 8.115 12.874l1.375.549c1.579-2.256 3.704-4.317 6.567-5.798C47.846 4.231 43.766.15 38.732.15Z" style="fill:#a03774;fill-rule:nonzero"/>
        <path d="M37.304 36.049s-3.568-1.613-3.938-7.842c-.258-4.366 1.076-8.701 3.658-12.232a21.682 21.682 0 0 1 4.111-4.277c6.526-5.113 15.681-5.314 22.475-.563 2.986 2.088 5.677 5.31 6.51 10.266.113.672.164 1.354.192 2.035.091 2.22.077 6.91-1.499 8.87l-31.509 3.743Z" style="fill:#eef5ff;fill-rule:nonzero"/>
        <path d="M68.813 32.306c1.576-1.96 1.59-6.65 1.499-8.87a16.503 16.503 0 0 0-.192-2.035c-.833-4.956-3.524-8.178-6.51-10.266a18.97 18.97 0 0 0-13.056-3.29c4.666 1.964 12.114 8.351-6.824 27.441l25.083-2.98Z" style="fill:#c7daff;fill-rule:nonzero"/>
        <path d="M36.302 24.023c.237-1.439 1.063-5.036 3.645-7.46a1.926 1.926 0 0 1 2.395-.19 1.916 1.916 0 0 1 .518 2.655c-1.095 1.635-2.924 4.172-4.8 5.931a1.052 1.052 0 0 1-1.758-.936Z" style="fill:#fff;fill-rule:nonzero"/>
        <path d="m39.581 37.827 1.578 6.548a5.165 5.165 0 0 0 1.96 2.963c2.373 1.741 7.362 5.037 13.999 7.444a7.182 7.182 0 0 0 2.449.415h1.715a3.022 3.022 0 0 0 2.763-1.791c.975-2.179 2.497-6.262 3.233-11.782l-25.612-5.575-2.085 1.778Z" style="fill:url(#f);fill-rule:nonzero"/>
        <path d="m44.655 36.7-.58 1.773s7.43 4.768 14.472 7.709c1.386.579 2.322 1.905 2.34 3.408.015 1.352-.041 3.231-.299 5.608h.693c1.196 0 2.276-.7 2.764-1.792.974-2.179 2.497-6.262 3.233-11.782L44.655 36.7Z" style="fill:#e8897b;fill-rule:nonzero"/>
        <path d="M40.017 33.914c2.074-2.039 9.581-8.908 22.368-15.049 0 0 6.966 6.965 10.492 13.845v3.354s-3.321 5.47-9.943 9.683c0 0-11.065-2.14-22.666-9.535a1.485 1.485 0 0 1-.642-.893 1.465 1.465 0 0 1 .391-1.405Z" style="fill:#eef5ff;fill-rule:nonzero"/>
        <path d="M50.837 41.772c6.951 2.977 12.097 3.976 12.097 3.976 6.622-4.214 9.943-9.684 9.943-9.684V32.71c-2.876-5.61-8.036-11.275-9.843-13.175.13 4.995-.69 18.042-12.197 22.237Z" style="fill:#c7daff;fill-rule:nonzero"/>
        <path d="M72.877 36.064V32.71c-3.526-6.88-10.491-13.845-10.491-13.845s1.871 10.424.548 26.882c6.622-4.213 9.943-9.683 9.943-9.683Z" style="fill:#819fea;fill-rule:nonzero"/>
        <path d="M56.568 27.92s1.166-1.021 3.134-2.258c0 0 .685 8.264.124 13.685l-3.133-1.724-.125-9.703Zm-4.555 3.093.365 4.278-2.872-1.647s1.744-1.725 2.507-2.631Zm13.762-4.087s.411 5.83.068 12.186l1.991-2.286.062-7.548-2.121-2.352Zm4.916 5.95a18.72 18.72 0 0 0-.903-.989v3.3l.903-1.023v-1.288Z" style="fill:#375dab;fill-rule:nonzero"/>
        <circle cx="39.581" cy="35.291" r="3.557" style="fill:#c7daff"/>
        <path d="M71.366 52.85s3.428 6.422-1.042 16.846c-.496 1.157-.338 2.49.46 3.464 1.116 1.364 2.822 3.311 4.588 4.814a5.728 5.728 0 0 0 5.789.97 14.603 14.603 0 0 0 2.712-1.384 2.081 2.081 0 0 0 .723-2.653c-1.132-2.316-3.789-6.86-8.932-11.455a1.444 1.444 0 0 1-.487-1.007c-.086-1.905-.612-7.849-3.811-9.595Z" style="fill:#819fea;fill-rule:nonzero"/>
        <path d="M28.57 87.848c3.58-4.299 10.255-11.943 17.464-18.336a72.73 72.73 0 0 1-4.166-2.528c-2.226 4.966-7.081 11.662-17.667 17.548a40.371 40.371 0 0 1 4.369 3.316Zm21.421-16.312a50.797 50.797 0 0 1-2.047-.997c-3.533 4.115-11.62 13.466-17.168 19.35a31.63 31.63 0 0 1 1.014 1.044c.095.109.192.21.287.317 3.787-4.667 11.524-13.916 17.914-19.714Z" style="fill:#cde0ff;fill-rule:nonzero"/>
    </g>
    <defs>
        <linearGradient id="b" x1="0" y1="0" x2="1" y2="0" gradientUnits="userSpaceOnUse" gradientTransform="rotate(-89.259 54.94 7.849) scale(31.5202)">
            <stop offset="0" style="stop-color:#ffc3b0;stop-opacity:1"/>
            <stop offset=".01" style="stop-color:#ffc3b0;stop-opacity:1"/>
            <stop offset="1" style="stop-color:#e8897b;stop-opacity:1"/>
        </linearGradient>
        <linearGradient id="c" x1="0" y1="0" x2="1" y2="0" gradientUnits="userSpaceOnUse" gradientTransform="rotate(-122.392 33.206 22.274) scale(19.2083)">
            <stop offset="0" style="stop-color:#cc5697;stop-opacity:1"/>
            <stop offset="1" style="stop-color:#8e3979;stop-opacity:1"/>
        </linearGradient>
        <linearGradient id="d" x1="0" y1="0" x2="1" y2="0" gradientUnits="userSpaceOnUse" gradientTransform="rotate(-73.301 75.656 -7.872) scale(12.74552)">
            <stop offset="0" style="stop-color:#cc5697;stop-opacity:1"/>
            <stop offset="1" style="stop-color:#8e3979;stop-opacity:1"/>
        </linearGradient>
        <linearGradient id="e" x1="0" y1="0" x2="1" y2="0" gradientUnits="userSpaceOnUse" gradientTransform="rotate(90 5.437 29.388) scale(59.3264)">
            <stop offset="0" style="stop-color:#cc5697;stop-opacity:1"/>
            <stop offset="1" style="stop-color:#8e3979;stop-opacity:1"/>
        </linearGradient>
        <linearGradient id="f" x1="0" y1="0" x2="1" y2="0" gradientUnits="userSpaceOnUse" gradientTransform="rotate(-122.995 43.241 9.28) scale(34.1768)">
            <stop offset="0" style="stop-color:#ffc3b0;stop-opacity:1"/>
            <stop offset=".01" style="stop-color:#ffc3b0;stop-opacity:1"/>
            <stop offset="1" style="stop-color:#e8897b;stop-opacity:1"/>
        </linearGradient>
    </defs>
</svg>
