<svg viewBox="0 0 200 40" xmlns="http://www.w3.org/2000/svg">
    <path d="M29.695 21.662c-.713.067-1.33.145-1.946.165-.18.004-.364-.165-.549-.258.151-.116.296-.31.461-.33.884-.116 1.777-.184 2.66-.281.442-.049.607.121.544.563-.116.864-.194 1.738-.33 2.597-.029.175-.238.32-.364.48-.078-.189-.233-.383-.223-.572.024-.539.106-1.078.184-1.733-.194.145-.311.218-.408.31-2.616 2.495-5.767 3.855-9.325 4.175-1.684.15-3.403-.024-5.102-.078-.184-.005-.359-.213-.539-.325.146-.136.272-.296.437-.398a5.95 5.95 0 0 1 .976-.515c.194-.072.437-.024.655-.029-.102.18-.194.36-.31.529-.049.073-.141.112-.238.18 3.81 1.063 10.946-1.296 13.417-4.48Zm-6.082-7.845c-.593.485-1.073.903-1.583 1.272-.145.107-.388.073-.587.102.068-.19.077-.447.209-.563.665-.588 1.368-1.136 2.048-1.709.325-.277.529-.219.714.155.403.816.835 1.617 1.223 2.437.068.141-.039.359-.063.544-.16-.092-.388-.146-.476-.287-.296-.49-.539-1.014-.859-1.64-.073.291-.083.48-.17.631-.063.111-.218.174-.33.257-.087-.131-.243-.252-.252-.388-.01-.219.067-.447.126-.811Zm9.364 5.34c-.374.403-.607.694-.889.932-.106.092-.325.048-.495.068.025-.17-.009-.389.088-.495.237-.277.534-.505 1.009-.932-.388-.287-.718-.491-.99-.753-.102-.097-.082-.325-.116-.495.184.019.417-.019.538.078.282.233.505.529.864.917.287-.34.5-.641.767-.883.127-.112.36-.102.544-.146-.044.199-.024.447-.136.578-.228.257-.529.446-.898.737.418.379.723.617.971.908.092.107.049.33.068.495-.17-.024-.393.01-.495-.087-.291-.257-.524-.573-.83-.922Zm-17.219 1.907c-.359.399-.602.704-.888.962-.092.082-.296.034-.451.043.004-.155-.049-.369.034-.461.267-.301.587-.553.98-.908-.354-.301-.65-.5-.869-.767-.111-.136-.092-.383-.131-.582.185.044.413.034.539.141.262.223.466.509.796.888.325-.369.558-.675.845-.927.111-.097.33-.073.5-.107-.025.184.009.417-.088.539-.237.277-.538.495-.975.883.354.267.65.432.869.67.136.151.271.51.199.597-.277.33-.466-.019-.641-.189-.233-.214-.427-.456-.719-.782Zm8.695-10.203c.383.315.699.538.966.815.097.102.063.33.092.5-.17-.019-.398.024-.5-.073-.282-.257-.51-.572-.869-.99-.34.408-.549.714-.816.956-.116.102-.354.073-.539.102.03-.17.005-.393.107-.505.238-.276.534-.5.889-.825-.345-.32-.651-.558-.889-.849-.097-.122-.048-.36-.068-.544.165.039.379.024.491.121.276.238.504.525.859.913.296-.345.51-.646.777-.883.121-.107.349-.093.529-.132-.029.185.004.418-.097.539-.224.272-.525.495-.932.855ZM10.695 28.026c.364.296.661.49.884.747.116.131.097.384.141.578-.199-.054-.437-.058-.583-.175-.248-.209-.437-.485-.748-.849-.33.368-.558.679-.844.922-.117.102-.355.058-.539.078.034-.17.015-.389.117-.5.242-.272.538-.491.893-.801-.355-.335-.651-.578-.898-.869-.097-.117-.078-.33-.112-.5.184.024.422-.015.544.082.281.228.505.529.869.927.301-.359.524-.674.801-.937.102-.097.33-.067.5-.092-.02.17.019.389-.073.5-.228.277-.525.5-.952.889Zm7.699-12.17a1.286 1.286 0 0 1 1.296 1.233 1.306 1.306 0 0 1-1.267 1.33c-.703.01-1.291-.583-1.291-1.301a1.275 1.275 0 0 1 1.262-1.262Zm.753 1.403v-.267c-.238-.17-.461-.442-.719-.486-.398-.068-.665.228-.66.631.005.403.272.694.675.612.252-.049.466-.316.704-.49Zm-8.898 6.034a1.276 1.276 0 0 1 1.228-1.297 1.301 1.301 0 0 1 1.34 1.253c.014.694-.593 1.301-1.296 1.296a1.272 1.272 0 0 1-1.272-1.252Zm1.306.893c.286-.418.558-.646.592-.908.053-.388-.228-.66-.646-.646-.412.02-.684.297-.602.69.058.257.345.466.656.864Z" style="fill:#ccc"/>
    <path d="M24.778 20.259a1.259 1.259 0 0 1 1.242 1.271 1.277 1.277 0 0 1-1.305 1.277 1.297 1.297 0 0 1-1.253-1.281c0-.699.602-1.282 1.316-1.267Zm.014.369c-.315.388-.616.592-.67.849-.082.384.18.67.598.689.417.02.703-.247.655-.636-.034-.257-.306-.49-.583-.902Zm2.748 7.538a1.276 1.276 0 0 1-1.301 1.282 1.292 1.292 0 0 1-1.257-1.272 1.28 1.28 0 0 1 1.247-1.277 1.258 1.258 0 0 1 1.311 1.267Zm-.52.102c-.004-.092-.004-.179-.009-.272-.267-.16-.52-.417-.796-.451-.374-.044-.597.267-.583.641.015.417.296.679.685.597.257-.049.47-.335.703-.515Zm2.292-10.31a1.283 1.283 0 0 1-1.287 1.296 1.29 1.29 0 0 1-1.262-1.267 1.282 1.282 0 0 1 1.291-1.296c.68.005 1.248.577 1.258 1.267Zm-1.063-.656c-.588.059-.85.248-.855.675 0 .398.238.617.612.636.383.015.689-.214.65-.583-.024-.276-.286-.529-.407-.728Zm-7.117 4.33c-.078.136-.126.272-.213.364-.826.874-1.646 1.753-2.496 2.598-.116.116-.393.082-.592.116.063-.189.068-.432.194-.563.787-.854 1.593-1.694 2.408-2.524.117-.122.306-.194.471-.238.049-.01.141.15.228.247Zm.539-.995c-.063-.344-.17-.548-.117-.684a98.013 98.013 0 0 1 1.481-3.466c.058-.131.282-.185.427-.272.049.165.175.364.126.49a123.44 123.44 0 0 1-1.441 3.418c-.059.14-.219.242-.476.514Z" style="fill:#ccc"/>
    <path d="M52.851 30.101h-6.27l-1.38-5.58h-1.23l-.96 5.58h-5.7l3.3-18.75h9c3.42 0 5.13 1.53 5.13 4.59 0 1.26-.19 2.46-.57 3.6-.7 2.16-1.8 3.6-3.3 4.32Zm-7.41-13.95-.66 3.75h1.32c.68 0 1.195-.075 1.545-.225.35-.15.59-.58.72-1.29.13-.71.195-1.145.195-1.305 0-.4-.155-.655-.465-.765-.31-.11-.815-.165-1.515-.165Zm22.469 6.87h-5.7l-.39 2.28h6.99l-.84 4.8H55.28l3.3-18.75h12.54l-1.56 4.8h-6.15l-.42 2.52h5.7Zm15.029.12h-4.86l-1.2 6.96h-5.7l3.3-18.75h11.7l-1.59 4.8h-5.28l-.42 2.52h4.86Zm13.739 6.96h-11.4l3.3-18.75h5.7l-2.46 13.95h5.7Zm14.01-7.08h-5.7l-.39 2.28h6.99l-.84 4.8h-12.69l3.3-18.75h12.54l-1.56 4.8h-6.15l-.42 2.52h5.7Zm16.169 1.71-.48 5.04c-1.28.52-2.9.78-4.86.78-2.52 0-4.325-.49-5.415-1.47-1.09-.98-1.635-2.49-1.635-4.53 0-.86.14-2.13.42-3.81.6-3.44 1.635-5.94 3.105-7.5 1.47-1.56 3.795-2.34 6.975-2.34.74 0 1.585.075 2.535.225.95.15 1.645.335 2.085.555l-1.68 4.59c-1.18-.28-2.285-.42-3.315-.42-1.03 0-1.765.1-2.205.3-.44.2-.71.6-.81 1.2l-1.38 7.86c.72.16 1.46.24 2.22.24 1.62 0 3.1-.24 4.44-.72Zm17.129-8.58h-4.14l-2.43 13.95h-5.7l2.43-13.95h-4.11l.87-4.8h13.95Zm-.271 13.95 3.3-18.75h5.7l-3.3 18.75Zm16.709-12.48-1.38 7.8h2.37c.78 0 1.36-.095 1.74-.285.38-.19.63-.625.75-1.305l1.38-7.8h-2.4c-.76 0-1.33.095-1.71.285-.38.19-.63.625-.75 1.305Zm3.45-6.72c2.54 0 4.35.495 5.43 1.485 1.08.99 1.62 2.515 1.62 4.575s-.325 4.215-.975 6.465c-.65 2.25-1.68 4-3.09 5.25s-3.47 1.875-6.18 1.875c-2.71 0-4.605-.495-5.685-1.485-1.08-.99-1.62-2.515-1.62-4.575 0-.98.14-2.275.42-3.885.28-1.61.65-3 1.11-4.17.46-1.17 1.08-2.185 1.86-3.045 1.5-1.66 3.87-2.49 7.11-2.49Zm18.449 19.2-3.06-6.66c-.08-.14-.12-.335-.12-.585 0-.25.02-.535.06-.855h-.24l-1.41 8.1h-5.7l3.3-18.75h5.37l3.06 6.66c.06.14.09.335.09.585 0 .25-.02.535-.06.855h.24l1.44-8.1h5.7l-3.3 18.75Z" style="fill:#fff;white-space:pre"/>
</svg>
