<svg viewBox="0 0 200 40" xmlns="http://www.w3.org/2000/svg">
    <path d="m46.538 29.241 1.68-4.937c1.68.459 3.22.688 4.62.688s2.53-.06 3.39-.18l.24-1.496-2.49-.239c-1.9-.179-3.247-.609-4.04-1.287-.787-.678-1.18-1.636-1.18-2.872 0-.539.06-1.138.18-1.796.46-2.554 1.293-4.309 2.5-5.267 1.213-.957 3.09-1.436 5.63-1.436s4.78.249 6.72.748l-1.56 4.788c-1.74-.299-3.14-.449-4.2-.449s-1.96.05-2.7.15l-.24 1.466 2.01.209c2.04.219 3.49.705 4.35 1.457.86.745 1.29 1.745 1.29 3.002 0 1.277-.28 2.593-.84 3.95-.28.698-.587 1.284-.92 1.756a4.395 4.395 0 0 1-1.26 1.187c-.507.332-.97.581-1.39.748-.42.172-.95.299-1.59.379-.94.139-2.09.209-3.45.209-2.48 0-4.73-.26-6.75-.778Zm33.69-18.373-.87 4.788h-4.14l-2.43 13.915h-5.7l2.43-13.915h-4.11l.87-4.788h13.95Zm12.66 12.478 1.98 6.225h-6.27l-1.38-5.566h-1.23l-.96 5.566h-5.7l3.3-18.703h9c3.42 0 5.13 1.526 5.13 4.578 0 1.257-.19 2.454-.57 3.591-.7 2.155-1.8 3.591-3.3 4.309Zm-4.29-7.69h-1.14l-.66 3.74h1.32c.68 0 1.193-.073 1.54-.219.353-.153.593-.582.72-1.287.133-.711.2-1.147.2-1.307 0-.399-.153-.655-.46-.767-.313-.107-.82-.16-1.52-.16Zm14.13 10.952-1.17 2.963h-6l7.89-18.703h8.82l1.32 18.703h-6.03l-.12-2.963h-4.71Zm4.26-9.995h-.3l-2.1 5.237h2.4v-5.237Zm23.43-5.745-.87 4.788h-4.14l-2.43 13.915h-5.7l2.43-13.915h-4.11l.87-4.788h13.95Zm12.51 7.301-.78 4.339h-5.7l-.39 2.274h6.99l-.84 4.789h-12.69l3.3-18.703h12.54l-1.56 4.788h-6.15l-.42 2.513h5.7Zm12.69 5.896.15-.809h-1.44l.81-4.578h6.87l-1.77 9.995c-2.44.898-4.89 1.346-7.35 1.346s-4.237-.489-5.33-1.466c-1.087-.978-1.63-2.484-1.63-4.519 0-.858.14-2.124.42-3.8.6-3.471 1.66-5.975 3.18-7.511 1.52-1.536 4.04-2.304 7.56-2.304.74 0 1.683.08 2.83.239 1.153.16 2 .34 2.54.539l-1.65 4.578c-1.5-.279-2.877-.419-4.13-.419-1.247 0-2.14.1-2.68.3-.54.199-.86.598-.96 1.197l-1.47 8.468h1.89c.68 0 1.183-.073 1.51-.219.333-.153.55-.499.65-1.037Zm8.04-13.197h6.3l.39 6.583h.21l2.76-6.583h6.3l-7.56 13.615-.87 5.088h-5.7l.87-5.088-2.7-13.615Z" style="white-space:pre;fill:#fff"/>
    <path d="M30.085 17.791c-.782.23-1.568.435-2.341.698-.398.136-.627.03-.828-.314-.241-.402-.536-.769-.769-1.171-.135-.234-.205-.507-.325-.826-.791.26-1.251-.344-1.736-.925-.4-.484-.828-.948-1.26-1.402-.085-.088-.274-.15-.388-.117-.692.198-1.269.022-1.65-.541-.416-.608-.377-1.49.09-2.05.405-.486 1.032-.645 1.575-.406.605.267 1.084.999.883 1.651-.187.603.083.914.43 1.28.412.436.813.881 1.196 1.339.186.219.389.278.67.315.89.121 1.543-.18 2.112-.882.408-.504.959-.893 1.469-1.358-.322-.361-.544-.607-.759-.859-.317-.366-.31-.545.034-.9 1.826-1.901 4.721-1.766 6.428.301.864 1.045 1.236 2.267 1.258 3.68.557 0 1.104.01 1.652-.008.094-.004.2-.109.274-.193.561-.615 1.122-1.23 1.657-1.867.096-.113.102-.325.102-.494 0-.201-.08-.406-.068-.607.044-.937.794-1.613 1.634-1.494.82.123 1.392 1.047 1.198 1.941-.204.944-1.002 1.418-1.903 1.152-.109-.033-.306.027-.386.112a72.83 72.83 0 0 0-1.787 1.988c-.208.241-.431.358-.755.344-.52-.023-1.046-.008-1.6-.008v3.67h3.624c.029-.066.063-.129.094-.193.328-.703.916-1.05 1.566-.923.663.131 1.17.798 1.177 1.551.007.761-.471 1.437-1.13 1.591-.65.15-1.243-.178-1.601-.859-.063-.114-.212-.257-.325-.261-1.122-.019-2.243-.011-3.438-.011v3.699c.536 0 1.043.026 1.546-.008.395-.029.653.125.9.41.617.717 1.259 1.416 1.886 2.114.889-.289 1.466-.138 1.878.47.415.613.374 1.487-.095 2.049-.405.481-1.032.643-1.579.4-.601-.263-1.08-.998-.879-1.648.186-.604-.084-.915-.43-1.278-.393-.414-.789-.826-1.134-1.277-.273-.354-.59-.426-1.021-.318-.004.396-.164.791.365 1.068.21.11.349.503.378.779.059.549.02 1.11.02 1.666 0 .388-.194.549-.573.549-3.545-.004-7.09 0-10.633-.004-.463 0-.582-.131-.587-.616-.007-.497 0-.995 0-1.492 0-.46.2-.769.576-1.06.197-.154.201-.557.318-.934-.672 0-1.207-.01-1.74.011-.105.004-.229.115-.309.206a68.114 68.114 0 0 0-1.663 1.865c-.091.105-.095.302-.098.453-.004.143.066.286.076.429.076.878-.584 1.682-1.393 1.707-.838.027-1.503-.726-1.474-1.668.03-.909.767-1.703 1.558-1.487.624.167.849-.145 1.159-.491.475-.537.938-1.082 1.444-1.591.164-.165.441-.286.672-.293.86-.037 1.721-.019 2.581-.022.026 0 .051-.023.102-.044.149-1.193-.223-2.447.408-3.644h-2.074c-.862 0-1.721.011-2.582-.008-.343-.007-.572.03-.74.414-.219.498-.664.769-1.233.754-.547-.014-.934-.3-1.187-.768a1.653 1.653 0 0 1-.067-1.521c.233-.534.638-.874 1.24-.9.604-.027 1.051.277 1.287.812.135.303.307.355.594.355 1.663-.011 3.326-.033 4.988.007.61.015.989-.253 1.211-.733.181-.394.247-.848.364-1.277a2.896 2.896 0 0 1-.134-.079ZM26.81 16.55c.182.275.365.517.514.784.139.245.295.302.569.213a45.429 45.429 0 0 1 2.305-.685c.211-.055.464-.058.674-.005 1.397.367 1.797.103 1.994-1.35.005-.028-.003-.067.012-.084.127-.119.262-.331.389-.328.128.004.326.209.359.356.233 1.078-.598 2.286-1.682 2.434-.318.045-.653-.036-1.028-.06.102 1.279-.503 2.205-1.48 2.988-.288.23-.514.679-.552 1.053-.078.834-.025 1.684-.025 2.534h6.498c0-3.276.074-6.525-.029-9.766a3.945 3.945 0 0 0-2.86-3.666c-1.155-.327-2.62.063-3.248.871.171.195.347.392.521.586.464.514.459.628-.022 1.125-.969.996-1.932 1.991-2.909 3Zm.987 9.641h5.131c.117 0 .267-.042.344.014.145.109.342.274.346.417 0 .142-.193.312-.336.424-.073.058-.225.013-.342.013-1.838 0-3.675-.002-5.514.013-.145 0-.405.128-.412.216-.046.4-.017.804-.017 1.225h10.227c0-.373-.019-.721.003-1.069.018-.32-.12-.398-.412-.391-.525.019-1.05 0-1.575.006-.306.005-.528-.101-.528-.434 0-.332.218-.442.528-.439.386.008.776 0 1.156 0 .106-.882.106-.882-.707-.882-2.466 0-4.93.011-7.391-.01-.442-.004-.576.146-.515.551.008.099.008.2.014.346Zm14.075-13.927c.019-.403-.255-.743-.611-.765-.359-.021-.676.292-.693.692-.019.388.265.741.619.764.361.019.671-.292.685-.691Zm0 8.055c.007-.407-.277-.728-.638-.736-.361-.007-.664.314-.666.713-.008.396.283.732.642.736.367.004.659-.307.662-.713Zm-19.941-8.824c-.361 0-.648.326-.648.728 0 .404.291.729.652.729.354 0 .657-.336.657-.729 0-.39-.307-.728-.661-.728Zm19.274 17.618c.361.01.66-.304.672-.71.006-.402-.271-.731-.631-.743-.362-.01-.663.309-.676.706-.015.389.279.733.635.747Zm-18.719-8.812c-.004-.399-.3-.723-.66-.723-.36 0-.653.332-.649.73.004.401.299.724.66.72.357-.003.652-.333.649-.727Zm-.569 7.359c-.361.012-.642.341-.634.743.007.401.31.72.671.71.354-.011.648-.356.638-.747-.011-.397-.318-.716-.675-.706Z" style="fill:#ccc"/>
</svg>
