<?xml version="1.0" encoding="UTF-8"?>
<svg width="632px" height="104px" viewBox="0 0 632 104" version="1.1" xmlns="http://www.w3.org/2000/svg" xmlns:xlink="http://www.w3.org/1999/xlink">
    <title>auto-lastplayed</title>
    <defs>
        <polygon id="path-1" points="3.27515792e-14 0 632 0 632 103.435 0 103.435"></polygon>
    </defs>
    <g id="Page-1" stroke="none" stroke-width="1" fill="none" fill-rule="evenodd" opacity="0.78">
        <g id="Emulation-Station-System-Logo-4:3-Copy-8" transform="translate(-4.000000, -8.000000)">
            <g id="auto-lastplayed" transform="translate(4.000000, 8.000000)">
                <mask id="mask-2" fill="white">
                    <use xlink:href="#path-1"></use>
                </mask>
                <g id="Path"></g>
                <g id="Group" mask="url(#mask-2)" fill-rule="nonzero">
                    <g transform="translate(0.000500, 0.000000)" id="Shape">
                        <path d="M121.9995,51.717 C121.9995,80.228 98.9255,103.435 70.5475,103.435 C60.0715,103.435 49.9935,100.252 41.3735,94.417 C38.9865,92.693 38.3235,89.511 40.0475,86.991 C41.7715,84.604 44.9545,83.941 47.4735,85.665 C54.2682197,90.32112 62.3105352,92.8170471 70.5475,92.826 C93.0915,92.826 111.3915,74.393 111.3915,51.717 C111.3915,29.041 93.0915,10.609 70.5475,10.609 C48.5345,10.609 30.4995,28.246 29.7045,50.259 L42.0365,37.793 C44.1585,35.672 47.4735,35.672 49.5955,37.793 C51.7175,39.915 51.7175,43.23 49.5955,45.352 L29.3065,65.641 C28.2455,66.702 26.9195,67.233 25.5935,67.233 C24.1345,67.233 22.8085,66.702 21.8805,65.641 L1.5915,45.22 C-0.5305,43.098 -0.5305,39.783 1.5915,37.661 C3.7125,35.539 7.0285,35.539 9.1495,37.661 L19.2285,47.872 C21.0845,21.217 43.3625,-6.9388939e-16 70.5475,-6.9388939e-16 C98.9255,-6.9388939e-16 121.9995,23.207 121.9995,51.717 Z M70.2825,21.615 C67.3655,21.615 64.9785,24.002 64.9785,26.92 L64.9785,51.717 C64.9785,53.176 65.6415,54.502 66.7025,55.43 L78.1065,66.835 C79.1185826,67.8666001 80.5074114,68.441126 81.9525,68.4262913 C83.2785,68.4262913 84.7365,67.896 85.6655,66.835 C87.7865,64.713 87.6545,61.398 85.5325,59.276 L75.5865,49.463 L75.5865,26.92 C75.5865,24.002 73.1995,21.615 70.2825,21.615 Z" fill="#4A4A4A"></path>
                        <path d="M113.6905,73.909 C110.1015,73.909 107.1115,73.61 104.7185,73.012 C102.3255,72.414 100.4115,71.457 98.9765,70.141 C97.5405,68.825 96.5235,67.102 95.9255,64.973 C95.3275,62.844 95.0285,60.224 95.0285,57.113 L95.0285,24.957 L105.8675,24.957 L105.8675,56.683 C105.8675,58.118 105.9985,59.327 106.2615,60.307 C106.5255,61.288 106.9915,62.102 107.6615,62.748 C108.3315,63.394 109.2285,63.86 110.3535,64.148 C111.4775,64.435 112.9015,64.578 114.6235,64.578 L143.6945,64.578 L143.6945,73.909 L113.6905,73.909 L113.6905,73.909 Z M162.6435,73.909 C159.8205,73.909 157.4995,73.67 155.6805,73.192 C153.8625,72.713 152.4155,72.031 151.3385,71.146 C150.2615,70.261 149.5085,69.184 149.0775,67.916 C148.6465,66.648 148.4315,65.224 148.4315,63.645 L148.4315,59.984 C148.4315,58.358 148.6345,56.91 149.0415,55.642 C149.437157,54.3913528 150.169603,53.2738269 151.1585,52.412 C152.1635,51.527 153.5395,50.857 155.2865,50.402 C157.0325,49.948 159.2455,49.72 161.9255,49.72 L190.7085,49.72 L190.7085,48.859 C190.7085,46.371 190.2065,44.708 189.2015,43.87 C188.1965,43.033 186.4975,42.614 184.1055,42.614 L173.4815,42.614 L173.4815,35.006 L184.1055,35.006 C187.2155,35.006 189.8595,35.293 192.0365,35.867 C194.2135,36.441 195.9965,37.315 197.3845,38.487 C198.7715,39.659 199.7885,41.143 200.4345,42.937 C201.0805,44.732 201.4035,46.873 201.4035,49.361 L201.4035,58.836 C201.4035,61.659 201.1285,64.028 200.5785,65.942 C200.0275,67.856 199.0705,69.411 197.7075,70.608 C196.3435,71.804 194.5245,72.653 192.2515,73.156 C189.9785,73.658 187.1195,73.909 183.6745,73.909 L162.6435,73.909 L162.6435,73.909 Z M190.7085,56.324 L163.0745,56.324 C161.8295,56.324 160.8485,56.599 160.1315,57.149 C159.4135,57.7 159.0545,58.74 159.0545,60.272 L159.0545,62.927 C159.0545,64.315 159.4375,65.272 160.2025,65.798 C160.9685,66.325 162.0455,66.588 163.4335,66.588 L183.5305,66.588 C184.7745,66.588 185.8515,66.492 186.7605,66.301 C187.6705,66.11 188.4115,65.763 188.9855,65.26 C189.5605,64.758 189.9905,64.052 190.2775,63.143 C190.5655,62.234 190.7085,61.061 190.7085,59.626 L190.7085,56.324 Z M255.2375,63.573 C255.2375,65.487 255.0695,67.102 254.7345,68.418 C254.3995,69.734 253.7415,70.799 252.7605,71.613 C251.7795,72.426 250.4395,73.012 248.7415,73.371 C247.0425,73.73 244.8295,73.909 242.1015,73.909 L208.6535,73.909 L208.6535,65.511 L240.7375,65.511 C242.1735,65.511 243.1785,65.272 243.7525,64.794 C244.3265,64.315 244.6135,63.406 244.6135,62.066 L244.6135,60.774 C244.6135,59.338 244.3385,58.441 243.7885,58.082 C243.2385,57.723 242.3175,57.544 241.0255,57.544 L219.2045,57.544 C217.0035,57.544 215.2205,57.329 213.8575,56.898 C212.4935,56.467 211.4285,55.821 210.6625,54.96 C209.8975,54.099 209.3825,53.034 209.1195,51.766 C208.8565,50.498 208.7245,49.002 208.7245,47.28 L208.7245,44.337 C208.7245,42.662 208.9045,41.226 209.2635,40.03 C209.6225,38.834 210.2085,37.865 211.0215,37.123 C211.8355,36.381 212.9355,35.843 214.3235,35.508 C215.7115,35.173 217.4575,35.006 219.5635,35.006 L234.3495,35.006 L234.3495,43.117 L222.1475,43.117 C221.0945,43.117 220.3415,43.308 219.8865,43.691 C219.4315,44.074 219.2045,44.768 219.2045,45.772 L219.2045,47.567 C219.2045,48.667 219.4195,49.409 219.8505,49.792 C220.2815,50.175 220.9755,50.366 221.9325,50.366 L243.0345,50.366 C245.5235,50.366 247.5565,50.57 249.1355,50.976 C250.7155,51.383 251.9595,52.029 252.8685,52.914 C253.7775,53.8 254.3995,54.948 254.7345,56.36 C255.0695,57.771 255.2375,59.506 255.2375,61.564 L255.2375,63.573 L255.2375,63.573 Z M264.1375,73.909 L264.1375,43.691 L258.6825,43.691 L258.6825,35.006 L264.1375,35.006 L264.1375,24.024 L275.0475,24.024 L275.0475,35.006 L287.3215,35.006 L287.3215,43.691 L275.0475,43.691 L275.0475,73.909 L264.1375,73.909 Z M331.8955,59.913 L331.8955,73.909 L320.9855,73.909 L320.9855,24.957 L360.1765,24.957 C363.6695,24.957 366.5885,25.232 368.9335,25.782 C371.2785,26.333 373.1685,27.242 374.6035,28.51 C376.0395,29.778 377.0565,31.417 377.6545,33.427 C378.2525,35.436 378.5515,37.877 378.5515,40.748 L378.5515,44.983 C378.5515,47.902 378.2645,50.318 377.6905,52.232 C377.1165,54.147 376.1235,55.678 374.7115,56.826 C373.2995,57.975 371.4215,58.776 369.0765,59.231 C366.7325,59.685 363.7655,59.913 360.1765,59.913 L331.8955,59.913 L331.8955,59.913 Z M367.6415,41.179 C367.6415,38.547 367.0795,36.752 365.9545,35.795 C364.8305,34.838 362.8085,34.36 359.8895,34.36 L331.8955,34.36 L331.8955,51.084 L360.0325,51.084 C362.9045,51.084 364.8895,50.641 365.9905,49.756 C367.0915,48.871 367.6415,47.136 367.6415,44.552 L367.6415,41.179 Z M385.3705,22.445 L396.2805,22.445 L396.2805,73.91 L385.3705,73.91 L385.3705,22.445 Z M418.0295,73.909 C415.2065,73.909 412.8855,73.67 411.0675,73.192 C409.2485,72.713 407.8015,72.031 406.7245,71.146 C405.6475,70.261 404.8945,69.184 404.4635,67.916 C404.0325,66.648 403.8175,65.224 403.8175,63.645 L403.8175,59.984 C403.8175,58.358 404.0205,56.91 404.4275,55.642 C404.823153,54.3911041 405.556001,53.2734948 406.5455,52.412 C407.5505,51.527 408.9255,50.857 410.6725,50.402 C412.4185,49.948 414.6325,49.72 417.3115,49.72 L446.0945,49.72 L446.0945,48.859 C446.0945,46.371 445.5925,44.708 444.5875,43.87 C443.5825,43.033 441.8835,42.614 439.4915,42.614 L428.8685,42.614 L428.8685,35.006 L439.4915,35.006 C442.6015,35.006 445.2455,35.293 447.4225,35.867 C449.5995,36.441 451.3825,37.315 452.7705,38.487 C454.1575,39.659 455.1745,41.143 455.8205,42.937 C456.4665,44.732 456.7895,46.873 456.7895,49.361 L456.7895,58.836 C456.7895,61.659 456.5145,64.028 455.9645,65.942 C455.4135,67.856 454.4565,69.411 453.0935,70.608 C451.7295,71.804 449.9105,72.653 447.6385,73.156 C445.3655,73.658 442.5055,73.909 439.0605,73.909 L418.0295,73.909 L418.0295,73.909 Z M446.0945,56.324 L418.4605,56.324 C417.2165,56.324 416.2355,56.599 415.5175,57.149 C414.7995,57.7 414.4405,58.74 414.4405,60.272 L414.4405,62.927 C414.4405,64.315 414.8235,65.272 415.5895,65.798 C416.3545,66.325 417.4315,66.588 418.8195,66.588 L438.9165,66.588 C440.1615,66.588 441.2375,66.492 442.1475,66.301 C443.0565,66.11 443.7975,65.763 444.3725,65.26 C444.9465,64.758 445.3775,64.052 445.6645,63.143 C445.9515,62.234 446.0945,61.061 446.0945,59.626 L446.0945,56.324 Z M474.6625,55.247 C474.6625,57.4 475.1295,58.896 476.0625,59.733 C476.9955,60.571 478.5625,60.989 480.7635,60.989 L504.6655,60.989 L504.6655,35.006 L515.0735,35.006 L515.0735,73.192 C515.0735,77.546 513.9965,80.692 511.8435,82.63 C509.6905,84.568 506.1725,85.537 501.2925,85.537 L485.7165,85.537 L485.7165,76.781 L500.3585,76.781 C501.8425,76.781 502.9315,76.493 503.6245,75.919 C504.3185,75.345 504.6655,74.244 504.6655,72.617 L504.6655,69.459 L480.1175,69.459 C477.1985,69.459 474.7225,69.184 472.6885,68.634 C470.6545,68.083 469.0035,67.234 467.7355,66.086 C466.4675,64.937 465.5465,63.502 464.9725,61.779 C464.3985,60.056 464.1115,58.023 464.1115,55.678 L464.1115,35.006 L474.6625,35.006 L474.6625,55.247 L474.6625,55.247 Z M533.5925,58.405 L533.5925,60.2 C533.5925,61.396 533.6875,62.353 533.8795,63.071 C534.0705,63.789 534.4175,64.351 534.9205,64.758 C535.4225,65.164 536.0925,65.44 536.9295,65.583 C537.7675,65.727 538.8085,65.798 540.0525,65.798 L552.6855,65.798 L552.6855,73.909 L540.0525,73.909 C533.8795,73.909 529.4765,72.737 526.8455,70.392 C524.2135,68.048 522.8975,64.291 522.8975,59.123 L522.8975,50.151 C522.8975,47.328 523.1725,44.947 523.7225,43.009 C524.2735,41.071 525.2305,39.516 526.5935,38.343 C527.9575,37.171 529.7645,36.322 532.0135,35.795 C534.2625,35.269 537.1095,35.006 540.5545,35.006 L559.3605,35.006 C562.1355,35.006 564.4445,35.269 566.2875,35.795 C568.1295,36.322 569.5885,37.051 570.6655,37.985 C571.7425,38.918 572.4955,40.042 572.9265,41.358 C573.3575,42.674 573.5725,44.098 573.5725,45.629 L573.5725,58.405 L533.5925,58.405 L533.5925,58.405 Z M562.8775,46.49 C562.8775,45.198 562.5545,44.337 561.9085,43.906 C561.2625,43.476 560.1265,43.26 558.4995,43.26 L540.6985,43.26 C539.3585,43.26 538.2335,43.32 537.3245,43.44 C536.4155,43.559 535.6855,43.834 535.1355,44.265 C534.5855,44.696 534.1905,45.318 533.9515,46.131 C533.7115,46.945 533.5925,48.045 533.5925,49.433 L533.5925,51.515 L562.8775,51.515 L562.8775,46.49 L562.8775,46.49 Z M599.6995,73.909 C596.0625,73.909 593.0365,73.61 590.6195,73.012 C588.2035,72.414 586.2775,71.457 584.8415,70.141 C583.4065,68.825 582.3895,67.102 581.7915,64.973 C581.1925,62.844 580.8935,60.224 580.8935,57.113 L580.8935,51.874 C580.8935,48.763 581.1925,46.131 581.7915,43.978 C582.3895,41.825 583.4065,40.09 584.8415,38.774 C586.2775,37.458 588.2035,36.501 590.6195,35.903 C593.0365,35.305 596.0625,35.006 599.6995,35.006 L621.3045,35.006 L621.3045,22.445 L631.9995,22.445 L631.9995,57.113 C631.9995,60.224 631.7005,62.844 631.1025,64.973 C630.5045,67.102 629.4875,68.825 628.0525,70.141 C626.6165,71.457 624.7025,72.414 622.3095,73.012 C619.9175,73.61 616.9025,73.909 613.2655,73.909 L599.6995,73.909 L599.6995,73.909 Z M591.5885,56.826 C591.5885,58.549 591.7205,59.937 591.9835,60.989 C592.2465,62.042 592.7375,62.856 593.4555,63.43 C594.1725,64.004 595.1415,64.387 596.3625,64.578 C597.5825,64.77 599.1495,64.865 601.0635,64.865 L612.9785,64.865 C614.6535,64.865 616.0295,64.758 617.1055,64.542 C618.1825,64.327 619.0315,63.92 619.6545,63.322 C620.2765,62.724 620.7065,61.911 620.9465,60.882 C621.1855,59.853 621.3045,58.525 621.3045,56.898 L621.3045,44.193 L600.9915,44.193 C599.1255,44.193 597.5825,44.289 596.3625,44.48 C595.1415,44.672 594.1725,45.055 593.4555,45.629 C592.7375,46.203 592.2465,47.017 591.9835,48.069 C591.7205,49.122 591.5885,50.51 591.5885,52.232 L591.5885,56.826 L591.5885,56.826 Z" fill="#FFFFFF"></path>
                    </g>
                </g>
            </g>
        </g>
    </g>
</svg>