<svg viewBox="0 0 200 40" xmlns="http://www.w3.org/2000/svg">
    <path d="M131.488 34.999v-3.283c-.239-.012-.473-.034-.71-.034-13.114 0-26.221 0-39.336-.01-.566 0-.808.121-.759.73.049.638.038 1.285.005 1.927-.027.51.117.705.664.688 1.308-.04 2.616-.018 3.922-.012 1.003.007 1.64.56 1.661 1.423.022.86-.686 1.524-1.649 1.53-1.951.004-3.9.004-5.849 0-.997-.006-1.639-.588-1.656-1.584a225.877 225.877 0 0 1 0-6.049c.011-1.073.577-1.562 1.71-1.562 7.178-.005 14.355 0 21.528 0h21.46c1.499 0 1.905.394 1.905 1.873 0 1.883.006 3.766 0 5.65-.006 1.117-.555 1.676-1.662 1.676-10.235 0-20.462-.01-30.697.022-.919.006-1.767-.735-1.739-1.518.027-.912.648-1.449 1.756-1.449h28.57c.266-.018.526-.018.876-.018Zm-14.757-22.645c-.023-5.681 4.552-10.293 10.263-10.338 5.665-.044 10.322 4.554 10.374 10.234.052 5.681-4.627 10.389-10.322 10.397-5.666.008-10.286-4.613-10.315-10.293Zm10.329-6.422a6.365 6.365 0 0 0-6.407 6.355c-.029 3.545 2.87 6.467 6.422 6.452 3.508-.015 6.385-2.914 6.385-6.414-.015-3.524-2.885-6.393-6.4-6.393Z" style="fill:#ccc"/>
    <path d="m26.555 24.89 3.3-18.75h9.24c1.44 0 2.485.25 3.135.75.65.5.975 1.27.975 2.31 0 1.52-.335 2.77-1.005 3.75-.67.98-1.485 1.59-2.445 1.83l-.03.18c1.8.34 2.7 1.53 2.7 3.57 0 1.8-.49 3.31-1.47 4.53-.98 1.22-2.36 1.83-4.14 1.83Zm9.24-7.47h-2.25l-.54 3.06h2.22c.5 0 .88-.2 1.14-.6.26-.4.39-.91.39-1.53s-.32-.93-.96-.93Zm.84-7.17h-1.8l-.51 2.79h1.77c.92 0 1.38-.65 1.38-1.95 0-.56-.28-.84-.84-.84Zm22.8 14.64h-6.27l-1.38-5.58h-1.23l-.96 5.58h-5.7l3.3-18.75h9c3.42 0 5.13 1.53 5.13 4.59 0 1.26-.19 2.46-.57 3.6-.7 2.16-1.8 3.6-3.3 4.32Zm-7.41-13.95-.66 3.75h1.32c.68 0 1.195-.075 1.545-.225.35-.15.59-.58.72-1.29.13-.71.195-1.145.195-1.305 0-.4-.155-.655-.465-.765-.31-.11-.815-.165-1.515-.165Zm22.469 6.87h-5.7l-.39 2.28h6.99l-.84 4.8h-12.69l3.3-18.75h12.54l-1.56 4.8h-6.15l-.42 2.52h5.7Zm7.53 7.08h-6l7.89-18.75h8.82l1.32 18.75h-6.03l-.12-2.97h-4.71Zm5.13-12.99-2.1 5.25h2.4V11.9Zm16.2 5.4.03-.57h-.24l-1.41 8.16h-5.7l3.3-18.75h5.7l-1.35 7.65h.24c.16-.64.34-1.12.54-1.44l3.78-6.21h6.15l-5.88 9.21 2.73 9.54h-6.15l-1.65-6.72c-.06-.2-.09-.49-.09-.87Zm44.561-11.139-2.49 14.07h2.04c.7 0 1.2-.095 1.5-.285.3-.19.51-.625.63-1.305l2.22-12.48h5.7l-1.86 10.53c-.3 1.7-.645 3.07-1.035 4.11-.39 1.04-.935 1.92-1.635 2.64-.7.72-1.565 1.22-2.595 1.5-1.03.28-2.335.42-3.915.42-2.42 0-4.115-.365-5.085-1.095-.97-.73-1.455-1.985-1.455-3.765 0-.98.14-2.25.42-3.81l1.86-10.53Zm24.66 4.8h-4.14l-2.43 13.95h-5.7l2.43-13.95h-4.11l.87-4.8h13.95Z" style="white-space:pre;fill:#fff"/>
</svg>
