<svg viewBox="0 0 200 40" xmlns="http://www.w3.org/2000/svg">
    <path d="M32.081 20.01c0 3.886-.056 7.772.03 11.653.036 1.562-1.49 3.342-3.341 3.337-7.671-.026-15.336-.01-23.007-.01-2.156 0-3.631-1.465-3.636-3.637-.011-2.523 0-5.046 0-7.569 0-5.046-.005-10.091 0-15.132 0-1.775 1.058-3.169 2.68-3.545.295-.071.605-.082.906-.082 7.629-.005 15.254.026 22.884-.025 1.759-.01 3.58 1.521 3.519 3.545-.117 3.81-.035 7.64-.035 11.465Zm-28.464-.005v11.353c0 1.404.778 2.208 2.182 2.213 7.569.005 15.137.005 22.706 0 1.394 0 2.182-.814 2.182-2.213.005-7.569.005-15.137 0-22.706 0-1.404-.778-2.207-2.187-2.207-7.569-.006-15.137-.006-22.706 0-1.409 0-2.177.798-2.177 2.207v11.353Z" style="fill:#ccc"/>
    <path d="M9.721 10.153v.91c0 .773-.524 1.124-1.241.804-.117-.051-.219-.285-.224-.433-.021-.849 0-1.704-.015-2.553-.011-.616.432-.463.768-.468.325-.005.732-.112.707.458-.011.432.005.859.005 1.282Zm19.049-.016c0 .407-.031.814.005 1.221.05.57-.306.57-.697.549-.356-.02-.819.148-.804-.508.02-.834.015-1.669.005-2.503-.01-.666.478-.453.819-.478.356-.03.712-.046.672.504-.026.401 0 .808 0 1.215Zm-15.067-.371c0-.203.031-.412-.005-.605-.112-.656.209-.768.789-.768.534 0 .732.162.697.691a13.684 13.684 0 0 0-.006 1.582c.031.687-.457.509-.829.534-.371.021-.702.011-.646-.518.031-.306.005-.611 0-.916Zm-6.688-.275v.244c-.005.723-.651 1.109-1.287.758-.076-.04-.163-.147-.168-.223a18.43 18.43 0 0 1 .005-1.577c.005-.097.193-.244.321-.265.996-.188 1.129-.056 1.129 1.063Zm19.049-.005v.122c0 .941-.255 1.216-1.15.901-.773-.27-.183-1.058-.331-1.592-.076-.28.026-.484.402-.509 1.058-.071 1.079-.071 1.079 1.078Zm-5.463-.01v.244c0 .758-.616 1.206-1.216.753-.285-.219-.224-.936-.254-1.429-.011-.199.106-.55.234-.585.32-.082.681-.046 1.017-.01.081.01.188.193.198.305.031.239.01.483.01.727.006-.005.011-.005.011-.005Zm-2.727 5.107c.158.656-.213.722-.747.742-.616.026-.733-.223-.743-.783-.01-.615.224-.737.783-.742.595 0 .845.183.707.783Zm10.88 4.801c.163.697-.29.662-.778.697-.666.046-.676-.305-.707-.814-.041-.676.315-.676.819-.701.661-.041.758.284.666.818ZM17.142 29.471c.615-.143.758.147.768.722.01.585-.173.768-.763.768-.58 0-.778-.168-.763-.763.015-.564.132-.87.758-.727Zm10.936-7.457c.712-.178.671.27.707.763.051.661-.295.687-.804.712-.651.031-.692-.295-.717-.814-.031-.661.285-.768.814-.661Zm-7.401-.783c-.092.625-.02 1.19-.265 1.455-.183.198-.895.152-1.159-.056-.204-.163-.234-.957-.056-1.089.325-.244.859-.203 1.48-.31Zm3.917-3.311c-.189-.692.244-.677.747-.707.626-.041.723.234.738.783.02.641-.275.717-.804.732-.615.016-.814-.223-.681-.808Zm.645-4.69c-.676.173-.645-.265-.681-.758-.056-.671.31-.671.804-.702.63-.036.702.265.722.799.025.671-.31.747-.845.661Zm-11.617 8.927c.102-.606.046-1.15.29-1.44.163-.188.946-.168 1.109.036.208.259.249.997.051 1.165-.28.244-.845.162-1.45.239Zm7.065-10.178c-.102.417-.086.956-.346 1.205-.188.183-.895.127-1.093-.086-.204-.214-.224-.972-.046-1.099.336-.234.87-.188 1.317-.259.056.081.112.162.168.239Zm-.788 7.36c-.631.152-.794-.117-.799-.697-.005-.585.178-.773.763-.768.575 0 .783.157.758.758-.025.539-.086.9-.722.707Zm4.583 2.838c.106-.631.04-1.195.295-1.455.188-.193.905-.142 1.159.071.204.168.219.967.041 1.094-.336.239-.87.193-1.495.29ZM14.41 19.344c-.651.183-.696-.194-.722-.717-.03-.601.188-.748.758-.753.595-.005.753.208.748.773-.005.58-.173.849-.784.697ZM9.705 24.14c.158.682-.274.672-.768.702-.661.041-.676-.31-.707-.814-.035-.661.3-.681.809-.707.661-.03.758.295.666.819Zm14.868 1.211c-.147-.539.168-.687.728-.661.747.03.727.025.773.798.04.631-.244.743-.789.717-.712-.045-.712-.02-.712-.854Zm-4.695.076c.626-.168.723.153.743.707.02.595-.183.753-.753.753-.575 0-.773-.168-.768-.758.005-.58.163-.854.778-.702ZM6.226 30.926c-.676.167-.676-.25-.707-.753-.04-.626.234-.717.779-.733.63-.015.712.265.727.799.02.61-.219.804-.799.687ZM9.7 16.612c.178.667-.198.733-.732.748-.549.01-.738-.168-.738-.732 0-.575.153-.789.753-.768.55.025.89.111.717.752Zm18.357-.712c.646-.178.702.194.728.723.03.625-.234.727-.773.737-.595.015-.743-.208-.748-.773-.005-.6.208-.814.793-.687Zm-10.946 2.086c-.686.178-.686-.239-.722-.743-.046-.656.295-.687.799-.707.625-.03.707.254.722.788.02.652-.265.774-.799.662ZM6.272 19.344c-.626.163-.743-.148-.753-.702-.01-.58.163-.768.748-.768.575 0 .773.178.758.763-.01.549-.122.875-.753.707Zm8.133-2.696c-.676.178-.686-.229-.712-.743-.03-.605.188-.742.763-.752.621-.011.738.244.738.793 0 .58-.183.844-.789.702Zm-7.411 5.381c.133.59-.127.779-.712.758-.493-.015-.798-.056-.758-.686.051-.774.026-.774.768-.799.529-.02.83.122.702.727Zm10.88 1.409c.173.682-.254.672-.758.707-.625.041-.717-.229-.732-.778-.02-.636.264-.717.793-.727.606-.015.824.208.697.798Zm-1.449-11.612c-.178-.661.213-.697.737-.722.595-.026.743.183.753.758.01.615-.234.742-.783.742-.57-.005-.855-.163-.707-.778ZM6.247 13.23c-.662.173-.692-.214-.728-.738-.04-.651.28-.702.799-.717.58-.015.702.224.712.753.005.585-.178.844-.783.702Zm.03 12.202c.682-.183.728.204.753.728.025.574-.203.717-.743.722-.569.005-.783-.153-.768-.758.016-.57.148-.86.758-.692ZM9.7 13.896c.173.651-.198.702-.727.722-.6.026-.738-.198-.748-.763-.01-.605.219-.747.773-.747.585.01.845.188.702.788Zm7.396 13.612c-.702.178-.671-.265-.707-.753-.056-.677.326-.667.809-.697.641-.041.686.28.712.798.03.672-.295.753-.814.652Zm10.905.005c-.661.173-.712-.209-.732-.738-.025-.595.229-.707.753-.717.569-.01.778.147.773.753-.015.6-.193.839-.794.702Zm.748-13.617c.178.651-.198.707-.727.728-.59.025-.753-.178-.758-.758-.005-.611.219-.753.778-.748.57 0 .86.153.707.778Zm-14.267-1.409c.686-.163.671.275.702.768.045.646-.285.692-.804.717-.661.031-.666-.305-.697-.808-.03-.656.265-.779.799-.677Zm13.591 17.691c.666-.183.681.224.717.737.041.631-.249.718-.783.733-.616.015-.728-.239-.738-.788-.015-.626.224-.809.804-.682ZM22.6 17.986c-.657.178-.728-.173-.753-.712-.031-.626.229-.723.773-.738.646-.02.697.285.707.804.015.574-.168.798-.727.646Zm.808-4.634c-.646-.117-1.19-.076-1.47-.321-.188-.162-.152-.9.051-1.103.209-.209.946-.239 1.109-.051.244.28.198.824.31 1.475Zm-10.91-.702c-.595-.092-1.134-.031-1.424-.27-.194-.162-.183-.93.02-1.103.244-.214.982-.265 1.15-.077.244.28.173.835.254 1.45Zm7.396 3.291c-.606.142-.799-.102-.794-.697.005-.544.153-.748.728-.727.518.015.834.045.793.707-.036.529-.081.895-.727.717Zm-7.376 5.305c-.107.621-.056 1.16-.3 1.455-.152.183-.9.142-1.104-.066-.203-.214-.228-.957-.04-1.109.295-.244.834-.188 1.444-.28Zm4.619-12.813c.62-.147.758.138.773.707.02.641-.259.718-.794.718-.544.005-.742-.143-.732-.718.015-.554.132-.869.753-.707Zm-4.629 9.41c-.097.611-.041 1.15-.28 1.45-.147.183-.936.158-1.098-.046-.209-.259-.244-.976-.046-1.16.269-.244.834-.162 1.424-.244Zm2.732 6.099c-.097.631-.021 1.19-.27 1.455-.183.198-.865.137-1.16-.056-.183-.122-.218-.916-.051-1.038.331-.249.85-.229 1.481-.361Zm10.045-9.39c.6-.142.804.092.794.697-.005.55-.153.753-.728.733-.513-.016-.839-.041-.798-.707.03-.54.081-.906.732-.723ZM11.73 25.427c.676-.183.697.214.717.728.025.559-.163.727-.712.727-.575.005-.773-.163-.753-.753.015-.549.112-.87.748-.702Zm-5.509-9.486c-.681.183-.661-.249-.702-.748-.051-.686.336-.646.814-.681.616-.046.666.254.692.752.03.626-.239.794-.804.677ZM9.7 20.046c.178.702-.274.656-.763.691-.59.041-.691-.213-.712-.732-.02-.615.224-.727.779-.727.595-.011.839.173.696.768Zm7.406.656c-.666.183-.681-.224-.717-.738-.046-.686.331-.656.819-.686.6-.036.687.223.707.742.015.621-.234.804-.809.682Zm8.164 9.506c-.656.184-.682-.203-.717-.727-.051-.687.325-.656.809-.687.585-.035.702.204.717.733.015.625-.234.804-.809.681Zm-12.777 1.369h-1.541c.066-.499.01-1.018.229-1.348.117-.178.925-.183 1.052 0 .229.315.184.839.26 1.348Zm-.814-21.73c-.453.092-.738-.051-.697-.691.026-.489.046-.794.677-.763.518.025.839.05.783.712-.056.732-.01.737-.763.742Zm.732 5.453c.163.656-.244.641-.722.682-.651.05-.687-.26-.712-.784-.03-.63.27-.651.758-.676.641-.046.793.229.676.778Zm10.168-6.862c.631-.167.728.153.748.702.025.616-.219.723-.768.728-.554 0-.727-.158-.712-.717.015-.54.086-.891.732-.713Z" style="fill:#ccc"/>
    <path d="m38.016 29.37 1.68-4.95c1.68.46 3.22.69 4.62.69s2.53-.06 3.39-.18l.24-1.5-2.49-.24c-1.9-.18-3.245-.61-4.035-1.29s-1.185-1.64-1.185-2.88c0-.54.06-1.14.18-1.8.46-2.56 1.295-4.32 2.505-5.28s3.085-1.44 5.625-1.44 4.78.25 6.72.75l-1.56 4.8c-1.74-.3-3.14-.45-4.2-.45s-1.96.05-2.7.15l-.24 1.47 2.01.21c2.04.22 3.49.705 4.35 1.455.86.75 1.29 1.755 1.29 3.015 0 1.28-.28 2.6-.84 3.96-.28.7-.585 1.285-.915 1.755-.33.47-.75.87-1.26 1.2-.51.33-.975.58-1.395.75-.42.17-.95.295-1.59.375-.94.14-2.09.21-3.45.21-2.48 0-4.73-.26-6.75-.78Zm17.549.33 3.3-18.75h5.7l-3.3 18.75Zm14.64 0h-5.94l4.38-18.75h7.44l.54 9.54h.21l3.9-9.54h7.44l-2.22 18.75h-5.97l1.26-9.09h-.21l-3.75 9.09h-4.35l-.63-9.09h-.15Zm27.508-18.75-2.49 14.07h2.04c.7 0 1.2-.095 1.5-.285.3-.19.51-.625.63-1.305l2.22-12.48h5.7l-1.86 10.53c-.3 1.7-.645 3.07-1.035 4.11-.39 1.04-.935 1.92-1.635 2.64-.7.72-1.565 1.22-2.595 1.5-1.03.28-2.335.42-3.915.42-2.42 0-4.115-.365-5.085-1.095-.97-.73-1.455-1.985-1.455-3.765 0-.98.14-2.25.42-3.81l1.86-10.53Zm21.029 18.75h-11.4l3.3-18.75h5.7l-2.46 13.95h5.7Zm4.139 0h-6l7.89-18.75h8.82l1.32 18.75h-6.03l-.12-2.97h-4.71Zm5.13-12.99-2.1 5.25h2.4v-5.25Zm22.859-.96h-4.14L144.3 29.7h-5.7l2.43-13.95h-4.11l.87-4.8h13.95Zm-.27 13.95 3.3-18.75h5.7l-3.3 18.75Zm16.709-12.48-1.38 7.8h2.37c.78 0 1.36-.095 1.74-.285.38-.19.63-.625.75-1.305l1.38-7.8h-2.4c-.76 0-1.33.095-1.71.285-.38.19-.63.625-.75 1.305Zm3.45-6.72c2.54 0 4.35.495 5.43 1.485 1.08.99 1.62 2.515 1.62 4.575s-.325 4.215-.975 6.465c-.65 2.25-1.68 4-3.09 5.25s-3.47 1.875-6.18 1.875c-2.71 0-4.605-.495-5.685-1.485-1.08-.99-1.62-2.515-1.62-4.575 0-.98.14-2.275.42-3.885.28-1.61.65-3 1.11-4.17.46-1.17 1.08-2.185 1.86-3.045 1.5-1.66 3.87-2.49 7.11-2.49Zm18.449 19.2-3.06-6.66c-.08-.14-.12-.335-.12-.585 0-.25.02-.535.06-.855h-.24l-1.41 8.1h-5.7l3.3-18.75h5.37l3.06 6.66c.06.14.09.335.09.585 0 .25-.02.535-.06.855h.24l1.44-8.1h5.7l-3.3 18.75Z" style="white-space:pre;fill:#fff"/>
</svg>
