<?xml version="1.0" encoding="UTF-8" standalone="no"?>
<!DOCTYPE svg PUBLIC "-//W3C//DTD SVG 1.1//EN" "http://www.w3.org/Graphics/SVG/1.1/DTD/svg11.dtd">
<svg width="100%" height="100%" viewBox="0 0 633 104" version="1.1" xmlns="http://www.w3.org/2000/svg" xmlns:xlink="http://www.w3.org/1999/xlink" xml:space="preserve" xmlns:serif="http://www.serif.com/" style="fill-rule:evenodd;clip-rule:evenodd;stroke-linejoin:round;stroke-miterlimit:2;">
    <clipPath id="_clip1">
        <rect id="auto-lastplayed.afdesign" x="0.261" y="0.143" width="632" height="103.435"/>
    </clipPath>
    <g clip-path="url(#_clip1)">
        <g>
            <path d="M122.261,51.86c0,28.511 -23.074,51.718 -51.452,51.718c-10.476,-0 -20.554,-3.183 -29.174,-9.018c-2.387,-1.724 -3.05,-4.906 -1.326,-7.426c1.724,-2.387 4.907,-3.05 7.426,-1.326c6.763,4.642 14.852,7.161 23.074,7.161c22.544,0 40.844,-18.433 40.844,-41.109c-0,-22.676 -18.3,-41.108 -40.844,-41.108c-22.013,-0 -40.048,17.637 -40.843,39.65l12.332,-12.466c2.122,-2.121 5.437,-2.121 7.559,0c2.122,2.122 2.122,5.437 -0,7.559l-20.289,20.289c-1.061,1.061 -2.387,1.592 -3.713,1.592c-1.459,-0 -2.785,-0.531 -3.713,-1.592l-20.289,-20.421c-2.122,-2.122 -2.122,-5.437 -0,-7.559c2.121,-2.122 5.437,-2.122 7.558,-0l10.079,10.211c1.856,-26.655 24.134,-47.872 51.319,-47.872c28.378,-0 51.452,23.207 51.452,51.717Zm-51.717,-30.102c-2.917,0 -5.304,2.387 -5.304,5.305l-0,24.797c-0,1.459 0.663,2.785 1.724,3.713l11.404,11.405c1.061,1.061 2.387,1.591 3.846,1.591c1.326,0 2.784,-0.53 3.713,-1.591c2.121,-2.122 1.989,-5.437 -0.133,-7.559l-9.946,-9.813l0,-22.543c0,-2.918 -2.387,-5.305 -5.304,-5.305Z" style="fill:#4a4a4a;fill-rule:nonzero;"/>
            <g>
                <path d="M113.952,74.052c-3.589,0 -6.579,-0.299 -8.972,-0.897c-2.393,-0.598 -4.307,-1.555 -5.742,-2.871c-1.436,-1.316 -2.453,-3.039 -3.051,-5.168c-0.598,-2.129 -0.897,-4.749 -0.897,-7.86l0,-32.156l10.839,-0l-0,31.726c-0,1.435 0.131,2.644 0.394,3.624c0.264,0.981 0.73,1.795 1.4,2.441c0.67,0.646 1.567,1.112 2.692,1.4c1.124,0.287 2.548,0.43 4.27,0.43l29.071,0l-0,9.331l-30.004,0Z" style="fill:#fff;fill-rule:nonzero;"/>
                <path d="M162.905,74.052c-2.823,0 -5.144,-0.239 -6.963,-0.717c-1.818,-0.479 -3.265,-1.161 -4.342,-2.046c-1.077,-0.885 -1.83,-1.962 -2.261,-3.23c-0.431,-1.268 -0.646,-2.692 -0.646,-4.271l-0,-3.661c-0,-1.626 0.203,-3.074 0.61,-4.342c0.407,-1.268 1.113,-2.345 2.117,-3.23c1.005,-0.885 2.381,-1.555 4.128,-2.01c1.746,-0.454 3.959,-0.682 6.639,-0.682l28.783,0l0,-0.861c0,-2.488 -0.502,-4.151 -1.507,-4.989c-1.005,-0.837 -2.704,-1.256 -5.096,-1.256l-10.624,0l0,-7.608l10.624,-0c3.11,-0 5.754,0.287 7.931,0.861c2.177,0.574 3.96,1.448 5.348,2.62c1.387,1.172 2.404,2.656 3.05,4.45c0.646,1.795 0.969,3.936 0.969,6.424l0,9.475c0,2.823 -0.275,5.192 -0.825,7.106c-0.551,1.914 -1.508,3.469 -2.871,4.666c-1.364,1.196 -3.183,2.045 -5.456,2.548c-2.273,0.502 -5.132,0.753 -8.577,0.753l-21.031,0Zm28.065,-17.585l-27.634,-0c-1.245,-0 -2.226,0.275 -2.943,0.825c-0.718,0.551 -1.077,1.591 -1.077,3.123l0,2.655c0,1.388 0.383,2.345 1.148,2.871c0.766,0.527 1.843,0.79 3.231,0.79l20.097,0c1.244,0 2.321,-0.096 3.23,-0.287c0.91,-0.191 1.651,-0.538 2.225,-1.041c0.575,-0.502 1.005,-1.208 1.292,-2.117c0.288,-0.909 0.431,-2.082 0.431,-3.517l0,-3.302Z" style="fill:#fff;fill-rule:nonzero;"/>
                <path d="M255.499,63.716c-0,1.914 -0.168,3.529 -0.503,4.845c-0.335,1.316 -0.993,2.381 -1.974,3.195c-0.981,0.813 -2.321,1.399 -4.019,1.758c-1.699,0.359 -3.912,0.538 -6.64,0.538l-33.448,0l-0,-8.398l32.084,0c1.436,0 2.441,-0.239 3.015,-0.717c0.574,-0.479 0.861,-1.388 0.861,-2.728l0,-1.292c0,-1.436 -0.275,-2.333 -0.825,-2.692c-0.55,-0.359 -1.471,-0.538 -2.763,-0.538l-21.821,0c-2.201,0 -3.984,-0.215 -5.347,-0.646c-1.364,-0.431 -2.429,-1.077 -3.195,-1.938c-0.765,-0.861 -1.28,-1.926 -1.543,-3.194c-0.263,-1.268 -0.395,-2.764 -0.395,-4.486l0,-2.943c0,-1.675 0.18,-3.111 0.539,-4.307c0.359,-1.196 0.945,-2.165 1.758,-2.907c0.814,-0.742 1.914,-1.28 3.302,-1.615c1.388,-0.335 3.134,-0.502 5.24,-0.502l14.786,-0l0,8.111l-12.202,-0c-1.053,-0 -1.806,0.191 -2.261,0.574c-0.455,0.383 -0.682,1.077 -0.682,2.081l0,1.795c0,1.1 0.215,1.842 0.646,2.225c0.431,0.383 1.125,0.574 2.082,0.574l21.102,0c2.489,0 4.522,0.204 6.101,0.61c1.58,0.407 2.824,1.053 3.733,1.938c0.909,0.886 1.531,2.034 1.866,3.446c0.335,1.411 0.503,3.146 0.503,5.204l-0,2.009Z" style="fill:#fff;fill-rule:nonzero;"/>
                <path d="M264.399,74.052l0,-30.218l-5.455,-0l-0,-8.685l5.455,-0l0,-10.982l10.91,-0l0,10.982l12.274,-0l0,8.685l-12.274,-0l0,30.218l-10.91,0Z" style="fill:#fff;fill-rule:nonzero;"/>
                <path d="M332.157,60.056l0,13.996l-10.91,0l0,-48.952l39.191,-0c3.493,-0 6.412,0.275 8.757,0.825c2.345,0.551 4.235,1.46 5.67,2.728c1.436,1.268 2.453,2.907 3.051,4.917c0.598,2.009 0.897,4.45 0.897,7.321l0,4.235c0,2.919 -0.287,5.335 -0.861,7.249c-0.574,1.915 -1.567,3.446 -2.979,4.594c-1.412,1.149 -3.29,1.95 -5.635,2.405c-2.344,0.454 -5.311,0.682 -8.9,0.682l-28.281,-0Zm35.746,-18.734c-0,-2.632 -0.562,-4.427 -1.687,-5.384c-1.124,-0.957 -3.146,-1.435 -6.065,-1.435l-27.994,-0l0,16.724l28.137,0c2.872,0 4.857,-0.443 5.958,-1.328c1.101,-0.885 1.651,-2.62 1.651,-5.204l-0,-3.373Z" style="fill:#fff;fill-rule:nonzero;"/>
                <rect x="385.632" y="22.588" width="10.91" height="51.465" style="fill:#fff;fill-rule:nonzero;"/>
                <path d="M418.291,74.052c-2.823,0 -5.144,-0.239 -6.962,-0.717c-1.819,-0.479 -3.266,-1.161 -4.343,-2.046c-1.077,-0.885 -1.83,-1.962 -2.261,-3.23c-0.431,-1.268 -0.646,-2.692 -0.646,-4.271l0,-3.661c0,-1.626 0.203,-3.074 0.61,-4.342c0.407,-1.268 1.113,-2.345 2.118,-3.23c1.005,-0.885 2.38,-1.555 4.127,-2.01c1.746,-0.454 3.96,-0.682 6.639,-0.682l28.783,0l0,-0.861c0,-2.488 -0.502,-4.151 -1.507,-4.989c-1.005,-0.837 -2.704,-1.256 -5.096,-1.256l-10.623,0l-0,-7.608l10.623,-0c3.11,-0 5.754,0.287 7.931,0.861c2.177,0.574 3.96,1.448 5.348,2.62c1.387,1.172 2.404,2.656 3.05,4.45c0.646,1.795 0.969,3.936 0.969,6.424l0,9.475c0,2.823 -0.275,5.192 -0.825,7.106c-0.551,1.914 -1.508,3.469 -2.871,4.666c-1.364,1.196 -3.183,2.045 -5.455,2.548c-2.273,0.502 -5.133,0.753 -8.578,0.753l-21.031,0Zm28.065,-17.585l-27.634,-0c-1.244,-0 -2.225,0.275 -2.943,0.825c-0.718,0.551 -1.077,1.591 -1.077,3.123l0,2.655c0,1.388 0.383,2.345 1.149,2.871c0.765,0.527 1.842,0.79 3.23,0.79l20.097,0c1.245,0 2.321,-0.096 3.231,-0.287c0.909,-0.191 1.65,-0.538 2.225,-1.041c0.574,-0.502 1.005,-1.208 1.292,-2.117c0.287,-0.909 0.43,-2.082 0.43,-3.517l0,-3.302Z" style="fill:#fff;fill-rule:nonzero;"/>
                <path d="M474.924,55.39c-0,2.153 0.467,3.649 1.4,4.486c0.933,0.838 2.5,1.256 4.701,1.256l23.902,0l0,-25.983l10.408,-0l-0,38.186c-0,4.354 -1.077,7.5 -3.23,9.438c-2.153,1.938 -5.671,2.907 -10.551,2.907l-15.576,0l-0,-8.756l14.642,-0c1.484,-0 2.573,-0.288 3.266,-0.862c0.694,-0.574 1.041,-1.675 1.041,-3.302l0,-3.158l-24.548,0c-2.919,0 -5.395,-0.275 -7.429,-0.825c-2.034,-0.551 -3.685,-1.4 -4.953,-2.548c-1.268,-1.149 -2.189,-2.584 -2.763,-4.307c-0.574,-1.723 -0.861,-3.756 -0.861,-6.101l-0,-20.672l10.551,-0l-0,20.241Z" style="fill:#fff;fill-rule:nonzero;"/>
                <path d="M533.854,58.548l-0,1.795c-0,1.196 0.095,2.153 0.287,2.871c0.191,0.718 0.538,1.28 1.041,1.687c0.502,0.406 1.172,0.682 2.009,0.825c0.838,0.144 1.879,0.215 3.123,0.215l12.633,0l-0,8.111l-12.633,0c-6.173,0 -10.576,-1.172 -13.207,-3.517c-2.632,-2.344 -3.948,-6.101 -3.948,-11.269l-0,-8.972c-0,-2.823 0.275,-5.204 0.825,-7.142c0.551,-1.938 1.508,-3.493 2.871,-4.666c1.364,-1.172 3.171,-2.021 5.42,-2.548c2.249,-0.526 5.096,-0.789 8.541,-0.789l18.806,-0c2.775,-0 5.084,0.263 6.927,0.789c1.842,0.527 3.301,1.256 4.378,2.19c1.077,0.933 1.83,2.057 2.261,3.373c0.431,1.316 0.646,2.74 0.646,4.271l0,12.776l-39.98,0Zm29.285,-11.915c0,-1.292 -0.323,-2.153 -0.969,-2.584c-0.646,-0.43 -1.782,-0.646 -3.409,-0.646l-17.801,0c-1.34,0 -2.465,0.06 -3.374,0.18c-0.909,0.119 -1.639,0.394 -2.189,0.825c-0.55,0.431 -0.945,1.053 -1.184,1.866c-0.24,0.814 -0.359,1.914 -0.359,3.302l-0,2.082l29.285,-0l0,-5.025Z" style="fill:#fff;fill-rule:nonzero;"/>
                <path d="M599.961,74.052c-3.637,0 -6.663,-0.299 -9.08,-0.897c-2.416,-0.598 -4.342,-1.555 -5.778,-2.871c-1.435,-1.316 -2.452,-3.039 -3.05,-5.168c-0.599,-2.129 -0.898,-4.749 -0.898,-7.86l0,-5.239c0,-3.111 0.299,-5.743 0.898,-7.896c0.598,-2.153 1.615,-3.888 3.05,-5.204c1.436,-1.316 3.362,-2.273 5.778,-2.871c2.417,-0.598 5.443,-0.897 9.08,-0.897l21.605,-0l0,-12.561l10.695,-0l0,34.668c0,3.111 -0.299,5.731 -0.897,7.86c-0.598,2.129 -1.615,3.852 -3.05,5.168c-1.436,1.316 -3.35,2.273 -5.743,2.871c-2.392,0.598 -5.407,0.897 -9.044,0.897l-13.566,0Zm-8.111,-17.083c0,1.723 0.132,3.111 0.395,4.163c0.263,1.053 0.754,1.867 1.472,2.441c0.717,0.574 1.686,0.957 2.907,1.148c1.22,0.192 2.787,0.287 4.701,0.287l11.915,0c1.675,0 3.051,-0.107 4.127,-0.323c1.077,-0.215 1.926,-0.622 2.549,-1.22c0.622,-0.598 1.052,-1.411 1.292,-2.44c0.239,-1.029 0.358,-2.357 0.358,-3.984l0,-12.705l-20.313,0c-1.866,0 -3.409,0.096 -4.629,0.287c-1.221,0.192 -2.19,0.575 -2.907,1.149c-0.718,0.574 -1.209,1.388 -1.472,2.44c-0.263,1.053 -0.395,2.441 -0.395,4.163l0,4.594Z" style="fill:#fff;fill-rule:nonzero;"/>
            </g>
        </g>
    </g>
</svg>
