<svg viewBox="0 0 200 40" xmlns="http://www.w3.org/2000/svg">
    <path d="M74.475 29.111h-6l7.89-18.75h8.82l1.32 18.75h-6.03l-.12-2.97h-4.71Zm5.13-12.99-2.1 5.25h2.4v-5.25Zm8.88 12.99 3.3-18.75h7.98c2.58 0 4.415.455 5.505 1.365 1.09.91 1.635 2.385 1.635 4.425 0 1.04-.12 2.24-.36 3.6-.6 3.36-1.625 5.76-3.075 7.2-1.45 1.44-3.785 2.16-7.005 2.16Zm10.5-13.95h-2.37l-1.59 9.15h2.37c.78 0 1.36-.095 1.74-.285.38-.19.63-.625.75-1.305l1.05-5.97c.02-.12.03-.28.03-.48 0-.46-.16-.76-.48-.9-.32-.14-.82-.21-1.5-.21Zm17.43-4.8-2.49 14.07h2.04c.7 0 1.2-.095 1.5-.285.3-.19.51-.625.63-1.305l2.22-12.48h5.7l-1.86 10.53c-.3 1.7-.645 3.07-1.035 4.11-.39 1.04-.935 1.92-1.635 2.64-.7.72-1.565 1.22-2.595 1.5-1.03.28-2.335.42-3.915.42-2.42 0-4.115-.365-5.085-1.095-.97-.73-1.455-1.985-1.455-3.765 0-.98.14-2.25.42-3.81l1.86-10.53Zm21.03 18.75h-11.4l3.3-18.75h5.7l-2.46 13.95h5.7Zm15.21-13.95h-4.14l-2.43 13.95h-5.7l2.43-13.95h-4.11l.87-4.8h13.95Z" style="white-space:pre;fill:#fff"/>
    <path d="m57.503 23.426-1.336 1.265c-.141.211-.379.309-.629.309h-1.563v1.562c0 .52-.418.938-.937.938h-1.563v1.562c0 .52-.418.938-.937.938h-3.125a.937.937 0 0 1-.938-.938v-3.125c0-.25.099-.488.275-.664l6.3-6.3a6.898 6.898 0 0 1-.325-2.098 6.876 6.876 0 1 1 4.778 6.551Zm3.66-6.551a1.562 1.562 0 1 0 0-3.124 1.562 1.562 0 0 0 0 3.124Z" style="fill:#ddd"/>
</svg>
