<svg viewBox="0 0 200 40" xmlns="http://www.w3.org/2000/svg">
    <path d="M56.29 23.162h-3.689l-.773 4.511h-5.651L49.449 9h8.923c3.371 0 5.057 1.574 5.057 4.721 0 1.493-.208 2.841-.624 4.043-.417 1.208-.876 2.168-1.379 2.878-.509.704-1.206 1.302-2.092 1.792-.88.486-1.893.728-3.044.728Zm-.744-9.382h-1.309l-.803 4.601h1.309c.674 0 1.183-.073 1.527-.219.35-.152.575-.498.674-1.035.258-1.474.387-2.28.387-2.421 0-.378-.149-.627-.446-.747-.297-.119-.744-.179-1.339-.179Zm13.089 13.893h-5.652L66.255 9h5.651l-3.271 18.673Zm19.215 0h-5.324l-3.035-6.633c-.078-.139-.118-.335-.118-.587 0-.246.019-.528.059-.847h-.238l-1.398 8.067h-5.652L75.417 9h5.324l3.034 6.632c.06.14.089.336.089.588 0 .246-.02.528-.059.847h.237L85.471 9h5.651L87.85 27.673Zm13.951 0H91.627L94.9 9h9.161c1.429 0 2.463.249 3.104.747.647.498.972 1.264.972 2.301 0 1.513-.335 2.758-1.002 3.734-.661.976-1.467 1.584-2.419 1.822l-.03.18c1.785.338 2.678 1.524 2.678 3.555 0 1.793-.487 3.296-1.459 4.511-.971 1.216-2.339 1.823-4.104 1.823Zm-1.011-7.439h-2.231l-.536 3.047h2.202c.496 0 .872-.199 1.13-.598.257-.398.386-.906.386-1.523 0-.618-.317-.926-.951-.926Zm.833-7.14h-1.786l-.505 2.778h1.755c.912 0 1.368-.648 1.368-1.942 0-.558-.277-.836-.832-.836Zm12.582 11.621-1.161 2.958h-5.948L114.919 9h8.745l1.309 18.673h-5.979l-.119-2.958h-4.67Zm4.224-9.978h-.298l-2.082 5.228h2.38v-5.228Zm20.643 8.155-.833 4.781h-11.303L130.208 9h5.652l-2.439 13.892h5.651Zm12.672 0-.833 4.781h-11.304L142.88 9h5.652l-2.44 13.892h5.652Z" style="white-space:pre;fill:#fff"/>
    <path d="M52.629 30.984c-.223-.033-.358-.068-1.56-.414-4.013-1.15-8.571-2.539-10.45-3.186-1.193-.41-1.498-.538-1.895-.805a3.634 3.634 0 0 1-.653-.537 4.146 4.146 0 0 1-1.167-2.272c-.033-.192-.034-.206-.034-.656 0-.381.004-.481.022-.6a4.185 4.185 0 0 1 .855-1.971 5.5 5.5 0 0 1 .596-.616 4.167 4.167 0 0 1 2.197-.946c.231-.029.683-.029.915 0 .494.06.924.189 1.367.411.407.203 1.066.642 2.363 1.571 1.79 1.284 5.078 3.754 7.548 5.671l.458.356.444.348c.71.559 1.118 1.133 1.232 1.734.03.15.03.418.001.562-.04.207-.124.403-.241.571a2.438 2.438 0 0 1-.462.457c-.259.17-.537.275-.852.32a3.474 3.474 0 0 1-.684.002Zm-11.278-6.415a1.515 1.515 0 0 0 1.018-.887 1.498 1.498 0 0 0-1.464-2.068 1.5 1.5 0 0 0-1.404 1.44 1.512 1.512 0 0 0 1.283 1.548c.02.002.131.003.243.001.177-.003.224-.008.324-.034Zm76.293-3.588a4.936 4.936 0 0 1-1.108-.25 4.59 4.59 0 0 1-2.779-2.863 4.563 4.563 0 0 1 2.245-5.498 4.517 4.517 0 0 1 4.697.34c.217.156.38.296.584.502a4.55 4.55 0 0 1 1.299 2.637c.026.197.037.769.019.98a4.593 4.593 0 0 1-1.913 3.333 4.576 4.576 0 0 1-2.208.82c-.161.013-.68.013-.836-.001Zm-1.994-2.836a4.014 4.014 0 0 1-.132-.547 4.418 4.418 0 0 1 0-.845c.117-.766.449-1.42.988-1.948a3.322 3.322 0 0 1 1.941-.941 4.01 4.01 0 0 1 .783.007c.175.027.402.081.545.131a.61.61 0 0 0 .116.032c.007-.009-.174-.14-.286-.209a3.005 3.005 0 0 0-1.174-.406 4.19 4.19 0 0 0-.726.002 3.048 3.048 0 0 0-2.157 1.353 4.03 4.03 0 0 0-.321.64 3.01 3.01 0 0 0 .311 2.659c.053.081.14.193.144.187a.611.611 0 0 0-.032-.115Z" style="fill:#ccc"/>
    <path d="M160.87 18.975c-.224.033-.359.069-1.561.414-4.013 1.149-8.57 2.54-10.45 3.186-1.193.41-1.497.539-1.896.805a3.788 3.788 0 0 0-.652.537c-.624.626-1.007 1.375-1.167 2.272-.032.192-.033.207-.033.656 0 .381.003.482.022.6.112.732.392 1.374.854 1.971.125.161.437.484.597.617a4.176 4.176 0 0 0 2.196.946c.231.028.683.028.915 0 .494-.06.924-.19 1.368-.412.406-.203 1.066-.641 2.362-1.571 1.79-1.284 5.078-3.754 7.548-5.671l.458-.356.444-.347c.71-.56 1.119-1.133 1.233-1.735.029-.15.029-.417.001-.562a1.519 1.519 0 0 0-.241-.571 2.438 2.438 0 0 0-.462-.457 2.066 2.066 0 0 0-.852-.321 3.553 3.553 0 0 0-.684-.001Zm-11.279 6.416c.47.127.827.438 1.018.887.24.556.096 1.227-.35 1.653-.296.28-.73.443-1.113.414a1.5 1.5 0 0 1-1.404-1.44 1.508 1.508 0 0 1 1.282-1.547c.021-.003.131-.004.244-.002.177.003.224.008.323.035Z" style="fill:#ccc" transform="rotate(180 154.12 24.98)"/>
</svg>
