<?xml version="1.0" encoding="UTF-8" standalone="no"?>
<!DOCTYPE svg PUBLIC "-//W3C//DTD SVG 1.1//EN" "http://www.w3.org/Graphics/SVG/1.1/DTD/svg11.dtd">
<svg width="100%" height="100%" viewBox="0 0 633 96" version="1.1" xmlns="http://www.w3.org/2000/svg" xmlns:xlink="http://www.w3.org/1999/xlink" xml:space="preserve" xmlns:serif="http://www.serif.com/" style="fill-rule:evenodd;clip-rule:evenodd;stroke-linejoin:round;stroke-miterlimit:2;">
    <g>
        <g>
            <g>
                <path d="M103.859,24.515c-4.953,-1.196 -10.761,0.057 -15.771,0.285c-7.288,0.341 -14.291,-1.538 -21.636,-0.684c0,-1.651 -0.854,-3.302 -1.366,-4.839c-1.025,-3.075 -2.164,-6.092 -3.473,-9.053c-1.765,-4.043 -4.726,-9.736 -9.85,-9.736c-8.598,0.057 -12.583,16.568 -12.697,24.027c-4.897,-2.505 -13.779,-1.423 -18.561,-1.253c-6.15,0.285 -14.121,0.399 -18.505,5.409c-8.142,9.509 14.747,22.319 20.953,25.337c0.114,0.057 0.228,0.057 0.341,0.114c-1.822,7.629 -15.828,34.275 -6.32,40.14c9.964,6.206 33.308,-21.067 33.479,-20.953c7.516,7.402 24.824,25.052 36.61,19.131c9.964,-4.954 -6.775,-31.087 -9.964,-37.123c6.206,-1.936 12.185,-5.124 17.821,-8.255c5.181,-2.904 12.469,-7.004 14.861,-12.868c1.936,-4.669 -1.31,-8.597 -5.922,-9.679Z" style="fill:#edce04;fill-rule:nonzero;"/>
            </g>
            <g>
                <g>
                    <path d="M32.91,61.226c-1.191,1.051 -2.593,1.822 -4.064,2.312c-0.421,-2.592 -0.21,-5.185 0.49,-7.778c2.173,0.771 4.555,1.402 7.078,1.892c-1.332,0.981 -2.313,2.453 -3.504,3.574Z" style="fill:#e5e5e5;fill-rule:nonzero;"/>
                    <path d="M64.443,55.34c-0.07,-0.07 -0.14,-0.14 -0.21,-0.14c2.102,-0.981 3.994,-2.243 5.676,-3.784c0.42,1.401 1.401,2.803 1.962,4.204c0.63,1.822 0.77,3.714 0.49,5.536c-3.293,-0.981 -5.886,-2.943 -7.918,-5.816Z" style="fill:#e5e5e5;fill-rule:nonzero;"/>
                    <path d="M75.024,55.55c-0.491,-2.172 -1.822,-5.606 -4.204,-6.236c-0.211,-0.07 -0.421,-0 -0.631,0.07c-0.28,-0.491 -0.841,-0.771 -1.472,-0.491c-13.033,5.466 -25.156,8.479 -39.24,4.485c-0.911,-0.28 -1.472,0.49 -1.472,1.191c-0.14,0.07 -0.21,0.14 -0.35,0.21c-2.032,3.013 -1.962,7.358 -1.192,10.791c0.141,0.701 0.911,1.052 1.542,0.911c2.242,-0.49 4.134,-1.611 5.956,-3.083c1.612,-1.261 3.504,-3.153 3.714,-5.325c0,-0.07 0,-0.14 -0.07,-0.14c8.058,1.331 17.168,1.051 24.596,-1.892c-0,0.14 0.07,0.28 0.14,0.49c2.172,4.065 6.026,7.008 10.511,8.058c0.84,0.211 1.611,-0.21 1.892,-1.051c0.981,-2.733 0.91,-5.325 0.28,-7.988Zm-42.114,5.676c-1.191,1.051 -2.593,1.822 -4.064,2.312c-0.421,-2.592 -0.21,-5.185 0.49,-7.778c2.173,0.771 4.555,1.402 7.078,1.892c-1.332,0.981 -2.313,2.453 -3.504,3.574Zm31.533,-5.886c-0.07,-0.07 -0.14,-0.14 -0.21,-0.14c2.102,-0.981 3.994,-2.243 5.676,-3.784c0.42,1.401 1.401,2.803 1.962,4.204c0.63,1.822 0.77,3.714 0.49,5.536c-3.293,-0.981 -5.886,-2.943 -7.918,-5.816Z" style="fill-rule:nonzero;"/>
                </g>
                <g>
                    <path d="M45.033,43.147c-3.994,-1.822 -6.237,-4.274 -9.11,-7.427c-0.911,-0.982 -2.873,0.07 -2.312,1.331c1.191,3.013 3.503,5.536 6.306,7.217c-3.223,0.561 -6.586,0 -9.74,-0.42c-0.63,-0.07 -1.261,0.631 -0.7,1.191c3.713,3.154 10.931,2.663 15.205,1.051c1.051,-0.49 1.752,-2.312 0.351,-2.943Z" style="fill-rule:nonzero;"/>
                    <path d="M68.928,40.064c-1.332,0.42 -2.593,0.911 -3.784,1.331c1.892,-1.821 3.363,-3.994 4.064,-6.446c0.35,-1.332 -1.542,-2.663 -2.523,-1.472c-3.223,3.854 -5.816,7.568 -10.861,9.25c-1.822,0.63 -1.682,3.784 0.49,3.573c4.695,-0.49 9.811,-1.541 13.525,-4.694c0.7,-0.631 -0,-1.892 -0.911,-1.542Z" style="fill-rule:nonzero;"/>
                </g>
            </g>
        </g>
        <path d="M109.436,56.713l-0,23.314l-13.752,0l0,-40.799c0,-3.886 0.379,-7.195 1.138,-9.927c0.759,-2.732 2.049,-4.933 3.871,-6.602c1.821,-1.67 4.25,-2.884 7.286,-3.643c3.035,-0.759 6.83,-1.138 11.383,-1.138l14.572,-0l-0,11.93l-14.207,-0c-3.825,-0 -6.497,0.789 -8.015,2.368c-1.517,1.578 -2.276,4.189 -2.276,7.832l-0,4.917l52.365,0l-0,11.748l-52.365,0Z" style="fill:#fff;fill-rule:nonzero;"/>
        <path d="M186.117,80.027c-3.582,0 -6.527,-0.303 -8.834,-0.91c-2.307,-0.607 -4.144,-1.473 -5.51,-2.596c-1.366,-1.123 -2.322,-2.489 -2.869,-4.098c-0.546,-1.609 -0.819,-3.415 -0.819,-5.419l-0,-4.644c-0,-2.064 0.258,-3.901 0.774,-5.51c0.516,-1.609 1.412,-2.975 2.687,-4.098c1.274,-1.123 3.02,-1.973 5.236,-2.55c2.216,-0.577 5.024,-0.865 8.424,-0.865l36.519,-0l0,-1.093c0,-3.157 -0.637,-5.267 -1.912,-6.329c-1.275,-1.063 -3.431,-1.594 -6.466,-1.594l-13.479,-0l0,-9.654l13.479,0c3.946,0 7.301,0.365 10.063,1.093c2.762,0.729 5.024,1.837 6.785,3.324c1.76,1.488 3.051,3.37 3.87,5.647c0.82,2.276 1.23,4.993 1.23,8.15l-0,12.022c-0,3.582 -0.349,6.587 -1.048,9.016c-0.698,2.428 -1.912,4.401 -3.642,5.919c-1.731,1.518 -4.038,2.596 -6.922,3.233c-2.884,0.638 -6.511,0.956 -10.883,0.956l-26.683,0Zm35.608,-22.312l-35.062,0c-1.578,0 -2.823,0.349 -3.734,1.048c-0.91,0.698 -1.366,2.018 -1.366,3.961l0,3.37c0,1.76 0.486,2.975 1.457,3.643c0.972,0.667 2.338,1.001 4.099,1.001l25.499,0c1.579,0 2.945,-0.121 4.098,-0.364c1.154,-0.243 2.095,-0.683 2.824,-1.32c0.728,-0.638 1.274,-1.534 1.639,-2.687c0.364,-1.154 0.546,-2.641 0.546,-4.463l0,-4.189Z" style="fill:#fff;fill-rule:nonzero;"/>
        <path d="M288.662,76.749c-1.032,1.396 -2.231,2.52 -3.597,3.37c-1.367,0.85 -3.264,1.275 -5.692,1.275c-2.55,-0 -4.493,-0.425 -5.829,-1.275c-1.336,-0.85 -2.519,-1.974 -3.552,-3.37l-32.512,-46.082l16.211,0l25.864,37.795l25.59,-37.795l16.029,0l-32.512,46.082Z" style="fill:#fff;fill-rule:nonzero;"/>
        <path d="M347.038,80.027c-4.554,0 -8.348,-0.379 -11.384,-1.138c-3.036,-0.759 -5.464,-1.973 -7.286,-3.643c-1.821,-1.669 -3.111,-3.855 -3.87,-6.557c-0.759,-2.702 -1.138,-6.026 -1.138,-9.972l-0,-6.648c-0,-3.946 0.379,-7.286 1.138,-10.018c0.759,-2.732 2.049,-4.933 3.87,-6.602c1.822,-1.67 4.25,-2.884 7.286,-3.643c3.036,-0.759 6.83,-1.139 11.384,-1.139l16.483,0c4.615,0 8.44,0.38 11.475,1.139c3.036,0.759 5.465,1.988 7.286,3.688c1.821,1.7 3.112,3.916 3.87,6.648c0.759,2.732 1.139,6.072 1.139,10.018l-0,6.557c-0,3.946 -0.38,7.27 -1.139,9.972c-0.758,2.702 -2.049,4.888 -3.87,6.557c-1.821,1.67 -4.25,2.884 -7.286,3.643c-3.035,0.759 -6.86,1.138 -11.475,1.138l-16.483,0Zm26.683,-27.503c0,-2.064 -0.167,-3.764 -0.501,-5.1c-0.333,-1.335 -0.941,-2.383 -1.821,-3.142c-0.88,-0.759 -2.11,-1.275 -3.688,-1.548c-1.579,-0.273 -3.582,-0.41 -6.011,-0.41l-12.841,0c-2.428,0 -4.417,0.137 -5.965,0.41c-1.548,0.273 -2.762,0.789 -3.643,1.548c-0.88,0.759 -1.487,1.807 -1.821,3.142c-0.334,1.336 -0.501,3.036 -0.501,5.1l-0,5.829c-0,2.064 0.167,3.749 0.501,5.054c0.334,1.305 0.941,2.338 1.821,3.097c0.881,0.758 2.095,1.29 3.643,1.593c1.548,0.304 3.537,0.456 5.965,0.456l12.841,-0c2.429,-0 4.432,-0.152 6.011,-0.456c1.578,-0.303 2.808,-0.835 3.688,-1.593c0.88,-0.759 1.488,-1.792 1.821,-3.097c0.334,-1.305 0.501,-2.99 0.501,-5.054l0,-5.829Z" style="fill:#fff;fill-rule:nonzero;"/>
        <path d="M397.126,80.027l0,-28.596c0,-3.703 0.425,-6.86 1.275,-9.471c0.85,-2.611 2.201,-4.751 4.053,-6.42c1.852,-1.67 4.235,-2.899 7.149,-3.689c2.914,-0.789 6.466,-1.184 10.655,-1.184l8.834,0l0,11.02l-8.47,-0c-1.882,-0 -3.46,0.152 -4.735,0.455c-1.275,0.304 -2.292,0.82 -3.051,1.548c-0.759,0.729 -1.305,1.731 -1.639,3.006c-0.334,1.275 -0.501,2.884 -0.501,4.826l-0,28.505l-13.57,0Z" style="fill:#fff;fill-rule:nonzero;"/>
        <path d="M437.197,80.027l0,-48.085l13.843,0l-0,48.085l-13.843,0Zm4.645,-52.183c-1.7,0 -2.899,-0.334 -3.597,-1.002c-0.699,-0.667 -1.048,-1.73 -1.048,-3.187l0,-5.282c0,-1.457 0.349,-2.504 1.048,-3.142c0.698,-0.637 1.897,-0.956 3.597,-0.956l4.462,-0c1.761,-0 2.99,0.319 3.689,0.956c0.698,0.638 1.047,1.685 1.047,3.142l-0,5.282c-0,1.457 -0.349,2.52 -1.047,3.187c-0.699,0.668 -1.928,1.002 -3.689,1.002l-4.462,0Z" style="fill:#fff;fill-rule:nonzero;"/>
        <path d="M464.609,80.027l0,-38.34l-6.921,-0l0,-11.02l6.921,0l0,-13.933l13.843,-0l0,13.933l15.573,0l0,11.02l-15.573,-0l0,38.34l-13.843,0Z" style="fill:#fff;fill-rule:nonzero;"/>
        <path d="M513.696,60.356l0,2.277c0,1.518 0.122,2.732 0.365,3.643c0.242,0.911 0.683,1.624 1.32,2.14c0.638,0.516 1.488,0.865 2.55,1.047c1.062,0.182 2.383,0.274 3.962,0.274l16.028,-0l-0,10.29l-16.028,0c-7.832,0 -13.418,-1.487 -16.757,-4.462c-3.34,-2.975 -5.009,-7.741 -5.009,-14.298l-0,-11.384c-0,-3.582 0.349,-6.602 1.047,-9.061c0.698,-2.459 1.913,-4.432 3.643,-5.92c1.73,-1.487 4.022,-2.565 6.876,-3.233c2.853,-0.668 6.466,-1.002 10.837,-1.002l23.86,0c3.522,0 6.451,0.334 8.789,1.002c2.337,0.668 4.189,1.594 5.555,2.778c1.366,1.184 2.322,2.611 2.869,4.28c0.546,1.67 0.819,3.476 0.819,5.419l0,16.21l-50.726,0Zm37.157,-15.117c-0,-1.64 -0.41,-2.732 -1.23,-3.279c-0.819,-0.546 -2.261,-0.82 -4.325,-0.82l-22.586,0c-1.7,0 -3.127,0.076 -4.28,0.228c-1.154,0.152 -2.08,0.501 -2.778,1.047c-0.698,0.547 -1.199,1.336 -1.502,2.368c-0.304,1.032 -0.456,2.429 -0.456,4.19l0,2.641l37.157,-0l-0,-6.375Z" style="fill:#fff;fill-rule:nonzero;"/>
        <path d="M632.27,66.913c-0,2.429 -0.213,4.478 -0.638,6.148c-0.425,1.669 -1.26,3.02 -2.504,4.052c-1.245,1.032 -2.945,1.776 -5.1,2.231c-2.156,0.456 -4.964,0.683 -8.424,0.683l-42.439,0l0,-10.655l40.708,0c1.822,0 3.097,-0.303 3.825,-0.91c0.729,-0.608 1.093,-1.761 1.093,-3.461l0,-1.639c0,-1.822 -0.349,-2.96 -1.047,-3.416c-0.698,-0.455 -1.867,-0.683 -3.506,-0.683l-27.686,0c-2.792,0 -5.054,-0.273 -6.784,-0.819c-1.731,-0.547 -3.082,-1.366 -4.053,-2.459c-0.971,-1.093 -1.624,-2.444 -1.958,-4.053c-0.334,-1.609 -0.501,-3.506 -0.501,-5.692l0,-3.733c0,-2.125 0.228,-3.947 0.683,-5.465c0.456,-1.518 1.199,-2.747 2.231,-3.688c1.033,-0.941 2.429,-1.624 4.19,-2.049c1.76,-0.425 3.976,-0.638 6.648,-0.638l18.76,0l0,10.291l-15.482,0c-1.335,0 -2.292,0.243 -2.868,0.729c-0.577,0.486 -0.866,1.366 -0.866,2.641l0,2.277c0,1.396 0.274,2.337 0.82,2.823c0.546,0.486 1.427,0.728 2.641,0.728l26.775,0c3.157,0 5.737,0.258 7.741,0.775c2.003,0.516 3.582,1.335 4.735,2.458c1.154,1.124 1.943,2.581 2.368,4.372c0.425,1.791 0.638,3.992 0.638,6.602l-0,2.55Z" style="fill:#fff;fill-rule:nonzero;"/>
    </g>
</svg>
