<svg viewBox="0 0 200 40" xmlns="http://www.w3.org/2000/svg">
    <path d="M39.901 19.105V6.756c0-.193-.01-.386.015-.578a1.31 1.31 0 0 1 1.065-1.143 3.19 3.19 0 0 1 .515-.033h14.109c.115 0 .231-.005.347.005.718.058 1.205.539 1.273 1.262.018.193.009.386.009.579v12.266c.222.078.395.141.579.203 2.429.834 4.053 3.041 4.082 5.611.024 2.236.019 4.473 0 6.704-.014 1.837-1.374 3.273-3.148 3.364-1.735.087-3.234-1.19-3.47-2.973-.038-.285-.038-.579-.044-.864-.004-.462 0-.92 0-1.368-.429-.14-12.358-.188-13.279-.063-.014.135-.043.285-.043.429-.005.521.01 1.041-.005 1.562-.048 1.788-1.422 3.2-3.176 3.277-1.706.072-3.211-1.209-3.442-2.945a6.57 6.57 0 0 1-.043-.805c-.005-1.966.039-3.933-.01-5.895-.082-3.2 2.015-5.484 4.415-6.13.058-.024.126-.063.251-.116Zm8.69 1.229c-2.448 0-4.897-.014-7.34.005-2.507.019-4.58 1.923-4.661 4.376-.078 2.309-.039 4.628-.01 6.936.015 1.162.955 2.044 2.034 2.015 1.108-.029 1.933-.902 1.957-2.087.009-.579-.005-1.157.005-1.735.01-.989.516-1.514 1.489-1.514 4.338-.004 8.671-.004 13.009 0 .969 0 1.48.535 1.49 1.518.004.618-.024 1.235.014 1.851.077 1.321 1.253 2.208 2.483 1.905.906-.222 1.499-1.023 1.503-2.078.01-2.101.01-4.203 0-6.3-.009-2.906-2.004-4.887-4.92-4.892-2.353-.005-4.705-.005-7.053 0Zm-.732-7.365V6.37H41.27v6.599h6.589Zm-6.584 1.388c-.121.983-.077 4.208.053 4.598h6.526v-4.598h-6.579Zm14.561 4.598c.126-.828.082-6.193-.043-6.579h-6.531v6.579h6.574Zm.034-12.589h-6.599v4.584h6.599V6.366Z" style="fill:#ccc"/>
    <path d="M42.581 21.69a2.654 2.654 0 0 1 2.652 2.701 2.674 2.674 0 0 1-2.676 2.628 2.671 2.671 0 0 1-2.653-2.706 2.656 2.656 0 0 1 2.677-2.623Zm-.019 3.988a1.326 1.326 0 0 0 1.336-1.306 1.342 1.342 0 0 0-1.293-1.356 1.347 1.347 0 0 0-1.37 1.336c0 .723.603 1.317 1.327 1.326Zm9.357-1.321a2.638 2.638 0 0 1 2.677-2.667 2.664 2.664 0 0 1 2.647 2.648 2.678 2.678 0 0 1-2.686 2.677 2.66 2.66 0 0 1-2.638-2.658Zm3.984-.029a1.345 1.345 0 0 0-1.337-1.312 1.352 1.352 0 0 0-1.326 1.327 1.34 1.34 0 0 0 1.37 1.335 1.33 1.33 0 0 0 1.293-1.35ZM44.634 8.771c.275-.318.487-.593.737-.834.333-.323.695-.337.975-.077.298.28.284.651-.044 1.017-.115.13-.246.246-.367.371-.12.125-.236.251-.409.429.232.236.463.458.675.694.115.125.241.256.308.41.125.27.014.593-.241.761-.275.183-.554.169-.8-.043-.298-.265-.583-.549-.906-.858-.299.289-.564.564-.848.814-.381.333-.863.256-1.07-.159-.15-.298-.068-.558.149-.79.135-.14.27-.275.405-.41.121-.125.236-.25.409-.429a68.056 68.056 0 0 1-.602-.607c-.121-.125-.25-.245-.342-.39-.178-.29-.111-.612.144-.83a.63.63 0 0 1 .849.01c.308.251.583.545.978.921Zm7.919 8.893a2.01 2.01 0 0 1-1.99-1.991 1.99 1.99 0 0 1 2.038-1.995 2.005 2.005 0 0 1 1.967 2.01 2.019 2.019 0 0 1-2.015 1.976Zm.666-1.996a.671.671 0 0 0-.66-.66.658.658 0 0 0-.647.665c0 .357.309.666.656.66a.674.674 0 0 0 .651-.665Z" style="fill:#ccc"/>
    <path d="m78.43 23.113-.48 5.04c-1.28.52-2.9.78-4.86.78-2.52 0-4.325-.49-5.415-1.47-1.09-.98-1.635-2.49-1.635-4.53 0-.86.14-2.13.42-3.81.6-3.44 1.635-5.94 3.105-7.5 1.47-1.56 3.795-2.34 6.975-2.34.74 0 1.585.075 2.535.225.95.15 1.645.335 2.085.555l-1.68 4.59c-1.18-.28-2.285-.42-3.315-.42-1.03 0-1.765.1-2.205.3-.44.2-.71.6-.81 1.2l-1.38 7.86c.72.16 1.46.24 2.22.24 1.62 0 3.1-.24 4.44-.72Zm6.36 5.37h-6l7.89-18.75h8.82l1.32 18.75h-6.03l-.12-2.97h-4.71Zm5.13-12.99-2.1 5.25h2.4v-5.25Zm8.339 12.66 1.68-4.95c1.68.46 3.22.69 4.62.69s2.53-.06 3.39-.18l.24-1.5-2.49-.24c-1.9-.18-3.245-.61-4.035-1.29s-1.185-1.64-1.185-2.88c0-.54.06-1.14.18-1.8.46-2.56 1.295-4.32 2.505-5.28s3.085-1.44 5.625-1.44 4.78.25 6.72.75l-1.56 4.8c-1.74-.3-3.14-.45-4.2-.45s-1.96.05-2.7.15l-.24 1.47 2.01.21c2.04.22 3.49.705 4.35 1.455.86.75 1.29 1.755 1.29 3.015 0 1.28-.28 2.6-.84 3.96-.28.7-.585 1.285-.915 1.755-.33.47-.75.87-1.26 1.2-.51.33-.975.58-1.395.75-.42.17-.95.295-1.59.375-.94.14-2.09.21-3.45.21-2.48 0-4.73-.26-6.75-.78Zm26.37-18.42-2.49 14.07h2.04c.7 0 1.2-.095 1.5-.285.3-.19.51-.625.63-1.305l2.22-12.48h5.7l-1.86 10.53c-.3 1.7-.645 3.07-1.035 4.11-.39 1.04-.935 1.92-1.635 2.64-.7.72-1.565 1.22-2.595 1.5-1.03.28-2.335.42-3.915.42-2.42 0-4.115-.365-5.085-1.095-.97-.73-1.455-1.985-1.455-3.765 0-.98.14-2.25.42-3.81l1.86-10.53Zm13.889 18.75h-6l7.89-18.75h8.82l1.32 18.75h-6.03l-.12-2.97h-4.71Zm5.13-12.99-2.1 5.25h2.4v-5.25Zm20.279 12.99h-11.4l3.3-18.75h5.7l-2.46 13.95h5.7Z" style="white-space:pre;fill:#fff"/>
</svg>
