<?xml version="1.0" encoding="UTF-8"?>
<svg width="632px" height="56px" viewBox="0 0 632 56" version="1.1" xmlns="http://www.w3.org/2000/svg" xmlns:xlink="http://www.w3.org/1999/xlink">
    <title>auto-retroachievements</title>
    <g id="Page-1" stroke="none" stroke-width="1" fill="none" fill-rule="evenodd" opacity="0.78">
        <g id="Achievements" transform="translate(-4.000000, -32.000000)">
            <g id="auto-retroachievements" transform="translate(4.000000, 32.000000)">
                <path d="M57.7175885,5.52791719 L46.8068934,6.47059539 L46.4414586,2.29659242 C46.3849301,1.63179154 46.0642421,1.01678428 45.5503478,0.587642849 C45.0364534,0.158501417 44.3717173,-0.0493964446 43.7032144,0.00994729406 L15.1570185,2.47472057 C14.4884968,2.53115498 13.870157,2.85007865 13.4388209,3.36092244 C13.0074848,3.87176622 12.7987146,4.53241276 12.8587055,5.19667888 L13.2231335,9.37068186 L2.30841159,10.3133601 C1.64014659,10.3690385 1.02180682,10.6873223 0.590397146,11.1976896 C0.158987469,11.708057 -0.0498709078,12.3683673 0.0100985336,13.0323162 L0.5204992,18.8765208 C0.8456657,22.6001998 3.54162819,26.2238068 7.93489941,28.8206751 C11.4473016,30.9031734 15.5959429,32.0570035 19.8573355,32.1720863 C23.6284615,37.3237927 27.6754254,39.2341671 27.6754254,39.2341671 L28.3307919,46.7435697 L23.2942347,47.1778822 C19.5895513,47.4981126 16.7667437,49.9188542 17.0888901,53.5995022 L17.1986212,54.8534043 C17.2590236,55.5418996 17.8741219,56.055269 18.5667366,55.9952258 L49.629701,53.3132963 C50.3244478,53.2518286 50.8389237,52.6442985 50.7813743,51.9533178 L50.6716432,50.6994157 C50.3505035,47.0187677 47.1481672,45.1184005 43.4434839,45.4386309 L38.4069266,45.8729433 L37.7505533,38.3645414 C37.7505533,38.3645414 41.4069147,35.7876875 44.2256955,30.0675722 C48.4135984,29.2229645 52.3015025,27.3746348 55.3900809,24.7227269 C59.2558374,21.4123452 61.2913999,17.3804445 60.9662334,13.6557647 L60.4558327,7.81256087 C60.3990606,7.14801526 60.0782288,6.53335306 59.5643285,6.10458234 C59.0504283,5.67581162 58.385829,5.46828309 57.7175885,5.52791719 Z M11.3848858,23.0665353 C8.66576901,21.4513733 7.34194874,19.5049729 7.23624446,18.2961032 L7.09027188,16.6269023 L13.827158,16.0444833 C14.2308477,19.4359233 14.9919185,22.3760385 15.9573509,24.9208694 C14.3507874,24.5264806 12.8104982,23.9018261 11.3848858,23.0665353 L11.3848858,23.0665353 Z M54.2525015,14.2361823 C54.3984741,15.9143897 52.7223062,18.161006 50.9897627,19.6460745 C49.7285352,20.7146232 48.3169806,21.5942105 46.7998464,22.2569529 C47.3052135,19.5860313 47.5488367,16.5588534 47.3565556,13.1494004 L54.1065289,12.5669814 L54.2525015,14.2361823 L54.2525015,14.2361823 Z" id="Shape" fill="#E0B668" fill-rule="nonzero"></path>
                <path d="M30.4804345,12.0226806 C33.7811248,11.7372059 36.68897,14.1797528 36.9773143,17.4799636 C37.2628247,20.7806208 34.8202442,23.6885565 31.519648,23.9774129 C28.2187753,24.2622862 25.3111255,21.8194443 25.0227682,18.5191041 C24.7366894,15.2184611 27.1797094,12.3104613 30.4804345,12.0226806 L30.4804345,12.0226806 Z" id="Path" fill="#E1B347"></path>
                <path d="M30.4055088,11.025076 C31.3771181,10.9428403 32.3552119,11.063389 33.2778042,11.3790825 C34.8069758,11.9129752 36.1070862,12.9548744 36.9615231,14.3311888 C37.7023461,15.5412384 38.0612698,16.9465806 37.9914462,18.3637844 C37.9299023,19.5244075 37.5812999,20.651599 36.9769104,21.6442446 C36.2065417,22.9029904 35.0609966,23.888441 33.7014678,24.461931 C32.1671375,25.0976898 30.4579587,25.1725281 28.8739598,24.6733088 C27.6334056,24.2735436 26.5275156,23.5384456 25.6785312,22.5492699 C24.7402314,21.4469661 24.1642638,20.0822448 24.0290129,18.640833 C23.9260245,17.5117444 24.0981462,16.3745092 24.5306388,15.3265114 C25.1454233,13.8548967 26.238809,12.6339404 27.6337437,11.8613522 C28.4895365,11.3929732 29.4335318,11.108158 30.4055088,11.025076 L30.4055088,11.025076 Z M30.5593818,13.0198256 C29.591159,13.1068041 28.6689514,13.4728672 27.9045601,14.0736363 C26.8617621,14.9039316 26.188631,16.1122917 26.0314132,17.4361848 C25.9116269,18.5109726 26.1411157,19.5957711 26.6858862,20.5298937 C27.410282,21.7496353 28.6123765,22.6100553 30.00031,22.9022502 C31.121373,23.1285171 32.2860503,22.9660176 33.3024239,22.4415287 C34.3952942,21.8686002 35.2410108,20.9157177 35.6802742,19.7623666 C36.1403581,18.5281374 36.0991181,17.162787 35.5653824,15.9585925 C35.1108998,14.9539027 34.3407807,14.1251993 33.3721797,13.5985493 C32.510791,13.1361426 31.5332935,12.9350258 30.5593818,13.0198256 Z" id="Shape" fill="#E6D554" fill-rule="nonzero"></path>
                <path d="M29.7977244,18.7066398 C29.4395042,18.624486 29.1538049,18.3592019 29.049688,18.0120558 C28.9651689,17.7084801 29.030311,17.3834695 29.2256361,17.134207 L29.2472437,17.1078816 L29.8923865,16.3525469 C30.0617797,16.1566247 30.3012327,16.032284 30.5611949,16.0052549 L30.5941208,16.0022173 L30.6280757,16.0001923 C30.9834431,15.9933779 31.3170724,16.1680649 31.5098738,16.4618983 C31.6135087,16.6268532 31.6663984,16.8178043 31.6621563,17.0116929 L31.9132167,19.8588798 L31.940998,19.8568547 C31.9667214,19.8558422 31.9718661,19.8548297 31.9975894,19.8558422 C32.3814171,19.8586522 32.7310522,20.0735395 32.9020241,20.4117119 C33.0664203,20.7534124 33.0214615,21.1570648 32.7857544,21.4556129 C32.612907,21.666467 32.3611184,21.8000219 32.0871069,21.8261927 L30.0878844,21.9973074 C29.7841418,22.0191237 29.4861605,21.9075425 29.273996,21.692541 C29.0255508,21.4306103 28.9380729,21.0581043 29.0445433,20.7154659 C29.1235131,20.4756544 29.2914068,20.2739272 29.5147671,20.1504835 C29.6372104,20.0836577 29.7750878,20.0441697 29.9150231,20.0299945 L29.7977244,18.7066398 L29.7977244,18.7066398 Z" id="Path" fill="#E6D554" fill-rule="nonzero"></path>
                <path d="M79.9388775,43.417014 L75.3213005,49.5464301 L79.9388775,49.5464301 L79.9388775,51.8666887 L67.2425536,51.8666887 L67.2425536,43.6633428 C67.2425536,42.9253496 67.2979082,42.2956219 67.4096238,41.7731664 C67.5213393,41.2507109 67.7206158,40.8236085 68.0054402,40.4908659 C68.291271,40.1581233 68.6817723,39.9147743 69.1789569,39.7608188 C69.6751351,39.6078565 70.3011449,39.5303821 71.0589991,39.5303821 L71.9336012,39.5303821 C72.6662944,39.5303821 73.2711688,39.6128228 73.7482245,39.7767109 C74.2262866,39.9405991 74.6047105,40.1938807 74.8845027,40.5365559 C75.1632884,40.8802244 75.358539,41.3122931 75.4702546,41.8347486 C75.5819702,42.3572041 75.6383312,42.9769992 75.6383312,43.6941339 L75.6383312,45.5376271 L79.9388775,39.3923188 L79.9388775,43.417014 L79.9388775,43.417014 Z M71.2079532,41.8655397 C70.8728065,41.8655397 70.599053,41.8963308 70.3887057,41.957913 C70.1981202,42.0062388 70.0283732,42.1138576 69.9046049,42.2648308 C69.7928893,42.4088537 69.7184123,42.6084992 69.6811737,42.8637674 C69.6400514,43.1796081 69.621219,43.4978874 69.6248127,43.8163051 L69.6248127,49.5464301 L73.4976193,49.5464301 L73.4976193,43.8163051 C73.4976193,43.4378725 73.4784968,43.1230086 73.4412583,42.8717135 C73.4040197,42.6214116 73.3295427,42.4217661 73.2178271,42.2727768 C73.0964501,42.1175914 72.9260948,42.0067907 72.7337263,41.957913 C72.523379,41.8963308 72.2435868,41.8655397 71.8963627,41.8655397 L71.2079532,41.8655397 L71.2079532,41.8655397 Z M75.9171169,35.9973513 L76.3831017,35.9973513 C76.6930872,35.9973513 76.9416795,35.9764928 77.1278722,35.9357691 C77.2925668,35.9058804 77.4445772,35.8284512 77.56467,35.7132785 C77.6766312,35.5933016 77.7510752,35.4439497 77.7790431,35.2831964 C77.8162816,35.103416 77.8354041,34.8809255 77.8354041,34.6147314 L77.8354041,31.9110739 L79.9388775,31.9110739 L79.9388775,34.6147314 C79.9388775,35.9357691 79.6349306,36.8783742 79.0260304,37.4415534 C78.4181367,38.0047326 77.4438964,38.2858256 76.1033095,38.2858256 L73.776405,38.2858256 C73.0447183,38.2858256 72.4267601,38.2272232 71.9245432,38.1100183 C71.4213199,37.9918202 71.0187413,37.7872084 70.713788,37.4951895 C70.4098411,37.2031706 70.1894293,36.816792 70.053559,36.3350602 C69.9166823,35.8543217 69.8482439,35.2444592 69.8482439,34.5074592 L69.8482439,30.4817707 C69.8482439,29.8878004 69.9166823,29.3941495 70.053559,28.9998247 C70.1894293,28.6054999 70.3796477,28.2926226 70.6211949,28.062186 C70.8627421,27.8317493 71.1546116,27.670841 71.495797,27.5784677 C71.8572342,27.4836957 72.2299315,27.4372596 72.6038947,27.4404043 L75.9171169,27.4404043 L75.9171169,35.9973513 L75.9171169,35.9973513 Z M72.8273258,29.7298718 C72.4921791,29.7298718 72.268748,29.7984069 72.1570324,29.9364702 C72.0453168,30.0755268 71.9899623,30.3178826 71.9899623,30.6665174 L71.9899623,34.4766681 C71.9899623,34.7627274 72.005059,35.0040899 72.0362588,35.1987691 C72.0573813,35.3725344 72.1318311,35.5357726 72.2496255,35.6665953 C72.3825478,35.7959506 72.5507627,35.8843058 72.7337263,35.9208702 C72.9450801,35.9715265 73.2309109,35.9973513 73.5902124,35.9973513 L74.1306742,35.9973513 L74.1306742,29.7298718 L72.8273258,29.7298718 L72.8273258,29.7298718 Z M79.9388775,25.3048923 L72.1006714,25.3048923 L72.1006714,26.4729677 L69.8482439,26.4729677 L69.8482439,25.3048923 L67,25.3048923 L67,22.9697347 L69.8482439,22.9697347 L69.8482439,20.3425583 L72.1006714,20.3425583 L72.1006714,22.9697347 L79.9388775,22.9697347 L79.9388775,25.3048923 L79.9388775,25.3048923 Z M79.9388775,19.2370584 L74.0934357,19.2370584 C73.3355814,19.2370584 72.6904491,19.1655436 72.1570324,19.0215207 C71.6236157,18.878491 71.1858114,18.6510342 70.844626,18.3381568 C70.4915761,18.0075889 70.2317844,17.5920276 70.0907975,17.1323375 C69.9297661,16.6406731 69.8482439,16.0417365 69.8482439,15.3345343 L69.8482439,13.8446422 L72.1006714,13.8446422 L72.1006714,15.2739454 C72.1006714,15.5907958 72.1318712,15.8569898 72.1942709,16.0725276 C72.2566706,16.287072 72.3613411,16.4589062 72.5102951,16.587037 C72.6592492,16.7151677 72.8645644,16.807541 73.125234,16.8631636 C73.3859037,16.9197795 73.7150117,16.9475909 74.1115517,16.9475909 L79.9388775,16.9475909 L79.9388775,19.2370584 L79.9388775,19.2370584 Z M79.9388775,8.78993495 C79.9388775,9.55871928 79.8613811,10.1983796 79.7053819,10.7109025 C79.5503891,11.2224321 79.3028033,11.6326491 78.9616179,11.9395669 C78.619426,12.2464846 78.1735702,12.4640089 77.621031,12.5921396 C77.0684918,12.7202703 76.3891404,12.7848323 75.5819702,12.7848323 L74.2232673,12.7848323 C73.4171035,12.7848323 72.7337263,12.7202703 72.1751484,12.5921396 C71.617577,12.4640089 71.1676954,12.2464846 70.8255035,11.9395669 C70.4843181,11.6326491 70.2367323,11.2224321 70.0817395,10.7109025 C69.9257403,10.1983796 69.8482439,9.55871928 69.8482439,8.78993495 L69.8482439,6.00979628 C69.8482439,5.23107934 69.9257403,4.58645269 70.0817395,4.07392981 C70.2367323,3.56240019 70.4873375,3.15218323 70.835568,2.84526545 C71.1827921,2.53735442 71.635693,2.31983017 72.1942709,2.19169945 C72.7528488,2.06456199 73.4352196,2 74.2423897,2 L75.5819702,2 C76.3891404,2 77.0684918,2.06456199 77.621031,2.19169945 C78.1735702,2.31983017 78.619426,2.53735442 78.9616179,2.84526545 C79.3028033,3.15218323 79.5503891,3.56240019 79.7053819,4.07392981 C79.8613811,4.58645269 79.9388775,5.23107934 79.9388775,6.00979628 L79.9388775,8.78993495 Z M74.3168668,4.28946753 C73.8941592,4.28946753 73.5469351,4.31727885 73.2741881,4.37389475 C73.0014411,4.42951739 72.787068,4.53281658 72.6320752,4.68081253 C72.4770824,4.82980174 72.3714055,5.03640011 72.3150445,5.30259417 C72.2536156,5.63711871 72.2256362,5.97679001 72.2315094,6.31671406 L72.2315094,8.48301718 C72.2315094,8.89224088 72.2596899,9.22796323 72.3150445,9.48919098 C72.3714055,9.75041873 72.4770824,9.95503058 72.6320752,10.1040198 C72.787068,10.2520157 73.0014411,10.3543217 73.2741881,10.4109376 C73.5469351,10.4675535 73.8941592,10.4953648 74.3168668,10.4953648 L75.5074931,10.4953648 C75.9302007,10.4953648 76.2744054,10.4675535 76.5411138,10.4109376 C76.8078221,10.3543217 77.0191759,10.2520157 77.1741687,10.1040198 C77.3291615,9.95503058 77.4378577,9.75041873 77.5002574,9.48919098 C77.5616506,9.22796323 77.5928505,8.89224088 77.5928505,8.48301718 L77.5928505,6.31671406 C77.5928505,5.90749036 77.5616506,5.56978148 77.5002574,5.30259417 C77.4378577,5.03640011 77.3291615,4.82980174 77.1741687,4.68081253 C76.9969304,4.52130305 76.7773642,4.41485296 76.5411138,4.37389475 C76.2004015,4.31097293 75.8540513,4.28268269 75.5074931,4.28946753 L74.3168668,4.28946753 Z M125.47958,41.0977486 L97.1219404,41.0977486 L91.2946145,51.9620418 L80.7812733,51.9620418 L104.571658,8.36680559 C105.29328,7.02888248 106.153792,5.92139602 107.155207,5.04533946 C108.156621,4.16828964 109.598859,3.73026136 111.480914,3.73026136 C113.323718,3.73026136 114.74482,4.16828964 115.746235,5.04533946 C116.747649,5.92139602 117.609167,7.02888248 118.329783,8.36680559 L142.000401,51.9620418 L131.426673,51.9620418 L125.47958,41.0977486 L125.47958,41.0977486 Z M101.387261,33.0016749 L121.213253,33.0016749 L111.30076,14.386963 L101.387261,33.0016749 Z M159.543772,51.9620418 C156.540535,51.9620418 154.036496,51.673996 152.034673,51.0969112 C150.031845,50.5198263 148.429582,49.5980797 147.227884,48.3286916 C146.026187,47.0602968 145.17574,45.3995637 144.674529,43.3464924 C144.174325,41.2934211 143.92372,38.7675574 143.92372,35.7689012 L143.92372,30.7181669 C143.92372,27.7195108 144.174325,25.1817279 144.674529,23.1058116 C145.17574,21.0298952 146.026187,19.357243 147.227884,18.0888482 C148.429582,16.8204534 150.031845,15.8977136 152.034673,15.3206287 C154.036496,14.7445371 156.540535,14.455498 159.543772,14.455498 L183.094622,14.455498 L183.094622,23.3134032 L159.844699,23.3134032 C158.442719,23.3134032 157.291344,23.4286215 156.389568,23.6590582 C155.488798,23.8904881 154.778247,24.2937522 154.256908,24.8708371 C153.736575,25.4469287 153.376267,26.2425311 153.175984,27.2576442 C152.975701,28.2727574 152.875056,29.5411522 152.875056,31.0638219 L152.875056,35.4927745 C152.875056,36.968761 152.975701,38.2023916 153.175984,39.1946598 C153.376267,40.1869279 153.736575,40.9825303 154.256908,41.5824602 C154.778247,42.1813968 155.488798,42.6084992 156.389568,42.8617809 C157.291344,43.1160558 158.442719,43.2431932 159.844699,43.2431932 L183.155009,43.2431932 L183.155009,51.9620418 L159.543772,51.9620418 Z M223.467221,51.9620418 L223.467221,31.0638219 C223.467221,29.4954622 223.357518,28.2032291 223.137107,27.1881159 C222.916695,26.173996 222.546322,25.3774004 222.025989,24.8013088 C221.50465,24.2242239 220.784034,23.8328789 219.863136,23.6252873 C218.941231,23.4176956 217.79992,23.3134032 216.438198,23.3134032 L198.594906,23.3134032 L198.594906,51.9620418 L189.64357,51.9620418 L189.64357,2.34565497 L198.594906,2.34565497 L198.594906,14.455498 L216.678739,14.455498 C219.722233,14.455498 222.255459,14.7445371 224.278417,15.3206287 C226.301375,15.8977136 227.913702,16.8204534 229.114393,18.0888482 C230.31609,19.357243 231.167544,21.0298952 231.667748,23.1058116 C232.168958,25.1817279 232.419564,27.7195108 232.419564,30.7181669 L232.419564,51.9620418 L223.467221,51.9620418 L223.467221,51.9620418 Z M239.327813,51.9620418 L239.327813,15.4249211 L248.460309,15.4249211 L248.460309,51.9620418 L239.327813,51.9620418 Z M242.392443,12.3110466 C241.270255,12.3110466 240.479188,12.0567717 240.019242,11.5492151 C239.558289,11.0416586 239.327813,10.2351303 239.327813,9.12764383 L239.327813,5.1138745 C239.327813,4.00638803 239.558289,3.21078565 240.019242,2.72706735 C240.479188,2.24235578 241.270255,2 242.392443,2 L245.336299,2 C246.497739,2 247.308935,2.24235578 247.768881,2.72706735 C248.229833,3.21078565 248.460309,4.00638803 248.460309,5.1138745 L248.460309,9.12764383 C248.460309,10.2351303 248.229833,11.0416586 247.768881,11.5492151 C247.308935,12.0567717 246.497739,12.3110466 245.336299,12.3110466 L242.392443,12.3110466 L242.392443,12.3110466 Z M264.200128,37.014451 L264.200128,38.7447123 C264.200128,39.8978888 264.280644,40.8206287 264.440669,41.5129319 C264.600694,42.2052351 264.891557,42.7465625 265.312251,43.1389008 C265.732946,43.531239 266.293537,43.7964398 266.994024,43.9345032 C267.695517,44.0735598 268.566093,44.1420948 269.607765,44.1420948 L280.181493,44.1420948 L280.181493,51.9620418 L269.607765,51.9620418 C264.440669,51.9620418 260.756068,50.8317104 258.552956,48.5710474 C256.350851,46.3103845 255.248792,42.6889534 255.248792,37.7067542 L255.248792,29.0574339 C255.248792,26.3349044 255.479268,24.0404705 255.940221,22.1721458 C256.400167,20.3028279 257.201298,18.8039964 258.342609,17.6736649 C259.484926,16.5433335 260.996608,15.7248861 262.878664,15.2173295 C264.761725,14.7097729 267.143984,14.455498 270.02846,14.455498 L285.768279,14.455498 C288.092164,14.455498 290.024541,14.7097729 291.566417,15.2173295 C293.108294,15.7248861 294.33012,16.4281151 295.23089,17.32801 C296.132666,18.2269115 296.762701,19.311553 297.124016,20.5799478 C297.484323,21.8483426 297.664477,23.2210299 297.664477,24.6970163 L297.664477,37.014451 L264.200128,37.014451 Z M288.712135,25.5273829 C288.712135,24.2818331 288.442407,23.4514665 287.901945,23.0362833 C287.360477,22.6211 286.409385,22.4135084 285.047663,22.4135084 L270.148227,22.4135084 C269.027046,22.4135084 268.086018,22.4711175 267.325145,22.5873291 C266.563265,22.7025474 265.953358,22.9677482 265.492405,23.3829315 C265.031453,23.7981148 264.701338,24.3980446 264.501055,25.1817279 C264.300773,25.9664044 264.200128,27.0272076 264.200128,28.3651307 L264.200128,30.3715187 L288.712135,30.3715187 L288.712135,25.5273829 Z M332.570058,49.4709422 C331.888694,50.5317454 331.097627,51.384957 330.196857,52.0315701 C329.295081,52.67719 328.044068,53 326.441805,53 C324.760033,53 323.47782,52.67719 322.597179,52.0315701 C321.715532,51.384957 320.934529,50.5317454 320.254171,49.4709422 L298.805788,14.455498 L309.499283,14.455498 L326.561572,43.1736649 L343.443708,14.455498 L354.017436,14.455498 L332.570058,49.4709422 Z M363.810161,37.014451 L363.810161,38.7447123 C363.810161,39.8978888 363.890677,40.8206287 364.050702,41.5129319 C364.210727,42.2052351 364.50159,42.7465625 364.922285,43.1389008 C365.342979,43.531239 365.90357,43.7964398 366.604057,43.9345032 C367.304544,44.0735598 368.176126,44.1420948 369.217799,44.1420948 L379.791527,44.1420948 L379.791527,51.9620418 L369.217799,51.9620418 C364.050702,51.9620418 360.366101,50.8317104 358.162989,48.5710474 C355.959878,46.3103845 354.858825,42.6889534 354.858825,37.7067542 L354.858825,29.0574339 C354.858825,26.3349044 355.089301,24.0404705 355.549247,22.1721458 C356.0102,20.3028279 356.811331,18.8039964 357.952642,17.6736649 C359.093952,16.5433335 360.606641,15.7248861 362.488697,15.2173295 C364.370752,14.7097729 366.754017,14.455498 369.638493,14.455498 L385.378312,14.455498 C387.70119,14.455498 389.634574,14.7097729 391.176451,15.2173295 C392.718327,15.7248861 393.940153,16.4281151 394.840923,17.32801 C395.741692,18.2269115 396.372734,19.311553 396.733042,20.5799478 C397.094357,21.8483426 397.274511,23.2210299 397.274511,24.6970163 L397.274511,37.014451 L363.810161,37.014451 Z M388.322168,25.5273829 C388.322168,24.2818331 388.05244,23.4514665 387.510972,23.0362833 C386.97051,22.6211 386.019418,22.4135084 384.657696,22.4135084 L369.75826,22.4135084 C368.637079,22.4135084 367.695045,22.4711175 366.934171,22.5873291 C366.173298,22.7025474 365.562385,22.9677482 365.102438,23.3829315 C364.641486,23.7981148 364.311371,24.3980446 364.111089,25.1817279 C363.910806,25.9664044 363.810161,27.0272076 363.810161,28.3651307 L363.810161,30.3715187 L388.322168,30.3715187 L388.322168,25.5273829 L388.322168,25.5273829 Z M454.948933,51.9620418 L454.948933,29.4030888 C454.948933,27.0500526 454.558432,25.4469287 453.777429,24.5937171 C452.996427,23.7405056 451.745414,23.3134032 450.023383,23.3134032 L444.195051,23.3134032 C442.873587,23.3134032 441.782599,23.4176956 440.92108,23.6252873 C440.059562,23.8328789 439.379204,24.1785339 438.877994,24.6632454 C438.37779,25.1469637 438.027546,25.7697386 437.827263,26.5315701 C437.626981,27.2924084 437.526336,28.2499124 437.526336,29.4030888 L437.526336,51.9620418 L429.655924,51.9620418 L429.655924,29.4030888 C429.655924,28.2499124 429.56635,27.2924084 429.386196,26.5315701 C429.206042,25.7697386 428.864856,25.1469637 428.364653,24.6632454 C427.864449,24.1785339 427.17302,23.8328789 426.292379,23.6252873 C425.410732,23.4176956 424.28955,23.3134032 422.927828,23.3134032 L417.220269,23.3134032 C415.417723,23.3134032 414.146581,23.7405056 413.40483,24.5937171 C412.664086,25.4469287 412.293713,27.0500526 412.293713,29.4030888 L412.293713,51.9620418 L403.581911,51.9620418 L403.581911,27.8804191 C403.581911,25.5740661 403.782194,23.578604 404.18276,21.8950259 C404.583326,20.2114478 405.244561,18.8159156 406.16546,17.7084291 C407.087365,16.6009426 408.288056,15.7824952 409.770552,15.2520936 C411.252041,14.7216921 413.074716,14.455498 415.237569,14.455498 L423.107982,14.455498 C424.749496,14.455498 426.161541,14.5945546 427.343109,14.8706813 C428.524678,15.1478012 429.526092,15.5520586 430.347352,16.0824602 C431.158737,16.6030451 431.837281,17.3015939 432.330052,18.1236124 C432.830256,18.9539789 433.240886,19.9224088 433.561943,21.0298952 C434.122534,18.8159156 435.193393,17.1661084 436.775527,16.0824602 C438.357661,14.9978187 440.750991,14.455498 443.95451,14.455498 L452.065464,14.455498 C454.228317,14.455498 456.050992,14.7216921 457.532482,15.2520936 C459.014977,15.7824952 460.216675,16.6009426 461.137573,17.7084291 C462.058472,18.8159156 462.719707,20.2114478 463.120273,21.8950259 C463.520839,23.578604 463.721122,25.5740661 463.721122,27.8804191 L463.721122,51.9620418 L454.948933,51.9620418 L454.948933,51.9620418 Z M479.280786,37.014451 L479.280786,38.7447123 C479.280786,39.8978888 479.361302,40.8206287 479.521327,41.5129319 C479.681352,42.2052351 479.972215,42.7465625 480.39291,43.1389008 C480.812598,43.531239 481.374195,43.7964398 482.074682,43.9345032 C482.775169,44.0735598 483.646751,44.1420948 484.688424,44.1420948 L495.262152,44.1420948 L495.262152,51.9620418 L484.688424,51.9620418 C479.521327,51.9620418 475.836726,50.8317104 473.633614,48.5710474 C471.430503,46.3103845 470.32945,42.6889534 470.32945,37.7067542 L470.32945,29.0574339 C470.32945,26.3349044 470.559926,24.0404705 471.019872,22.1721458 C471.480825,20.3028279 472.281956,18.8039964 473.423267,17.6736649 C474.564577,16.5433335 476.077267,15.7248861 477.959322,15.2173295 C479.841377,14.7097729 482.224642,14.455498 485.109118,14.455498 L500.848937,14.455498 C503.171816,14.455498 505.105199,14.7097729 506.647076,15.2173295 C508.188952,15.7248861 509.410778,16.4281151 510.311548,17.32801 C511.212317,18.2269115 511.84336,19.311553 512.203667,20.5799478 C512.564982,21.8483426 512.745136,23.2210299 512.745136,24.6970163 L512.745136,37.014451 L479.280786,37.014451 L479.280786,37.014451 Z M503.792793,25.5273829 C503.792793,24.2818331 503.523065,23.4514665 502.981597,23.0362833 C502.441135,22.6211 501.490043,22.4135084 500.128321,22.4135084 L485.228886,22.4135084 C484.107704,22.4135084 483.16567,22.4711175 482.404796,22.5873291 C481.643923,22.7025474 481.03301,22.9677482 480.573064,23.3829315 C480.112111,23.7981148 479.781997,24.3980446 479.581714,25.1817279 C479.381431,25.9664044 479.280786,27.0272076 479.280786,28.3651307 L479.280786,30.3715187 L503.792793,30.3715187 L503.792793,25.5273829 L503.792793,25.5273829 Z M552.276345,51.9620418 L552.276345,31.0638219 C552.276345,29.4954622 552.165636,28.2151482 551.946231,27.2228801 C551.725819,26.2316052 551.345382,25.4469287 550.803914,24.8708371 C550.263452,24.2937522 549.522707,23.8904881 548.58168,23.6590582 C547.640652,23.4286215 546.449019,23.3134032 545.006781,23.3134032 L535.274443,23.3134032 C533.872463,23.3134032 532.700959,23.4286215 531.759931,23.6590582 C530.817897,23.8904881 530.067088,24.2937522 529.506497,24.8708371 C528.945907,25.4469287 528.555405,26.2316052 528.334994,27.2228801 C528.114582,28.2151482 528.004879,29.4954622 528.004879,31.0638219 L528.004879,51.9620418 L519.052537,51.9620418 L519.052537,30.7181669 C519.052537,27.7195108 519.303142,25.1817279 519.804352,23.1058116 C520.304556,21.0298952 521.15601,19.357243 522.357707,18.0888482 C523.558398,16.8204534 525.160661,15.8977136 527.16349,15.3206287 C529.166318,14.7445371 531.669351,14.455498 534.673594,14.455498 L545.547243,14.455498 C548.591744,14.455498 551.114906,14.7445371 553.117735,15.3206287 C555.119557,15.8977136 556.72182,16.8204534 557.923517,18.0888482 C559.125214,19.357243 559.976668,21.0298952 560.476872,23.1058116 C560.978083,25.1817279 561.227681,27.7195108 561.227681,30.7181669 L561.227681,51.9620418 L552.276345,51.9620418 L552.276345,51.9620418 Z M569.99987,51.9620418 L569.99987,22.8286916 L565.433622,22.8286916 L565.433622,14.455498 L569.99987,14.455498 L569.99987,3.8683247 L579.13136,3.8683247 L579.13136,14.455498 L589.405167,14.455498 L589.405167,22.8286916 L579.13136,22.8286916 L579.13136,51.9620418 L569.99987,51.9620418 Z M632,41.9976434 C632,43.8421299 631.860104,45.3995637 631.579305,46.6679586 C631.299513,47.9363534 630.748987,48.9633857 629.927726,49.7470689 C629.106466,50.5317454 627.985285,51.0969112 626.563175,51.4425661 C625.141066,51.7892143 623.289205,51.9620418 621.005577,51.9620418 L593.009252,51.9620418 L593.009252,43.8659681 L619.864267,43.8659681 C621.065964,43.8659681 621.907353,43.6345382 622.387429,43.1736649 C622.86851,42.7117984 623.109051,41.8357418 623.109051,40.544502 L623.109051,39.2989522 C623.109051,37.9143458 622.878574,37.0492151 622.417622,36.7035602 C621.956669,36.3579052 621.185731,36.1840844 620.104808,36.1840844 L601.840821,36.1840844 C599.999024,36.1840844 598.506464,35.9764928 597.365153,35.5613095 C596.223843,35.1461263 595.332131,34.5233514 594.692031,33.6929848 C594.050924,32.8626183 593.620165,31.8365793 593.399753,30.6138745 C593.179342,29.3911697 593.069639,27.9499474 593.069639,26.2892143 L593.069639,23.4514665 C593.069639,21.8374167 593.2196,20.4528103 593.520527,19.2996339 C593.820448,18.1464574 594.311594,17.2127916 594.991952,16.4976434 C595.673316,15.7824952 596.594215,15.2630195 597.755654,14.9402096 C598.917094,14.6173996 600.379461,14.455498 602.141749,14.455498 L614.517016,14.455498 L614.517016,22.275445 L604.304602,22.275445 C603.422955,22.275445 602.791913,22.4601916 602.411476,22.8286916 C602.03104,23.1981849 601.840821,23.8666498 601.840821,24.8360729 L601.840821,26.565341 C601.840821,27.6271375 602.020975,28.3422857 602.381283,28.7107857 C602.742597,29.0802789 603.323317,29.2650255 604.123442,29.2650255 L621.78658,29.2650255 C623.869924,29.2650255 625.571826,29.460698 626.89329,29.8530363 C628.215761,30.2453745 629.256427,30.8681494 630.0173,31.721361 C630.778174,32.5745725 631.299513,33.682059 631.579305,35.0428271 C631.860104,36.4035952 632,38.0762474 632,40.0597904 L632,41.9976434 L632,41.9976434 Z" id="Shape" fill="#FFFFFF" fill-rule="nonzero"></path>
            </g>
        </g>
    </g>
</svg>