<svg viewBox="0 0 200 40" xmlns="http://www.w3.org/2000/svg">
    <path d="M46.716 16.773a3.343 3.343 0 0 1-3.323-3.341 3.346 3.346 0 0 1 3.33-3.334c1.838-.007 3.372 1.534 3.355 3.362a3.365 3.365 0 0 1-3.362 3.313Zm-9.341-4.487V9.955c1.31 1.02 2.544 1.985 3.816 2.974-1.272 1.094-2.502 2.156-3.809 3.278v-2.331c-1.485.056-2.922.136-4.253.744-.993.455-1.374 1.37-1.482 2.377-.105.982-.108 1.974-.157 3.005h-1.51c-.014-1.307-.108-2.645.241-3.956.332-1.24.979-2.271 2.181-2.816a9.433 9.433 0 0 1 2.069-.647c.79-.157 1.607-.189 2.411-.273.154-.014.304-.014.493-.024Zm3.578 15.342v2.327c-1.303-1.017-2.54-1.978-3.809-2.967 1.265-1.087 2.495-2.149 3.788-3.261v2.359c.919-.104 1.786-.185 2.649-.304.371-.052.731-.174 1.094-.276 1.066-.293 1.699-1.024 1.898-2.072.147-.776.171-1.576.23-2.369.028-.374.004-.752.004-1.161h1.562c.014 1.709.136 3.429-.667 5.029-.64 1.272-1.737 1.954-3.079 2.226-1.049.213-2.125.301-3.187.441-.151.021-.301.017-.483.028Zm-8.446.223c-.975-.01-1.783-.832-1.769-1.8a1.796 1.796 0 0 1 1.807-1.761c.979.011 1.786.832 1.768 1.8a1.797 1.797 0 0 1-1.806 1.761Z" style="fill:#ccc"/>
    <path d="M66.815 10.846h6.03l-7.71 18.75h-8.34l-1.11-18.75h6.33v11.91h.27Zm8.429 18.75h-6l7.89-18.75h8.82l1.32 18.75h-6.03l-.12-2.97h-4.71Zm5.13-12.99-2.1 5.25h2.4v-5.25Zm24.42 12.99h-6.27l-1.38-5.58h-1.23l-.96 5.58h-5.7l3.3-18.75h9c3.42 0 5.13 1.53 5.13 4.59 0 1.26-.19 2.46-.57 3.6-.7 2.16-1.8 3.6-3.3 4.32Zm-7.41-13.95-.66 3.75h1.32c.68 0 1.195-.075 1.545-.225.35-.15.59-.58.72-1.29.13-.71.195-1.145.195-1.305 0-.4-.155-.655-.465-.765-.31-.11-.815-.165-1.515-.165Zm9.599 13.95 3.3-18.75h5.7l-3.3 18.75Zm16.71-12.48-1.38 7.8h2.37c.78 0 1.36-.095 1.74-.285.38-.19.63-.625.75-1.305l1.38-7.8h-2.4c-.76 0-1.33.095-1.71.285-.38.19-.63.625-.75 1.305Zm3.45-6.72c2.54 0 4.35.495 5.43 1.485 1.08.99 1.62 2.515 1.62 4.575s-.325 4.215-.975 6.465c-.65 2.25-1.68 4-3.09 5.25s-3.47 1.875-6.18 1.875c-2.71 0-4.605-.495-5.685-1.485-1.08-.99-1.62-2.515-1.62-4.575 0-.98.14-2.275.42-3.885.28-1.61.65-3 1.11-4.17.46-1.17 1.08-2.185 1.86-3.045 1.5-1.66 3.87-2.49 7.11-2.49Zm16.559.45-2.49 14.07h2.04c.7 0 1.2-.095 1.5-.285.3-.19.51-.625.63-1.305l2.22-12.48h5.7l-1.86 10.53c-.3 1.7-.645 3.07-1.035 4.11-.39 1.04-.935 1.92-1.635 2.64-.7.72-1.565 1.22-2.595 1.5-1.03.28-2.335.42-3.915.42-2.42 0-4.115-.365-5.085-1.095-.97-.73-1.455-1.985-1.455-3.765 0-.98.14-2.25.42-3.81l1.86-10.53Zm9.09 18.42 1.68-4.95c1.68.46 3.22.69 4.62.69s2.53-.06 3.39-.18l.24-1.5-2.49-.24c-1.9-.18-3.245-.61-4.035-1.29s-1.185-1.64-1.185-2.88c0-.54.06-1.14.18-1.8.46-2.56 1.295-4.32 2.505-5.28s3.085-1.44 5.625-1.44 4.78.25 6.72.75l-1.56 4.8c-1.74-.3-3.14-.45-4.2-.45s-1.96.05-2.7.15l-.24 1.47 2.01.21c2.04.22 3.49.705 4.35 1.455.86.75 1.29 1.755 1.29 3.015 0 1.28-.28 2.6-.84 3.96-.28.7-.585 1.285-.915 1.755-.33.47-.75.87-1.26 1.2-.51.33-.975.58-1.395.75-.42.17-.95.295-1.59.375-.94.14-2.09.21-3.45.21-2.48 0-4.73-.26-6.75-.78Z" style="white-space:pre;fill:#fff"/>
</svg>
