<svg viewBox="0 0 264 37" xmlns="http://www.w3.org/2000/svg">
    <path d="M230.772 18.551c0-8.1 6.61-14.694 14.715-14.694 8.115 0 14.73 6.594 14.73 14.694 0 8.081-6.615 14.675-14.73 14.675-8.105 0-14.715-6.594-14.715-14.675Zm-3.793 0c0 10.163 8.306 18.449 18.508 18.449C255.684 37 264 28.714 264 18.551 264 8.359 255.684.078 245.487.078c-10.202 0-18.508 8.281-18.508 18.473m-2.19-17.319H203.64v3.769h8.678V37h3.793V5.001h8.678V1.232m-66.073 31.994V20.189h11.177V16.41h-11.177V5.001h11.177V1.232h-14.946V37h16.641v-3.774h-12.872M136.621 3.989c3.91 0 7.1 3.177 7.1 7.083 0 3.911-3.19 7.093-7.1 7.093-3.925 0-7.12-3.182-7.12-7.093 0-3.906 3.195-7.083 7.12-7.083Zm-10.883 8.589v24.398h3.763V19.553l13.96 17.423 4.822.024-12.059-15.1c.108 0 .269.024.397.024 5.998 0 10.873-4.864 10.873-10.852S142.619.23 136.621.23c-6.008 0-10.883 4.854-10.883 10.842v1.506m-19.243 8.75c-4.871 0-8.781-3.911-8.781-8.75 0-4.776 3.91-8.721 8.781-8.721 4.797 0 8.727 3.945 8.727 8.721 0 4.839-3.93 8.75-8.727 8.75Zm-12.584-7.22V37h3.803V21.538c2.234 2.215 5.346 3.564 8.781 3.564 6.88 0 12.515-5.592 12.515-12.524 0-6.868-5.635-12.5-12.515-12.5-6.963 0-12.584 5.632-12.584 12.5v1.53M3.749 18.781l6.336.025c3.969 0 7.183 3.226 7.183 7.176 0 4.018-3.214 7.244-7.183 7.244H3.724l.025-14.445Zm0-9.346c.019-1.482.695-2.958 1.769-3.989a5.634 5.634 0 0 1 3.959-1.53 5.556 5.556 0 0 1 3.9 1.686 5.598 5.598 0 0 1 1.549 3.935c-.054 2.884-2.538 5.309-5.508 5.412H3.749V9.435ZM10.085 37c6.076 0 11.044-4.976 11.044-11.043 0-4.077-2.268-7.64-5.581-9.547 1.926-1.667 3.18-4.096 3.2-6.819a9.195 9.195 0 0 0-2.627-6.638A9.453 9.453 0 0 0 9.536.078a9.357 9.357 0 0 0-6.674 2.635C1.068 4.453.044 6.775.02 9.283L0 37h10.085M179.12 9.733c0 3.578 1.617 8.163 9.344 9.674 5.248 1.017 7.762 2.258 7.762 6.536 0 4.028-3.312 7.313-7.35 7.313a7.402 7.402 0 0 1-6.904-4.791l-3.499 1.281A11.113 11.113 0 0 0 188.876 37c6.13 0 11.069-4.976 11.069-11.057 0-8.11-6.997-9.479-10.765-10.212-5.65-1.124-6.292-3.965-6.292-5.998a5.988 5.988 0 0 1 5.988-5.998c2.911 0 4.871 2.982 5.395 3.93l3.259-1.843C196.741 4.439 193.786 0 188.876 0c-5.4 0-9.756 4.361-9.756 9.733M32.248 19.456v-6.355c0-8.975 7.056-9.244 7.845-9.244.818 0 7.884.269 7.884 9.244v6.355H32.248ZM40.093.078C36.08.078 28.45 2.801 28.45 13.101V37h3.798V23.23h15.729V37h3.783V13.101c0-10.3-7.62-13.023-11.667-13.023m20.419 13.023V37h3.768V13.101c0-8.975 7.84-9.244 8.757-9.244.896 0 8.737.269 8.737 9.244V37h3.773V13.101c0-10.3-8.198-13.023-12.51-13.023-4.347 0-12.525 2.723-12.525 13.023" style="fill:#fff;fill-opacity:1;fill-rule:nonzero;stroke:none"/>
</svg>
