<svg viewBox="0 0 264 109" xmlns="http://www.w3.org/2000/svg">
    <path d="M42.323.016v2.295h6.335c.49 2.219.49 2.219 2.529 2.67.047.459.102.926.172 1.588h1.984c.522.521.374 2.443-.373 4.078.755.303 1.502.607 2.373.957v6.164c-.482.078-1.027.164-1.673.265v3.922h-2.249c-.094.833-.179 1.572-.273 2.413H46.51c.14 1.681-.56 3.315.716 4.841h3.907c-.016 1.681.623 2.677 2.483 2.444v4.015h1.385c.187.179.327.242.327.312.008 2.848.008 5.705.008 8.662h-1.627v4.179c-.872.047-1.541.086-2.327.133v2.171c-.833.093-1.564.171-2.405.265v1.603h-6.584c-.047.872-.078 1.541-.117 2.335H.07V44.837h3.993c.039-.849.109-1.604.109-2.351.007-9.44-.008-18.873.023-28.314 0-.825-.413-1.805.552-2.498-1.19-1.805-3.097-.42-4.747-1.206V.008c14.11.008 28.22.008 42.323.008Zm-4.18 42.213h4.125v-4.693h-2.241c-.07-.677-.125-1.144-.179-1.634-.592-.101-1.136-.187-1.767-.288v-2.078c-.98-.226-2.125-.856-2.669-.521-.997.607-1.915.35-2.833.358-5.635.046-11.27.023-16.951.023v13.651H35.24c.265-.755.545-1.526.857-2.405h2.062c-.016-.77-.016-1.432-.016-2.413ZM17.978 24.352h15.301c.094-.832.171-1.572.273-2.428.451.171.716.257.957.381.241.125.467.288.809.506 1.261-1.65 3.176-.085 4.717-1.097v-1.541h4.568v-4.678h-4.685v-2.404h-3.876c-.335-.88-.638-1.65-.872-2.265H15.573v11.269c.685.249 1.448.53 2.25.825.038.413.093.88.155 1.432ZM247.991.016c.039.863-.319 1.875 1.307 2.358h3.292c.179 1.284.296 2.809 2.366 2.342.109.607.203 1.152.319 1.798.662.039 1.331.07 2.203.117v2.265l2.42.109v4.031c.677.07 1.144.125 1.713.187v8.74c.832.062 1.572.125 2.389.187v11.207h-2.28v8.872h-1.713v4.195h-2.373c-.063.833-.125 1.572-.187 2.405-.724.039-1.393.078-2.273.125v2.303h-2.311v1.658h-3.946c-.311.413-.607.794-.981 1.292.148.288.35.677.6 1.144h-38.043c-.14-3.409-.015-6.919-.078-10.538h3.798l.989-.988c0-10.281 0-20.593.008-30.913 0-.81.062-1.596-.997-2.164h-3.774V.008c12.514.008 25.029.008 37.552.008ZM246.1 15.527v-2.413h-3.791c-.334-.887-.622-1.658-.887-2.374-4.607 0-8.966.008-13.324-.008-.809 0-1.588-.038-2.024.771V44.65h15.924c.039-.802.07-1.549.109-2.382h4.117c-.358-1.961.895-2.342 2.312-2.521.054-.498.101-.965.155-1.51.794-.055 1.533-.109 2.218-.156V19.76c-.809-.062-1.549-.116-2.381-.171v-4.055c-.779-.007-1.448-.007-2.428-.007ZM120.415.016v10.639h-4.086v33.948c-.825.07-1.564.132-2.412.21v3.931c-1.588.062-2.732.552-2.46 2.467h-1.611c-.109.63-.194 1.175-.303 1.821h-3.993c-.288.7-.56 1.377-.934 2.28H80.544v-2.179h-4.133c-.07-.669-.124-1.144-.186-1.728h-2.156c-.094-.832-.171-1.564-.265-2.405h-2.195v-4.023c-.902-.28-1.595-.498-2.443-.755V10.764h-4.195V.023h19.675v10.842h-4.172V33.1c0 1.292.358 2.724-.101 3.822-.42 1.003.101 1.969-.397 2.832 1.806.226 1.806.226 2.732 1.261l-.592.592c.919.397 1.736.747 2.67 1.159v4.351c5.479 0 10.826-.008 16.18.008.809 0 1.596.062 2.265-1.199v-3.689h2.304v-3.93c.638-.094 1.183-.179 1.704-.257V13.262a315.63 315.63 0 0 0-1.455-.226c-.335-.895-.592-1.58-.895-2.397h-4.141V.016h19.667Zm58.426 0v10.631h-3.58c-1.261.677-1.199 1.463-1.199 2.272.016 3.775.008 7.542.008 11.317v19.589l.887.887h15.099v-4.67h10.639l.716.716v14.617H159.29v-10.64h3.938V10.74h-4.062V0c6.561.016 13.114.016 19.675.016Zm-29.209 0v10.623h-4.078v34.073h3.977v10.554c.046-.039-.024.038-.101.085a.545.545 0 0 1-.257.094c-6.336.007-12.671 0-19.107 0V44.813h3.977V10.849h-4.078V.008c6.553.008 13.106.008 19.667.008Zm34.081 109.029h-11.34V58.573h11.176l.109 1.596h2.327c-.895 1.424-.474 2.747-.63 4.218.763.28 1.447.537 2.304.856v1.378c.832.085 1.564.163 2.404.256v4.53c.833.078 1.573.148 2.421.226v2.14c.63.101 1.175.187 1.821.288v3.923h2.249c.094.832.179 1.572.273 2.412h2.132v4.102c.771.334 1.518.653 2.421 1.05v1.401c.832.039 1.572.078 2.412.117V58.573h10.725v50.409h-10.6c-.031-.7-.07-1.369-.109-2.148h-2.234v-4.202h-2.381c-.063-.833-.117-1.58-.179-2.382-.53-.054-1.004-.101-1.596-.156v-3.953c-.833-.086-1.564-.164-2.405-.249v-2.148c-.832-.078-1.572-.148-2.42-.234v-4.623h-2.327c-.078-.677-.133-1.144-.187-1.58-.778-.28-1.549-.56-2.358-.856v-4.086c-.568-.054-1.035-.093-1.72-.163v-2.249h-2.312c.024 9.635.024 19.239.024 29.092ZM62.488 71.563h2.42v2.21c.631.101 1.176.195 1.822.296v3.922h2.264c.094.833.179 1.565.273 2.405h2.132v3.954c.685.436 1.3.833 1.93 1.237v1.308h2.896V58.581h10.732v50.386H76.38c.195-1.712-.747-2.405-2.459-2.351v-3.977h-2.273c-.062-.832-.124-1.572-.186-2.405-.724-.038-1.394-.077-2.187-.124v-3.923c-1.386-.217-2.95-.303-2.413-2.412a175.5 175.5 0 0 0-1.845-.296v-4c-.7-.281-1.385-.561-2.303-.934-.039-.234-.14-.779-.257-1.425-.662-.038-1.331-.07-2.203-.116v-4.592l-1.611-.187c-.599-2.592-1.167-2.872-3.183-1.463v28.251H45.008c-.459-2.521-.631-38.789-.21-50.455h10.475c.078.412.179.949.304 1.595h2.187v4.779c.871.046 1.541.085 2.327.132.078.529.163 1.074.264 1.72h2.141c-.008 1.541-.008 3.004-.008 4.779Zm69.072 35.155h-3.852c-.07.723-.148 1.471-.234 2.295h-21.706c-.249-.7-.529-1.478-.817-2.28h-4.102v-1.658c-.832-.077-1.572-.155-2.42-.241V102.6h-2.421v-4.109h-1.362c-.56-.475-.723-19.776-.381-29.216h1.603v-4.203h2.382c.062-.833.109-1.58.171-2.397.739-.039 1.409-.078 2.288-.125v-2.311h4.693v-1.65h22.119c.023.428.039.895.078 1.642h4.062c.047.809.086 1.479.125 2.265h2.171c.086.833.172 1.564.257 2.405h1.884c.171.171.303.241.303.319.016 1.261.008 2.521.008 3.891h2.335v4.179c-.693.039-1.362.071-2.141.117v1.876c-.179.202-.241.342-.303.342-2.055.008-4.109.008-6.273.008v-2.156l-2.405-.202c-.039-.514-.078-.981-.124-1.541-1.471-.07-2.623-.553-2.351-2.452h-13.666c.132.467.256.942.428 1.565-.133.109-.436.342-.958.755h-3.603v4.101h-2.382v16.118h2.304v4.102h3.853c.334.871.622 1.642.918 2.42h8.841v-2.202h4.187v-7.184h-6.389c-.047-.669-.078-1.136-.133-1.821h-2.264v-6.491h2.155l.273-2.405h8.242c.233.607.521 1.37.864 2.265h3.774c-.007 1.658.6 2.685 2.343 2.467.444 2.07.444 2.07 2.475 2.366v4.063c.872.047 1.541.078 2.335.117v8.265c-.522.218-1.277.529-2.172.903v3.782c-.832.062-1.572.125-2.405.187a217.4 217.4 0 0 1-.132 2.273h-2.163a41.045 41.045 0 0 1-.312 1.79Zm128.292-8.344v10.639h-37.949V58.527h37.863v9.853c-.521 1.042-1.486.778-2.35.778-6.452.008-12.912.008-19.364.008h-5.448V78.1h17.667v10.554c.039-.039-.023.046-.109.101a.527.527 0 0 1-.257.085c-5.541.008-11.09 0-16.881 0-.186.654-.49 1.261-.513 1.876-.063 2.273-.024 4.553-.024 6.717.545.864 1.238.973 2.094.965 4.763-.039 9.534-.024 14.297-.024h10.974ZM37.497 58.534V69.08H10.865v8.974h17.628v10.763H11.285c-.195.638-.521 1.245-.537 1.86-.062 2.475-.023 4.958-.023 7.643h26.757v10.67H.054V58.542c12.422-.008 24.812-.008 37.443-.008Zm112.625 10.608h-4.576V58.558h20.111v10.483h-4.359c-.474 2.514-.615 20.92-.233 29.24h4.522v10.74h-20.002V98.39h4.537V69.142Z" fill="#fff"/>
</svg>
