<svg viewBox="0 0 264 38" xmlns="http://www.w3.org/2000/svg" xmlns:bx="https://boxy-svg.com">
    <path d="M24.469 10.837h15.657l-6.855 7.231h-8.802v-7.231Z" style="fill-opacity:1;fill:#fff" bx:origin="-1.563 -1.499"/>
    <path d="M24.454 27.165H40.11l-6.854-7.231h-8.802v7.231Z" style="fill-opacity:1;fill:#fff" bx:origin="-1.562 -2.757"/>
    <path d="M24.129.746v9.11c-1.601-1.002-3.38-1.497-5.342-1.497A9.957 9.957 0 0 0 13.58 9.79a10.256 10.256 0 0 0-3.782 3.893 10.614 10.614 0 0 0-1.381 5.276c0 1.897.462 3.648 1.381 5.266a10.312 10.312 0 0 0 3.794 3.841 10.093 10.093 0 0 0 5.195 1.42c1.944 0 3.725-.479 5.34-1.43v9.151a18.204 18.204 0 0 1-5.34.793c-3.349 0-6.476-.854-9.372-2.564-2.894-1.71-5.191-4.036-6.881-6.964C.844 25.544 0 22.371 0 18.96c0-2.527.489-4.962 1.469-7.301a19.042 19.042 0 0 1 4.087-6.132 18.908 18.908 0 0 1 5.989-4.073C13.8.485 16.212 0 18.787 0c1.78 0 3.56.254 5.342.746" style="fill-opacity:1;fill:#fff" bx:origin="0 0"/>
    <path d="M65.805 20.363c-.08 2.26-.359 3.232-1.233 4.118-1.273 1.309-2.905 1.654-8.159 1.654-4.091 0-5.812-.287-7.136-1.258-1.3-.912-1.723-2.371-1.723-5.94 0-3.253.396-4.683 1.579-5.65 1.269-1.056 3.021-1.368 7.532-1.368 4.427 0 6.375.34 7.649 1.396 1.073.855 1.432 1.915 1.511 4.452h-5.07c-.17-1.538-1.154-2.055-4.09-2.055-3.47 0-4.117.541-4.117 3.367 0 1.772.282 2.456 1.186 2.829.591.258 1.663.399 2.988.399 2.933 0 3.78-.399 4.006-1.943l5.077-.001Z" style="fill-opacity:1;fill:#fff" bx:origin="-2.603 -0.838"/>
    <path d="M84.024 13.172c1.352.998 1.73 2.224 1.73 5.622 0 3.712-.339 4.971-1.552 5.996-1.272 1.058-2.943 1.346-7.875 1.346-4.993 0-6.664-.288-7.917-1.346-1.253-1.025-1.572-2.283-1.572-6.197 0-3.165.398-4.45 1.731-5.421 1.233-.913 3.181-1.229 7.737-1.229 4.555 0 6.484.315 7.718 1.229m-12.193 5.967c0 1.797.239 2.396 1.133 2.769.617.284 1.75.427 3.362.427 3.779 0 4.435-.487 4.435-3.343 0-1.826-.299-2.481-1.214-2.85-.635-.257-1.81-.402-3.221-.402-3.818 0-4.495.513-4.495 3.399" style="fill-opacity:1;fill:#fff" bx:origin="-3.534 -0.841"/>
    <path d="M91.462 12.288v2.025h.259c.736-1.624 2.427-2.37 5.39-2.37 3.223 0 4.992.829 6.067 2.829.855-2.028 2.486-2.829 5.748-2.829 2.763 0 4.415.516 5.568 1.741 1.153 1.199 1.412 2.313 1.412 5.791v6.315h-4.992v-6.315c-.04-2.25-.1-2.505-.578-2.993-.497-.513-1.352-.742-2.803-.742-1.512 0-2.447.257-2.964.858-.577.627-.736 1.426-.736 3.622v5.57H98.84v-6.315c0-2.107-.059-2.48-.535-2.993-.459-.513-1.333-.742-2.766-.742-1.512 0-2.486.257-3.042.827-.577.571-.736 1.428-.736 3.653v5.57h-4.993V12.288h4.694Z" style="fill-opacity:1;fill:#fff" bx:origin="-2.978 -0.863"/>
    <path d="M121.774 12.288v2.025h.238c.736-1.624 2.426-2.37 5.39-2.37 3.223 0 4.993.829 6.067 2.829.856-2.028 2.486-2.829 5.767-2.829 2.765 0 4.396.516 5.549 1.741 1.153 1.199 1.413 2.313 1.413 5.791v6.315h-4.992v-6.315c-.02-2.25-.081-2.505-.557-2.993-.518-.513-1.353-.742-2.825-.742-1.491 0-2.426.257-2.964.858-.575.627-.734 1.426-.734 3.622v5.57h-4.993v-6.315c0-2.107-.06-2.48-.537-2.993-.458-.513-1.333-.742-2.765-.742-1.492 0-2.487.257-3.043.827-.577.571-.736 1.428-.736 3.653v5.57h-4.991V12.288h4.713Z" style="fill-opacity:1;fill:#fff" bx:origin="-4.018 -0.863"/>
    <path d="M164.458 13.172c1.351.998 1.709 2.224 1.709 5.622 0 3.712-.338 4.971-1.55 5.996-1.274 1.058-2.924 1.346-7.877 1.346-4.992 0-6.642-.288-7.915-1.346-1.234-1.025-1.552-2.283-1.552-6.197 0-3.165.398-4.45 1.73-5.421 1.233-.913 3.183-1.229 7.717-1.229 4.575 0 6.485.315 7.738 1.229m-12.193 5.967c0 1.797.219 2.396 1.133 2.769.617.284 1.75.427 3.341.427 3.799 0 4.436-.487 4.436-3.343 0-1.826-.279-2.481-1.214-2.85-.616-.257-1.809-.402-3.222-.402-3.798 0-4.474.513-4.474 3.399" style="fill-opacity:1;fill:#fff" bx:origin="-7.795 -0.841"/>
    <path d="M186.078 25.79h-4.695v-1.771h-.259c-.955 1.628-2.286 2.116-5.906 2.116-3.602 0-5.331-.373-6.485-1.428-1.095-1.029-1.432-2.402-1.432-5.77 0-3.427.537-5.051 1.948-5.991 1.214-.803 2.586-1.027 6.027-1.027 3.5 0 4.653.455 5.609 2.169h.199V6.749h4.991V25.79h.003Zm-13.785-6.909c0 2.966.557 3.424 4.317 3.424 1.83 0 3.182-.227 3.758-.627.558-.374.756-1.09.756-2.658 0-2.791-.657-3.308-4.216-3.308-3.937 0-4.615.458-4.615 3.169" style="fill-opacity:1;fill:#fff" bx:origin="-8.91 -0.348"/>
    <path d="M204.157 13.172c1.352.998 1.73 2.224 1.73 5.622 0 3.712-.338 4.971-1.552 5.996-1.273 1.058-2.943 1.346-7.876 1.346-4.992 0-6.643-.288-7.917-1.346-1.252-1.025-1.55-2.283-1.55-6.197 0-3.165.398-4.45 1.71-5.421 1.254-.913 3.203-1.229 7.739-1.229 4.574 0 6.482.315 7.716 1.229m-12.174 5.967c0 1.797.22 2.396 1.136 2.769.595.284 1.728.427 3.34.427 3.778 0 4.435-.487 4.435-3.343 0-1.826-.279-2.481-1.213-2.85-.617-.257-1.81-.402-3.222-.402-3.799 0-4.476.513-4.476 3.399" style="fill-opacity:1;fill:#fff" bx:origin="-9.897 -0.841"/>
    <path d="M211.615 12.288v2.025h.26c.914-1.715 2.326-2.37 5.131-2.37 4.017 0 5.37 1.372 5.37 5.425v.913h-4.695c0-2.001-.576-2.541-2.624-2.541-1.134 0-2.069.344-2.547.971-.477.657-.616 1.399-.616 3.483v5.596h-4.993V12.288h4.714Z" style="fill-opacity:1;fill:#fff" bx:origin="-13.37 -0.863"/>
    <path d="M241.15 21.479c-.377 3.741-2.207 4.656-9.348 4.656-3.858 0-5.689-.345-6.902-1.258-1.313-.998-1.69-2.345-1.69-5.798 0-3.625.376-4.967 1.79-5.963 1.312-.913 2.964-1.197 7.318-1.197 4.496 0 6.087.284 7.3 1.28 1.174.999 1.632 2.513 1.632 5.567 0 .171 0 .797-.02 1.367h-13.048c0 1.373.16 1.827.637 2.202.537.4 1.572.573 3.381.573 3.182 0 3.778-.229 3.978-1.428l4.972-.001Zm-4.912-4.111c-.041-1.057-.098-1.312-.399-1.628-.457-.487-1.47-.685-3.439-.685-3.362 0-4.157.428-4.217 2.313h8.055Z" style="fill-opacity:1;fill:#fff" bx:origin="-12.373 -0.838"/>
    <path d="M247.529 23.041v-8.246l1.274-.366v8.612h-1.274Zm3.513 0 2.779-3.519c.354-.48.649-.925.884-1.334.236-.41.354-.789.354-1.139 0-.426-.11-.75-.33-.973-.222-.224-.554-.337-.997-.337-.404 0-.732.114-.981.342a2.898 2.898 0 0 0-.619.834l-1.045-.57a4.02 4.02 0 0 1 1.037-1.29c.426-.349.973-.524 1.64-.524.834 0 1.472.218 1.914.655.445.436.668 1.008.668 1.716 0 .92-.45 1.937-1.351 3.051l-1.532 1.961h3.209v1.127h-5.63Zm10.099.171a3.275 3.275 0 0 1-1.443-.317 2.559 2.559 0 0 1-1.033-.908c-.258-.39-.386-.845-.386-1.362 0-.537.126-.981.378-1.331s.573-.609.965-.777a2.026 2.026 0 0 1-.716-.712 1.866 1.866 0 0 1-.278-1.004c0-.456.109-.855.326-1.196a2.2 2.2 0 0 1 .901-.794c.383-.187.812-.28 1.286-.28.472 0 .9.093 1.283.28.383.187.684.449.901.785.217.339.325.733.325 1.18 0 .41-.095.761-.285 1.054a2.149 2.149 0 0 1-.752.7c.399.176.731.436.993.781.263.344.394.782.394 1.314 0 .517-.127.972-.382 1.362a2.581 2.581 0 0 1-1.041.908c-.44.211-.918.317-1.436.317Zm0-5.215c.338 0 .627-.124.865-.371a1.22 1.22 0 0 0 .362-.882c0-.358-.113-.65-.338-.875-.225-.223-.521-.334-.889-.334-.375 0-.675.111-.9.334-.225.225-.338.517-.338.875 0 .347.115.642.346.886.233.245.531.367.892.367Zm0 4.1c.472 0 .853-.142 1.142-.427.29-.285.435-.644.435-1.078 0-.434-.15-.793-.451-1.078-.3-.285-.675-.427-1.126-.427-.458 0-.837.139-1.137.419-.301.276-.451.639-.451 1.086 0 .434.145.793.435 1.078.286.285.671.427 1.153.427Z" style="fill:#fff;white-space:pre"/>
</svg>
