<svg viewBox="0 0 264 39" xmlns="http://www.w3.org/2000/svg" xmlns:bx="https://boxy-svg.com">
    <path d="M25.16 11.122h16.099l-7.048 7.422H25.16v-7.422Z" style="fill-opacity:1;fill:#fff" bx:origin="-1.563 -1.499"/>
    <path d="M25.145 27.88h16.098l-7.047-7.421h-9.051v7.421Z" style="fill-opacity:1;fill:#fff" bx:origin="-1.562 -2.757"/>
    <path d="M24.81.765v9.35c-1.646-1.028-3.475-1.536-5.492-1.536-1.924 0-3.71.487-5.354 1.469-1.648.973-2.942 2.306-3.889 3.995a10.876 10.876 0 0 0-1.42 5.415c0 1.946.475 3.744 1.42 5.405a10.582 10.582 0 0 0 3.901 3.941 10.381 10.381 0 0 0 5.342 1.458c1.998 0 3.83-.492 5.491-1.468v9.392a18.752 18.752 0 0 1-5.491.814c-3.444 0-6.659-.877-9.637-2.632-2.976-1.754-5.337-4.142-7.075-7.146C.868 26.217 0 22.96 0 19.459c0-2.594.502-5.092 1.511-7.494C2.519 9.568 3.918 7.47 5.713 5.673a19.449 19.449 0 0 1 6.158-4.181C14.189.497 16.67 0 19.318 0c1.83 0 3.66.261 5.492.765" style="fill-opacity:1;fill:#fff" bx:origin="0 0"/>
    <path d="M67.663 20.898c-.082 2.32-.368 3.318-1.267 4.228-1.309 1.342-2.987 1.697-8.39 1.697-4.206 0-5.976-.294-7.338-1.291-1.335-.936-1.771-2.434-1.771-6.096 0-3.34.407-4.806 1.624-5.8 1.305-1.083 3.106-1.404 7.744-1.404 4.552 0 6.556.35 7.865 1.433 1.104.878 1.473 1.965 1.554 4.569h-5.213c-.175-1.578-1.187-2.109-4.206-2.109-3.568 0-4.233.556-4.233 3.456 0 1.818.29 2.521 1.219 2.903.608.266 1.711.41 3.073.41 3.016 0 3.887-.41 4.119-1.994l5.22-.002Z" style="fill-opacity:1;fill:#fff" bx:origin="-2.603 -0.838"/>
    <path d="M86.397 13.519c1.391 1.024 1.779 2.282 1.779 5.77 0 3.809-.349 5.102-1.595 6.154-1.309 1.086-3.027 1.381-8.098 1.381-5.134 0-6.852-.295-8.141-1.381-1.288-1.052-1.616-2.344-1.616-6.361 0-3.248.41-4.566 1.78-5.563 1.268-.937 3.271-1.262 7.956-1.262 4.683 0 6.666.323 7.935 1.262M73.86 19.642c0 1.845.246 2.46 1.165 2.842.635.292 1.799.439 3.456.439 3.886 0 4.561-.5 4.561-3.431 0-1.874-.307-2.547-1.248-2.925-.653-.264-1.861-.413-3.313-.413-3.925 0-4.621.527-4.621 3.488" style="fill-opacity:1;fill:#fff" bx:origin="-3.534 -0.841"/>
    <path d="M94.045 12.612v2.078h.267c.756-1.667 2.495-2.433 5.541-2.433 3.315 0 5.134.851 6.239 2.904.88-2.082 2.557-2.904 5.91-2.904 2.842 0 4.54.53 5.726 1.788 1.185 1.23 1.452 2.373 1.452 5.943v6.48h-5.134v-6.48c-.04-2.31-.102-2.572-.594-3.073-.511-.526-1.39-.761-2.882-.761-1.554 0-2.516.264-3.048.88-.593.644-.756 1.465-.756 3.718v5.716h-5.134v-6.48c0-2.163-.061-2.545-.551-3.073-.471-.526-1.37-.761-2.844-.761-1.554 0-2.556.264-3.128.849-.593.586-.756 1.466-.756 3.749v5.716h-5.134V12.612h4.826Z" style="fill-opacity:1;fill:#fff" bx:origin="-2.978 -0.863"/>
    <path d="M125.213 12.612v2.078h.246c.756-1.667 2.494-2.433 5.541-2.433 3.315 0 5.134.851 6.239 2.904.88-2.082 2.557-2.904 5.93-2.904 2.843 0 4.52.53 5.706 1.788 1.185 1.23 1.452 2.373 1.452 5.943v6.48h-5.132v-6.48c-.021-2.31-.083-2.572-.573-3.073-.532-.526-1.392-.761-2.905-.761-1.533 0-2.494.264-3.048.88-.591.644-.755 1.465-.755 3.718v5.716h-5.134v-6.48c0-2.163-.062-2.545-.552-3.073-.471-.526-1.37-.761-2.842-.761-1.535 0-2.558.264-3.13.849-.593.586-.756 1.466-.756 3.749v5.716h-5.133V12.612h4.846Z" style="fill-opacity:1;fill:#fff" bx:origin="-4.018 -0.863"/>
    <path d="M169.103 13.519c1.389 1.024 1.758 2.282 1.758 5.77 0 3.809-.348 5.102-1.594 6.154-1.31 1.086-3.007 1.381-8.099 1.381-5.134 0-6.831-.295-8.139-1.381-1.269-1.052-1.597-2.344-1.597-6.361 0-3.248.41-4.566 1.78-5.563 1.268-.937 3.272-1.262 7.934-1.262 4.705 0 6.668.323 7.957 1.262m-12.537 6.123c0 1.845.224 2.46 1.165 2.842.635.292 1.799.439 3.435.439 3.906 0 4.561-.5 4.561-3.431 0-1.874-.287-2.547-1.248-2.925-.634-.264-1.86-.413-3.313-.413-3.905 0-4.6.527-4.6 3.488" style="fill-opacity:1;fill:#fff" bx:origin="-7.795 -0.841"/>
    <path d="M191.333 26.468h-4.827v-1.817h-.267c-.981 1.671-2.35 2.172-6.072 2.172-3.704 0-5.481-.383-6.668-1.466-1.126-1.055-1.472-2.465-1.472-5.921 0-3.518.552-5.185 2.003-6.149 1.247-.824 2.659-1.055 6.196-1.055 3.6 0 4.786.467 5.768 2.227h.205V6.926h5.132v19.542h.002Zm-14.174-7.09c0 3.044.573 3.514 4.439 3.514 1.882 0 3.272-.232 3.865-.643.573-.385.776-1.119.776-2.728 0-2.865-.674-3.396-4.334-3.396-4.049 0-4.746.471-4.746 3.253" style="fill-opacity:1;fill:#fff" bx:origin="-8.91 -0.348"/>
    <path d="M209.923 13.519c1.391 1.024 1.779 2.282 1.779 5.77 0 3.809-.347 5.102-1.595 6.154-1.31 1.086-3.026 1.381-8.099 1.381-5.133 0-6.831-.295-8.141-1.381-1.287-1.052-1.593-2.344-1.593-6.361 0-3.248.409-4.566 1.758-5.563 1.289-.937 3.293-1.262 7.957-1.262 4.703 0 6.666.323 7.934 1.262m-12.517 6.123c0 1.845.226 2.46 1.167 2.842.613.292 1.778.439 3.435.439 3.884 0 4.56-.5 4.56-3.431 0-1.874-.286-2.547-1.247-2.925-.634-.264-1.861-.413-3.313-.413-3.906 0-4.602.527-4.602 3.488" style="fill-opacity:1;fill:#fff" bx:origin="-9.897 -0.841"/>
    <path d="M217.592 12.612v2.078h.267c.94-1.76 2.393-2.433 5.276-2.433 4.131 0 5.522 1.408 5.522 5.568v.937h-4.827c0-2.053-.593-2.608-2.699-2.608-1.166 0-2.127.353-2.618.997-.492.674-.634 1.435-.634 3.575v5.742h-5.134V12.612h4.847Z" style="fill-opacity:1;fill:#fff" bx:origin="-13.37 -0.863"/>
    <path d="M247.962 22.045c-.389 3.839-2.27 4.778-9.613 4.778-3.966 0-5.849-.355-7.097-1.291-1.349-1.025-1.738-2.407-1.738-5.951 0-3.72.387-5.098 1.841-6.12 1.349-.937 3.047-1.229 7.525-1.229 4.623 0 6.259.292 7.506 1.314 1.207 1.026 1.679 2.579 1.679 5.714 0 .176 0 .818-.021 1.403h-13.417c0 1.409.165 1.875.655 2.26.552.41 1.616.588 3.476.588 3.272 0 3.885-.235 4.091-1.465l5.113-.001Zm-5.051-4.22c-.042-1.085-.102-1.347-.41-1.671-.471-.5-1.512-.703-3.537-.703-3.456 0-4.274.44-4.336 2.374h8.283Z" style="fill-opacity:1;fill:#fff" bx:origin="-12.373 -0.838"/>
    <path d="M254.52 23.647v-8.463l1.311-.375v8.838h-1.311Zm6.495.176a3.046 3.046 0 0 1-1.443-.347 2.52 2.52 0 0 1-1.03-.994c-.25-.431-.376-.935-.376-1.511 0-.406.062-.806.186-1.198.124-.396.386-.963.786-1.704.402-.74 1.043-1.842 1.922-3.306l1.112.655a54.864 54.864 0 0 0-1.885 3.061.597.597 0 0 1-.083.116c.125-.116.29-.21.497-.279.209-.07.449-.105.719-.105.51 0 .962.123 1.356.368.392.245.693.572.906.981.212.409.318.852.318 1.328 0 .609-.127 1.135-.381 1.578a2.478 2.478 0 0 1-1.058 1.01c-.452.231-.967.347-1.546.347Zm.083-1.144c.485 0 .868-.156 1.149-.468.281-.312.422-.714.422-1.206 0-.515-.145-.922-.435-1.22-.289-.3-.657-.451-1.103-.451-.494 0-.889.152-1.187.456-.298.303-.447.716-.447 1.24 0 .476.153.869.459 1.181.304.312.684.468 1.142.468Z" style="fill:#fff;white-space:pre"/>
</svg>
