<svg viewBox="0 0 566 112" xmlns="http://www.w3.org/2000/svg" xml:space="preserve" style="fill-rule:evenodd;clip-rule:evenodd;stroke-linejoin:round;stroke-miterlimit:2">
    <clipPath id="a">
        <path d="M.424 0h564.855v112H.424z"/>
    </clipPath>
    <g clip-path="url(#a)">
        <path d="m565.176 78.424-3.384.235c-.162.015-.603-.029-.809-.206-.456-.397-.75-1.059-.942-2.016l-6.65-42.507c-.324-2.06-.162-2.575 2.369-3.797l1.78-.868V2.619h-53.101l-1.692 5.768-2.266-5.768h-51.395v16.082C438.772 6.842 423.22 0 405.828 0c-17.965 0-34.812 6.68-45.921 18.024C350.593 6.297 335.938.118 317.282.118c-17.171 0-31.517 6.665-42.699 19.848-7.49-11.962-16.097-17.347-38.741-17.347h-50.983v25.175l.029 2.369 2.266.662c.324.088.957.353 1.486.706.442.295.736.765.795 1.295.029.221.044.5.044.839 0 .883-.059 22.718-.088 36.592L163.274 2.619h-38.476L100.3 67.506v-3.531H75.92l-2.252.029-.735 2.119c-.192.559-2.134 5.518-8.961 5.518-7.739 0-16.317-6.401-16.862-20.467-.265-7.033 3.517-11.536 6.827-13.257a9.932 9.932 0 0 1 1.545-.662c1.472-.515 2.884.897 2.369 2.369-.235.662-.706 1.456-1.545 2.398L53.511 44.7l22.85 15.744 29.795-31.605-1.015-1.987C104.582 25.778 91.178.368 57.498.368 24.422.368.424 23.689.424 55.809c0 30.104 27.044 53.675 61.547 53.675h178.005l-.014-26.882-2.619-.456a13.333 13.333 0 0 1-1.001-.221c12.404-3.266 23.453-9.666 29.604-14.139 8.254 25.498 31.781 41.713 61.282 41.713h35.048V96.05c7.577 6.239 22.512 15.95 42.051 15.95 15.067 0 27.706-6.812 34.445-11.344v8.902h51.277V90.974h21.084v18.51h54.146V81.808l-.103-3.384Zm-3.045 27.897h-47.834v-18.51H486.9v18.554h-44.965V94.314s-16.435 14.508-37.608 14.508c-27.102 0-45.2-20.011-45.2-20.011v17.51h-31.884c-28.368 0-52.734-15.597-59.532-44.009-3.222 3.09-17.435 13.287-34.503 17.127-1.324.294-1.986.809-1.986 2.251 0 2.634 5.606 3.575 5.606 3.575v21.07H61.971c-32.385 0-58.398-22.261-58.398-50.512 0-28.25 20.29-52.292 53.91-52.292 32.135 0 44.833 24.763 44.833 24.763L75.92 56.309 58.484 44.288s5.723-5.503.5-9.505c-4.09-3.119-15.523 3.502-15.037 16.509.574 14.993 9.814 23.497 20.025 23.497 9.461 0 11.948-7.666 11.948-7.666h21.231v17.672L126.99 5.782h34.121l27.397 71.023s1.986 3.752 3.987 4.753c0 0 .118-46.598.118-47.908 0-1.309-.176-2.751-.986-3.678-1.339-1.545-3.605-2.193-3.605-2.193V5.782h47.82c24.792 0 31.163 6.754 38.358 19.761 9.932-13.419 23.601-22.262 43.096-22.262 20.07 0 34.254 7.416 42.346 19.761 11.315-13.581 29.545-19.879 46.201-19.879 20.481 0 37.608 9.962 46.451 25.381V5.782h46.083l4.855 12.375 3.62-12.375h47.569v21.512c-3.37 1.633-4.723 3.281-4.12 7.136l6.651 42.507c.279 1.384.765 2.825 1.942 3.885 1.383 1.236 3.237 1 3.237 1v24.499Z" style="fill:#fff;fill-rule:nonzero"/>
        <path d="M133.332 15.273h21.305l25.911 68.035c.75 1.869 1.986 3.62 3.237 5.136 1.236 1.5 4.237 2.501 4.237 2.501v5.871h-31.266v-6.004s1.986.251 2.987-1.5c1-1.751 1-3.134.25-4.885s-5.974-15.641-5.974-15.641h-25.542s-5.239 14.007-5.739 15.258c-.5 1.251-.5 3.252 0 4.503.839 2.089 3.752 2.383 3.752 2.383v5.886h-25.028V90.93s2.281-.78 3.973-2.501c1.869-1.884 2.501-3.885 2.501-3.885l25.396-69.271m-.618 40.771h16.435l-8.46-23.762-7.975 23.762Zm65.255-40.771h39.844c14.699 0 29.398 5.252 29.398 22.261s-10.711 22.998-19.922 27.25c-10.638 4.914-24.66 8.755-24.66 8.755v12.992s.118.883 1.368 2.383c1.236 1.501 2.619 1.869 2.619 1.869v6.033h-28.897V90.93s1.751-.382 2.987-1.618c1.25-1.251 1.5-2.752 1.5-2.752V27.779s.118-2.501-.882-3.502c-1.001-1-3.355-2.368-3.355-2.368v-6.636m24.91 12.256v34.768s23.409-9.755 23.409-23.512c.015-17.009-23.409-11.256-23.409-11.256Zm181.08-14.728c-26.41 0-46.244 18.613-46.244 42.625 0 24.013 19.333 43.729 46.244 43.729 26.897 0 46.245-19.731 46.245-43.729 0-23.998-19.834-42.625-46.245-42.625Zm24.16 43.008c0 22.512-12.462 30.015-24.16 30.015-11.712 0-23.909-6.003-23.909-30.015 0-24.013 13.698-30.016 23.909-30.016 10.212-.015 24.16 7.489 24.16 30.016Zm34.121-40.477h29.648l10.711 33.208 11.448-33.267h31.016v4.885s-2.06.868-2.987 2.001c-1.118 1.368-1.118 2.383-.868 4.384.25 2.001 8.21 56.265 8.46 58.266.25 2.016.501 3.134 1.001 4.503.485 1.368 2.854 2.501 2.854 2.501v5.047h-29.765v-5.415s2.619-.382 3.487-1.633c.883-1.251 1.25-2.001 1-4.002s-7.342-47.525-7.342-47.525l-12.948 40.271h-15.684l-12.831-37.77-6.474 44.524s-.25 2.663.751 4.119c1.368 2.016 3.855 2.016 3.855 2.016v5.371h-25.779v-5.753s2.046-.324 3.546-2.06c1.501-1.751 1.751-4.002 1.751-4.002l9.402-58.708s.559-2.192-.059-3.193c-.647-1.059-4.178-1.942-4.178-1.942v-5.826M89.75 28.721l-13.904 14.64a2.041 2.041 0 0 1-2.752.177l-2.368-1.943c-.103-.088-.162-.235-.162-.426 0-.501 1.368-1.751 1.368-4.12 0-2.384-.485-12.257-15.685-12.257-15.184 0-21.923 14.258-21.923 26.014s7.225 33.268 30.884 33.268c13.772 0 16.685-7.755 16.685-7.755h4.738V96.58H60.735c-30.884-.015-48.084-24.277-48.084-41.787 0-26.852 23.247-41.742 44.332-41.742 20.437.015 32.767 15.67 32.767 15.67m263.771.147-13.904 14.64a2.041 2.041 0 0 1-2.752.177l-2.369-1.942c-.103-.089-.161-.236-.161-.427 0-.5 1.368-1.751 1.368-4.12 0-2.384-.486-12.256-15.685-12.256-15.184 0-21.923 14.257-21.923 26.013 0 11.756 7.224 33.268 30.884 33.268 13.772 0 16.685-7.754 16.685-7.754h4.738v20.26h-25.911c-30.884 0-48.069-24.262-48.069-41.757 0-26.852 23.247-41.742 44.332-41.742 20.437-.03 32.767 15.64 32.767 15.64" style="fill:#fff;fill-rule:nonzero"/>
    </g>
</svg>
