<svg viewBox="0 0 3840 519.3" xmlns="http://www.w3.org/2000/svg">
    <path class="st1" style="fill:#fff" d="M1677.1 6.8h162.3v484.1h-162.3zm2000.6 167.4H3840v316.7h-162.3zm0-167.4H3840v96.8h-162.3zM810.6 196.3c-109.2 0-197.7 28.4-197.7 63.3S701.4 323 810.6 323c109.2 0 197.7-28.4 197.7-63.3 0-35-88.5-63.4-197.7-63.4Zm0 112.3c-85.7 0-155.2-21.9-155.2-49s69.5-49 155.2-49c85.7 0 155.2 21.9 155.2 49s-69.5 49-155.2 49Z"/>
    <path class="st1" d="M1415.8 321.8c-82.9 80.5-322.5 138.7-605.2 138.7-351.5 0-636.4-89.9-636.4-200.8S459.1 58.8 810.6 58.8c282.8 0 522.3 58.2 605.2 138.7h182C1510.9 84.1 1191.4 0 810.6 0 362.9 0 0 116.2 0 259.6 0 403 362.9 519.3 810.6 519.3c380.8 0 700.3-84.1 787.2-197.5h-182Zm815.7-315h-412.7v54.8h412.7c351.5 0 636.4 83.8 636.4 187.2 0 103.4-284.9 187.3-636.4 187.3h-412.7v54.8h412.7c447.7 0 810.6-108.4 810.6-242.1s-362.9-242-810.6-242Zm900.4 173.4v137.3l407.7-68.7z" style="fill:#fff"/>
</svg>
