<svg data-name="Warstwa 1" xmlns="http://www.w3.org/2000/svg" viewBox="0 0 221.31 68.65">
    <path d="m89.44 28.73-1.28-4.85-53 21 2.08 4.2c-6.94 1.29-13.44 2.68-20 3.65a62.65 62.65 0 0 1-12.16.67c-4.79-.23-6.77-4.52-3.23-7.68 5-4.49 10.87-8.07 16.52-11.79 2.79-1.83 6.05-2.92 8.86-4.71a6.48 6.48 0 0 0 2.9-3.82c2.63-18.35 22-30.21 39.25-23.52 4.24 1.64 7.9 4.73 11.91 7a5.41 5.41 0 0 0 3.41.71c6.54-1.41 13-3.19 19.56-4.48a20.11 20.11 0 0 1 7.45.22c3.25.61 4.07 3.12 2.22 5.94a6.65 6.65 0 0 1-1.63 1.9c-7.37 5.09-14.78 10.09-22.86 15.56ZM35.8 17.18c-3.31 8.44-3.87 15.93-.48 23.75 2.73-.9 5.87-1 7.5-2.64a31.93 31.93 0 0 1 19.23-9.38 11.39 11.39 0 0 0 2.09-.65l-1.26-4.85c-2.91.35-5.46.56-8 1a36.44 36.44 0 0 0-5.08 1.4c-.76.26-1.39.95-2.15 1.19-1.55.47-3.14.78-4.72 1.14a2.83 2.83 0 0 1-.83-.16l.39-2.61c-5.26-.16-6.45-1.49-6.69-8.19Zm-5.77 17.41c-8.4 3.93-16.88 7-23.51 13.63 9.45 1 18.3-1.19 27.18-4.05Zm76.67-24c-7.42-1-13.84 1.62-20.61 4.12.94 2.66 1.76 5 2.71 7.67 6.56-3.42 12.78-6.65 17.9-11.79ZM65.47 50.65l1-1.58c-2.87-3.39-5.4 1.32-8.45.33l1-3.65-16.54 3.19-.18-.87 46.79-19.2c.36 4.77-1 9.45-3.1 14-.6 1.29-1.58 2.39-2.28 3.64a7.64 7.64 0 0 1-8.24 4.25 96.78 96.78 0 0 0-10-.11Zm.39-4.83.59 1.89 7.19-2.72-.25-1Zm67.92 5.22c2.62 0 5-.42 7.09.1 2.63.64 6 1.38 7.37 3.28 2.12 2.95.79 6.43-2.23 9l2.31 4.06-.33.85a21.26 21.26 0 0 1-3.65-1.37 20.85 20.85 0 0 1-3-2.46l-1.85 3.63-5.74.29Zm6.65 11.49c3-3.42 2.89-7.05 0-8.84Zm34.5-17.38h-5.1V28.01c3.19 0 6.28-.52 9.07.17 2.17.54 5 2.21 5.64 4.06s-.84 4.55-1.51 6.85c-.15.51-.75.89-1.21 1.42l1.87 4.19-.58.76c-.91-.56-1.86-1.07-2.73-1.7-1-.74-2-1.58-3-2.38-.68 1.08-1.4 2.15-2.45 3.77Zm1.31-5.5c3-3.75 2.89-6.62 0-9.19ZM149.8 59.51c0-4.83 3.31-8.58 7.71-8.69 4.84-.13 8.64 3.9 8.62 9.11a8.47 8.47 0 0 1-8.1 8.47c-4.87.05-8.21-3.54-8.23-8.89Zm8.18 6.73c1.9-2.47 1.9-10.74 0-13.12-2.35 2.59-2.35 11.03 0 13.12Zm-23.71-29.4c0-2.9-.09-4.91.05-6.9.05-.65.72-1.25 1.11-1.87.48.65 1.36 1.29 1.37 2 .12 5 .07 10 .07 15.83-5.4-1.19-7.66-6.19-12.28-8.46 0 2.31.12 4.29-.07 6.24-.06.7-.87 1.32-1.34 2-.49-.64-1.38-1.27-1.4-1.93-.11-4.19-.08-8.39 0-12.58a11.39 11.39 0 0 1 .66-2.63c1.08.29 2.4.29 3.21.93 2.72 2.05 5.25 4.42 8.62 7.37Zm78 17.22a51.94 51.94 0 0 0 5.4 2.16 4.54 4.54 0 0 1 3.55 5.44c-.37 1.95-1.77 4.72-3.31 5.2-2.77.85-6 .56-9 .1-1.08-.18-2.27-2.09-2.66-3.43-.24-.81 1-2 1.54-3.08.6.9 1.15 1.83 1.81 2.68s1.5 2.59 2.44 2.74c1.45.22 3.05-.57 4.59-.93-.44-1.06-.6-2.53-1.4-3.08-1.22-.85-2.92-1-4.35-1.56-2.33-1-4.23-2.41-3.81-5.32a4.91 4.91 0 0 1 5.14-4.53 13.76 13.76 0 0 1 4.88.79c.68.25 1 1.48 1.52 2.26a16.92 16.92 0 0 1-2.47-.05c-1.18-.18-2.34-.51-3.51-.78Zm-33.49 4.87c1.66-2.59-1.15-6.16 2.61-8.79v17.7c-5.36-.25-7.23-5.87-11.89-7.52 0 2.11.12 4-.07 5.83-.07.67-.88 1.26-1.35 1.89-.4-.6-1.14-1.18-1.16-1.78-.09-5-.05-10-.05-15.57 5.5 1.09 7.83 6.02 11.91 8.24Zm-11.16-31.27c.33.7.95 1.4 1 2.11.07 3.58 0 7.17-.06 10.75 0 2.52-1.28 4.36-3.72 4.49a30.63 30.63 0 0 1-8.7-.73 4.65 4.65 0 0 1-2.6-3.4c-.32-4.24-.12-8.53-.12-12.9h6.45v10.79c0 2.4-.16 4.81 3.22 4.75s3.36-2.42 3.34-4.83V28.02Zm-46.84 2.12-5.25.73v.6l5.12.67v1.11l-5.46.82v9.41l5.85.73c-1.61 2-6.17 2.42-12.7 1.41V28.59h12.36Zm-20.35 26.39-5.71.56v9.42a30.51 30.51 0 0 1 4.17.06c.65.09 1.21.78 1.81 1.2-.6.41-1.19 1.15-1.8 1.17-3.35.11-6.71.05-10.51.05V51.69h12.09l.21 1.25-5.77.88v.57l5.53.57ZM61.1 68.33V51.65h12.08l.27 1.27-5.32 1.31 5.19.93c-1.23 2.85-5.47-.39-5.52 3.47 0 2.26-.69 4.95.3 6.66.77 1.33 3.66 1.42 5.6 2.07l-.18 1Zm76.67-39.87h14.72l.18 1.07-4.15 1.2V45.3h-7.08V30.79l-3.81-1.43Zm57.24 16.49h-6.91c.68-6 0-11.76-4.43-17 4.62-.33 8.43-1.08 9.72 3.79 2.45-.83 2.19-4.9 6.23-3.56-4.86 4.75-5 10.54-4.61 16.77ZM86.96 68.24H74.42c0-4.77-.32-9.89.26-14.9.12-1 3.6-1.64 6.31-2.77 0 4.62.11 8 0 11.45-.12 2.85 0 5.11 3.87 4.49.7-.12 1.52.47 2.28.73Zm45.47-15.65-4.18 1.14v14.3l-6.63.58v-14.7c-.74-.24-1.09-.33-1.41-.46-.94-.4-1.88-.82-2.81-1.23a11.2 11.2 0 0 1 3-1c4-.12 7.92-.05 11.88-.05Zm72.54 1.86c-1.84-.55-4-1.91-5-1.32-1.29.75-1.87 3-2.34 4.79a10 10 0 0 0 .09 3.92c.53 3.81 2.3 4.81 6 3.54a12.43 12.43 0 0 1 1.74-.32c0 .61.13 1.09 0 1.22a9.6 9.6 0 0 1-11.32 0c-3.14-2.59-3.9-8-1.67-11.87a8.93 8.93 0 0 1 10.39-3.52c2.61 1.05 3.12 2.14 2.11 3.56Zm-99.93-24.48c-2.29.47-5.77.31-6.29 1.46-1.14 2.54-1 5.76-1 8.68.1 3.52.66 3.64 8.17 3-2.25 3.31-7.86 3.46-11.86.32a9.15 9.15 0 0 1-1.04-12.84 8.61 8.61 0 0 1 12.02-.62Zm10.98 23.56c-7.6-.32-8 .11-7.94 7.25.08 5.52.26 5.63 9.05 4.93-1.8 2.83-4.27 2.8-6.6 2.61-5.34-.41-8.05-2.43-8.86-6.31-.89-4.29.63-8.2 3.89-10 3.62-1.94 7.14-1.55 10.46 1.52Zm73.35 14.2h-6.17V51.05h6.17Z" fill="#fff"/>
    <path d="M59.7 57.66c-4.81 3.08-17.12-1.74-22.06-9 1.28 0 2.47-.36 2.89.05 5.15 5.11 11.4 7.59 18.52 8.2.12.01.25.33.65.75Z" fill="#fff"/>
</svg>
