<svg data-name="Warstwa 1" viewBox="0 0 264 47" xmlns="http://www.w3.org/2000/svg">
    <path d="M264 27.317c-.35 2.616-.646 5.246-1.064 7.85-.271 1.691-.689 3.364-1.107 5.031a5.345 5.345 0 0 1-4.75 4.319c-5.223.723-10.459 1.63-15.683 2.062a124.092 124.092 0 0 1-31.162-1.512c-.43-.074-.861-.21-1.292-.247-3.82-.29-5.857-2.357-6.669-6.116a69.972 69.972 0 0 1 .117-30.859c.751-3.265 2.51-5.074 5.882-5.666C218.116.445 227.996-.499 237.957.167c6.35.426 12.656 1.431 18.98 2.21a5.333 5.333 0 0 1 4.922 4.603c.702 3.63 1.231 7.289 1.846 10.937.092.561.178 1.123.265 1.685Zm-33.34.451h12.656v-8.642h-12.569v-5.079h12.569V4.611H221.29v37.747h9.383ZM47.608 41.382V28.187H37.241V41.29h-8.866V7.017h8.786v13.116h10.403V7.011h8.94v30.366l.271.068c.203-.407.43-.802.615-1.235 4.298-9.368 8.591-18.746 12.877-28.131a1.71 1.71 0 0 1 1.846-1.203c4.442.055 8.89 0 13.443 0V41.29h-8.755V28.113c-2.215 0-4.27-.043-6.319.043-.32 0-.713.568-.892.957-1.729 3.702-3.445 7.406-5.113 11.183a1.538 1.538 0 0 1-1.642 1.118c-5.014-.063-10.029-.032-15.227-.032Zm29.076-27.248h-.24l-2.726 5.98h2.966Zm32.257 10.554V6.999h8.866v34.377c-2.818 0-5.618.032-8.417-.037-.344 0-.763-.518-.997-.882-3.297-5.117-6.564-10.246-9.843-15.368-.253-.401-.523-.784-.979-1.444V41.29H88.7V6.925c2.805 0 5.604-.037 8.404.037.344 0 .75.525.99.895a11089.82 11089.82 0 0 1 9.844 15.368c.246.388.523.784 1.003 1.463Zm40.686 16.694c-2.818 0-5.537.038-8.269-.043-.388 0-.867-.506-1.12-.901-3.328-5.141-6.62-10.307-9.917-15.466-.228-.358-.48-.691-.948-1.365V41.29h-8.785V6.925c2.774 0 5.574 0 8.373.037.338 0 .751.525.991.895 3.281 5.11 6.562 10.231 9.843 15.361.259.408.529.797 1.028 1.543V6.987h8.81Zm3.107-.092V7.017h19.029v7.734h-10.12v5.456h10.114v7.888h-10.151v5.4h10.139v7.795ZM26.166 20.88c-2.461-4.456-6.152-6.339-10.268-5.407-6.672 1.528-9.193 9.728-4.538 14.761a8.901 8.901 0 0 0 3.449 2.305c4.239 1.548 7.771.061 11.487-5.006v11.288a1.36 1.36 0 0 1-.917 1.512c-6.768 2.845-13.16 2.259-18.827-2.438C.886 33.199-1.224 26.785.689 19.584c1.883-7.099 6.7-11.443 13.905-12.961a16.561 16.561 0 0 1 10.674 1.345c.501.261.858.736.972 1.29.08 3.623.043 7.246.037 10.863-.02.254-.057.508-.111.759Zm157.539 12.634h10.232v7.776h-19.03V6.974h8.798Z" fill="#fff"/>
</svg>
