<svg viewBox="104 182 304 140" xmlns="http://www.w3.org/2000/svg" xml:space="preserve">
    <g fill="#fff">
        <path d="M306.5 284.7c-9.23.23-18.46.5-27.69.67-5.67.11-11.35.08-17.03.12l-35.38.27c-7.59.05-15.19.1-22.78.12-5.6.02-11.19-.01-16.79.01-1.43 0-2.87.11-4.3.16-1.41.05-2.65-.29-3.77-1.23-.96-.82-2.06-1.49-3.11-2.21-3.34-2.31-6.67-4.65-10.04-6.92-3.17-2.13-6-4.6-8.2-7.75-.73-1.04-1.55-2.01-2.27-3.05-.45-.64-.32-1.26.26-1.83 2.33-2.34 4.63-4.71 6.96-7.04 2.67-2.67 5.38-5.32 8.06-7.99 2.86-2.85 5.68-5.73 8.55-8.55 1.7-1.67 3.49-3.24 5.2-4.9.91-.89 1.71-1.89 2.61-2.79 1.63-1.6 3.34-3.13 4.95-4.75 1.39-1.4 2.64-2.93 4.02-4.35 1.49-1.55 3.07-3.01 4.58-4.54 2.24-2.27 4.44-4.57 6.69-6.84 2.69-2.71 5.44-5.38 8.11-8.1 3.05-3.1 6.04-6.26 9.08-9.38 1.51-1.55 3.09-3.03 4.61-4.57 1.19-1.21 2.35-2.46 3.52-3.69.95-1 1.82-2.08 2.87-2.97.53-.45 1.35-.77 2.04-.78 4.72-.06 9.44-.02 14.15-.02 7.68.01 15.35.03 23.03.01 1.37 0 2.43.38 3.31 1.5.68.88 1.59 1.58 2.39 2.36 3.5 3.43 7 6.85 10.48 10.3 1.5 1.48 2.97 2.99 4.4 4.54.31.34.49.92.49 1.39-.02 1.79-.13 3.58-.22 5.37-.04.89-.24 1.43-1.4 1.45-5.55.08-11.1.25-16.65.43-1.16.04-1.91-.4-2.33-1.46-.95-2.39-1.94-4.76-2.85-7.17-.6-1.59-1.48-2.31-3.21-2.29-3.52.03-7.04.11-10.55.15-4.92.06-9.83.16-14.75.12-1.44-.01-2.36.51-3.01 1.69-.27.49-.5 1-.7 1.52-.68 1.81-1.31 3.64-2.03 5.43-.76 1.9-1.63 3.75-2.42 5.64-.61 1.46-1.15 2.95-1.73 4.42-.37.96-.71 1.92-1.11 2.87-.94 2.22-1.92 4.43-2.85 6.65-1.19 2.87-2.35 5.75-3.53 8.62-.46 1.11-.97 2.19-1.44 3.29-.24.58-.53 1.18-.62 1.79-.16 1.14.22 1.54 1.37 1.55 6.96.03 13.91.05 20.87.05 6.56 0 13.11.01 19.67-.04 4.75-.03 9.51-.13 14.26-.21 2.62-.05 5.25-.13 7.87-.2 1.7-.04 1.94-.27 2.06-2.04.15-2.27.32-4.54.44-6.82.04-.86.54-1.09 1.26-1.1 4.31-.01 8.62.01 12.94-.03 4.55-.04 9.09-.14 13.64-.19.84-.01 1.67.13 2.51.13.79 0 1.62.05 2.36-.16 1.79-.5 3.28-.19 4.62 1.13 1.96 1.93 3.97 3.81 5.97 5.71 3.4 3.23 6.82 6.45 10.21 9.7 4.07 3.91 8.13 7.83 12.15 11.79.69.67 1.13 1.51 2.09 1.99.66.33.86 1.34.24 2.01-2.37 2.58-4.71 5.2-7.23 7.62-1.32 1.27-3.04 2.12-4.53 3.23-2.74 2.04-5.44 4.13-8.18 6.17-1.62 1.21-3.26 2.4-4.96 3.5-.53.34-1.28.46-1.93.46-7.48.05-14.95.05-22.43.07-.96 0-1.92.08-2.88.12.02-.02.01-.09.01-.16zm-38.9-13.58v-.09c3.36 0 6.72.01 10.08 0 10.16-.05 20.31-.12 30.47-.18 7.8-.04 15.59-.04 23.39-.11 1.78-.02 3.55-.33 5.33-.32 3.08.02 6.16.22 9.24.27.95.01 1.92-.15 2.84-.38.89-.23 1.92-.44 2.55-1.02 1.77-1.66 3.45-3.43 4.98-5.31.4-.49.3-1.59.08-2.3-.18-.58-.85-1.01-1.34-1.48-3.11-3.02-6.23-6.02-9.36-9.03-.6-.58-1.2-1.14-1.81-1.7-1.55-1.42-3.12-2.82-4.64-4.27-1.88-1.78-3.71-3.61-5.57-5.42-1.89-1.83-3.88-3.56-5.64-5.49-1.21-1.33-2.59-1.94-4.3-1.93-1.59 0-3.18.07-4.77.1-4.11.07-8.22.16-12.33.2-4.44.05-8.88.04-13.31.08-1.23.01-1.63.51-1.18 1.69.48 1.26 1.19 2.43 1.8 3.63.61 1.2 1.31 2.36 1.81 3.61.48 1.17-.04 1.73-1.32 1.62-.67-.06-1.35-.21-2.02-.19-2.2.05-4.39.23-6.59.24-6.96.05-13.92.06-20.87.08-10 .04-20 .05-30 .13-5.55.04-11.11.2-16.66.29-.43.01-.87-.14-1.31-.22.09-.49.08-1.04.3-1.47.76-1.49 1.61-2.93 2.39-4.42 1.38-2.64 2.75-5.28 4.07-7.94 1.29-2.6 2.5-5.24 3.76-7.86.76-1.57 1.51-3.15 2.3-4.71 1.22-2.43 2.51-4.82 3.7-7.27 1.11-2.27 2.11-4.6 3.17-6.89 1.13-2.42 2.33-4.8 3.4-7.24.82-1.86 1.27-2.26 3.35-2.3 3.28-.06 6.56-.12 9.83-.17 2.91-.04 5.83-.08 8.74-.1 2.44-.02 4.87-.02 7.31 0 1.35.01 2.19.69 2.69 1.97.58 1.48 1.45 2.86 1.94 4.37.62 1.92 1.65 2.58 3.74 2.48 4.87-.22 9.75-.1 14.63-.14 1.3-.01 1.48-.39.84-1.54-.12-.21-.25-.41-.41-.58-2.3-2.3-4.62-4.59-6.92-6.9-2.81-2.82-5.54-5.71-8.44-8.43-.74-.69-1.31-1.78-2.66-1.77-7.84.05-15.67.03-23.51.06-4.08.02-8.16.22-12.23.07-1.59-.06-2.85.31-3.89 1.33-2.01 1.96-3.9 4.03-5.87 6.04-3.5 3.57-7 7.14-10.52 10.69-.56.56-1.23 1.01-1.77 1.59-1.29 1.4-2.48 2.88-3.79 4.25-2.09 2.18-4.26 4.28-6.38 6.43-1.57 1.59-3.1 3.2-4.66 4.79-1.7 1.73-3.41 3.46-5.1 5.19-1.89 1.93-3.75 3.89-5.66 5.81-2.47 2.48-4.98 4.92-7.45 7.41-2.33 2.35-4.6 4.76-6.94 7.1-1.54 1.54-3.2 2.96-4.73 4.51-1.68 1.69-3.26 3.48-4.93 5.18-3.13 3.18-6.3 6.31-9.44 9.48-1.25 1.26-1.26 1.78-.12 3.16 1.29 1.56 2.68 3.05 3.87 4.69.8 1.1 1.77 1.52 3.06 1.51 4.88-.03 9.76-.01 14.64-.07 8.03-.11 16.07-.28 24.1-.4 4.84-.07 9.68-.11 14.52-.15 10.48-.09 20.96-.18 31.43-.24 6.01-.05 12.05-.02 18.09-.02zm-73.68 46.91c.75-1.58 2.16-1.18 3.34-1.52.83-.24 1.82-.97 2.13-1.72 1.34-3.19 2.45-6.48 3.64-9.73.96-2.61 1.92-5.22 2.84-7.85.19-.54.28-1.17.23-1.73-.08-.79-.73-.8-1.37-.77-.16.01-.37-.15-.49-.29-.65-.77.05-3.13 1.05-3.25 1.69-.2 3.42-.28 5.12-.22.33.01.87.88.91 1.39.25 3.07.37 6.14.57 9.22.15 2.42.32 4.84.53 7.26.04.43.34.84.51 1.27.34-.28.78-.5.99-.86 3.16-5.31 6.3-10.62 9.41-15.96.83-1.42 1.64-2.66 3.63-2.47 1.74.17 3.51.03 5.26.16.49.04 1.32.5 1.33.81.04.72-.29 1.47-.51 2.2-.03.11-.25.21-.4.24-2.8.65-2.68 3.13-3.11 5.16-.73 3.46-1.37 6.94-1.85 10.44-.25 1.81-1.13 3.65-.27 5.51.22.47.68.94 1.14 1.14.72.32 1.13.71 1.06 1.52-.34 3.79-.01 3.37-3.41 3.61-3.05.21-6.13 0-9.19-.03-.24 0-.48.02-.72-.01-.49-.06-1.32-.03-1.39-.24-.18-.56-.11-1.24.02-1.83.17-.72.43-1.44.81-2.07.22-.36.74-.71 1.14-.74 2.08-.14 3.11-1.07 3.51-3.08.63-3.14 1.37-6.27 2.03-9.41.09-.41-.05-.86-.08-1.29-.41.26-.99.41-1.21.78-1.44 2.44-2.79 4.94-4.19 7.4-1.83 3.23-3.75 6.41-5.5 9.69-.73 1.38-1.78.75-2.7.71-.99-.05-1.41-.87-1.45-1.78-.06-1.38 0-2.77-.03-4.16-.04-1.94-.1-3.89-.22-5.83-.02-.32-.37-.88-.59-.89-.35-.01-.95.26-1.04.54-.65 2-1.24 4.01-1.72 6.06-.06.27.58.91 1 1.06 1.46.5 1.77 1.12 1.08 2.52-.25.5-.54.99-.68 1.52-.23.91-.79 1.19-1.67 1.19-3.02.01-6.04.1-9.06.06-.35-.01-.84-.59-1.01-1.01-.19-.47-.09-1.06-.11-1.6-.11-.03-.22-.06-.32-.09-.16.3-.36.59-.46.9-.43 1.27-1.25 1.88-2.59 1.88-5.31.02-10.62.06-15.93.05-.78 0-1.56-.21-2.76-.38.92-1.63 1.69-3.08 2.57-4.45.18-.28.78-.37 1.2-.4 1.73-.15 2.8-1.09 3.56-2.62 1.64-3.32 3.39-6.59 5.07-9.89 1.28-2.51 2.52-5.03 3.81-7.54.3-.59.2-1-.38-1.28-1.04-.5-1.33-1.34-1.05-2.39.26-.97 1.53-1.83 2.47-1.84 4.15-.04 8.31-.12 12.46-.12.66 0 1.82.21 1.87.5.16.79-.01 1.71-.3 2.5-.4 1.11-1.02 2.14-1.54 3.2-.43.89-.75 1.86-1.31 2.66-.24.34-.95.5-1.44.49-2.53-.04-2.52-.07-1.73-2.44.18-.53.39-1.07.44-1.61.04-.38-.04-.94-.29-1.15-.26-.22-.86-.28-1.19-.14-.48.22-1.01.61-1.24 1.06-.83 1.64-1.61 3.3-2.28 5.01-.45 1.13.05 1.66 1.28 1.55 1.08-.09 1.56.58 1.12 1.63-.3.73-.62 1.46-1.04 2.13-.18.29-.6.51-.96.58-.5.11-1.04.11-1.55.07-1.28-.08-2.03.6-2.5 1.67-.86 1.92-1.72 3.85-2.5 5.8-.2.5-.12 1.1-.17 1.66.8-.01 1.7.21 2.38-.09.55-.24.9-1.07 1.22-1.69.47-.92.8-1.91 1.27-2.83.66-1.27 3.39-1.9 4.62-1.11.64.41.58 1.38.08 2.38-.63 1.27-1.14 2.6-1.64 3.93-.11.28.02.65.05.99.15.09.27.2.39.3zm120.94 2.85c-1.36 0-2.73.13-4.07-.02-3.64-.41-6.51-2.18-7.99-5.58-.99-2.27-1.51-4.75-2.26-7.13-.79-2.49-1.6-4.98-2.4-7.47-.56-1.75-1.17-3.48-1.63-5.25-.34-1.31-.04-2.48 1.1-3.44 1.71-1.44 3.68-2.04 5.86-2.04 1.48 0 2.99-.1 4.42.16 1.3.24 2.53.88 3.76 1.44.79.35 1.36.51 1.59-.58.16-.76.65-.96 1.43-.9 1.11.09 2.25.13 3.35-.01 1.85-.23 3.12.67 4.3 1.89 1.37 1.41 2.78 2.8 4.14 4.22 1.26 1.33 2.46 2.72 3.73 4.04.99 1.03 2.04 2.02 3.09 3 .23.22.58.31.88.45.11-.4.38-.84.29-1.19-.15-.56-.55-1.05-.83-1.58-.76-1.43-1.5-2.88-2.26-4.31-.73-1.37-1.55-2.6-3.38-2.64-.7-.01-2.38-2.41-2.15-3.07.12-.34.66-.74 1.03-.76 1.96-.09 3.92-.11 5.87-.08.97.02 2.75 1.81 2.78 2.77.01.43-.16.98-.46 1.27-.66.67-.66 1.32-.25 2.06 1.07 1.91 2.15 3.83 3.23 5.74 1.06 1.87 2.11 3.75 3.2 5.61 1.45 2.48 2.93 4.94 4.39 7.41.83 1.41 1.69 2.8 2.43 4.25.2.4.17 1.02.01 1.45-.07.19-.76.17-1.16.18-.8.03-1.6.02-2.4.03-1.28.02-2.3-.49-3.16-1.44-2.09-2.3-4.16-4.63-6.32-6.86-1.6-1.66-3.34-3.18-5.01-4.77-.2-.19-.31-.48-.53-.63-.45-.31-1.05-.88-1.38-.77-.82.28-.51 1.06-.24 1.63.57 1.23 1.19 2.44 1.8 3.65.51.99.91 2.07 1.6 2.93.54.67 1.37 1.27 2.18 1.49 1 .27 1.63.76 2.08 1.61.33.64.7 1.26.98 1.92.28.65.18 1.28-.66 1.29-2.46.03-4.93-.02-7.39-.03-1.22-.01-2.07-.47-2.35-1.76-.08-.38-.34-.72-.52-1.07-.47-.91-.44-1.65.59-2.2 1.03-.56 1.3-1.46.82-2.41-.94-1.89-1.9-3.76-2.8-5.66-1.36-2.88-2.66-5.79-4-8.68-.55-1.19-1.12-2.38-1.69-3.57-.62-1.29-3.07-1.88-4.13-.95-.2.17-.3.68-.19.93.83 1.98 1.73 3.93 2.59 5.91.98 2.26 1.93 4.54 2.9 6.8.93 2.18 1.8 4.39 2.81 6.53.67 1.43.41 3.16-.92 4.76-.78.94-1.69 1.55-2.98 1.45-.63-.05-1.28.04-1.92.05-.6.01-1.2 0-1.8 0v-.07zm-1.73-5.15c2.36-.13 3.1-1.24 2.34-3.54-.06-.19-.15-.37-.22-.56-.65-1.67-1.27-3.34-1.94-5-1.45-3.58-2.88-7.16-4.42-10.7-.79-1.81-1.4-2.05-3.39-1.86-2.17.21-2.84 1.29-2.1 3.35.53 1.46 1.01 2.93 1.52 4.39.78 2.25 1.58 4.5 2.33 6.76.32.97.52 1.98.86 2.95.79 2.27 2.05 4.52 5.02 4.21zm-181.26-5.27c-1.21 1.56-2.16 2.86-3.18 4.1-1.56 1.9-3.08 3.86-4.79 5.62-1.15 1.18-2.69 1.81-4.43 1.8-3.84-.04-7.67-.03-11.51-.02-1.56 0-3.04-.64-3.58-1.91-.69-1.63-.75-3.57.63-5.09 2.11-2.33 4.25-4.62 6.43-6.88 2.44-2.53 4.95-4.99 7.41-7.5 1.9-1.93 3.79-3.87 5.67-5.81 2.2-2.27 4.78-3.61 8.04-3.57 3.75.04 7.5-.09 11.25-.03.56.01 1.45.5 1.59.96.22.69.19 1.74-.2 2.31-1.28 1.81-2.75 3.48-4.19 5.17-.29.35-.75.72-1.17.76-1.4.15-2.82.29-4.21.19-.83-.06-.88-1.02-.21-1.79.6-.69 1.16-1.41 1.68-2.15.5-.71.28-1.27-.56-1.4-1.89-.3-3.67-.34-5.13 1.37-1.77 2.08-3.74 3.99-5.61 5.99-2.14 2.29-4.26 4.59-6.38 6.9-1.34 1.46-2.71 2.89-3.94 4.43-.39.49-.53 1.33-.45 1.97.04.32.8.64 1.29.79 2.1.62 3.74-.35 5.17-1.73.83-.8 1.63-1.66 2.29-2.6 1.19-1.71 2.88-2.15 4.79-2.11.97.01 1.93.13 3.3.23zm47.38-19.44c1.48 0 2.95.05 4.43-.01 1.21-.05 1.53.38 1.34 1.55-.22 1.39-1.13 2.1-2.28 2.29-2.12.36-3.13 1.87-4.04 3.5-1.85 3.31-3.61 6.66-5.44 9.98-2.3 4.14-4.66 8.26-6.96 12.4-.5.9-1.14 1.18-2.14 1.14-2.77-.12-2.94.24-2.53-2.79.44-3.27 1.15-6.5 1.76-9.75.32-1.71.7-3.42.98-5.13.05-.33-.21-.71-.33-1.07-.39.13-.92.15-1.14.42-.68.84-1.25 1.75-1.83 2.66-1.83 2.89-3.64 5.79-5.46 8.67-.55.87-.61 1.52.54 1.96.25.1.52.82.41 1.11a22.7 22.7 0 0 1-1.61 3.33c-.17.3-.73.51-1.12.52-2.99.08-5.98.12-8.97.1-.4 0-1.09-.32-1.14-.58-.07-.46.14-1.05.42-1.47.47-.72 1.05-1.4 1.65-2.02.36-.38.88-.89 1.31-.87 2.68.12 3.85-1.87 5.1-3.62 1.91-2.68 3.61-5.51 5.44-8.24 1.86-2.77 3.75-5.52 5.65-8.27.42-.61.36-1.06-.16-1.58-1-1.01-.95-1.47.13-2.4.09-.08.25-.15.26-.24.26-1.78 1.62-1.39 2.77-1.41 1.2-.02 2.4-.05 3.59-.03 1.6.03 1.87.24 1.65 1.85-.29 2.11-.83 4.19-1.17 6.3-.26 1.6-.42 3.22-.56 4.84-.02.25.22.61.44.74.13.08.48-.16.7-.31.16-.11.3-.27.4-.44 1.29-2.24 2.61-4.47 3.85-6.75.76-1.4.37-2.06-1.21-2.27-.89-.12-1.2-1.4-.52-2.45.59-.9 1.23-1.74 2.57-1.6 1.07.11 2.15.02 3.23.02-.01-.02-.01-.05-.01-.08zm104.86 29.97c-1.6 0-3.2.02-4.79-.02-.32-.01-.73-.18-.93-.41-.92-1.05-.64-3.7.48-4.51 1.25-.91 1.58-2.06 1.31-3.56-.67-3.68-1.22-7.39-1.88-11.08-.35-2-.76-4-1.28-5.97-.11-.43-.76-.86-1.25-1.02-1.37-.45-2.29-2.55-1.46-3.73.21-.3.81-.44 1.23-.44 2.9-.02 5.81-.11 8.7.09 1.88.13 3.75.63 5.6 1.1.45.11.89.68 1.14 1.14 1.46 2.69 2.58 5.49 2.09 8.65-.07.48-.29.99-.58 1.38-.6.79-.52 1.46.17 2.11.12.11.23.23.37.31 2.13 1.18 2.89 3.18 3.34 5.41.25 1.21.68 2.38 1.03 3.56.34 1.14 1.1 1.77 2.27 2.04 1.73.4 2.96 2.55 2.28 3.96-.19.4-.72.88-1.11.89-1.83.05-3.82.38-5.44-.22-1.29-.48-2.55-2-3.1-3.35-1.02-2.52-1.53-5.25-2.21-7.9-.48-1.87-2.8-3.12-4.53-2.29-.31.15-.64.79-.58 1.12.39 2.07.73 4.17 1.44 6.14.32.88 1.4 1.54 2.24 2.14.86.62 2 2.76 1.58 3.69-.17.39-.94.68-1.45.71-1.55.09-3.11.03-4.67.03-.01 0-.01.01-.01.03zm-1.68-24.85c.41 1.82.86 3.64 1.23 5.47.22 1.09.88 1.33 1.84 1.15 1.29-.25 2.36-1.57 2.17-3.17-.16-1.43-.7-2.83-1.15-4.22-.3-.91-1.52-1.26-3.01-1.02-1.1.18-.92 1.02-1.08 1.79zm109.96 1.7c-1.85 1.25-4.7.89-5.99-.6-.68-.78-1.38-1.54-2.09-2.29-1.64-1.75-3.72-2.15-5.93-1.66-.69.15-1.61.87-1.74 1.47-.13.62.41 1.67.99 2.06 1.1.75 2.4 1.26 3.67 1.7 1.53.53 3.16.78 4.68 1.34 1.81.67 3.55 1.55 5.32 2.32.36.16.75.27 1.12.38 4.07 1.23 8.01 2.71 10.98 5.92 1.42 1.53 2.95 2.96 3.77 5 .96 2.37-.68 6.07-3.24 6.26-4 .3-8.12 1.05-12.01-.28-1.95-.66-3.76-2.09-5.3-3.53-1.75-1.65-3.13-3.7-4.65-5.59-.2-.25-.28-.61-.41-.92.32-.11.63-.29.96-.31 1.15-.08 2.33-.26 3.46-.09.79.12 1.62.6 2.22 1.16 1.07 1 1.86 2.3 2.97 3.24 1.91 1.64 4.15 2.49 6.74 2.05 1.88-.32 2.62-2.01 1.4-3.46-1.53-1.82-3.41-3.17-5.75-3.89-2.89-.89-5.74-1.9-8.59-2.91-2.25-.8-4.47-1.69-6.72-2.51-3.43-1.25-6.04-3.51-7.97-6.55-1.09-1.72-.72-4.09.75-5.5.17-.16.38-.33.6-.37 1.73-.28 3.51-.91 5.18-.7 2.29.28 4.44-.23 6.65-.45 1.14-.11 1.66-.01 2.23 1.21.68 1.45 2 2.62 3.12 3.85 1.15 1.26 2.38 2.42 3.58 3.65zm-144.46 23.64c-1.35 0-2.71.06-4.05-.04-.41-.03-.97-.41-1.15-.78-.69-1.38-.2-3.13 1.09-4.34 1.78-1.69 2.07-3.17.99-5.33-.75-1.49-2.17-.93-3.32-.94-.97-.02-2.04.19-2.39 1.41-.25.88-.5 1.76-.76 2.64-.43 1.46.15 2.29 1.65 2.51.35.05.94.44.93.62-.1 1.13-.3 2.25-.57 3.35-.07.27-.49.55-.8.64-2.71.77-5.46.39-8.21.22a.751.751 0 0 1-.42-.2c-.9-.79-.38-4.26.78-4.51 2.78-.61 3.43-2.81 4.1-5.07.6-2.05 1.28-4.08 1.87-6.13.92-3.19 1.78-6.4 2.68-9.6.17-.61.06-1.01-.58-1.35-1.33-.69-.55-1.93-.56-2.92-.01-.9.79-.98 1.5-.98 1.83-.01 3.66.03 5.49 0 1.03-.02 1.37.56 1.55 1.45.88 4.44 1.82 8.87 2.68 13.32.51 2.62.89 5.26 1.34 7.89.25 1.45.9 2.56 2.35 3.19.46.2.77.88 1.02 1.4.14.29.05.71.04 1.07-.08 2.18-.51 2.55-2.68 2.4-.75-.05-1.51.02-2.26.02-.76.01-1.52 0-2.28 0-.03.01-.03.03-.03.06zm-4.82-19.57c-.22-.03-.44-.05-.66-.08-.36.73-.87 1.44-1.02 2.22-.07.38.52.89.81 1.34.44-.36 1.22-.69 1.26-1.09.1-.77-.23-1.59-.39-2.39zm22.3-.94c.38 4.35.74 8.61 1.12 12.87.12 1.33 1 2.28 2.23 2.64.36.11.88.45.93.75.17 1.01.27 2.06.16 3.07-.04.32-.82.77-1.27.78-2.68.06-5.35.02-8.03-.01-1.13-.01-2.28.04-3.4-.12-.42-.06-1.03-.6-1.09-.99-.14-.89-.04-1.83.08-2.73.04-.26.43-.59.72-.69 1.82-.62 2.58-1.56 2.57-3.49-.02-3.28-.1-6.56-.14-9.83-.03-2.31-.03-4.63-.07-6.94-.02-.86-.13-1.69-1.25-1.88-1.12-.19-2.07.06-2.48 1.15-.31.83-.45 1.78-.44 2.67.01 1.01-.32 1.49-1.33 1.56-1.55.1-2.43-.28-2.39-1.3.08-2.35.25-4.71.53-7.04.05-.41.84-1.01 1.32-1.04 1.82-.12 3.66-.03 5.49-.03 1.24 0 2.47-.01 3.71-.03.32 0 .64-.07.96-.07h6.8c1.78 0 2.73.89 2.88 2.65.15 1.83.31 3.65.45 5.48.02.23-.01.64-.09.66-.86.22-1.74.55-2.6.49-.44-.03-.99-.68-1.22-1.18-.32-.71-.29-1.59-.59-2.31-.24-.58-.66-1.29-1.18-1.5-1.67-.68-2.37-.11-2.36 1.7-.02 1.6-.02 3.2-.02 4.71zm110.48 19.73c-3.59-.38-6.76-.44-9.41-2.36-.75-.54-1.36-1.33-1.9-2.09-2.16-3.06-4.28-6.14-6.38-9.23-1.67-2.47-3.27-4.99-4.95-7.46-1.01-1.48-2.1-2.91-3.13-4.37-1.4-1.96-.94-3.3 1.15-4.4 1.62-.85 3.24-1.01 4.97-.8.32.04.66.07.96 0 2.98-.77 4.97.75 6.71 2.86 1.16 1.4 2.34 2.79 3.47 4.22.24.31.49.87.36 1.14-.13.28-.71.45-1.11.47-1.47.06-2.83-.07-3.63-1.68-.45-.91-1.23-1.66-1.93-2.42-.43-.46-.94-.89-1.5-1.17-1-.5-1.99-.26-2.76.5-.73.72-.66 1.64-.12 2.42.97 1.41 2.03 2.75 3.04 4.13 2.22 3.03 4.38 6.09 6.65 9.08 1.39 1.84 2.9 3.59 4.41 5.33.67.78 3.26 1.02 4.06.42.91-.68.55-1.62.2-2.39-.38-.82-.97-1.55-1.52-2.28-.6-.81-.5-1.21.52-1.36 1.73-.26 3.41-.39 4.55 1.43.97 1.55 2.22 2.94 3.07 4.54 1.05 1.96-.14 4.22-2.3 4.74-1.3.28-2.61.54-3.48.73zm-242.85 1.4c-2.16 0-4.31.03-6.47-.03-.4-.01-1.04-.3-1.13-.6-.13-.41.02-1.03.27-1.42.62-.95 1.3-1.87 2.09-2.68.37-.38 1.05-.7 1.57-.67 2.27.14 3.68-1.27 4.92-2.75 2.62-3.11 5.11-6.33 7.61-9.55 1.68-2.16 3.28-4.37 4.92-6.55.19-.25.45-.45.69-.66 1.03-.93 1.02-1.27-.11-2.09-.55-.4-.35-1.63.28-2.33 1.04-1.17 2.24-1.66 3.86-1.6 3.19.11 6.39-.03 9.59-.02.36 0 .96.16 1.02.37.09.34-.09.81-.29 1.16-.88 1.52-2.12 2.43-3.98 2.39-1.38-.03-2.35.44-3.21 1.76-1.95 3-4.25 5.77-6.38 8.65-1.94 2.63-3.85 5.28-5.78 7.92-.63.86-1.07 1.78-.28 2.72.29.35.82.6 1.28.67.72.11.82.49.55.99-.36.66-.83 1.25-1.27 1.86-.16.22-.5.39-.53.62-.26 1.66-1.61 1.6-2.74 1.65-2.16.09-4.32.03-6.48.03v.16zm207.59-32.13c1.12 0 2.24.02 3.36-.01.98-.02 1.69.29 2.09 1.26.16.39.57.68.73 1.07.17.4.39 1.06.21 1.27-1.25 1.43-.08 2.5.56 3.51 1.96 3.1 4.03 6.12 6.1 9.15 1.62 2.37 3.29 4.7 4.93 7.06.23.33.37.72.63 1.01.37.41.79 1.03 1.24 1.09 1.94.25 3.02 1.45 3.85 3.05 1.11 2.1 1.13 2.19-1.19 2.3-2.63.12-5.27.11-7.9.03-1.19-.04-2.27-.48-2.63-1.86-.09-.36-.39-.68-.62-1-.62-.84-.85-1.65.16-2.37.88-.63.81-1.46.33-2.23-1.84-2.98-3.75-5.93-5.61-8.9-1.67-2.67-3.35-5.33-4.97-8.04-.93-1.56-2.28-2.51-3.96-3.07-.44-.14-2.16-2.33-2-2.69.14-.32.62-.67.97-.7 1.23-.08 2.47-.03 3.71-.03.01.04.01.07.01.1z"/>
        <path d="M285.9 198.67c-1.61.02-3.22.05-4.82.07-.6.01-1.2-.04-1.79.02-2.86.32-2.7-.08-3.89-2.32-.93-1.75-1.79-3.55-2.85-5.23-.33-.53-1.21-1.02-1.83-1.02-6.64-.03-13.28.02-19.91.09-3.31.03-6.63.17-9.94.17-1.55 0-2.12 1.14-2.71 2.17-1.45 2.55-2.8 5.17-4.16 7.77-1.07 2.05-2.08 4.13-3.14 6.18-1.1 2.14-2.27 4.25-3.34 6.41-1.15 2.34-2.16 4.75-3.34 7.08-1.64 3.22-3.39 6.39-5.08 9.59-2.23 4.23-4.44 8.47-6.67 12.69-.53 1.01-1.12 2-1.69 3-.81 1.43-.4 2.14 1.24 2.14 10.52-.01 21.04 0 31.55-.03 7.56-.02 15.11-.07 22.67-.15 4.15-.05 8.29-.24 12.44-.27 4.95-.04 9.89.04 14.84.02 2.3-.01 4.61-.08 6.91-.26 1.48-.11 1.91-.98 1.32-2.34-.27-.62-.66-1.19-.99-1.78-1.02-1.8-2.06-3.59-3.04-5.41-.18-.34-.28-.92-.1-1.2.15-.25.73-.26 1.13-.32.39-.06.79-.08 1.19-.09 1.35-.03 2.7-.05 4.05-.09.87-.03 1.74-.1 2.62-.12 1.3-.03 2.6-.03 3.9-.03.16 0 .32.06.47.06 2.27-.1 4.53-.24 6.8-.3 1.83-.05 3.69-.22 5.47.07.93.15 1.79 1.1 2.55 1.82 1.33 1.25 2.56 2.6 3.83 3.91 2.39 2.46 4.76 4.93 7.16 7.36 3.39 3.44 6.82 6.83 10.19 10.28 1.19 1.22 2.28 2.54 3.34 3.87.23.28.27.85.18 1.22-.19.76-1.94 1.88-2.74 1.88-6.8 0-13.59-.01-20.39.02-10.8.05-21.6.11-32.39.22-4.76.05-9.51.3-14.26.35-17.24.18-34.47.36-51.71.47-15 .09-30 .08-44.99.13-5.68.02-11.35.1-17.03.14-.72 0-1.47.02-2.14-.18-.41-.12-.8-.59-1-1.01-.12-.24.07-.77.29-1 2.66-2.83 5.38-5.61 8.03-8.45 1.88-2.01 3.61-4.15 5.51-6.14 3.08-3.23 6.27-6.36 9.34-9.6 2.55-2.69 4.97-5.51 7.5-8.22 1.44-1.54 3.02-2.94 4.5-4.43.7-.7 1.32-1.48 1.99-2.21 1.94-2.15 3.9-4.3 5.84-6.46 2.37-2.64 4.72-5.3 7.11-7.93 1.2-1.32 2.49-2.55 3.71-3.85 1.76-1.85 3.5-3.72 5.23-5.6 2.77-3.02 5.52-6.06 8.29-9.09 1.87-2.05 3.68-4.14 5.64-6.09.49-.49 1.43-.73 2.18-.76 6.42-.29 12.85-.55 19.28-.73 2.55-.07 5.11.13 7.66.12 2.31-.01 4.63-.13 6.94-.23 1.51-.07 2.52.64 3.44 1.78 1.13 1.4 2.42 2.65 3.62 3.99 1.87 2.1 3.72 4.23 5.57 6.36.25.29.4.66.59 1-.08.16-.12.32-.17.49z"/>
    </g>
</svg>
