<svg viewBox="-162 148 822 189" xmlns="http://www.w3.org/2000/svg" xml:space="preserve">
    <g fill="#fff">
        <path d="M249.36 337.25c-123.74 0-247.47-.03-371.21.04-16.42.01-28.43-7.18-36.59-21.17-3.36-5.76-4.5-12.08-4.49-18.71.03-20.75-.03-41.5-.07-62.24-.03-14.75-.08-29.5-.13-44.24-.05-15.45 7.05-26.93 19.59-35.41.52-.35 1.07-.65 1.59-.99 6.95-4.54 14.46-6.37 22.86-6.36 243.85.11 487.69.11 731.54-.03 17.68-.01 30.94 7.33 41.02 21.35 3.46 4.81 5.25 10.12 5.25 16.09.01 37.12.12 74.24.07 111.36-.02 18.11-11.1 33.47-28.26 39.16-3 .99-6.39 1.12-9.59 1.12-123.86.04-247.72.03-371.58.03zM248 173c-122.87 0-245.75-.01-368.62.04-2.85 0-5.75.29-8.54.86-4.69.95-7.79 3.85-8.86 8.59-.44 1.93-.66 3.95-.67 5.93-.18 26.75-.32 53.49-.43 80.24-.04 9.75.04 19.5.02 29.25-.02 7.85 4.05 13.06 11 15.81 3.15 1.24 6.83 1.56 10.27 1.56 37.25.1 74.5.05 111.75.04 114.24-.01 228.48-.01 342.72-.01 89.87 0 179.75.03 269.62.01 4.73 0 9.52.04 14.19-.57 7.94-1.04 13.37-6.43 14.79-14.31.53-2.93.67-5.96.68-8.95.06-32.62.09-65.25.08-97.87 0-15.19-5.45-20.63-20.5-20.63-122.51.01-245.01.01-367.5.01z"/>
        <path d="M555.66 292.98c-10.49 0-20.99.18-31.48-.05-13-.28-27.36-7.71-30.97-21.08-.61-2.27-1.17-4.65-1.2-6.98-.16-12.37-.36-24.74-.12-37.1.26-13.28 12.29-25.94 25.63-26.99 8.08-.64 16.21-.73 24.32-.8 13.87-.11 27.74-.14 41.61.07 5.35.08 10.77.44 16 1.49 11.19 2.26 20.29 13.74 20.37 25.07.09 12.25-.68 24.56.39 36.72 1.3 14.89-16.07 28.95-27.48 29.08-6.23.07-12.46.18-18.69.22-6.12.04-12.25.01-18.37.01-.01.13-.01.23-.01.34zm1.79-69.61v-.03c-6 0-12-.13-18 .05-3.22.1-6.47.52-9.62 1.22-6.07 1.34-8.19 4-8.44 10.14-.24 5.74-.31 11.49-.57 17.23-.4 8.47 2.4 12.88 10.43 15.55 2.45.81 5.12 1.24 7.7 1.28 10.25.15 20.5.21 30.75.02 4.09-.07 8.2-.64 12.23-1.37 6.18-1.13 10.88-6.59 11.1-12.97.19-5.36.21-10.76-.17-16.11-.66-9.35-6.54-14.79-15.92-14.98-6.49-.14-12.99-.03-19.49-.03zM77.08 200c11.62 0 23.24-.01 34.85 0 11.51 0 20.24 5.04 25.87 14.97 1.66 2.92 2.84 6.52 2.92 9.84.36 13.86.33 27.73.18 41.6-.03 2.65-.61 5.63-1.93 7.88-6.48 11.01-15.64 18-29.04 18.03-21.61.04-43.23.1-64.84.13-8.17.01-15.46-2.69-21.88-7.62-7.27-5.58-10.32-13.31-10.44-22.25-.15-10.74.42-21.51-.19-32.22-.9-15.8 13.32-30.03 28.9-30.3 11.87-.22 23.74-.05 35.6-.06zm1.31 22.5c-5.49 0-10.99-.19-16.48.06-4.08.18-8.18.67-12.18 1.48-4.98 1.01-7.53 4.47-7.73 9.63-.25 6.24-.7 12.47-.65 18.7.02 2.76.49 5.82 1.77 8.21 3.45 6.47 9.8 8.08 16.5 8.22 10.36.23 20.72.37 31.08.08 5.14-.15 10.26-1.28 15.36-2.13 1.16-.19 2.58-.75 3.23-1.62 2.59-3.5 5.15-7.07 5.05-11.77-.09-4.49-.06-8.99-.13-13.48-.19-11.25-6.26-17.3-17.48-17.39-6.11-.03-12.23.01-18.34.01zm224.02 69.75c-13.62 0-27.24.03-40.86-.01-9.43-.03-11.48-1.99-11.45-11.46.05-23.87.2-47.74.37-71.6.05-6.91 1.67-8.68 8.58-9 5.86-.27 11.74-.16 17.61-.17 21.74-.01 43.49-.01 65.23 0 10.52 0 11.2.69 11.11 11.24-.02 2.25-.19 4.49-.31 6.74-.15 3-1.76 4.59-4.74 4.69-3.86.14-7.72.28-11.58.3-16.99.1-33.97.12-50.96.28-4.39.04-5.18.9-5.32 4.46-.19 4.8 1.39 7.08 5.35 7.53 1.73.2 3.49.22 5.24.22 16.49-.05 32.98-.13 49.47-.21 5.82-.03 8.13 1.6 8.8 7.36.36 3.13-.28 6.42-.76 9.6-.35 2.27-2.1 3.26-4.34 3.38-3.74.21-7.48.61-11.22.62-15.37.07-30.74.02-46.11.04-5.53.01-8.34 5.03-5.44 9.91.59.99 2.09 1.82 3.28 2 2.7.41 5.47.5 8.22.5 17.24-.01 34.49-.08 51.73-.15 7.07-.03 8.52 1.26 8.72 8.47.1 3.36-.09 6.73-.25 10.09-.15 3.13-1.99 4.77-5.02 5-2.36.18-4.74.17-7.12.17-12.74.01-25.49 0-38.23 0zm117.39.33c-9.25 0-18.5-.18-27.74.04-14.24.34-23.22-7.58-30.22-18.75-.63-1.01-1-2.35-1.04-3.55-.62-15.22-1.94-30.44-.22-45.67 1.36-12.03 11.31-22.22 23.47-23.8 4.08-.53 8.21-.8 12.32-.82 18.12-.09 36.24.05 54.36-.07 12.34-.08 22.43 4.11 29.54 14.56 2.92 4.29 4.29 9 4.21 14.12-.06 3.94-1.66 6.01-5.5 6.25-5.34.33-10.73.31-16.08.09-3.71-.15-6.62-2.1-8.43-5.45-2.19-4.06-5.69-5.78-10.16-5.81-13.62-.1-27.23-.32-40.85-.25-10.39.05-15.69 5.23-16.05 15.61-.2 5.73-.08 11.5.34 17.22.58 7.85 5.22 11.93 13 11.94 13.75.01 27.49-.05 41.24.03 5.58.03 9.92-1.88 12.81-6.85 2.28-3.92 5.89-5.61 10.37-5.51 4.37.09 8.75.14 13.12.32 4.19.17 5.95 2.05 6.22 6.37.69 10.95-6.75 22.85-17.59 26.69-5.43 1.92-11.36 2.98-17.12 3.29-9.97.52-19.98.14-29.98.14-.02-.04-.02-.09-.02-.14zm-474.13-.33c-10 0-20-.07-30 .02-14.09.12-22.8-8.04-29.6-19.12-.61-1-.81-2.38-.84-3.6-.27-13.73-.58-27.47-.65-41.2-.05-9.51 4.1-17.04 11.58-22.87 4.84-3.76 10.49-5.34 16.35-5.4 22.49-.23 44.99-.3 67.49-.06 11.81.13 20.32 6.48 25.9 16.48 1.86 3.34 2.57 7.54 2.96 11.43.44 4.42-1.74 6.46-6.2 6.6-5.12.16-10.24.13-15.36.02-3.66-.08-6.49-1.86-8.22-5.07-2.5-4.65-6.49-6.25-11.49-6.24-13.75.02-27.5-.03-41.25 0-7.83.02-13.81 5.05-14.34 12.9-.46 6.83-.3 13.75.24 20.57.55 6.94 5.19 11.22 12.19 11.31 14.49.18 28.99.05 43.48-.14 4.77-.06 8.67-2.2 11.11-6.52 2.32-4.11 5.95-5.92 10.55-5.88 4.25.04 8.5.06 12.74.28 4.61.25 6.42 2.22 6.67 6.85.53 10.05-6.37 21.65-16.33 25.7a52.883 52.883 0 0 1-16.63 3.75c-10.09.59-20.24.17-30.36.17.01.04.01.03.01.02zm250.13 0c-12.24 0-24.48.01-36.72 0-8.12-.01-10.58-2.43-10.58-10.45-.01-23.86-.01-47.71.01-71.57 0-1.61.11-3.26.44-4.83.61-2.91 2.48-4.61 5.51-4.63 6.37-.06 12.74-.1 19.11.01 3.28.06 4.84 1.96 4.9 5.78.09 5.87.04 11.74.02 17.61-.04 12.11-.12 24.23-.12 36.34 0 5.53.77 6.23 6.33 6.23 15.86.01 31.72 0 47.59 0 1 0 2-.03 3 .01 6.27.3 7.99 1.78 8.52 8.01.3 3.57.34 7.2 0 10.76-.35 3.66-2.78 5.76-6.45 6.22-2.1.26-4.22.47-6.33.48-11.75.05-23.49.03-35.23.03z"/>
    </g>
</svg>
