<svg viewBox="0 0 396 112" xmlns="http://www.w3.org/2000/svg" xml:space="preserve" style="fill-rule:evenodd;clip-rule:evenodd;stroke-linejoin:round;stroke-miterlimit:2">
    <clipPath id="a">
        <path d="M.601 0h394.502v112H.601z"/>
    </clipPath>
    <g clip-path="url(#a)">
        <path d="M125.908 97.654h3.248l-1.614-4.11-1.634 4.11ZM87.547 92.27h-1.88v3.822h1.901c1.428 0 2.291-.739 2.291-1.88v-.041c0-1.233-.863-1.901-2.312-1.901Z" style="fill:#fff;fill-rule:nonzero"/>
        <path d="M347.411 80.267H48.282c-8.766 0-15.866 7.101-15.866 15.867 0 8.765 7.1 15.866 15.866 15.866h299.129c8.766 0 15.867-7.101 15.867-15.866 0-8.766-7.101-15.867-15.867-15.867ZM93.867 94.027c0 3.401-2.62 5.2-6.217 5.2h-1.983v4.131h-4.008V88.909h6.207c3.648 0 6.001 1.881 6.001 5.077v.041Zm18.888 9.32h-10.996V88.909h3.998v10.934h6.998v3.504Zm18.61.011-1.048-2.58h-5.57l-1.028 2.58h-4.213l6.135-14.551h3.864l6.155 14.551h-4.295Zm17.808-5.467v5.467h-4.028v-5.406l-5.487-9.043h4.562l2.97 5.262 2.991-5.262h4.48l-5.488 8.982Zm36.327 1.007c0 2.949-2.333 4.706-5.837 4.706-2.549 0-4.984-.801-6.762-2.394l2.23-2.662c1.428 1.131 3.011 1.737 4.686 1.737 1.069 0 1.654-.37 1.654-.986v-.041c0-.596-.472-.925-2.435-1.388-3.073-.699-5.446-1.572-5.446-4.542v-.041c0-2.682 2.127-4.624 5.59-4.624 2.456 0 4.378.657 5.94 1.921l-2.004 2.826c-1.326-.924-2.765-1.428-4.049-1.428-.966 0-1.449.411-1.449.925v.041c0 .658.493.945 2.497 1.408 3.319.719 5.385 1.798 5.385 4.501v.041Zm15.722-1.007v5.467h-4.028v-5.406l-5.487-9.043h4.562l2.97 5.262 2.99-5.262h4.481l-5.488 8.982Zm23.697 1.007c0 2.949-2.333 4.706-5.837 4.706-2.558 0-4.994-.801-6.761-2.394l2.229-2.662c1.429 1.131 3.011 1.737 4.686 1.737 1.069 0 1.655-.37 1.655-.986v-.041c0-.596-.473-.925-2.436-1.388-3.072-.699-5.446-1.572-5.446-4.542v-.041c0-2.682 2.127-4.624 5.59-4.624 2.456 0 4.378.657 5.94 1.921l-2.004 2.826c-1.326-.924-2.764-1.428-4.049-1.428-.966 0-1.449.411-1.449.925v.041c0 .658.494.945 2.497 1.408 3.32.719 5.385 1.798 5.385 4.501v.041Zm19.597-6.484h-4.337v10.933h-4.007V92.414h-4.327v-3.505h12.671v3.505Zm19.668 10.933h-11.725V88.909h11.623v3.402h-7.656V94.5h6.936v3.154h-6.936v2.292h7.758v3.401Zm23.584.011h-3.987v-8.303l-3.699 5.651h-.083l-3.668-5.61v8.251h-3.926V88.909h4.244l3.443 5.591 3.442-5.591h4.234v14.449Zm26.266-.011h-8.015v-.791c.185-.01.452-.031.812-.061.359-.031.606-.072.739-.124.247-.103.422-.236.514-.401.093-.164.134-.38.134-.637V91.088c0-.226-.041-.432-.134-.606-.092-.185-.267-.319-.524-.432a5.59 5.59 0 0 0-.719-.205 9.468 9.468 0 0 0-.822-.144v-.792h8.015v.792c-.226.02-.503.072-.822.144-.319.072-.555.133-.719.205-.267.113-.432.257-.524.432-.093.185-.134.38-.134.606v10.245c0 .257.041.473.134.637.092.165.267.298.513.401.134.052.381.093.74.124.36.03.627.051.812.061v.791Zm80.997-48.575-2.364.164c-.113.011-.421-.02-.565-.143-.318-.278-.524-.74-.657-1.408L386.8 23.697c-.226-1.439-.113-1.798 1.654-2.651l1.244-.607V1.829h-37.087l-1.182 4.028-1.582-4.028h-35.895v11.232C306.748 4.778 295.886 0 283.74 0c-12.547 0-24.313 4.665-32.072 12.588-6.505-8.19-16.74-12.506-29.77-12.506-11.992 0-22.012 4.655-29.821 13.863-5.231-8.355-11.243-12.116-27.058-12.116h-35.607v17.583l.021 1.654 1.582.463a4.07 4.07 0 0 1 1.038.493c.309.205.514.534.555.904.021.154.031.35.031.586 0 .616-.041 15.866-.062 25.557l-18.24-47.24H87.465l-17.11 45.318v-2.466H53.328l-1.573.02-.513 1.48c-.134.391-1.49 3.854-6.259 3.854-5.405 0-11.396-4.47-11.776-14.294-.185-4.912 2.456-8.057 4.768-9.259.391-.206.76-.36 1.079-.463 1.028-.359 2.014.627 1.654 1.655-.164.462-.493 1.017-1.079 1.675l-1.952 1.87 15.959 10.996 20.809-22.074-.709-1.387c-.39-.75-9.752-18.497-33.274-18.497C17.361.257.601 16.545.601 38.978c0 21.025 18.887 37.487 42.985 37.487h124.321l-.01-18.775-1.829-.318a9.707 9.707 0 0 1-.699-.154c8.663-2.282 16.38-6.752 20.675-9.876 5.765 17.809 22.197 29.133 42.801 29.133h24.477v-9.392c5.293 4.357 15.723 11.139 29.37 11.139 10.523 0 19.35-4.758 24.056-7.923v6.217h35.813V63.538h14.726v12.927h37.816V57.136l-.072-2.364Zm-2.127 19.484h-33.408V61.328h-19.134v12.958h-31.404V65.87s-11.479 10.133-26.266 10.133c-18.929 0-31.569-13.976-31.569-13.976v12.229h-22.268c-19.813 0-36.83-10.893-41.577-30.736-2.251 2.158-12.178 9.279-24.098 11.961-.925.206-1.387.565-1.387 1.572 0 1.84 3.915 2.497 3.915 2.497v14.716H43.586C20.968 74.266 2.8 58.718 2.8 38.988c0-19.73 14.171-36.522 37.652-36.522 22.443 0 31.311 17.295 31.311 17.295L53.328 39.327 41.15 30.931s3.998-3.843.35-6.638c-2.857-2.179-10.842 2.446-10.502 11.53.4 10.471 6.854 16.411 13.985 16.411 6.608 0 8.345-5.354 8.345-5.354h14.828v12.342l20.84-55.183h23.831l19.134 49.603s1.387 2.62 2.785 3.319c0 0 .082-32.545.082-33.459 0-.915-.123-1.922-.689-2.569-.935-1.079-2.517-1.532-2.517-1.532V4.039h33.397c17.316 0 21.765 4.716 26.79 13.8 6.937-9.371 16.483-15.547 30.099-15.547 14.017 0 23.923 5.179 29.575 13.8 7.902-9.484 20.635-13.883 32.267-13.883 14.305 0 26.266 6.957 32.442 17.727V4.039h32.185l3.391 8.642 2.528-8.642h33.223v15.023c-2.353 1.141-3.299 2.292-2.877 4.984l4.645 29.688c.195.966.534 1.973 1.356 2.713.966.863 2.261.699 2.261.699v17.11Z" style="fill:#fff;fill-rule:nonzero"/>
        <path d="M93.425 10.667h14.88l18.096 47.517c.525 1.305 1.388 2.528 2.261 3.586.863 1.048 2.96 1.747 2.96 1.747v4.1h-21.837v-4.192s1.387.174 2.086-1.049c.699-1.222.699-2.188.175-3.411-.524-1.223-4.172-10.924-4.172-10.924h-17.84s-3.658 9.783-4.008 10.656c-.349.874-.349 2.272 0 3.145.586 1.459 2.621 1.665 2.621 1.665v4.11h-17.48v-4.11s1.593-.545 2.775-1.747c1.305-1.316 1.747-2.713 1.747-2.713l17.736-48.38m-.431 28.475h11.478l-5.909-16.596-5.569 16.596Zm45.574-28.475h27.828c10.266 0 20.532 3.668 20.532 15.548 0 11.879-7.481 16.061-13.914 19.031-7.429 3.432-17.223 6.114-17.223 6.114v9.074s.083.617.956 1.665c.863 1.048 1.829 1.305 1.829 1.305v4.213h-20.182v-4.11s1.223-.267 2.086-1.131a3.918 3.918 0 0 0 1.048-1.921V19.401s.082-1.747-.617-2.445c-.698-.699-2.343-1.655-2.343-1.655v-4.634m17.398 8.56v24.282s16.349-6.813 16.349-16.421c.011-11.879-16.349-7.861-16.349-7.861Zm126.469 50.024c-18.785 0-32.298-13.78-32.298-30.541 0-16.76 13.862-29.77 32.298-29.77 18.446 0 32.298 13 32.298 29.77 0 16.771-13.503 30.541-32.298 30.541m-16.699-30.273c0 16.77 8.519 20.963 16.699 20.963 8.169 0 16.873-5.241 16.873-20.963 0-15.723-9.741-20.964-16.873-20.964-7.132 0-16.699 4.193-16.699 20.964Zm57.403-28.27h20.706l7.481 23.193 7.995-23.234h21.662v3.411s-1.438.607-2.086 1.398c-.781.956-.781 1.665-.606 3.062.175 1.398 5.734 39.296 5.909 40.694.175 1.408.349 2.189.699 3.144.339.956 1.993 1.747 1.993 1.747v3.525h-20.789v-3.782s1.83-.267 2.436-1.14c.617-.874.873-1.398.699-2.795-.175-1.398-5.128-33.192-5.128-33.192l-9.043 28.125h-10.955l-8.96-26.378-4.522 31.095s-.175 1.86.524 2.878c.956 1.407 2.693 1.407 2.693 1.407v3.751h-18.004v-4.018s1.428-.226 2.476-1.438c1.048-1.223 1.223-2.796 1.223-2.796l6.567-41.001s.39-1.532-.041-2.23c-.453-.74-2.919-1.357-2.919-1.357v-4.069M62.987 20.059l-9.711 10.225a1.424 1.424 0 0 1-1.921.123L49.7 29.051c-.072-.062-.113-.165-.113-.298 0-.35.956-1.223.956-2.878 0-1.664-.339-8.56-10.955-8.56-10.605 0-15.311 9.958-15.311 18.169 0 8.21 5.045 23.234 21.57 23.234 9.618 0 11.653-5.415 11.653-5.415h3.309v14.15H42.723C21.153 67.443 9.14 50.497 9.14 38.268c0-18.754 16.236-29.153 30.962-29.153 14.274.01 22.885 10.944 22.885 10.944m184.221.103-9.711 10.225a1.425 1.425 0 0 1-1.921.123l-1.655-1.356c-.072-.062-.113-.165-.113-.299 0-.349.956-1.222.956-2.877 0-1.665-.339-8.56-10.955-8.56-10.605 0-15.311 9.958-15.311 18.168 0 8.211 5.045 23.235 21.57 23.235 9.618 0 11.653-5.416 11.653-5.416h3.309v14.151h-18.097c-21.569 0-33.572-16.946-33.572-29.164 0-18.754 16.236-29.154 30.962-29.154 14.274-.02 22.885 10.924 22.885 10.924" style="fill:#fff;fill-rule:nonzero"/>
    </g>
</svg>
