<?xml version="1.0" encoding="UTF-8" standalone="no"?>
<!DOCTYPE svg PUBLIC "-//W3C//DTD SVG 1.1//EN" "http://www.w3.org/Graphics/SVG/1.1/DTD/svg11.dtd">
<svg width="100%" height="100%" viewBox="0 0 396 112" version="1.1" xmlns="http://www.w3.org/2000/svg" xmlns:xlink="http://www.w3.org/1999/xlink" xml:space="preserve" xmlns:serif="http://www.serif.com/" style="fill-rule:evenodd;clip-rule:evenodd;stroke-linejoin:round;stroke-miterlimit:2;">
    <g transform="matrix(1,0,0,1,-122,-4)">
        <g transform="matrix(0.102762,0,0,0.102762,122.749,4)">
            <path d="M2987.3,876.4C2985.7,875.8 2983.4,875.1 2980.3,874.4L2980.2,874.4C2974.9,873.2 2969.5,873.2 2964.3,874.4L2964.2,874.4C2961.1,875.1 2958.8,875.7 2957.2,876.4C2954.6,877.5 2953,878.9 2952.1,880.6C2951.2,882.3 2950.8,884.3 2950.8,886.5L2950.8,986.2C2950.8,988.7 2951.2,990.8 2952.1,992.4C2953,994 2954.7,995.3 2957.1,996.3C2958.4,996.8 2960.8,997.2 2964.3,997.5L2964.4,997.5C2969.5,997.9 2974.7,997.9 2979.9,997.5L2980,997.5C2983.5,997.2 2985.9,996.8 2987.2,996.3C2989.6,995.3 2991.3,994 2992.2,992.4C2993.1,990.8 2993.5,988.7 2993.5,986.2L2993.7,986.2L2993.7,886.5C2993.7,884.3 2993.3,882.3 2992.4,880.6C2991.5,878.8 2989.8,877.5 2987.3,876.4Z" style="fill:white;fill-rule:nonzero;"/>
            <path d="M1141.5,950.3L1173.1,950.3L1157.4,910.3L1141.5,950.3Z" style="fill:white;fill-rule:nonzero;"/>
            <path d="M3065.3,876.4C3063.7,875.8 3061.4,875.1 3058.3,874.4L3058.2,874.4C3052.9,873.2 3047.5,873.2 3042.3,874.4L3042.2,874.4C3039.1,875.1 3036.8,875.7 3035.2,876.4C3032.6,877.5 3031,878.9 3030.1,880.6C3029.2,882.3 3028.8,884.3 3028.8,886.5L3028.8,986.2C3028.8,988.7 3029.2,990.8 3030.1,992.4C3031,994 3032.7,995.3 3035.1,996.3C3036.4,996.8 3038.8,997.2 3042.3,997.5L3042.4,997.5C3047.5,997.9 3052.7,997.9 3057.9,997.5L3058,997.5C3061.5,997.2 3063.9,996.8 3065.2,996.3C3067.6,995.3 3069.3,994 3070.2,992.4C3071.1,990.8 3071.5,988.7 3071.5,986.2L3071.7,986.2L3071.7,886.5C3071.7,884.3 3071.3,882.3 3070.4,880.6C3069.5,878.8 3067.8,877.5 3065.3,876.4Z" style="fill:white;fill-rule:nonzero;"/>
            <path d="M768.1,897.9L749.8,897.9L749.8,935.1L768.3,935.1C782.2,935.1 790.6,927.9 790.6,916.8L790.6,916.4C790.6,904.4 782.2,897.9 768.1,897.9Z" style="fill:white;fill-rule:nonzero;"/>
            <path d="M3374.9,781.1L464,781.1C378.7,781.1 309.6,850.2 309.6,935.5C309.6,1020.8 378.7,1089.9 464,1089.9L3374.9,1089.9C3460.2,1089.9 3529.3,1020.8 3529.3,935.5C3529.3,850.2 3460.2,781.1 3374.9,781.1ZM829.6,915C829.6,948.1 804.1,965.6 769.1,965.6L749.8,965.6L749.8,1005.8L710.8,1005.8L710.8,865.2L771.2,865.2C806.7,865.2 829.6,883.5 829.6,914.6L829.6,915ZM1013.4,1005.7L906.4,1005.7L906.4,865.2L945.3,865.2L945.3,971.6L1013.4,971.6L1013.4,1005.7ZM1194.6,1005.8L1184.4,980.7L1130.2,980.7L1120.2,1005.8L1079.2,1005.8L1138.9,864.2L1176.5,864.2L1236.4,1005.8L1194.6,1005.8ZM1367.9,952.6L1367.9,1005.8L1328.7,1005.8L1328.7,953.2L1275.3,865.2L1319.7,865.2L1348.6,916.4L1377.7,865.2L1421.3,865.2L1367.9,952.6ZM1721.3,962.4C1721.3,991.1 1698.6,1008.2 1664.5,1008.2C1639.7,1008.2 1616,1000.4 1598.7,984.9L1620.4,959C1634.3,970 1649.7,975.9 1666,975.9C1676.4,975.9 1682.1,972.3 1682.1,966.3L1682.1,965.9C1682.1,960.1 1677.5,956.9 1658.4,952.4C1628.5,945.6 1605.4,937.1 1605.4,908.2L1605.4,907.8C1605.4,881.7 1626.1,862.8 1659.8,862.8C1683.7,862.8 1702.4,869.2 1717.6,881.5L1698.1,909C1685.2,900 1671.2,895.1 1658.7,895.1C1649.3,895.1 1644.6,899.1 1644.6,904.1L1644.6,904.5C1644.6,910.9 1649.4,913.7 1668.9,918.2C1701.2,925.2 1721.3,935.7 1721.3,962L1721.3,962.4ZM1874.3,952.6L1874.3,1005.8L1835.1,1005.8L1835.1,953.2L1781.7,865.2L1826.1,865.2L1855,916.4L1884.1,865.2L1927.7,865.2L1874.3,952.6ZM2105,962.4C2105,991.1 2082.3,1008.2 2048.2,1008.2C2023.4,1008.2 1999.7,1000.4 1982.4,984.9L2004.1,959C2018,970 2033.4,975.9 2049.7,975.9C2060.1,975.9 2065.8,972.3 2065.8,966.3L2065.8,965.9C2065.8,960.1 2061.2,956.9 2042.1,952.4C2012.2,945.6 1989.1,937.1 1989.1,908.2L1989.1,907.8C1989.1,881.7 2009.8,862.8 2043.5,862.8C2067.4,862.8 2086.1,869.2 2101.3,881.5L2081.8,909C2068.9,900 2054.9,895.1 2042.4,895.1C2033,895.1 2028.3,899.1 2028.3,904.1L2028.3,904.5C2028.3,910.9 2033.1,913.7 2052.6,918.2C2084.9,925.2 2105,935.7 2105,962L2105,962.4ZM2295.6,899.3L2253.5,899.3L2253.5,1005.7L2214.5,1005.7L2214.5,899.3L2172.3,899.3L2172.3,865.2L2295.6,865.2L2295.6,899.3ZM2487,1005.7L2372.9,1005.7L2372.9,865.2L2486.1,865.2L2486.1,898.3L2411.5,898.3L2411.5,919.6L2479,919.6L2479,950.3L2411.5,950.3L2411.5,972.6L2487,972.6L2487,1005.7ZM2716.5,1005.8L2677.7,1005.8L2677.7,925L2641.7,980L2640.9,980L2605.2,925.4L2605.2,1005.7L2567,1005.7L2567,865.2L2608.3,865.2L2641.8,919.6L2675.3,865.2L2716.5,865.2L2716.5,1005.8ZM3127.9,1005.7L2893.9,1005.7L2893.9,998C2895.7,997.9 2898.3,997.7 2901.8,997.4C2905.3,997.1 2907.7,996.7 2909,996.2C2911.4,995.2 2913.1,993.9 2914,992.3C2914.9,990.7 2915.3,988.6 2915.3,986.1L2915.3,886.4C2915.3,884.2 2914.9,882.2 2914,880.5C2913.1,878.7 2911.4,877.4 2908.9,876.3C2907.3,875.7 2905,875 2901.9,874.3C2898.8,873.6 2896.1,873.2 2893.9,872.9L2893.9,865.2L3127.9,865.2L3127.9,872.9C3125.7,873.1 3123,873.6 3119.9,874.3C3116.8,875 3114.5,875.6 3112.9,876.3C3110.3,877.4 3108.7,878.8 3107.8,880.5C3107,882.3 3106.5,884.2 3106.5,886.4L3106.5,986.1C3106.5,988.6 3106.9,990.7 3107.8,992.3C3108.7,993.9 3110.4,995.2 3112.8,996.2C3114.1,996.7 3116.5,997.1 3120,997.4C3123.5,997.7 3126.1,997.9 3127.9,998L3127.9,1005.7Z" style="fill:white;fill-rule:nonzero;"/>
            <path d="M3838.3,533L3815.3,534.6C3814.2,534.7 3811.2,534.4 3809.8,533.2C3806.7,530.5 3804.7,526 3803.4,519.5L3758.2,230.6C3756,216.6 3757.1,213.1 3774.3,204.8L3786.4,198.9L3786.4,17.8L3425.5,17.8L3414,57L3398.6,17.8L3049.3,17.8L3049.3,127.1C2979.2,46.5 2873.5,0 2755.3,0C2633.2,0 2518.7,45.4 2443.2,122.5C2379.9,42.8 2280.3,0.8 2153.5,0.8C2036.8,0.8 1939.3,46.1 1863.3,135.7C1812.4,54.4 1753.9,17.8 1600,17.8L1253.5,17.8L1253.5,188.9L1253.7,205L1269.1,209.5C1271.3,210.1 1275.6,211.9 1279.2,214.3C1282.2,216.3 1284.2,219.5 1284.6,223.1C1284.8,224.6 1284.9,226.5 1284.9,228.8C1284.9,234.8 1284.5,383.2 1284.3,477.5L1106.8,17.8L845.3,17.8L678.8,458.8L678.8,434.8L513.1,434.8L497.8,435L492.8,449.4C491.5,453.2 478.3,486.9 431.9,486.9C379.3,486.9 321,443.4 317.3,347.8C315.5,300 341.2,269.4 363.7,257.7C367.5,255.7 371.1,254.2 374.2,253.2C384.2,249.7 393.8,259.3 390.3,269.3C388.7,273.8 385.5,279.2 379.8,285.6L360.8,303.8L516.1,410.8L718.6,196L711.7,182.5C707.9,175.2 616.8,2.5 387.9,2.5C163.1,2.5 0,161 0,379.3C0,583.9 183.8,744.1 418.3,744.1L1628.1,744.1L1628,561.4L1610.2,558.3C1608,557.9 1605.7,557.4 1603.4,556.8C1687.7,534.6 1762.8,491.1 1804.6,460.7C1860.7,634 2020.6,744.2 2221.1,744.2L2459.3,744.2L2459.3,652.8C2510.8,695.2 2612.3,761.2 2745.1,761.2C2847.5,761.2 2933.4,714.9 2979.2,684.1L2979.2,744.6L3327.7,744.6L3327.7,618.3L3471,618.3L3471,744.1L3839,744.1L3839,556L3838.3,533ZM3817.6,722.6L3492.5,722.6L3492.5,596.8L3306.3,596.8L3306.3,722.9L3000.7,722.9L3000.7,641C3000.7,641 2889,739.6 2745.1,739.6C2560.9,739.6 2437.9,603.6 2437.9,603.6L2437.9,722.6L2221.2,722.6C2028.4,722.6 1862.8,616.6 1816.6,423.5C1794.7,444.5 1698.1,513.8 1582.1,539.9C1573.1,541.9 1568.6,545.4 1568.6,555.2C1568.6,573.1 1606.7,579.5 1606.7,579.5L1606.7,722.7L418.3,722.7C198.2,722.7 21.4,571.4 21.4,379.4C21.4,187.4 159.3,24 387.8,24C606.2,24 692.5,192.3 692.5,192.3L513.1,382.7L394.6,301C394.6,301 433.5,263.6 398,236.4C370.2,215.2 292.5,260.2 295.8,348.6C299.7,450.5 362.5,508.3 431.9,508.3C496.2,508.3 513.1,456.2 513.1,456.2L657.4,456.2L657.4,576.3L860.2,39.3L1092.1,39.3L1278.3,522C1278.3,522 1291.8,547.5 1305.4,554.3C1305.4,554.3 1306.2,237.6 1306.2,228.7C1306.2,219.8 1305,210 1299.5,203.7C1290.4,193.2 1275,188.8 1275,188.8L1275,39.3L1600,39.3C1768.5,39.3 1811.8,85.2 1860.7,173.6C1928.2,82.4 2021.1,22.3 2153.6,22.3C2290,22.3 2386.4,72.7 2441.4,156.6C2518.3,64.3 2642.2,21.5 2755.4,21.5C2894.6,21.5 3011,89.2 3071.1,194L3071.1,39.3L3384.3,39.3L3417.3,123.4L3441.9,39.3L3765.2,39.3L3765.2,185.5C3742.3,196.6 3733.1,207.8 3737.2,234L3782.4,522.9C3784.3,532.3 3787.6,542.1 3795.6,549.3C3805,557.7 3817.6,556.1 3817.6,556.1L3817.6,722.6Z" style="fill:white;fill-rule:nonzero;"/>
            <path d="M903.3,103.8L1048.1,103.8L1224.2,566.2C1229.3,578.9 1237.7,590.8 1246.2,601.1C1254.6,611.3 1275,618.1 1275,618.1L1275,658L1062.5,658L1062.5,617.2C1062.5,617.2 1076,618.9 1082.8,607C1089.6,595.1 1089.6,585.7 1084.5,573.8C1079.4,561.9 1043.9,467.5 1043.9,467.5L870.3,467.5C870.3,467.5 834.7,562.7 831.3,571.2C827.9,579.7 827.9,593.3 831.3,601.8C837,616 856.8,618 856.8,618L856.8,658L686.7,658L686.7,618C686.7,618 702.2,612.7 713.7,601C726.4,588.2 730.7,574.6 730.7,574.6L903.3,103.8M899.1,380.9L1010.8,380.9L953.3,219.4L899.1,380.9Z" style="fill:white;fill-rule:nonzero;"/>
            <path d="M1342.6,103.8L1613.4,103.8C1713.3,103.8 1813.2,139.5 1813.2,255.1C1813.2,370.7 1740.4,411.4 1677.8,440.3C1605.5,473.7 1510.2,499.8 1510.2,499.8L1510.2,588.1C1510.2,588.1 1511,594.1 1519.5,604.3C1527.9,614.5 1537.3,617 1537.3,617L1537.3,658L1340.9,658L1340.9,618C1340.9,618 1352.8,615.4 1361.2,607C1369.7,598.5 1371.4,588.3 1371.4,588.3L1371.4,188.8C1371.4,188.8 1372.2,171.8 1365.4,165C1358.6,158.2 1342.6,148.9 1342.6,148.9L1342.6,103.8M1511.9,187.1L1511.9,423.4C1511.9,423.4 1671,357.1 1671,263.6C1671.1,148 1511.9,187.1 1511.9,187.1Z" style="fill:white;fill-rule:nonzero;"/>
            <path d="M2742.6,673.9C2559.8,673.9 2428.3,539.8 2428.3,376.7C2428.3,213.6 2563.2,87 2742.6,87C2922.1,87 3056.9,213.5 3056.9,376.7C3056.9,539.9 2925.5,673.9 2742.6,673.9M2580.1,379.3C2580.1,542.5 2663,583.3 2742.6,583.3C2822.1,583.3 2906.8,532.3 2906.8,379.3C2906.8,226.3 2812,175.3 2742.6,175.3C2673.2,175.3 2580.1,216.1 2580.1,379.3Z" style="fill:white;fill-rule:nonzero;"/>
            <path d="M3138.7,104.2L3340.2,104.2L3413,329.9L3490.8,103.8L3701.6,103.8L3701.6,137C3701.6,137 3687.6,142.9 3681.3,150.6C3673.7,159.9 3673.7,166.8 3675.4,180.4C3677.1,194 3731.2,562.8 3732.9,576.4C3734.6,590.1 3736.3,597.7 3739.7,607C3743,616.3 3759.1,624 3759.1,624L3759.1,658.3L3556.8,658.3L3556.8,621.5C3556.8,621.5 3574.6,618.9 3580.5,610.4C3586.5,601.9 3589,596.8 3587.3,583.2C3585.6,569.6 3537.4,260.2 3537.4,260.2L3449.4,533.9L3342.8,533.9L3255.6,277.2L3211.6,579.8C3211.6,579.8 3209.9,597.9 3216.7,607.8C3226,621.5 3242.9,621.5 3242.9,621.5L3242.9,658L3067.7,658L3067.7,618.9C3067.7,618.9 3081.6,616.7 3091.8,604.9C3102,593 3103.7,577.7 3103.7,577.7L3167.6,178.7C3167.6,178.7 3171.4,163.8 3167.2,157C3162.8,149.8 3138.8,143.8 3138.8,143.8L3138.8,104.2" style="fill:white;fill-rule:nonzero;"/>
            <path d="M607.1,195.2L512.6,294.7C507.6,299.9 499.5,300.4 493.9,295.9L477.8,282.7C477.1,282.1 476.7,281.1 476.7,279.8C476.7,276.4 486,267.9 486,251.8C486,235.6 482.7,168.5 379.4,168.5C276.2,168.5 230.4,265.4 230.4,345.3C230.4,425.2 279.5,571.4 440.3,571.4C533.9,571.4 553.7,518.7 553.7,518.7L585.9,518.7L585.9,656.4L409.9,656.4C200,656.3 83.1,491.4 83.1,372.4C83.1,189.9 241.1,88.7 384.4,88.7C523.3,88.8 607.1,195.2 607.1,195.2" style="fill:white;fill-rule:nonzero;"/>
            <path d="M2399.8,196.2L2305.3,295.7C2300.3,300.9 2292.2,301.4 2286.6,296.9L2270.5,283.7C2269.8,283.1 2269.4,282.1 2269.4,280.8C2269.4,277.4 2278.7,268.9 2278.7,252.8C2278.7,236.6 2275.4,169.5 2172.1,169.5C2068.9,169.5 2023.1,266.4 2023.1,346.3C2023.1,426.2 2072.2,572.4 2233,572.4C2326.6,572.4 2346.4,519.7 2346.4,519.7L2378.6,519.7L2378.6,657.4L2202.5,657.4C1992.6,657.4 1875.8,492.5 1875.8,373.6C1875.8,191.1 2033.8,89.9 2177.1,89.9C2316,89.7 2399.8,196.2 2399.8,196.2" style="fill:white;fill-rule:nonzero;"/>
        </g>
    </g>
</svg>
