<?xml version="1.0" encoding="UTF-8" standalone="no"?>
<!DOCTYPE svg PUBLIC "-//W3C//DTD SVG 1.1//EN" "http://www.w3.org/Graphics/SVG/1.1/DTD/svg11.dtd">
<svg width="100%" height="100%" viewBox="0 0 640 120" version="1.1" xmlns="http://www.w3.org/2000/svg" xmlns:xlink="http://www.w3.org/1999/xlink" xml:space="preserve" xmlns:serif="http://www.serif.com/" style="fill-rule:evenodd;clip-rule:evenodd;stroke-linejoin:round;stroke-miterlimit:2;">
    <g>
        <path d="M37.173,53.3c-3.547,-0 -6.503,-0.296 -8.867,-0.887c-2.365,-0.591 -4.256,-1.537 -5.675,-2.837c-1.419,-1.301 -2.424,-3.003 -3.015,-5.108c-0.591,-2.104 -0.886,-4.693 -0.886,-7.767l-0,-15.18c-0,-3.027 0.295,-5.604 0.886,-7.732c0.591,-2.128 1.596,-3.842 3.015,-5.143c1.419,-1.3 3.31,-2.246 5.675,-2.837c2.364,-0.591 5.32,-0.887 8.867,-0.887l33.552,0l-0,9.293l-33.056,-0c-1.655,-0 -3.015,0.13 -4.079,0.39c-1.064,0.26 -1.903,0.697 -2.518,1.312c-0.615,0.615 -1.04,1.431 -1.277,2.447c-0.236,1.017 -0.354,2.258 -0.354,3.724l-0,14.187c-0,1.514 0.118,2.767 0.354,3.76c0.237,0.993 0.662,1.797 1.277,2.412c0.615,0.614 1.466,1.04 2.554,1.276c1.088,0.237 2.459,0.355 4.114,0.355l32.985,0l-0,9.222l-33.552,-0Z" style="fill:#fff;fill-rule:nonzero;"/>
        <path d="M95.907,53.3c-3.547,-0 -6.503,-0.296 -8.867,-0.887c-2.365,-0.591 -4.256,-1.537 -5.675,-2.837c-1.419,-1.301 -2.424,-3.003 -3.015,-5.108c-0.591,-2.104 -0.886,-4.693 -0.886,-7.767l-0,-21.848l10.64,0l-0,21.564c-0,1.655 0.153,2.991 0.461,4.008c0.307,1.017 0.792,1.809 1.454,2.376c0.662,0.568 1.549,0.958 2.66,1.171c1.111,0.213 2.471,0.319 4.079,0.319l11.066,-0c1.702,-0 3.121,-0.106 4.256,-0.319c1.135,-0.213 2.021,-0.603 2.66,-1.171c0.638,-0.567 1.087,-1.359 1.348,-2.376c0.26,-1.017 0.39,-2.353 0.39,-4.008l-0,-21.564l10.498,0l0,21.848c0,3.074 -0.296,5.663 -0.887,7.767c-0.591,2.105 -1.596,3.807 -3.014,5.108c-1.419,1.3 -3.323,2.246 -5.711,2.837c-2.388,0.591 -5.379,0.887 -8.973,0.887l-12.484,-0Z" style="fill:#fff;fill-rule:nonzero;"/>
        <path d="M180.319,43.085c-0,1.892 -0.166,3.488 -0.497,4.788c-0.331,1.301 -0.981,2.353 -1.95,3.157c-0.97,0.804 -2.294,1.383 -3.973,1.738c-1.678,0.354 -3.866,0.532 -6.561,0.532l-33.056,-0l0,-8.3l31.708,0c1.419,0 2.412,-0.236 2.979,-0.709c0.568,-0.473 0.852,-1.371 0.852,-2.696l-0,-1.276c-0,-1.419 -0.272,-2.306 -0.816,-2.66c-0.544,-0.355 -1.454,-0.532 -2.731,-0.532l-21.564,-0c-2.176,-0 -3.937,-0.213 -5.285,-0.639c-1.348,-0.426 -2.4,-1.064 -3.157,-1.915c-0.756,-0.851 -1.265,-1.904 -1.525,-3.157c-0.26,-1.253 -0.39,-2.731 -0.39,-4.433l0,-2.908c0,-1.656 0.178,-3.074 0.532,-4.257c0.355,-1.182 0.934,-2.139 1.738,-2.872c0.804,-0.733 1.892,-1.265 3.263,-1.596c1.372,-0.331 3.098,-0.497 5.178,-0.497l14.613,0l-0,8.016l-12.059,-0c-1.04,-0 -1.785,0.189 -2.234,0.567c-0.45,0.378 -0.674,1.064 -0.674,2.057l-0,1.774c-0,1.087 0.213,1.82 0.638,2.199c0.426,0.378 1.111,0.567 2.057,0.567l20.855,0c2.459,0 4.469,0.201 6.029,0.603c1.561,0.402 2.791,1.04 3.689,1.915c0.899,0.875 1.513,2.01 1.844,3.405c0.331,1.395 0.497,3.109 0.497,5.143l-0,1.986Z" style="fill:#fff;fill-rule:nonzero;"/>
        <path d="M189.115,53.3l-0,-29.864l-5.391,0l-0,-8.583l5.391,0l-0,-10.853l10.782,0l-0,10.853l12.13,0l-0,8.583l-12.13,0l-0,29.864l-10.782,-0Z" style="fill:#fff;fill-rule:nonzero;"/>
        <path d="M235.222,53.3c-3.546,-0 -6.502,-0.296 -8.866,-0.887c-2.365,-0.591 -4.257,-1.537 -5.675,-2.837c-1.419,-1.301 -2.424,-3.003 -3.015,-5.108c-0.591,-2.104 -0.887,-4.693 -0.887,-7.767l0,-5.178c0,-3.074 0.296,-5.675 0.887,-7.803c0.591,-2.128 1.596,-3.842 3.015,-5.143c1.418,-1.3 3.31,-2.246 5.675,-2.837c2.364,-0.591 5.32,-0.887 8.866,-0.887l12.84,0c3.594,0 6.573,0.296 8.937,0.887c2.365,0.591 4.256,1.548 5.675,2.873c1.419,1.324 2.424,3.05 3.015,5.178c0.591,2.128 0.887,4.729 0.887,7.803l-0,5.107c-0,3.074 -0.296,5.663 -0.887,7.767c-0.591,2.105 -1.596,3.807 -3.015,5.108c-1.419,1.3 -3.31,2.246 -5.675,2.837c-2.364,0.591 -5.343,0.887 -8.937,0.887l-12.84,-0Zm20.784,-21.423c0,-1.608 -0.13,-2.932 -0.39,-3.972c-0.26,-1.04 -0.733,-1.856 -1.419,-2.447c-0.685,-0.591 -1.643,-0.993 -2.872,-1.206c-1.23,-0.213 -2.79,-0.319 -4.682,-0.319l-10.002,-0c-1.891,-0 -3.44,0.106 -4.646,0.319c-1.206,0.213 -2.152,0.615 -2.837,1.206c-0.686,0.591 -1.159,1.407 -1.419,2.447c-0.26,1.04 -0.39,2.364 -0.39,3.972l-0,4.54c-0,1.608 0.13,2.92 0.39,3.937c0.26,1.017 0.733,1.821 1.419,2.412c0.685,0.591 1.631,1.005 2.837,1.241c1.206,0.237 2.755,0.355 4.646,0.355l10.002,-0c1.892,-0 3.452,-0.118 4.682,-0.355c1.229,-0.236 2.187,-0.65 2.872,-1.241c0.686,-0.591 1.159,-1.395 1.419,-2.412c0.26,-1.017 0.39,-2.329 0.39,-3.937l0,-4.54Z" style="fill:#fff;fill-rule:nonzero;"/>
        <path d="M335.028,53.3l-0,-23.125c-0,-2.412 -0.461,-4.055 -1.384,-4.93c-0.922,-0.875 -2.4,-1.312 -4.433,-1.312l-6.881,-0c-1.56,-0 -2.849,0.106 -3.866,0.319c-1.016,0.213 -1.82,0.567 -2.411,1.064c-0.592,0.496 -1.005,1.135 -1.242,1.915c-0.236,0.78 -0.354,1.762 -0.354,2.944l-0,23.125l-9.293,-0l0,-23.125c0,-1.182 -0.106,-2.164 -0.319,-2.944c-0.213,-0.78 -0.615,-1.419 -1.206,-1.915c-0.591,-0.497 -1.407,-0.851 -2.447,-1.064c-1.041,-0.213 -2.365,-0.319 -3.973,-0.319l-6.738,-0c-2.128,-0 -3.63,0.437 -4.505,1.312c-0.875,0.875 -1.312,2.518 -1.312,4.93l-0,23.125l-10.286,-0l0,-24.686c0,-2.364 0.237,-4.409 0.71,-6.136c0.473,-1.726 1.253,-3.156 2.341,-4.291c1.087,-1.135 2.506,-1.974 4.256,-2.518c1.749,-0.544 3.901,-0.816 6.455,-0.816l9.292,0c1.939,0 3.606,0.142 5.001,0.426c1.395,0.283 2.577,0.697 3.547,1.241c0.969,0.544 1.75,1.241 2.341,2.093c0.591,0.851 1.076,1.844 1.454,2.979c0.662,-2.27 1.927,-3.961 3.795,-5.072c1.868,-1.111 4.693,-1.667 8.477,-1.667l9.576,0c2.553,0 4.705,0.272 6.455,0.816c1.75,0.544 3.168,1.383 4.256,2.518c1.088,1.135 1.868,2.565 2.341,4.291c0.473,1.727 0.709,3.772 0.709,6.136l0,24.686l-10.356,-0Z" style="fill:#fff;fill-rule:nonzero;"/>
        <path d="M130.607,116c-3.807,0 -6.981,-0.317 -9.519,-0.952c-2.539,-0.635 -4.569,-1.65 -6.092,-3.046c-1.523,-1.396 -2.602,-3.224 -3.237,-5.483c-0.635,-2.259 -0.952,-5.039 -0.952,-8.339l0,-16.297c0,-3.249 0.317,-6.016 0.952,-8.301c0.635,-2.285 1.714,-4.125 3.237,-5.521c1.523,-1.396 3.553,-2.412 6.092,-3.046c2.538,-0.635 5.712,-0.952 9.519,-0.952l36.021,-0l0,9.976l-35.488,-0c-1.777,-0 -3.236,0.14 -4.379,0.419c-1.142,0.279 -2.043,0.749 -2.703,1.409c-0.66,0.66 -1.117,1.535 -1.371,2.627c-0.254,1.091 -0.381,2.424 -0.381,3.998l0,15.231c0,1.625 0.127,2.97 0.381,4.036c0.254,1.066 0.711,1.929 1.371,2.589c0.66,0.66 1.574,1.117 2.742,1.371c1.167,0.254 2.64,0.381 4.417,0.381l35.411,-0l0,9.9l-36.021,0Z" style="fill:#fff;fill-rule:nonzero;"/>
        <path d="M193.511,116c-3.808,0 -6.981,-0.317 -9.519,-0.952c-2.539,-0.635 -4.57,-1.65 -6.093,-3.046c-1.523,-1.396 -2.602,-3.224 -3.236,-5.483c-0.635,-2.259 -0.952,-5.039 -0.952,-8.339l-0,-5.559c-0,-3.3 0.317,-6.093 0.952,-8.377c0.634,-2.285 1.713,-4.125 3.236,-5.522c1.523,-1.396 3.554,-2.411 6.093,-3.046c2.538,-0.634 5.711,-0.952 9.519,-0.952l13.784,0c3.858,0 7.057,0.318 9.595,0.952c2.539,0.635 4.57,1.663 6.093,3.084c1.523,1.422 2.602,3.275 3.236,5.56c0.635,2.284 0.952,5.077 0.952,8.377l0,5.483c0,3.3 -0.317,6.08 -0.952,8.339c-0.634,2.259 -1.713,4.087 -3.236,5.483c-1.523,1.396 -3.554,2.411 -6.093,3.046c-2.538,0.635 -5.737,0.952 -9.595,0.952l-13.784,0Zm22.313,-22.999c0,-1.726 -0.14,-3.147 -0.419,-4.264c-0.279,-1.117 -0.787,-1.993 -1.523,-2.628c-0.736,-0.634 -1.764,-1.066 -3.084,-1.294c-1.32,-0.229 -2.996,-0.343 -5.026,-0.343l-10.738,0c-2.031,0 -3.694,0.114 -4.988,0.343c-1.295,0.228 -2.31,0.66 -3.046,1.294c-0.737,0.635 -1.244,1.511 -1.523,2.628c-0.28,1.117 -0.419,2.538 -0.419,4.264l-0,4.874c-0,1.726 0.139,3.135 0.419,4.227c0.279,1.091 0.786,1.954 1.523,2.589c0.736,0.635 1.751,1.079 3.046,1.333c1.294,0.254 2.957,0.381 4.988,0.381l10.738,-0c2.03,-0 3.706,-0.127 5.026,-0.381c1.32,-0.254 2.348,-0.698 3.084,-1.333c0.736,-0.635 1.244,-1.498 1.523,-2.589c0.279,-1.092 0.419,-2.501 0.419,-4.227l0,-4.874Z" style="fill:#fff;fill-rule:nonzero;"/>
        <rect x="235.777" y="61.397" width="11.575" height="54.603" style="fill:#fff;fill-rule:nonzero;"/>
        <rect x="256.338" y="61.397" width="11.575" height="54.603" style="fill:#fff;fill-rule:nonzero;"/>
        <path d="M287.866,99.551l0,1.904c0,1.269 0.102,2.284 0.305,3.046c0.203,0.761 0.571,1.358 1.104,1.789c0.533,0.432 1.244,0.724 2.132,0.876c0.889,0.152 1.993,0.229 3.313,0.229l13.403,-0l0,8.605l-13.403,-0c-6.549,-0 -11.22,-1.244 -14.012,-3.732c-2.793,-2.487 -4.189,-6.473 -4.189,-11.956l0,-9.519c0,-2.996 0.292,-5.521 0.876,-7.577c0.584,-2.057 1.599,-3.707 3.046,-4.951c1.447,-1.243 3.364,-2.145 5.75,-2.703c2.386,-0.558 5.407,-0.838 9.062,-0.838l19.953,0c2.944,0 5.394,0.28 7.349,0.838c1.954,0.558 3.503,1.333 4.645,2.323c1.142,0.99 1.942,2.183 2.399,3.579c0.457,1.396 0.685,2.907 0.685,4.531l0,13.556l-42.418,-0Zm31.071,-12.642c0,-1.371 -0.342,-2.285 -1.028,-2.742c-0.685,-0.456 -1.891,-0.685 -3.617,-0.685l-18.887,0c-1.421,0 -2.614,0.064 -3.579,0.19c-0.964,0.127 -1.739,0.419 -2.322,0.876c-0.584,0.457 -1.003,1.117 -1.257,1.98c-0.254,0.863 -0.381,2.031 -0.381,3.503l0,2.209l31.071,-0l0,-5.331Z" style="fill:#fff;fill-rule:nonzero;"/>
        <path d="M357.928,116c-3.807,0 -6.981,-0.317 -9.519,-0.952c-2.538,-0.635 -4.569,-1.65 -6.092,-3.046c-1.523,-1.396 -2.602,-3.224 -3.237,-5.483c-0.635,-2.259 -0.952,-5.039 -0.952,-8.339l0,-5.559c0,-3.3 0.317,-6.093 0.952,-8.377c0.635,-2.285 1.714,-4.125 3.237,-5.522c1.523,-1.396 3.554,-2.411 6.092,-3.046c2.538,-0.634 5.712,-0.952 9.519,-0.952l29.853,0l-0,9.748l-29.472,0c-1.777,0 -3.236,0.127 -4.379,0.381c-1.142,0.254 -2.043,0.698 -2.703,1.333c-0.66,0.634 -1.117,1.51 -1.371,2.627c-0.254,1.117 -0.381,2.513 -0.381,4.188l0,4.874c0,1.625 0.127,2.983 0.381,4.075c0.254,1.091 0.711,1.967 1.371,2.627c0.66,0.66 1.561,1.129 2.703,1.409c1.143,0.279 2.602,0.419 4.379,0.419l29.548,-0l-0,9.595l-29.929,0Z" style="fill:#fff;fill-rule:nonzero;"/>
        <path d="M398.442,116l0,-32.061l-5.787,-0l-0,-9.215l5.787,0l0,-11.651l11.576,-0l-0,11.651l13.022,0l0,9.215l-13.022,-0l-0,32.061l-11.576,0Z" style="fill:#fff;fill-rule:nonzero;"/>
        <path d="M428.523,116l0,-40.21l11.576,0l-0,40.21l-11.576,0Zm3.884,-43.636c-1.421,-0 -2.424,-0.28 -3.008,-0.838c-0.584,-0.559 -0.876,-1.447 -0.876,-2.666l0,-4.417c0,-1.218 0.292,-2.094 0.876,-2.627c0.584,-0.533 1.587,-0.8 3.008,-0.8l3.732,0c1.472,0 2.5,0.267 3.084,0.8c0.584,0.533 0.876,1.409 0.876,2.627l-0,4.417c-0,1.219 -0.292,2.107 -0.876,2.666c-0.584,0.558 -1.612,0.838 -3.084,0.838l-3.732,-0Z" style="fill:#fff;fill-rule:nonzero;"/>
        <path d="M468.505,116c-3.808,0 -6.981,-0.317 -9.52,-0.952c-2.538,-0.635 -4.569,-1.65 -6.092,-3.046c-1.523,-1.396 -2.602,-3.224 -3.237,-5.483c-0.634,-2.259 -0.952,-5.039 -0.952,-8.339l0,-5.559c0,-3.3 0.318,-6.093 0.952,-8.377c0.635,-2.285 1.714,-4.125 3.237,-5.522c1.523,-1.396 3.554,-2.411 6.092,-3.046c2.539,-0.634 5.712,-0.952 9.52,-0.952l13.784,0c3.858,0 7.056,0.318 9.595,0.952c2.538,0.635 4.569,1.663 6.092,3.084c1.523,1.422 2.602,3.275 3.237,5.56c0.635,2.284 0.952,5.077 0.952,8.377l-0,5.483c-0,3.3 -0.317,6.08 -0.952,8.339c-0.635,2.259 -1.714,4.087 -3.237,5.483c-1.523,1.396 -3.554,2.411 -6.092,3.046c-2.539,0.635 -5.737,0.952 -9.595,0.952l-13.784,0Zm22.313,-22.999c-0,-1.726 -0.14,-3.147 -0.419,-4.264c-0.279,-1.117 -0.787,-1.993 -1.523,-2.628c-0.736,-0.634 -1.764,-1.066 -3.084,-1.294c-1.32,-0.229 -2.996,-0.343 -5.027,-0.343l-10.737,0c-2.031,0 -3.694,0.114 -4.988,0.343c-1.295,0.228 -2.31,0.66 -3.047,1.294c-0.736,0.635 -1.244,1.511 -1.523,2.628c-0.279,1.117 -0.419,2.538 -0.419,4.264l0,4.874c0,1.726 0.14,3.135 0.419,4.227c0.279,1.091 0.787,1.954 1.523,2.589c0.737,0.635 1.752,1.079 3.047,1.333c1.294,0.254 2.957,0.381 4.988,0.381l10.737,-0c2.031,-0 3.707,-0.127 5.027,-0.381c1.32,-0.254 2.348,-0.698 3.084,-1.333c0.736,-0.635 1.244,-1.498 1.523,-2.589c0.279,-1.092 0.419,-2.501 0.419,-4.227l-0,-4.874Z" style="fill:#fff;fill-rule:nonzero;"/>
        <path d="M552.655,116l0,-22.999c0,-1.726 -0.139,-3.135 -0.419,-4.226c-0.279,-1.092 -0.761,-1.955 -1.447,-2.589c-0.685,-0.635 -1.624,-1.079 -2.817,-1.333c-1.193,-0.254 -2.704,-0.381 -4.531,-0.381l-12.337,0c-1.777,0 -3.262,0.127 -4.456,0.381c-1.193,0.254 -2.145,0.698 -2.855,1.333c-0.711,0.634 -1.206,1.497 -1.485,2.589c-0.28,1.091 -0.419,2.5 -0.419,4.226l-0,22.999l-11.347,0l-0,-23.379c-0,-3.3 0.317,-6.093 0.952,-8.377c0.634,-2.285 1.713,-4.125 3.236,-5.522c1.523,-1.396 3.554,-2.411 6.093,-3.046c2.538,-0.634 5.711,-0.952 9.519,-0.952l13.784,0c3.858,0 7.057,0.318 9.595,0.952c2.539,0.635 4.57,1.65 6.093,3.046c1.523,1.397 2.602,3.237 3.236,5.522c0.635,2.284 0.952,5.077 0.952,8.377l0,23.379l-11.347,0Z" style="fill:#fff;fill-rule:nonzero;"/>
        <path d="M621.27,105.034c0,2.031 -0.177,3.744 -0.533,5.14c-0.355,1.396 -1.053,2.526 -2.094,3.389c-1.041,0.863 -2.462,1.485 -4.265,1.866c-1.802,0.381 -4.15,0.571 -7.044,0.571l-35.488,0l0,-8.91l34.041,-0c1.523,-0 2.589,-0.254 3.199,-0.762c0.609,-0.507 0.914,-1.472 0.914,-2.893l-0,-1.371c-0,-1.523 -0.292,-2.475 -0.876,-2.856c-0.584,-0.381 -1.561,-0.571 -2.932,-0.571l-23.151,-0c-2.336,-0 -4.227,-0.229 -5.674,-0.686c-1.447,-0.457 -2.576,-1.142 -3.389,-2.056c-0.812,-0.914 -1.358,-2.043 -1.637,-3.389c-0.279,-1.345 -0.419,-2.932 -0.419,-4.759l0,-3.123c0,-1.777 0.191,-3.3 0.571,-4.569c0.381,-1.269 1.003,-2.297 1.866,-3.084c0.863,-0.787 2.031,-1.358 3.503,-1.714c1.473,-0.355 3.326,-0.533 5.56,-0.533l15.687,0l0,8.606l-12.946,-0c-1.117,-0 -1.916,0.203 -2.399,0.609c-0.482,0.406 -0.723,1.142 -0.723,2.208l-0,1.904c-0,1.168 0.228,1.955 0.685,2.361c0.457,0.406 1.193,0.609 2.209,0.609l22.389,0c2.64,0 4.798,0.216 6.473,0.648c1.676,0.431 2.996,1.117 3.96,2.056c0.965,0.939 1.625,2.158 1.98,3.655c0.356,1.498 0.533,3.338 0.533,5.521l0,2.133Z" style="fill:#fff;fill-rule:nonzero;"/>
    </g>
</svg>
