<?xml version="1.0" encoding="UTF-8" standalone="no"?>
<!DOCTYPE svg PUBLIC "-//W3C//DTD SVG 1.1//EN" "http://www.w3.org/Graphics/SVG/1.1/DTD/svg11.dtd">
<svg width="100%" height="100%" viewBox="0 0 604 113" version="1.1" xmlns="http://www.w3.org/2000/svg" xmlns:xlink="http://www.w3.org/1999/xlink" xml:space="preserve" xmlns:serif="http://www.serif.com/" style="fill-rule:evenodd;clip-rule:evenodd;stroke-linejoin:round;stroke-miterlimit:2;">
    <g transform="matrix(1,0,0,1,-1618,-697)">
        <g id="custom-collections.afdesign" transform="matrix(1,0,0,1,1920,753.333)">
            <g transform="matrix(1,0,0,1,-320,-60)">
                <clipPath id="_clip1">
                    <rect x="18.73" y="4" width="602.541" height="112"/>
                </clipPath>
                <g clip-path="url(#_clip1)">
                    <g transform="matrix(3.06434,0,0,3.06434,-657.326,-123.916)">
                        <g transform="matrix(1.92904,0,0,1.92904,-204.965,-53.7279)">
                            <g transform="matrix(12,0,0,12,219.972,57.8317)">
                                <path d="M0.314,-0C0.264,-0 0.222,-0.004 0.189,-0.013C0.156,-0.021 0.129,-0.034 0.109,-0.053C0.089,-0.071 0.075,-0.095 0.067,-0.125C0.058,-0.154 0.054,-0.191 0.054,-0.234L0.054,-0.448C0.054,-0.491 0.058,-0.527 0.067,-0.557C0.075,-0.587 0.089,-0.611 0.109,-0.63C0.129,-0.648 0.156,-0.661 0.189,-0.67C0.222,-0.678 0.264,-0.682 0.314,-0.682L0.787,-0.682L0.787,-0.551L0.321,-0.551C0.298,-0.551 0.279,-0.549 0.264,-0.546C0.249,-0.542 0.237,-0.536 0.228,-0.527C0.219,-0.518 0.213,-0.507 0.21,-0.493C0.207,-0.478 0.205,-0.461 0.205,-0.44L0.205,-0.24C0.205,-0.219 0.207,-0.201 0.21,-0.187C0.213,-0.173 0.219,-0.162 0.228,-0.153C0.237,-0.144 0.249,-0.138 0.264,-0.135C0.279,-0.132 0.299,-0.13 0.322,-0.13L0.787,-0.13L0.787,-0L0.314,-0Z" style="fill:white;fill-rule:nonzero;"/>
                            </g>
                            <g transform="matrix(12,0,0,12,229.884,57.8317)">
                                <path d="M0.316,-0C0.266,-0 0.224,-0.004 0.191,-0.013C0.158,-0.021 0.131,-0.034 0.111,-0.053C0.091,-0.071 0.077,-0.095 0.069,-0.125C0.06,-0.154 0.056,-0.191 0.056,-0.234L0.056,-0.542L0.206,-0.542L0.206,-0.238C0.206,-0.215 0.208,-0.196 0.213,-0.182C0.217,-0.167 0.224,-0.156 0.233,-0.148C0.242,-0.14 0.255,-0.135 0.271,-0.132C0.286,-0.129 0.305,-0.127 0.328,-0.127L0.484,-0.127C0.508,-0.127 0.528,-0.129 0.544,-0.132C0.56,-0.135 0.573,-0.14 0.582,-0.148C0.591,-0.156 0.597,-0.167 0.601,-0.182C0.604,-0.196 0.606,-0.215 0.606,-0.238L0.606,-0.542L0.754,-0.542L0.754,-0.234C0.754,-0.191 0.75,-0.154 0.742,-0.125C0.733,-0.095 0.719,-0.071 0.699,-0.053C0.679,-0.034 0.652,-0.021 0.619,-0.013C0.585,-0.004 0.543,-0 0.492,-0L0.316,-0Z" style="fill:white;fill-rule:nonzero;"/>
                            </g>
                            <g transform="matrix(12,0,0,12,239.604,57.8317)">
                                <path d="M0.696,-0.144C0.696,-0.117 0.694,-0.095 0.689,-0.077C0.684,-0.058 0.675,-0.043 0.662,-0.032C0.648,-0.021 0.629,-0.012 0.606,-0.008C0.582,-0.003 0.551,-0 0.513,-0L0.047,-0L0.047,-0.117L0.494,-0.117C0.514,-0.117 0.528,-0.12 0.536,-0.127C0.544,-0.134 0.548,-0.146 0.548,-0.165L0.548,-0.183C0.548,-0.203 0.544,-0.216 0.537,-0.221C0.529,-0.226 0.516,-0.228 0.498,-0.228L0.194,-0.228C0.163,-0.228 0.138,-0.231 0.12,-0.237C0.1,-0.243 0.086,-0.252 0.075,-0.264C0.064,-0.276 0.057,-0.291 0.054,-0.309C0.05,-0.326 0.048,-0.347 0.048,-0.371L0.048,-0.412C0.048,-0.435 0.05,-0.455 0.056,-0.472C0.061,-0.489 0.069,-0.502 0.08,-0.513C0.091,-0.523 0.107,-0.53 0.126,-0.535C0.145,-0.54 0.17,-0.542 0.199,-0.542L0.405,-0.542L0.405,-0.429L0.235,-0.429C0.22,-0.429 0.21,-0.426 0.204,-0.421C0.197,-0.416 0.194,-0.406 0.194,-0.392L0.194,-0.367C0.194,-0.352 0.197,-0.341 0.203,-0.336C0.209,-0.331 0.219,-0.328 0.232,-0.328L0.526,-0.328C0.561,-0.328 0.589,-0.325 0.611,-0.32C0.633,-0.314 0.65,-0.305 0.663,-0.293C0.676,-0.28 0.684,-0.264 0.689,-0.245C0.694,-0.225 0.696,-0.201 0.696,-0.172L0.696,-0.144Z" style="fill:white;fill-rule:nonzero;"/>
                            </g>
                            <g transform="matrix(12,0,0,12,248.364,57.8317)">
                                <path d="M0.09,-0L0.09,-0.421L0.014,-0.421L0.014,-0.542L0.09,-0.542L0.09,-0.695L0.242,-0.695L0.242,-0.542L0.413,-0.542L0.413,-0.421L0.242,-0.421L0.242,-0L0.09,-0Z" style="fill:white;fill-rule:nonzero;"/>
                            </g>
                            <g transform="matrix(12,0,0,12,253.476,57.8317)">
                                <path d="M0.314,-0C0.264,-0 0.222,-0.004 0.189,-0.013C0.156,-0.021 0.129,-0.034 0.109,-0.053C0.089,-0.071 0.075,-0.095 0.067,-0.125C0.058,-0.154 0.054,-0.191 0.054,-0.234L0.054,-0.307C0.054,-0.35 0.058,-0.387 0.067,-0.417C0.075,-0.447 0.089,-0.471 0.109,-0.49C0.129,-0.508 0.156,-0.521 0.189,-0.53C0.222,-0.538 0.264,-0.542 0.314,-0.542L0.495,-0.542C0.546,-0.542 0.588,-0.538 0.621,-0.53C0.654,-0.521 0.681,-0.508 0.701,-0.489C0.721,-0.47 0.735,-0.446 0.744,-0.416C0.752,-0.386 0.756,-0.349 0.756,-0.306L0.756,-0.234C0.756,-0.191 0.752,-0.154 0.744,-0.125C0.735,-0.095 0.721,-0.071 0.701,-0.053C0.681,-0.034 0.654,-0.021 0.621,-0.013C0.588,-0.004 0.546,-0 0.495,-0L0.314,-0ZM0.607,-0.302C0.607,-0.325 0.605,-0.343 0.602,-0.358C0.598,-0.373 0.591,-0.384 0.582,-0.393C0.572,-0.401 0.558,-0.407 0.541,-0.41C0.524,-0.413 0.502,-0.414 0.475,-0.414L0.334,-0.414C0.307,-0.414 0.286,-0.413 0.269,-0.41C0.252,-0.407 0.238,-0.401 0.229,-0.393C0.219,-0.384 0.212,-0.373 0.209,-0.358C0.205,-0.343 0.203,-0.325 0.203,-0.302L0.203,-0.238C0.203,-0.215 0.205,-0.197 0.209,-0.183C0.212,-0.168 0.219,-0.157 0.229,-0.149C0.238,-0.14 0.252,-0.134 0.269,-0.131C0.286,-0.128 0.307,-0.126 0.334,-0.126L0.475,-0.126C0.502,-0.126 0.524,-0.128 0.541,-0.131C0.558,-0.134 0.572,-0.14 0.582,-0.149C0.591,-0.157 0.598,-0.168 0.602,-0.183C0.605,-0.197 0.607,-0.215 0.607,-0.238L0.607,-0.302Z" style="fill:white;fill-rule:nonzero;"/>
                            </g>
                            <g transform="matrix(12,0,0,12,263.196,57.8317)">
                                <path d="M0.911,-0L0.911,-0.326C0.911,-0.36 0.905,-0.383 0.892,-0.396C0.878,-0.408 0.858,-0.414 0.829,-0.414L0.732,-0.414C0.71,-0.414 0.692,-0.413 0.678,-0.41C0.663,-0.407 0.652,-0.402 0.644,-0.395C0.635,-0.388 0.629,-0.379 0.626,-0.368C0.623,-0.357 0.621,-0.343 0.621,-0.326L0.621,-0L0.49,-0L0.49,-0.326C0.49,-0.343 0.489,-0.357 0.486,-0.368C0.483,-0.379 0.477,-0.388 0.469,-0.395C0.46,-0.402 0.449,-0.407 0.434,-0.41C0.419,-0.413 0.401,-0.414 0.378,-0.414L0.283,-0.414C0.253,-0.414 0.232,-0.408 0.22,-0.396C0.207,-0.383 0.201,-0.36 0.201,-0.326L0.201,-0L0.056,-0L0.056,-0.348C0.056,-0.381 0.059,-0.41 0.066,-0.435C0.073,-0.459 0.084,-0.479 0.099,-0.495C0.114,-0.511 0.134,-0.523 0.159,-0.531C0.184,-0.538 0.214,-0.542 0.25,-0.542L0.381,-0.542C0.408,-0.542 0.432,-0.54 0.452,-0.536C0.471,-0.532 0.488,-0.526 0.502,-0.519C0.515,-0.511 0.526,-0.501 0.535,-0.489C0.543,-0.477 0.55,-0.463 0.555,-0.447C0.564,-0.479 0.582,-0.503 0.609,-0.519C0.635,-0.534 0.675,-0.542 0.728,-0.542L0.863,-0.542C0.899,-0.542 0.929,-0.538 0.954,-0.531C0.979,-0.523 0.999,-0.511 1.014,-0.495C1.029,-0.479 1.04,-0.459 1.047,-0.435C1.054,-0.41 1.057,-0.381 1.057,-0.348L1.057,-0L0.911,-0Z" style="fill:white;fill-rule:nonzero;"/>
                            </g>
                        </g>
                        <g transform="matrix(2.07099,0,0,2.07099,-268.462,-83.8507)">
                            <g transform="matrix(12,0,0,12,250.02,78.293)">
                                <path d="M0.314,-0C0.264,-0 0.222,-0.004 0.189,-0.013C0.156,-0.021 0.129,-0.034 0.109,-0.053C0.089,-0.071 0.075,-0.095 0.067,-0.125C0.058,-0.154 0.054,-0.191 0.054,-0.234L0.054,-0.448C0.054,-0.491 0.058,-0.527 0.067,-0.557C0.075,-0.587 0.089,-0.611 0.109,-0.63C0.129,-0.648 0.156,-0.661 0.189,-0.67C0.222,-0.678 0.264,-0.682 0.314,-0.682L0.787,-0.682L0.787,-0.551L0.321,-0.551C0.298,-0.551 0.279,-0.549 0.264,-0.546C0.249,-0.542 0.237,-0.536 0.228,-0.527C0.219,-0.518 0.213,-0.507 0.21,-0.493C0.207,-0.478 0.205,-0.461 0.205,-0.44L0.205,-0.24C0.205,-0.219 0.207,-0.201 0.21,-0.187C0.213,-0.173 0.219,-0.162 0.228,-0.153C0.237,-0.144 0.249,-0.138 0.264,-0.135C0.279,-0.132 0.299,-0.13 0.322,-0.13L0.787,-0.13L0.787,-0L0.314,-0Z" style="fill:white;fill-rule:nonzero;"/>
                            </g>
                            <g transform="matrix(12,0,0,12,259.932,78.293)">
                                <path d="M0.314,-0C0.264,-0 0.222,-0.004 0.189,-0.013C0.156,-0.021 0.129,-0.034 0.109,-0.053C0.089,-0.071 0.075,-0.095 0.067,-0.125C0.058,-0.154 0.054,-0.191 0.054,-0.234L0.054,-0.307C0.054,-0.35 0.058,-0.387 0.067,-0.417C0.075,-0.447 0.089,-0.471 0.109,-0.49C0.129,-0.508 0.156,-0.521 0.189,-0.53C0.222,-0.538 0.264,-0.542 0.314,-0.542L0.495,-0.542C0.546,-0.542 0.588,-0.538 0.621,-0.53C0.654,-0.521 0.681,-0.508 0.701,-0.489C0.721,-0.47 0.735,-0.446 0.744,-0.416C0.752,-0.386 0.756,-0.349 0.756,-0.306L0.756,-0.234C0.756,-0.191 0.752,-0.154 0.744,-0.125C0.735,-0.095 0.721,-0.071 0.701,-0.053C0.681,-0.034 0.654,-0.021 0.621,-0.013C0.588,-0.004 0.546,-0 0.495,-0L0.314,-0ZM0.607,-0.302C0.607,-0.325 0.605,-0.343 0.602,-0.358C0.598,-0.373 0.591,-0.384 0.582,-0.393C0.572,-0.401 0.558,-0.407 0.541,-0.41C0.524,-0.413 0.502,-0.414 0.475,-0.414L0.334,-0.414C0.307,-0.414 0.286,-0.413 0.269,-0.41C0.252,-0.407 0.238,-0.401 0.229,-0.393C0.219,-0.384 0.212,-0.373 0.209,-0.358C0.205,-0.343 0.203,-0.325 0.203,-0.302L0.203,-0.238C0.203,-0.215 0.205,-0.197 0.209,-0.183C0.212,-0.168 0.219,-0.157 0.229,-0.149C0.238,-0.14 0.252,-0.134 0.269,-0.131C0.286,-0.128 0.307,-0.126 0.334,-0.126L0.475,-0.126C0.502,-0.126 0.524,-0.128 0.541,-0.131C0.558,-0.134 0.572,-0.14 0.582,-0.149C0.591,-0.157 0.598,-0.168 0.602,-0.183C0.605,-0.197 0.607,-0.215 0.607,-0.238L0.607,-0.302Z" style="fill:white;fill-rule:nonzero;"/>
                            </g>
                            <g transform="matrix(12,0,0,12,269.652,78.293)">
                                <rect x="0.059" y="-0.717" width="0.152" height="0.717" style="fill:white;fill-rule:nonzero;"/>
                            </g>
                            <g transform="matrix(12,0,0,12,272.892,78.293)">
                                <rect x="0.059" y="-0.717" width="0.152" height="0.717" style="fill:white;fill-rule:nonzero;"/>
                            </g>
                            <g transform="matrix(12,0,0,12,276.132,78.293)">
                                <path d="M0.203,-0.216L0.203,-0.191C0.203,-0.174 0.204,-0.161 0.207,-0.151C0.21,-0.141 0.215,-0.133 0.222,-0.128C0.229,-0.122 0.238,-0.118 0.25,-0.116C0.261,-0.114 0.276,-0.113 0.293,-0.113L0.469,-0.113L0.469,-0L0.293,-0C0.207,-0 0.146,-0.016 0.109,-0.049C0.072,-0.082 0.054,-0.134 0.054,-0.206L0.054,-0.331C0.054,-0.37 0.058,-0.404 0.066,-0.431C0.073,-0.458 0.087,-0.479 0.106,-0.496C0.125,-0.512 0.15,-0.524 0.181,-0.531C0.212,-0.538 0.252,-0.542 0.3,-0.542L0.562,-0.542C0.601,-0.542 0.633,-0.538 0.659,-0.531C0.684,-0.524 0.705,-0.514 0.72,-0.501C0.735,-0.488 0.745,-0.472 0.751,-0.454C0.757,-0.435 0.76,-0.415 0.76,-0.394L0.76,-0.216L0.203,-0.216ZM0.611,-0.382C0.611,-0.4 0.607,-0.412 0.598,-0.418C0.588,-0.424 0.573,-0.427 0.55,-0.427L0.302,-0.427C0.283,-0.427 0.268,-0.426 0.255,-0.425C0.242,-0.423 0.232,-0.419 0.225,-0.413C0.217,-0.407 0.211,-0.398 0.208,-0.387C0.205,-0.376 0.203,-0.36 0.203,-0.341L0.203,-0.312L0.611,-0.312L0.611,-0.382Z" style="fill:white;fill-rule:nonzero;"/>
                            </g>
                            <g transform="matrix(12,0,0,12,285.84,78.293)">
                                <path d="M0.314,-0C0.264,-0 0.222,-0.004 0.189,-0.013C0.156,-0.021 0.129,-0.034 0.109,-0.053C0.089,-0.071 0.075,-0.095 0.067,-0.125C0.058,-0.154 0.054,-0.191 0.054,-0.234L0.054,-0.307C0.054,-0.35 0.058,-0.387 0.067,-0.417C0.075,-0.447 0.089,-0.471 0.109,-0.49C0.129,-0.508 0.156,-0.521 0.189,-0.53C0.222,-0.538 0.264,-0.542 0.314,-0.542L0.706,-0.542L0.706,-0.414L0.319,-0.414C0.296,-0.414 0.277,-0.412 0.262,-0.409C0.247,-0.406 0.235,-0.4 0.226,-0.392C0.217,-0.383 0.211,-0.372 0.208,-0.357C0.205,-0.342 0.203,-0.324 0.203,-0.302L0.203,-0.238C0.203,-0.217 0.205,-0.199 0.208,-0.185C0.211,-0.17 0.217,-0.159 0.226,-0.15C0.235,-0.141 0.247,-0.135 0.262,-0.132C0.277,-0.128 0.296,-0.126 0.319,-0.126L0.707,-0.126L0.707,-0L0.314,-0Z" style="fill:white;fill-rule:nonzero;"/>
                            </g>
                            <g transform="matrix(12,0,0,12,294.912,78.293)">
                                <path d="M0.09,-0L0.09,-0.421L0.014,-0.421L0.014,-0.542L0.09,-0.542L0.09,-0.695L0.242,-0.695L0.242,-0.542L0.413,-0.542L0.413,-0.421L0.242,-0.421L0.242,-0L0.09,-0Z" style="fill:white;fill-rule:nonzero;"/>
                            </g>
                            <g transform="matrix(12,0,0,12,300.024,78.293)">
                                <path d="M0.059,-0L0.059,-0.528L0.211,-0.528L0.211,-0L0.059,-0ZM0.11,-0.573C0.091,-0.573 0.078,-0.577 0.071,-0.584C0.063,-0.591 0.059,-0.603 0.059,-0.619L0.059,-0.677C0.059,-0.693 0.063,-0.705 0.071,-0.712C0.078,-0.719 0.091,-0.722 0.11,-0.722L0.159,-0.722C0.178,-0.722 0.192,-0.719 0.2,-0.712C0.207,-0.705 0.211,-0.693 0.211,-0.677L0.211,-0.619C0.211,-0.603 0.207,-0.591 0.2,-0.584C0.192,-0.577 0.178,-0.573 0.159,-0.573L0.11,-0.573Z" style="fill:white;fill-rule:nonzero;"/>
                            </g>
                            <g transform="matrix(12,0,0,12,303.264,78.293)">
                                <path d="M0.314,-0C0.264,-0 0.222,-0.004 0.189,-0.013C0.156,-0.021 0.129,-0.034 0.109,-0.053C0.089,-0.071 0.075,-0.095 0.067,-0.125C0.058,-0.154 0.054,-0.191 0.054,-0.234L0.054,-0.307C0.054,-0.35 0.058,-0.387 0.067,-0.417C0.075,-0.447 0.089,-0.471 0.109,-0.49C0.129,-0.508 0.156,-0.521 0.189,-0.53C0.222,-0.538 0.264,-0.542 0.314,-0.542L0.495,-0.542C0.546,-0.542 0.588,-0.538 0.621,-0.53C0.654,-0.521 0.681,-0.508 0.701,-0.489C0.721,-0.47 0.735,-0.446 0.744,-0.416C0.752,-0.386 0.756,-0.349 0.756,-0.306L0.756,-0.234C0.756,-0.191 0.752,-0.154 0.744,-0.125C0.735,-0.095 0.721,-0.071 0.701,-0.053C0.681,-0.034 0.654,-0.021 0.621,-0.013C0.588,-0.004 0.546,-0 0.495,-0L0.314,-0ZM0.607,-0.302C0.607,-0.325 0.605,-0.343 0.602,-0.358C0.598,-0.373 0.591,-0.384 0.582,-0.393C0.572,-0.401 0.558,-0.407 0.541,-0.41C0.524,-0.413 0.502,-0.414 0.475,-0.414L0.334,-0.414C0.307,-0.414 0.286,-0.413 0.269,-0.41C0.252,-0.407 0.238,-0.401 0.229,-0.393C0.219,-0.384 0.212,-0.373 0.209,-0.358C0.205,-0.343 0.203,-0.325 0.203,-0.302L0.203,-0.238C0.203,-0.215 0.205,-0.197 0.209,-0.183C0.212,-0.168 0.219,-0.157 0.229,-0.149C0.238,-0.14 0.252,-0.134 0.269,-0.131C0.286,-0.128 0.307,-0.126 0.334,-0.126L0.475,-0.126C0.502,-0.126 0.524,-0.128 0.541,-0.131C0.558,-0.134 0.572,-0.14 0.582,-0.149C0.591,-0.157 0.598,-0.168 0.602,-0.183C0.605,-0.197 0.607,-0.215 0.607,-0.238L0.607,-0.302Z" style="fill:white;fill-rule:nonzero;"/>
                            </g>
                            <g transform="matrix(12,0,0,12,312.984,78.293)">
                                <path d="M0.609,-0L0.609,-0.302C0.609,-0.325 0.607,-0.343 0.604,-0.358C0.6,-0.372 0.594,-0.383 0.585,-0.392C0.576,-0.4 0.563,-0.406 0.548,-0.409C0.532,-0.412 0.512,-0.414 0.488,-0.414L0.326,-0.414C0.303,-0.414 0.283,-0.412 0.268,-0.409C0.252,-0.406 0.239,-0.4 0.23,-0.392C0.221,-0.383 0.214,-0.372 0.211,-0.358C0.207,-0.343 0.205,-0.325 0.205,-0.302L0.205,-0L0.056,-0L0.056,-0.307C0.056,-0.35 0.06,-0.387 0.069,-0.417C0.077,-0.447 0.091,-0.471 0.111,-0.49C0.131,-0.508 0.158,-0.521 0.191,-0.53C0.224,-0.538 0.266,-0.542 0.316,-0.542L0.497,-0.542C0.548,-0.542 0.59,-0.538 0.623,-0.53C0.656,-0.521 0.683,-0.508 0.703,-0.49C0.723,-0.471 0.737,-0.447 0.746,-0.417C0.754,-0.387 0.758,-0.35 0.758,-0.307L0.758,-0L0.609,-0Z" style="fill:white;fill-rule:nonzero;"/>
                            </g>
                            <g transform="matrix(12,0,0,12,322.752,78.293)">
                                <path d="M0.696,-0.144C0.696,-0.117 0.694,-0.095 0.689,-0.077C0.684,-0.058 0.675,-0.043 0.662,-0.032C0.648,-0.021 0.629,-0.012 0.606,-0.008C0.582,-0.003 0.551,-0 0.513,-0L0.047,-0L0.047,-0.117L0.494,-0.117C0.514,-0.117 0.528,-0.12 0.536,-0.127C0.544,-0.134 0.548,-0.146 0.548,-0.165L0.548,-0.183C0.548,-0.203 0.544,-0.216 0.537,-0.221C0.529,-0.226 0.516,-0.228 0.498,-0.228L0.194,-0.228C0.163,-0.228 0.138,-0.231 0.12,-0.237C0.1,-0.243 0.086,-0.252 0.075,-0.264C0.064,-0.276 0.057,-0.291 0.054,-0.309C0.05,-0.326 0.048,-0.347 0.048,-0.371L0.048,-0.412C0.048,-0.435 0.05,-0.455 0.056,-0.472C0.061,-0.489 0.069,-0.502 0.08,-0.513C0.091,-0.523 0.107,-0.53 0.126,-0.535C0.145,-0.54 0.17,-0.542 0.199,-0.542L0.405,-0.542L0.405,-0.429L0.235,-0.429C0.22,-0.429 0.21,-0.426 0.204,-0.421C0.197,-0.416 0.194,-0.406 0.194,-0.392L0.194,-0.367C0.194,-0.352 0.197,-0.341 0.203,-0.336C0.209,-0.331 0.219,-0.328 0.232,-0.328L0.526,-0.328C0.561,-0.328 0.589,-0.325 0.611,-0.32C0.633,-0.314 0.65,-0.305 0.663,-0.293C0.676,-0.28 0.684,-0.264 0.689,-0.245C0.694,-0.225 0.696,-0.201 0.696,-0.172L0.696,-0.144Z" style="fill:white;fill-rule:nonzero;"/>
                            </g>
                        </g>
                    </g>
                </g>
            </g>
        </g>
    </g>
</svg>
