<svg viewBox="0 0 603 113" xmlns="http://www.w3.org/2000/svg" xml:space="preserve" style="fill-rule:evenodd;clip-rule:evenodd;stroke-linejoin:round;stroke-miterlimit:2">
    <path d="M18.442 50.134c-3.546 0-6.502-.296-8.867-.887-2.364-.591-4.256-1.537-5.674-2.837-1.419-1.301-2.424-3.003-3.015-5.108-.591-2.104-.887-4.693-.887-7.767v-15.18c0-3.027.296-5.604.887-7.732S2.482 6.781 3.901 5.48c1.418-1.3 3.31-2.246 5.674-2.837 2.365-.591 5.321-.887 8.867-.887h33.552v9.293H18.939c-1.655 0-3.015.13-4.079.39-1.064.26-1.903.697-2.518 1.312-.615.615-1.04 1.431-1.277 2.447-.236 1.017-.355 2.259-.355 3.725v14.186c0 1.514.119 2.767.355 3.76.237.993.662 1.797 1.277 2.412.615.615 1.466 1.04 2.554 1.277 1.087.236 2.459.354 4.114.354h32.984v9.222H18.442Zm58.734 0c-3.546 0-6.502-.296-8.867-.887-2.364-.591-4.256-1.537-5.674-2.837-1.419-1.301-2.424-3.003-3.015-5.108-.591-2.104-.887-4.693-.887-7.767V11.687h10.64v21.564c0 1.655.154 2.991.461 4.008.308 1.017.793 1.809 1.455 2.376.662.568 1.548.958 2.66 1.171 1.111.213 2.471.319 4.078.319h11.066c1.703 0 3.121-.106 4.256-.319 1.135-.213 2.022-.603 2.66-1.171.639-.567 1.088-1.359 1.348-2.376s.39-2.353.39-4.008V11.687h10.499v21.848c0 3.074-.296 5.663-.887 7.767-.591 2.105-1.596 3.807-3.015 5.108-1.418 1.3-3.322 2.246-5.71 2.837-2.388.591-5.379.887-8.973.887H77.176Zm84.413-10.215c0 1.892-.166 3.488-.497 4.788-.331 1.301-.981 2.353-1.951 3.157-.969.804-2.293 1.383-3.972 1.738-1.679.354-3.866.532-6.561.532h-33.056v-8.3h31.708c1.418 0 2.412-.236 2.979-.709.567-.473.851-1.371.851-2.695v-1.277c0-1.419-.272-2.306-.816-2.66-.543-.355-1.454-.532-2.731-.532h-21.564c-2.175 0-3.937-.213-5.284-.639-1.348-.425-2.4-1.064-3.157-1.915-.757-.851-1.265-1.903-1.525-3.157-.26-1.253-.39-2.731-.39-4.433v-2.908c0-1.655.177-3.074.532-4.256.355-1.183.934-2.14 1.738-2.873.804-.733 1.891-1.265 3.263-1.596 1.371-.331 3.097-.497 5.178-.497h14.613v8.016h-12.059c-1.041 0-1.786.189-2.235.567-.449.379-.674 1.064-.674 2.057v1.774c0 1.087.213 1.82.639 2.199.425.378 1.111.567 2.057.567h20.855c2.459 0 4.469.201 6.029.603 1.561.402 2.79 1.041 3.689 1.915.898.875 1.513 2.01 1.844 3.405.331 1.395.497 3.11.497 5.143v1.986Zm8.795 10.215V20.27h-5.391v-8.583h5.391V.834h10.783v10.853h12.129v8.583h-12.129v29.864h-10.783Zm46.108 0c-3.547 0-6.502-.296-8.867-.887-2.364-.591-4.256-1.537-5.675-2.837-1.418-1.301-2.423-3.003-3.014-5.108-.591-2.104-.887-4.693-.887-7.767v-5.178c0-3.074.296-5.675.887-7.803s1.596-3.842 3.014-5.143c1.419-1.3 3.311-2.246 5.675-2.837 2.365-.591 5.32-.887 8.867-.887h12.839c3.594 0 6.574.296 8.938.887 2.365.591 4.256 1.549 5.675 2.873 1.418 1.324 2.423 3.05 3.015 5.178.591 2.128.886 4.729.886 7.803v5.107c0 3.074-.295 5.663-.886 7.767-.592 2.105-1.597 3.807-3.015 5.108-1.419 1.3-3.31 2.246-5.675 2.837-2.364.591-5.344.887-8.938.887h-12.839Zm20.784-21.422c0-1.608-.13-2.932-.39-3.973-.26-1.04-.733-1.856-1.419-2.447s-1.643-.993-2.873-1.206c-1.229-.213-2.79-.319-4.681-.319h-10.002c-1.892 0-3.441.106-4.646.319-1.206.213-2.152.615-2.838 1.206-.686.591-1.158 1.407-1.419 2.447-.26 1.041-.39 2.365-.39 3.973v4.539c0 1.608.13 2.92.39 3.937.261 1.017.733 1.821 1.419 2.412s1.632 1.005 2.838 1.241c1.205.237 2.754.355 4.646.355h10.002c1.891 0 3.452-.118 4.681-.355 1.23-.236 2.187-.65 2.873-1.241.686-.591 1.159-1.395 1.419-2.412s.39-2.329.39-3.937v-4.539Zm79.021 21.422V27.009c0-2.412-.461-4.055-1.383-4.93-.922-.875-2.4-1.312-4.433-1.312H303.6c-1.561 0-2.849.106-3.866.319-1.017.213-1.821.567-2.412 1.064a3.926 3.926 0 0 0-1.241 1.915c-.237.781-.355 1.762-.355 2.944v23.125h-9.292V27.009c0-1.182-.107-2.163-.32-2.944a3.707 3.707 0 0 0-1.205-1.915c-.592-.497-1.407-.851-2.448-1.064-1.04-.213-2.364-.319-3.972-.319h-6.739c-2.128 0-3.629.437-4.504 1.312-.875.875-1.312 2.518-1.312 4.93v23.125h-10.286V25.449c0-2.365.236-4.41.709-6.136s1.254-3.157 2.341-4.292c1.088-1.135 2.507-1.974 4.256-2.518 1.75-.544 3.902-.816 6.455-.816h9.293c1.939 0 3.606.142 5.001.426 1.395.284 2.577.697 3.546 1.241.97.544 1.75 1.241 2.341 2.093.591.851 1.076 1.844 1.454 2.979.663-2.27 1.928-3.961 3.795-5.072 1.868-1.111 4.694-1.667 8.477-1.667h9.576c2.554 0 4.706.272 6.455.816 1.75.544 3.169 1.383 4.257 2.518 1.087 1.135 1.867 2.566 2.34 4.292.473 1.726.71 3.771.71 6.136v24.685h-10.357Zm-204.42 62.7c-3.808 0-6.981-.317-9.519-.952-2.539-.634-4.57-1.65-6.093-3.046-1.523-1.396-2.602-3.224-3.236-5.483-.635-2.259-.952-5.039-.952-8.339V78.717c0-3.249.317-6.016.952-8.301.634-2.285 1.713-4.125 3.236-5.521 1.523-1.396 3.554-2.412 6.093-3.046 2.538-.635 5.711-.952 9.519-.952h36.021v9.976H112.41c-1.777 0-3.237.14-4.379.419-1.142.279-2.043.749-2.703 1.409-.66.66-1.117 1.536-1.371 2.627-.254 1.092-.381 2.424-.381 3.998v15.231c0 1.625.127 2.97.381 4.036.254 1.066.711 1.93 1.371 2.59.66.66 1.573 1.116 2.741 1.37 1.168.254 2.64.381 4.417.381h35.412v9.9h-36.021Zm62.903 0c-3.807 0-6.98-.317-9.519-.952-2.538-.634-4.569-1.65-6.092-3.046-1.523-1.396-2.602-3.224-3.237-5.483-.634-2.259-.952-5.039-.952-8.339v-5.559c0-3.3.318-6.093.952-8.377.635-2.285 1.714-4.125 3.237-5.521 1.523-1.397 3.554-2.412 6.092-3.047 2.539-.634 5.712-.952 9.519-.952h13.784c3.859 0 7.057.318 9.596.952 2.538.635 4.569 1.663 6.092 3.085 1.523 1.421 2.602 3.274 3.237 5.559.634 2.285.952 5.077.952 8.377v5.483c0 3.3-.318 6.08-.952 8.339-.635 2.259-1.714 4.087-3.237 5.483-1.523 1.396-3.554 2.412-6.092 3.046-2.539.635-5.737.952-9.596.952H174.78Zm22.314-22.998c0-1.727-.14-3.148-.419-4.265-.279-1.117-.787-1.993-1.523-2.627-.736-.635-1.764-1.067-3.084-1.295-1.32-.229-2.996-.343-5.027-.343h-10.737c-2.031 0-3.694.114-4.989.343-1.294.228-2.31.66-3.046 1.295-.736.634-1.244 1.51-1.523 2.627-.279 1.117-.419 2.538-.419 4.265v4.873c0 1.727.14 3.135.419 4.227.279 1.092.787 1.955 1.523 2.589.736.635 1.752 1.079 3.046 1.333 1.295.254 2.958.381 4.989.381h10.737c2.031 0 3.707-.127 5.027-.381 1.32-.254 2.348-.698 3.084-1.333.736-.634 1.244-1.497 1.523-2.589.279-1.092.419-2.5.419-4.227v-4.873Zm19.952-31.605h11.575v54.603h-11.575zm20.562 0h11.575v54.603h-11.575zm31.528 38.154v1.904c0 1.269.101 2.284.304 3.046.204.761.572 1.358 1.105 1.789.533.432 1.244.724 2.132.876.888.153 1.993.229 3.313.229h13.403v8.605H275.99c-6.55 0-11.22-1.244-14.013-3.731-2.792-2.488-4.188-6.474-4.188-11.957v-9.519c0-2.995.292-5.521.876-7.577.583-2.057 1.599-3.707 3.046-4.95 1.447-1.244 3.363-2.145 5.749-2.704 2.387-.558 5.407-.838 9.063-.838h19.952c2.945 0 5.395.28 7.349.838 1.955.559 3.503 1.333 4.646 2.323 1.142.99 1.942 2.183 2.398 3.579.457 1.396.686 2.907.686 4.531v13.556h-42.418Zm31.071-12.642c0-1.371-.343-2.284-1.028-2.741-.686-.457-1.891-.686-3.618-.686h-18.886c-1.421 0-2.614.064-3.579.191-.965.127-1.739.418-2.323.875-.584.457-1.003 1.117-1.256 1.98-.254.863-.381 2.031-.381 3.503v2.209h31.071v-5.331Zm38.991 29.091c-3.808 0-6.981-.317-9.519-.952-2.539-.634-4.57-1.65-6.093-3.046-1.523-1.396-2.602-3.224-3.236-5.483-.635-2.259-.952-5.039-.952-8.339v-5.559c0-3.3.317-6.093.952-8.377.634-2.285 1.713-4.125 3.236-5.521 1.523-1.397 3.554-2.412 6.093-3.047 2.538-.634 5.711-.952 9.519-.952h29.852v9.748h-29.471c-1.777 0-3.237.127-4.379.381-1.142.254-2.044.698-2.704 1.333-.66.634-1.117 1.51-1.37 2.627-.254 1.117-.381 2.513-.381 4.189v4.873c0 1.625.127 2.983.381 4.075.253 1.091.71 1.967 1.37 2.627.66.66 1.562 1.13 2.704 1.409 1.142.279 2.602.419 4.379.419h29.548v9.595h-29.929Zm40.514 0V80.773h-5.788v-9.215h5.788V59.907h11.576v11.651h13.022v9.215h-13.022v32.061h-11.576Zm30.081 0V72.625h11.576v40.209h-11.576Zm3.884-43.636c-1.422 0-2.424-.28-3.008-.838-.584-.559-.876-1.447-.876-2.665v-4.417c0-1.219.292-2.095.876-2.628.584-.533 1.586-.799 3.008-.799h3.732c1.472 0 2.5.266 3.084.799.584.533.876 1.409.876 2.628v4.417c0 1.218-.292 2.106-.876 2.665-.584.558-1.612.838-3.084.838h-3.732Zm36.097 43.636c-3.808 0-6.981-.317-9.519-.952-2.539-.634-4.569-1.65-6.092-3.046-1.524-1.396-2.602-3.224-3.237-5.483-.635-2.259-.952-5.039-.952-8.339v-5.559c0-3.3.317-6.093.952-8.377.635-2.285 1.713-4.125 3.237-5.521 1.523-1.397 3.553-2.412 6.092-3.047 2.538-.634 5.711-.952 9.519-.952h13.784c3.859 0 7.057.318 9.596.952 2.538.635 4.569 1.663 6.092 3.085 1.523 1.421 2.602 3.274 3.237 5.559.634 2.285.951 5.077.951 8.377v5.483c0 3.3-.317 6.08-.951 8.339-.635 2.259-1.714 4.087-3.237 5.483-1.523 1.396-3.554 2.412-6.092 3.046-2.539.635-5.737.952-9.596.952h-13.784Zm22.313-22.998c0-1.727-.139-3.148-.418-4.265-.28-1.117-.787-1.993-1.523-2.627-.737-.635-1.765-1.067-3.085-1.295-1.32-.229-2.995-.343-5.026-.343h-10.738c-2.03 0-3.693.114-4.988.343-1.294.228-2.31.66-3.046 1.295-.736.634-1.244 1.51-1.523 2.627-.279 1.117-.419 2.538-.419 4.265v4.873c0 1.727.14 3.135.419 4.227.279 1.092.787 1.955 1.523 2.589.736.635 1.752 1.079 3.046 1.333 1.295.254 2.958.381 4.988.381h10.738c2.031 0 3.706-.127 5.026-.381 1.32-.254 2.348-.698 3.085-1.333.736-.634 1.243-1.497 1.523-2.589.279-1.092.418-2.5.418-4.227v-4.873Zm61.838 22.998V89.836c0-1.727-.14-3.136-.419-4.227-.279-1.092-.762-1.955-1.447-2.589-.685-.635-1.625-1.079-2.818-1.333s-2.703-.381-4.531-.381h-12.337c-1.777 0-3.262.127-4.455.381s-2.145.698-2.856 1.333c-.71.634-1.205 1.497-1.485 2.589-.279 1.091-.419 2.5-.419 4.227v22.998h-11.347V89.455c0-3.3.318-6.093.952-8.377.635-2.285 1.714-4.125 3.237-5.521 1.523-1.397 3.554-2.412 6.092-3.047 2.539-.634 5.712-.952 9.52-.952h13.784c3.858 0 7.057.318 9.595.952 2.539.635 4.569 1.65 6.092 3.047 1.523 1.396 2.602 3.236 3.237 5.521.635 2.284.952 5.077.952 8.377v23.379h-11.347Zm68.615-10.966c0 2.031-.178 3.744-.533 5.14-.355 1.397-1.054 2.526-2.094 3.389-1.041.863-2.463 1.485-4.265 1.866-1.802.381-4.15.571-7.044.571h-35.488v-8.91h34.041c1.523 0 2.589-.254 3.198-.761.61-.508.914-1.473.914-2.894v-1.371c0-1.523-.292-2.475-.876-2.856-.583-.381-1.561-.571-2.932-.571H564.31c-2.335 0-4.226-.229-5.673-.685-1.447-.457-2.577-1.143-3.389-2.057-.812-.913-1.358-2.043-1.637-3.388-.279-1.346-.419-2.932-.419-4.76v-3.122c0-1.777.19-3.301.571-4.57.381-1.269 1.003-2.297 1.866-3.084.863-.787 2.031-1.358 3.503-1.713 1.472-.356 3.325-.534 5.559-.534h15.688v8.606h-12.946c-1.117 0-1.917.203-2.399.609-.482.406-.724 1.142-.724 2.209v1.903c0 1.168.229 1.955.686 2.361.457.406 1.193.609 2.208.609h22.39c2.64 0 4.797.216 6.473.648 1.675.431 2.995 1.117 3.96 2.056.965.939 1.625 2.158 1.98 3.655.355 1.498.533 3.338.533 5.522v2.132Z" style="fill:#fff;fill-rule:nonzero"/>
</svg>
