<svg viewBox="0 0 3840 1398.6" xmlns="http://www.w3.org/2000/svg">
    <path class="st5518" d="M1634.8 0h319c175.4 0 253.5 65.5 253.5 244.3V376c0 172.1-55.4 253.5-230.8 253.5h-341.6V0Zm167.9 483.5h146.9c62.1 0 84.8-41.1 84.8-107.4V244.3c0-81.4-26-98.2-84.8-98.2h-146.9v337.4Zm603.4 37.7L2375 629.5h-174.6L2389.3 0h255.2l191.4 629.5h-171.2L2632 521.2h-225.9Zm114.2-395.3h-1.7l-76.4 272.8h156.1l-78-272.8Zm580.1 503.6h-167.9V146h-161.2V0H3270v146h-169.6v483.5Zm309.8-108.3-31.1 108.3h-174.6L3393.5 0h255.2L3840 629.5h-171.2L3636 521.2h-225.8Zm114.2-395.3h-1.7l-76.4 272.8h156.1l-78-272.8Zm-1721.6 889.7h268.6v116.7h-268.6v122.5h292.1v137.7h-460V763H2089v137.7h-286.2v114.9Zm534.9 269.7-31.1 108.3H2132l188.9-629.5h255.2l191.4 629.5h-171.2l-32.7-108.3h-225.9ZM2451.9 890h-1.7l-76.4 272.8h156.1l-78-272.8Zm634.5 120.9c186.3 13.4 232.5 36.9 232.5 181.3 0 104.1 4.2 206.5-272.8 206.5-160.3 0-266.9-3.4-266.9-209.8h161.2c0 65.5 23.5 72.2 105.8 72.2 78.9 0 104.9-5 104.9-57.9 0-54.6-9.2-53.7-88.1-58.8l-36.9-2.5c-155.3-10.9-245.9-10.1-245.9-190.5S2881.6 759 3046.1 759c137.7 0 255.2 2.5 255.2 176.3v26h-161.2c0-64.6-26.9-64.6-94-64.6-90.7 0-98.2 18.5-98.2 53.7 0 50.4 24.3 52 68.8 55.4l69.7 5.1Zm584 382.7h-167.9V910.1h-161.2v-146H3840v146h-169.6v483.5ZM41.8 252.8c-14.1 0-28.1.7-41.8 2v889c13.8 1.3 27.7 2 41.8 2 246.2 0 446.5-200.3 446.5-446.5S288.1 252.8 41.8 252.8Z" style="fill:#fff"/>
    <path class="st5518" d="M41.8 0C27.8 0 13.9.5 0 1.4v185.9c13.8-1.1 27.7-1.8 41.8-1.8 283.4 0 513.9 230.5 513.9 513.9s-230.5 513.9-513.9 513.9c-14.1 0-28-.7-41.8-1.8v185.9c13.9.8 27.8 1.4 41.8 1.4 386.2 0 699.3-313.1 699.3-699.3C741.1 313.3 428.1 0 41.8 0Z" style="fill:#fff"/>
    <path class="st5518" d="M1425.4 1398.6c14.1 0 28-.5 41.8-1.4v-185.9c-13.8 1.1-27.7 1.8-41.8 1.8-283.4 0-513.9-230.5-513.9-513.9s230.5-513.9 513.9-513.9c14.1 0 28 .7 41.8 1.8V1.4c-13.9-.8-27.8-1.4-41.8-1.4-386.2 0-699.3 313.1-699.3 699.3 0 386.2 313.1 699.3 699.3 699.3Z" style="fill:#fff"/>
    <path class="st5518" d="M1467.2 665.8v-411c-13.8-1.3-27.7-2-41.8-2-234.9 0-427.9 182.4-445.1 413h486.9Zm-486.9 67c17.2 230.6 210.2 413 445.1 413 14.1 0 28.1-.7 41.8-2v-411H980.3Z" style="fill:#fff"/>
</svg>
