<svg viewBox="0 0 600 106" xmlns="http://www.w3.org/2000/svg">
    <path class="B" d="M534.849 16.917c.477-2.169 1.002-3.753 1.539-4.578 5.295-8.001 9.828-9.213 19.296-8.928 0 0 9.363 0 23.451 1.287 23.661 2.151 17.979 33.426 17.979 33.426s-.612 3.051-4.101 4.053c-3.468 1.017-17.079-1.029-17.079-1.029s-2.571-1.317-2.466-2.844l-.138-6.492c-.729-4.5-4.395-4.263-9.435-4.56-5.727-.345-8.361 3.108-8.826 9.765 0 0-1.032 15.558-1.824 26.175-.954 12.864 5.91 12.174 5.91 12.174 8.151.705 12.009.897 12.024-9.36l-3.069-.243s-1.509-.102-2.871-2.481l1.095-12.249s.759-4.128 4.53-4.083c0 0 16.542 1.164 19.863 1.434.387.03 4.188.555 4.86 4.848l-2.781 45.498s.282 2.991-3.216 3.888l-16.305-1.137s-2.391-1.257-2.673-2.796l.894-4.713c-1.209 10.2-27.042 6.954-32.904 5.28-.972-.285-2.334-1.002-3.528-1.974" style="fill:#fff"/>
    <path class="C" d="M532.635 16.422c.24-1.137.51-2.154.807-3.021.3-.882.6-1.614 1.062-2.319 1.287-1.944 2.544-3.543 3.906-4.875 2.019-2.004 4.278-3.351 6.774-4.11 2.499-.78 5.205-1.005 8.316-1.005.72 0 1.479.015 2.274.03l-.075 2.274V1.122c.06 0 9.48 0 23.661 1.302 4.338.387 7.911 1.719 10.737 3.693 4.263 2.961 6.732 7.269 8.136 11.637 1.392 4.368 1.767 8.871 1.767 12.549 0 4.725-.612 8.136-.642 8.226v.045c-.03.195-.255 1.227-1.065 2.454-.789 1.224-2.304 2.676-4.62 3.333-.57.165-1.137.24-1.749.3-.612.06-1.26.075-1.959.075-2.814 0-6.342-.342-9.228-.672s-5.088-.657-5.118-.672a2.159 2.159 0 0 1-.702-.228c-.072-.045-.807-.402-1.632-1.074a7.76 7.76 0 0 1-1.269-1.317c-.387-.57-.792-1.347-.792-2.379l.015-.252 2.274.162-2.274.045-.135-6.492 2.274-.045-2.244.375c-.153-.822-.36-1.209-.567-1.452-.153-.177-.33-.315-.645-.462-.465-.225-1.254-.405-2.319-.495-1.062-.105-2.349-.147-3.801-.222-.207-.015-.414-.015-.612-.015-1.047 0-1.854.177-2.481.45-.927.414-1.584 1.029-2.169 2.196-.585 1.152-.99 2.841-1.137 5.025 0 0-1.032 15.555-1.839 26.19a28.85 28.85 0 0 0-.09 2.184c0 2.136.285 3.663.642 4.728.57 1.599 1.242 2.151 1.764 2.466.525.312 1.032.342 1.137.327h.018l.075 1.272-.138-1.272h.063l.075 1.272-.138-1.272h.42c1.779.153 3.321.27 4.563.27 1.107 0 1.959-.102 2.541-.285.435-.135.735-.297.972-.507.36-.297.705-.792 1.002-1.839.3-1.05.495-2.619.495-4.74h2.274l-.18 2.271-3.066-.24h.015c-.285-.012-1.032-.132-1.932-.66-.897-.522-1.914-1.461-2.766-2.958a2.203 2.203 0 0 1-.297-1.329l1.089-12.252.03-.207c.03-.168.258-1.422 1.17-2.859a6.524 6.524 0 0 1 2.049-2.079c.927-.612 2.151-1.002 3.498-1.002h.09l.135.015s16.527 1.167 19.878 1.434c.285.015.675.078 1.272.255.864.24 2.076.747 3.213 1.782 1.137 1.032 2.124 2.646 2.439 4.74.03.165.045.33.015.492l-2.781 45.498-2.274-.132 2.259-.21c.015.06.015.195.015.372 0 .57-.075 1.677-.78 2.931a6.154 6.154 0 0 1-1.554 1.797c-.705.537-1.569.957-2.586 1.212-.255.06-.483.09-.735.06l-16.302-1.14a2.31 2.31 0 0 1-.897-.252c-.075-.045-.78-.405-1.587-1.062a7.804 7.804 0 0 1-1.272-1.257c-.402-.522-.822-1.194-.987-2.091a2.538 2.538 0 0 1 0-.825l.9-4.71a2.267 2.267 0 0 1 2.586-1.827 2.27 2.27 0 0 1 1.914 2.514c-.207 1.914-1.137 3.618-2.439 4.833-1.959 1.851-4.545 2.841-7.386 3.468-2.856.612-6 .84-9.138.84-3.486 0-6.957-.273-9.918-.66-2.961-.375-5.37-.855-6.909-1.287-.705-.21-1.422-.525-2.169-.927a15.35 15.35 0 0 1-2.184-1.482l2.874-3.528a11.35 11.35 0 0 0 1.509 1.014c.492.273.957.465 1.224.54 1.125.33 3.444.792 6.237 1.137 2.784.36 6.075.615 9.336.615 3.888 0 7.701-.405 10.377-1.347 1.332-.48 2.364-1.062 3.009-1.689.642-.627.957-1.227 1.062-2.082l2.259.27 2.226.42-.897 4.713-2.241-.435 2.241-.405-.402.075.387-.135.015.06-.402.075.387-.135-.12.045.12-.045h.015l-.12.045.12-.045s.06.12.21.27c.207.225.567.507.852.702.15.09.27.165.342.225l.09.048.015.015-.402.744.402-.744-.402.744.402-.744-1.062 2.016.168-2.274 16.302 1.137-.165 2.274-.57-2.214c.495-.12.765-.282.957-.432a1.37 1.37 0 0 0 .465-.615c.075-.207.09-.435.09-.48v-.015l.912-.015-.912.09v-.06l.912-.015-.912.09v-.342l2.781-45.498 2.274.135-2.244.357c-.117-.762-.345-1.242-.612-1.617-.375-.552-.882-.864-1.362-1.074-.24-.105-.462-.165-.612-.21l-.18-.03h-.045l.06-.462-.045.462h-.015l.06-.462-.045.462h.015c-1.644-.135-6.627-.477-11.172-.807-4.545-.33-8.676-.612-8.691-.612l.165-2.274-.03 2.274h-.03c-.51 0-.78.117-1.032.267-.375.225-.717.705-.927 1.182-.105.24-.18.465-.222.597l-.048.165v.03l-1.017-.21 1.017.195v.03l-1.017-.21 1.017.195-2.241-.417 2.271.207-1.092 12.252-2.271-.195 1.989-1.137c.507.882.927 1.182 1.119 1.302l.12.06.03.015-.105.342.06-.357.045.015-.105.342.06-.357-.267 1.494.105-1.509.162.015-.267 1.494.105-1.509h.027l3.066.237a2.272 2.272 0 0 1 2.097 2.274c0 2.109-.165 3.876-.51 5.4-.27 1.152-.66 2.169-1.212 3.051a6.91 6.91 0 0 1-3.498 2.826c-1.392.507-2.829.63-4.338.63-1.524 0-3.156-.135-4.935-.285l.177-2.274.228 2.274c-.063 0-.213.015-.405.015-.45 0-1.155-.045-2.052-.33-1.299-.402-2.961-1.422-4.14-3.366-1.2-1.929-1.914-4.62-1.914-8.403 0-.795.045-1.632.102-2.526.405-5.295.855-11.832 1.212-17.052.18-2.604.33-4.878.447-6.51.108-1.629.183-2.586.183-2.586.237-3.423.987-6.309 2.733-8.541.87-1.089 2.007-1.989 3.291-2.541 1.302-.567 2.754-.822 4.308-.822.3 0 .582.015.885.027 2.451.168 4.71.123 6.906.825 1.095.36 2.202.972 3.054 1.974.84.987 1.362 2.259 1.584 3.681l.03.312.135 6.492v.225l-1.047-.075h1.047v.075l-1.047-.075h1.047-.747l.702-.27.045.27h-.747l.702-.27-.222.09.207-.105.015.03-.222.09.207-.105c-.015.015.315.39.675.627.177.12.345.243.465.303l.132.072.015.015-.282.54.282-.54-.282.54.282-.54-1.047 2.019.345-2.244s.135.018.372.063c.852.117 3.084.429 5.655.717 2.556.285 5.49.522 7.644.507.597 0 1.134-.015 1.569-.06.432-.03.762-.09.867-.132 1.17-.345 1.707-.93 2.079-1.467.18-.27.3-.522.36-.69l.057-.177v-.015l1.2.282-1.212-.237.012-.045 1.2.282-1.212-.237 2.229.447-2.244-.405v-.012c.042-.288.552-3.336.552-7.389.015-4.503-.642-10.233-3.036-14.733-1.179-2.259-2.766-4.218-4.92-5.715-2.139-1.494-4.875-2.556-8.541-2.886a329.046 329.046 0 0 0-16.884-1.119 209.505 209.505 0 0 0-4.713-.138c-.537-.015-.957-.015-1.227-.015h-.462c-.75-.03-1.467-.03-2.139-.03-1.929 0-3.573.105-4.995.33-2.127.36-3.756.987-5.325 2.124-1.587 1.137-3.141 2.871-4.875 5.49-.093.135-.315.582-.54 1.254-.21.66-.465 1.542-.687 2.559l-4.473-1.167" style="fill:#141414"/>
    <path class="B" d="M289.47 27.864c5.487 14.226 12.174 31.14 12.174 31.14l-1.329 37.974s.402 3.186 4.428 3.621c5.397.567 13.386.465 13.386.465s4.035.972 4.185-3.561c.093-2.379 1.332-37.812 1.332-37.812l22.869-48.309s.897-4.83-3.156-4.965c-4.068-.135-15.135-.687-15.135-.687s-2.259-.855-4.188 3.603c-1.782 4.113-10.11 24.888-10.11 24.888l-7.032-25.488c-2.196-4.293-2.424-3.843-6.474-3.978-2.424-.087-6.747-.192-10.278-.132" style="fill:#fff"/>
    <path class="C" d="M291.609 27.042a2870.092 2870.092 0 0 0 8.139 20.88c1.179 3.006 2.181 5.562 2.898 7.356l1.137 2.859c.12.3.165.6.165.912l-1.329 37.974-2.274-.09 2.256-.282-1.374.18 1.359-.243.015.063-1.374.18 1.359-.243-.282.048.282-.063v.015l-.282.048.282-.063c0 .015.108.435.405.795.15.177.345.36.642.522.315.168.735.315 1.377.39 3.828.405 9.258.465 11.742.465h1.377c.177 0 .375.015.552.06l-.177.732.147-.747.03.015-.177.732.147-.747c.015.015.18.03.375.03.312 0 .597-.09.672-.165.045-.045.09-.075.162-.24.078-.165.183-.495.183-1.047.045-1.182.372-10.635.702-19.803.315-9.153.63-18.024.63-18.024.015-.297.09-.612.207-.897l22.869-48.321 2.064.972-2.229-.42.972.177-.972-.162v.045l.972.177-.972-.162s.045-.315.045-.687c.015-.495-.12-1.08-.252-1.287l-.183-.198c-.075-.045-.222-.117-.627-.132-4.098-.15-15.168-.702-15.168-.702a2.206 2.206 0 0 1-.687-.15l.33-.897v.972c-.042 0-.132 0-.33-.075l.33-.897v.972-.18l.03.18h-.03v-.18l.03.18-.06.03c-.087.045-.285.147-.552.477-.285.327-.66.897-1.05 1.794-.867 1.989-3.393 8.241-5.697 13.938-1.152 2.859-2.256 5.58-3.066 7.599a381.574 381.574 0 0 1-1.332 3.306 2.27 2.27 0 0 1-2.241 1.422 2.29 2.29 0 0 1-2.067-1.674l-7.026-25.503 2.196-.597-2.019 1.029c-.537-1.044-.927-1.746-1.209-2.136-.21-.3-.315-.39-.345-.42l-.06-.03c-.06-.03-.345-.072-.837-.102-.495-.03-1.197-.03-2.079-.06-1.944-.078-5.1-.168-8.061-.168-.72 0-1.422 0-2.082.015l-.075-4.56c.705-.015 1.422-.015 2.172-.015 3.048 0 6.249.09 8.223.165.972.03 1.752.03 2.499.087.567.045 1.167.123 1.794.345.48.165.942.435 1.362.75.612.495 1.077 1.077 1.482 1.719.417.642.822 1.392 1.302 2.319a1.6 1.6 0 0 1 .162.432l7.029 25.503-2.199.597-2.109-.84s2.082-5.202 4.386-10.914c2.316-5.715 4.83-11.922 5.742-14.043.807-1.857 1.734-3.114 2.796-3.936 1.047-.822 2.199-1.122 3.021-1.107.627 0 1.062.135 1.254.21l-.804 2.139.12-2.274s2.766.135 6.042.3c3.273.147 7.059.327 9.06.405 1.02.027 1.974.282 2.769.744a4.99 4.99 0 0 1 1.467 1.302c.552.732.837 1.527 1.014 2.217a7.97 7.97 0 0 1 .213 1.866c0 .837-.105 1.407-.12 1.512-.045.18-.105.387-.18.555L325.74 60.573l-2.049-.972 2.274.075s-1.227 35.448-1.317 37.827c-.045 1.029-.222 1.959-.597 2.766-.54 1.227-1.527 2.109-2.484 2.541-.957.45-1.839.525-2.511.54-.78 0-1.287-.12-1.407-.15l.54-2.214.027 2.274h-1.434c-2.571 0-8.034-.045-12.219-.492-1.302-.135-2.412-.51-3.321-1.047a6.681 6.681 0 0 1-2.589-2.799c-.435-.897-.537-1.569-.552-1.731l-.015-.375 1.332-37.974 2.274.072-2.127.84s-6.699-16.92-12.174-31.155l4.218-1.557" style="fill:#141414"/>
    <path class="B" d="M239.067 32.172c2.136 26.892 5.832 66.933 5.832 66.933.927 1.401 2.454 2.676 4.86 2.496l44.226-3.096s3.831-.672 3.519-5.193c-.09-1.209-.243-11.364-1.362-17.079l-3.621-2.526-26.502 1.629-.885-12.489 21.75-1.449s4.215.612 4.875-5.295l-.897-12.282c-1.674-4.815-4.623-3.303-4.623-3.303L263.7 42.045l-.84-11.997s22.272-1.257 25.728-1.809c4.098-.597 3.186-1.152 4.026-4.92l-1.125-16.11s-.957-4.338-4.8-4.068c-3.156.225-42.537 2.304-45.243 2.304-1.827 1.227-2.589.462-3.204 1.374" style="fill:#fff"/>
    <path class="C" d="M241.341 31.977c1.062 13.431 2.526 30.168 3.726 43.524.597 6.684 1.119 12.534 1.509 16.707.372 4.173.612 6.669.612 6.669l-2.274.213 1.899-1.257c.315.462.672.852 1.062 1.089.405.258.822.405 1.482.405l.27-.015c5.13-.36 44.226-3.093 44.226-3.093L294 98.49l-.399-2.244.207 1.167-.237-1.152.03-.015.207 1.167-.237-1.152.072-.03c.195-.06.672-.255.972-.585.165-.162.3-.342.417-.627.123-.27.213-.642.213-1.209l-.015-.36c-.015-.225-.015-.507-.045-.912a220.995 220.995 0 0 0-.33-7.239c-.195-3.039-.51-6.327-.957-8.631l2.244-.447-1.317 1.869-3.618-2.514 1.314-1.869.135 2.271-26.487 1.632c-1.257.075-2.334-.867-2.409-2.109l-.867-12.486a2.24 2.24 0 0 1 .552-1.662 2.28 2.28 0 0 1 1.572-.78l21.744-1.464c.168 0 .33 0 .48.015l-.135.912.075-.912h.045l-.135.912.075-.912h.06c.21 0 .69-.045 1.08-.357.192-.153.414-.39.642-.825.222-.447.447-1.104.552-2.109l2.274.255-2.274.162-.882-12.276 2.274-.168-2.142.75c-.414-1.209-.849-1.692-1.059-1.854-.225-.165-.255-.135-.327-.15l-.138.015h-.015l-.282-.807.387.762-.105.045-.282-.807.387.762a2.275 2.275 0 0 1-.882.24l-22.584 1.539c-1.257.093-2.334-.852-2.424-2.124l-.837-11.994a2.275 2.275 0 0 1 .555-1.674c.402-.45.972-.735 1.584-.765 0 0 1.389-.072 3.531-.21 3.213-.192 8.106-.48 12.504-.792 2.196-.147 4.293-.3 5.967-.432 1.674-.135 2.988-.27 3.468-.36h.03c.96-.135 1.557-.282 1.752-.36l.057-.03.315.567-.552-.327.222-.24.315.567-.552-.327.342.21-.372-.15.03-.06.342.21-.372-.15s.03-.075.06-.207c.105-.435.207-1.47.51-2.844l2.226.495-2.271.162c-.36-5.25-.645-9.285-.84-11.994-.192-2.709-.3-4.113-.3-4.113l2.274-.165-2.226.495 1.344-.285-1.344.312v-.012l1.344-.285-1.344.312v-.015c-.033-.147-.285-.897-.69-1.434a2.142 2.142 0 0 0-.657-.627c-.225-.135-.477-.228-.882-.228h-.183c-.834.063-3.858.228-8.058.45-6.267.345-15.078.81-22.554 1.182-3.741.18-7.164.36-9.768.48-1.314.06-2.409.105-3.261.15-.852.027-1.419.057-1.749.057V5.445l1.254 1.899a7.762 7.762 0 0 1-1.719.867c-.777.27-1.419.315-1.494.33l-.228-1.002.54.852c-.165.105-.312.15-.312.15l-.228-1.002.54.852-.597-.927.927.612c-.03.06-.165.21-.33.315l-.597-.927.927.612-3.726-2.526c.183-.255.405-.537.675-.75a3.646 3.646 0 0 1 1.407-.702c.567-.12.774-.12.957-.18.177-.045.387-.12.777-.372.372-.24.822-.39 1.272-.39.225 0 1.164-.03 2.481-.09 4.683-.195 14.658-.702 23.796-1.182 4.578-.24 8.928-.477 12.324-.657 3.381-.195 5.835-.33 6.477-.375.165-.015.345-.015.495-.015 1.332 0 2.541.405 3.453 1.017 1.377.915 2.142 2.124 2.586 3.069.468.939.615 1.674.645 1.794l.045.33s.39 5.592 1.137 16.107c.015.21 0 .447-.06.672-.195.84-.282 1.497-.39 2.139a7.831 7.831 0 0 1-.372 1.539 3.965 3.965 0 0 1-.822 1.317c-.285.3-.627.552-.972.75-.51.282-1.032.447-1.572.582-.54.135-1.122.237-1.824.33l-.33-2.259.36 2.244c-.537.09-1.272.165-2.244.252-6.672.612-23.691 1.575-23.706 1.575l-.138-2.277 2.277-.15.837 11.994-2.274.168-.15-2.274 22.584-1.542.15 2.277-1.047-2.037c.195-.09.942-.48 2.124-.48.927-.015 2.154.3 3.201 1.17 1.062.852 1.884 2.136 2.496 3.888.075.177.108.405.123.582l.897 12.282v.414c-.165 1.452-.507 2.664-1.035 3.681-.774 1.524-1.959 2.541-3.063 3.054a6.386 6.386 0 0 1-2.724.612c-.327 0-.567-.03-.657-.045l.33-2.259.15 2.274-21.732 1.452-.168-2.277 2.274-.147.885 12.489-2.274.162-.15-2.274 26.502-1.629a2.279 2.279 0 0 1 1.452.405l3.606 2.526c.489.345.819.84.927 1.422.612 3.081.924 7.089 1.122 10.545.087 1.722.147 3.306.192 4.515.015.615.03 1.14.06 1.542.015.387.033.687.033.762.015.222.03.45.03.675 0 1.344-.3 2.541-.825 3.498a6.703 6.703 0 0 1-2.811 2.784c-.912.477-1.632.597-1.782.627l-.222.03s-9.765.687-20.193 1.404c-10.425.735-21.462 1.497-24.033 1.674-.198.015-.39.015-.585.015-1.512 0-2.874-.429-3.933-1.119-1.077-.687-1.842-1.557-2.409-2.409a2.241 2.241 0 0 1-.375-1.047s-3.693-40.041-5.832-66.957l4.563-.318" style="fill:#141414"/>
    <path class="B" d="M186.375 97.518c5.115.54 13.923 1.719 13.923 1.719s4.428.06 4.968-5.085c.537-5.142 2.691-25.575 2.691-25.575l10.335 28.896c1.929 3.453 2.319 3.903 7.704 4.455l13.041 1.377s4.083.03 4.56-4.47c.225-2.154-9.675-25.143-17.631-44.244 13.401-20.88 23.706-41.352 23.706-41.352s.912-4.116-3.141-5.31C242.625 6.774 233.1 6.522 233.1 6.522s-3.201-.852-5.97 3.141c-4.113 5.922-15.72 25.89-15.72 25.89l2.664-27.267c.192-2.004-.42-3.426-2.631-3.786l-17.964-2.136s-2.784.552-3.051 3.126c0 0-2.259 19.683-4.548 40.518" style="fill:#fff"/>
    <path class="C" d="M186.615 95.247c5.175.537 13.968 1.716 13.983 1.716l-.3 2.259.03-2.274-.03 1.797v-1.797h.03l-.03 1.797v-1.797.735l-.015-.735h.015v.735l-.015-.735.123-.015c.282-.03.924-.162 1.404-.537a2.44 2.44 0 0 0 .687-.795c.21-.369.405-.897.48-1.701.552-5.148 2.691-25.563 2.691-25.563a2.26 2.26 0 0 1 1.992-2.019 2.272 2.272 0 0 1 2.421 1.494l10.335 28.884-2.154.762 1.989-1.107c.48.855.84 1.467 1.107 1.842.207.282.36.432.492.537.213.147.45.297 1.137.462.675.165 1.722.315 3.201.465 5.385.567 13.041 1.377 13.041 1.377l-.237 2.271.015-2.289-.015 2.109v-2.109h.015l-.015 2.109v-2.109.66l-.03-.66h.03v.66l-.03-.66c.045.018.717-.06 1.197-.357.255-.153.462-.33.66-.627.192-.3.369-.72.462-1.452l1.497.165h-1.512l.015-.165 1.497.165h-1.512.837l-.822.075-.015-.075h.837l-.822.075-.015-.03c-.033-.18-.195-.9-.522-1.842-1.095-3.306-3.681-9.735-6.795-17.259-3.123-7.536-6.804-16.23-10.155-24.243a2.304 2.304 0 0 1 .198-2.112c6.654-10.377 12.564-20.67 16.797-28.371 2.121-3.843 3.813-7.047 4.992-9.273a172.608 172.608 0 0 0 1.332-2.589c.312-.597.465-.912.465-.912l2.034 1.02-2.232-.495 1.332.282-1.332-.267v-.03l1.332.282-1.332-.267v-.03a3.06 3.06 0 0 0 .03-.495c0-.402-.087-.894-.267-1.239a2.209 2.209 0 0 0-.405-.48c-.192-.147-.462-.3-.912-.45-.759-.222-2.019-.447-3.378-.627-2.079-.27-4.473-.447-6.312-.552-.927-.063-1.722-.093-2.274-.123-.555-.015-.885-.03-.885-.03-.162 0-.354-.027-.522-.072l.33-1.257-.27 1.287-.075-.015.33-1.257-.27 1.287.048-.195-.048.195.048-.195-.048.195s-.09-.015-.237-.015c-.288 0-.735.042-1.287.33-.57.282-1.272.792-2.064 1.914-.972 1.404-2.469 3.753-4.131 6.444a963.798 963.798 0 0 0-7.608 12.669c-1.125 1.917-2.097 3.561-2.784 4.743-.69 1.179-1.095 1.866-1.095 1.866a2.265 2.265 0 0 1-2.658 1.02 2.281 2.281 0 0 1-1.575-2.382l2.649-27.261c.015-.165.03-.315.03-.435 0-.255-.03-.435-.045-.537-.057-.153-.057-.12-.072-.153-.03-.015-.18-.135-.63-.207l.372-2.244-.267 2.259-17.964-2.139.27-2.259.45 2.226-.228-1.134.258 1.134-.03.015-.228-1.134.258 1.134s-.105.033-.258.093c-.222.09-.537.252-.699.435-.18.177-.258.297-.303.627v.015s-.132 1.227-.387 3.393a7143.118 7143.118 0 0 0-4.158 37.107l-4.533-.492a9411.374 9411.374 0 0 1 4.548-40.533l2.259.252-2.274-.237a5.587 5.587 0 0 1 1.017-2.679c.78-1.059 1.719-1.629 2.454-1.974.732-.342 1.287-.447 1.404-.477.225-.045.48-.06.717-.03l18.114 2.229a6.194 6.194 0 0 1 1.929.627c.897.465 1.662 1.242 2.067 2.127.432.864.567 1.776.567 2.631 0 .285-.015.582-.045.867l-2.649 27.267-2.274-.225-1.974-1.152s2.901-4.998 6.33-10.74A537.991 537.991 0 0 1 220.968 15c1.677-2.718 3.186-5.097 4.278-6.651 1.167-1.692 2.499-2.784 3.783-3.411a7.533 7.533 0 0 1 3.306-.795c.702 0 1.182.105 1.332.15l-.582 2.199.06-2.274c.03 0 2.436.075 5.37.282 1.464.108 3.048.243 4.56.453 1.509.192 2.901.432 4.083.777.957.27 1.779.702 2.454 1.242a6.066 6.066 0 0 1 1.989 2.781c.345.939.417 1.824.417 2.499 0 .804-.117 1.356-.132 1.479-.045.195-.108.36-.198.537-.015.045-10.347 20.553-23.823 41.565l-1.914-1.227 2.106-.882c3.933 9.438 8.346 19.836 11.775 28.209 1.716 4.188 3.198 7.866 4.245 10.692a96.39 96.39 0 0 1 1.257 3.594c.147.492.285.912.375 1.299.087.402.162.732.162 1.242l-.015.312c-.147 1.452-.612 2.694-1.302 3.651a6.647 6.647 0 0 1-3.468 2.511c-1.062.345-1.872.345-2.049.36h-.03l-.207-.015s-1.917-.192-4.506-.48c-2.586-.267-5.847-.612-8.541-.897-1.374-.147-2.466-.282-3.438-.492a9.881 9.881 0 0 1-2.034-.642c-.957-.435-1.779-1.155-2.379-1.917-.597-.777-1.044-1.584-1.599-2.571l-.15-.345-10.35-28.881 2.154-.762 2.259.237s-.135 1.272-.345 3.276c-.627 5.985-1.944 18.444-2.349 22.302-.162 1.569-.642 2.901-1.332 3.933a7.16 7.16 0 0 1-3.633 2.784c-1.134.387-2.004.402-2.259.402h-.03l-.267-.015s-2.184-.3-5.028-.66a504.12 504.12 0 0 0-8.823-1.059l.465-4.545" style="fill:#141414"/>
    <path class="B" d="m125.127 89.277.21 3.933.552 4.263s.36 4.35 5.4 4.263c5.415-.075 14.133-.915 14.133-.915s4.368-.642 4.113-5.802c-.267-5.175-.849-16.155-.849-16.155l8.388 17.694c2.436 3.114 2.901 3.489 8.304 3.204l18.933-.987s4.038-.612 3.798-5.133c-.24-4.515-4.515-86.193-4.515-86.193s-.897-4.353-4.968-4.143l-14.118.735s-3.903-.9-3.858 3.963c.045 4.845 1.002 19.05 1.002 19.05l-9.198-18.618c-2.559-4.068-4.593-3.513-8.661-3.306l-20.298 1.062s-2.661.75-2.526 3.336l.345 6.384" style="fill:#fff"/>
    <path class="C" d="m127.398 89.157.213 3.933-2.274.12 2.259-.282.552 4.263.015.087-1.002.09 1.002-.12v.03l-1.002.09 1.002-.12c-.015.015.12.717.495 1.212.192.255.417.477.777.66.357.177.885.342 1.719.342h.09c2.619-.045 6.132-.27 8.958-.48 1.422-.105 2.664-.207 3.564-.297a48.206 48.206 0 0 0 1.431-.138l.213 2.274-.33-2.256.147 1.017-.177-1.017h.042l.15 1.017-.177-1.017c.015 0 .687-.15 1.197-.57.252-.207.477-.462.672-.834.18-.375.33-.885.33-1.692l-.015-.33c-.135-2.586-.345-6.612-.525-10.008-.18-3.393-.315-6.129-.315-6.129a2.273 2.273 0 0 1 1.719-2.334 2.268 2.268 0 0 1 2.619 1.224l8.394 17.694-2.052.972 1.779-1.404c.51.645.9 1.122 1.212 1.467.48.51.675.612.96.732.297.105.879.207 1.989.207.597 0 1.344-.027 2.226-.072 2.709-.15 7.449-.39 11.502-.6 4.056-.207 7.434-.387 7.434-.387l.12 2.274-.345-2.259.165 1.044-.195-1.029.03-.015.165 1.044-.195-1.029s.627-.15 1.065-.495a2.16 2.16 0 0 0 .567-.672c.15-.3.267-.69.282-1.347v-.252l-4.515-86.196 2.274-.12-2.229.465 1.392-.285-1.377.315v-.03l1.392-.285-1.377.315-.015-.03c-.03-.138-.27-.897-.687-1.437a2.719 2.719 0 0 0-.705-.645c-.27-.147-.552-.237-1.047-.252h-.165c-4.068.207-14.118.732-14.118.732-.21.015-.42-.015-.627-.06l.237-1.047-.192 1.062h-.045l.237-1.047-.192 1.062-.243-.015-.375.03c-.147.063-.162.063-.252.165-.075.12-.285.48-.285 1.467v.06c.015 2.319.27 7.086.507 11.229.123 2.079.243 3.996.33 5.403.09 1.404.153 2.286.153 2.286a2.266 2.266 0 0 1-1.677 2.349 2.268 2.268 0 0 1-2.631-1.182l-9.216-18.621 2.052-1.017-1.929 1.212c-.795-1.272-1.392-1.794-1.827-2.034a2.633 2.633 0 0 0-.732-.255 5.384 5.384 0 0 0-1.092-.09c-.75 0-1.737.075-2.946.15-2.034.105-3.036.165-3.546.18-.252.015-.372.03-.45.03h-.06l-16.242.852-.12-2.274.615 2.199-.345-1.212.375 1.212-.045.015-.342-1.212.372 1.212-.042.015c-.138.045-.453.21-.618.387l-.177.24a.75.75 0 0 0-.06.33v.075l.327 6.387-4.545.24-.33-6.39v-.312c0-1.002.285-1.929.705-2.664a5.757 5.757 0 0 1 2.181-2.106c.675-.39 1.185-.537 1.302-.567.165-.045.33-.078.495-.078l16.242-.852 4.053-.21c1.122-.06 2.139-.147 3.186-.147.642 0 1.302.042 1.989.177a6.892 6.892 0 0 1 3.021 1.407c.927.732 1.722 1.707 2.496 2.946l.108.195 9.213 18.618-2.049 1.005-2.274.15s-.237-3.558-.48-7.719c-.255-4.173-.492-8.928-.522-11.457v-.087c0-1.092.162-2.067.492-2.919.495-1.287 1.452-2.259 2.424-2.721.972-.495 1.869-.567 2.526-.582.66 0 1.092.087 1.215.117l-.51 2.214-.12-2.274s2.514-.132 5.535-.3c3.021-.147 6.552-.342 8.571-.447l.402-.015c1.359 0 2.601.39 3.561 1.005 1.434.909 2.229 2.151 2.706 3.123.465.972.627 1.722.657 1.842l.045.339s1.077 20.418 2.169 41.418c1.107 20.985 2.229 42.534 2.349 44.796 0 .165.015.33.015.492 0 1.392-.33 2.619-.882 3.621-.837 1.494-2.067 2.334-3.006 2.793-.972.465-1.707.588-1.854.603l-.228.03s-13.533.699-18.948.987c-.927.042-1.734.072-2.466.072-.897 0-1.677-.045-2.454-.192a6.35 6.35 0 0 1-3.066-1.467c-.84-.717-1.452-1.527-2.232-2.496a2.848 2.848 0 0 1-.267-.438l-8.391-17.691 2.067-.972 2.271-.12s.585 10.977.852 16.137c.015.195.015.375.015.57 0 1.509-.342 2.841-.912 3.918-.852 1.617-2.169 2.544-3.171 3.036-1.032.495-1.824.615-1.989.642l-.105.015c-.045 0-8.748.84-14.328.93h-.165c-1.554 0-2.916-.36-3.993-.957-1.644-.9-2.541-2.277-2.991-3.351-.462-1.077-.54-1.899-.555-2.064l2.274-.195-2.259.285-.552-4.263v-.165l-.21-3.936 4.545-.267" style="fill:#141414"/>
    <path class="B" d="m475.68 86.913.27 5.28.54 4.263s.357 4.353 5.397 4.278c5.415-.075 14.148-.912 14.148-.912s4.368-.642 4.101-5.805l-.855-16.14 8.394 17.697c2.451 3.111 2.901 3.483 8.298 3.216 5.415-.285 18.936-.987 18.936-.987s3.798-.612 3.798-5.133c0-4.605-4.5-86.193-4.5-86.193s-.915-4.35-4.965-4.143c-4.071.207-14.106.732-14.106.732s-3.903-.897-3.858 3.966c.042 4.845 1.002 19.05 1.002 19.05l-9.213-18.618c-2.559-4.083-4.59-3.516-8.661-3.306l-20.28 1.032s-2.664.747-2.529 3.336l.6 11.427" style="fill:#fff"/>
    <path class="C" d="m477.954 86.793.267 5.28-2.271.12 2.256-.282.54 4.26.015.105-1.002.075 1.002-.12v.045l-1.002.075 1.002-.12c-.015.015.12.717.492 1.212.198.255.42.477.78.66.36.177.882.342 1.722.342h.087c2.616-.03 6.135-.267 8.961-.48 1.422-.102 2.661-.207 3.558-.297.897-.078 1.437-.135 1.437-.135l.222 2.274-.327-2.262.15 1.02-.195-1.005.03-.015.15 1.02-.195-1.005s.687-.162 1.197-.567c.255-.207.477-.462.672-.837.195-.372.345-.882.345-1.689v-.33c-.135-2.586-.345-6.609-.525-10.008-.177-3.393-.33-6.129-.33-6.129a2.272 2.272 0 0 1 1.722-2.334 2.276 2.276 0 0 1 2.616 1.239l8.376 17.694-2.061.975 1.791-1.407c.495.645.897 1.122 1.215 1.464.477.51.669.615.957.735.297.12.882.222 1.989.222.597 0 1.344-.03 2.244-.072 2.703-.135 7.431-.39 11.499-.6 4.053-.207 7.434-.387 7.434-.387l.12 2.274-.36-2.244.18 1.137-.21-1.122h.03l.18 1.137-.21-1.125.09-.027c.225-.06.732-.27 1.092-.642.18-.198.36-.42.495-.765.132-.342.237-.792.237-1.467 0-.207-.015-.804-.045-1.629-.237-6.339-1.362-27.474-2.424-46.992a9476.352 9476.352 0 0 0-1.419-26.04c-.195-3.471-.342-6.312-.447-8.304-.12-1.989-.18-3.093-.18-3.093l2.274-.135-2.244.465 1.389-.285-1.374.3-.015-.015 1.389-.285-1.374.3-.015-.015c-.03-.138-.273-.897-.687-1.437a2.44 2.44 0 0 0-.705-.645c-.267-.147-.552-.237-1.047-.252h-.162c-4.056.207-14.121.747-14.121.747-.21.015-.42-.015-.627-.06l.237-1.047-.195 1.047h-.042l.237-1.047-.195 1.047-.222-.015-.345.045c-.147.06-.162.06-.255.165-.075.105-.282.48-.282 1.467v.06c.015 2.316.267 7.089.507 11.229.12 2.067.237 3.996.327 5.4.093 1.407.153 2.289.153 2.289a2.274 2.274 0 0 1-1.677 2.349 2.277 2.277 0 0 1-2.631-1.197l-9.213-18.621 2.049-1.002-1.929 1.209c-.795-1.269-1.392-1.791-1.827-2.031a2.497 2.497 0 0 0-.717-.255 5.425 5.425 0 0 0-1.092-.09c-.747 0-1.734.078-2.946.15-2.034.105-3.051.165-3.543.18a6.89 6.89 0 0 1-.45.015h-.045l-16.242.852-.12-2.274.612 2.199-.345-1.227.375 1.212-.03.015-.345-1.227.375 1.212-.045.015c-.132.045-.45.21-.627.39l-.18.237a.75.75 0 0 0-.06.33v.06l.597 11.409-4.545.243-.597-11.427v-.315a5.24 5.24 0 0 1 .699-2.661c.645-1.092 1.512-1.722 2.187-2.109.672-.39 1.179-.525 1.314-.57.165-.045.33-.075.495-.075l20.295-1.062c1.122-.06 2.139-.147 3.186-.147.645 0 1.317.045 1.989.177a7.064 7.064 0 0 1 3.021 1.407c.93.735 1.719 1.707 2.499 2.946l.117.195 9.213 18.618-2.046 1.002-2.277.153s-.237-3.561-.477-7.716c-.252-4.176-.495-8.931-.507-11.46v.015-.102c0-1.095.165-2.067.492-2.916.492-1.287 1.452-2.259 2.424-2.739.972-.495 1.869-.582 2.529-.582.642 0 1.092.087 1.194.117l-.507 2.229-.135-2.316c.015 0 2.514-.135 5.532-.285 3.024-.15 6.552-.342 8.586-.45l.405-.015c1.377 0 2.604.39 3.558 1.002 1.455.912 2.229 2.154 2.709 3.126.462.972.627 1.719.657 1.842l.048.342s1.119 20.4 2.256 41.373c.567 10.482 1.122 21.114 1.557 29.418.207 4.143.387 7.716.522 10.395.06 1.329.105 2.454.135 3.318.03.867.045 1.452.045 1.809 0 1.452-.315 2.724-.84 3.756a6.828 6.828 0 0 1-2.988 2.976c-.972.507-1.719.63-1.887.66l-.237.03s-13.536.702-18.936.987c-.942.045-1.749.09-2.484.09-.897 0-1.689-.045-2.451-.198a6.592 6.592 0 0 1-3.066-1.461c-.822-.72-1.449-1.53-2.214-2.502a2.48 2.48 0 0 1-.27-.432l-8.391-17.694 2.049-.975 2.274-.117s.567 10.977.855 16.14c0 .192.015.372.015.567 0 1.509-.33 2.841-.915 3.918-.852 1.617-2.154 2.541-3.171 3.036-1.032.507-1.824.63-1.974.645l-.105.015c-.03 0-8.733.837-14.328.927h-.162c-1.557 0-2.919-.345-3.996-.957a6.814 6.814 0 0 1-2.991-3.351c-.45-1.08-.54-1.899-.552-2.064l2.274-.195-2.262.3-.552-4.263-.015-.183-.27-5.277 4.518-.225" style="fill:#141414"/>
    <path class="B" d="M363.282 6.687s-2.679.927-2.589 3.513l2.994 85.941s.894 6.192 6.312 6.012c5.412-.192 13.533-.462 13.533-.462s4.383-.552 4.203-5.73l-.897-25.695 14.256 27.177c2.388 3.156 2.841 3.543 8.241 3.351 5.427-.18 13.116-.45 13.116-.45s4.038-.552 3.888-5.07c-.075-2.154-13.086-23.541-23.631-41.352 9.645-22.767 18.171-43.917 18.171-43.917s-.24-5.307-4.308-5.175c-4.053.153-13.503.48-13.503.48s-3.276-.387-5.478 3.933c-3.246 6.447-11.964 27.819-11.964 27.819L384.459 9.69c-1.332-2.571-.714-3.588-4.593-3.588l-16.584.585" style="fill:#fff"/>
    <path class="C" d="m363.282 6.687.747 2.154-.39-1.11.42 1.11-.03.015-.39-1.11.42 1.11-.06.03c-.15.06-.51.267-.717.492l-.24.327a.944.944 0 0 0-.075.405v.045l2.991 85.941-2.271.075 2.241-.327-.987.132.987-.147v.015l-.987.132.987-.147c0 .015.225 1.269.867 2.304.315.522.705.972 1.152 1.269.45.3.975.492 1.809.507h.15c5.415-.192 13.551-.462 13.551-.462l.075 2.274-.285-2.259.138 1.017-.168-.999.045-.018.138 1.017-.168-.999c.015 0 .72-.153 1.227-.573a2.31 2.31 0 0 0 .687-.849c.198-.39.345-.912.36-1.767v-.225c-.09-2.586-.315-9.006-.522-14.79-.195-5.775-.375-10.905-.375-10.905a2.302 2.302 0 0 1 1.692-2.289 2.265 2.265 0 0 1 2.601 1.152l14.253 27.162-2.016 1.062 1.806-1.377c.507.675.912 1.182 1.227 1.524.24.258.405.42.555.513.207.147.357.222.762.312.39.09 1.047.15 2.004.135.51 0 1.122-.018 1.812-.045 2.703-.09 5.979-.21 8.583-.3 2.601-.087 4.518-.147 4.533-.147l.072 2.271-.297-2.256.15 1.032-.18-1.032h.03l.15 1.032-.18-1.032c0 .015.642-.138 1.092-.498.237-.177.42-.384.582-.672.15-.297.285-.699.285-1.389v-.18l1.077-.045-1.047.27s-.015-.03-.03-.24l1.077-.045-1.047.27c0-.015-.075-.225-.195-.495-.45-1.062-1.554-3.198-3.066-5.907-4.563-8.181-12.891-21.987-20.085-34.116a2.252 2.252 0 0 1-.135-2.049 3062.087 3062.087 0 0 0 12.696-30.468c1.677-4.068 3.036-7.416 3.996-9.75.939-2.334 1.482-3.651 1.482-3.651l2.106.855-2.259.102 1.047-.045-1.047.06v-.015l1.047-.045-1.047.06c0-.015-.09-1.089-.465-1.899-.177-.402-.402-.717-.597-.867-.207-.15-.36-.24-.807-.255h-.075c-4.068.15-13.506.465-13.506.465l-.345-.015.153-1.272-.078 1.272h-.06l.153-1.272-.078 1.272v-.075.075-.075.075h-.015c-.105 0-.567.015-1.137.33-.567.312-1.332.909-2.076 2.376-.78 1.542-1.929 4.068-3.189 6.957-1.899 4.335-4.08 9.528-5.787 13.608-.837 2.052-1.569 3.813-2.094 5.088a140.256 140.256 0 0 1-.822 2.001 2.296 2.296 0 0 1-2.496 1.392 2.264 2.264 0 0 1-1.887-2.136l-1.164-27.372 2.271-.105-2.019 1.044c-.39-.759-.642-1.404-.807-1.821-.135-.315-.225-.48-.24-.51l.342-.27-.237.375-.105-.105.342-.27-.237.375.177-.255-.147.285-.045-.015.18-.255-.15.285c-.06-.045-.597-.165-1.659-.15V6.102l.09 2.274-16.62.585-.177-2.274.747 2.154-.747-2.154-.075-2.274 16.617-.585h.072c1.08 0 1.914.06 2.754.27.612.165 1.257.45 1.767.885.387.312.684.702.882 1.047.312.522.492.957.657 1.374.162.405.33.792.567 1.242.15.3.225.612.255.942l1.167 27.369-2.274.09-2.109-.849c0-.015 2.184-5.355 4.773-11.517a733.707 733.707 0 0 1 3.975-9.291c1.29-2.931 2.439-5.487 3.291-7.179 1.107-2.196 2.592-3.588 3.993-4.338 1.392-.747 2.634-.867 3.291-.867.24 0 .405.015.48.03l-.267 2.259-.075-2.274s2.364-.075 5.22-.18c2.868-.102 6.237-.222 8.286-.285h.237c1.479-.015 2.841.54 3.768 1.347 1.407 1.212 1.974 2.724 2.304 3.858.312 1.155.342 2.022.36 2.142.03.327-.048.642-.165.957 0 .015-8.538 21.162-18.204 43.941l-2.091-.879 1.959-1.17c5.265 8.901 11.157 18.696 15.75 26.562 2.289 3.936 4.263 7.377 5.682 10.008.702 1.317 1.284 2.421 1.704 3.318.21.45.375.855.525 1.23.06.192.135.372.18.567.045.207.105.42.105.75l.015.327c0 1.419-.33 2.679-.9 3.678-.852 1.512-2.106 2.364-3.078 2.814-.987.462-1.737.567-1.887.582l-.225.015s-7.686.27-13.101.45c-.735.03-1.377.045-1.974.045-.987 0-1.824-.045-2.634-.18-1.209-.18-2.379-.72-3.243-1.479-.867-.765-1.512-1.605-2.289-2.634l-.192-.315-14.301-27.177 2.019-1.062 2.289-.075s.717 20.52.882 25.698l.015.387c0 1.542-.345 2.904-.927 3.978-.867 1.644-2.199 2.571-3.246 3.066-1.047.492-1.854.615-2.034.63l-.195.015s-2.034.075-4.743.162c-2.703.09-6.084.213-8.793.315h-.315a7.719 7.719 0 0 1-4.44-1.344c-1.752-1.23-2.661-2.904-3.189-4.191-.522-1.302-.672-2.319-.684-2.421l-.015-.252-3.006-85.941v-.213c0-1.017.282-1.959.702-2.691.63-1.107 1.479-1.779 2.124-2.214.672-.417 1.182-.612 1.284-.645.225-.075.435-.117.675-.132l.045 2.304" style="fill:#141414"/>
    <path class="B" d="M426.099 94.152c-2.331-5.31-23.361-40.383-23.361-40.383l15.942-37.944c6.867-7.092 15.705-11.355 25.323-11.355 12.246 0 37.854 10.875 40.008 49.209 1.809 32.112-17.889 49.776-39.618 49.209-7.062-.195-13.044-2.424-18.339-6.177.03 0 .837-.795.045-2.559m17.844-72.495-8.781 21.477-17.544-.612 12.624 15.165-5.547 21.717 19.248-11.247 20.775 13.089-7.389-22.944 13.236-14.853-18.471-.315-8.151-21.477Z" style="fill:#fff"/>
    <path class="C" d="m426.099 94.152-2.079.912c-.24-.522-.807-1.644-1.599-3.096-2.754-5.07-8.181-14.358-12.894-22.344a2758.43 2758.43 0 0 0-6.147-10.35c-1.599-2.679-2.586-4.356-2.601-4.356a2.244 2.244 0 0 1-.15-2.046l15.957-37.959c.105-.27.27-.495.465-.702 7.224-7.467 16.644-12.057 26.967-12.057 3.393 0 7.539.747 11.949 2.454 6.612 2.571 13.791 7.371 19.536 15.282 5.739 7.914 9.987 18.894 10.812 33.642.075 1.419.117 2.808.117 4.17.015 15.003-4.752 26.907-12.321 35.028-7.554 8.136-17.877 12.414-28.674 12.414-.372 0-.732 0-1.089-.015-7.509-.192-14.004-2.616-19.593-6.582a2.277 2.277 0 0 1-.96-1.686 2.278 2.278 0 0 1 .672-1.812l.915.942-1.182-.582c.045-.09.12-.207.267-.36l.915.942-1.182-.582.525.252-.57-.132.045-.12.525.252-.57-.132.27.057-.27-.027v-.03l.27.057-.27-.027.06.015-.06-.015.06.015-.06-.015c0-.03 0-.18-.15-.525l2.094-.882 2.079-.912c.36.822.537 1.632.537 2.346 0 .75-.177 1.392-.417 1.857-.225.462-.495.762-.627.912l-1.587-1.629 1.329-1.854c4.968 3.513 10.47 5.562 17.067 5.757.327 0 .642.015.972.015 9.603 0 18.639-3.768 25.338-10.965 6.687-7.194 11.097-17.871 11.097-31.932 0-1.284-.045-2.586-.102-3.918-1.065-18.681-7.749-30.318-15.498-37.437-3.873-3.543-8.046-5.967-11.964-7.491-3.906-1.527-7.569-2.142-10.29-2.142-8.946 0-17.172 3.948-23.691 10.668l-1.647-1.587 2.112.882-15.963 37.944-2.091-.882 1.944-1.179s5.265 8.778 10.815 18.216c2.778 4.728 5.622 9.603 7.938 13.653a230.688 230.688 0 0 1 2.976 5.325c.81 1.497 1.407 2.634 1.767 3.441l-2.094.912m17.844-72.495 2.109.867-8.781 21.465a2.279 2.279 0 0 1-2.184 1.419l-17.544-.612.09-2.274 1.752-1.464 12.621 15.165c.465.555.642 1.317.45 2.019l-5.55 21.717-2.196-.57-1.155-1.959 19.263-11.262a2.246 2.246 0 0 1 2.364.045l20.778 13.086-1.212 1.929-2.169.705-7.389-22.929a2.246 2.246 0 0 1 .462-2.211l13.239-14.853 1.704 1.524-.045 2.274-18.471-.315a2.284 2.284 0 0 1-2.094-1.464l-8.166-21.495 2.124-.807 2.109.867-2.109-.867 2.121-.807 8.169 21.477-2.124.807.03-2.274 18.486.3c.882.015 1.674.555 2.049 1.362a2.316 2.316 0 0 1-.387 2.439l-13.254 14.853-1.689-1.527 2.166-.705 7.392 22.944a2.278 2.278 0 0 1-.765 2.499 2.296 2.296 0 0 1-2.616.132l-20.775-13.086 1.212-1.929 1.149 1.959-19.263 11.25a2.23 2.23 0 0 1-2.511-.153 2.281 2.281 0 0 1-.84-2.376l5.55-21.732 2.214.567-1.749 1.452-12.624-15.165a2.294 2.294 0 0 1-.3-2.454 2.286 2.286 0 0 1 2.124-1.272l17.559.612-.072 2.277-2.112-.87 8.781-21.477a2.294 2.294 0 0 1 2.139-1.422c.927.015 1.764.6 2.091 1.482l-2.151.837" style="fill:#141414"/>
    <path class="B" d="m2.274 12.237 5.355 82.995s.237 6.519 7.626 6.504c7.254-.015 23.991-.597 23.991-.597s12.999 1.164 23.406-18.309c5.505-10.305 5.373-10.455 6.387-27.669C70.386 32.607 52.482 3.696 32.187 4.413L8.793 5.25s-5.772-.39-6.519 6.987m29.733 22.371c6.147-.207 9.825 8.661 10.41 15.663 1.062 12.906.072 11.082-.987 16.062-1.062 4.968-6.207 7.611-6.207 7.611l-6.777.243-1.974-39.381 5.535-.198Z" style="fill:#fff"/>
    <path class="C" d="m2.274 12.237 2.271-.153 5.358 82.995v.075l-1.257.048 1.257-.078v.015l-1.257.048 1.257-.078.015.195c.06.48.327 1.614 1.032 2.469.36.432.789.822 1.449 1.119.657.3 1.554.54 2.829.54h.015c3.573 0 9.57-.15 14.655-.297 2.544-.078 4.86-.153 6.537-.213 1.689-.06 2.724-.087 2.724-.087h.282l-.09.972.06-.972h.015l-.09.972.06-.972h.237c.867 0 3.861-.165 7.764-2.349 3.891-2.184 8.721-6.402 13.206-14.763 1.377-2.571 2.379-4.488 3.114-6.117 1.089-2.454 1.614-4.248 2.004-7.179.402-2.931.612-6.984.999-13.446.045-.747.075-1.527.075-2.289.015-10.35-4.065-22.089-10.455-31.05-3.183-4.485-6.924-8.271-10.929-10.905-4.011-2.631-8.244-4.095-12.552-4.095-.21 0-.432 0-.642.015l-23.334.867h-.222l.072-1.107-.045 1.107h-.027l.072-1.107-.045 1.107h-.027c-.195 0-1.185.06-2.019.627-.435.285-.84.672-1.23 1.332-.369.657-.714 1.584-.852 2.991l-2.286-.237 2.271-.153-2.271.153L0 11.994c.192-1.929.702-3.528 1.452-4.815A8.38 8.38 0 0 1 5.58 3.576a8.292 8.292 0 0 1 3.081-.615c.147 0 .237 0 .3.015L8.808 5.25l-.075-2.274 23.394-.837c.27 0 .552-.012.81-.012 5.352 0 10.467 1.836 15.045 4.86 6.879 4.53 12.681 11.679 16.824 19.83 4.131 8.151 6.612 17.289 6.612 25.935a36.3 36.3 0 0 1-.075 2.556c-.522 8.601-.717 12.984-1.572 16.797-.417 1.899-1.017 3.606-1.836 5.433-.825 1.836-1.869 3.813-3.246 6.384-4.818 9.021-10.308 13.968-15.003 16.584-4.695 2.634-8.526 2.937-9.975 2.937-.345 0-.567-.03-.63-.03l.195-2.262.09 2.277c-.015 0-16.737.597-24.081.612h-.03c-2.169 0-3.993-.495-5.43-1.332a8.238 8.238 0 0 1-2.526-2.229 9.773 9.773 0 0 1-1.644-3.426c-.243-.957-.27-1.614-.285-1.734l2.274-.072-2.274.147L0 12.384v-.39l2.274.243m29.733 22.371-.075-2.271.3-.015c2.061 0 3.948.777 5.457 1.959 2.259 1.779 3.816 4.353 4.953 7.137 1.134 2.793 1.809 5.832 2.049 8.655.33 3.951.462 6.567.462 8.481a24.25 24.25 0 0 1-.132 2.739c-.135 1.152-.39 2.034-.612 2.811-.243.777-.483 1.497-.735 2.691a11.85 11.85 0 0 1-1.752 4.071c-1.149 1.704-2.526 2.946-3.618 3.783-1.104.837-1.929 1.254-2.019 1.299-.3.153-.63.243-.957.258l-6.777.237a2.275 2.275 0 0 1-2.346-2.169l-1.992-39.363a2.27 2.27 0 0 1 .6-1.662 2.27 2.27 0 0 1 1.599-.732l5.535-.195.06 2.286.09 2.277-5.55.192-.075-2.271 2.274-.123 1.989 39.366-2.274.108-.075-2.274 6.777-.243.078 2.277-1.05-2.019.345.657-.345-.657.345.657-.345-.657a12.46 12.46 0 0 0 2.334-1.707c1.182-1.092 2.319-2.586 2.676-4.353.402-1.869.807-2.931 1.032-3.735.105-.42.195-.795.255-1.332.057-.54.105-1.245.105-2.202 0-1.701-.135-4.218-.447-8.106-.258-3.138-1.26-6.819-2.769-9.498-.75-1.329-1.632-2.406-2.496-3.081-.9-.672-1.707-.987-2.664-.987h-.135l-.075-2.289" style="fill:#141414"/>
    <path class="B" d="M63.534 80.976c6.732 11.769 17.634 21.477 32.187 21.849 21.735.588 41.448-17.091 39.636-49.206-2.151-38.349-27.759-49.206-40.023-49.206-13.968 0-26.235 8.958-33.294 22.509 0 0 7.329 12.909 6.684 27.222-.642 14.313.87 9.825-1.929 19.008-2.766 9.201-3.261 7.824-3.261 7.824m39.891-37.899 18.471.315-13.236 14.85 7.389 22.941-20.793-13.086-19.248 11.262 5.55-21.732-11.802-15.165 16.737.615 8.781-21.48 8.151 21.48Z" style="fill:#fff"/>
    <path class="C" d="m63.534 80.976 1.974-1.137c3.231 5.652 7.449 10.785 12.522 14.493 5.07 3.711 10.962 6.042 17.736 6.222.33 0 .645.015.975.015 9.603-.015 18.633-3.768 25.335-10.962 6.684-7.194 11.1-17.874 11.1-31.935a57.92 57.92 0 0 0-.123-3.918c-1.062-18.681-7.746-30.315-15.48-37.437-3.888-3.558-8.061-5.967-11.964-7.494-3.903-1.524-7.554-2.136-10.29-2.136-6.492 0-12.579 2.076-17.934 5.772s-9.96 9.033-13.326 15.51l-2.019-1.047 1.989-1.122c.045.075 1.779 3.141 3.531 7.974 1.734 4.815 3.483 11.409 3.483 18.573 0 .63-.015 1.257-.045 1.902-.132 3.231-.177 5.472-.177 7.149 0 1.539.03 2.571.03 3.483a14.755 14.755 0 0 1-.36 3.546c-.285 1.284-.735 2.814-1.509 5.4-1.095 3.603-1.842 5.64-2.409 6.894-.3.63-.522 1.08-.837 1.479-.15.213-.33.42-.645.645a2.38 2.38 0 0 1-1.464.495c-.39 0-.81-.105-1.125-.285a2.203 2.203 0 0 1-.867-.795c-.15-.222-.207-.402-.252-.507a2.257 2.257 0 0 1 1.194-2.826 2.28 2.28 0 0 1 2.931.942l-1.974 1.107 2.142-.765-2.034.72 1.644-1.407c.267.315.345.525.405.687l-2.034.72 1.644-1.407-1.644 1.422 1.032-1.914c.282.147.477.342.612.492l-1.644 1.422 1.032-1.914-1.032 1.929v-2.184c.357 0 .747.102 1.032.255l-1.032 1.929v-2.184 2.061l-1.242-1.671a2.06 2.06 0 0 1 1.242-.39v2.061l-1.242-1.671.867 1.167-1.14-.912c.03-.033.108-.123.288-.255l.867 1.167-1.14-.912.228.177-.243-.162.015-.015.228.177-.243-.162c.03-.048.33-.573.75-1.662.42-1.107 1.002-2.784 1.767-5.295.774-2.571 1.209-4.053 1.434-5.04.21-1.002.24-1.509.255-2.589 0-.807-.03-1.884-.03-3.483 0-1.722.03-4.053.18-7.344.03-.57.03-1.122.03-1.692 0-6.414-1.602-12.546-3.231-17.034a56.626 56.626 0 0 0-2.229-5.352c-.297-.63-.555-1.125-.717-1.452-.09-.165-.153-.285-.195-.36l-.045-.075-.015-.015a2.28 2.28 0 0 1-.03-2.169c3.681-7.074 8.748-12.981 14.793-17.157 6.024-4.17 13.056-6.579 20.52-6.579 3.396 0 7.536.732 11.952 2.454 6.606 2.571 13.803 7.374 19.53 15.267 5.745 7.914 9.978 18.894 10.815 33.642.09 1.416.12 2.808.12 4.17 0 15.003-4.758 26.907-12.327 35.028-7.551 8.121-17.871 12.414-28.668 12.414-.36 0-.735 0-1.095-.015-7.761-.192-14.61-2.916-20.31-7.104-5.7-4.17-10.29-9.795-13.791-15.897l1.929-1.122 2.142-.765-2.142.765m39.891-37.899.027-2.274 18.474.315a2.276 2.276 0 0 1 1.659 3.798l-13.236 14.853-1.704-1.527 2.169-.702 7.386 22.944a2.268 2.268 0 0 1-.759 2.496 2.308 2.308 0 0 1-2.619.135l-20.79-13.089 1.212-1.929 1.152 1.959-19.263 11.265a2.266 2.266 0 0 1-2.517-.153 2.283 2.283 0 0 1-.834-2.376l5.547-21.732 2.214.567-1.794 1.407-11.814-15.165a2.285 2.285 0 0 1 1.881-3.681l16.737.615-.09 2.274-2.106-.855 8.778-21.477c.345-.87 1.194-1.422 2.139-1.422.942.015 1.764.6 2.094 1.467l8.166 21.477-2.109.81.027-2.274-.027 2.274-2.124.807-8.166-21.477 2.121-.81 2.112.867-8.781 21.48a2.26 2.26 0 0 1-2.196 1.407l-16.737-.615.087-2.274 1.797-1.404 11.817 15.165c.429.555.582 1.272.402 1.959l-5.562 21.732-2.202-.57-1.149-1.974 19.248-11.262a2.285 2.285 0 0 1 2.364.045l20.802 13.101-1.209 1.929-2.169.705-7.404-22.944a2.336 2.336 0 0 1 .465-2.214l13.233-14.853 1.722 1.515-.045 2.271-18.471-.312a2.277 2.277 0 0 1-2.094-1.467l2.139-.807" style="fill:#141414"/>
</svg>
