<svg viewBox="0 0 633 110" xmlns="http://www.w3.org/2000/svg" xml:space="preserve" style="fill-rule:evenodd;clip-rule:evenodd;stroke-linejoin:round;stroke-miterlimit:2">
    <clipPath id="a">
        <path d="M.269.838h632v108.516h-632z"/>
    </clipPath>
    <g clip-path="url(#a)">
        <path d="M140.902 23.017c0-2.749-.527-6.321-1.745-7.82 7.968 0 25.22.05 32.611.05 17.005 0 42.669 9.449 42.669 41.27 0 23.622-18.108 41.203-42.669 41.203-5.383 0-25.944-.066-33.236-.066 1.481-2.749 2.37-6.502 2.37-9.465V23.017Zm12.231 66.604c7.852 1.021 15.096 1.334 21.647.395 6.338-.905 27.656-5.498 27.524-33.796-.115-26.816-16.692-32.956-29.45-33.697-6.65-.395-13.087-.132-19.721 1.021v66.077Zm68.317-49.105 12.214-1.91v10.766c3.144-7.737 12.89-13.976 26.751-8.576l-3.243 8.51c-12.692-6.008-23.491-.741-23.491 13.351v29.055c0 1.383.296 4.181 1.135 5.959h-12.692c1.284-1.564 1.877-4.576 1.877-5.959V49.8c-.016-3.045-.642-7.77-2.551-9.284Zm386.291 5.827v37.121c0 11.655 8.034 14.767 13.993 14.767 2.518.115 6.091-.478 8.56-1.021l1.531-7.194c-2.914 1.12-6.272 1.367-8.297 1.367-3.737 0-6.436-2.486-6.436-6.355 0-3.473-.083-37.549 0-38.635h-.033c.493 0 8.23-.033 9.021 0 2.535.082 4.494.23 6.173.905l.016-6.782-15.161-.017.066-17.367-11.26 3.111c1.547 1.449 2.058 5.696 2.058 8.495 0 0-.017 5.185-.017 5.811-.51 0-6.222.033-7.161.033v5.728c.972.033 6.947.033 6.947.033ZM559.08 85.621c4.84 3.457 12.429 6.519 18.009 6.519 7.721 0 13.269-3.754 13.269-10.832 0-13.054-29.796-10.898-29.796-27.475 0-11.21 10.025-15.424 19.573-15.424 3.078 0 10.074.658 14.536 2.387l-.033 7.654c-3.951-3.374-10.009-4.214-13.976-4.214-6.322 0-11.063 3.144-11.063 9.301 0 9.021 29.763 8.494 29.763 27.03 0 11.984-10.371 17.565-21.812 17.565-5.564 0-11.375-.988-16.198-2.371l-2.272-10.14ZM379.301 46.458c0-.675.017-6.749.017-7.523l-12.363 1.91c1.482 1.547 2.634 6.436 2.634 9.926V91.3c0 1.383-.593 4.741-1.877 6.322h13.482c-1.284-1.564-1.876-4.939-1.876-6.322V60.813c0-11.145 6.914-15.079 13.778-15.079 6.223 0 11.853 2.683 11.853 15.079v30.504c0 1.382-.593 4.741-1.877 6.321h13.071c-1.284-1.564-1.877-4.939-1.877-6.321V60.813c0-12.363 7.638-15.079 13.877-15.079 6.223 0 12.725 3.902 12.725 15.079v30.504c0 1.382-.592 4.741-1.876 6.321h12.609c-1.284-1.564-1.876-4.939-1.876-6.321V55.018c0-6.189-6.322-16.099-21.055-16.099-8.576 0-13.531 3.819-17.285 7.095-3.193-3.737-8.395-7.227-16.758-7.227-8.165 0-12.988 4.774-15.326 7.671Zm-29.17 19.03c-1.761 1.663-5.465 2.963-9.284 3.457-10.026 1.317-18.717 2.98-18.717 12.742 0 5.794 6.321 10.354 11.325 10.354 13.252 0 16.676-9.564 16.676-17.104v-9.449Zm-31.31-23.902c5.054-2.025 13.219-2.963 18.338-2.963 13.071 0 21.763 6.518 21.763 21.696v25.137c0 4.659.066 9.071 1.728 12.166h-10.502l-.379-6.618c-3.967 5.136-8.741 7.441-16.791 7.441-15.919 0-19.392-10.882-19.392-16.1 0-18.651 17.762-18.882 25.466-19.968 4.264-.609 9.746-1.811 10.585-5.811 1.367-6.601-3.358-11.573-13.021-11.573-7.095 0-12.906 2.157-17.762 5.071v-8.478h-.033Zm225.806 23.902c-1.762 1.663-5.465 2.963-9.285 3.457-10.025 1.317-18.7 2.98-18.7 12.742 0 5.794 6.321 10.354 11.326 10.354 13.251 0 16.675-9.564 16.675-17.104l-.016-9.449Zm-31.294-23.902c5.054-2.025 13.235-2.963 18.338-2.963 13.055 0 21.746 6.518 21.746 21.696v25.137c0 4.659-1.02 8.972 1.729 12.166H544.66l-.395-6.618c-3.984 5.136-8.725 7.441-16.791 7.441-15.919 0-19.392-10.882-19.392-16.1 0-18.651 17.762-18.882 25.466-19.968 4.28-.609 9.762-1.811 10.585-5.811 1.366-6.601-3.358-11.573-13.021-11.573-7.095 0-12.89 2.157-17.763 5.071l-.016-8.478Zm-11.178 7.704c-3.934-2.305-10.156-4.116-14.502-4.116-15.244 0-22.224 9.367-22.224 22.866 0 13.367 6.832 23.606 21.73 23.606 5.103 0 12.066-2.305 17.449-5.614l-2.189 9.828c-5.498 1.646-10.124 2.42-16.231 2.42-20.94 0-30.751-14.848-30.751-30.306 0-17.087 13.169-29.088 30.981-29.088 7.786 0 13.466 1.91 15.77 2.568l-.033 7.836ZM267.756 68.748c.017-1.416.198-2.75.363-4.05h40.512c0-13.927-6.963-25.861-23.474-25.861-17.137 0-27.294 13.399-27.294 30.487 0 15.441 11.326 29.252 30.701 29.252 6.14 0 11.26-1.498 16.791-3.44l1.943-9.877c-4.725 3.901-12.38 6.206-19.277 6.206-12.412-.05-20.33-9.021-20.265-22.717Zm1.63-10.24c1.317-6.782 7.589-13.679 15.096-13.679 11.473 0 14.782 8.955 14.782 13.679-.016 0-29.878.017-29.878 0Z" style="fill:#fff;fill-rule:nonzero"/>
        <path d="M74.808 2.341c4.544.675 9.186 2.272 11.606 3.012 4.889 1.482 12.79 6.124 15.589 8.346 1.317 1.054 4.099 3.803 5.185 5.186 1.054 1.35 3.062 4.28 4.33 6.058 2.041 2.979 4.428 7.408 6.469 11.474 2.272 4.543 2.437 5.877 3.112 9.679l1.498 6.7c.131 1.169.247 5.4-2.256 6.009-2.502.592-4.806-.56-5.893-2.223-1.498-2.337-1.3-5.646-3.012-9.432-1.334-3.062-1.91-7.507-4.017-10.717l-1.663-2.798c-2.946-4.527-6.008-8.132-7.836-10.47-1.629-1.975-4.625-4.642-7.473-6.552-2.634-1.613-6.914-3.424-9.992-4.362-.988-.329-5.169-1.548-7.787-1.893-3.556-.395-5.86-.972-9.218-1.202-4.149-.28-6.157-.658-11.524-.033-2.041.56-5.267.774-8.181 1.893a72.511 72.511 0 0 0-8.824 4.395c-3.44 1.894-8.675 5.746-12.148 9.054-3.49 3.737-5.235 5.746-7.655 10.47-1.087 2.321-3.144 5.926-3.968 8.494-.576 2.601-1.662 7.441-1.465 9.795.083 4.214-.279 5.087.033 8.527.017 3.112 1.037 5.252 1.449 7.787.362 1.761 2.041 7.803 3.078 9.218 4.725 10.19 11.063 14.602 18.141 17.779 1.992 1.021 8.231 2.683 10.042 3.161 3.078.559 7.128.922 11.013 1.004 4.099.082 9.745-.478 13.186-1.745 3.72-1.366 8.017-3.309 7.951-3.243 1.728-.938 4.362-2.502 5.169-3.177 1.58-1.021 2.535-1.399 3.457-2.387 1.349-1.185 2.173-1.86 3.193-3.325a82.487 82.487 0 0 1 2.354-3.21c.939-1.548 1.482-3.194 2.42-5.219 1.12-3.012.922-2.848 1.152-6.025.198-.922-.016-4.016-.181-4.56-.51-2.864-.329-5.383-.987-8.181-.873-3.77-1.63-6.568-2.749-10.19-1.07-4.05-4.198-7.819-6.519-10.503-1.449-1.679-5.943-5.613-12.198-8.066-1.762-.593-4.626-1.267-6.453-1.58-3.902-.412-4.544-.148-8.281.131-1.284.214-4.28.824-5.366 1.219-3.21 1.135-4.396 1.843-7.671 3.852-1.515.872-2.684 1.564-4.248 3.029-1.251 1.152-2.123 3.111-3.144 4.263-1.383 1.877-2.93 4.396-3.951 7.095-1.119 2.684-1.481 6.486-1.3 8.923 0 1.86.51 5.251.708 5.992.197.74.708 3.062.806 3.506.116.461 1.317 2.914 1.482 3.259.675 1.433 1.975 3.507 4.148 5.63 1.63 1.762 4.725 3.49 7.062 4.149 2.091 1.152 5.63 1.35 7.573 1.35.971-.066 3.407-.198 4.691-.511 2.601-.625 3.079-.642 5.762-1.811 2.403-1.119 4.033-1.514 5.712-2.749 0 0 2.305-1.794 3.342-3.127.56-.692 1.498-4.001 1.333-6.058-.082-2.799.346-4.396-.247-6.7-.576-2.321-1.547-4.988-2.617-6.634-1.086-1.679-3.375-3.293-6.008-4.593-1.466-.725-4.972-1.399-6.437-1.564-2.799-.346-5.153.938-6.585 2.403-1.234 1.416-3.687 4.363-2.699 7.392.872 2.749 1.942 5.679 6.057 5.465 2.832.593 6.108-.247 7.194.23 1.63.906 2.223 2.947 1.663 4.363-.412 2.716-3.029 3.062-5.811 3.259-2.502.428-8.84-.806-10.223-1.843-.922-.56-2.37-1.894-3.358-2.782-.724-.659-1.531-2.091-2.091-3.128-.691-1.268-1.037-2.206-1.218-3.046-.197-.987-.642-2.864-.477-4.741.115-1.267.461-1.81.79-3.671.675-2.107 1.498-3.704 2.848-5.531 1.761-1.778 3.984-3.901 6.156-4.889 1.926-1.021 5.268-1.383 8.314-1.202 2.469.231 5.383.544 7.309 1.186 3.292 1.185 4.247 1.415 6.963 3.127 2.288 1.416 4.593 4.017 5.877 6.19 2.733 5.597 4.313 11.803 3.161 20.215-.083 1.416-.544 2.782-1.416 4.675-.807 1.729-2.255 3.836-4.395 5.4-.856.79-2.223 1.794-3.326 2.37-1.564.938-2.634 1.449-4.28 2.288-1.432.675-3.128 1.449-5.317 2.058-2.387.938-4.214.988-7.177 1.416-2.947.741-10.98.214-15.787-1.91-3.276-1.366-6.947-3.802-9.729-6.766-1.547-1.629-3.078-4.576-3.506-5.169-2.206-4.28-2.651-8.28-3.013-9.119-.494-1.153-.724-3.721-1.053-5.482-.379-1.976-.132-10.239 1.843-15.524 1.12-2.107 1.778-3.983 2.535-4.988 1.367-1.942 2.025-3.16 3.178-4.527 1.761-2.107 3.028-3.852 4.708-5.07 4.345-3.539 7.951-5.383 12.873-7.72 6.107-2.486 7.918-1.976 13.679-1.877 2.601.016 6.371.84 8.231 1.185 3.441.461 5.416 1.284 7.754 1.943 2.502.691 3.934 1.811 5.975 3.045 1.696 1.087 3.671 2.568 4.972 3.786 3.342 2.453 4.971 5.038 7.013 8.215.378.527 2.798 5.729 3.193 7.161.181.724.724 2.798 1.087 4.016.461 1.926.675 3.638 1.185 5.811.461 2.256 1.234 6.47 1.547 10.421.56 3.391-.345 10.321-.872 12.428-1.185 3.968-3.26 8.807-7.342 13.466-1.745 2.058-3.589 3.671-5.729 5.399-1.646 1.35-3.045 2.157-5.564 3.671-3.424 2.042-6.025 3.342-10.848 5.235-1.959.626-4.428 1.449-7.079 1.992-5.152.478-10.437.922-16.215.231-5.778-.692-11.556-2.321-14.98-3.359-1.893-.707-5.547-2.222-7.078-3.078-1.005-.51-4.346-2.782-4.906-3.342-2.305-1.415-7.424-6.239-10.733-10.733-.724-1.383-3.325-5.564-3.901-7.391-1.499-3.095-2.552-6.832-3.161-8.412-.642-3.737-1.745-6.14-2.173-9.861.049-.872-.165-2.963-.379-4.082.28-2.552-.098-4.972.412-7.754.444-2.354 1.037-3.325 1.185-5.465.132-.905 1.301-3.654 1.63-4.873.938-2.008 1.185-3.654 2.42-5.893 1.778-3.473 3.638-7.506 6.486-10.996.806-1.087 3.127-3.704 3.901-4.593 1.86-1.86 2.963-2.14 5.054-4.017.214-.132 1.613-1.728 3.078-2.272 2.42-1.86 4.511-2.551 6.815-4.263 4.61-2.305 6.289-3.079 10.865-4.988 2.683-.922 6.387-1.449 7.704-1.959 2.535-.148 5.087-.971 7.754-.807 2.996-.033 5.992.181 8.988.461 2.041.148 4.675.247 8.247 1.021Z" style="fill:#ea822d;fill-rule:nonzero"/>
    </g>
</svg>
