<?xml version="1.0" encoding="UTF-8" standalone="no"?>
<!DOCTYPE svg PUBLIC "-//W3C//DTD SVG 1.1//EN" "http://www.w3.org/Graphics/SVG/1.1/DTD/svg11.dtd">
<svg width="100%" height="100%" viewBox="0 0 634 110" version="1.1" xmlns="http://www.w3.org/2000/svg" xmlns:xlink="http://www.w3.org/1999/xlink" xml:space="preserve" xmlns:serif="http://www.serif.com/" style="fill-rule:evenodd;clip-rule:evenodd;stroke-linejoin:round;stroke-miterlimit:2;">
    <g transform="matrix(1,0,0,1,-2383,-698)">
        <g id="dreamcast.afdesign" transform="matrix(1,0,0,1,2700,753.333)">
            <g transform="matrix(1,0,0,1,-319.951,-60.0958)">
                <g transform="matrix(0.164618,0,0,0.164618,4.03292,5.78022)">
                    <g>
                        <g>
                            <g>
                                <path d="M854.1,134.5C854.1,117.8 850.9,96.1 843.5,87C891.9,87 996.7,87.3 1041.6,87.3C1144.9,87.3 1300.8,144.7 1300.8,338C1300.8,481.5 1190.8,588.3 1041.6,588.3C1008.9,588.3 884,587.9 839.7,587.9C848.7,571.2 854.1,548.4 854.1,530.4L854.1,134.5ZM928.4,539.1C976.1,545.3 1020.1,547.2 1059.9,541.5C1098.4,536 1227.9,508.1 1227.1,336.2C1226.4,173.3 1125.7,136 1048.2,131.5C1007.8,129.1 968.7,130.7 928.4,137.7L928.4,539.1Z" style="fill:white;fill-rule:nonzero;"/>
                                <path d="M1343.4,240.8L1417.6,229.2L1417.6,294.6C1436.7,247.6 1495.9,209.7 1580.1,242.5L1560.4,294.2C1483.3,257.7 1417.7,289.7 1417.7,375.3L1417.7,551.8C1417.7,560.2 1419.5,577.2 1424.6,588L1347.5,588C1355.3,578.5 1358.9,560.2 1358.9,551.8L1358.9,297.2C1358.8,278.7 1355,250 1343.4,240.8Z" style="fill:white;fill-rule:nonzero;"/>
                                <path d="M3690,276.2L3690,501.7C3690,572.5 3738.8,591.4 3775,591.4C3790.3,592.1 3812,588.5 3827,585.2L3836.3,541.5C3818.6,548.3 3798.2,549.8 3785.9,549.8C3763.2,549.8 3746.8,534.7 3746.8,511.2C3746.8,490.1 3746.3,283.1 3746.8,276.5L3746.6,276.5C3749.6,276.5 3796.6,276.3 3801.4,276.5C3816.8,277 3828.7,277.9 3838.9,282L3839,240.8C3839,240.8 3748.8,240.7 3746.9,240.7L3747.3,135.2L3678.9,154.1C3688.3,162.9 3691.4,188.7 3691.4,205.7C3691.4,205.7 3691.3,237.2 3691.3,241C3688.2,241 3653.5,241.2 3647.8,241.2L3647.8,276C3653.7,276.2 3690,276.2 3690,276.2Z" style="fill:white;fill-rule:nonzero;"/>
                                <path d="M3394.4,514.8C3423.8,535.8 3469.9,554.4 3503.8,554.4C3550.7,554.4 3584.4,531.6 3584.4,488.6C3584.4,409.3 3403.4,422.4 3403.4,321.7C3403.4,253.6 3464.3,228 3522.3,228C3541,228 3583.5,232 3610.6,242.5L3610.4,289C3586.4,268.5 3549.6,263.4 3525.5,263.4C3487.1,263.4 3458.3,282.5 3458.3,319.9C3458.3,374.7 3639.1,371.5 3639.1,484.1C3639.1,556.9 3576.1,590.8 3506.6,590.8C3472.8,590.8 3437.5,584.8 3408.2,576.4L3394.4,514.8Z" style="fill:white;fill-rule:nonzero;"/>
                                <path d="M2302.3,276.9C2302.3,272.8 2302.4,235.9 2302.4,231.2L2227.3,242.8C2236.3,252.2 2243.3,281.9 2243.3,303.1L2243.3,549.3C2243.3,557.7 2239.7,578.1 2231.9,587.7L2313.8,587.7C2306,578.2 2302.4,557.7 2302.4,549.3L2302.4,364.1C2302.4,296.4 2344.4,272.5 2386.1,272.5C2423.9,272.5 2458.1,288.8 2458.1,364.1L2458.1,549.4C2458.1,557.8 2454.5,578.2 2446.7,587.8L2526.1,587.8C2518.3,578.3 2514.7,557.8 2514.7,549.4L2514.7,364.1C2514.7,289 2561.1,272.5 2599,272.5C2636.8,272.5 2676.3,296.2 2676.3,364.1L2676.3,549.4C2676.3,557.8 2672.7,578.2 2664.9,587.8L2741.5,587.8C2733.7,578.3 2730.1,557.8 2730.1,549.4L2730.1,328.9C2730.1,291.3 2691.7,231.1 2602.2,231.1C2550.1,231.1 2520,254.3 2497.2,274.2C2477.8,251.5 2446.2,230.3 2395.4,230.3C2345.8,230.3 2316.5,259.3 2302.3,276.9Z" style="fill:white;fill-rule:nonzero;"/>
                                <path d="M2125.1,392.5C2114.4,402.6 2091.9,410.5 2068.7,413.5C2007.8,421.5 1955,431.6 1955,490.9C1955,526.1 1993.4,553.8 2023.8,553.8C2104.3,553.8 2125.1,495.7 2125.1,449.9L2125.1,392.5ZM1934.9,247.3C1965.6,235 2015.2,229.3 2046.3,229.3C2125.7,229.3 2178.5,268.9 2178.5,361.1L2178.5,513.8C2178.5,542.1 2178.9,568.9 2189,587.7L2125.2,587.7L2122.9,547.5C2098.8,578.7 2069.8,592.7 2020.9,592.7C1924.2,592.7 1903.1,526.6 1903.1,494.9C1903.1,381.6 2011,380.2 2057.8,373.6C2083.7,369.9 2117,362.6 2122.1,338.3C2130.4,298.2 2101.7,268 2043,268C1999.9,268 1964.6,281.1 1935.1,298.8L1935.1,247.3L1934.9,247.3ZM3306.6,392.5C3295.9,402.6 3273.4,410.5 3250.2,413.5C3189.3,421.5 3136.6,431.6 3136.6,490.9C3136.6,526.1 3175,553.8 3205.4,553.8C3285.9,553.8 3306.7,495.7 3306.7,449.9L3306.6,392.5ZM3116.5,247.3C3147.2,235 3196.9,229.3 3227.9,229.3C3307.2,229.3 3360,268.9 3360,361.1L3360,513.8C3360,542.1 3353.8,568.3 3370.5,587.7L3306.8,587.7L3304.4,547.5C3280.2,578.7 3251.4,592.7 3202.4,592.7C3105.7,592.7 3084.6,526.6 3084.6,494.9C3084.6,381.6 3192.5,380.2 3239.3,373.6C3265.3,369.9 3298.6,362.6 3303.6,338.3C3311.9,298.2 3283.2,268 3224.5,268C3181.4,268 3146.2,281.1 3116.6,298.8L3116.5,247.3Z" style="fill:white;fill-rule:nonzero;"/>
                                <path d="M3048.6,294.1C3024.7,280.1 2986.9,269.1 2960.5,269.1C2867.9,269.1 2825.5,326 2825.5,408C2825.5,489.2 2867,551.4 2957.5,551.4C2988.5,551.4 3030.8,537.4 3063.5,517.3L3050.2,577C3016.8,587 2988.7,591.7 2951.6,591.7C2824.4,591.7 2764.8,501.5 2764.8,407.6C2764.8,303.8 2844.8,230.9 2953,230.9C3000.3,230.9 3034.8,242.5 3048.8,246.5L3048.6,294.1Z" style="fill:white;fill-rule:nonzero;"/>
                                <path d="M1624.7,412.3C1624.8,403.7 1625.9,395.6 1626.9,387.7L1873,387.7C1873,303.1 1830.7,230.6 1730.4,230.6C1626.3,230.6 1564.6,312 1564.6,415.8C1564.6,509.6 1633.4,593.5 1751.1,593.5C1788.4,593.5 1819.5,584.4 1853.1,572.6L1864.9,512.6C1836.2,536.3 1789.7,550.3 1747.8,550.3C1672.4,550 1624.3,495.5 1624.7,412.3ZM1634.6,350.1C1642.6,308.9 1680.7,267 1726.3,267C1796,267 1816.1,321.4 1816.1,350.1C1816,350.1 1634.6,350.2 1634.6,350.1Z" style="fill:white;fill-rule:nonzero;"/>
                            </g>
                        </g>
                    </g>
                    <path d="M452.6,8.9C480.2,13 508.4,22.7 523.1,27.2C552.8,36.2 600.8,64.4 617.8,77.9C625.8,84.3 642.7,101 649.3,109.4C655.7,117.6 667.9,135.4 675.6,146.2C688,164.3 702.5,191.2 714.9,215.9C728.7,243.5 729.7,251.6 733.8,274.7L742.9,315.4C743.7,322.5 744.4,348.2 729.2,351.9C714,355.5 700,348.5 693.4,338.4C684.3,324.2 685.5,304.1 675.1,281.1C667,262.5 663.5,235.5 650.7,216L640.6,199C622.7,171.5 604.1,149.6 593,135.4C583.1,123.4 564.9,107.2 547.6,95.6C531.6,85.8 505.6,74.8 486.9,69.1C480.9,67.1 455.5,59.7 439.6,57.6C418,55.2 404,51.7 383.6,50.3C358.4,48.6 346.2,46.3 313.6,50.1C301.2,53.5 281.6,54.8 263.9,61.6C249.6,67.5 229.8,76.8 210.3,88.3C189.4,99.8 157.6,123.2 136.5,143.3C115.3,166 104.7,178.2 90,206.9C83.4,221 70.9,242.9 65.9,258.5C62.4,274.3 55.8,303.7 57,318C57.5,343.6 55.3,348.9 57.2,369.8C57.3,388.7 63.5,401.7 66,417.1C68.2,427.8 78.4,464.5 84.7,473.1C113.4,535 151.9,561.8 194.9,581.1C207,587.3 244.9,597.4 255.9,600.3C274.6,603.7 299.2,605.9 322.8,606.4C347.7,606.9 382,603.5 402.9,595.8C425.5,587.5 451.6,575.7 451.2,576.1C461.7,570.4 477.7,560.9 482.6,556.8C492.2,550.6 498,548.3 503.6,542.3C511.8,535.1 516.8,531 523,522.1C526.5,517.1 532,509.4 537.3,502.6C543,493.2 546.3,483.2 552,470.9C558.8,452.6 557.6,453.6 559,434.3C560.2,428.7 558.9,409.9 557.9,406.6C554.8,389.2 555.9,373.9 551.9,356.9C546.6,334 542,317 535.2,295C528.7,270.4 509.7,247.5 495.6,231.2C486.8,221 459.5,197.1 421.5,182.2C410.8,178.6 393.4,174.5 382.3,172.6C358.6,170.1 354.7,171.7 332,173.4C324.2,174.7 306,178.4 299.4,180.8C279.9,187.7 272.7,192 252.8,204.2C243.6,209.5 236.5,213.7 227,222.6C219.4,229.6 214.1,241.5 207.9,248.5C199.5,259.9 190.1,275.2 183.9,291.6C177.1,307.9 174.9,331 176,345.8C176,357.1 179.1,377.7 180.3,382.2C181.5,386.7 184.6,400.8 185.2,403.5C185.9,406.3 193.2,421.2 194.2,423.3C198.3,432 206.2,444.6 219.4,457.5C229.3,468.2 248.1,478.7 262.3,482.7C275,489.7 296.5,490.9 308.3,490.9C314.2,490.5 329,489.7 336.8,487.8C352.6,484 355.5,483.9 371.8,476.8C386.4,470 396.3,467.6 406.5,460.1C406.5,460.1 420.5,449.2 426.8,441.1C430.2,436.9 435.9,416.8 434.9,404.3C434.4,387.3 437,377.6 433.4,363.6C429.9,349.5 424,333.3 417.5,323.3C410.9,313.1 397,303.3 381,295.4C372.1,291 350.8,286.9 341.9,285.9C324.9,283.8 310.6,291.6 301.9,300.5C294.4,309.1 279.5,327 285.5,345.4C290.8,362.1 297.3,379.9 322.3,378.6C339.5,382.2 359.4,377.1 366,380C375.9,385.5 379.5,397.9 376.1,406.5C373.6,423 357.7,425.1 340.8,426.3C325.6,428.9 287.1,421.4 278.7,415.1C273.1,411.7 264.3,403.6 258.3,398.2C253.9,394.2 249,385.5 245.6,379.2C241.4,371.5 239.3,365.8 238.2,360.7C237,354.7 234.3,343.3 235.3,331.9C236,324.2 238.1,320.9 240.1,309.6C244.2,296.8 249.2,287.1 257.4,276C268.1,265.2 281.6,252.3 294.8,246.3C306.5,240.1 326.8,237.9 345.3,239C360.3,240.4 378,242.3 389.7,246.2C409.7,253.4 415.5,254.8 432,265.2C445.9,273.8 459.9,289.6 467.7,302.8C484.3,336.8 493.9,374.5 486.9,425.6C486.4,434.2 483.6,442.5 478.3,454C473.4,464.5 464.6,477.3 451.6,486.8C446.4,491.6 438.1,497.7 431.4,501.2C421.9,506.9 415.4,510 405.4,515.1C396.7,519.2 386.4,523.9 373.1,527.6C358.6,533.3 347.5,533.6 329.5,536.2C311.6,540.7 262.8,537.5 233.6,524.6C213.7,516.3 191.4,501.5 174.5,483.5C165.1,473.6 155.8,455.7 153.2,452.1C139.8,426.1 137.1,401.8 134.9,396.7C131.9,389.7 130.5,374.1 128.5,363.4C126.2,351.4 127.7,301.2 139.7,269.1C146.5,256.3 150.5,244.9 155.1,238.8C163.4,227 167.4,219.6 174.4,211.3C185.1,198.5 192.8,187.9 203,180.5C229.4,159 251.3,147.8 281.2,133.6C318.3,118.5 329.3,121.6 364.3,122.2C380.1,122.3 403,127.3 414.3,129.4C435.2,132.2 447.2,137.2 461.4,141.2C476.6,145.4 485.3,152.2 497.7,159.7C508,166.3 520,175.3 527.9,182.7C548.2,197.6 558.1,213.3 570.5,232.6C572.8,235.8 587.5,267.4 589.9,276.1C591,280.5 594.3,293.1 596.5,300.5C599.3,312.2 600.6,322.6 603.7,335.8C606.5,349.5 611.2,375.1 613.1,399.1C616.5,419.7 611,461.8 607.8,474.6C600.6,498.7 588,528.1 563.2,556.4C552.6,568.9 541.4,578.7 528.4,589.2C518.4,597.4 509.9,602.3 494.6,611.5C473.8,623.9 458,631.8 428.7,643.3C416.8,647.1 401.8,652.1 385.7,655.4C354.4,658.3 322.3,661 287.2,656.8C252.1,652.6 217,642.7 196.2,636.4C184.7,632.1 162.5,622.9 153.2,617.7C147.1,614.6 126.8,600.8 123.4,597.4C109.4,588.8 78.3,559.5 58.2,532.2C53.8,523.8 38,498.4 34.5,487.3C25.4,468.5 19,445.8 15.3,436.2C11.4,413.5 4.7,398.9 2.1,376.3C2.4,371 1.1,358.3 -0.2,351.5C1.5,336 -0.8,321.3 2.3,304.4C5,290.1 8.6,284.2 9.5,271.2C10.3,265.7 17.4,249 19.4,241.6C25.1,229.4 26.6,219.4 34.1,205.8C44.9,184.7 56.2,160.2 73.5,139C78.4,132.4 92.5,116.5 97.2,111.1C108.5,99.8 115.2,98.1 127.9,86.7C129.2,85.9 137.7,76.2 146.6,72.9C161.3,61.6 174,57.4 188,47C216,33 226.2,28.3 254,16.7C270.3,11.1 292.8,7.9 300.8,4.8C316.2,3.9 331.7,-1.1 347.9,-0.1C366.1,-0.3 384.3,1 402.5,2.7C414.9,3.6 430.9,4.2 452.6,8.9Z" style="fill:rgb(234,130,45);fill-rule:nonzero;"/>
                </g>
            </g>
        </g>
    </g>
</svg>
