<?xml version="1.0" encoding="UTF-8"?>
<svg width="651px" height="128px" viewBox="0 0 651 128" version="1.1" xmlns="http://www.w3.org/2000/svg" xmlns:xlink="http://www.w3.org/1999/xlink">
    <title>dreamcast</title>
    <defs>
        <filter x="-1.9%" y="-11.1%" width="103.8%" height="122.1%" filterUnits="objectBoundingBox" id="filter-1">
            <feOffset dx="0" dy="2" in="SourceAlpha" result="shadowOffsetOuter1"></feOffset>
            <feGaussianBlur stdDeviation="2" in="shadowOffsetOuter1" result="shadowBlurOuter1"></feGaussianBlur>
            <feColorMatrix values="0 0 0 0 0   0 0 0 0 0   0 0 0 0 0  0 0 0 0.5 0" type="matrix" in="shadowBlurOuter1" result="shadowMatrixOuter1"></feColorMatrix>
            <feMerge>
                <feMergeNode in="shadowMatrixOuter1"></feMergeNode>
                <feMergeNode in="SourceGraphic"></feMergeNode>
            </feMerge>
        </filter>
        <polygon id="path-2" points="0 0 632 0 632 108.516 5.44009282e-15 108.516"></polygon>
    </defs>
    <g id="Page-1" stroke="none" stroke-width="1" fill="none" fill-rule="evenodd" opacity="0.78">
        <g id="Sega-Dreamcast" transform="translate(6.000000, 4.000000)">
            <g id="dreamcast" filter="url(#filter-1)" transform="translate(3.969141, 5.776408)">
                <mask id="mask-3" fill="white">
                    <use xlink:href="#path-2"></use>
                </mask>
                <g id="Path"></g>
                <g id="Group" mask="url(#mask-3)" fill-rule="nonzero">
                    <g transform="translate(0.000000, -1.000145)">
                        <path d="M140.633,22.1795075 C140.633,19.4305075 140.106,15.8585075 138.888,14.3595075 C146.856,14.3595075 164.108,14.4095075 171.499,14.4095075 C188.504,14.4095075 214.168,23.8585075 214.168,55.6795075 C214.168,79.3015075 196.06,96.8825075 171.499,96.8825075 C166.116,96.8825075 145.555,96.8165075 138.263,96.8165075 C139.744,94.0675075 140.633,90.3145075 140.633,87.3515075 L140.633,22.1795075 Z M152.864,88.7835075 C160.716,89.8045075 167.96,90.1175075 174.511,89.1785075 C180.849,88.2735075 202.167,83.6805075 202.035,55.3825075 C201.92,28.5665075 185.343,22.4265075 172.585,21.6855075 C165.935,21.2905075 159.498,21.5535075 152.864,22.7065075 L152.864,88.7835075 L152.864,88.7835075 Z M221.181,39.6785075 L233.395,37.7685075 L233.395,48.5345075 C236.539,40.7975075 246.285,34.5585075 260.146,39.9585075 L256.903,48.4685075 C244.211,42.4605075 233.412,47.7275075 233.412,61.8195075 L233.412,90.8745075 C233.412,92.2575075 233.708,95.0555075 234.547,96.8335075 L221.855,96.8335075 C223.139,95.2695075 223.732,92.2575075 223.732,90.8745075 L223.732,48.9625075 C223.716,45.9175075 223.09,41.1925075 221.181,39.6785075 Z M607.472,45.5055075 L607.472,82.6265075 C607.472,94.2815075 615.506,97.3935075 621.465,97.3935075 C623.983,97.5085075 627.556,96.9155075 630.025,96.3725075 L631.556,89.1785075 C628.642,90.2985075 625.284,90.5455075 623.259,90.5455075 C619.522,90.5455075 616.823,88.0595075 616.823,84.1905075 C616.823,80.7175075 616.74,46.6415075 616.823,45.5555075 L616.79,45.5555075 C617.283,45.5555075 625.02,45.5225075 625.811,45.5555075 C628.346,45.6375075 630.305,45.7855075 631.984,46.4605075 L632,39.6785075 L616.839,39.6615075 L616.905,22.2945075 L605.645,25.4055075 C607.192,26.8545075 607.703,31.1015075 607.703,33.9005075 C607.703,33.9005075 607.686,39.0855075 607.686,39.7115075 C607.176,39.7115075 601.464,39.7445075 600.525,39.7445075 L600.525,45.4725075 C601.497,45.5055075 607.472,45.5055075 607.472,45.5055075 L607.472,45.5055075 Z M558.811,84.7835075 C563.651,88.2405075 571.24,91.3025075 576.82,91.3025075 C584.541,91.3025075 590.089,87.5485075 590.089,80.4705075 C590.089,67.4165075 560.293,69.5725075 560.293,52.9955075 C560.293,41.7855075 570.318,37.5715075 579.866,37.5715075 C582.944,37.5715075 589.94,38.2295075 594.402,39.9585075 L594.369,47.6125075 C590.418,44.2385075 584.36,43.3985075 580.393,43.3985075 C574.071,43.3985075 569.33,46.5425075 569.33,52.6995075 C569.33,61.7205075 599.093,61.1935075 599.093,79.7295075 C599.093,91.7135075 588.722,97.2945075 577.281,97.2945075 C571.717,97.2945075 565.906,96.3065075 561.083,94.9235075 L558.811,84.7835075 L558.811,84.7835075 Z M379.032,45.6205075 C379.032,44.9455075 379.049,38.8715075 379.049,38.0975075 L366.686,40.0075075 C368.168,41.5545075 369.32,46.4435075 369.32,49.9335075 L369.32,90.4625075 C369.32,91.8455075 368.727,95.2035075 367.443,96.7845075 L380.925,96.7845075 C379.641,95.2205075 379.049,91.8455075 379.049,90.4625075 L379.049,59.9755075 C379.049,48.8305075 385.963,44.8965075 392.827,44.8965075 C399.05,44.8965075 404.68,47.5795075 404.68,59.9755075 L404.68,90.4795075 C404.68,91.8615075 404.087,95.2205075 402.803,96.8005075 L415.874,96.8005075 C414.59,95.2365075 413.997,91.8615075 413.997,90.4795075 L413.997,59.9755075 C413.997,47.6125075 421.635,44.8965075 427.874,44.8965075 C434.097,44.8965075 440.599,48.7985075 440.599,59.9755075 L440.599,90.4795075 C440.599,91.8615075 440.007,95.2205075 438.723,96.8005075 L451.332,96.8005075 C450.048,95.2365075 449.456,91.8615075 449.456,90.4795075 L449.456,54.1805075 C449.456,47.9915075 443.134,38.0815075 428.401,38.0815075 C419.825,38.0815075 414.87,41.9005075 411.116,45.1765075 C407.923,41.4395075 402.721,37.9495075 394.358,37.9495075 C386.193,37.9495075 381.37,42.7235075 379.032,45.6205075 L379.032,45.6205075 Z M349.862,64.6505075 C348.101,66.3135075 344.397,67.6135075 340.578,68.1075075 C330.552,69.4245075 321.861,71.0875075 321.861,80.8495075 C321.861,86.6435075 328.182,91.2035075 333.186,91.2035075 C346.438,91.2035075 349.862,81.6395075 349.862,74.0995075 L349.862,64.6505075 Z M318.552,40.7485075 C323.606,38.7235075 331.771,37.7855075 336.89,37.7855075 C349.961,37.7855075 358.653,44.3035075 358.653,59.4815075 L358.653,84.6185075 C358.653,89.2775075 358.719,93.6895075 360.381,96.7845075 L349.879,96.7845075 L349.5,90.1665075 C345.533,95.3025075 340.759,97.6075075 332.709,97.6075075 C316.79,97.6075075 313.317,86.7255075 313.317,81.5075075 C313.317,62.8565075 331.079,62.6255075 338.783,61.5395075 C343.047,60.9305075 348.529,59.7285075 349.368,55.7285075 C350.735,49.1275075 346.01,44.1555075 336.347,44.1555075 C329.252,44.1555075 323.441,46.3125075 318.585,49.2265075 L318.585,40.7485075 L318.552,40.7485075 L318.552,40.7485075 Z M544.358,64.6505075 C542.596,66.3135075 538.893,67.6135075 535.073,68.1075075 C525.048,69.4245075 516.373,71.0875075 516.373,80.8495075 C516.373,86.6435075 522.694,91.2035075 527.699,91.2035075 C540.95,91.2035075 544.374,81.6395075 544.374,74.0995075 L544.358,64.6505075 Z M513.064,40.7485075 C518.118,38.7235075 526.299,37.7855075 531.402,37.7855075 C544.457,37.7855075 553.148,44.3035075 553.148,59.4815075 L553.148,84.6185075 C553.148,89.2775075 552.128,93.5905075 554.877,96.7845075 L544.391,96.7845075 L543.996,90.1665075 C540.012,95.3025075 535.271,97.6075075 527.205,97.6075075 C511.286,97.6075075 507.813,86.7255075 507.813,81.5075075 C507.813,62.8565075 525.575,62.6255075 533.279,61.5395075 C537.559,60.9305075 543.041,59.7285075 543.864,55.7285075 C545.23,49.1275075 540.506,44.1555075 530.843,44.1555075 C523.748,44.1555075 517.953,46.3125075 513.08,49.2265075 L513.064,40.7485075 Z M501.886,48.4525075 C497.952,46.1475075 491.73,44.3365075 487.384,44.3365075 C472.14,44.3365075 465.16,53.7035075 465.16,67.2025075 C465.16,80.5695075 471.992,90.8085075 486.89,90.8085075 C491.993,90.8085075 498.956,88.5035075 504.339,85.1945075 L502.15,95.0225075 C496.652,96.6685075 492.026,97.4425075 485.919,97.4425075 C464.979,97.4425075 455.168,82.5945075 455.168,67.1365075 C455.168,50.0495075 468.337,38.0485075 486.149,38.0485075 C493.935,38.0485075 499.615,39.9585075 501.919,40.6165075 L501.886,48.4525075 L501.886,48.4525075 Z M267.487,67.9105075 C267.504,66.4945075 267.685,65.1605075 267.85,63.8605075 L308.362,63.8605075 C308.362,49.9335075 301.399,37.9995075 284.888,37.9995075 C267.751,37.9995075 257.594,51.3985075 257.594,68.4865075 C257.594,83.9275075 268.92,97.7385075 288.295,97.7385075 C294.435,97.7385075 299.555,96.2405075 305.086,94.2985075 L307.029,84.4215075 C302.304,88.3225075 294.649,90.6275075 287.752,90.6275075 C275.34,90.5775075 267.422,81.6065075 267.487,67.9105075 L267.487,67.9105075 Z M269.117,57.6705075 C270.434,50.8885075 276.706,43.9915075 284.213,43.9915075 C295.686,43.9915075 298.995,52.9465075 298.995,57.6705075 C298.979,57.6705075 269.117,57.6875075 269.117,57.6705075 Z" id="Shape" fill="#FFFFFF"></path>
                        <path d="M74.539,1.50350753 C79.083,2.17850753 83.725,3.77550753 86.145,4.51550753 C91.034,5.99750753 98.935,10.6395075 101.734,12.8615075 C103.051,13.9155075 105.833,16.6645075 106.919,18.0475075 C107.973,19.3975075 109.981,22.3275075 111.249,24.1055075 C113.29,27.0845075 115.677,31.5135075 117.718,35.5795075 C119.99,40.1225075 120.155,41.4565075 120.83,45.2585075 L122.328,51.9585075 C122.459,53.1275075 122.575,57.3585075 120.072,57.9675075 C117.57,58.5595075 115.266,57.4075075 114.179,55.7445075 C112.681,53.4075075 112.879,50.0985075 111.167,46.3125075 C109.833,43.2505075 109.257,38.8055075 107.15,35.5955075 L105.487,32.7975075 C102.541,28.2705075 99.479,24.6655075 97.651,22.3275075 C96.022,20.3525075 93.026,17.6855075 90.178,15.7755075 C87.544,14.1625075 83.264,12.3515075 80.186,11.4135075 C79.198,11.0845075 75.017,9.86550753 72.399,9.52050753 C68.843,9.12550753 66.539,8.54850753 63.181,8.31850753 C59.032,8.03850753 57.024,7.66050753 51.657,8.28550753 C49.616,8.84550753 46.39,9.05950753 43.476,10.1785075 C40.4383729,11.4416412 37.4902283,12.9100337 34.652,14.5735075 C31.212,16.4675075 25.977,20.3195075 22.504,23.6275075 C19.014,27.3645075 17.269,29.3735075 14.849,34.0975075 C13.762,36.4185075 11.705,40.0235075 10.881,42.5915075 C10.305,45.1925075 9.219,50.0325075 9.416,52.3865075 C9.499,56.6005075 9.137,57.4735075 9.449,60.9135075 C9.466,64.0255075 10.486,66.1655075 10.898,68.7005075 C11.26,70.4615075 12.939,76.5035075 13.976,77.9185075 C18.701,88.1085075 25.039,92.5205075 32.117,95.6975075 C34.109,96.7185075 40.348,98.3805075 42.159,98.8585075 C45.237,99.4175075 49.287,99.7805075 53.172,99.8625075 C57.271,99.9445075 62.917,99.3845075 66.358,98.1175075 C70.078,96.7515075 74.375,94.8085075 74.309,94.8745075 C76.037,93.9365075 78.671,92.3725075 79.478,91.6975075 C81.058,90.6765075 82.013,90.2985075 82.935,89.3105075 C84.284,88.1255075 85.108,87.4505075 86.128,85.9855075 C86.8867308,84.8967275 87.671626,83.8264159 88.482,82.7755075 C89.421,81.2275075 89.964,79.5815075 90.902,77.5565075 C92.022,74.5445075 91.824,74.7085075 92.054,71.5315075 C92.252,70.6095075 92.038,67.5155075 91.873,66.9715075 C91.363,64.1075075 91.544,61.5885075 90.886,58.7905075 C90.013,55.0205075 89.256,52.2225075 88.137,48.6005075 C87.067,44.5505075 83.939,40.7815075 81.618,38.0975075 C80.169,36.4185075 75.675,32.4845075 69.42,30.0315075 C67.658,29.4385075 64.794,28.7645075 62.967,28.4515075 C59.065,28.0395075 58.423,28.3035075 54.686,28.5825075 C53.402,28.7965075 50.406,29.4065075 49.32,29.8015075 C46.11,30.9365075 44.924,31.6445075 41.649,33.6535075 C40.134,34.5255075 38.965,35.2175075 37.401,36.6825075 C36.15,37.8345075 35.278,39.7935075 34.257,40.9455075 C32.874,42.8225075 31.327,45.3415075 30.306,48.0405075 C29.187,50.7245075 28.825,54.5265075 29.006,56.9635075 C29.006,58.8235075 29.516,62.2145075 29.714,62.9555075 C29.911,63.6955075 30.422,66.0175075 30.52,66.4615075 C30.636,66.9225075 31.837,69.3755075 32.002,69.7205075 C32.677,71.1535075 33.977,73.2275075 36.15,75.3505075 C37.78,77.1125075 40.875,78.8405075 43.212,79.4995075 C45.303,80.6515075 48.842,80.8495075 50.785,80.8495075 C51.756,80.7835075 54.192,80.6515075 55.476,80.3385075 C58.077,79.7135075 58.555,79.6965075 61.238,78.5275075 C63.641,77.4085075 65.271,77.0135075 66.95,75.7785075 C66.95,75.7785075 69.255,73.9845075 70.292,72.6515075 C70.852,71.9595075 71.79,68.6505075 71.625,66.5935075 C71.543,63.7945075 71.971,62.1975075 71.378,59.8935075 C70.802,57.5725075 69.831,54.9055075 68.761,53.2595075 C67.675,51.5805075 65.386,49.9665075 62.753,48.6665075 C61.287,47.9415075 57.781,47.2675075 56.316,47.1025075 C53.517,46.7565075 51.163,48.0405075 49.731,49.5055075 C48.497,50.9215075 46.044,53.8685075 47.032,56.8975075 C47.904,59.6465075 48.974,62.5765075 53.089,62.3625075 C55.921,62.9555075 59.197,62.1155075 60.283,62.5925075 C61.913,63.4985075 62.506,65.5395075 61.946,66.9555075 C61.534,69.6715075 58.917,70.0175075 56.135,70.2145075 C53.633,70.6425075 47.295,69.4085075 45.912,68.3715075 C44.99,67.8115075 43.542,66.4775075 42.554,65.5895075 C41.83,64.9305075 41.023,63.4985075 40.463,62.4615075 C39.772,61.1935075 39.426,60.2555075 39.245,59.4155075 C39.048,58.4285075 38.603,56.5515075 38.768,54.6745075 C38.883,53.4075075 39.229,52.8645075 39.558,51.0035075 C40.233,48.8965075 41.056,47.2995075 42.406,45.4725075 C44.167,43.6945075 46.39,41.5715075 48.562,40.5835075 C50.488,39.5625075 53.83,39.2005075 56.876,39.3815075 C59.345,39.6125075 62.259,39.9255075 64.185,40.5675075 C67.477,41.7525075 68.432,41.9825075 71.148,43.6945075 C73.436,45.1105075 75.741,47.7115075 77.025,49.8845075 C79.758,55.4815075 81.338,61.6875075 80.186,70.0995075 C80.103,71.5155075 79.642,72.8815075 78.77,74.7745075 C77.963,76.5035075 76.515,78.6105075 74.375,80.1745075 C73.519,80.9645075 72.152,81.9685075 71.049,82.5445075 C69.485,83.4825075 68.415,83.9935075 66.769,84.8325075 C65.337,85.5075075 63.641,86.2815075 61.452,86.8905075 C59.065,87.8285075 57.238,87.8785075 54.275,88.3065075 C51.328,89.0475075 43.295,88.5205075 38.488,86.3965075 C35.212,85.0305075 31.541,82.5945075 28.759,79.6305075 C27.212,78.0015075 25.681,75.0545075 25.253,74.4615075 C23.047,70.1815075 22.602,66.1815075 22.24,65.3425075 C21.746,64.1895075 21.516,61.6215075 21.187,59.8605075 C20.808,57.8845075 21.055,49.6215075 23.03,44.3365075 C24.15,42.2295075 24.808,40.3535075 25.565,39.3485075 C26.932,37.4065075 27.59,36.1885075 28.743,34.8215075 C30.504,32.7145075 31.771,30.9695075 33.451,29.7515075 C37.796,26.2125075 41.402,24.3685075 46.324,22.0315075 C52.431,19.5455075 54.242,20.0555075 60.003,20.1545075 C62.604,20.1705075 66.374,20.9945075 68.234,21.3395075 C71.675,21.8005075 73.65,22.6235075 75.988,23.2825075 C78.49,23.9735075 79.922,25.0935075 81.963,26.3275075 C83.659,27.4145075 85.634,28.8955075 86.935,30.1135075 C90.277,32.5665075 91.906,35.1515075 93.948,38.3285075 C94.326,38.8555075 96.746,44.0575075 97.141,45.4895075 C97.322,46.2135075 97.865,48.2875075 98.228,49.5055075 C98.689,51.4315075 98.903,53.1435075 99.413,55.3165075 C99.874,57.5725075 100.647,61.7865075 100.96,65.7375075 C101.52,69.1285075 100.615,76.0585075 100.088,78.1655075 C98.903,82.1335075 96.828,86.9725075 92.746,91.6315075 C91.001,93.6895075 89.157,95.3025075 87.017,97.0305075 C85.371,98.3805075 83.972,99.1875075 81.453,100.701508 C78.029,102.743508 75.428,104.043508 70.605,105.936508 C68.646,106.562508 66.177,107.385508 63.526,107.928508 C58.374,108.406508 53.089,108.850508 47.311,108.159508 C41.533,107.467508 35.755,105.838508 32.331,104.800508 C30.438,104.093508 26.784,102.578508 25.253,101.722508 C24.248,101.212508 20.907,98.9405075 20.347,98.3805075 C18.042,96.9655075 12.923,92.1415075 9.614,87.6475075 C8.89,86.2645075 6.289,82.0835075 5.713,80.2565075 C4.214,77.1615075 3.161,73.4245075 2.552,71.8445075 C1.91,68.1075075 0.807,65.7045075 0.379,61.9835075 C0.428,61.1115075 0.214,59.0205075 4.4408921e-15,57.9015075 C0.28,55.3495075 -0.098,52.9295075 0.412,50.1475075 C0.856,47.7935075 1.449,46.8225075 1.597,44.6825075 C1.729,43.7775075 2.898,41.0285075 3.227,39.8095075 C4.165,37.8015075 4.412,36.1555075 5.647,33.9165075 C7.425,30.4435075 9.285,26.4105075 12.133,22.9205075 C12.939,21.8335075 15.26,19.2165075 16.034,18.3275075 C17.894,16.4675075 18.997,16.1875075 21.088,14.3105075 C21.302,14.1785075 22.701,12.5825075 24.166,12.0385075 C26.586,10.1785075 28.677,9.48750753 30.981,7.77550753 C35.591,5.47050753 37.27,4.69650753 41.846,2.78750753 C44.529,1.86550753 48.233,1.33850753 49.55,0.828507533 C52.085,0.680507533 54.637,-0.142492467 57.304,0.021507533 C60.3,-0.011492467 63.296,0.202507533 66.292,0.482507533 C68.333,0.630507533 70.967,0.729507533 74.539,1.50350753 Z" id="Path" fill="#EA822D"></path>
                    </g>
                </g>
            </g>
        </g>
    </g>
</svg>