<svg data-name="Warstwa 1" xmlns="http://www.w3.org/2000/svg" viewBox="0 0 723.38 115.17">
    <path d="M92.68 114.96c-23.65 0-47.31-.4-70.94.19-9.46.24-15.66-3.78-20.74-10.77-.87-1.2-1-3.14-1-4.73 0-5.66.15-11.32.39-17 .3-7.22 7.08-13.73 14.33-13.89a19 19 0 0 1 4 0c10.09 2 17.45-2.91 24.24-9.41 2.52-2.41 3.2-9.94.63-12.18-6.58-5.73-12.9-12.32-23-10-7.33 1.65-10.61-4.92-15.72-7.7-3.14-1.71-4.7-4.51-4.29-8.61.46-4.6-.28-9.29-.22-13.94.07-5.18 1.76-6.84 7-6.79 13 .14 25.92.56 38.87.66 24.15.2 48.3.43 72.45.32Q149.05.96 179.43.04c12.87-.38 23.34 4.59 33.36 12.19 6.91 5.24 10.3 12.77 15.28 19.26.78 1 .51 2.89.56 4.38.4 10.77 1.28 21.57.85 32.32-.17 4.35-2.74 8.9-5.12 12.81-5.57 9.16-13.81 15.83-22.5 21.88a35.62 35.62 0 0 1-8.2 4.29c-7.15 2.56-14.35 5.08-21.69 7-3.62 1-7.58.88-11.38.89-22.66.08-45.31 0-68 0ZM541.5 52.55l-30-18.29c-1-.6-2-1.18-3-1.84-11.31-7.74-12.24-9.57-10.89-23.22.15-1.47 1.47-3.65 2.71-4 5.32-1.65 10.77-3.73 16.24-3.91 22.26-.74 44.55-.8 66.83-1.21 3.5-.06 6 1.1 8.89 3.28 5.1 3.83 11.1 6.48 16.83 9.42.71.37 2.15-.38 3.12-.87 6.92-3.51 13.79-7.11 20.72-10.6a6.72 6.72 0 0 1 2.91-.49Q678.08.45 720.3.16a12.1 12.1 0 0 1 2 .4c0 6.37.23 12.81-.18 19.21-.09 1.48-2.15 3.15-3.69 4.17-12.93 8.52-26 16.89-38.91 25.38a60.41 60.41 0 0 0-5.25 4.47l15 9.51c10 6.32 20 12.54 29.89 19.08a8.31 8.31 0 0 1 3.1 5.39c.67 6.09.79 12.24 1.09 18.37.21 4.1-3.36 8.18-7.49 8.19-21.49.06-43 .08-64.49-.06a13.17 13.17 0 0 1-6-2c-10.24-5.89-20.32-12.08-30.67-17.79-1.94-1.07-4.81-.53-7.25-.61-.62 0-1.24.46-1.88.63-9.15 2.3-16.22 7.24-20.38 15.93-1.56 3.25-4.15 4.09-7.71 4.07-24-.15-48-.07-72-.09-6.45 0-6.81-.41-6.82-6.71 0-7.17.26-14.35-.1-21.49-.22-4.28 1.54-6.72 4.92-8.86 11.09-7 22.05-14.22 33.05-21.37 1.58-1.08 3.06-2.13 4.97-3.43ZM361.65 104.7c-1.17 1.57-2.11 3.41-3.56 4.69-3.51 3.1-7.22 5.39-12.46 5.07-7.89-.49-15.83-.13-24-.13V38.8c15.12 1.59 30.4-2.53 44.15 2.4 3.42-.86 6.07-2.05 8.75-2.11 10.79-.22 21.58-.09 32.28-.09v74.15h-16c-2.16 0-4.33.09-6.49.17-4.49.16-9.43 1.56-13.35.15-3.61-1.3-6.16-5.63-9.32-8.77Zm134.5-20.32c0 8.5-.11 17 0 25.49.06 3.26-1.2 4.48-4.36 4.45-8.83-.09-17.66 0-26.49-.08-3.71-.06-8.11-4.74-8.33-8.47-.05-1 .37-2.26-.1-2.95a27.51 27.51 0 0 0-3.51-3.64c-1 1.16-2.37 2.18-2.87 3.53s.15 3-.14 4.45c-.8 4-2.65 7.11-7.46 7.08-7-.05-14 .08-21 0-4.4-.07-6.82-1.7-6.71-6.94.33-15.82 0-31.65.26-47.48a8.59 8.59 0 0 1 3.05-6c6.93-5.15 13.63-12.4 21.46-14.1 11.14-2.43 23.19-.69 34.85-.64a7.18 7.18 0 0 1 2.72 1 6 6 0 0 1 1.17.92c5.73 4.81 13.52 8.58 16.59 14.72 2.88 5.75.77 14 .84 21.15.05 2.51.03 5.01.03 7.51ZM447.78 62.5c1 2.55 1.18 5.09 2.52 6a5.68 5.68 0 0 0 5.45-.23c1.21-1 1.11-3.59 1.67-5.81ZM233.9 39.08c10 0 19.7-.41 29.29.23 3.11.21 5.93 3.42 9.1 4.76 1.51.64 4.15.85 5.19 0 5.68-4.79 12.18-5.4 19.17-5.07 6.64.3 13.3.06 20.81.06-.34 7.48.09 14.87-1.36 21.87-.68 3.29-4.68 6.23-7.71 8.66-14.81 11.85-14.88 11.85-13.24 31.09.36 4.2 1.74 8.79-2.92 11.72-1.41.88-3.08 1.87-4.66 1.9-9.15.18-18.31.13-27.47.07-5.26 0-7.89-2.68-7.87-8 0-4.82-.19-9.72.52-14.46 1.31-8.72-2.47-14.6-9.29-19.27a50.08 50.08 0 0 1-6.92-5.55c-4.31-4.26-3.85-10.1-4.13-15.43-.22-4.07.95-8.19 1.49-12.58Z" fill="#fff"/>
</svg>
