<svg viewBox="0 0 264 66" xmlns="http://www.w3.org/2000/svg">
    <path d="M23.393 45.364c-4.943 0-9.165-1.023-12.667-3.069-3.503-2.046-6.164-4.819-7.989-8.317C.911 30.48 0 26.595 0 22.326c0-4.091.839-7.842 2.516-11.252 1.677-3.409 4.12-6.108 7.327-8.094C13.049.994 16.832 0 21.186 0c5.533 0 10.02 1.63 13.462 4.892 3.443 3.263 5.164 7.768 5.164 13.52 0 1.483-.117 2.907-.353 4.269H8.121c.53 5.633 2.236 9.636 5.12 12.009 2.885 2.372 6.592 3.558 11.123 3.558s8.68-.86 12.447-2.579l1.059 6.314c-5.003 2.253-9.827 3.381-14.477 3.381ZM8.828 17.167h22.775c0-3.142-.883-5.604-2.649-7.383-1.765-1.778-4.413-2.668-7.944-2.668-3.414 0-6.091.845-8.033 2.535-1.943 1.69-3.326 4.196-4.149 7.516ZM51.95 45.364c-4.001 0-7.223-1.186-9.666-3.558-2.443-2.373-3.663-5.397-3.663-9.073 0-5.515 2.588-9.457 7.768-11.83 5.18-2.373 11.211-3.618 18.097-3.736 0-3.914-.751-6.567-2.252-7.96-1.5-1.395-3.899-2.091-7.194-2.091-1.825 0-3.648.282-5.473.845-1.825.562-3.796 1.585-5.915 3.068l-1.147-6.493c1.765-1.363 3.944-2.461 6.532-3.291C51.626.416 54.334 0 57.159 0c3.707 0 6.664.652 8.871 1.957 2.207 1.306 3.825 3.469 4.856 6.493 1.03 3.025 1.544 7.176 1.544 12.453v8.894c0 2.373.104 4.166.309 5.382.206 1.216.662 2.15 1.369 2.802.706.651 1.794.979 3.266.979h.794l-1.236 6.404h-.618c-2.471 0-4.413-.238-5.826-.712-1.412-.474-2.487-1.156-3.222-2.046-.735-.89-1.428-2.106-2.074-3.646-3.648 4.269-8.062 6.404-13.242 6.404Zm1.501-6.404c2.119 0 4.164-.534 6.135-1.602a14.545 14.545 0 0 0 4.9-4.269V22.681c-6.356.238-10.903 1.084-13.639 2.536-2.737 1.452-4.105 3.809-4.105 7.071 0 2.253.603 3.93 1.81 5.026 1.207 1.096 2.84 1.646 4.899 1.646Zm37.12 6.404c-3.414 0-6.4-.401-8.96-1.201-2.56-.801-4.517-1.675-5.87-2.624l.971-7.738c1.176 1.067 2.986 2.074 5.429 3.023 2.443.951 5.135 1.424 8.077 1.424 2.765 0 4.899-.473 6.4-1.424 1.501-.949 2.251-2.283 2.251-4.002 0-2.017-.823-3.543-2.472-4.58-1.648-1.039-3.707-1.913-6.179-2.625-2.708-.712-4.988-1.467-6.841-2.268-1.854-.801-3.443-2.03-4.767-3.691-1.324-1.662-1.987-3.855-1.987-6.582 0-3.736 1.325-6.85 3.973-9.34C83.244 1.245 87.334 0 92.866 0c2.532 0 4.679.251 6.444.756a30.244 30.244 0 0 1 5.297 2.091l-.971 7.293a17.168 17.168 0 0 0-4.679-2.802c-1.706-.683-3.679-1.022-5.914-1.022-2.589 0-4.635.488-6.135 1.467-1.501.978-2.251 2.446-2.251 4.403 0 1.305.353 2.357 1.059 3.158.706.8 1.706 1.467 3.001 2.001 1.296.533 3.295 1.216 6.003 2.046 3.354 1.007 6.252 2.43 8.695 4.269 2.443 1.839 3.664 4.744 3.664 8.717 0 3.558-1.252 6.612-3.752 9.162-2.501 2.55-6.753 3.825-12.756 3.825ZM112.154 66l9.976-23.483L104.121.89h8.828l13.506 32.377L138.637.89h8.828L120.982 66h-8.828Zm39.603-18.368V.934h16.949c4.944 0 8.843 1.194 11.697 3.58 2.84 2.373 4.259 5.893 4.259 10.563 0 3.247-.684 5.908-2.052 7.983-1.369 2.061-3.311 3.713-5.827 4.959l10.461 19.613h-9.467l-8.938-17.345h-8.607v17.345h-8.475Zm8.475-24.483h6.223c6.224 0 9.335-2.535 9.335-7.605 0-2.446-.706-4.299-2.118-5.56-1.413-1.274-3.708-1.912-6.886-1.912h-6.554v15.077Zm30.764 24.483V.934h16.485c10.991 0 16.486 5.025 16.486 15.077 0 5.203-1.39 9.073-4.171 11.608-2.781 2.535-6.819 3.802-12.116 3.802h-8.21v16.211h-8.474Zm8.474-23.349h7.217c2.913 0 5.091-.667 6.532-2.002 1.428-1.334 2.141-3.379 2.141-6.137 0-2.757-.728-4.796-2.185-6.115-1.456-1.305-3.685-1.957-6.687-1.957h-7.018v16.211Zm49.369 24.283c-4.856 0-9.033-1-12.536-3.003-3.515-2.001-6.201-4.831-8.055-8.494-1.854-3.676-2.78-7.961-2.78-12.853 0-4.803 1.021-9.043 3.067-12.719 2.059-3.663 4.922-6.493 8.585-8.495C240.783 1.001 244.977 0 249.699 0c2.384 0 4.701.245 6.952.734 2.251.489 4.193 1.156 5.826 2.001l-.927 8.139c-3.84-1.779-7.79-2.669-11.851-2.669-4.943 0-8.673 1.461-11.189 4.381-2.516 2.906-3.773 6.738-3.773 11.497 0 4.936 1.235 8.888 3.707 11.852 2.472 2.951 6.047 4.425 10.726 4.425 1.898 0 4.016-.245 6.356-.733v-8.339h-6.356v-7.072H264V45.03c-1.721 1.023-3.922 1.868-6.599 2.536-2.663.667-5.517 1-8.562 1Z" style="white-space:pre;fill:#fff"/>
</svg>
