<svg data-name="Warstwa 1" viewBox="0 0 264 47" xmlns="http://www.w3.org/2000/svg">
    <path d="M252.27 47c-2.338-.135-3.566-1.785-4.754-3.499-1.49-2.176-2.908-4.401-4.414-6.569a9.252 9.252 0 0 1-1.648-5.285c-.039-3.021-.095-6.05 0-9.072a5.684 5.684 0 0 1 .793-2.702 89.553 89.553 0 0 1 4.167-6.034c1.165-1.595 1.585-1.595 3.273-.654 1.513.861 2.971 1.81 4.476 2.694.451.239.913.453 1.387.638 1.418-4.48 0-7.971-3.375-10.73L258.094 0c1.505 1.379 3.169 2.942 4.864 4.44a3.126 3.126 0 0 1 1.031 2.599c-.04 10.227 0 20.455-.048 30.683a3.082 3.082 0 0 1-.578 1.713c-1.886 2.552-3.835 5.047-5.769 7.565Zm3.803-20.79c-.111-1.339-.119-2.495-.325-3.61a1.767 1.767 0 0 0-2.306-1.531 5.393 5.393 0 0 0-1.584.582 10.698 10.698 0 0 0-4.279 4.608c-1.03 2.064-.792 4.256-.848 6.457-.055 2.933 1.466 4.783 3.732 6.185 1.284.798 2.457.686 3.336-.573a7.489 7.489 0 0 0 1.299-2.998c.428-3.085.666-6.194.975-9.12ZM62.603 3.218a18.963 18.963 0 0 1 2.979 10.762c-.103 4.783 0 9.566.071 14.349.04 3.405.072 3.405 1.87 6.672l-3.724 4.744c-.404.518-.792.526-1.252.055-1.244-1.314-2.511-2.614-3.739-3.986a.8.8 0 0 1-.127-.733c1.513-2.391 1.585-5.125 1.648-7.835.063-3.535.087-7.066.071-10.595a8.108 8.108 0 0 0-2.646-5.939c-.341-.326-.634-.702-1.046-1.163l5.705-6.378Zm-49.252 8.108 6.03-6.338c1.584 2.033 3.169 3.923 4.603 5.924 1.197 1.673.658 3.643.476 5.484-.317 3.133-.793 6.258-1.141 9.383a5.358 5.358 0 0 0 2.583 5.476c2.036-2.631 4.152-5.23 4.136-8.833 0-1.905-.19-3.81-.357-5.715a9.835 9.835 0 0 0-1.822-4.783 1.058 1.058 0 0 1-.159-.908c1.038-1.675 2.084-3.349 3.241-4.935.689-.941 1.188-.941 1.909-.049 2.75 3.389 4.509 7.119 3.851 11.671a43.022 43.022 0 0 1-3.557 12.133 31.126 31.126 0 0 1-2.132 3.349l-.554.876h2.282c.697 0 1.362-.199 2.305-.343-1.18 1.97-2.218 3.739-3.328 5.477a1.576 1.576 0 0 1-.99.486c-2.623.414-5.245.798-7.876 1.172a5.179 5.179 0 0 1-4.334-1.53c-1.331-1.213-1.458-1.197-3.098-.407-1.196.582-2.377 1.155-3.613 1.681a3.652 3.652 0 0 1-4.073-.677 16.351 16.351 0 0 1-4.572-6.138 7.728 7.728 0 0 1-.412-2.814c0-3.882-.063-7.772 0-11.662a11.153 11.153 0 0 0-1.846-6.88c-.317-.463-.562-.988-.903-1.595l6.046-5.508c2.329 2.862 4.936 5.525 4.817 9.566-.071 2.615-.301 5.213-.42 7.828-.095 1.938-.15 3.875-.15 5.819a5.356 5.356 0 0 0 1.521 3.612c1.022 1.148 2.306 1.179 3.724.797.043-.138.075-.279.095-.422v-13.68a11.439 11.439 0 0 0-1.822-6.608c-.159-.295-.286-.583-.46-.909Zm224.76-8.169-8.978 11.519c.729.454 1.292.845 1.894 1.18 6.117 3.419 7.567 6.376 6.339 13.296a30.118 30.118 0 0 1-4.437 11.695 16.233 16.233 0 0 1-4.58 4.647 5.362 5.362 0 0 1-4.334.9c-4.271-.996-8.248-2.79-12.416-4.559l4.358-3.564c.792-.645 1.584-1.323 2.377-1.896a1.476 1.476 0 0 1 1.157-.176c1.854.646 3.676 1.371 5.546 2.049.482.158.975.281 1.474.366a2.9 2.9 0 0 0 3.288-1.499c2.417-3.786 1.949-7.908-1.323-11.224a22.733 22.733 0 0 0-6.474-4.272l-1.759-.885c2.671-3.252 5.301-6.449 7.924-9.646l-.135-.334c-1.299-.088-2.591-.223-3.898-.256-1.957-.047-3.922 0-5.887-.047-1.965-.048-2.298-.534-1.252-2.256a102.158 102.158 0 0 1 2.971-4.664c.187-.262.474-.436.792-.478h17.012c.127-.016.182.032.341.104Z" fill="#fff"/>
    <path d="M57.627 23.331c0 3.986-.412 7.438-1.862 10.674-2.163 4.831-5.586 6.577-10.815 6.122-4.263-.367-8.249-5.213-8.13-9.279a22.462 22.462 0 0 1 3.582-12.085 12.616 12.616 0 0 1 8.898-5.476c2.527-.383 4.555 1.004 6.148 2.949a9.756 9.756 0 0 1 2.179 7.095Zm-6.553 6.314h-.111v-1.044a9.987 9.987 0 0 0-3.613-7.485c-1.355-1.093-2.02-.91-2.765.644a7.579 7.579 0 0 0 .182 7.128 8.892 8.892 0 0 0 3.582 4.073c.94.575 2.163.033 2.377-1.052.172-.747.298-1.503.38-2.264Zm20.467-11.121h-2.084a.929.929 0 0 1-1.046-1.059.962.962 0 0 1 .99-1.045c2.029-.247 2.029-.255 2.282-2.304 0-.319.087-.63.111-.948a5.576 5.576 0 0 1 3.962-5.246c2.107-.797 4.128-1.786 6.275-2.392 2.908-.86 6.703 1.595 7.313 4.6.024.323-.109.638-.356.845-1.315.797-2.662 1.475-4.025 2.144-.198.104-.594 0-.84-.183-.737-.438-1.41-.988-2.163-1.371-.983-.502-1.648-.12-1.854.981-.073.408-.11.821-.111 1.235 0 2.201.261 2.144 1.862 2.121 1.117 0 1.268.23 1.268 1.506 0 1.435-.135 1.634-1.3 1.682h-2.884v1.077c0 5.866 0 11.734-.048 17.601 0 2.16-.221 4.32-.324 6.48a1.489 1.489 0 0 1-1.435 1.595c-1.537.088-3.09 0-4.635 0-.665 0-.697-.55-.713-1.028-.087-2.328-.206-4.647-.222-6.975-.039-6.091 0-12.181-.039-18.272Zm45.44 22.289c-1.584-1.866-3.169-3.675-4.754-5.509a.8.8 0 0 1 .151-1.299 2.461 2.461 0 0 0 1.117-2.295c0-2.448 0-4.903-.127-7.343-.103-1.713-.792-2.391-2.496-2.806-3.05-.797-3.866-.183-3.961 2.997-.072 1.97 0 3.986 0 5.916a4.614 4.614 0 0 0 1.584 3.723c.373.343.682.749 1.086 1.203l-4.667 5.485c-1.474-1.69-2.876-3.237-4.191-4.863a1.75 1.75 0 0 1-.254-1.482c1.212-2.759 1.054-5.66 1.014-8.554a15.657 15.657 0 0 0-1.26-6.322.897.897 0 0 1 .135-.797 34.09 34.09 0 0 1 2.789-2.447c1.339-1.021 2.258-.869 3.36.423 1.275 1.49 1.267 1.482 2.884.326 1.03-.741 2.06-1.49 3.122-2.168a3.469 3.469 0 0 1 3.961.127c2.512 1.547 3.265 3.93 3.352 6.665.089 2.891.142 5.787.158 8.689 0 1.427.286 2.638 1.68 3.347.666.343.713.894.396 1.54-1.125 2.296-3.05 3.826-5.079 5.444Zm81.572-5.899c2.805-2.304 2.163-5.453 2.187-8.426 0-.414-.095-.797-.071-1.243a3.054 3.054 0 0 0-2.195-3.292 10.834 10.834 0 0 0-2.243-.703 1.871 1.871 0 0 0-2.337 1.595 9.19 9.19 0 0 0-.309 1.977c-.071 1.522-.079 3.053-.111 4.576a7.081 7.081 0 0 0 2.036 5.093 1.176 1.176 0 0 1 0 1.906c-.935.988-1.727 2.12-2.63 3.133-.903 1.012-1.498 1.02-2.377.055-1.133-1.243-2.203-2.55-3.265-3.858a.934.934 0 0 1 0-.797c1.965-3.922 1.767-8.011.88-12.125a15.177 15.177 0 0 0-1.173-3.013.8.8 0 0 1 .27-1.124c1.038-.797 2.075-1.595 3.058-2.432 1.268-1.1 2.67-.159 3.225.869.792 1.404.911 1.451 2.242.51a44.68 44.68 0 0 1 3.851-2.606c1.743-.972 2.662-.797 4.12.55 2.908 2.639 2.9 2.639 2.908 6.553 0 2.454.079 4.91.055 7.365a5.333 5.333 0 0 0 1.989 4.616c.579.455.595.861.222 1.522a13.126 13.126 0 0 1-4.176 4.488 1.143 1.143 0 0 1-1.782-.215c-1.434-1.746-2.924-3.379-4.374-4.974Zm-64.299-21.388c1.688.287 3.384.511 5.048.869 1.315.279 1.465.845.523 1.818-.943.972-2.1 2.032-3.209 2.981-.3.182-.662.231-.999.136-1.402-.367-2.773-.894-4.191-1.196-1.419-.303-2.005.087-2.338 1.148-.531 1.674-.269 2.638 1.054 3.189 1.094.486 2.258.797 3.399 1.187s2.1.701 3.17 1.093a5.168 5.168 0 0 1 3.494 4.782c.143 1.594.246 3.245.325 4.863a1.46 1.46 0 0 1-.325.797c-3.597 4.528-8.494 5.707-13.937 5.373a10.522 10.522 0 0 1-2.766-.574c-1.141-.407-1.323-1.004-.634-1.969a34.914 34.914 0 0 1 2.544-3.093c.166-.191.689-.183.998-.096 1.981.566 3.962 1.276 6.038 1.045.933-.1 1.837-.39 2.654-.853a2.687 2.687 0 0 0 1.062-2.886 2.04 2.04 0 0 0-1.83-1.698c-1.823-.39-3.669-.701-5.499-1.044-.127 0-.254 0-.381-.064-4.754-1.06-6.489-4.528-4.611-9.064 1.753-4.196 5.89-6.875 10.411-6.744Z" fill="#fff"/>
    <path d="M88.711 34.244h5.372c1.196 0 2.377.215 3.589.304.666.047.792.374.602.964-.499 1.706-.966 3.419-1.489 5.285-2.94-.104-5.856-.056-8.716-.351a5.382 5.382 0 0 1-4.715-3.929c-1.933-5.979-1.584-11.743 1.934-17.108a11.281 11.281 0 0 1 6.552-4.6 3.009 3.009 0 0 1 3.431.989c.755.9 1.443 1.854 2.06 2.854a2.443 2.443 0 0 1-.198 2.95 20.524 20.524 0 0 1-2.203 2.391 100.036 100.036 0 0 1-4.928 4.201 3.308 3.308 0 0 0-1.434 3.292c.095.789.079 1.626.143 2.758Zm-.603-7.628c1.189-.941 2.219-1.715 3.17-2.535 1.505-1.268 1.474-1.691-.095-2.91-.103-.072-.206-.152-.317-.215a1.073 1.073 0 0 0-1.64.351 8.925 8.925 0 0 0-1.118 5.309Zm73.942 8.298h6.061c1.395 0 2.781.175 4.168.247.602 0 .753.319.634.877-.333 1.594-.634 3.189-.999 4.783a.853.853 0 0 1-.649.462c-2.567 0-5.127-.048-7.694-.072a5.28 5.28 0 0 1-4.39-2.606 14.54 14.54 0 0 1-2.377-7.055 19.1 19.1 0 0 1 .706-7.653 8.24 8.24 0 0 1 2.29-3.898 58.816 58.816 0 0 1 5.245-4.217c1.751-1.18 3.304-.964 4.841.51.832.82 1.523 1.774 2.044 2.823.793 1.593.563 2.678-.729 3.874-2.076 1.912-4.215 3.754-6.338 5.627-.405.359-.793.798-1.197 1.093-1.703 1.291-1.814 3.108-1.616 5.205Zm-.349-9.223c.206 1.028.618 1.53 1.101 1.148 1.435-1.117 2.79-2.336 4.152-3.555a.745.745 0 0 0 .072-.678c-.61-1.252-3.407-1.467-4.057-.247a26.83 26.83 0 0 0-1.268 3.3Zm-10.768-8.155v14.58c-.035.338.052.677.246.957 1.141.988 2.377 1.904 3.502 2.877a.958.958 0 0 1 .309.734 3.335 3.335 0 0 1-.578 1.188c-1.03 1.323-2.1 2.622-3.17 3.985-3.47-2.12-6.132-4.647-6.085-9.04.063-5.032.124-10.063.182-15.09v-.677c-.57 0-1.125-.04-1.679-.08-1.007-.072-1.197-.343-1.189-1.594.008-1.252.214-1.499 1.149-1.595 1.371-.119 1.497-.207 1.466-1.594a3.274 3.274 0 0 1 1.291-2.829l4.493-3.548v7.971h3.122c1.489 0 1.632.175 1.632 1.642 0 2.081 0 2.113-2.108 2.153-.808-.032-1.6-.04-2.583-.04Zm33.714 17.809-4.476 4.782a363.204 363.204 0 0 1-4.58-4.416.704.704 0 0 1 0-.653c1.482-2.503 1.585-5.27 1.585-8.052v-7.365a1.714 1.714 0 0 1 .792-1.595c1.117-.797 2.187-1.713 3.534-2.782a25.82 25.82 0 0 1 .792 3.595c.167 2.503.182 5.022.254 7.542v2.295a9.605 9.605 0 0 0 2.099 6.649Zm-8.509-26.617a3.51 3.51 0 0 1 4.595-.089c.903.662 1.862 1.26 2.805 1.898-1.03 1.212-2.131 1.53-3.256.869-1.427-.821-2.758-1.77-4.144-2.678Z" fill="#fff"/>
</svg>
