<svg data-name="Warstwa 1" xmlns="http://www.w3.org/2000/svg" viewBox="0 0 239.69 100.08">
    <path d="M239.69 82.76h-10.74l-.1-1.31c-4.32 1.52-8.77.72-13.17.78a9.22 9.22 0 0 1-8.75-5.16 8.5 8.5 0 0 0-1.69-1.76 8.8 8.8 0 0 1-2.76-6.66V25.81a9.24 9.24 0 0 1 8.24-9.46 85.26 85.26 0 0 1 10.73-.28 62 62 0 0 1 7.46.47c2.58.32 4.36 2 5.86 4a17.22 17.22 0 0 0 1.92 2.17 11.88 11.88 0 0 1 3 5.06v17h-3.28v2.64h3.28Zm-4.56-5.14v-33h-17.68v8.45h9v15.25H212.3V26.03h14.25v13.55h8.61c0-.42.06-.77.06-1.13V26.34c0-5.11-3.38-8.78-8.5-9-4.75-.2-9.52-.23-14.27 0-5.67.23-8.94 3.88-8.94 9.59v41c0 4.94 2.82 8.49 7.75 9.07a63.45 63.45 0 0 0 10.41.08c1.37-.06 2.7-.84 4.05-1.3.24-.08.47-.2.86-.37v2.25Zm-9.6-46.38h-8.55v12.1h11.83v-2.58h-3.28Zm-8.59 36.07h8.53v-9h-5.75v-4h-2.78Zm-65.81 32.77v-8.7l-.21-.06-3.11 4.93-.2-.07V65.33l-.26-.1-6 9.43-.23-.07v-8.54l-.25-.1-3 4.75c-.07-.51-.14-.76-.14-1V16.79a3.19 3.19 0 0 1 .66-1.53c2.4-3.58 4.82-7.15 7.23-10.71L148.74 0h.48v8.43l3.33-4.78v20.66l.27.07 5.25-8.21.23.07v8.52l.25.09 3-4.68a3.7 3.7 0 0 1 .14.7v62.24a5.72 5.72 0 0 1-1.17 2.6c-2.75 4.42-5.54 8.81-8.31 13.22a10.89 10.89 0 0 0-.55 1.14Zm-12.37-33.49.23.07 9.51-15.12.3.14v40.61c.27-.34.39-.48.49-.63 2.51-4 5-8 7.5-12a3.53 3.53 0 0 0 .41-1.7V21.32c0-.37 0-.74-.09-1.48-3.1 4.86-6 9.4-8.87 13.94l-.29-.11V3.38c-.4.52-.61.78-.81 1.06-2.57 3.76-5.17 7.5-7.7 11.29a4.26 4.26 0 0 0-.67 2.19v47.52ZM85.85 0v8.76l3.34-4.82h.24v20.32l.26.07 5.24-8.22.24.08v8.57l.25.09 3-4.68a3.7 3.7 0 0 1 .14.7V83.1a5.72 5.72 0 0 1-1.17 2.6c-2.9 4.65-5.83 9.27-8.76 13.9-.1.16-.22.31-.34.47h-.24v-8.7l-.22-.07-3.09 4.85-.22-.08V65.34l-.27-.11-6 9.43-.23-.06v-8.54l-.26-.1-2.93 4.53-.26-.11V17.04a3.22 3.22 0 0 1 .51-1.74c3.48-5.12 7-10.2 10.51-15.3Zm-.2 92h.25c2.52-4 5.07-8 7.55-12.07a4.23 4.23 0 0 0 .6-2.11V21.31c0-.38 0-.75-.06-1.13l-.22-.06-8.65 13.64-.31-.09V3.31c-3.09 4.5-6 8.66-8.81 12.86a2.77 2.77 0 0 0-.35 1.46v48c0 .33 0 .66.09 1.25l9.65-15.34.27.12Zm-44.71-9.24v-4h-3.57V26.54c0-5.28 2.87-9.47 8.76-10.16a82.08 82.08 0 0 1 9.55-.27c2.55 0 5.13-.27 7.63.68a10 10 0 0 1 5.55 4.65 9 9 0 0 0 1.93 2 8.14 8.14 0 0 1 2.54 6c.06 17.51 0 35 0 52.54v.68H62.11v-4h-3.34v-19.4h-7.45v23.5Zm27.83-5V26.28c0-4.81-3.29-8.65-8.07-8.9a136.59 136.59 0 0 0-14 0c-4.78.24-8.07 4.07-8.07 8.89v51.35h8.11V54.09h8.41v-8.55h-8.34V26.03h13v51.64ZM58.61 48.42V31.26h-7.28v13.18h5v4ZM13.89 82.76H3.32v-4H0V16.08h16.54a16.52 16.52 0 0 1 10.17 3.11 18.13 18.13 0 0 1 2.61 2.42c1.52 1.73 3 3.48 4.37 5.34a12.06 12.06 0 0 1 2.24 7.18v11.76c0 6.06-2.68 10.42-8.09 13.13-.25.12-.51.22-.75.34s-.27.16-.43.26c3.08 7.66 6.17 15.32 9.3 23.09h-10.7c-.32-.76-.72-1.53-1-2.34-.31-1.05-.64-1.93-2-1.71-.21 0-.63-.49-.77-.83-1.6-3.86-3.17-7.74-4.74-11.61-.9-2.24-1.76-4.49-2.85-6.7Zm-.47-36.86v8.73a1.57 1.57 0 0 0 .18.57q4.38 10.92 8.78 21.84a1.22 1.22 0 0 0 .8.67c2.51.05 5 0 7.66 0-3.09-7.71-6.13-15.27-9.19-22.89l1.3-.53a12.75 12.75 0 0 0 8.37-12.35V30.19a12.84 12.84 0 0 0-.38-3 13.5 13.5 0 0 0-12.6-9.87c-5.63-.22-11.27-.09-16.91-.11a1.28 1.28 0 0 0-.42.13v60.32H9.2V25.95h7.78c3.33 0 5.19 1.32 5.53 4.65a88.41 88.41 0 0 1 .1 10.16 6.7 6.7 0 0 1-.82 2.59 4.14 4.14 0 0 1-4.12 2.53c-1.34-.02-2.7 0-4.25 0Zm.51-14.62v13.38h3.3c2.53 0 4.16-1.34 4.27-3.85.13-3.15 0-6.31 0-9.53Zm149.53-15.2h10a1.52 1.52 0 0 1 1 .73 8.26 8.26 0 0 1 .77 1.95c.29 1 .72 1.62 1.9 1.4.22 0 .64.29.75.54q3.54 8.68 7.05 17.38a25.82 25.82 0 0 0 1.64 3.4V16.15h11.25v4h3.35v62.61h-10.06a1.3 1.3 0 0 1-1-.54c-.54-1.12-.95-2.3-1.45-3.56-1.69.53-2-.6-2.54-1.87-2.09-5.23-4.29-10.41-6.44-15.62a28.85 28.85 0 0 0-1.66-3.58v25.17h-11.27v-4h-3.29Zm24.22 1.21v34a2.56 2.56 0 0 1-.77-1.08l-12-29.31c-.48-1.18-.7-2.8-1.59-3.38s-2.53-.24-3.84-.26h-5v60.4h9V43.48a2.3 2.3 0 0 1 .69 1l3 7.29q5.12 12.5 10.27 25c.15.38.54.93.83.93 2.79.07 5.58 0 8.39 0V17.29Zm-69.75 50.63h14.2v4h3.3v10.84h-32.26v-4h-3.64c0-2.11.12-4.1 0-6.08a14 14 0 0 1 1.8-7.68c5.37-10.5 10.58-21.08 15.85-31.63.32-.65.57-1.35.91-2.17h-13.96v-4h-3.52v-11h32.52v4h3.4v1.34a39.65 39.65 0 0 0 0 4.08c.37 3.44-.66 6.44-2.22 9.49-5.42 10.6-10.64 21.3-15.94 32-.14.11-.24.36-.44.81Zm4.13-42c-.33.71-.54 1.21-.78 1.69l-20 40.27a3.24 3.24 0 0 0-.47 1.21v8.55h30.18v-8.76h-20.38c.25-.53.4-.89.58-1.24q10.11-20.34 20.24-40.69a2.82 2.82 0 0 0 .44-1.09v-8.54h-30.1v8.6Z" fill="#fff"/>
</svg>
