<svg viewBox="0 0 264 27" xmlns="http://www.w3.org/2000/svg">
    <path style="fill:#fff" d="M0 0h31.857v11.103H11.16v13.47h20.697v11.454H11.16v23.937H0zm68.085 59.964H57.234v-9.333H36.21l-6.228 9.333H17.205L59.247 0h8.838v59.964ZM57.234 39.3V21.804L44.394 39.3h12.84ZM72.336 0h12.588l17.748 40.308L120.546 0h12.714v59.964h-11.202V29.733L108.21 59.964H96.882L83.541 29.733v30.231H72.336zM342.15 0h12.588l17.748 40.308L390.36 0h12.714v59.964h-11.202V29.733l-13.848 30.231h-11.328l-13.344-30.231v30.231H342.15zM136.794 0h11.595v59.964h-11.595zm14.79 0h11.592v49.035h15.108v10.929h-26.7zm13.818 0h12.882l12.183 24.573L202.296 0h12.765l-19.209 38.142v21.822h-11.241V38.142zm112.68 16.539C272.991 6.837 262.818.219 251.103.219c-16.818 0-30.45 13.635-30.45 30.453 0 16.815 13.632 30.45 30.45 30.45 11.799 0 22.032-6.711 27.087-16.527l-13.797.114a19.033 19.033 0 0 1-12.939 5.052c-10.542 0-19.089-8.547-19.089-19.092 0-10.545 8.547-19.089 19.089-19.089 4.92 0 9.408 1.863 12.795 4.92l13.833.039Z" transform="scale(.44 .43872)"/>
    <path d="M308.214 61.281c-16.905 0-30.609-13.704-30.609-30.609 0-16.908 13.704-30.612 30.609-30.612s30.612 13.704 30.612 30.612c0 16.905-13.707 30.609-30.612 30.609Zm19.485-30.609c0-10.698-8.673-19.368-19.368-19.368-10.695 0-19.368 8.67-19.368 19.368 0 10.695 8.673 19.365 19.368 19.365 10.695 0 19.368-8.67 19.368-19.365ZM426.957.006c10.146.816 18.126 9.312 18.126 19.668s-7.98 18.852-18.126 19.665l-8.766-.039v20.664H406.95V0h11.241l8.766.006Zm-8.766 11.535v16.266l8.766-.009a8.263 8.263 0 0 0 6.738-8.124 8.265 8.265 0 0 0-6.738-8.124l-8.766-.009Zm150.42 49.203h-11.124V.516l15.459-.021 8.763.006c10.146.816 18.129 9.309 18.129 19.668 0 8.463-5.328 15.681-12.813 18.483L600 60.744h-12.18l-18.183-31.065h-1.026v31.065Zm13.101-32.451a8.268 8.268 0 0 0 0-16.251h-13.101v16.26l13.101-.009ZM459.738 34.65l.006 8.766a8.268 8.268 0 0 0 16.251 0l.009-8.766.027-34.134h11.514V34.65l-.009 8.766c-.816 10.146-9.309 18.126-19.668 18.126-10.356 0-18.849-7.98-19.665-18.126l.042-8.766-.021-34.134h11.553l-.039 34.134Zm39.306 26.094h11.361V11.868h10.188V.516h-31.386v11.352h9.837zm55.515 0h-31.212V.516h31.212v11.025h-20.028v14.301h20.028v11.244h-20.028V49.62h20.028z" style="fill:#fff" transform="scale(.44 .43872)"/>
</svg>
