<?xml version="1.0" encoding="UTF-8"?>
<svg width="632px" height="65px" viewBox="0 0 632 65" version="1.1" xmlns="http://www.w3.org/2000/svg" xmlns:xlink="http://www.w3.org/1999/xlink">
    <title>famicom</title>
    <g id="Page-1" stroke="none" stroke-width="1" fill="none" fill-rule="evenodd" opacity="0.78">
        <g id="Nintendo-Famicom" transform="translate(-4.000000, -27.000000)" fill="#FFFFFF" fill-rule="nonzero">
            <g id="famicom" transform="translate(4.000000, 27.000000)">
                <path d="M0,0 L33.5899239,0 L33.5899239,11.8074507 L11.7670701,11.8074507 L11.7670701,26.1320801 L33.5899239,26.1320801 L33.5899239,38.3128006 L11.7670701,38.3128006 L11.7670701,63.7685285 L0,63.7685285 L0,0 Z M71.788617,63.7685285 L60.3473556,63.7685285 L60.3473556,53.8433788 L38.1797139,53.8433788 L31.6129296,63.7685285 L18.1408997,63.7685285 L62.4698567,0 L71.788617,0 L71.788617,63.7685285 Z M60.3473556,41.7934623 L60.3473556,23.1873957 L46.8088986,41.7934623 L60.3473556,41.7934623 L60.3473556,41.7934623 Z M76.2708585,0 L89.5436074,0 L108.257045,42.8654167 L127.103336,0 L140.508939,0 L140.508939,63.7685285 L128.697584,63.7685285 L128.697584,31.619466 L114.096295,63.7685285 L102.152086,63.7685285 L88.0853764,31.619466 L88.0853764,63.7685285 L76.2708585,63.7685285 L76.2708585,0 Z M360.76192,0 L374.034669,0 L392.748106,42.8654167 L411.594397,0 L425,0 L425,63.7685285 L413.188645,63.7685285 L413.188645,31.619466 L398.587356,63.7685285 L386.643147,63.7685285 L372.573274,31.619466 L372.573274,63.7685285 L360.76192,63.7685285 L360.76192,0 Z M144.235178,0 L156.46091,0 L156.46091,63.7685285 L144.235178,63.7685285 L144.235178,0 Z M159.829709,0 L172.052278,0 L172.052278,52.1461176 L187.982108,52.1461176 L187.982108,63.7685285 L159.829709,63.7685285 L159.829709,0 Z M174.399366,0 L187.982108,0 L200.827826,26.1320801 L213.300287,0 L226.759664,0 L206.505753,40.5619908 L206.505753,63.7685285 L194.653277,63.7685285 L194.653277,40.5619908 L174.399366,0 Z M293.208815,17.5883479 C287.84088,7.2707863 277.1145,0.232894866 264.76224,0.232894866 C247.029392,0.232894866 232.655852,14.732993 232.655852,32.6180426 C232.655852,50.4999018 247.029392,65 264.76224,65 C277.203069,65 287.992713,57.863208 293.32269,47.4244135 L278.775175,47.5456464 C275.061001,51.0059761 270.188616,52.9247149 265.132333,52.91818 C254.01688,52.91818 245.004949,43.8288996 245.004949,32.6148523 C245.004949,21.4008049 254.01688,12.3147148 265.132333,12.3147148 C270.319966,12.3147148 275.0521,14.2959164 278.623342,17.5468735 L293.208815,17.5883479 Z" id="Shape"></path>
                <path d="M324.280463,64.7243346 C306.452333,64.7243346 292,50.2503169 292,32.3954373 C292,14.5373891 306.452333,0.0633713561 324.280463,0.0633713561 C342.108593,0.0633713561 356.564091,14.5373891 356.564091,32.3954373 C356.564091,50.2503169 342.108593,64.7243346 324.280463,64.7243346 Z M344.829479,32.3954373 C344.829479,21.0963245 335.682873,11.9391635 324.403852,11.9391635 C313.124831,11.9391635 303.978225,21.0963245 303.978225,32.3954373 C303.978225,43.6913815 313.124831,52.8485425 324.403852,52.8485425 C335.682873,52.8485425 344.829479,43.6913815 344.829479,32.3954373 Z M449.507654,0.00633713561 C460.207696,0.868187579 468.623459,9.84157161 468.623459,20.7794677 C468.623459,31.7173638 460.207696,40.6907478 449.507654,41.5494297 L440.262969,41.5082383 L440.262969,63.3333333 L428.408133,63.3333333 L428.408133,0 L440.262969,0 L449.507654,0.00633713561 Z M440.262969,12.1894804 L440.262969,29.369455 L449.507654,29.3599493 C453.629297,28.5848118 456.615089,24.9794433 456.613596,20.7794677 C456.614247,16.5797963 453.628843,12.9748963 449.507654,12.1989861 L440.262969,12.1894804 L440.262969,12.1894804 Z M598.896943,64.157161 L587.165496,64.157161 L587.165496,0.544993663 L603.468664,0.522813688 L612.710185,0.529150824 C623.410227,1.39100127 631.829154,10.3612167 631.829154,21.3022814 C631.829154,30.2408112 626.210208,37.8643853 618.316475,40.8238276 L632,64.157161 L619.154888,64.157161 L599.97897,31.3466413 L598.896943,31.3466413 L598.896943,64.157161 L598.896943,64.157161 Z M612.713349,29.882763 C616.835104,29.1062897 619.820954,25.5010301 619.820954,21.3006971 C619.820954,17.1003641 616.835104,13.4951045 612.713349,12.7186312 L598.896943,12.7186312 L598.896943,29.8922687 L612.713349,29.882763 L612.713349,29.882763 Z M484.078723,36.5969582 L484.085051,45.8555133 C484.860361,49.983453 488.460219,52.9737833 492.65426,52.9737833 C496.8483,52.9737833 500.448158,49.983453 501.223468,45.8555133 L501.23296,36.5969582 L501.261434,0.544993663 L513.404178,0.544993663 L513.404178,36.5969582 L513.394687,45.8555133 C512.534127,56.5716096 503.577351,65 492.652678,65 C481.731168,65 472.774392,56.5716096 471.913832,45.8555133 L471.958126,36.5969582 L471.935979,0.544993663 L484.119853,0.544993663 L484.078723,36.5969582 L484.078723,36.5969582 Z M525.531103,64.157161 L537.512492,64.157161 L537.512492,12.5348542 L548.256828,12.5348542 L548.256828,0.544993663 L515.156935,0.544993663 L515.156935,12.5348542 L525.531103,12.5348542 L525.531103,64.157161 Z M584.077607,64.157161 L551.161215,64.157161 L551.161215,0.544993663 L584.077607,0.544993663 L584.077607,12.1894804 L562.955939,12.1894804 L562.955939,27.2940431 L584.077607,27.2940431 L584.077607,39.1698352 L562.955939,39.1698352 L562.955939,52.4081115 L584.077607,52.4081115 L584.077607,64.157161 Z" id="Shape"></path>
            </g>
        </g>
    </g>
</svg>