<svg viewBox="0 0 264 82" xmlns="http://www.w3.org/2000/svg">
    <path d="M0 0h20.696C39.08 0 41.481.023 42.181.203c3.134.807 5.905 3.647 7.106 7.287.252.761.274 1.116.274 4.554v3.728H33.674l-6.333-1.996C10.87 8.585 2.054 5.823 1.073 5.544L0 5.239V0Zm16.687 11.184c.225.078 3.294 1.047 7.833 2.471 2.146.674 4.269 1.342 4.716 1.487l.813.263v6.485l-.001 6.486h4.358l-.037 1.356c-.052 1.983-.252 5.918-.339 6.793.088-.849.297-4.548.342-6.15.017-.602.047 1.204.067 4.011.019 2.809.007 5.18-.027 5.268-.049.129-2.542.162-11.908.162H10.659l.012-3.022.013-3.022.542-.242c.297-.134.586-.227.641-.21.055.018.101-.029.101-.104 0-.076.058-.101.129-.057.072.044.131.014.131-.065s.058-.109.13-.064c.071.043.129.02.129-.054 0-.072.098-.095.217-.05a.305.305 0 0 0 .123.029c-.154.136-.442.317-.834.514.873-.437 1.21-.658.911-.59a.568.568 0 0 1-.049.05.082.082 0 0 0-.009-.036l-.066.019c-.068.019-.047-.006.041-.063-.048-.08-.058-.142-.024-.142.099 0 .149.022.157.06l.221-.123c.343-.185.688-.295.768-.245.096.057.109.03.039-.083-.078-.125-.046-.148.117-.086.129.049.191.034.146-.038-.042-.069.443-.384 1.078-.701l1.154-.575-.003-.373c-.011.215-.028.349-.048.37-.056.056-.072-.842-.036-1.994l.063-2.055-.034-5.708c-.031-5.368-.02-9.819.026-9.893a.213.213 0 0 1 .242-.079Zm14.789 5.751h18.085v10.084l-9.008-.033-9.009-.032-.034-5.009-.034-5.01ZM51.121 0h23.805v5.885l-5.849 2.903-.035 3.372-.034 3.372-1.366.433c-.751.238-2.508.79-3.902 1.228a671.345 671.345 0 0 0-5.303 1.691c-1.52.492-2.831.895-2.913.895-.11 0-.131-1.093-.077-4.201l.072-4.202h-4.398V0Zm17.854 16.94c.054-.003.098 2.569.098 5.716l-.001 5.72 2.226-.039 2.225-.038-.08 1.396-.012.211.033 4.739c.019 2.666.006 4.92-.028 5.009-.049.129-2.533.162-11.908.162H49.683l.013-3.022.012-3.022.542-.242c.297-.134.586-.227.641-.21.055.018.101-.029.101-.104 0-.076.058-.101.129-.057.072.044.131.014.131-.065s.053-.111.119-.071c.065.04.142.003.171-.083.039-.118.075-.119.146-.006.043.07-.086.196-.374.369.263-.156.428-.282.405-.319-.089-.144 1.34-.819 1.512-.712.08.048.105.027.057-.05-.05-.08.409-.39 1.105-.747l1.19-.611-.052-4.852-.052-4.852 3.837-1.192a956.758 956.758 0 0 0 6.7-2.108c1.574-.502 2.906-.917 2.959-.92ZM76.487 0l11.935.003 11.935.003 1.366 1.322c.752.727 2.566 2.456 4.033 3.842a592.188 592.188 0 0 1 4.292 4.098l1.626 1.579-.001.308c.008-.013.017.005.028.058.03.159.031.45.001.646-.012.078-.023.105-.032.085l-.023 6.187c.01-.353.02-.55.029-.55.035 0 .063 2.677.063 5.947 0 3.271-.044 5.946-.098 5.946-.032 0-.054-.95-.064-2.411-.026 1.452-.057 2.272-.091 2.26-.065-.024-.784-.683-1.595-1.464a397.022 397.022 0 0 0-2.714-2.586c-3.244-3.054-6.45-6.091-7.926-7.511-.894-.86-2.006-1.917-2.471-2.348l-.846-.785-.034 4.061c-.023 2.675-.08 4.062-.168 4.062-.074 0-.849-.229-1.722-.509a983.859 983.859 0 0 0-10.611-3.315l-1.219-.362.052-4.863.052-4.861-2.899-1.47-2.898-1.471V0Zm8.586 20.8c.894.29 3.689 1.178 6.211 1.973l4.585 1.446v2.632L91.544 25.5a951.37 951.37 0 0 0-6.797-2.099l-2.471-.747-.038-1.202c-.021-.661-.01-1.273.025-1.362.069-.18.051-.184 2.81.71Zm-1.874 3.25c.422.145 3.285 1.05 6.361 2.011 3.077.96 5.759 1.811 5.96 1.888l.367.142-.061 2.017a139.13 139.13 0 0 1-.084 2.237c.062-.137.103 1.165.112 3.497l.015 3.976-13.593-.066-.005-6.722c-.004-5.644.01-6.163.085-3.232.082 3.203.143 4.99.267 5.979-.017-.21-.033-.456-.051-.744-.135-2.121-.368-10.877-.296-11.086.071-.202.015-.208.923.103ZM113.04 0h13.53l-.049 16.45c-.025 8.432-.065 13.666-.14 16.718a.583.583 0 0 1 .009-.042c.158-.585.178-.223.178 3.2v3.49H113.04l.002-3.264c.001-1.883.055-3.345.128-3.458-.082.127-.127-5.656-.128-16.45L113.04 0Zm15.05 0h24.624v6.443l2.894 1.486 2.895 1.486.038.98.038.981h-10.938v5.687c0 3.915-.043 5.689-.138 5.689-.075 0-2.636-.782-5.69-1.738-3.055-.955-6.066-1.89-6.692-2.076l-1.138-.338V8.792l-2.862-1.423-2.862-1.423V4.35c0-.877-.038-2.215-.084-2.973L128.09 0Zm6.12 19.967c.126.049 2.247.729 4.716 1.511 2.468.783 5.423 1.724 6.566 2.092l2.079.669-.033 3.62c-.029 3.149-.188 7.126-.33 8.438.145-1.3.308-5.042.334-7.873.018-1.804.047-.051.067 3.894.019 3.947.007 7.248-.028 7.336-.048.127-1.535.162-6.83.162h-6.768l.002-3.587c.001-2.423.063-3.757.14-3.731-.011-.031-.021-.04-.031-.025-.059.093-.108-2.703-.109-6.212-.002-6.024.011-6.375.225-6.294ZM154.145 0h19.39l-.049 15.998c-.025 8.201-.073 13.649-.156 16.915.057-.996.112-1.717.139-1.743.034-.033.047 1.883.027 4.26l-.034 4.322-13.593.066.025-6.108c.021-5.186.033-5.764.107-3.613-.012-.748-.02-1.567-.023-2.4l-.009-2.527-.004.07c-.026.374-.048.069-.048-.677 0-.747.022-1.053.048-.681l-.004-1.13h-10.889v-3.619h10.797v-2.436c0-1.34.035-3.651.079-5.138l.079-2.703-2.941-1.474-2.941-1.473V0Zm20.941 0h13.531v9.885c0 7.851-.034 9.875-.163 9.832-.09-.03-2.797-.875-6.016-1.878-3.22-1.004-6.176-1.928-6.569-2.054l-.716-.229-.033-7.779L175.086 0Zm-.002 16.928.299.075c.164.042 3.195.991 6.734 2.11l6.435 2.035.033 4.939.035 4.938h14.182l-6.069-.032-6.621-.034 6.688-.031 6.686-.032-.092 4.359c-.05 2.397-.109 4.377-.131 4.397-.021.022-6.37.078-14.107.124l-14.068.083.009-3.803c.005-2.243.055-3.696.121-3.544a.892.892 0 0 1 .04.179 373.737 373.737 0 0 1-.123-8.035l-.051-7.728Zm28.649 55.246c.551.169 4.319 1.365 5.341 1.695l1.007.326v.571c0 .739.167.756-3.512-.39l-3.056-.954-.04-.669c-.038-.646-.03-.667.26-.579Zm2.671-9.765h5.696l2.763 2.611 2.763 2.61v9.048l-.357-.33c-.197-.181-1.875-1.763-3.729-3.515-1.853-1.752-3.387-3.169-3.408-3.148-.021.021-.05.864-.064 1.875-.02 1.409-.065 1.838-.195 1.838-.093 0-.889-.227-1.769-.504a829.53 829.53 0 0 0-3.128-.976l-1.529-.474V66.74l-1.398-.71-1.398-.712-.038-1.284c-.021-.705-.008-1.359.029-1.454.053-.138 1.161-.171 5.762-.171Zm-2.957 11.523.944.308c.518.168 1.982.633 3.252 1.032l2.309.724v5.675h-6.505v-7.739Zm14.829-11.523h6.635v19.262h-6.635V62.409Zm7.415 7.757h13.528v1.68h-13.528v-1.68Zm0 2.198h13.528v1.68h-7.024v7.627h-6.504v-9.307Zm13.528 4.395h4.163v4.912h-10.666v-3.878h6.503v-1.034Zm-6.503-14.35h10.666v4.913h-4.163v-1.034h-6.503v-3.879Zm-7.025 0h6.504v7.369h-6.504v-7.369Zm18.468-.001 9.921.033 9.92.033-.004 7.523c-.002 4.138-.034 7.554-.072 7.592-.037.036-1.499-.383-3.248-.933l-3.18-.998-.069-7.819h-6.63v2.845c0 1.564-.044 2.842-.098 2.842-.053-.001-1.531-.453-3.285-1.005l-3.187-1.005-.034-4.553-.034-4.555Zm.152 9.826c.163 0 6.205 1.912 6.378 2.018.059.036.108.528.108 1.093v1.026l3.349.002 3.35.003 3.187 1.008 3.187 1.009.036 1.627.036 1.629-9.077.044c-4.992.023-9.442.023-9.889-.001l-.814-.044v-4.706c0-3.436.04-4.708.149-4.708ZM8.06 42.014h23.421l-.033 7.594-.033 7.596-6.795.033-6.794.033-.035-2.867-.035-2.868-4.032-1.26-4.814-1.504-.78-.243-.035-3.258-.035-3.256Zm24.46 0h8.753c9.633 0 9.678.004 10.914.791.851.543 1.494 1.292 1.974 2.295l.408.856.074 15.449H17.821v-3.378l3.089.09c.789.024 2.441.035 4.513.036-.627-.003-1.215-.007-1.716-.012-1.842-.021-.335-.037 3.349-.037 3.168 0 4.726.012 3.932.028.87-.006 1.747-.014 2.613-.022l9.601-.098-.04-3.313c-.061-4.97.329-4.67-6.084-4.67H32.52v-8.015ZM17.821 62.403l1.073.081c.117.009.538.018 1.212.026.096-.012.508-.019 1.162-.019.986 0 1.451.017 1.121.039 3.406.021 8.92.036 14.931.037l17.353.001-.09 3.911-.03 1.31c.013-.266.029-.167.049.273.161 3.654-.037 9.825-.339 10.573-.422 1.046-1.502 2.171-2.597 2.708l-.864.422-18.282.072v-7.764h4.565c5.444 0 5.651-.051 5.975-1.483l.089-.391.073.265c.05-.69.008-1.638-.009-2.947l-.042-3.458H31.415c.035 0 .065 3.548.065 7.885v7.886H14.699v-5.917l1.528-.778 1.529-.777.078-1.437c.032-.593.068-1.006.102-1.243-.049-.206-.092-2.06-.1-4.441l-.015-4.834Zm38.553-.222c.04 0 1.466.44 3.167.98l6.67 2.109 3.577 1.132-.03 2.221-.026 1.917.016-.506.024-.808.047.742.047.742 6.985.035 6.986.034-7.057.032-7.052.031 7.054.004 7.055.004 1.461.494c.804.271 1.429.525 1.389.564-.039.04.006.068.1.064.505-.022.765.045.684.177-.061.097.004.113.203.05.213-.067.266-.049.195.065-.07.114-.017.132.195.064.22-.069.267-.05.19.073a.418.418 0 0 0-.032.064c.009-.014.023-.03.039-.049.144-.156.714-.062.714.118 0 .06.088.076.195.035.107-.041.195-.012.195.064 0 .077.088.107.195.065.107-.041.195-.015.195.057 0 .072.109.103.241.068a.5.5 0 0 1 .424.12.6.6 0 0 0 .183.124c.035-.015.053-.009.047.015.032.008.06.01.082.003.071-.022 1.563.413 3.316.968l3.187 1.007.034 3.45.035 3.449H56.195l.026-9.921c.025-9.688.028-9.79.119-4.299.063 3.792.111 6.129.198 7.565-.078-1.414-.116-3.704-.164-7.403-.041-3.146-.041-5.72 0-5.72Zm-.179-20.038h13.658V53.52c0 8.792-.035 11.375-.157 11.375-.086 0-2.208-.644-4.715-1.432-5.12-1.608-8.22-2.576-8.559-2.671-.213-.06-.227-.617-.227-9.356v-9.293Zm27.446 0h13.702l-.088 15.028c-.015 2.577-.027 4.741-.039 6.558l.019-1.613.034 5.676c.018 3.121.009 5.7-.021 5.73-.091.091-1.509-.392-1.509-.514 0-.061-.056-.078-.124-.037-.23.141-.824-.077-.65-.238a.298.298 0 0 1 .028-.025l-.051.013c-.198.063-.248.044-.179-.07.071-.113.018-.131-.194-.064-.213.066-.267.049-.196-.065.071-.112.02-.132-.178-.069-.161.05-.277.03-.277-.047 0-.074-.088-.1-.195-.06-.107.041-.195.007-.195-.076s-.053-.119-.118-.079c-.064.04-1.894-.476-4.065-1.147-2.171-.67-4.328-1.332-4.793-1.471l-.845-.252-.066-27.178Zm15.22 0h20.353c20.272 0 20.355.002 21.073.268 1.436.534 2.543 1.694 3.053 3.197.264.778.447 18.641.191 18.641-.07 0-2.979-.918-8.117-2.564a570.292 570.292 0 0 0-8.423-2.6c-.839-.245-.943-.312-.943-.594v-.318h3.902v-3.328c0-5.107.503-4.738-6.536-4.79l-5.171-.037v8.537c0 4.696-.044 8.537-.097 8.535-.054-.001-1.181-.343-2.505-.758-1.323-.417-4.221-1.32-6.438-2.008-2.219-.687-4.168-1.306-4.333-1.374l-.3-.124.04-5.926.04-5.927-2.895-1.474-2.894-1.474v-5.882Zm5.739 21.823.285.078c.157.043 3.212 1.004 6.789 2.135l6.504 2.055-.008 1.724c-.003.641-.024 1.5-.056 2.421.053.266.101 1.78.11 4.295l.019 5.121-6.732.065c-3.702.036-6.775.04-6.829.01-.054-.031-.086-3.528-.07-7.772.014-4.13.025-5.921.05-5.954l-.062-4.178Zm14.681-5.793h.617c.577 0 4.155 1.055 10.508 3.098 1.072.346 3.648 1.162 5.723 1.815 2.075.653 4.095 1.29 4.488 1.415l.715.227v2.12c0 .625-.007 1.489-.019 2.354.046-.623.085.091.085 2.118 0 1.101-.032 1.996-.077 2.236.015.027.031.036.05.033.086-.018.156.032.156.112 0 .071.09.105.211.087-.281-.139-.308-.231-.015-.231.107 0 .195.043.195.096 0 .054.159.106.353.117.195.012.376.085.402.163.009.028.024.05.042.066l.009-.006c.075-.047.103-.033.071.029a.103.103 0 0 0 .034-.013c.059-.037.259-.009.444.061l.336.127v7.633l-5.886.001c-3.238 0-6.809.038-7.935.085l-2.049.084v-4.077c0-2.242.044-4.272.097-4.511.058-.263.121.42.173 1.871a57.512 57.512 0 0 0-.008-.434c-.017-1.16-.068-1.75-.132-1.551-.064.199-.11-.345-.119-1.422l-.015-1.745-4.193-1.307-4.193-1.308-.035-4.671-.033-4.672Zm36.295 5.337c4.717 1.515 8.817 2.807 8.904 2.807.039 0 .072.589.072 1.309 0 1.184-.022 1.301-.228 1.241-.125-.038-1.75-.543-3.61-1.125a1835.69 1835.69 0 0 0-6.47-2.008c-1.699-.523-3.14-.983-3.203-1.022-.127-.078-.204-2.336-.086-2.526.085-.137-.066-.181 4.621 1.324Zm-4.508 2.419c.06 0 1.553.462 3.317 1.027 1.764.565 4.759 1.512 6.654 2.106l3.448 1.077-.015 1.289a67.257 67.257 0 0 1-.045 1.698c.056-.102.099 1.478.109 4.066l.016 4.604-6.732.063c-3.702.035-6.775.04-6.829.01-.054-.03-.085-3.585-.07-7.9.019-5.345.03-6.89.067-5.794.007-1.324.036-2.246.08-2.246Zm-5.899-23.786 23.871.013 1.85 1.771c1.018.975 3.545 3.371 5.615 5.326l3.764 3.555.011 9.357.011 9.279.002-.001-.002.098-.064-.059.016-.004-.57-.514c-.287-.259-.954-.879-1.776-1.647.123.138.193.232.169.232-.036 0-.264-.203-.506-.452-.229-.235-.393-.43-.381-.452a696.576 696.576 0 0 1-3.846-3.629l-.829-.788c.078.092.118.15.099.15-.036 0-.264-.204-.507-.452-.218-.225-.377-.412-.381-.446a1210.54 1210.54 0 0 1-4.692-4.452l-2.406-2.293-.035 4.08c-.019 2.244-.068 4.08-.109 4.08-.042 0-2.69-.818-5.885-1.819a5247.3 5247.3 0 0 0-6.719-2.1l-.911-.282v-9.776l-5.787-2.893-.001-2.941-.001-2.941Zm36.553 0h13.531l-.048 15.998c-.023 7.674-.067 13.029-.136 16.42a1.22 1.22 0 0 1 .019-.116c.054-.239.113 1.304.132 3.43.019 2.125.019 3.879 0 3.894-.019.016-3.063.056-6.766.089l-6.732.059v-3.72c0-2.341.049-3.75.131-3.801-.087.054-.131-5.341-.131-16.086V42.143Z" style="fill:#fff"/>
</svg>
