<svg version="1.2" viewBox="0 0 264 47" xmlns="http://www.w3.org/2000/svg">
    <g transform="scale(.44 .44064)">
        <path d="M170.924 37.234c1.758 1.215 3.075 2.535 3.954 3.951.945 1.692 1.521 3.582 1.722 5.677v46.726c0 2.839-.522 5.053-1.569 6.64-1.047 1.587-2.214 2.853-3.498 3.801-1.485 1.08-3.177 1.824-5.068 2.23h-31.524V35.202h28.482c3.246.138 5.746.814 7.501 2.032Zm2.232 9.424c-.204-1.486-.642-2.836-1.317-4.054-.543-1.011-1.386-1.941-2.535-2.787-1.149-.846-2.707-1.2-4.663-1.065l-26.456.102v64.161h26.861c1.419-.27 2.704-.741 3.853-1.419.945-.54 1.857-1.35 2.736-2.433.876-1.08 1.386-2.565 1.521-4.459V46.658Zm-14.902 4.107c.609.573 1.08 1.2 1.419 1.875.339.744.54 1.587.609 2.532v29.397c.066 1.69-.084 2.992-.456 3.901-.372.915-.828 1.572-1.368 1.977-.609.54-1.284.843-2.029.912h-6.081l-.201-41.659h5.472c1.15.135 2.029.489 2.635 1.065Zm-1.215 4.407c-.135-.54-.339-.978-.607-1.317-.609-.741-1.656-.945-3.144-.609v34.87c.606.201 1.182.27 1.722.201a2.306 2.306 0 0 0 1.266-.606c.376-.336.628-.981.763-1.927V55.172Zm43.687-19.663v70.548h-19.664V35.509h19.664Zm-3.447 4.056h-12.974v62.64h12.974v-62.64Zm29.294 19.055v-2.94c.066-1.351-.237-2.161-.912-2.434-.27-.132-.642-.132-1.113 0-.543 0-.93.12-1.167.357s-.39.522-.456.861c-.138.336-.138.741 0 1.216v3.852l15.608 10.138c1.959 1.08 3.462 2.229 4.512 3.444 1.047 1.218 1.773 2.367 2.178 3.448.474 1.218.711 2.499.711 3.852v15.505c-.135 2.233-.711 4.042-1.725 5.425-1.011 1.386-2.16 2.451-3.444 3.192-1.488.879-3.145 1.521-4.969 1.927h-20.474c-2.568-.066-4.578-.709-6.03-1.927-1.452-1.212-2.518-2.499-3.193-3.849-.813-1.623-1.317-3.447-1.521-5.476V72.1l18.449 11.254v3.952c0 .609.081 1.065.252 1.368.168.303.387.525.657.66.27.201.609.303 1.014.303 1.014-.069 1.59-.474 1.725-1.218.066-.267.033-.639-.102-1.113v-4.663l-13.48-8.107c-2.367-1.284-4.14-2.655-5.322-4.107-1.183-1.452-2.047-2.754-2.584-3.903-.609-1.351-.912-2.704-.912-4.054V45.851c.132-2.569.741-4.561 1.824-5.98 1.081-1.419 2.299-2.466 3.649-3.144 1.554-.741 3.276-1.182 5.169-1.317h18.143c3.108.135 5.509.711 7.198 1.725 1.689 1.011 2.973 2.16 3.852 3.444.945 1.488 1.554 3.144 1.824 4.969v25.844L226.573 58.62Zm-1.623-8.818c1.08.135 1.911.387 2.485.762.576.372 1.032.792 1.368 1.266.339.54.576 1.149.711 1.824v2.938l13.177 7.905-.204-17.329c.066-1.759-.321-3.193-1.167-4.309-.843-1.116-1.773-1.977-2.787-2.583-1.216-.744-2.602-1.218-4.156-1.422h-19.664c-1.554.138-2.772.561-3.648 1.269-.879.708-1.554 1.434-2.028 2.178a9.765 9.765 0 0 0-1.116 3.042v16.421c-.066 1.35.204 2.532.813 3.546a13.564 13.564 0 0 0 2.025 2.635c.813.879 1.791 1.656 2.94 2.331l16.625 10.744v6.589c0 1.284-.273 2.283-.813 2.991-.54.711-1.149 1.233-1.824 1.569-.745.408-1.621.678-2.635.813-1.284-.135-2.265-.42-2.94-.861-.675-.438-1.182-.927-1.521-1.47-.405-.606-.675-1.317-.81-2.13V85.28l-11.86-7.095-.201 16.621c.066 1.96.489 3.463 1.266 4.513.777 1.047 1.638 1.839 2.583 2.382 1.08.606 2.331.978 3.75 1.113h19.766c1.959-.066 3.43-.507 4.411-1.317.978-.81 1.704-1.689 2.178-2.634.54-1.149.813-2.433.813-3.853V79.907c.066-.813-.135-1.623-.609-2.436a10.579 10.579 0 0 0-1.62-2.128 25.536 25.536 0 0 0-2.433-2.13l-18.044-11.656v-7.501c.066-1.149.387-1.992.963-2.532.573-.54 1.167-.948 1.773-1.218a9.387 9.387 0 0 1 2.433-.504Zm64.468 12.265-7.297 8.41 7.297 8.92v26.66h-18.752V86.394l-2.634-2.434v22.299h-18.956V35.41h18.956v22.298l2.634-3.145V35.41h18.752v26.657Zm-3.244-22.604h-11.758l-.102 16.928-9.529 9.73-.405-27.063h-11.86v63.045h11.758V75.95l9.226 8.718v17.534h12.466v-22.4l-8.008-9.325 8.212-9.526V39.463Zm58.284 19.157v-2.94c.066-1.351-.237-2.161-.912-2.434-.27-.132-.642-.132-1.116 0-.543 0-.93.12-1.167.357a1.65 1.65 0 0 0-.456.861c-.135.336-.135.741 0 1.216v3.852l15.61 10.138c1.959 1.08 3.463 2.229 4.513 3.444 1.047 1.218 1.773 2.367 2.178 3.448.471 1.218.711 2.499.711 3.852v15.505c-.138 2.233-.711 4.042-1.725 5.425-1.014 1.386-2.163 2.451-3.448 3.192-1.485.879-3.141 1.521-4.965 1.927h-20.474c-2.568-.066-4.578-.709-6.034-1.927-1.452-1.212-2.514-2.499-3.192-3.849-.81-1.623-1.317-3.447-1.521-5.476V72.1l18.449 11.254v3.952c0 .609.084 1.065.255 1.368.165.303.387.525.657.66.27.201.609.303 1.014.303 1.014-.069 1.587-.474 1.722-1.218.069-.267.033-.639-.102-1.113v-4.663l-13.48-8.107c-2.364-1.284-4.141-2.655-5.323-4.107-1.179-1.452-2.043-2.754-2.583-3.903-.606-1.351-.912-2.704-.912-4.054V45.851c.135-2.569.744-4.561 1.827-5.98 1.08-1.419 2.298-2.466 3.648-3.144 1.555-.741 3.277-1.182 5.17-1.317h18.143c3.108.135 5.505.711 7.197 1.725 1.69 1.011 2.974 2.16 3.853 3.444.945 1.488 1.554 3.144 1.824 4.969v25.844L344.458 58.62Zm-1.623-8.818c1.08.135 1.911.387 2.484.762.573.372 1.032.792 1.368 1.266.339.54.573 1.149.711 1.824v2.938l13.175 7.905-.201-17.329c.066-1.759-.321-3.193-1.164-4.309-.847-1.116-1.777-1.977-2.791-2.583-1.215-.744-2.601-1.218-4.155-1.422h-19.664c-1.554.138-2.772.561-3.651 1.269-.877.708-1.555 1.434-2.026 2.178a9.61 9.61 0 0 0-1.113 3.042v16.421c-.069 1.35.201 2.532.81 3.546a13.413 13.413 0 0 0 2.026 2.635c.813.879 1.791 1.656 2.94 2.331l16.624 10.744v6.589c0 1.284-.273 2.283-.813 2.991-.54.711-1.146 1.233-1.824 1.569-.744.408-1.62.678-2.634.813-1.284-.135-2.265-.42-2.94-.861-.675-.438-1.182-.927-1.522-1.47-.405-.606-.678-1.317-.81-2.13V85.28l-11.86-7.095-.201 16.621c.066 1.96.489 3.463 1.266 4.513.777 1.047 1.638 1.839 2.584 2.382 1.08.606 2.331.978 3.75 1.113h19.766c1.959-.066 3.429-.507 4.41-1.317.978-.81 1.705-1.689 2.179-2.634.543-1.149.813-2.433.813-3.853V79.907c.066-.813-.138-1.623-.609-2.436a10.546 10.546 0 0 0-1.621-2.128 25.536 25.536 0 0 0-2.433-2.13l-18.044-11.656v-7.501c.066-1.149.387-1.992.964-2.532.573-.54 1.164-.948 1.773-1.218a9.335 9.335 0 0 1 2.433-.504Zm66.696-14.191V95.82c-.069 2.365-.558 4.24-1.47 5.626-.912 1.386-1.941 2.448-3.09 3.192-1.287.813-2.772 1.386-4.461 1.723h-29.901V89.13h19.055v-3.346H376.69c-2.499-.132-4.392-.741-5.676-1.824-1.284-1.08-2.196-2.298-2.737-3.648-.678-1.554-1.014-3.276-1.014-5.17V35.611h19.463v32.334h3.346V35.611h19.459Zm-3.345 3.75h-12.262v27.675c-.069.876-.306 1.653-.711 2.328-.339.609-.861 1.149-1.572 1.623-.711.474-1.74.744-3.091.81-1.014.069-1.893-.033-2.637-.303-.675-.27-1.281-.744-1.824-1.419-.54-.678-.846-1.758-.909-3.243V39.364h-11.86v35.982c.066 1.351.372 2.569.912 3.649.471.945 1.197 1.806 2.178 2.583.978.777 2.415 1.167 4.308 1.167h15.104v5.269c-.138.879-.441 1.656-.915 2.331-.405.543-1.014 1.047-1.824 1.521-.813.474-1.894.711-3.244.711h-13.582v10.033h25.848c1.149-.135 2.163-.471 3.042-1.011.741-.474 1.434-1.182 2.076-2.13.642-.945.963-2.229.963-3.853V39.361Zm29.091 19.259v-2.94c.069-1.351-.237-2.161-.912-2.434-.27-.132-.642-.132-1.113 0-.543 0-.93.12-1.167.357s-.39.522-.456.861c-.135.336-.135.741 0 1.216v3.852l15.607 10.138c1.959 1.08 3.463 2.229 4.513 3.444 1.047 1.218 1.773 2.367 2.181 3.448.471 1.218.708 2.499.708 3.852v15.505c-.135 2.233-.708 4.042-1.725 5.425-1.011 1.386-2.16 2.451-3.445 3.192-1.485.879-3.141 1.521-4.965 1.927h-20.477c-2.568-.066-4.578-.709-6.031-1.927-1.452-1.212-2.517-2.499-3.192-3.849-.81-1.623-1.317-3.447-1.521-5.476V72.1l18.449 11.254v3.952c0 .609.081 1.065.252 1.368.168.303.387.525.657.66.273.201.609.303 1.017.303 1.011-.069 1.584-.474 1.722-1.218.066-.267.033-.639-.102-1.113v-4.663l-13.48-8.107c-2.367-1.284-4.141-2.655-5.323-4.107-1.182-1.452-2.046-2.754-2.583-3.903-.609-1.351-.912-2.704-.912-4.054V45.851c.132-2.569.744-4.561 1.824-5.98 1.08-1.419 2.298-2.466 3.648-3.144 1.555-.741 3.277-1.182 5.17-1.317h18.143c3.108.135 5.508.711 7.197 1.725 1.69 1.011 2.974 2.16 3.853 3.444.945 1.488 1.554 3.144 1.824 4.969v25.844L435.277 58.62Zm-1.62-8.818c1.08.135 1.908.387 2.484.762.573.372 1.029.792 1.368 1.266.336.54.573 1.149.708 1.824v2.938l13.178 7.905-.204-17.329c.069-1.759-.321-3.193-1.164-4.309-.847-1.116-1.774-1.977-2.788-2.583-1.218-.744-2.601-1.218-4.155-1.422h-19.667c-1.554.138-2.769.561-3.648 1.269-.877.708-1.555 1.434-2.026 2.178a9.617 9.617 0 0 0-1.116 3.042v16.421c-.069 1.35.201 2.532.813 3.546a13.448 13.448 0 0 0 2.025 2.635c.811.879 1.792 1.656 2.941 2.331l16.621 10.744v6.589c0 1.284-.27 2.283-.81 2.991-.543.711-1.149 1.233-1.827 1.569-.741.408-1.62.678-2.634.813-1.284-.135-2.262-.42-2.937-.861-.678-.438-1.182-.927-1.522-1.47-.408-.606-.678-1.317-.813-2.13V85.28l-11.86-7.095-.201 16.621c.069 1.96.489 3.463 1.266 4.513.777 1.047 1.638 1.839 2.587 2.382 1.08.606 2.328.978 3.75 1.113h19.766c1.959-.066 3.429-.507 4.407-1.317.981-.81 1.707-1.689 2.182-2.634.54-1.149.81-2.433.81-3.853V79.907c.069-.813-.135-1.623-.606-2.436a10.594 10.594 0 0 0-1.624-2.128 25.172 25.172 0 0 0-2.433-2.13l-18.041-11.656v-7.501c.066-1.149.387-1.992.964-2.532.573-.54 1.164-.948 1.773-1.218a9.309 9.309 0 0 1 2.433-.504Zm61.527-13.987V54.26h-8.719v51.999h-20.474V54.26h-8.314V35.41l37.507.405Zm-3.954 3.648h-29.901v10.744h8.514v52.403h12.365v-52.1h9.022V39.463Zm27.065 14.596v8.209h12.974v18.449H517.89v7.804h13.379v18.044l-32.944-.204V35.41h33.349v18.649h-13.379Zm-3.954 11.96v-15.71h13.378V39.565h-25.643v64.059h25.643V92.373h-13.582V76.967h13.783V66.019h-13.579Zm81.899-28.026c1.35 1.116 2.298 2.28 2.838 3.498.678 1.419.981 2.973.912 4.663v60.51h-19.259V55.782c-.069-.742-.336-1.216-.81-1.42a3.449 3.449 0 0 0-.813-.102c-.405 0-.726.102-.963.306-.237.201-.42.405-.555.606-.204.27-.306.544-.306.814v50.477h-19.055V56.085c0-.742-.27-1.318-.81-1.723a2.319 2.319 0 0 0-.813-.405c-.471 0-.843.102-1.116.303-.27.204-.471.441-.606.711-.201.27-.303.606-.303 1.012v50.174h-18.449V35.509h23.618c1.486-.135 2.788-.018 3.901.354 1.116.372 2.079.828 2.889 1.368.879.609 1.689 1.32 2.433 2.13.405-.744.912-1.335 1.521-1.773a10.028 10.028 0 0 1 1.825-1.065 20.14 20.14 0 0 1 2.13-.711h15.913c2.566.339 4.528 1.068 5.878 2.181Zm.204 7.654c-.069-1.15-.339-2.164-.81-3.043-.408-.744-1.101-1.434-2.079-2.079-.981-.639-2.349-.96-4.108-.96h-13.885a7.766 7.766 0 0 0-3.039.81c-.813.405-1.642 1.014-2.485 1.824-.846.813-1.506 1.893-1.977 3.243-.543-1.281-1.182-2.397-1.926-3.345-.744-.81-1.656-1.554-2.736-2.229-1.083-.675-2.503-.978-4.258-.909l-18.953.201v63.45h11.252V55.58c-.069-.948.099-1.791.504-2.535.339-.678.897-1.284 1.674-1.824.777-.543 1.944-.813 3.498-.813.81 0 1.587.204 2.331.609.54.336 1.065.927 1.569 1.773.508.846.763 2.079.763 3.7v46.12h11.962V55.577c0-.81.201-1.587.606-2.331.336-.609.879-1.167 1.623-1.671.741-.507 1.857-.762 3.345-.762a5.44 5.44 0 0 1 2.329.303c.609.273 1.167.744 1.671 1.422.507.675.762 1.755.762 3.241v46.828h12.367v-56.96ZM135.151 0h12.413v4.326h-8.065v5.248h8.065v4.464h-8.065v9.328h-4.348zm26.529 23.366h-4.23v-3.639h-8.191l-2.427 3.639h-4.978L158.236 0h3.444v23.366Zm-4.23-8.052v-6.82l-5.002 6.82h5.002ZM163.336 0h4.906l6.915 15.707L182.121 0h4.954v23.366h-4.366V11.584l-5.394 11.782h-4.414l-5.199-11.782v11.782h-4.366zm105.131 0h4.905l6.916 15.707L287.251 0h4.957v23.366h-4.366V11.584l-5.397 11.782h-4.414l-5.199-11.782v11.782h-4.365zm-80.015 0h4.518v23.366h-4.518zm5.76 0h4.519v19.106h5.886v4.26h-10.405zm5.386 0h5.019l4.747 9.574L213.972 0h4.975l-7.483 14.86v8.506h-4.381V14.86zm43.906 6.445c-1.986-3.781-5.946-6.361-10.513-6.361-6.553 0-11.866 5.314-11.866 11.866 0 6.553 5.31 11.863 11.866 11.863 4.597 0 8.584-2.613 10.555-6.438l-5.376.045a7.439 7.439 0 0 1-12.482-5.47 7.44 7.44 0 0 1 7.438-7.441c1.92 0 3.666.727 4.987 1.921l5.391.015Z" style="fill-opacity:1;fill:#fff"/>
        <path d="M255.244 23.876c-6.588 0-11.926-5.34-11.926-11.926 0-6.585 5.341-11.926 11.926-11.926 6.589 0 11.926 5.341 11.926 11.926.003 6.589-5.337 11.926-11.926 11.926Zm7.594-11.926a7.549 7.549 0 0 0-15.095 0 7.548 7.548 0 0 0 15.095 0ZM301.512.003a7.688 7.688 0 0 1 0 15.326l-3.417-.015v8.052h-4.381V0h4.381l3.417.003Zm-3.414 4.494v6.337l3.414-.003a3.22 3.22 0 0 0 0-6.331l-3.414-.003Zm58.61 19.172h-4.338V.201l6.024-.009 3.415.003a7.689 7.689 0 0 1 2.073 14.863l5.056 8.608h-4.747l-7.084-12.103h-.399v12.106Zm5.104-12.646a3.22 3.22 0 0 0 0-6.331h-5.104v6.337l5.104-.006Zm-47.528 2.478.003 3.415a3.22 3.22 0 0 0 3.165 2.625 3.227 3.227 0 0 0 3.169-2.625l.003-3.415.009-13.3h4.488v13.3l-.006 3.415a7.687 7.687 0 0 1-7.663 7.062 7.687 7.687 0 0 1-7.662-7.062l.018-3.415-.009-13.3h4.503l-.018 13.3Zm15.317 10.168h4.425V4.623h3.969V.201h-12.229v4.422h3.835zm21.629 0h-12.16V.201h12.16v4.296h-7.801v5.572h7.801v4.383h-7.801v4.882h7.801zM3.159 94.524a12.15 12.15 0 0 1 6.82-10.915v-6.513C4.026 73.768.003 67.402 0 60.099c.003-7.303 4.026-13.672 9.979-16.997V13.696C9.982 6.256 16.01.225 23.45.225h72.289c7.441 0 13.472 6.031 13.472 13.471v29.406c5.952 3.325 9.976 9.694 9.979 16.997-.003 7.303-4.027 13.669-9.979 16.997v6.513a12.138 12.138 0 0 1 6.819 10.915c-.003 6.706-5.433 12.14-12.142 12.14H69.133v-2.662a9.493 9.493 0 0 0-9.478-9.478v-5.325c7.267.003 13.306 5.238 14.56 12.145h29.676a6.828 6.828 0 0 0 6.817-6.82c.006-3.096-2.067-5.709-4.888-6.543l-1.101-.324-.828-1.635V74.938l.717-1.533.903-.402c4.927-2.214 8.362-7.155 8.359-12.907.003-5.725-3.399-10.645-8.287-12.874l-.192-.087-1.5-.993V13.693a8.162 8.162 0 0 0-8.152-8.148H23.45a8.16 8.16 0 0 0-8.148 8.148v32.449l-1.195.789-.309.204-.189.087c-4.89 2.229-8.289 7.152-8.286 12.874-.003 5.752 3.432 10.693 8.358 12.907l.9.402.721 1.533v11.084l-.832 1.635-1.101.324c-2.82.834-4.893 3.447-4.887 6.543a6.828 6.828 0 0 0 6.817 6.82h29.675c1.258-6.907 7.297-12.142 14.564-12.145h.111v5.325h-.108a9.495 9.495 0 0 0-9.481 9.478v2.662H15.302c-6.706-.003-12.14-5.434-12.143-12.14Z" style="fill-opacity:1;fill:#fff"/>
        <path d="M17.573 40.525c.003-11.053 8.962-20.009 20.015-20.012 11.053.003 20.012 8.959 20.012 20.012s-8.959 20.012-20.012 20.012-20.012-8.959-20.015-20.012Zm3.327 0c.018 9.217 7.471 16.67 16.688 16.688 9.214-.018 16.669-7.471 16.687-16.688-.018-9.214-7.473-16.67-16.687-16.685-9.217.015-16.67 7.471-16.688 16.685Z" style="fill-opacity:1;fill:#fff"/>
        <circle cx="22.245" cy="54.787" r="1.552" style="fill-opacity:1;fill:#fff" transform="translate(-16.237 -123.794) scale(3.0003)"/>
        <path d="M61.593 40.525c0-11.053 8.959-20.009 20.012-20.012 11.053.003 20.012 8.959 20.012 20.012s-8.959 20.012-20.012 20.012-20.012-8.959-20.012-20.012Zm20.012 16.688c9.214-.015 16.67-7.471 16.685-16.685-.015-9.214-7.471-16.67-16.685-16.688-9.214.018-16.673 7.474-16.688 16.688.018 9.214 7.474 16.667 16.688 16.685Z" style="fill-opacity:1;fill:#fff"/>
        <circle cx="28.305" cy="54.787" r="1.552" style="fill-opacity:1;fill:#fff" transform="translate(-16.237 -123.794) scale(3.0003)"/>
    </g>
</svg>
