<?xml version="1.0" encoding="UTF-8"?>
<svg width="628px" height="112px" viewBox="0 0 628 112" version="1.1" xmlns="http://www.w3.org/2000/svg" xmlns:xlink="http://www.w3.org/1999/xlink">
    <title>fds</title>
    <g id="Page-1" stroke="none" stroke-width="1" fill="none" fill-rule="evenodd" opacity="0.78">
        <g id="Nentindo-Famicom-Disk-System" transform="translate(-6.000000, -4.000000)" fill="#FFFFFF" fill-rule="nonzero">
            <g id="fds" transform="translate(6.000000, 4.000000)">
                <path d="M179.6033,39.0966774 C181.440462,40.3724593 182.816766,41.758494 183.735347,43.2453311 C184.7229,45.0219755 185.324837,47.0065252 185.534888,49.2063302 L185.534888,98.2698567 C185.534888,101.250881 184.989383,103.575639 183.895237,105.242031 C182.801091,106.908423 181.581541,108.237756 180.239723,109.233181 C178.687854,110.367209 176.919664,111.148429 174.943513,111.574739 L142,111.574739 L142,36.9630241 L171.764533,36.9630241 C175.156699,37.1079277 177.769273,37.8177454 179.6033,39.0966774 L179.6033,39.0966774 Z M181.935806,48.9921248 C181.72262,47.4317858 181.264897,46.0142504 180.559502,44.7353184 C179.992051,43.6737418 179.111091,42.6972174 177.910352,41.8088952 C176.709613,40.920573 175.081457,40.5488637 173.037379,40.6906173 L145.390076,40.7977199 L145.390076,108.168454 L173.460616,108.168454 C174.943513,107.884947 176.286376,107.390385 177.487115,106.678467 C178.474668,106.111453 179.427735,105.260932 180.346316,104.123753 C181.261762,102.989725 181.794727,101.430436 181.935806,99.441686 L181.935806,48.9921248 L181.935806,48.9921248 Z M166.362775,53.3045826 C166.999198,53.9062477 167.491407,54.5646141 167.845672,55.2733818 C168.199937,56.0546014 168.409988,56.9397735 168.482095,57.9320483 L168.482095,88.79967 C168.551067,90.5742144 168.394313,91.9413485 168.005562,92.8958224 C167.616811,93.8565964 167.140277,94.5464637 166.575961,94.9717243 C165.939538,95.5387385 165.234143,95.8568964 164.455596,95.9293482 L158.100771,95.9293482 L157.89072,52.1863047 L163.609122,52.1863047 C164.810906,52.3280582 165.729487,52.6997675 166.362775,53.3045826 L166.362775,53.3045826 Z M165.093064,57.9320483 C164.951985,57.3650341 164.738799,56.9051226 164.458731,56.5491637 C163.822308,55.7710943 162.728162,55.5568889 161.173158,55.9096977 L161.173158,92.5241131 C161.806446,92.7351684 162.408383,92.8076202 162.972699,92.7351684 C163.468792,92.666343 163.93122,92.4439325 164.295707,92.0988525 C164.688638,91.7460437 164.951985,91.0687767 165.093064,90.0754519 L165.093064,57.9320483 Z M210.747272,37.2853821 L210.747272,111.362634 L190.19781,111.362634 L190.19781,37.2853821 L210.747272,37.2853821 Z M207.145055,41.5442886 L193.586841,41.5442886 L193.586841,107.317933 L207.145055,107.317933 L207.145055,41.5442886 Z M237.758153,61.5525388 L237.758153,58.4654616 C237.827124,57.0468762 237.51048,56.1963549 236.805086,55.9096977 C236.522928,55.7710943 236.134177,55.7710943 235.641968,55.9096977 C235.074516,55.9096977 234.67009,56.0357009 234.422418,56.2845571 C234.174746,56.5334133 234.014856,56.8326708 233.945885,57.1886297 C233.80167,57.5414385 233.80167,57.9666992 233.945885,58.4654616 L233.945885,62.5101628 L250.256707,73.1553289 C252.30392,74.2893572 253.874599,75.4958374 254.97188,76.7716193 C256.066026,78.0505513 256.824718,79.2570314 257.247955,80.3921098 C257.743299,81.6710418 257.990971,83.0161254 257.990971,84.4368109 L257.990971,100.717468 C257.849892,103.062177 257.247955,104.961674 256.188295,106.41386 C255.13177,107.869197 253.931031,108.987475 252.589213,109.765544 C251.034209,110.688517 249.302595,111.362634 247.396461,111.788945 L226.000524,111.788945 C223.316888,111.719643 221.216379,111.044476 219.698996,109.765544 C218.181613,108.492912 217.067611,107.141529 216.362216,105.723993 C215.512607,104.0198 214.985912,102.104553 214.772726,99.9740494 L214.772726,75.7068927 L234.052478,87.5238881 L234.052478,91.6735918 C234.052478,92.3130578 234.137125,92.7918698 234.315825,93.1100278 C234.49139,93.4281857 234.720251,93.6612915 235.002409,93.8030451 C235.284567,94.0141004 235.638832,94.121203 236.062069,94.121203 C237.121729,94.0487512 237.723667,93.6234906 237.864746,92.8422711 C237.933717,92.561914 237.899232,92.1713043 237.758153,91.6735918 L237.758153,86.7773194 L223.671153,78.2647566 C221.197568,76.9165229 219.344731,75.4769369 218.109506,73.9522988 C216.873236,72.4276607 215.97033,71.0605265 215.409149,69.8540464 C214.772726,68.4354609 214.456082,67.0147754 214.456082,65.5972399 L214.456082,48.1447536 C214.594026,45.4472362 215.230449,43.3555839 216.362216,41.8655966 C217.491893,40.3756094 218.764739,39.2762319 220.175529,38.5643141 C221.799505,37.7862447 223.599046,37.3231831 225.577287,37.1814295 L244.53726,37.1814295 C247.785212,37.3231831 250.294328,37.9279982 252.059383,38.9927248 C253.824438,40.0543014 255.166256,41.2607815 256.084837,42.6090152 C257.07239,44.1714543 257.708813,45.9102978 257.990971,47.8265957 L257.990971,74.9634741 L237.758153,61.5525388 Z M236.062069,52.2934073 C237.190701,52.4351609 238.059121,52.6997675 238.658968,53.0935273 C239.260905,53.4841371 239.737439,53.9251481 240.088569,54.4228606 C240.442834,54.9898747 240.690506,55.6293407 240.831585,56.3381085 L240.831585,59.4230856 L254.60194,67.7235431 L254.388754,49.5276382 C254.457726,47.680642 254.053299,46.1749044 253.169204,45.0030751 C252.288244,43.8312458 251.316367,42.9271732 250.256707,42.2908573 C248.985951,41.5096377 247.53754,41.0119253 245.913564,40.7977199 L225.364101,40.7977199 C223.740125,40.9426236 222.467279,41.3867847 221.551833,42.1302033 C220.633252,42.8736218 219.927857,43.6359409 219.432513,44.4171604 C218.869439,45.4091985 218.475262,46.4887845 218.26626,47.6113403 L218.26626,64.8538213 C218.197288,66.2713568 218.479446,67.5124878 219.115869,68.5772144 C219.70573,69.5831547 220.416458,70.5124003 221.232054,71.3440336 C222.081663,72.2670067 223.103702,73.0828771 224.304441,73.7916448 L241.678059,85.0731268 L241.678059,91.9917498 C241.678059,93.3399835 241.392765,94.3889597 240.828449,95.1323783 C240.264133,95.878947 239.62771,96.4270607 238.922315,96.7798695 C238.143768,97.2082802 237.228323,97.4917873 236.168662,97.6335408 C234.826844,97.4917873 233.80167,97.1925298 233.096275,96.7294682 C232.39088,96.2695567 231.86105,95.7560939 231.506785,95.1859296 C231.083548,94.5496137 230.80139,93.8030451 230.660311,92.9493737 L230.660311,89.5462387 L218.26626,82.0963024 L218.056209,99.5487887 C218.125181,101.60684 218.567229,103.18503 219.379217,104.287557 C220.191205,105.386935 221.090975,106.218555 222.078528,106.78872 C223.20716,107.425036 224.514492,107.815645 225.997389,107.957399 L246.653444,107.957399 C248.700657,107.888097 250.237896,107.425036 251.26307,106.574514 C252.285109,105.723993 253.043801,104.80102 253.539145,103.808745 C254.103461,102.602265 254.388754,101.254031 254.388754,99.7629941 L254.388754,83.9044476 C254.457726,83.0507763 254.247675,82.200255 253.752331,81.3465837 C253.284365,80.5328024 252.715504,79.7819854 252.059383,79.1121278 C251.25974,78.3133863 250.410519,77.5663703 249.516826,76.8755719 L230.660311,64.6364659 L230.660311,56.760219 C230.729283,55.5537388 231.064738,54.6685667 231.666675,54.1015525 C232.265477,53.5345384 232.886225,53.1061277 233.519512,52.8226206 C234.33995,52.533796 235.194957,52.355833 236.062069,52.2934073 L236.062069,52.2934073 Z M303.433038,65.1719793 L295.807457,74.0027001 L303.433038,83.3689342 L303.433038,111.362634 L283.836643,111.362634 L283.836643,90.7159679 L281.084035,88.160204 L281.084035,111.574739 L261.274454,111.574739 L261.274454,37.1814295 L281.084035,37.1814295 L281.084035,60.5949149 L283.836643,57.2925823 L283.836643,37.1814295 L303.433038,37.1814295 L303.433038,65.1719793 Z M300.042962,41.4371859 L287.755504,41.4371859 L287.648911,59.2120303 L277.690824,69.4287857 L277.267587,41.0119253 L264.873536,41.0119253 L264.873536,107.21083 L277.160994,107.21083 L277.160994,79.7494937 L286.802437,88.9036226 L286.802437,107.314783 L299.829776,107.314783 L299.829776,83.7941949 L291.461179,74.0027001 L300.042962,64.00015 L300.042962,41.4371859 L300.042962,41.4371859 Z M360.951467,61.5525388 L360.951467,58.4654616 C361.020439,57.0468762 360.703795,56.1963549 359.9984,55.9096977 C359.716242,55.7710943 359.327491,55.7710943 358.832147,55.9096977 C358.264696,55.9096977 357.86027,56.0357009 357.612598,56.2845571 C357.366806,56.5308486 357.200719,56.8459462 357.136064,57.1886297 C356.994985,57.5414385 356.994985,57.9666992 357.136064,58.4654616 L357.136064,62.5101628 L373.448976,73.1553289 C375.496189,74.2893572 377.067914,75.4958374 378.165195,76.7716193 C379.259341,78.0505513 380.018032,79.2570314 380.441269,80.3921098 C380.933478,81.6710418 381.184285,83.0161254 381.184285,84.4368109 L381.184285,100.717468 C381.040071,103.062177 380.441269,104.961674 379.381609,106.41386 C378.321949,107.869197 377.12121,108.987475 375.778347,109.765544 C374.226478,110.688517 372.495909,111.362634 370.589775,111.788945 L349.193839,111.788945 C346.510203,111.719643 344.409694,111.044476 342.88813,109.765544 C341.370748,108.492912 340.260926,107.141529 339.552396,105.723993 C338.705922,104.0198 338.176092,102.104553 337.962906,99.9740494 L337.962906,75.7068927 L357.242657,87.5238881 L357.242657,91.6735918 C357.242657,92.3130578 357.33044,92.7918698 357.50914,93.1100278 C357.68157,93.4281857 357.913566,93.6612915 358.195724,93.8030451 C358.477882,94.0141004 358.832147,94.121203 359.255384,94.121203 C360.315044,94.0487512 360.913846,93.6234906 361.054925,92.8422711 C361.127032,92.561914 361.089411,92.1713043 360.948332,91.6735918 L360.948332,86.7773194 L346.861333,78.2647566 C344.390883,76.9165229 342.533865,75.4769369 341.29864,73.9522988 C340.066551,72.4276607 339.163645,71.0605265 338.599329,69.8540464 C337.966041,68.4354609 337.646262,67.0147754 337.646262,65.5972399 L337.646262,48.1447536 C337.787341,45.4472362 338.423764,43.3555839 339.555531,41.8655966 C340.684163,40.3756094 341.957009,39.2762319 343.367799,38.5643141 C344.99282,37.7862447 346.792361,37.3231831 348.770602,37.1814295 L367.730574,37.1814295 C370.978526,37.3231831 373.483462,37.9279982 375.251652,38.9927248 C377.017752,40.0543014 378.35957,41.2607815 379.278151,42.6090152 C380.265704,44.1714543 380.902127,45.9102978 381.184285,47.8265957 L381.184285,74.9634741 L360.951467,61.5525388 L360.951467,61.5525388 Z M359.255384,52.2934073 C360.384016,52.4351609 361.252436,52.6997675 361.851238,53.0935273 C362.45004,53.4841371 362.929708,53.9251481 363.280838,54.4228606 C363.635103,54.9898747 363.87964,55.6293407 364.023854,56.3381085 L364.023854,59.4230856 L377.792119,67.7235431 L377.582068,49.5276382 C377.65104,47.680642 377.246614,46.1749044 376.365654,45.0030751 C375.480514,43.8312458 374.508636,42.9271732 373.448976,42.2908573 C372.179265,41.5096377 370.730854,41.0119253 369.106878,40.7977199 L348.557416,40.7977199 C346.93344,40.9426236 345.660594,41.3867847 344.742013,42.1302033 C343.825522,42.8736218 343.116992,43.6359409 342.624783,44.4171604 C342.059995,45.4080903 341.666703,46.4881566 341.461665,47.6113403 L341.461665,64.8538213 C341.389558,66.2713568 341.671716,67.5124878 342.308139,68.5772144 C342.896984,69.5841224 343.608186,70.5135298 344.425369,71.3440336 C345.274978,72.2670067 346.297017,73.0828771 347.497756,73.7916448 L364.870328,85.0731268 L364.870328,91.9917498 C364.870328,93.3399835 364.585035,94.3889597 364.020719,95.1323783 C363.456403,95.878947 362.823115,96.4270607 362.114585,96.7798695 C361.337083,97.2082802 360.421637,97.4917873 359.361977,97.6335408 C358.020159,97.4917873 356.994985,97.1925298 356.28959,96.7294682 C355.584195,96.2695567 355.054365,95.7560939 354.699055,95.1859296 C354.275818,94.5496137 353.990525,93.8030451 353.852581,92.9493737 L353.852581,89.5462387 L341.45853,82.0963024 L341.248479,99.5487887 C341.317451,101.60684 341.759499,103.18503 342.571487,104.287557 C343.383475,105.386935 344.283245,106.218555 345.271843,106.78872 C346.400475,107.425036 347.707807,107.815645 349.190704,107.957399 L369.846759,107.957399 C371.893972,107.888097 373.430166,107.425036 374.45534,106.574514 C375.477379,105.723993 376.237115,104.80102 376.732459,103.808745 C377.29991,102.602265 377.582068,101.254031 377.582068,99.7629941 L377.582068,83.9044476 C377.65104,83.0507763 377.437854,82.200255 376.945645,81.3465837 C376.477666,80.5325347 375.908424,79.781677 375.251652,79.1121278 C374.45201,78.3133863 373.602788,77.5663703 372.709095,76.8755719 L353.852581,64.6364659 L353.852581,56.760219 C353.921553,55.5537388 354.257008,54.6685667 354.85999,54.1015525 C355.458792,53.5345384 356.076404,53.1061277 356.712827,52.8226206 C357.533091,52.5331685 358.388182,52.355188 359.255384,52.2934073 L359.255384,52.2934073 Z M428.954678,37.3924848 L428.954678,100.613515 C428.882571,103.096827 428.371552,105.065627 427.418485,106.520963 C426.465418,107.976299 425.390082,109.091427 424.189343,109.872647 C422.84439,110.726318 421.292521,111.327983 419.527466,111.681842 L388.280036,111.681842 L388.280036,93.5888397 L408.193075,93.5888397 L408.193075,90.0754519 L394.634861,90.0754519 C392.023332,89.9368484 390.045091,89.2973824 388.703273,88.160204 C387.361455,87.0261757 386.408388,85.7472437 385.843027,84.3297082 C385.134497,82.6979674 384.783367,80.8898222 384.783367,78.9010725 L384.783367,37.3924848 L405.122778,37.3924848 L405.122778,71.3440336 L408.619447,71.3440336 L408.619447,37.3924848 L428.954678,37.3924848 L428.954678,37.3924848 Z M425.459054,41.3300833 L412.644901,41.3300833 L412.644901,70.3895597 C412.572794,71.3093827 412.325122,72.1252531 411.901885,72.8340209 C411.54762,73.4734868 411.002115,74.040501 410.259099,74.5382135 C409.516083,75.0359259 408.440747,75.319433 407.028912,75.3887347 C405.969252,75.4611865 405.050671,75.3540839 404.273169,75.0705768 C403.567774,74.7870697 402.934486,74.2893572 402.367035,73.5805895 C401.802719,72.8686717 401.48294,71.7346434 401.417103,70.1753544 L401.417103,41.3332333 L389.023052,41.3332333 L389.023052,79.1152779 C389.092024,80.5338633 389.411803,81.8127953 389.976119,82.9468237 C390.468328,83.9390985 391.22702,84.8431711 392.252194,85.6590415 C393.274233,86.4749119 394.77594,86.8844221 396.754181,86.8844221 L412.538308,86.8844221 L412.538308,92.4170104 C412.394094,93.3399835 412.07745,94.1558539 411.582106,94.8646216 C411.158869,95.4347859 410.522446,95.9639991 409.675972,96.4617115 C408.826363,96.959424 407.696686,97.2082802 406.285896,97.2082802 L392.092304,97.2082802 L392.092304,107.743194 L419.104229,107.743194 C420.304968,107.60144 421.364628,107.248631 422.283209,106.681617 C423.057576,106.183905 423.781782,105.440486 424.452691,104.445061 C425.1236,103.452786 425.459054,102.104553 425.459054,100.39931 L425.459054,41.3300833 L425.459054,41.3300833 Z M455.860011,61.5525388 L455.860011,58.4654616 C455.932118,57.0468762 455.612339,56.1963549 454.906944,55.9096977 C454.624786,55.7710943 454.236035,55.7710943 453.743826,55.9096977 C453.176375,55.9096977 452.771948,56.0357009 452.524276,56.2845571 C452.276604,56.5334133 452.116715,56.8326708 452.047743,57.1886297 C451.906664,57.5414385 451.906664,57.9666992 452.047743,58.4654616 L452.047743,62.5101628 L468.35752,73.1553289 C470.404733,74.2893572 471.976457,75.4958374 473.073738,76.7716193 C474.167884,78.0505513 474.926576,79.2570314 475.352948,80.3921098 C475.845157,81.6710418 476.092829,83.0161254 476.092829,84.4368109 L476.092829,100.717468 C475.95175,103.062177 475.352948,104.961674 474.290153,106.41386 C473.233628,107.869197 472.032889,108.987475 470.690026,109.765544 C469.138157,110.688517 467.407588,111.362634 465.501454,111.788945 L444.102383,111.788945 C441.418747,111.719643 439.318237,111.044476 437.799809,109.765544 C436.282426,108.492912 435.16947,107.141529 434.464075,105.723993 C433.617601,104.0198 433.087771,102.104553 432.874585,99.9740494 L432.874585,75.7068927 L452.154336,87.5238881 L452.154336,91.6735918 C452.154336,92.3130578 452.238983,92.7918698 452.417683,93.1100278 C452.593248,93.4281857 452.82211,93.6612915 453.104268,93.8030451 C453.389561,94.0141004 453.740691,94.121203 454.167063,94.121203 C455.223588,94.0487512 455.82239,93.6234906 455.966604,92.8422711 C456.035576,92.561914 456.00109,92.1713043 455.860011,91.6735918 L455.860011,86.7773194 L441.773012,78.2647566 C439.299427,76.9165229 437.445544,75.4769369 436.210319,73.9522988 C434.975094,72.4276607 434.072188,71.0605265 433.511008,69.8540464 C432.874585,68.4354609 432.557941,67.0147754 432.557941,65.5972399 L432.557941,48.1447536 C432.695884,45.4472362 433.335443,43.3555839 434.464075,41.8655966 C435.592707,40.3756094 436.865553,39.2762319 438.276343,38.5643141 C439.901364,37.7862447 441.700905,37.3231831 443.679146,37.1814295 L462.639118,37.1814295 C465.88707,37.3231831 468.395141,37.9279982 470.160196,38.9927248 C471.926296,40.0543014 473.268114,41.2607815 474.186695,42.6090152 C475.174248,44.1714543 475.810671,45.9102978 476.092829,47.8265957 L476.092829,74.9634741 L455.860011,61.5525388 L455.860011,61.5525388 Z M454.167063,52.2934073 C455.295695,52.4351609 456.160979,52.6997675 456.762916,53.0935273 C457.361718,53.4841371 457.838252,53.9251481 458.192517,54.4228606 C458.543647,54.9898747 458.791319,55.6293407 458.932398,56.3381085 L458.932398,59.4230856 L472.703798,67.7235431 L472.490612,49.5276382 C472.562719,47.680642 472.155157,46.1749044 471.274197,45.0030751 C470.389057,43.8312458 469.420315,42.9271732 468.360655,42.2908573 C467.087809,41.5096377 465.642533,41.0119253 464.018557,40.7977199 L443.46596,40.7977199 C441.841984,40.9426236 440.572273,41.3867847 439.653692,42.1302033 C438.737201,42.8736218 438.028671,43.6359409 437.536462,44.4171604 C436.970708,45.407946 436.576361,46.4879995 436.370209,47.6113403 L436.370209,64.8538213 C436.298101,66.2713568 436.580259,67.5124878 437.219818,68.5772144 C437.808651,69.5838514 438.519472,70.5132188 439.336003,71.3440336 C440.183522,72.2670067 441.208696,73.0828771 442.409435,73.7916448 L459.778872,85.0731268 L459.778872,91.9917498 C459.778872,93.3399835 459.496714,94.3889597 458.932398,95.1323783 C458.364947,95.878947 457.731659,96.4270607 457.023129,96.7798695 C456.248762,97.2082802 455.330181,97.4917873 454.270521,97.6335408 C452.928703,97.4917873 451.906664,97.1925298 451.201269,96.7294682 C450.492739,96.2695567 449.966044,95.7560939 449.610734,95.1859296 C449.184362,94.5496137 448.902204,93.8030451 448.761125,92.9493737 L448.761125,89.5462387 L436.367073,82.0963024 L436.157022,99.5487887 C436.22913,101.60684 436.668042,103.18503 437.48003,104.287557 C438.292018,105.386935 439.191788,106.218555 440.183522,106.78872 C441.312154,107.425036 442.61635,107.815645 444.102383,107.957399 L464.758438,107.957399 C466.805651,107.888097 468.341844,107.425036 469.363883,106.574514 C470.389057,105.723993 471.147749,104.80102 471.644138,103.808745 C472.208454,102.602265 472.490612,101.254031 472.490612,99.7629941 L472.490612,83.9044476 C472.562719,83.0507763 472.349533,82.200255 471.857324,81.3465837 C471.387919,80.5326588 470.817659,79.7818479 470.160196,79.1121278 C469.361259,78.3126261 468.511988,77.5655664 467.617639,76.8755719 L448.76426,64.6364659 L448.76426,56.760219 C448.833232,55.5537388 449.168686,54.6685667 449.771668,54.1015525 C450.37047,53.5345384 450.988083,53.1061277 451.624506,52.8226206 C452.444682,52.5328522 453.299816,52.3548627 454.167063,52.2934073 L454.167063,52.2934073 Z M518.464599,37.6066902 L518.464599,56.9744244 L509.352986,56.9744244 L509.352986,111.574739 L487.95705,111.574739 L487.95705,56.9744244 L479.268674,56.9744244 L479.268674,37.1814295 L518.464599,37.6066902 Z M514.332552,41.4371859 L483.085122,41.4371859 L483.085122,52.718668 L491.982504,52.718668 L491.982504,107.743194 L504.904295,107.743194 L504.904295,53.0368259 L514.332552,53.0368259 L514.332552,41.4371859 Z M542.616278,56.7633691 L542.616278,65.3830346 L556.174492,65.3830346 L556.174492,84.7549689 L542.193041,84.7549689 L542.193041,92.9493737 L556.174492,92.9493737 L556.174492,111.896047 L521.747037,111.681842 L521.747037,37.1814295 L556.597729,37.1814295 L556.597729,56.7633691 L542.616278,56.7633691 Z M538.484231,69.321683 L538.484231,52.8257706 L552.464637,52.8257706 L552.464637,41.5442886 L525.666943,41.5442886 L525.666943,108.80792 L552.464637,108.80792 L552.464637,96.9940749 L538.271045,96.9940749 L538.271045,80.8173704 L552.674688,80.8173704 L552.674688,69.321683 L538.484231,69.321683 L538.484231,69.321683 Z M624.07111,39.8936473 C625.4819,41.0654766 626.472588,42.2877072 627.036904,43.5666392 C627.745435,45.0566264 628.062079,46.6883672 627.989971,48.4629116 L627.989971,112 L607.863746,112 L607.863746,58.5725643 C607.791639,57.7934448 607.512616,57.2957324 607.017272,57.081527 C606.739311,57.012032 606.454096,56.9760775 606.167663,56.9744244 C605.744426,56.9744244 605.408972,57.081527 605.1613,57.2957324 C604.913628,57.5067877 604.722387,57.720993 604.581308,57.9320483 C604.368122,58.2155554 604.261529,58.5032626 604.261529,58.7867697 L604.261529,111.788945 L584.34849,111.788945 L584.34849,58.8907223 C584.34849,58.1116028 584.066332,57.5067877 583.502016,57.081527 C583.249481,56.8848877 582.96074,56.7403625 582.652407,56.6562664 C582.160198,56.6562664 581.771447,56.7633691 581.486154,56.9744244 C581.203996,57.1886297 580.993945,57.4374859 580.852866,57.720993 C580.642815,58.0045001 580.536222,58.3573089 580.536222,58.7836196 L580.536222,111.467637 L561.256471,111.467637 L561.256471,37.2853821 L585.93798,37.2853821 C587.490894,37.1436286 588.851523,37.2664817 590.014641,37.6570914 C591.180894,38.0477012 592.187257,38.5265132 593.033731,39.0935273 C593.952312,39.7329933 594.798786,40.479562 595.576288,41.3300833 C595.999525,40.5488637 596.529355,39.9282982 597.165778,39.4683867 C597.760536,39.029182 598.39981,38.6543423 599.072957,38.3501088 C599.800533,38.0598526 600.543659,37.8106091 601.29887,37.6035401 L617.928426,37.6035401 C620.609972,37.959499 622.660321,38.7249681 624.07111,39.8936473 L624.07111,39.8936473 Z M624.284297,47.9305483 C624.212189,46.7230181 623.930031,45.6582915 623.437823,44.7353184 C623.01145,43.9540989 622.287245,43.2295807 621.265206,42.5523138 C620.240032,41.881347 618.810431,41.5442886 616.972224,41.5442886 L602.461988,41.5442886 C601.356721,41.6071889 600.275946,41.8966305 599.286143,42.3948099 C598.436534,42.8200705 597.570205,43.4595365 596.689245,44.3100578 C595.80515,45.1637291 595.11543,46.2977574 594.623221,47.7152929 C594.05577,46.3702093 593.387996,45.19838 592.610494,44.2029551 C591.832992,43.3524338 590.879925,42.5712143 589.751293,41.8624466 C588.619526,41.1536788 587.135584,40.8355209 585.301557,40.9079727 L565.495111,41.119028 L565.495111,107.743194 L577.253784,107.743194 L577.253784,58.360459 C577.181677,57.3650341 577.357242,56.479862 577.780479,55.6986425 C578.134744,54.9867247 578.717871,54.3504088 579.529859,53.7833946 C580.341847,53.2132303 581.561396,52.9297232 583.185372,52.9297232 C584.031846,52.9297232 584.843834,53.1439286 585.621336,53.5691892 C586.185652,53.921998 586.734293,54.5425636 587.260988,55.4308858 C587.791863,56.319208 588.058345,57.6138903 588.058345,59.3159829 L588.058345,107.743194 L600.558989,107.743194 L600.558989,58.3573089 C600.558989,57.5067877 600.76904,56.6909173 601.192277,55.9096977 C601.543407,55.2702318 602.110858,54.6843171 602.88836,54.1551039 C603.662727,53.6227406 604.82898,53.3549839 606.383984,53.3549839 C607.208654,53.2817043 608.039301,53.3902872 608.817858,53.6731418 C609.454281,53.959799 610.037408,54.4543614 610.564103,55.1662792 C611.093933,55.8750469 611.360415,57.0090752 611.360415,58.5694142 L611.360415,107.740044 L624.284297,107.740044 L624.284297,47.9305483 L624.284297,47.9305483 Z M142.219456,0 L155.191409,0 L155.191409,4.54241356 L146.763245,4.54241356 L146.763245,10.0529513 L155.191409,10.0529513 L155.191409,14.7402685 L146.763245,14.7402685 L146.763245,24.5349134 L142.219456,24.5349134 L142.219456,0 Z M169.943047,24.5349134 L165.522571,24.5349134 L165.522571,20.7138678 L156.962734,20.7138678 L154.426447,24.5349134 L149.22429,24.5349134 L166.343965,0 L169.943047,0 L169.943047,24.5349134 L169.943047,24.5349134 Z M165.522571,16.080102 L165.522571,8.91892297 L160.295333,16.080102 L165.522571,16.080102 Z M171.673616,0 L176.800531,0 L184.02691,16.4927623 L191.304497,0 L196.481573,0 L196.481573,24.5349134 L191.918974,24.5349134 L191.918974,12.1635041 L186.282084,24.5349134 L181.669324,24.5349134 L176.236215,12.1635041 L176.236215,24.5349134 L171.673616,24.5349134 L171.673616,0 Z M281.538623,0 L286.664493,0 L293.891918,16.4927623 L301.168459,0 L306.34867,0 L306.34867,24.5349134 L301.786071,24.5349134 L301.786071,12.1635041 L296.146046,24.5349134 L291.533286,24.5349134 L286.100177,12.1635041 L286.100177,24.5349134 L281.538623,24.5349134 L281.538623,0 Z M197.920579,0 L202.642023,0 L202.642023,24.5349134 L197.920579,24.5349134 L197.920579,0 Z M203.93995,0 L208.662438,0 L208.662438,20.0618015 L214.813483,20.0618015 L214.813483,24.5349134 L203.93995,24.5349134 L203.93995,0 Z M209.568479,0 L214.813483,0 L219.774238,10.0529513 L224.589734,0 L229.788757,0 L221.9688,15.6033901 L221.9688,24.5349134 L217.390526,24.5349134 L217.390526,15.6033901 L209.568479,0 Z M255.451549,6.76741919 C253.37612,2.79726993 249.237803,0.0882022051 244.465152,0.0882022051 C237.617074,0.0882022051 232.064831,5.6680417 232.064831,12.5478137 C232.064831,19.4286357 237.613938,25.0042751 244.465152,25.0042751 C249.269154,25.0042751 253.435687,22.2605565 255.49544,18.2442061 L249.877361,18.2914573 C247.60773,20.394414 244.314681,20.9486001 241.486952,19.7034765 C238.659223,18.4583529 236.832769,15.6499145 236.833301,12.5478137 C236.832724,8.23366732 240.312615,4.73572804 244.606231,4.73456836 C246.612688,4.73456836 248.43731,5.49793745 249.817794,6.75166879 L255.451549,6.76741919 L255.451549,6.76741919 Z" id="Shape"></path>
                <path d="M267.048079,25.0704268 C260.155408,25.0704268 254.570546,19.4632866 254.570546,12.5478137 C254.570546,5.63339083 260.158547,0.02520063 267.048079,0.02520063 C273.941795,0.02520063 279.525613,5.63339083 279.525613,12.5478137 C279.52875,19.4664367 273.941795,25.0704268 267.048079,25.0704268 L267.048079,25.0704268 Z M274.993273,12.5478137 C274.907544,8.23248854 271.397374,4.77917529 267.096729,4.77917529 C262.796084,4.77917529 259.285914,8.23248854 259.200185,12.5478137 C259.249978,16.8891294 262.770755,20.3821879 267.096729,20.3821879 C271.422703,20.3821879 274.94348,16.8891294 274.993273,12.5478137 Z M315.4558,0.00315007875 C319.633171,0.342079132 322.851196,3.84336018 322.851196,8.04950124 C322.851196,12.2556423 319.633171,15.7569233 315.4558,16.0958524 L311.880777,16.080102 L311.880777,24.5349134 L307.297172,24.5349134 L307.297172,0 L311.880777,0 L315.4558,0.00315007875 Z M311.883915,4.72196805 L311.883915,11.3759844 L315.4558,11.3728343 C317.050907,11.0744958 318.207508,9.67740797 318.207508,8.04897622 C318.207508,6.42054448 317.050907,5.02345669 315.4558,4.72511813 L311.883915,4.72196805 L311.883915,4.72196805 Z M373.204408,24.8530713 L368.665792,24.8530713 L368.665792,0.211055276 L374.96838,0.20160504 L378.54131,0.204755119 C382.294835,0.512696411 385.333126,3.39288228 385.853355,7.13629817 C386.373584,10.8797141 384.236498,14.4843377 380.710179,15.8112953 L386,24.8499212 L381.033469,24.8499212 L373.621861,12.1414535 L373.204408,12.1414535 L373.204408,24.8530713 L373.204408,24.8530713 Z M378.544449,11.5744394 C380.139556,11.2761008 381.296157,9.87901301 381.296157,8.25058126 C381.296157,6.62214952 380.139556,5.22506173 378.544449,4.92672317 L373.204408,4.92672317 L373.204408,11.5807395 L378.544449,11.5744394 L378.544449,11.5744394 Z M328.818457,14.1764044 L328.821596,17.7622441 C329.121075,19.3608003 330.512254,20.5187904 332.132965,20.518563 C333.754201,20.5178818 335.146077,19.3607741 335.44852,17.7622441 L335.451659,14.1764044 L335.461075,0.211055276 L340.156628,0.211055276 L340.156628,14.1764044 L340.15035,17.7622441 C339.809777,21.9522442 336.32175,25.1783226 332.132965,25.1775296 C327.944583,25.1775296 324.457168,21.9518421 324.116627,17.7622441 L324.135459,14.1764044 L324.126043,0.211055276 L328.83729,0.211055276 L328.818457,14.1764044 L328.818457,14.1764044 Z M344.843811,24.8530713 L349.473451,24.8530713 L349.473451,4.85427136 L353.626002,4.85427136 L353.626002,0.211055276 L340.831457,0.211055276 L340.831457,4.85427136 L344.843811,4.85427136 L344.843811,24.8530713 Z M367.473071,24.8530713 L354.750717,24.8530713 L354.750717,0.211055276 L367.473071,0.211055276 L367.473071,4.72196805 L359.311304,4.72196805 L359.311304,10.5727143 L367.473071,10.5727143 L367.473071,15.1749794 L359.311304,15.1749794 L359.311304,20.3012075 L367.473071,20.3012075 L367.473071,24.8530713 Z M3.30509191,99.2526813 C3.30649043,94.377943 6.07561727,89.9301101 10.4404914,87.7916448 L10.4404914,80.9528238 C4.21218741,77.4583365 0.00313873876,70.7738693 0,63.1055276 C0.00313873876,55.4371859 4.21218741,48.7495687 10.4404914,45.2582315 L10.4404914,14.3811595 C10.4436301,6.56896422 16.7504025,0.236255906 24.5344746,0.236255906 L100.16657,0.236255906 C107.951688,0.236255906 114.2616,6.56896422 114.2616,14.3811595 L114.2616,45.2582315 C120.488857,48.7495687 124.698952,55.4371859 124.702091,63.1055276 C124.698952,70.7738693 120.488857,77.4583365 114.2616,80.9528238 L114.2616,87.7916448 C118.628154,89.928081 121.397749,94.3773167 121.395953,99.2526813 C121.392814,106.294157 115.711697,112 108.692431,112 L72.3301422,112 L72.3301422,109.20483 C72.321501,103.712006 67.8868703,99.2613538 62.4138202,99.2526813 L62.4138202,93.6612915 C70.0168917,93.6644416 76.3351728,99.161329 77.6471656,106.41386 L108.695569,106.41386 C112.633204,106.407497 115.823222,103.204545 115.82783,99.2526813 C115.834108,96.0018 113.665239,93.2580815 110.713778,92.3823596 L109.561861,92.0421511 L108.695569,90.3253581 L108.695569,78.6868672 L109.445728,77.0771769 L110.390488,76.6550664 C115.545344,74.3303083 119.1392,69.1421286 119.136061,63.1023776 C119.1392,57.0909773 115.57987,51.9248481 110.465818,49.5843396 L110.264939,49.4929873 L108.695569,48.4503113 L108.695569,14.3780095 C108.6875,9.65459357 104.872985,5.82817571 100.16657,5.82239556 L24.5344746,5.82239556 C19.8292166,5.82933497 16.0165746,9.65575176 16.0096602,14.3780095 L16.0096602,48.4503113 L14.7593959,49.278782 L14.4361058,49.4929873 L14.2383653,49.5843396 C9.12222108,51.9248481 5.56603006,57.0941274 5.5691688,63.1023776 C5.56603006,69.1421286 9.15988594,74.3303083 14.313695,76.6550664 L15.2553166,77.0771769 L16.0096602,78.6868672 L16.0096602,90.3253581 L15.1391833,92.0421511 L13.9872662,92.3823596 C11.0368517,93.2580815 8.86798324,96.0018 8.87426072,99.2526813 C8.87886913,103.204545 12.068887,106.407497 16.0065214,106.41386 L47.053879,106.41386 C48.3700568,99.161329 54.6883379,93.6644416 62.2914094,93.6612915 L62.4075427,93.6612915 L62.4075427,99.2526813 L62.2945481,99.2526813 C56.8207491,99.2607726 52.3848819,103.711258 52.3750874,109.20483 L52.3750874,112 L16.0096602,112 C8.99353279,111.99685 3.30823065,106.294157 3.30509191,99.2526813 L3.30509191,99.2526813 Z" id="Shape"></path>
                <path d="M19,41.5 C19.0030729,30.1774685 28.1798536,21.0030732 39.5015365,21 C50.8232193,21.0030732 60,30.1774685 60,41.5 C60,52.8225315 50.8232193,62 39.5015365,62 C28.1798536,62 19.0030729,52.8225315 19,41.5 Z M22.4078747,41.5 C22.4263122,50.9417599 30.0604842,58.5765041 39.5015365,58.594943 C48.9395158,58.5765041 56.5757364,50.9417599 56.5941739,41.5 C56.5757364,32.0613132 48.9395158,24.4234959 39.5015365,24.4081301 C30.0604842,24.4234959 22.4263122,32.0613132 22.4078747,41.5 L22.4078747,41.5 Z" id="Shape"></path>
                <ellipse id="Oval" cx="53" cy="42.5" rx="4" ry="5.5"></ellipse>
                <path d="M64,41.5 C64,30.1774685 73.1774685,21.0030732 84.5,21 C95.8225315,21.0030732 105,30.1774685 105,41.5 C105,52.8225315 95.8225315,62 84.5,62 C73.1774685,62 64,52.8225315 64,41.5 Z M84.5,58.594943 C93.9386868,58.5795773 101.576504,50.9417599 101.59187,41.5030732 C101.576504,32.0643864 93.9386868,24.4265691 84.5,24.4081301 C75.0613132,24.4265691 67.4204227,32.0643864 67.405057,41.5030732 C67.4234959,50.9417599 75.0613132,58.5765041 84.5,58.594943 Z" id="Shape"></path>
                <ellipse id="Oval" cx="71" cy="42.5" rx="4" ry="5.5"></ellipse>
            </g>
        </g>
    </g>
</svg>