<svg viewBox="0 0 641 121" xmlns="http://www.w3.org/2000/svg" xml:space="preserve" style="fill-rule:evenodd;clip-rule:evenodd;stroke-linejoin:round;stroke-miterlimit:2">
    <path d="M599.05 6.517v2.688c-2.998-.751-4.198 3.824-2.921 13.602l3.623 27.745 3.278-27.412c.365-3.116.53-5.521.648-6.854.375-4.259-.572-6.624-2.824-7.081V6.517h14.2v2.915c-2.4.154-3.352 1.23-3.611 3.149l-8.151 60.484v33.298c-.156 3.741.982 5.778 3.381 6.064v2.933h-16.216v-3.16c2.09-.135 3.148-2.096 3.148-5.837V69.017l-5.886-49.633c-.684-5.721-3.051-9.589-5.1-10.391l-.233-2.476h16.664Zm-61.044 70.162 12.157-6.294c-1.498 23.388-1.091 35.672 1.235 36.878 2.323 1.196 3.647.601 3.938-1.796 1.362-9.005 1.362-18.067 0-27.223-.442-4.643-1.341-7.936-2.688-9.899-8.419-13.029-13.221-22.778-14.412-29.228l-.23-22.262c1.648-7.806 6.149-11.703 13.501-11.703 8.269.15 12.611 5.409 13.071 15.753l.672 14.395-11.258 7.198c.151-9.002.151-17.407 0-25.201 0-3.741-.869-5.66-2.594-5.736-1.733-.077-2.573 1.686-2.573 5.294l.209 22.495c7.664 12.281 12.835 21.72 15.544 28.329 2.685 6.603 3.67 16.042 2.921 28.34-.748 13.649-5.63 20.379-14.645 20.229-8.699-.446-13.645-6.447-14.848-18.041V76.679Zm-34.189 39.123v-1.571c1.807-1.804 2.402-8.251 1.807-19.343h-5.627c-.908 11.092-.387 17.539 1.571 19.343v1.571h-14.642v-1.571c1.208-.153 2.214-.633 3.039-1.453.828-.831 3.34-36.768 7.546-107.838h11.706c5.554 71.072 8.632 107.007 9.239 107.838.595.82 1.5 1.3 2.691 1.453v1.571h-17.33Zm-3.502-30.586h4.404l-2.249-36.424-2.155 36.424ZM438.563 4.25h31.513v39.82h-3.826c-.752-16.04-2.842-25.561-6.303-28.577v92.212c0 3.614 1.654 5.863 4.961 6.756v1.577h-20.95v-1.577c3.593-.893 5.247-3.228 4.955-6.983V15.496c-3.761 2.86-6.167 12.378-7.201 28.574h-3.149V4.25Zm-49.043 8.331c.439-2.706-.766-4.34-3.611-4.953V4.71h15.986l8.785 62.739v-55.77c0-2.247-.908-3.511-2.712-3.818V4.71h13.74v2.915c-1.94.463-2.845 3.611-2.692 9.448v98.505h-10.588l-10.819-70.603v63.193c-.445 3.286.69 4.852 3.384 4.719v2.691h-15.317l.233-2.485c2.556-.283 3.747-2.007 3.611-5.152v-95.36Zm-38.027 103.221v-1.571c1.807-1.804 2.399-8.251 1.807-19.343h-5.63c-.905 11.092-.387 17.539 1.574 19.343v1.571h-14.639v-1.571c1.208-.153 2.205-.633 3.03-1.453.828-.831 3.349-36.768 7.552-107.838h11.703c5.551 71.072 8.632 107.007 9.245 107.838.598.82 1.5 1.3 2.688 1.453v1.571h-17.33ZM348 85.216h4.395l-2.249-36.424L348 85.216Zm-60.652-73.764c0-2.403-1.344-3.591-4.048-3.591V4.94h34.449v36.883h-3.151c-1.056-11.703-2.709-19.685-4.959-23.963-2.249-4.265-5.633-6.467-10.126-6.624v38.225c4.054 1.344 6.147-4.274 6.303-16.867l3.154.233v46.098h-3.154c0-12.142-2.099-18.678-6.303-19.559v47.897c0 4.342 1.041 5.993 3.152 4.934l.233 3.381h-18.931l-.23-3.381c2.555.899 3.764-.666 3.611-4.719V11.452Zm-70.383 2.703c-.153-3.894-1.648-5.914-4.496-6.067V4.71h20.482v3.151c-2.995.304-4.492 2.4-4.492 6.288l.056 94.573c5.668-.381 10.069-13.165 13.221-38.34h2.939v45.42h-32.438v-3.145c2.998-.309 4.575-2.087 4.728-5.397V14.155Zm-38.181 101.647v-1.571c1.807-1.804 2.406-8.251 1.807-19.343h-5.63c-.905 11.092-.383 17.539 1.577 19.343v1.571h-14.642v-1.571c1.212-.153 2.208-.633 3.031-1.453.831-.831 3.342-36.768 7.558-107.838h11.7c5.554 71.072 8.628 107.007 9.244 107.838.596.82 1.501 1.3 2.692 1.453v1.571h-17.337Zm-3.493-30.586h4.398l-2.249-36.424-2.149 36.424Zm-61.704-72.635c.442-2.706-.769-4.34-3.614-4.953V4.71h15.989l8.782 62.739v-55.77c0-2.247-.905-3.511-2.709-3.818V4.71h13.739v2.915c-1.942.463-2.844 3.611-2.694 9.448v98.505h-10.583l-10.818-70.603v63.193c-.445 3.286.692 4.852 3.381 4.719v2.691h-15.317l.233-2.485c2.559-.283 3.747-2.007 3.614-5.152v-95.36h-.003Zm-37.526-4.72V4.71h17.33l-.209 3.151c-2.114.304-3.151 1.801-3.151 4.487v94.015c.056 4.419 1.267 6.524 3.59 6.294v3.145h-17.56v-3.145c2.093.313 3.151-1.801 3.151-6.294V12.354c0-2.692-1.058-4.186-3.151-4.493Zm-46.52 3.591c0-2.403-1.347-3.591-4.056-3.591V4.94h34.451v36.883h-3.151C55.73 30.12 54.076 22.138 51.827 17.86c-2.247-4.265-5.631-6.467-10.123-6.624v38.225c4.053 1.344 6.149-4.274 6.302-16.867l3.148.233v46.098h-3.148c0-12.142-2.093-18.678-6.302-19.559v47.897c0 4.342 1.034 5.993 3.148 4.934l.233 3.381H26.157l-.23-3.381c2.556.899 3.764-.666 3.614-4.719V11.452Z" style="fill:#fff;fill-rule:nonzero"/>
</svg>
