<?xml version="1.0" encoding="UTF-8" standalone="no"?>
<!DOCTYPE svg PUBLIC "-//W3C//DTD SVG 1.1//EN" "http://www.w3.org/Graphics/SVG/1.1/DTD/svg11.dtd">
<svg width="100%" height="100%" viewBox="0 0 590 113" version="1.1" xmlns="http://www.w3.org/2000/svg" xmlns:xlink="http://www.w3.org/1999/xlink" xml:space="preserve" xmlns:serif="http://www.serif.com/" style="fill-rule:evenodd;clip-rule:evenodd;stroke-linejoin:round;stroke-miterlimit:2;">
    <g transform="matrix(1,0,0,1,-3185,-697)">
        <g id="final-fantasy.afdesign" transform="matrix(1,0,0,1,3480,753.333)">
            <g transform="matrix(1,0,0,1,-320,-60.0739)">
                <clipPath id="_clip1">
                    <rect x="25.215" y="4" width="589.569" height="112.148"/>
                </clipPath>
                <g clip-path="url(#_clip1)">
                    <g transform="matrix(0.982616,0,0,0.982616,25.2153,4)">
                        <path id="use2190" d="M583.713,2.307L583.713,5.043C580.662,4.278 579.441,8.934 580.74,18.885L584.427,47.121L587.763,19.224C588.135,16.053 588.303,13.605 588.423,12.249C588.804,7.914 587.841,5.508 585.549,5.043L585.549,2.307L600,2.307L600,5.274C597.558,5.43 596.589,6.525 596.325,8.478L588.03,70.032L588.03,103.92C587.871,107.727 589.029,109.8 591.471,110.091L591.471,113.076L574.968,113.076L574.968,109.86C577.095,109.722 578.172,107.727 578.172,103.92L578.172,65.913L572.181,15.402C571.485,9.579 569.076,5.643 566.991,4.827L566.754,2.307L583.713,2.307ZM521.589,73.71L533.961,67.305C532.437,91.107 532.851,103.608 535.218,104.835C537.582,106.053 538.929,105.447 539.226,103.008C540.612,93.843 540.612,84.621 539.226,75.303C538.776,70.578 537.861,67.227 536.49,65.229C527.922,51.969 523.035,42.048 521.823,35.484L521.589,12.828C523.266,4.884 527.847,0.918 535.329,0.918C543.744,1.071 548.163,6.423 548.631,16.95L549.315,31.599L537.858,38.925C538.011,29.763 538.011,21.21 537.858,13.278C537.858,9.471 536.973,7.518 535.218,7.44C533.454,7.362 532.599,9.156 532.599,12.828L532.812,35.721C540.612,48.219 545.874,57.825 548.631,64.551C551.364,71.271 552.366,80.877 551.604,93.393C550.842,107.283 545.874,114.132 536.7,113.979C527.847,113.526 522.813,107.418 521.589,95.619L521.589,73.71ZM486.795,113.526L486.795,111.927C488.634,110.091 489.24,103.53 488.634,92.241L482.907,92.241C481.983,103.53 482.514,110.091 484.506,111.927L484.506,113.526L469.605,113.526L469.605,111.927C470.835,111.771 471.858,111.282 472.698,110.448C473.541,109.602 476.097,73.029 480.378,0.702L492.291,0.702C497.943,73.032 501.075,109.602 501.693,110.448C502.299,111.282 503.22,111.771 504.432,111.927L504.432,113.526L486.795,113.526ZM483.231,82.398L487.713,82.398L485.424,45.33L483.231,82.398ZM420.387,0L452.457,0L452.457,40.524L448.563,40.524C447.798,24.201 445.671,14.511 442.149,11.442L442.149,105.285C442.149,108.963 443.832,111.252 447.198,112.161L447.198,113.766L425.877,113.766L425.877,112.161C429.534,111.252 431.217,108.876 430.92,105.054L430.92,11.445C427.092,14.355 424.644,24.042 423.591,40.524L420.387,40.524L420.387,0ZM370.476,8.478C370.923,5.724 369.696,4.062 366.801,3.438L366.801,0.468L383.07,0.468L392.01,64.317L392.01,7.56C392.01,5.274 391.086,3.987 389.25,3.675L389.25,0.468L403.233,0.468L403.233,3.435C401.259,3.906 400.338,7.11 400.494,13.05L400.494,113.298L389.718,113.298L378.708,41.445L378.708,105.756C378.255,109.101 379.41,110.694 382.152,110.559L382.152,113.298L366.564,113.298L366.801,110.769C369.402,110.481 370.614,108.726 370.476,105.525L370.476,8.478ZM331.776,113.526L331.776,111.927C333.615,110.091 334.218,103.53 333.615,92.241L327.885,92.241C326.964,103.53 327.492,110.091 329.487,111.927L329.487,113.526L314.589,113.526L314.589,111.927C315.819,111.771 316.833,111.282 317.673,110.448C318.516,109.602 321.081,73.029 325.359,0.702L337.269,0.702C342.918,73.032 346.053,109.602 346.677,110.448C347.286,111.282 348.204,111.771 349.413,111.927L349.413,113.526L331.776,113.526ZM328.221,82.398L332.694,82.398L330.405,45.33L328.221,82.398ZM266.496,7.329C266.496,4.884 265.128,3.675 262.377,3.675L262.377,0.702L297.435,0.702L297.435,38.238L294.228,38.238C293.154,26.328 291.471,18.204 289.182,13.851C286.893,9.51 283.449,7.269 278.877,7.11L278.877,46.011C283.002,47.379 285.132,41.661 285.291,28.845L288.501,29.082L288.501,75.996L285.291,75.996C285.291,63.639 283.155,56.988 278.877,56.091L278.877,104.835C278.877,109.254 279.936,110.934 282.084,109.857L282.321,113.298L263.055,113.298L262.821,109.857C265.422,110.772 266.652,109.179 266.496,105.054L266.496,7.329ZM194.868,10.08C194.712,6.117 193.191,4.062 190.293,3.906L190.293,0.468L211.137,0.468L211.137,3.675C208.089,3.984 206.565,6.117 206.565,10.074L206.622,106.32C212.391,105.933 216.87,92.922 220.077,67.302L223.068,67.302L223.068,113.526L190.056,113.526L190.056,110.325C193.107,110.01 194.712,108.201 194.868,104.832L194.868,10.08ZM156.012,113.526L156.012,111.927C157.851,110.091 158.46,103.53 157.851,92.241L152.121,92.241C151.2,103.53 151.731,110.091 153.726,111.927L153.726,113.526L138.825,113.526L138.825,111.927C140.058,111.771 141.072,111.282 141.909,110.448C142.755,109.602 145.311,73.029 149.601,0.702L161.508,0.702C167.16,73.032 170.289,109.602 170.916,110.448C171.522,111.282 172.443,111.771 173.655,111.927L173.655,113.526L156.012,113.526ZM152.457,82.398L156.933,82.398L154.644,45.33L152.457,82.398ZM89.661,8.478C90.111,5.724 88.878,4.062 85.983,3.438L85.983,0.468L102.255,0.468L111.192,64.317L111.192,7.56C111.192,5.274 110.271,3.987 108.435,3.675L108.435,0.468L122.418,0.468L122.418,3.435C120.441,3.906 119.523,7.11 119.676,13.05L119.676,113.298L108.906,113.298L97.896,41.445L97.896,105.756C97.443,109.101 98.601,110.694 101.337,110.559L101.337,113.298L85.749,113.298L85.986,110.769C88.59,110.481 89.799,108.726 89.664,105.525L89.664,8.478L89.661,8.478ZM51.471,3.675L51.471,0.468L69.108,0.468L68.895,3.675C66.744,3.984 65.688,5.508 65.688,8.241L65.688,103.92C65.745,108.417 66.978,110.559 69.342,110.325L69.342,113.526L51.471,113.526L51.471,110.325C53.601,110.643 54.678,108.492 54.678,103.92L54.678,8.247C54.678,5.508 53.601,3.987 51.471,3.675ZM4.128,7.329C4.128,4.884 2.757,3.675 0,3.675L0,0.702L35.061,0.702L35.061,38.238L31.854,38.238C30.78,26.328 29.097,18.204 26.808,13.851C24.522,9.51 21.078,7.269 16.506,7.11L16.506,46.011C20.631,47.379 22.764,41.661 22.92,28.845L26.124,29.082L26.124,75.996L22.92,75.996C22.92,63.639 20.79,56.988 16.506,56.091L16.506,104.835C16.506,109.254 17.559,110.934 19.71,109.857L19.947,113.298L0.684,113.298L0.45,109.857C3.051,110.772 4.281,109.179 4.128,105.054L4.128,7.329Z" style="fill:white;fill-rule:nonzero;"/>
                    </g>
                </g>
            </g>
        </g>
    </g>
</svg>
