<svg width="155" height="75" viewBox="0 0 264 128" xmlns="http://www.w3.org/2000/svg">
    <path style="stroke:none;fill-rule:nonzero;fill:#fff;fill-opacity:1" d="M155 57.77c-1.207 0-2.348.023-3.488-.012-.676-.02-1.028-.363-1.164-1.051-.075-.367-.059-.75-.13-1.117-.12-.63-.464-.8-1.027-.508a6.59 6.59 0 0 0-.925.637c-3.262 2.539-6.895 3.32-10.903 2.34-3.203-.782-5.285-3.399-5.52-6.77-.37-5.336 3.13-8.71 7.165-9.832 1.582-.441 3.265-.543 4.91-.734 1.453-.172 2.918-.25 4.371-.387.809-.078 1.07-.36 1-1.152-.117-1.336-.156-2.7-.465-3.993-.5-2.12-2.015-3.195-4.137-3.41-3.18-.328-6.265.14-9.261 1.25-.238.09-.492.25-.727.227-.21-.02-.508-.196-.594-.383-.218-.5-.343-1.047-.507-1.574-.227-.715-.075-1.117.609-1.371 3.738-1.387 7.543-2.442 11.578-2.055 1.278.11 2.54.371 3.758.773 2.984 1.028 4.383 3.356 5.133 6.325.36 1.41.297 2.773.304 4.156.032 5.926.012 11.855.012 17.785Zm-8.492-14.032c-1.781.04-3.551.125-5.278.645-2.265.687-3.546 2.144-3.78 4.547-.294 3.011 1.515 5.265 4.495 5.492 1.543.121 2.957-.371 4.336-.992 1.625-.727 2.668-1.957 2.828-3.739.157-1.75.133-3.52.16-5.28.004-.442-.296-.673-.746-.673-.671-.004-1.343 0-2.015 0Zm-47.703 2.098v10.477c0 1.218-.239 1.457-1.453 1.468-.356 0-.711.012-1.067 0-1.265-.054-1.805-.586-1.953-1.855-.039-.352-.184-.688-.281-1.035-.364.164-.781.261-1.086.5-2.02 1.578-4.266 2.64-6.82 2.988-2.555.348-4.97-.094-7.165-1.484-1.574-1-2.316-2.575-2.695-4.32-.887-4.098.344-8.571 5.88-10.657a21.235 21.235 0 0 1 7.015-1.328c.906-.024 1.808-.035 2.71-.059.782-.02 1.212-.289 1.376-.976.445-1.899.336-3.742-.66-5.465-.903-1.559-2.376-2.106-4.06-2.32-2.776-.36-5.425.25-8.062 1.007-.472.133-.937.297-1.406.457-.496.168-.746-.05-.867-.515-.106-.399-.203-.801-.348-1.188-.355-.953-.183-1.43.793-1.73 1.64-.512 3.29-1.02 4.957-1.41 3.164-.739 6.34-.86 9.504.058 3.531 1.02 5.59 3.7 5.64 7.39.02 1.669 0 3.333 0 5v5Zm-5.375 1.496h-.04c0-.89.008-1.785 0-2.672-.007-.746-.18-.93-.91-.922-1.027.008-2.058-.015-3.082.075-1.234.105-2.488.207-3.687.496-2.547.617-3.742 1.957-4.047 4.421-.219 1.774.059 3.43 1.582 4.598 1.344 1.027 2.895 1.344 4.543 1 1.82-.379 3.356-1.375 4.844-2.426.672-.476.8-1.234.8-2.015-.003-.852-.003-1.703-.003-2.555Zm23.28 4.941c.778-2.324 1.653-4.62 2.317-6.976 1.078-3.848 2.059-7.727 2.996-11.61.32-1.34.41-2.738.563-4.12.11-.973.2-1.114 1.187-1.122a93.316 93.316 0 0 1 3.915.024c.699.02.874.285.718.968-1.761 7.68-3.57 15.348-6.422 22.723a109.593 109.593 0 0 1-1.78 4.274c-.481 1.101-1.044 1.379-2.243 1.347a88.82 88.82 0 0 0-4.328 0c-1.012.02-1.34-.172-1.645-1.148-2.808-8.992-5.613-17.985-8.418-26.98a4.147 4.147 0 0 1-.136-.579c-.067-.414.093-.644.539-.64 1.129 0 2.257-.008 3.382 0 1.122.007 1.93.57 2.305 1.632.613 1.735 1.23 3.47 1.754 5.239 1.527 5.16 3.008 10.336 4.512 15.5.144.488.367.953.554 1.43ZM71.016 37.39c0 4.403.05 8.801-.02 13.2-.039 2.414-.11 4.844-.469 7.222-.66 4.395-2.968 7.711-6.937 9.856-1.621.879-3.7-.27-4.246-1.469-.203-.441-.239-.793.285-1.09 3.324-1.906 4.941-4.918 5.344-8.629.168-1.55.187-3.125.191-4.69.031-7.216.047-14.43.043-21.65 0-3.453-.055-6.898-.074-10.347-.008-1.797.367-2.164 2.168-2.102.75.024 1.5.07 2.246.16.844.106 1.168.434 1.305 1.282.062.433.09.867.078 1.305.007 5.648.007 11.3 0 16.953ZM36.547.012c.07.086.176.16.203.258.684 2.699.871 5.39-.102 8.074-.699 1.922-1.843 3.543-3.289 4.96-2.402 2.36-4.832 4.688-7.218 7.063-.801.797-1.516 1.676-2.246 2.535-2.29 2.684-2.735 5.657-1.23 8.848.745 1.574 1.651 3.07 2.476 4.605.097.18.172.375.254.567l-.172.137c-.235-.266-.465-.543-.711-.801a38.502 38.502 0 0 1-5.446-7.106c-1.187-1.992-1.214-3.984.098-5.867.938-1.336 1.973-2.652 3.168-3.754 2.355-2.172 4.867-4.18 7.285-6.281 1.137-.984 2.281-1.977 3.305-3.074 2.226-2.399 3.297-5.32 3.539-8.563.023-.308-.074-.625-.098-.937-.015-.211 0-.426 0-.64Zm0 0" transform="matrix(1.70323 0 0 1.707 0 -.008)"/>
    <path style="stroke:none;fill-rule:nonzero;fill:#fff;fill-opacity:1" d="M43.027 14.91c-2.168 1.625-4.289 3.086-6.265 4.73-1.23 1.032-2.328 2.262-3.317 3.536-1.375 1.77-1.379 3.691-.172 5.597.739 1.172 1.5 2.332 2.184 3.536.723 1.27 1.258 2.62 1.035 4.132a3.85 3.85 0 0 1-.336 1.192c-.93 1.824-2.375 3.164-4.035 4.285l-.137-.09c.102-.164.196-.336.305-.496 1.29-1.89 1.316-3.809.086-5.73-.422-.668-.938-1.278-1.402-1.918-1.047-1.434-1.95-2.946-2.297-4.72-.535-2.69.246-5.015 2.058-7.023 1.946-2.148 4.301-3.734 6.91-4.941 1.57-.727 3.204-1.344 4.813-2.004.145-.059.32-.05.57-.086Zm9.34 49.93c.438.476.336.86-.008 1.11-.808.593-1.605 1.245-2.504 1.667-2.218 1.031-4.597 1.582-6.996 2.008-5.058.898-10.175 1.195-15.297 1.352-5.386.16-10.765.05-16.136-.29-3.047-.195-6.067-.585-9.012-1.417a8.462 8.462 0 0 1-1.844-.79c-.644-.367-.746-.925-.285-1.507.332-.442.742-.82 1.211-1.114 1.809-1.035 3.79-1.554 5.899-1.695-.196.09-.395.172-.586.266-.555.265-1.118.511-1.649.812-.437.242-.723.625-.68 1.164.043.54.41.832.864.953 1.449.383 2.894.832 4.367 1.063 6.64 1.012 13.316 1.187 20.012.785 4.343-.266 8.687-.527 13.023-.902 2.758-.239 5.504-.645 8.09-1.746.738-.32 1.363-.735 1.531-1.72ZM39.32 61.527c-2.027.504-4.035 1.118-6.086 1.496-5.097.954-10.195.848-15.234-.437a9.64 9.64 0 0 1-2.645-1.145c-1.156-.722-1.117-1.726.016-2.507.445-.305.95-.528 1.543-.852.05 1.508.996 1.875 2.117 1.992 5.02.547 10.09.422 15.078-.37 1.332-.216 2.399-.142 3.473.624.54.383 1.156.664 1.734.992Zm.965-8.218c-2.258.476-4.504 1.03-6.77 1.43-4.48.773-8.988.515-13.492.187-2.18-.156-4.328-.442-6.378-1.25-.602-.239-1.188-.477-1.278-1.239-.094-.765.266-1.351.899-1.742.55-.34 1.136-.617 1.75-.953-.2 1.785.113 2.086 1.875 2.567 1.035.285 2.144.343 3.226.402 5.817.305 11.574-.277 17.309-1.191a1.78 1.78 0 0 1 1.094.238c.617.375 1.175.851 1.765 1.293Zm2.379-9.43c-1.11 1.32-2.566 1.394-3.973 1.586-5.527.75-11.062 1.504-16.652 1.48-4.809-.02-9.621-.133-14.328-1.261a4.315 4.315 0 0 1-1.008-.34c-.203-.106-.488-.352-.476-.516.015-.246.203-.586.414-.7.937-.507 1.879-1.038 2.882-1.386 1.66-.578 3.36-1.031 5.047-1.52.176-.054.38-.007.61.102-.356.168-.723.332-1.082.5-.664.313-1.332.61-1.98.953-.458.239-.806.594-.712 1.184.094.59.582.684 1.051.797 2.656.648 5.371.617 8.074.691 6.45.184 12.84-.52 19.227-1.242Zm-27.66 29.738c1.215 0 2.437-.074 3.648.012 5.891.406 11.778.496 17.668.039 5.04-.395 10.051-.953 14.828-2.73 1.274-.477 2.485-1.126 3.723-1.696.137-.062.274-.129.41-.191l.121.14c-.445.395-.851.836-1.336 1.176-2.289 1.59-4.882 2.414-7.578 2.953-6.414 1.274-12.89 1.75-19.418 1.668-4.004-.05-7.988-.273-11.906-1.183-.055-.012-.11-.035-.164-.051Zm31.84-20.031c.574-.445 1.16-.887 1.722-1.332 1.368-1.09 2.723-2.207 3.625-3.727.496-.832.95-1.765 1.145-2.707.559-2.687-1.078-4.84-3.844-5.222-.488-.067-.984-.09-1.472-.137l-.024-.168c.727-.098 1.445-.266 2.172-.281 1.914-.043 3.508.73 4.793 2.11 1.316 1.41 1.574 3.679.594 5.433a9.254 9.254 0 0 1-1.496 2.043 16.272 16.272 0 0 1-6.25 3.886c-.293.102-.602.16-.907.239Zm0 0" transform="matrix(1.70323 0 0 1.707 0 -.008)"/>
</svg>
