<svg viewBox="48 104 405 271" xmlns="http://www.w3.org/2000/svg" xml:space="preserve">
    <g fill="#fff">
        <path d="M214.57 189.04c1.31 5.22 2.24 9.62 3.52 13.91 5.53 18.47 15.27 33.78 32.92 42.97 16.66 8.68 34.33 10.6 52.35 6.25 18.6-4.5 32.48-15.85 42.09-32.4.67-1.15 1.62-2.14 2.44-3.21-.15 1.61-.16 3.24-.48 4.81-2.69 13.19-5.44 26.37-8.17 39.56-2.33 11.23-4.7 22.45-6.91 33.7-.09.46 1.44 1.86 1.98 1.74 14.85-3.27 28.87-8.72 41.68-16.97 13.9-8.95 24.55-21.05 33.11-35.1 6.55-10.76 11.16-22.3 13.55-34.63 4.43-22.82 1.68-44.72-9.35-65.36-7.77-14.54-18.38-26.76-30.96-37.32-1.09-.92-2.32-1.67-3.13-2.85 45.46 25.53 68.97 64.85 72.47 117.3.55-1.02.63-1.14.67-1.26.04-.11.05-.23.25-1.26v11.66c-.2-.95-.3-1.38-.47-2.2-.73 5.65-1.27 10.92-2.11 16.14-3.92 24.34-10.92 47.61-26.45 67.27-12.49 15.8-28.5 27.59-46.01 37.44-13.48 7.58-27.82 12.81-42.84 16.19-4.98 1.12-10.07 1.74-15.14 2.35-.58.07-2.04-1.49-1.93-2.06 3.81-18.79 7.77-37.56 11.69-56.33.76-3.64 1.49-7.28 2.11-10.94.07-.41-.67-1.34-1.09-1.38-10.67-1.03-21.42-1.49-32.01-3.04-13.02-1.9-25.74-5.79-36.38-13.58-8.82-6.45-17.05-14.05-24.26-22.27-11.89-13.57-18.4-30.01-21.44-47.73-1.05-6.12-1.39-12.37-2.02-18.56-.06-.67.15-1.36.32-2.84zM81.99 313.37c5.88 0 11.76-.04 17.63.06.53.01 1.54.97 1.51 1.42-.37 5.2-.64 10.44-1.46 15.58-.92 5.82-2.32 11.56-3.58 17.32-1.59 7.24-3.68 14.41-4.68 21.73-.44 3.23-2.65 3.35-4.31 4.53-1.11.79-2.66 1.34-4.02 1.36-10.2.11-20.41.27-30.59-.14-1.75-.07-5.34-.74-4.94-4.32.27-2.39.83-4.76 1.46-7.08.13-.48 1.17-1.05 1.75-1.01 3.56.27 7.12 1.07 10.66 1 4.3-.09 8.62-.69 12.85-1.47.83-.15 1.4-2.12 1.93-3.32.13-.3-.41-1.27-.51-1.26-.88.17-1.72.55-2.59.77-1.98.49-3.95 1.18-5.96 1.32-3.02.21-6.07.03-9.11.01-3.68-.02-7.01-3.16-6.64-6.83.51-5.09 1.5-10.14 2.28-15.21.46-3.01.7-6.08 1.41-9.03.94-3.88 1.67-8.01 3.62-11.38 1.15-1.99 4.4-3.57 6.86-3.82 5.42-.57 10.94-.18 16.42-.18.01 0 .01-.02.01-.05zm-1.9 26.39c-.27-.12-.54-.25-.81-.37.26-1.02.59-2.03.77-3.07.69-4.04 1.42-8.08 1.9-12.15.06-.48-1.29-1.59-2.03-1.62-4.07-.19-5.37 1.75-5.73 6.2-.33 4.12-1.58 8.17-2.27 12.28-.18 1.06.09 3.12.41 3.17 1.74.28 3.88.65 5.26-.12 1.24-.7 1.7-2.82 2.5-4.32z"/>
        <path d="M291 313.38h13.43c2.68 0 5.64 3.05 5.62 5.74-.02 3.08.3 6.2-.1 9.22-.41 3.07-1.53 6.04-2.31 9.06-.15.56-.17 1.15-.25 1.73-.85 5.93-1.19 11.8-4.83 17.2-2.81 4.17-6.76 4.01-10.32 4.33-6.33.58-12.8.41-19.14-.2-3.06-.3-5.96-2.31-8.9-3.62-.28-.13-.44-.85-.41-1.28.4-4.95.67-9.92 1.35-14.83.64-4.57 1.51-9.13 2.72-13.58.96-3.52 2.12-7.15 4.08-10.16 1.14-1.76 3.92-3.13 6.13-3.4 4.25-.53 8.62-.15 12.93-.15v-.06zm1.08 12.55c-.26-.28-1.29-1.81-1.63-1.67-1.57.65-3.54 1.45-4.23 2.78-.84 1.62-.42 3.85-.75 5.79-.74 4.37-1.8 8.7-2.3 13.1-.13 1.16 1.3 2.5 2.02 3.75 1.06-1.11 2.61-2.05 3.06-3.37.82-2.42.98-5.06 1.44-7.6.73-3.97 1.48-7.93 2.39-12.78zM130.1 313.44c4.24 0 8.52-.35 12.7.14 2.4.29 5.82 1.39 6.66 3.14 1.06 2.23-.01 5.48-.21 8.29-.09 1.3-.25 2.6-.48 3.88-.89 4.79-1.75 9.59-2.76 14.35-.73 3.44-1.95 6.81-2.38 10.28-.18 1.47 1.15 3.11 1.75 4.69.22.57.64 1.45.41 1.74-.46.56-1.3 1.12-2 1.14-4.97.11-9.95.28-14.9.01-2.23-.12-4.9-.55-4.82-3.98.02-.76-.49-1.54-.75-2.3-.63.5-1.47.87-1.86 1.52-4.07 6.79-13.8 5.98-18.72 1.3-2.9-2.75-3.99-6.2-2.72-9.1 2.62-6.03 2.97-14.22 10.73-16.45 5.18-1.49 10.88-1.13 16.31-1.9 1.29-.18 3.43-1.56 3.43-2.39-.01-2.1-.75-4.34-1.8-6.19-.23-.4-3.02 1.09-4.51.88-3.55-.48-7.12-1.21-10.47-2.42-.76-.28-1.18-3.11-.78-4.48.28-.97 2.18-1.99 3.41-2.05 4.56-.25 9.16-.1 13.76-.1zm-8.36 28.67c0 .76-.28 1.7.06 2.24.62.98 1.55 1.81 2.5 2.48.23.16 1.41-.44 1.56-.88a55.47 55.47 0 0 0 1.79-6.57c.08-.38-.64-1.22-1.14-1.38-3.86-1.22-4.77-.4-4.77 4.11zm50.91 18.98h-15.43c-1.5 0-6.33-5.14-6.08-6.75.71-4.46 1.6-8.88 2.43-13.32.39-2.08.89-4.14 1.2-6.23.54-3.59 1.07-7.19 1.43-10.8.55-5.47 6.04-10.55 11.55-10.55 7.92 0 15.84-.03 23.76-.04 4.35-.01 7.82 5.34 6.5 9.46-.7 2.2-.73 4.68-.75 7.03-.04 5.98-2.99 8.05-8.98 7.17-3.21-.47-6.64.7-9.97.79-1.64.04-3.49-1.35-4.9-.92-1.6.48-3.65 2.05-4.01 3.51-.59 2.36-1.85 5.47 1.42 7.25.82.45 1.87.67 2.81.69 4.28.07 8.56.15 12.84-.04 1.66-.07 3.27-.92 4.93-1.24.57-.11 1.24.34 1.86.53-.25.44-.69.87-.73 1.34-.17 1.88-.29 3.78-.28 5.67.02 3.48-2.73 6.26-6.27 6.24-4.44-.02-8.88 0-13.32 0-.01.06-.01.13-.01.21zm1.3-30.84c4.68.12 7.78-.47 7.44-4.67-.31-3.84-4.1-2.67-5.53-2.04-1.8.78-2.81 3.38-4.16 5.19 1.07.72 2.14 1.44 2.25 1.52zm73.35-16.81c3.68 0 7.36-.09 11.03.06 1.04.04 2.97.97 2.93 1.15-.48 2.16-.75 5.62-2.04 6.09-2.77 1-6.1.52-9.2.51-2.1-.01-3.43.39-3.62 2.95-.3 3.98-.98 7.94-1.58 11.9-.46 3.06-1.27 6.08-1.45 9.14-.06 1 1.4 2.98 2.15 2.97 4.63-.07 9.25-.58 13.88-.92.28-.02.75.07.82.23.13.33.1.76.04 1.13-.43 2.3-1.25 4.59-1.26 6.88-.01 3.78-2.53 5.09-5.34 5.21-7.06.3-14.16-.22-21.22.14-5.12.26-8.66-1.42-10.32-6.22-.52-1.51-.07-3.39.08-5.08.08-.92.52-1.81.68-2.73 1.02-6.08 1.81-12.21 3.06-18.24.81-3.87 1.85-7.82 3.63-11.31.92-1.79 3.57-3.43 5.65-3.74 3.95-.59 8.05-.17 12.09-.17-.01.02-.01.04-.01.05zm-31.83-12.84c2.8 0 5.64-.27 8.38.13 1.09.16 2.83 1.8 2.81 2.73-.1 3.89-.51 7.8-1.25 11.63-1.14 5.9-2.57 11.75-4.02 17.58-1.46 5.9-3.34 11.71-4.53 17.66-.48 2.41.38 5.08.64 7.64.09.84.38 1.72.21 2.5-.05.25-1.3.31-2.01.33-4.48.13-8.96.4-13.43.24-1.64-.06-3.88-.69-4.71-1.86-.88-1.24-.63-3.47-.45-5.22.2-1.95.98-3.83 1.35-5.78.54-2.83.78-5.74 1.45-8.53.61-2.52 1.8-4.91 2.42-7.43 1.05-4.23 1.8-8.53 2.78-12.77.6-2.6 1.89-5.13 2-7.73.13-3.08-.65-6.2-1.1-9.29-.07-.47-.53-.87-.81-1.31.54-.19 1.08-.52 1.63-.54 1.44-.06 2.88.02 4.32.03 1.44.01 2.88 0 4.32 0v-.01z"/>
    </g>
</svg>
