<svg viewBox="0 0 264 29" xmlns="http://www.w3.org/2000/svg">
    <path d="M39.307.624H33.49l-1.418 2.205c-.755-1.028-1.856-1.759-3.304-2.195C27.32.2 25.327-.012 22.787 0 16.991.061 12.088 1.396 8.079 4.005S1.501 10.133.375 14.563c-.572 2.474-.489 4.712.247 6.714.736 2.001 2.064 3.646 3.982 4.935 2.839 1.866 6.907 2.794 12.204 2.787 2.483.003 4.659-.231 6.529-.706 1.87-.476 3.466-1.211 4.788-2.206l.576 2.288h4.922l1.627-6.865c.356-1.426.602-2.317.739-2.673.136-.355.328-.601.573-.738.2-.167.497-.292.893-.374.396-.083.94-.126 1.631-.126h1.678l.897-3.786H21.302l-.897 3.786h2.349c.692-.002 1.217.035 1.575.11.359.075.596.205.711.39.182.137.256.383.224.738-.032.356-.208 1.247-.529 2.673l-.069.292c-.258 1.118-.816 1.94-1.675 2.465-.858.526-2.067.785-3.624.78-1.039-.001-1.989-.144-2.849-.432a6.245 6.245 0 0 1-2.228-1.274c-1.057-.94-1.72-2.097-1.988-3.469-.269-1.372-.163-3.059.318-5.061.847-3.527 2.275-6.217 4.282-8.065 2.008-1.849 4.515-2.78 7.521-2.793 1.406.004 2.611.214 3.612.629 1.002.416 1.751 1.01 2.248 1.784.405.591.657 1.24.755 1.945.099.706.081 1.666-.053 2.881h5.816Zm20.98 0L45.828 21.51c-.84 1.257-1.59 2.093-2.251 2.507-.661.415-1.552.605-2.674.572h-1.79l-.897 3.786h17.003l.897-3.786h-2.405c-.942.003-1.599-.076-1.971-.239-.371-.163-.508-.43-.411-.801.008-.103.078-.261.21-.473.132-.212.484-.735 1.056-1.566l1.464-2.163h11.466l.438 2.163c.151.83.239 1.356.262 1.577a1.28 1.28 0 0 1-.038.546c-.067.385-.303.643-.708.774-.405.132-1.14.192-2.204.182h-2.181l-.897 3.786H81.45l.898-3.786h-1.846a8.709 8.709 0 0 1-1.462-.115c-.433-.074-.752-.174-.956-.301-.199-.161-.404-.485-.616-.972a7.598 7.598 0 0 1-.487-1.691L73.263.624Zm4.576 15.145h-8.446l6.582-9.361ZM126.08 5.118l-3.688 15.56c-.356 1.427-.602 2.318-.739 2.673-.136.356-.328.602-.573.739-.199.166-.497.291-.893.374-.396.084-.94.125-1.631.125h-1.901l-.898 3.786h21.757l.898-3.786h-3.133c-.69 0-1.214-.041-1.571-.125-.356-.083-.595-.208-.715-.374-.176-.158-.248-.415-.216-.769.032-.356.205-1.237.522-2.643l2.929-12.356c.355-1.427.602-2.318.738-2.674.137-.355.328-.601.574-.738.199-.167.496-.292.892-.374.397-.084.94-.126 1.631-.126h3.132l.898-3.786h-21.757l-9.923 16.851L110.535.624H88.777L87.88 4.41h3.132c.691 0 1.215.042 1.571.126.357.082.596.207.715.374.182.137.256.383.224.738-.032.356-.208 1.247-.529 2.674l-2.929 12.356c-.351 1.406-.595 2.287-.731 2.643-.137.354-.331.611-.581.769-.199.166-.497.291-.893.374-.396.084-.939.125-1.631.125h-3.132l-.897 3.786H99.37l.897-3.786h-1.902c-.69 0-1.214-.041-1.571-.125-.357-.083-.595-.208-.715-.374-.181-.137-.255-.383-.224-.739.032-.355.208-1.246.529-2.673l3.689-15.56 3.156 23.257h8.781ZM160.352.624 145.893 21.51c-.84 1.257-1.591 2.093-2.252 2.507-.661.415-1.552.605-2.673.572h-1.79l-.897 3.786h17.003l.897-3.786h-2.405c-.942.003-1.599-.076-1.971-.239-.371-.163-.508-.43-.411-.801.008-.103.078-.261.21-.473.132-.212.484-.735 1.056-1.566l1.464-2.163h11.466l.438 2.163c.151.83.239 1.356.262 1.577.024.221.01.402-.038.546-.068.385-.304.643-.708.774-.405.132-1.14.192-2.204.182h-2.181l-.898 3.786h21.254l.897-3.786h-1.845a8.7 8.7 0 0 1-1.462-.115c-.434-.074-.752-.174-.956-.301-.199-.161-.404-.485-.616-.972a7.546 7.546 0 0 1-.487-1.691L173.328.624Zm4.576 15.145h-8.446l6.582-9.361ZM188.99.624l-4.47 8.929 5.393 1.889c.545-2.427 1.562-4.219 3.05-5.372 1.487-1.154 3.469-1.706 5.944-1.66l-3.856 16.268c-.356 1.427-.602 2.318-.739 2.673-.137.356-.328.602-.574.739-.199.166-.496.291-.892.374-.396.084-.94.125-1.631.125h-3.132l-.898 3.786h23.212l.897-3.786h-3.132c-.691 0-1.215-.041-1.571-.125-.357-.083-.596-.208-.715-.374-.181-.137-.256-.383-.224-.739.032-.355.208-1.246.529-2.673l3.856-16.268h1.175c2.071.002 3.513.509 4.324 1.519.811 1.011.981 2.516.51 4.515l-.237.998 6.119-1.185-1.67-9.768Zm73.962 0h-37.077l-.898 3.786h3.132c.692 0 1.215.042 1.572.126.357.082.595.207.715.374.181.137.255.383.224.738-.033.356-.209 1.247-.529 2.674l-2.93 12.356c-.355 1.427-.601 2.318-.738 2.673-.137.356-.328.602-.574.739-.199.166-.496.291-.893.374-.396.084-.939.125-1.63.125h-3.132l-.898 3.786h37.077l5.837-9.874-7.669-1.484c-.317 1.124-.584 1.965-.801 2.523a9.105 9.105 0 0 1-.781 1.554c-.484.784-1.156 1.473-2.014 2.065a7.923 7.923 0 0 1-2.737 1.222c-.453.1-.936.161-1.448.183-.512.02-1.668.029-3.467.025h-6.152l2.041-8.612h1.734c1.557-.011 2.619.27 3.184.843.566.572.692 1.498.377 2.776l-.198.833h4.922l2.959-12.482h-4.922c-.185.785-.35 1.357-.497 1.716-.147.36-.319.661-.516.905-.417.581-.98 1.011-1.689 1.29-.71.279-1.568.418-2.574.416h-1.902l1.864-7.864h7.383c.925-.001 1.617.012 2.075.037a7.73 7.73 0 0 1 1.13.13c.673.128 1.259.331 1.757.608.498.279.884.617 1.158 1.014.408.637.654 1.371.736 2.206.082.834-.012 1.818-.281 2.954L264 10.171Z" style="font:oblique 800 40px/125% &quot;Clarendon T OT Extra Bold&quot;;text-align:start;writing-mode:lr-tb;text-anchor:start;letter-spacing:0;word-spacing:0;fill-opacity:1;stroke:none;fill:#fff"/>
</svg>
