<?xml version="1.0" encoding="UTF-8"?>
<svg width="633px" height="75px" viewBox="0 0 633 75" version="1.1" xmlns="http://www.w3.org/2000/svg" xmlns:xlink="http://www.w3.org/1999/xlink">
    <title>gamegear</title>
    <defs>
        <polygon id="path-1" points="0 0 632 0 632 74.212 5.44009282e-15 74.212"></polygon>
    </defs>
    <g id="Page-1" stroke="none" stroke-width="1" fill="none" fill-rule="evenodd" opacity="0.78">
        <g id="Sega-Gamegear" transform="translate(-3.000000, -22.000000)">
            <g id="gamegear" transform="translate(3.969141, 22.564771)">
                <mask id="mask-2" fill="white">
                    <use xlink:href="#path-1"></use>
                </mask>
                <g id="Path"></g>
                <g id="Group" mask="url(#mask-2)" fill-rule="nonzero">
                    <g transform="translate(0.000258, 0.000178)">
                        <path d="M237.779742,61.7698221 C232.452742,68.8918221 227.176742,70.9158221 224.868742,72.0068221 C222.565742,73.1018221 219.072742,73.9588221 216.017742,73.9588221 C207.446742,73.9588221 200.758742,71.2098221 195.950742,65.7298221 C191.141742,60.2278221 188.739742,52.5148221 188.739742,42.5078221 C188.739742,30.6808221 191.770742,20.6488221 197.860742,12.3688221 C203.947742,4.11582205 212.019742,0.00182205231 222.078742,0.00182205231 C229.709742,0.00182205231 235.951742,2.11082205 240.839742,6.35182205 C245.724742,10.5718221 248.155742,17.2058221 248.155742,26.2298221 L233.393742,26.2298221 C233.393742,21.9098221 232.424742,18.8758221 230.488742,17.1278221 C228.558742,15.4038221 225.784742,14.5278221 222.155742,14.5278221 C216.223742,14.5278221 211.650742,17.3838221 208.384742,23.0678221 C205.145742,28.7758221 203.495742,35.2538221 203.495742,42.5328221 C203.495742,47.4968221 204.569742,51.5598221 206.657742,54.6948221 C208.774742,57.8598221 211.933742,59.4268221 216.144742,59.4268221 C220.534742,59.4268221 223.928742,58.1918221 226.385742,55.7478221 C228.816742,53.3338221 230.618742,50.1938221 231.769742,46.3608221 L218.023742,46.3608221 L220.247742,33.1958221 L247.052742,33.1958221 L244.780742,45.9478221 C244.784742,45.9548221 243.083742,54.6468221 237.779742,61.7698221 L237.779742,61.7698221 Z M365.232742,1.82882205 L353.240742,72.2388221 L340.333742,72.2388221 L350.497742,17.6688221 L328.078742,72.2388221 L317.498742,72.2388221 L312.613742,17.6938221 L304.899742,72.2388221 L291.840742,72.2388221 L303.778742,1.82882205 L322.097742,1.82882205 L326.200742,51.4058221 L346.788742,1.69682205 L365.232742,1.82882205 L365.232742,1.82882205 Z M378.898742,29.0858221 L399.986742,29.0858221 L397.786742,42.7418221 L376.702742,42.7418221 L373.987742,57.7338221 L397.786742,57.7338221 L395.441742,72.2388221 L357.919742,72.2388221 L369.779742,1.75082205 L406.854742,1.75082205 L404.585742,16.3558221 L381.250742,16.3558221 L378.898742,29.0858221 Z M266.522742,1.69682205 L237.677742,72.2388221 L251.734742,72.2388221 L256.880742,58.4798221 L275.275742,58.4798221 L276.476742,72.2388221 L290.088742,72.2388221 L281.937742,1.69982205 L266.522742,1.69982205 L266.522742,1.69682205 Z M261.348742,46.4458221 L271.802742,18.3878221 L274.229742,46.4458221 L261.348742,46.4458221 L261.348742,46.4458221 Z M479.670742,61.7698221 C474.341742,68.8918221 469.071742,70.9158221 466.763742,72.0068221 C464.456742,73.1018221 460.963742,73.9588221 457.909742,73.9588221 C449.341742,73.9588221 442.650742,71.2098221 437.845742,65.7328221 C433.033742,60.2278221 430.630742,52.5148221 430.630742,42.5108221 C430.630742,30.6808221 433.662742,20.6528221 439.751742,12.3728221 C445.837742,4.11882205 453.910742,0.00182205231 463.973742,0.00182205231 C471.601742,0.00182205231 477.846742,2.11382205 482.730742,6.35482205 C487.619742,10.5748221 490.047742,17.2088221 490.047742,26.2328221 L475.288742,26.2328221 C475.288742,21.9128221 474.322742,18.8788221 472.386742,17.1308221 C470.453742,15.4068221 467.681742,14.5338221 464.050742,14.5338221 C458.118742,14.5338221 453.545742,17.3868221 450.281742,23.0708221 C447.039742,28.7788221 445.393742,35.2568221 445.393742,42.5358221 C445.393742,47.4998221 446.464742,51.5628221 448.552742,54.6978221 C450.672742,57.8628221 453.831742,59.4298221 458.039742,59.4298221 C462.432742,59.4298221 465.825742,58.1978221 468.283742,55.7508221 C470.714742,53.3368221 472.516742,50.1998221 473.666742,46.3648221 L459.920742,46.3648221 L462.142742,33.1988221 L488.950742,33.1988221 L486.675742,45.9548221 C486.675742,45.9548221 484.975742,54.6468221 479.670742,61.7698221 Z M507.213742,29.1108221 L528.271742,29.1108221 L526.103742,42.7418221 L505.017742,42.7418221 L502.277742,57.7338221 L526.103742,57.7338221 L523.752742,72.2608221 L486.230742,72.2608221 L498.094742,1.75082205 L535.172742,1.75082205 L532.899742,16.3558221 L509.561742,16.3558221 L507.213742,29.1108221 L507.213742,29.1108221 Z M553.824742,1.72582205 L524.979742,72.2638221 L539.065742,72.2638221 L544.182742,58.5048221 L562.603742,58.5048221 L563.804742,72.2638221 L577.391742,72.2638221 L569.239742,1.72582205 L553.824742,1.72582205 Z M548.675742,46.4428221 L559.103742,18.3878221 L561.560742,46.4428221 L548.675742,46.4428221 Z M599.184742,32.7358221 L602.321742,15.3788221 L609.843742,15.3788221 C612.612742,15.3788221 614.678742,15.8668221 616.063742,16.8458221 C617.446742,17.8468221 618.126742,19.8268221 618.126742,22.8108221 C618.126742,26.1548221 617.004742,28.6218221 614.783742,30.2678221 C612.533742,31.9168221 609.688742,32.7358221 606.240742,32.7358221 L599.184742,32.7358221 Z M590.692742,1.75082205 L578.830742,72.2608221 L592.545742,72.2608221 L597.147742,45.3888221 L603.494742,45.3888221 L614.102742,72.2608221 L629.832742,72.2608221 L618.072742,42.5078221 C622.175742,40.4528221 625.704742,37.0308221 628.160742,33.4588221 C630.718742,29.7798221 631.999742,25.4848221 631.999742,20.5748221 C631.999742,13.9148221 630.484742,9.12982205 627.426742,6.17282205 C624.397742,3.21782205 620.081742,1.75082205 614.544742,1.75082205 L590.692742,1.75082205 L590.692742,1.75082205 Z" id="Shape" fill="#FFFFFF"></path>
                        <path d="M11.4517425,28.8358221 C23.5537425,8.85682205 40.2177425,-3.61417795 48.6687425,0.939822052 C57.1007425,5.51382205 54.1287425,25.4138221 42.0007425,45.3788221 C29.8977425,65.3608221 13.2377425,77.8288221 4.80574247,73.2738221 C-3.64525753,68.7038221 -0.654257526,48.7978221 11.4517425,28.8358221 Z" id="Path" fill="#FE2906"></path>
                        <path d="M65.5987425,28.8358221 C77.7047425,8.85682205 94.3647425,-3.61417795 102.812742,0.939822052 C111.244742,5.51382205 108.273742,25.4138221 96.1487425,45.3788221 C84.0427425,65.3608221 67.3817425,77.8288221 58.9527425,73.2738221 C50.5027425,68.7038221 53.4927425,48.7978221 65.5987425,28.8358221 Z" id="Path" fill="#00CC9A"></path>
                        <path d="M119.746742,28.8358221 C131.848742,8.85382205 148.512742,-3.61417795 156.960742,0.936822052 C165.392742,5.51082205 162.419742,25.4138221 150.294742,45.3788221 C138.189742,65.3608221 121.532742,77.8288221 113.100742,73.2708221 C104.646742,68.7038221 107.640742,48.7978221 119.746742,28.8358221 L119.746742,28.8358221 Z" id="Path" fill="#0297FA"></path>
                    </g>
                </g>
            </g>
        </g>
    </g>
</svg>