<svg viewBox="0 0 3840 480" xmlns="http://www.w3.org/2000/svg">
    <path transform="rotate(90 293.876 241.942)" class="st1" style="fill:#fff" d="M240.4 128.7h106.9v226.4H240.4z"/>
    <path class="st1" style="fill:#fff" d="M671.4 163.3h106.9v310.1H671.4zm106.9 0H671.4c0-46.5-69.7-46.5-69.7 0H494.8c-.1-189.1 283.5-189.1 283.5 0Zm-283.6 0h106.9v310.1H494.7z"/>
    <path transform="rotate(90 638.779 295.396)" class="st1" style="fill:#fff" d="M585.3 165.4h106.9v260.1H585.3z"/>
    <path class="st1" style="fill:#fff" d="M2990.3 92.4h106.9v381h-106.9z"/>
    <path transform="rotate(90 3043.734 74.966)" class="st1" style="fill:#fff" d="M2990.3-47.3h106.9v244.6h-106.9z"/>
    <path class="st1" style="fill:#fff" d="M2417.1 163.3H2524v310.1h-106.9zm106.9 0h-106.9c0-46.5-69.7-46.5-69.7 0h-106.9c0-189.1 283.5-189.1 283.5 0Zm-283.5 0h106.9v310.1h-106.9z"/>
    <path transform="rotate(90 2384.54 295.396)" class="st1" style="fill:#fff" d="M2331.1 165.4H2438v260.1h-106.9z"/>
    <path class="st1" style="fill:#fff" d="M1008.1 158.7H1115v314.7h-106.9zm-176.6 0h106.9v314.7H831.5z"/>
    <path class="st1" d="M1061.6 163.3h-53.5c0-46.5-69.7-46.5-69.7 0H831.5c0-189.1 230.1-189.1 230.1 0Zm230.1 0h-106.9c0-46.5-69.7-46.5-69.7 0h-53.5c0-189.1 230.1-189.1 230.1 0Z" style="fill:#fff"/>
    <path class="st1" style="fill:#fff" d="M1184.8 158.7h106.9v314.7h-106.9zm718.9 0h106.9v314.7h-106.9zm-176.7 0h106.9v314.7H1727z"/>
    <path class="st1" d="M1957.2 163.3h-53.5c0-46.5-69.7-46.5-69.7 0h-106.9c-.1-189.1 230.1-189.1 230.1 0Zm230.1 0h-106.9c0-46.5-69.7-46.5-69.7 0h-53.5c0-189.1 230.1-189.1 230.1 0Z" style="fill:#fff"/>
    <path class="st1" style="fill:#fff" d="M2080.3 158.7h106.9v314.7h-106.9z"/>
    <path transform="rotate(90 1472.704 247.419)" class="st1" style="fill:#fff" d="M1419.3 151h106.9v192.8h-106.9z"/>
    <path transform="rotate(90 1472.704 74.939)" class="st1" style="fill:#fff" d="M1419.3-21.5h106.9v192.8h-106.9z"/>
    <path class="st1" d="M1451.8 366.4v-345h-106.9v365.7c0 47.6 38.6 86.2 86.2 86.2h138V366.4h-117.3Z" style="fill:#fff"/>
    <path transform="rotate(90 3334.473 247.419)" class="st1" style="fill:#fff" d="M3281 151h106.9v192.8H3281z"/>
    <path transform="rotate(90 3334.473 74.939)" class="st1" style="fill:#fff" d="M3281-21.5h106.9v192.8H3281z"/>
    <path class="st1" d="M3313.6 366.4v-345h-106.9v365.7c0 47.6 38.6 86.2 86.2 86.2h138V366.4h-117.3ZM3484.1 178H3591v295.4h-106.9zm213.5 98.6-22.6 22.6-84-65.7 31.1 118.7L3749.9 480l75.6-75.6z" style="fill:#fff"/>
    <path class="st1" d="M3662 0c-98.3 0-178 79.7-178 178 0 73 44 135.7 106.9 163.1V233.5l30.8 117.7c13 3 26.4 4.7 40.2 4.7 98.3 0 178-79.7 178-178C3840 79.7 3760.3 0 3662 0Zm0 249c-39.2 0-71.1-31.8-71.1-71.1 0-39.2 31.8-71.1 71.1-71.1s71.1 31.8 71.1 71.1-31.8 71.1-71.1 71.1ZM2880.8 21.5h-62.9c-62.5 0-115.9 45.2-126.1 106.9l-32.9 198.3c-3.8 22.9-23.6 39.8-46.9 39.8h-47.4v106.9h70c62.5 0 115.9-45.2 126.1-106.9l32.9-198.3c3.8-22.9 23.6-39.8 46.9-39.8h40.3V21.5Zm-2500.7 167-40.8 40.8c.2 2.6.4 5.1.4 7.7 0 64.3-52.1 116.4-116.4 116.4-64.3 0-116.4-52.1-116.4-116.4 0-64.3 52.1-116.4 116.4-116.4 37.7 0 71 18 92.3 45.7l76-76c-40.9-46.9-101.1-76.6-168.3-76.6C100 13.7 0 113.7 0 237c0 123.3 100 223.3 223.3 223.3 123.3 0 223.3-100 223.3-223.3 0-16.7-1.8-32.9-5.3-48.5h-61.2Z" style="fill:#fff"/>
</svg>
