<?xml version="1.0" encoding="UTF-8" standalone="no"?>
<!DOCTYPE svg PUBLIC "-//W3C//DTD SVG 1.1//EN" "http://www.w3.org/Graphics/SVG/1.1/DTD/svg11.dtd">
<svg width="100%" height="100%" viewBox="0 0 636 82" version="1.1" xmlns="http://www.w3.org/2000/svg" xmlns:xlink="http://www.w3.org/1999/xlink" xml:space="preserve" xmlns:serif="http://www.serif.com/" style="fill-rule:evenodd;clip-rule:evenodd;stroke-linejoin:round;stroke-miterlimit:2;">
    <g transform="matrix(1,0,0,1,-42,-930)">
        <g id="gamegear.afdesign" transform="matrix(1,0,0,1,360,971.111)">
            <g transform="matrix(1,0,0,1,-318.177,-60.0013)">
                <g transform="matrix(1.05333,0,0,1.03667,4.0002,22.8936)">
                    <g>
                        <g>
                            <path id="path5" d="M225.74,59.585C220.683,66.455 215.674,68.407 213.483,69.46C211.296,70.516 207.98,71.343 205.08,71.343C196.943,71.343 190.594,68.691 186.029,63.405C181.464,58.097 179.183,50.657 179.183,41.004C179.183,29.596 182.061,19.919 187.842,11.932C193.621,3.97 201.284,0.002 210.834,0.002C218.079,0.002 224.005,2.036 228.645,6.127C233.283,10.198 235.591,16.597 235.591,25.302L221.576,25.302C221.576,21.135 220.656,18.208 218.818,16.522C216.986,14.859 214.352,14.014 210.907,14.014C205.276,14.014 200.934,16.769 197.833,22.252C194.758,27.758 193.192,34.007 193.192,41.028C193.192,45.817 194.212,49.736 196.194,52.76C198.204,55.813 201.203,57.325 205.201,57.325C209.368,57.325 212.59,56.133 214.923,53.776C217.231,51.447 218.942,48.418 220.034,44.721L206.984,44.721L209.096,32.022L234.544,32.022L232.387,44.323C232.39,44.329 230.776,52.714 225.74,59.585Z" style="fill:white;fill-rule:nonzero;"/>
                            <path id="polygon9" d="M346.74,1.764L335.355,69.684L323.102,69.684L332.751,17.044L311.467,69.684L301.423,69.684L296.785,17.068L289.462,69.684L277.064,69.684L288.397,1.764L305.789,1.764L309.684,49.588L329.23,1.637L346.74,1.764Z" style="fill:white;fill-rule:nonzero;"/>
                            <path id="polygon11" d="M359.714,28.057L379.734,28.057L377.646,41.23L357.629,41.23L355.052,55.692L377.646,55.692L375.419,69.684L339.797,69.684L351.057,1.689L386.254,1.689L384.1,15.777L361.947,15.777L359.714,28.057Z" style="fill:white;fill-rule:nonzero;"/>
                            <path id="path13" d="M253.028,1.637L225.643,69.684L238.989,69.684L243.874,56.411L261.338,56.411L262.478,69.684L275.401,69.684L267.662,1.64L253.028,1.64L253.028,1.637ZM248.116,44.803L258.04,17.738L260.345,44.803L248.116,44.803Z" style="fill:white;fill-rule:nonzero;"/>
                            <path id="path5_1_" d="M455.384,59.585C450.324,66.455 445.321,68.407 443.13,69.46C440.94,70.516 437.624,71.343 434.724,71.343C426.59,71.343 420.238,68.691 415.676,63.408C411.108,58.097 408.827,50.657 408.827,41.007C408.827,29.596 411.705,19.922 417.486,11.935C423.264,3.973 430.928,0.002 440.481,0.002C447.723,0.002 453.652,2.039 458.289,6.13C462.93,10.201 465.235,16.6 465.235,25.305L451.223,25.305C451.223,21.138 450.306,18.211 448.468,16.525C446.633,14.862 444.002,14.02 440.554,14.02C434.923,14.02 430.581,16.772 427.483,22.255C424.405,27.761 422.842,34.01 422.842,41.031C422.842,45.82 423.859,49.739 425.841,52.763C427.854,55.816 430.853,57.328 434.848,57.328C439.018,57.328 442.24,56.139 444.573,53.779C446.881,51.45 448.592,48.424 449.684,44.725L436.634,44.725L438.743,32.025L464.194,32.025L462.034,44.329C462.034,44.329 460.42,52.714 455.384,59.585Z" style="fill:white;fill-rule:nonzero;"/>
                            <path id="polygon15" d="M481.532,28.081L501.524,28.081L499.466,41.23L479.447,41.23L476.846,55.692L499.466,55.692L497.234,69.705L461.611,69.705L472.875,1.689L508.075,1.689L505.917,15.777L483.761,15.777L481.532,28.081Z" style="fill:white;fill-rule:nonzero;"/>
                            <path id="path17" d="M525.783,1.665L498.398,69.708L511.771,69.708L516.629,56.435L534.117,56.435L535.258,69.708L548.157,69.708L540.417,1.665L525.783,1.665ZM520.895,44.8L530.795,17.738L533.127,44.8L520.895,44.8Z" style="fill:white;fill-rule:nonzero;"/>
                            <path id="path19" d="M568.846,31.578L571.824,14.835L578.966,14.835C581.594,14.835 583.556,15.306 584.871,16.25C586.184,17.216 586.829,19.126 586.829,22.004C586.829,25.23 585.764,27.61 583.655,29.197C581.519,30.788 578.818,31.578 575.545,31.578L568.846,31.578ZM560.784,1.689L549.523,69.705L562.543,69.705L566.912,43.783L572.938,43.783L583.009,69.705L597.942,69.705L586.778,41.004C590.673,39.022 594.023,35.721 596.355,32.275C598.784,28.727 600,24.584 600,19.847C600,13.423 598.561,8.807 595.658,5.955C592.783,3.104 588.685,1.689 583.429,1.689L560.784,1.689Z" style="fill:white;fill-rule:nonzero;"/>
                        </g>
                    </g>
                    <g>
                        <g>
                            <g>
                                <path id="path21" d="M10.872,27.816C22.361,8.544 38.181,-3.486 46.204,0.907C54.209,5.319 51.388,24.515 39.874,43.774C28.384,63.049 12.567,75.076 4.562,70.682C-3.461,66.274 -0.621,47.072 10.872,27.816Z" style="fill:rgb(254,41,6);fill-rule:nonzero;"/>
                                <path id="path21_2_" d="M62.277,27.816C73.77,8.544 89.587,-3.486 97.607,0.907C105.612,5.319 102.791,24.515 91.28,43.774C79.787,63.049 63.97,75.076 55.968,70.682C47.945,66.274 50.784,47.072 62.277,27.816Z" style="fill:rgb(0,204,154);fill-rule:nonzero;"/>
                                <path id="path21_3_" d="M113.683,27.816C125.173,8.541 140.993,-3.486 149.013,0.904C157.018,5.316 154.196,24.515 142.685,43.774C131.193,63.049 115.379,75.076 107.374,70.679C99.348,66.274 102.19,47.072 113.683,27.816Z" style="fill:rgb(2,151,250);fill-rule:nonzero;"/>
                            </g>
                        </g>
                    </g>
                </g>
            </g>
        </g>
    </g>
</svg>
