<svg viewBox="0 0 633 75" xmlns="http://www.w3.org/2000/svg" xml:space="preserve" style="fill-rule:evenodd;clip-rule:evenodd;stroke-linejoin:round;stroke-miterlimit:2">
    <clipPath id="a">
        <path d="M.269.767h632v74.212h-632z"/>
    </clipPath>
    <g clip-path="url(#a)">
        <path d="M238.049 62.537c-5.327 7.122-10.603 9.146-12.911 10.237-2.303 1.095-5.796 1.952-8.851 1.952-8.571 0-15.259-2.749-20.067-8.229-4.809-5.502-7.211-13.215-7.211-23.222 0-11.827 3.031-21.859 9.121-30.139C204.217 4.883 212.289.769 222.348.769c7.631 0 13.873 2.109 18.761 6.35 4.885 4.22 7.316 10.854 7.316 19.878h-14.762c0-4.32-.969-7.354-2.905-9.102-1.93-1.724-4.704-2.6-8.333-2.6-5.932 0-10.505 2.856-13.771 8.54-3.239 5.708-4.889 12.186-4.889 19.465 0 4.964 1.074 9.027 3.162 12.162 2.117 3.165 5.276 4.732 9.487 4.732 4.39 0 7.784-1.235 10.241-3.679 2.431-2.414 4.233-5.554 5.384-9.387h-13.746l2.224-13.165h26.805l-2.272 12.752c.004.007-1.697 8.699-7.001 15.822ZM365.502 2.596l-11.992 70.41h-12.907l10.164-54.57-22.419 54.57h-10.58l-4.885-54.545-7.714 54.545H292.11l11.938-70.41h18.319l4.103 49.577 20.588-49.709 18.444.132Zm13.666 27.257h21.088l-2.2 13.656h-21.084l-2.715 14.992h23.799l-2.345 14.505h-37.522l11.86-70.488h37.075l-2.269 14.605H381.52l-2.352 12.73ZM266.792 2.464l-28.845 70.542h14.057l5.146-13.759h18.395l1.201 13.759h13.612l-8.151-70.539h-15.415v-.003Zm-5.174 44.749 10.454-28.058 2.427 28.058h-12.881ZM479.94 62.537c-5.329 7.122-10.599 9.146-12.907 10.237-2.307 1.095-5.8 1.952-8.854 1.952-8.568 0-15.259-2.749-20.064-8.226-4.812-5.505-7.215-13.218-7.215-23.222 0-11.83 3.032-21.858 9.121-30.138C446.107 4.886 454.18.769 464.243.769c7.628 0 13.873 2.112 18.757 6.353 4.889 4.22 7.317 10.854 7.317 19.878h-14.759c0-4.32-.966-7.354-2.902-9.102-1.933-1.724-4.705-2.597-8.336-2.597-5.932 0-10.505 2.853-13.769 8.537-3.242 5.708-4.888 12.186-4.888 19.465 0 4.964 1.071 9.027 3.159 12.162 2.12 3.165 5.279 4.732 9.487 4.732 4.393 0 7.786-1.232 10.244-3.679 2.431-2.414 4.233-5.551 5.383-9.386H460.19l2.222-13.166h26.808l-2.275 12.756s-1.7 8.692-7.005 15.815Zm27.543-32.659h21.058l-2.168 13.631h-21.086l-2.74 14.992h23.826l-2.351 14.527H486.5l11.864-70.51h37.078l-2.273 14.605h-23.338l-2.348 12.755Zm46.611-27.385-28.845 70.538h14.086l5.117-13.759h18.421l1.201 13.759h13.587l-8.152-70.538h-15.415Zm-5.149 44.717 10.428-28.055 2.457 28.055h-12.885Zm50.509-13.707 3.137-17.357h7.522c2.769 0 4.835.488 6.22 1.467 1.383 1.001 2.063 2.981 2.063 5.965 0 3.344-1.122 5.811-3.343 7.457-2.25 1.649-5.095 2.468-8.543 2.468h-7.056Zm-8.492-30.985L579.1 73.028h13.715l4.602-26.872h6.347l10.608 26.872h15.73l-11.76-29.753c4.103-2.055 7.632-5.477 10.088-9.049 2.558-3.679 3.839-7.974 3.839-12.884 0-6.66-1.515-11.445-4.573-14.402-3.029-2.955-7.345-4.422-12.882-4.422h-23.852Z" style="fill:#fff;fill-rule:nonzero"/>
        <path d="M11.721 29.603C23.823 9.624 40.487-2.847 48.938 1.707c8.432 4.574 5.46 24.474-6.668 44.439-12.103 19.982-28.763 32.45-37.195 27.895-8.451-4.57-5.46-24.476 6.646-44.438Z" style="fill:#fe2906;fill-rule:nonzero"/>
        <path d="M65.868 29.603C77.974 9.624 94.634-2.847 103.082 1.707c8.432 4.574 5.461 24.474-6.664 44.439-12.106 19.982-28.767 32.45-37.196 27.895-8.45-4.57-5.46-24.476 6.646-44.438Z" style="fill:#00cc9a;fill-rule:nonzero"/>
        <path d="M120.016 29.603c12.102-19.982 28.766-32.45 37.214-27.899 8.432 4.574 5.459 24.477-6.666 44.442-12.105 19.982-28.762 32.45-37.194 27.892-8.454-4.567-5.46-24.473 6.646-44.435Z" style="fill:#0297fa;fill-rule:nonzero"/>
    </g>
</svg>
