<svg viewBox="0 0 633 111" xmlns="http://www.w3.org/2000/svg" xml:space="preserve" style="fill-rule:evenodd;clip-rule:evenodd;stroke-linejoin:round;stroke-miterlimit:2">
    <clipPath id="a">
        <path d="M.269.133h632v110.121h-632z"/>
    </clipPath>
    <g clip-path="url(#a)">
        <path d="M604.824 1.157h27.445l-38.693 60.322-6.276 47.063h-24.803l7.268-53.699-24.803-53.686h26.787l13.233 30.496 19.842-30.496ZM315.792 66.118h32.729l3.311-23.862h-32.406l2.318-17.238h37.69l3.645-23.861h-62.504l-14.882 107.385h62.17l3.311-23.873h-37.701l2.319-18.551ZM125.303 55.504l8.267-22.202 2.648 22.202h-10.915Zm-8.945 21.212h22.503l3.972 31.816h40.675l18.85-58.33 9.262 58.33h21.496l23.81-61.643 3.97 61.643h23.81l-6.615-107.38h-28.442l-22.161 56.67-8.601-56.67h-25.463l-29.1 88.157-10.915-88.157h-31.748L86.275 90.301l4.63-34.798H47.908L44.93 76.715h18.852l-1.324 7.29c-3.308 1.986-10.912 2.319-13.889 2.319-2.976 0-25.132-1.987-24.141-25.851.983-23.86 32.731-46.064 70.431-33.803L98.5 3.802C73.365-4.813 7.351.008.608 59.15c-3.967 34.798 27.781 51.37 48.944 51.04 12.237.664 26.128-3.978 31.087-6.63l-1.652 4.972h25.135l12.236-31.816Z" style="fill:#fff;fill-rule:nonzero"/>
        <path d="M518.175.164c-17.199-.664-42.002 9.279-50.269 49.382-8.267 40.1 13.889 56.34 34.392 58.991 20.507 2.651 49.278-10.274 54.568-48.718C562.162 21.373 543.3 1.159 518.173.164h.002Zm-2.642 22.868c6.943 0 21.824 4.641 18.186 32.477-3.637 27.839-20.833 31.154-27.118 30.49-6.284-.663-19.181-4.969-15.543-30.49 3.645-25.517 17.201-32.809 24.48-32.477h-.005Z" style="fill:#fff;fill-rule:nonzero"/>
        <path d="M413.667 42.256h13.891c10.252 0 12.236-6.629 12.564-9.278.331-2.653-2.643-7.956-7.934-7.956h-16.205l-2.307 17.234h-.009Zm-5.953 42.419h18.853c10.25 0 12.564-7.953 12.893-10.605.333-2.651-2.643-7.952-7.934-7.952h-21.165l-2.641 18.557h-.006Zm-27.768 23.864L394.827 1.16h45.636c10.917 0 26.789 12.595 24.806 29.496-1.984 16.903-7.276 17.897-10.915 20.548 5.624 4.968 11.246 12.924 8.931 27.838-2.316 14.916-14.553 29.496-36.048 29.496l-47.288.001h-.003Z" style="fill:#fff;fill-rule:nonzero"/>
    </g>
</svg>
