<?xml version="1.0" encoding="UTF-8" standalone="no"?>
<!DOCTYPE svg PUBLIC "-//W3C//DTD SVG 1.1//EN" "http://www.w3.org/Graphics/SVG/1.1/DTD/svg11.dtd">
<svg width="100%" height="100%" viewBox="0 0 636 117" version="1.1" xmlns="http://www.w3.org/2000/svg" xmlns:xlink="http://www.w3.org/1999/xlink" xml:space="preserve" xmlns:serif="http://www.serif.com/" style="fill-rule:evenodd;clip-rule:evenodd;stroke-linejoin:round;stroke-miterlimit:2;">
    <g transform="matrix(1,0,0,1,-822,-913)">
        <g id="gb.afdesign" transform="matrix(1,0,0,1,1140,971.111)">
            <g transform="matrix(1,0,0,1,-318.186,-57.9935)">
                <g transform="matrix(1.11475,0,0,1.11716,4.01454,4.93867)">
                    <path id="_43443024" d="M542.31,0.917L566.93,0.917L532.22,54.913L526.59,97.041L504.34,97.041L510.86,48.973L488.61,0.917L512.64,0.917L524.51,28.215L542.31,0.917Z" style="fill:white;fill-rule:nonzero;"/>
                    <path id="_43441624" d="M283.03,59.066L312.39,59.066L315.36,37.706L286.29,37.706L288.37,22.276L322.18,22.276L325.45,0.917L269.38,0.917L256.03,97.041L311.8,97.041L314.77,75.671L280.95,75.671L283.03,59.066Z" style="fill:white;fill-rule:nonzero;"/>
                    <path id="_43775888" d="M112.15,49.565L119.566,29.691L121.941,49.565L112.15,49.565ZM104.126,68.552L124.312,68.552L127.875,97.032L164.363,97.032L181.273,44.819L189.582,97.032L208.865,97.032L230.224,41.853L233.785,97.032L255.144,97.032L249.21,0.913L223.696,0.913L203.816,51.64L196.101,0.913L173.259,0.913L147.154,79.825L137.363,0.913L108.883,0.913L77.139,80.713L81.293,49.564L42.722,49.564L40.05,68.551L56.962,68.551L55.774,75.077C52.807,76.855 45.985,77.153 43.315,77.153C40.645,77.153 20.77,75.374 21.659,54.013C22.541,32.655 51.021,12.779 84.84,23.755L88.106,3.285C65.558,-4.427 6.34,-0.111 0.291,52.828C-3.268,83.977 25.212,98.811 44.197,98.516C55.174,99.11 67.635,94.955 72.084,92.581L70.602,97.032L93.149,97.032L104.126,68.552Z" style="fill:white;fill-rule:nonzero;"/>
                    <path id="_44102912" d="M464.58,0.028C449.152,-0.566 426.902,8.334 419.486,44.232C412.07,80.126 431.945,94.663 450.338,97.036C468.734,99.409 494.543,87.84 499.289,53.427C504.039,19.013 487.119,0.919 464.579,0.028L464.58,0.028ZM462.21,20.498C468.439,20.498 481.788,24.652 478.524,49.569C475.262,74.489 459.836,77.456 454.198,76.862C448.561,76.268 436.991,72.414 440.255,49.569C443.525,26.728 455.685,20.201 462.215,20.498L462.21,20.498Z" style="fill:white;fill-rule:nonzero;"/>
                    <path id="_44104296" d="M370.83,37.706L383.291,37.706C392.488,37.706 394.268,31.772 394.562,29.401C394.859,27.026 392.191,22.279 387.445,22.279L372.908,22.279L370.838,37.706L370.83,37.706ZM365.49,75.677L382.402,75.677C391.597,75.677 393.673,68.558 393.968,66.184C394.267,63.811 391.597,59.066 386.851,59.066L367.865,59.066L365.495,75.677L365.49,75.677ZM340.58,97.038L353.93,0.92L394.868,0.92C404.661,0.92 418.899,12.194 417.12,27.323C415.341,42.453 410.593,43.343 407.329,45.716C412.374,50.163 417.417,57.284 415.341,70.634C413.263,83.986 402.286,97.037 383.003,97.037L340.583,97.038L340.58,97.038Z" style="fill:white;fill-rule:nonzero;"/>
                </g>
            </g>
        </g>
    </g>
</svg>
