<?xml version="1.0" encoding="UTF-8"?>
<svg width="633px" height="111px" viewBox="0 0 633 111" version="1.1" xmlns="http://www.w3.org/2000/svg" xmlns:xlink="http://www.w3.org/1999/xlink">
    <title>gb</title>
    <defs>
        <polygon id="path-1" points="0 0 632 0 632 110.121 5.44009282e-15 110.121"></polygon>
    </defs>
    <g id="Page-1" stroke="none" stroke-width="1" fill="none" fill-rule="evenodd" opacity="0.78">
        <g id="Nintendo-Gameboy" transform="translate(-4.000000, -5.000000)">
            <g id="gb" transform="translate(4.446544, 5.332784)">
                <mask id="mask-2" fill="white">
                    <use xlink:href="#path-1"></use>
                </mask>
                <g id="Path"></g>
                <g id="Group" mask="url(#mask-2)" fill="#FFFFFF" fill-rule="nonzero">
                    <g transform="translate(0.000135, 0.000400)" id="Shape">
                        <path d="M604.554865,1.02359984 L631.999865,1.02359984 L593.306865,61.3455998 L587.030865,108.4086 L562.227865,108.4086 L569.495865,54.7095998 L544.692865,1.02359984 L571.479865,1.02359984 L584.712865,31.5195998 L604.554865,1.02359984 L604.554865,1.02359984 Z M315.522865,65.9845998 L348.251865,65.9845998 L351.562865,42.1225998 L319.156865,42.1225998 L321.474865,24.8845998 L359.164865,24.8845998 L362.809865,1.02359984 L300.305865,1.02359984 L285.423865,108.4086 L347.593865,108.4086 L350.904865,84.5355998 L313.203865,84.5355998 L315.522865,65.9845998 L315.522865,65.9845998 Z M125.033865,55.3705998 L133.300865,33.1685998 L135.948865,55.3705998 L125.033865,55.3705998 L125.033865,55.3705998 Z M116.088865,76.5825998 L138.591865,76.5825998 L142.563865,108.3986 L183.238865,108.3986 L202.088865,50.0685998 L211.350865,108.3986 L232.846865,108.3986 L256.656865,46.7555998 L260.626865,108.3986 L284.436865,108.3986 L277.821865,1.01859984 L249.379865,1.01859984 L227.218865,57.6885998 L218.617865,1.01859984 L193.154865,1.01859984 L164.054865,89.1755998 L153.139865,1.01859984 L121.391865,1.01859984 L86.0058652,90.1675998 L90.6358652,55.3695998 L47.6388652,55.3695998 L44.6608652,76.5815998 L63.5128652,76.5815998 L62.1888652,83.8715998 C58.8808652,85.8575998 51.2768652,86.1905998 48.2998652,86.1905998 C45.3238652,86.1905998 23.1678652,84.2035998 24.1588652,60.3395998 C25.1418652,36.4795998 56.8898652,14.2755998 94.5898652,26.5365998 L98.2308652,3.66859984 C73.0958652,-4.94640016 7.08186516,-0.125400156 0.338865157,59.0165998 C-3.62813484,93.8145998 28.1198652,110.3866 49.2828652,110.0566 C61.5198652,110.7206 75.4108652,106.0786 80.3698652,103.4266 L78.7178652,108.3986 L103.852865,108.3986 L116.088865,76.5825998 Z"></path>
                        <path d="M517.905865,0.0305998438 C500.706865,-0.633400156 475.903865,9.30959984 467.636865,49.4125998 C459.369865,89.5125998 481.525865,105.7526 502.028865,108.4036 C522.535865,111.0546 551.306865,98.1295998 556.596865,59.6855998 C561.892865,21.2395998 543.030865,1.02559984 517.903865,0.0305998438 L517.905865,0.0305998438 Z M515.263865,22.8985998 C522.206865,22.8985998 537.087865,27.5395998 533.449865,55.3755998 C529.812865,83.2145998 512.616865,86.5295998 506.331865,85.8655998 C500.047865,85.2025998 487.150865,80.8965998 490.788865,55.3755998 C494.433865,29.8585998 507.989865,22.5665998 515.268865,22.8985998 L515.263865,22.8985998 Z"></path>
                        <path d="M413.397865,42.1225998 L427.288865,42.1225998 C437.540865,42.1225998 439.524865,35.4935998 439.852865,32.8445998 C440.183865,30.1915998 437.209865,24.8885998 431.918865,24.8885998 L415.713865,24.8885998 L413.406865,42.1225998 L413.397865,42.1225998 Z M407.444865,84.5415998 L426.297865,84.5415998 C436.547865,84.5415998 438.861865,76.5885998 439.190865,73.9365998 C439.523865,71.2855998 436.547865,65.9845998 431.256865,65.9845998 L410.091865,65.9845998 L407.450865,84.5415998 L407.444865,84.5415998 Z M379.676865,108.4056 L394.557865,1.02659984 L440.193865,1.02659984 C451.110865,1.02659984 466.982865,13.6215998 464.999865,30.5225998 C463.015865,47.4255998 457.723865,48.4195998 454.084865,51.0705998 C459.708865,56.0385998 465.330865,63.9945998 463.015865,78.9085998 C460.699865,93.8245998 448.462865,108.4056 426.967865,108.4056 L379.679865,108.4056 L379.676865,108.4056 L379.676865,108.4056 Z"></path>
                    </g>
                </g>
            </g>
        </g>
    </g>
</svg>