<svg viewBox="0 0 633 75" xmlns="http://www.w3.org/2000/svg" xml:space="preserve" style="fill-rule:evenodd;clip-rule:evenodd;stroke-linejoin:round;stroke-miterlimit:2">
    <clipPath id="a">
        <path d="M.036.032h632v74.323h-632z"/>
    </clipPath>
    <g clip-path="url(#a)">
        <path d="m330.136 9.278 4.884-7.833h-71.521a29.885 29.885 0 0 0-15.92 4.802l-5.727 4.212c-2.527-3.032-4.972-5.14-7.411-6.573-3.035-1.684-6.401-2.441-10.279-2.441H97.895l-4.126 12.554-2.023-12.554H64.118l-1.01 2.36-2.612-.925C45.923-2.092 31.94-.574 18.717 7.597c-6.739 4.297-11.793 9.686-14.91 16.258C.601 30.424-.49 37.749.267 46.088c.504 4.969 2.274 9.604 5.306 13.816 3.032 4.212 6.907 7.581 11.709 10.023 6.991 3.622 14.569 4.717 22.488 3.452h24.597l6.149-13.642 2.275 13.642 147.749-.167c3.199 0 6.402-.761 9.686-2.193 3.199-1.433 5.979-3.452 8.509-5.982 4.127 4.382 9.014 7.332 14.74 8.512 7.749 1.852 15.245.505 22.322-3.963l.928-.672-.672 4.465h30.07l1.332-7.917c1.77-.252 79.626.004 79.626.004 12.551 0 21.814-3.202 27.458-9.685l6.067 9.685h87.52V53.165l15.753 12.301h108.157V9.364H514.869v12.131L499.368 9.364h-62.333l-7.667 14.569-8.506-14.655h-90.726Z" style="fill:#4b367c"/>
        <path d="M346.23 18.63h-9.351l-22.07 37.154h26.282v-8.26h-10.699l10.699-19.205 15.5 27.465h11.964v-.085h18.697c16.172 0 24.258-6.235 24.258-18.618 0-2.104-.252-4.127-.839-5.979l14.908 24.597h7.162l21.476-37.066h-11.371l-13.39 24.263-14.153-24.263h-12.21l3.363 5.56c-3.956-3.704-9.597-5.56-17.012-5.56h-24.599v30.831L346.23 18.63Zm29.228 8.424h14.062c7.332 0 11.036 3.199 11.036 9.604 0 3.871-1.18 6.654-3.37 8.168-2.104 1.518-6.149 2.278-11.79 2.278h-9.938v-20.05Zm94.597-8.424h-9.44l-21.981 37.151h11.118v-.086h15.167v-8.26h-10.617l10.531-19.119 15.498 27.465h12.131v-.086h6.149V33.288l28.048 22.407h7.24V18.63h-9.682v22.151L495.913 18.63h-7.24v30.831L470.055 18.63Zm69.407 2.104c-1.518 1.347-2.272 3.789-2.272 7.244V46.34c0 3.537.754 5.982 2.272 7.326 1.432 1.351 4.045 2.026 7.834 2.026h21.813c3.789 0 6.487-.672 7.919-2.026 1.433-1.347 2.272-3.789 2.272-7.326v-5.136l-10.692-.174v5.73h-20.722V27.303h20.722v5.051H579.3v-4.379c0-3.622-.839-6.064-2.272-7.244-1.432-1.432-3.956-2.108-7.919-2.108h-21.813c-3.789.007-6.402.679-7.834 2.111Zm54.083 11.623v-5.303h28.887V18.63h-39.585v37.065h40.094v-8.594h-29.396v-6.576h16.927v-8.168h-16.927ZM57.208 11.639c-11.623-4.212-22.826-2.865-33.607 3.789C12.988 21.911 8.353 31.853 9.615 44.823c.337 3.796 1.77 7.247 4.212 10.279 2.442 3.039 5.559 5.221 9.266 6.906 3.789 1.685 7.749 2.357 11.961 2.104 4.635-.252 8.847-1.599 12.973-3.871l.423-.252-1.603 3.537h11.289l7.244-15.753h12.469l2.776 15.753h18.447l9.434-29.484 6.067 29.484h7.326l14.15-32.683 1.432 32.683h10.784l-2.189-52.815h-13.145l-12.294 28.89-5.31-28.89h-10.781L90.648 53.414l-7.162-42.703H70.178L49.79 56.787l2.951-19.29H32.608l-1.517 9.938h8.424l-.843 5.31-8.847.594c-3.536-.925-6.063-2.776-7.748-5.73-1.433-2.783-2.108-5.641-1.77-8.847.423-4.464 2.612-8.509 6.742-12.131 3.704-3.284 8.506-5.136 14.236-5.897 5.474-.842 10.276-.252 14.32 1.515l1.603-10.61Zm19.038 25.858h-6.654l4.631-10.191 2.023 10.191ZM187.69 10.711h-30.073l-8.424 52.818h30.244l1.934-11.207h-19.038l1.518-9.43h16.51l1.77-11.374h-16.68l1.432-9.437h19.037l1.77-11.37Zm133.006 0H308.06l-10.78 17.267-6.739-17.267h-12.469l12.892 27.884-4.045 24.934h10.951l3.284-21.991 19.542-30.827Z" style="fill:#fff"/>
        <path d="M267.714 11.216c-6.149-1.433-11.793 0-17.267 4.212-5.474 4.044-9.014 9.856-10.866 17.182-1.599 7.244-.842 14.068 2.108 20.132 3.117 6.234 7.581 10.023 13.73 11.37 6.064 1.433 11.709 0 17.182-4.123 5.474-4.208 9.096-10.023 10.784-17.352 1.685-7.248.925-13.987-2.104-20.136-3.039-6.146-7.588-9.935-13.567-11.285Zm-.927 10.531c2.95 1.18 4.802 3.875 5.811 7.834 1.01 4.045.761 8.257-.675 12.718-1.429 4.382-3.789 7.667-6.821 9.771-3.117 2.271-6.064 2.698-8.847 1.432-2.947-1.18-4.887-3.877-5.897-7.834-1.095-4.13-.675-8.338.757-12.721 1.429-4.297 3.789-7.663 6.821-9.938 2.954-2.104 5.986-2.609 8.851-1.262Zm-36.053-8.676c-2.107-1.347-4.212-2.022-6.234-2.022h-20.218l-8.338 52.48h24.259c2.612 0 5.31-.839 8.086-2.524a20.525 20.525 0 0 0 6.572-6.323c1.77-2.95 2.442-5.808 2.108-8.846-.338-3.285-2.108-6.402-5.222-9.349 6.149-6.319 7.582-12.298 4.379-18.027a15.756 15.756 0 0 0-5.392-5.389Zm-18.785 18.867 1.685-9.771h7.077c1.77 0 3.117.504 4.045 1.514.76.928 1.094 2.022.924 3.37-.167 1.35-.843 2.441-1.852 3.369-1.18 1.01-2.612 1.518-4.297 1.518h-7.582l12.217 12.465c1.009 1.013 1.514 2.278 1.432 3.711-.082 1.432-.761 2.612-2.022 3.618-1.262 1.013-3.032 1.607-5.474 1.607h-9.519l1.685-10.617h9.096c2.022 0 3.622.593 4.802 1.685l-12.217-12.469Z" style="fill:#fff"/>
    </g>
</svg>
