<?xml version="1.0" encoding="UTF-8" standalone="no"?>
<!DOCTYPE svg PUBLIC "-//W3C//DTD SVG 1.1//EN" "http://www.w3.org/Graphics/SVG/1.1/DTD/svg11.dtd">
<svg width="100%" height="100%" viewBox="0 0 633 75" version="1.1" xmlns="http://www.w3.org/2000/svg" xmlns:xlink="http://www.w3.org/1999/xlink" xml:space="preserve" xmlns:serif="http://www.serif.com/" style="fill-rule:evenodd;clip-rule:evenodd;stroke-linejoin:round;stroke-miterlimit:2;">
    <g>
        <path d="M330.136,9.278l4.884,-7.833l-71.521,-0c-5.654,0.062 -11.175,1.728 -15.92,4.802l-5.727,4.212c-2.527,-3.032 -4.972,-5.14 -7.411,-6.573c-3.035,-1.684 -6.401,-2.441 -10.279,-2.441l-126.267,-0l-4.126,12.554l-2.023,-12.554l-27.628,-0l-1.01,2.36l-2.612,-0.925c-14.573,-4.972 -28.556,-3.454 -41.779,4.717c-6.739,4.297 -11.793,9.686 -14.91,16.258c-3.206,6.569 -4.297,13.894 -3.54,22.233c0.504,4.969 2.274,9.604 5.306,13.816c3.032,4.212 6.907,7.581 11.709,10.023c6.991,3.622 14.569,4.717 22.488,3.452l24.597,-0l6.149,-13.642l2.275,13.642l147.749,-0.167c3.199,-0 6.402,-0.761 9.686,-2.193c3.199,-1.433 5.979,-3.452 8.509,-5.982c4.127,4.382 9.014,7.332 14.74,8.512c7.749,1.852 15.245,0.505 22.322,-3.963l0.928,-0.672l-0.672,4.465l30.07,-0l1.332,-7.917c1.77,-0.252 79.626,0.004 79.626,0.004c12.551,0 21.814,-3.202 27.458,-9.685l6.067,9.685l87.52,0l0,-12.301l15.753,12.301l108.157,0l0,-56.102l-117.167,-0l-0,12.131l-15.501,-12.131l-62.333,-0l-7.667,14.569l-8.506,-14.655l-90.726,0Z" style="fill:#4b367c;"/>
        <path d="M346.23,18.63l-9.351,0l-22.07,37.154l26.282,-0l-0,-8.26l-10.699,-0l10.699,-19.205l15.5,27.465l11.964,-0l0,-0.085l18.697,-0c16.172,-0 24.258,-6.235 24.258,-18.618c0,-2.104 -0.252,-4.127 -0.839,-5.979l14.908,24.597l7.162,-0l21.476,-37.066l-11.371,0l-13.39,24.263l-14.153,-24.263l-12.21,0l3.363,5.56c-3.956,-3.704 -9.597,-5.56 -17.012,-5.56l-24.599,0l-0,30.831l-18.615,-30.834Zm29.228,8.424l14.062,-0c7.332,-0 11.036,3.199 11.036,9.604c-0,3.871 -1.18,6.654 -3.37,8.168c-2.104,1.518 -6.149,2.278 -11.79,2.278l-9.938,0l0,-20.05Zm94.597,-8.424l-9.44,0l-21.981,37.151l11.118,-0l0,-0.086l15.167,0l-0,-8.26l-10.617,0l10.531,-19.119l15.498,27.465l12.131,-0l-0,-0.086l6.149,0l-0,-22.407l28.048,22.407l7.24,0l0,-37.065l-9.682,0l-0,22.151l-28.304,-22.151l-7.24,0l-0,30.831l-18.618,-30.831Zm69.407,2.104c-1.518,1.347 -2.272,3.789 -2.272,7.244l0,18.362c0,3.537 0.754,5.982 2.272,7.326c1.432,1.351 4.045,2.026 7.834,2.026l21.813,-0c3.789,-0 6.487,-0.672 7.919,-2.026c1.433,-1.347 2.272,-3.789 2.272,-7.326l-0,-5.136l-10.692,-0.174l-0,5.73l-20.722,-0l-0,-19.457l20.722,-0l-0,5.051l10.692,-0l-0,-4.379c-0,-3.622 -0.839,-6.064 -2.272,-7.244c-1.432,-1.432 -3.956,-2.108 -7.919,-2.108l-21.813,0c-3.789,0.007 -6.402,0.679 -7.834,2.111Zm54.083,11.623l0,-5.303l28.887,-0l0,-8.424l-39.585,0l-0,37.065l40.094,0l-0,-8.594l-29.396,-0l0,-6.576l16.927,0l-0,-8.168l-16.927,0Zm-536.337,-20.718c-11.623,-4.212 -22.826,-2.865 -33.607,3.789c-10.613,6.483 -15.248,16.425 -13.986,29.395c0.337,3.796 1.77,7.247 4.212,10.279c2.442,3.039 5.559,5.221 9.266,6.906c3.789,1.685 7.749,2.357 11.961,2.104c4.635,-0.252 8.847,-1.599 12.973,-3.871l0.423,-0.252l-1.603,3.537l11.289,-0l7.244,-15.753l12.469,-0l2.776,15.753l18.447,-0l9.434,-29.484l6.067,29.484l7.326,-0l14.15,-32.683l1.432,32.683l10.784,-0l-2.189,-52.815l-13.145,-0l-12.294,28.89l-5.31,-28.89l-10.781,-0l-13.898,42.703l-7.162,-42.703l-13.308,-0l-20.388,46.076l2.951,-19.29l-20.133,-0l-1.517,9.938l8.424,0l-0.843,5.31l-8.847,0.594c-3.536,-0.925 -6.063,-2.776 -7.748,-5.73c-1.433,-2.783 -2.108,-5.641 -1.77,-8.847c0.423,-4.464 2.612,-8.509 6.742,-12.131c3.704,-3.284 8.506,-5.136 14.236,-5.897c5.474,-0.842 10.276,-0.252 14.32,1.515l1.603,-10.61Zm19.038,25.858l-6.654,-0l4.631,-10.191l2.023,10.191Zm111.444,-26.786l-30.073,-0l-8.424,52.818l30.244,0l1.934,-11.207l-19.038,0l1.518,-9.43l16.51,0l1.77,-11.374l-16.68,0l1.432,-9.437l19.037,0l1.77,-11.37Zm133.006,-0l-12.636,-0l-10.78,17.267l-6.739,-17.267l-12.469,-0l12.892,27.884l-4.045,24.934l10.951,0l3.284,-21.991l19.542,-30.827Z" style="fill:#fff;"/>
        <path d="M267.714,11.216c-6.149,-1.433 -11.793,-0 -17.267,4.212c-5.474,4.044 -9.014,9.856 -10.866,17.182c-1.599,7.244 -0.842,14.068 2.108,20.132c3.117,6.234 7.581,10.023 13.73,11.37c6.064,1.433 11.709,0 17.182,-4.123c5.474,-4.208 9.096,-10.023 10.784,-17.352c1.685,-7.248 0.925,-13.987 -2.104,-20.136c-3.039,-6.146 -7.588,-9.935 -13.567,-11.285Zm-0.927,10.531c2.95,1.18 4.802,3.875 5.811,7.834c1.01,4.045 0.761,8.257 -0.675,12.718c-1.429,4.382 -3.789,7.667 -6.821,9.771c-3.117,2.271 -6.064,2.698 -8.847,1.432c-2.947,-1.18 -4.887,-3.877 -5.897,-7.834c-1.095,-4.13 -0.675,-8.338 0.757,-12.721c1.429,-4.297 3.789,-7.663 6.821,-9.938c2.954,-2.104 5.986,-2.609 8.851,-1.262Zm-36.053,-8.676c-2.107,-1.347 -4.212,-2.022 -6.234,-2.022l-20.218,-0l-8.338,52.48l24.259,0c2.612,0 5.31,-0.839 8.086,-2.524c2.637,-1.588 4.883,-3.749 6.572,-6.323c1.77,-2.95 2.442,-5.808 2.108,-8.846c-0.338,-3.285 -2.108,-6.402 -5.222,-9.349c6.149,-6.319 7.582,-12.298 4.379,-18.027c-1.329,-2.211 -3.181,-4.061 -5.392,-5.389Zm-18.785,18.867l1.685,-9.771l7.077,-0c1.77,-0 3.117,0.504 4.045,1.514c0.76,0.928 1.094,2.022 0.924,3.37c-0.167,1.35 -0.843,2.441 -1.852,3.369c-1.18,1.01 -2.612,1.518 -4.297,1.518l-7.582,-0l12.217,12.465c1.009,1.013 1.514,2.278 1.432,3.711c-0.082,1.432 -0.761,2.612 -2.022,3.618c-1.262,1.013 -3.032,1.607 -5.474,1.607l-9.519,-0l1.685,-10.617l9.096,-0c2.022,-0 3.622,0.593 4.802,1.685l-12.217,-12.469Z" style="fill:#fff;"/>
    </g>
</svg>
