<?xml version="1.0" encoding="UTF-8" standalone="no"?>
<!DOCTYPE svg PUBLIC "-//W3C//DTD SVG 1.1//EN" "http://www.w3.org/Graphics/SVG/1.1/DTD/svg11.dtd">
<svg width="100%" height="100%" viewBox="0 0 406 112" version="1.1" xmlns="http://www.w3.org/2000/svg" xmlns:xlink="http://www.w3.org/1999/xlink" xml:space="preserve" xmlns:serif="http://www.serif.com/" style="fill-rule:evenodd;clip-rule:evenodd;stroke-linejoin:round;stroke-miterlimit:2;">
    <g transform="matrix(1,0,0,1,-117,-4)">
        <g transform="matrix(1.35014,0,0,1.34327,117.481,4.00072)">
            <g>
                <g>
                    <path id="_43443024" d="M286.972,0.484L300,0.484L281.633,29.057L278.654,51.348L266.88,51.348L270.331,25.913L258.557,0.484L271.272,0.484L277.554,14.929L286.972,0.484Z" style="fill:white;fill-rule:nonzero;"/>
                    <path id="_43441624" d="M149.773,31.253L165.31,31.253L166.881,19.951L151.499,19.951L152.6,11.786L170.491,11.786L172.221,0.484L142.551,0.484L135.487,51.348L164.998,51.348L166.568,40.041L148.673,40.041L149.773,31.253Z" style="fill:white;fill-rule:nonzero;"/>
                    <path id="_43775888" d="M59.352,26.227L63.277,15.71L64.534,26.227L59.352,26.227ZM55.106,36.274L65.787,36.274L67.673,51.344L86.98,51.344L95.929,23.715L100.325,51.344L110.53,51.344L121.832,22.146L123.716,51.344L135.017,51.344L131.878,0.482L118.377,0.482L107.858,27.325L103.776,0.482L91.689,0.482L77.874,42.239L72.694,0.482L57.624,0.482L40.826,42.708L43.024,26.227L22.614,26.227L21.2,36.272L30.149,36.272L29.52,39.726C27.951,40.667 24.341,40.825 22.928,40.825C21.516,40.825 10.998,39.884 11.468,28.58C11.936,17.279 27.005,6.761 44.901,12.569L46.629,1.737C34.698,-2.343 3.363,-0.059 0.161,27.952C-1.721,44.436 13.35,52.285 23.395,52.13C29.203,52.444 35.798,50.246 38.151,48.989L37.367,51.344L49.298,51.344L55.106,36.274Z" style="fill:white;fill-rule:nonzero;"/>
                    <path id="_44102912" d="M245.841,0.014C237.678,-0.301 225.904,4.409 221.98,23.404C218.056,42.397 228.572,50.09 238.306,51.347C248.039,52.602 261.697,46.48 264.207,28.271C266.722,10.06 257.768,0.485 245.841,0.014ZM244.588,10.846C247.884,10.846 254.947,13.044 253.22,26.228C251.494,39.415 243.331,40.985 240.349,40.672C237.364,40.356 231.243,38.317 232.97,26.228C234.7,14.143 241.135,10.688 244.591,10.846L244.588,10.846Z" style="fill:white;fill-rule:nonzero;"/>
                    <path id="_44104296" d="M196.234,19.951L202.828,19.951C207.693,19.951 208.636,16.811 208.791,15.556C208.948,14.3 207.536,11.788 205.026,11.788L197.334,11.788L196.238,19.951L196.234,19.951ZM193.408,40.044L202.357,40.044C207.222,40.044 208.321,36.277 208.478,35.02C208.635,33.765 207.222,31.253 204.711,31.253L194.665,31.253L193.41,40.044L193.408,40.044ZM180.226,51.347L187.291,0.485L208.953,0.485C214.135,0.485 221.669,6.452 220.728,14.456C219.786,22.463 217.274,22.935 215.547,24.19C218.217,26.543 220.884,30.31 219.786,37.375C218.686,44.441 212.878,51.347 202.676,51.347L180.226,51.347Z" style="fill:white;fill-rule:nonzero;"/>
                </g>
                <g>
                    <g>
                        <path id="path12" d="M61.895,56.917L55.235,56.917L39.537,83.346L58.226,83.346L58.226,77.487L50.609,77.487L58.226,63.825L69.268,83.378L77.779,83.378L77.779,83.316L91.07,83.316C102.573,83.316 108.341,78.875 108.341,70.087C108.341,68.575 108.155,67.157 107.754,65.831L118.362,83.317L123.451,83.317L138.716,56.95L130.636,56.95L121.105,74.217L111.052,56.948L102.356,56.948L104.761,60.895C101.956,58.243 97.915,56.948 92.642,56.948L75.156,56.948L75.156,78.873L61.895,56.917ZM82.681,62.898L92.705,62.898C97.915,62.898 100.567,65.181 100.567,69.744C100.567,72.49 99.736,74.495 98.162,75.542C96.65,76.622 93.783,77.146 89.774,77.146L82.712,77.146L82.712,62.898L82.681,62.898Z" style="fill:white;fill-rule:nonzero;"/>
                        <path id="polygon14" d="M149.972,56.917L143.28,56.917L127.643,83.345L135.539,83.345L135.539,83.283L146.332,83.283L146.332,77.393L138.778,77.393L146.272,63.794L157.312,83.345L165.915,83.345L165.915,83.283L170.295,83.283L170.295,67.34L190.248,83.283L195.428,83.283L195.428,56.917L188.52,56.917L188.52,72.674L168.382,56.917L163.231,56.917L163.231,78.843L149.972,56.917Z" style="fill:white;fill-rule:nonzero;"/>
                        <path id="path16" d="M199.376,58.395C198.296,59.353 197.742,61.079 197.742,63.547L197.742,76.622C197.742,79.151 198.296,80.878 199.345,81.834C200.363,82.791 202.212,83.284 204.928,83.284L220.439,83.284C223.123,83.284 225.065,82.791 226.083,81.834C227.1,80.879 227.687,79.151 227.687,76.622L227.687,72.952L220.07,72.83L220.07,76.9L205.328,76.9L205.328,63.054L220.07,63.054L220.07,66.662L227.687,66.662L227.687,63.547C227.687,60.957 227.101,59.229 226.083,58.395C225.065,57.378 223.277,56.885 220.439,56.885L204.928,56.885C202.244,56.917 200.393,57.38 199.376,58.395Z" style="fill:white;fill-rule:nonzero;"/>
                        <path id="polygon18" d="M237.832,66.693L237.832,62.898L258.401,62.898L258.401,56.917L230.215,56.917L230.215,83.283L258.74,83.283L258.74,77.177L237.832,77.177L237.832,72.49L249.89,72.49L249.89,66.693L237.832,66.693Z" style="fill:white;fill-rule:nonzero;"/>
                    </g>
                </g>
            </g>
        </g>
    </g>
</svg>
