<svg viewBox="0 0 264 87" xmlns="http://www.w3.org/2000/svg">
    <path style="fill:#fff" d="M573.944.968H600l-36.734 57.146-5.959 44.582H533.76l6.901-50.87L517.114.968h25.43l12.563 28.89zM299.546 62.507h31.074l3.141-22.605h-30.764l2.203-16.329h35.781L344.442.968h-59.34l-14.129 101.728h59.022l3.141-22.614h-35.79zM118.703 52.454l7.85-21.033 2.514 21.033h-10.361Zm-8.476 20.094h21.347l3.772 30.139h38.614l17.898-55.257 8.792 55.257h20.409l22.605-58.395 3.768 58.395h22.602L263.755.965h-27.001L215.715 54.65 207.551.965h-24.174l-27.629 83.513L145.387.965h-30.139L81.651 85.417l4.396-32.963h-40.82L42.4 72.545h17.898l-1.258 6.907c-3.138 1.882-10.358 2.199-13.185 2.199-2.824 0-23.86-1.882-22.919-24.49.935-22.602 31.074-43.639 66.865-32.022l3.457-21.664C69.395-4.686 6.725-.118.322 55.905c-3.765 32.967 26.377 48.665 46.468 48.354 11.616.628 24.805-3.768 29.512-6.282l-1.569 4.71h23.863l11.616-30.139Z" transform="scale(.44 .44077)"/>
    <path d="M491.682.029c-16.326-.63-39.875 8.79-47.723 46.779-7.848 37.987 13.185 53.372 32.652 55.885 19.467 2.511 46.782-9.733 51.803-46.151C533.444 20.121 515.536.971 491.682.029Zm-2.507 21.664c6.593 0 20.719 4.396 17.264 30.764-3.451 26.373-19.777 29.514-25.742 28.887-5.969-.631-18.212-4.71-14.758-28.887 3.461-24.171 16.33-31.081 23.242-30.764Z" style="fill:#fff" transform="scale(.44 .44077)"/>
    <path d="M392.467 39.902h13.188c9.731 0 11.617-6.279 11.927-8.789.314-2.513-2.51-7.537-7.531-7.537h-15.384l-2.191 16.326Zm-5.651 40.186h17.898c9.73 0 11.927-7.534 12.241-10.047.314-2.51-2.511-7.534-7.534-7.534h-20.092l-2.51 17.581Zm-26.365 22.605L374.581.971h43.324c10.364 0 25.432 11.933 23.55 27.942-1.883 16.013-6.907 16.957-10.362 19.467 5.341 4.707 10.675 12.241 8.479 26.371-2.2 14.13-13.816 27.942-34.221 27.942h-44.897Z" style="fill:#fff" transform="scale(.44 .44077)"/>
    <path d="M123.79 113.833h-13.321l-31.395 52.859h37.378v-11.719h-15.234l15.234-27.324 22.083 39.106h17.023v-.124h26.582c23.006 0 34.541-8.882 34.541-26.458 0-3.023-.371-5.859-1.174-8.511l21.217 34.972h10.177l30.531-52.735h-16.16l-19.063 34.535-20.106-34.538h-17.392l4.81 7.893c-5.609-5.304-13.692-7.893-24.237-7.893h-34.973v43.85l-26.521-43.913Zm41.571 11.963h20.049c10.419 0 15.723 4.565 15.723 13.692 0 5.492-1.662 9.502-4.809 11.596-3.024 2.16-8.759 3.207-16.776 3.207h-14.124v-28.495h-.063Zm134.583-11.963H286.56l-31.274 52.856h15.792v-.124h21.585v-11.779h-15.107l14.987-27.198 22.08 39.101h17.207v-.124h8.759v-31.886l39.906 31.886h10.361v-52.732H377.04v31.515l-40.277-31.515h-10.301v43.852zm98.808 2.957c-2.16 1.916-3.268 5.367-3.268 10.304v26.15c0 5.057 1.108 8.511 3.205 10.424 2.036 1.913 5.735 2.9 11.166 2.9h31.023c5.368 0 9.251-.987 11.288-2.9 2.033-1.91 3.207-5.367 3.207-10.424v-7.341l-15.234-.244v8.14h-29.484v-27.692h29.484v7.217h15.234v-6.23c0-5.181-1.171-8.636-3.207-10.304-2.037-2.034-5.612-3.02-11.288-3.02h-31.023c-5.367.063-9.07.989-11.103 3.02Zm76.912 16.595v-7.589h41.137v-11.963H460.43v52.732h57.049v-12.211h-41.815v-9.374h24.116v-11.595z" style="fill-opacity:1;fill:#fff" transform="scale(.44 .44077)"/>
    <path d="M83.597 86.816h-2.464v-2.729h-1.848v2.729h-2.464v-7.714h2.464v2.728h1.848v-2.728h2.464v7.714Zm3.353-1.222-.286 1.222h-2.601l1.998-7.714h3.806l1.997 7.714h-2.6l-.282-1.222H86.95Zm1.082-4.121h-.136l-.506 2.16h1.135l-.493-2.16Zm9.412 3.134.185 2.071c-.516.216-1.164.322-1.945.322-.78 0-1.406-.082-1.879-.246-.472-.165-.845-.423-1.117-.776a3.215 3.215 0 0 1-.568-1.248c-.106-.479-.158-1.068-.158-1.767 0-.699.052-1.288.158-1.767.109-.482.298-.901.568-1.256.525-.683 1.49-1.023 2.895-1.023.314 0 .682.031 1.104.092.423.062.737.138.942.229l-.37 1.887a7.06 7.06 0 0 0-1.465-.172c-.443 0-.751.042-.924.124-.173.082-.26.246-.26.494v3.234c.32.065.645.097.973.097.698 0 1.319-.098 1.861-.295Zm3.56-1.15h-.049v3.359h-2.464v-7.714h2.464v3.147h.049c.017-.247.058-.444.123-.59l1.21-2.557h2.657l-1.848 3.791 1.91 3.923h-2.658l-1.271-2.764a1.845 1.845 0 0 1-.123-.595Zm4.485 3.221.343-2.036c.757.191 1.437.286 2.041.286.605 0 1.092-.025 1.461-.074v-.617l-1.109-.102c-1.003-.088-1.691-.327-2.063-.718-.376-.391-.563-.97-.563-1.736 0-1.053.228-1.777.686-2.174.455-.393 1.228-.59 2.319-.59 1.094 0 2.08.102 2.957.308l-.308 1.975c-.763-.123-1.375-.185-1.835-.185-.461 0-.851.021-1.171.062v.604l.889.088c1.077.105 1.82.362 2.231.771.411.405.616.971.616 1.697 0 .517-.07.955-.211 1.313-.141.359-.307.631-.497.816-.194.185-.468.325-.823.423-.352.1-.662.16-.929.181-.267.02-.621.03-1.064.03-1.068 0-2.058-.106-2.97-.322Zm11.446-2.825h-1.909v-1.776h1.909v-1.913h1.773v1.913h1.923v1.776h-1.923v1.927h-1.773v-1.927Zm13.833 2.963h-2.464v-2.729h-1.848v2.729h-2.464v-7.714h2.464v2.728h1.848v-2.728h2.464v7.714Zm.862-3.853c0-1.405.263-2.43.788-3.076.525-.648 1.474-.97 2.847-.97s2.322.322 2.847.97c.524.646.787 1.671.787 3.076 0 .699-.056 1.288-.167 1.767a3.25 3.25 0 0 1-.572 1.248c-.27.353-.644.611-1.122.776-.475.164-1.066.246-1.773.246-.707 0-1.298-.082-1.773-.246-.479-.165-.853-.423-1.122-.776a3.25 3.25 0 0 1-.572-1.248c-.112-.479-.168-1.068-.168-1.767Zm2.649-1.282v3.208h1.021c.337 0 .582-.038.735-.115.152-.079.229-.258.229-.537v-3.209h-1.034c-.329 0-.569.039-.722.115-.153.079-.229.258-.229.538Zm7.898 1.396-.15 3.739h-2.574l.467-7.714h3.216l.964 3.923h.083l.964-3.923h3.212l.471 7.714h-2.574l-.15-3.739h-.088l-.933 3.739h-1.887l-.946-3.739h-.075Zm12.503-.965v1.79h-2.464v.938h3.019v1.976h-5.483v-7.714h5.421l-.308 1.975h-2.649v1.035h2.464Zm6.023 4.704h-4.422v-7.714h3.991c.739 0 1.267.144 1.584.432.317.287.475.708.475 1.26 0 .55-.101.975-.303 1.274-.2.303-.468.498-.805.586v.076c.994.173 1.491.851 1.491 2.036 0 .617-.164 1.114-.493 1.49-.328.373-.834.56-1.518.56Zm-.998-3.073h-.96v1.256h.951c.343 0 .515-.208.515-.626 0-.419-.169-.63-.506-.63Zm-.185-2.949h-.775v1.146h.766c.311 0 .466-.19.466-.573 0-.382-.152-.573-.457-.573Zm9.44 3.456 1.329 2.566h-2.71l-1.012-2.297h-.528v2.297h-2.464v-7.714h3.881c1.765 0 2.648.901 2.648 2.702 0 1.234-.381 2.049-1.144 2.446Zm-2.354-3.173h-.567v1.542h.567c.297 0 .512-.031.647-.093.135-.061.203-.203.203-.427v-.502c0-.224-.068-.366-.203-.428-.135-.061-.35-.092-.647-.092Zm9.473 1.035v1.79h-2.464v.938h3.019v1.976h-5.483v-7.714h5.421l-.308 1.975h-2.649v1.035h2.464Zm7.933 1.296.594-4.306h2.574l-1.21 7.714h-3.212l-.568-2.839h-.149l-.555 2.839h-3.216l-1.206-7.714h2.574l.581 4.306h.075l.884-4.306h1.888l.871 4.306h.075Z" style="fill:#fff;white-space:pre"/>
</svg>
