<svg viewBox="0 0 406 113" xmlns="http://www.w3.org/2000/svg" xml:space="preserve" style="fill-rule:evenodd;clip-rule:evenodd;stroke-linejoin:round;stroke-miterlimit:2">
    <clipPath id="a">
        <path d="M.516.194h405.041v112H.516z"/>
    </clipPath>
    <g clip-path="url(#a)">
        <path d="M195.471 90.944c-.65-1.965-2.373-3.837-2.373-3.837s-2.586-3.339-7.668-4.48c-4.351-.905-7.768 1.003-7.768 1.003s-3.104 1.237-5.437 3.795c-3.716 3.556-4.785 8.749-4.785 8.749s-1.425 4.521.831 8.102l2.451 2.949c3.46 2.871 7.157 3.163 7.157 3.163s2.984.67 6.466-.233c3.043-.612 5.257-2.107 5.257-2.107s5.04-2.771 6.424-8.432l-.555-8.672Zm-7.851 9.416s-2.014 3.501-6.441 3.086c-5.2-.529-5.811-5.071-5.811-5.071s-.713-3.342 2.489-6.254c3.243-2.71 6.624-2.299 6.624-2.299s2.271.215 3.44 3.953c1.502 4.757-.301 6.585-.301 6.585" style="fill:#2e298b;fill-rule:nonzero"/>
        <path d="M212.272 100.419c-1.663-.364-4.329.315-4.329.315s-3.715 1.356-4.289 1.336c-.218-.313-.689-6.351-.554-8.768.081-4.267-.279-7.748-.279-7.748s-.176-4.11-2.391-6.546c-2.608-2.616-4.428-1.494-5.474-.868-2.512 2.244-1.344 4.974-1.344 4.974l1.304 3.68s.632 1.573.555 4.147l.552 8.673c0 1.16.95 8.966.95 8.966s.097 2.537 2.549 2.988c2.512.414 4.982-.827 6.029-1.32 1.048-.489 2.432-.921 2.432-.921s1.146-.257 2.293-.353c2.689-.258 3.656-.727 3.656-.727s1.039-.157 1.741-1.143c.7-.984 1.545-5.601-3.401-6.685" style="fill:#639d1a;fill-rule:nonzero"/>
        <path d="M168.271 104.272c-1.768-.525-3.793-.174-3.793-.174s-5.735.549-8.72-.08c-4.624-.805-4.47-5.761-4.47-5.761s-.154-3.286 2.631-7.728c3.441-5.486 7.237-6.469 7.237-6.469s.945-.353 1.836.118c.554 3.183 3.655 3.163 3.655 3.163s4.472.298 4.25-5.09c-.513-4.425-4.801-5.032-6.6-5.447-5.394-.964-8.898 1.908-8.898 1.908s-3.615 1.945-7.944 8.728c-2.949 4.207-3.304 7.514-3.304 7.514s-.354.784-.217 4.286c-.077 2.732.952 4.718.952 4.718s1.56 4.703 6.503 6.629c3.004 1.238 7.392 1.219 7.392 1.219s4.251-.061 7.511-.236c1.781.137 2.63-.789 2.63-.789s1.994-1.297 1.799-3.558c0 0-.387-2.336-2.45-2.951" style="fill:#94142c;fill-rule:nonzero"/>
        <path d="M240.087 89.9c-3.457-5.621-9.547-6.467-9.547-6.467s-1.938-.652-6.088-.102c-7.788 1.477-10.497 7.434-10.497 7.434s-2.788 4.365-1.681 9.654l3.403 6.685c2.51 2.341 3.538 2.341 3.694 2.481 3.323 1.493 7.176.628 7.176.628s4.866-.473 9.314-3.914c3.556-2.595 5.099-6.409 5.099-6.409l.471-5.119-1.344-4.871Zm-9.466 11.481c-5.594 3.345-9.116-.313-9.116-.313s-1.561-1.023-1.899-4.13c-.239-3.597 3.364-5.465 3.364-5.465s1.896-1.162 4.269-.983c2.371.176 3.12.02 5.041 1.437 1.816 1.63 1.697 2.828 1.697 2.828s.654 4.053-3.356 6.626" style="fill:#c8a61d;fill-rule:nonzero"/>
        <path d="M240.957 99.89s.119 3.145-.375 3.913c-.672 1.435-.572 2.829-.572 2.829s-.458 4.249 4.489 4.954c3.395-.018 3.811-2.831 3.871-4.03.195-.943.118-5.328.118-5.328l4.41 3.578s3.201 2.673 5.082 4.226c1.956 1.534 2.449 1.81 2.449 1.81s.416.49 1.917.313c1.209.022 2.316-1.062 2.316-1.062s1.4-1.019 1.756-2.811c.434-2.123-1.226-3.165-1.226-3.165s-6.125-4.917-10.276-8.298c2.784-1.515 4.129-2.554 4.129-2.554s3.878-2.557 4.705-6.471c1.149-4.308-2.114-5.997-2.114-5.997s-2.037-1.454-3.755-2.223c-4.331-2.103-8.362-1.671-8.362-1.671s-5.733-.393-9.468 4.191c-1.721 2.22-.652 5.131-.652 5.131s.212.466.692 2.673c.957 4.443.866 9.992.866 9.992Zm7.513-8.731-.376-5.132s3.617-.079 5.12.177c2.966.45 2.806 1.279 2.806 1.279s-.099 1.042-2.351 2.064c-2.449 1.179-5.199 1.612-5.199 1.612" style="fill:#00766a;fill-rule:nonzero"/>
        <path d="M387.967.844h17.59l-24.798 38.372-4.022 29.935H360.84l4.66-34.157L349.603.844h17.167l8.482 19.399L387.967.844ZM202.73 42.165h20.977l2.121-15.178H205.06l1.486-10.965h24.156L233.038.844h-40.059l-9.537 68.307h39.843l2.12-15.185h-24.161l1.486-11.801Zm-122.081-6.75 5.299-14.123 1.697 14.123h-6.996Zm-5.733 13.493h14.421l2.546 20.237h26.067l12.083-37.103 5.935 37.103h13.778l15.259-39.21 2.544 39.21h15.258L178.569.842h-18.228L146.139 36.89 140.627.842h-16.319l-18.652 56.076L98.662.842H78.316l-22.68 56.706 2.968-22.133H31.047l-1.909 13.49h12.083l-.849 4.638c-2.119 1.264-6.993 1.476-8.901 1.476-1.906 0-16.107-1.264-15.472-16.444.632-15.176 20.977-29.301 45.139-21.501l2.333-14.547C47.363-2.952 5.056.115.733 37.732-1.808 59.868 18.54 70.409 32.102 70.201c7.842.422 16.746-2.53 19.923-4.218l-1.059 3.162h16.109l7.841-20.237Z" style="fill:#fff;fill-rule:nonzero"/>
        <path d="M332.435.213c-11.022-.423-26.918 5.902-32.216 31.411-5.298 25.506 8.9 35.837 22.042 37.525 13.141 1.686 31.581-6.536 34.97-30.989C360.627 13.704 348.538.846 332.435.213Zm-1.692 14.547c4.45 0 13.986 2.951 11.654 20.657-2.33 17.709-13.351 19.817-17.377 19.397-4.03-.425-12.295-3.163-9.963-19.397 2.336-16.23 11.024-20.869 15.69-20.657h-.004Z" style="fill:#fff;fill-rule:nonzero"/>
        <path d="M265.458 26.987h8.903c6.569 0 7.842-4.217 8.051-5.902.212-1.687-1.694-5.06-5.083-5.06h-10.385l-1.48 10.962h-.006Zm-3.815 26.983h12.082c6.569 0 8.052-5.058 8.264-6.746.212-1.686-1.695-5.059-5.086-5.059H263.34l-1.694 11.805h-.003Zm-17.798 15.179L253.384.846h29.247c6.996 0 17.168 8.013 15.898 18.762-1.272 10.752-4.664 11.386-6.995 13.072 3.604 3.16 7.205 8.218 5.723 17.706-1.485 9.489-9.327 18.763-23.101 18.763h-30.311Z" style="fill:#fff;fill-rule:nonzero"/>
    </g>
</svg>
