<?xml version="1.0" encoding="UTF-8"?>
<svg width="406px" height="113px" viewBox="0 0 406 113" version="1.1" xmlns="http://www.w3.org/2000/svg" xmlns:xlink="http://www.w3.org/1999/xlink">
    <title>gbc</title>
    <defs>
        <polygon id="path-1" points="0 0 405.041 0 405.041 112 0 112"></polygon>
    </defs>
    <g id="Page-1" stroke="none" stroke-width="1" fill="none" fill-rule="evenodd" opacity="0.78">
        <g id="Nintendo-Gameboy-Color" transform="translate(-117.000000, -3.000000)">
            <g id="gbc" transform="translate(117.551544, 3.807922)">
                <mask id="mask-2" fill="white">
                    <use xlink:href="#path-1"></use>
                </mask>
                <g id="Path"></g>
                <g id="Group" mask="url(#mask-2)" fill-rule="nonzero">
                    <g transform="translate(0.000065, -0.000520)">
                        <path d="M194.954935,90.7505197 C194.304935,88.7855197 192.581935,86.9135197 192.581935,86.9135197 C192.581935,86.9135197 189.995935,83.5745197 184.913935,82.4335197 C180.562935,81.5285197 177.145935,83.4365197 177.145935,83.4365197 C177.145935,83.4365197 174.041935,84.6735197 171.708935,87.2315197 C167.992935,90.7875197 166.923935,95.9805197 166.923935,95.9805197 C166.923935,95.9805197 165.498935,100.50152 167.754935,104.08252 L170.205935,107.03152 C173.665935,109.90252 177.362935,110.19452 177.362935,110.19452 C177.362935,110.19452 180.346935,110.86452 183.828935,109.96152 C186.871935,109.34952 189.085935,107.85452 189.085935,107.85452 C189.085935,107.85452 194.125935,105.08352 195.509935,99.4225197 L194.954935,90.7505197 L194.954935,90.7505197 Z M187.103935,100.16652 C187.103935,100.16652 185.089935,103.66752 180.662935,103.25252 C175.462935,102.72352 174.851935,98.1815197 174.851935,98.1815197 C174.851935,98.1815197 174.138935,94.8395197 177.340935,91.9275197 C180.583935,89.2175197 183.964935,89.6285197 183.964935,89.6285197 C183.964935,89.6285197 186.235935,89.8435197 187.404935,93.5815197 C188.906935,98.3385197 187.103935,100.16652 187.103935,100.16652" id="Shape" fill="#2E298B"></path>
                        <path d="M211.755935,100.22552 C210.092935,99.8615197 207.426935,100.54052 207.426935,100.54052 C207.426935,100.54052 203.711935,101.89652 203.137935,101.87652 C202.919935,101.56352 202.448935,95.5255197 202.583935,93.1085197 C202.664935,88.8415197 202.304935,85.3605197 202.304935,85.3605197 C202.304935,85.3605197 202.128935,81.2505197 199.913935,78.8145197 C197.305935,76.1985197 195.485935,77.3205197 194.439935,77.9465197 C191.927935,80.1905197 193.095935,82.9205197 193.095935,82.9205197 L194.399935,86.6005197 C194.399935,86.6005197 195.031935,88.1735197 194.954935,90.7475197 L195.506935,99.4205197 C195.506935,100.58052 196.456935,108.38652 196.456935,108.38652 C196.456935,108.38652 196.553935,110.92352 199.005935,111.37452 C201.517935,111.78852 203.987935,110.54752 205.034935,110.05452 C206.082935,109.56552 207.466935,109.13352 207.466935,109.13352 C207.466935,109.13352 208.612935,108.87652 209.759935,108.78052 C212.448935,108.52252 213.415935,108.05352 213.415935,108.05352 C213.415935,108.05352 214.454935,107.89652 215.156935,106.91052 C215.856935,105.92652 216.701935,101.30952 211.755935,100.22552" id="Path" fill="#639D1A"></path>
                        <path d="M167.754935,104.07852 C165.986935,103.55352 163.961935,103.90452 163.961935,103.90452 C163.961935,103.90452 158.226935,104.45352 155.241935,103.82452 C150.617935,103.01952 150.771935,98.0635197 150.771935,98.0635197 C150.771935,98.0635197 150.617935,94.7775197 153.402935,90.3355197 C156.843935,84.8495197 160.639935,83.8665197 160.639935,83.8665197 C160.639935,83.8665197 161.584935,83.5135197 162.475935,83.9845197 C163.029935,87.1675197 166.130935,87.1475197 166.130935,87.1475197 C166.130935,87.1475197 170.602935,87.4455197 170.380935,82.0575197 C169.867935,77.6325197 165.579935,77.0255197 163.780935,76.6105197 C158.386935,75.6465197 154.882935,78.5185197 154.882935,78.5185197 C154.882935,78.5185197 151.267935,80.4635197 146.938935,87.2465197 C143.989935,91.4535197 143.634935,94.7605197 143.634935,94.7605197 C143.634935,94.7605197 143.280935,95.5445197 143.417935,99.0465197 C143.340935,101.77852 144.369935,103.76452 144.369935,103.76452 C144.369935,103.76452 145.929935,108.46752 150.872935,110.39352 C153.876935,111.63152 158.264935,111.612537 158.264935,111.612537 C158.264935,111.612537 162.515935,111.55152 165.775935,111.37652 C167.556935,111.51352 168.405935,110.58752 168.405935,110.58752 C168.405935,110.58752 170.399935,109.29052 170.204935,107.02952 C170.204935,107.02952 169.817935,104.69352 167.754935,104.07852" id="Path" fill="#94142C"></path>
                        <path d="M239.570935,89.7065197 C236.113935,84.0855197 230.023935,83.2395197 230.023935,83.2395197 C230.023935,83.2395197 228.085935,82.5875197 223.935935,83.1375197 C216.147935,84.6145197 213.438935,90.5715197 213.438935,90.5715197 C213.438935,90.5715197 210.650935,94.9365197 211.757935,100.22552 L215.160935,106.91052 C217.670935,109.25152 218.698935,109.25152 218.854935,109.39152 C222.177935,110.88452 226.030935,110.01952 226.030935,110.01952 C226.030935,110.01952 230.896935,109.54652 235.344935,106.10552 C238.900935,103.51052 240.443935,99.6965197 240.443935,99.6965197 L240.914935,94.5775197 L239.570935,89.7065197 L239.570935,89.7065197 Z M230.104935,101.18752 C224.510935,104.53252 220.988935,100.87452 220.988935,100.87452 C220.988935,100.87452 219.427935,99.8515197 219.089935,96.7445197 C218.850935,93.1475197 222.453935,91.2795197 222.453935,91.2795197 C222.453935,91.2795197 224.349935,90.1175197 226.722935,90.2965197 C229.093935,90.4725197 229.842935,90.3165197 231.763935,91.7335197 C233.579935,93.3635197 233.460935,94.5615197 233.460935,94.5615197 C233.460935,94.5615197 234.114935,98.6145197 230.104935,101.18752" id="Shape" fill="#C8A61D"></path>
                        <path d="M240.440935,99.6965197 C240.440935,99.6965197 240.559935,102.84152 240.065935,103.60952 C239.393935,105.04452 239.493935,106.43852 239.493935,106.43852 C239.493935,106.43852 239.035935,110.68752 243.982935,111.39252 C247.377935,111.37452 247.793935,108.56152 247.853935,107.36252 C248.048935,106.41952 247.971935,102.03452 247.971935,102.03452 L252.381935,105.61252 C252.381935,105.61252 255.582935,108.28552 257.463935,109.83852 C259.419935,111.37252 259.912935,111.64852 259.912935,111.64852 C259.912935,111.64852 260.328935,112.13852 261.829935,111.96152 C263.038935,111.98352 264.145935,110.89952 264.145935,110.89952 C264.145935,110.89952 265.545935,109.88052 265.901935,108.08852 C266.335935,105.96552 264.675935,104.92352 264.675935,104.92352 C264.675935,104.92352 258.550935,100.00652 254.399935,96.6255197 C257.183935,95.1105197 258.528935,94.0715197 258.528935,94.0715197 C258.528935,94.0715197 262.406935,91.5145197 263.233935,87.6005197 C264.382935,83.2925197 261.119935,81.6035197 261.119935,81.6035197 C261.119935,81.6035197 259.082935,80.1495197 257.364935,79.3805197 C253.033935,77.2775197 249.002935,77.7095197 249.002935,77.7095197 C249.002935,77.7095197 243.269935,77.3165197 239.534935,81.9005197 C237.813935,84.1205197 238.882935,87.0315197 238.882935,87.0315197 C238.882935,87.0315197 239.094935,87.4975197 239.574935,89.7045197 C240.531935,94.1475197 240.440935,99.6965197 240.440935,99.6965197 L240.440935,99.6965197 Z M247.953935,90.9655197 L247.577935,85.8335197 C247.577935,85.8335197 251.194935,85.7545197 252.697935,86.0105197 C255.663935,86.4605197 255.503935,87.2895197 255.503935,87.2895197 C255.503935,87.2895197 255.404935,88.3315197 253.152935,89.3535197 C250.703935,90.5325197 247.953935,90.9655197 247.953935,90.9655197" id="Shape" fill="#00766A"></path>
                        <path d="M387.450935,0.650519681 L405.040935,0.650519681 L380.242935,39.0225197 L376.220935,68.9575197 L360.323935,68.9575197 L364.983935,34.8005197 L349.086935,0.650519681 L366.253935,0.650519681 L374.735935,20.0495197 L387.450935,0.650519681 Z M202.213935,41.9715197 L223.190935,41.9715197 L225.311935,26.7935197 L204.543935,26.7935197 L206.029935,15.8285197 L230.185935,15.8285197 L232.521935,0.650519681 L192.462935,0.650519681 L182.925935,68.9575197 L222.768935,68.9575197 L224.888935,53.7725197 L200.727935,53.7725197 L202.213935,41.9715197 L202.213935,41.9715197 Z M80.1329354,35.2215197 L85.4319354,21.0985197 L87.1289354,35.2215197 L80.1329354,35.2215197 L80.1329354,35.2215197 Z M74.3999354,48.7145197 L88.8209354,48.7145197 L91.3669354,68.9515197 L117.433935,68.9515197 L129.516935,31.8485197 L135.451935,68.9515197 L149.229935,68.9515197 L164.488935,29.7415197 L167.032935,68.9515197 L182.290935,68.9515197 L178.052935,0.648519681 L159.824935,0.648519681 L145.622935,36.6965197 L140.110935,0.648519681 L123.791935,0.648519681 L105.139935,56.7245197 L98.1459354,0.648519681 L77.7999354,0.648519681 L55.1199354,57.3545197 L58.0879354,35.2215197 L30.5309354,35.2215197 L28.6219354,48.7115197 L40.7049354,48.7115197 L39.8559354,53.3495197 C37.7369354,54.6135197 32.8629354,54.8255197 30.9549354,54.8255197 C29.0489354,54.8255197 14.8479354,53.5615197 15.4829354,38.3815197 C16.1149354,23.2055197 36.4599354,9.08051968 60.6219354,16.8805197 L62.9549354,2.33351968 C46.8469354,-3.14548032 4.5399354,-0.0784803189 0.216935402,37.5385197 C-2.3240646,59.6745197 18.0239354,70.2155197 31.5859354,70.0075197 C39.4279354,70.4295197 48.3319354,67.4775197 51.5089354,65.7895197 L50.4499354,68.9515197 L66.5589354,68.9515197 L74.3999354,48.7145197 Z" id="Shape" fill="#FFFFFF"></path>
                        <path d="M331.918935,0.0195196811 C320.896935,-0.403480319 305.000935,5.92151968 299.702935,31.4305197 C294.404935,56.9365197 308.602935,67.2675197 321.744935,68.9555197 C334.885935,70.6415197 353.325935,62.4195197 356.714935,37.9665197 C360.110935,13.5105197 348.021935,0.652519681 331.918935,0.0195196811 Z M330.226935,14.5665197 C334.676935,14.5665197 344.212935,17.5175197 341.880935,35.2235197 C339.550935,52.9325197 328.529935,55.0405197 324.503935,54.6205197 C320.473935,54.1955197 312.208935,51.4575197 314.540935,35.2235197 C316.876935,18.9935197 325.564935,14.3545197 330.230935,14.5665197 L330.226935,14.5665197 L330.226935,14.5665197 Z" id="Shape" fill="#FFFFFF"></path>
                        <path d="M264.941935,26.7935197 L273.844935,26.7935197 C280.413935,26.7935197 281.686935,22.5765197 281.895935,20.8915197 C282.107935,19.2045197 280.201935,15.8315197 276.812935,15.8315197 L266.427935,15.8315197 L264.947935,26.7935197 L264.941935,26.7935197 Z M261.126935,53.7765197 L273.208935,53.7765197 C279.777935,53.7765197 281.260935,48.7185197 281.472935,47.0305197 C281.684935,45.3445197 279.777935,41.9715197 276.386935,41.9715197 L262.823935,41.9715197 L261.129935,53.7765197 L261.126935,53.7765197 L261.126935,53.7765197 Z M243.328935,68.9555197 L252.867935,0.652519681 L282.114935,0.652519681 C289.110935,0.652519681 299.282935,8.66551968 298.012935,19.4145197 C296.740935,30.1665197 293.348935,30.8005197 291.017935,32.4865197 C294.621935,35.6465197 298.222935,40.7045197 296.740935,50.1925197 C295.255935,59.6815197 287.413935,68.9555197 273.639935,68.9555197 L243.328935,68.9555197 L243.328935,68.9555197 Z" id="Shape" fill="#FFFFFF"></path>
                    </g>
                </g>
            </g>
        </g>
    </g>
</svg>