<?xml version="1.0" encoding="UTF-8" standalone="no"?>
<!DOCTYPE svg PUBLIC "-//W3C//DTD SVG 1.1//EN" "http://www.w3.org/Graphics/SVG/1.1/DTD/svg11.dtd">
<svg width="100%" height="100%" viewBox="0 0 408 116" version="1.1" xmlns="http://www.w3.org/2000/svg" xmlns:xlink="http://www.w3.org/1999/xlink" xml:space="preserve" xmlns:serif="http://www.serif.com/" style="fill-rule:evenodd;clip-rule:evenodd;stroke-linejoin:round;stroke-miterlimit:2;">
    <g transform="matrix(1,0,0,1,-2496,-913)">
        <g id="gbc.afdesign" transform="matrix(1,0,0,1,2700,971.111)">
            <g transform="matrix(1,0,0,1,-318.838,-58.4964)">
                <g transform="matrix(1.35014,0,0,1.34292,117.479,4.00072)">
                    <g>
                        <path id="path5256" d="M144.397,67.576C143.915,66.113 142.639,64.719 142.639,64.719C142.639,64.719 140.724,62.233 136.96,61.383C133.737,60.709 131.206,62.13 131.206,62.13C131.206,62.13 128.907,63.051 127.179,64.956C124.427,67.604 123.635,71.471 123.635,71.471C123.635,71.471 122.58,74.837 124.251,77.504L126.066,79.7C128.629,81.838 131.367,82.055 131.367,82.055C131.367,82.055 133.577,82.554 136.156,81.882C138.41,81.426 140.05,80.313 140.05,80.313C140.05,80.313 143.783,78.249 144.808,74.034L144.397,67.576ZM138.582,74.588C138.582,74.588 137.09,77.195 133.811,76.886C129.96,76.492 129.507,73.11 129.507,73.11C129.507,73.11 128.979,70.621 131.351,68.453C133.753,66.435 136.257,66.741 136.257,66.741C136.257,66.741 137.939,66.901 138.805,69.684C139.917,73.227 138.582,74.588 138.582,74.588" style="fill:rgb(46,41,139);fill-rule:nonzero;"/>
                        <path id="path5262" d="M156.841,74.632C155.609,74.361 153.634,74.866 153.634,74.866C153.634,74.866 150.883,75.876 150.458,75.861C150.296,75.628 149.947,71.132 150.047,69.332C150.107,66.155 149.841,63.563 149.841,63.563C149.841,63.563 149.71,60.502 148.07,58.688C146.138,56.74 144.79,57.576 144.015,58.042C142.155,59.713 143.02,61.746 143.02,61.746L143.986,64.486C143.986,64.486 144.454,65.657 144.397,67.574L144.806,74.032C144.806,74.896 145.509,80.709 145.509,80.709C145.509,80.709 145.581,82.598 147.397,82.934C149.258,83.242 151.087,82.318 151.863,81.951C152.639,81.587 153.664,81.265 153.664,81.265C153.664,81.265 154.513,81.074 155.362,81.002C157.354,80.81 158.07,80.461 158.07,80.461C158.07,80.461 158.84,80.344 159.36,79.61C159.878,78.877 160.504,75.439 156.841,74.632" style="fill:rgb(99,157,26);fill-rule:nonzero;"/>
                        <path id="path5264" d="M124.251,77.501C122.941,77.11 121.441,77.371 121.441,77.371C121.441,77.371 117.194,77.78 114.983,77.312C111.558,76.712 111.672,73.022 111.672,73.022C111.672,73.022 111.558,70.575 113.621,67.267C116.169,63.182 118.981,62.45 118.981,62.45C118.981,62.45 119.681,62.187 120.341,62.538C120.751,64.908 123.048,64.893 123.048,64.893C123.048,64.893 126.36,65.115 126.196,61.103C125.816,57.808 122.64,57.356 121.307,57.047C117.312,56.329 114.717,58.468 114.717,58.468C114.717,58.468 112.039,59.916 108.833,64.967C106.649,68.1 106.386,70.562 106.386,70.562C106.386,70.562 106.124,71.146 106.225,73.754C106.168,75.788 106.93,77.267 106.93,77.267C106.93,77.267 108.086,80.769 111.747,82.203C113.972,83.125 117.222,83.111 117.222,83.111C117.222,83.111 120.37,83.066 122.785,82.935C124.104,83.037 124.733,82.348 124.733,82.348C124.733,82.348 126.21,81.382 126.065,79.698C126.065,79.698 125.779,77.959 124.251,77.501" style="fill:rgb(148,20,44);fill-rule:nonzero;"/>
                        <path id="path5258" d="M177.442,66.799C174.882,62.613 170.371,61.983 170.371,61.983C170.371,61.983 168.936,61.498 165.862,61.907C160.094,63.007 158.087,67.443 158.087,67.443C158.087,67.443 156.022,70.693 156.842,74.632L159.363,79.61C161.222,81.353 161.983,81.353 162.099,81.457C164.56,82.569 167.414,81.925 167.414,81.925C167.414,81.925 171.018,81.573 174.312,79.01C176.946,77.078 178.089,74.238 178.089,74.238L178.438,70.426L177.442,66.799ZM170.431,75.348C166.288,77.839 163.679,75.115 163.679,75.115C163.679,75.115 162.523,74.353 162.273,72.04C162.096,69.361 164.764,67.97 164.764,67.97C164.764,67.97 166.169,67.105 167.926,67.238C169.682,67.369 170.237,67.253 171.66,68.308C173.005,69.522 172.917,70.414 172.917,70.414C172.917,70.414 173.401,73.432 170.431,75.348" style="fill:rgb(200,166,29);fill-rule:nonzero;"/>
                        <path id="path5260" d="M178.087,74.238C178.087,74.238 178.175,76.58 177.809,77.152C177.311,78.22 177.385,79.258 177.385,79.258C177.385,79.258 177.046,82.422 180.71,82.947C183.225,82.934 183.533,80.839 183.577,79.946C183.722,79.244 183.665,75.979 183.665,75.979L186.931,78.643C186.931,78.643 189.302,80.634 190.695,81.79C192.144,82.932 192.509,83.138 192.509,83.138C192.509,83.138 192.817,83.503 193.929,83.371C194.824,83.387 195.644,82.58 195.644,82.58C195.644,82.58 196.681,81.821 196.945,80.487C197.266,78.906 196.037,78.13 196.037,78.13C196.037,78.13 191.5,74.469 188.426,71.951C190.488,70.823 191.484,70.049 191.484,70.049C191.484,70.049 194.356,68.145 194.969,65.231C195.82,62.023 193.403,60.765 193.403,60.765C193.403,60.765 191.894,59.682 190.622,59.11C187.414,57.544 184.428,57.865 184.428,57.865C184.428,57.865 180.182,57.573 177.416,60.986C176.141,62.639 176.933,64.807 176.933,64.807C176.933,64.807 177.09,65.154 177.445,66.797C178.154,70.106 178.087,74.238 178.087,74.238ZM183.651,67.736L183.373,63.915C183.373,63.915 186.052,63.856 187.165,64.047C189.362,64.382 189.243,64.999 189.243,64.999C189.243,64.999 189.17,65.775 187.502,66.536C185.688,67.414 183.651,67.736 183.651,67.736" style="fill:rgb(0,118,106);fill-rule:nonzero;"/>
                    </g>
                    <g>
                        <path id="_43443024" d="M286.972,0.484L300,0.484L281.633,29.057L278.654,51.348L266.88,51.348L270.331,25.913L258.557,0.484L271.272,0.484L277.554,14.929L286.972,0.484Z" style="fill:white;fill-rule:nonzero;"/>
                        <path id="_43441624" d="M149.773,31.253L165.31,31.253L166.881,19.951L151.499,19.951L152.6,11.786L170.491,11.786L172.221,0.484L142.551,0.484L135.487,51.348L164.998,51.348L166.568,40.041L148.673,40.041L149.773,31.253Z" style="fill:white;fill-rule:nonzero;"/>
                        <path id="_43775888" d="M59.352,26.227L63.277,15.71L64.534,26.227L59.352,26.227ZM55.106,36.274L65.787,36.274L67.673,51.344L86.98,51.344L95.929,23.715L100.325,51.344L110.53,51.344L121.832,22.146L123.716,51.344L135.017,51.344L131.878,0.482L118.377,0.482L107.858,27.325L103.776,0.482L91.689,0.482L77.874,42.239L72.694,0.482L57.624,0.482L40.826,42.708L43.024,26.227L22.614,26.227L21.2,36.272L30.149,36.272L29.52,39.726C27.951,40.667 24.341,40.825 22.928,40.825C21.516,40.825 10.998,39.884 11.468,28.58C11.936,17.279 27.005,6.761 44.901,12.569L46.629,1.737C34.698,-2.343 3.363,-0.059 0.161,27.952C-1.721,44.436 13.35,52.285 23.395,52.13C29.203,52.444 35.798,50.246 38.151,48.989L37.367,51.344L49.298,51.344L55.106,36.274Z" style="fill:white;fill-rule:nonzero;"/>
                        <path id="_44102912" d="M245.841,0.014C237.678,-0.301 225.904,4.409 221.98,23.404C218.056,42.397 228.572,50.09 238.306,51.347C248.039,52.602 261.697,46.48 264.207,28.271C266.722,10.06 257.768,0.485 245.841,0.014ZM244.588,10.846C247.884,10.846 254.947,13.044 253.22,26.228C251.494,39.415 243.331,40.985 240.349,40.672C237.364,40.356 231.243,38.317 232.97,26.228C234.7,14.143 241.135,10.688 244.591,10.846L244.588,10.846Z" style="fill:white;fill-rule:nonzero;"/>
                        <path id="_44104296" d="M196.234,19.951L202.828,19.951C207.693,19.951 208.636,16.811 208.791,15.556C208.948,14.3 207.536,11.788 205.026,11.788L197.334,11.788L196.238,19.951L196.234,19.951ZM193.408,40.044L202.357,40.044C207.222,40.044 208.321,36.277 208.478,35.02C208.635,33.765 207.222,31.253 204.711,31.253L194.665,31.253L193.41,40.044L193.408,40.044ZM180.226,51.347L187.291,0.485L208.953,0.485C214.135,0.485 221.669,6.452 220.728,14.456C219.786,22.463 217.274,22.935 215.547,24.19C218.217,26.543 220.884,30.31 219.786,37.375C218.686,44.441 212.878,51.347 202.676,51.347L180.226,51.347Z" style="fill:white;fill-rule:nonzero;"/>
                    </g>
                </g>
            </g>
        </g>
    </g>
</svg>
