<svg viewBox="0 0 264 85" xmlns="http://www.w3.org/2000/svg">
    <path d="M284.502 135.059c-.911-2.761-3.319-5.392-3.319-5.392s-3.615-4.694-10.72-6.297c-6.083-1.273-10.862 1.409-10.862 1.409s-4.339 1.738-7.601 5.335c-5.195 4.999-6.689 12.298-6.689 12.298s-1.991 6.354 1.162 11.387l3.427 4.146c4.837 4.037 10.005 4.447 10.005 4.447s4.173.941 9.04-.329c4.254-.86 7.35-2.96 7.35-2.96s7.048-3.895 8.982-11.854l-.775-12.19Zm-10.977 13.237s-2.815 4.921-9.006 4.338c-7.269-.745-8.123-7.129-8.123-7.129s-.998-4.698 3.479-8.789c4.535-3.811 9.26-3.232 9.26-3.232s3.177.302 4.81 5.555c2.1 6.689-.42 9.257-.42 9.257" style="fill-opacity:1;fill:#fff" transform="scale(.44 .43888)"/>
    <path d="M307.991 148.38c-2.326-.513-6.053.441-6.053.441s-5.192 1.907-5.995 1.879c-.305-.44-.965-8.928-.775-12.325.111-5.998-.39-10.889-.39-10.889s-.247-5.778-3.343-9.203c-3.647-3.678-6.191-2.1-7.654-1.219-3.512 3.153-1.88 6.991-1.88 6.991l1.825 5.172s.884 2.211.776 5.829l.772 12.19c0 1.632 1.328 12.603 1.328 12.603s.136 3.566 3.563 4.2c3.512.582 6.964-1.162 8.43-1.853 1.464-.688 3.398-1.297 3.398-1.297s1.605-.359 3.207-.495c3.759-.362 5.111-1.023 5.111-1.023s1.454-.22 2.435-1.605c.978-1.385 2.16-7.875-4.755-9.396m-61.518 5.416c-2.471-.739-5.304-.247-5.304-.247s-8.017.772-12.19-.112c-6.466-1.131-6.249-8.098-6.249-8.098s-.217-4.617 3.678-10.862c4.81-7.712 10.117-9.094 10.117-9.094s1.322-.495 2.568.166c.775 4.474 5.111 4.447 5.111 4.447s6.249.417 5.941-7.154c-.718-6.221-6.714-7.075-9.23-7.657-7.54-1.355-12.437 2.682-12.437 2.682s-5.057 2.734-11.109 12.268c-4.122 5.914-4.617 10.56-4.617 10.56s-.497 1.105-.304 6.026c-.109 3.841 1.33 6.632 1.33 6.632s2.182 6.61 9.091 9.317c4.2 1.741 10.337 1.713 10.337 1.713s5.941-.084 10.5-.331c2.489.193 3.678-1.108 3.678-1.108s2.788-1.822 2.513-5.002c0 0-.54-3.283-3.424-4.146" style="fill-opacity:1;fill:#fff" transform="scale(.44 .43888)"/>
    <path d="M346.88 133.593c-4.834-7.902-13.348-9.091-13.348-9.091s-2.71-.914-8.512-.142c-10.889 2.076-14.676 10.449-14.676 10.449s-3.898 6.134-2.35 13.571l4.758 9.396c3.509 3.289 4.945 3.289 5.166 3.485 4.643 2.1 10.032.884 10.032.884s6.801-.664 13.019-5.501c4.972-3.648 7.13-9.009 7.13-9.009l.661-7.196-1.88-6.846Zm-13.237 16.139c-7.82 4.701-12.744-.441-12.744-.441s-2.182-1.439-2.653-5.805c-.335-5.057 4.701-7.682 4.701-7.682s2.652-1.632 5.968-1.382c3.316.248 4.363.028 7.049 2.019 2.54 2.293 2.374 3.977 2.374 3.977s.914 5.696-4.695 9.314" style="fill-opacity:1;fill:#fff" transform="scale(.44 .43888)"/>
    <path d="M348.096 147.635s.166 4.42-.525 5.5c-.939 2.016-.8 3.977-.8 3.977s-.639 5.971 6.276 6.964c4.749-.027 5.328-3.98 5.413-5.667.274-1.324.166-7.488.166-7.488l6.164 5.029s4.475 3.76 7.106 5.941c2.736 2.155 3.424 2.544 3.424 2.544s.582.688 2.679.44c1.69.03 3.238-1.493 3.238-1.493s1.958-1.433 2.456-3.95c.606-2.984-1.714-4.45-1.714-4.45s-8.563-6.91-14.368-11.665c3.895-2.127 5.775-3.59 5.775-3.59s5.419-3.594 6.578-9.094c1.605-6.056-2.957-8.43-2.957-8.43s-2.848-2.043-5.25-3.123c-6.056-2.957-11.692-2.351-11.692-2.351s-8.014-.552-13.236 5.89c-2.405 3.123-.912 7.214-.912 7.214s.296.655.966 3.757c1.34 6.245 1.213 14.045 1.213 14.045Zm10.503-12.274-.525-7.211s5.057-.112 7.157.247c4.148.634 3.925 1.798 3.925 1.798s-.139 1.464-3.289 2.903c-3.424 1.656-7.268 2.263-7.268 2.263" style="fill-opacity:1;fill:#fff" transform="scale(.44 .43888)"/>
    <path style="fill:#fff" d="M573.943.969h26.056l-36.734 57.146-5.958 44.582h-23.548l6.902-50.87L517.113.969h25.43l12.564 28.89zM299.545 62.507h31.074l3.142-22.604h-30.764l2.202-16.33h35.782l3.46-22.604h-59.34l-14.128 101.728h59.022l3.14-22.614h-35.79zM118.703 52.455l7.85-21.034 2.514 21.034h-10.362Zm-8.476 20.094h21.346l3.772 30.14h38.614l17.898-55.258 8.792 55.258h20.41l22.604-58.396 3.768 58.396h22.602L263.755.965h-27.002l-21.038 53.686L207.551.965h-24.174l-27.63 83.514L145.387.965h-30.14L81.651 85.417l4.396-32.962h-40.82l-2.828 20.09h17.898l-1.258 6.908c-3.138 1.882-10.358 2.198-13.184 2.198-2.824 0-23.86-1.882-22.92-24.49.936-22.602 31.074-43.638 66.866-32.022l3.456-21.664C69.395-4.685 6.725-.117.321 55.905c-3.764 32.968 26.378 48.666 46.468 48.356 11.616.628 24.806-3.768 29.512-6.282l-1.568 4.71h23.862l11.616-30.14Z" transform="scale(.44 .43888)"/>
    <path d="M491.681.029c-16.326-.63-39.874 8.79-47.722 46.78-7.848 37.986 13.184 53.372 32.652 55.886 19.466 2.51 46.782-9.734 51.802-46.152C533.443 20.121 515.535.971 491.681.029Zm-2.506 21.664c6.592 0 20.718 4.396 17.264 30.764-3.452 26.374-19.778 29.514-25.742 28.888-5.97-.632-18.212-4.71-14.758-28.888 3.46-24.17 16.33-31.08 23.242-30.764Z" style="fill:#fff" transform="scale(.44 .43888)"/>
    <path d="M392.467 39.903h13.188c9.73 0 11.616-6.28 11.926-8.79.314-2.512-2.51-7.536-7.53-7.536h-15.384l-2.192 16.326Zm-5.652 40.186h17.898c9.73 0 11.928-7.534 12.242-10.048.314-2.51-2.512-7.534-7.534-7.534h-20.092l-2.51 17.582Zm-26.364 22.606L374.581.971h43.324c10.364 0 25.432 11.934 23.55 27.942-1.884 16.014-6.908 16.958-10.362 19.468 5.34 4.706 10.674 12.24 8.478 26.37-2.2 14.132-13.816 27.944-34.22 27.944h-44.898Z" style="fill:#fff" transform="scale(.44 .43888)"/>
    <path d="M83.597 84.815h-2.464v-2.717h-1.848v2.717h-2.464v-7.68h2.464v2.716h1.848v-2.716h2.464v7.68Zm3.352-1.215-.286 1.215h-2.6l1.998-7.68h3.806l1.997 7.68h-2.6l-.282-1.215h-2.033Zm1.083-4.104h-.137l-.506 2.151h1.136l-.493-2.151Zm9.412 3.12.185 2.063c-.516.213-1.164.321-1.945.321-.78 0-1.406-.083-1.879-.246-.472-.164-.844-.421-1.117-.772a3.201 3.201 0 0 1-.568-1.242c-.105-.478-.158-1.065-.158-1.761s.053-1.283.158-1.759c.108-.481.298-.898.568-1.251.525-.679 1.49-1.019 2.895-1.019.314 0 .682.031 1.104.092.423.062.737.138.942.229l-.37 1.878a7.062 7.062 0 0 0-1.465-.171c-.442 0-.75.04-.924.123-.173.082-.259.245-.259.492v3.221c.319.064.644.096.972.096.698 0 1.318-.097 1.861-.294Zm3.56-1.145h-.049v3.344h-2.464v-7.68h2.464v3.133h.049c.017-.245.058-.442.123-.587l1.21-2.546h2.658l-1.848 3.774 1.909 3.906h-2.657l-1.272-2.752a1.825 1.825 0 0 1-.123-.592Zm4.484 3.208.344-2.027c.756.189 1.437.285 2.041.285.605 0 1.091-.026 1.461-.075v-.614l-1.109-.101c-1.003-.088-1.69-.327-2.063-.716-.375-.389-.564-.965-.564-1.729 0-1.048.229-1.768.687-2.163.455-.393 1.227-.589 2.319-.589 1.094 0 2.08.102 2.956.308l-.308 1.966c-.762-.123-1.373-.185-1.834-.185-.461 0-.851.021-1.171.062v.601l.889.088c1.077.105 1.821.361 2.231.768.411.404.616.967.616 1.69 0 .515-.071.951-.211 1.308-.141.356-.307.627-.498.812-.193.184-.467.325-.822.42-.352.1-.661.16-.929.181-.266.02-.621.031-1.065.031-1.067 0-2.057-.108-2.97-.321Zm11.447-2.813h-1.909v-1.769h1.909v-1.905h1.774v1.905h1.922v1.769h-1.922v1.918h-1.774v-1.918Zm13.833 2.949h-2.464v-2.717h-1.848v2.717h-2.464v-7.68h2.464v2.716h1.848v-2.716h2.464v7.68Zm.863-3.836c0-1.398.262-2.42.787-3.063.525-.644 1.474-.966 2.847-.966s2.321.322 2.847.966c.524.643.787 1.665.787 3.063 0 .696-.056 1.283-.167 1.761a3.281 3.281 0 0 1-.572 1.242c-.27.351-.644.608-1.122.772-.475.163-1.066.246-1.773.246-.708 0-1.298-.083-1.773-.246-.479-.164-.853-.421-1.122-.772a3.251 3.251 0 0 1-.572-1.242c-.112-.478-.167-1.065-.167-1.761Zm2.648-1.277v3.195h1.021c.337 0 .582-.039.735-.113.152-.08.229-.259.229-.536v-3.195h-1.034c-.329 0-.57.037-.722.114-.153.079-.229.257-.229.535Zm7.897 1.392-.149 3.721h-2.574l.466-7.68h3.217l.963 3.906h.084l.963-3.906h3.212l.471 7.68h-2.574l-.149-3.721h-.088l-.933 3.721h-1.888l-.946-3.721h-.075Zm12.504-.962v1.782h-2.464v.935h3.019v1.966h-5.483v-7.68h5.421l-.308 1.966h-2.649v1.031h2.464Zm6.023 4.683h-4.422v-7.68h3.991c.739 0 1.267.143 1.584.43.317.286.475.705.475 1.255 0 .547-.101.97-.303 1.268a1.343 1.343 0 0 1-.806.584v.075c.995.172 1.492.848 1.492 2.028 0 .614-.164 1.108-.493 1.483-.328.371-.834.557-1.518.557Zm-.999-3.059h-.959v1.251h.951c.343 0 .514-.208.514-.623 0-.419-.168-.628-.506-.628Zm-.184-2.936h-.775v1.141h.766c.311 0 .466-.191.466-.571 0-.38-.152-.57-.457-.57Zm9.44 3.441 1.329 2.554h-2.71l-1.012-2.287h-.528v2.287h-2.464v-7.68h3.88c1.767 0 2.649.896 2.649 2.69 0 1.229-.381 2.041-1.144 2.436Zm-2.354-3.16h-.567v1.536h.567c.297 0 .512-.031.647-.092.135-.062.202-.204.202-.426v-.5c0-.223-.067-.364-.202-.426-.135-.061-.35-.092-.647-.092Zm9.473 1.031v1.782h-2.464v.935h3.019v1.966h-5.483v-7.68h5.421l-.308 1.966h-2.649v1.031h2.464Zm7.933 1.291.594-4.288h2.574l-1.21 7.68h-3.212l-.568-2.826h-.149l-.555 2.826h-3.216l-1.206-7.68h2.574l.581 4.288h.075l.884-4.288h1.888l.871 4.288h.075Z" style="fill:#fff;white-space:pre"/>
</svg>
