<svg viewBox="0 0 264 58" xmlns="http://www.w3.org/2000/svg">
    <g fill="#fff">
        <path d="M252.528.423h11.464L247.83 25.352l-2.621 19.45h-10.361l3.036-22.193L227.523.423h11.189l5.527 12.603zM131.793 27.269h13.672l1.383-9.861H133.31l.969-7.124h15.743l1.523-9.86h-26.11L119.22 44.8h25.97l1.383-9.866h-15.749zm-79.571-4.386 3.453-9.176 1.106 9.176h-4.559zm-3.73 8.765h9.393l1.66 13.149h16.99l7.874-24.105 3.87 24.105h8.979l9.946-25.475 1.658 25.475h9.946L116.044.421h-11.88l-9.257 23.42L91.314.42H80.678L68.522 36.853 63.962.42H50.701L35.919 37.263l1.934-14.38h-17.96l-1.245 8.765h7.875l-.553 3.013c-1.382.82-4.558.958-5.802.958S9.67 34.798 10.084 24.936c.41-9.86 13.673-19.037 29.42-13.97l1.522-9.45C30.526-2.044 2.95-.052.134 24.39-1.523 38.77 11.74 45.62 20.58 45.482c5.112.274 10.914-1.644 12.986-2.74l-.69 2.055h10.499l5.111-13.149z"/>
        <path d="M216.333.013c-7.185-.275-17.545 3.834-20.999 20.408-3.453 16.57 5.802 23.282 14.367 24.378 8.566 1.095 20.584-4.246 22.794-20.133C234.707 8.778 226.828.424 216.332.013zm-1.104 9.45c2.9 0 9.117 1.918 7.597 13.421-1.52 11.505-8.702 12.875-11.328 12.601-2.625-.274-8.012-2.054-6.492-12.6 1.522-10.546 7.185-13.559 10.225-13.422z"/>
        <path d="M172.677 17.408h5.803c4.283 0 5.111-2.74 5.248-3.835.139-1.096-1.104-3.288-3.314-3.288h-6.769l-.964 7.123zm-2.486 17.53h7.875c4.282 0 5.248-3.287 5.386-4.383.139-1.095-1.104-3.286-3.314-3.286h-8.841l-1.104 7.669zm-11.6 9.862L164.808.424h19.063c4.56 0 11.19 5.205 10.362 12.19-.829 6.985-3.04 7.396-4.56 8.492 2.35 2.053 4.698 5.34 3.731 11.504-.967 6.164-6.079 12.19-15.058 12.19h-19.753z"/>
    </g>
    <path d="M80.767 57.806H78.16v-2.857h-1.956v2.857h-2.608v-8.078h2.608v2.856h1.956v-2.856h2.607v8.078Zm3.548-1.279-.303 1.279H81.26l2.114-8.078h4.028l2.114 8.078h-2.752l-.298-1.279h-2.151Zm1.146-4.316h-.145l-.535 2.263h1.201l-.521-2.263Zm9.96 3.282.196 2.17c-.546.225-1.232.337-2.058.337-.826 0-1.488-.087-1.989-.258-.499-.173-.894-.444-1.182-.813a3.35 3.35 0 0 1-.601-1.306c-.112-.502-.168-1.119-.168-1.851 0-.733.056-1.35.168-1.851.115-.505.315-.945.601-1.317.556-.714 1.577-1.071 3.064-1.071.332 0 .721.032 1.168.097.447.064.78.145.997.24l-.391 1.976a7.521 7.521 0 0 0-1.551-.181c-.468 0-.794.044-.978.131-.183.085-.274.259-.274.516v3.389c.338.068.681.102 1.029.102.739 0 1.395-.103 1.969-.31Zm3.768-1.205h-.052v3.518H96.53v-8.078h2.607v3.296h.052c.018-.259.061-.465.13-.619l1.28-2.677h2.813l-1.956 3.969 2.021 4.109h-2.812l-1.346-2.895a1.895 1.895 0 0 1-.13-.623Zm4.746 3.375.363-2.132c.801.199 1.521.299 2.161.299.639 0 1.155-.026 1.546-.077v-.647L106.831 55c-1.061-.094-1.789-.343-2.184-.752-.397-.411-.596-1.017-.596-1.82 0-1.103.242-1.861.727-2.277.481-.412 1.299-.618 2.454-.618 1.158 0 2.201.108 3.129.323l-.326 2.069c-.807-.129-1.454-.194-1.942-.194-.487 0-.9.022-1.238.065v.632l.94.092c1.14.112 1.927.38 2.361.809.435.423.652 1.016.652 1.777 0 .542-.074 1.001-.224 1.375-.149.376-.324.661-.526.854-.205.194-.495.342-.87.444-.373.104-.7.168-.983.19-.283.021-.658.031-1.127.031-1.13 0-2.178-.112-3.143-.337Zm12.114-2.958h-2.021v-1.861h2.021v-2.005h1.877v2.005h2.034v1.861h-2.034v2.016h-1.877v-2.016Zm14.64 3.101h-2.608v-2.857h-1.956v2.857h-2.607v-8.078h2.607v2.856h1.956v-2.856h2.608v8.078Zm.912-4.034c0-1.472.278-2.545.833-3.223.556-.678 1.56-1.016 3.013-1.016 1.453 0 2.457.338 3.013 1.016.556.678.834 1.751.834 3.223 0 .732-.06 1.349-.177 1.851a3.4 3.4 0 0 1-.606 1.306c-.285.369-.681.64-1.187.813-.503.171-1.128.258-1.877.258-.748 0-1.373-.087-1.876-.258-.507-.173-.902-.444-1.188-.813a3.414 3.414 0 0 1-.605-1.306c-.118-.502-.177-1.119-.177-1.851Zm2.803-1.344v3.361h1.08c.358 0 .617-.04.778-.12.162-.083.242-.271.242-.563v-3.361h-1.094c-.348 0-.602.039-.764.12-.161.083-.242.27-.242.563Zm8.358 1.464-.158 3.914h-2.724l.493-8.078h3.404l1.02 4.108h.089l1.019-4.108h3.4l.498 8.078h-2.724l-.158-3.914h-.094l-.987 3.914h-1.997l-1.002-3.914h-.079Zm13.233-1.012v1.875h-2.608v.984h3.194v2.067h-5.802v-8.078h5.737l-.326 2.068h-2.803v1.084h2.608Zm6.374 4.926h-4.68v-8.078h4.224c.782 0 1.341.15 1.676.452.335.301.503.741.503 1.32 0 .576-.107 1.02-.321 1.334a1.418 1.418 0 0 1-.852.614v.078c1.052.182 1.578.893 1.578 2.133 0 .646-.174 1.167-.521 1.56-.348.393-.883.587-1.607.587Zm-1.057-3.217h-1.015v1.315h1.006c.363 0 .545-.218.545-.656 0-.44-.179-.659-.536-.659Zm-.196-3.089h-.819v1.2h.81c.329 0 .494-.199.494-.6 0-.4-.161-.6-.485-.6Zm9.992 3.62 1.406 2.686h-2.869l-1.071-2.404h-.558v2.404h-2.608v-8.078h4.107c1.869 0 2.803.942 2.803 2.829 0 1.293-.403 2.148-1.21 2.563Zm-2.492-3.324h-.6v1.615h.6c.314 0 .542-.032.685-.096.142-.065.214-.215.214-.448v-.527c0-.234-.072-.383-.214-.448-.143-.065-.371-.096-.685-.096Zm10.025 1.084v1.875h-2.607v.984h3.194v2.067h-5.802v-8.078h5.737l-.326 2.068h-2.803v1.084h2.607Zm8.396 1.358.628-4.51h2.724l-1.28 8.078h-3.399l-.601-2.972h-.158l-.587 2.972h-3.404l-1.276-8.078h2.724l.615 4.51h.079l.936-4.51h1.998l.922 4.51h.079Z" style="fill:#fff;white-space:pre"/>
</svg>
