<svg viewBox="0 0 470 113" xmlns="http://www.w3.org/2000/svg" xml:space="preserve" style="fill-rule:evenodd;clip-rule:evenodd;stroke-linejoin:round;stroke-miterlimit:2">
    <clipPath id="a">
        <path d="M.606.873h469.326v112H.606z"/>
    </clipPath>
    <g clip-path="url(#a)">
        <path d="m7.536 55.208 26.336-15.247H163.47l23.425-33.545h94.395l23.701 33.545h131.541l26.471 15.388v35.756l-28 16.218H35.534L7.536 91.105V55.208Zm429.131 57.665 33.265-19.269V52.851l-31.877-18.433H307.761L284.335.873H184.123l-23.564 33.545H32.348L.606 52.712v40.892l33.406 19.269h402.655Z" style="fill:#fff"/>
        <path d="M216.713 31.819a3.124 3.124 0 0 0 3.149 3.13h12.858v-3.916h-12.076v-1.097h9.516v-3.897h-13.427l-.02 5.78Zm.02-12.909c0-1.619 1.393-3.121 3.129-3.114h12.858v3.897h-12.076v1.096h9.516v3.951h-13.447l.02-5.83Zm85.901 50.16h40.751v16.216l-14.553 9.842h-44.98l14.901-9.982h26.334v-6.098h-40.752V63.175l15.043-10.185h44.908l-14.833 9.977h-26.819v6.103Zm46.436-16.08h18.295v42.138H349.07zm43.66 16.08h40.751v16.216l-14.558 9.842h-44.975l14.901-9.982h26.336v-6.098h-40.752V63.175l15.038-10.185h44.912l-14.834 9.977H392.73v6.103Z" style="fill:#fff"/>
        <path d="M244.697 85.146v-6.098h17.53l14.901-9.978h-32.431v-6.103h26.401l14.834-9.977h-43.593L226.4 62.764v32.364h44.355l14.969-9.982h-41.027Zm-128.075 0v-6.098h17.534l14.9-9.978h-32.434v-6.103h26.403l14.832-9.977h-43.594l-15.936 9.774v32.364h44.354l14.97-9.982h-41.029Zm86.353-4.018-22.732-14.14v28.14h-18.299V52.99h18.574l22.457 12.336V52.99h18.296v42.138h-18.296v-14ZM52.584 62.967v22.179h22.73v-6.098H56.742l14.832-9.978h22.039v16.634l-14.002 9.424H34.289V63.249L49.466 52.99h49.622l-14.762 9.977H52.584Zm166.819-52.425a7.905 7.905 0 0 0-7.904 7.903v13.832a7.903 7.903 0 0 0 7.904 7.902h13.321v-3.895h-12.99c-2.292 0-4.324-2.172-4.324-4.462V18.896c0-2.291 2.032-4.409 4.324-4.409h12.99v-3.95h-13.321v.005Zm25.219 20.598V19.693h12.702v-3.897h-13.415c-1.735-.007-3.129 1.495-3.129 3.114l-.016 12.909a3.121 3.121 0 0 0 3.145 3.13h8.183l-.021-8.979h-6.157v3.861h2.276v1.307h-3.568v.002Zm-36.89-20.635h-12.761c-5.376 0-9.736 4.359-9.736 9.735 0 5.378 4.36 9.632 9.736 9.586h3.888v1.314H185.32v3.811h13.098a4.462 4.462 0 0 0 4.461-4.457c0-2.462-1.999-4.425-4.461-4.425l-3.393-.014a5.785 5.785 0 1 1 0-11.568h12.716l-.009-3.982Z" style="fill:#fff"/>
        <path d="M207.732 19.588h-13.264v1.306l3.979.007c5.379 0 9.736 4.255 9.736 9.631 0 5.377-4.357 9.642-9.736 9.642l-13.127-.027v-3.873h13.098a5.784 5.784 0 0 0 5.785-5.783c0-3.193-2.59-5.75-5.785-5.75l-3.393-.012a4.46 4.46 0 1 1 0-8.919h12.716l-.009 3.778Zm64.431-4.459c-.158-.371-.213-.46-.64-.46-.429 0-.532.222-.695.593l-8.089 24.917 4.256.006 4.576-13.813 1.506 4.664h-3.021v3.931h8.596l-6.489-19.838Z" style="fill:#fff"/>
        <path d="M243.45 40.183a7.906 7.906 0 0 1-7.905-7.902V18.448a7.905 7.905 0 0 1 7.905-7.902h13.874v3.95h-13.539c-2.295 0-4.327 2.118-4.327 4.409v12.924c0 2.292 2.03 4.462 4.327 4.462h9.591V24.672h-7.458v-3.879h11.422v18.48l8.137-25.179a6.405 6.405 0 0 1 12.142.166l8.449 25.925h-16.012V36.29h10.402l-7.052-21.623c-.413-1.189-1.149-1.33-1.883-1.33-.768 0-1.477.315-1.877 1.401l-8.279 25.447H243.45v-.002Z" style="fill:#fff"/>
    </g>
</svg>
