<?xml version="1.0" encoding="UTF-8"?>
<svg width="470px" height="113px" viewBox="0 0 470 113" version="1.1" xmlns="http://www.w3.org/2000/svg" xmlns:xlink="http://www.w3.org/1999/xlink">
    <title>genesis</title>
    <defs>
        <polygon id="path-1" points="0 0 469.326 0 469.326 112 0 112"></polygon>
    </defs>
    <g id="Page-1" stroke="none" stroke-width="1" fill="none" fill-rule="evenodd" opacity="0.775851295">
        <g id="Sega-Genesis" transform="translate(-85.000000, -4.000000)">
            <g id="genesis" transform="translate(85.306141, 4.292771)">
                <mask id="mask-2" fill="white">
                    <use xlink:href="#path-1"></use>
                </mask>
                <g id="Path"></g>
                <g id="Group" mask="url(#mask-2)" fill="#FFFFFF">
                    <path d="M6.93,54.335 L33.266,39.088 L162.864,39.088 L186.289,5.543 L280.684,5.543 L304.385,39.088 L435.926,39.088 L462.397,54.476 L462.397,90.232 L434.397,106.45 L34.928,106.45 L6.93,90.232 L6.93,54.335 Z M436.061,112 L469.326,92.731 L469.326,51.978 L437.449,33.545 L307.155,33.545 L283.729,0 L183.517,0 L159.953,33.545 L31.742,33.545 L0,51.839 L0,92.731 L33.406,112 L436.061,112 L436.061,112 Z" id="Shape"></path>
                    <path d="M216.106994,30.946 C216.105372,31.7799256 216.43723,32.5798873 217.028687,33.1677759 C217.620144,33.7556644 218.4221,34.0826751 219.256,34.076 L232.114,34.076 L232.114,30.16 L220.038,30.16 L220.038,29.063 L229.554,29.063 L229.554,25.166 L216.127,25.166 L216.106994,30.946 L216.106994,30.946 Z M216.127,18.037 C216.127,16.418 217.52,14.916 219.256,14.9229756 L232.114,14.9229756 L232.114,18.82 L220.038,18.82 L220.038,19.916 L229.554,19.916 L229.554,23.867 L216.107,23.867 L216.127,18.037 L216.127,18.037 Z M302.028,68.197 L342.779,68.197 L342.779,84.413 L328.226,94.255 L283.246,94.255 L298.147,84.273 L324.481,84.273 L324.481,78.175 L283.729,78.175 L283.729,62.302 L298.772,52.117 L343.68,52.117 L328.847,62.094 L302.028,62.094 L302.028,68.197 L302.028,68.197 Z M348.464,52.117 L366.759,52.117 L366.759,94.255 L348.464,94.255 L348.464,52.117 Z M392.124,68.197 L432.875,68.197 L432.875,84.413 L418.317,94.255 L373.342,94.255 L388.243,84.273 L414.579,84.273 L414.579,78.175 L373.827,78.175 L373.827,62.302 L388.865,52.117 L433.777,52.117 L418.943,62.094 L392.124,62.094 L392.124,68.197 Z" id="Shape"></path>
                    <path d="M244.091,84.273 L244.091,78.175 L261.621,78.175 L276.522,68.197 L244.091,68.197 L244.091,62.094 L270.492,62.094 L285.326,52.117 L241.733,52.117 L225.794,61.891 L225.794,94.255 L270.149,94.255 L285.118,84.273 L244.091,84.273 Z M116.016,84.273 L116.016,78.175 L133.55,78.175 L148.45,68.197 L116.016,68.197 L116.016,62.094 L142.419,62.094 L157.251,52.117 L113.657,52.117 L97.721,61.891 L97.721,94.255 L142.075,94.255 L157.045,84.273 L116.016,84.273 L116.016,84.273 Z M202.369,80.255 L179.637,66.115 L179.637,94.255 L161.338,94.255 L161.338,52.117 L179.912,52.117 L202.369,64.453 L202.369,52.117 L220.665,52.117 L220.665,94.255 L202.369,94.255 L202.369,80.255 Z M51.978,62.094 L51.978,84.273 L74.708,84.273 L74.708,78.175 L56.136,78.175 L70.968,68.197 L93.007,68.197 L93.007,84.831 L79.005,94.255 L33.683,94.255 L33.683,62.376 L48.86,52.117 L98.482,52.117 L83.72,62.094 L51.978,62.094 Z M218.797,9.669 C214.43236,9.669552 210.894104,13.2073606 210.893,17.572 L210.893,31.404 C210.893265,33.5000059 211.726155,35.5100596 213.208442,36.991972 C214.69073,38.4738845 216.700994,39.3060001 218.797,39.3060001 L232.118,39.3060001 L232.118,35.411 L219.128,35.411 C216.836,35.411 214.804,33.239 214.804,30.949 L214.804,18.023 C214.804,15.732 216.836,13.614 219.128,13.614 L232.118,13.614 L232.118,9.664 L218.797,9.664 L218.797,9.669 L218.797,9.669 Z M244.016,30.267 L244.016,18.82 L256.718,18.82 L256.718,14.9229756 L243.303,14.9229756 C241.568,14.916 240.174,16.418 240.174,18.037 L240.157987,30.946 C240.155572,31.7794746 240.486623,32.5792942 241.077388,33.1672417 C241.668153,33.7551893 242.469547,34.0824129 243.303,34.0760925 L251.486,34.0760925 L251.465,25.097 L245.308,25.097 L245.308,28.958 L247.584,28.958 L247.584,30.265 L244.016,30.265 L244.016,30.267 L244.016,30.267 Z M207.126,9.632 L194.365,9.632 C188.989,9.632 184.629,13.991 184.629,19.367 C184.629,24.745 188.989,28.999 194.365,28.953 L198.253,28.953 L198.253,30.267 L184.714,30.267 L184.714,34.078 L197.812,34.078 C200.273953,34.0774498 202.270241,32.0829513 202.273,29.621 C202.273,27.159 200.274,25.196 197.812,25.196 L194.419,25.182 C192.326939,25.220904 190.37693,24.1270676 189.319507,22.3214957 C188.262085,20.5159239 188.262085,18.2800761 189.319507,16.4745043 C190.37693,14.6689324 192.326939,13.575096 194.419,13.614 L207.135,13.614 L207.126,9.632 L207.126,9.632 Z" id="Shape"></path>
                    <path d="M207.126,18.715 L193.862,18.715 L193.862,20.021 L197.841,20.028 C203.22,20.028 207.577,24.283 207.577,29.659 C207.577,35.036 203.22,39.301 197.841,39.301 L184.714,39.274 L184.714,35.401 L197.812,35.401 C199.346012,35.4012652 200.817301,34.7921356 201.902199,33.7076128 C202.987096,32.6230899 203.596735,31.1520122 203.597,29.618 C203.597,26.425 201.007,23.868 197.812,23.868 L194.419,23.856 C192.809859,23.880097 191.312531,23.0354307 190.500924,21.645751 C189.689317,20.2560713 189.689317,18.5369287 190.500924,17.147249 C191.312531,15.7575693 192.809859,14.912903 194.419,14.937 L207.135,14.937 L207.126,18.715 L207.126,18.715 Z M271.557,14.256 C271.399,13.885 271.344,13.796 270.917,13.796 C270.488,13.796 270.385,14.018 270.222,14.389 L262.133,39.306 L266.389,39.312 L270.965,25.499 L272.471,30.163 L269.45,30.163 L269.45,34.094 L278.046,34.094 L271.557,14.256 Z" id="Shape"></path>
                    <path d="M242.844,39.31 C238.479589,39.3094485 234.941208,35.7724106 234.939,31.408 L234.939,17.575 C234.940656,13.2103607 238.47936,9.67299969 242.844,9.673 L256.718,9.673 L256.718,13.623 L243.179,13.623 C240.884,13.623 238.852,15.741 238.852,18.032 L238.852,30.956 C238.852,33.248 240.882,35.418 243.179,35.418 L252.77,35.418 L252.77,23.799 L245.312,23.799 L245.312,19.92 L256.734,19.92 L256.734,38.4 L264.871,13.221 C265.782738,10.6250547 268.250534,8.90142662 271.001676,8.93903901 C273.752818,8.97665139 276.172571,10.7670998 277.013,13.387 L285.462,39.312 L269.45,39.312 L269.45,35.417 L279.852,35.417 L272.8,13.794 C272.387,12.605 271.651,12.464 270.917,12.464 C270.149,12.464 269.44,12.779 269.04,13.865 L260.761,39.312 L242.844,39.312 L242.844,39.31 L242.844,39.31 Z" id="Path"></path>
                </g>
            </g>
        </g>
    </g>
</svg>