<?xml version="1.0" encoding="UTF-8" standalone="no"?>
<!DOCTYPE svg PUBLIC "-//W3C//DTD SVG 1.1//EN" "http://www.w3.org/Graphics/SVG/1.1/DTD/svg11.dtd">
<svg width="100%" height="100%" viewBox="0 0 470 112" version="1.1" xmlns="http://www.w3.org/2000/svg" xmlns:xlink="http://www.w3.org/1999/xlink" xml:space="preserve" xmlns:serif="http://www.serif.com/" style="fill-rule:evenodd;clip-rule:evenodd;stroke-linejoin:round;stroke-miterlimit:2;">
    <g transform="matrix(1,0,0,1,-85,-4)">
        <g transform="matrix(1.77775,0,0,1.77775,-285.331,-704.897)">
            <g>
                <g>
                    <path id="polygon9" d="M212.402,429.325L227.216,420.748L300.116,420.748L313.293,401.879L366.391,401.879L379.723,420.748L453.716,420.748L468.606,429.404L468.606,449.517L452.856,458.64L228.151,458.64L212.402,449.517L212.402,429.325ZM453.792,461.762L472.504,450.923L472.504,427.999L454.573,417.63L381.281,417.63L368.104,398.761L311.734,398.761L298.479,417.63L226.359,417.63L208.504,427.921L208.504,450.923L227.295,461.762L453.792,461.762Z" style="fill:white;"/>
                    <path id="path11" d="M330.066,416.168C330.066,417.156 330.871,417.939 331.837,417.929L339.07,417.929L339.07,415.726L332.277,415.726L332.277,415.109L337.63,415.109L337.63,412.917L330.077,412.917L330.066,416.168Z" style="fill:white;"/>
                    <path id="path13" d="M330.077,408.907C330.077,407.996 330.861,407.151 331.837,407.155L339.07,407.155L339.07,409.347L332.277,409.347L332.277,409.964L337.63,409.964L337.63,412.186L330.066,412.186L330.077,408.907Z" style="fill:white;"/>
                    <path id="polygon15" d="M378.397,437.122L401.32,437.122L401.32,446.244L393.134,451.78L367.832,451.78L376.214,446.165L391.027,446.165L391.027,442.735L368.104,442.735L368.104,433.806L376.566,428.077L401.827,428.077L393.483,433.689L378.397,433.689L378.397,437.122Z" style="fill:white;"/>
                    <rect id="polygon17" x="404.518" y="428.077" width="10.291" height="23.703" style="fill:white;"/>
                    <path id="polygon19" d="M429.077,437.122L452,437.122L452,446.244L443.811,451.78L418.512,451.78L426.894,446.165L441.708,446.165L441.708,442.735L418.785,442.735L418.785,433.806L427.244,428.077L452.507,428.077L444.163,433.689L429.077,433.689L429.077,437.122Z" style="fill:white;"/>
                    <path id="polygon21" d="M345.807,446.165L345.807,442.735L355.668,442.735L364.05,437.122L345.807,437.122L345.807,433.689L360.658,433.689L369.002,428.077L344.481,428.077L335.515,433.575L335.515,451.78L360.465,451.78L368.885,446.165L345.807,446.165Z" style="fill:white;"/>
                    <path id="polygon23" d="M273.764,446.165L273.764,442.735L283.627,442.735L292.008,437.122L273.764,437.122L273.764,433.689L288.616,433.689L296.959,428.077L272.437,428.077L263.473,433.575L263.473,451.78L288.422,451.78L296.843,446.165L273.764,446.165Z" style="fill:white;"/>
                    <path id="polygon25" d="M322.338,443.905L309.551,435.951L309.551,451.78L299.258,451.78L299.258,428.077L309.706,428.077L322.338,435.016L322.338,428.077L332.63,428.077L332.63,451.78L322.338,451.78L322.338,443.905Z" style="fill:white;"/>
                    <path id="polygon27" d="M237.742,433.689L237.742,446.165L250.528,446.165L250.528,442.735L240.081,442.735L248.424,437.122L260.821,437.122L260.821,446.479L252.945,451.78L227.451,451.78L227.451,433.848L235.988,428.077L263.901,428.077L255.597,433.689L237.742,433.689Z" style="fill:white;"/>
                    <path id="path29" d="M331.579,404.2C329.124,404.2 327.133,406.191 327.133,408.645L327.133,416.426C327.133,418.881 329.124,420.871 331.579,420.871L339.072,420.871L339.072,418.68L331.765,418.68C330.476,418.68 329.333,417.458 329.333,416.17L329.333,408.899C329.333,407.61 330.476,406.419 331.765,406.419L339.072,406.419L339.072,404.197L331.579,404.197L331.579,404.2Z" style="fill:white;"/>
                    <path id="path31" d="M345.765,415.786L345.765,409.347L352.91,409.347L352.91,407.155L345.364,407.155C344.388,407.151 343.604,407.996 343.604,408.907L343.595,416.168C343.595,417.156 344.398,417.939 345.364,417.929L349.967,417.929L349.955,412.878L346.492,412.878L346.492,415.05L347.772,415.05L347.772,415.785L345.765,415.785L345.765,415.786Z" style="fill:white;"/>
                    <path id="path33" d="M325.014,404.179L317.836,404.179C314.812,404.179 312.359,406.631 312.359,409.655C312.359,412.68 314.812,415.073 317.836,415.047L320.023,415.047L320.023,415.786L312.407,415.786L312.407,417.93L319.775,417.93C321.16,417.93 322.284,416.806 322.284,415.423C322.284,414.038 321.16,412.934 319.775,412.934L317.866,412.926C316.069,412.926 314.612,411.469 314.612,409.673C314.612,407.876 316.068,406.419 317.866,406.419L325.019,406.419L325.014,404.179Z" style="fill:white;"/>
                    <path id="path35" d="M325.014,409.288L317.553,409.288L317.553,410.023L319.791,410.027C322.817,410.027 325.268,412.42 325.268,415.444C325.268,418.469 322.817,420.868 319.791,420.868L312.407,420.853L312.407,418.674L319.775,418.674C321.572,418.674 323.029,417.218 323.029,415.421C323.029,413.625 321.572,412.187 319.775,412.187L317.866,412.18C316.481,412.18 315.357,411.056 315.357,409.671C315.357,408.286 316.481,407.163 317.866,407.163L325.019,407.163L325.014,409.288Z" style="fill:white;"/>
                    <path id="path37" d="M361.257,406.78C361.168,406.571 361.137,406.521 360.897,406.521C360.656,406.521 360.598,406.646 360.506,406.855L355.956,420.871L358.35,420.874L360.924,413.104L361.771,415.728L360.072,415.728L360.072,417.939L364.907,417.939L361.257,406.78Z" style="fill:white;"/>
                    <path id="path39" d="M345.106,420.873C342.651,420.873 340.659,418.882 340.659,416.428L340.659,408.647C340.659,406.192 342.651,404.202 345.106,404.202L352.91,404.202L352.91,406.424L345.294,406.424C344.003,406.424 342.86,407.615 342.86,408.904L342.86,416.174C342.86,417.463 344.002,418.684 345.294,418.684L350.689,418.684L350.689,412.148L346.494,412.148L346.494,409.966L352.919,409.966L352.919,420.361L357.496,406.198C357.988,404.795 359.324,403.789 360.897,403.789C362.501,403.789 363.863,404.839 364.326,406.291L369.079,420.874L360.072,420.874L360.072,418.683L365.923,418.683L361.956,406.52C361.724,405.851 361.31,405.772 360.897,405.772C360.465,405.772 360.066,405.949 359.841,406.56L355.184,420.874L345.106,420.874L345.106,420.873Z" style="fill:white;"/>
                </g>
            </g>
        </g>
    </g>
</svg>
