<?xml version="1.0" encoding="UTF-8"?>
<svg width="477px" height="112px" viewBox="0 0 477 112" version="1.1" xmlns="http://www.w3.org/2000/svg" xmlns:xlink="http://www.w3.org/1999/xlink">
    <title>genh</title>
    <g id="Page-1" stroke="none" stroke-width="1" fill="none" fill-rule="evenodd" opacity="0.78">
        <g id="Sega-Genesis-Hacks" transform="translate(-81.000000, -4.000000)" fill-rule="nonzero">
            <g id="genh" transform="translate(81.000000, 4.000000)">
                <path d="M264.674191,3.90182774 L257.929031,24.3365735 L261.259856,24.3365735 L268.016947,4.60434629 C268.262703,3.70246436 269.002356,3.04266653 269.873238,3.04266653 C270.753664,3.04266653 271.493317,3.70246436 271.739073,4.60434629 L277.451105,21.2962821 L268.489371,21.2962821 L268.489371,24.3365735 L281.82699,24.3365735 L275.081829,3.90182774 C274.415544,1.5907357 272.290254,-0.00134780241 269.873238,8.56180577e-07 C267.459133,0.00102590422 265.337875,1.59300653 264.674191,3.90182774 Z M268.622986,16.5922558 L269.804045,13.1057701 L271.03521,16.5922558 L268.622986,16.5922558 Z M268.136246,6.58611316 L262.094949,24.3365735 L265.988865,24.3365735 L268.486985,16.9791157 L268.486985,20.4584812 L276.332082,20.4584812 L271.674652,6.58611316 C271.436054,5.81476677 270.73219,3.59328918 269.90187,3.59328918 C269.069163,3.59328918 268.362914,5.8123934 268.136246,6.58611316 Z M246.812758,3.87334725 L258.484964,3.87334725 L258.484964,0.552997737 L246.533598,0.552997737 C243.310141,0.552997737 240.697495,3.15896183 240.697495,6.36538942 L240.697495,18.5336753 C240.697495,21.7398383 243.310407,24.3389469 246.533598,24.3389469 L258.484964,24.3389469 L258.484964,8.84556472 L249.036489,8.84556472 L249.036489,11.8882295 L255.14698,11.8882295 L255.14698,21.0138506 L246.812758,21.0138506 C246.075919,21.0146916 245.369015,20.7239022 244.847991,20.2056305 C244.326967,19.6873588 244.034633,18.9841902 244.035479,18.2512439 L244.035479,6.63358063 C244.035478,5.90110982 244.32816,5.19867375 244.849069,4.6809613 C245.369979,4.16324885 246.076397,3.87271744 246.812758,3.87334725 Z M249.036489,12.7189103 L249.036489,16.0416332 L250.978676,16.0416332 L250.978676,16.8699405 L249.036489,16.8699405 C248.576211,16.8699424 248.202712,16.4994783 248.201397,16.0416332 L248.201397,8.8479381 C248.201397,8.38987701 248.575996,8.01725737 249.036489,8.01725737 L258.484964,8.01725737 L258.484964,4.70165275 L247.64785,4.70165275 C246.110797,4.69990569 244.863222,5.93770243 244.861027,7.46663472 L244.861027,17.4229365 C244.864537,18.9509414 246.111727,20.1872936 247.64785,20.1855451 L254.319045,20.1855451 L254.319045,12.7189103 L249.036489,12.7189103 L249.036489,12.7189103 Z M227.63665,3.87334725 L239.308856,3.87334725 L239.308856,0.552997737 L227.355104,0.552997737 C224.131647,0.552997737 221.521387,3.15896183 221.521387,6.36538942 L221.521387,18.398393 C221.521387,21.6024472 224.131647,24.2084113 227.355104,24.2084113 L239.308856,24.2084113 L239.308856,20.8880618 L227.63665,20.8880618 C226.102233,20.8884989 224.857863,19.6517655 224.856985,18.1254551 L224.856985,6.635954 C224.85874,5.11000551 226.102596,3.87378274 227.63665,3.87334725 Z M236.803578,11.8882295 L236.803578,8.8479381 L229.022903,8.8479381 C229.022903,8.38987701 229.397502,8.01725737 229.857995,8.01725737 L239.30647,8.01725737 L239.30647,4.7016546 L228.469356,4.7016546 C226.935689,4.70340135 225.693584,5.94106946 225.694463,7.46663472 L225.694463,11.8882295 L236.803578,11.8882295 L236.803578,11.8882295 Z M236.803578,12.9989683 L236.803578,16.0392598 L229.022903,16.0392598 C229.022903,16.4973209 229.397502,16.8699405 229.857995,16.8699405 L239.30647,16.8699405 L239.30647,20.1831699 L228.469356,20.1831699 C227.732711,20.1827506 227.026428,19.8911548 226.505989,19.3725748 C225.98555,18.8539948 225.693619,18.1509429 225.694461,17.4181898 L225.694461,12.996595 L236.803578,12.9989683 L236.803578,12.9989683 Z M208.243418,17.1428785 L201.233413,17.1428785 L201.233413,20.1855433 L212.070527,20.1855433 C214.129567,20.129008 215.758217,18.4326215 215.720248,16.3840267 C215.682279,14.3354318 213.991876,12.6999125 211.93214,12.7189103 L207.716116,12.7189103 C206.012528,12.0733527 204.564239,10.3906309 204.564239,8.43022436 C204.564239,5.90970171 206.897726,3.86860051 209.429249,3.86860051 L219.855974,3.86860051 L219.855974,0.550624364 L209.011703,0.550624364 C204.716942,0.550624364 201.233413,4.02286978 201.233413,8.29494207 C201.233413,12.5741345 204.996101,16.0392598 209.290862,16.0392598 L209.290862,16.0036592 L209.312336,16.0392598 L211.796139,16.0392598 C212.094345,16.0504934 212.330269,16.2942261 212.330269,16.5910691 C212.330269,16.8879122 212.094345,17.1316448 211.796139,17.1428785 L208.243418,17.1428785 L208.243418,17.1428785 Z M212.841198,7.74431942 L219.85836,7.74431942 L219.85836,4.7016546 L209.014089,4.7016546 C206.997201,4.77654704 205.401168,6.42496788 205.401717,8.43259773 C205.401084,9.42418681 205.796803,10.375344 206.501686,11.0765035 C207.206569,11.777663 208.162778,12.1712912 209.159633,12.170661 L213.375657,12.170661 C215.081632,12.8209653 216.520376,14.496567 216.520376,16.4569735 C216.520376,18.9774962 214.189276,21.0185974 211.655367,21.0185974 L201.235799,21.0185974 L201.235799,24.3389469 L212.072913,24.3389469 C216.37006,24.3389469 219.85836,20.8738216 219.85836,16.5946292 C219.85836,12.3225569 216.095672,8.85031147 211.798525,8.85031147 L211.798525,8.89303219 L211.77228,8.85031147 L209.295634,8.85031147 C209.148088,8.85201468 209.006051,8.79462705 208.901489,8.69106361 C208.796926,8.58750017 208.738623,8.44646172 208.739701,8.29968882 C208.741449,7.99538548 208.98971,7.74949593 209.295634,7.74906617 L212.841198,7.74431942 Z M218.536528,35.847435 L218.536528,84.924052 L201.922961,84.924052 L201.922961,66.7938519 L170.084466,48.7704536 L170.084466,84.924052 L153.470899,84.924052 L153.470899,35.847435 L170.7764,35.847435 L201.922961,53.4744799 L201.922961,35.847435 L218.536528,35.847435 Z M381.730289,35.6100976 L399,35.6100976 L399,85 L381.730289,85 L381.730289,35.6100976 Z M275.511305,45.4880781 L247.139637,45.4880781 L247.139637,55.3660586 L281.185161,55.3660586 L264.869842,65.244039 L247.139637,65.244039 L247.139637,75.1220195 L293.243896,75.1220195 L276.928576,85 L230.115681,85 L230.115681,46.9002353 L247.139637,35.6100976 L291.824239,35.6100976 L275.511305,45.4880781 Z M124.664982,45.6732012 L96.4531744,45.6732012 L96.4531744,55.4918474 L130.307821,55.4918474 L114.085554,65.3176136 L96.4531744,65.3176136 L96.4531744,75.1386331 L142.299748,75.1386331 L126.075096,84.962026 L79.5246581,84.962026 L79.5246581,47.075865 L96.4531744,35.847435 L140.889635,35.847435 L124.664982,45.6732012 Z M0,47.0782383 L16.9332883,35.847435 L68.4417887,35.847435 L52.212364,45.677948 L16.9332883,45.677948 L16.9332883,75.1528734 L48.685888,75.1528734 L48.685888,63.2219248 L28.9299874,63.2219248 L45.1570261,53.3961586 L65.6215623,53.3961586 L65.6215623,73.7502096 L48.685888,84.981013 L0,84.981013 L0,47.0782383 Z M371.177107,74.9796171 L354.625575,85 L303.534621,85 L320.086152,74.9796171 L352.466264,74.9796171 L352.466264,64.9592342 L303.534621,64.9592342 L303.534621,45.6328539 L320.086152,35.6100976 L371.897672,35.6100976 L355.34614,45.6328539 L321.524897,45.6328539 L321.524897,54.936478 L371.177107,54.936478 L371.177107,74.9796171 Z" id="Shape" fill="#FFFDFD"></path>
                <polygon id="Path" fill="#FFFDFD" points="457.675858 74.8558385 457.675858 64.7116771 409 64.7116771 409 45.1465642 425.464207 35 477 35 460.538166 45.1465642 426.895361 45.1465642 426.895361 54.5651129 476.28561 54.5651129 476.28561 74.8558385 459.821402 85 409 85 425.464207 74.8558385"></polygon>
                <path d="M151.218523,111.656474 L146.775424,111.656474 L146.775424,106.594578 L143.443099,106.594578 L143.443099,111.656474 L139,111.656474 L139,97.3435256 L143.443099,97.3435256 L143.443099,102.407279 L146.775424,102.407279 L146.775424,97.3435256 L151.218523,97.3435256 L151.218523,111.656474 L151.218523,111.656474 Z M157.264673,109.391062 L156.748956,111.656474 L152.058817,111.656474 L155.661623,97.3435256 L162.524624,97.3435256 L166.12743,111.656474 L161.437291,111.656474 L160.93059,109.391062 L157.264673,109.391062 Z M159.215741,101.742511 L158.970505,101.742511 L158.058083,105.751547 L160.104722,105.751547 L159.215741,101.742511 L159.215741,101.742511 Z M176.187515,107.560163 L176.521108,111.403937 C175.590654,111.801312 174.422177,112 173.013873,112 C171.607372,112 170.478565,111.847735 169.625649,111.543204 C168.774536,111.236816 168.103743,110.75588 167.611468,110.102253 C167.11292,109.415563 166.763616,108.626492 166.587247,107.788562 C166.39791,106.899109 166.302341,105.807254 166.302341,104.509284 C166.302341,103.209458 166.39791,102.117603 166.587247,101.228151 C166.783797,100.334984 167.124602,99.5569448 167.611468,98.897747 C168.558151,97.6313444 170.298245,97 172.831749,97 C173.397956,97 174.061536,97.0575638 174.822488,97.1726913 C175.585245,97.2859619 176.151451,97.4270859 176.521108,97.5979203 L175.853922,101.098168 C174.986753,100.8961 174.101263,100.789043 173.212226,100.778782 C172.415209,100.778782 171.859821,100.854915 171.546063,101.00718 C171.234109,101.161302 171.079033,101.465833 171.079033,101.924486 L171.079033,107.927829 C171.656059,108.04667 172.240298,108.107948 172.831749,108.107948 C174.090387,108.107948 175.210178,107.924115 176.187515,107.560163 L176.187515,107.560163 Z M182.606928,105.422877 L182.518571,105.422877 L182.518571,111.656474 L178.075472,111.656474 L178.075472,97.3435256 L182.518571,97.3435256 L182.518571,103.183461 L182.606928,103.183461 C182.637583,102.724808 182.711514,102.360857 182.828723,102.087893 L185.010602,97.3435256 L189.803523,97.3435256 L186.471199,104.377445 L189.913519,111.656474 L185.122401,111.656474 L182.828723,106.52773 C182.695426,106.174775 182.620458,105.801328 182.606928,105.422877 L182.606928,105.422877 Z M190.694307,111.403937 L191.312806,107.625155 C192.677833,107.977965 193.904013,108.156227 194.994953,108.156227 C196.084089,108.156227 196.96225,108.109804 197.627633,108.01696 L197.627633,106.871255 L195.629681,106.683709 C193.819263,106.520302 192.58046,106.076504 191.907864,105.350458 C191.231662,104.624412 190.892659,103.551127 190.892659,102.128745 C190.892659,100.177148 191.305594,98.8327556 192.129659,98.0974251 C192.950117,97.3658084 194.343996,97 196.311293,97 C198.284,97 200.061961,97.1912602 201.643373,97.5719237 L201.087986,101.237435 C199.712139,101.00718 198.610381,100.893909 197.779103,100.893909 C196.947825,100.893909 196.244575,100.931047 195.669352,101.00718 L195.669352,102.128745 L197.270599,102.292152 C199.212651,102.488982 200.554237,102.964348 201.293551,103.723818 C202.034669,104.47586 202.404326,105.525006 202.404326,106.871255 C202.404326,107.83127 202.278101,108.64459 202.023849,109.309359 C201.769597,109.974127 201.470265,110.479203 201.127656,110.820872 C200.777834,111.166254 200.283756,111.428076 199.643618,111.608195 C199.008889,111.793885 198.451699,111.903441 197.970243,111.942436 C197.488787,111.981431 196.848649,112 196.049828,112 C194.124004,112 192.338831,111.801312 190.694307,111.403937 L190.694307,111.403937 Z M211.333802,106.160064 L207.891481,106.160064 L207.891481,102.864075 L211.333802,102.864075 L211.333802,99.3155484 L214.532689,99.3155484 L214.532689,102.864075 L217.998451,102.864075 L217.998451,106.160064 L214.532689,106.160064 L214.532689,109.734588 L211.333802,109.734588 L211.333802,106.160064 L211.333802,106.160064 Z M236.279352,111.656474 L231.836253,111.656474 L231.836253,106.594578 L228.503928,106.594578 L228.503928,111.656474 L224.060829,111.656474 L224.060829,97.3435256 L228.503928,97.3435256 L228.503928,102.407279 L231.836253,102.407279 L231.836253,97.3435256 L236.279352,97.3435256 L236.279352,111.656474 Z M237.833715,104.509284 C237.833715,101.902204 238.306155,100.000743 239.252838,98.7993315 C240.199522,97.5997772 241.910764,97 244.386566,97 C246.862367,97 248.57361,97.5997772 249.520293,98.7993315 C250.466976,100.000743 250.939416,101.902204 250.939416,104.509284 C250.939416,105.807254 250.838436,106.899109 250.638281,107.788562 C250.457884,108.626454 250.106274,109.415178 249.606847,110.102253 C249.119981,110.75588 248.445582,111.236816 247.58365,111.543204 C246.727127,111.847735 245.661432,112 244.386566,112 C243.111699,112 242.046004,111.847735 241.189482,111.543204 C240.325746,111.236816 239.651347,110.75588 239.166285,110.102253 C238.666857,109.415178 238.315247,108.626454 238.134851,107.788562 C237.932892,106.899109 237.833715,105.807254 237.833715,104.509284 L237.833715,104.509284 Z M242.608605,102.128745 L242.608605,108.081951 L244.449678,108.081951 C245.059161,108.081951 245.499144,108.011389 245.775034,107.870265 C246.050925,107.72357 246.187968,107.391186 246.187968,106.871255 L246.187968,100.918049 L244.323453,100.918049 C243.730199,100.918049 243.297429,100.988611 243.021539,101.129735 C242.745648,101.278287 242.608605,101.610671 242.608605,102.128745 Z M256.850325,104.720971 L256.579844,111.656474 L251.938392,111.656474 L252.780489,97.3435256 L258.579599,97.3435256 L260.31789,104.622555 L260.467556,104.622555 L262.205846,97.3435256 L267.997744,97.3435256 L268.847054,111.656474 L264.205602,111.656474 L263.935121,104.720971 L263.776439,104.720971 L262.094048,111.656474 L258.691398,111.656474 L256.985565,104.720971 L256.850325,104.720971 Z M279.395808,102.929067 L279.395808,106.251052 L274.952709,106.251052 L274.952709,107.99282 L280.396588,107.99282 L280.396588,111.656474 L270.50961,111.656474 L270.50961,97.3435256 L280.284789,97.3435256 L279.729401,101.00718 L274.952709,101.00718 L274.952709,102.929067 L279.395808,102.929067 Z M290.258321,111.656474 L282.284544,111.656474 L282.284544,97.3435256 L289.479336,97.3435256 C290.813708,97.3435256 291.765801,97.6109185 292.335614,98.1457044 C292.90723,98.6804902 293.19394,99.4585293 293.19394,100.485392 C293.19394,101.502971 293.010013,102.292152 292.645765,102.847363 C292.315238,103.388646 291.795699,103.77877 291.194184,103.937361 L291.194184,104.074771 C292.986571,104.396014 293.882764,105.656846 293.882764,107.853553 C293.882764,108.9974 293.587039,109.920277 292.995587,110.616613 C292.402332,111.311092 291.48991,111.656474 290.258321,111.656474 L290.258321,111.656474 Z M288.456918,105.955806 L286.727643,105.955806 L286.727643,108.286209 L288.440689,108.286209 C289.059189,108.286209 289.36934,107.899975 289.36934,107.12565 C289.36934,106.345754 289.064598,105.955806 288.456918,105.955806 L288.456918,105.955806 Z M288.123325,100.485392 L286.727643,100.485392 L286.727643,102.611538 L288.107096,102.611538 C288.667893,102.611538 288.949193,102.256871 288.949193,101.547537 C288.949193,100.838203 288.673303,100.485392 288.123325,100.485392 Z M305.147392,106.895395 L307.542049,111.656474 L302.655361,111.656474 L300.830517,107.396757 L299.878424,107.396757 L299.878424,111.656474 L295.435325,111.656474 L295.435325,97.3435256 L302.433567,97.3435256 C305.616225,97.3435256 307.210259,99.0147314 307.210259,102.357143 C307.210259,104.646695 306.521435,106.160064 305.147392,106.895395 L305.147392,106.895395 Z M300.902645,101.00718 L299.878424,101.00718 L299.878424,103.870513 L300.902645,103.870513 C301.436394,103.870513 301.824083,103.814806 302.067516,103.699678 C302.310949,103.582694 302.433567,103.319015 302.433567,102.904927 L302.433567,101.974622 C302.433567,101.556821 302.310949,101.293142 302.067516,101.179871 C301.824083,101.064744 301.436394,101.00718 300.902645,101.00718 L300.902645,101.00718 Z M317.982611,102.929067 L317.982611,106.251052 L313.539512,106.251052 L313.539512,107.99282 L318.983391,107.99282 L318.983391,111.656474 L309.096413,111.656474 L309.096413,97.3435256 L318.871592,97.3435256 L318.316204,101.00718 L313.539512,101.00718 L313.539512,102.929067 L317.982611,102.929067 Z M332.287444,105.333746 L333.358548,97.3435256 L338,97.3435256 L335.818121,111.656474 L330.026224,111.656474 L329.002003,106.390319 L328.733325,106.390319 L327.732546,111.656474 L321.933435,111.656474 L319.758769,97.3435256 L324.400221,97.3435256 L325.447884,105.333746 L325.583124,105.333746 L327.177158,97.3435256 L330.581611,97.3435256 L332.152203,105.333746 L332.287444,105.333746 L332.287444,105.333746 Z" id="Shape" fill="#FFFFFF"></path>
            </g>
        </g>
    </g>
</svg>