<svg viewBox="0 0 264 62" xmlns="http://www.w3.org/2000/svg">
    <path d="m332.787 4.932-8.481 25.83h4.188L336.99 5.82c.309-1.14 1.239-1.974 2.334-1.974 1.107 0 2.037.834 2.346 1.974l7.182 21.099h-11.268v3.843h16.77l-8.481-25.83A6.809 6.809 0 0 0 339.324 0a6.802 6.802 0 0 0-6.537 4.932Zm4.965 16.041 1.485-4.407 1.548 4.407h-3.033Zm-.612-12.648-7.596 22.437h4.896l3.141-9.3v4.398h9.864l-5.856-17.535c-.3-.975-1.185-3.783-2.229-3.783-1.047 0-1.935 2.805-2.22 3.783Zm-26.811-3.429h14.676V.699h-15.027c-4.053 0-7.338 3.294-7.338 7.347v15.381a7.338 7.338 0 0 0 7.338 7.338h15.027V11.181h-11.88v3.846h7.683v11.535h-10.479a3.488 3.488 0 0 1-3.492-3.492V8.385a3.489 3.489 0 0 1 3.492-3.489Zm2.796 11.181v4.2h2.442v1.047h-2.442a1.05 1.05 0 0 1-1.05-1.047v-9.093c0-.579.471-1.05 1.05-1.05h11.88V5.943h-13.626a3.5 3.5 0 0 0-3.504 3.495v12.585a3.5 3.5 0 0 0 3.504 3.492h8.388v-9.438h-6.642ZM286.218 4.896h14.676V.699h-15.03c-4.053 0-7.335 3.294-7.335 7.347v15.21c0 4.05 3.282 7.344 7.335 7.344h15.03v-4.197h-14.676a3.494 3.494 0 0 1-3.495-3.492V8.388a3.496 3.496 0 0 1 3.495-3.492Zm11.526 10.131v-3.843h-9.783c0-.579.471-1.05 1.05-1.05h11.88V5.943h-13.626a3.493 3.493 0 0 0-3.489 3.495v5.589h13.968Zm0 1.404v3.843h-9.783c0 .579.471 1.05 1.05 1.05h11.88v4.188h-13.626a3.491 3.491 0 0 1-3.489-3.495v-5.589l13.968.003Zm-35.91 5.238h-8.814v3.846h13.626a4.72 4.72 0 0 0-.174-9.438h-5.301c-2.142-.816-3.963-2.943-3.963-5.421 0-3.186 2.934-5.766 6.117-5.766h13.11V.696H262.8c-5.4 0-9.78 4.389-9.78 9.789 0 5.409 4.731 9.789 10.131 9.789v-.045l.027.045h3.123a.698.698 0 0 1 0 1.395h-4.467Zm5.781-11.88h8.823V5.943h-13.635a4.718 4.718 0 0 0-4.542 4.716 4.722 4.722 0 0 0 4.725 4.725h5.301c2.145.822 3.954 2.94 3.954 5.418 0 3.186-2.931 5.766-6.117 5.766h-13.101v4.197h13.626c5.403 0 9.789-4.38 9.789-9.789 0-5.4-4.731-9.789-10.134-9.789v.054l-.033-.054h-3.114a.691.691 0 0 1-.699-.696.7.7 0 0 1 .699-.696l4.458-.006Zm7.161 35.523v62.034h-20.889V84.429l-40.032-22.782v45.699h-20.889V45.312h21.759l39.162 22.281V45.312zm205.191-.3h21.714v62.43h-21.714zM346.413 57.498H310.74v12.486h42.807L333.033 82.47H310.74v12.486h57.969l-20.514 12.486h-58.86V59.283l21.405-14.271h56.184zm-189.666.234h-35.472v12.411h42.567l-20.397 12.42h-22.17v12.414h57.645l-20.4 12.417H99.99V59.505l21.285-14.193h55.872zM0 59.508l21.291-14.196h64.764L65.649 57.738H21.291v37.257h39.924V79.914h-24.84l20.403-12.42h25.731v25.728l-21.294 14.196H0zm466.698 35.268-20.811 12.666h-64.239l20.811-12.666h40.713V82.11h-61.524V57.681l20.811-12.669h65.145l-20.811 12.669h-42.525v11.76h62.43z" style="fill-opacity:1;fill:#fffdfd" transform="scale(.44 .44044)"/>
    <path style="fill-opacity:1;fill:#fffdfd" d="M443.172 94.776V82.11h-61.524V57.681l20.811-12.669h65.145l-20.811 12.669h-42.525v11.76h62.43v25.335l-20.811 12.666h-64.239l20.811-12.666zm155.925 0-20.811 12.666h-64.239l20.811-12.666h40.716V82.11h-61.527V57.681l20.811-12.669H600l-20.808 12.669h-42.525v11.76h62.43z" transform="scale(.44 .44044)"/>
    <path style="fill-opacity:1;fill:#fffdfd" d="M575.574 94.776V82.11h-61.527V57.681l20.811-12.669H600l-20.808 12.669h-42.525v11.76h62.43v25.335l-20.811 12.666h-64.239l20.811-12.666z" transform="scale(.44 .44044)"/>
    <path d="M83.596 61.815h-2.464v-2.726h-1.848v2.726H76.82v-7.708h2.464v2.727h1.848v-2.727h2.464v7.708Zm3.353-1.22-.286 1.22h-2.601l1.998-7.708h3.806l1.998 7.708h-2.601l-.281-1.22h-2.033Zm1.082-4.119h-.136l-.506 2.159h1.135l-.493-2.159Zm9.412 3.133.185 2.07c-.516.214-1.164.321-1.945.321-.78 0-1.406-.082-1.879-.246-.472-.165-.844-.424-1.117-.776a3.22 3.22 0 0 1-.568-1.246c-.105-.479-.158-1.067-.158-1.766 0-.7.053-1.288.158-1.767.109-.481.298-.9.568-1.255.525-.682 1.49-1.022 2.895-1.022.314 0 .682.031 1.104.093.423.061.737.137.942.229l-.37 1.885a6.993 6.993 0 0 0-1.465-.172c-.442 0-.75.041-.924.123-.173.083-.259.247-.259.494v3.233c.32.064.644.097.972.097.698 0 1.319-.099 1.861-.295Zm3.56-1.151h-.049v3.357H98.49v-7.708h2.464v3.145h.049c.017-.247.058-.443.123-.59l1.21-2.555h2.658l-1.848 3.788 1.909 3.92h-2.657l-1.272-2.762a1.827 1.827 0 0 1-.123-.595Zm4.485 3.221.343-2.035c.757.19 1.437.286 2.042.286.604 0 1.091-.025 1.46-.075v-.617l-1.108-.101c-1.004-.088-1.691-.327-2.064-.718-.375-.391-.563-.969-.563-1.735 0-1.051.229-1.775.686-2.171.455-.394 1.228-.591 2.319-.591 1.094 0 2.08.103 2.957.308l-.308 1.974c-.763-.124-1.374-.185-1.835-.185-.461 0-.851.02-1.17.061v.604l.888.088c1.077.106 1.821.362 2.231.771.411.405.616.97.616 1.695 0 .517-.07.955-.211 1.313s-.307.63-.497.814c-.194.186-.468.327-.823.424-.352.1-.661.159-.928.18-.267.021-.622.031-1.065.031-1.068 0-2.058-.107-2.97-.321Zm11.446-2.824h-1.909V57.08h1.909v-1.911h1.774v1.911h1.922v1.775h-1.922v1.925h-1.774v-1.925Zm13.834 2.96h-2.464v-2.726h-1.848v2.726h-2.464v-7.708h2.464v2.727h1.848v-2.727h2.464v7.708Zm.862-3.849c0-1.404.262-2.428.787-3.075.525-.646 1.474-.969 2.847-.969s2.322.323 2.847.969c.525.647.787 1.671.787 3.075 0 .699-.056 1.287-.167 1.766a3.255 3.255 0 0 1-.572 1.246c-.27.352-.644.611-1.122.776-.475.164-1.066.246-1.773.246-.707 0-1.298-.082-1.773-.246-.479-.165-.853-.424-1.122-.776a3.255 3.255 0 0 1-.572-1.246c-.112-.479-.167-1.067-.167-1.766Zm2.648-1.282v3.206h1.021c.338 0 .582-.038.735-.114.153-.079.229-.258.229-.538v-3.206h-1.034c-.329 0-.569.038-.722.114-.153.08-.229.259-.229.538Zm7.898 1.396-.15 3.735h-2.574l.467-7.708h3.216l.964 3.92h.083l.964-3.92h3.212l.471 7.708h-2.574l-.15-3.735h-.088l-.933 3.735h-1.887l-.946-3.735h-.075Zm12.503-.965v1.789h-2.464v.938h3.019v1.973h-5.483v-7.708h5.421l-.308 1.973h-2.649v1.035h2.464Zm6.024 4.7h-4.422v-7.708h3.99c.74 0 1.268.144 1.584.432.317.288.476.707.476 1.26 0 .548-.102.973-.304 1.272a1.345 1.345 0 0 1-.805.587v.074c.994.173 1.491.852 1.491 2.035 0 .616-.164 1.113-.492 1.488-.329.374-.835.56-1.518.56Zm-.999-3.07h-.959V60h.95c.343 0 .515-.208.515-.625 0-.42-.169-.63-.506-.63Zm-.185-2.946h-.774v1.145h.765c.311 0 .467-.191.467-.573 0-.382-.153-.572-.458-.572Zm9.441 3.452 1.328 2.564h-2.71l-1.012-2.294h-.528v2.294h-2.464v-7.708h3.881c1.765 0 2.649.9 2.649 2.7 0 1.233-.382 2.048-1.144 2.444Zm-2.354-3.171h-.568v1.542h.568c.296 0 .511-.03.646-.092.135-.063.203-.205.203-.428v-.501c0-.225-.068-.367-.203-.428-.135-.062-.35-.093-.646-.093Zm9.472 1.035v1.789h-2.464v.938h3.019v1.973h-5.483v-7.708h5.421l-.308 1.973h-2.649v1.035h2.464Zm7.933 1.295.594-4.303h2.574l-1.21 7.708h-3.212l-.568-2.836h-.149l-.555 2.836h-3.216l-1.206-7.708h2.574l.581 4.303h.075l.884-4.303h1.888l.871 4.303h.075Z" style="fill:#fff;white-space:pre"/>
</svg>
