<svg viewBox="0 0 264 44" xmlns="http://www.w3.org/2000/svg">
    <path d="M225.74 59.585c-5.057 6.87-10.066 8.822-12.257 9.875-2.187 1.056-5.503 1.883-8.403 1.883-8.137 0-14.486-2.652-19.051-7.938-4.565-5.308-6.846-12.748-6.846-22.401 0-11.408 2.878-21.085 8.659-29.072C193.621 3.97 201.284.002 210.834.002c7.245 0 13.171 2.034 17.811 6.125 4.638 4.071 6.946 10.47 6.946 19.175h-14.015c0-4.167-.92-7.094-2.758-8.78-1.832-1.663-4.466-2.508-7.911-2.508-5.631 0-9.973 2.755-13.074 8.238-3.075 5.506-4.641 11.755-4.641 18.776 0 4.789 1.02 8.708 3.002 11.732 2.01 3.053 5.009 4.565 9.007 4.565 4.167 0 7.389-1.192 9.722-3.549 2.308-2.329 4.019-5.358 5.111-9.055h-13.05l2.112-12.699h25.448l-2.157 12.301c.003.006-1.611 8.391-6.647 15.262Zm121-57.821-11.385 67.92h-12.253l9.649-52.64-21.284 52.64h-10.044l-4.638-52.616-7.323 52.616h-12.398l11.333-67.92h17.392l3.895 47.824L329.23 1.637zm12.974 26.293h20.02l-2.088 13.173h-20.017l-2.577 14.462h22.594l-2.227 13.992h-35.622l11.26-67.995h35.197L384.1 15.777h-22.153zM253.028 1.637l-27.385 68.047h13.346l4.885-13.273h17.464l1.14 13.273h12.923L267.662 1.64h-14.634Zm-4.912 43.166 9.924-27.065 2.305 27.065h-12.229Zm207.268 14.782c-5.06 6.87-10.063 8.822-12.254 9.875-2.19 1.056-5.506 1.883-8.406 1.883-8.134 0-14.486-2.652-19.048-7.935-4.568-5.311-6.849-12.751-6.849-22.401 0-11.411 2.878-21.085 8.659-29.072C423.264 3.973 430.928.002 440.481.002c7.242 0 13.171 2.037 17.808 6.128 4.641 4.071 6.946 10.47 6.946 19.175h-14.012c0-4.167-.917-7.094-2.755-8.78-1.835-1.663-4.466-2.505-7.914-2.505-5.631 0-9.973 2.752-13.071 8.235-3.078 5.506-4.641 11.755-4.641 18.776 0 4.789 1.017 8.708 2.999 11.732 2.013 3.053 5.012 4.565 9.007 4.565 4.17 0 7.392-1.189 9.725-3.549 2.308-2.329 4.019-5.355 5.111-9.054h-13.05l2.109-12.7h25.451l-2.16 12.304s-1.614 8.385-6.65 15.256Zm26.148-31.504h19.992l-2.058 13.149h-20.019l-2.601 14.462h22.62l-2.232 14.013h-35.623l11.264-68.016h35.2l-2.158 14.088h-22.156zm44.251-26.416-27.385 68.043h13.373l4.858-13.273h17.488l1.141 13.273h12.899l-7.74-68.043h-14.634ZM520.895 44.8l9.9-27.062 2.332 27.062h-12.232Zm47.951-13.222 2.978-16.743h7.142c2.628 0 4.59.471 5.905 1.415 1.313.966 1.958 2.876 1.958 5.754 0 3.226-1.065 5.606-3.174 7.193-2.136 1.591-4.837 2.381-8.11 2.381h-6.699Zm-8.062-29.889-11.261 68.016h13.02l4.369-25.922h6.026l10.071 25.922h14.933l-11.164-28.701c3.895-1.982 7.245-5.283 9.577-8.729 2.429-3.548 3.645-7.691 3.645-12.428 0-6.424-1.439-11.04-4.342-13.892-2.875-2.851-6.973-4.266-12.229-4.266h-22.645ZM10.872 27.816C22.361 8.544 38.181-3.486 46.204.907c8.005 4.412 5.184 23.608-6.33 42.867-11.49 19.275-27.307 31.302-35.312 26.908-8.023-4.408-5.183-23.61 6.31-42.866Zm51.405 0C73.77 8.544 89.587-3.486 97.607.907c8.005 4.412 5.184 23.608-6.327 42.867-11.493 19.275-27.31 31.302-35.312 26.908-8.023-4.408-5.184-23.61 6.309-42.866Zm51.406 0c11.49-19.275 27.31-31.302 35.33-26.912 8.005 4.412 5.183 23.611-6.328 42.87-11.492 19.275-27.306 31.302-35.311 26.905-8.026-4.405-5.184-23.607 6.309-42.863Z" style="fill-opacity:1;fill:#fff" transform="scale(.44 .43537)"/>
    <path d="M83.596 43.817h-2.464v-2.695h-1.848v2.695H76.82v-7.619h2.464v2.696h1.848v-2.696h2.464v7.619Zm3.353-1.206-.286 1.206h-2.601l1.998-7.619h3.806l1.998 7.619h-2.601l-.281-1.206h-2.033Zm1.082-4.071h-.136l-.506 2.134h1.135l-.493-2.134Zm9.412 3.096.185 2.047c-.516.211-1.164.317-1.945.317-.78 0-1.406-.081-1.879-.244-.472-.162-.844-.418-1.117-.766a3.165 3.165 0 0 1-.568-1.232c-.105-.473-.158-1.055-.158-1.746 0-.691.053-1.273.158-1.746.109-.476.298-.889.568-1.241.525-.673 1.49-1.01 2.895-1.01.314 0 .682.031 1.104.092.423.061.737.136.942.226l-.37 1.864a7.049 7.049 0 0 0-1.465-.17c-.442 0-.75.04-.924.122-.173.082-.259.244-.259.487v3.196c.319.064.644.095.972.095.698 0 1.319-.097 1.861-.291Zm3.56-1.136h-.049v3.317H98.49v-7.619h2.464v3.109h.049a1.76 1.76 0 0 1 .123-.584l1.21-2.525h2.658l-1.848 3.744 1.909 3.875h-2.657l-1.272-2.73a1.785 1.785 0 0 1-.123-.587Zm4.485 3.183.343-2.012c.757.188 1.437.283 2.041.283.605 0 1.092-.025 1.461-.074v-.61l-1.109-.1c-1.003-.087-1.69-.323-2.063-.709-.375-.387-.563-.958-.563-1.716 0-1.039.228-1.754.686-2.146.455-.389 1.228-.584 2.319-.584 1.094 0 2.08.102 2.957.305l-.308 1.95c-.763-.121-1.374-.182-1.835-.182-.461 0-.851.02-1.171.061v.596l.889.087c1.077.105 1.821.358 2.231.762.411.401.616.959.616 1.676 0 .511-.07.944-.211 1.298-.141.354-.307.622-.497.805-.194.183-.468.323-.823.419a4.968 4.968 0 0 1-.929.178c-.267.02-.621.03-1.064.03-1.068 0-2.058-.106-2.97-.317Zm11.446-2.792h-1.909v-1.754h1.909v-1.89h1.773v1.89h1.923v1.754h-1.923v1.903h-1.773v-1.903Zm13.833 2.926h-2.464v-2.695h-1.848v2.695h-2.464v-7.619h2.464v2.696h1.848v-2.696h2.464v7.619Zm.862-3.805c0-1.388.263-2.4.788-3.039.525-.638 1.474-.958 2.847-.958s2.322.32 2.847.958c.524.639.787 1.651.787 3.039 0 .691-.056 1.273-.167 1.746a3.2 3.2 0 0 1-.572 1.232c-.27.348-.644.604-1.122.766-.475.163-1.066.244-1.773.244-.707 0-1.298-.081-1.773-.244-.479-.162-.853-.418-1.122-.766a3.2 3.2 0 0 1-.572-1.232c-.112-.473-.168-1.055-.168-1.746Zm2.649-1.267v3.169h1.021c.337 0 .582-.037.735-.112.152-.078.229-.256.229-.532v-3.169h-1.034c-.329 0-.569.038-.722.113-.153.078-.229.256-.229.531Zm7.898 1.381-.15 3.691h-2.574l.467-7.619h3.216l.964 3.875h.083l.964-3.875h3.212l.471 7.619h-2.574l-.15-3.691h-.088l-.933 3.691h-1.887l-.946-3.691h-.075Zm12.503-.954v1.768h-2.464v.927h3.019v1.95h-5.483v-7.619h5.421l-.308 1.951h-2.649v1.023h2.464Zm6.023 4.645h-4.422v-7.619h3.991c.739 0 1.267.143 1.584.427.317.285.475.699.475 1.245 0 .543-.101.962-.303 1.258-.2.3-.468.492-.805.579v.074c.994.171 1.491.842 1.491 2.012 0 .609-.164 1.1-.493 1.471-.328.369-.834.553-1.518.553Zm-.998-3.034h-.96v1.24h.951c.343 0 .515-.205.515-.618 0-.415-.169-.622-.506-.622Zm-.185-2.913h-.775v1.132h.766c.311 0 .466-.189.466-.566 0-.378-.152-.566-.457-.566Zm9.44 3.413 1.329 2.534h-2.71l-1.012-2.268h-.528v2.268h-2.464v-7.619h3.881c1.765 0 2.648.89 2.648 2.669 0 1.219-.381 2.024-1.144 2.416Zm-2.354-3.134h-.567v1.523h.567c.297 0 .512-.03.647-.091s.203-.202.203-.422v-.497c0-.221-.068-.361-.203-.421-.135-.062-.35-.092-.647-.092Zm9.473 1.023v1.768h-2.464v.927h3.019v1.95h-5.483v-7.619h5.421l-.308 1.951h-2.649v1.023h2.464Zm7.933 1.28.594-4.254h2.574l-1.21 7.619h-3.212l-.568-2.804h-.149l-.555 2.804h-3.216l-1.206-7.619h2.574l.581 4.254h.075l.884-4.254h1.888l.871 4.254h.075Z" style="fill:#fff;white-space:pre"/>
</svg>
