<svg viewBox="-748 43 1962 416" xmlns="http://www.w3.org/2000/svg" xml:space="preserve">
    <path d="M-331.92 213.74v241.39c-8.08 0-16.02-.03-23.96.01-63.99.32-128.03 2.37-191.95.55-73.69-2.09-132.13-34.16-171.1-98.08-17.48-28.67-28.77-59.77-29.99-93.61-2.23-62.03 15.72-117.06 59.74-162.03 28.58-29.19 62.42-49.58 103-57.53 4.88-.95 9.91-1.5 14.88-1.5 78.16-.09 156.32-.06 234.48-.06h4.78v89.5h-102.33c-1.31-20.81-2.62-41.7-4.01-63.91-23.09 19.72-45.51 38.86-68.43 58.43-22.25-25.85-44.37-51.53-67.41-78.29-4.38 32.87-8.6 64.55-12.94 97.08-34.25-7.88-68.16-15.69-103.15-23.74 14.68 36.43 29.04 72.06 43.59 108.14-22.37 11.86-44.45 23.58-67.33 35.71 27.07 15.37 53.35 30.28 80.25 45.55-11.71 31.62-23.4 63.17-35.58 96.07 36.55-16.78 72.04-33.08 108.11-49.65 6.59 23.81 13.05 47.14 19.73 71.28 1.39-1.59 2.46-2.73 3.44-3.94 18.39-22.84 36.83-45.63 55.07-68.59 2.42-3.05 4.28-3.06 7.43-1.44 31.22 16.03 62.5 31.94 93.76 47.88 1.28.65 2.61 1.22 4.74 2.2-3.58-11.33-6.88-21.89-10.24-32.43-8.39-26.3-16.89-52.56-25.13-78.9-1.2-3.83-2.8-5.57-6.93-5.05-2.93.37-5.95.07-9.79.07 10.09 30.66 19.99 60.72 30.4 92.34-29.21-14.36-57.25-28.14-85.72-42.14-17.03 21.04-34.05 42.07-52.04 64.29-5.22-22-10.12-42.69-15.19-64.09-33.73 16.8-66.97 33.35-100.21 49.9-.29-.26-.59-.52-.88-.78 12.6-27.19 25.2-54.38 38.09-82.2-24.54-13.14-48.96-26.2-74.43-39.83 20.64-11.02 40.47-21.62 60.87-32.52-14.18-31.72-28.32-63.37-43.01-96.25 31.9 8.18 62.82 16.11 94.14 24.14 3.4-29.96 6.77-59.64 10.31-90.82 19.71 25.55 38.57 50.01 57.82 74.97 19.69-18.13 39.19-36.1 59.71-55 1.96 23.9 3.82 46.47 5.72 69.59 27.65-4.93 54.79-9.76 83.23-14.83-16.48 23.17-32.24 45.33-48.44 68.11 25.91.01 51.09.01 76.9.01zm-58.6-49.11c-22.41 3.95-43.6 7.69-65.22 11.51-1.57-19.06-3.09-37.49-4.68-56.76-17.12 15.79-33.48 30.89-50.27 46.38-15.45-20.02-30.61-39.65-46.62-60.4-2.86 25.22-5.55 48.92-8.3 73.14-27.46-7.01-54.16-13.83-82.06-20.95 12.61 28.22 24.59 55.04 36.73 82.21-16.58 8.9-32.83 17.62-49.68 26.66l63.4 33.9c-9.33 20.16-18.39 39.72-28.01 60.51 28.36-14.1 55.34-27.52 82.68-41.11 4.32 18.24 8.43 35.57 12.72 53.68 1.59-1.78 2.5-2.72 3.32-3.73 11.52-14.24 23.2-28.37 34.44-42.84 3.01-3.87 5.26-4.08 9.39-1.99 18.39 9.32 36.94 18.3 55.45 27.38 1.53.75 3.12 1.36 5.37 2.34-.52-1.83-.75-2.77-1.05-3.69-6.36-19.25-12.81-38.47-19-57.77-1.05-3.26-2.45-4.35-5.9-4.32-25.32.16-50.65.08-75.98.08h-5.41v-74.51h6.55c30.82-.07 61.65-.19 92.47-.15 3.34 0 5.4-.97 7.35-3.79 8.23-11.92 16.76-23.63 25.15-35.44 2.19-3.08 4.3-6.21 7.16-10.34zm1314.69-57.66h106.33v55.15c12.82 0 24.94-.43 37.01.08 33.37 1.41 64.35 10.27 90.78 31.57 28.3 22.82 44.06 53.07 51.74 88.18 11.24 51.4-14.4 118.21-59.07 148.92-23.06 15.86-48.67 24.54-76.25 27.06-15.21 1.39-30.59 1.09-45.89 1.16-32.82.15-65.64.05-98.46.05h-6.19V106.97zm106.29 203.63v52.45c0 9.39 0 9.39 9.15 11.44 32.66 7.32 60.09-7.82 69.95-38.92 5.43-17.12 5.58-34.46.05-51.58-5.97-18.47-17.3-32.09-36.62-37.66-12.56-3.62-25.01-2.1-37.44 1.09-3.8.97-5.27 2.51-5.21 6.74.28 18.81.12 37.63.12 56.44zM-1.6 305.38c-.24 65.45-42.33 121.55-106.92 142.51-69.26 22.47-147.65-8.47-182.47-72.03-35.79-65.32-17.56-145.52 43.36-190.72 73.34-54.42 180.46-32.51 226.32 46.36 13.26 22.8 19.79 47.48 19.71 73.88zm-208.63-3.08c.09 17.96 3.97 31.85 12.37 44.4 19.98 29.84 56.48 32.6 80.38 6.09 24.16-26.8 22.42-74.28-3.64-99.22-19.22-18.39-45.81-19.42-65.96-2.07-16.33 14.05-22.74 32.68-23.15 50.8zM904.7 342.66H713.83c1.09 24.84 17.92 41.07 42.04 41.22 47.49.28 94.97.65 142.46.99.99.01 1.98.09 3.4.16v73.86h-5.28c-45.99 0-91.98.06-137.98-.01-71-.11-133.5-54.32-140.81-124.87-5.37-51.8 9.5-97.41 51.78-131.03 24.32-19.34 52.91-28.51 83.5-31.04 73.19-6.04 140.86 46.95 153.02 119.29 2.77 16.45 2.31 39.49-1.26 51.43zm-90.08-55.51c-5.88-23.1-28.69-45.67-58.15-43.3-24.17 1.94-43.37 23.06-47.01 43.3h105.16zm-645.7 92.88v78.79h-93.1c-33.07 0-55.23-17.08-62.59-49.37-2.46-10.77-3.91-22.02-3.95-33.06-.33-86.32-.18-172.63-.18-258.95v-6.23h104.63v60.91h52.71v73.72h-52.11c-.21 1.32-.5 2.25-.5 3.18.04 28.83-.15 57.66.29 86.48.16 10.66 2.52 21.09 8.07 30.51 5.73 9.72 14.53 14.48 25.5 14.91 6.94.25 13.92-.55 21.23-.89zm176.97 0v78.78h-92.84c-33.42 0-55.48-17.03-62.88-49.64-2.45-10.77-3.91-22.02-3.95-33.05-.32-86.16-.17-172.32-.17-258.48v-6.39h104.44v60.72h52.98v73.87h-52.4c-.17 1.37-.34 2.15-.34 2.94.08 29.16-.06 58.33.4 87.48.16 10.49 2.62 20.74 8.13 29.95 5.68 9.49 14.41 14.18 25.17 14.67 7.05.31 14.16-.52 21.46-.85zm14.37-270.81h104.68v349.05H360.26V109.22zm135.76 349.21v-284.4h99.89v5.56c0 90.96-.04 181.92.11 272.88.01 4.85-1.36 6.09-6.12 6.06-29.49-.21-58.97-.11-88.46-.11-1.64.01-3.28.01-5.42.01zm99.62-304.34H495.52v-42.93h100.12v42.93z" fill="#fff"/>
</svg>
