<svg viewBox="0 0 633 72" xmlns="http://www.w3.org/2000/svg" xml:space="preserve" style="fill-rule:evenodd;clip-rule:evenodd;stroke-linejoin:round;stroke-miterlimit:2">
    <clipPath id="a">
        <path d="M.261.062h632V71.88h-632z"/>
    </clipPath>
    <g clip-path="url(#a)">
        <path d="M85.79.062H6.842C3.206.062.261 2.985.261 6.593V65.35c0 3.605 2.945 6.531 6.581 6.531H85.79c3.634 0 6.578-2.926 6.578-6.531V6.593c0-3.608-2.944-6.531-6.578-6.531ZM19.999 13.119c5.064 0 8.228 5.441 5.698 9.794-2.53 4.352-8.865 4.352-11.395 0a6.466 6.466 0 0 1-.884-3.263c0-3.603 2.95-6.531 6.581-6.531Zm59.212 45.703H13.418v-6.531l13.16-13.054 6.578 6.528L59.473 19.65l19.738 19.587v19.585Zm38.727 1.106v-8.421h33.814c1.785 0 3.068-.25 3.852-.75.783-.501 1.175-1.513 1.175-3.036v-2.415c0-1.393-.392-2.383-1.175-2.97-.784-.588-2.046-.881-3.786-.881h-21.216c-2.48 0-4.536-.229-6.168-.686-1.632-.457-2.927-1.153-3.884-2.089-.958-.935-1.622-2.11-1.991-3.525-.37-1.414-.555-3.079-.555-4.994v-2.219c0-2.263.239-4.2.718-5.81.478-1.61 1.218-2.905 2.219-3.884 1.001-.979 2.307-1.697 3.917-2.154 1.61-.457 3.525-.685 5.744-.685h13.839v8.421h-12.925c-1.523 0-2.644.293-3.362.881-.718.587-1.077 1.773-1.077 3.557v1.437c0 1.392.327 2.382.979 2.97.653.587 1.785.881 3.395.881h20.824c2.48 0 4.58.207 6.299.62 1.719.413 3.122 1.077 4.21 1.991 1.088.914 1.872 2.089 2.35 3.525.479 1.436.718 3.155.718 5.157v3.525c0 2.089-.239 3.862-.718 5.32-.478 1.458-1.262 2.644-2.35 3.558-1.088.914-2.491 1.588-4.21 2.023-1.719.436-3.819.653-6.299.653h-34.337Zm70.761 0c-3.263 0-5.983-.272-8.159-.816-2.176-.544-3.917-1.414-5.222-2.611-1.306-1.197-2.231-2.763-2.775-4.7-.544-1.937-.816-4.319-.816-7.148v-4.765c0-2.829.272-5.222.816-7.181.544-1.958 1.469-3.536 2.775-4.732 1.305-1.197 3.046-2.067 5.222-2.611 2.176-.544 4.896-.816 8.159-.816h25.589v8.355h-25.262c-1.523 0-2.774.109-3.754.327-.979.217-1.751.598-2.317 1.142-.566.544-.957 1.295-1.175 2.252-.218.957-.326 2.154-.326 3.59v4.178c0 1.393.108 2.557.326 3.492.218.936.609 1.687 1.175 2.252.566.566 1.338.969 2.317 1.208.98.239 2.231.359 3.754.359h25.328v8.225h-25.655Zm32.705 0V39.431c0-2.655.304-4.918.913-6.789.61-1.871 1.578-3.405 2.905-4.602 1.328-1.197 3.036-2.078 5.125-2.644 2.089-.566 4.634-.848 7.637-.848h6.332v7.898h-6.071c-1.349 0-2.48.109-3.394.327-.914.217-1.643.587-2.187 1.109-.544.523-.936 1.241-1.175 2.154-.239.914-.359 2.068-.359 3.46v20.432h-9.726Zm37.143-14.1v1.632c0 1.088.087 1.958.261 2.611.174.653.489 1.164.946 1.534.457.37 1.066.62 1.828.751.762.13 1.708.196 2.84.196h11.488v7.376h-11.488c-5.614 0-9.618-1.066-12.012-3.199-2.393-2.132-3.59-5.548-3.59-10.248v-8.16c0-2.567.25-4.732.751-6.495.5-1.762 1.371-3.177 2.611-4.243 1.24-1.066 2.883-1.839 4.928-2.317 2.046-.479 4.635-.718 7.769-.718h17.102c2.524 0 4.624.239 6.3.718 1.675.478 3.002 1.142 3.982 1.991a6.795 6.795 0 0 1 2.056 3.068c.391 1.196.587 2.491.587 3.884v11.619h-36.359Zm26.633-10.836c0-1.175-.294-1.958-.881-2.35-.588-.392-1.621-.587-3.101-.587h-16.189c-1.218 0-2.241.054-3.068.163-.827.109-1.49.359-1.991.75-.5.392-.859.958-1.077 1.698-.218.739-.326 1.74-.326 3.002v1.893h26.633v-4.569Zm26.176 10.836v1.632c0 1.088.087 1.958.261 2.611.174.653.49 1.164.947 1.534.457.37 1.066.62 1.828.751.761.13 1.708.196 2.839.196h11.489v7.376h-11.489c-5.614 0-9.617-1.066-12.011-3.199-2.393-2.132-3.59-5.548-3.59-10.248v-8.16c0-2.567.25-4.732.751-6.495.5-1.762 1.37-3.177 2.611-4.243 1.24-1.066 2.883-1.839 4.928-2.317 2.045-.479 4.635-.718 7.768-.718h17.103c2.524 0 4.624.239 6.299.718 1.676.478 3.003 1.142 3.982 1.991a6.787 6.787 0 0 1 2.056 3.068c.392 1.196.588 2.491.588 3.884v11.619h-36.36Zm26.634-10.836c0-1.175-.294-1.958-.882-2.35-.587-.392-1.621-.587-3.1-.587h-16.189c-1.219 0-2.241.054-3.068.163-.827.109-1.491.359-1.991.75-.501.392-.86.958-1.077 1.698-.218.739-.327 1.74-.327 3.002v1.893h26.634v-4.569Zm52.679 24.936V40.214c0-1.479-.12-2.687-.359-3.623-.24-.935-.653-1.675-1.241-2.219-.587-.544-1.392-.925-2.415-1.142-1.023-.218-2.317-.327-3.884-.327h-10.575c-1.523 0-2.796.109-3.819.327-1.022.217-1.838.598-2.448 1.142-.609.544-1.033 1.284-1.273 2.219-.239.936-.359 2.144-.359 3.623v19.714h-9.726v-20.04c0-2.829.272-5.222.816-7.181.544-1.958 1.469-3.536 2.774-4.732 1.306-1.197 3.047-2.067 5.223-2.611 2.175-.544 4.895-.816 8.159-.816h11.816c3.307 0 6.049.272 8.225.816 2.175.544 3.916 1.414 5.222 2.611 1.305 1.196 2.23 2.774 2.774 4.732.544 1.959.816 4.352.816 7.181v20.04h-9.726Zm58.815-9.4c0 1.741-.152 3.21-.457 4.406-.305 1.197-.903 2.165-1.795 2.905-.892.74-2.111 1.273-3.656 1.6-1.545.326-3.557.489-6.038.489h-30.419v-7.637h29.179c1.305 0 2.219-.218 2.741-.653.523-.435.784-1.262.784-2.481v-1.175c0-1.305-.251-2.121-.751-2.448-.5-.326-1.338-.489-2.513-.489h-19.845c-2.001 0-3.622-.196-4.863-.588-1.24-.391-2.208-.979-2.905-1.762-.696-.784-1.164-1.752-1.403-2.905-.239-1.153-.359-2.513-.359-4.08v-2.676c0-1.523.163-2.829.489-3.917.327-1.088.86-1.969 1.6-2.644.74-.674 1.74-1.164 3.003-1.468 1.262-.305 2.85-.457 4.765-.457h13.447v7.376h-11.097c-.958 0-1.643.174-2.056.522-.414.348-.621.979-.621 1.893v1.632c0 1.001.196 1.676.588 2.024.392.348 1.023.522 1.893.522h19.192c2.263 0 4.112.185 5.548.555 1.436.37 2.568.957 3.395 1.762s1.392 1.85 1.697 3.134c.305 1.283.457 2.861.457 4.732v1.828Zm43.279 9.4V40.214c0-1.479-.12-2.698-.359-3.655-.239-.958-.642-1.708-1.208-2.252-.565-.544-1.349-.914-2.35-1.11-1.001-.196-2.241-.294-3.721-.294h-19.387v27.025h-9.726V13.124h9.726v11.424h19.649c3.307 0 6.059.272 8.257.816 2.198.544 3.949 1.414 5.255 2.611 1.306 1.196 2.23 2.774 2.774 4.732.544 1.959.816 4.352.816 7.181v20.04h-9.726Zm33.879 0c-3.264 0-5.984-.272-8.16-.816-2.176-.544-3.916-1.414-5.222-2.611-1.305-1.197-2.23-2.763-2.774-4.7-.544-1.937-.816-4.319-.816-7.148v-4.765c0-2.829.272-5.222.816-7.181.544-1.958 1.469-3.536 2.774-4.732 1.306-1.197 3.046-2.067 5.222-2.611 2.176-.544 4.896-.816 8.16-.816h11.815c3.308 0 6.049.272 8.225.816 2.176.544 3.917 1.425 5.223 2.643 1.305 1.219 2.23 2.807 2.774 4.766.544 1.958.816 4.351.816 7.18v4.7c0 2.829-.272 5.211-.816 7.148-.544 1.937-1.469 3.503-2.774 4.7-1.306 1.197-3.047 2.067-5.223 2.611-2.176.544-4.917.816-8.225.816h-11.815Zm19.126-19.714c0-1.479-.119-2.698-.359-3.655-.239-.958-.674-1.708-1.305-2.252-.631-.544-1.512-.914-2.644-1.11-1.131-.196-2.568-.294-4.308-.294h-9.204c-1.741 0-3.166.098-4.276.294-1.11.196-1.98.566-2.611 1.11-.631.544-1.066 1.294-1.306 2.252-.239.957-.359 2.176-.359 3.655v4.178c0 1.48.12 2.687.359 3.623.24.936.675 1.675 1.306 2.219.631.544 1.501.925 2.611 1.143 1.11.217 2.535.326 4.276.326h9.204c1.74 0 3.177-.109 4.308-.326 1.132-.218 2.013-.599 2.644-1.143.631-.544 1.066-1.283 1.305-2.219.24-.936.359-2.143.359-3.623v-4.178Zm19.127 19.714V32.446h-4.961v-7.898h4.961V14.56h9.922v9.988h11.162v7.898h-11.162v27.482h-9.922Zm67.366-9.4c0 1.741-.152 3.21-.457 4.406-.304 1.197-.903 2.165-1.795 2.905-.892.74-2.11 1.273-3.655 1.6-1.545.326-3.558.489-6.038.489h-30.42v-7.637h29.179c1.306 0 2.22-.218 2.742-.653.522-.435.783-1.262.783-2.481v-1.175c0-1.305-.25-2.121-.75-2.448-.501-.326-1.339-.489-2.514-.489h-19.844c-2.002 0-3.623-.196-4.863-.588-1.241-.391-2.209-.979-2.905-1.762-.696-.784-1.164-1.752-1.404-2.905-.239-1.153-.359-2.513-.359-4.08v-2.676c0-1.523.164-2.829.49-3.917.326-1.088.859-1.969 1.599-2.644.74-.674 1.741-1.164 3.003-1.468 1.262-.305 2.851-.457 4.765-.457h13.448v7.376h-11.098c-.957 0-1.642.174-2.056.522-.413.348-.62.979-.62 1.893v1.632c0 1.001.196 1.676.587 2.024.392.348 1.023.522 1.893.522h19.192c2.263 0 4.113.185 5.549.555 1.436.37 2.567.957 3.394 1.762s1.393 1.85 1.697 3.134c.305 1.283.457 2.861.457 4.732v1.828Z" style="fill:#fff;fill-rule:nonzero"/>
    </g>
</svg>
