<?xml version="1.0" encoding="UTF-8" standalone="no"?>
<!DOCTYPE svg PUBLIC "-//W3C//DTD SVG 1.1//EN" "http://www.w3.org/Graphics/SVG/1.1/DTD/svg11.dtd">
<svg width="100%" height="100%" viewBox="0 0 632 72" version="1.1" xmlns="http://www.w3.org/2000/svg" xmlns:xlink="http://www.w3.org/1999/xlink" xml:space="preserve" xmlns:serif="http://www.serif.com/" style="fill-rule:evenodd;clip-rule:evenodd;stroke-linejoin:round;stroke-miterlimit:2;">
    <g transform="matrix(1,0,0,1,-4,-24)">
        <g transform="matrix(2.39394,0,0,2.39394,-446.061,-83.6364)">
            <g transform="matrix(1,0,0,1,188,45)">
                <path d="M35.727,0L2.749,0C1.23,0 0,1.221 0,2.728L0,27.272C0,28.778 1.23,30 2.749,30L35.727,30C37.245,30 38.475,28.778 38.475,27.272L38.475,2.728C38.475,1.221 37.245,0 35.727,0ZM8.245,5.454C10.36,5.454 11.682,7.727 10.625,9.545C9.568,11.363 6.922,11.363 5.865,9.545C5.623,9.131 5.496,8.66 5.496,8.182C5.496,6.677 6.728,5.454 8.245,5.454ZM32.979,24.545L5.496,24.545L5.496,21.817L10.993,16.364L13.741,19.091L24.734,8.182L32.979,16.364L32.979,24.545Z" style="fill:white;fill-rule:nonzero;"/>
            </g>
            <g transform="matrix(2.27232,0,0,2.27232,125.457,10.9104)">
                <g transform="matrix(12,0,0,12,48.6883,26.0072)">
                    <path d="M0.039,-0L0.039,-0.129L0.557,-0.129C0.584,-0.129 0.604,-0.133 0.616,-0.141C0.628,-0.148 0.634,-0.164 0.634,-0.187L0.634,-0.224C0.634,-0.245 0.628,-0.261 0.616,-0.27C0.604,-0.279 0.585,-0.283 0.558,-0.283L0.233,-0.283C0.195,-0.283 0.164,-0.287 0.139,-0.294C0.114,-0.301 0.094,-0.311 0.079,-0.326C0.064,-0.34 0.054,-0.358 0.049,-0.38C0.043,-0.401 0.04,-0.427 0.04,-0.456L0.04,-0.49C0.04,-0.525 0.044,-0.554 0.051,-0.579C0.058,-0.604 0.07,-0.624 0.085,-0.639C0.1,-0.654 0.12,-0.665 0.145,-0.672C0.17,-0.679 0.199,-0.682 0.233,-0.682L0.445,-0.682L0.445,-0.553L0.247,-0.553C0.224,-0.553 0.206,-0.549 0.196,-0.54C0.185,-0.531 0.179,-0.512 0.179,-0.485L0.179,-0.463C0.179,-0.442 0.184,-0.427 0.194,-0.418C0.204,-0.409 0.221,-0.404 0.246,-0.404L0.565,-0.404C0.603,-0.404 0.635,-0.401 0.662,-0.395C0.688,-0.388 0.709,-0.378 0.726,-0.364C0.743,-0.35 0.755,-0.332 0.762,-0.31C0.769,-0.288 0.773,-0.262 0.773,-0.231L0.773,-0.177C0.773,-0.145 0.769,-0.118 0.762,-0.096C0.755,-0.073 0.743,-0.055 0.726,-0.041C0.709,-0.027 0.688,-0.017 0.662,-0.01C0.635,-0.003 0.603,-0 0.565,-0L0.039,-0Z" style="fill:white;fill-rule:nonzero;"/>
                </g>
                <g transform="matrix(12,0,0,12,58.3963,26.0072)">
                    <path d="M0.314,-0C0.264,-0 0.222,-0.004 0.189,-0.013C0.156,-0.021 0.129,-0.034 0.109,-0.053C0.089,-0.071 0.075,-0.095 0.067,-0.125C0.058,-0.154 0.054,-0.191 0.054,-0.234L0.054,-0.307C0.054,-0.35 0.058,-0.387 0.067,-0.417C0.075,-0.447 0.089,-0.471 0.109,-0.49C0.129,-0.508 0.156,-0.521 0.189,-0.53C0.222,-0.538 0.264,-0.542 0.314,-0.542L0.706,-0.542L0.706,-0.414L0.319,-0.414C0.296,-0.414 0.277,-0.412 0.262,-0.409C0.247,-0.406 0.235,-0.4 0.226,-0.392C0.217,-0.383 0.211,-0.372 0.208,-0.357C0.205,-0.342 0.203,-0.324 0.203,-0.302L0.203,-0.238C0.203,-0.217 0.205,-0.199 0.208,-0.185C0.211,-0.17 0.217,-0.159 0.226,-0.15C0.235,-0.141 0.247,-0.135 0.262,-0.132C0.277,-0.128 0.296,-0.126 0.319,-0.126L0.707,-0.126L0.707,-0L0.314,-0Z" style="fill:white;fill-rule:nonzero;"/>
                </g>
                <g transform="matrix(12,0,0,12,67.4683,26.0072)">
                    <path d="M0.059,-0L0.059,-0.314C0.059,-0.355 0.064,-0.389 0.073,-0.418C0.082,-0.447 0.097,-0.47 0.118,-0.489C0.138,-0.507 0.164,-0.52 0.196,-0.529C0.228,-0.538 0.267,-0.542 0.313,-0.542L0.41,-0.542L0.41,-0.421L0.317,-0.421C0.296,-0.421 0.279,-0.419 0.265,-0.416C0.251,-0.413 0.24,-0.407 0.232,-0.399C0.223,-0.391 0.217,-0.38 0.214,-0.366C0.21,-0.352 0.208,-0.334 0.208,-0.313L0.208,-0L0.059,-0Z" style="fill:white;fill-rule:nonzero;"/>
                </g>
                <g transform="matrix(12,0,0,12,72.5683,26.0072)">
                    <path d="M0.203,-0.216L0.203,-0.191C0.203,-0.174 0.204,-0.161 0.207,-0.151C0.21,-0.141 0.215,-0.133 0.222,-0.128C0.229,-0.122 0.238,-0.118 0.25,-0.116C0.261,-0.114 0.276,-0.113 0.293,-0.113L0.469,-0.113L0.469,-0L0.293,-0C0.207,-0 0.146,-0.016 0.109,-0.049C0.072,-0.082 0.054,-0.134 0.054,-0.206L0.054,-0.331C0.054,-0.37 0.058,-0.404 0.066,-0.431C0.073,-0.458 0.087,-0.479 0.106,-0.496C0.125,-0.512 0.15,-0.524 0.181,-0.531C0.212,-0.538 0.252,-0.542 0.3,-0.542L0.562,-0.542C0.601,-0.542 0.633,-0.538 0.659,-0.531C0.684,-0.524 0.705,-0.514 0.72,-0.501C0.735,-0.488 0.745,-0.472 0.751,-0.454C0.757,-0.435 0.76,-0.415 0.76,-0.394L0.76,-0.216L0.203,-0.216ZM0.611,-0.382C0.611,-0.4 0.607,-0.412 0.598,-0.418C0.588,-0.424 0.573,-0.427 0.55,-0.427L0.302,-0.427C0.283,-0.427 0.268,-0.426 0.255,-0.425C0.242,-0.423 0.232,-0.419 0.225,-0.413C0.217,-0.407 0.211,-0.398 0.208,-0.387C0.205,-0.376 0.203,-0.36 0.203,-0.341L0.203,-0.312L0.611,-0.312L0.611,-0.382Z" style="fill:white;fill-rule:nonzero;"/>
                </g>
                <g transform="matrix(12,0,0,12,82.2763,26.0072)">
                    <path d="M0.203,-0.216L0.203,-0.191C0.203,-0.174 0.204,-0.161 0.207,-0.151C0.21,-0.141 0.215,-0.133 0.222,-0.128C0.229,-0.122 0.238,-0.118 0.25,-0.116C0.261,-0.114 0.276,-0.113 0.293,-0.113L0.469,-0.113L0.469,-0L0.293,-0C0.207,-0 0.146,-0.016 0.109,-0.049C0.072,-0.082 0.054,-0.134 0.054,-0.206L0.054,-0.331C0.054,-0.37 0.058,-0.404 0.066,-0.431C0.073,-0.458 0.087,-0.479 0.106,-0.496C0.125,-0.512 0.15,-0.524 0.181,-0.531C0.212,-0.538 0.252,-0.542 0.3,-0.542L0.562,-0.542C0.601,-0.542 0.633,-0.538 0.659,-0.531C0.684,-0.524 0.705,-0.514 0.72,-0.501C0.735,-0.488 0.745,-0.472 0.751,-0.454C0.757,-0.435 0.76,-0.415 0.76,-0.394L0.76,-0.216L0.203,-0.216ZM0.611,-0.382C0.611,-0.4 0.607,-0.412 0.598,-0.418C0.588,-0.424 0.573,-0.427 0.55,-0.427L0.302,-0.427C0.283,-0.427 0.268,-0.426 0.255,-0.425C0.242,-0.423 0.232,-0.419 0.225,-0.413C0.217,-0.407 0.211,-0.398 0.208,-0.387C0.205,-0.376 0.203,-0.36 0.203,-0.341L0.203,-0.312L0.611,-0.312L0.611,-0.382Z" style="fill:white;fill-rule:nonzero;"/>
                </g>
                <g transform="matrix(12,0,0,12,91.9843,26.0072)">
                    <path d="M0.609,-0L0.609,-0.302C0.609,-0.325 0.607,-0.343 0.604,-0.358C0.6,-0.372 0.594,-0.383 0.585,-0.392C0.576,-0.4 0.563,-0.406 0.548,-0.409C0.532,-0.412 0.512,-0.414 0.488,-0.414L0.326,-0.414C0.303,-0.414 0.283,-0.412 0.268,-0.409C0.252,-0.406 0.239,-0.4 0.23,-0.392C0.221,-0.383 0.214,-0.372 0.211,-0.358C0.207,-0.343 0.205,-0.325 0.205,-0.302L0.205,-0L0.056,-0L0.056,-0.307C0.056,-0.35 0.06,-0.387 0.069,-0.417C0.077,-0.447 0.091,-0.471 0.111,-0.49C0.131,-0.508 0.158,-0.521 0.191,-0.53C0.224,-0.538 0.266,-0.542 0.316,-0.542L0.497,-0.542C0.548,-0.542 0.59,-0.538 0.623,-0.53C0.656,-0.521 0.683,-0.508 0.703,-0.49C0.723,-0.471 0.737,-0.447 0.746,-0.417C0.754,-0.387 0.758,-0.35 0.758,-0.307L0.758,-0L0.609,-0Z" style="fill:white;fill-rule:nonzero;"/>
                </g>
                <g transform="matrix(12,0,0,12,101.752,26.0072)">
                    <path d="M0.696,-0.144C0.696,-0.117 0.694,-0.095 0.689,-0.077C0.684,-0.058 0.675,-0.043 0.662,-0.032C0.648,-0.021 0.629,-0.012 0.606,-0.008C0.582,-0.003 0.551,-0 0.513,-0L0.047,-0L0.047,-0.117L0.494,-0.117C0.514,-0.117 0.528,-0.12 0.536,-0.127C0.544,-0.134 0.548,-0.146 0.548,-0.165L0.548,-0.183C0.548,-0.203 0.544,-0.216 0.537,-0.221C0.529,-0.226 0.516,-0.228 0.498,-0.228L0.194,-0.228C0.163,-0.228 0.138,-0.231 0.12,-0.237C0.1,-0.243 0.086,-0.252 0.075,-0.264C0.064,-0.276 0.057,-0.291 0.054,-0.309C0.05,-0.326 0.048,-0.347 0.048,-0.371L0.048,-0.412C0.048,-0.435 0.05,-0.455 0.056,-0.472C0.061,-0.489 0.069,-0.502 0.08,-0.513C0.091,-0.523 0.107,-0.53 0.126,-0.535C0.145,-0.54 0.17,-0.542 0.199,-0.542L0.405,-0.542L0.405,-0.429L0.235,-0.429C0.22,-0.429 0.21,-0.426 0.204,-0.421C0.197,-0.416 0.194,-0.406 0.194,-0.392L0.194,-0.367C0.194,-0.352 0.197,-0.341 0.203,-0.336C0.209,-0.331 0.219,-0.328 0.232,-0.328L0.526,-0.328C0.561,-0.328 0.589,-0.325 0.611,-0.32C0.633,-0.314 0.65,-0.305 0.663,-0.293C0.676,-0.28 0.684,-0.264 0.689,-0.245C0.694,-0.225 0.696,-0.201 0.696,-0.172L0.696,-0.144Z" style="fill:white;fill-rule:nonzero;"/>
                </g>
                <g transform="matrix(12,0,0,12,110.596,26.0072)">
                    <path d="M0.622,-0L0.622,-0.302C0.622,-0.325 0.62,-0.343 0.617,-0.358C0.613,-0.373 0.607,-0.384 0.598,-0.393C0.589,-0.401 0.577,-0.407 0.562,-0.41C0.547,-0.413 0.528,-0.414 0.505,-0.414L0.208,-0.414L0.208,-0L0.059,-0L0.059,-0.717L0.208,-0.717L0.208,-0.542L0.509,-0.542C0.56,-0.542 0.602,-0.538 0.636,-0.53C0.669,-0.521 0.696,-0.508 0.716,-0.49C0.736,-0.471 0.75,-0.447 0.759,-0.417C0.767,-0.387 0.771,-0.35 0.771,-0.307L0.771,-0L0.622,-0Z" style="fill:white;fill-rule:nonzero;"/>
                </g>
                <g transform="matrix(12,0,0,12,120.52,26.0072)">
                    <path d="M0.314,-0C0.264,-0 0.222,-0.004 0.189,-0.013C0.156,-0.021 0.129,-0.034 0.109,-0.053C0.089,-0.071 0.075,-0.095 0.067,-0.125C0.058,-0.154 0.054,-0.191 0.054,-0.234L0.054,-0.307C0.054,-0.35 0.058,-0.387 0.067,-0.417C0.075,-0.447 0.089,-0.471 0.109,-0.49C0.129,-0.508 0.156,-0.521 0.189,-0.53C0.222,-0.538 0.264,-0.542 0.314,-0.542L0.495,-0.542C0.546,-0.542 0.588,-0.538 0.621,-0.53C0.654,-0.521 0.681,-0.508 0.701,-0.489C0.721,-0.47 0.735,-0.446 0.744,-0.416C0.752,-0.386 0.756,-0.349 0.756,-0.306L0.756,-0.234C0.756,-0.191 0.752,-0.154 0.744,-0.125C0.735,-0.095 0.721,-0.071 0.701,-0.053C0.681,-0.034 0.654,-0.021 0.621,-0.013C0.588,-0.004 0.546,-0 0.495,-0L0.314,-0ZM0.607,-0.302C0.607,-0.325 0.605,-0.343 0.602,-0.358C0.598,-0.373 0.591,-0.384 0.582,-0.393C0.572,-0.401 0.558,-0.407 0.541,-0.41C0.524,-0.413 0.502,-0.414 0.475,-0.414L0.334,-0.414C0.307,-0.414 0.286,-0.413 0.269,-0.41C0.252,-0.407 0.238,-0.401 0.229,-0.393C0.219,-0.384 0.212,-0.373 0.209,-0.358C0.205,-0.343 0.203,-0.325 0.203,-0.302L0.203,-0.238C0.203,-0.215 0.205,-0.197 0.209,-0.183C0.212,-0.168 0.219,-0.157 0.229,-0.149C0.238,-0.14 0.252,-0.134 0.269,-0.131C0.286,-0.128 0.307,-0.126 0.334,-0.126L0.475,-0.126C0.502,-0.126 0.524,-0.128 0.541,-0.131C0.558,-0.134 0.572,-0.14 0.582,-0.149C0.591,-0.157 0.598,-0.168 0.602,-0.183C0.605,-0.197 0.607,-0.215 0.607,-0.238L0.607,-0.302Z" style="fill:white;fill-rule:nonzero;"/>
                </g>
                <g transform="matrix(12,0,0,12,130.24,26.0072)">
                    <path d="M0.09,-0L0.09,-0.421L0.014,-0.421L0.014,-0.542L0.09,-0.542L0.09,-0.695L0.242,-0.695L0.242,-0.542L0.413,-0.542L0.413,-0.421L0.242,-0.421L0.242,-0L0.09,-0Z" style="fill:white;fill-rule:nonzero;"/>
                </g>
                <g transform="matrix(12,0,0,12,135.352,26.0072)">
                    <path d="M0.696,-0.144C0.696,-0.117 0.694,-0.095 0.689,-0.077C0.684,-0.058 0.675,-0.043 0.662,-0.032C0.648,-0.021 0.629,-0.012 0.606,-0.008C0.582,-0.003 0.551,-0 0.513,-0L0.047,-0L0.047,-0.117L0.494,-0.117C0.514,-0.117 0.528,-0.12 0.536,-0.127C0.544,-0.134 0.548,-0.146 0.548,-0.165L0.548,-0.183C0.548,-0.203 0.544,-0.216 0.537,-0.221C0.529,-0.226 0.516,-0.228 0.498,-0.228L0.194,-0.228C0.163,-0.228 0.138,-0.231 0.12,-0.237C0.1,-0.243 0.086,-0.252 0.075,-0.264C0.064,-0.276 0.057,-0.291 0.054,-0.309C0.05,-0.326 0.048,-0.347 0.048,-0.371L0.048,-0.412C0.048,-0.435 0.05,-0.455 0.056,-0.472C0.061,-0.489 0.069,-0.502 0.08,-0.513C0.091,-0.523 0.107,-0.53 0.126,-0.535C0.145,-0.54 0.17,-0.542 0.199,-0.542L0.405,-0.542L0.405,-0.429L0.235,-0.429C0.22,-0.429 0.21,-0.426 0.204,-0.421C0.197,-0.416 0.194,-0.406 0.194,-0.392L0.194,-0.367C0.194,-0.352 0.197,-0.341 0.203,-0.336C0.209,-0.331 0.219,-0.328 0.232,-0.328L0.526,-0.328C0.561,-0.328 0.589,-0.325 0.611,-0.32C0.633,-0.314 0.65,-0.305 0.663,-0.293C0.676,-0.28 0.684,-0.264 0.689,-0.245C0.694,-0.225 0.696,-0.201 0.696,-0.172L0.696,-0.144Z" style="fill:white;fill-rule:nonzero;"/>
                </g>
            </g>
        </g>
    </g>
</svg>
