<?xml version="1.0" encoding="UTF-8"?>
<svg width="633px" height="73px" viewBox="0 0 633 73" version="1.1" xmlns="http://www.w3.org/2000/svg" xmlns:xlink="http://www.w3.org/1999/xlink">
    <title>imageviewer</title>
    <defs>
        <polygon id="path-1" points="3.27515792e-14 0 632 0 632 71.818 0 71.818"></polygon>
    </defs>
    <g id="Page-1" stroke="none" stroke-width="1" fill="none" fill-rule="evenodd" opacity="0.78">
        <g id="Screenshots" transform="translate(-3.000000, -24.000000)">
            <g id="imageviewer" transform="translate(3.917141, 24.524482)">
                <mask id="mask-2" fill="white">
                    <use xlink:href="#path-1"></use>
                </mask>
                <g id="Path"></g>
                <path d="M85.529,0 L6.581,0 C2.945,0 5.68434189e-14,2.923 5.68434189e-14,6.531 L5.68434189e-14,65.288 C5.68434189e-14,68.893 2.945,71.819 6.581,71.819 L85.529,71.819 C89.163,71.819 92.107,68.893 92.107,65.288 L92.107,6.531 C92.107,2.923 89.163,0 85.529,0 L85.529,0 Z M19.738,13.057 C24.802,13.057 27.966,18.498 25.436,22.851 C22.906,27.203 16.571,27.203 14.041,22.851 C13.4621833,21.8609725 13.157,20.7348144 13.157,19.588 C13.157,15.985 16.107,13.057 19.738,13.057 Z M78.95,58.76 L13.157,58.76 L13.157,52.229 L26.317,39.175 L32.895,45.703 L59.212,19.588 L78.95,39.175 L78.95,58.76 L78.95,58.76 Z M117.677,59.866 L117.677,51.445 L151.491,51.445 C153.276,51.445 154.559,51.195 155.343,50.695 C156.126,50.194 156.518,49.182 156.518,47.659 L156.518,45.244 C156.518,43.851 156.126,42.861 155.343,42.274 C154.559,41.686 153.297,41.393 151.557,41.393 L130.341,41.393 C127.861,41.393 125.805,41.164 124.173,40.707 C122.541,40.25 121.246,39.554 120.289,38.618 C119.331,37.683 118.667,36.508 118.298,35.093 C117.928,33.679 117.743,32.014 117.743,30.099 L117.743,27.88 C117.743,25.617 117.982,23.68 118.461,22.07 C118.939,20.46 119.679,19.165 120.68,18.186 C121.681,17.207 122.987,16.489 124.597,16.032 C126.207,15.575 128.122,15.347 130.341,15.347 L144.18,15.347 L144.18,23.768 L131.255,23.768 C129.732,23.768 128.611,24.061 127.893,24.649 C127.175,25.236 126.816,26.422 126.816,28.206 L126.816,29.643 C126.816,31.035 127.143,32.025 127.795,32.613 C128.448,33.2 129.58,33.494 131.19,33.494 L152.014,33.494 C154.494,33.494 156.594,33.701 158.313,34.114 C160.032,34.527 161.435,35.191 162.523,36.105 C163.611,37.019 164.395,38.194 164.873,39.63 C165.352,41.066 165.591,42.785 165.591,44.787 L165.591,48.312 C165.591,50.401 165.352,52.174 164.873,53.632 C164.395,55.09 163.611,56.276 162.523,57.19 C161.435,58.104 160.032,58.778 158.313,59.213 C156.594,59.649 154.494,59.866 152.014,59.866 L117.677,59.866 Z M188.438,59.866 C185.175,59.866 182.455,59.594 180.279,59.05 C178.103,58.506 176.362,57.636 175.057,56.439 C173.751,55.242 172.826,53.676 172.282,51.739 C171.738,49.802 171.466,47.42 171.466,44.591 L171.466,39.826 C171.466,36.997 171.738,34.604 172.282,32.645 C172.826,30.687 173.751,29.109 175.057,27.913 C176.362,26.716 178.103,25.846 180.279,25.302 C182.455,24.758 185.175,24.486 188.438,24.486 L214.027,24.486 L214.027,32.841 L188.765,32.841 C187.242,32.841 185.991,32.95 185.011,33.168 C184.032,33.385 183.26,33.766 182.694,34.31 C182.128,34.854 181.737,35.605 181.519,36.562 C181.301,37.519 181.193,38.716 181.193,40.152 L181.193,44.33 C181.193,45.723 181.301,46.887 181.519,47.822 C181.737,48.758 182.128,49.509 182.694,50.074 C183.26,50.64 184.032,51.043 185.011,51.282 C185.991,51.521 187.242,51.641 188.765,51.641 L214.093,51.641 L214.093,59.866 L188.438,59.866 Z M221.143,59.866 L221.143,39.369 C221.143,36.714 221.447,34.451 222.056,32.58 C222.666,30.709 223.634,29.175 224.961,27.978 C226.289,26.781 227.997,25.9 230.086,25.334 C232.175,24.768 234.72,24.486 237.723,24.486 L244.055,24.486 L244.055,32.384 L237.984,32.384 C236.635,32.384 235.504,32.493 234.59,32.711 C233.676,32.928 232.947,33.298 232.403,33.82 C231.859,34.343 231.467,35.061 231.228,35.974 C230.989,36.888 230.869,38.042 230.869,39.434 L230.869,59.866 L221.143,59.866 L221.143,59.866 Z M258.286,45.766 L258.286,47.398 C258.286,48.486 258.373,49.356 258.547,50.009 C258.721,50.662 259.036,51.173 259.493,51.543 C259.95,51.913 260.559,52.163 261.321,52.294 C262.083,52.424 263.029,52.49 264.161,52.49 L275.649,52.49 L275.649,59.866 L264.161,59.866 C258.547,59.866 254.543,58.8 252.149,56.667 C249.756,54.535 248.559,51.119 248.559,46.419 L248.559,38.259 C248.559,35.692 248.809,33.527 249.31,31.764 C249.81,30.002 250.681,28.587 251.921,27.521 C253.161,26.455 254.804,25.682 256.849,25.204 C258.895,24.725 261.484,24.486 264.618,24.486 L281.72,24.486 C284.244,24.486 286.344,24.725 288.02,25.204 C289.695,25.682 291.022,26.346 292.002,27.195 C292.957439,28.0082364 293.669059,29.0701289 294.058,30.263 C294.449,31.459 294.645,32.754 294.645,34.147 L294.645,45.766 L258.286,45.766 L258.286,45.766 Z M284.919,34.93 C284.919,33.755 284.625,32.972 284.038,32.58 C283.45,32.188 282.417,31.993 280.937,31.993 L264.748,31.993 C263.53,31.993 262.507,32.047 261.68,32.156 C260.853,32.265 260.19,32.515 259.689,32.906 C259.189,33.298 258.83,33.864 258.612,34.604 C258.394,35.343 258.286,36.344 258.286,37.606 L258.286,39.499 L284.919,39.499 L284.919,34.93 L284.919,34.93 Z M311.095,45.766 L311.095,47.398 C311.095,48.486 311.182,49.356 311.356,50.009 C311.53,50.662 311.846,51.173 312.303,51.543 C312.76,51.913 313.369,52.163 314.131,52.294 C314.892,52.424 315.839,52.49 316.97,52.49 L328.459,52.49 L328.459,59.866 L316.97,59.866 C311.356,59.866 307.353,58.8 304.959,56.667 C302.566,54.535 301.369,51.119 301.369,46.419 L301.369,38.259 C301.369,35.692 301.619,33.527 302.12,31.764 C302.62,30.002 303.49,28.587 304.731,27.521 C305.971,26.455 307.614,25.682 309.659,25.204 C311.704,24.725 314.294,24.486 317.427,24.486 L334.53,24.486 C337.054,24.486 339.154,24.725 340.829,25.204 C342.505,25.682 343.832,26.346 344.811,27.195 C345.766753,28.0079558 346.478438,29.0699445 346.867,30.263 C347.259,31.459 347.455,32.754 347.455,34.147 L347.455,45.766 L311.095,45.766 L311.095,45.766 Z M337.729,34.93 C337.729,33.755 337.435,32.972 336.847,32.58 C336.26,32.188 335.226,31.993 333.747,31.993 L317.558,31.993 C316.339,31.993 315.317,32.047 314.49,32.156 C313.663,32.265 312.999,32.515 312.499,32.906 C311.998,33.298 311.639,33.864 311.422,34.604 C311.204,35.343 311.095,36.344 311.095,37.606 L311.095,39.499 L337.729,39.499 L337.729,34.93 L337.729,34.93 Z M390.408,59.866 L390.408,40.152 C390.408,38.673 390.288,37.465 390.049,36.529 C389.809,35.594 389.396,34.854 388.808,34.31 C388.221,33.766 387.416,33.385 386.393,33.168 C385.37,32.95 384.076,32.841 382.509,32.841 L371.934,32.841 C370.411,32.841 369.138,32.95 368.115,33.168 C367.093,33.385 366.277,33.766 365.667,34.31 C365.058,34.854 364.634,35.594 364.394,36.529 C364.155,37.465 364.035,38.673 364.035,40.152 L364.035,59.866 L354.309,59.866 L354.309,39.826 C354.309,36.997 354.581,34.604 355.125,32.645 C355.669,30.687 356.594,29.109 357.899,27.913 C359.205,26.716 360.946,25.846 363.122,25.302 C365.297,24.758 368.017,24.486 371.281,24.486 L383.097,24.486 C386.404,24.486 389.146,24.758 391.322,25.302 C393.497,25.846 395.238,26.716 396.544,27.913 C397.849,29.109 398.774,30.687 399.318,32.645 C399.862,34.604 400.134,36.997 400.134,39.826 L400.134,59.866 L390.408,59.866 L390.408,59.866 Z M449.223,50.466 C449.223,52.207 449.071,53.676 448.766,54.872 C448.461,56.069 447.863,57.037 446.971,57.777 C446.079,58.517 444.86,59.05 443.315,59.377 C441.77,59.703 439.758,59.866 437.277,59.866 L406.858,59.866 L406.858,52.229 L436.037,52.229 C437.342,52.229 438.256,52.011 438.778,51.576 C439.301,51.141 439.562,50.314 439.562,49.095 L439.562,47.92 C439.562,46.615 439.311,45.799 438.811,45.472 C438.311,45.146 437.473,44.983 436.298,44.983 L416.453,44.983 C414.452,44.983 412.831,44.787 411.59,44.395 C410.35,44.004 409.382,43.416 408.685,42.633 C407.989,41.849 407.521,40.881 407.282,39.728 C407.043,38.575 406.923,37.215 406.923,35.648 L406.923,32.972 C406.923,31.449 407.086,30.143 407.412,29.055 C407.739,27.967 408.272,27.086 409.012,26.411 C409.752,25.737 410.752,25.247 412.015,24.943 C413.277,24.638 414.865,24.486 416.78,24.486 L430.227,24.486 L430.227,31.862 L419.13,31.862 C418.172,31.862 417.487,32.036 417.074,32.384 C416.66,32.732 416.453,33.363 416.453,34.277 L416.453,35.909 C416.453,36.91 416.649,37.585 417.041,37.933 C417.433,38.281 418.064,38.455 418.934,38.455 L438.126,38.455 C440.389,38.455 442.238,38.64 443.674,39.01 C445.11,39.38 446.242,39.967 447.069,40.772 C447.896,41.577 448.461,42.622 448.766,43.906 C449.071,45.189 449.223,46.767 449.223,48.638 L449.223,50.466 Z M492.502,59.866 L492.502,40.152 C492.502,38.673 492.382,37.454 492.143,36.497 C491.904,35.539 491.501,34.789 490.935,34.245 C490.37,33.701 489.586,33.331 488.585,33.135 C487.584,32.939 486.344,32.841 484.864,32.841 L465.477,32.841 L465.477,59.866 L455.751,59.866 L455.751,13.062 L465.477,13.062 L465.477,24.486 L485.126,24.486 C488.433,24.486 491.185,24.758 493.383,25.302 C495.581,25.846 497.332,26.716 498.638,27.913 C499.944,29.109 500.868,30.687 501.412,32.645 C501.956,34.604 502.228,36.997 502.228,39.826 L502.228,59.866 L492.502,59.866 L492.502,59.866 Z M526.381,59.866 C523.117,59.866 520.397,59.594 518.221,59.05 C516.045,58.506 514.305,57.636 512.999,56.439 C511.694,55.242 510.769,53.676 510.225,51.739 C509.681,49.802 509.409,47.42 509.409,44.591 L509.409,39.826 C509.409,36.997 509.681,34.604 510.225,32.645 C510.769,30.687 511.694,29.109 512.999,27.913 C514.305,26.716 516.045,25.846 518.221,25.302 C520.397,24.758 523.117,24.486 526.381,24.486 L538.196,24.486 C541.504,24.486 544.245,24.758 546.421,25.302 C548.597,25.846 550.338,26.727 551.644,27.945 C552.949,29.164 553.874,30.752 554.418,32.711 C554.962,34.669 555.234,37.062 555.234,39.891 L555.234,44.591 C555.234,47.42 554.962,49.802 554.418,51.739 C553.874,53.676 552.949,55.242 551.644,56.439 C550.338,57.636 548.597,58.506 546.421,59.05 C544.245,59.594 541.504,59.866 538.196,59.866 L526.381,59.866 Z M545.507,40.152 C545.507,38.673 545.388,37.454 545.148,36.497 C544.909,35.539 544.474,34.789 543.843,34.245 C543.212,33.701 542.331,33.331 541.199,33.135 C540.068,32.939 538.631,32.841 536.891,32.841 L527.687,32.841 C525.946,32.841 524.521,32.939 523.411,33.135 C522.301,33.331 521.431,33.701 520.8,34.245 C520.169,34.789 519.734,35.539 519.494,36.497 C519.255,37.454 519.135,38.673 519.135,40.152 L519.135,44.33 C519.135,45.81 519.255,47.017 519.494,47.953 C519.734,48.889 520.169,49.628 520.8,50.172 C521.431,50.716 522.301,51.097 523.411,51.315 C524.521,51.532 525.946,51.641 527.687,51.641 L536.891,51.641 C538.631,51.641 540.068,51.532 541.199,51.315 C542.331,51.097 543.212,50.716 543.843,50.172 C544.474,49.628 544.909,48.889 545.148,47.953 C545.388,47.017 545.507,45.81 545.507,44.33 L545.507,40.152 Z M564.634,59.866 L564.634,32.384 L559.673,32.384 L559.673,24.486 L564.634,24.486 L564.634,14.498 L574.556,14.498 L574.556,24.486 L585.718,24.486 L585.718,32.384 L574.556,32.384 L574.556,59.866 L564.634,59.866 Z M632,50.466 C632,52.207 631.848,53.676 631.543,54.872 C631.239,56.069 630.64,57.037 629.748,57.777 C628.856,58.517 627.638,59.05 626.093,59.377 C624.548,59.703 622.535,59.866 620.055,59.866 L589.635,59.866 L589.635,52.229 L618.814,52.229 C620.12,52.229 621.034,52.011 621.556,51.576 C622.078,51.141 622.339,50.314 622.339,49.095 L622.339,47.92 C622.339,46.615 622.089,45.799 621.589,45.472 C621.088,45.146 620.25,44.983 619.075,44.983 L599.231,44.983 C597.229,44.983 595.608,44.787 594.368,44.395 C593.127,44.004 592.159,43.416 591.463,42.633 C590.767,41.849 590.299,40.881 590.059,39.728 C589.82,38.575 589.7,37.215 589.7,35.648 L589.7,32.972 C589.7,31.449 589.864,30.143 590.19,29.055 C590.516,27.967 591.049,27.086 591.789,26.411 C592.529,25.737 593.53,25.247 594.792,24.943 C596.054,24.638 597.643,24.486 599.557,24.486 L613.005,24.486 L613.005,31.862 L601.907,31.862 C600.95,31.862 600.265,32.036 599.851,32.384 C599.438,32.732 599.231,33.363 599.231,34.277 L599.231,35.909 C599.231,36.91 599.427,37.585 599.818,37.933 C600.21,38.281 600.841,38.455 601.711,38.455 L620.903,38.455 C623.166,38.455 625.016,38.64 626.452,39.01 C627.888,39.38 629.019,39.967 629.846,40.772 C630.673,41.577 631.239,42.622 631.543,43.906 C631.848,45.189 632,46.767 632,48.638 L632,50.466 Z" id="Shape" fill="#FFFFFF" fill-rule="nonzero" mask="url(#mask-2)"></path>
            </g>
        </g>
    </g>
</svg>