<svg viewBox="-226 60 1198 386" xmlns="http://www.w3.org/2000/svg" xml:space="preserve">
    <g fill="#fff">
        <path d="M970.8 328.88c-.32.78-.62 1.58-.97 2.35-2.5 5.44-8.84 8.05-14.52 5.98-5.8-2.12-9.01-8.26-7.36-14.08 1.36-4.76 5.19-7.99 10.17-8.55 4.56-.51 9.17 1.9 11.38 6.03.51.96.87 2 1.29 3 .01 1.75.01 3.51.01 5.27zm-1.8-2.64c0-5.45-4.26-9.76-9.68-9.81-5.41-.04-9.96 4.5-9.89 9.9.06 5.28 4.58 9.73 9.87 9.71 5.39-.03 9.7-4.37 9.7-9.8zM-19.9 136.29c.7 1.38.46 2.83.46 4.22.01 11.52-.02 23.04-.02 34.56v92.87c0 2.94.5 3.46 3.51 3.46 9.52.01 19.04 0 28.56-.01 2.91 0 3.27.34 3.3 3.31.02 2 .03 4 0 6-.03 2.68-.45 3.1-3.04 3.1-9.44 0-18.88-.01-28.32-.02-.56 0-1.12-.04-1.68.02-1.48.16-2.11.8-2.3 2.28-.06.47-.03.96-.03 1.44-.01 36.88-.03 73.75 0 110.63 0 2.63.14 5.29.57 7.87.54 3.32 3.02 4.33 5.77 2.37a24.29 24.29 0 0 0 4.56-4.21c4.15-4.96 6.87-10.74 9.06-16.78 1.52-4.2 2.98-8.43 4.31-12.69.96-3.04 1.65-6.17 2.49-9.25.38-1.38.78-2.77 1.28-4.11.38-1.03 1.17-1.49 2.3-1.09 1.28.44 2.62.76 3.83 1.35 1.53.74 1.81 1.45 1.41 3.12-.8 3.26-1.64 6.51-2.52 9.74-1.01 3.7-1.99 7.41-3.13 11.06-1.38 4.42-2.85 8.81-4.41 13.16-1.21 3.38-2.48 6.75-3.98 10-4.79 10.42-10.85 19.94-20.15 27-4.81 3.65-10.1 6.31-15.9 8.15-4.96 1.58-9.94 2.2-15.09 2.2-58.48-.01-116.95 0-175.43 0-.4 0-.8.01-1.2-.01-1.03-.04-1.65-.49-1.65-1.6.01-2.47 0-4.94 0-7.64 1.03-.09 1.87-.23 2.72-.24 5.36-.02 10.72-.01 16.08 0 3.41.01 3.53-.1 3.53-3.46V232.23c0-.56-.01-1.13.08-1.67.15-.92.7-1.45 1.67-1.26 1.02.2 2.03.45 3.03.73 1.54.43 3.04.98 4.59 1.36 3.96.97 7.91 1.95 11.9 2.76 2.18.44 4.46.42 6.66.82 9.12 1.64 18.33 1.68 27.51 1.09 6.76-.43 13.55-1.02 20.17-2.72 2.55-.66 5.1-1.31 7.66-1.93 2.49-.6 3.03-.18 3.03 2.38v33.6c0 .24-.01.48 0 .72.01 3 .29 3.29 3.29 3.3 2.4 0 4.8.02 7.2-.01 2.65-.03 3.1-.51 3.09-3.08-.02-13.12-.04-26.24-.05-39.35 0-2.82.61-3.5 3.04-4.45 4.52-1.78 9.11-3.48 13.42-5.69 4.53-2.33 8.93-5 13.11-7.92 12.76-8.91 23.57-19.85 32.78-32.39 5.84-7.95 10.89-16.37 15.06-25.28 2.23-4.76 3.92-9.77 5.84-14.67.39-.97.64-2.01 2.03-2.28zm-69.39 299.92c-.18-.68-.18-.86-.27-.98-.24-.31-.5-.63-.8-.88-4.06-3.46-7.4-7.53-10.17-12.05-2.44-3.98-4.22-8.25-4.4-13.02-.07-1.84-.13-3.68-.13-5.52-.02-29.2-.02-58.4-.03-87.6 0-9.68-.01-19.36-.02-29.04 0-2.72-.52-3.3-3.15-3.34-2.56-.04-5.12-.04-7.68-.02-2.15.02-2.63.51-2.74 2.7-.02.4 0 .8 0 1.2 0 13.04.01 26.08.01 39.12 0 35.44 0 70.88-.01 106.32 0 3.35.14 3.46 3.54 3.47 7.84.01 15.68.04 23.52.04.73 0 1.46-.24 2.33-.4z"/>
        <path d="M-142.86 60.41c.24 0 .48.01.72 0 6.4-.35 12.5 1.15 18.59 2.88 6.83 1.94 13.1 5 18.97 8.96 8.42 5.68 15.14 12.95 20.41 21.62 2.71 4.46 4.82 9.2 6.45 14.13 1.63 4.94 2.44 10.07 3.01 15.25.72 6.52.08 12.98-1.15 19.33-1.15 5.94-3.21 11.66-6.01 17.11-4.45 8.67-10.39 16.1-17.91 22.24-6.23 5.09-13.17 8.9-20.79 11.62-11.22 4-22.69 4.56-34.28 2.82-6.23-.94-12.19-3.02-17.91-5.85-4.39-2.18-8.56-4.64-12.39-7.66-6.51-5.15-12.03-11.19-16.39-18.3-2.65-4.31-4.88-8.83-6.45-13.6-2.47-7.47-3.87-15.17-3.72-23.09.13-7.09 1.34-14.03 3.61-20.71 3.63-10.69 9.56-19.98 17.77-27.79 4.84-4.6 10.21-8.5 16.16-11.48 5.57-2.79 11.46-4.72 17.56-6.16 4.57-1.11 9.13-1.25 13.75-1.32zm712.66 76.63h-13.47v-4.85c6.11-.06 12.25.09 18.36-.25 6.03-.34 12.04-1.18 18.29-1.82v141.66c4.68.45 9.21-.05 13.8.31v4.62c-.61.07-1.22.2-1.82.2-2.48.02-4.96.04-7.44 0-8.01-.12-15.98.44-23.92 1.45-1.1.14-2.21.2-3.54.31v-11.43c-1.95-.61-3.17-.25-4.45 1.31-7.57 9.16-17.51 12.6-29.09 11.1-14.47-1.87-24.24-10.46-30.07-23.28-6.29-13.86-6.24-28.23.04-42.1 5.16-11.39 13.86-19.25 26.28-22.34 5.73-1.42 11.56-1.6 17.35-.26 6.6 1.53 11.63 5.48 15.86 10.57 1 1.2 1.99 2.07 3.65 1.45.45-1.66.64-62.33.17-66.65zm-42.02 98.72c0 7.12-.08 14.24.03 21.36.06 3.86.91 7.61 2.65 11.11 1.67 3.36 4.38 5.51 8 6.32 1.77.4 3.66.53 5.48.45 9.55-.45 16.6-5.18 21.68-13.05 3.14-4.86 4.16-10.33 4.17-16.03.01-7.2-.07-14.4.02-21.6.13-10.49-4.71-18.37-12.78-24.52-4.36-3.32-9.37-4.72-14.87-4.31-7.12.53-11.25 3.78-13 10.66-.72 2.85-1.25 5.82-1.33 8.74-.17 6.94-.04 13.91-.05 20.87zM679.17 137v-4.82c6.21-.06 12.35.11 18.46-.23 6.13-.34 12.22-1.18 18.61-1.83v73.44c1.94.68 3.19.28 4.38-1.16 3.22-3.93 6.95-7.28 11.7-9.33 4.51-1.94 9.25-2.36 14.09-2.18 19.3.71 33.5 15.67 37.08 32.42 2.65 12.39 1.81 24.53-4.47 35.85-4.29 7.74-10.26 13.93-18.43 17.58-9.07 4.05-18.38 4.53-27.72.78-4.79-1.92-8.64-5.16-11.87-9.09-1.15-1.4-2.34-1.67-4.11-1.27v11.29c-6.39-.46-12.56-1.08-18.74-1.3-6.22-.22-12.46-.05-18.89-.05v-5.09h14.44v-134.9c-2.32-.22-4.7-.07-7.06-.1-2.41-.03-4.8-.01-7.47-.01zm80 99.43h-.03c0-6.88.06-13.76-.02-20.64-.05-3.69-.67-7.32-1.75-10.86-1.42-4.67-4.49-7.66-9.23-8.85-4.13-1.04-8.26-.98-12.28.47-6.87 2.48-11.72 7.35-15.44 13.42-2.24 3.66-3.56 7.68-3.56 12.04-.01 8.48-.04 16.96.02 25.44.04 5.93 1.84 11.36 5.4 16.1 5.5 7.35 12.73 11.55 22.1 11.46 6.77-.06 11.39-3.47 13.31-9.98.76-2.58 1.35-5.31 1.43-7.99.18-6.84.05-13.73.05-20.61zm-571.72 35.58h13.36v4.78h-49.39v-4.74h12.42c.1-.8.25-1.4.25-2.01.01-19.75.02-39.51-.03-59.26-.01-2.06-.32-4.14-.68-6.18-.6-3.43-2.87-5.21-6.19-5.8-4.7-.83-9.05.07-13.06 2.65-4.26 2.75-7.42 6.54-10.04 10.8-3.42 5.57-5.25 11.65-5.27 18.19-.05 13.2-.02 26.39-.02 39.59 0 .54.06 1.08.11 1.93h13.27v4.56c-1.76.5-48.44.6-51.1.1v-4.53c4.79-.33 9.62.06 14.55-.22v-74.26H91.11v-5c12.34.2 24.61.02 37.12-1.75v19.04c1.53.64 2.08-.04 2.8-.97 2.43-3.16 4.78-6.43 7.57-9.26 6.64-6.72 14.96-9.31 24.25-8.75 3.24.19 6.55.66 9.66 1.58 8.25 2.42 12.91 8.23 14.39 16.58.42 2.34.51 4.77.52 7.16.04 17.51.02 35.03.02 52.54.01.94.01 1.88.01 3.23zm649.28-.07h15.46v4.83h-54.97c-.05-.75-.12-1.5-.14-2.26-.02-.71-.01-1.43-.01-2.46 5.53-.22 10.93.02 16.48-.14V137.12c-2.63-.24-5.32-.07-8-.1-2.71-.03-5.42-.01-8.31-.01v-4.93c13.12.25 26.19.14 39.48-2.22.01 47.55.01 94.68.01 142.08zm-351.86-42.48h-54.93c-.09.77-.23 1.37-.23 1.97-.01 8-.01 16-.01 24 0 2.82.34 5.61 1.44 8.22 2.85 6.76 8.06 10.52 15.3 10.95 13.51.81 23.34-5.33 30.02-16.81 1.43-2.46 2.39-5.2 3.6-7.9h4.61c-.02.46.03.84-.07 1.18-2.71 9.53-7.55 17.6-16.1 23.04-5.52 3.51-11.68 5.16-18.12 5.69-8.7.71-17.13-.37-24.81-4.81-11.21-6.48-18.42-16.07-20.6-28.88-2.7-15.88 1.05-30.17 12.03-42.25 8.61-9.48 19.29-13.83 32.15-12.9 8.55.62 16.19 3.35 22.89 8.77 8.78 7.1 13.61 18.01 12.83 29.73zm-24.39-6.2c0-5.26.01-10.28-.02-15.3 0-.63-.18-1.26-.33-1.88-1.16-4.83-3.97-8.06-8.91-9.3-3.63-.91-7.27-1.01-10.92-.24-5.46 1.16-8.92 4.43-10.02 9.97-.33 1.63-.5 3.32-.54 4.98-.08 3.27-.03 6.55-.02 9.82 0 .61.08 1.23.14 1.95h30.62zm482.17 6.29h-55.08c-.07.75-.19 1.36-.19 1.98-.01 7.92-.07 15.84.03 23.76.03 2.14.32 4.33.87 6.39 2.03 7.6 8.38 12.53 16.25 13.02 14.6.91 26.2-8.2 31.25-19.97.66-1.54 1.23-3.11 1.88-4.77h5.1c-.61 1.86-1.08 3.52-1.69 5.13-3.59 9.51-9.51 16.95-18.95 21.25-4.26 1.94-8.78 2.98-13.41 3.42-18.48 1.76-33.25-6-41.98-21.82-3.6-6.52-4.9-13.66-4.81-21.05.17-13.86 5.08-25.74 15.15-35.37 8.26-7.91 18.14-11.33 29.55-10.57 7 .47 13.56 2.22 19.45 6.08 11.17 7.33 16.75 17.71 16.73 31.07-.01.38-.08.76-.15 1.45zm-55.28-6.37c4.74.5 29.29.3 31.02-.22 0-4.61.1-9.24-.05-13.87-.06-1.72-.6-3.46-1.16-5.12-1.24-3.69-3.91-5.95-7.59-7.04-3.75-1.11-7.57-1.19-11.39-.43-5.73 1.14-9.19 4.68-10.29 10.34-1.05 5.37-.4 10.81-.54 16.34zm-578.88-25.62v-4.73c.64-.07 1.25-.19 1.85-.2 2.48-.02 4.96-.05 7.44 0 8.33.15 16.62-.42 24.88-1.42.93-.11 1.86-.14 3.07-.22v20.45c1.24.68 1.8.28 2.34-.62 1.39-2.33 2.74-4.7 4.33-6.9 3.47-4.81 7.76-8.71 13.34-10.97 5.4-2.18 10.97-2.82 16.67-1.35 8.75 2.26 12.82 12.4 8.12 20.13-1.79 2.94-4.43 4.64-7.85 4.79-2.05.09-4.17-.06-6.18-.48-4.51-.94-6.99-4.06-7.17-8.65-.05-1.28.03-2.57-.09-3.84-.29-2.96-1.18-3.57-4.1-3-2.84.55-5.27 1.92-7.3 3.9-7.37 7.2-11.43 15.92-11.54 26.27-.12 11.03-.03 22.07-.03 33.11 0 2-.01 4 .01 6 .01.62.08 1.24.15 2.08h18.7v4.62c-1.67.49-53.7.61-56.55.1v-4.54c2.39-.25 4.83-.09 7.26-.12 2.37-.03 4.75-.01 7.24-.01v-74.4h-14.59zm-19.25 52.41h5.09c-1.18 5.05-3.06 9.6-5.76 13.77-5.99 9.25-14.66 14.21-25.45 15.72-6.41.9-12.77.75-19.01-1.05-11.07-3.18-19.03-10.21-24.39-20.24-4.31-8.07-5.47-16.8-4.72-25.82.66-7.93 2.91-15.38 7.45-22 7.94-11.57 18.79-18.21 32.89-19.31 6.6-.51 13.11-.11 19.41 2.03 5.34 1.81 9.99 4.69 13.18 9.49 2.93 4.4 3.88 9.27 2.82 14.43-.92 4.44-3.79 7.18-8.23 7.99-4.18.76-8.18.2-11.37-2.94-3.61-3.56-4.23-10.01-1.45-14.68.86-1.44 1.95-2.73 2.92-4.09 1.25-1.74 1.23-2.98-.33-4.39-.87-.78-1.93-1.51-3.03-1.84-5.98-1.81-12.01-1.89-17.88.35-5.48 2.09-8.25 6.59-9.73 11.99-1.2 4.34-1.59 8.8-1.59 13.3-.01 10.88-.04 21.75.02 32.63.01 2.14.22 4.33.68 6.42 1.51 6.89 5.92 11.02 12.74 12.42 10.02 2.06 18.62-.87 25.97-7.81 4.15-3.92 7.14-8.58 8.92-14.01.27-.78.55-1.52.85-2.36zM30.61 197.55v-4.73c.57-.06 1.18-.18 1.78-.19 2.88-.02 5.76-.05 8.64 0 7.85.12 15.66-.48 23.44-1.41.93-.11 1.87-.15 3.14-.24.06 27.02.12 53.85.19 80.96h15.35v4.85H28.2c-.05-.76-.12-1.52-.15-2.28-.03-.71-.01-1.43-.01-2.41h16.01c.56-1.94.7-71.47.18-74.54-4.46-.01-8.98-.01-13.62-.01zm625.18 74.42h15.42v4.83h-54.93v-4.81h16.31v-74.36h-13.87v-5.02c12.26.16 24.53.08 37.08-1.81-.01 27.23-.01 54.06-.01 81.17zm-176.04 57v50.8h-8.08c-.49-1.77-.66-61.61-.18-65.66 1.57-.38 3.23-.11 4.87-.18.56-.03 1.14.09 1.68-.02 1.9-.37 2.84.67 3.81 2.12 10.65 15.96 21.35 31.89 32.05 47.82.25.38.54.73 1.26 1.01v-50.79h8.21v65.7c-2.72.26-5.49.19-8.24.03-.59-.04-1.24-.89-1.66-1.5-3.28-4.82-6.52-9.68-9.77-14.53-7.52-11.22-15.04-22.45-22.57-33.67-.29-.43-.65-.82-.98-1.23-.13.03-.26.06-.4.1zm311.4 3.55c-2.42.64-4.93 1.3-7.61 2.01-.38-1.03-.72-1.91-1.03-2.8-2.08-5.98-6.41-9.45-12.44-10.79-5.68-1.27-11.27-.83-16.66 1.54-4.37 1.92-7.52 5.09-9.64 9.29-3.01 5.96-3.75 12.34-3.15 18.91.29 3.19.88 6.32 2.14 9.31 2.95 7.01 8.44 10.9 15.64 12.5 8.6 1.92 16.46-.18 23.77-4.84 1.22-.77 1.68-1.72 1.65-3.16-.09-3.34-.03-6.68-.03-10.27H764.7c-.26-2.68-.13-5.12-.11-7.51 1.84-.56 22.6-.76 27.8-.3.07.56.21 1.16.21 1.77.02 6.96-.01 13.92.03 20.88.01 1.14-.32 1.9-1.27 2.61-7.27 5.47-15.33 8.91-24.49 9.32-7.42.33-14.46-1.18-20.93-4.98-6.22-3.66-10.26-9.1-12.5-15.84-3.08-9.28-2.79-18.56.59-27.74 3.73-10.11 10.87-16.36 21.38-18.67 7.34-1.62 14.61-1.41 21.72 1.24 7.9 2.94 12.23 8.9 14.16 16.86.04.13-.05.29-.14.66zm-68.91 14.5c.14 5.48-.88 10.88-3.12 16-3.87 8.85-10.57 14.5-19.93 16.85-10.64 2.66-20.47.98-29.13-6.01-4.62-3.73-7.61-8.63-9.35-14.23-3.16-10.17-2.73-20.27 1.8-29.92 4.56-9.71 12.54-15.1 23.1-16.6 6.13-.87 12.14-.24 17.87 2.21 8.98 3.85 14.53 10.7 17.22 19.99 1.1 3.78 1.61 7.65 1.54 11.71zm-9.03.11c-.06-1.44-.05-2.88-.2-4.31-.56-5.24-1.89-10.26-5.29-14.42-5.78-7.08-13.42-9.4-22.13-7.54-8.28 1.77-13.99 6.76-16.29 15.16-1.6 5.87-1.8 11.83-.96 17.83 1.36 9.74 8.32 18.16 19.19 19.49 9.75 1.19 18.52-3.23 22.8-12 2.18-4.48 2.84-9.28 2.88-14.21zm-146.39-34.35c12.06.26 21.69 4.85 27.72 15.71 2.32 4.17 3.56 8.71 4.02 13.46.64 6.6.2 13.09-2.18 19.36-3.66 9.67-10.45 15.92-20.46 18.51-10.25 2.65-19.83 1.18-28.4-5.28-6.38-4.82-9.89-11.5-11.36-19.16-1.61-8.4-1.1-16.77 2.44-24.68 4.62-10.32 12.74-16.1 23.91-17.64 1.11-.15 2.23-.19 3.35-.27.32-.03.64-.01.96-.01zm-22.54 34.52c.25 2.46.35 4.95.78 7.37 1.76 10.06 8.81 17.16 18.69 18.6 10.93 1.6 20.43-4.11 23.93-13.8 3.16-8.75 2.96-17.58-.51-26.24-1.33-3.31-3.44-6.14-6.32-8.3-6.43-4.84-13.56-5.9-21.1-3.41-7.06 2.33-11.83 7.06-13.84 14.38-1.02 3.74-1.47 7.52-1.63 11.4zm296.27-5.47h36.24v7.79c-6.05.1-12.09.03-18.13.05-5.98.01-11.96 0-18.11 0v22.37h40.37c.14 2.61.13 5.04.01 7.44-1.84.49-44.85.68-48.92.25-.48-1.72-.57-63.05-.07-65.69h47.34v7.57h-38.72c-.01 6.82-.01 13.4-.01 20.22zm99.94-9.23c-2.75.22-5.36.42-8 .63-.18-.51-.36-.87-.43-1.25-1.19-6.79-5.2-10.11-11.52-11.04-4.13-.61-8.3-.55-12.34.76-2.35.76-4.29 2.09-5.71 4.15-2.77 4.01-1.68 9.44 2.74 11.45 3.46 1.57 7.22 2.51 10.89 3.57 4.29 1.24 8.69 2.15 12.93 3.53 2.32.75 4.58 1.94 6.6 3.32 8.55 5.85 8.54 16.69 4.07 23.43-3.34 5.03-8.21 7.75-13.92 9.03-7.1 1.59-14.2 1.18-21.04-1.21-8.38-2.93-13.09-9.08-14.48-17.8-.11-.7-.08-1.42-.12-2.39 2.68-.26 5.26-.52 8.01-.79.23.81.47 1.46.6 2.14 1.09 5.68 4.4 9.48 9.81 11.41 6.42 2.29 12.84 2.39 19.18-.32 3.18-1.36 5.42-3.65 6.21-7.13.84-3.72-.2-6.87-3.32-9.07-1.54-1.09-3.31-2.01-5.11-2.54-4.9-1.45-9.88-2.61-14.81-3.97-3.7-1.02-7.39-2.07-10.66-4.2-3.49-2.27-5.98-5.28-7.01-9.36-2.07-8.18 2.49-16.74 10.7-19.9 8.34-3.2 16.75-3.09 25.06.14 7.13 2.75 11.94 9.96 11.67 17.41zm-616.35-18.54v7.64h-38.76v20.05h36.27v7.87h-36.27v22.46h40.2v7.67h-48.66c-.54-1.76-.65-62.92-.1-65.69h47.32zm123.92 34.83h-34.29c-.05 10.24.01 20.44-.03 30.82h-8.61v-65.66c1.34-.04 2.73-.1 4.13-.12 1.35-.02 2.7 0 4.39 0 .2 3.04.08 5.96.1 8.88.02 3.04 0 6.08 0 9.11v8.88h34.28v-26.73h8.33c.49 1.64.65 62.2.14 65.68h-8.45c.01-10.32.01-20.51.01-30.86zm-55.61-16.8-8.18 1.91c-.62-1.4-1.16-2.63-1.72-3.84-2.68-5.79-7.23-9.07-13.53-9.71-6.53-.66-12.58.63-17.55 5.29-2.19 2.06-3.8 4.5-4.81 7.35-3.21 9.08-3.18 18.17-.12 27.26 2.96 8.81 10.43 12.71 17.99 13.12 6.71.36 12.42-1.84 16.55-7.38 1.74-2.33 2.85-4.98 3.59-7.79.12-.45.27-.89.46-1.5l8.58 2.11c-.24.91-.4 1.66-.63 2.4-4.08 13.19-14.32 20.2-28.27 19.7-2.54-.09-5.1-.44-7.59-.98-7.65-1.64-13.38-6.03-16.97-12.92-5.77-11.11-6.67-22.77-2.75-34.62 3.4-10.24 10.79-16.4 21.2-18.83 6.51-1.52 13.03-1.33 19.31 1.25 7.45 3.06 12.02 8.74 14.42 16.3.08.21.02.47.02.88zm-125.56-18.07v7.64h-21.78v58.11h-8.71c-.02-19.27 0-38.5-.01-58.03h-21.71v-7.72h52.21zm343.06.01h8.56v58.05h32.63v7.38c-1.67.52-38.25.65-41.2.12.01-21.76.01-43.54.01-65.55zm205.65 65.75h-8.39v-65.8c2.72-.13 5.47-.09 8.39-.01v65.81zM630.26 149.51c-.07-7.01 5.15-12.41 12.07-12.49 6.81-.08 12.41 5.37 12.5 12.17.09 6.82-5.28 12.32-12.18 12.47-6.9.15-12.33-5.18-12.39-12.15zm-563.59-.22c.06 6.87-5.31 12.31-12.23 12.38-6.87.07-12.36-5.37-12.37-12.25-.01-6.89 5.41-12.39 12.24-12.4 6.89-.02 12.3 5.36 12.36 12.27zM964.53 332.5c-1.64.5-2.57.09-3.15-1.25-.35-.8-.87-1.52-1.35-2.25-.86-1.33-2-2.01-3.8-1.38-.07 1.59-.14 3.23-.22 4.94h-1.81v-12.27c2.45-.21 4.91-.39 7.3.13 2.45.53 3.12 3.8 1.24 5.54-.52.48-1.18.79-1.81 1.19.63.85 1.31 1.69 1.92 2.58.55.85 1.05 1.75 1.68 2.77zm-8.26-6.92c.85 0 1.55.01 2.25 0 .4 0 .8 0 1.19-.05 1.03-.13 1.84-.56 1.97-1.71.12-1.01-.6-1.82-1.95-1.97-1.13-.13-2.29-.03-3.47-.03.01 1.4.01 2.48.01 3.76z"/>
    </g>
</svg>
