<svg viewBox="0 0 264 42" xmlns="http://www.w3.org/2000/svg">
    <path d="M446.823 0c-.672 0-1.056.573-1.056 1.284l-.141 13.848c0 .672.573 1.023 1.284 1.023l6.36-.054c.714 0 1.284-.381 1.284-1.056V12.48c0-.675-.57-1.041-1.284-1.041l-4.107.018c-.708 0-1.299-.351-1.299-1.023v-9.15c0-.711-.366-1.284-1.041-1.284Zm31.113 0c-.087 0-.168.018-.243.036-.525.12-.816.624-.816 1.248l-.156 13.848c0 .42.231.702.573.864a1.59 1.59 0 0 0 .468.141c.084.009.171.018.261.018l6.342-.054c.711 0 1.281-.381 1.281-1.056V12.48c0-.675-.57-1.041-1.281-1.041l-4.11.018c-.708 0-1.281-.351-1.281-1.023l-.018-9.15c0-.711-.348-1.284-1.02-1.284ZM378.45.018c-.711 0-1.299.399-1.299 1.074l.069 2.079-.069 11.631c0 .711.366 1.281 1.038 1.281.084 0 .15 0 .225-.015.525-.12.834-.645.834-1.266v-9.15c0-.675.573-1.059 1.281-1.059h.885c.711 0 1.281.384 1.281 1.059l.867 4.869c0 .711.348 1.284 1.023 1.284h2.271c.084 0 .168-.003.243-.018.522-.105.816-.558 1.143-1.197 0 0 2.613-6.243 2.721-6.48.234-.513.885-.429.885.069v9.303l.033 1.371c0 .711.348 1.302 1.023 1.302l2.616.015c.087 0 .156 0 .228-.015a.883.883 0 0 0 .189-.072c.342-.177.501-.606.834-1.194l1.959-4.281c.318-.621.744-1.047 1.281-1.059h3.243c.711 0 1.281.384 1.281 1.059l.174 4.557c-.009.462.234.72.606.867.126.051.267.093.417.123.6.111 1.368.066 1.995.084.597.018 1.524-.378 1.524-1.038l.033-14.142c0-.675-.57-1.041-1.281-1.041h-6.864c-.708 0-1.08.36-1.281 1.041 0 0-4.515 11.403-4.629 11.664a.334.334 0 0 1-.066.087.721.721 0 0 1-.279.12c-.258.06-.57 0-.57-.33l-.021-11.16c0-.711-.294-1.371-.969-1.371h-2.427c-.675 0-.921.453-1.404 1.284 0 0-2.862 7.059-3.033 7.383a.577.577 0 0 1-.192.207.498.498 0 0 1-.225.105c-.162.024-.321-.051-.366-.276l-1.401-7.677c0-.675-.573-1.077-1.281-1.077h-4.545Zm125.289 0c-.711 0-1.299.366-1.299 1.041l-.069 14.001c0 .252.087.459.225.627.141.165.324.291.555.363a1.823 1.823 0 0 0 .501.069l2.184.018v.018h5.337c.09 0 .18-.009.261-.018a1.59 1.59 0 0 0 .243-.054c.462-.129.78-.447.78-.951 0-.675-.573-1.077-1.284-1.077h-5.337v.036c-.684-.018-1.23-.417-1.23-1.074l.087-7.383c0-.675.57-1.023 1.281-1.023h5.271c.711 0 1.299-.351 1.299-1.023V1.125c0-.672-.591-1.056-1.299-1.056l-7.506-.051Zm22.896 0c-.09 0-.177.006-.258.018-.588.075-1.038.432-1.038 1.023-.003.351.003.69 0 1.038-.027 3.981-.111 7.98-.054 11.958.003.246-.039.507-.054.765-.006.129 0 .258.021.381a.947.947 0 0 0 .12.345c.168.285.411.468.675.573.267.108.57.132.867.123.468-.012.912.036 1.335.015.141-.006.285-.027.417-.051.522-.093.957-.351 1.248-1.038l.174-4.56c0-.672.57-1.056 1.281-1.056h3.465c.711 0 1.284.381 1.284 1.056l.054 4.281c0 .711.345 1.284 1.02 1.284.084 0 .168 0 .243-.018.525-.12.831-.645.831-1.266V9.015c0-1.011-.885-1.338-1.542-1.665a2.386 2.386 0 0 1-.504-.312.534.534 0 0 1-.192-.417c0-.891-.015-5.562-.015-5.562 0-.675-.576-1.041-1.284-1.041h-8.094Zm15.375 0c-.09 0-.177.006-.261.018-.585.075-1.038.432-1.038 1.023l-.069 14.004c0 .336.15.597.381.777.06.048.12.087.192.123.204.105.444.156.711.156h8.925c.711 0 1.284-.384 1.284-1.056l-.069-14.004c0-.675-.573-1.041-1.284-1.041h-8.772Zm13.881 0c-.087 0-.177.006-.258.018a1.452 1.452 0 0 0-.453.138c-.342.171-.57.498-.57.918l.066 2.079-.066 11.631c0 .621.276 1.146.798 1.266.072.015.141.015.225.015.084 0 .168 0 .243-.015.525-.12.831-.645.831-1.266v-9.15c0-.675.573-1.059 1.281-1.059h4.698c.711 0 1.284.384 1.284 1.059l.051 9.114c0 .711.348 1.284 1.023 1.284.084 0 .165 0 .243-.018.522-.12.831-.642.831-1.266l-.021-10.137.021-3.537c0-.675-.591-1.074-1.302-1.074h-8.925Zm22.047 0c-.534 0-1.002.204-1.197.591a.974.974 0 0 0-.087.45l-.087 14.004c0 .252.087.456.228.624.231.276.612.432 1.056.432l7.521.036c.708 0 1.281-.348 1.281-1.023 0-.672-.573-1.074-1.281-1.074l-5.271.036c-.708 0-1.299-.402-1.299-1.077l.087-7.383c0-.672.57-1.023 1.281-1.023h5.271c.711 0 1.299-.348 1.299-1.023v-2.46c0-.675-.588-1.059-1.299-1.059l-7.503-.051Zm-6.309.018a.925.925 0 0 0-.882.555 1.61 1.61 0 0 0-.141.468 1.833 1.833 0 0 0-.018.258l.069 9.24c0 .504-.264.837-.693.972a1.758 1.758 0 0 1-.225.051c-.081.012-.171 0-.261 0h-.486c-.708 0-1.401.348-1.401 1.023v2.46c0 .336.171.597.432.78.066.045.132.087.207.12.225.105.498.156.762.156h4.23c.711 0 1.284-.384 1.284-1.056v-2.46c0-.108-.006-.195-.021-.279-.093-.585-.501-.657-.9-.729a1.688 1.688 0 0 1-.486-.138c-.246-.123-.417-.354-.417-.9v-9.24c.003-.708-.378-1.281-1.053-1.281ZM412.404.069c-.711 0-1.302.384-1.302 1.059v2.46c0 .675.591 1.023 1.302 1.023h1.611c.708 0 1.281.351 1.281 1.023l-.066 9.237c0 .711.366 1.284 1.038 1.284.084 0 .15 0 .225-.018.525-.12.831-.642.831-1.266V5.634c0-.591.435-.927 1.023-1.005.084-.012.171-.018.261-.018h4.437c.708 0 1.281.351 1.281 1.023v9.237c0 .711.384 1.284 1.056 1.284.087 0 .171 0 .243-.018.519-.12.78-.642.78-1.266l-.069-9.237c0-.591.456-.927 1.038-1.005.084-.012.171-.018.261-.018h1.611c.711 0 1.281-.348 1.281-1.023v-2.46c0-.675-.57-1.059-1.281-1.059h-16.842Zm102.411 0a1.79 1.79 0 0 0-.501.069 1.252 1.252 0 0 0-.225.087c-.342.171-.573.48-.573.9v2.463c0 .672.591 1.023 1.299 1.023h1.614c.708 0 1.281.348 1.281 1.023l-.069 9.237c0 .354.087.687.261.918.042.06.102.111.153.156a.861.861 0 0 0 .624.207c.084 0 .15 0 .225-.018.525-.12.831-.642.831-1.263v-9.24c0-.588.438-.927 1.023-1.005a2.43 2.43 0 0 1 .261-.018h1.611c.708 0 1.281-.348 1.281-1.02V1.125c0-.675-.573-1.056-1.281-1.056h-7.815Zm83.001 0-7.608.054c-.087 0-.174.003-.258.015-.588.084-1.023.453-1.023 1.041l.087 7.071c0 .672.573 1.038 1.281 1.038l3.726.069c.711 0 1.284.402 1.284 1.074l-.087 2.583a.986.986 0 0 1-.105.45c-.129.258-.369.432-.675.519-.078.024-.159.024-.243.036a1.844 1.844 0 0 1-.261.018l-5.304.018c-.09 0-.174.006-.258.015-.588.078-1.023.435-1.023 1.023 0 .339.132.6.363.78.234.183.564.279.918.279h9.999c.357 0 .672-.087.903-.261a.903.903 0 0 0 .381-.762L600 8.178c0-.672-.591-1.02-1.299-1.02h-6.171c-.711 0-1.281-.351-1.281-1.026l-.087-2.928c0-.672.588-1.056 1.299-1.056l5.358.018c.711 0 1.281-.387 1.281-1.059 0-.672-.573-1.038-1.284-1.038ZM435.333.192c-.708 0-1.281.348-1.281 1.023v4.872c0 .708-.348 1.281-1.023 1.281l-1.389.036c-.708 0-1.284.348-1.284 1.023l-.084 6.636c0 .507.336.846.798.987.075.024.141.039.225.051.084.012.171.018.258.018l10.419.036c.708 0 1.281-.351 1.281-1.023 0-.672-.573-1.074-1.281-1.074l-8.163.036c-.714 0-1.284-.402-1.284-1.077l.066-2.478c0-.672.573-1.023 1.284-1.023l8.094.018a1.65 1.65 0 0 0 .483-.069c.465-.132.798-.465.798-.972 0-.588-.435-.954-1.023-1.038a1.802 1.802 0 0 0-.258-.018l-1.803-.018c-.09 0-.177-.006-.261-.018-.333-.045-.609-.174-.795-.399a.976.976 0 0 1-.228-.639l.069-3.033c0-.675.591-1.041 1.302-1.041h1.716c.711 0 1.281-.366 1.281-1.038 0-.675-.57-1.059-1.281-1.059h-6.636Zm31.095 0c-.444 0-.828.129-1.059.399a.878.878 0 0 0-.12.189.902.902 0 0 0-.105.432v4.872c0 .708-.348 1.281-1.02 1.281l-1.389.036c-.711 0-1.284.348-1.284 1.023l-.087 6.636a.95.95 0 0 0 .225.624c.141.168.342.294.573.363.078.024.159.042.243.054.081.009.168.018.258.018l10.398.033c.711 0 1.284-.348 1.284-1.023 0-.672-.573-1.074-1.284-1.074l-8.163.036c-.711 0-1.281-.402-1.281-1.074l.066-2.481c0-.672.591-1.02 1.302-1.02l8.076.015c.09 0 .177-.006.261-.015a2.05 2.05 0 0 0 .243-.054c.459-.129.777-.465.777-.969 0-.591-.435-.957-1.023-1.041a1.844 1.844 0 0 0-.261-.018l-1.8-.018a1.85 1.85 0 0 1-.261-.015c-.333-.048-.612-.177-.798-.399a1.005 1.005 0 0 1-.225-.642l.087-3.033c0-.672.573-1.041 1.281-1.041h1.716c.711 0 1.284-.366 1.284-1.038 0-.675-.573-1.056-1.284-1.056h-6.63Zm25.806 0c-.447 0-.846.129-1.077.399a1.012 1.012 0 0 0-.12.189.902.902 0 0 0-.105.432l.018 4.872c0 .708-.366 1.281-1.038 1.281l-1.371.036c-.711 0-1.281.348-1.281 1.023l-.087 6.636a.95.95 0 0 0 .225.624c.141.168.324.294.555.363.075.024.159.042.24.054.084.009.171.018.261.018l10.398.033c.711 0 1.299-.348 1.299-1.023 0-.672-.591-1.074-1.299-1.074l-8.145.036c-.711 0-1.302-.402-1.302-1.074l.087-2.481c0-.672.573-1.02 1.284-1.02l8.076.015c.09 0 .174-.006.261-.015a2 2 0 0 0 .24-.054c.465-.129.798-.465.798-.969 0-.591-.456-.957-1.038-1.041a1.844 1.844 0 0 0-.261-.018l-1.785-.018c-.087 0-.177-.003-.261-.015-.333-.048-.63-.177-.816-.399-.138-.168-.204-.39-.204-.642l.066-3.033c0-.672.573-1.041 1.284-1.041h1.716c.708 0 1.299-.366 1.299-1.038 0-.675-.591-1.056-1.299-1.056h-6.618Zm-89.379 2.13h2.859c.708 0 1.284.351 1.284 1.023l.087 3.015c0 .675-.576 1.059-1.284 1.059h-4.248c-1.458-.021-1.266-1.041-1.176-1.386l1.194-2.688c.345-.588.573-1.023 1.284-1.023Zm126.051 0h3.537c.711 0 1.284.351 1.284 1.023l.087 3.015c0 .675-.594 1.059-1.302 1.059h-3.675c-.711 0-1.281-.384-1.281-1.059l.069-3.015c0-.672.573-1.023 1.281-1.023Zm15.15 0h4.659c.711 0 1.284.351 1.284 1.023l.069 7.401c0 .675-.573 1.059-1.284 1.059h-4.8c-.711 0-1.281-.384-1.281-1.059l.069-7.401c0-.672.573-1.023 1.284-1.023ZM353.442 6.165s-16.401 63.003-16.839 64.431c-.573 1.863-2.346 2.472-3.276.324-1.143-2.292-13.563-44.847-13.563-44.847h-22.629s16.896 55.425 17.661 57.066c8.019 17.181 25.689 10.317 29.319-2.28 3.735-12.969 19.704-74.694 19.704-74.694h-10.377Zm-233.64 4.707L84.693 33.264c-.003-4.332 0-7.074 0-7.074H73.524v30.903c0 .771-1.452 2.184-2.748.291 0 0-14.871-21.327-20.262-27.774-4.473-5.358-20.082-5.082-20.139 7.602-.042 8.049.027 55.194.027 55.194h11.169V53.439c0-2.16 1.911-1.401 3.099-.063.549.624 24.471 37.047 25.548 38.505 2.442 3.288 14.502 5.721 14.502-6.726 0-8.919-.024-35.328-.03-49.581h10.905c1.143 0 2.601 1.284 2.601 1.287-.009 1.08-.177 35.07-.177 39.555 0 10.083 8.358 16.896 17.397 16.896h20.142v-9.795h-9.267c-3.321 0-5.934-2.439-5.934-5.757V39.549c0-2.055 1.65-4.968 4.941-4.968s10.317-.09 10.317-.09v-8.418h-13.857c-1.287 0-1.959-1.014-1.959-1.959l.003-13.242ZM.177 11.25S0 88.827 0 93.456l21.663-.027V11.253L.177 11.25Zm506.595 14.034c-10.413 0-19.758 4.341-26.253 11.256a33.9 33.9 0 0 0-1.11 1.257c-5.064 5.937-8.127 13.536-8.127 21.837 0 4.743 1.008 9.282 2.805 13.389.225.513.453 1.02.699 1.521 4.239 8.511 11.982 15.078 21.429 17.922.558.168 1.131.297 1.698.438a36.482 36.482 0 0 0 8.859 1.08c19.605 0 35.52-15.375 35.52-34.35s-15.912-34.35-35.52-34.35Zm-94.746.495c-13.026 0-23.124 9.318-23.124 22.569 0 13.65 15.057 17.991 23.007 18.828 5.001.525 9.822 3.984 9.822 8.886 0 3.945-3.408 7.134-7.077 7.134l-23.241-.09v9.795h25.728c.405 0 .795-.009 1.197-.03 12.462-.612 22.365-10.626 22.365-22.977 0-2.037-.114-3.843-.378-5.466-.069-.405-.156-.786-.234-1.17-2.229-10.329-10.326-12.327-22.95-15.669 0 0-6.696-2.082-6.696-6.108 0-2.52 1.458-4.248 3.45-5.175.201-.093.405-.186.615-.264 1.041-.384 2.184-.555 3.333-.555l15.756.057v-9.765h-21.573Zm-141.609.09s-.177 6.888-.177 11.517l21.663-.06v-11.46h-21.486v.003Zm91.998 0s-.147 6.888-.147 11.517l21.633-.06v-11.46h-21.486v.003Zm82.848 0s-.144 6.888-.144 11.517l21.63-.06v-11.46h-21.486v.003Zm-290.613.057c-6.213 0-10.734 3.219-12.951 8.508-.201.483-.363.978-.525 1.494-.654 2.055-.993 4.377-.993 6.9v33.006c0 10.083 5.433 17.274 14.469 17.274h32.451v-9.765h-19.326c-3.318 0-5.901-2.811-5.874-6.138V64.284h22.188v-9.765l-22.218-.06-.057-12.981c0-3.321 2.643-5.757 5.961-5.757h19.326v-9.795H154.65Zm37.011.117s-.177 45.741-.177 50.37c0 1.89.291 3.654.789 5.292.165.546.339 1.092.555 1.608 2.364 5.658 7.602 9.333 13.683 9.912.552.051 1.131.087 1.695.087h20.142v-9.795h-8.886c-3.321 0-5.934-2.439-5.934-5.757V26.043h-21.867Zm38.355 0s-.147 45.741-.147 50.37c0 9.456 6.735 16.026 15.024 16.812.552.051 1.104.087 1.668.087h20.142v-9.795h-9.24c-3.318 0-5.964-2.439-5.964-5.757V26.043h-21.483Zm358.788.147v30.903c0 .771-1.449 2.184-2.748.291 0 0-14.841-21.327-20.229-27.774-4.476-5.358-20.109-5.082-20.175 7.602-.036 8.049.03 55.194.03 55.194h11.169V53.439c0-2.16 1.908-1.401 3.099-.063.552.624 24.501 37.047 25.578 38.505.459.615 1.233 1.2 2.223 1.665.333.153.684.315 1.053.438 4.413 1.485 11.196.507 11.196-8.829 0-12.447-.03-58.965-.03-58.965h-11.166Zm-82.032 7.104c8.604 0 12.045 11.793 12.045 26.34 0 14.544-4.044 26.322-12.045 26.34-2.184.006-4.014-.714-5.553-2.046a11.987 11.987 0 0 1-2.076-2.427c-.153-.237-.324-.48-.468-.732-2.769-4.803-3.915-12.501-3.915-21.135 0-.909.012-1.803.027-2.691.153-7.965 1.044-14.886 3.771-19.149.153-.237.306-.45.468-.672 1.794-2.418 4.284-3.828 7.746-3.828Zm-236.355 8.304s-.177 47.229-.177 51.858l21.663-.027V41.598h-21.486Zm91.998 0s-.147 47.229-.147 51.858l21.633-.027V41.598h-21.486Zm82.848 0s-.144 47.229-.144 51.858l21.63-.027V41.598h-21.486Z" style="fill-opacity:1;fill:#fff" transform="scale(.44 .44423)"/>
</svg>
