<?xml version="1.0" encoding="UTF-8" standalone="no"?>
<!DOCTYPE svg PUBLIC "-//W3C//DTD SVG 1.1//EN" "http://www.w3.org/Graphics/SVG/1.1/DTD/svg11.dtd">
<svg width="100%" height="100%" viewBox="0 0 306 113" version="1.1" xmlns="http://www.w3.org/2000/svg" xmlns:xlink="http://www.w3.org/1999/xlink" xml:space="preserve" xmlns:serif="http://www.serif.com/" style="fill-rule:evenodd;clip-rule:evenodd;stroke-linejoin:round;stroke-miterlimit:2;">
    <g transform="matrix(1,0,0,1,-987,-1132)">
        <g id="irem.afdesign" transform="matrix(1,0,0,1,1140,1188.89)">
            <g transform="matrix(1,0,0,1,-320,-60)">
                <g transform="matrix(0.0793876,0,0,0.0793876,167.616,4)">
                    <g>
                        <rect x="0" y="0" width="439.5" height="439.5" style="fill:white;"/>
                        <path d="M1410.8,485.6L485.6,485.6L485.6,1410.8L925.1,1410.8L925.1,925.1L1410.8,925.1L1410.8,485.6Z" style="fill:white;fill-rule:nonzero;"/>
                        <rect x="0" y="485.6" width="439.5" height="925.1" style="fill:white;"/>
                        <path d="M1757.6,1133.2L1757.6,1087.1L2382,1087.1L2382,485.6L1456.9,485.6L1456.9,1410.7L2382,1410.7L2382,1133.1L1757.6,1133.2ZM1757.6,763.2L2081.3,763.2L2081.3,809.3L1757.6,809.3L1757.6,763.2Z" style="fill:white;fill-rule:nonzero;"/>
                        <path d="M2428.2,485.6L2428.2,1410.8L2867.7,1410.8L2867.7,948.3L2913.9,948.3L2913.9,1410.8L3353.4,1410.8L3353.4,948.3L3399.5,948.3L3399.5,1410.8L3839,1410.8L3839,485.6L2428.2,485.6Z" style="fill:white;fill-rule:nonzero;"/>
                    </g>
                </g>
            </g>
        </g>
    </g>
</svg>
