<svg viewBox="0 0 3839 1187.1" xmlns="http://www.w3.org/2000/svg">
    <path class="st1" d="M1675.8 317.6v407.9c0 38.1-30.9 68.9-68.9 68.9-38.1 0-68.9-30.9-68.9-68.9v-64.3c0-9.4-7.6-17.1-17.1-17.1h-72.2c-9.4 0-17.1 7.6-17.1 17.1V718c0 96.8 78.4 175.2 175.2 175.2 96.8 0 175.2-78.4 175.2-175.2V317.6c0-9.4-7.6-17.1-17.1-17.1h-72.2c-9.2.1-16.9 7.7-16.9 17.1Zm474.6 575.7h71.3c10.9 0 19-10.1 16.7-20.7l-123-558.6c-1.7-7.8-8.7-13.4-16.7-13.4h-172.5c-8 0-14.9 5.6-16.7 13.4l-123 558.6c-2.3 10.6 5.8 20.7 16.7 20.7h71.3c8 0 14.9-5.6 16.7-13.4l51.5-233.5h139.7l51.5 233.5c1.5 7.8 8.5 13.4 16.5 13.4Zm-185.9-345.7 48.1-218.2 48.1 218.2h-96.2Zm1076.4-165.3v-64.7c0-9.4-7.6-17.1-17.1-17.1h-336.5c-9.4 0-17.1 7.6-17.1 17.1v558.6c0 9.4 7.6 17.1 17.1 17.1h336.5c9.4 0 17.1-7.6 17.1-17.1v-64.7c0-9.4-7.6-17.1-17.1-17.1h-247.3V630.9h201.6c9.4 0 17.1-7.6 17.1-17.1v-64.7c0-9.4-7.6-17.1-17.1-17.1h-201.6V399.4h247.3c9.4 0 17.1-7.7 17.1-17.1Zm-662.8 412.2V317.6c0-9.4-7.6-17.1-17.1-17.1h-72.2c-9.4 0-17.1 7.6-17.1 17.1v558.6c0 9.4 7.7 17.1 17.1 17.1h336.5c9.4 0 17.1-7.6 17.1-17.1v-64.7c0-9.4-7.6-17.1-17.1-17.1l-247.2.1Zm1266.7-500.6c-14.4 0-194.2 0-194.2 227.2V666c0 227.2 179.9 227.2 194.2 227.2 14.3 0 194.2 0 194.2-227.2V521.2c0-227.3-179.9-227.3-194.2-227.3Zm85.4 352.1c0 157.8-80.3 157.8-86.8 157.8s-86.8 0-86.8-157.8V545.5c0-157.8 80.3-157.8 86.8-157.8s86.8 0 86.8 157.8V646Zm-637.6-34.7c19.9-.5 39.7-2.2 59.5-3.9v-62c0-157.8 80.3-157.8 86.8-157.8 6 0 76 0 85.6 127.2.7 8.8 8.1 15.7 17 15.7h75.8c9.4 0 17-7.6 17-17.1-4-219.5-180-219.5-194.1-219.5-14.4 0-194.2 0-194.2 227.2v88.1c15.4 1.2 30.9 2.5 46.6 2.1Z" style="fill:#fff"/>
    <path class="st1" d="M3417.3 656.6h-75.8c-8.9 0-16.3 6.8-17 15.7-9.7 127.1-79.7 127.2-85.6 127.2-6.4 0-86.8 0-86.8-157.8v-96.3c0-157.8 80.3-157.8 86.8-157.8 6 0 76 0 85.6 127.2.7 8.8 8.1 15.7 17 15.7h75.8c9.4 0 17-7.6 17-17.1-4-219.5-180-219.5-194.1-219.5-14.4 0-194.2 0-194.2 227.2v144.8c0 227.2 179.9 227.2 194.2 227.2 14.2 0 190.2 0 194.1-219.5-.1-9.3-7.6-17-17-17ZM671.6 0C300.7 0 0 265.7 0 593.5S300.7 1187 671.6 1187c370.9 0 671.6-265.7 671.6-593.5S1042.6 0 671.6 0ZM350.8 147.2l89.8 89.8 93-93 89.8 89.8 93-93 89.8 89.8 93-93 186.2 186.2-93 93-89.8-89.8-93 93-89.8-89.8-93 93-89.8-89.8-93 93-186.2-186.2 93-93ZM992.3 1040l-89.8-89.8-93 93-89.8-89.8-93 93-89.7-89.8-93 93-186.1-186.3 93-93 89.8 89.8 93-93 89.8 89.8 93-93 89.8 89.8 93-93 186 186.3-93 93Zm92.9-404.6-93 93-89.8-89.8-93 93-89.8-89.6-93 93-89.6-89.9-93 93-89.8-89.8-93 93L75.1 555l93-93 89.8 89.8 93-93 89.8 89.8 93-93 89.8 89.6 93-93 89.8 89.8 93-93 89.8 89.8 93-93L1268 632.2l-93 93-89.8-89.8Z" style="fill:#fff"/>
</svg>
