<svg viewBox="1 47 499 150" xmlns="http://www.w3.org/2000/svg">
    <g style="line-height:125%;fill:#fff;stroke:#fff;stroke-width:5.77144432;stroke-miterlimit:4;stroke-dasharray:none;stroke-opacity:1">
        <path word-spacing="0" letter-spacing="0" font-size="159.402" font-weight="400" d="m108.246 940.261 35.219-43.041h33.974l-42.73 52.926 50.046 53.238h-41.29l-35.22-37.632zm118.656-43.041h34.09l35.57 106.164H192.616l20.548-66.314h26.775l-10.663 41.757h28.058zm140.138 0q16.267 0 23.116 6.226 6.694 6.227 6.694 20.237v79.7h-34.286v-68.22q0-6.382-.467-8.445-.467-1.906-2.413-2.568-1.906-.467-7.627-.467H335.79v79.7h-31.717V897.22Zm113.908 39.85v26.463h-43.042v13.388h43.042v26.463H406.19V937.07Zm-74.758-39.85h74.758v26.463H406.19Zm82.814 43.041 35.219-43.041h33.974l-42.73 52.926 50.046 53.238h-41.29l-35.22-37.632zm139.204-13.698q-9.574 0-16.267 6.849-6.85 7.005-6.85 16.734 0 9.885 6.85 16.89 6.849 7.005 16.267 7.005 6.226 0 11.48-3.347 5.254-3.191 8.29-8.6 2.879-5.41 2.879-11.948 0-9.729-6.538-16.734-6.538-6.85-16.111-6.85zm0-32.223q11.169 0 21.209 4.475 9.885 4.476 17.357 11.948 7.355 7.666 11.636 17.862 4.32 10.352 4.32 21.521 0 15.139-7.356 28.059-7.472 12.92-20.08 20.392-12.57 7.666-27.086 7.666-14.516 0-27.242-7.666-12.764-7.472-20.12-20.392-7.472-12.92-7.472-28.059 0-11.169 4.32-21.52 4.28-10.197 11.792-17.863 7.316-7.472 17.512-11.948 10.04-4.475 21.21-4.475z" style="font-weight:400;font-size:159.4019928px;font-family:Stop;-inkscape-font-specification:Stop;letter-spacing:0;word-spacing:0;fill:#fff;stroke:#fff;stroke-width:5.77144432;stroke-miterlimit:4;stroke-dasharray:none;stroke-opacity:1" transform="translate(-56.585 -677.77) scale(.81252)"/>
    </g>
    <path style="fill:#fff;stroke:#fff;stroke-width:4.68941212;stroke-miterlimit:4;stroke-dasharray:none" d="M3.702 52.388h22.896v84.018H3.702Z"/>
    <path d="M17.12 195.841c-1.48.692-3 1.037-4.564 1.037-1.508 0-2.914-.277-4.221-.83a10.631 10.631 0 0 1-3.391-2.247 10.257 10.257 0 0 1-2.247-3.37c-.544-1.3-.815-2.7-.815-4.199 0-1.498.277-2.904.83-4.215.553-1.31 1.306-2.438 2.26-3.384a10.63 10.63 0 0 1 3.391-2.248 10.667 10.667 0 0 1 4.193-.829c1.601 0 3.157.351 4.663 1.05 1.509.7 2.73 1.64 3.663 2.825l-2.803 2.867c-.706-.907-1.537-1.6-2.49-2.085a6.639 6.639 0 0 0-3.033-.725c-.897 0-1.742.175-2.532.52a6.214 6.214 0 0 0-2.047 1.418 6.585 6.585 0 0 0-1.346 2.13c-.324.817-.486 1.71-.486 2.676 0 .947.168 1.829.5 2.646a6.438 6.438 0 0 0 1.375 2.114 6.458 6.458 0 0 0 2.061 1.406 6.41 6.41 0 0 0 2.588.517 6.59 6.59 0 0 0 2.95-.68c.915-.453 1.725-1.104 2.431-1.951l2.718 2.779c-.955 1.163-2.17 2.089-3.647 2.778zm53.84.239c-1.298.552-2.691.827-4.179.827-1.47 0-2.853-.275-4.15-.827a10.381 10.381 0 0 1-3.362-2.264 10.685 10.685 0 0 1-2.245-3.4 10.625 10.625 0 0 1-.831-4.183c0-1.48.277-2.874.831-4.185a10.686 10.686 0 0 1 2.245-3.401 10.375 10.375 0 0 1 3.362-2.262 10.486 10.486 0 0 1 4.15-.829c1.488 0 2.881.277 4.179.83a10.374 10.374 0 0 1 3.361 2.261c.944.956 1.693 2.09 2.248 3.4a10.68 10.68 0 0 1 .829 4.186 10.66 10.66 0 0 1-.83 4.182 10.724 10.724 0 0 1-2.247 3.4 10.381 10.381 0 0 1-3.361 2.265zm-4.179-3.106a6.08 6.08 0 0 1-2.504-.517 6.18 6.18 0 0 1-2.003-1.42 6.642 6.642 0 0 1-1.33-2.145 7.221 7.221 0 0 1-.486-2.66c0-.966.162-1.859.486-2.676a6.686 6.686 0 0 1 1.33-2.13 6.14 6.14 0 0 1 2.003-1.418 6.042 6.042 0 0 1 2.504-.52c.897 0 1.736.173 2.518.52a6.094 6.094 0 0 1 2.018 1.418 6.686 6.686 0 0 1 1.33 2.13c.324.817.486 1.71.486 2.677 0 .946-.162 1.832-.486 2.66a6.642 6.642 0 0 1-1.33 2.144 6.17 6.17 0 0 1-4.536 1.937zm62.896-.178v3.787h-15.11v-20.7h4.15v16.913zm52.308 3.787v-3.787h-10.96v-16.913h-4.147v20.7zm52.71-3.728v3.727h-15.51v-20.7h15.395v3.726h-11.245v4.73h7.411v3.608h-7.41v4.91zm46.014 4.023c1.563 0 3.084-.344 4.564-1.036 1.478-.69 2.695-1.616 3.647-2.78l-2.717-2.778c-.706.847-1.517 1.498-2.432 1.951a6.576 6.576 0 0 1-2.947.68 6.42 6.42 0 0 1-2.59-.517 6.458 6.458 0 0 1-2.061-1.406 6.4 6.4 0 0 1-1.373-2.114c-.335-.817-.5-1.7-.5-2.646 0-.966.161-1.86.486-2.676a6.546 6.546 0 0 1 1.344-2.13 6.211 6.211 0 0 1 2.046-1.418 6.282 6.282 0 0 1 2.533-.52 6.64 6.64 0 0 1 3.033.725c.954.484 1.783 1.178 2.49 2.085l2.803-2.867c-.934-1.184-2.155-2.124-3.661-2.824-1.509-.7-3.063-1.05-4.665-1.05-1.488 0-2.886.276-4.193.828a10.654 10.654 0 0 0-3.39 2.248c-.955.946-1.708 2.074-2.26 3.384-.555 1.311-.832 2.717-.832 4.215 0 1.499.273 2.898.817 4.2a10.25 10.25 0 0 0 2.245 3.37 10.654 10.654 0 0 0 3.391 2.247c1.307.552 2.715.829 4.222.829zm54.883-17.21v16.914h-4.15v-16.915h-6.752v-3.785h17.628v3.785zm47.53 16.914v-20.7h-4.15v20.7zm51.966-.502c-1.298.552-2.691.827-4.179.827a10.48 10.48 0 0 1-4.148-.827 10.387 10.387 0 0 1-3.364-2.264 10.685 10.685 0 0 1-2.245-3.4 10.624 10.624 0 0 1-.829-4.183c0-1.48.275-2.874.83-4.185a10.685 10.685 0 0 1 2.244-3.4 10.383 10.383 0 0 1 3.364-2.263 10.483 10.483 0 0 1 4.148-.829c1.488 0 2.881.277 4.179.83a10.374 10.374 0 0 1 3.361 2.261c.944.957 1.693 2.09 2.248 3.4a10.67 10.67 0 0 1 .829 4.186c0 1.477-.277 2.873-.83 4.182a10.724 10.724 0 0 1-2.247 3.401 10.379 10.379 0 0 1-3.361 2.264zm-4.179-3.106a6.08 6.08 0 0 1-2.504-.517 6.202 6.202 0 0 1-2.003-1.42 6.643 6.643 0 0 1-1.33-2.145 7.22 7.22 0 0 1-.486-2.66c0-.966.162-1.859.486-2.676a6.689 6.689 0 0 1 1.33-2.13 6.163 6.163 0 0 1 2.003-1.418 6.042 6.042 0 0 1 2.504-.52c.897 0 1.736.173 2.518.52a6.094 6.094 0 0 1 2.018 1.418 6.692 6.692 0 0 1 1.332 2.13c.324.817.486 1.71.486 2.677 0 .946-.162 1.832-.486 2.66a6.651 6.651 0 0 1-1.332 2.144 6.17 6.17 0 0 1-4.536 1.937zm51.709-10.233v13.841h-3.92v-20.7h3.948l9.958 13.396v-13.395h3.892v20.7h-3.664z" style="clip-rule:evenodd;fill:#fff;fill-rule:evenodd;stroke-width:2.05233884"/>
</svg>
