<svg viewBox="0 0 3839 646.1" xmlns="http://www.w3.org/2000/svg">
    <path class="st3" d="M386.2 0c-12.7 40.7-23.2 71.3-39.1 112.5-14.9 38.7-42 70-79.8 87.2-42.1 19.1-87.5 16-131 30.7C51.2 258.9 24.3 355 0 433.7h231.9c12.7-39.1 30.3-108 63.7-157 13.9-20.5 34.5-35.3 51.7-44.7 10-5.5 19.6-7.2 29.8-9.6 9-2.1 19.5-4.2 27.5-4.8 4.9-.3 10-1.1 15.3-1.6 5.8-.5 10.6-1.1 15.9-2.1 4.8-.5 16.3-2.4 20.1-3.2 10.1-2.1 19.5-5.8 25.9-7.9 5.7-1.9 12.2-5.3 18-7.4 1.2-.4 7.3-4.3 9-5.3 24-14 45.5-38 55.3-56.4 15.7-29.4 28.4-59.1 39.3-90.5 4.8-13.7 7.9-22.2 15.3-43.3H386.2Zm155.3 212.4c-12.7 40.7-23.2 71.3-39.1 112.5-14.9 38.7-42 70-79.8 87.1-42.1 19.2-87.5 16.1-131 30.6-85.1 28.6-112 124.7-136.3 203.4h231.9c12.7-39.1 30.3-108 63.7-157 14-20.5 34.6-35.3 51.8-44.7 10-5.5 19.6-7.2 29.8-9.6 9-2.1 19.6-4.2 27.5-4.8 4.9-.3 10-1.1 15.3-1.6 5.8-.5 10.6-1 15.8-2.1 4.8-.5 16.3-2.4 20.1-3.2 10.1-2.1 19.5-5.8 25.9-7.9 5.7-1.9 12.1-5.3 18-7.4 1.2-.4 7.3-4.3 9-5.3 24-14 45.4-38.1 55.3-56.4 15.7-29.4 28.4-59.1 39.3-90.5 4.8-13.7 7.9-22.2 15.3-43.3H541.5ZM1822.8 87.7c-32.7-22.5-68.4-31.3-120.6-32.1-58.8-1-116.7 11.8-163.6 39.4-38.2 22.4-72.2 56.9-94.6 101.8-31 62.1-73.7 145.5-74.9 230.9-.7 54.8 19.2 96.2 51.5 123.2 29.4 24.5 84.4 38.9 134 39.6 44.8.6 97.6-6.9 133.7-22.7 40.3-17.5 90.3-55.7 120.1-116.4 16.1-33 31.6-66.1 44.9-102.8 10.8-29.4 20-61 27.7-96.7 13.4-61.4-3.2-126.5-58.2-164.2Zm-136.3 317.4c-14.5 29.1-31.3 57.7-68.8 70-21.2 7-41.6 7.5-59.1 4.9-17.6-2.8-30.3-10.9-38.9-21.9-9.5-12.2-14.5-28.4-12.6-47.9 1.3-13.4 4.1-28.6 10.3-45.8 12.1-34.4 38.2-103 55.8-139.1 11.6-23.7 21.8-36.7 37.6-48.5 21.3-16.1 49.4-21.2 73.4-20.1 16.6.8 37.3 6.6 47.5 16.9 15.6 15.6 22.4 35.5 12.8 74.3-4.7 18.5-14.8 48.3-25.6 77.6-12 32.5-24.8 64.3-32.4 79.6Zm526.8 62.7 133.6-399.7H2477l-186.4 514H2092c-2.7-104.7-3-300.4-6.4-401l-133.1 401H1820l185.5-514h201.3c2.2 111.8 5.8 344 6.5 399.7m429.8-399.7-329.1 514h138.8l63-101.8H2684l-4.9 101.8h131l11.2-514h-178.2Zm47.1 308.2h-110.5c34.3-57.6 98.2-163.1 128.9-217.4-4.3 42.8-12.1 138-18.4 217.4Zm379.9-107.7L2965 582.1h-135.5l187-514h224.9c-7.2 78.5-32.1 229.4-53.3 357.9l203.6-357.9h229.2l-187.4 514h-135.2l157.3-415.6-254.3 415.6h-134.6l37.6-415.3c-13.5 44.9-34.2 101.8-34.2 101.8m631.2-200.5H3839l-187.2 514h-137.1l186.6-514" style="fill:#fff"/>
    <path class="st3" d="M1331.9 582.1 1257 302.9 1507.9 68h-170.7l-230 227.9c-1.3 1-2 2.1-3.2 3 .3 1.2.8 2.9 1.3 4.8l66.5 278.3h160.1Z" style="fill:#fff"/>
    <path class="st3" style="fill:#fff" d="m1001.6 582.1 186-514h-138.2l-187.2 514z"/>
</svg>
