<svg viewBox="0 0 264 55" xmlns="http://www.w3.org/2000/svg">
    <path fill-rule="evenodd" clip-rule="evenodd" style="fill:#fff" d="M8.63 0h15.216l-5.451 31.869H3.634L8.63 0zM2.726 36.617h14.988l-.454 3.615h12.491l-1.817 12.883H0l2.726-16.498zM198.034 2.713h13.853l-1.361 9.04h-13.854l1.362-9.04zm-1.93 12.883h13.852l-2.496 16.726h-13.854l2.498-16.726zm-3.179 21.021h13.852l-2.498 16.498h-13.854l2.5-16.498zm-63.362 0h13.853l-2.498 16.498h-13.854l2.499-16.498zm-84.711 0c-.117 1.066-.197 2.424-.077 3.644.165 1.489.746 2.68 2.166 2.68 1.87 0 2.997-1.637 3.643-3.571.365-1.007.626-1.839.816-2.788l12.909-.035-2.63 16.614H50.202l.674-3.308c-2.844 3.6-5.121 4.468-9.907 4.468-9.14 0-10.6-10.092-10.021-17.701l13.904-.003Zm7.123-4.295a25.044 25.044 0 0 0-.047-2.17c-.134-1.714-.673-3.201-2.392-3.201-1.795 0-2.869 1.787-3.621 3.946-.107.336-.201.66-.622 1.419l-14.024-.009c1.861-7.956 6.051-17.264 15.18-17.451 2.492-.051 7.147.288 8.968 3.832l.398.077.589-3.203h11.248l-2.591 16.76H51.975Zm16.498 0c-.838-1.664-1.188-3.656-.855-6.026 1.139-8.114 7.267-12.231 16.465-12.231 3.963 0 6.718.927 9.886 2.86l-1.508 10.419c-2.3-1.916-6.466-2.933-8.934-2.933-1.047 0-2.347.245-2.667 1.482-.466 1.795 1.555 2.782 4.013 3.646 2.032.716 3.76 1.6 5.139 2.765l-21.539.018Zm24.681 4.33c.626 1.708.813 3.764.508 5.934-1.245 8.856-8.881 12.188-17.031 12.188-5.384 0-7.649-.999-11.931-3.53l1.915-11.658c1.458 1.86 6.399 4.827 9.706 4.658 1.269-.065 3.834-.935 4.032-2.348.198-1.413-.413-2.455-3.603-3.465-1.492-.471-2.911-.97-4.167-1.741l20.571-.038Zm15.163-.029c-.552 3.323-.678 8.541 2.366 8.909 1.961.239 4.004-1.344 4.624-5.353h12.313c-2.146 12.597-9.563 14.883-18.387 14.82-9.614-.071-15.369-7.862-14.664-18.394l13.748.018Zm129.225-4.304c1.806-9.875 6.64-17.942 20.461-18.254 2.713-.062 4.869.852 5.997 1.505l-1.787 10.692c-5.485-2.214-8.468 2.132-9.522 6.075l-15.149-.018Zm14.832 4.304c.37 2.462 1.795 4.757 4.569 4.757l3.016-.228-1.758 11.966c-2.142.563-4.185.902-6.958.865-10.551-.15-14.876-7.87-14.263-17.375l15.394.015Zm-77.949 0c-1.651 2.663-3.303 4.625-7.05 4.286l.647-4.298-14.588.009-2.638 16.495h14.762c12.215 0 20.602-5.317 24.712-16.53l-15.845.038Zm-5.853-4.292 2.892-18.543c5.904 0 7.265 4.52 6.13 12.657-.283 2.034-.681 4.18-1.213 5.918l15.36.018c.556-2.29.8-4.831 1.07-7.519C194.854 4.52 183.727 0 172.599 0h-13.854l-1.93 14.465c-2.271.452-7.835 1.131-10.788 5.087-.568.564-.908.338-.795-.34l.568-3.616h-13.058l-2.498 16.726h13.854c.566-2.374 6.812-5.877 10.673-4.069l-.648 4.054 14.449.024Zm42.068-.009c-.838-1.664-1.188-3.656-.855-6.026 1.14-8.114 7.267-12.231 16.465-12.231 3.963 0 6.718.927 9.887 2.86l-1.51 10.419c-2.3-1.916-6.466-2.933-8.933-2.933-1.046 0-2.347.245-2.667 1.482-.465 1.795 1.555 2.782 4.013 3.646 2.032.716 3.76 1.6 5.138 2.765l-21.538.018Zm24.68 4.33c.626 1.708.812 3.764.509 5.934-1.244 8.856-8.881 12.188-17.031 12.188-5.386 0-7.651-.999-11.931-3.53l1.914-11.658c1.458 1.86 6.399 4.827 9.706 4.658 1.27-.065 3.834-.935 4.032-2.348.2-1.413-.412-2.455-3.601-3.465-1.493-.471-2.912-.97-4.168-1.741l20.57-.038ZM113.88 14.065c-11.116.075-16.586 7.839-18.745 18.251l33.563.009c.371-4.831.196-9.51-1.271-11.634-2.559-3.704-5.927-6.678-13.547-6.626Zm.216 8.721c2.618 0 3.043 2.829 2.815 4.987h-6.805c.207-2.01 1.523-4.987 3.99-4.987Z"/>
</svg>
