<svg viewBox="0 0 633 107" xmlns="http://www.w3.org/2000/svg" xml:space="preserve" style="fill-rule:evenodd;clip-rule:evenodd;stroke-linejoin:round;stroke-miterlimit:2">
    <clipPath id="a">
        <path d="M.843.732h632V106.57h-632z"/>
    </clipPath>
    <g clip-path="url(#a)">
        <path d="M25.902 83.349V72.434c0-4.462-3.631-8.091-8.092-8.091-4.459 0-8.068 3.629-8.068 8.091v2.846a.402.402 0 0 1-.404.404c-.246 0-.425-.179-.425-.404V64.387l-3.408-.023V75.28a3.807 3.807 0 0 0 3.811 3.81c2.13 0 3.855-1.703 3.855-3.81v-2.846a4.65 4.65 0 0 1 4.64-4.64c2.555 0 4.617 2.085 4.617 4.64v10.915h3.474Z" style="fill:#fff;fill-opacity:.78;fill-rule:nonzero"/>
        <path d="M21.644 83.349V72.434a3.833 3.833 0 1 0-7.666 0v2.846c0 2.555-2.107 4.617-4.662 4.617a4.61 4.61 0 0 1-4.617-4.617V64.365l-3.452.022v10.894c0 4.46 3.609 8.069 8.091 8.069a8.064 8.064 0 0 0 8.069-8.069v-2.824a.403.403 0 1 1 .807 0V83.35l3.43-.001Zm.806-27.456a3.414 3.414 0 0 1-3.429 3.428H8.06c-1.837 0-3.384-1.546-3.384-3.428V44.237H1.247v11.656a6.859 6.859 0 0 0 6.859 6.858h10.915a6.859 6.859 0 0 0 6.859-6.858V44.282h-3.429l-.001 11.611Z" style="fill:#fff;fill-opacity:.78;fill-rule:nonzero"/>
        <path d="M8.105 58.493c-1.434 0-2.623-1.166-2.623-2.6V44.237h3.43v10.041c0 .808.807.808.807.808v-8.383h3.429v11.79H8.105Zm13.517-2.6c0 1.434-1.166 2.6-2.601 2.6h-5.044v-11.79h3.429v8.383c.808 0 .808-.807.808-.807v-9.996h3.406l.002 11.61Zm-2.601-17.191a2.642 2.642 0 0 0 2.623-2.623v-7.06h-7.688v5.469h3.451v-2.04h.807v2.017c0 .449-.38.807-.807.807H9.72s-.808 0-.808-.807v-9.683h-3.43v11.297a2.641 2.641 0 0 0 2.623 2.623h10.916ZM5.439 14.181a1.11 1.11 0 0 1-.762-1.054c0-.493.314-.897.762-1.054l16.227-5.469v8.001h-3.811v-2.69l-3.608 1.211 11.633 3.945v4.034L5.439 14.181Z" style="fill:#fff;fill-opacity:.78;fill-rule:nonzero"/>
        <path d="M23.503 24.782H9.72v9.705h3.429v-6.276h9.301v7.846c0 1.904-1.547 3.451-3.429 3.451H8.106a3.444 3.444 0 0 1-3.43-3.429V24.782H1.247v11.319a6.858 6.858 0 0 0 6.859 6.858h10.915c3.788 0 6.859-3.092 6.859-6.88V24.782h-.001v-2.823L5.057 14.9a1.896 1.896 0 0 1-1.165-1.771c0-.785.47-1.458 1.165-1.749L22.45 5.484v9.122h3.429V.732L4.474 7.95C2.39 8.578.843 10.662.843 13.128c0 2.465 1.525 4.549 3.631 5.177l19.029 6.477Zm106.812 56.995H95.294v-3.966c1.267-.032 2.896-.166 4.887-.394 1.996-.221 3.361-.537 4.108-.951 1.156-.703 2.002-1.511 2.541-2.428.542-.915.81-2.057.81-3.436V12.965h-.837L79.768 80.491h-2.789L51.227 11.568h-.723v47.306c0 4.579.287 8.062.865 10.445.578 2.384 1.46 4.096 2.655 5.135.819.779 2.51 1.532 5.079 2.242 2.569.705 4.246 1.081 5.029 1.11v3.966H32.125v-3.966a40.938 40.938 0 0 0 5.279-.833c1.841-.409 3.265-1.021 4.273-1.843 1.302-1.037 2.196-2.642 2.681-4.803.487-2.155.723-5.771.723-10.836V18.94c0-2.346-.277-4.262-.835-5.75-.557-1.488-1.358-2.698-2.4-3.629-1.154-1.008-2.571-1.75-4.246-2.237a21.718 21.718 0 0 0-4.97-.837V2.523h27.035l22.672 59.426 19.383-49.71a47.803 47.803 0 0 0 1.815-5.725c.503-1.991.776-3.324.813-3.991h25.858v3.964c-1.042.038-2.376.207-3.993.503-1.618.302-2.804.58-3.548.837-1.263.444-2.123 1.195-2.571 2.237-.446 1.04-.669 2.175-.669 3.404v57.136c0 1.304.223 2.401.669 3.295.448.892 1.304 1.677 2.571 2.342.674.377 1.864.721 3.577 1.037 1.711.312 3.072.496 4.076.526v3.97h-.003v.003Z" style="fill:#fff;fill-opacity:.78;fill-rule:nonzero"/>
        <path d="m211.256 32.293.495 10.478h-3.852c-.781-3.946-2.469-7.156-5.056-9.636-2.59-2.474-5.746-3.714-9.468-3.714-3.052 0-5.457.769-7.207 2.294-1.752 1.531-2.623 3.374-2.623 5.531 0 1.675.287 3.072.864 4.187.578 1.12 1.441 2.064 2.599 2.851 1.113.747 2.521 1.445 4.216 2.094 1.696.65 3.787 1.392 6.285 2.205a54.091 54.091 0 0 1 6.954 2.737c2.178 1.06 3.971 2.216 5.388 3.479 1.527 1.34 2.699 2.888 3.52 4.631.82 1.756 1.229 3.897 1.229 6.423 0 5.106-1.911 9.275-5.723 12.513-3.818 3.238-8.762 4.86-14.831 4.86-3.204 0-6.155-.58-8.854-1.734-2.359-1.007-4.128-1.942-5.306-2.81v2.087h-.002c-.476.174-.936.338-1.38.493l-2.035.679c-.415.132-.813.254-1.193.366-1.322.391-2.819.585-4.494.585-2.908 0-5.222-.674-6.956-2.037-1.732-1.356-2.838-3.338-3.322-5.946h-.337c-2.419 2.676-5.018 4.731-7.791 6.142-2.776 1.418-6.119 2.121-10.028 2.121-4.132 0-7.53-1.256-10.192-3.798-2.662-2.528-3.991-5.843-3.991-9.942 0-2.123.298-4.025.894-5.697a13.637 13.637 0 0 1 2.678-4.524c.933-1.11 2.162-2.107 3.687-2.988 1.529-.871 2.96-1.567 4.3-2.093 1.679-.63 5.077-1.807 10.194-3.52 5.12-1.707 8.572-3.049 10.36-4.018v-5.53c0-.484-.1-1.415-.309-2.792a11.693 11.693 0 0 0-1.311-3.911c-.746-1.372-1.795-2.576-3.158-3.602-1.356-1.02-3.284-1.536-5.777-1.536-1.716 0-3.304.291-4.777.867-1.472.582-2.505 1.183-3.099 1.815 0 .749.178 1.841.533 3.293.352 1.452.53 2.794.53 4.021 0 1.306-.589 2.496-1.764 3.572-1.169 1.09-2.801 1.62-4.885 1.62-1.859 0-3.229-.653-4.107-1.979-.872-1.318-1.309-2.799-1.309-4.442 0-1.709.603-3.349 1.814-4.915 1.213-1.563 2.783-2.958 4.722-4.187 1.677-1.037 3.706-1.929 6.086-2.653 2.385-.728 4.711-1.09 6.984-1.09 3.128 0 5.852.214 8.182.642a15.073 15.073 0 0 1 6.34 2.764c1.897 1.382 3.34 3.252 4.327 5.612.986 2.368 1.482 5.408 1.482 9.133 0 5.325-.059 10.044-.169 14.156a495.793 495.793 0 0 0-.163 13.491c0 1.452.25 2.61.75 3.468.503.858 1.277 1.584 2.319 2.173.129.078.274.148.437.209l-.407-14.012h3.852c.298 1.452.931 3.152 1.898 5.079a24.433 24.433 0 0 0 3.52 5.249c1.452 1.643 3.192 3.02 5.222 4.137 2.03 1.113 4.312 1.677 6.842 1.677 3.575 0 6.333-.81 8.269-2.432 1.934-1.618 2.906-3.937 2.906-6.956 0-1.566-.307-2.906-.921-4.046-.615-1.133-1.52-2.125-2.711-2.99-1.228-.856-2.737-1.625-4.525-2.317a90.247 90.247 0 0 0-5.976-2.041c-1.752-.518-3.695-1.233-5.836-2.15-2.141-.915-3.975-1.986-5.502-3.213-1.639-1.299-2.979-2.906-4.023-4.801-1.042-1.9-1.564-4.134-1.564-6.703 0-4.506 1.675-8.32 5.027-11.451 3.354-3.128 7.839-4.694 13.462-4.694 2.157 0 4.364.28 6.619.835 2.25.562 4.084 1.229 5.5 2.01l1.285-2.904h4.021l.088 1.861h6.863V9.782h10.167v17.147h15.805v5.364h-15.693v30.773c0 2.312.081 4.239.252 5.786.166 1.543.567 2.901 1.199 4.046.594 1.081 1.491 1.9 2.681 2.457 1.19.558 2.792.838 4.803.838.929 0 2.296-.084 4.105-.257 1.807-.166 3.081-.376 3.827-.642v4.078a84.251 84.251 0 0 1-6.869 2.541c-2.16.692-4.804 1.033-7.932 1.033-4.617 0-7.867-1.158-9.746-3.488-1.882-2.328-2.822-5.616-2.822-9.855v-37.31h-6.386Zm-50.864 18.986c-3.165.933-5.937 1.839-8.321 2.737a33.242 33.242 0 0 0-6.645 3.352c-1.863 1.265-3.333 2.762-4.414 4.492-1.078 1.731-1.62 3.795-1.62 6.173 0 3.092.808 5.361 2.43 6.813 1.62 1.449 3.675 2.18 6.169 2.18 2.646 0 4.972-.644 6.983-1.93 2.009-1.286 3.707-2.794 5.081-4.553l.337-19.264Z" style="fill:#fff;fill-opacity:.78;fill-rule:nonzero"/>
        <path d="M287.601 68.818c-2.31 4.396-5.4 7.894-9.272 10.499-3.873 2.61-8.324 3.907-13.35 3.907-4.428 0-8.31-.781-11.648-2.344-3.329-1.563-6.074-3.686-8.238-6.366-2.157-2.679-3.77-5.805-4.83-9.38-1.063-3.577-1.591-7.347-1.591-11.336 0-3.575.567-7.086 1.702-10.531 1.138-3.438 2.803-6.542 4.999-9.297 2.123-2.64 4.756-4.774 7.905-6.397 3.145-1.622 6.676-2.43 10.583-2.43 4.021 0 7.466.64 10.331 1.9 2.869 1.268 5.195 2.997 6.983 5.19 1.714 2.094 2.988 4.551 3.827 7.377.836 2.829 1.257 5.903 1.257 9.214v3.686h-36.471c0 3.616.343 6.892 1.03 9.834.692 2.943 1.78 5.528 3.268 7.764 1.449 2.162 3.349 3.864 5.698 5.111 2.343 1.251 5.138 1.866 8.378 1.866 3.313 0 6.169-.772 8.572-2.321 2.405-1.536 4.721-4.326 6.953-8.344l3.914 2.398Zm-12.344-21c0-2.084-.178-4.319-.53-6.701-.355-2.385-.922-4.374-1.705-5.978-.853-1.711-2.027-3.101-3.52-4.189-1.486-1.076-3.406-1.618-5.75-1.618-3.914 0-7.161 1.627-9.748 4.89-2.587 3.259-3.993 7.789-4.216 13.596h25.469Z" style="fill:#fff;fill-opacity:.78;fill-rule:nonzero"/>
        <path d="M324.379 33.797c0 1.897-.464 3.584-1.395 5.053-.93 1.477-2.362 2.205-4.298 2.205-2.089 0-3.679-.539-4.781-1.622-1.094-1.074-1.645-2.269-1.645-3.57 0-.819.064-1.563.193-2.235.132-.673.253-1.345.365-2.011-1.75 0-3.8.707-6.144 2.123-2.346 1.417-4.337 3.424-5.978 6.03v32.059c0 1.31.255 2.368.756 3.187.5.824 1.292 1.436 2.373 1.846.931.371 2.132.651 3.602.83 1.47.194 2.744.319 3.827.394v3.686h-29.043v-3.686c.855-.073 1.74-.143 2.65-.221.913-.07 1.705-.218 2.376-.45 1.04-.335 1.816-.92 2.316-1.755.503-.837.756-1.929.756-3.267V38.379c0-1.153-.271-2.293-.81-3.406-.542-1.119-1.297-2.011-2.264-2.68-.706-.451-1.541-.769-2.512-.979a22.88 22.88 0 0 0-3.127-.416v-3.632l18.317-1.231.781.783v7.764h.278c2.314-3.018 4.883-5.307 7.709-6.87 2.833-1.565 5.42-2.346 7.764-2.346 2.348 0 4.255.767 5.727 2.292 1.474 1.524 2.207 3.57 2.207 6.139Zm143.163-1.504.495 10.478h-3.854c-.781-3.946-2.469-7.156-5.05-9.636-2.591-2.474-5.743-3.714-9.47-3.714-3.054 0-5.459.769-7.206 2.294-1.752 1.531-2.624 3.374-2.624 5.531 0 1.675.287 3.072.865 4.187.578 1.12 1.442 2.064 2.596 2.851 1.12.747 2.53 1.445 4.221 2.094a128.46 128.46 0 0 0 6.283 2.205 54.035 54.035 0 0 1 6.958 2.737c2.171 1.06 3.966 2.216 5.384 3.479 1.522 1.34 2.698 2.888 3.517 4.631.822 1.756 1.229 3.897 1.229 6.423 0 5.106-1.911 9.275-5.72 12.513-3.823 3.238-8.763 4.86-14.834 4.86-3.199 0-6.155-.58-8.849-1.734-2.703-1.153-4.631-2.211-5.784-3.183l-1.118 3.632h-4.189l-.557-19.162h3.852c.294 1.452.928 3.152 1.9 5.079a24.295 24.295 0 0 0 3.522 5.249c1.448 1.643 3.188 3.02 5.22 4.137 2.028 1.113 4.308 1.677 6.84 1.677 3.573 0 6.333-.81 8.267-2.432 1.932-1.618 2.906-3.937 2.906-6.956 0-1.566-.31-2.906-.924-4.046-.614-1.133-1.52-2.125-2.71-2.99-1.227-.856-2.735-1.625-4.519-2.317a91.209 91.209 0 0 0-5.98-2.041c-1.754-.518-3.7-1.233-5.837-2.15-2.148-.915-3.975-1.986-5.504-3.213-1.634-1.299-2.981-2.906-4.023-4.801-1.044-1.9-1.563-4.134-1.563-6.703 0-3.096.793-5.864 2.376-8.31-1.219 1.002-2.167 2.265-2.847 3.79-4.433 10.281-8.376 19.644-11.814 28.095-3.445 8.456-6.057 14.673-7.844 18.655-2.348 5.219-4.441 9.281-6.284 12.205-1.844 2.926-3.643 5.22-5.393 6.895-1.714 1.567-3.268 2.621-4.658 3.16a12.027 12.027 0 0 1-4.326.808c-2.905 0-5.185-.687-6.844-2.061-1.664-1.373-2.49-2.961-2.49-4.747 0-1.861.508-3.379 1.536-4.556 1.022-1.174 2.294-1.758 3.825-1.758 1.19 0 2.212.218 3.074.671a8.867 8.867 0 0 1 2.29 1.729c.557.555 1.158 1.322 1.786 2.289a59.302 59.302 0 0 1 1.506 2.403c1.866-1.006 4.089-3.631 6.681-7.873 2.582-4.246 4.462-7.962 5.609-11.175a2950.265 2950.265 0 0 0-9.607-23.68 3503.108 3503.108 0 0 0-8.99-21.617c-.708-1.709-1.903-3.047-3.577-3.996-1.673-.951-3.35-1.552-5.027-1.815v-3.687h.051a98.918 98.918 0 0 0-2.167-6.537c-1.022-2.751-2.351-5.25-3.991-7.482-1.6-2.155-3.557-3.884-5.864-5.17-2.31-1.281-5.14-1.927-8.487-1.927-3.534 0-6.556 1.14-9.05 3.406-2.494 2.278-3.743 5.05-3.743 8.322 0 3.429.799 6.266 2.401 8.521 1.602 2.253 3.932 4.103 6.983 5.555a85.725 85.725 0 0 0 8.01 3.374c2.625.954 5.167 1.971 7.625 3.047a56.655 56.655 0 0 1 6.448 3.297c2.059 1.243 3.855 2.674 5.386 4.314 1.673 1.866 2.908 3.901 3.709 6.117.806 2.216 1.206 4.796 1.206 7.734 0 7.006-2.592 12.779-7.764 17.316-5.176 4.549-11.598 6.813-19.27 6.813-3.539 0-7.073-.544-10.611-1.645-3.536-1.095-6.592-2.43-9.161-3.991l-2.4 4.077h-4.465l-.783-27.144h4.524c.933 3.348 2.021 6.378 3.27 9.075 1.249 2.705 2.894 5.22 4.942 7.57a22.416 22.416 0 0 0 6.783 5.25c2.59 1.306 5.595 1.954 9.018 1.954 2.571 0 4.81-.334 6.733-1.005 1.916-.674 3.474-1.627 4.662-2.852a11.703 11.703 0 0 0 2.653-4.325c.581-1.654.867-3.566.867-5.73 0-3.154-.889-6.114-2.676-8.851-1.786-2.74-4.448-4.813-7.989-6.228a394.744 394.744 0 0 0-8.323-3.211c-3.124-1.172-5.825-2.28-8.096-3.326-4.469-2.01-7.942-4.645-10.42-7.903-2.475-3.256-3.711-7.514-3.711-12.765 0-3.013.615-5.823 1.841-8.433 1.229-2.606 2.979-4.936 5.252-6.984 2.157-1.931 4.71-3.454 7.65-4.553a26.193 26.193 0 0 1 9.215-1.645c3.65 0 6.915.555 9.803 1.677 2.883 1.115 5.522 2.421 7.903 3.905l2.291-3.798h4.469l.412 24.181h19.999v3.909c-1.12.037-2.455.274-4.023.697-1.564.432-2.344.921-2.344 1.481 0 .223.084.596.253 1.115.168.526.359 1.065.589 1.62 1.415 3.686 3.57 9.004 6.478 15.947 2.908 6.951 5.159 12.501 6.756 16.674 1.679-3.987 3.42-8.105 5.222-12.369 1.809-4.265 3.834-9.298 6.064-15.109.26-.703.64-1.68 1.113-2.931.482-1.247.73-2.319.73-3.211 0-.965-.844-1.87-2.541-2.71-1.696-.835-3.304-1.349-4.833-1.538V26.7h20.442v.912c2.887-1.656 6.373-2.485 10.467-2.485 2.157 0 4.367.28 6.617.835 2.251.562 4.089 1.229 5.505 2.01l1.287-2.904h4.019l.088 1.861h6.861V9.782h10.169v17.147h15.808v5.364h-15.699v30.773c0 2.312.087 4.239.255 5.786.166 1.545.569 2.901 1.206 4.046.589 1.081 1.491 1.9 2.674 2.457 1.19.558 2.792.838 4.801.838.931 0 2.298-.084 4.107-.257 1.805-.166 3.081-.376 3.825-.642l.002 4.078a82.844 82.844 0 0 1-6.874 2.541c-2.154.692-4.794 1.033-7.925 1.033-4.617 0-7.866-1.158-9.748-3.488-1.88-2.328-2.822-5.616-2.822-9.855v-37.31h-6.386Z" style="fill:#fff;fill-opacity:.78;fill-rule:nonzero"/>
        <path d="M543.887 68.818c-2.307 4.396-5.397 7.894-9.272 10.499-3.873 2.61-8.324 3.907-13.35 3.907-4.422 0-8.308-.781-11.644-2.344-3.333-1.563-6.075-3.686-8.244-6.366-2.152-2.679-3.77-5.805-4.831-9.38-1.062-3.577-1.588-7.347-1.588-11.336 0-3.575.571-7.086 1.702-10.531 1.136-3.438 2.803-6.542 4.999-9.297 2.121-2.64 4.756-4.774 7.903-6.397 3.145-1.622 6.676-2.43 10.581-2.43 4.025 0 7.465.64 10.333 1.9 2.867 1.268 5.192 2.997 6.981 5.19 1.715 2.094 2.987 4.551 3.827 7.377.833 2.829 1.254 5.903 1.254 9.214v3.686h-36.469c0 3.616.348 6.892 1.033 9.834.685 2.943 1.773 5.528 3.27 7.764 1.445 2.162 3.354 3.864 5.693 5.111 2.344 1.251 5.136 1.866 8.381 1.866 3.315 0 6.166-.772 8.574-2.321 2.4-1.536 4.719-4.326 6.958-8.344l3.909 2.398Zm-12.347-21c0-2.084-.175-4.319-.527-6.701-.351-2.385-.924-4.374-1.705-5.978-.853-1.711-2.025-3.101-3.518-4.189-1.492-1.076-3.408-1.618-5.756-1.618-3.905 0-7.159 1.627-9.746 4.89-2.585 3.259-3.991 7.789-4.217 13.596h25.469Z" style="fill:#fff;fill-opacity:.78;fill-rule:nonzero"/>
        <path d="M632.837 81.777h-26.869v-3.691c.858-.071 1.723-.143 2.599-.218.873-.071 1.643-.221 2.314-.449 1.042-.336 1.816-.924 2.318-1.759.506-.835.758-1.929.758-3.265V43.966c0-3.871-.887-6.861-2.658-8.966-1.77-2.102-3.97-3.153-6.614-3.153-1.823 0-3.539.275-5.138.835a16.027 16.027 0 0 0-4.41 2.346c-1.085.821-1.987 1.702-2.717 2.653-.724.949-1.274 1.743-1.65 2.371v31.779c0 1.31.228 2.378.676 3.213.448.835 1.208 1.483 2.292 1.929.855.335 1.629.587 2.318.753.685.167 1.589.289 2.706.362v3.686h-26.3v-3.686c.86-.073 1.679-.145 2.485-.22a9.15 9.15 0 0 0 2.2-.453c1.045-.335 1.816-.92 2.319-1.757.505-.835.76-1.927.76-3.267v-28.43c0-3.87-.887-6.858-2.66-8.963-1.766-2.102-3.975-3.156-6.612-3.156-1.825 0-3.543.289-5.143.867a17.098 17.098 0 0 0-4.412 2.376 13.372 13.372 0 0 0-2.735 2.764c-.744 1.031-1.302 1.8-1.679 2.319v31.556c0 1.267.263 2.332.785 3.185.521.861 1.299 1.509 2.339 1.957.78.376 1.586.649 2.4.833.826.191 1.732.319 2.738.396v3.689H538.49v-3.689l2.657-.223c.911-.068 1.698-.221 2.374-.448 1.042-.335 1.818-.922 2.314-1.761.503-.833.753-1.923.753-3.266V38.161c0-1.19-.262-2.264-.808-3.211-.541-.953-1.295-1.763-2.259-2.434-.71-.449-1.582-.808-2.624-1.088a17.19 17.19 0 0 0-3.24-.533v-3.627l18.436-1.231.78.781v7.875h.391c.931-.926 2.067-2.03 3.407-3.297 1.347-1.258 2.589-2.291 3.745-3.07 1.302-.889 2.933-1.633 4.892-2.234 1.953-.592 4.067-.892 6.337-.892 3.573 0 6.643.958 9.216 2.872 2.574 1.92 4.417 4.239 5.527 6.956l3.55-3.434c1.021-.985 2.373-2.036 4.048-3.156 1.417-.967 3.079-1.75 4.999-2.346 1.916-.592 4.046-.892 6.396-.892 4.654 0 8.34 1.534 11.061 4.578 2.715 3.056 4.076 7.75 4.076 14.078V71.84c0 1.304.22 2.369.675 3.211.449.832 1.206 1.485 2.289 1.925.861.336 1.702.587 2.54.755.84.166 1.777.289 2.821.362v3.688h-.006v-.004Z" style="fill:#fff;fill-opacity:.78;fill-rule:nonzero"/>
    </g>
</svg>
