<?xml version="1.0" encoding="UTF-8" standalone="no"?>
<!DOCTYPE svg PUBLIC "-//W3C//DTD SVG 1.1//EN" "http://www.w3.org/Graphics/SVG/1.1/DTD/svg11.dtd">
<svg width="100%" height="100%" viewBox="0 0 306 112" version="1.1" xmlns="http://www.w3.org/2000/svg" xmlns:xlink="http://www.w3.org/1999/xlink" xml:space="preserve" xmlns:serif="http://www.serif.com/" style="fill-rule:evenodd;clip-rule:evenodd;stroke-linejoin:round;stroke-miterlimit:2;">
    <g transform="matrix(1,0,0,1,-167,-4)">
        <g transform="matrix(1.15415,0,0,1.15415,167.652,4)">
            <g>
                <g>
                    <path id="path5" d="M63.098,45.537L82.932,45.537C91.04,45.537 97.636,38.939 97.636,30.833C97.636,22.729 91.04,16.17 82.932,16.17L77.761,16.17C77.354,16.17 77.026,15.845 77.026,15.437C77.026,14.989 77.352,14.664 77.761,14.664L97.556,14.664L97.597,8.472L77.761,8.472C73.931,8.472 70.836,11.568 70.836,15.397C70.836,19.267 73.931,22.403 77.761,22.403L82.932,22.403C87.576,22.403 91.365,26.192 91.365,30.834C91.365,35.478 87.576,39.225 82.932,39.225L63.098,39.225L63.098,45.537Z" style="fill:white;fill-rule:nonzero;"/>
                    <path id="path7" d="M63.098,37.799L82.932,37.799C86.802,37.799 89.899,34.662 89.899,30.833C89.899,27.005 86.803,23.869 82.932,23.869L77.761,23.869C73.118,23.869 69.37,20.04 69.37,15.396C69.37,10.753 73.118,7.007 77.761,7.007L97.596,7.007L97.555,0.734L77.759,0.734C69.654,0.734 63.096,7.291 63.096,15.437C63.096,23.543 69.654,30.1 77.759,30.1L82.891,30.1C83.298,30.1 83.625,30.427 83.625,30.833C83.625,31.241 83.298,31.566 82.891,31.566L63.096,31.566L63.098,37.799Z" style="fill:white;fill-rule:nonzero;"/>
                    <path id="path9" d="M112.992,39.265C109.572,39.265 106.762,36.536 106.762,33.033L106.762,13.115C106.762,9.776 109.572,6.965 112.992,6.965L134.173,6.965L134.173,0.734L112.992,0.734C106.11,0.734 100.529,6.314 100.529,13.197L100.529,33.033C100.529,39.917 106.109,45.497 112.992,45.497L134.092,45.497L134.092,39.266L112.992,39.265Z" style="fill:white;fill-rule:nonzero;"/>
                    <path id="path11" d="M108.267,13.196C108.267,10.59 110.385,8.43 112.992,8.43L134.173,8.43L134.173,14.663L115.926,14.663C114.458,14.663 114.458,16.129 114.458,16.129L129.692,16.129L129.692,22.361L108.267,22.361L108.267,13.196Z" style="fill:white;fill-rule:nonzero;"/>
                    <path id="path13" d="M112.992,37.759C110.385,37.759 108.267,35.64 108.267,33.033L108.267,23.867L129.691,23.867L129.691,30.099L114.458,30.099C114.458,31.566 115.924,31.566 115.924,31.566L134.09,31.566L134.09,37.757L112.992,37.759Z" style="fill:white;fill-rule:nonzero;"/>
                    <path id="path15" d="M149.039,39.265C145.578,39.265 142.766,36.453 142.766,33.033L142.766,13.197C142.766,9.776 145.578,6.965 148.999,6.965L169.528,6.965L169.528,0.734L148.958,0.734C142.074,0.734 136.495,6.314 136.495,13.197L136.495,33.033C136.495,39.917 142.114,45.497 148.999,45.497L169.528,45.497L169.528,16.13L151.891,16.13L151.891,22.362L163.296,22.362L163.296,39.265L149.039,39.265Z" style="fill:white;fill-rule:nonzero;"/>
                    <path id="path17" d="M144.231,33.033C144.231,35.639 146.392,37.799 148.998,37.799L161.828,37.799L161.828,23.828L151.89,23.828L151.89,30.1L155.597,30.1L155.597,31.566L151.932,31.566C151.116,31.566 150.465,30.876 150.465,30.1L150.465,16.13C150.465,16.13 150.465,14.663 151.932,14.663L169.527,14.663L169.527,8.43L148.998,8.43C146.392,8.43 144.232,10.589 144.232,13.196L144.231,33.033Z" style="fill:white;fill-rule:nonzero;"/>
                    <path id="path19" d="M188.793,8.351C189.077,7.536 189.811,6.966 190.707,6.966C191.603,6.966 192.338,7.537 192.623,8.351L202.561,37.84L188.022,37.84L188.022,30.915L192.91,30.915L190.71,24.357L183.54,45.497L176.209,45.497L188.793,8.351Z" style="fill:white;fill-rule:nonzero;"/>
                    <path id="path21" d="M204.597,39.265L188.019,39.265L188.019,45.496L213.232,45.496L200.116,6.598C198.975,2.811 195.187,0 190.706,0C186.227,0 182.439,2.77 181.298,6.598L168.058,45.496L174.657,45.496L187.486,7.658C188.016,6.395 189.237,5.54 190.703,5.54C192.13,5.54 193.353,6.395 193.882,7.658L204.597,39.265Z" style="fill:white;fill-rule:nonzero;"/>
                </g>
                <g>
                    <path id="path6717" d="M43.152,86.145L27.761,86.145L27.761,84.402C28.318,84.388 29.034,84.329 29.909,84.229C30.786,84.132 31.386,83.993 31.714,83.811C32.222,83.502 32.594,83.147 32.831,82.744C33.069,82.342 33.187,81.84 33.187,81.234L33.187,55.904L32.819,55.904L20.938,85.58L19.712,85.58L8.395,55.29L8.077,55.29L8.077,76.08C8.077,78.092 8.203,79.623 8.457,80.67C8.711,81.718 9.099,82.47 9.624,82.927C9.984,83.269 10.727,83.6 11.856,83.912C12.985,84.222 13.722,84.387 14.066,84.4L14.066,86.143L0,86.143L0,84.4C0.737,84.336 1.509,84.213 2.32,84.034C3.129,83.854 3.755,83.585 4.198,83.224C4.77,82.768 5.163,82.063 5.376,81.113C5.59,80.166 5.694,78.577 5.694,76.351L5.694,58.53C5.694,57.499 5.572,56.657 5.327,56.003C5.082,55.349 4.73,54.817 4.272,54.408C3.765,53.965 3.142,53.639 2.406,53.425C1.669,53.214 0.942,53.091 0.222,53.057L0.222,51.315L12.103,51.315L22.067,77.431L30.585,55.585C30.896,54.786 31.163,53.947 31.383,53.069C31.604,52.194 31.724,51.608 31.74,51.315L43.104,51.315L43.104,53.057C42.646,53.074 42.06,53.148 41.349,53.278C40.638,53.411 40.117,53.533 39.79,53.646C39.235,53.841 38.857,54.171 38.66,54.629C38.464,55.086 38.366,55.585 38.366,56.125L38.366,81.235C38.366,81.808 38.464,82.29 38.66,82.683C38.857,83.075 39.233,83.42 39.79,83.712C40.086,83.878 40.609,84.029 41.362,84.168C42.114,84.305 42.712,84.386 43.153,84.399L43.153,86.144L43.152,86.144L43.152,86.145Z" style="fill:white;fill-rule:nonzero;"/>
                    <path id="path6719" d="M64.936,85.702C64.168,85.983 63.493,86.206 62.911,86.378C62.33,86.55 61.672,86.635 60.936,86.635C59.658,86.635 58.641,86.339 57.879,85.74C57.118,85.144 56.632,84.273 56.419,83.127L56.271,83.127C55.208,84.303 54.066,85.206 52.847,85.826C51.627,86.449 50.158,86.758 48.44,86.758C46.624,86.758 45.131,86.206 43.961,85.089C42.791,83.978 42.207,82.521 42.207,80.72C42.207,79.787 42.338,78.951 42.6,78.216C42.861,77.479 43.255,76.817 43.777,76.228C44.187,75.74 44.727,75.302 45.397,74.915C46.069,74.532 46.698,74.226 47.287,73.995C48.025,73.718 49.518,73.201 51.767,72.448C54.017,71.698 55.534,71.108 56.32,70.682L56.32,68.252C56.32,68.039 56.276,67.63 56.184,67.025C56.094,66.42 55.903,65.846 55.608,65.306C55.28,64.703 54.819,64.174 54.22,63.723C53.624,63.275 52.777,63.048 51.681,63.048C50.927,63.048 50.229,63.176 49.582,63.429C48.935,63.685 48.481,63.949 48.22,64.227C48.22,64.556 48.298,65.036 48.454,65.674C48.609,66.312 48.687,66.902 48.687,67.441C48.687,68.015 48.428,68.538 47.912,69.011C47.398,69.49 46.681,69.723 45.765,69.723C44.948,69.723 44.346,69.436 43.96,68.853C43.577,68.274 43.385,67.623 43.385,66.901C43.385,66.15 43.65,65.429 44.182,64.741C44.715,64.054 45.405,63.441 46.257,62.901C46.994,62.445 47.886,62.053 48.932,61.735C49.98,61.415 51.002,61.256 52.001,61.256C53.376,61.256 54.573,61.35 55.597,61.538C56.62,61.728 57.548,62.131 58.383,62.753C59.217,63.36 59.851,64.182 60.285,65.219C60.718,66.26 60.936,67.596 60.936,69.233C60.936,71.573 60.91,73.647 60.862,75.454C60.812,77.263 60.79,79.24 60.79,81.383C60.79,82.021 60.9,82.53 61.12,82.907C61.341,83.284 61.681,83.603 62.139,83.862C62.385,84.011 62.773,84.092 63.305,84.108C63.837,84.124 64.381,84.134 64.937,84.134L64.937,85.702L64.936,85.702ZM56.37,72.742C54.979,73.152 53.761,73.55 52.713,73.945C51.665,74.337 50.692,74.827 49.793,75.418C48.974,75.974 48.328,76.632 47.853,77.392C47.379,78.153 47.141,79.06 47.141,80.105C47.141,81.464 47.496,82.461 48.209,83.099C48.921,83.736 49.824,84.057 50.92,84.057C52.083,84.057 53.105,83.774 53.989,83.209C54.872,82.644 55.618,81.981 56.222,81.208L56.37,72.742Z" style="fill:white;fill-rule:nonzero;"/>
                    <path id="path6721" d="M78.106,74.289C78.777,74.878 79.292,75.558 79.653,76.324C80.013,77.096 80.193,78.037 80.193,79.147C80.193,81.391 79.353,83.223 77.678,84.646C76,86.069 73.827,86.782 71.16,86.782C69.752,86.782 68.455,86.527 67.269,86.02C66.082,85.513 65.235,85.048 64.728,84.621L64.238,86.217L62.397,86.217L62.152,77.796L63.845,77.796C63.976,78.434 64.254,79.181 64.679,80.028C65.105,80.88 65.621,81.647 66.226,82.335C66.864,83.057 67.629,83.662 68.521,84.153C69.413,84.642 70.416,84.89 71.528,84.89C73.099,84.89 74.311,84.534 75.162,83.821C76.012,83.11 76.439,82.091 76.439,80.764C76.439,80.076 76.304,79.487 76.034,78.986C75.764,78.488 75.366,78.052 74.843,77.672C74.303,77.296 73.64,76.958 72.854,76.654C72.069,76.352 71.194,76.052 70.228,75.757C69.458,75.529 68.604,75.215 67.663,74.812C66.722,74.41 65.916,73.939 65.245,73.4C64.525,72.829 63.936,72.123 63.477,71.29C63.019,70.455 62.79,69.473 62.79,68.344C62.79,66.364 63.526,64.688 64.999,63.312C66.473,61.937 68.444,61.249 70.915,61.249C71.863,61.249 72.833,61.372 73.824,61.616C74.813,61.863 75.619,62.156 76.241,62.499L76.806,61.223L78.573,61.223L78.941,69.003L77.248,69.003C76.905,67.269 76.163,65.858 75.026,64.768C73.888,63.681 72.501,63.136 70.865,63.136C69.524,63.136 68.467,63.474 67.698,64.144C66.928,64.817 66.545,65.627 66.545,66.575C66.545,67.311 66.671,67.925 66.925,68.415C67.179,68.907 67.558,69.322 68.067,69.668C68.556,69.996 69.175,70.303 69.92,70.588C70.665,70.874 71.584,71.2 72.682,71.557C73.762,71.9 74.781,72.303 75.738,72.76C76.695,73.226 77.483,73.734 78.106,74.289Z" style="fill:white;fill-rule:nonzero;"/>
                    <path id="path6723" d="M93.558,85.088C92.494,85.531 91.488,85.904 90.539,86.205C89.59,86.509 88.428,86.659 87.053,86.659C85.024,86.659 83.596,86.15 82.77,85.126C81.943,84.103 81.53,82.658 81.53,80.795L81.53,64.398L77.16,64.398L77.16,62.041L81.628,62.041L81.628,54.505L86.096,54.505L86.096,62.041L93.042,62.041L93.042,64.398L86.145,64.398L86.145,77.922C86.145,78.938 86.181,79.785 86.256,80.465C86.329,81.143 86.505,81.74 86.783,82.243C87.044,82.718 87.438,83.078 87.961,83.323C88.484,83.568 89.188,83.691 90.072,83.691C90.48,83.691 91.081,83.654 91.876,83.578C92.67,83.505 93.23,83.413 93.558,83.296L93.558,85.088Z" style="fill:white;fill-rule:nonzero;"/>
                    <path id="path6725" d="M112.275,80.45C111.26,82.382 109.902,83.919 108.2,85.064C106.498,86.211 104.542,86.781 102.333,86.781C100.387,86.781 98.681,86.438 97.214,85.751C95.751,85.064 94.545,84.131 93.594,82.953C92.646,81.776 91.937,80.402 91.471,78.831C91.004,77.259 90.772,75.602 90.772,73.849C90.772,72.278 91.021,70.735 91.52,69.221C92.02,67.71 92.752,66.346 93.717,65.135C94.65,63.975 95.807,63.037 97.191,62.324C98.573,61.611 100.125,61.256 101.842,61.256C103.609,61.256 105.123,61.537 106.382,62.091C107.643,62.648 108.665,63.408 109.451,64.372C110.204,65.292 110.764,66.372 111.133,67.614C111.5,68.857 111.685,70.208 111.685,71.663L111.685,73.283L95.657,73.283C95.657,74.872 95.808,76.312 96.11,77.605C96.414,78.898 96.892,80.034 97.546,81.017C98.183,81.967 99.018,82.715 100.05,83.263C101.08,83.813 102.308,84.083 103.732,84.083C105.188,84.083 106.443,83.744 107.499,83.063C108.556,82.388 109.574,81.162 110.555,79.396L112.275,80.45ZM106.85,71.221C106.85,70.305 106.772,69.323 106.617,68.276C106.461,67.228 106.212,66.354 105.868,65.649C105.493,64.897 104.977,64.286 104.321,63.808C103.668,63.335 102.824,63.097 101.794,63.097C100.074,63.097 98.647,63.812 97.51,65.246C96.373,66.678 95.755,68.669 95.657,71.221L106.85,71.221Z" style="fill:white;fill-rule:nonzero;"/>
                    <path id="path6727" d="M128.438,65.059C128.438,65.893 128.234,66.634 127.825,67.28C127.416,67.929 126.787,68.249 125.936,68.249C125.018,68.249 124.319,68.012 123.835,67.536C123.354,67.064 123.112,66.539 123.112,65.967C123.112,65.607 123.14,65.28 123.197,64.985C123.255,64.689 123.308,64.394 123.357,64.101C122.588,64.101 121.687,64.412 120.657,65.034C119.626,65.657 118.751,66.539 118.03,67.684L118.03,81.773C118.03,82.349 118.142,82.814 118.362,83.174C118.582,83.536 118.93,83.805 119.405,83.985C119.814,84.148 120.342,84.271 120.988,84.35C121.634,84.435 122.194,84.49 122.67,84.523L122.67,86.143L109.906,86.143L109.906,84.523C110.282,84.491 110.671,84.46 111.071,84.426C111.472,84.395 111.82,84.33 112.115,84.228C112.572,84.081 112.913,83.824 113.133,83.457C113.354,83.089 113.465,82.609 113.465,82.021L113.465,67.073C113.465,66.566 113.346,66.065 113.109,65.576C112.871,65.084 112.539,64.692 112.114,64.398C111.804,64.2 111.437,64.06 111.01,63.968C110.584,63.879 110.126,63.818 109.636,63.785L109.636,62.189L117.686,61.648L118.029,61.992L118.029,65.404L118.151,65.404C119.168,64.078 120.297,63.072 121.539,62.385C122.784,61.697 123.921,61.354 124.951,61.354C125.983,61.354 126.821,61.691 127.468,62.361C128.116,63.031 128.438,63.93 128.438,65.059Z" style="fill:white;fill-rule:nonzero;"/>
                    <path id="path6729" d="M154.581,70.166C155.316,70.986 155.859,71.88 156.211,72.854C156.565,73.828 156.741,74.962 156.741,76.253C156.741,79.332 155.602,81.869 153.329,83.863C151.054,85.862 148.232,86.857 144.86,86.857C143.305,86.857 141.752,86.618 140.197,86.134C138.643,85.653 137.3,85.066 136.171,84.38L135.116,86.172L133.154,86.172L132.81,74.243L134.798,74.243C135.208,75.714 135.686,77.046 136.235,78.231C136.784,79.42 137.507,80.525 138.407,81.558C139.258,82.524 140.252,83.292 141.388,83.865C142.526,84.439 143.847,84.724 145.351,84.724C146.481,84.724 147.465,84.577 148.31,84.282C149.152,83.986 149.837,83.567 150.359,83.029C150.882,82.489 151.269,81.856 151.525,81.128C151.78,80.401 151.906,79.561 151.906,78.61C151.906,77.224 151.515,75.923 150.73,74.72C149.945,73.516 148.775,72.605 147.219,71.983C146.155,71.557 144.936,71.086 143.561,70.572C142.188,70.057 141.001,69.57 140.003,69.11C138.039,68.227 136.513,67.069 135.424,65.637C134.336,64.206 133.793,62.335 133.793,60.027C133.793,58.703 134.063,57.468 134.602,56.321C135.142,55.176 135.911,54.152 136.91,53.252C137.858,52.403 138.98,51.734 140.272,51.251C141.565,50.769 142.916,50.528 144.322,50.528C145.926,50.528 147.361,50.772 148.63,51.265C149.897,51.755 151.057,52.329 152.103,52.981L153.11,51.312L155.074,51.312L155.271,62.872L153.284,62.872C152.925,61.547 152.519,60.282 152.068,59.066C151.619,57.857 151.035,56.759 150.314,55.778C149.611,54.831 148.751,54.071 147.737,53.506C146.722,52.943 145.478,52.659 144.007,52.659C142.454,52.659 141.126,53.16 140.03,54.156C138.934,55.157 138.385,56.375 138.385,57.813C138.385,59.32 138.736,60.567 139.44,61.558C140.144,62.548 141.168,63.361 142.509,63.999C143.703,64.572 144.876,65.066 146.029,65.482C147.183,65.901 148.3,66.348 149.38,66.821C150.363,67.247 151.306,67.73 152.214,68.27C153.119,68.816 153.908,69.445 154.581,70.166Z" style="fill:white;fill-rule:nonzero;"/>
                    <path id="path6731" d="M153.391,94.049C153.391,93.231 153.614,92.564 154.066,92.047C154.515,91.531 155.074,91.274 155.747,91.274C156.27,91.274 156.719,91.37 157.098,91.569C157.473,91.766 157.809,92.021 158.104,92.329C158.349,92.573 158.613,92.91 158.889,93.335C159.168,93.762 159.389,94.114 159.551,94.391C160.371,93.949 161.348,92.795 162.487,90.931C163.622,89.065 164.448,87.432 164.952,86.02C163.396,82.144 161.991,78.675 160.73,75.613C159.47,72.553 158.153,69.387 156.779,66.113C156.468,65.362 155.943,64.774 155.207,64.357C154.472,63.939 153.735,63.675 152.998,63.559L152.998,61.939L164.044,61.939L164.044,63.657C163.552,63.673 162.965,63.777 162.276,63.963C161.589,64.153 161.246,64.368 161.246,64.614C161.246,64.712 161.283,64.876 161.357,65.104C161.431,65.335 161.515,65.572 161.616,65.816C162.238,67.436 163.185,69.773 164.463,72.824C165.741,75.879 166.73,78.318 167.432,80.152C168.17,78.4 168.935,76.59 169.727,74.716C170.522,72.842 171.412,70.63 172.392,68.076C172.506,67.767 172.673,67.338 172.881,66.788C173.093,66.24 173.202,65.769 173.202,65.377C173.202,64.953 172.831,64.555 172.085,64.186C171.34,63.819 170.633,63.593 169.961,63.51L169.961,61.94L178.945,61.94L178.945,63.463C178.453,63.547 177.805,63.827 177.005,64.31C176.202,64.794 175.605,65.476 175.212,66.358C173.264,70.876 171.531,74.991 170.02,78.705C168.506,82.421 167.358,85.153 166.573,86.903C165.541,89.197 164.621,90.982 163.811,92.267C163.001,93.553 162.21,94.561 161.441,95.297C160.688,95.986 160.005,96.449 159.394,96.686C158.781,96.921 158.143,97.041 157.493,97.041C156.216,97.041 155.214,96.739 154.485,96.135C153.754,95.532 153.391,94.834 153.391,94.049Z" style="fill:white;fill-rule:nonzero;"/>
                    <path id="path6733" d="M190.738,74.289C191.407,74.878 191.924,75.558 192.284,76.324C192.645,77.096 192.824,78.037 192.824,79.147C192.824,81.391 191.984,83.223 190.31,84.646C188.63,86.069 186.459,86.782 183.791,86.782C182.385,86.782 181.086,86.527 179.902,86.02C178.714,85.513 177.867,85.048 177.36,84.621L176.869,86.217L175.028,86.217L174.783,77.796L176.476,77.796C176.605,78.434 176.884,79.181 177.311,80.028C177.737,80.88 178.252,81.647 178.859,82.335C179.495,83.057 180.26,83.662 181.153,84.153C182.044,84.642 183.046,84.89 184.159,84.89C185.729,84.89 186.942,84.534 187.792,83.821C188.641,83.11 189.069,82.091 189.069,80.764C189.069,80.076 188.933,79.487 188.663,78.986C188.393,78.488 187.995,78.052 187.472,77.672C186.933,77.296 186.27,76.958 185.486,76.654C184.7,76.352 183.823,76.052 182.858,75.757C182.087,75.529 181.232,75.215 180.293,74.812C179.349,74.41 178.546,73.939 177.874,73.4C177.156,72.829 176.564,72.123 176.106,71.29C175.647,70.455 175.419,69.473 175.419,68.344C175.419,66.364 176.157,64.688 177.63,63.312C179.104,61.937 181.072,61.249 183.545,61.249C184.493,61.249 185.464,61.372 186.453,61.616C187.442,61.863 188.25,62.156 188.872,62.499L189.438,61.223L191.204,61.223L191.572,69.003L189.878,69.003C189.535,67.269 188.793,65.858 187.659,64.768C186.52,63.681 185.135,63.136 183.497,63.136C182.155,63.136 181.098,63.474 180.33,64.144C179.56,64.817 179.177,65.627 179.177,66.575C179.177,67.311 179.303,67.925 179.557,68.415C179.811,68.907 180.191,69.322 180.698,69.668C181.19,69.996 181.81,70.303 182.553,70.588C183.295,70.874 184.217,71.2 185.314,71.557C186.396,71.9 187.414,72.303 188.372,72.76C189.326,73.226 190.115,73.734 190.738,74.289Z" style="fill:white;fill-rule:nonzero;"/>
                    <path id="path6735" d="M206.189,85.088C205.126,85.531 204.12,85.904 203.168,86.205C202.221,86.509 201.061,86.659 199.685,86.659C197.656,86.659 196.228,86.15 195.401,85.126C194.575,84.103 194.161,82.658 194.161,80.795L194.161,64.398L189.793,64.398L189.793,62.041L194.258,62.041L194.258,54.505L198.727,54.505L198.727,62.041L205.674,62.041L205.674,64.398L198.775,64.398L198.775,77.922C198.775,78.938 198.813,79.785 198.887,80.465C198.96,81.144 199.137,81.74 199.417,82.243C199.676,82.718 200.072,83.078 200.592,83.323C201.115,83.568 201.819,83.691 202.702,83.691C203.111,83.691 203.712,83.654 204.507,83.578C205.3,83.505 205.861,83.413 206.188,83.296L206.189,85.088Z" style="fill:white;fill-rule:nonzero;"/>
                    <path id="path6737" d="M224.906,80.45C223.892,82.382 222.534,83.919 220.831,85.064C219.129,86.211 217.173,86.781 214.964,86.781C213.021,86.781 211.313,86.438 209.847,85.751C208.382,85.064 207.177,84.131 206.224,82.953C205.278,81.776 204.567,80.402 204.101,78.831C203.634,77.259 203.403,75.602 203.403,73.849C203.403,72.278 203.654,70.735 204.151,69.221C204.65,67.71 205.383,66.346 206.348,65.135C207.28,63.975 208.438,63.037 209.821,62.324C211.203,61.611 212.755,61.256 214.471,61.256C216.24,61.256 217.752,61.537 219.012,62.091C220.272,62.648 221.294,63.408 222.08,64.372C222.834,65.292 223.393,66.372 223.762,67.614C224.128,68.857 224.313,70.208 224.313,71.663L224.313,73.283L208.286,73.283C208.286,74.872 208.439,76.312 208.74,77.605C209.041,78.898 209.519,80.034 210.177,81.017C210.812,81.967 211.651,82.715 212.679,83.263C213.709,83.813 214.936,84.083 216.362,84.083C217.819,84.083 219.072,83.744 220.13,83.063C221.185,82.388 222.204,81.162 223.188,79.396L224.906,80.45ZM219.48,71.221C219.48,70.305 219.403,69.323 219.248,68.276C219.094,67.228 218.842,66.354 218.499,65.649C218.124,64.897 217.609,64.286 216.953,63.808C216.297,63.335 215.455,63.097 214.423,63.097C212.707,63.097 211.277,63.812 210.14,65.246C209.004,66.678 208.386,68.669 208.287,71.221L219.48,71.221Z" style="fill:white;fill-rule:nonzero;"/>
                    <path id="path6739" d="M263.997,86.145L252.189,86.145L252.189,84.523C252.566,84.492 252.946,84.46 253.331,84.427C253.715,84.396 254.053,84.33 254.348,84.23C254.806,84.082 255.146,83.824 255.367,83.457C255.589,83.09 255.7,82.609 255.7,82.022L255.7,69.528C255.7,67.827 255.31,66.513 254.532,65.588C253.754,64.664 252.787,64.202 251.625,64.202C250.824,64.202 250.07,64.323 249.367,64.569C248.663,64.814 248.017,65.157 247.429,65.6C246.952,65.961 246.556,66.348 246.235,66.766C245.917,67.183 245.675,67.532 245.51,67.808L245.51,81.774C245.51,82.35 245.61,82.819 245.807,83.186C246.004,83.553 246.338,83.838 246.814,84.034C247.19,84.181 247.53,84.292 247.833,84.365C248.134,84.438 248.531,84.492 249.022,84.524L249.022,86.144L237.464,86.144L237.464,84.524C237.842,84.492 238.202,84.46 238.556,84.427C238.906,84.396 239.231,84.33 239.523,84.228C239.982,84.081 240.321,83.824 240.542,83.456C240.764,83.089 240.876,82.609 240.876,82.02L240.876,69.526C240.876,67.825 240.486,66.512 239.707,65.587C238.931,64.663 237.96,64.2 236.801,64.2C235.999,64.2 235.244,64.327 234.541,64.581C233.838,64.838 233.191,65.184 232.602,65.625C232.128,65.986 231.727,66.391 231.4,66.84C231.073,67.293 230.828,67.631 230.662,67.859L230.662,81.727C230.662,82.284 230.778,82.752 231.007,83.127C231.236,83.505 231.578,83.79 232.035,83.987C232.378,84.152 232.732,84.272 233.09,84.353C233.453,84.437 233.851,84.493 234.293,84.527L234.293,86.148L222.534,86.148L222.534,84.527C222.911,84.495 223.299,84.463 223.702,84.429C224.102,84.399 224.448,84.332 224.745,84.232C225.203,84.085 225.544,83.827 225.762,83.458C225.983,83.092 226.093,82.613 226.093,82.023L226.093,66.977C226.093,66.454 225.978,65.982 225.738,65.566C225.5,65.147 225.169,64.791 224.745,64.496C224.433,64.299 224.05,64.141 223.592,64.018C223.134,63.895 222.659,63.819 222.168,63.784L222.168,62.19L230.27,61.649L230.613,61.992L230.613,65.453L230.785,65.453C231.194,65.046 231.693,64.561 232.282,64.004C232.874,63.451 233.42,62.997 233.928,62.655C234.5,62.264 235.217,61.937 236.078,61.673C236.936,61.413 237.865,61.281 238.863,61.281C240.433,61.281 241.782,61.702 242.913,62.543C244.044,63.387 244.854,64.406 245.342,65.6C245.933,65.029 246.452,64.526 246.902,64.091C247.351,63.658 247.945,63.196 248.681,62.704C249.304,62.279 250.034,61.935 250.878,61.673C251.72,61.413 252.656,61.281 253.689,61.281C255.734,61.281 257.354,61.955 258.55,63.293C259.743,64.636 260.341,66.699 260.341,69.48L260.341,81.778C260.341,82.351 260.438,82.819 260.638,83.189C260.835,83.555 261.168,83.842 261.644,84.035C262.022,84.183 262.392,84.293 262.76,84.367C263.129,84.44 263.541,84.494 264,84.526L264,86.147L263.997,86.147L263.997,86.145Z" style="fill:white;fill-rule:nonzero;"/>
                </g>
            </g>
        </g>
    </g>
</svg>
