<?xml version="1.0" encoding="UTF-8" standalone="no"?>
<!DOCTYPE svg PUBLIC "-//W3C//DTD SVG 1.1//EN" "http://www.w3.org/Graphics/SVG/1.1/DTD/svg11.dtd">
<svg width="100%" height="100%" viewBox="0 0 640 120" version="1.1" xmlns="http://www.w3.org/2000/svg" xmlns:xlink="http://www.w3.org/1999/xlink" xml:space="preserve" xmlns:serif="http://www.serif.com/" style="fill-rule:evenodd;clip-rule:evenodd;stroke-linejoin:round;stroke-miterlimit:2;">
    <g>
        <g>
            <g>
                <path id="path5" d="M28.82,89.415l0,-10.81c0,-4.42 -3.596,-8.015 -8.014,-8.015c-4.417,0 -7.992,3.595 -7.992,8.015l-0,2.818c-0,0.222 -0.178,0.401 -0.4,0.401c-0.244,-0 -0.421,-0.178 -0.421,-0.401l-0,-10.789l-3.375,-0.023l-0,10.812c-0,2.088 1.687,3.775 3.774,3.775c2.11,-0 3.819,-1.687 3.819,-3.775l-0,-2.818c-0,-2.532 2.065,-4.597 4.595,-4.597c2.532,0 4.574,2.065 4.574,4.597l-0,10.81l3.44,0Z" style="fill:#fff;fill-rule:nonzero;"/>
                <path id="path7" d="M24.603,89.415l-0,-10.81c-0,-2.11 -1.71,-3.798 -3.797,-3.798c-2.087,0 -3.796,1.688 -3.796,3.798l0,2.818c0,2.531 -2.087,4.574 -4.618,4.574c-2.531,-0 -4.573,-2.043 -4.573,-4.574l0,-10.811l-3.419,0.022l0,10.79c0,4.418 3.574,7.993 8.014,7.993c4.418,-0 7.992,-3.575 7.992,-7.993l0,-2.797c0,-0.222 0.179,-0.4 0.4,-0.4c0.222,0 0.399,0.178 0.399,0.4l0,10.79l3.398,-0.002Z" style="fill:#fff;fill-rule:nonzero;"/>
                <path id="path9" d="M25.402,62.22c-0,1.864 -1.488,3.396 -3.397,3.396l-10.857,-0c-1.819,-0 -3.352,-1.532 -3.352,-3.396l0,-11.545l-3.396,0l0,11.545c0,3.751 3.042,6.793 6.793,6.793l10.812,0c3.752,0 6.794,-3.041 6.794,-6.793l-0,-11.501l-3.397,0l-0,11.501Z" style="fill:#fff;fill-rule:nonzero;"/>
                <path id="path11" d="M11.193,64.796c-1.421,-0 -2.598,-1.155 -2.598,-2.576l-0,-11.545l3.397,0l0,9.946c0,0.8 0.799,0.8 0.799,0.8l0,-8.303l3.397,-0l0,11.678l-4.995,-0Z" style="fill:#fff;fill-rule:nonzero;"/>
                <path id="path13" d="M24.581,62.22c-0,1.421 -1.155,2.576 -2.576,2.576l-4.996,-0l-0,-11.678l3.397,0l-0,8.303c0.799,0 0.799,-0.799 0.799,-0.799l0,-9.901l3.375,-0l0.001,11.499Z" style="fill:#fff;fill-rule:nonzero;"/>
                <path id="path15" d="M25.402,42.572c-0,1.887 -1.533,3.42 -3.397,3.42l-10.812,-0c-1.864,-0 -3.397,-1.533 -3.397,-3.398l0,-11.189l-3.396,-0l0,11.212c0,3.752 3.042,6.793 6.793,6.793l10.812,-0c3.752,-0 6.794,-3.063 6.794,-6.816l-0,-11.189l-16.007,-0l-0,9.613l3.397,-0l-0,-6.216l9.213,-0l-0,7.77Z" style="fill:#fff;fill-rule:nonzero;"/>
                <path id="path17" d="M22.005,45.193c1.42,0 2.598,-1.178 2.598,-2.598l-0,-6.993l-7.615,-0l-0,5.417l3.418,-0l0,-2.021l0.799,-0l0,1.998c0,0.444 -0.376,0.799 -0.799,0.799l-7.614,0c-0,0 -0.8,0 -0.8,-0.799l0,-9.591l-3.397,0l-0,11.19c-0,1.42 1.177,2.598 2.598,2.598l10.812,0Z" style="fill:#fff;fill-rule:nonzero;"/>
                <path id="path19" d="M8.552,20.904c-0.444,-0.155 -0.755,-0.555 -0.755,-1.043c-0,-0.488 0.311,-0.889 0.755,-1.044l16.073,-5.417l0,7.924l-3.774,0l-0,-2.664l-3.575,1.199l11.523,3.908l-0,3.996l-20.247,-6.859Z" style="fill:#fff;fill-rule:nonzero;"/>
                <path id="path21" d="M25.402,12.29l-0,9.036l3.396,0l0,-13.743l-21.202,7.149c-2.064,0.622 -3.596,2.687 -3.596,5.129c0,2.442 1.51,4.506 3.596,5.128l21.202,7.217l0,-3.597l-20.624,-6.992c-0.688,-0.289 -1.154,-0.955 -1.154,-1.754c-0,-0.778 0.466,-1.444 1.154,-1.733l17.228,-5.84Z" style="fill:#fff;fill-rule:nonzero;"/>
            </g>
            <g>
                <path id="path6717" d="M132.243,87.859l-34.689,-0l-0,-3.929c1.255,-0.031 2.869,-0.164 4.841,-0.39c1.977,-0.218 3.329,-0.532 4.068,-0.942c1.145,-0.696 1.984,-1.496 2.518,-2.405c0.536,-0.906 0.802,-2.037 0.802,-3.403l0,-57.09l-0.829,0l-26.778,66.885l-2.763,0l-25.507,-68.269l-0.717,0l0,46.858c0,4.534 0.284,7.985 0.856,10.345c0.573,2.362 1.447,4.057 2.631,5.087c0.811,0.771 2.486,1.517 5.03,2.22c2.545,0.699 4.206,1.07 4.981,1.1l0,3.928l-31.702,0l-0,-3.928c1.661,-0.145 3.401,-0.422 5.229,-0.825c1.823,-0.406 3.234,-1.012 4.232,-1.826c1.29,-1.028 2.175,-2.617 2.655,-4.758c0.483,-2.134 0.717,-5.715 0.717,-10.733l0,-40.165c0,-2.324 -0.275,-4.222 -0.827,-5.696c-0.552,-1.474 -1.346,-2.673 -2.378,-3.595c-1.143,-0.998 -2.547,-1.733 -4.206,-2.215c-1.661,-0.476 -3.299,-0.753 -4.922,-0.83l0,-3.926l26.778,0l22.457,58.862l19.199,-49.238c0.701,-1.801 1.302,-3.692 1.798,-5.671c0.498,-1.972 0.769,-3.292 0.805,-3.953l25.612,0l0,3.926c-1.032,0.039 -2.353,0.206 -3.955,0.499c-1.603,0.299 -2.777,0.574 -3.514,0.829c-1.251,0.439 -2.103,1.183 -2.547,2.215c-0.441,1.03 -0.662,2.155 -0.662,3.372l-0,56.594c-0,1.292 0.221,2.378 0.662,3.264c0.444,0.883 1.292,1.661 2.547,2.319c0.667,0.374 1.846,0.715 3.543,1.028c1.695,0.309 3.043,0.491 4.037,0.52l-0,3.933l-0.002,0l-0,0.003Z" style="fill:#fff;fill-rule:nonzero;"/>
                <path id="path6719" d="M181.34,86.86c-1.731,0.634 -3.252,1.136 -4.564,1.524c-1.309,0.387 -2.792,0.579 -4.451,0.579c-2.88,0 -5.173,-0.667 -6.89,-2.017c-1.715,-1.343 -2.811,-3.307 -3.291,-5.889l-0.333,-0c-2.396,2.65 -4.97,4.685 -7.717,6.083c-2.75,1.404 -6.061,2.1 -9.933,2.1c-4.093,0 -7.458,-1.244 -10.095,-3.761c-2.637,-2.504 -3.953,-5.788 -3.953,-9.847c-0,-2.103 0.295,-3.988 0.886,-5.644c0.588,-1.661 1.476,-3.153 2.652,-4.481c0.924,-1.1 2.141,-2.087 3.652,-2.959c1.514,-0.863 2.932,-1.553 4.259,-2.074c1.664,-0.624 5.029,-1.789 10.098,-3.486c5.071,-1.691 8.49,-3.02 10.261,-3.981l0,-5.476c0,-0.48 -0.099,-1.402 -0.306,-2.766c-0.203,-1.363 -0.634,-2.657 -1.298,-3.874c-0.74,-1.359 -1.779,-2.552 -3.129,-3.568c-1.343,-1.01 -3.252,-1.521 -5.722,-1.521c-1.7,-0 -3.273,0.288 -4.731,0.858c-1.458,0.577 -2.482,1.172 -3.07,1.799c0,0.741 0.176,1.823 0.528,3.261c0.349,1.438 0.525,2.768 0.525,3.983c-0,1.293 -0.584,2.472 -1.747,3.538c-1.159,1.08 -2.775,1.605 -4.839,1.605c-1.841,0 -3.198,-0.647 -4.068,-1.961c-0.863,-1.305 -1.296,-2.772 -1.296,-4.399c-0,-1.693 0.597,-3.318 1.796,-4.869c1.201,-1.548 2.757,-2.93 4.677,-4.147c1.661,-1.027 3.671,-1.911 6.029,-2.628c2.362,-0.721 4.665,-1.079 6.917,-1.079c3.099,-0 5.797,0.212 8.105,0.635c2.305,0.429 4.397,1.337 6.279,2.739c1.88,1.368 3.309,3.22 4.287,5.558c0.976,2.346 1.467,5.357 1.467,9.047c0,5.274 -0.059,9.948 -0.167,14.021c-0.112,4.077 -0.162,8.533 -0.162,13.363c-0,1.438 0.248,2.585 0.744,3.435c0.498,0.849 1.264,1.568 2.296,2.152c0.555,0.336 1.429,0.519 2.628,0.555c1.199,0.036 2.426,0.058 3.679,0.058l-0,3.534l-0.003,0Zm-19.306,-29.21c-3.135,0.924 -5.88,1.821 -8.242,2.712c-2.362,0.883 -4.555,1.988 -6.582,3.32c-1.845,1.253 -3.301,2.736 -4.372,4.449c-1.068,1.715 -1.605,3.759 -1.605,6.114c0,3.063 0.8,5.31 2.407,6.748c1.605,1.436 3.64,2.16 6.111,2.16c2.621,-0 4.924,-0.638 6.917,-1.912c1.99,-1.273 3.671,-2.767 5.032,-4.51l0.334,-19.081Z" style="fill:#fff;fill-rule:nonzero;"/>
                <path id="path6721" d="M211.024,61.137c1.512,1.328 2.673,2.86 3.486,4.587c0.812,1.74 1.217,3.86 1.217,6.362c0,5.058 -1.893,9.187 -5.668,12.394c-3.782,3.207 -8.68,4.814 -14.691,4.814c-3.173,0 -6.096,-0.574 -8.769,-1.717c-2.676,-1.143 -4.585,-2.191 -5.727,-3.153l-1.105,3.597l-4.149,-0l-0.552,-18.98l3.815,0c0.296,1.438 0.922,3.122 1.88,5.031c0.96,1.92 2.123,3.649 3.487,5.2c1.438,1.627 3.162,2.99 5.172,4.097c2.011,1.102 4.272,1.661 6.778,1.661c3.541,0 6.272,-0.802 8.19,-2.409c1.916,-1.603 2.878,-3.899 2.878,-6.89c0,-1.551 -0.304,-2.878 -0.912,-4.008c-0.609,-1.122 -1.506,-2.105 -2.685,-2.961c-1.217,-0.848 -2.711,-1.609 -4.483,-2.295c-1.769,-0.68 -3.741,-1.356 -5.918,-2.021c-1.736,-0.514 -3.66,-1.222 -5.781,-2.13c-2.121,-0.906 -3.938,-1.968 -5.45,-3.183c-1.623,-1.287 -2.95,-2.878 -3.985,-4.755c-1.032,-1.882 -1.548,-4.095 -1.548,-6.64c-0,-4.463 1.659,-8.24 4.978,-11.341c3.323,-3.099 7.765,-4.65 13.334,-4.65c2.137,-0 4.323,0.277 6.557,0.827c2.229,0.557 4.045,1.217 5.447,1.99l1.274,-2.876l3.982,0l0.83,17.535l-3.816,0c-0.773,-3.908 -2.446,-7.088 -5.008,-9.545c-2.565,-2.45 -5.691,-3.678 -9.379,-3.678c-3.022,-0 -5.404,0.762 -7.137,2.272c-1.736,1.517 -2.599,3.342 -2.599,5.479c-0,1.659 0.284,3.043 0.856,4.147c0.573,1.109 1.427,2.044 2.574,2.824c1.102,0.739 2.497,1.431 4.177,2.074c1.679,0.644 3.75,1.379 6.225,2.184c2.434,0.773 4.731,1.681 6.887,2.711c2.157,1.05 3.933,2.195 5.338,3.446Z" style="fill:#fff;fill-rule:nonzero;"/>
                <path id="path6723" d="M245.85,85.476c-2.398,0.999 -4.665,1.839 -6.804,2.518c-2.139,0.685 -4.758,1.023 -7.857,1.023c-4.573,0 -7.792,-1.147 -9.653,-3.455c-1.864,-2.306 -2.795,-5.562 -2.795,-9.761l-0,-36.957l-9.85,0l0,-5.312l10.071,-0l-0,-16.985l10.07,-0l-0,16.985l15.655,-0l0,5.312l-15.545,0l0,30.481c0,2.29 0.081,4.199 0.25,5.732c0.165,1.528 0.562,2.873 1.188,4.007c0.588,1.071 1.476,1.882 2.655,2.434c1.179,0.553 2.766,0.83 4.758,0.83c0.92,-0 2.274,-0.084 4.066,-0.255c1.79,-0.164 3.052,-0.372 3.791,-0.636l0,4.039Z" style="fill:#fff;fill-rule:nonzero;"/>
                <path id="path6725" d="M288.035,75.023c-2.287,4.354 -5.348,7.819 -9.184,10.399c-3.836,2.585 -8.245,3.87 -13.223,3.87c-4.386,0 -8.232,-0.773 -11.538,-2.321c-3.297,-1.549 -6.015,-3.652 -8.159,-6.307c-2.136,-2.652 -3.734,-5.749 -4.785,-9.29c-1.052,-3.543 -1.575,-7.278 -1.575,-11.229c-0,-3.54 0.561,-7.018 1.686,-10.43c1.127,-3.406 2.776,-6.48 4.951,-9.21c2.103,-2.614 4.711,-4.728 7.83,-6.335c3.115,-1.607 6.613,-2.407 10.483,-2.407c3.982,-0 7.395,0.633 10.232,1.882c2.842,1.255 5.146,2.968 6.917,5.141c1.698,2.073 2.96,4.507 3.791,7.307c0.828,2.801 1.244,5.846 1.244,9.125l0,3.652l-36.124,-0c-0,3.581 0.34,6.827 1.021,9.741c0.685,2.914 1.762,5.474 3.236,7.69c1.436,2.141 3.318,3.827 5.644,5.062c2.321,1.24 5.089,1.848 8.299,1.848c3.281,0 6.11,-0.764 8.49,-2.299c2.382,-1.521 4.677,-4.284 6.888,-8.265l3.876,2.376Zm-12.227,-20.801c0,-2.064 -0.176,-4.278 -0.525,-6.637c-0.352,-2.362 -0.913,-4.332 -1.688,-5.921c-0.845,-1.695 -2.008,-3.072 -3.487,-4.149c-1.472,-1.067 -3.374,-1.603 -5.695,-1.603c-3.877,0 -7.093,1.612 -9.656,4.844c-2.562,3.227 -3.955,7.714 -4.176,13.466l25.227,0Z" style="fill:#fff;fill-rule:nonzero;"/>
                <path id="path6727" d="M324.464,40.334c0,1.88 -0.46,3.55 -1.381,5.006c-0.922,1.463 -2.34,2.184 -4.258,2.184c-2.069,-0 -3.644,-0.534 -4.735,-1.607c-1.084,-1.064 -1.63,-2.247 -1.63,-3.536c0,-0.812 0.063,-1.549 0.192,-2.214c0.13,-0.667 0.25,-1.332 0.36,-1.992c-1.733,-0 -3.764,0.701 -6.085,2.103c-2.324,1.404 -4.296,3.392 -5.921,5.972l0,31.755c0,1.298 0.253,2.346 0.748,3.157c0.496,0.816 1.281,1.423 2.351,1.828c0.922,0.368 2.112,0.645 3.568,0.823c1.456,0.192 2.718,0.316 3.791,0.39l-0,3.651l-28.768,0l-0,-3.651c0.847,-0.072 1.724,-0.142 2.626,-0.219c0.903,-0.07 1.688,-0.216 2.353,-0.446c1.03,-0.331 1.798,-0.911 2.294,-1.738c0.498,-0.829 0.748,-1.911 0.748,-3.236l0,-33.691c0,-1.142 -0.268,-2.272 -0.802,-3.374c-0.536,-1.109 -1.285,-1.992 -2.243,-2.655c-0.698,-0.446 -1.525,-0.762 -2.488,-0.969c-0.96,-0.2 -1.992,-0.338 -3.097,-0.412l0,-3.597l18.144,-1.22l0.773,0.776l-0,7.69l0.275,-0c2.292,-2.989 4.837,-5.256 7.636,-6.805c2.806,-1.55 5.369,-2.323 7.69,-2.323c2.326,-0 4.215,0.759 5.673,2.269c1.46,1.51 2.186,3.536 2.186,6.081Z" style="fill:#fff;fill-rule:nonzero;"/>
                <path id="path6729" d="M383.386,51.844c1.657,1.849 2.881,3.864 3.674,6.059c0.798,2.195 1.195,4.751 1.195,7.661c-0,6.939 -2.567,12.657 -7.69,17.151c-5.128,4.506 -11.488,6.748 -19.088,6.748c-3.505,0 -7.005,-0.538 -10.51,-1.629c-3.502,-1.084 -6.529,-2.407 -9.074,-3.953l-2.378,4.039l-4.422,-0l-0.775,-26.887l4.481,0c0.924,3.316 2.001,6.318 3.238,8.989c1.238,2.68 2.867,5.17 4.896,7.498c1.918,2.177 4.158,3.908 6.718,5.2c2.565,1.294 5.543,1.936 8.932,1.936c2.547,-0 4.765,-0.331 6.67,-0.996c1.897,-0.667 3.441,-1.612 4.618,-2.824c1.178,-1.217 2.051,-2.644 2.628,-4.285c0.574,-1.638 0.858,-3.532 0.858,-5.675c0,-3.124 -0.881,-6.056 -2.65,-8.768c-1.769,-2.713 -4.406,-4.766 -7.913,-6.168c-2.398,-0.96 -5.146,-2.022 -8.245,-3.18c-3.094,-1.161 -5.77,-2.259 -8.019,-3.296c-4.427,-1.99 -7.866,-4.6 -10.32,-7.827c-2.453,-3.225 -3.677,-7.442 -3.677,-12.644c0,-2.984 0.609,-5.768 1.824,-8.353c1.217,-2.581 2.95,-4.889 5.202,-6.917c2.136,-1.914 4.665,-3.421 7.577,-4.51c2.914,-1.086 5.959,-1.63 9.128,-1.63c3.615,0 6.85,0.55 9.71,1.662c2.855,1.104 5.47,2.398 7.827,3.867l2.27,-3.762l4.427,0l0.444,26.055l-4.479,-0c-0.809,-2.986 -1.724,-5.838 -2.74,-8.578c-1.012,-2.725 -2.329,-5.2 -3.954,-7.411c-1.584,-2.134 -3.522,-3.847 -5.808,-5.121c-2.288,-1.269 -5.091,-1.909 -8.407,-1.909c-3.5,0 -6.493,1.13 -8.963,3.374c-2.47,2.256 -3.708,5.002 -3.708,8.243c0,3.396 0.791,6.207 2.378,8.44c1.587,2.232 3.895,4.064 6.917,5.502c2.691,1.291 5.335,2.405 7.934,3.342c2.6,0.945 5.118,1.952 7.552,3.018c2.216,0.96 4.341,2.049 6.388,3.266c2.039,1.231 3.818,2.648 5.334,4.273Z" style="fill:#fff;fill-rule:nonzero;"/>
                <path id="path6731" d="M380.704,105.673c0,-1.844 0.503,-3.347 1.522,-4.512c1.012,-1.163 2.272,-1.742 3.788,-1.742c1.179,-0 2.191,0.216 3.045,0.665c0.846,0.444 1.603,1.018 2.268,1.712c0.552,0.55 1.147,1.31 1.769,2.268c0.629,0.962 1.127,1.756 1.492,2.38c1.848,-0.996 4.05,-3.597 6.617,-7.798c2.558,-4.206 4.42,-7.887 5.556,-11.069c-3.507,-8.736 -6.674,-16.555 -9.516,-23.456c-2.84,-6.897 -5.808,-14.032 -8.905,-21.411c-0.701,-1.693 -1.884,-3.018 -3.543,-3.958c-1.656,-0.942 -3.317,-1.537 -4.978,-1.799l-0,-3.651l24.896,0l-0,3.872c-1.109,0.036 -2.432,0.271 -3.985,0.69c-1.549,0.428 -2.322,0.913 -2.322,1.467c0,0.221 0.084,0.591 0.251,1.104c0.166,0.521 0.356,1.055 0.583,1.605c1.402,3.651 3.537,8.919 6.417,15.795c2.88,6.886 5.109,12.383 6.692,16.516c1.663,-3.948 3.387,-8.028 5.172,-12.252c1.792,-4.223 3.798,-9.209 6.007,-14.965c0.257,-0.697 0.633,-1.663 1.102,-2.903c0.478,-1.235 0.723,-2.297 0.723,-3.18c0,-0.956 -0.836,-1.853 -2.517,-2.685c-1.679,-0.827 -3.273,-1.336 -4.787,-1.523l-0,-3.539l20.248,0l0,3.433c-1.109,0.189 -2.569,0.82 -4.372,1.909c-1.81,1.091 -3.156,2.628 -4.041,4.616c-4.391,10.183 -8.297,19.457 -11.702,27.828c-3.413,8.375 -6,14.533 -7.769,18.477c-2.326,5.17 -4.4,9.194 -6.226,12.09c-1.825,2.898 -3.608,5.17 -5.341,6.829c-1.697,1.553 -3.237,2.596 -4.614,3.13c-1.381,0.53 -2.819,0.801 -4.284,0.801c-2.879,-0 -5.137,-0.681 -6.78,-2.042c-1.647,-1.359 -2.466,-2.933 -2.466,-4.702Z" style="fill:#fff;fill-rule:nonzero;"/>
                <path id="path6733" d="M464.879,61.137c1.508,1.328 2.673,2.86 3.484,4.587c0.814,1.74 1.217,3.86 1.217,6.362c0,5.058 -1.893,9.187 -5.666,12.394c-3.786,3.207 -8.679,4.814 -14.693,4.814c-3.169,0 -6.096,-0.574 -8.765,-1.717c-2.677,-1.143 -4.587,-2.191 -5.729,-3.153l-1.107,3.597l-4.149,-0l-0.552,-18.98l3.815,0c0.291,1.438 0.92,3.122 1.882,5.031c0.96,1.92 2.121,3.649 3.489,5.2c1.434,1.627 3.158,2.99 5.171,4.097c2.008,1.102 4.266,1.661 6.775,1.661c3.538,0 6.272,-0.802 8.188,-2.409c1.913,-1.603 2.878,-3.899 2.878,-6.89c0,-1.551 -0.306,-2.878 -0.915,-4.008c-0.609,-1.122 -1.506,-2.105 -2.684,-2.961c-1.215,-0.848 -2.709,-1.609 -4.476,-2.295c-1.772,-0.68 -3.749,-1.356 -5.924,-2.021c-1.737,-0.514 -3.664,-1.222 -5.781,-2.13c-2.127,-0.906 -3.937,-1.968 -5.452,-3.183c-1.618,-1.287 -2.952,-2.878 -3.985,-4.755c-1.034,-1.882 -1.548,-4.095 -1.548,-6.64c0,-4.463 1.663,-8.24 4.983,-11.341c3.323,-3.099 7.758,-4.65 13.332,-4.65c2.136,-0 4.325,0.277 6.554,0.827c2.229,0.557 4.05,1.217 5.452,1.99l1.276,-2.876l3.98,0l0.829,17.535l-3.818,0c-0.773,-3.908 -2.445,-7.088 -5.001,-9.545c-2.567,-2.45 -5.689,-3.678 -9.38,-3.678c-3.025,-0 -5.407,0.762 -7.138,2.272c-1.736,1.517 -2.599,3.342 -2.599,5.479c0,1.659 0.284,3.043 0.856,4.147c0.573,1.109 1.429,2.044 2.572,2.824c1.109,0.739 2.506,1.431 4.181,2.074c1.672,0.644 3.75,1.379 6.223,2.184c2.439,0.773 4.733,1.681 6.892,2.711c2.15,1.05 3.929,2.195 5.333,3.446Z" style="fill:#fff;fill-rule:nonzero;"/>
                <path id="path6735" d="M499.703,85.476c-2.396,0.999 -4.663,1.839 -6.809,2.518c-2.134,0.685 -4.749,1.023 -7.85,1.023c-4.573,0 -7.792,-1.147 -9.656,-3.455c-1.861,-2.306 -2.794,-5.562 -2.794,-9.761l-0,-36.957l-9.845,0l-0,-5.312l10.063,-0l0,-16.985l10.073,-0l-0,16.985l15.657,-0l0,5.312l-15.549,0l-0,30.481c-0,2.29 0.086,4.199 0.252,5.732c0.165,1.53 0.564,2.873 1.195,4.007c0.584,1.071 1.476,1.882 2.648,2.434c1.179,0.553 2.766,0.83 4.756,0.83c0.922,-0 2.276,-0.084 4.068,-0.255c1.787,-0.164 3.052,-0.372 3.789,-0.636l0.002,4.039Z" style="fill:#fff;fill-rule:nonzero;"/>
                <path id="path6737" d="M541.888,75.023c-2.285,4.354 -5.346,7.819 -9.184,10.399c-3.836,2.585 -8.245,3.87 -13.224,3.87c-4.379,0 -8.228,-0.773 -11.533,-2.321c-3.301,-1.549 -6.017,-3.652 -8.165,-6.307c-2.132,-2.652 -3.735,-5.749 -4.785,-9.29c-1.053,-3.543 -1.573,-7.278 -1.573,-11.229c-0,-3.54 0.565,-7.018 1.686,-10.43c1.124,-3.406 2.776,-6.48 4.951,-9.21c2.101,-2.614 4.711,-4.728 7.828,-6.335c3.115,-1.607 6.613,-2.407 10.48,-2.407c3.987,-0 7.395,0.633 10.235,1.882c2.84,1.255 5.143,2.968 6.915,5.141c1.699,2.073 2.959,4.507 3.791,7.307c0.825,2.801 1.242,5.846 1.242,9.125l-0,3.652l-36.123,-0c0,3.581 0.345,6.827 1.023,9.741c0.679,2.914 1.756,5.474 3.239,7.69c1.431,2.141 3.322,3.827 5.639,5.062c2.322,1.24 5.087,1.848 8.301,1.848c3.284,0 6.108,-0.764 8.493,-2.299c2.378,-1.521 4.674,-4.284 6.892,-8.265l3.872,2.376Zm-12.229,-20.801c-0,-2.064 -0.174,-4.278 -0.523,-6.637c-0.347,-2.362 -0.915,-4.332 -1.688,-5.921c-0.845,-1.695 -2.006,-3.072 -3.485,-4.149c-1.478,-1.067 -3.376,-1.603 -5.702,-1.603c-3.868,0 -7.091,1.612 -9.653,4.844c-2.561,3.227 -3.953,7.714 -4.177,13.466l25.228,0Z" style="fill:#fff;fill-rule:nonzero;"/>
                <path id="path6739" d="M629.993,87.859l-26.613,-0l-0,-3.656c0.85,-0.07 1.706,-0.142 2.574,-0.216c0.865,-0.07 1.627,-0.219 2.292,-0.444c1.032,-0.334 1.798,-0.916 2.297,-1.743c0.5,-0.827 0.75,-1.911 0.75,-3.234l0,-28.159c0,-3.834 -0.879,-6.796 -2.632,-8.881c-1.754,-2.082 -3.933,-3.123 -6.552,-3.123c-1.806,-0 -3.505,0.272 -5.09,0.827c-1.586,0.552 -3.042,1.325 -4.367,2.323c-1.076,0.814 -1.968,1.686 -2.692,2.628c-0.716,0.94 -1.262,1.727 -1.634,2.349l0,31.477c0,1.298 0.226,2.355 0.67,3.183c0.444,0.827 1.197,1.469 2.269,1.911c0.848,0.331 1.614,0.581 2.297,0.746c0.678,0.164 1.573,0.286 2.68,0.358l-0,3.651l-26.05,0l-0,-3.651c0.852,-0.072 1.663,-0.144 2.461,-0.218c0.789,-0.07 1.521,-0.219 2.18,-0.449c1.034,-0.331 1.798,-0.911 2.296,-1.74c0.501,-0.827 0.753,-1.909 0.753,-3.236l0,-28.16c0,-3.834 -0.879,-6.793 -2.635,-8.878c-1.749,-2.082 -3.937,-3.126 -6.549,-3.126c-1.808,0 -3.51,0.286 -5.094,0.859c-1.584,0.579 -3.043,1.359 -4.37,2.353c-1.069,0.813 -1.972,1.726 -2.709,2.738c-0.737,1.021 -1.29,1.783 -1.664,2.297l0,31.256c0,1.256 0.262,2.31 0.778,3.156c0.516,0.852 1.287,1.494 2.317,1.938c0.773,0.372 1.571,0.642 2.378,0.825c0.818,0.189 1.715,0.315 2.711,0.392l0,3.653l-26.503,0l0,-3.653c0.85,-0.072 1.724,-0.144 2.633,-0.221c0.901,-0.068 1.681,-0.219 2.35,-0.444c1.033,-0.331 1.801,-0.913 2.292,-1.744c0.499,-0.825 0.746,-1.905 0.746,-3.235l0,-33.911c0,-1.179 -0.259,-2.243 -0.8,-3.18c-0.536,-0.945 -1.282,-1.747 -2.238,-2.412c-0.703,-0.444 -1.566,-0.8 -2.598,-1.077c-1.033,-0.277 -2.103,-0.449 -3.21,-0.528l0,-3.592l18.261,-1.22l0.773,0.774l-0,7.8l0.388,0c0.921,-0.917 2.046,-2.01 3.374,-3.266c1.334,-1.246 2.564,-2.269 3.709,-3.04c1.29,-0.881 2.906,-1.618 4.846,-2.213c1.934,-0.586 4.028,-0.884 6.277,-0.884c3.539,0 6.579,0.949 9.128,2.844c2.549,1.903 4.375,4.199 5.475,6.89c1.332,-1.287 2.502,-2.42 3.516,-3.401c1.012,-0.976 2.351,-2.017 4.009,-3.126c1.404,-0.958 3.05,-1.733 4.952,-2.323c1.898,-0.586 4.007,-0.884 6.336,-0.884c4.609,0 8.26,1.519 10.956,4.535c2.688,3.027 4.036,7.676 4.036,13.944l0,27.718c0,1.292 0.219,2.346 0.67,3.18c0.444,0.825 1.194,1.472 2.267,1.907c0.852,0.334 1.686,0.582 2.515,0.748c0.832,0.165 1.76,0.287 2.795,0.359l-0,3.653l-0.007,0l0,-0.004Z" style="fill:#fff;fill-rule:nonzero;"/>
            </g>
        </g>
    </g>
</svg>
