<?xml version="1.0" encoding="UTF-8"?>
<svg width="632px" height="106px" viewBox="0 0 632 106" version="1.1" xmlns="http://www.w3.org/2000/svg" xmlns:xlink="http://www.w3.org/1999/xlink">
    <title>mastersystem</title>
    <defs>
        <polygon id="path-1" points="3.90798505e-14 0 632 0 632 105.838 0 105.838"></polygon>
    </defs>
    <g id="Page-1" stroke="none" stroke-width="1" fill="none" fill-rule="evenodd" opacity="0.78">
        <g id="Emulation-Station-System-Logo-4:3-Copy-8" transform="translate(-4.000000, -7.000000)">
            <g id="mastersystem" transform="translate(4.000000, 7.000000)">
                <mask id="mask-2" fill="white">
                    <use xlink:href="#path-1"></use>
                </mask>
                <g id="Path"></g>
                <g id="Group" mask="url(#mask-2)" fill="#FFFFFF" fill-rule="nonzero">
                    <g transform="translate(0.000000, -0.000233)">
                        <path d="M25.059,82.6172327 L25.059,71.7022327 C25.059,67.2402327 21.428,63.6112327 16.967,63.6112327 C12.508,63.6112327 8.899,67.2402327 8.899,71.7022327 L8.899,74.5482327 C8.89953523,74.6555433 8.85714296,74.7586136 8.78126193,74.8344946 C8.7053809,74.9103756 8.60231065,74.9527679 8.495,74.9522327 C8.249,74.9522327 8.07,74.7732327 8.07,74.5482327 L8.07,63.6552327 L4.66199881,63.6322327 L4.66199881,74.5482327 C4.66120284,75.559125 5.06249373,76.5288283 5.77739655,77.2435435 C6.49229937,77.9582587 7.46210793,78.3592951 8.473,78.3582327 C10.603,78.3582327 12.328,76.6552327 12.328,74.5482327 L12.328,71.7022327 C12.3335002,69.1419131 14.4076805,67.0677328 16.968,67.0622327 C19.523,67.0622327 21.585,69.1472327 21.585,71.7022327 L21.585,82.6172327 L25.059,82.6172327 L25.059,82.6172327 Z" id="Path"></path>
                        <path d="M20.801,82.6172327 L20.801,71.7022327 C20.801,69.5853252 19.0849074,67.8692327 16.968,67.8692327 C14.8510926,67.8692327 13.135,69.5853252 13.135,71.7022327 L13.135,74.5482327 C13.135,77.1032327 11.028,79.1652327 8.473,79.1652327 C7.24792571,79.1670943 6.07249175,78.6812596 5.20623242,77.8150003 C4.33997308,76.9487409 3.85413838,75.773307 3.856,74.5482327 L3.856,63.6332327 L0.404,63.6552327 L0.404,74.5492327 C0.404,79.0092327 4.013,82.6182342 8.495,82.6182342 C10.6354386,82.6195602 12.6885917,81.7698622 14.2021106,80.2563433 C15.7156295,78.7428244 16.5653276,76.6896712 16.564,74.5492327 L16.564,71.7252327 C16.564,71.5023858 16.7446531,71.3217327 16.9675,71.3217327 C17.1903469,71.3217327 17.371,71.5023858 17.371,71.7252327 L17.371,82.6182342 L20.801,82.6172327 L20.801,82.6172327 Z M21.607,55.1612327 C21.6107425,56.0717105 21.2506436,56.9459638 20.6067393,57.5896803 C19.962835,58.2333969 19.0884767,58.5932407 18.178,58.5892327 L7.217,58.5892327 C5.38,58.5892327 3.833,57.0432327 3.833,55.1612327 L3.833,43.5052327 L0.404,43.5052327 L0.404,55.1612327 C0.404552228,58.9489632 3.47526939,62.0192327 7.263,62.0192327 L18.178,62.0192327 C21.9657306,62.0192327 25.0364478,58.9489632 25.037,55.1612327 L25.037,43.5502327 L21.608,43.5502327 L21.607,55.1612327 L21.607,55.1612327 Z" id="Shape"></path>
                        <path d="M7.262,57.7612327 C5.828,57.7612327 4.639,56.5952327 4.639,55.1612327 L4.639,43.5052327 L8.069,43.5052327 L8.069,53.5462327 C8.069,54.3542327 8.876,54.3542327 8.876,54.3542327 L8.876,45.9712327 L12.305,45.9712327 L12.305,57.7612327 L7.262,57.7612327 Z M20.779,55.1612327 C20.779,56.5952327 19.613,57.7612327 18.178,57.7612327 L13.134,57.7612327 L13.134,45.9712327 L16.563,45.9712327 L16.563,54.3542327 C17.371,54.3542327 17.371,53.5472327 17.371,53.5472327 L17.371,43.5512327 L20.777,43.5512327 L20.779,55.1612327 L20.779,55.1612327 Z M18.178,37.9702327 C19.622334,37.9598825 20.7906499,36.7915667 20.801,35.3472327 L20.801,28.2872327 L13.113,28.2872327 L13.113,33.7562327 L16.564,33.7562327 L16.564,31.7162327 L17.371,31.7162327 L17.371,33.7332327 C17.371,34.1822327 16.991,34.5402327 16.564,34.5402327 L8.877,34.5402327 C8.877,34.5402327 8.069,34.5402327 8.069,33.7332327 L8.069,24.0502327 L4.639,24.0502327 L4.639,35.3472327 C4.64881244,36.7917916 5.81744107,37.9604202 7.262,37.9702327 L18.178,37.9702327 L18.178,37.9702327 Z M4.596,13.4492327 C4.14121357,13.2990809 3.834,12.8741651 3.834,12.3952327 C3.834,11.9022327 4.148,11.4982327 4.596,11.3412327 L20.823,5.87223268 L20.823,13.8732327 L17.012,13.8732327 L17.012,11.1832327 L13.404,12.3942327 L25.037,16.3392327 L25.037,20.3732327 L4.596,13.4492327 Z" id="Shape"></path>
                        <path d="M22.66,24.0502327 L8.877,24.0502327 L8.877,33.7552327 L12.306,33.7552327 L12.306,27.4792327 L21.607,27.4792327 L21.607,35.3252327 C21.607,37.2292327 20.06,38.7762327 18.178,38.7762327 L7.263,38.7762327 C5.37223853,38.7685645 3.84121954,37.2379918 3.833,35.3472327 L3.833,24.0502327 L0.404,24.0502327 L0.404,35.3692327 C0.403999981,37.1882606 1.12667446,38.9327713 2.41301524,40.2189246 C3.69935601,41.5050778 5.44397206,42.2272327 7.263,42.2272327 L18.178,42.2272327 C21.966,42.2272327 25.037,39.1352327 25.037,35.3472327 L25.037,24.0502327 L25.036,24.0502327 L25.036,21.2272327 L4.214,14.1682327 C3.50110241,13.8704042 3.04022531,13.1697919 3.049,12.3972327 C3.049,11.6122327 3.519,10.9392327 4.214,10.6482327 L21.607,4.75223268 L21.607,13.8742327 L25.036,13.8742327 L25.036,0.000232675592 L3.631,7.21823268 C1.547,7.84623268 0,9.93023268 0,12.3962327 C0,14.8612327 1.525,16.9452327 3.631,17.5732327 L22.66,24.0502327 Z M129.472,81.0452327 L94.451,81.0452327 L94.451,77.0792327 C95.718,77.0472327 97.347,76.9132327 99.338,76.6852327 C101.334,76.4642327 102.699,76.1482327 103.446,75.7342327 C104.602,75.0312327 105.448,74.2232327 105.987,73.3062327 C106.529,72.3912327 106.797,71.2492327 106.797,69.8702327 L106.797,12.2332327 L105.96,12.2332327 L78.925,79.7592327 L76.136,79.7592327 L50.384,10.8362327 L49.661,10.8362327 L49.661,58.1422327 C49.661,62.7212327 49.948,66.2042327 50.526,68.5872327 C51.104,70.9712327 51.986,72.6832327 53.181,73.7222327 C54,74.5012327 55.691,75.2542327 58.26,75.9642327 C60.829,76.6692327 62.506,77.0452327 63.289,77.0742327 L63.289,81.0402327 L31.282,81.0402327 L31.282,77.0742327 C33.0579319,76.9118443 34.8213552,76.6335848 36.561,76.2412327 C38.402,75.8322327 39.826,75.2202327 40.834,74.3982327 C42.136,73.3612327 43.03,71.7562327 43.515,69.5952327 C44.002,67.4402327 44.238,63.8242327 44.238,58.7592327 L44.238,18.2082327 C44.238,15.8622327 43.961,13.9462327 43.403,12.4582327 C42.846,10.9702327 42.045,9.76023268 41.003,8.82923268 C39.849,7.82123268 38.432,7.07923268 36.757,6.59223268 C35.1384301,6.12129958 33.4705354,5.84040866 31.787,5.75523268 L31.787,1.79123268 L58.822,1.79123268 L81.494,61.2172327 L100.877,11.5072327 C101.601399,9.63882842 102.207595,7.72672235 102.692,5.78223268 C103.195,3.79123268 103.468,2.45823268 103.505,1.79123268 L129.363,1.79123268 L129.363,5.75523268 C128.321,5.79323268 126.987,5.96223268 125.37,6.25823268 C123.752,6.56023268 122.566,6.83823268 121.822,7.09523268 C120.559,7.53923268 119.699,8.29023268 119.251,9.33223268 C118.805,10.3722327 118.582,11.5072327 118.582,12.7362327 L118.582,69.8722327 C118.582,71.1762327 118.805,72.2732327 119.251,73.1672327 C119.699,74.0592327 120.555,74.8442327 121.822,75.5092327 C122.496,75.8862327 123.686,76.2302327 125.399,76.5462327 C127.11,76.8582327 128.471,77.0422327 129.475,77.0722327 L129.475,81.0422327 L129.472,81.0422327 L129.472,81.0452327 Z" id="Shape"></path>
                        <path d="M210.413,31.5612327 L210.908,42.0392327 L207.056,42.0392327 C206.275,38.0932327 204.587,34.8832327 202,32.4032327 C199.41,29.9292327 196.254,28.6892327 192.532,28.6892327 C189.48,28.6892327 187.075,29.4582327 185.325,30.9832327 C183.573,32.5142327 182.702,34.3572327 182.702,36.5142327 C182.702,38.1892327 182.989,39.5862327 183.566,40.7012327 C184.144,41.8212327 185.007,42.7652327 186.165,43.5522327 C187.278,44.2992327 188.686,44.9972327 190.381,45.6462327 C192.077,46.2962327 194.168,47.0382327 196.666,47.8512327 C199.044328,48.6021555 201.367872,49.5166709 203.62,50.5882327 C205.798,51.6482327 207.591,52.8042327 209.008,54.0672327 C210.535,55.4072327 211.707,56.9552327 212.528,58.6982327 C213.348,60.4542327 213.757,62.5952327 213.757,65.1212327 C213.757,70.2272327 211.846,74.3962327 208.034,77.6342327 C204.216,80.8722327 199.272,82.4942327 193.203,82.4942327 C189.999,82.4942327 187.048,81.9142327 184.349,80.7602327 C181.99,79.7532327 180.221,78.8182327 179.043,77.9502327 L179.043,80.0372327 L179.041,80.0372327 C178.565,80.2112327 178.105,80.3752327 177.661,80.5302327 L175.626,81.2092327 C175.211,81.3412327 174.813,81.4632327 174.433,81.5752327 C173.111,81.9662327 171.614,82.1602327 169.939,82.1602327 C167.031,82.1602327 164.717,81.4862327 162.983,80.1232327 C161.251,78.7672327 160.145,76.7852327 159.661,74.1772327 L159.324,74.1772327 C156.905,76.8532327 154.306,78.9082327 151.533,80.3192327 C148.757,81.7372327 145.414,82.4402327 141.505,82.4402327 C137.373,82.4402327 133.975,81.1842327 131.313,78.6422327 C128.651,76.1142327 127.322,72.7992327 127.322,68.7002327 C127.322,66.5772327 127.62,64.6752327 128.216,63.0032327 C128.806791,61.3358114 129.716356,59.799264 130.894,58.4792327 C131.827,57.3692327 133.056,56.3722327 134.581,55.4912327 C136.11,54.6202327 137.541,53.9242327 138.881,53.3982327 C140.56,52.7682327 143.958,51.5912327 149.075,49.8782327 C154.195,48.1712327 157.647,46.8292327 159.435,45.8602327 L159.435,40.3302327 C159.435,39.8462327 159.335,38.9152327 159.126,37.5382327 C158.924214,36.1671782 158.480308,34.8429108 157.815,33.6272327 C157.069,32.2552327 156.02,31.0512327 154.657,30.0252327 C153.301,29.0052327 151.373,28.4892327 148.88,28.4892327 C147.164,28.4892327 145.576,28.7802327 144.103,29.3562327 C142.631,29.9382327 141.598,30.5392327 141.004,31.1712327 C141.004,31.9202327 141.182,33.0122327 141.537,34.4642327 C141.889,35.9162327 142.067,37.2582327 142.067,38.4852327 C142.067,39.7912327 141.478,40.9812327 140.303,42.0572327 C139.134,43.1472327 137.502,43.6772327 135.418,43.6772327 C133.559,43.6772327 132.189,43.0242327 131.311,41.6982327 C130.439,40.3802327 130.002,38.8992327 130.002,37.2562327 C130.002,35.5472327 130.605,33.9072327 131.816,32.3412327 C133.029,30.7782327 134.599,29.3832327 136.538,28.1542327 C138.215,27.1172327 140.244,26.2252327 142.624,25.5012327 C145.009,24.7732327 147.335,24.4112327 149.608,24.4112327 C152.736,24.4112327 155.46,24.6252327 157.79,25.0532327 C160.089003,25.4707023 162.259469,26.4169436 164.13,27.8172327 C166.027,29.1992327 167.47,31.0692327 168.457,33.4292327 C169.443,35.7972327 169.939,38.8372327 169.939,42.5622327 C169.939,47.8872327 169.88,52.6062327 169.77,56.7182327 C169.654478,61.2142852 169.60014,65.7117015 169.607,70.2092327 C169.607,71.6612327 169.857,72.8192327 170.357,73.6772327 C170.86,74.5352327 171.634,75.2612327 172.676,75.8502327 C172.805,75.9282327 172.95,75.9982327 173.113,76.0592327 L172.706,62.0472327 L176.558,62.0472327 C176.856,63.4992327 177.489,65.1992327 178.456,67.1262327 C179.397141,69.0209118 180.58037,70.7853356 181.976,72.3752327 C183.428,74.0182327 185.168,75.3952327 187.198,76.5122327 C189.228,77.6252327 191.51,78.1892327 194.04,78.1892327 C197.615,78.1892327 200.373,77.3792327 202.309,75.7572327 C204.243,74.1392327 205.215,71.8202327 205.215,68.8012327 C205.215,67.2352327 204.908,65.8952327 204.294,64.7552327 C203.679,63.6222327 202.774,62.6302327 201.583,61.7652327 C200.355,60.9092327 198.846,60.1402327 197.058,59.4482327 C195.09042,58.6983924 193.0972,58.0176425 191.082,57.4072327 C189.33,56.8892327 187.387,56.1742327 185.246,55.2572327 C183.105,54.3422327 181.271,53.2712327 179.744,52.0442327 C178.105,50.7452327 176.765,49.1382327 175.721,47.2432327 C174.679,45.3432327 174.157,43.1092327 174.157,40.5402327 C174.157,36.0342327 175.832,32.2202327 179.184,29.0892327 C182.538,25.9612327 187.023,24.3952327 192.646,24.3952327 C194.803,24.3952327 197.01,24.6752327 199.265,25.2302327 C201.515,25.7922327 203.349,26.4592327 204.765,27.2402327 L206.05,24.3362327 L210.071,24.3362327 L210.159,26.1972327 L217.022,26.1972327 L217.022,9.05023268 L227.189,9.05023268 L227.189,26.1972327 L242.994,26.1972327 L242.994,31.5612327 L227.301,31.5612327 L227.301,62.3342327 C227.301,64.6462327 227.382,66.5732327 227.553,68.1202327 C227.719,69.6632327 228.12,71.0212327 228.752,72.1662327 C229.346,73.2472327 230.243,74.0662327 231.433,74.6232327 C232.623,75.1812327 234.225,75.4612327 236.236,75.4612327 C237.165,75.4612327 238.532,75.3772327 240.341,75.2042327 C242.148,75.0382327 243.422,74.8282327 244.168,74.5622327 L244.168,78.6402327 C241.916248,79.5863994 239.624416,80.4342003 237.299,81.1812327 C235.139,81.8732327 232.495,82.2142327 229.367,82.2142327 C224.75,82.2142327 221.5,81.0562327 219.621,78.7262327 C217.739,76.3982327 216.799,73.1102327 216.799,68.8712327 L216.799,31.5612327 L210.413,31.5612327 L210.413,31.5612327 Z M159.549,50.5472327 C156.384,51.4802327 153.612,52.3862327 151.228,53.2842327 C148.894509,54.1493026 146.665542,55.2736813 144.583,56.6362327 C142.72,57.9012327 141.25,59.3982327 140.169,61.1282327 C139.091,62.8592327 138.549,64.9232327 138.549,67.3012327 C138.549,70.3932327 139.357,72.6622327 140.979,74.1142327 C142.599,75.5632327 144.654,76.2942327 147.148,76.2942327 C149.794,76.2942327 152.12,75.6502327 154.131,74.3642327 C156.14,73.0782327 157.838,71.5702327 159.212,69.8112327 L159.549,50.5472327 Z" id="Shape"></path>
                        <path d="M286.758,68.0862327 C284.448,72.4822327 281.358,75.9802327 277.486,78.5852327 C273.613,81.1952327 269.162,82.4922327 264.136,82.4922327 C259.708,82.4922327 255.826,81.7112327 252.488,80.1482327 C249.159,78.5852327 246.414,76.4622327 244.25,73.7822327 C242.093,71.1032327 240.48,67.9772327 239.42,64.4022327 C238.357,60.8252327 237.829,57.0552327 237.829,53.0662327 C237.829,49.4912327 238.396,45.9802327 239.531,42.5352327 C240.669,39.0972327 242.334,35.9932327 244.53,33.2382327 C246.653,30.5982327 249.286,28.4642327 252.435,26.8412327 C255.58,25.2192327 259.111,24.4112327 263.018,24.4112327 C267.039,24.4112327 270.484,25.0512327 273.349,26.3112327 C276.218,27.5792327 278.544,29.3082327 280.332,31.5012327 C282.046,33.5952327 283.32,36.0522327 284.159,38.8782327 C284.995,41.7072327 285.416,44.7812327 285.416,48.0922327 L285.416,51.7782327 L248.945,51.7782327 C248.945,55.3942327 249.288,58.6702327 249.975,61.6122327 C250.667,64.5552327 251.755,67.1402327 253.243,69.3762327 C254.692,71.5382327 256.592,73.2402327 258.941,74.4872327 C261.284,75.7382327 264.079,76.3532327 267.319,76.3532327 C270.632,76.3532327 273.488,75.5812327 275.891,74.0322327 C278.296,72.4962327 280.612,69.7062327 282.844,65.6882327 L286.758,68.0862327 L286.758,68.0862327 Z M274.414,47.0862327 C274.414,45.0022327 274.236,42.7672327 273.884,40.3852327 C273.529,38.0002327 272.962,36.0112327 272.179,34.4072327 C271.326,32.6962327 270.152,31.3062327 268.659,30.2182327 C267.173,29.1422327 265.253,28.6002327 262.909,28.6002327 C258.995,28.6002327 255.748,30.2272327 253.161,33.4902327 C250.574,36.7492327 249.168,41.2792327 248.945,47.0862327 L274.414,47.0862327 L274.414,47.0862327 Z" id="Shape"></path>
                        <path d="M323.536,33.0652327 C323.536,34.9622327 323.072,36.6492327 322.141,38.1182327 C321.211,39.5952327 319.779,40.3232327 317.843,40.3232327 C315.754,40.3232327 314.164,39.7842327 313.062,38.7012327 C311.968,37.6272327 311.417,36.4322327 311.417,35.1312327 C311.417,34.3122327 311.481,33.5682327 311.61,32.8962327 C311.742,32.2232327 311.863,31.5512327 311.975,30.8852327 C310.225,30.8852327 308.175,31.5922327 305.831,33.0082327 C303.485,34.4252327 301.494,36.4322327 299.853,39.0382327 L299.853,71.0972327 C299.853,72.4072327 300.108,73.4652327 300.609,74.2842327 C301.109,75.1082327 301.901,75.7202327 302.982,76.1302327 C303.913,76.5012327 305.114,76.7812327 306.584,76.9602327 C308.054,77.1542327 309.328,77.2792327 310.411,77.3542327 L310.411,81.0402327 L281.368,81.0402327 L281.368,77.3542327 C282.223,77.2812327 283.108,77.2112327 284.018,77.1332327 C284.931,77.0632327 285.723,76.9152327 286.394,76.6832327 C287.434,76.3482327 288.21,75.7632327 288.71,74.9282327 C289.213,74.0912327 289.466,72.9992327 289.466,71.6612327 L289.466,37.6472327 C289.466,36.4942327 289.195,35.3542327 288.656,34.2412327 C288.114,33.1222327 287.359,32.2302327 286.392,31.5612327 C285.686,31.1102327 284.851,30.7922327 283.88,30.5822327 C282.848479,30.3717904 281.803663,30.2327935 280.753,30.1662327 L280.753,26.5342327 L299.07,25.3032327 L299.851,26.0862327 L299.851,33.8502327 L300.129,33.8502327 C302.443,30.8322327 305.012,28.5432327 307.838,26.9802327 C310.671,25.4152327 313.258,24.6342327 315.602,24.6342327 C317.95,24.6342327 319.857,25.4012327 321.329,26.9262327 C322.803,28.4502327 323.536,30.4962327 323.536,33.0652327 L323.536,33.0652327 Z M466.699,31.5612327 L467.194,42.0392327 L463.34,42.0392327 C462.559,38.0932327 460.871,34.8832327 458.29,32.4032327 C455.699,29.9292327 452.547,28.6892327 448.82,28.6892327 C445.766,28.6892327 443.361,29.4582327 441.614,30.9832327 C439.862,32.5142327 438.99,34.3572327 438.99,36.5142327 C438.99,38.1892327 439.277,39.5862327 439.855,40.7012327 C440.433,41.8212327 441.297,42.7652327 442.451,43.5522327 C443.571,44.2992327 444.981,44.9972327 446.672,45.6462327 C448.746929,46.4353979 450.841966,47.1706448 452.955,47.8512327 C455.334748,48.6018131 457.659645,49.5163352 459.913,50.5882327 C462.084,51.6482327 463.879,52.8042327 465.297,54.0672327 C466.819,55.4072327 467.995,56.9552327 468.814,58.6982327 C469.636,60.4542327 470.043,62.5952327 470.043,65.1212327 C470.043,70.2272327 468.132,74.3962327 464.323,77.6342327 C460.5,80.8722327 455.56,82.4942327 449.489,82.4942327 C446.29,82.4942327 443.334,81.9142327 440.64,80.7602327 C437.937,79.6072327 436.009,78.5492327 434.856,77.5772327 L433.738,81.2092327 L429.549,81.2092327 L428.992,62.0472327 L432.844,62.0472327 C433.138,63.4992327 433.772,65.1992327 434.744,67.1262327 C435.684404,69.0218117 436.868423,70.7864103 438.266,72.3752327 C439.714,74.0182327 441.454,75.3952327 443.486,76.5122327 C445.514,77.6252327 447.794,78.1892327 450.326,78.1892327 C453.899,78.1892327 456.659,77.3792327 458.593,75.7572327 C460.525,74.1392327 461.499,71.8202327 461.499,68.8012327 C461.499,67.2352327 461.189,65.8952327 460.575,64.7552327 C459.961,63.6222327 459.055,62.6302327 457.865,61.7652327 C456.638,60.9092327 455.13,60.1402327 453.346,59.4482327 C451.376838,58.6990365 449.382308,58.0182948 447.366,57.4072327 C445.612,56.8892327 443.666,56.1742327 441.529,55.2572327 C439.381,54.3422327 437.554,53.2712327 436.025,52.0442327 C434.391,50.7452327 433.044,49.1382327 432.002,47.2432327 C430.958,45.3432327 430.439,43.1092327 430.439,40.5402327 C430.439,37.4442327 431.232,34.6762327 432.815,32.2302327 C431.596,33.2322327 430.648,34.4952327 429.968,36.0202327 C425.535,46.3012327 421.592,55.6642327 418.154,64.1152327 C414.709,72.5712327 412.097,78.7882327 410.31,82.7702327 C407.962,87.9892327 405.869,92.0512327 404.026,94.9752327 C402.182,97.9012327 400.383,100.195233 398.633,101.870233 C396.919,103.437233 395.365,104.491233 393.975,105.030233 C392.594969,105.563341 391.128422,105.838233 389.649,105.838233 C386.744,105.838233 384.464,105.151233 382.805,103.777233 C381.141,102.404233 380.315,100.816233 380.315,99.0302327 C380.315,97.1692327 380.823,95.6512327 381.851,94.4742327 C382.873,93.3002327 384.145,92.7162327 385.676,92.7162327 C386.866,92.7162327 387.888,92.9342327 388.75,93.3872327 C389.602142,93.8354149 390.3756,94.4193929 391.04,95.1162327 C391.597,95.6712327 392.198,96.4382327 392.826,97.4052327 C393.347084,98.1941132 393.849227,98.9953422 394.332,99.8082327 C396.198,98.8022327 398.421,96.1772327 401.013,91.9352327 C403.595,87.6892327 405.475,83.9732327 406.622,80.7602327 C403.453867,72.8530673 400.251504,64.95966 397.015,57.0802327 C394.04242,49.8645725 391.045737,42.6588656 388.025,35.4632327 C387.317,33.7542327 386.122,32.4162327 384.448,31.4672327 C382.775,30.5162327 381.098,29.9152327 379.421,29.6522327 L379.421,25.9652327 L379.472,25.9652327 C378.825761,23.7617406 378.10299,21.5814196 377.305,19.4282327 C376.283,16.6772327 374.954,14.1782327 373.314,11.9462327 C371.714,9.79123268 369.757,8.06223268 367.45,6.77623268 C365.14,5.49523268 362.31,4.84923268 358.963,4.84923268 C355.429,4.84923268 352.407,5.98923268 349.913,8.25523268 C347.419,10.5332327 346.17,13.3052327 346.17,16.5772327 C346.17,20.0062327 346.969,22.8432327 348.571,25.0982327 C350.173,27.3512327 352.503,29.2012327 355.554,30.6532327 C358.165231,31.9126177 360.838666,33.0387314 363.564,34.0272327 C366.189,34.9812327 368.731,35.9982327 371.189,37.0742327 C373.406447,38.0345963 375.560179,39.1358456 377.637,40.3712327 C379.696,41.6142327 381.492,43.0452327 383.023,44.6852327 C384.696,46.5512327 385.931,48.5862327 386.732,50.8022327 C387.538,53.0182327 387.938,55.5982327 387.938,58.5362327 C387.938,65.5422327 385.346,71.3152327 380.174,75.8522327 C374.998,80.4012327 368.576,82.6652327 360.904,82.6652327 C357.365,82.6652327 353.831,82.1212327 350.293,81.0202327 C346.757,79.9252327 343.701,78.5902327 341.132,77.0292327 L338.732,81.1062327 L334.267,81.1062327 L333.484,53.9622327 L338.008,53.9622327 C338.941,57.3102327 340.029,60.3402327 341.278,63.0372327 C342.527,65.7422327 344.172,68.2572327 346.22,70.6072327 C348.121985,72.7775321 350.425142,74.5601609 353.003,75.8572327 C355.593,77.1632327 358.598,77.8112327 362.021,77.8112327 C364.592,77.8112327 366.831,77.4772327 368.754,76.8062327 C370.67,76.1322327 372.228,75.1792327 373.416,73.9542327 C374.605972,72.7239215 375.511586,71.2475615 376.069,69.6292327 C376.65,67.9752327 376.936,66.0632327 376.936,63.8992327 C376.936,60.7452327 376.047,57.7852327 374.26,55.0482327 C372.474,52.3082327 369.812,50.2352327 366.271,48.8202327 C363.50885,47.7185836 360.73434,46.6481819 357.948,45.6092327 C354.824,44.4372327 352.123,43.3292327 349.852,42.2832327 C345.383,40.2732327 341.91,37.6382327 339.432,34.3802327 C336.957,31.1242327 335.721,26.8662327 335.721,21.6152327 C335.721,18.6022327 336.336,15.7922327 337.562,13.1822327 C338.791,10.5762327 340.541,8.24623268 342.814,6.19823268 C344.971,4.26723268 347.524,2.74423268 350.464,1.64523268 C353.411974,0.548029381 356.533477,-0.00920039505 359.679,0.000114888022 C363.329,0.000114888022 366.594,0.555232676 369.482,1.67723268 C372.365,2.79223268 375.004,4.09823268 377.385,5.58223268 L379.676,1.78423268 L384.145,1.78423268 L384.557,25.9652327 L404.556,25.9652327 L404.556,29.8742327 C403.436,29.9112327 402.101,30.1482327 400.533,30.5712327 C398.969,31.0032327 398.189,31.4922327 398.189,32.0522327 C398.189,32.2752327 398.273,32.6482327 398.442,33.1672327 C398.61,33.6932327 398.801,34.2322327 399.031,34.7872327 C400.446,38.4732327 402.601,43.7912327 405.509,50.7342327 C408.417,57.6852327 410.668,63.2352327 412.265,67.4082327 C413.944,63.4212327 415.685,59.3032327 417.487,55.0392327 C419.296,50.7742327 421.321,45.7412327 423.551,39.9302327 C423.811,39.2272327 424.191,38.2502327 424.664,36.9992327 C425.146,35.7522327 425.394,34.6802327 425.394,33.7882327 C425.394,32.8232327 424.55,31.9182327 422.853,31.0782327 C421.157,30.2432327 419.549,29.7292327 418.02,29.5402327 L418.02,25.9682327 L438.462,25.9682327 L438.462,26.8802327 C441.349,25.2242327 444.835,24.3952327 448.929,24.3952327 C451.086,24.3952327 453.296,24.6752327 455.546,25.2302327 C457.797,25.7922327 459.635,26.4592327 461.051,27.2402327 L462.338,24.3362327 L466.357,24.3362327 L466.445,26.1972327 L473.306,26.1972327 L473.306,9.05023268 L483.475,9.05023268 L483.475,26.1972327 L499.283,26.1972327 L499.283,31.5612327 L483.584,31.5612327 L483.584,62.3342327 C483.584,64.6462327 483.671,66.5732327 483.839,68.1202327 C484.005,69.6652327 484.408,71.0212327 485.045,72.1662327 C485.634,73.2472327 486.536,74.0662327 487.719,74.6232327 C488.909,75.1812327 490.511,75.4612327 492.52,75.4612327 C493.451,75.4612327 494.818,75.3772327 496.627,75.2042327 C498.432,75.0382327 499.708,74.8282327 500.452,74.5622327 L500.454,78.6402327 C498.201271,79.5882165 495.907694,80.4360459 493.58,81.1812327 C491.426,81.8732327 488.786,82.2142327 485.655,82.2142327 C481.038,82.2142327 477.789,81.0562327 475.907,78.7262327 C474.027,76.3982327 473.085,73.1102327 473.085,68.8712327 L473.085,31.5612327 L466.699,31.5612327 L466.699,31.5612327 Z" id="Shape"></path>
                        <path d="M543.044,68.0862327 C540.737,72.4822327 537.647,75.9802327 533.772,78.5852327 C529.899,81.1952327 525.448,82.4922327 520.422,82.4922327 C516,82.4922327 512.114,81.7112327 508.778,80.1482327 C505.445,78.5852327 502.703,76.4622327 500.534,73.7822327 C498.382,71.1032327 496.764,67.9772327 495.703,64.4022327 C494.641,60.8252327 494.115,57.0552327 494.115,53.0662327 C494.115,49.4912327 494.686,45.9802327 495.817,42.5352327 C496.953,39.0972327 498.62,35.9932327 500.816,33.2382327 C502.937,30.5982327 505.572,28.4642327 508.719,26.8412327 C511.864,25.2192327 515.395,24.4112327 519.3,24.4112327 C523.325,24.4112327 526.765,25.0512327 529.633,26.3112327 C532.5,27.5792327 534.825,29.3082327 536.614,31.5012327 C538.329,33.5952327 539.601,36.0522327 540.441,38.8782327 C541.274,41.7072327 541.695,44.7812327 541.695,48.0922327 L541.695,51.7782327 L505.226,51.7782327 C505.226,55.3942327 505.574,58.6702327 506.259,61.6122327 C506.944,64.5552327 508.032,67.1402327 509.529,69.3762327 C510.974,71.5382327 512.883,73.2402327 515.222,74.4872327 C517.566,75.7382327 520.358,76.3532327 523.603,76.3532327 C526.918,76.3532327 529.769,75.5812327 532.177,74.0322327 C534.577,72.4962327 536.896,69.7062327 539.135,65.6882327 L543.044,68.0862327 L543.044,68.0862327 Z M530.697,47.0862327 C530.697,45.0022327 530.522,42.7672327 530.17,40.3852327 C529.819,38.0002327 529.246,36.0112327 528.465,34.4072327 C527.612,32.6962327 526.44,31.3062327 524.947,30.2182327 C523.455,29.1422327 521.539,28.6002327 519.191,28.6002327 C515.286,28.6002327 512.032,30.2272327 509.445,33.4902327 C506.86,36.7492327 505.454,41.2792327 505.228,47.0862327 L530.697,47.0862327 Z" id="Shape"></path>
                        <path d="M631.994,81.0452327 L605.125,81.0452327 L605.125,77.3542327 C605.983,77.2832327 606.848,77.2112327 607.724,77.1362327 C608.597,77.0652327 609.367,76.9152327 610.038,76.6872327 C611.08,76.3512327 611.854,75.7632327 612.356,74.9282327 C612.862,74.0932327 613.114,72.9992327 613.114,71.6632327 L613.114,43.2342327 C613.114,39.3632327 612.227,36.3732327 610.456,34.2682327 C608.686,32.1662327 606.486,31.1152327 603.842,31.1152327 C602.019,31.1152327 600.303,31.3902327 598.704,31.9502327 C597.120422,32.496939 595.632352,33.2885515 594.294,34.2962327 C593.209,35.1172327 592.307,35.9982327 591.577,36.9492327 C590.853,37.8982327 590.303,38.6922327 589.927,39.3202327 L589.927,71.0992327 C589.927,72.4092327 590.155,73.4772327 590.603,74.3122327 C591.051,75.1472327 591.811,75.7952327 592.895,76.2412327 C593.75,76.5762327 594.524,76.8282327 595.213,76.9942327 C595.898,77.1612327 596.802,77.2832327 597.919,77.3562327 L597.919,81.0422327 L571.619,81.0422327 L571.619,77.3562327 C572.479,77.2832327 573.298,77.2112327 574.104,77.1362327 C574.853155,77.0761571 575.592054,76.924011 576.304,76.6832327 C577.349,76.3482327 578.12,75.7632327 578.623,74.9262327 C579.128,74.0912327 579.383,72.9992327 579.383,71.6592327 L579.383,43.2292327 C579.383,39.3592327 578.496,36.3712327 576.723,34.2662327 C574.957,32.1642327 572.748,31.1102327 570.111,31.1102327 C568.286,31.1102327 566.568,31.3992327 564.968,31.9772327 C563.388625,32.5482527 561.901995,33.348849 560.556,34.3532327 C559.514531,35.1363852 558.593125,36.0675612 557.821,37.1172327 C557.077,38.1482327 556.519,38.9172327 556.142,39.4362327 L556.142,70.9922327 C556.142,72.2592327 556.405,73.3242327 556.927,74.1772327 C557.448,75.0382327 558.226,75.6862327 559.266,76.1342327 C560.046,76.5102327 560.852,76.7832327 561.666,76.9672327 C562.492,77.1582327 563.398,77.2862327 564.404,77.3632327 L564.404,81.0522327 L537.647,81.0522327 L537.647,77.3632327 L540.304,77.1402327 C541.215,77.0722327 542.002,76.9192327 542.678,76.6922327 C543.72,76.3572327 544.496,75.7702327 544.992,74.9312327 C545.495,74.0982327 545.745,73.0082327 545.745,71.6652327 L545.745,37.4292327 C545.745,36.2392327 545.483,35.1652327 544.937,34.2182327 C544.396,33.2652327 543.642,32.4552327 542.678,31.7842327 C541.968,31.3352327 541.096,30.9762327 540.054,30.6962327 C538.993482,30.4155886 537.908533,30.2371079 536.814,30.1632327 L536.814,26.5362327 L555.25,25.3052327 L556.03,26.0862327 L556.03,33.9612327 L556.421,33.9612327 C557.352,33.0352327 558.488,31.9312327 559.828,30.6642327 C561.175,29.4062327 562.417,28.3732327 563.573,27.5942327 C564.875,26.7052327 566.506,25.9612327 568.465,25.3602327 C570.418,24.7682327 572.532,24.4682327 574.802,24.4682327 C578.375,24.4682327 581.445,25.4262327 584.018,27.3402327 C586.592,29.2602327 588.435,31.5792327 589.545,34.2962327 L593.095,30.8622327 C594.116,29.8772327 595.468,28.8262327 597.143,27.7062327 C598.56,26.7392327 600.222,25.9562327 602.142,25.3602327 C604.058,24.7682327 606.188,24.4682327 608.538,24.4682327 C613.192,24.4682327 616.878,26.0022327 619.599,29.0462327 C622.314,32.1022327 623.675,36.7962327 623.675,43.1242327 L623.675,71.1082327 C623.675,72.4122327 623.895,73.4772327 624.35,74.3192327 C624.799,75.1512327 625.556,75.8042327 626.639,76.2442327 C627.5,76.5802327 628.341,76.8312327 629.179,76.9992327 C630.019,77.1652327 630.956,77.2882327 632,77.3612327 L632,81.0492327 L631.994,81.0492327 L631.994,81.0452327 L631.994,81.0452327 Z" id="Path"></path>
                    </g>
                </g>
            </g>
        </g>
    </g>
</svg>