<?xml version="1.0" encoding="UTF-8" standalone="no"?>
<!DOCTYPE svg PUBLIC "-//W3C//DTD SVG 1.1//EN" "http://www.w3.org/Graphics/SVG/1.1/DTD/svg11.dtd">
<svg width="100%" height="100%" viewBox="0 0 264 159" version="1.1" xmlns="http://www.w3.org/2000/svg" xmlns:xlink="http://www.w3.org/1999/xlink" xml:space="preserve" xmlns:serif="http://www.serif.com/" style="fill-rule:evenodd;clip-rule:evenodd;">
    <g>
        <g>
            <g>
                <path id="path3038" d="M85.169,0L85.169,102.761L15.949,102.761L85.169,0Z" style="fill:rgb(255,0,0);fill-rule:nonzero;stroke:black;stroke-opacity:0;stroke-width:0.78px;"/>
                <path id="path3038-4" d="M143.096,0L143.096,102.761L73.875,102.761L143.096,0Z" style="fill:rgb(255,0,0);fill-rule:nonzero;stroke:black;stroke-opacity:0;stroke-width:0.78px;"/>
            </g>
            <g>
                <rect id="rect3834" x="158.491" y="2.049" width="33.437" height="101.59" style="fill:rgb(0,170,0);stroke:black;stroke-opacity:0;stroke-width:5.22px;stroke-linecap:round;"/>
                <path id="path3838" d="M199.127,2.097C198.769,2.087 198.371,2.078 197.922,2.071L197.717,36.874C197.744,36.875 197.772,36.874 197.798,36.874L197.798,36.766C198.367,36.69 198.94,36.653 199.524,36.639L206.544,2.532C203.805,2.2 201.225,2.164 199.127,2.097ZM212.001,3.064L202.144,36.793C203.022,36.914 203.883,37.105 204.71,37.361L220.901,5.292C218.041,4.29 215.07,3.535 212.001,3.064ZM226.313,7.555L206.951,38.236C207.598,38.549 208.225,38.908 208.821,39.3L233.695,11.983C231.374,10.304 228.906,8.824 226.313,7.555ZM238.348,15.799L210.52,40.59C211.185,41.166 211.808,41.798 212.372,42.474L245.115,23.446C243.122,20.672 240.849,18.109 238.348,15.799ZM247.654,27.35L213.583,44.116C213.973,44.724 214.322,45.357 214.631,46.019L252.036,37.036C250.912,33.632 249.438,30.39 247.654,27.35ZM253.436,42.195L215.317,47.759C215.708,48.933 215.971,50.171 216.085,51.448L254.557,51.448C254.466,48.281 254.082,45.188 253.436,42.195ZM216.085,54.496C215.296,62.752 208.361,69.205 199.931,69.205C199.205,69.205 198.499,69.153 197.798,69.06L197.798,68.357C197.772,68.357 197.744,68.356 197.717,68.357L197.717,103.498C200.604,103.477 202.094,103.357 204.34,103.357C231.563,103.357 253.728,81.625 254.557,54.496L216.085,54.496Z" style="fill:rgb(0,170,0);fill-rule:nonzero;stroke:black;stroke-opacity:0;stroke-width:5.15px;stroke-linecap:round;"/>
            </g>
        </g>
        <g>
            <path id="text8337-2" d="M0,135.231L13.092,113.525C13.715,112.285 14.339,111.664 14.962,111.664L24.314,111.664L24.314,114.548L24.937,113.525C25.56,112.285 26.184,111.664 26.807,111.664L38.029,111.664L38.029,135.231L30.547,135.231L30.547,116.626L19.326,135.231L11.845,135.231L23.067,116.626L19.326,116.626C18.91,116.626 18.495,116.832 18.079,117.247L7.481,135.231L0,135.231ZM48.004,125.928L48.004,130.27L65.459,130.27L65.459,135.231L40.522,135.231L40.522,119.727C40.522,119.313 40.626,118.9 40.834,118.486L44.263,112.285C44.471,111.871 44.886,111.664 45.51,111.664L65.459,111.664L65.459,116.626L50.497,116.626C50.081,116.626 49.769,116.832 49.562,117.247L48.004,120.968L65.459,120.968L62.965,125.928L48.004,125.928ZM75.434,130.27L87.902,130.27L87.902,125.928L82.914,125.928L85.408,120.968L95.383,120.968L95.383,133.992C95.383,134.818 94.967,135.231 94.136,135.231L69.2,135.231C68.368,135.231 67.953,134.818 67.953,133.992L67.953,119.727C67.953,119.313 68.057,118.9 68.264,118.486L71.693,112.285C71.901,111.871 72.316,111.664 72.94,111.664L94.136,111.664L94.136,116.626L77.927,116.626C77.512,116.626 77.2,116.832 76.992,117.247L75.434,120.968L75.434,130.27ZM129.048,135.231L120.32,135.231L116.891,130.27L107.851,130.27L105.358,125.774L105.358,135.231L97.877,135.231L97.877,111.664L112.215,111.664C112.839,111.664 113.462,112.285 114.086,113.525L129.048,135.231ZM113.431,125.309L107.851,117.247C107.436,116.832 107.02,116.626 106.605,116.626L105.358,116.626L105.358,125.309L113.431,125.309Z" style="fill:white;fill-rule:nonzero;"/>
            <path id="text8339-0" d="M142.48,130.555L151.53,130.555C151.961,130.555 152.284,130.361 152.499,129.973L155.246,124.082L155.408,123.434L155.246,122.787L152.499,116.961C152.284,116.53 151.961,116.313 151.53,116.313L142.48,116.313L142.48,130.555ZM134.724,111.135L156.378,111.135C157.024,111.135 157.563,111.567 157.994,112.43L163.003,122.787L163.165,123.434L163.003,124.082L157.994,134.439C157.563,135.302 157.024,135.734 156.378,135.734L134.724,135.734L134.724,111.135ZM165.75,111.135L186.434,111.135C187.081,111.135 187.619,111.567 188.05,112.43L191.444,119.55L191.605,120.198L191.444,120.845L186.434,126.671L191.605,135.734L183.849,135.734L176.415,123.434L180.294,123.434C180.725,123.434 181.048,123.326 181.263,123.111L183.849,120.198L182.556,116.961C182.34,116.53 182.017,116.313 181.586,116.313L173.507,116.313L173.507,135.734L165.75,135.734L165.75,111.135ZM201.947,135.734L194.191,135.734L194.191,111.135L201.947,111.135L201.947,135.734ZM212.289,119.227L220.046,130.555L227.803,119.227L227.803,111.135L235.559,111.135L235.559,120.198C235.559,121.061 235.451,121.708 235.236,122.14L226.51,135.734L213.583,135.734L204.857,122.14C204.64,121.708 204.533,121.061 204.533,120.198L204.533,111.135L212.289,111.135L212.289,119.227ZM245.901,126.024L245.901,130.555L264,130.555L264,135.734L238.145,135.734L238.145,119.55C238.145,119.119 238.253,118.687 238.468,118.256L242.023,111.783C242.238,111.351 242.67,111.135 243.316,111.135L264,111.135L264,116.313L248.487,116.313C248.056,116.313 247.733,116.53 247.518,116.961L245.901,120.845L264,120.845L261.415,126.024L245.901,126.024Z" style="fill:white;fill-rule:nonzero;"/>
        </g>
        <g>
            <path id="path3065" d="M55.625,158L57.422,155.309L67.193,155.309L69.496,151.637L67.193,148.75C66.884,148.339 66.435,148.133 65.846,148.133L61.915,148.133L63.712,145.443L69.102,145.443C69.702,145.443 70.207,145.705 70.619,146.228L71.883,147.826L73.595,145.051C74.195,144.117 75.093,143.65 76.291,143.65L79.885,143.65L74.887,151.651L79.885,158L74.494,158L72.514,155.477L71.461,157.159C71.087,157.719 70.6,158 70.001,158L55.625,158Z" style="fill:rgb(204,204,204);fill-rule:nonzero;"/>
            <path id="path3067" d="M83.479,149.031L83.479,146.341L88.983,146.341L89.713,145.107C90.349,144.136 91.267,143.65 92.465,143.65L96.059,143.65L94.374,146.341L98.754,146.341C99.353,146.341 99.877,146.658 100.327,147.293L103.752,152.057C104.015,152.431 104.052,152.824 103.865,153.235L101.225,157.047C100.776,157.683 100.252,158 99.653,158L92.465,158L92.465,155.309L96.059,155.309C96.657,155.309 97.145,155.084 97.519,154.636L98.474,153.01C98.661,152.749 98.661,152.487 98.474,152.226L96.676,149.648C96.349,149.236 95.843,149.031 95.16,149.031L92.69,149.031L87.073,158L81.682,158L87.298,149.031L83.479,149.031ZM98.754,143.65L102.348,143.65L106.111,148.919L104.595,151.722L98.754,143.65ZM103.416,143.65L109.537,143.65L106.673,148.133L103.416,143.65Z" style="fill:rgb(204,204,204);fill-rule:nonzero;"/>
            <path id="path3069" d="M118.522,158L118.522,143.65L123.913,143.65L123.913,147.237L132.898,147.237C133.498,147.237 134.003,147.555 134.415,148.19L137.391,152.618L132,152.618L130.877,150.824C130.428,150.226 129.903,149.927 129.305,149.927L123.913,149.927L123.913,158L118.522,158ZM129.305,146.341L127.508,143.65L131.102,143.65L132.898,146.341L129.305,146.341ZM133.797,146.341L132,143.65L135.594,143.65L137.391,146.341L133.797,146.341Z" style="fill:rgb(204,204,204);fill-rule:nonzero;"/>
            <path id="path3071" d="M139.188,146.341L139.188,143.65L158.058,143.65L158.058,146.341L139.188,146.341ZM139.188,149.927L139.188,147.237L158.058,147.237L158.058,149.927C158.058,150.526 157.927,151.105 157.665,151.666L154.913,157.159C154.613,157.719 154.164,158 153.565,158L141.884,158L141.884,155.309L149.072,155.309C149.671,155.309 150.139,155.011 150.476,154.412L152.667,149.927L139.188,149.927Z" style="fill:rgb(204,204,204);fill-rule:nonzero;"/>
            <path id="path3073" d="M159.855,149.031L159.855,146.341L172.828,146.341C173.464,146.341 173.95,146.041 174.288,145.443L175.13,143.65L180.521,143.65L178.724,147.237C178.125,148.433 177.227,149.031 176.029,149.031L172.434,149.031L172.434,158L167.043,158L167.043,149.031L159.855,149.031Z" style="fill:rgb(204,204,204);fill-rule:nonzero;"/>
            <path id="path3075" d="M199.84,155.084L198.155,157.103C197.78,157.701 197.294,158 196.695,158L182.318,158L182.318,155.309L192.202,155.309C192.68,155.309 193.11,155.011 193.494,154.412L193.999,153.557L193.999,146.341L182.318,146.341L182.318,143.65L200.289,143.65L200.289,153.515C200.289,154.113 200.139,154.636 199.84,155.084ZM202.086,149.031L204.782,143.65L208.376,143.65L205.68,149.031L202.086,149.031ZM201.187,149.031L201.187,143.65L203.883,143.65L201.187,149.031Z" style="fill:rgb(204,204,204);fill-rule:nonzero;"/>
        </g>
    </g>
</svg>
