<svg version="1.1" id="Warstwa_1" viewBox="92 222 313 54" xmlns="http://www.w3.org/2000/svg" x="0" y="0" xml:space="preserve">
    <style>
        .st0{fill:#fff}
    </style>
    <path d="M104.6 276H92.13c3.43-9.1 5.71-18.44 9.56-27.29 1.84-4.23 2.85-8.81 4.33-13.2 1.09-3.21 2.24-6.4 3.56-9.52.61-1.44 1.69-2.67 2.48-3.88H146c0 2.39-.11 4.7.02 6.99.27 4.86-.81 9.8.92 14.61.42 1.17.06 2.61.06 3.98-1.09.7-2.11 1.37-3.46 2.24 1.24.84 2.2 1.5 3.29 2.24v23.59h-8.43c-.4-1.35-.9-2.68-1.15-4.05-.23-1.28-.61-2.77-.17-3.87 1.43-3.64 1.36-7.09 0-10.73-.49-1.32-.08-2.97-.08-4.68l3.64-2.67c-.97-.37-1.51-.49-1.95-.77-.54-.35-1.01-.82-1.65-1.37v-12.4c-1.85 1.51-3.39 3.43-3.94 6.35-.5 2.66-1.65 4.99-2.42 7.44h-2.18c-.3 1.61-.3 1.61 1.46 2.43-2.78 7.99-5.57 15.99-8.48 24.34H111.2l9.26-24.61c.3-.08.75-.2 1.31-.34.23-5.36 2.71-10.13 4.33-15.47-2.22-.73-4.49-.14-6.62-.38-2.39 4.51-2.68 9.72-5.51 13.8-1.13.19-2.04.35-3.6.62 1 .9 1.58 1.43 2.64 2.39-.2 3.88-2.89 7.5-4.05 11.59-1.19 4.13-2.8 8.16-4.36 12.62zm289.58-20.91h-10.03v20.67H373v-18.85c0-4-.08-7.99.04-11.99.05-1.88-.28-3.71.8-5.67.71-1.29-.11-3.45-.31-5.21-.11-.93-.79-2.07-.45-2.74 1.47-2.92.68-6.04.99-9.17h8.84v20.74h12.04V222.1h9.87v53.8h-10.64v-20.81zm-79.65-32.94h21.65c-1.92 3.84-.88 7.76-1.26 11.71H319.2c-1.69 3.28-3.37 6.54-5.15 9.98h20.32c1.78 2.06-.56 3.31-.62 5-.8.09-1.58.18-2.89.33.82.93 1.49 1.68 2.43 2.74-.45.99-.97 2.1-1.42 3.08h-15.4c-.42.46-.88.94-1.36 1.46v10.44h21.66v8.98h-32.83c.47-12.73-.97-25.54 1.22-38.22 3.57-4.71 4.79-10.87 9.37-15.5zm-154.44 32.68v11.02h20.66v10H150.1c.16-4.19-.91-8.53.83-13.03-.27-.95-2.11-2.17.16-3.41-1.1-2.54-1.94-5.05-.35-7.76.44-.75.55-2.07.2-2.85-2.73-6.11.28-11.36 2.48-16.66 1.41-3.41 3.3-6.61 5.05-10.05h22.35v11.66c-5.99 1.02-12.48-1.03-18.57 1.6-.79 2.66-1.63 5.44-2.59 8.67h20.45c-.53 1.83-.83 3.34-1.43 4.73-.3.68-1.16 1.11-1.74 1.63.45.5.77.87 1.16 1.31-.43.98-.86 1.96-1.37 3.13-5.33.01-10.77.01-16.64.01zm70.1-19.78v13.47l-2.01.7c-.07.38-.15.83-.26 1.39.63.22 1.21.42 1.93.67v24.51h-9.73v-23.54c.89-.6 1.91-1.27 3.28-2.19-1.24-.89-2.3-1.65-3.28-2.35.31-1.84.82-3.53.84-5.22.1-6.66.04-13.31.04-20.33 2.56-.34 5.18-.09 7.77-.14 2.64-.05 5.28-.01 8.04-.01 3.39 8.55 6.73 16.99 10.1 25.51-.6.64-1.24 1.33-2 2.14 1.22.78 2.42 1.54 3.52 2.23 2.85 7.95 5.66 15.77 8.61 23.98-1.76.05-3.51.11-5.26.14-1.81.02-3.62.01-5.55.01-1.01-3.34-1.99-6.58-2.99-9.85h-8.75c-.82-3.33-1.61-6.49-2.47-9.98h7.14c-.25-1.88-.45-3.35-.66-4.93.34-.21 1.03-.65 2.39-1.51-4.38-1.15-5.08-4.25-5.89-7.28-.78-2.93-1.73-5.76-4.81-7.42zm-45.28 11.82 1.21-1.79c-.34-.59-.73-1.25-1.09-1.86 2.13-7.31 4.99-14.29 8.35-21.11h21.48v11.68h-15.95c-3.25 2.28-2.5 6.36-4.9 8.75 0 2.65-.74 5.62.2 7.89 1.03 2.5.58 4.8.75 7.17.2 2.64.04 5.31.04 8.46 2.29-.11 4.76.35 6.71-.46 2.34-.97 4.55-.13 7.13-.78.05-1.37.13-2.96.16-4.56.03-1.64.01-3.29.01-5.1h-6.98c1.19-2.5 1.84-4.88 5.03-5.38-.36-.48-.61-.8-.75-.99 1.13-1.09 2.28-2.19 3.99-3.83 1.27.29 3.38.76 5.6 1.26v2.46c-.58.22-1.15.45-2.13.83.56.66 1.04 1.22 2.01 2.37v22.86l-1.17 1.17h-29.6v-9.9c0-3.33.45-6.74-.13-9.97-.57-3.17 2.6-6.15.03-9.17zm163.58-24.86h19.96c1.78 3.69 1.78 3.69 1.33 11.87h-17.24c-.57 1.13-1.01 2.11-1.54 3.05-1.42 2.54-2.39 5.15-2.04 8.16.12 1.05.48 2.3-.69 3.21-.27.21-.39.98-.23 1.35 2.16 5.22.24 10.71 1.16 16.02 1.5 1.09 3.34-.16 5.12.87 1.14.66 3.2-.4 4.86-.52 1.66-.12 3.33-.03 4.99-.03h5.35l1.33 1.33v8.42h-31.83v-15.25c0-7.15-.02-14.31.02-21.46.01-1.09-.14-2.11.59-3.25 2.51-3.91 4.74-8.01 7.14-12 .4-.68 1.13-1.18 1.72-1.77zm-82.39 12.17v-12.03h35.67v11.77H291c0 3.44.08 6.72-.04 10-.06 1.55.76 3.33-.93 4.63-.24.19-.2 1.04-.01 1.44 1.94 4.08.71 8.4.92 12.59.22 4.31.05 8.65.05 13.2h-12c0-7.65-.75-15.38.23-22.88.81-6.24.32-12.37.85-18.72H266.1z" fill="#fff"/>
    <path d="M272.92 246.14v9.68h-14.49c-2.13-2.42-1.26-5.52-1.45-8.31l1.37-1.37h14.57z" fill="#fff"/>
</svg>
