<?xml version="1.0" encoding="UTF-8" standalone="no"?>
<!DOCTYPE svg PUBLIC "-//W3C//DTD SVG 1.1//EN" "http://www.w3.org/Graphics/SVG/1.1/DTD/svg11.dtd">
<svg width="100%" height="100%" viewBox="0 0 396 113" version="1.1" xmlns="http://www.w3.org/2000/svg" xmlns:xlink="http://www.w3.org/1999/xlink" xml:space="preserve" xmlns:serif="http://www.serif.com/" style="fill-rule:evenodd;clip-rule:evenodd;stroke-linejoin:round;stroke-miterlimit:2;">
    <g transform="matrix(1,0,0,1,-2502,-1132)">
        <g id="mega-man.afdesign" transform="matrix(1,0,0,1,2700,1188.89)">
            <g transform="matrix(1,0,0,1,-320,-60)">
                <clipPath id="_clip1">
                    <rect x="122.908" y="4" width="394.183" height="112"/>
                </clipPath>
                <g clip-path="url(#_clip1)">
                    <g transform="matrix(0.656972,0,0,0.656972,122.908,4)">
                        <g>
                            <path id="path951" d="M436.694,0.124L391.483,0.248L389.968,1.748L389.721,2.63L389.583,4.006L418.232,68.092L418.742,68.836L420.118,69.593L438.085,69.593L439.723,69.084L440.342,68.202L440.728,67.335L440.466,65.449L431.435,49.741L454.288,49.493L470.492,68.973L472.007,69.593L503.41,69.469L503.919,69.084L505.172,67.707L505.296,66.33L504.539,64.816L437.823,0.496L436.694,0.124ZM406.461,9.678L424.042,9.678L448.919,39.539L423.34,39.539L406.461,9.678Z" style="fill:white;"/>
                            <path id="path949" d="M409.944,65.573L410.068,67.459L409.187,68.836L407.934,69.717L346.877,69.469L342.362,68.34L337.46,66.33L333.317,63.935L330.164,61.553L327.658,58.91L325.387,55.647L324.01,53.004L323.005,18.71L323.638,14.442L325.896,8.783L328.539,5.273L335.065,0.496L370.364,0.496L371.754,1.005L372.512,2.134L374.522,5.892L374.136,7.283L373.393,8.164L372.374,8.783L347.001,8.783L358.442,53.265L360.066,56.528L362.2,57.905L364.595,58.91L368.106,58.91L370.364,57.781L371.507,54.766L371.878,50.498L370.997,46.23L369.497,41.577L367.487,37.805L365.477,35.423L360.19,34.542L358.937,34.032L357.932,33.027L356.17,26.502L356.432,24.987L357.808,23.239L384.434,23.239L385.315,23.735L409.944,65.573Z" style="fill:white;"/>
                            <path id="path945" d="M129.301,69.29L110.289,69.469L108.416,67.955L107.893,66.275L108.595,64.94L174.154,0L193.167,0L194.943,1.156L195.48,2.313L195.48,29.489L237.58,0.083L261.576,0.083L263.021,0.936L263.71,1.996L263.903,3.442L263.765,4.199L233.684,70.061L198.412,69.469L197.338,69.249L196.43,68.381L196.058,67.555L195.852,65.587L217.727,28.388L171.002,63.687L170.313,64.003L167.312,64.003L166.734,63.632L165.591,62.186L167.106,28.76L147.253,50.25L129.301,69.29Z" style="fill:white;"/>
                            <path id="path947" d="M314.965,69.717L250.273,69.717L248.759,68.34L248.387,67.583L247.878,66.33L274.393,1.377L275.522,0.124L315.213,0.124L316.975,0.743L317.484,2.134L317.608,8.66L316.727,9.912L315.474,10.546L291.093,10.546L288.215,22.606L315.089,22.73L316.603,23.487L317.236,24.616L317.236,33.027L316.851,34.17L315.213,35.299L284.815,35.299L279.418,56.528L314.965,56.528L316.218,57.533L316.975,58.662L316.727,67.955L315.97,68.836L314.965,69.717Z" style="fill:white;"/>
                            <path id="path941" d="M598.238,168.964L600,167.464L600,164.944L513.57,76.752L476.385,76.504L474.623,78.005L475.118,80.276L514.823,128.516L412.051,76.504L370.102,76.256L368.092,77.757L367.831,79.767L395.971,167.216L399,169.721L452.265,169.721L454.275,167.711L455.28,166.197L431.407,112.932L546.735,169.212L598.238,168.964Z" style="fill:white;"/>
                            <path id="path934" d="M274.366,76.504L222.353,166.197L222.615,167.89L223.358,168.964L224.556,169.653L269.093,170.479L278.386,153.394L331.403,153.132L339.704,168.964L340.957,169.46L384.42,169.46L386.182,167.711L386.182,165.454L332.146,76.504L274.366,76.504ZM305.273,94.085L325.621,135.304L280.643,135.304L305.273,94.085Z" style="fill:white;"/>
                            <path id="path925" d="M90.615,76.49L130.76,76.834L133.954,79.684L135.744,114.501L194.723,76.132L237.015,76.49C237.015,76.49 238.722,76.463 239.906,77.702C241.09,78.941 240.925,80.042 240.925,80.042L211.064,167.092C210.899,167.588 210.445,168.235 210.032,168.758C209.495,169.446 208.49,169.942 208.49,169.942L156.009,169.267C155.266,169.267 154.633,168.455 154.357,167.753C154.041,166.982 154.206,166.018 154.55,165.261L179.097,111.665L100.211,161.062C100.211,161.062 97.334,162.012 94.869,160.346C94.002,159.754 93.451,157.51 93.451,157.51L85.274,110.949L29.489,169.584L1.776,169.584L0,167.808L0,164.614L90.615,76.49Z" style="fill:white;"/>
                        </g>
                    </g>
                </g>
            </g>
        </g>
    </g>
</svg>
