<svg viewBox="0 0 3840 696.7" xmlns="http://www.w3.org/2000/svg">
    <path class="st1" style="fill:#fff" d="M0 537.9h95.7v158.8H0zm210.6 0h95.7v158.8h-95.7zm210.5 0h95.7v158.8h-95.7zm980.4 0h95.7v158.8h-95.7zm1505.8 0h95.7v158.8h-95.7zm-445 0h95.7v158.8h-95.7zm419.6 158.8h-125.6l-47.5-47.5 57.9-67.7zm-877.3-158.8h95.7v158.8h-95.7zm-317.2 0h95.7v158.8h-95.7zM514.5 523.6H0V469h459.9c30.2 0 54.6 24.5 54.6 54.6Zm55.6-54.6h341.4v54.6H570.1zm95.7 158.9v-14.2h226.3v-54.6H680c-7.8 0-14.2-6.4-14.2-14.2v-7h-95.7v92.2c0 36.8 29.8 66.6 66.6 66.6h274.8v-54.6H680c-7.8 0-14.2-6.4-14.2-14.2ZM3498.6 469H3840v54.6h-341.4zm95.7 158.9v-14.2h226.3v-54.6h-212.1c-7.8 0-14.2-6.4-14.2-14.2v-7h-95.7v92.2c0 36.8 29.8 66.6 66.6 66.6H3840v-54.6h-231.5c-7.8 0-14.2-6.4-14.2-14.2ZM1336.7 523.6H957.4c0-30.2 24.5-54.6 54.6-54.6h324.7v54.6Zm-210.8 35.5v54.6h119.8c7.8 0 14.2 6.4 14.2 14.2 0 7.8-6.4 14.2-14.2 14.2h-178.4c-7.8 0-14.2-6.4-14.2-14.2v-90h-95.7v92.2c0 36.8 29.8 66.6 66.6 66.6h262.9c38 0 68.8-30.8 68.8-68.8s-30.8-68.8-68.8-68.8h-161Zm1181.2-21.2v90c0 7.8-6.4 14.2-14.2 14.2h-178.3v54.6h221.7c36.8 0 66.6-29.8 66.6-66.6v-92.2h-95.8Zm-524-14.3h-381.6c0-30.2 24.5-54.6 54.6-54.6h272.4c30.2 0 54.6 24.5 54.6 54.6Zm619.7 0h-398.3V469h343.7c30.2 0 54.6 24.5 54.6 54.6Zm504.5-54.6h95.7v54.6h-95.7z"/>
    <path class="st1" style="fill:#fff" d="M1511.5 586.4h244v64.5h-244zm950.7-62.8H2748v48.5c0 7.8-6.4 14.2-14.2 14.2h-161.6v64.5h199.2c43.8 0 79.6-35.8 79.6-79.6v-22.8c0-43.9-35.6-79.6-79.6-79.6h-254.6c-30.1.2-54.6 24.7-54.6 54.8Zm965.2 0 35.1-54.6h-113.8l-35.1 54.6zm-244.1 0-35.2-54.6h-113.8l35.1 54.6zm121.1 14.3-56 87-55.9-87h-113.9l102.2 158.8h135.3l102.1-158.8zM1461.7 262.5h-164.9v51.4h164.9c31.7 0 58-26.4 58-58s-26.4-58-58-58h-42.2c-38.2 0-69.9-31.7-69.9-69.9s31.7-69.9 69.9-69.9H1583V6.6h-164.9c-67.3 0-121.3 54.1-121.3 121.3 0 67.2 54.1 121.3 121.3 121.3h42.2c4 0 6.6 2.6 6.6 6.6.1 4-2.6 6.7-5.2 6.7Z"/>
    <path class="st1" d="M1418.2 122.7H1583V69.9h-164.9c-31.7 0-58 26.4-58 58s26.4 58 58 58h42.2c38.2 0 69.9 31.7 69.9 69.9s-31.7 69.9-69.9 69.9h-163.5v51.4h164.9c67.3 0 121.3-54.1 121.3-121.3 0-67.2-54.1-121.3-121.3-121.3h-42.2c-4 0-6.6-2.6-6.6-6.6 0-2.6 2.6-5.2 5.3-5.2Zm592.1-52.8c-22.4 0-39.6 17.1-39.6 39.6v164.9c0 22.4 17.1 39.6 39.6 39.6h106.8V197.8h-81.8v51.4h30.3v11.9h-30.3c-6.6 0-11.9-5.3-11.9-11.9v-116c0-6.6 5.3-11.9 11.9-11.9h146.4V69.9h-171.4Zm324.5 244h120L2373 71.2c-2.6-6.6-7.9-11.9-15.8-11.9-6.6 0-13.2 5.3-15.8 10.6l-105.5 307.3h60.7l36.9-109.5v46.2h1.3Zm21.1-110.8 17.1 52.8h-35.6l18.5-52.8Z" style="fill:#fff"/>
    <path class="st1" d="M2436.3 60.7C2425.8 26.4 2394.1 0 2355.9 0s-69.9 25.1-79.1 59.4l-96.3 282.2V134.5h-145.1V186h95v139.8h-118.7c-29 0-51.4-23.7-51.4-51.4V109.5c0-29 23.7-51.4 51.4-51.4h170.1V6.6h-171.5c-56.7 0-102.9 46.2-102.9 102.9v164.9c0 56.7 46.2 102.9 102.9 102.9h212.3l106.8-309.9c4-11.9 14.5-19.8 27.7-19.8s23.7 7.9 27.7 19.8l87 258.5h-137.2v51.4H2543L2436.3 60.7ZM1711 325.8c-29 0-51.4-23.7-51.4-51.4V109.5c0-29 23.7-51.4 51.4-51.4h176.7V6.6H1711c-56.7 0-102.9 46.2-102.9 102.9v164.9c0 56.7 46.2 102.9 102.9 102.9h176.7v-51.4H1711Z" style="fill:#fff"/>
    <path class="st1" d="M1722.8 250.6h127.9v-51.4h-179.4v76.5c0 22.4 17.1 39.6 39.6 39.6h176.7v-51.4h-153c-6.5-1.4-11.8-6.7-11.8-13.3Zm128-116.1h-127.9c0-6.6 5.3-11.9 11.9-11.9h151.7V69.9H1711c-22.4 0-39.6 17.1-39.6 39.6V186h179.4v-51.5Z" style="fill:#fff"/>
</svg>
