<svg viewBox="0 0 395 113" xmlns="http://www.w3.org/2000/svg" xml:space="preserve" style="fill-rule:evenodd;clip-rule:evenodd;stroke-linejoin:round;stroke-miterlimit:2">
    <clipPath id="a">
        <path d="M.186.834h394.183v112H.186z"/>
    </clipPath>
    <g clip-path="url(#a)">
        <path d="m287.082.916-29.703.081-.995.986-.162.579-.091.904 18.822 42.103.335.489.904.497h11.804l1.076-.335.406-.579.254-.57-.172-1.239-5.933-10.319 15.014-.163 10.645 12.798.995.407 20.631-.082.335-.253.823-.904.081-.905-.497-.995L287.823 1.16l-.741-.244ZM267.22 7.192h11.55l16.343 19.618h-16.804L267.22 7.192Zm2.288 36.722.081 1.239-.579.905-.823.578-40.113-.163-2.966-.741-3.22-1.321-2.722-1.573-2.072-1.565-1.646-1.737-1.492-2.143-.905-1.737-.66-22.53.416-2.804 1.484-3.718 1.736-2.306 4.287-3.138h23.191l.913.334.498.742 1.32 2.469-.253.914-.488.579-.67.406h-16.669l7.516 29.224 1.067 2.143 1.402.905 1.574.66h2.306l1.484-.741.751-1.981.243-2.804-.578-2.804-.986-3.057-1.32-2.478-1.321-1.565-3.473-.579-.823-.335-.661-.66-1.157-4.287.172-.995.904-1.148h17.492l.579.325 16.181 27.487ZM85.133 46.356l-12.49.117-1.231-.994-.343-1.104.461-.877L114.6.834h12.491l1.167.76.353.76v17.854L156.269.889h15.765l.949.56.453.696.127.95-.091.498-19.762 43.269-23.173-.389-.706-.144-.596-.57-.244-.543-.136-1.293 14.371-24.439-30.697 23.191-.452.207h-1.972l-.38-.243-.75-.95.995-21.96-13.043 14.118-11.794 12.509Zm121.976.28h-42.501l-.994-.904-.245-.498-.334-.823 17.419-42.672.742-.823h26.076l1.158.406.334.914.082 4.288-.579.822-.823.417h-16.018l-1.891 7.923 17.656.081.994.497.416.742v5.526l-.253.751-1.076.742h-19.971l-3.545 13.946h23.353l.823.661.498.741-.163 6.106-.498.579-.66.578Zm186.103 65.203 1.157-.986v-1.655l-56.782-57.94-24.429-.163-1.158.986.325 1.492 26.085 31.693-67.518-34.171-27.559-.163-1.321.986-.171 1.321 18.487 57.451 1.99 1.646h34.993l1.321-1.32.66-.995-15.684-34.994 75.768 36.975 33.836-.163ZM180.437 51.095l-34.171 58.926.172 1.112.488.706.787.452 29.26.543 6.105-11.224 34.83-.172 5.454 10.401.823.326h28.554l1.158-1.149v-1.483l-35.5-58.438h-37.96Zm20.305 11.55 13.368 27.08h-29.549l16.181-27.08ZM59.717 51.086l26.375.226 2.098 1.872 1.176 22.874 38.747-25.207 27.785.235s1.122-.018 1.899.796c.778.814.67 1.538.67 1.538l-19.618 57.189c-.108.326-.407.751-.678 1.095-.353.451-1.013.777-1.013.777l-34.479-.443c-.488 0-.904-.534-1.085-.995-.207-.506-.099-1.14.127-1.637l16.127-35.211-51.826 32.452s-1.89.625-3.51-.47c-.569-.389-.931-1.863-.931-1.863l-5.372-30.589-36.65 38.521H1.353l-1.167-1.167v-2.098l59.531-57.895Z" style="fill:#fff"/>
    </g>
</svg>
