<svg viewBox="0 0 264 159" xmlns="http://www.w3.org/2000/svg" xml:space="preserve" style="fill-rule:evenodd;clip-rule:evenodd">
    <path d="M85.169 0v102.761h-69.22L85.169 0Z" style="fill:red;fill-rule:nonzero;stroke:#000;stroke-opacity:0;stroke-width:.78px"/>
    <path d="M143.096 0v102.761H73.875L143.096 0Z" style="fill:red;fill-rule:nonzero;stroke:#000;stroke-opacity:0;stroke-width:.78px"/>
    <path style="fill:#0a0;stroke:#000;stroke-opacity:0;stroke-width:5.22px;stroke-linecap:round" d="M158.491 2.049h33.437v101.59h-33.437z"/>
    <path d="M199.127 2.097a97.27 97.27 0 0 0-1.205-.026l-.205 34.803h.081v-.108a15.876 15.876 0 0 1 1.726-.127l7.02-34.107c-2.739-.332-5.319-.368-7.417-.435Zm12.874.967-9.857 33.729c.878.121 1.739.312 2.566.568l16.191-32.069a49.69 49.69 0 0 0-8.9-2.228Zm14.312 4.491-19.362 30.681c.647.313 1.274.672 1.87 1.064l24.874-27.317a50.346 50.346 0 0 0-7.382-4.428Zm12.035 8.244L210.52 40.59a16.395 16.395 0 0 1 1.852 1.884l32.743-19.028a50.652 50.652 0 0 0-6.767-7.647Zm9.306 11.551-34.071 16.766c.39.608.739 1.241 1.048 1.903l37.405-8.983a50.28 50.28 0 0 0-4.382-9.686Zm5.782 14.845-38.119 5.564c.391 1.174.654 2.412.768 3.689h38.472a50.739 50.739 0 0 0-1.121-9.253Zm-37.351 12.301c-.789 8.256-7.724 14.709-16.154 14.709-.726 0-1.432-.052-2.133-.145v-.703h-.081v35.141c2.887-.021 4.377-.141 6.623-.141 27.223 0 49.388-21.732 50.217-48.861h-38.472Z" style="fill:#0a0;fill-rule:nonzero;stroke:#000;stroke-opacity:0;stroke-width:5.15px;stroke-linecap:round"/>
    <path d="m0 135.231 13.092-21.706c.623-1.24 1.247-1.861 1.87-1.861h9.352v2.884l.623-1.023c.623-1.24 1.247-1.861 1.87-1.861h11.222v23.567h-7.482v-18.605l-11.221 18.605h-7.481l11.222-18.605h-3.741c-.416 0-.831.206-1.247.621L7.481 135.231H0Zm48.004-9.303v4.342h17.455v4.961H40.522v-15.504c0-.414.104-.827.312-1.241l3.429-6.201c.208-.414.623-.621 1.247-.621h19.949v4.962H50.497c-.416 0-.728.206-.935.621l-1.558 3.721h17.455l-2.494 4.96H48.004Zm27.43 4.342h12.468v-4.342h-4.988l2.494-4.96h9.975v13.024c0 .826-.416 1.239-1.247 1.239H69.2c-.832 0-1.247-.413-1.247-1.239v-14.265c0-.414.104-.827.311-1.241l3.429-6.201c.208-.414.623-.621 1.247-.621h21.196v4.962H77.927c-.415 0-.727.206-.935.621l-1.558 3.721v9.302Zm53.614 4.961h-8.728l-3.429-4.961h-9.04l-2.493-4.496v9.457h-7.481v-23.567h14.338c.624 0 1.247.621 1.871 1.861l14.962 21.706Zm-15.617-9.922-5.58-8.062c-.415-.415-.831-.621-1.246-.621h-1.247v8.683h8.073Zm29.049 5.246h9.05c.431 0 .754-.194.969-.582l2.747-5.891.162-.648-.162-.647-2.747-5.826c-.215-.431-.538-.648-.969-.648h-9.05v14.242Zm-7.756-19.42h21.654c.646 0 1.185.432 1.616 1.295l5.009 10.357.162.647-.162.648-5.009 10.357c-.431.863-.97 1.295-1.616 1.295h-21.654v-24.599Zm31.026 0h20.684c.647 0 1.185.432 1.616 1.295l3.394 7.12.161.648-.161.647-5.01 5.826 5.171 9.063h-7.756l-7.434-12.3h3.879c.431 0 .754-.108.969-.323l2.586-2.913-1.293-3.237c-.216-.431-.539-.648-.97-.648h-8.079v19.421h-7.757v-24.599Zm36.197 24.599h-7.756v-24.599h7.756v24.599Zm10.342-16.507 7.757 11.328 7.757-11.328v-8.092h7.756v9.063c0 .863-.108 1.51-.323 1.942l-8.726 13.594h-12.927l-8.726-13.594c-.217-.432-.324-1.079-.324-1.942v-9.063h7.756v8.092Zm33.612 6.797v4.531H264v5.179h-25.855V119.55c0-.431.108-.863.323-1.294l3.555-6.473c.215-.432.647-.648 1.293-.648H264v5.178h-15.513c-.431 0-.754.217-.969.648l-1.617 3.884H264l-2.585 5.179h-15.514Z" style="fill:#fff;fill-rule:nonzero"/>
    <path d="m55.625 158 1.797-2.691h9.771l2.303-3.672-2.303-2.887c-.309-.411-.758-.617-1.347-.617h-3.931l1.797-2.69h5.39c.6 0 1.105.262 1.517.785l1.264 1.598 1.712-2.775c.6-.934 1.498-1.401 2.696-1.401h3.594l-4.998 8.001L79.885 158h-5.391l-1.98-2.523-1.053 1.682c-.374.56-.861.841-1.46.841H55.625Zm27.854-8.969v-2.69h5.504l.73-1.234c.636-.971 1.554-1.457 2.752-1.457h3.594l-1.685 2.691h4.38c.599 0 1.123.317 1.573.952l3.425 4.764c.263.374.3.767.113 1.178l-2.64 3.812c-.449.636-.973.953-1.572.953h-7.188v-2.691h3.594c.598 0 1.086-.225 1.46-.673l.955-1.626c.187-.261.187-.523 0-.784l-1.798-2.578c-.327-.412-.833-.617-1.516-.617h-2.47L87.073 158h-5.391l5.616-8.969h-3.819Zm15.275-5.381h3.594l3.763 5.269-1.516 2.803-5.841-8.072Zm4.662 0h6.121l-2.864 4.483-3.257-4.483ZM118.522 158v-14.35h5.391v3.587h8.985c.6 0 1.105.318 1.517.953l2.976 4.428H132l-1.123-1.794c-.449-.598-.974-.897-1.572-.897h-5.392V158h-5.391Zm10.783-11.659-1.797-2.691h3.594l1.796 2.691h-3.593Zm4.492 0L132 143.65h3.594l1.797 2.691h-3.594Zm5.391 0v-2.691h18.87v2.691h-18.87Zm0 3.586v-2.69h18.87v2.69c0 .599-.131 1.178-.393 1.739l-2.752 5.493c-.3.56-.749.841-1.348.841h-11.681v-2.691h7.188c.599 0 1.067-.298 1.404-.897l2.191-4.485h-13.479Zm20.667-.896v-2.69h12.973c.636 0 1.122-.3 1.46-.898l.842-1.793h5.391l-1.797 3.587c-.599 1.196-1.497 1.794-2.695 1.794h-3.595V158h-5.391v-8.969h-7.188Zm39.985 6.053-1.685 2.019c-.375.598-.861.897-1.46.897h-14.377v-2.691h9.884c.478 0 .908-.298 1.292-.897l.505-.855v-7.216h-11.681v-2.691h17.971v9.865c0 .598-.15 1.121-.449 1.569Zm2.246-6.053 2.696-5.381h3.594l-2.696 5.381h-3.594Zm-.899 0v-5.381h2.696l-2.696 5.381Z" style="fill:#ccc;fill-rule:nonzero"/>
</svg>
