<?xml version="1.0" encoding="UTF-8"?>
<svg width="187px" height="114px" viewBox="0 0 187 114" version="1.1" xmlns="http://www.w3.org/2000/svg" xmlns:xlink="http://www.w3.org/1999/xlink">
    <title>megadrive-japan</title>
    <g id="Page-1" stroke="none" stroke-width="1" fill="none" fill-rule="evenodd" opacity="0.781782604">
        <g id="Emulation-Station-System-Logo-4:3" transform="translate(-226.000000, -2.000000)">
            <g id="megadrive-japan" transform="translate(226.000000, 4.000000)">
                <polygon id="Path" stroke-opacity="0" stroke="#000000" stroke-width="0.78" fill="#FF0000" fill-rule="nonzero" points="61 0 61 72 12 72"></polygon>
                <polygon id="Path" stroke-opacity="0" stroke="#000000" stroke-width="0.78" fill="#FF0000" fill-rule="nonzero" points="102 0 102 72 53 72"></polygon>
                <polygon id="Path" stroke-opacity="0" stroke="#000000" stroke-width="5.22" fill="#00AA00" stroke-linecap="round" points="112 1 136 1 136 73 112 73"></polygon>
                <path d="M141.017065,2.01820028 C140.727376,2.01039156 140.437639,2.00432468 140.147871,2 L140,26.3624774 L140.058427,26.3624774 L140.058427,26.2868763 C140.471454,26.2352966 140.887073,26.2056187 141.303431,26.1979749 L146.367118,2.322705 C144.391414,2.0903014 142.530401,2.06510101 141.017065,2.01820028 L141.017065,2.01820028 Z M150.303378,2.69511077 L143.193297,26.3057766 C143.826619,26.3904779 144.447678,26.52418 145.044212,26.7033827 L156.723153,4.25473493 C154.637368,3.54384415 152.488285,3.02174456 150.303378,2.69511077 Z M160.626953,5.83885948 L146.660697,27.3158922 C147.127393,27.5349956 147.579662,27.7862995 148.009571,28.0607038 L165.951759,8.9385075 C164.271265,7.75965956 162.48982,6.722654 160.626953,5.83885948 L160.626953,5.83885948 Z M169.308075,11.6097489 L149.235099,28.9637177 C149.716227,29.3677352 150.162973,29.8087735 150.570989,30.2825382 L174.189268,16.9627318 C172.752163,15.0233945 171.116791,13.229956 169.308075,11.6097489 L169.308075,11.6097489 Z M176.020707,19.6955742 L151.444511,31.431956 C151.725827,31.8575626 151.977569,32.3006694 152.200457,32.7640766 L179.181545,26.4758792 C178.377795,24.1137284 177.318261,21.8409256 176.020707,19.6955742 Z M180.191397,30.0872352 L152.695285,33.9820955 C152.977322,34.8039082 153.16703,35.6705217 153.249261,36.5644355 L181,36.5644355 C180.935815,34.3858657 180.665139,32.2176531 180.191397,30.0872352 Z M153.249261,38.6980686 C152.680137,44.4773581 147.677762,48.9945281 141.597009,48.9945281 C141.073329,48.9945281 140.564075,48.9581275 140.058427,48.8930265 L140.058427,48.4009189 L140,48.4009189 L140,73 C142.08246,72.9852998 143.157231,72.9012985 144.777322,72.9012985 C164.413899,72.9012985 180.402023,57.6886628 181,38.6980686 L153.249261,38.6980686 L153.249261,38.6980686 Z" id="Shape" stroke-opacity="0" stroke="#000000" stroke-width="5.15" fill="#00AA00" fill-rule="nonzero" stroke-linecap="round"></path>
                <path d="M0,95.6523842 L9.2735,80.6516932 C9.71479167,79.7947478 10.1567917,79.365584 10.5980833,79.365584 L17.2224167,79.365584 L17.2224167,81.3586731 L17.6637083,80.6516932 C18.105,79.7947478 18.547,79.365584 18.9882917,79.365584 L26.9372083,79.365584 L26.9372083,95.6523842 L21.6374583,95.6523842 L21.6374583,82.7947478 L13.68925,95.6523842 L8.39020833,95.6523842 L16.339125,82.7947478 L13.68925,82.7947478 C13.3945833,82.7947478 13.100625,82.9371113 12.8059583,83.2239115 L5.29904167,95.6523842 L0,95.6523842 Z M34.0028333,89.2232205 L34.0028333,92.2239115 L46.3667917,92.2239115 L46.3667917,95.6523842 L28.7030833,95.6523842 L28.7030833,84.9378023 C28.7030833,84.6516932 28.77675,84.3662751 28.9240833,84.0801659 L31.3529583,79.7947478 C31.5002917,79.5086386 31.79425,79.365584 32.23625,79.365584 L46.3667917,79.365584 L46.3667917,82.7947478 L35.7687083,82.7947478 C35.4740417,82.7947478 35.2530417,82.9371113 35.1064167,83.2239115 L34.0028333,85.7954388 L46.3667917,85.7954388 L44.6002083,89.2232205 L34.0028333,89.2232205 L34.0028333,89.2232205 Z M53.4324167,92.2239115 L62.2639167,92.2239115 L62.2639167,89.2232205 L58.73075,89.2232205 L60.4973333,85.7954388 L67.5629583,85.7954388 L67.5629583,94.7961299 C67.5629583,95.3669661 67.2682917,95.6523842 66.6796667,95.6523842 L49.0166667,95.6523842 C48.4273333,95.6523842 48.133375,95.3669661 48.133375,94.7961299 L48.133375,84.9378023 C48.133375,84.6516932 48.2070417,84.3662751 48.3536667,84.0801659 L50.7825417,79.7947478 C50.929875,79.5086386 51.2238333,79.365584 51.6658333,79.365584 L66.6796667,79.365584 L66.6796667,82.7947478 L55.1982917,82.7947478 C54.9043333,82.7947478 54.6833333,82.9371113 54.536,83.2239115 L53.4324167,85.7954388 L53.4324167,92.2239115 L53.4324167,92.2239115 Z M91.409,95.6523842 L85.2266667,95.6523842 L82.7977917,92.2239115 L76.3944583,92.2239115 L74.6285833,89.1167934 L74.6285833,95.6523842 L69.3295417,95.6523842 L69.3295417,79.365584 L79.485625,79.365584 C79.927625,79.365584 80.3689167,79.7947478 80.8109167,80.6516932 L91.409,95.6523842 Z M80.3469583,88.7954388 L76.3944583,83.2239115 C76.1005,82.9371113 75.8058333,82.7947478 75.511875,82.7947478 L74.6285833,82.7947478 L74.6285833,88.7954388 L80.3469583,88.7954388 L80.3469583,88.7954388 Z M100.923333,92.4208708 L107.33375,92.4208708 C107.639042,92.4208708 107.867833,92.2868003 108.020125,92.0186593 L109.965917,87.9474775 L110.080667,87.4996545 L109.965917,87.0525225 L108.020125,83.0262612 C107.867833,82.7284036 107.639042,82.5784381 107.33375,82.5784381 L100.923333,82.5784381 L100.923333,92.4208708 L100.923333,92.4208708 Z M95.4295,79 L110.76775,79 C111.225333,79 111.607125,79.2985487 111.912417,79.8949551 L115.460458,87.0525225 L115.575208,87.4996545 L115.460458,87.9474775 L111.912417,95.1050449 C111.607125,95.7014513 111.225333,96 110.76775,96 L95.4295,96 L95.4295,79 L95.4295,79 Z M117.40625,79 L132.057417,79 C132.515708,79 132.896792,79.2985487 133.202083,79.8949551 L135.606167,84.8154803 L135.720208,85.2633034 L135.606167,85.7104354 L132.057417,89.7366966 L135.720208,96 L130.226375,96 L124.960625,87.4996545 L127.70825,87.4996545 C128.013542,87.4996545 128.242333,87.4250173 128.394625,87.276434 L130.226375,85.2633034 L129.3105,83.0262612 C129.1575,82.7284036 128.928708,82.5784381 128.623417,82.5784381 L122.900792,82.5784381 L122.900792,96 L117.40625,96 L117.40625,79 L117.40625,79 Z M143.045792,96 L137.551958,96 L137.551958,79 L143.045792,79 L143.045792,96 Z M150.371375,84.5922598 L155.865917,92.4208708 L161.360458,84.5922598 L161.360458,79 L166.854292,79 L166.854292,85.2633034 C166.854292,85.8597097 166.777792,86.3068417 166.6255,86.6053905 L160.444583,96 L151.287958,96 L145.107042,86.6053905 C144.953333,86.3068417 144.877542,85.8597097 144.877542,85.2633034 L144.877542,79 L150.371375,79 L150.371375,84.5922598 L150.371375,84.5922598 Z M174.179875,89.2895646 L174.179875,92.4208708 L187,92.4208708 L187,96 L168.686042,96 L168.686042,84.8154803 C168.686042,84.5176227 168.762542,84.2190739 168.914833,83.9212163 L171.432958,79.4478231 C171.58525,79.1492744 171.89125,79 172.348833,79 L187,79 L187,82.5784381 L176.011625,82.5784381 C175.706333,82.5784381 175.477542,82.7284036 175.32525,83.0262612 L174.179875,85.7104354 L187,85.7104354 L185.168958,89.2895646 L174.179875,89.2895646 L174.179875,89.2895646 Z" id="Shape" fill="#FFFFFF" fill-rule="nonzero"></path>
                <path d="M40,112 L41.2705383,109.937213 L48.1789579,109.937213 L49.8072549,107.122439 L48.1789579,104.909408 C47.9604847,104.594355 47.6430269,104.436446 47.2265844,104.436446 L44.4472377,104.436446 L45.717776,102.374425 L49.5286839,102.374425 C49.9529037,102.374425 50.3099554,102.575261 50.601253,102.976167 L51.4949427,104.201115 L52.7053833,102.073937 C53.1296031,101.357979 53.7645187,101 54.6115443,101 L57.1526209,101 L53.6188699,107.133171 L57.1526209,112 L53.341006,112 L51.9410806,110.065993 L51.1965748,111.355331 C50.9321445,111.784599 50.5878194,112 50.1643066,112 L40,112 Z M59.6936976,105.124808 L59.6936976,103.062787 L63.5852073,103.062787 L64.1013414,102.116864 C64.5510144,101.372544 65.2000707,101 66.0470963,101 L68.5881729,101 L67.3968223,103.062787 L70.4936269,103.062787 C70.9171397,103.062787 71.287625,103.305784 71.6057898,103.792544 L74.0273779,107.44439 C74.2133276,107.73108 74.2394878,108.032334 74.1072726,108.347387 L72.2407055,111.269477 C71.9232476,111.757003 71.5527623,112 71.1292496,112 L66.0470963,112 L66.0470963,109.937213 L68.5881729,109.937213 C69.0109787,109.937213 69.3560108,109.764739 69.6204411,109.421324 L70.2956576,108.174913 C70.4278728,107.974843 70.4278728,107.774007 70.2956576,107.573937 L69.0244123,105.59777 C68.7932125,105.281951 68.4354538,105.124808 67.9525502,105.124808 L66.2061787,105.124808 L62.2347742,112 L58.4231593,112 L62.3938567,105.124808 L59.6936976,105.124808 L59.6936976,105.124808 Z M70.4936269,101 L73.0347035,101 L75.6952688,105.038955 L74.6234067,107.187596 L70.4936269,101 Z M73.7898148,101 L78.1175639,101 L76.0926213,104.436446 L73.7898148,101 L73.7898148,101 Z M84.4702555,112 L84.4702555,101 L88.2818705,101 L88.2818705,103.749617 L94.6345621,103.749617 C95.0587819,103.749617 95.4158336,103.99338 95.7071312,104.480139 L97.8112615,107.874425 L93.9996465,107.874425 L93.2056484,106.499233 C92.8881906,106.040836 92.5169983,105.811638 92.0941925,105.811638 L88.2818705,105.811638 L88.2818705,112 L84.4702555,112 Z M92.0941925,103.062787 L90.8236542,101 L93.3647308,101 L94.6345621,103.062787 L92.0941925,103.062787 Z M95.2701848,103.062787 L93.9996465,101 L96.5407231,101 L97.8112615,103.062787 L95.2701848,103.062787 Z M99.0817998,103.062787 L99.0817998,101 L112.423513,101 L112.423513,103.062787 L99.0817998,103.062787 Z M99.0817998,105.811638 L99.0817998,103.749617 L112.423513,103.749617 L112.423513,105.811638 C112.423513,106.270801 112.330891,106.714634 112.145649,107.144669 L110.199894,111.355331 C109.987784,111.784599 109.670326,112 109.246813,112 L100.987961,112 L100.987961,109.937213 L106.070114,109.937213 C106.493627,109.937213 106.824518,109.70878 107.062788,109.249617 L108.611898,105.811638 L99.0817998,105.811638 L99.0817998,105.811638 Z M113.694051,105.124808 L113.694051,103.062787 L122.86639,103.062787 C123.316063,103.062787 123.659681,102.832822 123.898659,102.374425 L124.49398,101 L128.305595,101 L127.035057,103.749617 C126.611544,104.666411 125.976629,105.124808 125.129603,105.124808 L122.587819,105.124808 L122.587819,112 L118.776204,112 L118.776204,105.124808 L113.694051,105.124808 L113.694051,105.124808 Z M141.964766,109.764739 L140.773416,111.312404 C140.508278,111.770801 140.16466,112 139.741147,112 L129.576134,112 L129.576134,109.937213 L136.564448,109.937213 C136.90241,109.937213 137.206434,109.70878 137.477935,109.249617 L137.834986,108.594216 L137.834986,103.062787 L129.576134,103.062787 L129.576134,101 L142.282224,101 L142.282224,108.562021 C142.282224,109.020418 142.176169,109.421324 141.964766,109.764739 L141.964766,109.764739 Z M143.552762,105.124808 L145.458923,101 L148,101 L146.093839,105.124808 L143.552762,105.124808 Z M142.91714,105.124808 L142.91714,101 L144.823301,101 L142.91714,105.124808 Z" id="Shape" fill="#CCCCCC" fill-rule="nonzero"></path>
            </g>
        </g>
    </g>
</svg>