<svg viewBox="-14 169 532 164" xmlns="http://www.w3.org/2000/svg" xml:space="preserve">
    <path d="M298.26 262.46c53.57 1.47 106.34 7.2 158.33 21.01-.74 3.05-1.4 5.74-2.17 8.89-9.14-1.79-18.03-3.68-26.98-5.25-36.14-6.36-72.56-9.92-109.25-10.77-7.16-.17-14.33-.24-21.47-.63-3.33-.18-4.82 1.07-5.46 4.24-3.06 15.23-6.14 30.46-9.48 45.63-.44 2.02-2.09 4.43-3.83 5.25-1.07.5-3.63-1.43-5.11-2.74-1.72-1.52-3.09-3.48-4.41-5.39-2.34-3.38-2.59-6.89-1.08-10.86 3.89-10.22 7.5-20.55 11.12-30.88.48-1.37.37-2.95.49-4.02-9.68 0-19.31-.63-28.83.13-22.73 1.82-45.4 4.33-68.1 6.46-4.29.4-6.13 1.77-5.3 6.66 2.32 13.51-8.29 22.52-21.01 17.7-2.91-1.1-6.77-2.45-5.51-6.38.89-2.79 3.56-5.17 5.88-7.23.64-.57 3.15.29 4.35 1.13 4.6 3.24 7.67 2.08 8.47-3.49.26-1.81.34-3.64.57-6.34-34.77 5.57-68.49 13.77-101.26 27.57-1.4-6.33-2.73-12.38-4.27-19.36 12.01-3.66 23.87-8.1 36.12-10.84 22.86-5.1 45.94-9.2 68.93-13.71 1.14-.22 2.87.05 3.35-.62 1.89-2.6 5.08-5.79 4.66-8.21-.72-4.11-4.84-2.78-7.85-1.65-4.8 1.8-9.38 1.98-13.78-1.11-3.35-2.35-6.7-2.17-10.28-.2-5.09 2.8-10.17 5.79-15.6 7.72-3.54 1.26-7.9 1.71-11.53.9-9.06-2.03-11.2-11.35-4.8-18.17 1.98-2.11 3.74-4.69 4.7-7.38.51-1.41-.46-4.03-1.66-5.12-.7-.64-3.61.14-4.75 1.15-5.7 5.1-11.02 10.63-16.74 15.7-3.33 2.96-6.88 6.02-10.89 7.72-2.53 1.07-6.96.76-8.94-.87-1.74-1.44-2.4-5.97-1.54-8.44 3.73-10.78 8.29-21.27 12.27-31.96.7-1.89.09-4.26.08-6.41-2.27.33-5.17-.12-6.69 1.12-6.52 5.31-13.98 9.7-18.27 17.4-1.79 3.2-4.56 4.95-8.34 3.72-3.87-1.26-4.34-4.83-3.59-7.82 1.45-5.74 3.8-11.24 5.62-16.89.7-2.16 1.53-4.55 1.23-6.68-.23-1.65-1.83-3.7-3.36-4.38-.97-.44-3.46.9-4.33 2.12-4.12 5.8-7.75 11.95-11.87 17.74-10.55 14.84-14.79 32.52-21.92 48.88-3.54 8.12-4.83 17.22-7.06 25.9-1.03 4.01-2.09 8.04-2.68 12.13-.37 2.55-.01 5.23.22 7.83.19 2.13 1.01 4.24.93 6.34-.08 1.98-.61 5.34-1.58 5.59-2.12.54-5.35.28-6.87-1.07-4.06-3.59-7.75-7.71-10.95-12.09-1.1-1.5-.88-4.59-.25-6.63 4.58-14.83 8.76-29.84 14.33-44.31 8.27-21.51 17.84-42.46 31.64-61.2 5.1-6.93 9.48-14.39 14.68-21.24 4.62-6.09 11.49-5.08 15.38 1.57 3.67 6.27 3.8 12.92 2.77 19.8-.27 1.79-.71 3.65-.46 5.39.52 3.55 3.99 4.78 6.59 2.27 1.89-1.82 3.61-3.99 4.82-6.3 4.92-9.42 16.34-11.59 24.98-10.53 4.03.49 6.15 4.27 5.24 8.23-.22.97-.51 1.94-.94 2.83-5.82 12.03-11.77 24-17.4 36.13-.8 1.73-.03 4.19.01 6.31 1.9-.76 4.64-.96 5.58-2.36 9.2-13.72 23.73-19.28 38.03-25.05 3.19-1.29 7.14-1.05 10.72-.93 4.3.14 7.02 3.46 6.26 7.2-.86 4.23-4.07 3.75-7.41 3.81-3.81.07-7.75.68-11.34 1.91-1.44.5-2.09 3.28-3.1 5.02 1.7.76 3.35 1.7 5.12 2.22 1.06.31 2.45-.42 3.44-.04 1.76.69 3.33 1.87 4.98 2.84-1.3 1.7-2.28 3.95-3.99 4.95-2.21 1.3-5.27 1.16-7.48 2.46-3.06 1.8-8.25 3.5-5.92 8.18 2.31 4.66 6.47 1.3 9.58-.14 5.11-2.36 10.57-4.42 14.94-7.83 5.96-4.65 11-10.48 16.5-15.72 6.33-6.03 13.3-10.93 22.29-12.18 3.95-.55 6.33 1.4 6.78 4.88.46 3.54-1.37 6.16-5.45 6.03-10.12-.31-14.6 8.14-20.92 13.63-.81.7-.66 3.93.22 4.8 1.12 1.11 3.79 1.83 5.16 1.25 2.33-1 4.38-2.95 6.18-4.85 4.63-4.86 9.06-9.92 13.85-15.2 3.16 4.18 2.72 7.87.81 11.33-1.84 3.33-4.38 6.28-6.25 9.6-.67 1.19-.28 2.97-.38 4.48 1.49-.31 3.36-.18 4.4-1.04 2.03-1.67 3.77-3.77 5.34-5.92 8.56-11.69 19.62-20.75 31.3-28.97 5.56-3.91 12.18-5.92 19.38-4.9 3.38.48 6.15 1.28 7.34 4.83 1.32 3.96 2.95 7.93-.22 11.81-1.37 1.67-3.18 3.13-4.05 5.02-.71 1.54-.32 3.58-.41 5.4 1.8-.2 3.8.03 5.34-.69 2.06-.97 3.6-3.26 5.69-3.89 1.72-.52 4.4-.01 5.72 1.12.78.67.43 4.29-.61 5.14-4.15 3.42-8.54 6.77-13.35 9.08-1.6.77-5.22-1.08-7.04-2.72-2.4-2.16-3.91-2.48-6.86-.88-5.15 2.78-10.55 5.52-16.18 6.88-5.51 1.33-7.21-.87-6.92-6.56.08-1.64.68-3.27.65-4.89-.03-1.44-.62-2.86-.96-4.29-1.41.64-3.27.91-4.13 1.98-2.49 3.11-4.15 6.97-6.94 9.73-3.11 3.08-6.95 5.53-10.75 7.78-3.24 1.91-6.05 3.8-6.49 8 14.01-1.03 27.75-2.32 41.51-2.99 17.8-.86 35.62-1.39 53.44-1.65 4.19-.06 5.52-1.61 6.87-5.24 4.86-13.05 10.13-25.94 15.44-38.82.86-2.09 3.13-3.6 3.98-5.69 1.03-2.54 1.26-5.4 1.83-8.13-2.82-.2-6.16-1.47-8.35-.39-6.37 3.14-12.29 7.21-18.37 10.94-1.83 1.12-3.51 2.61-5.47 3.39-5.18 2.07-8.76.59-10.63-4.07-1.67-4.17-.02-7.77 4.71-10 3.45-1.63 6.97-3.1 10.44-4.67 7.56-3.43 15.1-6.88 22.65-10.31 3.81-1.73 6.87-1.3 9.49 2.45 3.76 5.36 5.54 5.32 10 .54 5.01-5.38 17.99-8.51 24.89-5.95 3.94 1.46 6.37 4.39 6.7 8.52.58 7.37.45 14.69-4.13 21.1-.87 1.21-1.91 2.51-2.15 3.89-.25 1.47-.12 3.48.75 4.49.6.71 2.96.63 4.11.05 9.46-4.72 18-10.03 21.05-21.52 3.07-11.59 10.72-20.43 19.94-27.99 5.12-4.19 11.05-5.45 17.25-5.32 8.64.18 11.64 4.13 9.43 12.6-1.06 4.07-2.85 8.27-5.38 11.59-7.97 10.45-18.05 18.52-29.93 24.28-5.48 2.66-10.55 6.03-12.99 11.84-.82 1.96-.89 5.35.29 6.71 1.07 1.24 5.05 1.65 6.45.64 9.62-6.96 21.19-10.82 29.38-20.22 6.12-7.03 14.18-12.12 24.56-10.85 3.21.39 6.73.37 7.75 4.1 1.3 4.77 4.4 9.74-.31 14.5-1.37 1.38-3.2 2.93-3.47 4.63-.34 2.11.03 5.01 1.31 6.54 1.82 2.18 4.43 3.57 7.96 2.05 4.21-1.81 8.82-2.67 13.21-4.06 2.01-.64 3.98-1.47 5.88-2.38 2.08-1 3.98-2.86 6.12-3.14 2.15-.28 5.22.23 6.56 1.65 1.36 1.45 2.02 4.75 1.34 6.65-1 2.84-3.9 4.96-5.17 7.76-1.56 3.43-3.76 7.56-3.05 10.82 1.32 6.04 8.2 6.94 13.71 1.96 7-6.33 14.14-12.62 18.27-21.5.92-1.97 2.69-4.44 4.51-4.89 2.36-.58 5.75-.12 7.58 1.32 1.28 1.01 1.02 4.43.81 6.71-.12 1.32-1.3 2.73-2.35 3.75-9.07 8.76-12.84 20.17-16.8 31.7-3.12 9.07-7.51 17.72-11.52 26.46-4.15 9.04-8.39 18.04-12.91 26.9-1.24 2.44-3.35 5.65-5.56 6.11-3.72.76-6.83-1.84-8.61-5.49-1.57-3.22-1.65-5.83.64-9.17 5.68-8.32 10.78-17.05 15.92-25.73 3.7-6.26 7.23-12.63 10.55-19.1.94-1.82.91-4.15 1.32-6.25-1.92.28-3.88.38-5.75.87-2.39.63-4.64 1.99-7.04 2.27-4.68.55-9.78.71-12.56-3.94-3.17-5.3-3.04-11.07-.35-16.75 1.26-2.65 5.07-5.2 2.06-8.34-3.1-3.24-5.59.43-8.18 1.91-5.69 3.26-11.87 2.33-17.88 1.53-1.68-.23-3.51-1.9-4.61-3.39-2.26-3.08-4.55-3.44-7.59-1.3-2.58 1.81-5.16 3.76-8.01 5.03a26.074 26.074 0 0 1-8.51 2.15c-4 .3-6.24-1.81-6-6.07.06-1 .19-2.06-.08-2.98-.39-1.32-.84-3.28-1.77-3.62-1.04-.39-2.78.48-3.97 1.19-6.49 3.91-12.74 8.28-19.44 11.78-3.07 1.6-6.99 2.13-10.53 2.17-6.64.07-9.5-4.23-7.47-10.56.65-2.04 1.88-3.9 2.47-5.96.38-1.29.62-3.27-.07-4.05-.73-.81-2.82-1.06-4.03-.68-9.63 3.07-19.17 6.42-28.78 9.53-5.26 1.7-10.42 4.36-15.89-.27-2.69-2.28-5.77-.17-7.11 2.4-3.42 6.72-7.82 13.13-8.13 21.66zm12.07-32.29c-.24 3.78 1.74 5.28 4.94 3.83 2.86-1.29 5.41-3.45 8.36-4.33 11.85-3.56 15.99-13.7 20.39-23.53.67-1.49-.04-4.61-1.25-5.67-1.41-1.23-4.25-1.73-6.15-1.26-2.63.65-5.16 2.24-7.41 3.87-8.77 6.35-12.79 16.24-18.22 25.06-.43.67-.52 1.56-.66 2.03zm98.24-44.85c-1.02-1.54-1.76-3.79-2.74-3.9-1.9-.22-4.7.11-5.79 1.37-5.39 6.26-10.46 12.8-15.34 19.47-.99 1.36-.68 3.67-.97 5.55 1.89-.32 4.38.01 5.58-1.08 5.65-5.11 11.03-10.53 16.31-16.02 1.28-1.34 1.86-3.35 2.95-5.39zm-160.4 38.03c-2.81-.59-4.64-1.59-6.02-1.15-8.18 2.56-13.61 8.66-18.36 15.37-1.82 2.56.79 6.23 4.18 5.77 1.8-.25 3.72-1.38 5.07-2.66 3.36-3.18 6.48-6.62 9.58-10.07 1.63-1.83 2.99-3.89 5.55-7.26zm169.15 12.32c.51-.25 1.77-.51 2.51-1.27 4.73-4.89 9.43-9.81 13.92-14.92.9-1.03.8-2.93 1.16-4.42-1.65-.25-3.49-1.1-4.91-.64-7.87 2.51-12.89 8.61-17.42 15.01-2.15 3.02.28 6.37 4.74 6.24z" fill="#fff"/>
</svg>
