<?xml version="1.0" encoding="UTF-8" standalone="no"?>
<!DOCTYPE svg PUBLIC "-//W3C//DTD SVG 1.1//EN" "http://www.w3.org/Graphics/SVG/1.1/DTD/svg11.dtd">
<svg width="100%" height="100%" viewBox="0 0 252 113" version="1.1" xmlns="http://www.w3.org/2000/svg" xmlns:xlink="http://www.w3.org/1999/xlink" xml:space="preserve" xmlns:serif="http://www.serif.com/" style="fill-rule:evenodd;clip-rule:evenodd;stroke-linejoin:round;stroke-miterlimit:2;">
    <g transform="matrix(1,0,0,1,-3354,-1132)">
        <g id="metal-slug.afdesign" transform="matrix(1,0,0,1,3480,1188.89)">
            <g transform="matrix(1,0,0,1,-320.225,-60)">
                <clipPath id="_clip1">
                    <rect x="194.237" y="4" width="251.977" height="112"/>
                </clipPath>
                <g clip-path="url(#_clip1)">
                    <g transform="matrix(0.419825,0,0,0.419825,194.302,4)">
                        <path d="M456.996,266.346C448.917,264.219 441.429,260.001 436.818,254.997C434.139,252.081 431.067,246.996 429.804,243.333C429.057,241.125 429.018,240.063 429.018,208.851C429.018,181.23 429.096,176.382 429.609,174.963C431.973,168.303 438.435,160.029 443.835,156.717C446.829,154.905 451.557,153.054 455.577,152.109C458.61,151.359 460.503,151.32 493.368,151.32L527.925,151.32L527.925,190.725L492.462,190.725L492.462,183.237L483.201,183.237C472.206,183.237 470.787,183.555 467.949,186.747C464.877,190.173 464.877,190.215 464.877,209.445L464.877,226.389L466.02,228.357C467.754,231.393 469.998,233.481 472.521,234.426C474.57,235.176 475.557,235.254 484.383,235.254L494.037,235.254L494.037,227.373L477.093,227.373L477.093,199.788L530.289,199.788L530.289,266.778L494.352,266.739C473.586,266.739 457.785,266.544 456.996,266.346Z" style="fill:white;fill-rule:nonzero;"/>
                        <path d="M92.487,266.424L92.487,226.191L128.034,226.191L127.875,230.526L127.758,234.858L139.068,234.858C145.254,234.858 150.615,234.741 150.969,234.624C151.914,234.27 151.716,233.166 150.534,232.023C149.904,231.471 143.598,227.214 136.428,222.567C103.17,200.931 103.602,201.246 99.621,195.849C95.601,190.41 94.458,187.101 94.458,180.48C94.458,173.586 96.075,168.54 99.819,163.812C103.287,159.477 110.34,155.142 117.708,152.895L122.241,151.515L154.869,151.398L187.458,151.278L187.458,190.332L151.203,190.332L151.203,182.451L144.624,182.529C138.948,182.649 138.003,182.727 137.886,183.276C137.805,183.711 139.737,185.13 144.309,188.007C153.333,193.641 174.021,207.354 177.726,210.153C185.37,215.946 190.413,223.986 191.358,231.906C191.91,236.397 191.91,241.164 191.358,244.161C191.16,245.421 190.098,248.259 189.036,250.464C187.419,253.776 186.669,254.841 184.422,256.968C179.616,261.42 174.849,263.628 166.14,265.281C161.766,266.109 160.581,266.109 127.089,266.268L92.487,266.424Z" style="fill:white;fill-rule:nonzero;"/>
                        <path d="M197.703,266.385L197.703,234.072L207.948,234.072L207.87,208.971L207.753,183.831L202.746,183.711L197.703,183.591L197.703,151.32L254.448,151.32L254.448,183.591L249.642,183.711L244.794,183.831L244.677,208.773L244.596,233.676L255.51,233.598L266.466,233.481L266.466,222.843L303.903,222.843L304.02,226.782C304.098,228.951 304.02,238.761 303.903,248.574L303.627,266.385L197.703,266.385Z" style="fill:white;fill-rule:nonzero;"/>
                        <path d="M341.85,265.953C337.005,265.242 330.582,262.524 325.89,259.212C320.454,255.429 317.577,251.727 315.804,246.405L314.778,243.294L314.226,182.844L305.283,182.844L305.283,151.32L357.297,151.32L357.297,182.805L353.871,182.922L350.4,183.042L350.4,232.218L351.504,233.049C352.569,233.835 353.082,233.877 362.814,233.877C372.549,233.877 373.062,233.835 374.124,233.049L375.228,232.218L375.345,207.513L375.426,182.844L368.331,182.844L368.331,151.32L394.458,151.398L420.546,151.515L420.663,167.199L420.741,182.844L411.324,182.844L411.204,214.29L411.087,245.697L409.629,248.652C405.726,256.572 397.728,262.719 387.996,265.281C384.804,266.109 383.937,266.148 364.392,266.229C353.238,266.268 343.074,266.148 341.85,265.953Z" style="fill:white;fill-rule:nonzero;"/>
                        <path d="M0.003,140.208C0.12,139.929 3.627,133.587 7.845,126.099L15.531,112.503L23.214,112.386L30.897,112.308L40.671,94.851C46.068,85.275 55.881,67.779 62.541,55.956C69.159,44.136 75.348,33.099 76.293,31.446L77.949,28.374L70.461,28.293L62.973,28.176L70.896,14.067L78.855,0L103.68,0.078L128.547,0.198L128.742,14.109L128.94,28.017L131.304,23.88C132.603,21.633 136.23,15.33 139.383,9.891L145.095,0.039L166.494,0L187.851,0L187.851,6.228C187.851,9.615 187.734,15.999 187.578,20.373L187.338,28.374L178.392,28.374L178.392,112.308L187.851,112.308L187.851,118.533C187.851,121.923 187.734,128.307 187.578,132.72L187.338,140.679L129.138,140.679L129.138,112.308L137.412,112.308L137.412,103.56C137.412,98.712 137.253,94.968 137.058,95.205C136.899,95.403 135.246,98.121 133.392,101.274C131.541,104.427 128.112,110.259 125.748,114.276C123.384,118.26 118.971,125.784 115.896,131.025L110.379,140.484L98.478,140.601L86.58,140.679L86.499,117.864L86.382,95.049L81.141,104.151C78.261,109.194 72.393,119.4 68.097,126.888L60.255,140.484L30.03,140.601C5.874,140.679 -0.156,140.601 0.003,140.208Z" style="fill:white;fill-rule:nonzero;"/>
                        <path d="M197.583,132.918C197.427,128.661 197.31,122.277 197.31,118.731L197.31,112.308L205.584,112.308L205.584,68.568L197.31,68.568L197.31,39.801L287.55,39.801L287.55,73.296L271.116,73.218L254.646,73.098L254.526,70.854L254.409,68.568L239.079,68.568L239.079,75.66L260.754,75.66L260.754,102.063L239.079,102.063L239.079,112.308L254.409,112.308L254.526,108.879L254.646,105.411L271.116,105.294L287.55,105.213L287.55,140.679L197.82,140.679L197.583,132.918Z" style="fill:white;fill-rule:nonzero;"/>
                        <path d="M318.678,140.679L318.678,111.915L329.712,111.915L329.712,68.961L328.569,68.961C327.426,68.961 327.387,69.039 327.27,71.049L327.153,73.098L297.597,73.098L297.48,56.43L297.402,39.801L395.523,39.801L395.442,56.43L395.325,73.098L380.469,73.218L365.574,73.296L365.574,68.175L362.421,68.175L362.421,111.915L374.244,111.915L374.244,140.679L318.678,140.679Z" style="fill:white;fill-rule:nonzero;"/>
                        <path d="M384.093,140.679L384.093,112.347L390.045,112.23L395.997,112.11L398.676,107.382C400.134,104.781 405.609,95.049 410.85,85.749C416.052,76.488 420.348,68.724 420.348,68.529C420.348,68.331 418.221,68.133 415.62,68.094L410.928,67.977L418.89,53.985L426.888,39.999L493.839,39.999L493.959,54.105L494.037,68.175L485.367,68.175L485.367,112.308L494.037,112.308L494.037,140.679L419.598,140.679L422.082,136.266C423.42,133.824 425.472,130.119 426.573,128.07C427.677,126.021 430.041,121.686 431.856,118.416L435.165,112.503L443.913,112.386L452.661,112.308L452.661,95.088C452.661,85.629 452.583,77.985 452.505,78.063C452.385,78.141 449.43,83.265 445.884,89.451C442.296,95.64 434.178,109.668 427.836,120.702L416.208,140.679L384.093,140.679Z" style="fill:white;fill-rule:nonzero;"/>
                        <path d="M504.675,140.679L504.675,112.308L513.741,112.308L513.741,68.175L504.675,68.175L504.675,39.801L530.016,39.879L555.315,39.999L555.432,54.105L555.51,68.175L546.84,68.175L546.84,111.915L566.349,111.915L566.229,107.184L566.109,102.456L582.975,102.534L599.844,102.654L599.961,104.622C600.039,105.726 600,114.276 599.844,123.657L599.565,140.679L504.675,140.679Z" style="fill:white;fill-rule:nonzero;"/>
                    </g>
                </g>
            </g>
        </g>
    </g>
</svg>
