<svg viewBox="0 0 253 113" xmlns="http://www.w3.org/2000/svg" xml:space="preserve" style="fill-rule:evenodd;clip-rule:evenodd;stroke-linejoin:round;stroke-miterlimit:2">
    <clipPath id="a">
        <path d="M.896.748h251.895v112H.896z"/>
    </clipPath>
    <g clip-path="url(#a)">
        <path d="M192.754 112.567c-3.392-.893-6.535-2.664-8.471-4.764-1.125-1.225-2.414-3.36-2.945-4.897-.313-.927-.33-1.373-.33-14.477 0-11.596.033-13.631.248-14.227.993-2.796 3.706-6.269 5.973-7.66 1.257-.761 3.242-1.538 4.929-1.934 1.274-.315 2.069-.332 15.866-.332h14.508V80.82h-14.888v-3.144h-3.888c-4.616 0-5.212.133-6.403 1.473-1.29 1.439-1.29 1.456-1.29 9.53v7.113l.48.826c.728 1.275 1.67 2.152 2.729 2.548.86.315 1.275.348 4.98.348h4.053v-3.309h-7.114V84.624h22.333v28.124l-15.087-.016c-8.718 0-15.352-.082-15.683-.165Zm-153.03.033V95.709h14.924l-.067 1.82-.049 1.819h4.748c2.597 0 4.848-.049 4.997-.099.396-.148.313-.612-.183-1.092-.265-.231-2.912-2.018-5.922-3.969-13.963-9.084-13.781-8.951-15.453-11.217-1.687-2.284-2.167-3.673-2.167-6.453 0-2.894.679-5.012 2.25-6.997 1.456-1.82 4.417-3.64 7.511-4.583l1.903-.58 13.698-.049 13.682-.05v16.396H64.375v-3.309l-2.762.033c-2.383.05-2.78.083-2.829.313-.034.183.777.779 2.696 1.986 3.789 2.366 12.474 8.123 14.03 9.298 3.209 2.432 5.326 5.807 5.723 9.132.232 1.886.232 3.887 0 5.145-.083.529-.529 1.721-.975 2.646-.679 1.391-.994 1.838-1.937 2.731-2.018 1.869-4.019 2.796-7.675 3.49-1.837.348-2.334.348-16.395.414l-14.527.066Zm44.173-.017V99.018h4.301l-.033-10.538-.049-10.555-2.102-.05-2.117-.051V64.276h23.823v13.548l-2.018.051-2.035.05-.05 10.472-.034 10.454 4.582-.032 4.6-.049v-4.467h15.717l.049 1.654c.033.911 0 5.029-.049 9.149l-.116 7.477H83.897Zm60.516-.181c-2.034-.298-4.73-1.439-6.7-2.83-2.282-1.588-3.49-3.142-4.235-5.377l-.43-1.306-.232-25.378h-3.755V64.276h21.837v13.219l-1.438.049-1.457.05v20.645l.463.349c.447.33.663.348 4.748.348 4.087 0 4.303-.018 4.749-.348l.463-.349.049-10.371.034-10.357h-2.979V64.276l10.969.033 10.953.049.049 6.585.032 6.568h-3.953l-.05 13.202-.05 13.185-.612 1.241c-1.638 3.325-4.996 5.905-9.082 6.981-1.34.348-1.704.364-9.909.398-4.683.016-8.95-.034-9.464-.116ZM.897 59.611c.049-.117 1.522-2.779 3.293-5.923l3.226-5.708 3.226-.049 3.225-.033 4.104-7.329c2.265-4.02 6.385-11.365 9.181-16.329 2.779-4.962 5.377-9.596 5.774-10.29l.695-1.289-3.144-.034-3.143-.05 3.326-5.923L34.001.748l10.422.033 10.44.051.082 5.84.083 5.839.993-1.737c.545-.943 2.068-3.59 3.391-5.873L61.81.765l8.984-.017h8.967v2.615c0 1.422-.05 4.102-.115 5.939l-.101 3.359h-3.756v35.237h3.972v2.614c0 1.423-.05 4.103-.115 5.956l-.101 3.341H55.111V47.898h3.474v-3.672c0-2.036-.067-3.608-.149-3.508-.066.083-.76 1.224-1.539 2.548-.777 1.323-2.216 3.772-3.209 5.458-.992 1.673-2.845 4.832-4.136 7.032l-2.316 3.971-4.996.049-4.996.033-.034-9.578-.049-9.579-2.2 3.822c-1.209 2.117-3.673 6.402-5.476 9.545l-3.292 5.708-12.69.049c-10.141.033-12.672 0-12.606-.165Zm82.949-3.06a199.317 199.317 0 0 1-.114-5.956v-2.697h3.473V29.535h-3.473V17.458h37.885V31.52l-6.9-.033-6.914-.05-.051-.942-.049-.96h-6.436v2.977h9.1v11.085h-9.1v4.301h6.436l.049-1.439.051-1.456 6.914-.05 6.9-.034v14.89H83.946l-.1-3.258Zm50.839 3.258V47.733h4.632V29.7h-.48c-.479 0-.496.033-.545.877l-.049.86h-12.408l-.05-6.998-.032-6.981h41.193l-.034 6.981-.049 6.998-6.237.05-6.253.033v-2.15h-1.324v18.363h4.964v12.076h-23.328Zm27.463 0V47.915l2.499-.05 2.498-.05 1.125-1.985c.612-1.092 2.911-5.178 5.111-9.082 2.184-3.888 3.987-7.148 3.987-7.229 0-.083-.892-.167-1.984-.183l-1.97-.049 3.342-5.874 3.358-5.872h28.108l.05 5.922.033 5.907h-3.64v18.528h3.64v11.911h-31.251l1.042-1.853c.562-1.025 1.424-2.58 1.886-3.441.463-.86 1.456-2.68 2.218-4.053l1.389-2.482 3.673-.049 3.672-.033v-7.229c0-3.971-.032-7.181-.065-7.148-.051.033-1.291 2.184-2.78 4.781a4934.495 4934.495 0 0 0-7.577 13.12l-4.882 8.387h-13.482Zm50.623 0V47.898h3.806V29.37h-3.806V17.458l10.639.033 10.621.05.049 5.922.033 5.907h-3.64v18.363h8.19l-.05-1.986-.05-1.985 7.08.033 7.082.05.049.826c.033.464.017 4.053-.049 7.992l-.117 7.146h-39.837Z" style="fill:#fff;fill-rule:nonzero"/>
    </g>
</svg>
