<svg viewBox="0 0 633 100" xmlns="http://www.w3.org/2000/svg" xml:space="preserve" style="fill-rule:evenodd;clip-rule:evenodd;stroke-linejoin:round;stroke-miterlimit:2">
    <clipPath id="a">
        <path d="M.269.31h632v98.878h-632z"/>
    </clipPath>
    <g clip-path="url(#a)">
        <path d="M.275 98.657c.294-.294 3.239-1.589 6.592-2.942 7.416-2.945 13.006-5.767 19.424-9.654 8.121-4.945 9.768-7.296 28.778-41.256C70.193 17.79 71.783 14.611 71.492 12.787c-.177-1.118-.708-2.471-1.239-3.058-.471-.531-.704-1.179-.471-1.473.297-.237.177-.294-.177-.12-.35.237-1.115-.117-1.706-.765-.588-.644-2.588-2.294-4.471-3.646-1.944-1.413-3.473-2.709-3.473-2.942 0-.297 11.654-.471 25.895-.471 24.247 0 25.896.057 25.896 1.058 0 2.825 1.707 19.128 2.06 19.422.177.177 2.238-1.53 4.592-3.767 2.351-2.294 7.473-7.003 11.357-10.419l7.123-6.294H251.88c126.599 0 121.065-.177 129.364 3.589C391.425 8.49 397.78 19.85 397.78 33.267c0 9.183-1.997 15.538-6.472 20.367-1.295 1.412-2.354 3.058-2.354 3.589.057 1.353 12.536 17.598 17.244 22.424 4.592 4.708 13.948 11.3 16.009 11.3.234 0-1.473-2.06-3.767-4.532-3.119-3.356-4.882-6.004-7.006-10.418-3.296-6.709-4.12-9.828-6.591-24.778a716.452 716.452 0 0 0-2.942-16.773c-1.884-9.948-1.41-15.595 1.883-21.952 2.237-4.121 5.65-7.36 10.595-9.945l3.707-1.947h153.023l4.415 1.356c7.707 2.411 16.773 7.473 21.541 12.008 5.473 5.176 8.532 9.711 17.007 25.188 3.827 6.946 8.182 14.89 9.714 17.655 2.942 5.36 6.472 12.95 7.711 16.777.407 1.292.764 5.002.764 8.238.057 4.945-.18 6.298-1.235 8.241-1.767 3.296-4.592 5.884-8.478 7.591l-3.296 1.532-69.979-.12-69.978-.177 5.296-2.882c8.065-4.474 13.244-9.948 13.244-14.065 0-2.357-20.249-61.092-22.6-65.507-2.528-4.885-4.355-6.238-10.476-7.827-5.77-1.59-5.827-1.59-3.059.411 6.766 4.945 10.062 11.594 17.301 34.842 6.298 20.186 7.063 23.365 7.063 29.723 0 12.652-6.652 22.012-17.658 24.954-1.997.528-18.774.648-67.387.528-56.561-.177-133.896.06-133.896.06h-30.901l4.124-2.177C254.825 89.12 258 86.709 259.944 82.295c.768-1.824 1.649-6.475 2.414-13.124.708-5.65 1.53-12.302 1.823-14.716.882-6.825 2.942-25.896 2.942-27.482 0-1.413-.06-1.413-5.119-1.236l-5.182.174-2.648 3.947c-1.473 2.174-4.469 7.002-6.769 10.709-2.234 3.707-4.174 6.652-4.294 6.532-.121-.117.237-3.884.764-8.415.531-4.532.882-8.709.765-9.3-.117-.588-1.179 3.296-2.471 8.595-1.239 5.353-2.414 9.944-2.648 10.181-.237.234-1.062-2.825-1.827-6.768-.708-4.004-1.763-8.946-2.294-11.067l-.942-3.823-13.654-.177-13.654-.117-.648 2.471c-.354 1.413-.765 2.999-.942 3.59-.294.941.648.998 14.125.998 11.655 0 14.48.177 14.48.765 0 .474-1.059 5.83-2.355 11.951-1.295 6.121-2.351 11.3-2.351 11.591 0 .237-7.009.414-15.541.414h-15.477l-.942 3.416c-.531 1.82-1.119 4.471-1.352 5.884l-.414 2.471h27.659l7.594-9.3c4.18-5.179 7.65-9.003 7.767-8.592.12.471-.588 5.887-1.586 12.125a2741.793 2741.793 0 0 0-3.296 21.365c-.825 5.53-1.647 10.886-1.827 11.945l-.354 1.886h-75.157c-72.626 0-75.04-.06-73.331-1.062a974.327 974.327 0 0 0 8.238-4.885c4.475-2.588 7.77-5.059 10.535-7.884 3.59-3.593 4.592-5.179 8.008-12.362 2.177-4.532 4.117-8.826 4.351-9.591.237-.708 1.473-3.593 2.768-6.358 1.296-2.825 2.294-5.296 2.178-5.59-.117-.237-2.942 2.234-6.355 5.53-5.239 5.123-9.417 8.946-20.894 19.365L90.264 78l-.41-2.825c-.237-1.532-.708-7.005-1.062-12.185-.825-12.535-1.176-15.654-1.883-15.244-.294.177-.414.471-.234.648.117.177-3.416 7.651-7.887 16.657-4.474 8.946-8.475 17.421-8.829 18.776-.998 3.707.06 6.121 4.886 11.124l4.12 4.237h-39.61c-23.305 0-39.434-.237-39.08-.531Zm319.933-7.653c2.828-1.704 5.653-3.707 6.298-4.529 2.594-3.295 2.648-4.12 2.177-37.49-.467-35.964-.35-35.196-5.176-38.669l-2.531-1.883-.411 2.294c-.24 1.236-.414 4.885-.471 8.124-.06 7.06-1.472 28.425-1.883 28.895-.357.354-4.121-9.239-6.592-16.596-1.826-5.533-1.766-5.533-8.946-5.533h-4.708l-.708 11.36c-.414 6.178-1.119 17.01-1.589 23.953-.471 6.946-.885 14.95-.885 17.775 0 5.179 0 5.179 2.237 7.65 2.177 2.415 6.004 5.18 11.594 8.242 2.885 1.589 2.945 1.589 4.709.527.941-.587 4.06-2.411 6.885-4.12Zm56.387 2.534c0-.177-.881-1.706-1.943-3.356a996.174 996.174 0 0 0-3.944-6.298c-1.062-1.766-3.53-5.77-5.413-8.829-1.826-3.059-3.944-6.238-4.648-7.062l-1.179-1.47.351 6.769c.411 8.355 1.002 10.592 3.353 13.3 2.417 2.708 13.423 8.415 13.423 6.946Zm-224.651-5.947c3.413-3.353 5.12-5.53 6.298-8.121 1.473-3.176 8.178-23.659 17.361-52.968 3.533-11.183 3.767-13.952 1.65-16.303-1.71-1.883-5.122-.884-8.889 2.705-2.708 2.471-3.707 4.649-8.358 17.658-4.709 13.067-10.71 29.603-15.832 43.201-2 5.236-3.59 10.475-3.59 11.534 0 1.589.531 2.471 2.648 4.414 1.413 1.293 2.945 2.411 3.296 2.411.354 0 2.768-2.057 5.416-4.531Zm398.271-2.999c0-2.237-.881-4.828-4.885-13.951-9.18-21.128-14.536-33.487-17.304-40.019-5.884-13.951-8.238-17.364-13.418-19.364-2.177-.885-2.591-.885-5.593.06-4.174 1.352-4.237 2.117-1.292 10.178 3.823 10.182 13.888 36.198 17.771 45.615 2.004 4.885 4.007 9.888 4.535 11.183 1.296 3.236 6.241 8.181 10.592 10.653 2.061 1.175 3.884 2.354 4.061 2.705.237.413 1.473-.411 3.002-2.058 2.06-2.237 2.531-3.119 2.531-5.002Zm43.201-19.541c.353-2.178-.06-3.119-4.475-11.361-2.648-4.885-5.941-11.006-7.296-13.594-2.298-4.354-2.769-4.825-7.948-8.358-5.53-3.764-5.53-3.764-9.767-3.764-2.295 0-4.415.291-4.592.585-.177.354-.057.591.237.591.351 0 .648.234.648.471 0 .294 4.117 8.886 9.123 19.127l9.123 18.657h14.533l.414-2.354Zm-142.785.237c.708-.474 1.296-1.356 1.296-1.884 0-1.235-7.417-29.075-8.359-31.546-.467-1.179-1.646-2.12-4.174-3.356-3.359-1.589-3.536-1.589-5.476-.648-1.119.471-2.001 1.176-2.001 1.473 0 .294.765 4 1.767 8.238.938 4.298 2.588 11.594 3.65 16.246l1.94 8.475 3.53 1.94c3.883 2.18 5.83 2.471 7.827 1.062Zm-81.866-27.309 1.295-3.239-2-3.53-1.943-3.533-4.532-.177-4.471-.173.351 5.767c.587 9.122.18 8.475 5.476 8.298l4.531-.177 1.293-3.236Zm192.043-5.299c0-.294-.114-.588-.234-.588-.177 0-.471.294-.648.588-.174.354-.057.587.237.587.354 0 .645-.233.645-.587Z" style="fill:#fff;fill-rule:nonzero"/>
    </g>
</svg>
