<svg viewBox="-241 125 987 251" xmlns="http://www.w3.org/2000/svg" xml:space="preserve">
    <g fill="#fff">
        <path d="M531.83 272.21v103.37H-26.05V272.21h557.88zm-22.04 86.38v-61.66h-6.93v44.38c-1.79-1.01-2.67-2.3-3.41-3.66-6.6-12.08-13.29-24.11-19.71-36.29-2.21-4.2-5.01-5.81-9.69-4.07v61.49h7.12v-45.44c8.26 13.45 15.78 26.9 22.86 40.58 2.18 4.21 4.68 6.16 9.76 4.67zm-416.46-31.2c-1.74-6.31-2.84-12.88-5.34-18.86-6.74-16.15-27.79-16.46-36.51-4.14-8.73 12.33-8.83 34.82.09 46.99 8 10.91 23.06 12.02 32.36 2.13 6.76-7.22 8.25-16.35 9.4-26.12zm318.62-.04c.7 8.04 2.14 15.43 6.2 22.18 4.76 7.89 11.8 11.38 20.93 10.44 7.95-.82 13.43-5.36 16.77-12.36 5.39-11.27 5.68-23.06 1.97-34.76-2.72-8.56-7.89-15.67-17.64-16.74-11.96-1.31-18.93 2.66-23.69 13.67-2.36 5.49-3.08 11.69-4.54 17.57zm-304.75 7.29c8.48-1.52 9.35-1.08 12.54 5.79 2.02 4.34 4.53 8.51 6.02 13.02 1.79 5.43 5.03 6.65 10.65 4.88-4.14-8.35-8.23-16.59-12.4-25 1.36-.64 2.59-1.13 3.73-1.77 6.41-3.64 9.49-11.33 8.21-20.38-.92-6.54-5.86-13.12-12.01-13.74-7.81-.79-15.76-.19-23.64-.19v61.42h6.9v-24.03zm81.78-7.03c.36.08.71.16 1.07.25 0 2.49-.26 5.02.07 7.47.34 2.59 1.17 5.13 1.91 7.66 2.69 9.14 10.47 16.39 18.17 17 11.01.87 18.82-3.53 23.22-13.9 5.3-12.51 5.17-25.22-.57-37.57-4.39-9.44-12.03-13.69-22.52-12.54-8.75.96-14.16 6.4-17.07 14.03-2.14 5.6-2.9 11.72-4.28 17.6zm86.81 5.68c.94-.59 1.32-.93 1.77-1.1 7.69-2.92 11.29-9.76 10.42-19.83-.67-7.76-6.05-14.51-13.38-15.19-7.35-.68-14.81-.15-22.37-.15v61.67h6.98v-24.43c8.83-.64 8.86-.65 12.49 6.63 2.07 4.15 4.53 8.21 5.91 12.59 1.77 5.62 5.2 6.44 10.69 4.94-2.12-4.24-4.18-8.35-6.23-12.45-2.05-4.13-4.1-8.27-6.28-12.68zM39.83 321.01c-1.83-5.06-2.93-9.61-5.03-13.63-8.16-15.64-29.81-15.62-37.74-.26-7.05 13.64-7.2 27.83 0 41.46 7.36 13.95 25.06 15.76 34.88 3.97 4.11-4.94 6.3-10.7 6.95-17.05-5.05-1.68-7.89-.31-8.92 5-.49 2.51-1.74 5.05-3.22 7.16-5.88 8.38-15.6 8.02-21.95-.02-6.34-8.02-6.6-31.05.07-39.8 5.89-7.72 16.35-7.89 21.79.12 1.73 2.55 3.48 5.55 3.82 8.5.66 5.9 4.12 5.24 9.35 4.55zm274.63-24.32c-6.29 20.88-12.45 41.34-18.72 62.14h7.89c2.03-7.29 4.06-14.53 6.05-21.66 18.21-2.03 18.21-2.03 22.34 14.89 1.82 7.47 2.04 7.62 9.8 6.42-5.94-19.81-11.83-39.6-17.88-59.34-.31-1.02-1.84-2.12-2.97-2.35-1.91-.38-3.96-.1-6.51-.1zm-166.14.29v61.81h6.72v-24.8c4 0 7.46.01 10.92 0 9.42-.02 15.22-4.5 17.62-13.58 2.85-10.82-3.59-22.52-13.37-23.32-7.22-.58-14.53-.11-21.89-.11zm218.3 6.04c4.49 0 8.14.25 11.73-.14 1.24-.13 2.97-1.66 3.31-2.87.72-2.57-1.01-3.42-3.47-3.34-3.49.12-6.99.05-10.49.05h-22.86v6.3c3.67 0 6.99.22 10.27-.06 3.8-.33 4.89 1.21 4.83 4.86-.22 13.65-.19 27.31-.24 40.96-.01 3.28 0 6.56 0 9.99h6.91c.01-18.48.01-36.74.01-55.75zm27.91-6.03v61.75h6.94v-61.75h-6.94zM-43.13 133.04v242.64h-42.54V251.14c-.42-.07-.84-.14-1.26-.2-11.16 41.62-22.32 83.25-33.49 124.92h-27.04c-11.59-41.98-23.17-83.93-34.76-125.89-.28 0-.57.01-.85.01-.98 9.62-1.98 19.25-2.93 28.87-1.23 12.38-2.45 24.77-3.65 37.16-1.13 11.73-2.24 23.47-3.34 35.2-.69 7.28-1.23 14.57-2.14 21.83-.14 1.08-1.88 2.8-2.9 2.82-14.46.18-28.93.13-44.21.13 8.41-81.08 16.77-161.7 25.2-242.94h14.12c9.83 0 19.67.22 29.49-.09 4.16-.13 5.53 1.41 6.61 5.26 5.42 19.25 11.23 38.38 16.91 57.56 3.98 13.45 7.94 26.91 11.94 40.36.55 1.86 1.29 3.67 2.38 6.72 4.38-15.95 8.47-30.63 12.44-45.34 5.47-20.26 10.8-40.56 16.38-60.78.4-1.45 2.36-3.5 3.61-3.52 19.8-.24 39.61-.18 60.03-.18zm362.9 50.73h64.12V133.4h42.87v130.17h-42.55V213.4h-64.14v50.33h-42.84V133.32h42.54v50.45zm378.02 148.29c14.56 0 28.21.15 41.84-.09 4.17-.07 5.45 1.21 5.37 5.36-.24 12.62-.09 25.25-.09 38.26h-89.63V133.32h42.5c.01 66 .01 132.03.01 198.74zm-59.95 43.76h-88.75V133.35h42.7v198.47h46.05v44zM267.4 186.41c-6.05-5.51-11.17-10.99-17.1-15.4-12.95-9.63-27.52-11.87-42.84-6.93-13.21 4.25-21.63 17.71-21.48 33.16.13 13.37 9.53 26.96 22.19 30.64 20.38 5.92 37.89.4 52.59-14.64 1.96-2 3.82-4.09 6.97-5.92v5.02c-.01 11.33-.28 22.67.1 33.98.15 4.4-1.61 6.62-5.11 8.59-9.67 5.46-20.12 8.56-30.99 9.91-13.67 1.71-27.51 3.02-41.04-.83-26.79-7.62-44.29-24.85-50.64-52.08-6.86-29.42 2.76-53.61 25.97-72.39 12.14-9.82 26.58-14.23 42.05-14.34 18.21-.12 35.91 2.8 52.57 10.81 4.93 2.37 7.7 4.85 7.28 11.14-.75 11.28-.23 22.64-.26 33.97-.02 1.58-.16 3.17-.26 5.31zm172.66 77.22v-130.3c1.41-.1 2.84-.28 4.27-.28 27.48-.02 54.96.07 82.44-.11 4.23-.03 5.44 1.31 5.29 5.39-.28 7.63-.08 15.28-.08 23.6H477.3v21.96h48.42v28.91h-48.4v21.32c2.27.13 4.52.36 6.77.37 14.81.05 29.63-.01 44.44.19 1.14.02 3.2 1.76 3.23 2.75.26 8.62.15 17.25.15 26.21-30.74-.01-61.11-.01-91.85-.01zM61.64 161.87H29.58v-28.5h110.95v28.56h-31.58v6.2c0 29.83-.01 59.65-.01 89.48 0 6.36-.01 6.35-6.6 6.35h-40.7V161.87zm-87.77 102.1V133.44c.8-.14 1.57-.38 2.34-.38 12.15-.03 24.3.06 36.45-.08 3.13-.04 4.39.74 4.38 4.15-.1 40.95-.08 81.9-.04 122.85 0 2.54-.43 4.06-3.51 4.04-12.95-.11-25.92-.05-39.62-.05z"/>
        <path d="M51.47 326.88c1.87-6.01 2.86-12.37 5.74-17.7 5.26-9.75 17.38-9.82 22.86-.19 6.84 12.03 6.96 24.87.43 37-5.89 10.95-18.8 10.58-24.16-.65-2.61-5.5-3.22-11.94-4.87-18.46zm368.23-.03c1.15-4.61 1.98-10.06 3.89-15.1 2.09-5.52 6.09-9.66 12.59-9.69 6.61-.03 10.83 3.85 13.27 9.61 4.54 10.75 4.37 21.73.08 32.44-2.67 6.66-8.78 10.54-14.3 9.71-7.1-1.06-10.92-6.11-12.88-12.4-1.37-4.39-1.7-9.1-2.65-14.57zm-312.61-11.49c0-.67-.02-1.33 0-2 .35-12.16-2.46-10.25 10.58-10.28 7.06-.02 11.58 5.67 10.95 13.12-.61 7.27-4.71 11.63-11.62 11.63-11.99 0-9.59 1.68-9.91-9.48-.03-.99 0-1.99 0-2.99zm123.4 12.44c-1.48 5.67-2.49 11.21-4.4 16.42-2.16 5.89-6.75 9.65-13.2 9.58-6.32-.07-10.52-4.35-12.67-9.72-4.25-10.65-4.51-21.68.04-32.35 2.29-5.38 6.28-9.55 12.72-9.65 6.58-.1 11 3.59 13.13 9.51 1.87 5.21 2.93 10.72 4.38 16.21zm28.53-24.77c4.19 0 7.5-.12 10.81.03 6.53.3 10.01 4.04 10.32 10.85.37 8.14-2.93 12.92-9.56 13.83-11.16 1.54-11.57 1.17-11.57-10.22v-14.49zm60.27 3.3c2.28 7.97 4.56 15.93 6.96 24.33h-14.77c2.32-8.33 4.54-16.34 6.77-24.35.35 0 .7.01 1.04.02zm-164.27-3.22c4.52 0 8.49-.34 12.38.08 5 .54 8.16 4.3 8.66 9.4.73 7.53-1.21 12.87-6.31 14.13-4.38 1.08-9.24 1.22-13.64.4-.93-.17-.93-6.29-1.05-9.68-.17-4.59-.04-9.21-.04-14.33z"/>
    </g>
</svg>
