<svg version="1.0" width="264" height="60" xmlns="http://www.w3.org/2000/svg">
    <path d="M6.734 9h7.264l9.014 27.202L32.158 9h7.158l6.576 39h-7.159l-4.188-24.632L26.246 48h-6.548l-8.191-24.632L7.239 48H0L6.734 9m45.095 0h7.874c4.26 0 7.326.396 9.199 1.192 1.891.778 3.377 2.051 4.455 3.817C74.453 15.76 75 17.864 75 20.32c0 2.722-.715 4.984-2.147 6.788-1.414 1.802-3.341 3.057-5.78 3.765-1.431.406-4.038.61-7.821.61V48h-7.423V9m7.423 15.245h2.36c1.856 0 3.147-.133 3.871-.399.724-.264 1.29-.697 1.696-1.299.424-.618.636-1.362.636-2.227 0-1.502-.582-2.598-1.75-3.287-.847-.513-2.42-.769-4.719-.769h-2.094v7.981m25.532-11.548-5.315 29.059c-.214 1.257-.375 2.186-.375 2.895 0 2.623 1.718 4.043 4.778 4.043 1.771 0 4.563-.766 8.429-2.185v-2.131c-1.665.546-3.114.82-4.349.82-1.235 0-2.201-1.093-2.201-2.786 0-1.093.268-2.404.59-3.988L91.924 8h-2.362l-9.18 2.075v1.912l4.402.71m33.265 8.576-1.986 1.31c-2.201-.873-4.24-1.365-6.227-1.365-4.778 0-9.234 2.459-11.918 6.609-2.148 3.333-3.222 6.937-3.222 10.871 0 6.281 2.9 9.941 7.731 9.941 2.631 0 5.53-1.475 8.536-4.37v.273c0 2.622 1.396 3.987 4.026 3.987 2.041 0 4.725-.655 8.107-1.911v-2.021c-1.289.382-2.469.601-3.544.601-1.233 0-2.254-1.093-2.254-2.951 0-.71.161-2.02.483-3.823l1.611-8.849c.805-4.534 1.503-7.319 1.825-8.302h-3.168m-6.602 2.622 2.147 3.277-2.524 14.475c-2.039 1.694-3.758 2.567-5.421 2.567-2.631 0-4.081-2.13-4.081-6.282 0-8.301 4.187-14.092 9.18-14.092.269 0 .484.055.699.055m20.521-2.677-8.267 1.912v1.804l4.67.435c.591 1.147 1.074 2.568 1.343 4.098l3.22 17.315h2.04c-2.898 5.626-5.582 8.575-7.999 8.793l-3.597-3.441c-1.933.383-3.114 1.803-3.114 3.661 0 2.185 1.933 4.205 4.511 4.205 4.401 0 8.858-4.315 13.581-12.945 4.134-7.538 6.282-15.404 10.469-21.085l3.168-1.802v-1.475l-4.241-1.42h-1.665c-3.328 7.866-6.012 14.638-8.214 20.264l-1.825-11.906c-.805-5.245-1.771-7.976-4.08-8.413m26.581 14.585c.591 0 1.129.054 1.665.054 8.966 0 13.905-3.332 13.905-8.521 0-3.606-2.47-5.954-6.658-5.954-3.22 0-6.656 1.311-9.394 3.659-3.973 3.442-6.066 8.139-6.066 13.275 0 6.499 3.542 10.378 9.502 10.378 3.22 0 7.086-1.476 11.005-4.589l.108-3.331c-3.222 2.567-6.121 3.823-8.429 3.823-3.597 0-5.744-2.513-5.744-7.155 0-.492.054-1.039.106-1.639m.43-2.295c1.503-6.172 4.295-9.394 7.087-9.394 1.611 0 2.63 1.092 2.63 2.784 0 3.169-3.704 6.337-9.717 6.61m27.586-12.235-9.234 2.239v1.857l4.457.656-4.295 22.177h6.603l2.094-12.672c.805-4.862 2.792-7.866 7.14-9.723l1.45 4.151h.107c3.167 0 5.207-2.021 5.207-4.643 0-2.404-1.664-3.987-3.973-3.987-2.522 0-5.744 2.402-9.18 7.264l1.503-7.319h-1.879" style="fill:#fff"/>
    <path d="M210 27.496c.002-19.601 21.254-31.848 38.253-22.045 16.999 9.803 16.995 34.303-.006 44.102-16.978 9.784-38.204-2.423-38.247-21.996" style="opacity:1;color:#000;fill-rule:nonzero;marker:none;stroke-miterlimit:0;stroke-opacity:1;visibility:visible;display:inline;overflow:visible;fill-opacity:0;stroke-width:4px;paint-order:fill;stroke-linejoin:bevel;fill:none;stroke:#fff"/>
    <path d="M225.054 11 255 28.464 225 45l.054-34Z" style="fill-opacity:1;fill-rule:evenodd;stroke:none;stroke-width:1px;stroke-linecap:butt;stroke-linejoin:miter;stroke-opacity:1;fill:#fff"/>
</svg>
