<svg viewBox="0 0 264 74" xmlns="http://www.w3.org/2000/svg" xmlns:bx="https://boxy-svg.com">
    <path d="M0 204.888 52.05 0h48.267l25.08 89.433L151.422 0h45.426l42.585 150.945 103.905-.195c10.905-.108 11.577-22.662-.807-22.656l-60.513-.807c-25.983.249-53.385-27.861-52.05-65.301C230.247 27.645 260.19.603 298.5.612L452.838.474l39.276 53.469L530.442 0l63.879.474-70.029 98.424L600 205.617l-63.546-.198-44.064-61.233-41.919 61.233-64.824-.057 73.818-105.519-32.178-46.845-134.166.195c-14.64.135-14.103 23.169.117 22.737l56.526.867c23.892.153 57.54 24.981 56.703 63.741.363 45.06-40.221 65.646-59.76 64.548l-147.966.195-24.606-92.187-24.606 91.992h-46.71L77.13 113.565l-22.575 91.659L0 204.888Z" style="fill:#fff" bx:origin="0 0" transform="scale(.36348 .3599)"/>
    <path d="M244.154 23.575c3.926 0 7.33.612 10.214 1.836 2.883 1.223 5.113 2.962 6.688 5.218 1.575 2.255 2.362 4.87 2.362 7.845 0 2.784-.702 5.302-2.108 7.558-1.405 2.256-3.174 4.247-5.307 5.974-2.132 1.728-5.064 3.839-8.796 6.334-2.084 1.344-3.78 2.495-5.089 3.456H264V73.96h-41.437v-3.455c0-2.544.594-4.811 1.781-6.802 1.188-1.991 2.92-3.994 5.198-6.01 2.326-2.015 5.67-4.751 10.032-8.205 3.49-2.736 5.937-4.823 7.342-6.263 1.406-1.44 2.109-2.855 2.109-4.247 0-1.487-.521-2.734-1.563-3.742-1.042-1.008-2.605-1.512-4.689-1.512-2.181 0-3.902.624-5.162 1.871-1.26 1.249-1.89 2.879-1.89 4.895v1.44h-12.94a13.494 13.494 0 0 1-.072-1.584c0-5.183 1.829-9.273 5.488-12.272 3.659-2.999 8.978-4.499 15.957-4.499Z" style="fill:#fff;white-space:pre"/>
</svg>
