<svg viewBox="0 0 641 121" xmlns="http://www.w3.org/2000/svg" xml:space="preserve" style="fill-rule:evenodd;clip-rule:evenodd;stroke-linejoin:round;stroke-miterlimit:2">
    <path d="M67.414 16.952 54.478 40.037l12.936-4.958 12.348 4.728 3.306-3.71V10.882l-15.654 6.07ZM107.6 99.895 84.237 69.404v40.313l-16.823 7.117V47.967l16.823-6.443L107.6 74.919V32.462l15.888-6.128v66.888L107.6 99.895Zm-80.374 0 14.907-6.601-14.907-28.941v35.542Z" style="fill:#1747ce;fill-rule:nonzero"/>
    <path d="m43.114 26.334 7.478 15.189 3.886-1.486 12.936-23.085-15.654-6.09-8.646 15.472Zm36.648 13.473 11.955-13.473 15.883 6.128v42.457L84.237 41.524l-4.475-1.717Z" style="fill:#069330;fill-rule:nonzero"/>
    <path d="m27.226 32.462-15.888-6.128v66.888l15.888 6.673V64.353l23.366 45.364 16.822 7.117V47.967l-16.822-6.444v34.962L27.226 32.462Z" style="fill:#069330;fill-rule:nonzero"/>
    <path d="M50.592 41.523v34.962L27.226 32.462l15.888-6.128 7.478 15.189ZM107.6 99.895 84.237 69.404v16.658l4.773 6.691 18.59 7.142Z" style="fill:#cc130e;fill-rule:nonzero"/>
    <path d="m84.237 41.523-16.823 6.444-16.822-6.444 16.822-6.444 16.823 6.444Zm7.475-15.189 15.888-6.113 15.888 6.113-15.888 6.128-15.888-6.128Zm-80.374 0 15.888-6.113 15.888 6.113-15.888 6.128-15.888-6.128Zm71.73-15.452L67.414 4.834 51.76 10.862l15.654 6.09 15.654-6.07Z" style="fill:#ffc001;fill-rule:nonzero"/>
    <path d="M179.128 93.322h23.28v-51.73h-15.751v29.662h-.136l-10.385-29.662h-23.278v51.73H168.6v-29.86h.141l10.387 29.86Zm87.825 0h23.278v-51.73h-15.74v29.662h-.142l-10.387-29.662h-23.276v51.73h15.749v-29.86h.136l10.382 29.86Zm151.23 0h23.282v-51.73h-15.746v29.662h-.141l-10.385-29.662h-23.279v51.73h15.744v-29.86h.138l10.387 29.86Zm-206.265-51.73h19.418v51.73h-19.418zm96.285 14.052h-12.339V41.592h44.133v14.052h-12.382v37.678h-19.412V55.644Zm37.527-14.066h38.4V55.26h-19.29v5.41h17.761v13.262H364.84v5.804h19.906v13.568H345.73V41.578Zm104.092.014h23.004c19.62 0 25.865 11.105 25.865 26.436 0 15.621-9.636 25.295-24.704 25.295h-24.165V41.592Zm19.007 39.975h1.893c3.122 0 5.215-.957 6.438-3.035 1.29-2.151 1.433-6.068 1.433-11.078 0-5.014-.147-8.923-1.433-11.077-1.223-2.08-3.316-3.038-6.438-3.038h-1.893v28.228Zm60.298-41.332c16.904 0 25.314 11.1 25.314 27.221 0 16.124-8.413 27.228-25.314 27.228-16.905 0-25.316-11.104-25.316-27.228 0-16.121 8.408-27.221 25.316-27.221Zm0 41.339c2.982 0 5.229-1.466 5.229-14.12 0-12.368-2.112-14.115-5.229-14.115-3.12 0-5.228 1.747-5.228 14.115 0 12.655 2.241 14.12 5.228 14.12Z" style="fill:#fff;fill-rule:nonzero"/>
    <path d="M179.128 93.322h23.28v-51.73h-15.751v29.662h-.136l-10.385-29.662h-23.278v51.73H168.6v-29.86h.141l10.387 29.86Zm87.825 0h23.278v-51.73h-15.74v29.662h-.142l-10.387-29.662h-23.276v51.73h15.749v-29.86h.136l10.382 29.86Zm151.23 0h23.282v-51.73h-15.746v29.662h-.141l-10.385-29.662h-23.279v51.73h15.744v-29.86h.138l10.387 29.86Zm-206.265-51.73h19.418v51.73h-19.418zm96.285 14.052h-12.339V41.592h44.133v14.052h-12.382v37.678h-19.412V55.644Zm37.527-14.066h38.4V55.26h-19.29v5.41h17.761v13.262H364.84v5.804h19.906v13.568H345.73V41.578Zm243.439-6.865c-1.034-.09-2.038-.048-3.439.016-8.191.379-11.504 3.869-12.627 7.812h.198c2.04-1.782 4.561-2.614 7.938-2.614 6.497 0 12.431 4.724 12.431 13.587 0 8.48-6.519 15.085-15.269 15.085-11.526 0-16.54-8.803-16.54-18.242 0-7.667 2.72-14.161 7.185-18.35 4.25-3.937 9.73-5.925 16.436-6.079 1.777-.102 2.832 0 3.687.077v8.708Zm-10.914 25.545c2.657 0 4.267-2.713 4.267-6.178-.021-2.925-1.361-6.113-4.922-6.113-2.176 0-3.872 1.379-4.512 3.044-.249.511-.342 1.238-.342 2.472.228 3.305 1.821 6.776 5.443 6.776l.066-.001Zm35.725 7.644v-9.283h-17.258v-7.417l13.856-24.69h13.788v23.603h4.385v8.504h-4.385v9.283H613.98Zm0-17.787v-7.113c0-2.629.157-5.36.291-8.239h-.225c-1.283 2.794-2.399 5.453-3.859 8.339l-3.39 6.89-.036.125 7.219-.002Z" style="fill:#fff;fill-rule:nonzero"/>
</svg>
