<?xml version="1.0" encoding="UTF-8" standalone="no"?>
<!DOCTYPE svg PUBLIC "-//W3C//DTD SVG 1.1//EN" "http://www.w3.org/Graphics/SVG/1.1/DTD/svg11.dtd">
<svg width="100%" height="100%" viewBox="0 0 618 112" version="1.1" xmlns="http://www.w3.org/2000/svg" xmlns:xlink="http://www.w3.org/1999/xlink" xml:space="preserve" xmlns:serif="http://www.serif.com/" style="fill-rule:evenodd;clip-rule:evenodd;stroke-linejoin:round;stroke-miterlimit:2;">
    <g transform="matrix(1,0,0,1,-11,-4)">
        <g transform="matrix(1.08905,0,0,1.08905,11.2932,4)">
            <g>
                <path id="polygon3542" d="M51.491,11.127L39.613,32.324L51.491,27.772L62.829,32.113L65.865,28.707L65.865,5.553L51.491,11.127Z" style="fill:rgb(23,71,206);fill-rule:nonzero;"/>
                <path id="polygon3558" d="M88.391,87.288L66.938,59.29L66.938,96.307L51.491,102.842L51.491,39.606L66.938,33.69L88.391,64.354L88.391,25.369L102.98,19.742L102.98,81.161L88.391,87.288Z" style="fill:rgb(23,71,206);fill-rule:nonzero;"/>
                <path id="polygon3560" d="M14.589,87.288L28.277,81.227L14.589,54.652L14.589,87.288Z" style="fill:rgb(23,71,206);fill-rule:nonzero;"/>
                <path id="polygon3538" d="M29.178,19.742L36.044,33.689L39.613,32.324L51.491,11.127L37.117,5.535L29.178,19.742Z" style="fill:rgb(6,147,48);fill-rule:nonzero;"/>
                <path id="polygon3540" d="M62.829,32.113L73.807,19.742L88.391,25.369L88.391,64.354L66.938,33.69L62.829,32.113Z" style="fill:rgb(6,147,48);fill-rule:nonzero;"/>
                <path id="polygon3552" d="M14.589,25.369L0,19.742L0,81.161L14.589,87.288L14.589,54.652L36.044,96.307L51.491,102.842L51.491,39.606L36.044,33.689L36.044,65.792L14.589,25.369Z" style="fill:rgb(6,147,48);fill-rule:nonzero;"/>
                <path id="polygon3554" d="M36.044,33.689L36.044,65.792L14.589,25.369L29.178,19.742L36.044,33.689Z" style="fill:rgb(204,19,14);fill-rule:nonzero;"/>
                <path id="polygon3556" d="M88.391,87.288L66.938,59.29L66.938,74.586L71.321,80.73L88.391,87.288Z" style="fill:rgb(204,19,14);fill-rule:nonzero;"/>
                <path id="polygon3544" d="M66.938,33.689L51.491,39.606L36.044,33.689L51.491,27.772L66.938,33.689Z" style="fill:rgb(255,192,1);fill-rule:nonzero;"/>
                <path id="polygon3546" d="M73.802,19.742L88.391,14.129L102.98,19.742L88.391,25.369L73.802,19.742Z" style="fill:rgb(255,192,1);fill-rule:nonzero;"/>
                <path id="polygon3548" d="M0,19.742L14.589,14.129L29.178,19.742L14.589,25.369L0,19.742Z" style="fill:rgb(255,192,1);fill-rule:nonzero;"/>
                <path id="polygon3550" d="M65.865,5.553L51.491,0L37.117,5.535L51.491,11.127L65.865,5.553Z" style="fill:rgb(255,192,1);fill-rule:nonzero;"/>
            </g>
            <g>
                <g>
                    <path id="polygon3518" d="M154.07,81.252L175.447,81.252L175.447,33.752L160.984,33.752L160.984,60.989L160.859,60.989L151.323,33.752L129.948,33.752L129.948,81.252L144.403,81.252L144.403,53.834L144.533,53.834L154.07,81.252Z" style="fill:white;fill-rule:nonzero;"/>
                    <path id="polygon3520" d="M234.714,81.252L256.089,81.252L256.089,33.752L241.636,33.752L241.636,60.989L241.505,60.989L231.968,33.752L210.595,33.752L210.595,81.252L225.056,81.252L225.056,53.834L225.181,53.834L234.714,81.252Z" style="fill:white;fill-rule:nonzero;"/>
                    <path id="polygon3522" d="M373.578,81.252L394.957,81.252L394.957,33.752L380.498,33.752L380.498,60.989L380.369,60.989L370.833,33.752L349.457,33.752L349.457,81.252L363.914,81.252L363.914,53.834L364.041,53.834L373.578,81.252Z" style="fill:white;fill-rule:nonzero;"/>
                    <rect id="polygon3524" x="184.179" y="33.752" width="17.83" height="47.5" style="fill:white;fill-rule:nonzero;"/>
                    <path id="polygon3526" d="M272.591,46.655L261.261,46.655L261.261,33.752L301.785,33.752L301.785,46.655L290.416,46.655L290.416,81.252L272.591,81.252L272.591,46.655Z" style="fill:white;fill-rule:nonzero;"/>
                    <path id="polygon3536" d="M307.05,33.739L342.31,33.739L342.31,46.303L324.597,46.303L324.597,51.27L340.906,51.27L340.906,63.448L324.597,63.448L324.597,68.777L342.875,68.777L342.875,81.236L307.05,81.236L307.05,33.739Z" style="fill:white;fill-rule:nonzero;"/>
                    <path id="path3528" d="M402.63,33.752L423.753,33.752C441.769,33.752 447.503,43.949 447.503,58.027C447.503,72.37 438.655,81.253 424.819,81.253L402.63,81.253L402.63,33.752ZM420.083,70.459L421.821,70.459C424.688,70.459 426.61,69.58 427.733,67.672C428.917,65.697 429.049,62.1 429.049,57.5C429.049,52.896 428.914,49.306 427.733,47.328C426.61,45.418 424.688,44.539 421.821,44.539L420.083,44.539L420.083,70.459Z" style="fill:white;fill-rule:nonzero;"/>
                    <path id="path3530" d="M475.451,32.506C490.972,32.506 498.695,42.699 498.695,57.501C498.695,72.307 490.97,82.503 475.451,82.503C459.928,82.503 452.205,72.307 452.205,57.501C452.205,42.699 459.925,32.506 475.451,32.506ZM475.451,70.465C478.189,70.465 480.252,69.119 480.252,57.5C480.252,46.143 478.313,44.539 475.451,44.539C472.586,44.539 470.65,46.143 470.65,57.5C470.65,69.12 472.708,70.465 475.451,70.465Z" style="fill:white;fill-rule:nonzero;"/>
                    <path id="polygon3566" d="M154.07,81.252L175.447,81.252L175.447,33.752L160.984,33.752L160.984,60.989L160.859,60.989L151.323,33.752L129.948,33.752L129.948,81.252L144.403,81.252L144.403,53.834L144.533,53.834L154.07,81.252Z" style="fill:white;fill-rule:nonzero;"/>
                    <path id="polygon3568" d="M234.714,81.252L256.089,81.252L256.089,33.752L241.636,33.752L241.636,60.989L241.505,60.989L231.968,33.752L210.595,33.752L210.595,81.252L225.056,81.252L225.056,53.834L225.181,53.834L234.714,81.252Z" style="fill:white;fill-rule:nonzero;"/>
                    <path id="polygon3570" d="M373.578,81.252L394.957,81.252L394.957,33.752L380.498,33.752L380.498,60.989L380.369,60.989L370.833,33.752L349.457,33.752L349.457,81.252L363.914,81.252L363.914,53.834L364.041,53.834L373.578,81.252Z" style="fill:white;fill-rule:nonzero;"/>
                    <rect id="polygon3572" x="184.179" y="33.752" width="17.83" height="47.5" style="fill:white;fill-rule:nonzero;"/>
                    <path id="polygon3574" d="M272.591,46.655L261.261,46.655L261.261,33.752L301.785,33.752L301.785,46.655L290.416,46.655L290.416,81.252L272.591,81.252L272.591,46.655Z" style="fill:white;fill-rule:nonzero;"/>
                    <path id="polygon3576" d="M307.05,33.739L342.31,33.739L342.31,46.303L324.597,46.303L324.597,51.27L340.906,51.27L340.906,63.448L324.597,63.448L324.597,68.777L342.875,68.777L342.875,81.236L307.05,81.236L307.05,33.739Z" style="fill:white;fill-rule:nonzero;"/>
                </g>
            </g>
            <g>
                <path id="path3532" d="M530.583,27.436C529.634,27.353 528.712,27.392 527.425,27.45C519.904,27.798 516.862,31.003 515.831,34.624L516.013,34.624C517.886,32.987 520.201,32.223 523.302,32.223C529.267,32.223 534.716,36.561 534.716,44.699C534.716,52.486 528.73,58.551 520.696,58.551C510.112,58.551 505.508,50.468 505.508,41.801C505.508,34.76 508.006,28.797 512.106,24.951C516.008,21.336 521.04,19.51 527.198,19.369C528.829,19.275 529.798,19.369 530.583,19.44L530.583,27.436ZM520.562,50.892C523.001,50.892 524.48,48.401 524.48,45.219C524.46,42.533 523.23,39.606 519.96,39.606C517.962,39.606 516.405,40.872 515.817,42.401C515.588,42.87 515.503,43.538 515.503,44.671C515.712,47.706 517.175,50.893 520.501,50.893L520.562,50.892Z" style="fill:white;fill-rule:nonzero;"/>
                <path id="path3534" d="M553.365,57.911L553.365,49.387L537.519,49.387L537.519,42.576L550.242,19.905L562.902,19.905L562.902,41.578L566.929,41.578L566.929,49.387L562.902,49.387L562.902,57.911L553.365,57.911ZM553.365,41.578L553.365,35.047C553.365,32.633 553.51,30.125 553.633,27.482L553.426,27.482C552.248,30.047 551.223,32.489 549.883,35.139L546.77,41.465L546.737,41.58L553.365,41.578Z" style="fill:white;fill-rule:nonzero;"/>
            </g>
        </g>
    </g>
</svg>
