<?xml version="1.0" encoding="UTF-8"?>
<svg width="619px" height="113px" viewBox="0 0 619 113" version="1.1" xmlns="http://www.w3.org/2000/svg" xmlns:xlink="http://www.w3.org/1999/xlink">
    <title>n64</title>
    <g id="Page-1" stroke="none" stroke-width="1" fill="none" fill-rule="evenodd" opacity="0.78">
        <g id="Nintendo-64" transform="translate(-11.000000, -4.000000)" fill-rule="nonzero">
            <g id="n64" transform="translate(11.740044, 4.009784)">
                <path d="M56.076,12.118 L43.14,35.203 L56.076,30.245 L68.424,34.973 L71.73,31.263 L71.73,6.048 L56.076,12.118 Z M96.262,95.061 L72.899,64.57 L72.899,104.883 L56.076,112 L56.076,43.133 L72.899,36.69 L96.262,70.085 L96.262,27.628 L112.15,21.5 L112.15,88.388 L96.262,95.061 Z M15.888,95.061 L30.795,88.46 L15.888,59.519 L15.888,95.061 L15.888,95.061 Z" id="Shape" fill="#1747CE"></path>
                <path d="M31.776,21.5 L39.254,36.689 L43.14,35.203 L56.076,12.118 L40.422,6.028 L31.776,21.5 L31.776,21.5 Z M68.424,34.973 L80.379,21.5 L96.262,27.628 L96.262,70.085 L72.899,36.69 L68.424,34.973 Z" id="Shape" fill="#069330"></path>
                <polygon id="Path" fill="#069330" points="15.888 27.628 0 21.5 0 88.388 15.888 95.061 15.888 59.519 39.254 104.883 56.076 112 56.076 43.133 39.254 36.689 39.254 71.651"></polygon>
                <path d="M39.254,36.689 L39.254,71.651 L15.888,27.628 L31.776,21.5 L39.254,36.689 Z M96.262,95.061 L72.899,64.57 L72.899,81.228 L77.672,87.919 L96.262,95.061 Z" id="Shape" fill="#CC130E"></path>
                <path d="M72.899,36.689 L56.076,43.133 L39.254,36.689 L56.076,30.245 L72.899,36.689 Z M80.374,21.5 L96.262,15.387 L112.15,21.5 L96.262,27.628 L80.374,21.5 Z M0,21.5 L15.888,15.387 L31.776,21.5 L15.888,27.628 L0,21.5 L0,21.5 Z M71.73,6.048 L56.076,0 L40.422,6.028 L56.076,12.118 L71.73,6.048 L71.73,6.048 Z" id="Shape" fill="#FFC001"></path>
                <path d="M167.79,88.488 L191.07,88.488 L191.07,36.758 L175.319,36.758 L175.319,66.42 L175.183,66.42 L164.798,36.758 L141.52,36.758 L141.52,88.488 L157.262,88.488 L157.262,58.628 L157.403,58.628 L167.79,88.488 Z M255.615,88.488 L278.893,88.488 L278.893,36.758 L263.153,36.758 L263.153,66.42 L263.011,66.42 L252.624,36.758 L229.348,36.758 L229.348,88.488 L245.097,88.488 L245.097,58.628 L245.233,58.628 L255.615,88.488 L255.615,88.488 Z M406.845,88.488 L430.127,88.488 L430.127,36.758 L414.381,36.758 L414.381,66.42 L414.24,66.42 L403.855,36.758 L380.576,36.758 L380.576,88.488 L396.32,88.488 L396.32,58.628 L396.458,58.628 L406.845,88.488 Z M200.58,36.758 L219.998,36.758 L219.998,88.488 L200.58,88.488 L200.58,36.758 Z M296.865,50.81 L284.526,50.81 L284.526,36.758 L328.659,36.758 L328.659,50.81 L316.277,50.81 L316.277,88.488 L296.865,88.488 L296.865,50.81 Z M334.392,36.744 L372.792,36.744 L372.792,50.426 L353.502,50.426 L353.502,55.836 L371.263,55.836 L371.263,69.098 L353.502,69.098 L353.502,74.902 L373.408,74.902 L373.408,88.47 L334.392,88.47 L334.392,36.744 L334.392,36.744 Z M438.484,36.758 L461.488,36.758 C481.108,36.758 487.353,47.863 487.353,63.194 C487.353,78.815 477.717,88.489 462.649,88.489 L438.484,88.489 L438.484,36.758 Z M457.491,76.733 L459.384,76.733 C462.506,76.733 464.599,75.776 465.822,73.698 C467.112,71.547 467.255,67.63 467.255,62.62 C467.255,57.606 467.108,53.697 465.822,51.543 C464.599,49.463 462.506,48.505 459.384,48.505 L457.491,48.505 L457.491,76.733 Z M517.789,35.401 C534.693,35.401 543.103,46.501 543.103,62.622 C543.103,78.746 534.69,89.85 517.789,89.85 C500.884,89.85 492.473,78.746 492.473,62.622 C492.473,46.501 500.881,35.401 517.789,35.401 L517.789,35.401 Z M517.789,76.74 C520.771,76.74 523.018,75.274 523.018,62.62 C523.018,50.252 520.906,48.505 517.789,48.505 C514.669,48.505 512.561,50.252 512.561,62.62 C512.561,75.275 514.802,76.74 517.789,76.74 Z" id="Shape" fill="#FFFFFF"></path>
                <path d="M577.831,29.879 C576.797,29.789 575.793,29.831 574.392,29.895 C566.201,30.274 562.888,33.764 561.765,37.707 L561.963,37.707 C564.003,35.925 566.524,35.093 569.901,35.093 C576.398,35.093 582.332,39.817 582.332,48.68 C582.332,57.16 575.813,63.765 567.063,63.765 C555.537,63.765 550.523,54.962 550.523,45.523 C550.523,37.856 553.243,31.362 557.708,27.173 C561.958,23.236 567.438,21.248 574.144,21.094 C575.921,20.992 576.976,21.094 577.831,21.171 L577.831,29.879 L577.831,29.879 Z M566.917,55.424 C569.574,55.424 571.184,52.711 571.184,49.246 C571.163,46.321 569.823,43.133 566.262,43.133 C564.086,43.133 562.39,44.512 561.75,46.177 C561.501,46.688 561.408,47.415 561.408,48.649 C561.636,51.954 563.229,55.425 566.851,55.425 L566.917,55.424 L566.917,55.424 Z M602.642,63.068 L602.642,53.785 L585.384,53.785 L585.384,46.368 L599.24,21.678 L613.028,21.678 L613.028,45.281 L617.413,45.281 L617.413,53.785 L613.028,53.785 L613.028,63.068 L602.642,63.068 L602.642,63.068 Z M602.642,45.281 L602.642,38.168 C602.642,35.539 602.799,32.808 602.933,29.929 L602.708,29.929 C601.425,32.723 600.309,35.382 598.849,38.268 L595.459,45.158 L595.423,45.283 L602.642,45.281 L602.642,45.281 Z" id="Shape" fill="#FFFFFF"></path>
            </g>
        </g>
    </g>
</svg>