<svg viewBox="0 0 3840 972.9" xmlns="http://www.w3.org/2000/svg">
    <path class="st1" d="M.5-.4v491.1H171V142.4h280.4v348.3h170.5V146.6c0-81.2-65.8-147-147-147H.5Zm699.2 0v122.2h484.8v52H846.7c-81.2 0-147 65.8-147 147v22.9c0 81.2 65.8 147 147 147h508.2v-344c0-81.2-65.8-147-147-147H699.7Zm170.4 368.9V296h314.3v72.6H870.1ZM1449.9-.4v491.1h170.5V142.4h193.3v348.3h170.5V142.4h193.3v348.3H2348V146.6c0-81.2-65.8-147-147-147h-751.1Zm983.5 147v197c0 81.2 65.8 147 147 147h467.1V347.9h-443.6V142.4h443.6V-.4h-467.1c-81.3 0-147 65.8-147 147Zm699.7 0v197c0 81.2 65.8 147 147 147h412.5c81.2 0 147-65.8 147-147v-197c0-81.2-65.8-147-147-147h-412.4c-81.4 0-147.1 65.8-147.1 147Zm170.4 221.9V121.8h365.6v246.7h-365.6ZM323 871.3c0-29.1-17.4-47.8-59.1-47.8H90.5c-65.2 0-90-29.6-90-73v-11.3c0-43.5 24.8-73 90-73h247.7V691H90.5c-40.9 0-58.7 20.4-58.7 47.8V751c0 29.6 17.8 47.8 58.7 47.8h173.4c65.2 0 90 29.6 90 72.6v28.3c0 43-24.8 72.6-90 72.6H10.1v-24.9h253.7c41.3 0 59.1-19.1 59.1-47.8v-28.3Zm314.6 100.8V841.7L439.4 666.2h40.4l173.4 153 173.4-153h40L668.9 841.7v130.4h-31.3Zm626.1-100.8c0-29.1-17.4-47.8-59.1-47.8h-173.4c-65.2 0-90-29.6-90-73v-11.3c0-43.5 24.8-73 90-73H1279V691h-247.7c-40.9 0-58.7 20.4-58.7 47.8V751c0 29.6 17.8 47.8 58.7 47.8h173.4c65.2 0 90 29.6 90 72.6v28.3c0 43-24.8 72.6-90 72.6H950.8v-24.9h253.7c41.3 0 59.1-19.1 59.1-47.8l.1-28.3Zm287.2 100.8V690.9h-165.2v-24.8h355.5v24.8h-159.5V972h-30.8Zm300.6 0V666.2h298.9V691h-267.7v106.9h255.5v24.8h-255.5v124.8h267.7v24.8l-298.9-.2Zm833.5 0V715.2L2505.6 972h-25.7l-179.4-256.3V972h-29.1V666.2h29.6l192.9 275.9 192.9-275.9h27.4v305.9H2685Zm434.1 0v-98.2c0-43.9 25.2-73.9 91.3-73.9h120.8c40 0 57.4-19.1 57.4-45.2v-19.1c0-25.6-17.4-44.8-57.4-44.8h-196.4v-24.8h196.4c63.5 0 88.7 30 88.7 69.5v18.8c0 40.4-25.2 70.4-88.7 70.4h-120.8c-42.6 0-60 19.1-60 49.1v73.5h269.4v24.8l-300.7-.1Zm419.6 0v-98.2c0-43.9 25.2-73.9 91.3-73.9h120.8c40 0 57.4-19.1 57.4-45.2v-19.1c0-25.6-17.4-44.8-57.4-44.8h-196.4v-24.8h196.4c63.5 0 88.7 30 88.7 69.5v18.8c0 40.4-25.2 70.4-88.7 70.4H3630c-42.6 0-60 19.1-60 49.1v73.5h269.4v24.8l-300.7-.1Z" style="fill:#fff"/>
</svg>
