<svg viewBox="0 0 3839 491.2" xmlns="http://www.w3.org/2000/svg">
    <path class="st1" d="M0 .1v491h170.4V142.8h280.4v348.3h170.4V147c0-81.1-65.8-147-147-147H0v.1Zm699.2 0v122.2h484.7v52H846.2c-81.1 0-147 65.8-147 147v22.9c0 81.1 65.8 147 147 147h508.1V147c0-81.1-65.8-147-147-147H699.2v.1Zm170.5 368.8v-72.6H1184v72.6H869.7ZM1449.5.1v491h170.4V142.8h193.3v348.3h170.4V142.8H2177v348.3h170.4V147c0-81.1-65.8-147-147-147h-751v.1ZM2432.8 147v197c0 81.1 65.8 147 147 147H3047V348.3h-443.6V142.8H3047V.1h-467.1c-81.2 0-147.1 65.8-147.1 146.9Zm699.8 0v197c0 81.1 65.8 147 147 147H3692c81.1 0 147-65.8 147-147V147c0-81.1-65.8-147-147-147h-412.3c-81.2.1-147.1 65.9-147.1 147ZM3303 368.9V122.3h365.6V369H3303v-.1Z" style="fill:#fff"/>
</svg>
