<?xml version="1.0" encoding="UTF-8"?>
<svg width="514px" height="113px" viewBox="0 0 514 113" version="1.1" xmlns="http://www.w3.org/2000/svg" xmlns:xlink="http://www.w3.org/1999/xlink">
    <title>naomi</title>
    <defs>
        <polygon id="path-1" points="0 0 512.919 0 512.919 112 0 112"></polygon>
    </defs>
    <g id="Page-1" stroke="none" stroke-width="1" fill="none" fill-rule="evenodd" opacity="0.78">
        <g id="Sega-Naomi" transform="translate(-63.000000, -4.000000)">
            <g id="naomi" transform="translate(63.509641, 4.140772)">
                <mask id="mask-2" fill="white">
                    <use xlink:href="#path-1"></use>
                </mask>
                <g id="Path"></g>
                <g id="Group" mask="url(#mask-2)">
                    <path d="M95.282,104.756 L95.282,2.507 L78.287,2.507 L78.567,68.259 L1.63202785e-14,3.343 L0.277,105.872 L15.045,105.872 L15.045,39.563 L95.282,104.756 Z M106.15,106.426 L119.244,84.137 L107.263,84.137 L107.263,68.539 L127.045,68.539 L162.985,3.343 L220.38,106.426 L200.041,106.426 L188.34,84.137 L137.356,84.137 L125.098,106.426 L106.15,106.426 L106.15,106.426 Z M144.32,68.259 L181.096,68.259 L162.708,34.546 L144.32,68.259 L144.32,68.259 Z M365.816,106.426 L349.101,106.426 L349.101,3.62 L405.936,69.65 L463.328,2.23 L463.328,106.426 L445.493,106.426 L445.219,50.428 L405.656,98.072 L365.816,50.704 L365.816,106.426 Z M495.647,106.426 L495.924,1.113 L512.919,1.113 L512.642,106.426 L495.647,106.426 L495.647,106.426 Z" id="Shape" fill="#FFFFFF"></path>
                    <path d="M219.823,56.001 C219.823,25.075 244.898,0 275.828,0 C306.75,0 331.826,25.075 331.826,56.001 C331.826,86.924 306.75,112 275.828,112 C244.898,112 219.823,86.924 219.823,56.001 L219.823,56.001 Z M275.828,95.285 C297.559,95.285 315.105,77.73 315.105,56.001 C315.105,34.549 297.556,16.995 275.828,16.995 C254.372,16.995 236.818,34.549 236.818,56.001 C236.818,77.73 254.369,95.285 275.828,95.285 Z" id="Shape" fill="#FE2906"></path>
                </g>
            </g>
        </g>
    </g>
</svg>