<?xml version="1.0" encoding="UTF-8" standalone="no"?>
<!DOCTYPE svg PUBLIC "-//W3C//DTD SVG 1.1//EN" "http://www.w3.org/Graphics/SVG/1.1/DTD/svg11.dtd">
<svg width="100%" height="100%" viewBox="0 0 514 112" version="1.1" xmlns="http://www.w3.org/2000/svg" xmlns:xlink="http://www.w3.org/1999/xlink" xml:space="preserve" xmlns:serif="http://www.serif.com/" style="fill-rule:evenodd;clip-rule:evenodd;stroke-linejoin:round;stroke-miterlimit:2;">
    <g transform="matrix(1,0,0,1,-63,-4)">
        <g transform="matrix(0.134979,0,0,0.134979,63.5406,4)">
            <g transform="matrix(1.73788,0,0,1.73788,-162.918,-1747.5)">
                <path d="M499.933,1452.11L499.933,1016.22L427.483,1016.22L428.677,1296.52L93.745,1019.79L94.926,1456.87L157.881,1456.87L157.881,1174.19L499.933,1452.11ZM546.261,1459.23L602.082,1364.21L551.007,1364.21L551.007,1297.72L635.337,1297.72L788.549,1019.79L1033.22,1459.23L946.52,1459.23L896.639,1364.21L679.291,1364.21L627.036,1459.23L546.261,1459.23ZM708.979,1296.52L865.758,1296.52L787.368,1152.81L708.979,1296.52ZM1653.22,1459.23L1581.96,1459.23L1581.96,1020.97L1824.25,1302.45L2068.91,1015.04L2068.91,1459.23L1992.88,1459.23L1991.72,1220.51L1823.06,1423.61L1653.22,1221.69L1653.22,1459.23ZM2206.69,1459.23L2207.87,1010.28L2280.32,1010.28L2279.14,1459.23L2206.69,1459.23Z" style="fill:white;"/>
            </g>
            <g transform="matrix(1.73788,0,0,1.73788,-162.918,-1747.5)">
                <path d="M1030.85,1244.27C1030.85,1112.43 1137.75,1005.53 1269.6,1005.53C1401.42,1005.53 1508.32,1112.43 1508.32,1244.27C1508.32,1376.09 1401.42,1482.99 1269.6,1482.99C1137.75,1482.99 1030.85,1376.09 1030.85,1244.27ZM1269.6,1411.73C1362.24,1411.73 1437.04,1336.9 1437.04,1244.27C1437.04,1152.82 1362.23,1077.98 1269.6,1077.98C1178.13,1077.98 1103.3,1152.82 1103.3,1244.27C1103.3,1336.9 1178.12,1411.73 1269.6,1411.73Z" style="fill:rgb(254,41,6);"/>
            </g>
        </g>
    </g>
</svg>
