<svg viewBox="0 0 514 113" xmlns="http://www.w3.org/2000/svg" xml:space="preserve" style="fill-rule:evenodd;clip-rule:evenodd;stroke-linejoin:round;stroke-miterlimit:2">
    <clipPath id="a">
        <path d="M.818.514h512.919v112H.818z"/>
    </clipPath>
    <g clip-path="url(#a)">
        <path d="M96.1 105.27V3.021H79.105l.28 65.752L.818 3.857l.277 102.529h14.768V40.077L96.1 105.27Zm10.868 1.67 13.094-22.289h-11.981V69.053h19.782l35.94-65.196 57.395 103.083h-20.339l-11.701-22.289h-50.984l-12.258 22.289h-18.948Zm38.17-38.167h36.776L163.526 35.06l-18.388 33.713Zm221.496 38.167h-16.715V4.134l56.835 66.03 57.392-67.42V106.94h-17.835l-.274-55.998-39.563 47.644-39.84-47.368v55.722Zm129.831 0 .277-105.313h16.995l-.277 105.313h-16.995Z" style="fill:#fff"/>
        <path d="M220.641 56.515c0-30.926 25.075-56.001 56.005-56.001 30.922 0 55.998 25.075 55.998 56.001 0 30.923-25.076 55.999-55.998 55.999-30.93 0-56.005-25.076-56.005-55.999Zm56.005 39.284c21.731 0 39.277-17.555 39.277-39.284 0-21.452-17.549-39.006-39.277-39.006-21.456 0-39.01 17.554-39.01 39.006 0 21.729 17.551 39.284 39.01 39.284Z" style="fill:#fe2906"/>
    </g>
</svg>
