<?xml version="1.0" encoding="UTF-8"?>
<svg width="632px" height="90px" viewBox="0 0 632 90" version="1.1" xmlns="http://www.w3.org/2000/svg" xmlns:xlink="http://www.w3.org/1999/xlink">
    <title>nds</title>
    <g id="Page-1" stroke="none" stroke-width="1" fill="none" fill-rule="evenodd" opacity="0.78">
        <g id="Nintendo-DS" transform="translate(-4.000000, -15.000000)" fill="#FFFFFF" fill-rule="nonzero">
            <g id="nds" transform="translate(4.000000, 15.000000)">
                <path d="M401.471173,80.8747892 C401.471173,81.8360034 400.685144,82.699199 399.716025,82.699199 L366.134613,82.699199 C365.156023,82.699199 364.369995,81.8360034 364.369995,80.8747892 L364.369995,56.5725126 C364.369995,55.6144604 365.156023,54.8461214 366.134613,54.8461214 L399.716025,54.8461214 C400.685144,54.8461214 401.471173,55.6144604 401.471173,56.5725126 L401.471173,80.8747892 Z M400.012758,47.5453204 L365.828409,47.5453204 C360.878639,47.5453204 356.841167,51.5798904 356.841167,56.5725126 L356.841167,80.9696459 C356.841167,85.8705734 360.878639,90 365.828409,90 L400.012758,90 C404.971998,90 409,85.8705734 409,80.9696459 L409,56.5725126 C409,51.5798904 404.971998,47.5453204 400.012758,47.5453204 M7.84450156,11.0444772 L7.84450156,42.4546796 L0,42.4546796 L0,0 L6.70176129,0 L38.4743602,30.9295953 L38.4743602,0 L46.2115325,0 L46.2115325,42.4546796 L40.0842981,42.4546796 L7.84450156,11.0444772" id="Shape"></path>
                <path d="M87.0011242,11.4638664 L87.0011242,42.7072267 L79.1546206,42.7072267 L79.1546206,0.478054235 L85.8486196,0.478054235 L117.62617,31.2433604 L117.62617,0.478054235 L125.377947,0.478054235 L125.377947,42.7072267 L119.249149,42.7072267 L87.0011242,11.4638664 M250.031575,11.4638664 L250.031575,42.7072267 L242.188229,42.7072267 L242.188229,0.478054235 L248.882228,0.478054235 L280.659778,31.2433604 L280.659778,0.478054235 L288.411556,0.478054235 L288.411556,42.7072267 L282.289073,42.7072267 L250.031575,11.4638664 M65.4003472,0.478054235 L66.8465036,0.478054235 L66.8465036,42.7072267 L59,42.7072267 L59,0.478054235 L65.4003472,0.478054235 M178.81311,0.478054235 L180.252951,0.478054235 L180.252951,7.74007548 L161.336089,7.74007548 L161.336089,42.7072267 L153.183303,42.7072267 L153.183303,7.74007548 L134.269598,7.74007548 L134.269598,0.478054235 L178.81311,0.478054235 M229.074938,0.478054235 L230.543197,0.478054235 L230.543197,7.74007548 L196.912167,7.74007548 L196.912167,17.1973721 L222.927195,17.1973721 L222.927195,24.4593933 L196.912167,24.4593933 L196.912167,35.4452055 L230.543197,35.4452055 L230.543197,42.7072267 L189.144602,42.7072267 L189.144602,0.478054235 L229.074938,0.478054235 M332.033063,35.4452055 L307.937824,35.4452055 L307.937824,7.74007548 L332.033063,7.74007548 C339.573285,7.74007548 342.250884,15.1908023 342.250884,21.5910679 C342.250884,27.8969807 339.573285,35.4452055 332.033063,35.4452055 Z M344.906381,6.6896142 C341.837246,2.5789768 337.299851,0.478054235 331.812035,0.478054235 L300.372343,0.478054235 L300.372343,42.7072267 L331.812035,42.7072267 C337.299851,42.7072267 341.837246,40.5088063 344.906381,36.4956668 C347.782906,32.7718759 349.308001,27.6107772 349.308001,21.5910679 C349.308001,15.5745038 347.782906,10.4134051 344.906381,6.6896142 M402.064292,33.7248393 C402.064292,34.5865949 401.278062,35.4452055 400.308696,35.4452055 L366.718714,35.4452055 C365.739874,35.4452055 364.953645,34.5865949 364.953645,33.7248393 L364.953645,9.45729662 C364.953645,8.50433324 365.739874,7.74007548 366.718714,7.74007548 L400.308696,7.74007548 C401.278062,7.74007548 402.064292,8.50433324 402.064292,9.45729662 L402.064292,33.7248393 L402.064292,33.7248393 Z M400.605505,0.478054235 L366.412432,0.478054235 C361.461399,0.478054235 357.422896,4.49119374 357.422896,9.45729662 L357.422896,33.7248393 C357.422896,38.6940872 361.461399,42.7072267 366.412432,42.7072267 L400.605505,42.7072267 C405.566011,42.7072267 409.595041,38.6940872 409.595041,33.7248393 L409.595041,9.45729662 C409.595041,4.49119374 405.566011,0.478054235 400.605505,0.478054235 M543.045594,72.132723 C551.179435,75.3816047 568.359646,77.9605815 581.769747,77.9605815 C596.442867,77.9605815 602.514829,72.9944786 602.514829,66.6885658 C602.514829,60.9550601 596.87545,57.7061784 580.674078,51.783967 C559.006993,43.8520408 543.111903,37.5492731 543.111903,23.3114342 C543.111903,8.69303886 562.240321,0 591.387634,0 C607.042751,0 612.413738,0.956108471 622.350537,2.77082751 L622.429476,16.7193179 C612.663184,14.9045988 604.011506,11.753215 590.572987,11.753215 C576.168259,11.753215 570.026831,16.3387615 570.026831,21.0186609 C570.026831,27.8026279 579.486841,31.0515096 596.070276,36.973721 C619.158258,45.1918507 632,51.4977635 632,65.3487559 C632,79.6809477 615.915457,90 579.638403,90 C564.744255,90 554.469598,89.0438915 543.045594,87.1348197 L543.045594,72.132723 M465.830947,12.325622 L448.565482,12.325622 L448.565482,77.4825273 L465.830947,77.4825273 C492.332237,77.4825273 509.051447,66.1130137 509.051447,45 C509.051447,23.8869863 492.332237,12.325622 465.830947,12.325622 Z M512.171103,83.5022365 C503.633096,87.3235253 487.479087,89.8081493 473.361696,89.8081493 L419.396065,89.8081493 L419.396065,0.191850713 L473.361696,0.191850713 C487.479087,0.191850713 503.633096,2.6764747 512.190048,6.49776349 C532.97302,15.8607073 539.745958,30.8596589 539.745958,45 C539.745958,59.1403411 533.033014,74.1392927 512.171103,83.5022365" id="Shape"></path>
            </g>
        </g>
    </g>
</svg>