<?xml version="1.0" encoding="UTF-8"?>
<svg width="633px" height="108px" viewBox="0 0 633 108" version="1.1" xmlns="http://www.w3.org/2000/svg" xmlns:xlink="http://www.w3.org/1999/xlink">
    <title>neogeo</title>
    <g id="Page-1" stroke="none" stroke-width="1" fill="none" fill-rule="evenodd" opacity="0.78">
        <g id="SNK-NeoGeo" transform="translate(-4.000000, -6.000000)" fill="#FFFFFF" fill-rule="nonzero">
            <g id="neogeo" transform="translate(4.220141, 6.009360)">
                <path d="M394.422,64.894 L396.924,64.894 C399.261,64.894 403.256,65.375 404.902,66.339 C406.549,67.297 407.635,68.373 408.157,69.562 C408.682,70.751 408.948,73.374 408.948,77.424 L408.948,93.327 C408.948,98.126 403.877,100.571 401.434,101.102 C398.98,101.631 396.596,101.897 394.275,101.897 C387.58,101.897 381.799,100.155 376.926,96.667 C372.06,93.179 368.533,87.727 366.344,80.292 C364.161,72.866 363.072,64.234 363.072,54.373 C363.072,46.24 364.069,38.307 366.065,30.579 C368.066,22.849 371.467,16.826 376.27,12.503 C381.074,8.184 387.094,6.024 394.322,6.024 C401.888,6.024 406.315,7.938 411.883,13.727 C417.578,19.642 423.042,26.364 426.231,36.232 L430.888,36.232 L430.888,0.002 L428.239,0.002 C427.283,2.904 426.239,4.875 425.099,5.915 C423.954,6.96 422.715,7.479 421.389,7.479 C420.529,7.479 417.755,6.536 413.07,4.649 C408.386,2.76 404.994,1.614 402.904,1.21 C399.053,0.406 396.059,0 391.258,0 C375.747,0 362.875,5.33 352.644,15.988 C342.412,26.656 337.299,39.713 337.299,55.17 C337.299,63.807 338.959,71.613 342.293,78.584 C344.907,83.99 348.537,88.848 353.175,93.172 C357.814,97.49 363.171,100.976 369.233,103.634 C375.301,106.282 382.926,107.61 392.108,107.61 C399.295,107.61 406.223,106.867 412.912,105.383 C419.575017,103.900668 426.052743,101.682733 432.226,98.77 L432.226,77.398 C432.226,73.653 432.438,71.299 432.865,70.341 C433.625,68.517 434.705,67.213 436.107,66.425 C437.507,65.637 441.33,65.126 444.893,64.869 L444.893,61.371 L394.408,61.371 L394.408,64.869 L394.422,64.894 L394.422,64.894 Z" id="Path"></path>
                <path d="M510.468,92.574 C504.715,96.979 497.058,99.18 487.509,99.18 L482.065,99.18 C479.148,99.18 477.04,98.783 475.729,97.98 C474.43,97.179 473.53,96.151 473.055,94.899 C472.579,93.648 472.339,90.216 472.339,84.612 L472.339,55.908 C477.244,55.908 482.988,56.547 485.566,57.828 C488.142,59.104 490.404,61.602 492.347,65.316 C494.298,69.027 495.573,73.128 496.18,78.948 L500.319,78.948 L500.319,26.125 L496.18,26.125 C495.368,34.061 493.5,39.389 490.567,43.455 C487.636,47.521 482.908,49.555 476.391,49.555 L472.334,49.555 L472.334,14.122 C472.302,7.963 477.79,8.677 477.79,8.677 L484.204,8.677 C491.959,8.677 497.241,9.131 500.061,10.035 C504.894,11.538 508.636,13.894 511.278,17.102 C513.924,20.314 515.972,25.6 517.433,32.972 L520.906,32.972 L520.906,2.799 L434.599,2.799 L434.599,6.932 L437.321,6.932 C440.638,6.932 443.252,7.632 445.16,9.034 C446.519,9.986 447.45,11.343 447.949,13.095 C448.204,14.142 448.33,16.974 448.33,21.584 L448.33,85.42 C448.33,90.528 448.053,93.685 447.498,94.891 C446.795,96.591 445.787,97.794 444.483,98.497 C442.671,99.551 440.286,100.075 437.324,100.075 L434.601,100.075 L434.601,104.877 L522.367,104.877 L527.641,72.417 L522.828,72.417 C520.313,81.453 516.178,88.174 510.421,92.576" id="Path"></path>
                <path d="M578.378,1.197 C563.67,0.59 551.274,5.383 541.209,15.586 C531.123,25.781 526.096,38.53 526.096,53.813 C526.096,67.431 529.967,79.197 537.716,89.119 C547.519,101.669 561.392,107.952 579.34,107.952 C597.228,107.952 611.087,101.373 620.894,88.206 C628.297,78.298 632,66.802 632,53.737 C632,38.453 627.034,25.722 617.114,15.545 C607.184,5.367 594.283,0.586 578.395,1.199 M601.856,82.894 C599.451,90.003 596.096,95.179 591.782,98.409 C588.398,100.944 584.181,102.207 579.127,102.207 C571.624,102.207 565.795,99.27 561.62,93.404 C555.639,85.008 552.646,72.034 552.646,54.472 C552.646,39.695 554.581,28.365 558.457,20.475 C563.212,10.865 570.147,6.06 579.263,6.06 C584.216,6.06 588.592,7.453 592.392,10.236 C596.191,13.018 599.318,17.789 601.767,24.54 C604.221,31.299 605.447,41.474 605.447,55.091 C605.447,66.524 604.247,75.797 601.841,82.908 M252.501,107.359 C270.389,107.359 284.246,100.776 294.054,87.612 C301.455,77.692 305.16,66.209 305.16,53.143 C305.16,37.858 300.193,25.128 290.271,14.95 C280.343,4.773 267.441,-0.006 251.555,0.604 C236.848,-0.002 224.452,4.791 214.386,14.994 C204.303,25.188 199.274,37.938 199.274,53.221 C199.274,66.837 203.144,78.604 210.896,88.525 C220.695,101.075 234.569,107.359 252.518,107.359 M231.457,19.937 C236.211,10.327 243.147,5.522 252.268,5.522 C257.22,5.522 261.595,6.912 265.394,9.696 C269.194,12.479 272.319,17.248 274.773,24 C277.224,30.757 278.45,40.932 278.45,54.541 C278.45,65.974 277.251,75.249 274.845,82.358 C272.445,89.466 269.086,94.642 264.772,97.882 C261.39,100.412 257.172,101.677 252.117,101.677 C244.614,101.677 238.784,98.742 234.607,92.874 C228.627,84.477 225.633,71.504 225.633,53.942 C225.633,39.165 227.568,27.835 231.443,19.945" id="Shape"></path>
                <path d="M200.666,71.6 L195.848,71.6 C193.334,80.633 189.197,87.357 183.444,91.757 C177.69,96.161 170.033,98.363 160.493,98.363 L155.048,98.363 C152.131,98.363 150.026,97.961 148.715,97.165 C147.411,96.36 146.516,95.333 146.039,94.082 C145.563,92.828 145.323,89.398 145.323,83.793 L145.323,55.089 C150.227,55.089 155.973,55.729 158.552,57.01 C161.128,58.284 163.39,60.785 165.333,64.497 C167.283,68.21 168.559,72.31 169.166,78.13 L173.306,78.13 L173.306,25.306 L169.166,25.306 C168.355,33.239 166.485,38.571 163.552,42.637 C160.625,46.704 155.895,48.735 149.377,48.735 L145.32,48.735 L145.32,13.303 C145.286,7.143 150.78,7.857 150.78,7.857 L157.189,7.857 C164.949,7.857 170.238,8.31 173.057,9.213 C177.894,10.715 181.632,13.075 184.276,16.282 C186.921,19.491 188.972,24.783 190.433,32.149 L193.903,32.149 L193.903,1.952 L107.598,1.952 L107.598,6.111 L110.317,6.111 C113.634,6.111 116.248,6.813 118.157,8.211 C119.514,9.163 120.443,10.521 120.943,12.273 C121.197,13.322 121.324,16.152 121.324,20.76 L121.324,84.597 C121.324,89.706 121.048,92.863 120.495,94.06 C119.793,95.761 118.783,96.969 117.482,97.668 C115.67,98.722 113.284,99.247 110.316,99.247 L107.597,99.247 L107.597,104.048 L195.363,104.048 L200.639,71.588 L200.666,71.6 Z M35.019,99.192 L32.69,99.192 C29.348,99.192 26.379,98.167 23.783,96.114 C21.193,94.059 19.895,90.111 19.895,84.252 L19.895,22.598 L86.678,105.852 L91.009,105.859 L91.009,20.946 C91.009,16.117 91.41,14.716 92.206,12.729 C93.003,10.742 94.117,9.309 95.539,8.428 C96.964,7.549 99.756,6.833 103.911,6.279 L103.911,1.959 L70.781,1.959 L70.781,6.279 C76.242,6.179 80.142,7.585 82.454,10.503 C84.147,12.666 84.994,14.809 84.994,20.948 L84.994,65.416 L33.003,1.959 L1.37,1.959 L1.37,5.385 C4.377,5.485 4.484,6.492 6.085,7.343 L14.559,15.872 L14.548,84.243 C14.548,89.651 13.479,93.476 11.347,95.727 C9.212,97.98 5.428,99.13 -2.84217094e-14,99.18 L-2.84217094e-14,103.313 L35.004,103.313 L35.004,99.18 L35.019,99.192 Z M333.658,53.977 C333.658,60.761 328.158,66.259 321.377,66.259 C314.592,66.259 309.094,60.757 309.094,53.977 C309.094,47.191 314.596,41.694 321.377,41.694 C328.163,41.694 333.658,47.195 333.658,53.977 Z" id="Shape"></path>
            </g>
        </g>
    </g>
</svg>