<?xml version="1.0" encoding="UTF-8" standalone="no"?>
<!DOCTYPE svg PUBLIC "-//W3C//DTD SVG 1.1//EN" "http://www.w3.org/Graphics/SVG/1.1/DTD/svg11.dtd">
<svg width="100%" height="100%" viewBox="0 0 632 109" version="1.1" xmlns="http://www.w3.org/2000/svg" xmlns:xlink="http://www.w3.org/1999/xlink" xml:space="preserve" xmlns:serif="http://www.serif.com/" style="fill-rule:evenodd;clip-rule:evenodd;stroke-linejoin:round;stroke-miterlimit:2;">
    <g transform="matrix(1,0,0,1,-2384,-1352)">
        <g id="neogeo.afdesign" transform="matrix(1,0,0,1,2700,1406.67)">
            <g transform="matrix(1,0,0,1,-320,-59.9969)">
                <g transform="matrix(1.04124,0,0,1.04124,-680.319,-360.219)">
                    <g transform="matrix(1,0,0,1,1.56055e-05,0)">
                        <path d="M1036.02,414.062L1038.42,414.062C1040.66,414.062 1044.5,414.524 1046.08,415.45C1047.66,416.37 1048.71,417.403 1049.21,418.545C1049.71,419.687 1049.97,422.206 1049.97,426.096L1049.97,441.369C1049.97,445.978 1045.1,448.326 1042.75,448.836C1040.39,449.344 1038.11,449.599 1035.88,449.599C1029.45,449.599 1023.89,447.926 1019.22,444.577C1014.54,441.227 1011.15,435.991 1009.05,428.85C1006.96,421.718 1005.91,413.428 1005.91,403.958C1005.91,396.147 1006.87,388.528 1008.78,381.106C1010.71,373.682 1013.97,367.898 1018.59,363.746C1023.2,359.598 1028.98,357.523 1035.92,357.523C1043.19,357.523 1047.44,359.362 1052.79,364.921C1058.26,370.602 1063.5,377.058 1066.57,386.535L1071.04,386.535L1071.04,351.74L1068.5,351.74C1067.58,354.527 1066.58,356.42 1065.48,357.419C1064.38,358.422 1063.19,358.921 1061.92,358.921C1061.09,358.921 1058.43,358.015 1053.93,356.203C1049.43,354.389 1046.17,353.288 1044.16,352.9C1040.46,352.128 1037.59,351.738 1032.98,351.738C1018.08,351.738 1005.72,356.857 995.894,367.093C986.068,377.338 981.157,389.878 981.157,404.723C981.157,413.018 982.751,420.515 985.953,427.21C988.464,432.402 991.95,437.067 996.404,441.22C1000.86,445.367 1006,448.715 1011.83,451.268C1017.65,453.811 1024.98,455.086 1033.8,455.086C1040.7,455.086 1047.35,454.373 1053.78,452.947C1060.2,451.517 1066.37,449.401 1072.33,446.596L1072.33,426.071C1072.33,422.474 1072.53,420.213 1072.94,419.293C1073.67,417.541 1074.7,416.289 1076.05,415.532C1077.4,414.775 1081.07,414.285 1084.49,414.038L1084.49,410.678L1036,410.678L1036,414.038L1036.02,414.062Z" style="fill:white;fill-rule:nonzero;"/>
                        <path d="M1147.47,440.646C1141.94,444.876 1134.59,446.99 1125.42,446.99L1120.19,446.99C1117.39,446.99 1115.36,446.609 1114.11,445.838C1112.86,445.068 1111.99,444.081 1111.54,442.879C1111.08,441.677 1110.85,438.381 1110.85,432.999L1110.85,405.432C1115.56,405.432 1121.08,406.045 1123.55,407.276C1126.03,408.501 1128.2,410.9 1130.06,414.467C1131.94,418.031 1133.16,421.97 1133.75,427.559L1137.72,427.559L1137.72,376.828L1133.75,376.828C1132.97,384.45 1131.17,389.567 1128.36,393.472C1125.54,397.377 1121,399.33 1114.74,399.33L1110.84,399.33L1110.84,365.301C1110.81,359.386 1116.08,360.071 1116.08,360.071L1122.24,360.071C1129.69,360.071 1134.77,360.507 1137.47,361.376C1142.12,362.819 1145.71,365.082 1148.25,368.163C1150.79,371.247 1152.75,376.324 1154.16,383.404L1157.49,383.404L1157.49,354.426L1074.6,354.426L1074.6,358.395L1077.22,358.395C1080.4,358.395 1082.91,359.068 1084.75,360.414C1086.05,361.328 1086.95,362.632 1087.42,364.314C1087.67,365.32 1087.79,368.04 1087.79,372.467L1087.79,433.775C1087.79,438.681 1087.53,441.713 1086.99,442.871C1086.32,444.504 1085.35,445.659 1084.1,446.334C1082.36,447.346 1080.07,447.85 1077.22,447.85L1074.61,447.85L1074.61,452.461L1158.9,452.461L1163.96,421.287L1159.34,421.287C1156.92,429.965 1152.95,436.42 1147.42,440.648" style="fill:white;fill-rule:nonzero;"/>
                        <path d="M1212.69,352.888C1198.56,352.305 1186.66,356.908 1176.99,366.707C1167.31,376.498 1162.48,388.742 1162.48,403.42C1162.48,416.498 1166.19,427.798 1173.64,437.327C1183.05,449.38 1196.38,455.415 1213.61,455.415C1230.79,455.415 1244.1,449.096 1253.52,436.451C1260.63,426.935 1264.19,415.894 1264.19,403.347C1264.19,388.668 1259.42,376.441 1249.89,366.667C1240.35,356.892 1227.96,352.301 1212.7,352.889M1235.24,431.349C1232.93,438.176 1229.7,443.147 1225.56,446.25C1222.31,448.684 1218.26,449.897 1213.41,449.897C1206.2,449.897 1200.6,447.076 1196.59,441.443C1190.85,433.379 1187.98,420.919 1187.98,404.053C1187.98,389.861 1189.83,378.98 1193.56,371.402C1198.12,362.173 1204.78,357.558 1213.54,357.558C1218.3,357.558 1222.5,358.896 1226.15,361.569C1229.8,364.24 1232.8,368.822 1235.15,375.306C1237.51,381.797 1238.68,391.569 1238.68,404.647C1238.68,415.627 1237.53,424.533 1235.22,431.362" style="fill:white;fill-rule:nonzero;"/>
                    </g>
                    <path d="M899.717,454.844C916.897,454.844 930.205,448.523 939.625,435.88C946.733,426.353 950.291,415.325 950.291,402.776C950.291,388.097 945.521,375.871 935.992,366.096C926.457,356.322 914.066,351.732 898.809,352.318C884.684,351.736 872.779,356.339 863.112,366.138C853.428,375.928 848.598,388.173 848.598,402.851C848.598,415.928 852.315,427.229 859.76,436.757C869.171,448.81 882.496,454.845 899.734,454.845M879.507,370.885C884.073,361.656 890.734,357.041 899.494,357.041C904.25,357.041 908.451,358.376 912.1,361.05C915.749,363.723 918.751,368.303 921.107,374.787C923.461,381.277 924.639,391.049 924.639,404.119C924.639,415.099 923.487,424.007 921.177,430.834C918.872,437.661 915.646,442.632 911.502,445.743C908.254,448.173 904.203,449.388 899.349,449.388C892.143,449.388 886.544,446.569 882.532,440.934C876.789,432.869 873.914,420.41 873.914,403.544C873.914,389.352 875.772,378.471 879.493,370.893" style="fill:white;fill-rule:nonzero;"/>
                    <path d="M849.935,420.502L845.308,420.502C842.894,429.178 838.921,435.635 833.395,439.861C827.869,444.091 820.516,446.205 811.353,446.205L806.124,446.205C803.323,446.205 801.301,445.819 800.042,445.055C798.789,444.282 797.93,443.295 797.472,442.094C797.015,440.89 796.784,437.595 796.784,432.212L796.784,404.645C801.494,404.645 807.012,405.26 809.489,406.49C811.963,407.714 814.136,410.116 816.002,413.681C817.874,417.247 819.1,421.184 819.683,426.774L823.659,426.774L823.659,376.042L819.683,376.042C818.904,383.661 817.108,388.781 814.291,392.686C811.48,396.592 806.937,398.543 800.678,398.543L796.781,398.543L796.781,364.514C796.749,358.598 802.025,359.284 802.025,359.284L808.18,359.284C815.633,359.284 820.712,359.719 823.42,360.586C828.065,362.029 831.655,364.295 834.194,367.375C836.735,370.457 838.704,375.539 840.108,382.614L843.44,382.614L843.44,353.613L760.553,353.613L760.553,357.607L763.165,357.607C766.35,357.607 768.861,358.281 770.694,359.624C771.997,360.538 772.89,361.842 773.37,363.525C773.614,364.532 773.736,367.25 773.736,371.676L773.736,432.985C773.736,437.891 773.471,440.923 772.939,442.073C772.265,443.706 771.295,444.867 770.046,445.538C768.306,446.55 766.014,447.054 763.164,447.054L760.552,447.054L760.552,451.665L844.842,451.665L849.909,420.491L849.935,420.502Z" style="fill:white;fill-rule:nonzero;"/>
                    <path d="M690.849,447.002L688.612,447.002C685.402,447.002 682.551,446.017 680.058,444.045C677.57,442.072 676.324,438.28 676.324,432.653L676.324,373.441L740.462,453.398L744.621,453.404L744.621,371.854C744.621,367.217 745.006,365.871 745.771,363.963C746.536,362.055 747.606,360.678 748.972,359.832C750.34,358.988 753.022,358.3 757.012,357.768L757.012,353.619L725.194,353.619L725.194,357.768C730.439,357.672 734.185,359.023 736.405,361.825C738.031,363.902 738.844,365.96 738.844,371.856L738.844,414.563L688.913,353.619L658.532,353.619L658.532,356.91C661.42,357.006 661.523,357.973 663.061,358.79L671.199,366.981L671.188,432.645C671.188,437.838 670.162,441.512 668.114,443.674C666.064,445.838 662.43,446.942 657.217,446.99L657.217,450.959L690.834,450.959L690.834,446.99L690.849,447.002Z" style="fill:white;fill-rule:nonzero;"/>
                    <path d="M977.66,403.577C977.66,410.093 972.378,415.373 965.866,415.373C959.349,415.373 954.069,410.089 954.069,403.577C954.069,397.06 959.353,391.781 965.866,391.781C972.383,391.781 977.66,397.064 977.66,403.577Z" style="fill:white;fill-rule:nonzero;"/>
                </g>
            </g>
        </g>
    </g>
</svg>
