<svg viewBox="0 0 633 109" xmlns="http://www.w3.org/2000/svg" xml:space="preserve" style="fill-rule:evenodd;clip-rule:evenodd;stroke-linejoin:round;stroke-miterlimit:2">
    <path d="M395.265 65.444h2.502c2.337 0 6.332.481 7.978 1.445 1.647.958 2.733 2.034 3.255 3.223.525 1.189.791 3.812.791 7.862v15.903c0 4.799-5.071 7.244-7.514 7.775-2.454.529-4.838.795-7.159.795-6.695 0-12.476-1.742-17.349-5.23-4.866-3.488-8.393-8.94-10.582-16.375-2.183-7.426-3.272-16.058-3.272-25.919 0-8.133.997-16.066 2.993-23.794 2.001-7.73 5.402-13.753 10.205-18.076 4.804-4.319 10.824-6.479 18.052-6.479 7.566 0 11.993 1.914 17.561 7.703 5.695 5.915 11.159 12.637 14.348 22.505h4.657V.552h-2.649c-.956 2.902-2 4.873-3.14 5.913-1.145 1.045-2.384 1.564-3.71 1.564-.86 0-3.634-.943-8.319-2.83-4.684-1.889-8.076-3.035-10.166-3.439-3.851-.804-6.845-1.21-11.646-1.21-15.511 0-28.383 5.33-38.614 15.988-10.232 10.668-15.345 23.725-15.345 39.182 0 8.637 1.66 16.443 4.994 23.414 2.614 5.406 6.244 10.264 10.882 14.588 4.639 4.318 9.996 7.804 16.058 10.462 6.068 2.648 13.693 3.976 22.875 3.976 7.187 0 14.115-.743 20.804-2.227a92.167 92.167 0 0 0 19.314-6.613V77.948c0-3.745.212-6.099.639-7.057.76-1.824 1.84-3.128 3.242-3.916 1.4-.788 5.223-1.299 8.786-1.556v-3.498h-50.485v3.498l.014.025Z" style="fill:#fff;fill-rule:nonzero"/>
    <path d="M511.311 93.124c-5.753 4.405-13.41 6.606-22.959 6.606h-5.444c-2.917 0-5.025-.397-6.336-1.2-1.299-.801-2.199-1.829-2.674-3.081-.476-1.251-.716-4.683-.716-10.287V56.458c4.905 0 10.649.639 13.227 1.92 2.576 1.276 4.838 3.774 6.781 7.488 1.951 3.711 3.226 7.812 3.833 13.632h4.139V26.675h-4.139c-.812 7.936-2.68 13.264-5.613 17.33-2.931 4.066-7.659 6.1-14.176 6.1h-4.057V14.672c-.032-6.159 5.456-5.445 5.456-5.445h6.414c7.755 0 13.037.454 15.857 1.358 4.833 1.503 8.575 3.859 11.217 7.067 2.646 3.212 4.694 8.498 6.155 15.87h3.473V3.349h-86.307v4.133h2.722c3.317 0 5.931.7 7.839 2.102 1.359.952 2.29 2.309 2.789 4.061.255 1.047.381 3.879.381 8.489V85.97c0 5.108-.277 8.265-.832 9.471-.703 1.7-1.711 2.903-3.015 3.606-1.812 1.054-4.197 1.578-7.159 1.578h-2.723v4.802h87.766l5.274-32.46h-4.813c-2.515 9.036-6.65 15.757-12.407 20.159" style="fill:#fff;fill-rule:nonzero"/>
    <path d="M579.221 1.747c-14.708-.607-27.104 4.186-37.169 14.389-10.086 10.195-15.113 22.944-15.113 38.227 0 13.618 3.871 25.384 11.62 35.306 9.803 12.55 23.676 18.833 41.624 18.833 17.888 0 31.747-6.579 41.554-19.746 7.403-9.908 11.106-21.404 11.106-34.469 0-15.284-4.966-28.015-14.886-38.192-9.93-10.178-22.831-14.959-38.719-14.346m23.461 81.695c-2.405 7.109-5.76 12.285-10.074 15.515-3.384 2.535-7.601 3.798-12.655 3.798-7.503 0-13.332-2.937-17.507-8.803-5.981-8.396-8.974-21.37-8.974-38.932 0-14.777 1.935-26.107 5.811-33.997 4.755-9.61 11.69-14.415 20.806-14.415 4.953 0 9.329 1.393 13.129 4.176 3.799 2.782 6.926 7.553 9.375 14.304 2.454 6.759 3.68 16.934 3.68 30.551 0 11.433-1.2 20.706-3.606 27.817m-349.34 24.45c17.888 0 31.745-6.582 41.553-19.746 7.401-9.92 11.106-21.403 11.106-34.469 0-15.285-4.967-28.015-14.889-38.193-9.928-10.177-22.83-14.956-38.716-14.346-14.707-.606-27.103 4.187-37.169 14.39-10.083 10.194-15.112 22.944-15.112 38.227 0 13.616 3.87 25.383 11.622 35.304 9.799 12.55 23.673 18.834 41.622 18.834M232.3 20.487c4.754-9.61 11.69-14.415 20.811-14.415 4.952 0 9.327 1.39 13.126 4.174 3.8 2.783 6.925 7.552 9.379 14.304 2.451 6.757 3.677 16.932 3.677 30.541 0 11.433-1.199 20.708-3.605 27.817-2.4 7.108-5.759 12.284-10.073 15.524-3.382 2.53-7.6 3.795-12.655 3.795-7.503 0-13.333-2.935-17.51-8.803-5.98-8.397-8.974-21.37-8.974-38.932 0-14.777 1.935-26.107 5.81-33.997" style="fill:#fff;fill-rule:nonzero"/>
    <path d="M201.509 72.15h-4.818c-2.514 9.033-6.651 15.757-12.404 20.157-5.754 4.404-13.411 6.606-22.951 6.606h-5.445c-2.917 0-5.022-.402-6.333-1.198-1.304-.805-2.199-1.832-2.676-3.083-.476-1.254-.716-4.684-.716-10.289V55.639c4.904 0 10.65.64 13.229 1.921 2.576 1.274 4.838 3.775 6.781 7.487 1.95 3.713 3.226 7.813 3.833 13.633h4.14V25.856h-4.14c-.811 7.933-2.681 13.265-5.614 17.331-2.927 4.067-7.657 6.098-14.175 6.098h-4.057V13.853c-.034-6.16 5.46-5.446 5.46-5.446h6.409c7.76 0 13.049.453 15.868 1.356 4.837 1.502 8.575 3.862 11.219 7.069 2.645 3.209 4.696 8.501 6.157 15.867h3.47V2.502h-86.305v4.159h2.719c3.317 0 5.931.702 7.84 2.1 1.357.952 2.286 2.31 2.786 4.062.254 1.049.381 3.879.381 8.487v63.837c0 5.109-.276 8.266-.829 9.463-.702 1.701-1.712 2.909-3.013 3.608-1.812 1.054-4.198 1.579-7.166 1.579h-2.719v4.801h87.766l5.276-32.46.027.012ZM35.862 99.742h-2.329c-3.342 0-6.311-1.025-8.907-3.078-2.59-2.055-3.888-6.003-3.888-11.862V23.148l66.783 83.254 4.331.007V21.496c0-4.829.401-6.23 1.197-8.217.797-1.987 1.911-3.42 3.333-4.301 1.425-.879 4.217-1.595 8.372-2.149v-4.32h-33.13v4.32c5.461-.1 9.361 1.306 11.673 4.224 1.693 2.163 2.54 4.306 2.54 10.445v44.468L33.846 2.509H2.213v3.426c3.007.1 3.114 1.107 4.715 1.958l8.474 8.529-.011 68.371c0 5.408-1.069 9.233-3.201 11.484C10.055 98.53 6.271 99.68.843 99.73v4.133h35.004V99.73l.015.012Zm298.639-45.215c0 6.784-5.5 12.282-12.281 12.282-6.785 0-12.283-5.502-12.283-12.282 0-6.786 5.502-12.283 12.283-12.283 6.786 0 12.281 5.501 12.281 12.283Z" style="fill:#fff;fill-rule:nonzero"/>
</svg>
