<svg data-name="Warstwa 1" xmlns="http://www.w3.org/2000/svg" viewBox="0 0 239.14 75.6">
    <path d="M88.74 0c2.58.93 3.27 3.06 3.5 5.48.06.68.07 1.36.07 2v53.28H75.24V30.11l-.37-.11c-.35.55-.73 1.09-1.05 1.65-4.23 7.48-8.44 15-12.71 22.42a32.43 32.43 0 0 1-2.89 4.25 6.5 6.5 0 0 1-5.36 2.48H43.5c-3.12 0-4.67-1.48-5.15-4.44a19 19 0 0 1-.23-3.1v-22.9l-.25-.11c-.26.4-.55.78-.79 1.19q-8.46 14.15-16.92 28.32a1.86 1.86 0 0 1-1.88 1.06H0c.28-.51.45-.85.65-1.18Q16.83 32.31 33.03 4.97A10.73 10.73 0 0 1 38.34.03h13.2a5 5 0 0 1 3.58 4.73v24a15.93 15.93 0 0 0 .17 1.68l.39.11c.36-.54.77-1.05 1.09-1.61q6.52-11.59 13-23.2c1.36-2.43 2.9-4.71 5.71-5.7Zm115.44 0a43.69 43.69 0 0 1 4.2 1.67 10.14 10.14 0 0 1 4.11 4.1c1.75 3 3.49 6.1 5.23 9.15.75 1.32.54 1.72-1 1.72H202.2a2.83 2.83 0 0 1-2.61-1.34 2.85 2.85 0 0 0-2-.9c-4.27-.08-8.55 0-12.83 0h-11c-1.92 0-2.67.77-2.68 2.7v2.64a1.77 1.77 0 0 0 1.63 1.9 11 11 0 0 0 1.91.12c13 0 25.92.11 38.88 0a15.37 15.37 0 0 1 13.7 7.38c3.77 5.69 7.31 11.55 10.74 17.46a9.63 9.63 0 0 1-8 14.24c-4.56.12-9.12 0-13.68 0h-39.72a24.79 24.79 0 0 1-11.49-2.45 18.67 18.67 0 0 1-8.91-9.36 178.9 178.9 0 0 1-2.13-5c-.62-1.51 0-2.48 1.59-2.5 4.56-.05 9.12-.05 13.68 0a2 2 0 0 1 1.55 1 3.38 3.38 0 0 0 3 2.2 11.75 11.75 0 0 0 1.68.1h39.59c2.11 0 2.45-.46 1.6-2.43-.63-1.47-1.43-2.86-2.17-4.27a2.65 2.65 0 0 0-2.65-1.45h-43a21.21 21.21 0 0 1-5.33-.6 13.77 13.77 0 0 1-10-12.78c-.08-3.48-.07-7 0-10.44A13.88 13.88 0 0 1 164.2.2a4.21 4.21 0 0 0 .65-.23ZM154.5 0c1.06.71.74 1.64.39 2.55q-2.72 7.11-5.44 14.21-7.44 19.53-14.87 39.05a16.29 16.29 0 0 1-1.28 2.7 4.46 4.46 0 0 1-3.88 2.25c-3.56 0-7.12.06-10.68 0-2.49-.05-3.92-1.61-4.76-3.77-1.16-3-2.23-6-3.32-9q-8.17-22.38-16.34-44.77c-.17-.45-.32-.91-.46-1.37a1.48 1.48 0 0 1 .64-1.86h16.12a14.54 14.54 0 0 1 1.83 2.81c3.61 10 7.14 20.08 10.7 30.13.21.6.52 1.17.78 1.76h.4c.31-.66.67-1.31.93-2 3.82-10.08 7.61-20.17 11.47-30.23A12.48 12.48 0 0 1 138.46 0ZM17.7 75.6v-9.71a.91.91 0 0 1 .12-.29h14.2c2.25 0 3.18.94 3.19 3.22s0 4.55 0 6.83h-1.92c0-2.19-.07-4.38-.09-6.57 0-1.06-.46-1.65-1.59-1.6H29.1c-1.12 0-1.6.5-1.58 1.6v6.57h-1.9a11.58 11.58 0 0 1-.18-1.28v-5.4c0-1-.43-1.5-1.44-1.49h-2.76c-1 0-1.45.51-1.43 1.49s0 2.08 0 3.12c0 1.19-.12 2.37-.18 3.56Zm195.12 0v-10c.42 0 .77-.06 1.12-.06h13.19c2.15 0 3.16 1 3.17 3.14v5.75a6.68 6.68 0 0 1-.19 1.16h-1.69c-.07-1.5-.2-3-.2-4.51 0-4 .24-3.67-3.72-3.66-1.68 0-1.93.27-2 1.95 0 2.07-.08 4.15-.12 6.22h-1.92v-6.58c0-1.08-.48-1.63-1.59-1.59h-2.27c-1.46 0-1.83.37-1.85 1.83v6.34Zm-97.68 0a3.36 3.36 0 0 1-1.9-3.52c.08-2.11 0-4.23 0-6.47.5 0 .92-.06 1.34-.06h9.71c.69 0 1.13.07 1.13 1s-.42 1-1.12.95h-7.07c-1.66 0-1.92.3-1.83 2.19h7.94c.8 0 .9.38.91 1s-.26.9-.92.89h-7.87c-.24 1.85 0 2.2 1.77 2.2h6.71c1.59 0 1.74.23 1.26 1.87Zm85.92 0a3.39 3.39 0 0 1-1.9-3.53c.08-2.11 0-4.22 0-6.52h11.06c.7 0 1.13.08 1.13 1s-.44 1-1.13.95h-7.07c-1.65 0-1.92.31-1.83 2.19h7.96c.8 0 .88.39.9 1s-.28.89-.93.89h-7.87c-.23 1.85.06 2.2 1.78 2.2h6.71c1.59 0 1.75.25 1.25 1.87Zm-28.08 0c-.23-1.88-.23-1.88 1.62-1.88h7.07c.75 0 1.37-.08 1.4-1s-.56-1.18-1.4-1.17h-6.23c-1.9 0-2.7-.85-2.72-2.82 0-2.24.73-3.14 2.64-3.15h9.29v1.88h-8.49c-.8 0-1.3.22-1.3 1.14s.59 1.08 1.35 1.07h6c1.66 0 2.56.45 2.86 1.62s.39 3.39-1.07 4.09c-.09 0-.14.16-.21.25Zm-27.36 0c-.18-1.88-.18-1.88 1.65-1.88h7.07c.74 0 1.36-.07 1.38-1s-.55-1.18-1.39-1.17h-6c-2.19 0-3-.76-3-2.95s.75-3 3-3h7.54c1.62 0 1.65 0 1.32 1.88h-8.44c-.84 0-1.3.24-1.29 1.15s.5 1.07 1.25 1.06h6c1.76 0 2.62.47 3 1.62a3.63 3.63 0 0 1-1.21 4.15c-.06 0-.08.13-.12.19Zm-17.28 0a3.45 3.45 0 0 1-1.64-3.43c.08-1.31 0-2.63 0-4a2.5 2.5 0 0 1 2.72-2.67h7.17a2.48 2.48 0 0 1 2.76 2.73c0 1.36-.07 2.72 0 4.07a3.13 3.13 0 0 1-1.71 3.25Zm4.68-1.84h2.76a1.35 1.35 0 0 0 1.6-1.48v-3.35a1.33 1.33 0 0 0-1.51-1.46h-5.63a1.29 1.29 0 0 0-1.45 1.49v3.36c0 1.12.5 1.45 1.48 1.44ZM99.54 75.6c0-2.7-.13-5.4 0-8.09a2.17 2.17 0 0 1 2.36-1.95q3.7-.06 7.41 0a2.41 2.41 0 0 1 2.5 2.49v5a2.87 2.87 0 0 1-1.69 2.53h-7.92c0-2.11-.23-1.87 1.81-1.88h4.32a1.27 1.27 0 0 0 1.46-1.36q.06-1.8 0-3.6a1.24 1.24 0 0 0-1.38-1.32h-5.52a1.3 1.3 0 0 0-1.44 1.5v3.36c0 1.12-.14 2.21-.21 3.31Zm-60.92 0a3.61 3.61 0 0 1-1.72-3.63c.11-1.71 0-3.43 0-5.15 0-.7-.08-1.29 1-1.31s1.08.62 1.08 1.37v5.15c0 1.38.33 1.69 1.72 1.7h4.91a1.39 1.39 0 0 0 1.6-1.6V66.5c0-.84.35-1 1.08-1s1 .24 1 1v6.35a3.15 3.15 0 0 1-1.76 2.75Zm125.72 0-.34-3h-2.42a2.59 2.59 0 0 1-2.81-2.85V66.4c0-.86.47-.84 1.08-.85s1 .13.95.85v2.88a1.34 1.34 0 0 0 1.5 1.48h5.87a1.31 1.31 0 0 0 1.45-1.5v-2.88c0-.75.37-.85 1-.84s1.14 0 1.12.82c0 1.24.05 2.48 0 3.71a2.54 2.54 0 0 1-2.56 2.5c-.9.06-1.81 0-2.86 0v3Zm-77.28 0q-2.74-4.69-5.47-9.4c-.07-.12 0-.3 0-.45 1.55-.42 1.94-.27 2.66 1 1.24 2.22 2.47 4.45 3.83 6.9l2.34-4.18c.49-.88 1-1.73 1.43-2.63a2 2 0 0 1 2.76-1.16 4.22 4.22 0 0 1-.24.85q-2.29 4.08-4.61 8.14a7.85 7.85 0 0 1-.74.92Zm-21.6 0c-.07-.62-.2-1.24-.21-1.86v-6.28h-4.19c-.67 0-1.05-.11-1.05-.9s.26-1 1-1h9.94c1.64 0 1.64 0 1.39 1.84h-5v8.21Zm125.76 0c-.06-1.35-.15-2.69-.18-4s0-2.63 0-4.07h-4.9c-.55-1.73-.4-1.94 1.2-1.94h9.59c1.51 0 1.65.22 1.18 1.88h-5v8.17Zm-138.48 0a3.22 3.22 0 0 1-1.93-3.38c.08-1.87 0-3.75 0-5.63 0-.76.21-1.06 1-1.07s1.13.26 1.11 1.11v5.39c0 1.41.29 1.7 1.69 1.71h8v1.87Zm21.12 0c-.06-1.22-.16-2.45-.18-3.67v-5.25c0-.78.17-1.16 1.06-1.16s1.08.32 1.07 1.13v8.95Zm21.84 0q-.06-4.66-.11-9.34c0-.91.68-.66 1.2-.72.73-.07.86.33.86 1v9.11Z" fill="#fff"/>
</svg>
