<?xml version="1.0" encoding="UTF-8"?>
<svg width="353px" height="113px" viewBox="0 0 353 113" version="1.1" xmlns="http://www.w3.org/2000/svg" xmlns:xlink="http://www.w3.org/1999/xlink">
    <title>nes</title>
    <g id="Page-1" stroke="none" stroke-width="1" fill="none" fill-rule="evenodd" opacity="0.784057617">
        <g id="Nintendo-Entertainment-System" transform="translate(-144.000000, -4.000000)" fill="#FFFFFF" fill-rule="nonzero">
            <g id="Group" transform="translate(144.446544, 4.009784)">
                <path d="M308.573,86.732 L43.417,86.732 C19.48,86.732 0,67.278 0,43.365 C0,19.453 19.481,0 43.417,0 L308.57,0 C332.512,0 351.988,19.454 351.988,43.366 C351.988,67.278 332.513,86.732 308.573,86.732 Z M43.417,10.259 C25.141,10.259 10.271,25.111 10.271,43.368 C10.271,61.623 25.14,76.477 43.417,76.477 L308.57,76.477 C326.844,76.477 341.718,61.624 341.718,43.368 C341.718,25.112 326.846,10.259 308.57,10.259 L43.417,10.259 Z" id="Shape"></path>
                <path d="M77.472,63.477 L77.472,23.449 L65.42,23.449 L65.42,51.437 L47.644,23.449 L34.689,23.449 L34.689,63.477 L46.741,63.477 L46.741,34.586 L65.418,63.477 L77.472,63.477 Z M85.006,36.391 L97.056,36.391 L97.056,63.477 L85.006,63.477 L85.006,36.391 Z M85.006,23.449 L97.056,23.449 L97.056,30.671 L85.006,30.671 L85.006,23.449 Z M139.236,63.477 L139.236,44.815 C139.236,40.903 131.703,35.487 127.788,35.487 L124.171,35.487 C121.461,35.487 118.447,37.894 115.735,39.098 L115.735,36.391 L103.683,36.391 L103.683,63.477 L115.735,63.477 L115.735,44.815 C115.735,43.01 119.952,40.903 121.762,40.903 C123.569,40.903 126.883,43.01 126.883,44.815 L126.883,63.476 L139.236,63.476 L139.236,63.477 Z M240.073,64.409 L240.073,45.75 C240.073,41.836 232.544,36.421 228.621,36.421 L225.008,36.421 C222.295,36.421 219.282,38.829 216.568,40.032 L216.568,37.324 L204.519,37.324 L204.519,64.41 L216.568,64.41 L216.568,45.75 C216.568,43.945 220.788,41.836 222.596,41.836 C224.403,41.836 227.715,43.945 227.715,45.75 L227.715,64.409 L240.073,64.409 L240.073,64.409 Z M158.821,63.477 L158.821,36.391 L165.148,36.391 L165.148,32.779 L158.821,32.779 L158.821,27.061 L146.47,27.061 L146.47,32.779 L140.142,32.779 L140.142,36.391 L146.47,36.391 L146.47,63.477 L158.821,63.477 Z M182.019,35.488 C172.379,35.488 164.245,42.108 164.245,50.234 C164.245,58.662 172.379,65.282 182.019,65.282 C190.456,65.282 197.386,60.467 199.194,54.147 L186.843,54.147 L186.843,57.758 C186.843,60.769 184.736,61.674 182.024,61.674 C179.313,61.674 177.504,60.77 177.504,57.758 L177.504,50.235 L199.802,50.235 C199.798,42.11 191.965,35.488 182.019,35.488 L182.019,35.488 Z M182.019,38.196 C184.732,38.196 186.841,40.003 186.841,43.012 L186.841,45.719 L177.5,45.719 L177.5,43.012 C177.5,40.003 179.309,38.196 182.019,38.196 Z M300.735,35.488 C290.79,35.488 282.956,42.108 282.956,50.234 C282.956,58.662 290.787,65.282 300.735,65.282 C310.37,65.282 318.508,58.662 318.508,50.234 C318.504,42.11 310.37,35.488 300.735,35.488 Z M300.735,38.196 C303.441,38.196 305.253,40.003 305.253,43.012 L305.253,57.758 C305.253,60.767 303.441,61.671 300.735,61.671 C297.722,61.671 295.910996,60.767 295.910996,57.758 L295.910996,43.012 C295.908,40.003 297.719,38.196 300.735,38.196 Z M266.082,23.449 L266.082,38.196 C266.082,38.196 262.464,35.488 257.642,35.488 C250.111,35.488 243.785,42.108 243.785,49.331 C243.785,56.857 250.113,64.381 257.642,64.381 C262.464,64.381 266.082,62.575 266.082,62.575 L266.082,63.476 L278.134,63.476 L278.134,23.449 L266.082,23.449 Z M261.561,40.003 C264.272,40.003 266.082,42.11 266.082,44.817 L266.082,55.952 C266.082,58.662 264.272,59.565 261.561,59.565 C258.551,59.565 256.741,58.664 256.741,55.952 L256.741,44.817 C256.741,42.11 258.551,40.003 261.561,40.003 L261.561,40.003 Z M35.592,111.831 L35.592,102.103 C35.592,100.259 33.746,98.413 31.899,98.413 L17.796,98.413 L17.796,111.831 L22.162,111.831 L22.162,102.777 C22.162,102.105 22.665,101.434 23.337,101.434 L30.051,101.434 C30.724,101.434 31.395,102.106 31.395,102.777 L31.395,111.831 L35.592,111.831 L35.592,111.831 Z M152.092,111.831 L152.092,102.103 C152.092,100.259 150.246,98.413 148.4,98.413 L134.297,98.413 L134.297,111.831 L138.661,111.831 L138.661,102.777 C138.661,102.105 139.166,101.434 139.837,101.434 L146.553,101.434 C147.225,101.434 147.894,102.106 147.894,102.777 L147.894,111.831 L152.092,111.831 Z M215.861,111.831 L215.861,102.103 C215.861,100.259 214.015,98.413 212.167,98.413 L198.065,98.413 L198.065,111.831 L202.428,111.831 L202.428,102.777 C202.428,102.105 202.931,101.434 203.605,101.434 L210.319,101.434 C210.991,101.434 211.662,102.106 211.662,102.777 L211.662,111.831 L215.861,111.831 Z M177.792,111.831 L177.792,102.103 C177.792,100.259 175.946,98.413 174.098,98.413 L155.127,98.413 L155.127,111.831 L159.492,111.831 L159.492,102.777 C159.492,102.105 159.994,101.434 160.665,101.434 L163.185,101.434 C163.689,101.434 164.36,102.106 164.36,102.777 L164.36,111.831 L168.727,111.831 L168.727,102.777 C168.727,102.105 169.228,101.434 169.901,101.434 L172.419,101.434 C172.923,101.434 173.594,102.106 173.594,102.777 L173.594,111.831 L177.792,111.831 L177.792,111.831 Z M14.775,111.831 L3.694,111.831 C1.848,111.831 0,110.658 0,108.814 L0,98.25 L14.774,98.25 L14.774,101.436 L4.869,101.436 C4.366,101.436 3.694,101.94 3.694,102.611 C3.694,103.282 4.366,103.785 4.869,103.785 L14.103,103.785 L14.103,106.467 L4.869,106.467 C4.366,106.467 3.694,107.139 3.694,107.643 C3.694,108.314 4.366,108.983 4.869,108.983 L14.774,108.983 L14.775,111.831 Z M69.347,112 L58.266,112 C56.42,112 54.572,110.826 54.572,108.983 L54.572,98.417 L69.347,98.417 L69.347,101.603 L59.44,101.603 C58.938,101.603 58.266,102.107 58.266,102.779 C58.266,103.451 58.938,103.953 59.44,103.953 L68.673,103.953 L68.673,106.635 L59.44,106.635 C58.938,106.635 58.266,107.306 58.266,107.811 C58.266,108.483 58.938,109.151 59.44,109.151 L69.347,109.151 L69.347,112 L69.347,112 Z M195.657,111.831 L184.576,111.831 C182.729,111.831 180.88,110.658 180.88,108.814 L180.88,98.25 L195.656,98.25 L195.656,101.436 L185.751,101.436 C185.247,101.436 184.573,101.94 184.573,102.611 C184.573,103.282 185.246,103.785 185.751,103.785 L194.982,103.785 L194.982,106.467 L185.751,106.467 C185.247,106.467 184.573,107.139 184.573,107.643 C184.573,108.314 185.246,108.983 185.751,108.983 L195.656,108.983 L195.656,111.833 L195.657,111.833 L195.657,111.831 L195.657,111.831 Z M37.439,98.415 L37.439,101.434 L41.804,101.434 C42.98,101.434 42.98,101.434 42.98,102.777 L42.98,111.831 L47.176,111.831 L47.176,102.777 C47.176,101.434 47.176,101.434 48.519,101.434 L52.716,101.434 L52.716,98.415 L37.439,98.415 Z M90.785,98.415 L90.785,101.434 L95.149,101.434 C96.324,101.434 96.324,101.434 96.324,102.777 L96.324,111.831 L100.521,111.831 L100.521,102.777 C100.521,101.434 100.521,101.434 101.865,101.434 L106.063,101.434 L106.063,98.415 L90.785,98.415 Z M218.321,98.415 L218.321,101.434 L222.685,101.434 C223.862,101.434 223.862,101.434 223.862,102.777 L223.862,111.831 L228.057,111.831 L228.057,102.777 C228.057,101.434 228.057,101.434 229.4,101.434 L233.597,101.434 L233.597,98.415 L218.321,98.415 Z M72.359,98.415 L72.359,111.833 L76.725,111.833 L76.725,109.486 C76.725,108.816 77.228,108.143 77.899,108.143 L83.44,108.143 C84.113,108.143 84.615,108.814 84.615,109.486 L84.615,111.833 L88.309,111.833 L88.309,108.143 C88.309,107.642 87.806,106.97 87.806,106.299 C87.806,105.798 88.981,104.624 88.981,103.283 L88.981,102.108 C88.981,100.932 87.134,98.417 85.959,98.417 L72.359,98.415 Z M77.899,101.434 L83.44,101.434 C84.113,101.434 84.614,102.106 84.614,102.777 L84.614,103.949 C84.614,104.621 84.111,105.125 83.44,105.125 L77.899,105.125 C77.5850487,105.132495 77.2817548,105.010937 77.0598836,104.788688 C76.8380123,104.566438 76.7169705,104.262938 76.725,103.949 L76.725,102.777 C76.725,102.107 77.228,101.434 77.899,101.434 L77.899,101.434 Z M110.974,98.415 C109.798,98.415 107.952,100.931 107.952,102.107 L107.952,111.833 L112.316,111.833 L112.316,108.143 L120.206,108.143 L120.206,111.833 L124.57,111.833 L124.57,102.107 C124.57,100.931 122.724,98.415 121.38,98.415 L110.974,98.415 L110.974,98.415 Z M113.492,101.434 L119.031,101.434 C119.533,101.434 120.206,102.106 120.206,102.777 L120.206,105.124 L112.316,105.124 L112.316,102.777 C112.316,102.107 112.82,101.434 113.492,101.434 Z M131.79,111.832 L131.79,98.414 L127.594,98.414 L127.594,111.832 L131.79,111.832 L131.79,111.832 Z M352,111.813 L352,102.087 C352,100.243 350.153,98.397 348.305,98.397 L329.335,98.397 L329.335,111.813 L333.698,111.813 L333.698,102.759 C333.698,102.087 334.201,101.416 334.873,101.416 L337.391,101.416 C337.895,101.416 338.568,102.087 338.568,102.759 L338.568,111.812 L342.931,111.812 L342.931,102.759 C342.931,102.087 343.434,101.416 344.105,101.416 L346.624,101.416 C347.128,101.416 347.802,102.087 347.802,102.759 L347.802,111.812 L351.998,111.812 L352,111.813 L352,111.813 Z M326.329,111.813 L315.248,111.813 C313.402,111.813 311.555,110.639 311.555,108.797 L311.555,98.231 L326.328,98.231 L326.328,101.418 L316.423,101.418 C315.921,101.418 315.248,101.92 315.248,102.592 C315.248,103.263 315.92,103.766 316.423,103.766 L325.656,103.766 L325.656,106.449 L316.423,106.449 C315.921,106.449 315.248,107.121 315.248,107.623 C315.248,108.295 315.92,108.964 316.423,108.964 L326.328,108.964 L326.329,111.813 Z M294.422,98.397 L294.422,101.414 L298.786,101.414 C299.961,101.414 299.961,101.414 299.961,102.756 L299.961,111.81 L304.157,111.81 L304.157,102.756 C304.157,101.414 304.157,101.414 305.503,101.414 L309.698,101.414 L309.698,98.397 L294.422,98.397 Z M244.698,98.467 C243.522,98.467 241.003,100.312 241.003,101.484 L241.003,103.33 C241.003,104.504 243.522,106.348 244.698,106.348 L252.084,106.348 C252.756,106.348 253.427,107.02 253.427,107.522 C253.427,108.193 252.755,108.863 252.084,108.863 L241.003,108.863 L241.003,111.88 L253.427,111.88 C254.602,111.88 256.953,110.036 256.953,108.863 L256.953,107.018 C256.953,105.676 254.602,103.831 253.427,103.831 L246.041,103.831 C245.368,103.831 244.698,103.329 244.698,102.656 C244.698,101.985 245.369,101.481 246.041,101.481 L256.953,101.481 L256.953,98.465 L244.698,98.465 L244.698,98.467 L244.698,98.467 Z M280.261,98.467 C279.085,98.467 276.567,100.312 276.567,101.484 L276.567,103.33 C276.567,104.504 279.085,106.348 280.261,106.348 L287.648,106.348 C288.319,106.348 288.991,107.02 288.991,107.522 C288.991,108.193 288.319,108.863 287.648,108.863 L276.567,108.863 L276.567,111.88 L288.99,111.88 C290.166,111.88 292.516,110.036 292.516,108.863 L292.516,107.018 C292.516,105.676 290.166,103.831 288.99,103.831 L281.603,103.831 C280.931,103.831 280.261,103.329 280.261,102.656 C280.261,101.985 280.933,101.481 281.603,101.481 L292.516,101.481 L292.516,98.465 L280.261,98.465 L280.261,98.467 Z M258.296,98.467 L258.296,104.506 C258.296,105.68 260.142,107.524 261.318,107.524 L264.338,107.524 L264.338,111.883 L268.703,111.883 L268.703,107.524 L271.725,107.524 C272.899,107.524 274.747,105.68 274.747,104.506 L274.747,98.467 L270.549,98.467 L270.549,103.332 C270.549,103.834 269.878,104.506 269.206,104.506 L263.835,104.506 C263.162,104.506 262.491,103.834 262.491,103.332 L262.491,98.467 L258.296,98.467 Z" id="Shape"></path>
            </g>
        </g>
    </g>
</svg>