<svg viewBox="0 0 353 113" xmlns="http://www.w3.org/2000/svg" xml:space="preserve" style="fill-rule:evenodd;clip-rule:evenodd;stroke-linejoin:round;stroke-miterlimit:2">
    <clipPath id="a">
        <path d="M.269.749h352v112h-352z"/>
    </clipPath>
    <g clip-path="url(#a)">
        <path d="M308.842 87.481H43.686C19.749 87.481.269 68.027.269 44.114.269 20.202 19.75.749 43.686.749h265.153c23.942 0 43.418 19.454 43.418 43.366-.002 23.912-19.475 43.366-43.415 43.366ZM43.686 11.008c-18.276 0-33.146 14.852-33.146 33.109 0 18.255 14.869 33.109 33.146 33.109h265.153c18.274 0 33.148-14.853 33.148-33.109s-14.872-33.109-33.148-33.109H43.686Z" style="fill:#fff;fill-rule:nonzero"/>
        <path d="M77.741 64.226V24.198H65.689v27.988L47.913 24.198H34.958v40.028H47.01V35.335l18.677 28.891h12.054Zm7.534-27.086h12.05v27.086h-12.05zm0-12.942h12.05v7.222h-12.05zm54.23 40.028V45.564c0-3.912-7.533-9.328-11.448-9.328h-3.617c-2.71 0-5.724 2.407-8.436 3.611V37.14h-12.052v27.086h12.052V45.564c0-1.805 4.217-3.912 6.027-3.912 1.807 0 5.121 2.107 5.121 3.912v18.661h12.353v.001Zm100.837.932V46.499c0-3.914-7.529-9.329-11.452-9.329h-3.613c-2.713 0-5.726 2.408-8.44 3.611v-2.708h-12.049v27.086h12.049v-18.66c0-1.805 4.22-3.914 6.028-3.914 1.807 0 5.119 2.109 5.119 3.914v18.659h12.358Zm-81.252-.932V37.14h6.327v-3.612h-6.327V27.81h-12.351v5.718h-6.328v3.612h6.328v27.086h12.351Zm23.198-27.989c-9.64 0-17.774 6.62-17.774 14.746 0 8.428 8.134 15.048 17.774 15.048 8.437 0 15.367-4.815 17.175-11.135h-12.351v3.611c0 3.011-2.107 3.916-4.819 3.916-2.711 0-4.52-.904-4.52-3.916v-7.523h22.298c-.004-8.125-7.837-14.747-17.783-14.747Zm0 2.708c2.713 0 4.822 1.807 4.822 4.816v2.707h-9.341v-2.707c0-3.009 1.809-4.816 4.519-4.816Zm118.716-2.708c-9.945 0-17.779 6.62-17.779 14.746 0 8.428 7.831 15.048 17.779 15.048 9.635 0 17.773-6.62 17.773-15.048-.004-8.124-8.138-14.746-17.773-14.746Zm0 2.708c2.706 0 4.518 1.807 4.518 4.816v14.746c0 3.009-1.812 3.913-4.518 3.913-3.013 0-4.824-.904-4.824-3.913V43.761c-.003-3.009 1.808-4.816 4.824-4.816Zm-34.653-14.747v14.747s-3.618-2.708-8.44-2.708c-7.531 0-13.857 6.62-13.857 13.843 0 7.526 6.328 15.05 13.857 15.05 4.822 0 8.44-1.806 8.44-1.806v.901h12.052V24.198h-12.052Zm-4.521 16.554c2.711 0 4.521 2.107 4.521 4.814v11.135c0 2.71-1.81 3.613-4.521 3.613-3.01 0-4.82-.901-4.82-3.613V45.566c0-2.707 1.81-4.814 4.82-4.814ZM35.861 112.58v-9.728c0-1.844-1.846-3.69-3.693-3.69H18.065v13.418h4.366v-9.054c0-.672.503-1.343 1.175-1.343h6.714c.673 0 1.344.672 1.344 1.343v9.054h4.197Zm116.5 0v-9.728c0-1.844-1.846-3.69-3.692-3.69h-14.103v13.418h4.364v-9.054c0-.672.505-1.343 1.176-1.343h6.716c.672 0 1.341.672 1.341 1.343v9.054h4.198Zm63.769 0v-9.728c0-1.844-1.846-3.69-3.694-3.69h-14.102v13.418h4.363v-9.054c0-.672.503-1.343 1.177-1.343h6.714c.672 0 1.343.672 1.343 1.343v9.054h4.199Zm-38.069 0v-9.728c0-1.844-1.846-3.69-3.694-3.69h-18.971v13.418h4.365v-9.054c0-.672.502-1.343 1.173-1.343h2.52c.504 0 1.175.672 1.175 1.343v9.054h4.367v-9.054c0-.672.501-1.343 1.174-1.343h2.518c.504 0 1.175.672 1.175 1.343v9.054h4.198Zm-163.017 0H3.963c-1.846 0-3.694-1.173-3.694-3.017V98.999h14.774v3.186H5.138c-.503 0-1.175.504-1.175 1.175s.672 1.174 1.175 1.174h9.234v2.682H5.138c-.503 0-1.175.672-1.175 1.176 0 .671.672 1.34 1.175 1.34h9.905l.001 2.848Zm54.572.169H58.535c-1.846 0-3.694-1.174-3.694-3.017V99.166h14.775v3.186h-9.907c-.502 0-1.174.504-1.174 1.176 0 .672.672 1.174 1.174 1.174h9.233v2.682h-9.233c-.502 0-1.174.671-1.174 1.176 0 .672.672 1.34 1.174 1.34h9.907v2.849Zm126.31-.169h-11.081c-1.847 0-3.696-1.173-3.696-3.017V98.999h14.776v3.186h-9.905c-.504 0-1.178.504-1.178 1.175s.673 1.174 1.178 1.174h9.231v2.682h-9.231c-.504 0-1.178.672-1.178 1.176 0 .671.673 1.34 1.178 1.34h9.905v2.85h.001v-.002ZM37.708 99.164v3.019h4.365c1.176 0 1.176 0 1.176 1.343v9.054h4.196v-9.054c0-1.343 0-1.343 1.343-1.343h4.197v-3.019H37.708Zm53.346 0v3.019h4.364c1.175 0 1.175 0 1.175 1.343v9.054h4.197v-9.054c0-1.343 0-1.343 1.344-1.343h4.198v-3.019H91.054Zm127.536 0v3.019h4.364c1.177 0 1.177 0 1.177 1.343v9.054h4.195v-9.054c0-1.343 0-1.343 1.343-1.343h4.197v-3.019H218.59Zm-145.962 0v13.418h4.366v-2.347c0-.67.503-1.343 1.174-1.343h5.541c.673 0 1.175.671 1.175 1.343v2.347h3.694v-3.69c0-.501-.503-1.173-.503-1.844 0-.501 1.175-1.675 1.175-3.016v-1.175c0-1.176-1.847-3.691-3.022-3.691l-13.6-.002Zm5.54 3.019h5.541c.673 0 1.174.672 1.174 1.343v1.172c0 .672-.503 1.176-1.174 1.176h-5.541a1.147 1.147 0 0 1-1.174-1.176v-1.172c0-.67.503-1.343 1.174-1.343Zm33.075-3.019c-1.176 0-3.022 2.516-3.022 3.692v9.726h4.364v-3.69h7.89v3.69h4.364v-9.726c0-1.176-1.846-3.692-3.19-3.692h-10.406Zm2.518 3.019h5.539c.502 0 1.175.672 1.175 1.343v2.347h-7.89v-2.347c0-.67.504-1.343 1.176-1.343Zm18.298 10.398V99.163h-4.196v13.418h4.196Zm220.21-.019v-9.726c0-1.844-1.847-3.69-3.695-3.69h-18.97v13.416h4.363v-9.054c0-.672.503-1.343 1.175-1.343h2.518c.504 0 1.177.671 1.177 1.343v9.053h4.363v-9.053c0-.672.503-1.343 1.174-1.343h2.519c.504 0 1.178.671 1.178 1.343v9.053h4.196l.002.001Zm-25.671 0h-11.081c-1.846 0-3.693-1.174-3.693-3.016V98.98h14.773v3.187h-9.905c-.502 0-1.175.502-1.175 1.174 0 .671.672 1.174 1.175 1.174h9.233v2.683h-9.233c-.502 0-1.175.672-1.175 1.174 0 .672.672 1.341 1.175 1.341h9.905l.001 2.849Zm-31.907-13.416v3.017h4.364c1.175 0 1.175 0 1.175 1.342v9.054h4.196v-9.054c0-1.342 0-1.342 1.346-1.342h4.195v-3.017h-15.276Zm-49.724.07c-1.176 0-3.695 1.845-3.695 3.017v1.846c0 1.174 2.519 3.018 3.695 3.018h7.386c.672 0 1.343.672 1.343 1.174 0 .671-.672 1.341-1.343 1.341h-11.081v3.017h12.424c1.175 0 3.526-1.844 3.526-3.017v-1.845c0-1.342-2.351-3.187-3.526-3.187h-7.386c-.673 0-1.343-.502-1.343-1.175 0-.671.671-1.175 1.343-1.175h10.912v-3.016h-12.255v.002Zm35.563 0c-1.176 0-3.694 1.845-3.694 3.017v1.846c0 1.174 2.518 3.018 3.694 3.018h7.387c.671 0 1.343.672 1.343 1.174 0 .671-.672 1.341-1.343 1.341h-11.081v3.017h12.423c1.176 0 3.526-1.844 3.526-3.017v-1.845c0-1.342-2.35-3.187-3.526-3.187h-7.387c-.672 0-1.342-.502-1.342-1.175 0-.671.672-1.175 1.342-1.175h10.913v-3.016H280.53v.002Zm-21.965 0v6.039c0 1.174 1.846 3.018 3.022 3.018h3.02v4.359h4.365v-4.359h3.022c1.174 0 3.022-1.844 3.022-3.018v-6.039h-4.198v4.865c0 .502-.671 1.174-1.343 1.174h-5.371c-.673 0-1.344-.672-1.344-1.174v-4.865h-4.195Z" style="fill:#fff;fill-rule:nonzero"/>
    </g>
</svg>
