<?xml version="1.0" encoding="UTF-8" standalone="no"?>
<!DOCTYPE svg PUBLIC "-//W3C//DTD SVG 1.1//EN" "http://www.w3.org/Graphics/SVG/1.1/DTD/svg11.dtd">
<svg width="100%" height="100%" viewBox="0 0 352 112" version="1.1" xmlns="http://www.w3.org/2000/svg" xmlns:xlink="http://www.w3.org/1999/xlink" xml:space="preserve" xmlns:serif="http://www.serif.com/" style="fill-rule:evenodd;clip-rule:evenodd;stroke-linejoin:round;stroke-miterlimit:2;">
    <g>
        <g>
            <path id="path5" d="M308.573,86.732l-265.156,0c-23.938,0 -43.417,-19.455 -43.417,-43.367c0,-23.912 19.48,-43.365 43.417,-43.365l265.153,-0c23.941,-0 43.417,19.454 43.417,43.366c-0.001,23.911 -19.474,43.366 -43.414,43.366Zm-265.156,-76.473c-18.276,-0 -33.147,14.852 -33.147,33.109c0,18.254 14.87,33.109 33.147,33.109l265.153,0c18.274,0 33.147,-14.853 33.147,-33.109c0,-18.256 -14.871,-33.109 -33.147,-33.109l-265.153,-0Z" style="fill:#fff;fill-rule:nonzero;"/>
            <path id="path7" d="M77.472,63.477l-0,-40.028l-12.053,-0l0,27.988l-17.775,-27.988l-12.955,-0l0,40.028l12.052,-0l0,-28.891l18.677,28.891l12.054,-0Z" style="fill:#fff;fill-rule:nonzero;"/>
            <rect id="path9" x="85.006" y="36.39" width="12.05" height="27.086" style="fill:#fff;fill-rule:nonzero;"/>
            <rect id="path11" x="85.006" y="23.449" width="12.05" height="7.222" style="fill:#fff;fill-rule:nonzero;"/>
            <path id="_x33_162_" serif:id="_x33_162" d="M139.235,63.477l0,-18.662c0,-3.912 -7.532,-9.328 -11.447,-9.328l-3.618,-0c-2.709,-0 -5.724,2.407 -8.435,3.611l-0,-2.708l-12.052,0l-0,27.087l12.052,-0l-0,-18.662c-0,-1.806 4.217,-3.912 6.027,-3.912c1.807,0 5.121,2.106 5.121,3.912l-0,18.66l12.352,0l0,0.002Z" style="fill:#fff;fill-rule:nonzero;"/>
            <path id="_x33_162_1_" d="M240.073,64.409l-0,-18.66c-0,-3.913 -7.529,-9.329 -11.453,-9.329l-3.612,0c-2.714,0 -5.727,2.409 -8.441,3.611l0,-2.707l-12.049,-0l0,27.086l12.049,-0l0,-18.661c0,-1.805 4.221,-3.913 6.029,-3.913c1.806,-0 5.119,2.108 5.119,3.913l0,18.66l12.358,-0Z" style="fill:#fff;fill-rule:nonzero;"/>
            <path id="path15" d="M158.821,63.477l-0,-27.087l6.327,0l-0,-3.611l-6.327,-0l-0,-5.718l-12.351,-0l0,5.718l-6.328,-0l-0,3.611l6.328,0l0,27.087l12.351,-0Z" style="fill:#fff;fill-rule:nonzero;"/>
            <path id="path17" d="M182.019,35.488c-9.64,-0 -17.775,6.62 -17.775,14.746c0,8.428 8.135,15.048 17.775,15.048c8.437,0 15.367,-4.815 17.175,-11.135l-12.351,-0l-0,3.611c-0,3.01 -2.107,3.916 -4.819,3.916c-2.711,0 -4.52,-0.904 -4.52,-3.916l-0,-7.523l22.298,-0c-0.004,-8.126 -7.838,-14.747 -17.783,-14.747Zm0,2.707c2.712,0 4.821,1.808 4.821,4.817l0,2.707l-9.34,-0l0,-2.707c0,-3.009 1.809,-4.817 4.519,-4.817Z" style="fill:#fff;fill-rule:nonzero;"/>
            <path id="path19" d="M300.735,35.488c-9.946,-0 -17.779,6.62 -17.779,14.746c-0,8.428 7.83,15.048 17.779,15.048c9.635,0 17.773,-6.62 17.773,-15.048c-0.004,-8.125 -8.138,-14.746 -17.773,-14.746Zm-0,2.707c2.706,0 4.517,1.808 4.517,4.817l0,14.746c0,3.009 -1.811,3.913 -4.517,3.913c-3.013,0 -4.825,-0.904 -4.825,-3.913l0,-14.746c-0.002,-3.009 1.809,-4.817 4.825,-4.817Z" style="fill:#fff;fill-rule:nonzero;"/>
            <path id="path21" d="M266.081,23.449l0,14.746c0,0 -3.618,-2.707 -8.439,-2.707c-7.531,-0 -13.857,6.62 -13.857,13.843c-0,7.526 6.328,15.05 13.857,15.05c4.821,0 8.439,-1.806 8.439,-1.806l0,0.9l12.053,0l-0,-40.026l-12.053,-0Zm-4.52,16.554c2.711,-0 4.52,2.106 4.52,4.814l0,11.135c0,2.71 -1.809,3.612 -4.52,3.612c-3.011,0 -4.821,-0.901 -4.821,-3.612l0,-11.135c0,-2.708 1.81,-4.814 4.821,-4.814Z" style="fill:#fff;fill-rule:nonzero;"/>
        </g>
        <g>
            <path id="_x32_399_" serif:id="_x32_399" d="M35.591,111.83l0,-9.727c0,-1.844 -1.846,-3.69 -3.693,-3.69l-14.102,-0l0,13.417l4.366,0l0,-9.054c0,-0.671 0.502,-1.342 1.175,-1.342l6.714,0c0.672,0 1.344,0.672 1.344,1.342l0,9.054l4.196,0Z" style="fill:#fff;fill-rule:nonzero;"/>
            <path id="_x32_399_1_" d="M152.092,111.83l-0,-9.727c-0,-1.844 -1.847,-3.69 -3.692,-3.69l-14.103,-0l-0,13.417l4.363,0l0,-9.054c0,-0.671 0.506,-1.342 1.177,-1.342l6.715,0c0.673,0 1.341,0.672 1.341,1.342l0,9.054l4.199,0Z" style="fill:#fff;fill-rule:nonzero;"/>
            <path id="_x32_399_2_" d="M215.86,111.83l0,-9.727c0,-1.844 -1.845,-3.69 -3.693,-3.69l-14.102,-0l-0,13.417l4.363,0l0,-9.054c0,-0.671 0.503,-1.342 1.177,-1.342l6.714,0c0.672,0 1.343,0.672 1.343,1.342l-0,9.054l4.198,0Z" style="fill:#fff;fill-rule:nonzero;"/>
            <path id="_x33_177_" serif:id="_x33_177" d="M177.792,111.83l-0,-9.727c-0,-1.844 -1.847,-3.69 -3.695,-3.69l-18.971,-0l0,13.417l4.366,0l-0,-9.054c-0,-0.671 0.502,-1.342 1.173,-1.342l2.519,0c0.505,0 1.176,0.672 1.176,1.342l-0,9.054l4.367,0l-0,-9.054c-0,-0.671 0.501,-1.342 1.173,-1.342l2.519,0c0.503,0 1.175,0.672 1.175,1.342l0,9.054l4.198,0Z" style="fill:#fff;fill-rule:nonzero;"/>
            <path id="_x33_181_" serif:id="_x33_181" d="M14.775,111.83l-11.081,0c-1.846,0 -3.694,-1.173 -3.694,-3.016l0,-10.564l14.774,-0l0,3.186l-9.906,-0c-0.502,-0 -1.175,0.503 -1.175,1.175c0,0.671 0.673,1.174 1.175,1.174l9.234,-0l0,2.682l-9.234,0c-0.502,0 -1.175,0.672 -1.175,1.175c0,0.672 0.673,1.341 1.175,1.341l9.906,-0l0.001,2.847Z" style="fill:#fff;fill-rule:nonzero;"/>
            <path id="_x33_181_1_" d="M69.346,112l-11.08,0c-1.847,0 -3.695,-1.174 -3.695,-3.017l0,-10.567l14.775,0l0,3.187l-9.907,-0c-0.502,-0 -1.173,0.504 -1.173,1.176c-0,0.672 0.671,1.174 1.173,1.174l9.234,-0l-0,2.682l-9.234,-0c-0.502,-0 -1.173,0.671 -1.173,1.175c-0,0.672 0.671,1.341 1.173,1.341l9.907,-0l0,2.849Z" style="fill:#fff;fill-rule:nonzero;"/>
            <path id="_x33_181_2_" d="M195.657,111.83l-11.082,0c-1.846,0 -3.695,-1.173 -3.695,-3.016l-0,-10.564l14.776,-0l-0,3.186l-9.906,-0c-0.503,-0 -1.177,0.503 -1.177,1.175c-0,0.671 0.672,1.174 1.177,1.174l9.232,-0l-0,2.682l-9.232,0c-0.503,0 -1.177,0.672 -1.177,1.175c-0,0.672 0.672,1.341 1.177,1.341l9.906,-0l-0,2.85l0.001,-0l-0,-0.003Z" style="fill:#fff;fill-rule:nonzero;"/>
            <path id="_x32_391_" serif:id="_x32_391" d="M37.439,98.415l-0,3.019l4.365,0c1.175,0 1.175,0 1.175,1.342l0,9.054l4.197,0l-0,-9.054c-0,-1.342 -0,-1.342 1.343,-1.342l4.197,0l-0,-3.019l-15.277,0Z" style="fill:#fff;fill-rule:nonzero;"/>
            <path id="_x32_391_1_" d="M90.785,98.415l0,3.019l4.364,0c1.175,0 1.175,0 1.175,1.342l-0,9.054l4.197,0l-0,-9.054c-0,-1.342 -0,-1.342 1.344,-1.342l4.197,0l0,-3.019l-15.277,0Z" style="fill:#fff;fill-rule:nonzero;"/>
            <path id="_x32_391_2_" d="M218.32,98.415l0,3.019l4.365,0c1.176,0 1.176,0 1.176,1.342l0,9.054l4.196,0l0,-9.054c0,-1.342 0,-1.342 1.343,-1.342l4.197,0l-0,-3.019l-15.277,0Z" style="fill:#fff;fill-rule:nonzero;"/>
            <path id="path37" d="M72.359,98.415l0,13.418l4.365,-0l0,-2.347c0,-0.671 0.504,-1.344 1.175,-1.344l5.54,0c0.673,0 1.175,0.672 1.175,1.344l0,2.347l3.695,-0l-0,-3.691c-0,-0.5 -0.503,-1.172 -0.503,-1.843c-0,-0.501 1.175,-1.676 1.175,-3.016l0,-1.176c0,-1.175 -1.847,-3.691 -3.022,-3.691l-13.6,-0.001Zm5.54,3.019l5.54,0c0.673,0 1.175,0.672 1.175,1.342l-0,1.173c-0,0.672 -0.503,1.175 -1.175,1.175l-5.54,0c-0.671,0 -1.175,-0.502 -1.175,-1.175l0,-1.173c0.001,-0.669 0.504,-1.342 1.175,-1.342Z" style="fill:#fff;fill-rule:nonzero;"/>
            <path id="path39" d="M110.973,98.415c-1.175,0 -3.021,2.516 -3.021,3.692l0,9.726l4.364,-0l-0,-3.691l7.89,0l-0,3.691l4.364,-0l-0,-9.726c-0,-1.176 -1.846,-3.692 -3.19,-3.692l-10.407,0Zm2.518,3.019l5.54,0c0.502,0 1.175,0.672 1.175,1.342l-0,2.348l-7.89,-0l-0,-2.348c-0,-0.669 0.504,-1.342 1.175,-1.342Z" style="fill:#fff;fill-rule:nonzero;"/>
            <path id="path41" d="M131.79,111.831l0,-13.418l-4.196,0l0,13.418l4.196,0Z" style="fill:#fff;fill-rule:nonzero;"/>
            <path id="_x33_177_1_" d="M352,111.813l-0,-9.726c-0,-1.845 -1.847,-3.691 -3.696,-3.691l-18.969,0l-0,13.417l4.363,0l0,-9.054c0,-0.672 0.503,-1.343 1.175,-1.343l2.518,-0c0.504,-0 1.177,0.671 1.177,1.343l0,9.053l4.363,0l0,-9.053c0,-0.672 0.502,-1.343 1.174,-1.343l2.519,-0c0.504,-0 1.178,0.671 1.178,1.343l-0,9.053l4.196,0l0.002,0.001Z" style="fill:#fff;fill-rule:nonzero;"/>
            <path id="_x33_181_3_" d="M326.329,111.813l-11.081,0c-1.847,0 -3.693,-1.174 -3.693,-3.016l0,-10.566l14.773,-0l-0,3.187l-9.905,-0c-0.503,-0 -1.175,0.502 -1.175,1.173c-0,0.672 0.672,1.174 1.175,1.174l9.233,0l0,2.683l-9.233,0c-0.503,0 -1.175,0.672 -1.175,1.175c-0,0.672 0.672,1.341 1.175,1.341l9.905,-0l0.001,2.849Z" style="fill:#fff;fill-rule:nonzero;"/>
            <path id="_x32_391_3_" d="M294.421,98.396l0,3.018l4.365,-0c1.175,-0 1.175,-0 1.175,1.342l-0,9.054l4.196,-0l0,-9.054c0,-1.342 0,-1.342 1.346,-1.342l4.195,-0l-0,-3.018l-15.277,0Z" style="fill:#fff;fill-rule:nonzero;"/>
            <path id="_x33_187_" serif:id="_x33_187" d="M244.697,98.467c-1.175,-0 -3.694,1.845 -3.694,3.017l0,1.846c0,1.174 2.519,3.018 3.694,3.018l7.387,-0c0.672,-0 1.343,0.671 1.343,1.174c-0,0.671 -0.672,1.34 -1.343,1.34l-11.081,0l0,3.018l12.424,0c1.175,0 3.525,-1.844 3.525,-3.018l0,-1.844c0,-1.342 -2.35,-3.187 -3.525,-3.187l-7.387,-0c-0.672,-0 -1.343,-0.503 -1.343,-1.175c0,-0.671 0.672,-1.175 1.343,-1.175l10.912,0l0,-3.016l-12.255,0l0,0.002Z" style="fill:#fff;fill-rule:nonzero;"/>
            <path id="_x33_187_1_" d="M280.261,98.467c-1.176,-0 -3.695,1.845 -3.695,3.017l0,1.846c0,1.174 2.519,3.018 3.695,3.018l7.387,-0c0.671,-0 1.343,0.671 1.343,1.174c-0,0.671 -0.673,1.34 -1.343,1.34l-11.082,0l0,3.018l12.424,0c1.176,0 3.526,-1.844 3.526,-3.018l-0,-1.844c-0,-1.342 -2.35,-3.187 -3.526,-3.187l-7.387,-0c-0.672,-0 -1.342,-0.503 -1.342,-1.175c-0,-0.671 0.671,-1.175 1.342,-1.175l10.913,0l-0,-3.016l-12.255,0l0,0.002Z" style="fill:#fff;fill-rule:nonzero;"/>
            <path id="path48" d="M258.296,98.467l-0,6.039c-0,1.174 1.845,3.018 3.022,3.018l3.02,-0l-0,4.359l4.365,-0l0,-4.359l3.022,-0c1.174,-0 3.021,-1.844 3.021,-3.018l0,-6.039l-4.197,-0l-0,4.865c-0,0.501 -0.671,1.174 -1.343,1.174l-5.372,0c-0.672,0 -1.343,-0.672 -1.343,-1.174l-0,-4.865l-4.195,-0Z" style="fill:#fff;fill-rule:nonzero;"/>
        </g>
    </g>
</svg>
