<svg data-name="Warstwa 1" xmlns="http://www.w3.org/2000/svg" viewBox="0 0 264.07 95.8">
    <path d="M132.1 0h99.47a32.54 32.54 0 0 1 3.81 64.86 30.63 30.63 0 0 1-3.7.23H32.38A32.56 32.56 0 0 1 27.61.34 30.26 30.26 0 0 1 32.27 0Zm-.06 7.7H32.93a28.45 28.45 0 0 0-5.12.48 24.83 24.83 0 0 0 5.12 49.25h198.2a29.29 29.29 0 0 0 5.12-.48 24.83 24.83 0 0 0-5-49.2Zm125.24 76.23h-3.34V78c0-1.69-.18-1.86-1.85-1.86s-1.76.19-1.77 1.81v5.94h-3.21v-10c.44 0 .83-.05 1.22-.05h12.36c2.29 0 3.35 1.07 3.35 3.38v6.66h-3.14v-6.12c0-.52-.34-1.39-.67-1.46a6.24 6.24 0 0 0-2.54.11c-.2 0-.35.75-.36 1.16-.05 2.08-.05 4.16-.05 6.36Zm-137.78 0h-3v-10c.34 0 .69-.09 1-.09h12.48c2.25 0 3.4 1.16 3.41 3.39s0 4.38 0 6.66h-3.26v-5.82c0-1.77-1.33-2.64-2.91-1.81a1.74 1.74 0 0 0-.61 1.28c-.06 2.07 0 4.15 0 6.42-1 0-1.9.05-2.79 0-.2 0-.5-.55-.51-.85v-5.28c0-1.41-.3-1.66-1.83-1.66s-1.78.21-1.79 1.68v5.76a2.09 2.09 0 0 1-.19.32Zm-53.22-.01h-2.63c-.08-.12-.15-.18-.15-.25-.08-2.54.11-2.52-2.68-2.49h-.36c-3 0-2.74-.35-3 2.8h-3.09V73.85h3.7a42.07 42.07 0 0 0 5.27 0 3.14 3.14 0 0 1 3.29 4.1c-.67 1.66-.3 3.16-.36 4.74.01.34.01.74.01 1.23Zm-5.74-5h1.74c.9 0 1.16-.48 1.14-1.29s-.14-1.48-1.14-1.49-2.15 0-3.22 0-1.5.4-1.51 1.48.61 1.32 1.53 1.28c.49-.03.97-.01 1.45-.01Zm32.88 4.99h-3.23v-2.64h-5.91v2.61h-3.31c0-2.2-.07-4.42 0-6.64a4.27 4.27 0 0 1 .88-2.37 3.09 3.09 0 0 1 2-1c2.19-.12 4.39-.05 6.59 0a3 3 0 0 1 2.91 2.64c.12 2.41.07 4.85.07 7.4Zm-3.4-5.1c.43-2.23.08-2.67-2-2.67h-2.54a1.07 1.07 0 0 0-1.2 1.17v1.5Zm45.77-5.04h10.91v2.37h-6.14a2.71 2.71 0 0 0-1.07 0 4.3 4.3 0 0 0-1 .86c.33.26.66.75 1 .76 1.76.08 3.52 0 5.27 0h1.4v2.1h-5.47a2.93 2.93 0 0 0-1.07 0 5.91 5.91 0 0 0-1.13.82c.37.32.74.91 1.13.93 1.83.1 3.67.05 5.51.05h1.51v2.12c-3 0-5.93.1-8.86-.05-1.5-.07-2.12-1-2.13-2.54v-7.07a2.7 2.7 0 0 1 .14-.35ZM10.55 77.84v2.1H4.37c-.64 0-1.5 0-1.48.94s.74.89 1.42.89h6.75v2.13c-.33 0-.67.07-1 .07H3.23c-2.27 0-3.19-.85-3.19-3.14v-7h11v2.33H4.75c-.75 0-1.86-.26-1.84.91s1.12.75 1.81.77c1.88.03 3.79 0 5.83 0Zm234.22-4.06v2.36h-6a2.67 2.67 0 0 0-1.06 0 5.49 5.49 0 0 0-1.11.82c.36.28.71.79 1.08.81 1.75.09 3.51 0 5.27 0h1.33v2.1h-6.24c-.67 0-1.42 0-1.44.85s.74 1 1.46 1h6.67v2.09c-3 0-5.95.06-8.93 0a2 2 0 0 1-2-1.87c-.08-2.7 0-5.41 0-8.18ZM52 73.92v2.38h-6.14a2.87 2.87 0 0 0-1.06 0 5.1 5.1 0 0 0-1.05.78c.36.3.7.83 1.07.85 1.83.09 3.67 0 5.51 0h1.16v2c-.49 0-1 .09-1.56.1-1.64 0-3.28-.05-4.92 0-.43 0-.83.54-1.25.83.42.33.82.93 1.25.95 1.87.11 3.75.05 5.63.05H52v2.09c-3 0-6 .07-9 0a2 2 0 0 1-2-1.87c-.1-2.7 0-5.41 0-8.19Zm99.91 10h-3.23v-10c.31 0 .65-.09 1-.09h9a3 3 0 0 1 3.33 3.34v6.68h-3.26V77.9c0-1.58-.2-1.78-1.81-1.78h-3.59c-1 0-1.44.43-1.43 1.44.01 2.08-.01 4.15-.01 6.36Zm67.45-9.99v2.28h-7.1c-.74 0-1.9-.3-1.9.84s1.16.84 1.91.86h3.95a3.045 3.045 0 1 1 0 6.09h-8.69v-2.34h7.19c.79 0 2 .29 2-.92s-1.2-.91-2-.93h-4.19a2.93 2.93 0 0 1-.36-5.85c3.01-.08 6.04-.03 9.19-.03Zm-26.64 0v2.28h-7.23c-.7 0-1.78-.29-1.8.82s1 .87 1.76.88h4.2a3 3 0 0 1 3.14 3 3 3 0 0 1-3.11 3.06h-8.83v-2.34h4.85a22.91 22.91 0 0 0 3 0c.5-.06 1.28-.49 1.33-.83.09-.78-.65-1-1.33-1h-4.92a3 3 0 0 1-3-3.17 3 3 0 0 1 2.74-2.68c3.03-.06 6.06-.02 9.2-.02ZM16.63 83.91h-3.27v-10c.4 0 .78-.09 1.16-.09h8.88c2.19 0 3.3 1.14 3.31 3.33v6.7h-3.18v-5.69c0-1.87-.18-2-2-2h-3.36c-1.12 0-1.51.47-1.5 1.52-.02 2.03-.04 4.1-.04 6.23Zm87.43-.01h-3.25v-9.95a9.6 9.6 0 0 1 1-.1h9a3 3 0 0 1 3.29 3.24v5.75c0 .89-.24 1.25-1.15 1.15a20.28 20.28 0 0 0-2.08 0V78.1c0-1.74-.2-1.95-1.9-1.95h-3.6c-1 0-1.38.41-1.37 1.37v5Zm98.92-9.91h3.15c0 1.57.08 3.08 0 4.58a2.64 2.64 0 0 1-2.53 2.13h-1.88v3.23h-3.44V80.7h-1.74a2.62 2.62 0 0 1-2.8-2.85v-3.86h3.17v2.94c0 .94.37 1.5 1.39 1.48s2.16 0 3.24 0 1.43-.5 1.41-1.48.03-1.9.03-2.94Zm-20.02 13.95c.26 1.19.51 2.35.77 3.51h.2l.57-3.52h2.55c-.28 1.88-.54 3.71-.82 5.54-.33 2.1-1 2.57-3.16 2.07a1 1 0 0 1-.57-.61 10.22 10.22 0 0 0-.57-1.79l-.55 2.36c-.27 0-.51.06-.74.06h-2.49l-.61-3.81c-.2-1.26-.39-2.52-.6-3.84h2.59c.18 1.26.36 2.48.54 3.69h.16l.82-3.7Zm-34.68-.01c.14 2.57.29 5 .43 7.54h-2.55c-.07-1-.15-2-.22-3h-.15c-.18.68-.4 1.35-.53 2s-.36 1.1-1.22 1.08-1.15-.26-1.25-1.05a5.14 5.14 0 0 0-.66-1.86c-.09.89-.18 1.79-.27 2.78h-2.58c.15-2.49.3-4.94.45-7.5H143l.85 3.27.21.05c.31-1.12.61-2.24.92-3.37Zm80-4.01h-3.26v-6.5c0-1-.22-1.39-1.26-1.3s-1.82 0-2.81 0v-2.18h11.33v2.18a20 20 0 0 1-2.57 0c-1.28-.17-1.56.38-1.51 1.55.08 2.03.08 4.07.08 6.25ZM39.53 73.94v2.2h-1.84c-2.56 0-2.25-.36-2.26 2.33v5.43h-3.22v-6.6c0-.88-.24-1.24-1.15-1.18s-1.9 0-2.92 0v-2.2Zm131.58 9.97h-3.17v-6.13c0-1.64 0-1.64-1.64-1.64h-2.45v-2.19h11.35v2.19h-3c-.83 0-1.13.28-1.12 1.1.05 2.19.03 4.37.03 6.67Zm-98.83-.01v-6.34c0-1.07-.24-1.56-1.39-1.44a26.61 26.61 0 0 1-2.69 0v-2.18h11.27v2.18a25.21 25.21 0 0 1-2.61 0c-1.19-.12-1.5.38-1.45 1.5.08 2.07 0 4.14 0 6.28Zm83.88 11.66v-7.67c1.57 0 3.08-.06 4.59 0 1.19.07 1.77 1.13 1.39 2.39a7 7 0 0 1-.63 1.2 2.05 2.05 0 0 1 1 2.71 2.23 2.23 0 0 1-1.45 1.29 46 46 0 0 1-4.9.08Zm2.56-1.54a13.3 13.3 0 0 0 1.31-.75s-.14-.57-.31-.63a3 3 0 0 0-1 0Zm-75.28-6.06v7.52h-2.45v-2.51h-1.77v2.53h-2.51v-7.53h2.46v2.52h1.77v-2.53Zm48.09 3.78v-.48c0-1.28.19-2.56 1.49-3.16a4.76 4.76 0 0 1 4.49.14 2.24 2.24 0 0 1 1 1.43 13.33 13.33 0 0 1 .12 3.78c-.29 1.84-1.62 2.5-4.08 2.32a2.83 2.83 0 0 1-3-2.83v-1.2Zm2.66 2c.77-.38 1.8.35 1.92-.91.08-1 0-2 0-2.92-1.85-.27-1.93-.21-1.93 1.41Zm29.34-5.86h3.56c1.15 0 2.14.1 2.61 1.25a3.44 3.44 0 0 1-.32 3.52 5.5 5.5 0 0 1-.42.45l1.09 2.31c-2.14.86-3.14-.35-3.76-2.25l-.31.23-.12 2.12h-2.33Zm2.86 1.76-.39.31v1.32l.28.26 1-.83Zm-76.62-1.67 2 7.54h-2.54c-.15-1-.82-1.34-1.82-1.12-.18 0-.49.09-.51.2-.43 1.77-1.8.68-3 1.09.38-1.51.71-2.8 1-4.09 0-.19.09-.38.14-.58.93-3.45.94-3.45 4.73-3.04Zm36.57 5v2.51h-2.39v-7.52h2.33v2.47h1.87v-2.52h2.42v7.56h-2.29l-.12-2.54Zm-14.88-5.27-.33 2.24h-2.91v.34c.4.09.8.2 1.21.27 2 .3 2.79 1.38 2.44 3.21-.2 1-.73 1.83-1.85 1.89-1.49.08-3 0-4.63 0l.31-2.12h3.49l.07-.33a7.75 7.75 0 0 0-1.22-.3c-2.25-.24-3.36-2.17-2.2-4.11a2.84 2.84 0 0 1 1.85-1.06 28.23 28.23 0 0 1 3.77-.03Zm-6.62 7.73c-2.35.86-3.25-.45-4-2.26v2.36H98.4V88h2.33v2.19l.25.07c.38-.75.58-1.77 1.19-2.17s1.61-.16 2.65-.21c-.52 1.11-1 2-1.38 3a2.57 2.57 0 0 0 0 1.62 31.83 31.83 0 0 0 1.4 2.93Zm66.22-7.51h5.38l-.25 1.74c-.9.15-1.77.28-2.63.46a4.46 4.46 0 0 0 0 .71l2.29.11v1.76h-1.75c-.21 0-.4.25-.6.39.21.16.41.45.63.47.75.06 1.5 0 2.31 0v1.88h-5.42Zm-16 5.68v1.89h-5.39v-7.53h5.35l-.24 1.79-2.49.12c-.26.67-.15 1 .61 1h1.62v1.82a16.13 16.13 0 0 0-1.7 0c-.23 0-.43.31-.64.47.2.14.39.37.6.39.71.08 1.43.05 2.28.05ZM95.78 73.85h3.07v10.06h-3.07Zm1.73 14.18-.33 1.63c-.11.06-.18.13-.25.14-.76.09-2.07 0-2.19.29a8.48 8.48 0 0 0-.23 3c0 .17.41.47.64.48a21.48 21.48 0 0 0 2.15-.11l.2 1.87c-1.84.73-4.07.47-4.91-.53-1-1.18-1.11-4.54-.2-5.94.78-1.16 2.63-1.51 5.12-.83Zm21.09.95v1.75l1.84.13v1.74l-1.82.12v1.78h-1.73l-.14-1.77-1.75-.12v-1.73l1.71-.14.21-1.76Z" fill="#fff"/>
    <path d="M58.05 47.64h-8.63c-.34 0-.74-.54-1-.91q-6.26-9.64-12.49-19.32c-.21-.32-.44-.63-.84-1.21v21.4h-9v-30h8.69a1.54 1.54 0 0 1 1.5.83c3.89 6.18 7.82 12.35 11.73 18.52.25.38.52.76 1 1.44V17.64h9Zm141.54-19.21v-10.8h9v30c-.43 0-.85.07-1.27.07a37.05 37.05 0 0 1-5.87-.06c-2.08-.33-3.94.22-5.9.57-5.93 1.07-11.3-2.93-12.54-9.26a10.58 10.58 0 0 1 8.39-12.1 10.26 10.26 0 0 1 6.74 1Zm-7 9.35v4c.06 1.81.76 2.62 2.57 2.85a8.24 8.24 0 0 0 1.79 0c1.79-.17 2.6-1 2.62-2.79 0-2.72.06-5.43 0-8.15 0-2.26-1.44-3.69-3.42-3.68s-3.47 1.43-3.55 3.71c-.01 1.38.03 2.71.02 4.1ZM77.84 27.36h9l.15 1.9c1-.52 1.83-1 2.69-1.45 5.18-2.87 11.17-.63 14.24 4a3 3 0 0 1 .55 1.56v14.2c-.38 0-.68.11-1 .11h-7.2c-.89 0-1.17-.24-1.16-1.15V34.42a3.76 3.76 0 0 0-4.72-3.49 7.31 7.31 0 0 0-2.52 1.31 3.13 3.13 0 0 0-1 2c-.09 4 0 8 0 12v1.35h-9Zm102.21 20.95h-9.23v-13.2a3.84 3.84 0 0 0-4.76-3.5 10.91 10.91 0 0 0-1.86.81 2.92 2.92 0 0 0-1.72 3c.1 3.84 0 7.68 0 11.52v1.37h-9V28.1h9l.09 1.9c1-.57 2-1.1 2.9-1.59a10.82 10.82 0 0 1 14.15 4.28 3.89 3.89 0 0 1 .51 1.93V47.7a5.7 5.7 0 0 1-.08.61Zm45.5.71a14.82 14.82 0 0 1-8.37-2.48c-6.5-4.39-6.57-12.88-.14-17.38a15.46 15.46 0 0 1 17.83.58c5.31 4.26 5.49 11.28.39 15.8a14.7 14.7 0 0 1-9.71 3.48Zm-3.52-11.29v5.76a2.43 2.43 0 0 0 2.36 2.66 8.53 8.53 0 0 0 2 .05 2.49 2.49 0 0 0 2.57-2.73c0-3.8.06-7.6 0-11.4a3.2 3.2 0 0 0-3.53-3.37 3.25 3.25 0 0 0-3.41 3.52c-.01 1.83.01 3.67.01 5.51Zm-81.86 2.93h9.25a11.44 11.44 0 0 1-.4 1.21 11.21 11.21 0 0 1-4.11 4.73 15.33 15.33 0 0 1-17.62-.75c-5.53-4.49-5.44-11.93.2-16.26 6.22-4.78 16.07-3.66 20.49 2.33a8.37 8.37 0 0 1 1.78 5.78h-16.48v6.6a1.72 1.72 0 0 0 .32.77c.66 1.06 2.53 1.5 4.4 1a2.58 2.58 0 0 0 2.14-2.67c.06-.86.03-1.77.03-2.74Zm-6.95-6.42h6.89c.13-1.94.3-3.82-1.57-5a3.41 3.41 0 0 0-3.95 0c-1.79 1.29-1.37 3.19-1.37 5Zm-14.06-9.66h4.68v2.73h-4.63v20.23h-9.31v-20.2h-4.71v-2.76h4.66v-4.25h9.31Zm-55.3 2.76h8.84v20.21h-8.84Zm-.01-4.36v-5.42h8.88v5.42Z" fill="#fff"/>
</svg>
