<?xml version="1.0" encoding="UTF-8"?>
<svg width="510px" height="112px" viewBox="0 0 510 112" version="1.1" xmlns="http://www.w3.org/2000/svg" xmlns:xlink="http://www.w3.org/1999/xlink">
    <title>ngp</title>
    <g id="Page-1" stroke="none" stroke-width="1" fill="none" fill-rule="evenodd" opacity="0.78">
        <g id="SNK-NeoGeo-Pocket" transform="translate(-64.000000, -4.000000)" fill="#FFFFFF" fill-rule="nonzero">
            <g id="ngp" transform="translate(64.000000, 4.000000)">
                <path d="M30.56685,97.7647182 L30.50565,60.590311 L35.35065,60.590311 L35.35065,105.102806 L30.50565,105.102806 L4.7226,67.626868 L4.84245,105.102806 L0,105.102806 L0,60.590311 L5.0847,60.590311 L30.56685,97.7647182 L30.56685,97.7647182 Z M40.7592,60.590311 L64.5252,60.590311 L64.5252,64.9815077 L45.72405,64.9815077 L45.72405,80.4406488 L64.40535,80.4406488 L64.40535,84.8318455 L45.72405,84.8318455 L45.72405,100.711609 L64.5252,100.711609 L64.5252,105.102806 L40.7592,105.102806 L40.7592,60.590311 L40.7592,60.590311 Z M66.78705,82.9669172 C66.78705,69.2536126 77.50215,59.8073451 90.15525,59.8073451 C103.2903,59.8073451 113.5209,69.7933269 113.5209,82.8452914 C113.5209,95.8997898 103.3515,105.885772 90.15525,105.885772 C76.8978,105.885772 66.78705,95.7198851 66.78705,83.0277301 L66.78705,82.9669172 L66.78705,82.9669172 Z M71.81055,82.8452914 C71.81055,93.3127085 79.74105,101.494575 90.2139,101.494575 C100.80915,101.494575 108.5586,93.0137119 108.5586,82.8452914 C108.5586,72.6794049 100.80915,64.1985419 90.15525,64.1985419 C79.6212,64.1985419 71.81055,72.4995001 71.81055,82.7844786 L71.81055,82.8452914 L71.81055,82.8452914 Z M154.8717,72.1396906 C153.509191,70.242469 151.806203,68.6112416 149.8482,67.3278714 C146.9412,65.3413173 143.42985,64.1985419 139.43655,64.1985419 C129.62925,64.1985419 121.0944,71.6582553 121.0944,82.7844786 C121.0944,94.0931405 129.69045,101.552854 139.4952,101.552854 C144.2178,101.552854 148.3947,99.931177 151.48275,97.5240005 C154.632,95.0560111 156.8097,91.6884978 157.53645,88.1968249 L133.15335,88.1968249 L133.15335,84.1071587 L163.3479,84.1071587 C163.2867,86.69424 162.68235,89.9426614 161.3487,92.7096475 C157.47525,101.071419 148.51455,105.944051 139.4952,105.944051 C126.42135,105.944051 116.06835,95.9580688 116.06835,82.7844786 C116.06835,69.4309835 126.6024,59.8048113 139.5564,59.8048113 C148.63695,59.8048113 157.05195,64.859882 160.5633,72.1371567 L154.8717,72.1371567 L154.8717,72.1396906 L154.8717,72.1396906 Z M165.75,60.590311 L190.56915,60.590311 L190.56915,64.9815077 L170.71485,64.9815077 L170.71485,80.4406488 L190.44675,80.4406488 L190.44675,84.8318455 L170.71485,84.8318455 L170.71485,100.711609 L190.56915,100.711609 L190.56915,105.102806 L165.75,105.102806 L165.75,60.590311 Z M192.5658,82.9669172 C192.5658,69.2536126 203.2809,59.8073451 215.934,59.8073451 C229.06905,59.8073451 239.29965,69.7933269 239.29965,82.8452914 C239.29965,95.8997898 229.13025,105.885772 215.934,105.885772 C202.67655,105.885772 192.5658,95.7198851 192.5658,83.0277301 L192.5658,82.9669172 L192.5658,82.9669172 Z M197.59185,82.8452914 C197.59185,93.3127085 205.5198,101.494575 215.99265,101.494575 C226.5879,101.494575 234.3348,93.0137119 234.3348,82.8452914 C234.3348,72.6794049 226.5879,64.1985419 215.934,64.1985419 C205.39995,64.1985419 197.59185,72.4995001 197.59185,82.7844786 L197.59185,82.8452914 L197.59185,82.8452914 Z M294.58365,82.9669172 C294.58365,69.2536126 305.29875,59.8073451 317.95185,59.8073451 C331.08945,59.8073451 341.32005,69.7933269 341.32005,82.8452914 C341.32005,95.8997898 331.15065,105.885772 317.95185,105.885772 C304.6944,105.885772 294.58365,95.7198851 294.58365,83.0277301 L294.58365,82.9669172 L294.58365,82.9669172 Z M299.60715,82.8452914 C299.60715,93.3127085 307.53765,101.494575 318.01305,101.494575 C328.60575,101.494575 336.3552,93.0137119 336.3552,82.8452914 C336.3552,72.6794049 328.6083,64.1985419 317.95185,64.1985419 C307.42035,64.1985419 299.60715,72.4995001 299.60715,82.7844786 L299.60715,82.8452914 Z M391.32045,93.1328038 C388.416,99.9919899 380.6079,105.888305 370.7394,105.888305 C357.48195,105.888305 347.37375,95.7198851 347.37375,82.8478253 C347.37375,70.1556703 357.2397,59.809879 370.6782,59.809879 C381.7554,59.809879 388.7169,67.1479666 391.32045,72.8035645 L385.9323,72.8035645 C384.4176,70.1556703 379.3329,64.2010758 370.6782,64.2010758 C360.20535,64.2010758 352.33605,72.4412211 352.33605,82.7870124 C352.33605,93.3152424 360.264,101.494575 370.6782,101.494575 C380.0622,101.494575 384.84345,94.8178273 385.9323,93.1328038 L391.32045,93.1328038 L391.32045,93.1328038 Z M440.4768,60.590311 L465.2985,60.590311 L465.2985,64.9815077 L445.4442,64.9815077 L445.4442,80.4406488 L465.1761,80.4406488 L465.1761,84.8318455 L445.4442,84.8318455 L445.4442,100.711609 L465.2985,100.711609 L465.2985,105.102806 L440.4768,105.102806 L440.4768,60.590311 L440.4768,60.590311 Z M490.47975,64.9815077 L476.0442,64.9815077 L476.0442,60.590311 L510,60.590311 L510,64.9815077 L495.5058,64.9815077 L495.5058,105.102806 L490.47975,105.102806 L490.47975,64.9815077 L490.47975,64.9815077 Z M427.82115,105.102806 L434.0559,105.102806 L410.78205,82.7844786 L432.17655,60.5877771 L426.72975,60.5877771 L403.2468,84.7228891 L403.2468,60.590311 L398.28195,60.590311 L398.28195,105.102806 L403.2468,105.102806 L403.2468,90.5963999 L407.8164,85.8529952 L427.82115,105.102806 L427.82115,105.102806 Z M272.38845,108.505793 C262.6398,89.2382455 252.91665,70.0239091 243.1884,50.7943694 C243.24195,50.7563614 243.2853,50.7208872 243.33375,50.6955485 C245.76135,49.4615538 248.18895,48.230093 250.614,46.9960983 C254.0412,45.2578634 257.4735,43.5272302 260.89815,41.7788599 C264.49875,39.9392702 268.28295,38.8345029 272.36805,38.9662641 C275.1501,39.0549496 277.69755,39.8581864 279.93645,41.5533454 C281.91015,43.0508626 283.305,44.9943409 284.376,47.1912063 C285.3909,49.2740474 286.1151,51.445574 286.1559,53.7843361 C286.21455,57.0352913 285.22515,59.9745806 283.47075,62.7035586 C282.29775,64.527945 280.95645,66.2079008 279.3831,67.6952825 C278.29935,68.718966 277.14165,69.6640995 276.01965,70.6447072 C271.90905,67.7459599 267.8877,64.9130932 263.8485,62.0675572 L266.13075,53.7640651 L277.7715,53.7640651 L277.7715,44.9816716 C271.76115,45.0399506 265.8171,45.0956957 259.87305,45.1539747 C257.7081,51.2352628 255.55335,57.2810767 253.39605,63.33956 C260.355,69.0585046 267.28845,74.7571783 274.22955,80.4634536 C276.98865,79.4169653 279.60495,78.1297593 282.06825,76.5410228 C285.9927,74.0071528 289.26435,70.824612 291.66645,66.8160296 C293.90025,63.0887068 295.0197,59.029447 295.0809,54.6939954 C295.11915,52.0080932 294.7086,49.3830038 293.913,46.8085919 C292.85985,43.3954689 291.22785,40.3092153 288.7365,37.722134 C284.07,32.8647051 278.34525,30.254819 271.57245,30.0141013 C267.56895,29.8747385 263.7822,30.7717285 260.20965,32.555573 C258.6006,33.3588098 257.0247,34.2279272 255.4029,35.0083591 C251.7972,36.7415262 248.1711,38.4392192 244.55265,40.1470476 C241.3626,41.6547002 238.17,43.1547513 234.97995,44.6573362 C233.9013,45.1666441 232.8201,45.675952 231.74145,46.1877937 C242.5764,68.1412437 253.40115,90.0718888 264.21825,112 L272.38845,108.505793 L272.38845,108.505793 Z" id="Shape"></path>
                <path d="M273.306044,108.493484 C270.588129,109.668256 267.925837,110.822685 265.202865,112 C254.471732,89.9837624 243.737444,67.9690805 233,45.9559551 C234.071996,45.4448531 235.141464,44.9312083 236.210932,44.422649 C239.376354,42.9122281 242.539249,41.4068928 245.704671,39.8939291 C249.289791,38.1800845 252.885023,36.476411 256.462557,34.7371384 C258.068023,33.9565 259.630508,33.0843209 261.225861,32.2757118 C264.767999,30.4855833 268.522514,29.5854334 272.491934,29.72783 C279.207079,29.9668528 284.883097,32.5859329 289.512401,37.4604731 C291.980014,40.056668 293.598122,43.1537938 294.644835,46.5789402 C295.433662,49.1624211 295.840718,51.7993007 295.802793,54.4946647 C295.739586,58.8428461 294.632194,62.9164056 292.417409,66.6568587 C290.033229,70.6795623 286.791958,73.8733143 282.898387,76.4186532 C280.456056,78.0104436 277.862027,79.3021841 275.128943,80.3523589 C268.24693,74.6259819 261.369974,68.9072333 254.470262,63.1681424 C256.609198,57.0883168 258.745606,51.0212051 260.894654,44.9210371 C266.788105,44.8625528 272.681556,44.8040685 278.640742,44.748127 L278.640742,53.5589157 L267.099085,53.5589157 C266.345654,56.3331063 265.594751,59.0996685 264.833735,61.8942015 L276.903804,70.4990237 C278.016253,69.5175044 279.164098,68.5664987 280.238623,67.539209 C281.796051,66.0465877 283.125933,64.3632566 284.291476,62.5299006 C286.028413,59.7913091 287.009391,56.8416655 286.953768,53.579258 C286.910787,51.2322572 286.195281,49.0556237 285.18902,46.9629024 C284.129665,44.7582981 282.741633,42.8079735 280.784734,41.3051809 C278.567421,39.6065931 276.039128,38.8005267 273.283289,38.7089861 C269.232964,38.5767607 265.480978,39.6854198 261.911028,41.5314898 C258.515531,43.2860192 255.112449,45.0227489 251.711895,46.7696499 C249.307489,48.0054488 246.900554,49.2437906 244.496147,50.4821323 C244.44811,50.5075603 244.402601,50.5431594 244.349506,50.5787586 C254,69.8760387 263.64038,89.158062 273.306044,108.493484 L273.306044,108.493484 Z M280.12485,23.7954865 L274.395738,22.6080007 C275.5183,15.0762385 276.638334,7.54701903 277.763424,0 C281.272694,0.513644826 284.749097,1.02728965 288.278594,1.54602007 C285.555622,8.98115606 282.845293,16.3730645 280.12485,23.7954865 L280.12485,23.7954865 Z M311.432699,17.652091 C313.296051,20.6856468 315.131592,23.6810607 317,26.7247877 C310.916928,30.5110112 304.836383,34.2946919 298.740669,38.0910866 C297.461353,36.1712755 296.20732,34.2870635 294.922947,32.3570812 C300.421984,27.4596558 305.910908,22.5724016 311.432699,17.652091 Z M296.743318,5.81537484 C299.433422,7.68433002 302.075488,9.52277165 304.727667,11.3662989 C299.931611,17.1206075 295.134597,22.8741077 290.336624,28.6267993 L285.267397,25.4788176 C289.077534,18.9540026 292.892728,12.4113881 296.743318,5.81537484 L296.743318,5.81537484 Z" id="Shape"></path>
            </g>
        </g>
    </g>
</svg>