<?xml version="1.0" encoding="UTF-8"?>
<svg width="379px" height="112px" viewBox="0 0 379 112" version="1.1" xmlns="http://www.w3.org/2000/svg" xmlns:xlink="http://www.w3.org/1999/xlink">
    <title>ngpc</title>
    <g id="Page-1" stroke="none" stroke-width="1" fill="none" fill-rule="evenodd" opacity="0.78">
        <g id="SNK-NeoGeo-Pocket-Color" transform="translate(-131.000000, -4.000000)" fill-rule="nonzero">
            <g id="ngpc" transform="translate(131.000000, 4.000000)">
                <path d="M143.225995,104.003656 C141.854015,108.672929 137.45951,112 132.181935,112 C125.28603,112 120.34387,106.5364 120.34387,100.250038 C120.34387,94.2385619 125.011255,88.5607407 132.151615,88.5607407 C138.64957,88.5929687 142.34103,93.3835712 143.225995,96.6803094 L138.435435,96.6803094 C137.734285,95.123885 135.721795,92.5911407 132.121295,92.5608084 C127.72679,92.5608084 124.889975,96.2518661 124.889975,100.251934 C124.889975,104.371435 127.849965,108.00562 132.151615,108.00562 C136.17849,108.00562 138.00906,104.83021 138.435435,104.005552 L143.225995,104.003656 Z M155.399475,100.462364 C155.399475,93.230014 160.951825,88.5588449 167.23754,88.5588449 C174.07091,88.5588449 179.105925,93.8688874 179.105925,100.278475 C179.105925,106.688062 174.10123,111.998104 167.20722,111.998104 C160.280995,111.998104 155.399475,106.534505 155.399475,100.492696 L155.399475,100.462364 L155.399475,100.462364 Z M159.94558,100.28037 C159.94558,104.401767 162.90557,108.001828 167.29818,108.001828 C171.8765,108.001828 174.55982,104.033988 174.55982,100.310703 C174.55982,96.5267523 171.8765,92.5570169 167.26786,92.5570169 C162.752075,92.5570169 159.94558,96.2803026 159.94558,100.250038 L159.94558,100.28037 L159.94558,100.28037 Z M192.530105,88.9872882 L197.07621,88.9872882 L197.07621,107.575281 L204.48945,107.575281 L204.48945,111.573452 L192.530105,111.573452 L192.530105,88.9872882 L192.530105,88.9872882 Z M215.668055,100.462364 C215.668055,93.230014 221.220405,88.5588449 227.504225,88.5588449 C234.33949,88.5588449 239.374505,93.8688874 239.374505,100.278475 C239.374505,106.688062 234.36981,111.998104 227.473905,111.998104 C220.549575,111.998104 215.668055,106.534505 215.668055,100.492696 L215.668055,100.462364 L215.668055,100.462364 Z M220.21416,100.28037 C220.21416,104.401767 223.17415,108.001828 227.564865,108.001828 C232.143185,108.001828 234.826505,104.033988 234.826505,100.310703 C234.826505,96.5267523 232.14129,92.5570169 227.53644,92.5570169 C223.020655,92.5570169 220.21416,96.2803026 220.21416,100.250038 L220.21416,100.28037 Z M257.918975,88.9872882 C260.458275,89.0517443 262.701955,89.1825522 264.722025,90.8754718 C265.252166,91.3133823 265.712838,91.8292114 266.08832,92.4053555 C267.13057,94.0034869 267.227215,95.7911948 267.227215,96.4111105 C267.227215,96.9627787 267.162785,98.4945581 266.317615,99.8955297 C266.08832,100.251934 265.79649,100.741042 265.112395,101.359062 C264.36387,102.011205 263.58313,102.367609 263.289405,102.498417 C262.736065,102.725909 262.182725,102.888945 260.9794,103.150561 L267.61948,111.973459 L262.508665,111.973459 L256.1282,103.279473 L256.1282,111.973459 L251.540405,111.973459 L251.540405,88.9853924 L257.918975,88.9872882 Z M256.1282,99.8955297 L258.407885,99.8955297 C258.6675,99.8955297 258.8949,99.8955297 259.15641,99.8633017 C259.643425,99.8633017 261.27123,99.7969498 262.345695,98.4964539 C262.60531,98.1684863 263.062005,97.4860103 263.062005,96.3788825 C263.062005,96.0205826 263.02979,95.1409469 262.44234,94.3295587 C261.432305,92.9608152 259.870825,92.8300073 258.30745,92.7977792 L256.126305,92.7977792 L256.126305,99.8955297 L256.1282,99.8955297 Z" id="Shape" fill="#E81A2E"></path>
                <path d="M22.715365,72.8505222 L22.669885,45.0377291 L26.270385,45.0377291 L26.270385,78.3406625 L22.669885,78.3406625 L3.50954,50.3022732 L3.598605,78.3406625 L0,78.3406625 L0,45.0377291 L3.77863,45.0377291 L22.715365,72.8505222 L22.715365,72.8505222 Z M30.28968,45.0377291 L47.95108,45.0377291 L47.95108,48.3230928 L33.979245,48.3230928 L33.979245,59.8891654 L47.862015,59.8891654 L47.862015,63.174529 L33.979245,63.174529 L33.979245,75.0552988 L47.95108,75.0552988 L47.95108,78.3406625 L30.28968,78.3406625 L30.28968,45.0377291 L30.28968,45.0377291 Z M49.631945,61.7792447 C49.631945,51.5193554 57.594735,44.4519372 66.997725,44.4519372 C76.75887,44.4519372 84.36161,51.9231537 84.36161,61.6882479 C84.36161,71.4552379 76.80435,78.9264544 66.997725,78.9264544 C57.14562,78.9264544 49.631945,71.3187427 49.631945,61.8228474 L49.631945,61.7792447 L49.631945,61.7792447 Z M53.365095,61.6882479 C53.365095,69.5196601 59.258545,75.6410907 67.04131,75.6410907 C74.915035,75.6410907 80.67394,69.2959596 80.67394,61.6882479 C80.67394,54.082432 74.915035,47.7373009 66.997725,47.7373009 C59.16948,47.7373009 53.365095,53.9478326 53.365095,61.6427495 L53.365095,61.6882479 L53.365095,61.6882479 Z M115.09093,53.6786337 C114.078399,52.2591886 112.812845,51.0387524 111.35778,50.0785728 C109.19748,48.5922917 106.588065,47.7373009 103.620495,47.7373009 C96.332325,47.7373009 89.98976,53.318438 89.98976,61.6427495 C89.98976,70.1035563 96.377805,75.6846934 103.66408,75.6846934 C107.17362,75.6846934 110.27763,74.4714027 112.572475,72.6704243 C114.9128,70.8239476 116.53113,68.3044737 117.071205,65.6921072 L98.951215,65.6921072 L98.951215,62.6323397 L121.38991,62.6323397 C121.34443,64.5679175 120.895315,66.9982904 119.90423,69.0684676 C117.025725,75.3244977 110.366695,78.970057 103.66408,78.970057 C93.948415,78.970057 86.254715,71.4988405 86.254715,61.6427495 C86.254715,51.6520591 94.08296,44.4500415 103.70956,44.4500415 C110.457655,44.4500415 116.711155,48.232096 119.32057,53.6767379 L115.09093,53.6767379 L115.09093,53.6786337 L115.09093,53.6786337 Z M123.175,45.0377291 L141.619035,45.0377291 L141.619035,48.3230928 L126.864565,48.3230928 L126.864565,59.8891654 L141.528075,59.8891654 L141.528075,63.174529 L126.864565,63.174529 L126.864565,75.0552988 L141.619035,75.0552988 L141.619035,78.3406625 L123.175,78.3406625 L123.175,45.0377291 Z M143.10282,61.7792447 C143.10282,51.5193554 151.06561,44.4519372 160.4686,44.4519372 C170.229745,44.4519372 177.832485,51.9231537 177.832485,61.6882479 C177.832485,71.4552379 170.275225,78.9264544 160.4686,78.9264544 C150.616495,78.9264544 143.10282,71.3187427 143.10282,61.8228474 L143.10282,61.7792447 L143.10282,61.7792447 Z M146.837865,61.6882479 C146.837865,69.5196601 152.72942,75.6410907 160.512185,75.6410907 C168.38591,75.6410907 174.14292,69.2959596 174.14292,61.6882479 C174.14292,54.082432 168.38591,47.7373009 160.4686,47.7373009 C152.640355,47.7373009 146.837865,53.9478326 146.837865,61.6427495 L146.837865,61.6882479 L146.837865,61.6882479 Z M218.916085,61.7792447 C218.916085,51.5193554 226.878875,44.4519372 236.281865,44.4519372 C246.044905,44.4519372 253.647645,51.9231537 253.647645,61.6882479 C253.647645,71.4552379 246.090385,78.9264544 236.281865,78.9264544 C226.42976,78.9264544 218.916085,71.3187427 218.916085,61.8228474 L218.916085,61.7792447 L218.916085,61.7792447 Z M222.649235,61.6882479 C222.649235,69.5196601 228.542685,75.6410907 236.327345,75.6410907 C244.199175,75.6410907 249.95808,69.2959596 249.95808,61.6882479 C249.95808,54.082432 244.20107,47.7373009 236.281865,47.7373009 C228.455515,47.7373009 222.649235,53.9478326 222.649235,61.6427495 L222.649235,61.6882479 Z M290.804805,69.3850607 C288.6464,74.5169011 282.84391,78.9283502 275.51026,78.9283502 C265.658155,78.9283502 258.14448,71.3206385 258.14448,61.6920395 C258.14448,52.1942484 265.47813,44.453833 275.462885,44.453833 C283.694765,44.453833 288.87001,49.9458691 290.80291,54.1753246 L286.798775,54.1753246 C285.673145,52.1961441 281.89641,47.7391967 275.462885,47.7391967 C267.68012,47.7391967 261.83215,53.9042299 261.83215,61.6446453 C261.83215,69.5215559 267.723705,75.6429865 275.462885,75.6429865 C282.43838,75.6429865 285.98961,70.6457455 286.798775,69.3869564 L290.804805,69.3850607 Z M327.33472,45.0377291 L345.78065,45.0377291 L345.78065,48.3230928 L331.02618,48.3230928 L331.02618,59.8891654 L345.68969,59.8891654 L345.68969,63.174529 L331.02618,63.174529 L331.02618,75.0552988 L345.78065,75.0552988 L345.78065,78.3406625 L327.33472,78.3406625 L327.33472,45.0377291 L327.33472,45.0377291 Z M364.493775,48.3230928 L353.76618,48.3230928 L353.76618,45.0377291 L379,45.0377291 L379,48.3230928 L368.22882,48.3230928 L368.22882,78.3406625 L364.493775,78.3406625 L364.493775,48.3230928 L364.493775,48.3230928 Z M317.929835,78.3406625 L322.56311,78.3406625 L305.267445,61.6427495 L321.166495,45.0358334 L317.118775,45.0358334 L299.66772,63.0930111 L299.66772,45.0377291 L295.978155,45.0377291 L295.978155,78.3406625 L299.66772,78.3406625 L299.66772,67.4873982 L303.06356,63.938523 L317.929835,78.3406625 L317.929835,78.3406625 Z" id="Shape" fill="#FFFFFF"></path>
                <path d="M202.422005,80.8866772 C200.38488,81.7625214 198.389445,82.6231994 196.34853,83.5009394 C188.305357,67.0868633 180.259818,50.6739471 172.211915,34.2621913 L174.618565,33.1171482 C176.991105,31.9929586 179.36175,30.8687689 181.73429,29.7426835 C184.4214,28.4649368 187.11609,27.1947731 189.797515,25.8980687 C191.00084,25.3141725 192.17195,24.6639246 193.367695,24.0629665 C196.02259,22.7283468 198.836665,22.0572454 201.811815,22.1615126 C206.844935,22.3416104 211.09921,24.2942501 214.568955,27.9284348 C216.418475,29.8640126 217.631275,32.1730564 218.415805,34.7266541 C219.007045,36.6508573 219.31214,38.6167674 219.283715,40.6262801 C219.238235,43.8699369 218.40633,46.9069551 216.74631,49.6956279 C214.959325,52.692835 212.52804,55.0758137 209.60974,56.9715804 C207.781065,58.1602261 205.836795,59.1232756 203.786405,59.9043315 C198.63011,55.6369607 193.47571,51.3733814 188.304255,47.094636 C189.907425,42.5618579 191.5087,38.0385585 193.117555,33.4887185 C197.5348,33.4451159 201.95394,33.403409 206.420455,33.3598064 L206.420455,39.9305337 L197.76978,39.9305337 C197.203175,41.9988151 196.64036,44.0614093 196.07186,46.1429611 C199.07354,48.2719071 202.061955,50.3913743 205.116695,52.5601313 C205.95239,51.8264696 206.81272,51.1193487 207.6162,50.3534589 C208.785415,49.2406439 209.782185,47.9837506 210.653885,46.6187986 C211.957645,44.5770578 212.692905,42.3779685 212.651215,39.9456998 C212.619,38.1959072 212.08082,36.5712351 211.32661,35.0129149 C210.532605,33.3692852 209.494145,31.9152321 208.027415,30.794834 C206.3655,29.5265661 204.4705,28.9256081 202.40495,28.8592563 C199.36916,28.7606764 196.555085,29.5872307 193.879345,30.9635573 C191.336255,32.2716363 188.785585,33.5664449 186.23681,34.8669409 C184.43277,35.7901793 182.630625,36.7115219 180.82848,37.6347602 C180.79058,37.6537179 180.758365,37.6821544 180.71857,37.7086951 C187.951785,52.0956685 195.17742,66.4712673 202.422005,80.8866772 L202.422005,80.8866772 Z" id="Shape" fill="#E81A2E"></path>
                <path d="M207.53282,17.7405846 L203.23875,16.8552616 C204.08013,11.2400007 204.919615,5.62663552 205.76289,0 C208.39315,0.38294487 210.998775,0.765889741 213.644195,1.15262614 C211.60328,6.69584793 209.57184,12.2068417 207.53282,17.7405846 L207.53282,17.7405846 Z" id="Shape" fill="#E81A2E"></path>
                <path d="M230.998605,13.1604123 C232.39522,15.422062 233.77099,17.6552751 235.171395,19.9245079 C230.612025,22.7473045 226.05455,25.5682053 221.485705,28.3985849 C220.526835,26.9672811 219.586915,25.562518 218.624255,24.1236311 C222.74588,20.4723844 226.859925,16.8287209 230.998605,13.1604123 Z" id="Shape" fill="#00ADF7"></path>
                <path d="M219.988655,4.33561841 C222.004935,5.72900692 223.98521,7.09964624 225.973065,8.47407708 C222.378337,12.764168 218.78289,17.0536561 215.186725,21.3425413 L211.38725,18.9955822 C214.243015,14.1310449 217.10257,9.25323719 219.988655,4.33561841 L219.988655,4.33561841 Z" id="Shape" fill="#008C84"></path>
            </g>
        </g>
    </g>
</svg>