<svg viewBox="-92 216 672 99" xmlns="http://www.w3.org/2000/svg" xml:space="preserve">
    <path d="M-68.51 248.2c-.09 1.57-.26 3.14-.25 4.71.14 15.16.65 30.32.38 45.47-.23 12.96.53 11.83-12.15 12.34-11.73.47-12.22-.28-12.14-12.27.19-25.99.5-51.98.59-77.98.01-3.5 1.09-4.62 4.56-4.56 8.33.15 16.68.3 24.98-.22 5.95-.38 8.87 2.61 11.01 7.37 4.78 10.6 9.61 21.18 14.36 31.79 3.53 7.88 6.94 15.82 10.46 23.7.58 1.29 1.5 2.43 3.36 3.45.11-1.34.34-2.68.32-4.02-.22-16.16-.49-32.31-.73-48.47-.03-2.17.08-4.34-.03-6.5-.24-4.93 1.72-7.51 6.97-7.19 3.48.21 7 .31 10.48.05 5.35-.4 7.16 2.52 7.18 7.16.02 6.5-.2 12.99-.21 19.49-.02 18.82 0 37.65 0 56.48 0 12.06-.07 12.16-12.35 11.97-7.16-.11-14.33-.57-21.49-.45-4.73.08-7.08-1.98-8.9-6.21-7.55-17.54-15.41-34.96-23.19-52.4-.62-1.39-1.52-2.65-2.29-3.96-.3.08-.61.16-.92.25zm314.24 57.76c-1.29 5.06-4.73 5.34-8.65 5.09-3.48-.22-6.99-.02-10.49-.03-6.13-.02-7.11-1.06-7.14-7.32-.07-14.65-.17-29.3-.25-43.96-.07-12.16-.16-24.31-.19-36.47-.02-6.6.81-7.37 7.57-7.38 3.83-.01 7.66.03 11.49.09 5.85.09 6.78 1.12 6.72 7.19-.07 6.99-.15 13.99-.13 20.98.01 2.26.32 4.52.56 7.66 2.06-1.1 3.5-1.74 4.81-2.6 10.32-6.76 21.29-7.85 32.14-2.18 10.65 5.56 14.09 15.8 14.86 27.12.58 8.46-.86 16.54-4.83 24.11-8.07 15.4-24.75 20.36-39.8 11.77-2.02-1.14-3.97-2.41-6.67-4.07zm-2.19-25.3c1.47 4.32 2.45 9.7 5.02 14.15 3.82 6.62 12.46 6.62 17.34.69 5.78-7.02 6.43-23.89 1.25-31.35-2.89-4.16-7-5.46-11.77-5-4.52.43-7.3 3.26-8.53 7.37-1.29 4.27-2.06 8.69-3.31 14.14zm-107.5-29c6.03-2.54 11.04-5.23 16.38-6.79 14.24-4.16 32.26 5.2 32.12 23.13-.1 12.81-.33 25.62-.39 38.43-.02 3.76-1.74 4.84-5.29 4.63-4.48-.27-9.02-.36-13.49-.01-4.69.36-6.45-1.91-6.45-6.08 0-7.49.33-14.98.21-22.47-.07-4.8-.22-9.69-1.2-14.35-1.19-5.74-4.8-8.16-10.34-8.15-6.04.01-9.56 2.32-10.67 8.31-.9 4.85-.81 9.91-.91 14.88-.13 7.16-.02 14.33-.05 21.5-.01 4.26-1.34 6.92-6.46 6.41-4.46-.44-9-.29-13.49-.04-3.65.2-5.25-1.43-5.5-4.81-.19-2.49-.44-4.98-.44-7.47-.05-24.33-.04-48.66-.07-72.98-.01-9.21.73-9.99 9.89-9.92 2.67.02 5.33.04 8 .07 6.64.06 7.79 1.13 7.72 7.93-.06 6.49-.52 12.99-.55 19.48.01 2.75.64 5.51.98 8.3zm211.91 54.32c-1.92 1.27-3.8 2.56-5.74 3.78-14.61 9.19-38.73 7.14-41-20.04-1.05-12.58-.19-25.31-.24-37.98-.02-3.73 1.94-5.62 5.46-5.71 5.33-.15 10.66-.08 16-.01 4.34.05 4.48 3.4 4.51 6.39.08 8-.1 16-.12 23.99-.01 3.49-.09 7.01.25 10.48.7 7.03 4.49 10.54 10.91 10.47 6.51-.07 10.77-4.09 10.94-11.1.23-9.49-.01-19-.04-28.49-.01-1.83-.05-3.66 0-5.49.12-4.21 2.05-6.46 6.53-6.3 4.66.17 9.33.05 13.99.16 3.61.09 5.55 2.11 5.56 5.67.06 17.83.18 35.66-.02 53.49-.06 5.58-1.75 6.7-7.43 6.71-2.83.01-5.67 0-8.5 0-7.37 0-7.37 0-11.06-6.02zm205.39-1.26c-2.96 1.99-4.97 3.4-7.03 4.73-17.21 11.11-37.98 1.6-40.21-18.7-.9-8.24-.67-16.6-.87-24.91-.1-4.16.1-8.32.01-12.48-.12-5.8.98-7.13 6.63-7.55 3.82-.28 7.63-.71 11.45-.77 7.22-.12 8.37.87 8.47 8.31.11 8.99-.23 17.99-.29 26.98-.02 2.49.1 5.01.45 7.47.75 5.3 4.92 8.92 10.24 9.12 4.75.18 9.63-3.32 10.74-8.05.56-2.4.72-4.94.71-7.41-.04-9.33-.27-18.66-.32-27.99-.04-6.64.92-7.55 7.34-7.74 3.66-.11 7.32-.4 10.99-.41 6.49-.03 7.72.99 7.79 7.42.15 14.16.07 28.32.03 42.49-.01 3.81-.08 7.63-.38 11.43-.25 3.14-2.04 4.61-5.38 4.43-3.82-.2-7.66-.02-11.49.01-4.25.02-8.89.75-8.88-6.38zm-75.77-38.69c-2.02-8.66-6.89-11.8-13.07-8.95-4.72 2.18-5.39 6.53-.88 9.02 3.99 2.21 8.58 3.39 12.99 4.77 4.74 1.48 9.67 2.39 14.36 4.01 6.57 2.27 11.39 6.54 11.93 13.89.59 7.84-2.11 14.47-9.07 18.72-9.86 6.03-20.93 6.29-31.91 5.68-5.36-.3-10.85-1.7-15.88-3.65-6.25-2.41-9.8-7.74-11.5-14.2-1.02-3.86.13-6.28 4.46-6.32 5.16-.05 10.37-.34 15.47.21 1.62.17 3.56 2.43 4.38 4.19 2.65 5.72 6.88 8.63 12.11 6.72 2.43-.89 5.14-3.23 6.05-5.57 1.32-3.4-1.29-6.12-4.45-7.32-3.7-1.4-7.64-2.18-11.47-3.25-4.63-1.29-9.35-2.32-13.85-3.97-6.7-2.45-10.58-7.48-11-14.65-.4-6.96 2.06-13.03 8.25-16.53 4.25-2.4 9.04-4.5 13.81-5.22 12.37-1.87 24.66-1.64 35.3 6.44 3.81 2.89 7.24 6.37 6.28 11.63-.3 1.65-2.58 4.03-4.11 4.16-5.93.47-11.93.19-18.2.19zM59.15 278.07c.87 4.55 1.39 9.53 2.84 14.21 1.49 4.8 5.4 6.91 10.48 6.75 4.8-.14 7.33-3.21 8.38-7.25 1.17-4.5 3.42-6.31 8.12-5.86 4.12.4 8.32.04 12.48.09 4.85.06 6.08 1.74 5.05 6.58-1.52 7.1-5.28 12.49-11.88 15.71-13.7 6.67-27.81 7.66-41.99 2.03-12.15-4.82-18.35-14.61-19.52-27.27-1.37-14.71 3.24-27.51 16.69-34.7 14.71-7.85 30.2-8.74 45.06.47 5.3 3.29 8.5 8.37 9.86 14.47.96 4.32-.59 6.28-4.97 6.5-1.99.1-4.01-.15-5.99.07-7.13.78-12.86-.27-15.97-8.16-.88-2.24-5.14-4.09-8.02-4.38-3.8-.38-7.18 2.13-8.16 6.07-1.18 4.63-1.62 9.43-2.46 14.67zm332.26 5.27c0-5.48.04-10.96-.01-16.43-.04-4.12-2.39-5.17-6.2-5.18-2.36-.01-6.49-.88-6.73-2.03-.84-3.87-.59-8.09-.03-12.07.11-.81 3.34-1.64 5.15-1.68 5.02-.1 8.96-.83 8.73-7.33-.05-1.31 1.68-3.28 3.06-3.95 4.77-2.31 9.71-4.31 14.68-6.16 4.45-1.66 5.69-.74 6.13 3.92.03.33.05.66.08 1 .34 3.75-.56 8.52 1.42 10.94 1.62 1.98 6.7.95 10.16 1.7 1.24.27 2.61 1.61 3.19 2.82.69 1.43.69 3.23.83 4.89.56 6.8-.61 8-7.32 7.65-6.26-.33-7.65.87-7.73 7.2-.07 6.33.06 12.65.14 18.98.08 5.61 2.57 8.16 8.14 8.43 5.63.27 7.02 1.96 6.86 8.35-.14 5.75-1.91 7.62-7.38 7.66-5.66.04-11.33.14-16.98-.03-10.31-.31-16.34-6.47-16.49-16.68-.06-3.99-.01-7.99-.01-11.98.09-.02.2-.02.31-.02zm-177.48-5.36c0 8.32.18 16.64-.06 24.94-.2 6.85-1.72 8.09-8.4 8.09-3.66 0-7.32-.13-10.98.01-3.97.15-5.81-1.88-6.19-5.56-.17-1.65-.21-3.32-.22-4.98-.04-13.97-.06-27.94-.09-41.91 0-1.33-.02-2.66.06-3.99.44-7.79 1.43-8.88 9.05-9.18 3.14-.12 6.31.1 9.46.34 6.64.51 7.16.92 7.32 7.78.2 8.16.05 16.31.05 24.46zM4.98 277.5v-24.99c0-4.32 1.58-6.93 6.45-6.76 3.81.13 7.66-.43 11.46-.24 6.59.34 7.06.88 7.09 7.47.08 14.33.09 28.66.02 42.99-.02 3.48-.49 6.95-.68 10.44-.18 3.3-1.86 4.7-5.14 4.62-4.33-.11-8.66-.08-12.99.02-4.22.1-6.17-2.09-6.2-6.07-.07-9.16-.02-18.32-.02-27.48h.01zm12.67-44.24c-1.16 0-2.33.01-3.49 0-8.76-.1-9.6-.98-9.19-9.7.3-6.38 1.39-7.52 7.62-7.63 4.15-.07 8.31.12 12.46-.03 3.28-.11 5.37 1.44 5.39 4.48.03 3.56-.6 7.18-1.43 10.66-.22.91-2.15 1.85-3.39 2-2.62.3-5.3.09-7.96.09-.01.05-.01.09-.01.13zm183.38-.19c-1.66-.01-3.31 0-4.97-.01-7-.03-7.15-.18-7.22-7.3-.09-9.7.13-9.9 10.07-9.84 3.31.02 6.62-.14 9.93-.11 3.2.03 4.79 1.88 5.1 4.95.08.82.05 1.65.06 2.48.1 9.26-.46 9.84-9.49 9.82-1.16.01-2.32.01-3.48.01z" fill="#fff"/>
</svg>
