<svg viewBox="0 0 3839 945" xmlns="http://www.w3.org/2000/svg">
    <path class="st1" d="M711.9 560.3 520.1 249.4H381v444.9h137.9V383.5l193 310.8h137.9V249.4H711.9v310.9Zm1090.4-161.7v-43.9h-72.7v-60.2h-134.1v60.2h-72.7v43.9h72.7v295.8h134.1V398.6h72.7ZM926.2 694.4h134.1V398.6H926.2v295.8Zm0-354.7h134.1v-91.5H926.2v91.5ZM3270 378.5c-107.8 0-195.5 73.9-195.5 166.7 0 91.5 87.7 166.7 195.5 166.7s195.5-73.9 195.5-166.7c0-92.8-85.2-166.7-195.5-166.7Zm53.9 228.1c0 47.6-27.6 66.4-55.1 66.4-26.3 0-55.1-20.1-55.1-66.4V481.3c0-46.4 27.6-66.4 55.1-66.4 26.3 0 55.1 18.8 55.1 66.4v125.3Zm-423.7-193c-21.3-12.5-43.9-23.8-75.2-26.3-96.5-8.8-170.5 76.5-170.5 155.4 0 102.8 79 141.6 91.5 146.6 45.1 21.3 102.8 21.3 154.2-11.3v17.5h131.6V250.7h-131.6v162.9Zm0 131.6v52.6c0 45.1-31.3 57.7-52.6 57.7S2795 643 2795 597.8V492.6c0-46.4 31.3-57.7 52.6-57.7s52.6 11.3 52.6 57.7v52.6ZM1373.7 384.8c-43.9 1.3-81.5 20.1-106.5 45.1v-31.3h-132.9v295.8h132.9V500.1c0-26.3 27.6-53.9 63.9-53.9s61.4 28.8 61.4 53.9v194.3h132.9V534c-.1-117.9-101.6-150.5-151.7-149.2Zm1087.9 0c-43.9 1.3-81.5 20.1-106.5 45.1v-31.3h-132.9v295.8H2355V500.1c0-26.3 27.6-53.9 63.9-53.9s61.4 28.8 61.4 53.9v194.3h132.9V534c-1.2-117.9-102.7-150.5-151.6-149.2Zm-282 162.9c0-91.5-89-167.9-198-167.9s-196.8 73.9-196.8 166.7c0 91.5 87.7 166.7 196.8 166.7 90.2 0 166.7-51.4 190.5-121.6h-132.9v17.5c0 53.9-35.1 66.4-55.1 66.4-20.1 0-56.4-12.5-56.4-66.4v-61.4h251.9Zm-241.9-104c10-18.8 30.1-26.3 47.6-27.6 17.5 0 36.3 8.8 47.6 27.6 8.8 15 8.8 32.6 8.8 57.7h-111.5c-2.6-26.4-2.6-42.7 7.5-57.7ZM3336.4 0H501.3C201.8-1.2 0 215.6 0 473.8 0 732 200.5 945 502.6 945h2833.8c300.8 0 502.6-213 502.6-471.2-1.3-259.5-203-475-502.6-473.8Zm-1.2 829.7H502.6C263.2 831 117.8 670.5 117.8 472.5s146.6-356 384.8-357.2h2832.6c238.1 0 384.8 159.2 384.8 357.2s-146.7 357.2-384.8 357.2ZM3336.4 0H501.3C201.8-1.2 0 215.6 0 473.8 0 732 200.5 945 502.6 945h2833.8c300.8 0 502.6-213 502.6-471.2-1.3-259.5-203-475-502.6-473.8Zm-1.2 829.7H502.6C263.2 831 117.8 670.5 117.8 472.5s146.6-356 384.8-357.2h2832.6c238.1 0 384.8 159.2 384.8 357.2s-146.7 357.2-384.8 357.2ZM3336.4 0H501.3C201.8-1.2 0 215.6 0 473.8 0 732 200.5 945 502.6 945h2833.8c300.8 0 502.6-213 502.6-471.2-1.3-259.5-203-475-502.6-473.8Zm-1.2 829.7H502.6C263.2 831 117.8 670.5 117.8 472.5s146.6-356 384.8-357.2h2832.6c238.1 0 384.8 159.2 384.8 357.2s-146.7 357.2-384.8 357.2Z" style="fill:#fff"/>
</svg>
