<svg data-name="Warstwa 1" xmlns="http://www.w3.org/2000/svg" viewBox="0 0 375 157.58">
    <path d="M57.75 0c2.36 7.34 4.6 14.71 7.11 22 13.43 39.07 27.1 78.06 40.23 117.22 1.83 5.47 1.17 11.76 1.68 18-1.79.14-2.86.3-3.93.3-16.87 0-33.73-.07-50.6.09-2.81 0-3.79-1-4.64-3.49q-22.9-67-46-133.85c-.44-1.28-1-2.49-1.58-3.74V0ZM4.81 6.08c-.46 5.87.16 10.6 2.68 15.6 3.38 6.72 5.25 14.21 7.58 21.43 2.17 6.71 4 13.54 6.27 20.22.33 1 2.35 1.95 3.6 2 13.88.14 27.75.09 41.62.09h8a18.31 18.31 0 0 0-.43-2.57C68.01 44.77 61.85 26.7 55.78 8.6c-.7-2.08-1.86-2.54-3.87-2.52-11.13.08-22.25 0-33.37 0ZM84.17 92.5c-2.21-6.64-4.3-12.61-6.18-18.66-.75-2.42-2-3.21-4.55-3.19-15.35.13-30.7.06-46 .08-1.05 0-2.11.19-3.56.33C26.25 78 28.38 84.55 30.81 91c.3.8 2.17 1.41 3.32 1.43 7.36.13 14.73.07 22.09.07Zm-49.11 11.3c1.89 5.11 3.68 9.44 5.06 13.9.77 2.49 2 3.13 4.52 3.13 14.84 0 29.68.29 44.52.46h4.77c-1.72-5.22-3.33-9.65-4.63-14.18-.75-2.63-2.13-3.41-4.83-3.38-12.61.14-25.23.06-37.85.06ZM316.5 0c.08 1 .22 2 .22 3v154.26h-48V4.89c0-1.61-.12-3.23-.19-4.85Zm-3.65 65.21V6.32h-40.18v58.89Zm-40.11 26.8h39.81V71.33h-39.81Zm39.9 12.49H272.9v16.16h39.74ZM177.75 0c2.84 11.76 5.6 23.54 8.54 35.27q14.78 59.05 29.65 118.07c.3 1.2.53 2.42.85 3.91h-44q-5.35-20.87-10.68-41.68c-6.91-27.1-13.84-54.2-20.62-81.33a16.65 16.65 0 0 1 0-7.3c1.94-9 4.18-18 6.31-26.94Zm11.5 65.25a8 8 0 0 0 0-1.14c-4.63-18.65-9.23-37.31-14-55.94a3.44 3.44 0 0 0-2.59-1.92c-6.23-.17-12.48-.17-18.71 0a3.42 3.42 0 0 0-2.6 1.82c-2.06 7-3.91 14.1-5.77 21.17a4 4 0 0 0 .22 1.82c2.66 10.58 5.28 21.17 8.1 31.71a4 4 0 0 0 2.87 2.38c10.73.16 21.48.1 32.48.1Zm-27.88 26.9h35c-1.65-6.52-3.14-12.9-5-19.18-.26-.89-2.12-1.84-3.25-1.86-9.87-.15-19.74-.09-29.6-.07a18.28 18.28 0 0 0-2.52.39ZM203.61 121c-1.25-5.15-2.4-9.58-3.37-14.05-.48-2.21-1.57-2.94-3.85-2.88-6 .15-12 .05-18 .05h-14c1.31 5.33 2.4 10.17 3.74 14.94a3.13 3.13 0 0 0 2.27 1.86c10.85.12 21.71.08 33.2.08ZM225.75 0q12.75 50.5 25.5 100.92 6.6 26.15 13.16 52.29c.33 1.31.6 2.65.94 4.15h-44.1c-1.44-5.66-2.94-11.41-4.38-17.18q-13.62-54.87-27.25-109.75a12.43 12.43 0 0 1 .1-6.15c2.36-8.14 5-16.19 7.53-24.28Zm12.18 65.38a8.57 8.57 0 0 0 0-1.59c-4.69-18.6-9.36-37.2-14.19-55.76-.22-.84-1.88-1.84-2.9-1.86-6.23-.18-12.48-.22-18.71 0a4.56 4.56 0 0 0-3.25 2.54c-2 5.5-3.74 11.09-5.33 16.72a9.73 9.73 0 0 0 0 5.08c1.33 4.74 3.22 9.32 4.44 14.08 1.53 6 2.52 12.09 4 18.08.26 1.05 1.76 2.55 2.71 2.56 10.98.21 21.94.15 33.23.15Zm7.1 26.9c-1.68-6.54-3.38-12.63-4.76-18.79-.47-2.08-1.42-2.54-3.3-2.52-6.86.07-13.72 0-20.58 0h-12.05c1.78 7 3.35 13.51 5.15 19.93.19.65 1.72 1.29 2.63 1.3 10.72.11 21.44.08 32.91.08Zm-32.5 11.76c1.54 5 3.42 9.27 4.05 13.72.43 3.12 1.49 3.61 4.17 3.58 9.12-.12 18.25 0 27.37 0 1.31 0 2.62-.14 4.4-.24-1.52-6-2.92-11.51-4.31-17ZM374.25 0a32.11 32.11 0 0 1-1.76 3.58q-23.34 35.92-46.78 71.76c-1.57 2.39-1.84 4-.16 6.6 15.87 24 31.58 48.19 47.35 72.29a27.76 27.76 0 0 0 2.1 2.52v.75h-54.3V4.08c0-1.36.19-2.72.29-4.08Zm-7.94 6.42h-41.36v58l.82.82c1.23-1 2.79-1.81 3.65-3.08q17.58-26.07 35-52.26c.63-1.01 1.13-2.1 1.89-3.48Zm-20.38 114.37c-3.47-5.44-6.64-10.44-9.88-15.4a2.65 2.65 0 0 0-1.76-1.15c-3.05-.12-6.11-.05-9.16-.05v16.6ZM0 26.25C3.59 36.73 7.25 47.2 10.76 57.71q16 47.73 31.82 95.52c.42 1.27.75 2.57 1.23 4.27H0Zm4.37 94.67h23c-1.69-5.42-3.19-10.42-4.83-15.36-.22-.68-1.11-1.62-1.71-1.64-5.44-.12-10.87-.07-16.46-.07Zm13.88-28.73-5.06-16.13c-1.85-5.9-2-6-8.56-4.73v20.86Zm-13-41.48-.71.23v14.27h5.23ZM105.75 0v128.77l-.74.14c-2.46-7.25-4.94-14.5-7.38-21.76Q79.92 54.44 62.25 1.73c-.2-.59-.46-1.15-.7-1.73Zm-4.43 65.37v-59H67.98c1.81 4.25 3.53 7.89 4.9 11.66 2 5.49 3.87 11.05 5.58 16.64 2.83 9.24 5.42 18.55 8.28 27.78.36 1.14 1.7 2.7 2.69 2.78 3.82.34 7.69.14 11.89.14Zm-11.85 5.58c2 6.15 4 11.63 5.55 17.25 1 3.49 2.6 4.8 6.17 3.52V70.95Zm19.36 86.4q14.74-59.07 29.36-117.69h.85c9.77 39.16 19.54 78.31 29.38 117.73Zm46.82-36.55c-1.34-5.37-2.5-10.3-3.87-15.17a2.77 2.77 0 0 0-2.15-1.42c-7.11-.11-14.21-.14-21.32 0a3.31 3.31 0 0 0-2.32 2c-1.36 4.74-2.47 9.54-3.73 14.59Zm-7.11-28.64c-1.52-5.86-3.27-11.33-4.27-16.94-.67-3.67-2.32-4.95-5.73-4.25-1.5.3-4 .67-4.23 1.54-1.91 6.39-3.37 12.92-5 19.65Zm-6.67-27c-.94-3.6-1.75-6.68-2.56-9.75l-1.19.11c-.76 3.12-1.51 6.24-2.34 9.64Z" fill="#fff"/>
</svg>
