<svg viewBox="0 0 600 182" xmlns="http://www.w3.org/2000/svg">
    <path style="fill-opacity:1;fill:#fff" d="M77.616 26.761C67.45 13.01 65.025 14.417 59.121 14.417H4.266c-4.422 0-5.404 3.31-2.955 6.6 1.379 1.867 4.34 4.886 6.708 7.238l57.241 57.41h56.422a6617.798 6617.798 0 0 1-44.066-58.904Zm8.203 44.831c-1.72.024-4.546.087-6.242.06-1.919-.03-2.464-.464-3.66-1.792l-26.17-29.125c-1.178-1.311-1.039-2.802 1.136-2.805l8.054-.006c1.085-.003 1.606.109 3.609 2.534l23.562 28.474c1.334 1.612.446 2.651-.289 2.66ZM83.49 14.426h46.985c5.898 0 11.606-2.051 18.48 12.329l28.164 58.913h-49.84l-26.212-36.24c-1.082-1.494-1.226-1.69-1.895-2.825-.585-.991.15-2.112 1.714-2.208 6.365-.061 12.726-.124 19.088-.184 3.127.057 4.226.093 5.98 3.003 5.021 7.443 9.515 15.146 14.537 22.589.997 1.843 2.455 1.919 5.467 1.955 3.482.042 5.563-.38 3.425-3.952L132.87 40.22c-2.485-4.148-9.805-3.449-10.89-3.449H97.298c-2.913 0-5.133.174-6.961-2.217l-9.823-13.543c-2.401-3.311-1.449-6.585 2.976-6.585Zm72.348 0h23.14c1.196.114 1.87.491 2.03 1.13 3.446 8.56 6.052 17.121 9.501 25.682.638 1.651 1.217 2.392 2.117 2.223l5.425.036c1.753-.069 2.238-1.051 1.651-2.946-2.235-8.139-4.714-15.793-6.952-23.932-.6-2.009.62-2.196 2.693-2.196h15.844c7.931 0 9.211-1.157 12.166 12.329 2.332 10.645 4.465 21.293 6.796 31.939.551 3.524-.88 6.38-4.765 6.277l-7.41-.027 5.66 20.724h-27.448l-8.332-20.673c-3.205.003-4.886.003-8.091.003-4.828-.033-7.22-3.175-9.217-7.458l-17.359-36.526c-1.579-3.32-1.871-6.585 2.551-6.585Zm79.571 0h56.235c5.895 0 10.145-.596 9.438 8.097l-.651 8.042c-.109 1.32-.226 2.498-.566 3.745-.741 2.72-3.275 3.129-6.094 3.172h-31.873c-1.445 0-1.927.084-1.93 1.075l-.03 4.943c-.006 1.124.783.973 2.575.973h24.375c1.786 0 3.524-.084 5.277.337 3.269.783 5.031 2.705 5.937 5.166.754 2.052.443 3.744.272 5.883l-2.422 29.806h-54.735l-1.736-9.952c-.301-1.732.232-2.82 2.335-2.82h28.851c5.006-.723 5.172-4.181 4.666-8.036h-30.782c-3.154.141-5.184-.826-6.536-2.383-1.254-1.443-1.326-2.774-1.642-4.594l-6.055-34.761c-.888-5.102.672-8.693 5.091-8.693Zm81.64 0h53.684c5.742 0 9.989-.584 7.203 7.883l-2.826 8.57c-.428 1.283-.831 2.431-1.467 3.645-1.388 2.647-3.952 3.045-6.711 3.087h-28.399c-1.407 0-1.886.081-2.145 1.045l-1.452 5.446c-.289 1.091.524.946 2.268.946h21.104c1.732 0 3.446-.078 5.048.329 2.986.762 4.236 2.632 4.513 5.03.229 2-.485 3.645-1.178 5.729l-10.525 29.529h-52.461l1.142-9.606c.132-1.687.913-2.744 2.967-2.741h21.712c5.049-.708 6.064-4.075 6.516-7.829h-19.613c-7.055.317-10.359-4.346-9.898-10.549l2.358-32.053c.368-4.967 3.856-8.464 8.16-8.464v.003Zm79.089 0h56.679c6.063 0 10.708-.584 5.473 7.883l-5.305 8.57c-.798 1.283-1.536 2.431-2.533 3.645-2.19 2.647-5.006 3.045-7.928 3.087h-22.643c-1.488 0-3.431-.138-3.389.699l.226 4.518c.048.949 1.03 1.684 2.874 1.684h12.347l8.639.06c1.901.012 2.69 1.744 1.795 3.238l-3.422 5.73-8.018 12.389c-.341.018-.678.027-1.021.033h-24.204c-1.545 0-3.575-.141-3.515.934l.235 4.283c.057.946 1.069 1.681 2.979 1.681h13.522l7.482.051-8.253 12.754h-54.961c5.28-13.308 5.081-14.151 22.031-62.775 1.735-4.967 6.365-8.464 10.91-8.464Zm149.332 0h-25.405c-1.362.114-2.269.491-2.705 1.13-7.407 8.56-13.893 17.121-21.3 25.682-1.404 1.651-2.346 2.392-3.262 2.223l-5.976.036c-1.895-.069-2.006-1.051-.564-2.946 5.901-8.139 11.86-15.793 17.761-23.932 1.509-2.009.253-2.196-2.028-2.196h-19.173c-8.699 0-9.618-1.157-18.57 12.329-7.064 10.645-13.913 21.293-20.977 31.939-2.1 3.524-1.735 6.38 2.575 6.277l9.926-.027-14.986 20.724h30.134l17.899-20.673c3.518.003 5.365.003 8.88.003 5.316-.033 9.274-3.175 13.278-7.458l34.52-36.529c3.127-3.317 4.829-6.582-.027-6.582Zm38.897 14.419c-1.642 1.534-3.244 3.118-4.853 4.688-1.28 1.253-2.259.978-4.063.978h-26.478c-1.578 0-2.636-.096-3.208-.548-.837-.659-.648-1.882.44-2.979 4.111-4.365 8.229-8.729 12.341-13.094 1.964-1.807 3.795-3.663 7.54-4.877 2.289-.744 4.316-.916 6.687-.916h10.907c2.693.251 5.169-5.039 2.295-6.045h-17.862c-2.35.169-3.019-.669-2.012-2.518 1.936-2.259 3.072-3.642 4.03-3.528h20.721c2.094 0 5.082.22 6.793 1.642 3.662 3.036 2.551 8.684.069 12.338-2.148 3.148-6.94 5.338-10.585 5.461h-14.245c-3.479.253-8.009 7.425-1.738 7.507h12.492c1.795.003 1.84.852.729 1.891"/>
    <path style="fill-opacity:1;fill:#ccc" d="M117.604 80.27c16.254 21.484 33.788 44.452 44.942 59.221 12.483 16.54 22.902 30.36 31.716 42.035h-33.433c-9.784-9.813-21.004-21.064-33.975-34.077L59.88 80.27h57.724Zm357.422.651-30.339-.651-73.219 101.259h16.444l87.114-100.608Zm-109.73-.651c-4.446 11.188-14.862 36.593-40.541 101.256h31.366l64.7-99.976-55.525-1.28Zm-7.886 1.907-53.322.268-11.778 99.081h29.707l35.393-99.349Zm-61.223.587-55.374.594 17.094 98.171h30.249l8.031-98.765Zm-73.466-.807h-27.929l40.144 99.569h14.977l-26.182-95.858-1.01-3.711Zm-48.183-1.687h-51.163l73.239 101.256h26.336l-45.828-95.858"/>
</svg>
