<?xml version="1.0" encoding="UTF-8"?>
<svg width="318px" height="112px" viewBox="0 0 318 112" version="1.1" xmlns="http://www.w3.org/2000/svg" xmlns:xlink="http://www.w3.org/1999/xlink">
    <title>pc98</title>
    <g id="Page-1" stroke="none" stroke-width="1" fill="none" fill-rule="evenodd" opacity="0.78">
        <g id="NEC-PC-98" transform="translate(-161.000000, -4.000000)" fill="#FFFFFF" fill-rule="nonzero">
            <g id="pc98" transform="translate(161.000000, 4.000000)">
                <path d="M59.6946468,27.7863711 L53.468511,27.7863711 L58.4864114,17.4361617 C57.0944184,17.4361617 53.3496091,16.6972957 51.9576162,15.4654467 C50.2053144,13.8002596 48.754471,10.5368335 49.7212996,6.59296916 C50.8094322,2.2790632 55.5859256,-1.05009391 60.8428308,0.30713102 C64.5900422,1.29309711 66.7663073,3.20294995 67.369224,7.33305235 C67.6730844,9.2404707 67.5517804,11.0894614 66.2834935,13.9244183 L59.6946468,27.7863711 L59.6946468,27.7863711 Z M55.0406583,9.11874649 C55.0406583,13.6152388 61.8697109,13.7418319 61.8697109,9.30376729 C61.8697109,4.61981974 55.0406583,4.61981974 55.0406583,9.11874649 Z M76.1931862,0.245051673 C82.1791161,-0.55589362 87.4360213,4.24977814 85.5624156,10.5368335 C85.2597562,11.5203651 83.6275574,13.6152388 83.6275574,13.6152388 C83.6275574,13.6152388 86.1677344,15.9572125 86.4091413,17.498241 C87.5573253,23.9070206 82.8432853,27.6025676 78.0691939,27.7863711 C72.9912421,27.9105298 67.4304765,24.4596485 68.51981,17.8670654 C68.639913,17.0040407 69.2452317,16.1410161 69.5466901,15.5871709 C69.8481484,15.0333258 71.2389403,13.6152388 71.2389403,13.6152388 C71.2389403,13.6152388 69.3641336,10.5952611 69.1839792,9.30376729 C68.5786605,4.68311632 71.2989918,0.924272758 76.1931862,0.245051673 Z M75.0462032,7.8868975 C75.0462032,11.2124029 80.00165,11.2124029 80.00165,8.0719183 C80.00165,4.55895763 75.0462032,4.49687829 75.0462032,7.8868975 L75.0462032,7.8868975 Z M77.5851791,22.5510129 C81.4536944,22.5510129 81.4536944,16.6352164 77.5239266,16.6352164 C73.5353083,16.6352164 73.6554113,22.5510129 77.5851791,22.5510129 Z M97.0478587,0.245051673 C100.068447,-0.0629105749 102.727526,1.04599697 104.239622,2.5249461 C108.712255,6.83885206 109.436476,21.1341431 104.057066,25.8765183 C101.882002,27.8484505 97.2892656,28.8368511 93.7822601,27.1095845 C90.459012,25.4468319 88.4653034,20.9491223 88.161443,15.7721917 C87.6185778,7.63858011 89.9149458,0.985134862 97.0478587,0.245051673 Z M98.0747387,22.5510129 C103.392896,22.4280715 103.211541,4.24977814 97.2280131,5.85288597 C92.9967869,6.89849692 93.0568384,22.611875 98.0747387,22.5510129 Z M118.200387,0.061248118 C121.223377,-0.24671413 123.882456,0.86097617 125.393351,2.34114255 C129.865984,6.65383126 130.591406,20.9491223 125.211995,25.693932 C123.03573,27.6634297 118.442994,28.6493958 114.93719,26.925781 C111.612741,25.2630283 109.617831,20.7641015 109.316373,15.5871709 C108.772307,7.45477656 111.069876,0.800114065 118.200387,0.061248118 Z M119.227267,22.3672094 C124.546625,22.2430507 124.366471,4.06597459 118.382943,5.66786517 C114.151717,6.71591061 114.211768,22.4280715 119.227267,22.3672094 Z M33.704373,0.492151817 L33.704373,5.91374808 C19.1983413,1.90902161 19.3196453,25.8765183 33.5242187,21.8742263 L33.5242187,27.2933881 C11.5225631,32.8403603 11.4012592,-4.6823443 33.704373,0.492151817 Z" id="Shape"></path>
                <path d="M6.91969184,16.788496 L6.91969184,11.3999738 C9.46784605,11.3999738 11.0464234,10.471087 11.0464234,8.61086586 C11.0464234,7.0639451 10.8028232,5.51335286 5.58350875,5.51335286 L5.58350875,28 L0,28 L0.121800083,0 L5.52200574,0 C15.9015435,0.0624153154 17.1159265,4.27483719 17.1159265,8.42361991 C17.1159265,14.3102408 13.0482861,16.788496 6.91969184,16.788496 Z M145.166404,2.04379562 L145.166404,7.3111587 L133.149198,7.3111587 L133.149198,2.04379562 L145.166404,2.04379562 Z M224,27.7552341 L218.295897,27.7552341 C217.629012,24.96735 213.925565,20.0096158 213.925565,20.0096158 L207.675171,26.5754622 C206.521085,27.7552341 204.458925,27.7552341 202.335262,27.7552341 L200.574588,27.7552341 L200.574588,22.7974999 L201.787765,22.7974999 C203.063651,22.7974999 204.215325,22.6751169 205.187314,21.6838149 L216.109525,9.91302067 C217.263611,8.73569649 216.657023,7.0639451 214.653954,7.0639451 L200.574588,7.12513659 L200.574588,2.04379562 L214.714251,2.04379562 C221.57244,2.04379562 223.574303,9.54097644 221.086446,12.267669 L217.5048,16.0444075 C217.566303,16.0444075 223.635806,24.96735 224,27.7552341 L224,27.7552341 Z M164.403581,2.04379562 L164.403581,14.3102408 L158.881575,14.3102408 L158.881575,2.04379562 L164.403581,2.04379562 Z" id="Shape"></path>
                <path d="M178,2 L178,17.7311491 C178,23.0346904 174.053902,27 169.13395,27 L158.810137,27 L158.810137,21.8145025 L168.405068,21.8145025 C171.078037,21.8145025 172.534594,20.4148398 172.534594,17.5492652 L172.534594,2 L178,2 L178,2 Z M155.773934,3.40327632 L155.773934,17.6721272 C155.773934,23.0985305 150.856396,27 146.421561,27 L133,27 L133,21.5121657 L146.360016,21.5121657 C148.606999,21.5121657 150.367659,20.2931824 150.367659,17.7925801 L150.367659,3.4647073 L155.773934,3.40327632 Z" id="Shape"></path>
                <path d="M144.506319,14.9834282 L132.516211,14.9834282 L132.516211,10 L144.506319,10 L144.506319,14.9834282 Z M34,11.9568129 L47.3208712,11.9568129 L47.3208712,15.9911282 L34,15.9911282 L34,11.9568129 Z M201,12.1360897 L201,17 L179.565803,17 L179.565803,12.1360897 L201,12.1360897 Z" id="Shape"></path>
                <ellipse id="Oval" cx="225" cy="4.5" rx="2" ry="2.5"></ellipse>
                <ellipse id="Oval" cx="231" cy="4.5" rx="2" ry="2.5"></ellipse>
                <path d="M157.695992,111.371105 L139.969215,111.371105 L154.29442,82.1840129 C150.410354,82.1840129 139.725556,80.100432 135.841491,76.5450192 C130.804268,71.9441818 126.674132,62.6250026 129.528076,51.5250887 C132.685989,39.322815 146.28263,30.0617823 161.034841,33.8643175 C171.595397,36.5632817 177.786983,41.9599985 179.609599,53.6704502 C180.45758,59.0683785 180.093298,64.2785422 176.573514,72.2494506 L157.695992,111.371105 L157.695992,111.371105 Z M144.584256,58.9448173 C144.584256,71.6377015 164.006995,72.0059624 164.006995,59.4366393 C164.006995,46.3137136 144.584256,46.1913638 144.584256,58.9448173 Z M207.227474,33.985456 C224.284793,31.7795252 239.158833,45.3300696 233.938263,62.9326942 C233.146975,65.6898048 228.474035,71.5771323 228.474035,71.5771323 C228.474035,71.5771323 235.576325,78.2591279 236.365201,82.5522737 C239.642531,100.519525 226.228032,111.065836 212.569873,111.497089 C198.122839,111.924708 182.278989,102.050715 185.375385,83.5322836 C185.799979,81.0186613 187.438041,78.6286001 188.288434,77.1567682 C189.138827,75.6849364 193.08441,71.5771323 193.08441,71.5771323 C193.08441,71.5771323 187.802323,63.1156133 187.317418,59.4959971 C185.55632,46.3754942 193.266551,35.7661908 207.227474,33.985456 L207.227474,33.985456 Z M203.828314,55.5105429 C203.828314,64.9532832 217.912272,64.829722 217.912272,56.0011535 C217.912272,46.0072334 203.828314,45.8824608 203.828314,55.5105429 Z M211.112745,96.6576321 C222.100308,96.6576321 222.160619,79.9768708 210.930604,79.9768708 C199.639072,80.0398628 199.944248,96.6576321 211.112745,96.6576321 Z M266.412426,33.985456 C275.032156,33.1302187 282.560246,36.2555901 286.808593,40.3646055 C299.434218,52.5668791 301.499286,92.6709665 286.323688,106.038592 C280.070584,111.557658 267.081884,114.37655 257.185962,109.470443 C247.715838,104.75089 242.130987,92.1803558 241.159971,77.6461675 C239.704049,54.7752326 246.198399,36.0714596 266.412426,33.985456 Z M269.326681,96.6576321 C284.503485,96.3499405 283.895544,45.2101425 266.898537,49.6232154 C254.879647,52.7510095 255.061788,97.0234701 269.326681,96.6576321 Z M101.485607,34.5996278 L101.485607,49.8073458 C60.2674724,38.5862934 60.5702365,105.915031 100.937978,94.7545474 L100.937978,109.962265 C38.4141774,125.719952 38.1114133,20.0060816 101.485607,34.5996278 Z" id="Shape"></path>
                <path d="M19.5196591,79.9098082 L19.5786818,64.8226485 C26.8541364,64.8226485 31.2182045,62.2596535 31.2182045,56.9430074 C31.2182045,52.545854 30.4906591,48.2090347 15.7590682,48.2090347 L15.8205,111 L0,111 L0.180681818,33 L15.4567273,33 C44.7958409,33.121875 48.2516818,44.9715037 48.2516818,56.4555074 C48.19025,72.948453 36.7940455,79.9098082 19.5196591,79.9098082 Z M103.655955,65.7397277 L121.901205,65.7397277 L121.901205,76.1232364 L103.655955,76.1232364 L103.655955,65.7397277 Z M303.0275,33.7324567 L318,33.7324567 L318,111 L303.0275,111 L303.0275,33.7324567 Z" id="Shape"></path>
            </g>
        </g>
    </g>
</svg>