<?xml version="1.0" encoding="UTF-8" standalone="no"?>
<!DOCTYPE svg PUBLIC "-//W3C//DTD SVG 1.1//EN" "http://www.w3.org/Graphics/SVG/1.1/DTD/svg11.dtd">
<svg width="100%" height="100%" viewBox="0 0 633 83" version="1.1" xmlns="http://www.w3.org/2000/svg" xmlns:xlink="http://www.w3.org/1999/xlink" xml:space="preserve" xmlns:serif="http://www.serif.com/" style="fill-rule:evenodd;clip-rule:evenodd;stroke-linejoin:round;stroke-miterlimit:2;">
    <clipPath id="_clip1">
        <rect id="pcenginecd-v2.afdesign" serif:id="pcenginecd v2.afdesign" x="0.843" y="0.27" width="632" height="82.068"/>
    </clipPath>
    <g clip-path="url(#_clip1)">
        <g>
            <g>
                <path d="M78.626,75.428l58.795,0l0,-14.367l-58.795,0c-21.756,0 -21.756,-32.635 0,-32.635l58.795,-0l0,-14.367l-58.795,-0c-40.908,0.015 -40.908,61.369 0,61.369Z" style="fill:#fff;fill-rule:nonzero;"/>
                <path d="M207.521,14.074l-58.795,-0l0,61.37l58.795,-0c40.908,-0.016 40.908,-61.37 0,-61.37Zm0,47.002l-44.427,0l-0,-32.635l44.427,0c21.757,0 21.757,32.635 0,32.635Z" style="fill:#fff;fill-rule:nonzero;"/>
                <path d="M445.778,14.074l-37.998,-0c-40.908,-0 -40.908,61.354 0,61.354l37.998,0c40.908,0 40.908,-61.354 0,-61.354Zm0,47.002l-37.998,0c-21.756,0 -21.756,-32.635 0,-32.635c0,-1.737 0,0 0,0l37.998,0c21.757,0 21.757,32.635 0,32.635Z" style="fill:#fff;fill-rule:nonzero;"/>
                <path d="M258.713,37.049l-3.138,0c-3.961,0 -7.176,3.215 -7.176,7.176c-0,3.962 3.215,7.177 7.176,7.177l3.138,-0c3.962,-0 7.176,-3.215 7.176,-7.177c0,-3.961 -3.214,-7.176 -7.176,-7.176Z" style="fill:#fff;fill-rule:nonzero;"/>
                <path d="M360.047,48.217c3.032,-3.778 4.57,-8.623 4.57,-13.468c0,-10.345 -6.886,-20.675 -20.675,-20.675l-67.098,-0l-0,61.354l14.367,0l0,-20.004l52.731,-0c3.154,-0 6.323,2.102 6.323,6.323l0,13.697l14.368,-0l-0,-13.697c-0.016,-5.699 -1.783,-10.193 -4.586,-13.53Zm-16.105,-7.145l-52.731,-0l0,-12.631l52.731,0c4.205,0 6.323,3.154 6.323,6.323c0,3.139 -2.102,6.308 -6.323,6.308Z" style="fill:#fff;fill-rule:nonzero;"/>
                <path d="M561.738,14.074l-52.777,-0c-13.788,-0 -20.675,10.345 -20.675,20.675l0,40.679l14.368,0l-0,-40.679c-0,-3.154 2.102,-6.323 6.322,-6.323l19.792,-0l-0,47.002l14.367,0l0,-47.002l18.618,-0c4.205,-0 6.323,3.154 6.323,6.323l0,40.679l14.367,0l0,-40.679c-0.03,-10.33 -6.932,-20.675 -20.705,-20.675Z" style="fill:#fff;fill-rule:nonzero;"/>
                <path d="M605.053,27.558c0,-1.935 1.295,-3.87 3.87,-3.87l12.219,-0c15.602,-0 15.602,-23.418 0,-23.418l-22.351,0l0,7.831l22.351,0c5.165,0 5.165,7.74 0,7.74l-12.219,0c-7.8,0 -11.701,5.851 -11.701,11.701l0,8.7l34.509,-0l0,-7.831l-26.678,-0l0,-0.853Z" style="fill:#fff;fill-rule:nonzero;"/>
            </g>
            <g>
                <path d="M7.836,26.231l5.031,11.144l-3.239,3.554l4.633,-1.291l7.685,9.509l-5.03,-11.142l3.237,-3.556l-4.631,1.291l-7.686,-9.509Z" style="fill:#fff;fill-rule:nonzero;"/>
                <g>
                    <path d="M7.836,26.231l5.031,11.144l-3.239,3.554l4.633,-1.291l7.685,9.509l-5.03,-11.142l3.237,-3.556l-4.631,1.291l-7.686,-9.509Z" style="fill:#fff;fill-rule:nonzero;"/>
                </g>
                <g>
                    <path d="M12.309,37.261l-0.045,-0.1c-0.186,-0.047 -0.376,-0.084 -0.57,-0.115l-1.191,-0.184l0.388,1.952l1.418,-1.553Z" style="fill:#fff;fill-rule:nonzero;"/>
                    <path d="M17.885,46.323l-0.385,-1.942l-3.388,-4.192l-2.79,0.777l0.113,0.566l1.046,0.161c0.276,0.043 0.497,0.252 0.55,0.526l0.494,2.477c0.049,0.245 -0.161,0.462 -0.408,0.425l-6.812,-1.047c-0.276,-0.043 -0.497,-0.253 -0.55,-0.527l-0.494,-2.477c-0.049,-0.245 0.161,-0.462 0.408,-0.425l1,0.155l-0.928,-4.671l-1.451,-0.223c-2.052,-0.315 -3.793,1.504 -3.388,3.541l0.821,4.139c0.531,2.671 2.677,4.723 5.367,5.138l7.408,1.14c2.052,0.313 3.793,-1.506 3.387,-3.541Z" style="fill:#fff;fill-rule:nonzero;"/>
                </g>
                <path d="M26.078,78.856c-1.439,1.801 -2.947,2.726 -4.478,2.745c-4.304,0.057 -8.563,-7.178 -10.926,-18.498l-0.776,-0.12c2.375,11.596 6.777,19.421 11.712,19.354c2.927,-0.039 5.592,-2.847 7.707,-7.56l-0.754,-0.115c-0.766,1.678 -1.596,3.084 -2.485,4.194Z" style="fill:#fff;fill-rule:nonzero;"/>
                <path d="M8.04,43.47l0.736,0.114c-0.006,-4.347 0.249,-8.565 0.74,-12.51l-0.571,-1.267c-0.586,4.214 -0.907,8.823 -0.905,13.663Z" style="fill:#fff;fill-rule:nonzero;"/>
                <path d="M9.324,27.339l0.617,0.762c0.564,-3.491 1.328,-6.72 2.276,-9.571c1.125,-3.386 2.443,-6.037 3.92,-7.884c1.439,-1.801 2.947,-2.725 4.478,-2.745c4.392,-0.059 8.735,7.474 11.067,19.192c0.874,4.388 1.436,9.258 1.655,14.245c0.258,0.127 0.509,0.266 0.754,0.413c-0.21,-5.324 -0.797,-10.335 -1.686,-14.803c-2.354,-11.833 -6.803,-19.85 -11.8,-19.783c-5.009,0.066 -9.248,8.238 -11.281,20.174Z" style="fill:#fff;fill-rule:nonzero;"/>
                <g>
                    <path d="M17.202,19.329l0.764,3.838c0.045,0.227 0.227,0.401 0.456,0.436l0.777,0.12l-0.916,-4.61c-0.045,-0.227 -0.227,-0.401 -0.456,-0.436c-0.378,-0.059 -0.699,0.276 -0.625,0.652Z" style="fill:#fff;fill-rule:nonzero;"/>
                    <path d="M23.333,48.658l3.83,0.589c0.301,0.047 0.558,-0.221 0.499,-0.521l-0.869,-4.37l-4.754,-0.733l0.932,4.686c0.033,0.182 0.18,0.321 0.362,0.349Zm1.157,-1.573l-0.274,-1.376l1.116,0.172l0.274,1.377l-1.116,-0.173Z" style="fill:#fff;fill-rule:nonzero;"/>
                    <path d="M14.543,15.332c-1.04,0.689 -1.529,1.921 -1.295,3.1l0.96,4.829c0.255,1.274 0.993,2.371 2.013,3.095c-0.026,0.024 -0.049,0.047 -0.073,0.073c-0.677,0.709 -0.969,1.707 -0.777,2.669l1.163,5.853l1.671,-0.466l-1.14,-5.726c-0.174,-0.871 0.572,-1.651 1.451,-1.516l7.098,1.093l0.388,1.935l-6.209,-0.956c-0.302,-0.047 -0.559,0.221 -0.5,0.521l0.87,4.371l6.83,1.051l0.385,1.935l-7.948,-1.224l-1.956,2.148l2.602,5.765l-0.115,-0.58l-0.386,-1.935l10.468,1.612c3.079,0.474 5.53,2.822 6.139,5.874l0.429,2.154l-2.076,-0.319l-0.299,-1.51c-0.455,-2.279 -2.283,-4.031 -4.58,-4.384l-0.788,-0.121l1.021,5.128c0.174,0.871 -0.572,1.651 -1.451,1.516l-4.845,-0.746c-0.861,-0.133 -1.611,-0.6 -2.111,-1.269l-0.004,-0.002l-2.768,-3.427l0.487,2.45c0.255,1.274 0.993,2.371 2.013,3.096c-0.025,0.023 -0.049,0.047 -0.072,0.072c-0.678,0.709 -0.969,1.707 -0.778,2.669l1.032,5.189l-4.836,-0.744l-0.729,-3.658c-0.53,-2.671 -2.676,-4.723 -5.367,-5.138l-3.513,-0.54c-2.052,-0.316 -3.793,1.503 -3.387,3.54l1.709,8.586l10.398,1.6l1.733,8.708c0.045,0.227 0.227,0.401 0.456,0.436l18.044,2.777c0.378,0.059 0.697,-0.276 0.623,-0.65l-2.326,-11.69l-0.752,-3.777l-6.83,-1.052l-0.274,-1.376l6.829,1.051l-1.104,-5.545l-0.934,-0.143c0.443,-0.66 0.613,-1.475 0.456,-2.268l-0.438,-2.201c0.703,0.551 1.21,1.342 1.392,2.252l0.462,2.319c0.045,0.227 0.227,0.401 0.456,0.436l4.559,0.701c0.378,0.059 0.697,-0.276 0.622,-0.65l-0.757,-3.806c-0.75,-3.768 -3.776,-6.664 -7.572,-7.247l-0.365,-0.057l-1.488,-7.48l-6.83,-1.052l-0.274,-1.376l6.83,1.051l-1.104,-5.545l-0.934,-0.143c0.442,-0.66 0.613,-1.475 0.454,-2.268l-1.567,-7.875c-0.045,-0.227 -0.227,-0.402 -0.456,-0.437l-5.334,-0.82l0.043,0.219c-0.428,-0.204 -0.893,-0.349 -1.376,-0.423l-1.193,-0.184c-0.759,-0.118 -1.539,0.031 -2.175,0.452Zm-6.039,42.039l-0.584,-2.935c-0.049,-0.245 0.161,-0.462 0.408,-0.425l2.917,0.449c0.276,0.043 0.498,0.252 0.551,0.526l0.593,2.981l-3.885,-0.596Zm24.228,6.728l0.166,0.84l0.196,0.987l1.097,5.507l0.301,1.519l-15.559,-2.395l-0.127,-0.64l-0.942,-4.731l-0.427,-2.142l2.076,0.319l0.123,0.617l0.987,4.962l4.58,0.705l-0.462,-2.323l-0.083,-0.417l-0.301,-1.519l2.076,0.319l0.162,0.815l0.223,1.12l0.462,2.322l4.753,0.734l-1.013,-5.091l-0.056,-0.282l-0.31,-1.551l2.078,0.325Zm-2.879,4.514l-1.116,-0.172l-0.848,-4.259l-5.713,-0.88l0.847,4.259l-0.941,-0.145l-0.705,-3.538l-0.32,-1.606l1.491,0.23l6.281,0.967l1.024,5.144Zm0.75,-15.209l0.386,1.935l-6.209,-0.956c-0.302,-0.047 -0.558,0.221 -0.499,0.521l0.869,4.371l6.83,1.051l0.386,1.935l-8.906,-1.371l-1.406,-7.065c-0.174,-0.871 0.572,-1.651 1.451,-1.516l7.098,1.095Zm-2.866,-14.404l0.385,1.935l-8.905,-1.371l-0.386,-1.935l8.906,1.371Zm-11.342,-22.42l1.248,0.191c1.353,0.208 2.432,1.242 2.7,2.585l0.932,4.686l0.901,0.139c0.301,0.047 0.558,-0.221 0.499,-0.521l-0.869,-4.37l-0.173,-0.866l-0.213,-1.069l2.075,0.319l0.073,0.364l1.333,6.701c0.175,0.871 -0.571,1.651 -1.451,1.516l-4.844,-0.746c-1.353,-0.208 -2.432,-1.242 -2.7,-2.585l-0.962,-4.827c-0.172,-0.873 0.574,-1.653 1.451,-1.517Z" style="fill:#fff;fill-rule:nonzero;"/>
                </g>
            </g>
        </g>
    </g>
</svg>
