<svg viewBox="0 0 633 83" xmlns="http://www.w3.org/2000/svg" xml:space="preserve" style="fill-rule:evenodd;clip-rule:evenodd;stroke-linejoin:round;stroke-miterlimit:2">
    <clipPath id="a">
        <path d="M.843.27h632v82.068h-632z"/>
    </clipPath>
    <g clip-path="url(#a)">
        <path d="M78.626 75.428h58.795V61.061H78.626c-21.756 0-21.756-32.635 0-32.635h58.795V14.059H78.626c-40.908.015-40.908 61.369 0 61.369Zm128.895-61.354h-58.795v61.37h58.795c40.908-.016 40.908-61.37 0-61.37Zm0 47.002h-44.427V28.441h44.427c21.757 0 21.757 32.635 0 32.635Zm238.257-47.002H407.78c-40.908 0-40.908 61.354 0 61.354h37.998c40.908 0 40.908-61.354 0-61.354Zm0 47.002H407.78c-21.756 0-21.756-32.635 0-32.635 0-1.737 0 0 0 0h37.998c21.757 0 21.757 32.635 0 32.635Z" style="fill:#fff;fill-rule:nonzero"/>
        <path d="M258.713 37.049h-3.138a7.179 7.179 0 0 0-7.176 7.176 7.179 7.179 0 0 0 7.176 7.177h3.138a7.178 7.178 0 0 0 7.176-7.177 7.178 7.178 0 0 0-7.176-7.176Zm101.334 11.168c3.032-3.778 4.57-8.623 4.57-13.468 0-10.345-6.886-20.675-20.675-20.675h-67.098v61.354h14.367V55.424h52.731c3.154 0 6.323 2.102 6.323 6.323v13.697h14.368V61.747c-.016-5.699-1.783-10.193-4.586-13.53Zm-16.105-7.145h-52.731V28.441h52.731c4.205 0 6.323 3.154 6.323 6.323 0 3.139-2.102 6.308-6.323 6.308Zm217.796-26.998h-52.777c-13.788 0-20.675 10.345-20.675 20.675v40.679h14.368V34.749c0-3.154 2.102-6.323 6.322-6.323h19.792v47.002h14.367V28.426h18.618c4.205 0 6.323 3.154 6.323 6.323v40.679h14.367V34.749c-.03-10.33-6.932-20.675-20.705-20.675Zm43.315 13.484c0-1.935 1.295-3.87 3.87-3.87h12.219c15.602 0 15.602-23.418 0-23.418h-22.351v7.831h22.351c5.165 0 5.165 7.74 0 7.74h-12.219c-7.8 0-11.701 5.851-11.701 11.701v8.7h34.509v-7.831h-26.678v-.853ZM7.836 26.231l5.031 11.144-3.239 3.554 4.633-1.291 7.685 9.509-5.03-11.142 3.237-3.556-4.631 1.291-7.686-9.509Z" style="fill:#fff;fill-rule:nonzero"/>
        <path d="m7.836 26.231 5.031 11.144-3.239 3.554 4.633-1.291 7.685 9.509-5.03-11.142 3.237-3.556-4.631 1.291-7.686-9.509Z" style="fill:#fff;fill-rule:nonzero"/>
        <path d="m12.309 37.261-.045-.1a6.53 6.53 0 0 0-.57-.115l-1.191-.184.388 1.952 1.418-1.553Z" style="fill:#fff;fill-rule:nonzero"/>
        <path d="m17.885 46.323-.385-1.942-3.388-4.192-2.79.777.113.566 1.046.161a.661.661 0 0 1 .55.526l.494 2.477a.36.36 0 0 1-.408.425l-6.812-1.047a.663.663 0 0 1-.55-.527l-.494-2.477a.36.36 0 0 1 .408-.425l1 .155-.928-4.671-1.451-.223C2.238 35.591.497 37.41.902 39.447l.821 4.139a6.478 6.478 0 0 0 5.367 5.138l7.408 1.14c2.052.313 3.793-1.506 3.387-3.541Zm8.193 32.533c-1.439 1.801-2.947 2.726-4.478 2.745-4.304.057-8.563-7.178-10.926-18.498l-.776-.12c2.375 11.596 6.777 19.421 11.712 19.354 2.927-.039 5.592-2.847 7.707-7.56l-.754-.115c-.766 1.678-1.596 3.084-2.485 4.194Z" style="fill:#fff;fill-rule:nonzero"/>
        <path d="m8.04 43.47.736.114c-.006-4.347.249-8.565.74-12.51l-.571-1.267c-.586 4.214-.907 8.823-.905 13.663Zm1.284-16.131.617.762c.564-3.491 1.328-6.72 2.276-9.571 1.125-3.386 2.443-6.037 3.92-7.884 1.439-1.801 2.947-2.725 4.478-2.745 4.392-.059 8.735 7.474 11.067 19.192.874 4.388 1.436 9.258 1.655 14.245.258.127.509.266.754.413-.21-5.324-.797-10.335-1.686-14.803-2.354-11.833-6.803-19.85-11.8-19.783-5.009.066-9.248 8.238-11.281 20.174Z" style="fill:#fff;fill-rule:nonzero"/>
        <path d="m17.202 19.329.764 3.838a.549.549 0 0 0 .456.436l.777.12-.916-4.61a.551.551 0 0 0-1.081.216Zm6.131 29.329 3.83.589a.44.44 0 0 0 .499-.521l-.869-4.37-4.754-.733.932 4.686c.033.182.18.321.362.349Zm1.157-1.573-.274-1.376 1.116.172.274 1.377-1.116-.173Z" style="fill:#fff;fill-rule:nonzero"/>
        <path d="M14.543 15.332a3.013 3.013 0 0 0-1.295 3.1l.96 4.829a5.004 5.004 0 0 0 2.013 3.095 3.016 3.016 0 0 0-.85 2.742l1.163 5.853 1.671-.466-1.14-5.726a1.281 1.281 0 0 1 1.451-1.516l7.098 1.093.388 1.935-6.209-.956a.441.441 0 0 0-.5.521l.87 4.371 6.83 1.051.385 1.935-7.948-1.224-1.956 2.148 2.602 5.765-.115-.58-.386-1.935 10.468 1.612a7.41 7.41 0 0 1 6.139 5.874l.429 2.154-2.076-.319-.299-1.51a5.527 5.527 0 0 0-4.58-4.384l-.788-.121 1.021 5.128a1.281 1.281 0 0 1-1.451 1.516l-4.845-.746a3.254 3.254 0 0 1-2.111-1.269l-.004-.002-2.768-3.427.487 2.45a5.009 5.009 0 0 0 2.013 3.096 3.016 3.016 0 0 0-.85 2.741l1.032 5.189-4.836-.744-.729-3.658a6.476 6.476 0 0 0-5.367-5.138l-3.513-.54c-2.052-.316-3.793 1.503-3.387 3.54l1.709 8.586 10.398 1.6 1.733 8.708a.549.549 0 0 0 .456.436L35.9 74.916a.55.55 0 0 0 .623-.65l-2.326-11.69-.752-3.777-6.83-1.052-.274-1.376 6.829 1.051-1.104-5.545-.934-.143c.443-.66.613-1.475.456-2.268l-.438-2.201a3.815 3.815 0 0 1 1.392 2.252l.462 2.319a.549.549 0 0 0 .456.436l4.559.701a.548.548 0 0 0 .622-.65l-.757-3.806a9.135 9.135 0 0 0-7.572-7.247l-.365-.057-1.488-7.48-6.83-1.052-.274-1.376 6.83 1.051-1.104-5.545-.934-.143c.442-.66.613-1.475.454-2.268l-1.567-7.875a.55.55 0 0 0-.456-.437l-5.334-.82.043.219a4.945 4.945 0 0 0-1.376-.423l-1.193-.184a3.08 3.08 0 0 0-2.175.452ZM8.504 57.371l-.584-2.935a.36.36 0 0 1 .408-.425l2.917.449a.663.663 0 0 1 .551.526l.593 2.981-3.885-.596Zm24.228 6.728.166.84.196.987 1.097 5.507.301 1.519-15.559-2.395-.127-.64-.942-4.731-.427-2.142 2.076.319.123.617.987 4.962 4.58.705-.462-2.323-.083-.417-.301-1.519 2.076.319.162.815.223 1.12.462 2.322 4.753.734-1.013-5.091-.056-.282-.31-1.551 2.078.325Zm-2.879 4.514-1.116-.172-.848-4.259-5.713-.88.847 4.259-.941-.145-.705-3.538-.32-1.606 1.491.23 6.281.967 1.024 5.144Zm.75-15.209.386 1.935-6.209-.956a.44.44 0 0 0-.499.521l.869 4.371 6.83 1.051.386 1.935-8.906-1.371-1.406-7.065a1.281 1.281 0 0 1 1.451-1.516l7.098 1.095ZM27.737 39l.385 1.935-8.905-1.371-.386-1.935L27.737 39ZM16.395 16.58l1.248.191a3.26 3.26 0 0 1 2.7 2.585l.932 4.686.901.139a.44.44 0 0 0 .499-.521l-.869-4.37-.173-.866-.213-1.069 2.075.319.073.364 1.333 6.701a1.28 1.28 0 0 1-1.451 1.516l-4.844-.746a3.26 3.26 0 0 1-2.7-2.585l-.962-4.827a1.282 1.282 0 0 1 1.451-1.517Z" style="fill:#fff;fill-rule:nonzero"/>
    </g>
</svg>
