<?xml version="1.0" encoding="UTF-8"?>
<svg width="651px" height="101px" viewBox="0 0 651 101" version="1.1" xmlns="http://www.w3.org/2000/svg" xmlns:xlink="http://www.w3.org/1999/xlink">
    <title>pce-cd</title>
    <defs>
        <filter x="-1.9%" y="-14.6%" width="103.8%" height="129.2%" filterUnits="objectBoundingBox" id="filter-1">
            <feOffset dx="0" dy="2" in="SourceAlpha" result="shadowOffsetOuter1"></feOffset>
            <feGaussianBlur stdDeviation="2" in="shadowOffsetOuter1" result="shadowBlurOuter1"></feGaussianBlur>
            <feColorMatrix values="0 0 0 0 0   0 0 0 0 0   0 0 0 0 0  0 0 0 0.5 0" type="matrix" in="shadowBlurOuter1" result="shadowMatrixOuter1"></feColorMatrix>
            <feMerge>
                <feMergeNode in="shadowMatrixOuter1"></feMergeNode>
                <feMergeNode in="SourceGraphic"></feMergeNode>
            </feMerge>
        </filter>
        <polygon id="path-2" points="3.90798505e-14 0 632 0 632 82.068 0 82.068"></polygon>
    </defs>
    <g id="Page-1" stroke="none" stroke-width="1" fill="none" fill-rule="evenodd" opacity="0.78">
        <g id="NEC-PC-Engine-CD" transform="translate(6.000000, -10.000000)">
            <g id="pce-cd" filter="url(#filter-1)" transform="translate(3.624447, 19.009360)">
                <mask id="mask-3" fill="white">
                    <use xlink:href="#path-2"></use>
                </mask>
                <g id="Path"></g>
                <g id="Group" mask="url(#mask-3)" fill="#FFFFFF" fill-rule="nonzero">
                    <g transform="translate(0.000032, -0.000000)">
                        <path d="M77.7829681,75.158 L136.577968,75.158 L136.577968,60.791 L77.7829681,60.791 C56.0269681,60.791 56.0269681,28.156 77.7829681,28.156 L136.577968,28.156 L136.577968,13.789 L77.7829681,13.789 C36.8749681,13.804 36.8749681,75.158 77.7829681,75.158 Z M206.677968,13.804 L147.882968,13.804 L147.882968,75.174 L206.677968,75.174 C247.585968,75.158 247.585968,13.804 206.677968,13.804 L206.677968,13.804 Z M206.677968,60.806 L162.250968,60.806 L162.250968,28.171 L206.677968,28.171 C228.434968,28.171 228.434968,60.806 206.677968,60.806 L206.677968,60.806 Z M444.934968,13.804 L406.936968,13.804 C366.028968,13.804 366.028968,75.158 406.936968,75.158 L444.934968,75.158 C485.842968,75.158 485.842968,13.804 444.934968,13.804 L444.934968,13.804 Z M444.934968,60.806 L406.936968,60.806 C385.180968,60.806 385.180968,28.171 406.936968,28.171 C406.936968,26.434 406.936968,28.171 406.936968,28.171 L444.934968,28.171 C466.691968,28.171 466.691968,60.806 444.934968,60.806 L444.934968,60.806 Z" id="Shape"></path>
                        <path d="M257.869968,36.779 L254.731968,36.779 C250.769459,36.7806555 247.557624,39.9924906 247.555968,43.955 C247.557072,47.9178999 250.769068,51.1303441 254.731968,51.132 L257.869968,51.132 C261.833096,51.1308958 265.045416,47.9181285 265.045968,43.955 C265.044864,39.992262 261.832706,36.780104 257.869968,36.779 L257.869968,36.779 Z M359.203968,47.947 C362.235968,44.169 363.773968,39.324 363.773968,34.479 C363.773968,24.134 356.887968,13.804 343.098968,13.804 L276.000968,13.804 L276.000968,75.158 L290.367968,75.158 L290.367968,55.154 L343.098968,55.154 C346.252968,55.154 349.421968,57.256 349.421968,61.477 L349.421968,75.174 L363.789968,75.174 L363.789968,61.477 C363.773968,55.778 362.006968,51.284 359.203968,47.947 L359.203968,47.947 Z M343.098968,40.802 L290.367968,40.802 L290.367968,28.171 L343.098968,28.171 C347.303968,28.171 349.421968,31.325 349.421968,34.494 C349.421968,37.633 347.319968,40.802 343.098968,40.802 L343.098968,40.802 Z M560.894968,13.804 L508.117968,13.804 C494.329968,13.804 487.442968,24.149 487.442968,34.479 L487.442968,75.158 L501.810968,75.158 L501.810968,34.479 C501.810968,31.325 503.912968,28.156 508.132968,28.156 L527.924968,28.156 L527.924968,75.158 L542.291968,75.158 L542.291968,28.156 L560.909968,28.156 C565.114968,28.156 567.232968,31.31 567.232968,34.479 L567.232968,75.158 L581.599968,75.158 L581.599968,34.479 C581.569968,24.149 574.667968,13.804 560.894968,13.804 L560.894968,13.804 Z M604.209968,27.288 C604.209968,25.353 605.504968,23.418 608.079968,23.418 L620.298968,23.418 C635.900968,23.418 635.900968,3.55271368e-15 620.298968,3.55271368e-15 L597.947968,3.55271368e-15 L597.947968,7.831 L620.298968,7.831 C625.463968,7.831 625.463968,15.571 620.298968,15.571 L608.079968,15.571 C600.279968,15.571 596.378968,21.422 596.378968,27.272 L596.378968,35.972 L630.887968,35.972 L630.887968,28.141 L604.209968,28.141 L604.209968,27.288 Z M6.99296807,25.961 L12.0239681,37.105 L8.78496807,40.659 L13.4179681,39.368 L21.1029681,48.877 L16.0729681,37.735 L19.3099681,34.179 L14.6789681,35.47 L6.99296807,25.961 L6.99296807,25.961 Z" id="Shape"></path>
                        <polygon id="Path" points="6.99296807 25.961 12.0239681 37.105 8.78496807 40.659 13.4179681 39.368 21.1029681 48.877 16.0729681 37.735 19.3099681 34.179 14.6789681 35.47 6.99296807 25.961"></polygon>
                        <path d="M11.4659681,36.991 L11.4209681,36.891 C11.2327699,36.8442219 11.0425814,36.8058505 10.8509681,36.776 L9.65996807,36.592 L10.0479681,38.544 L11.4659681,36.991 L11.4659681,36.991 Z" id="Path"></path>
                        <path d="M17.0419681,46.053 L16.6569681,44.111 L13.2689681,39.919 L10.4789681,40.696 L10.5919681,41.262 L11.6379681,41.423 C11.9139708,41.4646215 12.1340817,41.6751276 12.1879681,41.949 L12.6819681,44.426 C12.7045013,44.5410708 12.6695811,44.6599057 12.5883774,44.7444929 C12.5071737,44.8290801 12.3898624,44.8688196 12.2739681,44.851 L5.46196807,43.804 C5.18594652,43.7616883 4.96602507,43.5509635 4.91196807,43.277 L4.41796807,40.8 C4.39543485,40.6849292 4.43035508,40.5660943 4.51155878,40.4815071 C4.59276248,40.3969199 4.71007375,40.3571804 4.82596807,40.375 L5.82596807,40.53 L4.89796807,35.859 L3.44696807,35.636 C1.39496807,35.321 -0.346031927,37.14 0.0589680726,39.177 L0.879968073,43.316 C1.41142898,45.9863711 3.55597389,48.0394123 6.24696807,48.454 L13.6549681,49.594 C15.7069681,49.907 17.4479681,48.088 17.0419681,46.053 Z M25.2349681,78.586 C23.7959681,80.387 22.2879681,81.312 20.7569681,81.331 C16.4529681,81.388 12.1939681,74.153 9.83096807,62.833 L9.05496807,62.713 C11.4299681,74.309 15.8319681,82.134 20.7669681,82.067 C23.6939681,82.028 26.3589681,79.22 28.4739681,74.507 L27.7199681,74.392 C26.9539681,76.07 26.1239681,77.476 25.2349681,78.586 Z" id="Shape"></path>
                        <path d="M7.19695878,43.2 L7.93296807,43.314 C7.92696807,38.967 8.18196807,34.749 8.67296807,30.804 L8.10196807,29.537 C7.51596807,33.751 7.19496807,38.36 7.19695878,43.2 L7.19695878,43.2 Z M8.48096807,27.069 L9.09796807,27.831 C9.66196807,24.34 10.4259681,21.111 11.3739681,18.26 C12.4989681,14.874 13.8169681,12.223 15.2939681,10.376 C16.7329681,8.575 18.2409681,7.651 19.7719681,7.631 C24.1639681,7.572 28.5069681,15.105 30.8389681,26.823 C31.7129681,31.211 32.2749681,36.081 32.4939681,41.068 C32.7519681,41.195 33.0029681,41.334 33.2479681,41.481 C33.0379681,36.157 32.4509681,31.146 31.5619681,26.678 C29.2079681,14.845 24.7589681,6.828 19.7619681,6.895 C14.7529681,6.961 10.5139681,15.133 8.48096807,27.069 Z" id="Shape"></path>
                        <path d="M16.3589681,19.059 L17.1229681,22.897 C17.1679477,23.1238803 17.3502998,23.2982344 17.5789681,23.333 L18.3559681,23.453 L17.4399681,18.843 C17.3803213,18.5444901 17.089978,18.3508533 16.7914681,18.4105 C16.4929582,18.4701468 16.2993213,18.7604901 16.3589681,19.059 L16.3589681,19.059 Z M22.4899681,48.388 L26.3199681,48.977 C26.4619952,48.9990589 26.6058434,48.9503588 26.7052606,48.8465585 C26.8046778,48.7427582 26.8471303,48.5969439 26.8189681,48.456 L25.9499681,44.086 L21.1959681,43.353 L22.1279681,48.039 C22.1609681,48.221 22.3079681,48.36 22.4899681,48.388 L22.4899681,48.388 Z M23.6469681,46.815 L23.3729681,45.439 L24.4889681,45.611 L24.7629681,46.988 L23.6469681,46.815 Z" id="Shape"></path>
                        <path d="M13.6999681,15.062 C12.6787936,15.7364454 12.1670108,16.9615625 12.4049681,18.162 L13.3649681,22.991 C13.616934,24.2415398 14.3369929,25.3486348 15.3779681,26.086 C14.6499238,26.7979074 14.3302569,27.8291152 14.5279681,28.828 L15.6909681,34.681 L17.3619681,34.215 L16.2219681,28.489 C16.1404556,28.0791369 16.2639867,27.6552785 16.5529367,27.3533845 C16.8418867,27.0514906 17.2599284,26.9095154 17.6729681,26.973 L24.7709681,28.066 L25.1589681,30.001 L18.9499681,29.045 C18.8078874,29.0230598 18.6640308,29.0717526 18.5644857,29.1754785 C18.4649407,29.2792045 18.4222043,29.4249417 18.4499681,29.566 L19.3199681,33.937 L26.1499681,34.988 L26.5349681,36.923 L18.5869681,35.699 L16.6309681,37.847 L19.2329681,43.612 L19.1179681,43.032 L18.7319681,41.097 L29.1999681,42.709 C32.2771195,43.1828674 34.7298672,45.5297383 35.3389681,48.583 L35.7679681,50.737 L33.6919681,50.418 L33.3929681,48.908 C32.9395164,46.6292684 31.109342,44.8774159 28.8129681,44.524 L28.0249681,44.403 L29.0459681,49.531 C29.1274805,49.9408631 29.0039494,50.3647215 28.7149995,50.6666155 C28.4260495,50.9685094 28.0080078,51.1104846 27.5949681,51.047 L22.7499681,50.301 C21.9072078,50.1709424 21.1491768,49.715262 20.6389681,49.032 L20.6349681,49.03 L17.8669681,45.603 L18.3539681,48.053 C18.6061747,49.3037106 19.3261523,50.4110382 20.3669681,51.149 C19.6392539,51.860694 19.3196145,52.8914371 19.5169681,53.89 L20.5489681,59.079 L15.7129681,58.335 L14.9839681,54.677 C14.4530483,52.006332 12.3082353,49.9530341 9.61696807,49.539 L6.10396807,48.999 C4.05196807,48.683 2.31096807,50.502 2.71696807,52.539 L4.42596807,61.125 L14.8239681,62.725 L16.5569681,71.433 C16.6019477,71.6598803 16.7842998,71.8342344 17.0129681,71.869 L35.0569681,74.646 C35.2341211,74.6731709 35.4134025,74.6123214 35.5374176,74.4829317 C35.6614328,74.3535419 35.7146259,74.1718417 35.6799681,73.996 L33.3539681,62.306 L32.6019681,58.529 L25.7719681,57.477 L25.4979681,56.101 L32.3269681,57.152 L31.2229681,51.607 L30.2889681,51.464 C30.7319681,50.804 30.9019681,49.989 30.7449681,49.196 L30.3069681,46.995 C31.0249117,47.5554381 31.5186636,48.3542379 31.6989681,49.247 L32.1609681,51.566 C32.2059477,51.7928803 32.3882998,51.9672344 32.6169681,52.002 L37.1759681,52.703 C37.3531732,52.7307797 37.5327563,52.6700789 37.6567676,52.5404851 C37.7807789,52.4108912 37.8335186,52.228811 37.7979681,52.053 L37.0409681,48.247 C36.2916476,44.4796093 33.2655877,41.5834318 29.4689681,41 L29.1039681,40.943 L27.6159681,33.463 L20.7859681,32.411 L20.5119681,31.035 L27.3419681,32.086 L26.2379681,26.541 L25.3039681,26.398 C25.7459681,25.738 25.9169681,24.923 25.7579681,24.13 L24.1909681,16.255 C24.1460908,16.0278789 23.9637924,15.8531763 23.7349681,15.818 L18.4009681,14.998 L18.4439681,15.217 C18.0083902,15.0096357 17.5448126,14.867126 17.0679681,14.794 L15.8749681,14.61 C15.1189837,14.4848625 14.3434996,14.6460206 13.6999681,15.062 L13.6999681,15.062 Z M7.66096807,57.101 L7.07696807,54.166 C7.05443485,54.0509292 7.08935508,53.9320943 7.17055878,53.8475071 C7.25176248,53.7629199 7.36907375,53.7231804 7.48496807,53.741 L10.4019681,54.19 C10.6780829,54.2317934 10.8984079,54.4421218 10.9529681,54.716 L11.5459681,57.697 L7.66096807,57.101 L7.66096807,57.101 Z M31.8889681,63.829 L32.0549681,64.669 L32.2509681,65.656 L33.3479681,71.163 L33.6489681,72.682 L18.0899681,70.287 L17.9629681,69.647 L17.0209681,64.916 L16.5939681,62.774 L18.6699681,63.093 L18.7929681,63.71 L19.7799681,68.672 L24.3599681,69.377 L23.8979681,67.054 L23.8149681,66.637 L23.5139681,65.118 L25.5899681,65.437 L25.7519681,66.252 L25.9749681,67.372 L26.4369681,69.694 L31.1899681,70.428 L30.1769681,65.337 L30.1209681,65.055 L29.8109681,63.504 L31.8889681,63.829 L31.8889681,63.829 Z M29.0099681,68.343 L27.8939681,68.171 L27.0459681,63.912 L21.3329681,63.032 L22.1799681,67.291 L21.2389681,67.146 L20.5339681,63.608 L20.2139681,62.002 L21.7049681,62.232 L27.9859681,63.199 L29.0099681,68.343 L29.0099681,68.343 Z M29.7599681,53.134 L30.1459681,55.069 L23.9369681,54.113 C23.794941,54.0909411 23.6510928,54.1396412 23.5516755,54.2434415 C23.4522583,54.3472418 23.4098059,54.4930561 23.4379681,54.634 L24.3069681,59.005 L31.1369681,60.056 L31.5229681,61.991 L22.6169681,60.62 L21.2109681,53.555 C21.1294556,53.1451369 21.2529867,52.7212785 21.5419367,52.4193845 C21.8308867,52.1174906 22.2489284,51.9755154 22.6619681,52.039 L29.7599681,53.134 L29.7599681,53.134 Z M26.8939681,38.73 L27.2789681,40.665 L18.3739681,39.294 L17.9879681,37.359 L26.8939681,38.73 Z M15.5519681,16.31 L16.7999681,16.501 C18.1536499,16.7098956 19.2323867,17.7426862 19.4999681,19.086 L20.4319681,23.772 L21.3329681,23.911 C21.4749952,23.9330589 21.6188434,23.8843588 21.7182606,23.7805585 C21.8176778,23.6767582 21.8601303,23.5309439 21.8319681,23.39 L20.9629681,19.02 L20.7899681,18.154 L20.5769681,17.085 L22.6519681,17.404 L22.7249681,17.768 L24.0579681,24.469 C24.1399731,24.8789471 24.0166108,25.3031072 23.7275373,25.6051303 C23.4384638,25.9071533 23.0201132,26.048973 22.6069681,25.985 L17.7629681,25.239 C16.4092862,25.0301044 15.3305494,23.9973138 15.0629681,22.654 L14.1009681,17.827 C14.019567,17.4170694 14.1430951,16.9931926 14.4319763,16.6911714 C14.7208575,16.3891501 15.1388242,16.2469018 15.5519681,16.31 L15.5519681,16.31 Z" id="Shape"></path>
                    </g>
                </g>
            </g>
        </g>
    </g>
</svg>