<svg viewBox="0 0 232 113" xmlns="http://www.w3.org/2000/svg" xml:space="preserve" style="fill-rule:evenodd;clip-rule:evenodd;stroke-linejoin:round;stroke-miterlimit:2">
    <clipPath id="a">
        <path d="M.122.611h231.459v112H.122z"/>
    </clipPath>
    <g clip-path="url(#a)">
        <path d="M23.761 82.944c-.16 0-.321-.036-.475-.112C7.781 75.307-.225 66.534.134 57.46c.291-7.469 6.386-14.521 17.627-20.396 10.665-5.572 25.708-9.995 43.503-12.791a1.086 1.086 0 1 1 .337 2.148C25.554 32.082 2.834 44.009 2.307 57.547c-.318 8.026 7.47 16.312 21.93 23.33a1.089 1.089 0 0 1-.476 2.067Zm135.167-55.728a1.21 1.21 0 0 1-.179-.014c-11.454-1.88-23.544-3.136-35.936-3.729a1.084 1.084 0 0 1-1.034-1.138 1.094 1.094 0 0 1 1.138-1.032c12.475.596 24.65 1.859 36.186 3.754a1.087 1.087 0 0 1-.175 2.159Zm-34.221 74.249-.911-.001a1.084 1.084 0 0 1-1.082-1.09 1.085 1.085 0 0 1 1.086-1.083h.004l.904.001c58.179.001 104.088-15.122 104.693-34.557.213-6.803-5.251-13.702-15.803-19.953-10.506-6.227-25.566-11.534-43.545-15.347a1.09 1.09 0 0 1-.839-1.29 1.09 1.09 0 0 1 1.29-.837c18.208 3.862 33.494 9.257 44.202 15.603 11.274 6.681 17.107 14.251 16.868 21.891-.321 10.336-11.74 19.758-32.15 26.526-19.735 6.544-46.238 10.137-74.717 10.137Z" style="fill:#fff;fill-rule:nonzero"/>
        <path d="m144.394 44.868 28.701-21.877-33.709 13.456-9.474-9.861 3.021 13.664-28.7 21.876 33.71-13.459 9.472 9.861-3.021-13.66Z" style="fill:#fff;fill-rule:nonzero"/>
        <path d="M108.451 72.178c.412-2.025 1.163-1.731 3.216-2.058l1.912-.3-.595 3.188-1.912.305c-2.053.326-2.958.875-2.621-1.135Zm-4.145-2.919-1.487 8.006c-.408 2.185.253 2.889 2.356 2.556l12.178-1.932 2.611-14.039-12.18 1.93c-2.103.333-3.074 1.295-3.478 3.479Zm77.313-12.635-.143.773 12.563-1.994c.991-.159 1.957-1.161 2.16-2.245.198-1.084-.44-1.834-1.432-1.675l-3.226.509-5.148.819-1.304.204c-1.51.242-3.165 1.962-3.47 3.609Zm-88.139 36.2.102-.558c.432.032 1.011.199 1.517.124l13.055-2.048c-.485 2.605-3.925 3.258-9.176 4.09l-5.974.949-3.205 17.23 7.851-1.245c19.329-1.907 26.682-11.898 29.043-23.806l23.552-3.738L154.04 63.4l1.915-.306c2.099-.333 1.789-.712 1.387 1.469l-3.474 18.686 16.909-2.684.231-1.238c1.276.563 2.768.761 4.346.513l29.242-4.638 2.727-14.678-1.895-1.349c1.642-1.946 2.922-4.325 3.293-6.323l.46-2.315c1.46-8.657-6.522-10.957-10.165-10.378l-16.781 2.663c-2.973.472-6.244 2.543-8.626 5.287-2.202-2.181-5.6-3.029-7.577-2.715l-18.683 2.963 2.092 4.622 16.848-2.669c2.431-.388 4.054.582 4.5 2.507-.181.509-4.5 23.507-4.5 23.507l-6.041.959 3.239-17.411c.402-2.18-.257-2.885-2.355-2.551l-11.578 1.839-3.798 20.421-6.641 1.057 4.346-23.382-5.466-6.448-19.68 7.114 9.327-1.481.151-.02-5.931 31.908c-1.507 8.105-10.156 15.857-17.829 17.075l-7.85 1.244 1.191-6.386 5.971-.944c5.25-.836 11.16-6.09 12.18-11.585l.644-3.458-15.55 2.467c-3.335.53-5.144-1.495-4.489-5.018l2.789-15c.493-2.666 2.157-4.878 4.382-6.029l.036-.401 7.803-6.004-4.558.767c-2.426.383-6.921 2.201-9.779 5.845-2.16-2.578-5.939-3.587-8.067-3.249l-16.761 2.662 2.732-14.682 12.228-1.941c6.509-1.03 13.712-8.352 14.992-15.228l1.838-9.894c1.28-6.879-3.558-12.289-10.068-11.257l-26.724 4.239-5.694 30.636-24.608 3.906c-2.082.331-4.109 2.384-4.516 4.585l-9.197 49.462c-.407 2.202.95 3.721 3.033 3.393l46.954-7.451 3.798-20.422 1.912-.306c2.104-.329 1.794-.708 1.386 1.472l-3.473 18.68 16.912-2.683ZM58.637 81.627l-15.7 2.491.59-3.187 12.681-2.017 3.086-16.594-12.681 2.015.59-3.19 15.702-2.492-4.268 22.974Zm-.95 5.107-1.304 7.019-27.778 4.407 8.657-46.59 22.948-3.641-1.185 6.384-16.306 2.589-2.489 13.401 13.284-2.107-1.186 6.381-13.285 2.106-2.495 13.406 21.139-3.355Zm31.909 1.754-6.644 1.05 3.235-17.405c.409-2.182-.251-2.89-2.355-2.557l-11.577 1.839-3.794 20.421-6.645 1.056 4.982-26.802.154-.026 22.041-3.497c3.334-.53 5.143 1.492 4.487 5.018l-3.884 20.903Zm43.178-32.867 6.493-1.028-4.985 26.804-6.641 1.053 4.981-26.801.152-.028Zm40.289 12.632 2.306-12.398c.731-3.922 4.946-7.774 8.535-8.345l15.535-2.461c2.618-.417 4.436 2.507 3.902 5.366l-.762 3.991c-.535 2.862-3.458 5.902-6.073 6.319l-16.125 2.559-.232 1.448c-.307 1.646.785 2.931 2.295 2.691l18.023-2.871-1.214 6.541-20.333 3.224c-3.591.568-6.583-2.139-5.857-6.064ZM76.959 33.504l2.254-12.127 8.455-1.341c1.109-.175 1.675.457 1.454 1.626l-1.54 8.3c-.221 1.174-1.059 2.025-2.169 2.201l-8.454 1.341Z" style="fill:#fff;fill-rule:nonzero"/>
        <path d="m130.996 39.178-1.793-7.109-1.013.122-.325 1.753c-.225 1.216-1.202 2.205-2.348 2.389l-6.946 1.101c-1.148.184-1.804-.551-1.577-1.766l3.5-18.827c.225-1.211 1.202-2.201 2.347-2.384l6.947-1.101c1.147-.183 1.802.55 1.576 1.761l-.448 2.397 14.042-2.23.534-2.87c1.345-7.244-3.578-12.75-10.435-11.666L121.622 2.88c-6.852 1.088-14.188 8.54-15.534 15.783l-3.737 20.104c-1.345 7.243 3.579 12.749 10.436 11.661l4.49-.709 13.719-10.541Zm9.955-4.288c.366-.986.619-1.361.807-2.373l.477-2.556-5.588.889 4.304 4.04Z" style="fill:#fff;fill-rule:nonzero"/>
    </g>
</svg>
