<?xml version="1.0" encoding="UTF-8" standalone="no"?>
<!DOCTYPE svg PUBLIC "-//W3C//DTD SVG 1.1//EN" "http://www.w3.org/Graphics/SVG/1.1/DTD/svg11.dtd">
<svg width="100%" height="100%" viewBox="0 0 234 114" version="1.1" xmlns="http://www.w3.org/2000/svg" xmlns:xlink="http://www.w3.org/1999/xlink" xml:space="preserve" xmlns:serif="http://www.serif.com/" style="fill-rule:evenodd;clip-rule:evenodd;stroke-linejoin:round;stroke-miterlimit:2;">
    <g transform="matrix(1,0,0,1,-243,-1567)">
        <g id="pcengine.afdesign" transform="matrix(1,0,0,1,360,1624.44)">
            <g transform="matrix(1,0,0,1,-319.942,-59.5264)">
                <g transform="matrix(0.893619,0,0,0.893619,51.9144,-69.7236)">
                    <g id="path7" transform="matrix(0.431689,0,0,0.431689,170.493,82.4999)">
                        <path d="M61.278,213.427C60.863,213.427 60.445,213.333 60.048,213.138C19.855,193.631 -0.899,170.889 0.03,147.367C0.785,128.005 16.586,109.725 45.726,94.495C73.371,80.05 112.366,68.585 158.495,61.337C160.035,61.097 161.476,62.149 161.716,63.686C161.96,65.223 160.907,66.664 159.37,66.907C65.927,81.581 7.031,112.498 5.663,147.592C4.839,168.398 25.028,189.878 62.511,208.07C63.909,208.75 64.493,210.431 63.813,211.839C63.326,212.84 62.321,213.427 61.278,213.427Z" style="fill:white;fill-rule:nonzero;"/>
                    </g>
                    <g id="path11" transform="matrix(0.431689,0,0,0.431689,170.493,82.4999)">
                        <path d="M411.664,68.967C411.511,68.967 411.357,68.955 411.201,68.931C381.508,64.056 350.169,60.802 318.046,59.265C316.488,59.193 315.288,57.873 315.364,56.315C315.439,54.763 316.783,53.575 318.314,53.638C350.654,55.184 382.214,58.459 412.118,63.37C413.652,63.62 414.695,65.07 414.44,66.606C414.211,67.99 413.02,68.967 411.664,68.967Z" style="fill:white;fill-rule:nonzero;"/>
                    </g>
                    <g id="path15" transform="matrix(0.431689,0,0,0.431689,170.493,82.4999)">
                        <path d="M322.955,261.439C322.167,261.439 321.385,261.439 320.594,261.435C319.036,261.432 317.785,260.169 317.788,258.611C317.794,257.057 319.048,255.802 320.603,255.802L320.615,255.802C321.388,255.805 322.179,255.805 322.958,255.805C473.772,255.808 592.779,216.606 594.349,166.224C594.899,148.591 580.737,130.705 553.383,114.501C526.148,98.36 487.11,84.603 440.503,74.718C438.981,74.396 438.01,72.898 438.328,71.376C438.65,69.855 440.151,68.886 441.673,69.205C488.873,79.217 528.496,93.202 556.256,109.653C585.48,126.97 600.601,146.594 599.982,166.398C599.149,193.192 569.549,217.616 516.641,235.162C465.483,252.124 396.78,261.439 322.955,261.439Z" style="fill:white;fill-rule:nonzero;"/>
                    </g>
                    <g id="polygon17" transform="matrix(0.431689,0,0,0.431689,170.493,82.4999)">
                        <path d="M373.989,114.726L448.389,58.014L361.006,92.895L336.449,67.334L344.278,102.754L269.881,159.463L357.267,124.573L381.82,150.134L373.989,114.726Z" style="fill:white;fill-rule:nonzero;"/>
                    </g>
                    <g id="path21" transform="matrix(0.431689,0,0,0.431689,170.493,82.4999)">
                        <path d="M280.816,185.52C281.884,180.269 283.83,181.033 289.153,180.185L294.11,179.406L292.567,187.67L287.61,188.461C282.287,189.307 279.941,190.729 280.816,185.52ZM270.071,177.953L266.215,198.705C265.159,204.371 266.871,206.194 272.323,205.331L303.893,200.323L310.66,163.932L279.087,168.934C273.635,169.797 271.117,172.29 270.071,177.953ZM470.485,145.199L470.115,147.204L502.68,142.035C505.251,141.623 507.754,139.024 508.28,136.215C508.794,133.406 507.14,131.46 504.569,131.872L496.205,133.193L482.861,135.316L479.48,135.845C475.567,136.471 471.276,140.931 470.485,145.199ZM242.008,239.039L242.272,237.592C243.391,237.676 244.892,238.109 246.203,237.914L280.047,232.606C278.789,239.357 269.872,241.051 256.26,243.207L240.772,245.667L232.465,290.332L252.817,287.105C302.922,282.16 321.983,256.263 328.103,225.394L389.156,215.703L398.993,162.765L403.959,161.971C409.399,161.108 408.596,160.125 407.553,165.779L398.548,214.218L442.38,207.261L442.978,204.052C446.286,205.511 450.154,206.025 454.244,205.382L530.048,193.358L537.116,155.31L532.205,151.812C536.46,146.768 539.778,140.6 540.74,135.421L541.934,129.421C545.717,106.979 525.026,101.018 515.582,102.519L472.082,109.421C464.376,110.645 455.895,116.014 449.721,123.126C444.013,117.472 435.204,115.274 430.079,116.089L381.649,123.77L387.072,135.752L430.747,128.832C437.047,127.827 441.255,130.341 442.41,135.331C441.943,136.651 430.747,196.266 430.747,196.266L415.086,198.753L423.483,153.62C424.524,147.968 422.816,146.14 417.378,147.006L387.366,151.773L377.52,204.711L360.305,207.451L371.571,146.838L357.4,130.122L306.386,148.564L330.564,144.726L330.955,144.672L315.58,227.388C311.673,248.398 289.253,268.491 269.364,271.649L249.015,274.873L252.101,258.32L267.58,255.872C281.189,253.706 296.51,240.085 299.153,225.842L300.822,216.879L260.513,223.273C251.869,224.648 247.178,219.397 248.877,210.266L256.107,171.382C257.385,164.471 261.698,158.735 267.466,155.752L267.559,154.714L287.785,139.15L275.971,141.138C269.683,142.131 258.029,146.844 250.621,156.29C245.021,149.607 235.226,146.991 229.71,147.866L186.261,154.768L193.343,116.708L225.042,111.677C241.914,109.006 260.585,90.026 263.905,72.203L268.669,46.555C271.986,28.721 259.445,14.697 242.57,17.374L173.295,28.363L158.534,107.779L94.745,117.902C89.347,118.76 84.093,124.083 83.037,129.788L59.197,258.007C58.141,263.715 61.66,267.652 67.058,266.801L188.775,247.487L198.621,194.549L203.578,193.755C209.03,192.901 208.227,191.92 207.169,197.571L198.167,245.995L242.008,239.039ZM151.686,210.013L110.986,216.47L112.517,208.209L145.389,202.982L153.389,159.965L120.517,165.189L122.047,156.919L162.748,150.459L151.686,210.013ZM149.223,223.252L145.843,241.448L73.834,252.87L96.276,132.098L155.764,122.66L152.691,139.208L110.423,145.92L103.969,180.66L138.405,175.198L135.332,191.737L100.893,197.198L94.426,231.95L149.223,223.252ZM231.939,227.8L214.715,230.521L223.102,185.403C224.161,179.746 222.45,177.911 216.997,178.774L186.988,183.541L177.151,236.479L159.927,239.216L172.841,169.737L173.241,169.671L230.375,160.606C239.018,159.232 243.707,164.474 242.008,173.613L231.939,227.8ZM343.866,142.6L360.699,139.935L347.776,209.418L330.561,212.146L343.472,142.672L343.866,142.6ZM448.307,175.346L454.283,143.205C456.178,133.039 467.104,123.054 476.409,121.575L516.68,115.193C523.465,114.113 528.178,121.692 526.794,129.105L524.818,139.451C523.432,146.868 515.856,154.75 509.077,155.83L467.276,162.465L466.674,166.218C465.88,170.483 468.71,173.815 472.623,173.192L519.345,165.752L516.196,182.708L463.489,191.063C454.181,192.537 446.425,185.52 448.307,175.346ZM199.181,85.268L205.024,53.831L226.94,50.354C229.815,49.9 231.283,51.539 230.711,54.57L226.718,76.086C226.146,79.127 223.972,81.334 221.096,81.791L199.181,85.268Z" style="fill:white;fill-rule:nonzero;"/>
                    </g>
                    <g id="path25" transform="matrix(0.431689,0,0,0.431689,170.493,82.4999)">
                        <path d="M339.258,99.975L334.609,81.548L331.983,81.863L331.141,86.408C330.558,89.56 328.025,92.122 325.054,92.6L307.048,95.454C304.074,95.93 302.374,94.026 302.961,90.877L312.034,42.071C312.618,38.934 315.15,36.366 318.119,35.891L336.127,33.037C339.099,32.564 340.798,34.465 340.212,37.602L339.051,43.816L375.451,38.035L376.834,30.595C380.323,11.819 367.559,-2.455 349.785,0.354L314.958,5.882C297.195,8.703 278.179,28.02 274.69,46.796L265.003,98.91C261.517,117.686 274.281,131.959 292.056,129.138L303.695,127.301L339.258,99.975Z" style="fill:white;fill-rule:nonzero;"/>
                    </g>
                    <g id="path27" transform="matrix(0.431689,0,0,0.431689,170.493,82.4999)">
                        <path d="M365.063,88.859C366.013,86.303 366.669,85.331 367.156,82.709L368.392,76.083L353.908,78.387L365.063,88.859Z" style="fill:white;fill-rule:nonzero;"/>
                    </g>
                </g>
            </g>
        </g>
    </g>
</svg>
