<?xml version="1.0" encoding="UTF-8"?>
<svg width="233px" height="113px" viewBox="0 0 233 113" version="1.1" xmlns="http://www.w3.org/2000/svg" xmlns:xlink="http://www.w3.org/1999/xlink">
    <title>pcengine</title>
    <defs>
        <polygon id="path-1" points="0 0 231.459 0 231.459 112 0 112"></polygon>
    </defs>
    <g id="Page-1" stroke="none" stroke-width="1" fill="none" fill-rule="evenodd" opacity="0.78">
        <g id="Emulation-Station-System-Logo-4:3" transform="translate(-203.000000, -4.000000)">
            <g id="pcengine" transform="translate(203.895008, 4.009360)">
                <mask id="mask-2" fill="white">
                    <use xlink:href="#path-1"></use>
                </mask>
                <g id="Path"></g>
                <g id="Group" mask="url(#mask-2)" fill="#FFFFFF" fill-rule="nonzero">
                    <g transform="translate(-0.000060, 0.000438)">
                        <path d="M23.638564,82.3325617 C23.478564,82.3325617 23.317564,82.2965617 23.163564,82.2205617 C7.65856395,74.6955617 -0.347436049,65.9225617 0.0115639507,56.8485617 C0.302563951,49.3795617 6.39756395,42.3275617 17.638564,36.4525617 C28.303564,30.8805617 43.346564,26.4575617 61.141564,23.6615617 C61.5252672,23.6013624 61.9119396,23.7504392 62.1559253,24.0526364 C62.399911,24.3548335 62.4641428,24.76424 62.3244253,25.1266364 C62.1847077,25.4890328 61.8622672,25.7493624 61.478564,25.8095617 C25.431564,31.4705617 2.71156395,43.3975617 2.18456395,56.9355617 C1.86656395,64.9615617 9.65456395,73.2475617 24.114564,80.2655617 C24.5691422,80.488196 24.8103913,80.9946911 24.6968009,81.4879503 C24.5832105,81.9812095 24.1447314,82.3311731 23.638564,82.3325617 L23.638564,82.3325617 Z M158.805564,26.6045617 C158.745633,26.6043344 158.685802,26.5996548 158.626564,26.5905617 C147.172564,24.7105617 135.082564,23.4545617 122.690564,22.8615617 C122.402233,22.8486219 122.130968,22.7212314 121.936877,22.5076184 C121.742786,22.2940054 121.641896,22.0118094 121.656564,21.7235617 C121.689944,21.1262835 122.196876,20.66657 122.794564,20.6915617 C135.269564,21.2875617 147.444564,22.5505617 158.980564,24.4455617 C159.537183,24.5389672 159.929717,25.0428358 159.884118,25.6053926 C159.838519,26.1679494 159.36996,26.6020212 158.805564,26.6045617 L158.805564,26.6045617 Z M124.584564,100.853562 L123.673564,100.852562 C123.385373,100.852034 123.109255,100.73677 122.906226,100.532239 C122.703196,100.327708 122.589968,100.050748 122.591547,99.7625617 C122.592668,99.1637233 123.078725,98.6790087 123.677564,98.6795617 L123.681564,98.6795617 L124.585564,98.6805617 C182.764564,98.6815617 228.673564,83.5585617 229.278564,64.1235617 C229.491564,57.3205617 224.027564,50.4215617 213.475564,44.1705617 C202.969564,37.9435617 187.909564,32.6365617 169.930564,28.8235617 C169.34329,28.6980992 168.968124,28.1212637 169.091564,27.5335617 C169.217954,26.9471008 169.794497,26.5730187 170.381564,26.6965617 C188.589564,30.5585617 203.875564,35.9535617 214.583564,42.2995617 C225.857564,48.9805617 231.690564,56.5505617 231.451564,64.1905617 C231.130564,74.5265617 219.711564,83.9485617 199.301564,90.7165617 C179.566564,97.2605617 153.063564,100.853562 124.584564,100.853562 L124.584564,100.853562 Z" id="Shape"></path>
                        <polygon id="Path" points="144.271564 44.2565617 172.972564 22.3795617 139.263564 35.8355617 129.789564 25.9745617 132.810564 39.6385617 104.110564 61.5145617 137.820564 48.0555617 147.292564 57.9165617 144.271564 44.2565617"></polygon>
                        <path d="M108.328564,71.5665617 C108.740564,69.5415617 109.491564,69.8355617 111.544564,69.5085617 L113.456564,69.2085617 L112.861564,72.3965617 L110.949564,72.7015617 C108.896564,73.0275617 107.991564,73.5765617 108.328564,71.5665617 Z M104.183564,68.6475617 L102.696564,76.6535617 C102.288564,78.8385617 102.949564,79.5425617 105.052564,79.2095617 L117.230564,77.2775617 L119.841564,63.2385617 L107.661564,65.1685617 C105.558564,65.5015617 104.587564,66.4635617 104.183564,68.6475617 Z M181.496564,56.0125617 L181.353564,56.7855617 L193.916564,54.7915617 C194.907564,54.6325617 195.873564,53.6305617 196.076564,52.5465617 C196.274564,51.4625617 195.636564,50.7125617 194.644564,50.8715617 L191.418564,51.3805617 L186.270564,52.1995617 L184.966564,52.4035617 C183.456564,52.6455617 181.801564,54.3655617 181.496564,56.0125617 L181.496564,56.0125617 Z M93.357564,92.2125617 L93.459564,91.6545617 C93.891564,91.6865617 94.470564,91.8535617 94.976564,91.7785617 L108.031564,89.7305617 C107.546564,92.3355617 104.106564,92.9885617 98.855564,93.8205617 L92.881564,94.7695617 L89.676564,111.999562 L97.527564,110.754562 C116.856564,108.847562 124.209564,98.8565617 126.570564,86.9485617 L150.122564,83.2105617 L153.917564,62.7885617 L155.832564,62.4825617 C157.931564,62.1495617 157.621564,61.7705617 157.219564,63.9515617 L153.745564,82.6375617 L170.654564,79.9535617 L170.885564,78.7155617 C172.161564,79.2785617 173.653564,79.4765617 175.231564,79.2285617 L204.473564,74.5905617 L207.200564,59.9125617 L205.305564,58.5635617 C206.947564,56.6175617 208.227564,54.2385617 208.598564,52.2405617 L209.058564,49.9255617 C210.518564,41.2685617 202.536564,38.9685617 198.893564,39.5475617 L182.112564,42.2105617 C179.139564,42.6825617 175.868564,44.7535617 173.486564,47.4975617 C171.284564,45.3165617 167.886564,44.4685617 165.909564,44.7825617 L147.226564,47.7455617 L149.318564,52.3675617 L166.166564,49.6985617 C168.597564,49.3105617 170.220564,50.2805617 170.666564,52.2055617 C170.485564,52.7145617 166.166564,75.7125617 166.166564,75.7125617 L160.125564,76.6715617 L163.364564,59.2605617 C163.766564,57.0805617 163.107564,56.3755617 161.009564,56.7095617 L149.431564,58.5485617 L145.633564,78.9695617 L138.992564,80.0265617 L143.338564,56.6445617 L137.872564,50.1965617 L118.192564,57.3105617 L127.519564,55.8295617 L127.670564,55.8095617 L121.739564,87.7175617 C120.232564,95.8225617 111.583564,103.574562 103.910564,104.792562 L96.060564,106.036562 L97.251564,99.6505617 L103.222564,98.7065617 C108.472564,97.8705617 114.382564,92.6165617 115.402564,87.1215617 L116.046564,83.6635617 L100.496564,86.1305617 C97.161564,86.6605617 95.352564,84.6355617 96.007564,81.1125617 L98.796564,66.1125617 C99.289564,63.4465617 100.953564,61.2345617 103.178564,60.0835617 L103.214564,59.6825617 L111.017564,53.6785617 L106.459564,54.4455617 C104.033564,54.8285617 99.538564,56.6465617 96.680564,60.2905617 C94.520564,57.7125617 90.741564,56.7035617 88.613564,57.0415617 L71.852564,59.7035617 L74.584564,45.0215617 L86.812564,43.0805617 C93.321564,42.0505617 100.524564,34.7285617 101.804564,27.8525617 L103.642564,17.9585617 C104.922564,11.0795617 100.084564,5.66956167 93.574564,6.70156167 L66.850564,10.9405617 L61.156564,41.5765617 L36.548564,45.4825617 C34.466564,45.8135617 32.439564,47.8665617 32.032564,50.0675617 L22.835564,99.5295617 C22.428564,101.731562 23.785564,103.250562 25.868564,102.922562 L72.822564,95.4715617 L76.620564,75.0495617 L78.532564,74.7435617 C80.636564,74.4145617 80.326564,74.0355617 79.918564,76.2155617 L76.445564,94.8955617 L93.357564,92.2125617 Z M58.514564,81.0155617 L42.814564,83.5065617 L43.404564,80.3195617 L56.085564,78.3025617 L59.171564,61.7085617 L46.490564,63.7235617 L47.080564,60.5335617 L62.782564,58.0415617 L58.514564,81.0155617 Z M57.564564,86.1225617 L56.260564,93.1415617 L28.482564,97.5485617 L37.139564,50.9585617 L60.087564,47.3175617 L58.902564,53.7015617 L42.596564,56.2905617 L40.107564,69.6915617 L53.391564,67.5845617 L52.205564,73.9655617 L38.920564,76.0715617 L36.425564,89.4775617 L57.564564,86.1225617 Z M89.473564,87.8765617 L82.829564,88.9265617 L86.064564,71.5215617 C86.473564,69.3395617 85.813564,68.6315617 83.709564,68.9645617 L72.132564,70.8035617 L68.338564,91.2245617 L61.693564,92.2805617 L66.675564,65.4785617 L66.829564,65.4525617 L88.870564,61.9555617 C92.204564,61.4255617 94.013564,63.4475617 93.357564,66.9735617 L89.473564,87.8765617 L89.473564,87.8765617 Z M132.651564,55.0095617 L139.144564,53.9815617 L134.159564,80.7855617 L127.518564,81.8385617 L132.499564,55.0375617 L132.651564,55.0095617 L132.651564,55.0095617 Z M172.940564,67.6415617 L175.246564,55.2435617 C175.977564,51.3215617 180.192564,47.4695617 183.781564,46.8985617 L199.316564,44.4375617 C201.934564,44.0205617 203.752564,46.9445617 203.218564,49.8035617 L202.456564,53.7945617 C201.921564,56.6565617 198.998564,59.6965617 196.383564,60.1135617 L180.258564,62.6725617 L180.026564,64.1205617 C179.719564,65.7665617 180.811564,67.0515617 182.321564,66.8115617 L200.344564,63.9405617 L199.130564,70.4815617 L178.797564,73.7055617 C175.206564,74.2735617 172.214564,71.5665617 172.940564,67.6415617 L172.940564,67.6415617 Z M76.836564,32.8925617 L79.090564,20.7655617 L87.545564,19.4245617 C88.654564,19.2495617 89.220564,19.8815617 88.999564,21.0505617 L87.459564,29.3505617 C87.238564,30.5245617 86.400564,31.3755617 85.290564,31.5515617 L76.836564,32.8925617 Z" id="Shape"></path>
                        <path d="M130.873564,38.5665617 L129.080564,31.4575617 L128.067564,31.5795617 L127.742564,33.3325617 C127.517564,34.5485617 126.540564,35.5375617 125.394564,35.7215617 L118.448564,36.8225617 C117.300564,37.0065617 116.644564,36.2715617 116.871564,35.0565617 L120.371564,16.2295617 C120.596564,15.0185617 121.573564,14.0285617 122.718564,13.8455617 L129.665564,12.7445617 C130.812564,12.5615617 131.467564,13.2945617 131.241564,14.5055617 L130.793564,16.9025617 L144.835564,14.6725617 L145.369564,11.8025617 C146.714564,4.55856167 141.791564,-0.947438328 134.934564,0.136561672 L121.499564,2.26856167 C114.647564,3.35656167 107.311564,10.8085617 105.965564,18.0515617 L102.228564,38.1555617 C100.883564,45.3985617 105.807564,50.9045617 112.664564,49.8165617 L117.154564,49.1075617 L130.873564,38.5665617 Z M140.828564,34.2785617 C141.194564,33.2925617 141.447564,32.9175617 141.635564,31.9055617 L142.112564,29.3495617 L136.524564,30.2385617 L140.828564,34.2785617 Z" id="Shape"></path>
                    </g>
                </g>
            </g>
        </g>
    </g>
</svg>