<?xml version="1.0" encoding="UTF-8" standalone="no"?>
<!DOCTYPE svg PUBLIC "-//W3C//DTD SVG 1.1//EN" "http://www.w3.org/Graphics/SVG/1.1/DTD/svg11.dtd">
<svg width="100%" height="100%" viewBox="0 0 232 113" version="1.1" xmlns="http://www.w3.org/2000/svg" xmlns:xlink="http://www.w3.org/1999/xlink" xml:space="preserve" xmlns:serif="http://www.serif.com/" style="fill-rule:evenodd;clip-rule:evenodd;stroke-linejoin:round;stroke-miterlimit:2;">
    <clipPath id="_clip1">
        <rect id="pcengine.afdesign" x="0.122" y="0.611" width="231.459" height="112"/>
    </clipPath>
    <g clip-path="url(#_clip1)">
        <g>
            <g id="path7">
                <path d="M23.761,82.944c-0.16,-0 -0.321,-0.036 -0.475,-0.112c-15.505,-7.525 -23.511,-16.298 -23.152,-25.372c0.291,-7.469 6.386,-14.521 17.627,-20.396c10.665,-5.572 25.708,-9.995 43.503,-12.791c0.594,-0.093 1.15,0.313 1.242,0.906c0.095,0.593 -0.312,1.149 -0.905,1.242c-36.047,5.661 -58.767,17.588 -59.294,31.126c-0.318,8.026 7.47,16.312 21.93,23.33c0.539,0.263 0.764,0.911 0.502,1.454c-0.188,0.386 -0.576,0.613 -0.978,0.613Z" style="fill:#fff;fill-rule:nonzero;"/>
            </g>
            <g id="path11">
                <path d="M158.928,27.216c-0.059,0 -0.119,-0.005 -0.179,-0.014c-11.454,-1.88 -23.544,-3.136 -35.936,-3.729c-0.601,-0.027 -1.064,-0.537 -1.034,-1.138c0.028,-0.598 0.547,-1.057 1.138,-1.032c12.475,0.596 24.65,1.859 36.186,3.754c0.592,0.096 0.994,0.656 0.896,1.248c-0.089,0.534 -0.548,0.911 -1.071,0.911Z" style="fill:#fff;fill-rule:nonzero;"/>
            </g>
            <g id="path15">
                <path d="M124.707,101.465c-0.304,0 -0.606,0 -0.911,-0.001c-0.601,-0.002 -1.084,-0.489 -1.082,-1.09c0.002,-0.599 0.486,-1.083 1.086,-1.083l0.004,-0c0.298,0.001 0.604,0.001 0.904,0.001c58.179,0.001 104.088,-15.122 104.693,-34.557c0.213,-6.803 -5.251,-13.702 -15.803,-19.953c-10.506,-6.227 -25.566,-11.534 -43.545,-15.347c-0.587,-0.125 -0.962,-0.702 -0.839,-1.29c0.124,-0.586 0.703,-0.96 1.29,-0.837c18.208,3.862 33.494,9.257 44.202,15.603c11.274,6.681 17.107,14.251 16.868,21.891c-0.321,10.336 -11.74,19.758 -32.15,26.526c-19.735,6.544 -46.238,10.137 -74.717,10.137Z" style="fill:#fff;fill-rule:nonzero;"/>
            </g>
            <g id="polygon17">
                <path d="M144.394,44.868l28.701,-21.877l-33.709,13.456l-9.474,-9.861l3.021,13.664l-28.7,21.876l33.71,-13.459l9.472,9.861l-3.021,-13.66Z" style="fill:#fff;fill-rule:nonzero;"/>
            </g>
            <g id="path21">
                <path d="M108.451,72.178c0.412,-2.025 1.163,-1.731 3.216,-2.058l1.912,-0.3l-0.595,3.188l-1.912,0.305c-2.053,0.326 -2.958,0.875 -2.621,-1.135Zm-4.145,-2.919l-1.487,8.006c-0.408,2.185 0.253,2.889 2.356,2.556l12.178,-1.932l2.611,-14.039l-12.18,1.93c-2.103,0.333 -3.074,1.295 -3.478,3.479Zm77.313,-12.635l-0.143,0.773l12.563,-1.994c0.991,-0.159 1.957,-1.161 2.16,-2.245c0.198,-1.084 -0.44,-1.834 -1.432,-1.675l-3.226,0.509l-5.148,0.819l-1.304,0.204c-1.51,0.242 -3.165,1.962 -3.47,3.609Zm-88.139,36.2l0.102,-0.558c0.432,0.032 1.011,0.199 1.517,0.124l13.055,-2.048c-0.485,2.605 -3.925,3.258 -9.176,4.09l-5.974,0.949l-3.205,17.23l7.851,-1.245c19.329,-1.907 26.682,-11.898 29.043,-23.806l23.552,-3.738l3.795,-20.422l1.915,-0.306c2.099,-0.333 1.789,-0.712 1.387,1.469l-3.474,18.686l16.909,-2.684l0.231,-1.238c1.276,0.563 2.768,0.761 4.346,0.513l29.242,-4.638l2.727,-14.678l-1.895,-1.349c1.642,-1.946 2.922,-4.325 3.293,-6.323l0.46,-2.315c1.46,-8.657 -6.522,-10.957 -10.165,-10.378l-16.781,2.663c-2.973,0.472 -6.244,2.543 -8.626,5.287c-2.202,-2.181 -5.6,-3.029 -7.577,-2.715l-18.683,2.963l2.092,4.622l16.848,-2.669c2.431,-0.388 4.054,0.582 4.5,2.507c-0.181,0.509 -4.5,23.507 -4.5,23.507l-6.041,0.959l3.239,-17.411c0.402,-2.18 -0.257,-2.885 -2.355,-2.551l-11.578,1.839l-3.798,20.421l-6.641,1.057l4.346,-23.382l-5.466,-6.448l-19.68,7.114l9.327,-1.481l0.151,-0.02l-5.931,31.908c-1.507,8.105 -10.156,15.857 -17.829,17.075l-7.85,1.244l1.191,-6.386l5.971,-0.944c5.25,-0.836 11.16,-6.09 12.18,-11.585l0.644,-3.458l-15.55,2.467c-3.335,0.53 -5.144,-1.495 -4.489,-5.018l2.789,-15c0.493,-2.666 2.157,-4.878 4.382,-6.029l0.036,-0.401l7.803,-6.004l-4.558,0.767c-2.426,0.383 -6.921,2.201 -9.779,5.845c-2.16,-2.578 -5.939,-3.587 -8.067,-3.249l-16.761,2.662l2.732,-14.682l12.228,-1.941c6.509,-1.03 13.712,-8.352 14.992,-15.228l1.838,-9.894c1.28,-6.879 -3.558,-12.289 -10.068,-11.257l-26.724,4.239l-5.694,30.636l-24.608,3.906c-2.082,0.331 -4.109,2.384 -4.516,4.585l-9.197,49.462c-0.407,2.202 0.95,3.721 3.033,3.393l46.954,-7.451l3.798,-20.422l1.912,-0.306c2.104,-0.329 1.794,-0.708 1.386,1.472l-3.473,18.68l16.912,-2.683Zm-34.843,-11.197l-15.7,2.491l0.59,-3.187l12.681,-2.017l3.086,-16.594l-12.681,2.015l0.59,-3.19l15.702,-2.492l-4.268,22.974Zm-0.95,5.107l-1.304,7.019l-27.778,4.407l8.657,-46.59l22.948,-3.641l-1.185,6.384l-16.306,2.589l-2.489,13.401l13.284,-2.107l-1.186,6.381l-13.285,2.106l-2.495,13.406l21.139,-3.355Zm31.909,1.754l-6.644,1.05l3.235,-17.405c0.409,-2.182 -0.251,-2.89 -2.355,-2.557l-11.577,1.839l-3.794,20.421l-6.645,1.056l4.982,-26.802l0.154,-0.026l22.041,-3.497c3.334,-0.53 5.143,1.492 4.487,5.018l-3.884,20.903Zm43.178,-32.867l6.493,-1.028l-4.985,26.804l-6.641,1.053l4.981,-26.801l0.152,-0.028Zm40.289,12.632l2.306,-12.398c0.731,-3.922 4.946,-7.774 8.535,-8.345l15.535,-2.461c2.618,-0.417 4.436,2.507 3.902,5.366l-0.762,3.991c-0.535,2.862 -3.458,5.902 -6.073,6.319l-16.125,2.559l-0.232,1.448c-0.307,1.646 0.785,2.931 2.295,2.691l18.023,-2.871l-1.214,6.541l-20.333,3.224c-3.591,0.568 -6.583,-2.139 -5.857,-6.064Zm-96.104,-34.749l2.254,-12.127l8.455,-1.341c1.109,-0.175 1.675,0.457 1.454,1.626l-1.54,8.3c-0.221,1.174 -1.059,2.025 -2.169,2.201l-8.454,1.341Z" style="fill:#fff;fill-rule:nonzero;"/>
            </g>
            <g id="path25">
                <path d="M130.996,39.178l-1.793,-7.109l-1.013,0.122l-0.325,1.753c-0.225,1.216 -1.202,2.205 -2.348,2.389l-6.946,1.101c-1.148,0.184 -1.804,-0.551 -1.577,-1.766l3.5,-18.827c0.225,-1.211 1.202,-2.201 2.347,-2.384l6.947,-1.101c1.147,-0.183 1.802,0.55 1.576,1.761l-0.448,2.397l14.042,-2.23l0.534,-2.87c1.345,-7.244 -3.578,-12.75 -10.435,-11.666l-13.435,2.132c-6.852,1.088 -14.188,8.54 -15.534,15.783l-3.737,20.104c-1.345,7.243 3.579,12.749 10.436,11.661l4.49,-0.709l13.719,-10.541Z" style="fill:#fff;fill-rule:nonzero;"/>
            </g>
            <g id="path27">
                <path d="M140.951,34.89c0.366,-0.986 0.619,-1.361 0.807,-2.373l0.477,-2.556l-5.588,0.889l4.304,4.04Z" style="fill:#fff;fill-rule:nonzero;"/>
            </g>
        </g>
    </g>
</svg>
