<?xml version="1.0" encoding="UTF-8" standalone="no"?>
<!DOCTYPE svg PUBLIC "-//W3C//DTD SVG 1.1//EN" "http://www.w3.org/Graphics/SVG/1.1/DTD/svg11.dtd">
<svg width="100%" height="100%" viewBox="0 0 640 120" version="1.1" xmlns="http://www.w3.org/2000/svg" xmlns:xlink="http://www.w3.org/1999/xlink" xml:space="preserve" xmlns:serif="http://www.serif.com/" style="fill-rule:evenodd;clip-rule:evenodd;stroke-linejoin:round;stroke-miterlimit:2;">
    <rect x="0" y="0" width="640" height="120" style="fill:#7f7f7f;"/>
    <g>
        <g>
            <path d="M374.861,24.715l-33.011,14.901l-10.528,-9.594l3.823,13.724l-28.167,22.767l33.004,-14.902l10.534,9.589l-3.822,-13.719l28.167,-22.766Z" style="fill:#fff;fill-rule:nonzero;"/>
            <g>
                <path d="M374.861,24.715l-33.011,14.901l-10.528,-9.594l3.823,13.724l-28.167,22.767l33.004,-14.902l10.534,9.589l-3.822,-13.719l28.167,-22.766Z" style="fill:#fff;fill-rule:nonzero;"/>
            </g>
            <g>
                <path d="M342.187,37.963l0.295,-0.134c0.14,-0.551 0.25,-1.113 0.343,-1.688l0.545,-3.526l-5.783,1.148l4.6,4.2Z" style="fill:#fff;fill-rule:nonzero;"/>
                <path d="M315.342,54.483l5.754,-1.143l12.419,-10.035l-2.303,-8.266l-1.676,0.337l-0.476,3.097c-0.127,0.818 -0.748,1.474 -1.56,1.63l-7.338,1.462c-0.725,0.145 -1.369,-0.476 -1.259,-1.207l3.104,-20.179c0.127,-0.818 0.748,-1.474 1.56,-1.63l7.338,-1.462c0.725,-0.145 1.369,0.475 1.258,1.206l-0.458,2.964l13.834,-2.749l0.662,-4.298c0.933,-6.079 -4.455,-11.236 -10.488,-10.035l-12.262,2.43c-7.912,1.572 -13.991,7.93 -15.22,15.9l-3.376,21.943c-0.928,6.079 4.46,11.235 10.487,10.035Z" style="fill:#fff;fill-rule:nonzero;"/>
            </g>
            <path d="M218.973,78.752c-5.337,-4.263 -8.075,-8.73 -8.133,-13.266c-0.168,-12.749 21.265,-25.365 54.798,-32.367l0.353,-2.297c-34.35,7.036 -57.529,20.076 -57.332,34.693c0.116,8.672 8.434,16.566 22.396,22.831l0.342,-2.233c-4.971,-2.268 -9.136,-4.728 -12.424,-7.361Z" style="fill:#fff;fill-rule:nonzero;"/>
            <path d="M323.793,25.318l-0.336,2.181c12.877,-0.018 25.371,0.736 37.059,2.192l3.753,-1.693c-12.483,-1.735 -26.137,-2.686 -40.476,-2.68Z" style="fill:#fff;fill-rule:nonzero;"/>
            <path d="M371.578,29.123l-2.257,1.827c10.343,1.671 19.908,3.933 28.353,6.74c10.029,3.335 17.883,7.239 23.353,11.613c5.336,4.263 8.074,8.73 8.132,13.266c0.174,13.01 -22.14,25.876 -56.85,32.784c-12.999,2.587 -27.425,4.252 -42.199,4.901c-0.377,0.766 -0.789,1.508 -1.224,2.234c15.772,-0.621 30.615,-2.361 43.852,-4.995c35.052,-6.972 58.799,-20.151 58.602,-34.953c-0.197,-14.838 -24.402,-27.396 -59.762,-33.417Z" style="fill:#fff;fill-rule:nonzero;"/>
            <g>
                <path d="M395.308,52.458l-11.369,2.262c-0.673,0.134 -1.19,0.673 -1.294,1.352l-0.354,2.303l13.655,-2.715c0.672,-0.133 1.189,-0.673 1.293,-1.351c0.174,-1.12 -0.818,-2.071 -1.931,-1.851Z" style="fill:#fff;fill-rule:nonzero;"/>
                <path d="M308.428,70.62l-1.746,11.345c-0.139,0.894 0.655,1.654 1.543,1.479l12.946,-2.575l2.17,-14.084l-13.881,2.762c-0.539,0.098 -0.951,0.533 -1.032,1.073Zm4.658,3.428l4.077,-0.812l-0.51,3.306l-4.078,0.812l0.511,-3.306Z" style="fill:#fff;fill-rule:nonzero;"/>
                <path d="M407.146,44.581c-2.041,-3.08 -5.69,-4.53 -9.182,-3.834l-14.304,2.842c-3.776,0.754 -7.024,2.941 -9.17,5.963c-0.07,-0.075 -0.14,-0.145 -0.215,-0.214c-2.1,-2.007 -5.058,-2.872 -7.906,-2.303l-17.338,3.445l1.381,4.948l16.96,-3.376c2.582,-0.516 4.89,1.694 4.49,4.298l-3.237,21.027l-5.731,1.149l2.831,-18.394c0.139,-0.893 -0.655,-1.653 -1.543,-1.479l-12.947,2.576l-3.114,20.232l-5.731,1.142l3.625,-23.544l-6.363,-5.794l-17.077,7.708l1.717,-0.342l5.731,-1.143l-4.774,31.01c-1.404,9.118 -8.358,16.38 -17.401,18.184l-6.381,1.271l0.946,-6.149l4.472,-0.887c6.752,-1.346 11.943,-6.764 12.987,-13.568l0.36,-2.331l-15.192,3.022c-2.581,0.516 -4.89,-1.694 -4.489,-4.299l2.21,-14.35c0.394,-2.552 1.775,-4.774 3.758,-6.253l0.006,-0.011l10.151,-8.202l-7.256,1.444c-3.776,0.754 -7.025,2.941 -9.171,5.963c-0.07,-0.076 -0.139,-0.145 -0.215,-0.215c-2.099,-2.007 -5.058,-2.871 -7.906,-2.303l-15.371,3.057l2.204,-14.327l10.836,-2.158c7.911,-1.572 13.99,-7.929 15.22,-15.899l1.601,-10.406c0.934,-6.079 -4.455,-11.235 -10.487,-10.035l-25.435,5.064l-4.739,30.801l-25.795,5.133c-0.673,0.134 -1.189,0.673 -1.294,1.352l-8.225,53.451c-0.174,1.12 0.818,2.065 1.926,1.845l34.629,-6.891l11.189,-2.228l3.115,-20.232l4.078,-0.812l-3.115,20.232l16.427,-3.271l0.423,-2.767c1.955,1.311 4.368,1.816 6.717,1.351l6.52,-1.299c-1.63,2.083 -3.973,3.585 -6.671,4.124l-6.867,1.369c-0.673,0.134 -1.19,0.673 -1.294,1.352l-2.077,13.503c-0.174,1.12 0.818,2.065 1.926,1.845l11.276,-2.245c11.161,-2.222 19.739,-11.183 21.468,-22.43l0.168,-1.079l22.158,-4.409l3.115,-20.232l4.078,-0.812l-3.115,20.232l16.427,-3.271l0.423,-2.767c1.955,1.311 4.368,1.815 6.717,1.346l23.33,-4.641c0.673,-0.133 1.189,-0.673 1.293,-1.351l2.431,-15.801l-0.65,0.128c0.603,-1.271 1.033,-2.645 1.253,-4.078l0.545,-3.532c0.348,-2.251 -0.093,-4.56 -1.34,-6.445Zm-124.53,-17.889l8.695,-1.728c0.725,-0.145 1.368,0.476 1.258,1.206l-1.328,8.643c-0.128,0.818 -0.748,1.473 -1.56,1.63l-8.829,1.758l1.764,-11.509Zm-19.931,71.77l-2.488,0.493l-2.924,0.58l-16.311,3.248l-4.501,0.894l7.094,-46.091l1.897,-0.377l14.014,-2.79l6.346,-1.265l-0.946,6.149l-1.827,0.365l-14.699,2.924l-2.088,13.567l6.88,-1.369l1.235,-0.243l4.501,-0.894l-0.945,6.149l-2.413,0.481l-3.318,0.661l-6.879,1.369l-2.176,14.078l15.082,-2.999l0.835,-0.168l4.594,-0.916l-0.963,6.154Zm-13.37,-8.527l0.51,-3.306l12.616,-2.512l2.605,-16.925l-12.616,2.511l0.429,-2.79l10.482,-2.088l4.756,-0.946l-0.679,4.415l-2.865,18.608l-15.238,3.033Zm45.052,2.222l-5.731,1.143l2.831,-18.394c0.139,-0.893 -0.655,-1.653 -1.543,-1.479l-12.946,2.575l-3.115,20.233l-5.731,1.142l4.06,-26.38l20.928,-4.165c2.581,-0.516 4.89,1.694 4.49,4.298l-3.243,21.027Zm42.669,-8.492l-5.731,1.143l4.06,-26.381l5.731,-1.143l-4.06,26.381Zm66.415,-33.597l-0.568,3.695c-0.615,4.009 -3.678,7.205 -7.657,7.999l-13.88,2.761l-0.412,2.669c-0.139,0.893 0.655,1.653 1.543,1.479l12.947,-2.576l2.563,-0.51l3.167,-0.632l-0.945,6.148l-1.079,0.215l-19.849,3.95c-2.581,0.516 -4.89,-1.694 -4.49,-4.298l2.21,-14.351c0.615,-4.008 3.678,-7.204 7.657,-7.999l14.298,-2.848c2.587,-0.51 4.896,1.7 4.495,4.298Z" style="fill:#fff;fill-rule:nonzero;"/>
            </g>
        </g>
    </g>
</svg>
