<?xml version="1.0" encoding="UTF-8" standalone="no"?>
<!DOCTYPE svg PUBLIC "-//W3C//DTD SVG 1.1//EN" "http://www.w3.org/Graphics/SVG/1.1/DTD/svg11.dtd">
<svg width="100%" height="100%" viewBox="0 0 640 120" version="1.1" xmlns="http://www.w3.org/2000/svg" xmlns:xlink="http://www.w3.org/1999/xlink" xml:space="preserve" xmlns:serif="http://www.serif.com/" style="fill-rule:evenodd;clip-rule:evenodd;stroke-linecap:round;stroke-miterlimit:10;">
    <rect x="0" y="0" width="640" height="120" style="fill:#ebebeb;"/>
    <g>
        <g>
            <path d="M232.377,7.849l-27.111,-0l0,104.302l10.618,0l0,-28.832l16.493,0c50.318,0 50.318,-75.47 0,-75.47Zm0,64.852l-16.493,0l0,-54.234l16.493,-0c36.156,-0 36.156,54.234 0,54.234Z" style="fill:#fff;fill-rule:nonzero;"/>
            <path d="M328.688,102.28c-24.202,0 -43.831,-19.629 -43.831,-43.831c-0,-24.202 19.629,-43.831 43.831,-43.831c16.414,0 30.711,9.022 38.216,22.38l11.841,-0c-8.332,-19.403 -27.598,-32.998 -50.057,-32.998c-30.077,0 -54.449,24.383 -54.449,54.449c-0,30.077 24.383,54.449 54.449,54.449c22.447,0 41.725,-13.595 50.057,-32.997l-11.841,-0c-7.505,13.357 -21.802,22.379 -38.216,22.379Z" style="fill:#fff;fill-rule:nonzero;"/>
            <rect x="371.976" y="48.261" width="14.897" height="20.376" style="fill:#fff;"/>
            <path d="M447.367,65.49l-0,-20.478l-30.802,0l-0,-18.53l30.802,-0l-0,-20.478l-51.28,-0l0,104.359l20.478,-0l-0,-44.873l30.802,0Z" style="fill:#fff;fill-rule:nonzero;"/>
            <path d="M501.703,54.453l27.971,-48.449l-23.647,-0l-16.154,27.971l-16.142,-27.971l-23.648,-0l27.972,48.449l-32.273,55.91l23.647,-0l20.444,-35.432l20.455,35.432l23.648,-0l-32.273,-55.91Z" style="fill:#fff;fill-rule:nonzero;"/>
        </g>
        <g>
            <path d="M148.768,16.588c14.988,1.856 30.711,10.448 30.711,21.508c0,16.267 -21.417,27.802 -38.137,27.802c-15.588,-0 -28.221,-6.328 -28.221,-13.947c0,-7.618 12.633,-13.776 28.221,-13.776c10.799,0 25.798,6.056 27.451,13.765c1.947,9.181 -4.868,14.535 -4.868,14.535c0,0 -10.006,8.682 -22.141,8.682c-12.136,0 -20.886,-4.131 -20.886,-9.837c0,-5.705 8.83,-10.335 20.953,-10.335c7.517,0 16.788,3.498 19.539,9.26c2.75,5.739 -3.725,17.671 -19.674,17.671c-8.683,-0 -15.713,-3.351 -15.713,-7.483c0,-4.132 7.03,-7.211 15.713,-7.211c4.992,0 12.452,2.615 14.331,6.543c1.437,3 -0.102,9.622 -8.807,12.429" style="fill:none;fill-rule:nonzero;stroke:#bcbcbc;stroke-width:4.53px;"/>
            <circle cx="141.353" cy="15.682" r="3.464" style="fill:#bcbcbc;"/>
            <g>
                <path d="M100.024,43.722l0,47.532l42.201,-24.756l-0,-47.522l-42.201,24.746Z" style="fill:#bcbcbc;fill-rule:nonzero;"/>
                <path d="M142.225,93.632l-0,22.368l42.201,-24.746l-0,-22.368l-42.201,24.746Z" style="fill:#bcbcbc;fill-rule:nonzero;"/>
                <path d="M142.225,93.632l-0,22.368l-42.201,-24.746l0,-22.368l42.201,24.746Z" style="fill:#bcbcbc;fill-rule:nonzero;"/>
            </g>
            <path d="M103.703,39.85l0,47.533l42.201,-24.757l-0,-47.521l-42.201,24.745Z" style="fill:#ffdd34;fill-rule:nonzero;"/>
            <circle cx="146.3" cy="11.313" r="3.464" style="fill:#7b46ce;"/>
            <path d="M153.715,12.218c14.987,1.857 30.711,10.449 30.711,21.508c-0,16.267 -21.418,27.802 -38.137,27.802c-15.588,0 -28.221,-6.328 -28.221,-13.946c0,-7.618 12.633,-13.776 28.221,-13.776c10.799,-0 25.798,6.056 27.451,13.765c1.947,9.18 -4.868,14.535 -4.868,14.535c0,-0 -10.007,8.682 -22.142,8.682c-12.135,-0 -20.885,-4.132 -20.885,-9.837c-0,-5.705 8.83,-10.335 20.953,-10.335c7.517,-0 16.788,3.498 19.539,9.259c2.75,5.74 -3.725,17.671 -19.675,17.671c-8.682,-0 -15.712,-3.351 -15.712,-7.483c0,-4.131 7.03,-7.21 15.712,-7.21c4.993,-0 12.452,2.615 14.332,6.543c1.437,2.999 -0.102,9.622 -8.807,12.429" style="fill:none;fill-rule:nonzero;stroke:#7b46ce;stroke-width:4.53px;"/>
            <path d="M145.904,89.76l-0,22.369l42.201,-24.746l-0,-22.368l-42.201,24.745Z" style="fill:#ff3abd;fill-rule:nonzero;"/>
            <path d="M145.904,89.76l-0,22.369l-42.201,-24.746l0,-22.368l42.201,24.745Z" style="fill:#7b46ce;fill-rule:nonzero;"/>
        </g>
    </g>
</svg>
