<?xml version="1.0" encoding="UTF-8" standalone="no"?>
<!DOCTYPE svg PUBLIC "-//W3C//DTD SVG 1.1//EN" "http://www.w3.org/Graphics/SVG/1.1/DTD/svg11.dtd">
<svg width="100%" height="100%" viewBox="0 0 435 113" version="1.1" xmlns="http://www.w3.org/2000/svg" xmlns:xlink="http://www.w3.org/1999/xlink" xml:space="preserve" xmlns:serif="http://www.serif.com/" style="fill-rule:evenodd;clip-rule:evenodd;stroke-linecap:round;stroke-miterlimit:10;">
    <clipPath id="_clip1">
        <rect id="pc-fx-v2.afdesign" serif:id="pc-fx v2.afdesign" x="0.867" y="0.248" width="433.952" height="112"/>
    </clipPath>
    <g clip-path="url(#_clip1)">
        <g>
            <g>
                <path d="M133.221,4.097l-27.112,0l0,104.303l10.619,-0l-0,-28.832l16.493,-0c50.317,-0 50.317,-75.471 -0,-75.471Zm-0,64.852l-16.493,0l-0,-54.234l16.493,0c36.156,0 36.156,54.234 -0,54.234Z" style="fill:#fff;fill-rule:nonzero;"/>
                <path d="M229.531,98.529c-24.202,-0 -43.831,-19.629 -43.831,-43.831c0,-24.203 19.629,-43.831 43.831,-43.831c16.414,-0 30.711,9.022 38.217,22.379l11.84,0c-8.331,-19.402 -27.598,-32.998 -50.057,-32.998c-30.077,0 -54.449,24.384 -54.449,54.45c0,30.077 24.383,54.449 54.449,54.449c22.448,-0 41.726,-13.596 50.057,-32.998l-11.84,-0c-7.506,13.358 -21.803,22.38 -38.217,22.38Z" style="fill:#fff;fill-rule:nonzero;"/>
                <rect x="272.819" y="44.51" width="14.897" height="20.376" style="fill:#fff;"/>
                <path d="M348.21,61.739l0,-20.478l-30.802,-0l0,-18.531l30.802,-0l0,-20.478l-51.279,0l-0,104.359l20.477,0l0,-44.872l30.802,-0Z" style="fill:#fff;fill-rule:nonzero;"/>
                <path d="M402.546,50.702l27.972,-48.45l-23.648,0l-16.153,27.972l-16.143,-27.972l-23.647,0l27.972,48.45l-32.274,55.909l23.648,0l20.444,-35.431l20.455,35.431l23.647,0l-32.273,-55.909Z" style="fill:#fff;fill-rule:nonzero;"/>
            </g>
            <g>
                <path d="M49.611,12.836c14.988,1.857 30.711,10.449 30.711,21.508c0,16.267 -21.417,27.802 -38.137,27.802c-15.587,0 -28.22,-6.328 -28.22,-13.946c-0,-7.618 12.633,-13.776 28.22,-13.776c10.8,-0 25.799,6.056 27.451,13.765c1.947,9.18 -4.867,14.534 -4.867,14.534c-0,0 -10.007,8.683 -22.142,8.683c-12.135,-0 -20.885,-4.132 -20.885,-9.837c-0,-5.705 8.829,-10.335 20.953,-10.335c7.516,-0 16.787,3.498 19.538,9.259c2.751,5.74 -3.724,17.671 -19.674,17.671c-8.682,-0 -15.712,-3.351 -15.712,-7.483c-0,-4.131 7.03,-7.21 15.712,-7.21c4.992,-0 12.452,2.615 14.331,6.543c1.438,2.999 -0.102,9.622 -8.807,12.429" style="fill:none;fill-rule:nonzero;stroke:#bcbcbc;stroke-width:4.53px;"/>
                <circle cx="42.197" cy="11.931" r="3.464" style="fill:#bcbcbc;"/>
                <g>
                    <path d="M0.867,39.97l0,47.533l42.201,-24.757l0,-47.521l-42.201,24.745Z" style="fill:#bcbcbc;fill-rule:nonzero;"/>
                    <path d="M43.068,89.88l0,22.368l42.201,-24.745l0,-22.368l-42.201,24.745Z" style="fill:#bcbcbc;fill-rule:nonzero;"/>
                    <path d="M43.068,89.88l0,22.368l-42.201,-24.745l0,-22.368l42.201,24.745Z" style="fill:#bcbcbc;fill-rule:nonzero;"/>
                </g>
                <path d="M4.546,36.099l0,47.533l42.201,-24.757l0,-47.522l-42.201,24.746Z" style="fill:#ffdd34;fill-rule:nonzero;"/>
                <circle cx="47.144" cy="7.561" r="3.464" style="fill:#7b46ce;"/>
                <path d="M54.558,8.467c14.988,1.856 30.711,10.448 30.711,21.508c0,16.267 -21.417,27.802 -38.137,27.802c-15.587,-0 -28.22,-6.328 -28.22,-13.947c-0,-7.618 12.633,-13.776 28.22,-13.776c10.8,-0 25.799,6.056 27.451,13.765c1.947,9.181 -4.867,14.535 -4.867,14.535c-0,-0 -10.007,8.682 -22.142,8.682c-12.135,0 -20.886,-4.131 -20.886,-9.837c0,-5.705 8.83,-10.335 20.954,-10.335c7.516,0 16.787,3.498 19.538,9.26c2.751,5.739 -3.724,17.67 -19.674,17.67c-8.683,0 -15.712,-3.35 -15.712,-7.482c-0,-4.132 7.029,-7.211 15.712,-7.211c4.992,0 12.452,2.615 14.331,6.543c1.438,3 -0.102,9.622 -8.807,12.429" style="fill:none;fill-rule:nonzero;stroke:#7b46ce;stroke-width:4.53px;"/>
                <path d="M46.747,86.009l0,22.368l42.201,-24.745l0,-22.369l-42.201,24.746Z" style="fill:#ff3abd;fill-rule:nonzero;"/>
                <path d="M46.747,86.009l0,22.368l-42.201,-24.745l0,-22.369l42.201,24.746Z" style="fill:#7b46ce;fill-rule:nonzero;"/>
            </g>
        </g>
    </g>
</svg>
