<?xml version="1.0" encoding="UTF-8"?>
<svg width="435px" height="113px" viewBox="0 0 435 113" version="1.1" xmlns="http://www.w3.org/2000/svg" xmlns:xlink="http://www.w3.org/1999/xlink">
    <title>pcfx</title>
    <defs>
        <polygon id="path-1" points="0 0 433.952 0 433.952 112 0 112"></polygon>
    </defs>
    <g id="Page-1" stroke="none" stroke-width="1" fill="none" fill-rule="evenodd" opacity="0.78">
        <g id="NEC-PC-FX" transform="translate(-102.000000, -4.000000)">
            <g id="pcfx" transform="translate(102.672447, 4.009513)">
                <mask id="mask-2" fill="white">
                    <use xlink:href="#path-1"></use>
                </mask>
                <g id="Path"></g>
                <g id="Group" mask="url(#mask-2)">
                    <path d="M132.354,3.849 L105.242,3.849 L105.242,108.152 L115.861,108.152 L115.861,79.32 L132.354,79.32 C182.671,79.32 182.671,3.849 132.354,3.849 L132.354,3.849 Z M132.354,68.701 L115.861,68.701 L115.861,14.467 L132.354,14.467 C168.51,14.467 168.51,68.701 132.354,68.701 Z" id="Shape" fill="#FFFFFF" fill-rule="nonzero"></path>
                    <path d="M228.664,98.281 C204.462,98.281 184.833,78.652 184.833,54.45 C184.833,30.247 204.462,10.619 228.664,10.619 C245.078,10.619 259.375,19.641 266.881,32.998 L278.721,32.998 C270.39,13.596 251.123,2.44249065e-15 228.664,2.44249065e-15 C198.587,2.44249065e-15 174.215,24.384 174.215,54.45 C174.215,84.527 198.598,108.899 228.664,108.899 C251.112,108.899 270.39,95.303 278.721,75.901 L266.881,75.901 C259.375,89.259 245.078,98.281 228.664,98.281 L228.664,98.281 Z" id="Path" fill="#FFFFFF" fill-rule="nonzero"></path>
                    <polygon id="Path" fill="#FFFFFF" points="271.952 44.262 286.849 44.262 286.849 64.638 271.952 64.638"></polygon>
                    <path d="M347.343,61.491 L347.343,41.013 L316.541,41.013 L316.541,22.482 L347.343,22.482 L347.343,2.004 L296.064,2.004 L296.064,106.363 L316.541,106.363 L316.541,61.491 L347.343,61.491 Z M401.679,50.454 L429.651,2.004 L406.003,2.004 L389.85,29.976 L373.707,2.004 L350.06,2.004 L378.032,50.454 L345.758,106.363 L369.406,106.363 L389.85,70.932 L410.305,106.363 L433.952,106.363 L401.679,50.454 L401.679,50.454 Z" id="Shape" fill="#FFFFFF" fill-rule="nonzero"></path>
                    <path d="M48.744,12.588 C63.732,14.445 79.455,23.037 79.455,34.096 C79.455,50.363 58.038,61.898 41.318,61.898 C25.731,61.898 13.098,55.57 13.098,47.952 C13.098,40.334 25.731,34.176 41.318,34.176 C52.118,34.176 67.117,40.232 68.769,47.941 C70.716,57.121 63.902,62.475 63.902,62.475 C63.902,62.475 53.895,71.158 41.76,71.158 C29.625,71.158 20.875,67.026 20.875,61.321 C20.875,55.616 29.704,50.986 41.828,50.986 C49.344,50.986 58.615,54.484 61.366,60.245 C64.117,65.985 57.642,77.916 41.692,77.916 C33.01,77.916 25.98,74.565 25.98,70.433 C25.98,66.302 33.01,63.223 41.692,63.223 C46.684,63.223 54.144,65.838 56.023,69.766 C57.461,72.765 55.921,79.388 47.216,82.195" id="Path" stroke="#BCBCBC" stroke-width="4.53"></path>
                    <circle id="Oval" fill="#BCBCBC" cx="41.33" cy="11.683" r="3.464"></circle>
                    <path d="M7.10542736e-15,39.722 L7.10542736e-15,87.255 L42.201,62.498 L42.201,14.977 L7.10542736e-15,39.722 Z M42.201,89.632 L42.201,112 L84.402,87.255 L84.402,64.887 L42.201,89.632 Z" id="Shape" fill="#BCBCBC" fill-rule="nonzero"></path>
                    <polygon id="Path" fill="#BCBCBC" fill-rule="nonzero" points="42.201 89.632 42.201 112 9.76996262e-15 87.255 9.76996262e-15 64.887"></polygon>
                    <polygon id="Path" fill="#FFDD34" fill-rule="nonzero" points="3.679 35.851 3.679 83.384 45.88 58.627 45.88 11.105"></polygon>
                    <circle id="Oval" fill="#7B46CE" cx="46.277" cy="7.313" r="3.464"></circle>
                    <path d="M53.691,8.219 C68.679,10.075 84.402,18.667 84.402,29.727 C84.402,45.994 62.985,57.529 46.265,57.529 C30.678,57.529 18.045,51.201 18.045,43.582 C18.045,35.964 30.678,29.806 46.265,29.806 C57.065,29.806 72.064,35.862 73.716,43.571 C75.663,52.752 68.849,58.106 68.849,58.106 C68.849,58.106 58.842,66.788 46.707,66.788 C34.572,66.788 25.821,62.657 25.821,56.951 C25.821,51.246 34.651,46.616 46.775,46.616 C54.291,46.616 63.562,50.114 66.313,55.876 C69.064,61.615 62.589,73.546 46.639,73.546 C37.956,73.546 30.927,70.196 30.927,66.064 C30.927,61.932 37.956,58.853 46.639,58.853 C51.631,58.853 59.091,61.468 60.97,65.396 C62.408,68.396 60.868,75.018 52.163,77.825" id="Path" stroke="#7B46CE" stroke-width="4.53"></path>
                    <polygon id="Path" fill="#FF3ABD" fill-rule="nonzero" points="45.88 85.761 45.88 108.129 88.081 83.384 88.081 61.015"></polygon>
                    <polygon id="Path" fill="#7B46CE" fill-rule="nonzero" points="45.88 85.761 45.88 108.129 3.679 83.384 3.679 61.015"></polygon>
                </g>
            </g>
        </g>
    </g>
</svg>