<svg viewBox="0 0 435 113" xmlns="http://www.w3.org/2000/svg" xml:space="preserve" style="fill-rule:evenodd;clip-rule:evenodd;stroke-linecap:round;stroke-miterlimit:10">
    <clipPath id="a">
        <path d="M.867.248h433.952v112H.867z"/>
    </clipPath>
    <g clip-path="url(#a)">
        <path d="M133.221 4.097h-27.112V108.4h10.619V79.568h16.493c50.317 0 50.317-75.471 0-75.471Zm0 64.852h-16.493V14.715h16.493c36.156 0 36.156 54.234 0 54.234Z" style="fill:#fff;fill-rule:nonzero"/>
        <path d="M229.531 98.529c-24.202 0-43.831-19.629-43.831-43.831 0-24.203 19.629-43.831 43.831-43.831 16.414 0 30.711 9.022 38.217 22.379h11.84C271.257 13.844 251.99.248 229.531.248c-30.077 0-54.449 24.384-54.449 54.45 0 30.077 24.383 54.449 54.449 54.449 22.448 0 41.726-13.596 50.057-32.998h-11.84c-7.506 13.358-21.803 22.38-38.217 22.38Z" style="fill:#fff;fill-rule:nonzero"/>
        <path style="fill:#fff" d="M272.819 44.51h14.897v20.376h-14.897z"/>
        <path d="M348.21 61.739V41.261h-30.802V22.73h30.802V2.252h-51.279v104.359h20.477V61.739h30.802Zm54.336-11.037 27.972-48.45H406.87l-16.153 27.972-16.143-27.972h-23.647l27.972 48.45-32.274 55.909h23.648l20.444-35.431 20.455 35.431h23.647l-32.273-55.909Z" style="fill:#fff;fill-rule:nonzero"/>
        <path d="M49.611 12.836c14.988 1.857 30.711 10.449 30.711 21.508 0 16.267-21.417 27.802-38.137 27.802-15.587 0-28.22-6.328-28.22-13.946 0-7.618 12.633-13.776 28.22-13.776 10.8 0 25.799 6.056 27.451 13.765 1.947 9.18-4.867 14.534-4.867 14.534s-10.007 8.683-22.142 8.683-20.885-4.132-20.885-9.837 8.829-10.335 20.953-10.335c7.516 0 16.787 3.498 19.538 9.259 2.751 5.74-3.724 17.671-19.674 17.671-8.682 0-15.712-3.351-15.712-7.483 0-4.131 7.03-7.21 15.712-7.21 4.992 0 12.452 2.615 14.331 6.543 1.438 2.999-.102 9.622-8.807 12.429" style="fill:none;fill-rule:nonzero;stroke:#bcbcbc;stroke-width:4.53px"/>
        <circle cx="42.197" cy="11.931" r="3.464" style="fill:#bcbcbc"/>
        <path d="M.867 39.97v47.533l42.201-24.757V15.225L.867 39.97Zm42.201 49.91v22.368l42.201-24.745V65.135L43.068 89.88Z" style="fill:#bcbcbc;fill-rule:nonzero"/>
        <path d="M43.068 89.88v22.368L.867 87.503V65.135L43.068 89.88Z" style="fill:#bcbcbc;fill-rule:nonzero"/>
        <path d="M4.546 36.099v47.533l42.201-24.757V11.353L4.546 36.099Z" style="fill:#ffdd34;fill-rule:nonzero"/>
        <circle cx="47.144" cy="7.561" r="3.464" style="fill:#7b46ce"/>
        <path d="M54.558 8.467c14.988 1.856 30.711 10.448 30.711 21.508 0 16.267-21.417 27.802-38.137 27.802-15.587 0-28.22-6.328-28.22-13.947 0-7.618 12.633-13.776 28.22-13.776 10.8 0 25.799 6.056 27.451 13.765C76.53 53 69.716 58.354 69.716 58.354s-10.007 8.682-22.142 8.682-20.886-4.131-20.886-9.837c0-5.705 8.83-10.335 20.954-10.335 7.516 0 16.787 3.498 19.538 9.26 2.751 5.739-3.724 17.67-19.674 17.67-8.683 0-15.712-3.35-15.712-7.482s7.029-7.211 15.712-7.211c4.992 0 12.452 2.615 14.331 6.543 1.438 3-.102 9.622-8.807 12.429" style="fill:none;fill-rule:nonzero;stroke:#7b46ce;stroke-width:4.53px"/>
        <path d="M46.747 86.009v22.368l42.201-24.745V61.263L46.747 86.009Z" style="fill:#ff3abd;fill-rule:nonzero"/>
        <path d="M46.747 86.009v22.368L4.546 83.632V61.263l42.201 24.746Z" style="fill:#7b46ce;fill-rule:nonzero"/>
    </g>
</svg>
