<svg viewBox="0 0 392 113" xmlns="http://www.w3.org/2000/svg" xml:space="preserve" style="fill-rule:evenodd;clip-rule:evenodd;stroke-linejoin:round;stroke-miterlimit:2">
    <clipPath id="a">
        <path d="M.792.834h390.972v112H.792z"/>
    </clipPath>
    <g clip-path="url(#a)">
        <path d="M239.478 111.373c-8.716-8.132-3.369-24.1 7.985-24.1 3.59 0 6.666 1.465 8.351 3.955 1.611 2.564 1.465 3.443-.513 3.003-1.099-.292-2.051 0-2.71.733-1.611 1.978.952 6.007 4.468 7.032 4.542 1.392 7.692.366 9.816-3.296 3.956-6.739 2.051-13.918-6.226-23.514-3.736-4.322-9.377-10.988-12.6-14.944-1.611-1.977-1.538-6.959.147-10.768 2.124-4.761 4.029-6.739 8.424-8.79 6.373-3.003 12.16-1.978 17.434 3.223 2.271 2.197 2.71 2.417 2.71 1.245 0-.806-.732-4.468-.732-5.274.073-2.71 3.516 2.564 4.395 6.739 1.245 6.08-.147 10.842-4.615 15.603-3.15 3.223-4.469 3.15-3.003-.293 1.465-3.516.732-6.373-2.418-9.889-2.93-3.223-6.373-3.883-8.497-1.539-3.077 3.443-.806 7.912 8.351 16.336 8.643 7.985 10.841 11.72 11.427 19.925.806 10.621-3.736 19.778-11.94 23.954-2.857 1.464-4.688 1.831-8.79 1.831-4.469 0-5.567-.293-8.425-2.125-3.369-2.197-6.299-5.054-7.764-7.471-.733-1.319-.879-1.319-2.125-.147-1.391 1.318-1.758 4.835-.805 8.131.659 2.418-.074 2.491-2.345.44Zm-228.841-1.466C.894 104.78-2.183 93.865 3.971 86.54c1.098-1.245 2.929-2.783 4.248-3.443 1.245-.659 2.491-1.538 2.784-1.977.293-.44.586-18.68.586-40.51 0-34.648.146-39.776 1.098-39.776.587 0 1.246.733 1.392 1.685 2.784 12.599 5.494 19.265 7.619 18.606.659-.22 3.223-1.245 5.64-2.271 7.179-3.076 13.332-2.27 18.68 2.271 3.662 3.15 4.029 5.274.586 3.15-2.638-1.612-5.348-1.905-6.08-.659-.293.439.805 2.637 2.417 4.907 6.739 9.67 5.494 14.578-7.033 26.665-6.519 6.3-8.497 7.032-10.987 3.882-.806-1.026-1.685-1.831-1.905-1.831-.219 0-.439 8.058-.439 17.873 0 9.89-.293 18.094-.659 18.314-.367.22-1.686-.147-3.004-.733-3.077-1.538-7.911-.952-9.669 1.172-2.784 3.443-1.099 9.157 4.175 14.284 3.077 2.931 3.223 3.297 1.685 3.297-.879-.073-2.93-.732-4.468-1.539Zm21.316-64.462c3.81-4.248 4.102-5.42 2.344-9.083-2.124-4.468-3.882-5.86-5.86-4.762-1.978 1.026-3.663 4.981-3.663 8.351 0 3.37 2.052 8.498 3.37 8.498.586 0 2.271-1.392 3.809-3.004Zm155.004 48.86c-2.418-1.099-6.594-7.106-7.4-4.982l-.732 1.979-1.245-2.711c-.66-1.538-1.172-4.615-1.172-6.813 0-3.589.293-4.395 2.124-6.299 3.296-3.296 8.058-2.93 9.962.879 1.612 3.004 1.392 3.37-1.611 3.296-2.344-.073-2.857.22-3.003 1.539-.294 1.904 2.198 4.614 4.248 4.614 2.345 0 4.395-2.637 4.395-5.493 0-4.029-1.904-7.252-10.474-17.508-4.835-5.86-6.081-9.083-5.348-13.991 1.098-6.959 7.838-11.061 13.698-8.131 1.245.659 2.491 1.172 2.637 1.172.66 0 .074-3.296-1.172-6.593-1.685-4.395-.879-4.688 3.077-1.098 4.248 3.882 6.739 9.815 6.739 16.115 0 3.809-.366 5.64-1.392 7.179-.732 1.098-1.538 1.977-1.831 1.977-.293 0-.879-1.465-1.392-3.223-1.538-5.933-8.937-9.522-9.523-4.614-.293 2.416 1.319 4.908 7.985 12.086 6.3 6.74 8.717 11.501 8.717 16.995 0 4.761-2.49 10.548-5.567 12.672-2.418 1.759-8.791 2.345-11.72.953Zm184.304-.513c-8.131-1.611-18.021-9.156-19.852-15.164-1.465-4.907-3.223-3.589-4.029 2.858-.366 3.296-.146 4.615 1.099 7.105 2.637 5.128 2.49 5.274-5.421 5.274-7.691 0-7.765-.073-5.86-4.615.879-2.197 1.099-6.812 1.099-25.345 0-13.918.293-22.855.733-23.148.366-.22 1.684.073 2.856.732 3.223 1.612 10.256 2.198 14.651 1.099 4.322-1.025 7.179-.293 8.79 2.345 1.612 2.637 1.831 9.961.44 13.771a160.232 160.232 0 0 0-1.832 5.494c-.293 1.245-1.098 3.37-1.758 4.835-2.637 6.153 3.077 13.478 12.38 15.969 4.029 1.099 7.985-.22 10.695-3.516 3.004-3.663 2.93-8.424-.073-13.918-2.564-4.542-2.491-4.469-1.246-4.469 1.392 0 4.469 3.516 6.3 7.106 1.978 3.955 2.051 10.402.147 14.504-2.418 5.421-9.303 10.035-14.358 9.816-.806-.074-2.93-.367-4.761-.733Zm-20.731-30.18c.733-.952 6.813-7.618 6.813-9.376 0-1.026-8.351-.806-9.377.219-.879.879-1.245 7.618-.439 9.67.586 1.611 1.392 1.465 3.003-.513Z" style="fill:#fff;fill-rule:nonzero"/>
        <path d="M38.692 92.62c0-.732.66-2.271 1.466-3.516 1.318-1.978 1.465-3.443 1.465-14.431 0-6.813-.22-12.306-.513-12.306-.952 0-6.886 2.197-9.084 3.296-2.417 1.245-3.589 1.392-3.589.366 0-1.098 19.778-20.511 20.95-20.511.806 0 1.026 1.905 1.026 10.622 0 9.67.147 10.622 1.392 11.354 1.977 1.026 2.71.953 4.029-.439.952-.953 1.171-3.224 1.171-13.625V40.904l2.858-5.568c1.538-3.076 3.369-7.471 4.102-9.816.732-2.271 1.464-4.029 1.685-3.809.219.147.292 14.651.219 32.158-.146 26.372 0 32.159.879 33.917.586 1.098 1.246 2.929 1.539 4.102l.439 1.977h-6.959c-6.739 0-6.959-.073-6.959-1.611.073-.952.513-2.491 1.099-3.516 1.465-2.564 1.392-9.084-.073-10.549-1.319-1.392-2.052-1.465-4.029-.44-1.099.66-1.392 1.613-1.392 5.055 0 2.345.513 5.494 1.099 6.886.585 1.465 1.098 3.003 1.098 3.443 0 .439-2.637.732-6.958.732-6.154 0-6.96-.146-6.96-1.245Zm33.037-.659c-2.344-2.93-3.15-6.52-3.516-15.237-.439-8.644.22-12.966 3.15-21.17 2.344-6.593 2.271-8.717-.439-11.72-1.172-1.392-2.198-2.711-2.198-3.004 0-.22 6.153-.439 13.625-.439 12.673 0 13.625.073 13.259 1.318-.22.659-1.172 3.224-2.051 5.641-1.319 3.736-1.612 6.007-1.612 15.383-.073 13.039.733 23.441 2.124 26.151.587 1.099 1.026 2.637 1.026 3.516 0 1.392-.439 1.465-6.959 1.465-6.446 0-6.959-.073-6.959-1.465 0-.806.66-2.71 1.465-4.175 2.345-4.395 1.978-7.472-1.318-10.695-1.539-1.465-3.37-2.71-4.103-2.71-1.171 0-1.318.513-1.025 4.029.439 4.981 1.172 5.86 3.809 4.687 1.026-.512 2.124-.658 2.344-.439.659.66-6.593 10.329-7.911 10.622-.659.146-1.832-.659-2.711-1.758Zm10.476-28.276c.219-.952.513-4.102.659-6.959.366-6.3-.586-7.032-2.93-2.198-2.418 4.908-2.784 7.692-1.245 9.377 1.684 1.831 3.15 1.758 3.516-.22Zm15.09 28.569c.073-.952.512-2.491 1.099-3.516.879-1.465 1.025-6.96 1.098-30.181 0-17.507.293-28.421.733-28.421.366 0 1.319 1.464 2.124 3.369.806 1.831 2.637 4.615 4.029 6.3 1.832 2.051 3.369 5.347 5.201 10.915 1.465 4.395 3.003 7.837 3.37 7.545.366-.221.659-4.25.659-8.937 0-9.743.806-11.868 5.421-14.797 2.71-1.612 11.427-3.004 11.427-1.758 0 .366-1.538 1.464-3.37 2.417-5.42 2.93-5.42 2.783-5.42 28.862 0 19.045.146 23.147 1.099 24.392.585.733 1.098 2.271 1.098 3.444v1.977h-6.592c-5.861 0-6.593-.146-6.593-1.318 0-.733.513-1.978 1.098-2.784.587-.732 1.1-2.198 1.1-3.223 0-2.71-5.421-18.533-6.52-18.899-1.246-.44-.879 19.632.366 21.17.44.586 1.025 1.904 1.172 3.077l.366 1.977h-6.446c-6.299 0-6.519-.073-6.519-1.611Z" style="fill:#fff;fill-rule:nonzero"/>
        <path d="M128.061 92.767c0-.66.586-2.052 1.318-3.077 1.026-1.612 1.319-4.541 1.832-15.969.293-7.619.586-15.75.733-17.947.146-3.37-.074-4.029-1.173-4.249-.732-.147-1.977.293-2.783.953-1.905 1.758-2.271.585-1.978-6.227l.22-5.274 11.354-.147 11.354-.073.22 5.714.22 5.713-2.418-.219c-2.344-.22-2.417-.147-2.857 3.296-.293 1.978-.879 4.541-1.318 5.787-.44 1.246-.806 7.325-.806 13.552 0 9.889.147 11.574 1.392 13.259.732 1.098 1.538 2.856 1.831 4.029l.44 1.977h-8.79c-7.4 0-8.791-.146-8.791-1.098Zm25.785-.586c-3.003-3.224-4.029-7.545-4.029-17.361 0-8.791.073-9.45 2.711-16.702 3.076-8.277 3.076-10.475 0-14.504-.953-1.246-1.466-2.491-1.246-2.784.806-.805 25.859-.512 25.859.293 0 .44-.44 1.685-1.026 2.857-2.344 4.395-3.516 13.625-3.077 23.001.659 13.772 1.465 21.244 2.491 23.002 1.978 3.516 1.391 3.882-6.08 3.882-3.81 0-6.959-.219-6.959-.513 0-.366.879-2.197 1.831-4.248 1.026-1.978 1.831-4.468 1.831-5.494 0-2.417-2.344-6.153-4.834-7.765-1.832-1.245-1.978-1.245-3.003.073-1.758 2.418.366 8.937 2.563 8.058 4.689-1.977 4.835-1.245.806 3.663-1.611 1.978-3.296 4.175-3.663 4.908-.952 1.758-2.27 1.684-4.175-.366Zm10.182-29.595c0-1.977.293-5.127.659-7.179.66-4.175.513-4.614-1.098-3.296-1.612 1.319-3.077 4.322-3.663 7.399-.366 1.978-.147 3.003 1.099 4.542 2.198 2.783 2.93 2.49 3.003-1.466Zm39.484 30.181c0-.66 1.318-2.418 2.929-4.029 4.908-4.835 4.835-9.084-.366-15.75-4.248-5.494-5.127-8.131-4.029-12.233 1.099-4.029 5.348-12.087 7.692-14.724 4.175-4.395 8.131-5.567 4.542-1.318-4.176 4.981-6.52 16.335-3.956 18.899 1.025 1.098 1.465 1.098 4.322-.073 7.984-3.077 11.794-10.329 10.109-19.413-.806-4.614-5.201-13.99-9.083-19.411-1.392-2.052-2.418-3.81-2.271-3.956 1.391-1.465 14.577 12.014 18.02 18.313 2.124 3.956 2.491 5.274 2.417 9.377-.073 5.787-1.611 9.595-7.398 17.873-7.326 10.402-9.084 17.214-6.08 23.148.805 1.612 1.465 3.223 1.465 3.663 0 .439-3.297.732-9.157.732-7.764 0-9.156-.146-9.156-1.098Zm82.042-.22c0-.733.513-1.978 1.1-2.784.805-1.025 1.025-3.735 1.098-11.061 0-5.787 1.465-13.845 1.392-18.679l-.073-8.058-1.904.439c-4.323 1.026-4.176 1.172-4.396-4.761-.146-4.102.073-5.787.806-6.446.732-.587 4.322-.806 11.574-.66l10.548.22.66 4.176c.292 2.343.366 5.054.146 6.079-.366 1.539-.806 1.758-2.271 1.392-2.197-.586-4.028.732-4.028 2.93 0 .806-.294 7.618-.587 15.091-.586 12.965-.293 17.287 1.319 18.313.366.219.952 1.465 1.172 2.783l.512 2.344h-8.57c-7.691 0-8.498-.146-8.498-1.318Zm24.98-.586c-2.564-3.223-3.37-7.399-3.296-17.507 0-8.718.219-10.11 2.344-16.41 2.856-8.277 2.856-10.035.44-13.624-1.1-1.612-1.613-3.004-1.173-3.443.366-.367 6.007-.513 12.673-.44 13.771.22 12.966-.293 10.182 7.545-2.198 6.227-2.784 20.584-1.172 28.203.659 3.003 1.172 6.812 1.172 8.424.073 1.611.513 3.735 1.099 4.761 2.271 4.029 1.758 4.395-5.86 4.395-4.322 0-6.96-.293-6.96-.732 0-.44.66-2.051 1.465-3.663.806-1.611 1.466-4.321 1.466-6.08 0-2.857-.366-3.589-3.004-5.933-2.49-2.271-3.149-2.564-4.102-1.832-.806.66-1.025 1.758-.733 3.737.513 4.101 1.539 5.053 4.249 4.101 1.245-.439 2.345-.585 2.564-.366.22.147-.952 1.905-2.49 3.883-1.539 1.977-3.223 4.322-3.736 5.274-1.172 2.197-3.297 2.051-5.128-.293Zm10.475-26.811c.22-.512.513-3.882.733-7.398.293-4.762.146-6.374-.44-6.227-1.465.513-4.248 6.519-4.248 9.23 0 3.516 3.149 6.959 3.955 4.395Z" style="fill:#fff;fill-rule:nonzero"/>
    </g>
</svg>
