<?xml version="1.0" encoding="UTF-8" standalone="no"?>
<!DOCTYPE svg PUBLIC "-//W3C//DTD SVG 1.1//EN" "http://www.w3.org/Graphics/SVG/1.1/DTD/svg11.dtd">
<svg width="100%" height="100%" viewBox="0 0 396 113" version="1.1" xmlns="http://www.w3.org/2000/svg" xmlns:xlink="http://www.w3.org/1999/xlink" xml:space="preserve" xmlns:serif="http://www.serif.com/" style="fill-rule:evenodd;clip-rule:evenodd;stroke-linejoin:round;stroke-miterlimit:2;">
    <g transform="matrix(1,0,0,1,-1722,-1568)">
        <g id="phantasy-star.afdesign" transform="matrix(1,0,0,1,1920,1624.44)">
            <g transform="matrix(1,0,0,1,-318.984,-60.2947)">
                <g transform="matrix(0.65162,0,0,0.65162,111.692,20.9421)">
                    <g transform="matrix(1,0,0,1,20,-26)">
                        <path d="M366.298,169.637C352.921,157.158 361.127,132.652 378.552,132.652C384.06,132.652 388.782,134.9 391.367,138.722C393.84,142.657 393.616,144.006 390.58,143.331C388.894,142.882 387.433,143.331 386.421,144.455C383.948,147.491 387.882,153.674 393.278,155.247C400.248,157.383 405.082,155.809 408.342,150.189C414.413,139.846 411.49,128.829 398.787,114.103C393.053,107.47 384.397,97.24 379.451,91.17C376.978,88.135 377.09,80.49 379.676,74.645C382.936,67.338 385.859,64.302 392.604,61.155C402.384,56.546 411.265,58.119 419.359,66.101C422.844,69.473 423.518,69.811 423.518,68.012C423.518,66.775 422.394,61.155 422.394,59.918C422.507,55.759 427.79,63.853 429.139,70.26C431.05,79.591 428.914,86.898 422.057,94.205C417.223,99.151 415.199,99.039 417.448,93.755C419.696,88.359 418.572,83.975 413.738,78.579C409.241,73.633 403.958,72.621 400.698,76.218C395.976,81.502 399.461,88.359 413.513,101.287C426.778,113.541 430.151,119.274 431.05,131.865C432.287,148.165 425.317,162.217 412.726,168.625C408.342,170.873 405.532,171.435 399.236,171.435C392.379,171.435 390.693,170.986 386.308,168.175C381.137,164.803 376.641,160.419 374.392,156.709C373.268,154.685 373.043,154.685 371.132,156.484C368.996,158.507 368.434,163.903 369.896,168.962C370.907,172.672 369.783,172.784 366.298,169.637Z" style="fill:white;fill-rule:nonzero;"/>
                    </g>
                    <g transform="matrix(1,0,0,1,20,-26)">
                        <path d="M15.109,167.388C0.157,159.519 -4.564,142.769 4.879,131.527C6.565,129.616 9.375,127.256 11.399,126.244C13.31,125.232 15.221,123.883 15.671,123.209C16.12,122.534 16.57,94.542 16.57,61.042C16.57,7.869 16.795,0 18.256,0C19.156,0 20.167,1.124 20.392,2.586C24.664,21.921 28.823,32.151 32.084,31.139C33.095,30.802 37.03,29.228 40.74,27.654C51.756,22.933 61.199,24.17 69.406,31.139C75.027,35.973 75.589,39.233 70.305,35.973C66.258,33.5 62.099,33.05 60.975,34.962C60.525,35.636 62.211,39.009 64.684,42.493C75.027,57.332 73.116,64.864 53.892,83.413C43.887,93.081 40.852,94.205 37.03,89.371C35.793,87.797 34.444,86.561 34.107,86.561C33.77,86.561 33.433,98.927 33.433,113.99C33.433,129.167 32.983,141.757 32.421,142.095C31.859,142.432 29.835,141.87 27.812,140.97C23.09,138.61 15.671,139.509 12.973,142.769C8.701,148.053 11.286,156.821 19.38,164.69C24.102,169.187 24.327,169.749 21.966,169.749C20.617,169.637 17.469,168.625 15.109,167.388ZM47.822,68.462C53.668,61.942 54.117,60.143 51.419,54.522C48.159,47.665 45.461,45.529 42.426,47.215C39.391,48.789 36.805,54.859 36.805,60.03C36.805,65.202 39.953,73.071 41.976,73.071C42.876,73.071 45.461,70.935 47.822,68.462Z" style="fill:white;fill-rule:nonzero;"/>
                    </g>
                    <g transform="matrix(1,0,0,1,20,-26)">
                        <path d="M285.696,143.444C281.986,141.757 275.578,132.539 274.341,135.799L273.217,138.835L271.306,134.675C270.294,132.314 269.508,127.593 269.508,124.22C269.508,118.712 269.957,117.475 272.768,114.553C277.826,109.494 285.133,110.056 288.056,115.902C290.529,120.511 290.192,121.073 285.583,120.96C281.986,120.848 281.199,121.298 280.974,123.321C280.524,126.244 284.347,130.403 287.494,130.403C291.092,130.403 294.239,126.356 294.239,121.972C294.239,115.789 291.316,110.843 278.164,95.104C270.744,86.111 268.833,81.165 269.957,73.633C271.643,62.953 281.986,56.658 290.979,61.155C292.89,62.166 294.801,62.953 295.026,62.953C296.038,62.953 295.139,57.895 293.227,52.836C290.642,46.091 291.878,45.641 297.949,51.15C304.469,57.108 308.291,66.213 308.291,75.881C308.291,81.727 307.729,84.537 306.155,86.898C305.031,88.584 303.795,89.933 303.345,89.933C302.895,89.933 301.996,87.685 301.209,84.987C298.848,75.881 287.494,70.373 286.595,77.905C286.145,81.614 288.618,85.437 298.848,96.453C308.516,106.796 312.226,114.103 312.226,122.534C312.226,129.841 308.404,138.722 303.682,141.982C299.972,144.68 290.192,145.58 285.696,143.444Z" style="fill:white;fill-rule:nonzero;"/>
                    </g>
                    <g transform="matrix(1,0,0,1,20,-26)">
                        <path d="M568.536,142.657C556.058,140.184 540.881,128.605 538.071,119.386C535.823,111.855 533.125,113.878 531.888,123.771C531.326,128.829 531.663,130.853 533.574,134.675C537.621,142.544 537.396,142.769 525.255,142.769C513.452,142.769 513.339,142.657 516.262,135.687C517.611,132.314 517.948,125.232 517.948,96.791C517.948,75.432 518.398,61.717 519.073,61.267C519.635,60.93 521.658,61.379 523.457,62.391C528.403,64.864 539.195,65.764 545.94,64.077C552.573,62.504 556.957,63.628 559.43,67.675C561.903,71.722 562.24,82.963 560.105,88.809C559.093,91.62 557.856,95.442 557.294,97.24C556.844,99.151 555.608,102.412 554.596,104.66C550.549,114.103 559.318,125.345 573.595,129.167C579.777,130.853 585.848,128.829 590.007,123.771C594.617,118.15 594.504,110.843 589.895,102.412C585.96,95.442 586.073,95.554 587.984,95.554C590.12,95.554 594.841,100.95 597.652,106.459C600.687,112.529 600.799,122.422 597.877,128.717C594.167,137.036 583.6,144.118 575.843,143.781C574.606,143.668 571.346,143.219 568.536,142.657ZM536.722,96.341C537.846,94.88 547.177,84.65 547.177,81.952C547.177,80.378 534.361,80.715 532.787,82.289C531.438,83.638 530.876,93.98 532.113,97.128C533.012,99.601 534.249,99.376 536.722,96.341Z" style="fill:white;fill-rule:nonzero;"/>
                    </g>
                    <g transform="matrix(1,0,0,1,20,-26)">
                        <path d="M58.164,140.858C58.164,139.734 59.176,137.373 60.413,135.462C62.436,132.427 62.661,130.178 62.661,113.316C62.661,102.861 62.324,94.43 61.874,94.43C60.413,94.43 51.307,97.802 47.934,99.489C44.225,101.4 42.426,101.625 42.426,100.051C42.426,98.365 72.778,68.574 74.577,68.574C75.814,68.574 76.151,71.497 76.151,84.875C76.151,99.714 76.376,101.175 78.287,102.299C81.322,103.873 82.446,103.761 84.47,101.625C85.931,100.163 86.268,96.678 86.268,80.715L86.268,61.492L90.653,52.948C93.013,48.227 95.824,41.482 96.948,37.884C98.072,34.399 99.196,31.701 99.534,32.039C99.871,32.264 99.983,54.522 99.871,81.39C99.646,121.86 99.871,130.741 101.22,133.439C102.119,135.125 103.131,137.935 103.581,139.734L104.255,142.769L93.575,142.769C83.233,142.769 82.896,142.657 82.896,140.296C83.008,138.835 83.683,136.474 84.582,134.9C86.83,130.965 86.718,120.96 84.47,118.712C82.446,116.576 81.322,116.464 78.287,118.037C76.601,119.049 76.151,120.511 76.151,125.794C76.151,129.392 76.938,134.225 77.837,136.361C78.736,138.61 79.523,140.97 79.523,141.645C79.523,142.319 75.476,142.769 68.844,142.769C59.401,142.769 58.164,142.544 58.164,140.858Z" style="fill:white;fill-rule:nonzero;"/>
                    </g>
                    <g transform="matrix(1,0,0,1,20,-26)">
                        <path d="M108.864,139.846C105.267,135.35 104.03,129.841 103.468,116.464C102.794,103.198 103.805,96.566 108.302,83.975C111.899,73.858 111.787,70.598 107.628,65.989C105.829,63.853 104.255,61.829 104.255,61.379C104.255,61.042 113.698,60.705 125.165,60.705C144.613,60.705 146.074,60.817 145.512,62.728C145.175,63.74 143.713,67.675 142.364,71.385C140.341,77.118 139.891,80.603 139.891,94.992C139.779,115.002 141.015,130.965 143.151,135.125C144.051,136.811 144.725,139.172 144.725,140.521C144.725,142.657 144.051,142.769 134.045,142.769C124.153,142.769 123.366,142.657 123.366,140.521C123.366,139.284 124.378,136.361 125.614,134.113C129.212,127.368 128.649,122.647 123.591,117.7C121.23,115.452 118.42,113.541 117.295,113.541C115.497,113.541 115.272,114.328 115.722,119.724C116.396,127.368 117.52,128.717 121.567,126.918C123.141,126.131 124.827,125.907 125.165,126.244C126.176,127.256 115.047,142.095 113.024,142.544C112.012,142.769 110.213,141.533 108.864,139.846ZM124.94,96.453C125.277,94.992 125.727,90.158 125.951,85.774C126.514,76.106 125.052,74.982 121.455,82.401C117.745,89.933 117.183,94.205 119.544,96.791C122.129,99.601 124.378,99.489 124.94,96.453Z" style="fill:white;fill-rule:nonzero;"/>
                    </g>
                    <g transform="matrix(1,0,0,1,20,-26)">
                        <path d="M148.098,140.296C148.21,138.835 148.884,136.474 149.784,134.9C151.133,132.652 151.358,124.22 151.47,88.584C151.47,61.717 151.92,44.967 152.594,44.967C153.156,44.967 154.618,47.215 155.854,50.138C157.091,52.948 159.901,57.22 162.037,59.806C164.848,62.953 167.208,68.012 170.019,76.556C172.267,83.301 174.628,88.584 175.19,88.135C175.752,87.797 176.202,81.614 176.202,74.42C176.202,59.468 177.438,56.208 184.521,51.712C188.68,49.238 202.058,47.103 202.058,49.014C202.058,49.576 199.697,51.262 196.886,52.723C188.568,57.22 188.568,56.995 188.568,97.016C188.568,126.244 188.792,132.539 190.254,134.45C191.153,135.574 191.94,137.935 191.94,139.734L191.94,142.769L181.823,142.769C172.829,142.769 171.705,142.544 171.705,140.746C171.705,139.621 172.492,137.71 173.391,136.474C174.291,135.35 175.078,133.101 175.078,131.527C175.078,127.368 166.759,103.086 165.072,102.524C163.161,101.849 163.723,132.652 165.635,135.012C166.309,135.912 167.208,137.935 167.433,139.734L167.995,142.769L158.103,142.769C148.435,142.769 148.098,142.657 148.098,140.296Z" style="fill:white;fill-rule:nonzero;"/>
                    </g>
                    <g transform="matrix(1,0,0,1,20,-26)">
                        <path d="M195.313,141.083C195.313,140.071 196.212,137.935 197.336,136.361C198.91,133.888 199.36,129.392 200.146,111.855C200.596,100.163 201.046,87.685 201.271,84.312C201.495,79.141 201.158,78.13 199.472,77.792C198.348,77.567 196.437,78.242 195.2,79.254C192.277,81.952 191.715,80.153 192.165,69.698L192.502,61.604L209.927,61.379L227.351,61.267L227.689,70.036L228.026,78.804L224.316,78.467C220.719,78.13 220.606,78.242 219.932,83.526C219.482,86.561 218.583,90.495 217.908,92.406C217.234,94.318 216.672,103.648 216.672,113.204C216.672,128.38 216.897,130.965 218.808,133.551C219.932,135.237 221.168,137.935 221.618,139.734L222.293,142.769L208.803,142.769C197.448,142.769 195.313,142.544 195.313,141.083Z" style="fill:white;fill-rule:nonzero;"/>
                    </g>
                    <g transform="matrix(1,0,0,1,20,-26)">
                        <path d="M234.883,140.184C230.274,135.237 228.7,128.605 228.7,113.541C228.7,100.051 228.813,99.039 232.86,87.91C237.581,75.207 237.581,71.834 232.86,65.651C231.398,63.74 230.611,61.829 230.949,61.379C232.185,60.143 270.632,60.593 270.632,61.829C270.632,62.504 269.957,64.415 269.058,66.213C265.461,72.958 263.662,87.123 264.336,101.512C265.348,122.647 266.585,134.113 268.159,136.811C271.194,142.207 270.294,142.769 258.828,142.769C252.982,142.769 248.148,142.432 248.148,141.982C248.148,141.42 249.497,138.61 250.959,135.462C252.533,132.427 253.769,128.605 253.769,127.031C253.769,123.321 250.172,117.588 246.35,115.115C243.539,113.204 243.314,113.204 241.741,115.227C239.043,118.937 242.303,128.942 245.675,127.593C252.87,124.558 253.095,125.682 246.912,133.214C244.439,136.249 241.853,139.621 241.291,140.746C239.83,143.444 237.806,143.331 234.883,140.184ZM250.509,94.767C250.509,91.732 250.959,86.898 251.521,83.75C252.533,77.343 252.308,76.668 249.835,78.692C247.361,80.715 245.113,85.324 244.214,90.046C243.652,93.081 243.989,94.655 245.9,97.016C249.273,101.287 250.397,100.838 250.509,94.767Z" style="fill:white;fill-rule:nonzero;"/>
                    </g>
                    <g transform="matrix(1,0,0,1,20,-26)">
                        <path d="M311.102,141.083C311.102,140.071 313.125,137.373 315.598,134.9C323.13,127.48 323.018,120.96 315.036,110.73C308.516,102.299 307.167,98.252 308.853,91.957C310.54,85.774 317.06,73.408 320.657,69.361C327.065,62.616 333.135,60.817 327.627,67.338C321.219,74.982 317.622,92.406 321.556,96.341C323.13,98.027 323.805,98.027 328.189,96.229C340.442,91.507 346.288,80.378 343.703,66.438C342.466,59.356 335.721,44.967 329.763,36.648C327.627,33.5 326.053,30.802 326.278,30.577C328.414,28.329 348.649,49.014 353.932,58.681C357.193,64.752 357.755,66.775 357.642,73.071C357.53,81.952 355.169,87.797 346.288,100.5C335.046,116.464 332.348,126.918 336.958,136.024C338.194,138.497 339.206,140.97 339.206,141.645C339.206,142.319 334.147,142.769 325.154,142.769C313.238,142.769 311.102,142.544 311.102,141.083Z" style="fill:white;fill-rule:nonzero;"/>
                    </g>
                    <g transform="matrix(1,0,0,1,20,-26)">
                        <path d="M437.008,140.746C437.008,139.621 437.795,137.71 438.695,136.474C439.931,134.9 440.268,130.741 440.381,119.499C440.381,110.618 442.629,98.252 442.517,90.833L442.404,78.467L439.482,79.141C432.849,80.715 433.074,80.94 432.737,71.834C432.512,65.539 432.849,62.953 433.973,61.942C435.097,61.042 440.606,60.705 451.735,60.93L467.923,61.267L468.935,67.675C469.384,71.272 469.497,75.432 469.16,77.005C468.597,79.366 467.923,79.703 465.675,79.141C462.302,78.242 459.492,80.265 459.492,83.638C459.492,84.875 459.042,95.329 458.592,106.796C457.693,126.694 458.143,133.326 460.616,134.9C461.178,135.237 462.077,137.148 462.414,139.172L463.201,142.769L450.049,142.769C438.245,142.769 437.008,142.544 437.008,140.746Z" style="fill:white;fill-rule:nonzero;"/>
                    </g>
                    <g transform="matrix(1,0,0,1,20,-26)">
                        <path d="M475.342,139.846C471.408,134.9 470.171,128.492 470.284,112.979C470.284,99.601 470.621,97.465 473.881,87.797C478.265,75.094 478.265,72.396 474.556,66.888C472.869,64.415 472.082,62.279 472.757,61.604C473.319,61.042 481.975,60.817 492.205,60.93C513.339,61.267 512.103,60.48 507.831,72.509C504.458,82.064 503.559,104.098 506.032,115.789C507.044,120.398 507.831,126.244 507.831,128.717C507.943,131.19 508.618,134.45 509.517,136.024C513.002,142.207 512.215,142.769 500.524,142.769C493.891,142.769 489.844,142.319 489.844,141.645C489.844,140.97 490.856,138.497 492.092,136.024C493.329,133.551 494.341,129.392 494.341,126.694C494.341,122.309 493.779,121.185 489.732,117.588C485.91,114.103 484.898,113.653 483.436,114.777C482.2,115.789 481.863,117.475 482.312,120.511C483.099,126.806 484.673,128.267 488.832,126.806C490.743,126.131 492.43,125.907 492.767,126.244C493.104,126.469 491.306,129.167 488.945,132.202C486.584,135.237 483.999,138.835 483.212,140.296C481.413,143.668 478.153,143.444 475.342,139.846ZM491.418,98.702C491.755,97.915 492.205,92.744 492.542,87.348C492.992,80.041 492.767,77.567 491.868,77.792C489.619,78.579 485.348,87.797 485.348,91.957C485.348,97.353 490.181,102.636 491.418,98.702Z" style="fill:white;fill-rule:nonzero;"/>
                    </g>
                </g>
            </g>
        </g>
    </g>
</svg>
