<svg viewBox="-35 67 606 353" xmlns="http://www.w3.org/2000/svg" xml:space="preserve">
    <g fill="#fff">
        <path d="M117.83 391.09c.71-3.19 1.29-5.79 1.93-8.63h88.28c6.37 0 6.37 0 7.15-7.43H133.8l9.08-42.79h43.99c5.05 0 5.63-.69 4.94-6.27h-59.87c.42-2.56.4-4.87 1.27-6.79.45-1.01 2.44-1.86 3.73-1.87 17.37-.12 34.74-.21 52.11.02 4.03.05 6.44-.67 6.59-5.12.06-1.9 1.07-2.8 3.15-2.71 3.33.15 6.66.04 10.33.04-.37 2.78-.67 4.96-1.02 7.58h62.52c-.64 3.1-1.17 5.69-1.8 8.76h-57.69c-5.5 0-5.5.01-6.11 6.24h48.99c-2.98 13.85-5.81 27.18-8.82 40.48-.2.89-1.74 1.98-2.75 2.09-2.85.29-5.74.11-8.61.11-6.45.01-6.71.28-6.74 7.55h28.45c.32.63.56.87.52 1.06-1.52 7.69-1.53 7.69-9.57 7.69-6.25 0-12.5.06-18.74-.03-2.25-.03-3.4.67-3.76 3.07-.47 3.19-1.35 6.31-2.06 9.46-2.57 11.33-5.8 14.65-17.25 15.68-7.17.65-14.44.12-21.98.12.25-2.99.48-5.78.77-9.2h11.42c2.75 0 5.5.07 8.25-.06 3.03-.15 5.24-1.51 5.92-4.7.97-4.57 1.92-9.15 3.01-14.34-31.73-.01-62.76-.01-94.24-.01zm117.41-33.81c-11.82 0-23.03-.02-34.23.06-.63 0-1.62.76-1.8 1.37-.67 2.2-1.08 4.48-1.7 7.27 11.82 0 23.03.02 34.24-.06.63 0 1.62-.76 1.8-1.37.67-2.2 1.07-4.49 1.69-7.27zm-49.5.04h-27.65c-7.49 0-7.5 0-8.79 7.29-.06.32.14.68.3 1.37 10.94 0 21.89.03 32.83-.07.72-.01 1.86-.9 2.05-1.59.59-2.11.81-4.31 1.26-7zm15.57-8.58h28.92c7.04 0 7.05 0 8.27-6.87.04-.21-.14-.45-.37-1.08-11.16 0-22.46-.02-33.76.06-.64 0-1.66.78-1.84 1.39-.54 1.87-.75 3.84-1.22 6.5zm-12.41-7.19c-.45-.2-.68-.39-.9-.39-10.46-.06-20.93-.17-31.39-.05-.97.01-2.32 1.27-2.78 2.28-.64 1.39-.6 3.1-.92 5.1 1.53.08 2.85.2 4.17.2 8.35.02 16.7.01 25.05.01 6.39 0 6.46-.08 6.77-7.15zm173.81 77.98c-.26-.47-.37-.57-.37-.67-.14-10.12-.14-10.12 9.9-10.12h1.12c10.73 0 10.74 0 12.93-10.31.98-4.62 1.97-9.23 2.91-13.86.19-.93.12-1.91.19-3.32h-10.67c-9 0-17.99.11-26.98-.06-2.75-.05-3.89.75-4.43 3.52-1.91 9.75-4.2 19.43-6.13 29.19-.41 2.09-1.22 2.69-3.18 2.63-3.46-.1-6.92-.03-10.7-.03 2.5-11.86 4.9-23.25 7.35-34.91-1.24-.13-2.19-.32-3.15-.32-11.49-.02-22.99.06-34.48-.07-2.53-.03-3.38 1.01-4.04 3.25-3.58 12.14-9.34 23.1-18.05 32.4-.6.64-1.19 1.29-1.81 1.9-.26.25-.6.43-1.24.87-3.12-2.45-6.31-4.95-10.05-7.87 1.79-1.62 3.55-2.98 5.02-4.59 8.77-9.62 13.07-21.47 15.99-33.78 4.33-18.25 8.09-36.64 12.1-54.97.29-1.32.68-2.61 1.04-4h121.28c-1.45 6.9-2.82 13.55-4.24 20.19-4.97 23.33-9.93 46.66-14.94 69.98-2.06 9.58-6.27 13.61-16.22 14.73-5.06.57-10.23.19-15.35.23-1.33 0-2.67-.01-3.8-.01zm-12.58-47.55c13.67 0 26.77.03 39.86-.07.74-.01 1.96-.9 2.12-1.57 1.37-5.9 2.54-11.85 3.75-17.69-.53-.29-.74-.5-.96-.5-12.87-.05-25.73-.13-38.6-.03-.83.01-2.17 1.22-2.38 2.08-1.35 5.66-2.46 11.39-3.79 17.78zm6.23-29.25c13.69 0 26.66.03 39.62-.07.81-.01 2.17-.93 2.34-1.65 1.34-5.64 2.45-11.32 3.74-17.49-13.58 0-26.65-.03-39.73.08-.8.01-2.12 1.05-2.3 1.83-1.32 5.55-2.4 11.15-3.67 17.3zm-59.45 28.23c.61.34.92.67 1.23.67 12.23.06 24.46.12 36.69.08.69 0 1.86-.67 1.99-1.22 1.44-5.96 2.71-11.95 4.14-18.43-13.23 0-25.69-.03-38.15.08-.77.01-2.01 1.07-2.2 1.84-1.35 5.65-2.49 11.34-3.7 16.98zm49.9-46.59c-.78-.33-1.11-.6-1.45-.6-12.11-.05-24.23-.11-36.34-.03-.82.01-2.17.99-2.35 1.74-1.33 5.53-2.43 11.11-3.58 16.56.59.31.8.53 1.02.53 12.24.06 24.48.13 36.72.06.81 0 2.16-.95 2.34-1.69 1.34-5.5 2.46-11.07 3.64-16.57zM70.09 293.51c.51-3.62.55-7.37 1.6-10.82 8.01-26.33 15.77-52.74 24.46-78.85 13.32-39.98 28.46-79.3 45.78-117.75 2.35-5.22 5.19-10.24 7.94-15.27.78-1.43 2.08-2.58 3.14-3.86.37.13.73.25 1.1.38 0 1.61.33 3.3-.05 4.81-3 11.83-5.78 23.74-9.3 35.42-15.89 52.66-34.97 104.17-56.4 154.8-3.88 9.18-8.56 18.03-13.01 26.96-.88 1.78-2.36 3.26-3.56 4.88-.56-.23-1.13-.47-1.7-.7zm168.67-108.89h34.89v11.57H238.7v41.79h18.83c4.87 0 9.74.07 14.61-.03 2.11-.05 2.91.72 2.82 2.83-.12 2.73-.03 5.46-.03 8.45h-46.71V141.7h46.38v11.26h-35.84v31.66zm296.09.08h34.96v11.39h-34.95v41.72h35.74v11.51h-46.21V141.8h46.3v11.12h-35.84v31.78zm-570.6-42.44c8.88 0 17.51-.45 26.05.15 6.49.45 11.63 4.29 15.45 9.59 7.77 10.79 7.68 29.13-.06 39.99-5.07 7.13-12.32 9.8-20.64 10.24-3.34.18-6.7.03-10.36.03v46.96h-10.44V142.26zm10.47 48.67c8.88-.06 18.2 1.02 23.55-7.53 4.54-7.26 4.73-15.82.08-23.18-5.51-8.73-15-6.55-23.63-7.28v37.99zm458.03-23.33c-3.93-2.88-7.36-6.02-11.33-8.17-11.76-6.4-23.68-4.5-33.25 4.85-15.93 15.55-16.7 44.16-1.63 60.71 11.84 12.99 28.38 13.82 41.57 2 1.37-1.22 2.4-2.82 3.59-4.25.35.17.7.33 1.04.5 0 3.91.17 7.84-.11 11.73-.08 1.08-1.31 2.31-2.32 3.07-15.44 11.73-35.51 9.8-49.48-4.66-21.26-21.99-18.61-61.45 4.75-79.96 13.06-10.35 30.7-10.86 44.16-1.06 2.25 1.64 3.33 3.37 3.08 6.21-.28 2.97-.07 5.98-.07 9.03zM154.48 97.58c-.38 3.09-.38 6.28-1.2 9.25-4.48 16.2-8.67 32.5-13.88 48.47-16.63 50.93-34.83 101.3-56.87 150.2-2.25 5-4.94 9.8-7.56 14.62-.86 1.58-2.17 2.92-3.96 5.28-1.23-5.18-.71-9.29.98-12.84 5.95-12.46 13.06-24.42 18.38-37.13 20.82-49.73 39.31-100.33 55.12-151.89 2.34-7.63 4.16-15.41 6.27-23.11.3-1.09.9-2.1 1.37-3.15.45.11.9.21 1.35.3z"/>
        <path d="M167.99 409.16c-4.3 1.88-7.65 3.45-11.1 4.75-.77.29-2.33-.09-2.81-.72-3.75-4.92-7.32-9.97-11.19-15.31 3.6-1.45 7.1-2.94 10.68-4.21.69-.24 2.04.12 2.51.69 3.87 4.65 7.61 9.42 11.91 14.8z"/>
    </g>
</svg>
