<svg viewBox="15 225 468 99" xmlns="http://www.w3.org/2000/svg" xml:space="preserve">
    <path d="M42.03 242.3c-3.33-.52-3.64-1.74-1.57-4.32 7.43-9.26 22.65-11.1 31.58-3.21 6.51 5.75 6.01 13.37.2 19.83-6.63 7.39-16.15 10.16-24.39 14.96-2.24 1.31-5.26 1.2-7.77 2.16-1.38.53-2.93 1.68-3.55 2.96-2.96 6.07-4.86 12.83-8.7 18.24-2.24 3.15-7.42 4.22-11.28 6.22-.48-1.31-1.63-2.82-1.32-3.91 1.2-4.18 2.42-8.46 4.45-12.27 6.79-12.74 13.94-25.3 20.94-37.92.48-.86.9-1.75 1.41-2.74zm-.99 22.78c7.94-1.1 17.97-6.93 22.25-12.64 3.16-4.22 1.85-8.93-3.01-10.9-4.14-1.67-7.23-.08-9.72 5.1-.9 1.88-1.45 3.93-2.43 5.76-2.22 4.17-4.6 8.24-7.09 12.68zm91.09 30.78c-4.7-7.74-1.05-14.77 1.76-21.51 2.13-5.1 5.54-9.71 8.7-14.32 3.54-5.16 8.57-8.49 15.27-11.12-.62 1.97-.77 3.3-1.41 4.32-3.53 5.71-7.47 11.19-10.67 17.08-2.24 4.13-3.63 8.75-5.14 13.24-.31.92.2 2.74.93 3.22.75.49 2.68.28 3.33-.38 2.57-2.61 5.32-5.23 7.14-8.35 4.19-7.2 7.7-14.8 11.83-22.05 2.36-4.14 6.84-5.2 10.98-6.51.37.29.74.59 1.11.88-4.11 7.78-8.23 15.57-12.51 23.67 2.4-.42 4.61-.81 6.81-1.2.14.43.28.85.41 1.28-.84.52-1.62 1.26-2.54 1.54-6.17 1.86-9.27 6.37-11.61 12.09-2.49 6.08-5.15 12.27-8.9 17.58-3.41 4.82-8.3 8.63-12.74 12.67a41.386 41.386 0 0 1-7.57 5.44c-5.51 3.06-10.87-.07-10.19-6.27.39-3.53 2.17-7.04 3.91-10.24 1.21-2.23 3.35-4 5.2-5.84 1.79-1.75 3.74-3.31 5.9-5.22zm15.18-6.91c-3.43 2.48-6.44 4.1-8.72 6.44-3.7 3.78-7.31 7.79-10.16 12.21-1.09 1.69-.95 5.81.34 7.02 2.26 2.12 5.04-.18 6.61-2.19 5.28-6.8 9.07-14.42 11.93-23.48zm54.56-22.11c.74-1.31 1.37-2.7 2.23-3.93 3.83-5.52 6.96-11.3 6.65-18.27-.08-1.72-.82-3.41-1.52-6.19-3.01 2.64-5.51 4.31-7.33 6.54-4.86 5.95-9.58 12.04-14.07 18.28-3.64 5.06-4.24 11.14-4.47 17.13-.14 3.63 1.15 7.02 4.87 8.57 3.22 1.35 6.47 1.56 9.53-.77 4.12-3.14 8.34-6.16 13.25-9.76-.61 1.46-.79 2.36-1.29 2.99-5.37 6.74-11.34 12.84-19.02 16.98-5.56 3-11.62 1.44-15.43-3.7-4.57-6.17-4.48-13.22-2.94-20.03 4.39-19.46 17.32-32.01 34.48-40.83 1.53-.79 3.14-1.45 4.72-2.14 5.37-2.32 10.22.12 11 5.98.43 3.23.48 6.82-.5 9.87-2.12 6.65-4.59 13.29-12.2 16.04-2.53.92-4.75 2.71-7.11 4.1-.28-.29-.56-.57-.85-.86zm39.92 22.08c2.89-2.48 5.79-4.96 8.68-7.44l.93.84c-.96 1.29-1.79 2.71-2.91 3.84-3.6 3.63-7.15 7.34-11.06 10.61-1.51 1.26-4.05 2.09-5.9 1.79-.93-.15-2.06-3.34-1.9-5.04.28-3.15 1.12-6.36 2.31-9.31 2.1-5.19 4.77-10.15 6.92-15.32 1-2.4 1.36-5.06 1.48-7.83-5.11 3.1-9.39 6.62-11.35 12.31-.58 1.69-1.38 3.31-2.18 4.91-2.16 4.33-3.95 8.92-6.67 12.86-2.65 3.85-6.53 6.58-12.42 7.09.54-2.21.68-4.16 1.46-5.8 7.91-16.75 15.85-33.49 23.94-50.15 2.21-4.56 4.7-9.04 7.57-13.2 2.16-3.13 5.88-3.47 10.4-3.94l-16.13 35.73c3.3-2.37 6.49-5.1 10.08-7.13 4.61-2.6 7.72-.88 6.94 4.29-.79 5.26-3.04 10.32-4.91 15.37-1.87 5.04-4.08 9.96-6.13 14.93.29.2.57.4.85.59zm241.19-43.13c-1.61 9.48-3.96 18.27-9.7 26.34-6.53 9.19-15.75 15.34-23.35 23.27-5.53 5.76-11.8 3.21-13.57-4.72-1.68-7.57.29-14.69 2.81-21.56 5.14-14.07 14.52-25.1 26.13-34.33.68-.54 1.46-.96 2.21-1.4 6.35-3.79 12.22-1.6 14.31 5.49.65 2.23.79 4.62 1.16 6.91zm-10.87 4.83c-.45-1.54-.89-4.55-2.22-7.11-1.53-2.96-4.31-3.12-5.88-.44-4.79 8.19-10.02 16.23-13.67 24.92-2.16 5.13-1.99 11.37-2.21 17.14-.12 3.24 2.28 4.16 5.22 2.56.97-.53 1.89-1.23 2.7-1.99 9.67-9.14 14.75-20.44 16.06-35.08zM109.23 288.7c-2.77 2.57-5.29 4.92-7.83 7.25-2.17 2-4.69 3.94-7.64 2.61-3.18-1.43-3.06-5.03-3.05-7.87.05-13.77 6.57-24.49 16.54-33.39 2.6-2.32 5.44-4.37 8.2-6.5 3.91-3.03 9.23-1.94 10.8 2.67 1.45 4.24 2.72 8.16-.25 13.19-3.35 5.68-4.29 12.8-6.17 19.33-.27.95.08 2.08.14 3.13l9.61-9.15.69.45c-.09.51-.01 1.15-.3 1.5-3.78 4.59-7.6 9.13-11.42 13.69-.08.1-.15.23-.25.28-2.33.94-4.66 1.88-6.99 2.81-.7-2.17-1.49-4.31-2.04-6.51-.25-1.02-.04-2.17-.04-3.49zm-5.82 1.19c2.59-2.57 5.66-4.67 7.39-7.58 2.2-3.68 3.28-8.02 4.89-12.05 2.13-5.35 1.27-10.28-2.33-13.07-8.47 7.34-14.36 25.51-9.95 32.7zm323.34-44.36c-2.85 1.31-5.7 2.63-8.65 3.98-1.91-5.09 2.19-6.86 4.81-8.74 4.64-3.32 9.7-6.11 14.79-8.71 1.6-.82 3.87-.31 5.83-.42-.28 1.84-.13 3.9-.93 5.47-3.16 6.23-7.19 12.06-9.84 18.48-4.52 10.97-11.1 20.81-16.29 31.39-1.25 2.55-2.29 5.21-3.08 7-2.09.81-3.58 1.33-5.02 1.97-.9.4-1.67 1.28-2.58 1.43-1.74.28-3.55.18-5.32.24.18-1.63-.12-3.52.61-4.84 7.41-13.39 15-26.69 22.53-40.01 1.22-2.16 2.46-4.31 3.69-6.47-.18-.25-.37-.51-.55-.77zm-325.16-17.61c-.62 2.71-.65 4.6-1.46 6.06-2.67 4.84-5.88 9.39-8.39 14.31-1.83 3.59-2.66 7.68-4.33 11.37-1.81 4-4.41 7.67-6.03 11.73-1.99 4.97-3.32 10.21-4.94 15.33.28.24.56.49.85.73l12.21-8.66c-.37 4.29-17.11 18.71-23.27 19.93-2.96-4.4-2.08-9.32-.36-13.53 4.19-10.22 9.02-20.19 13.85-30.14 3.09-6.38 7.04-12.37 9.86-18.85 2.25-5.17 6.71-5.99 12.01-8.28zm184.15 32.98c-.77 9.31-4.71 17.95-11.56 25.21-3.4 3.6-7.03 7.06-10.92 10.12-5.05 3.97-9.62 1.83-10.53-4.57-1.24-8.73.87-16.84 6.16-23.6 4.65-5.94 10.24-11.22 15.85-16.31 4.36-3.96 9.59-1.81 10.65 3.97.25 1.44.21 2.95.35 5.18zm-12.26-1.81c-7.16 6.53-9.75 14.98-11.02 23.87-.34 2.38 1.03 5 1.65 7.63 10.24-3.91 15.31-21.85 9.37-31.5zm93.54 19.73c-.43.94-.63 2.14-1.33 2.79-5.19 4.84-10.32 9.77-15.8 14.26-4.83 3.96-11.56 2.85-12.79-2-.87-3.42-1.37-7.26-.77-10.69 1.86-10.54 7.91-18.65 16.45-24.86 3.8-2.76 7.75-5.48 12-7.4 4.36-1.98 7.67.8 7.34 5.61-.4 5.84-4.32 9.43-8.81 12.23a77.651 77.651 0 0 1-12.59 6.33c-2.72 1.08-3.4 2.87-3.65 5.29-.1.99-.41 2.04-.2 2.97.43 1.84.66 4.45 1.9 5.18 1.25.73 3.84 0 5.44-.86 2.61-1.4 4.93-3.35 7.28-5.19 1.65-1.29 3.15-2.77 4.71-4.17.28.18.55.35.82.51zm-6.22-20.54c-6.03 4.13-10.24 9.58-10.79 13.97 10.07-2.43 14.89-8.67 10.79-13.97zm-31.58 13.92v-11.16c-5.88 6.93-10.37 14.26-10.52 23.39-.07 4.28 1.65 5.41 5.29 3.12s6.85-5.28 10.8-7.61c-.92 1.34-1.65 2.87-2.78 3.99-3.98 3.95-8.06 7.81-12.17 11.62-2.37 2.19-5.07 4.06-8.41 2.4-3.69-1.85-3.98-5.52-3.78-9.05.64-11.11 6.34-19.82 13.82-27.44 3.56-3.63 7.79-6.61 11.74-9.86 2.72-2.25 4.87-1.14 6.57 1.34 2.4 3.5 1.75 8.32-1.33 11.35-1.69 1.65-3.23 3.46-4.97 5.05-1.01.91-2.27 1.54-4.26 2.86zm-20.26-21.03c-3.23 6.19-6.69 12.27-9.63 18.59-2.88 6.2-6.98 11.99-7.72 19.01.3.27.61.54.91.82l9.24-5.61.59.62c-1.12 1.33-2.07 2.87-3.4 3.94-3.39 2.74-7.11 5.08-10.39 7.93-2.18 1.89-4.26 1.73-5.86.07-1.3-1.35-2.64-3.72-2.33-5.33.86-4.47 2.09-9 4.05-13.09 3.16-6.63 6.84-13.04 10.64-19.33 2.88-4.76 7.32-7.57 12.74-8.59.4.32.78.64 1.16.97zm93.89 26.53h-26.94l-.3-1.31c2.31-3.22 3.89-7.22 9.01-7.32 6.21-.12 12.43-.44 18.64-.45 3.32-.01 3.91 1.37 2.17 4.24-.51.85-1.11 1.65-1.57 2.53-.45.86-.79 1.79-1.01 2.31zm-83.58-48.01c-1.75 7.78-5.44 13.11-14.1 12.83.67-8.68 8.2-15.66 14.1-12.83z" fill="#fff"/>
</svg>
