<svg viewBox="0 0 3839 509.9" xmlns="http://www.w3.org/2000/svg">
    <path class="st0" d="m1350.908 451.5-168-120.375 161.125-107.375-38.375-57.625-144.875 96.625-6 5.375.875-7.5V48.375h-69.25V502.75h69.25v-99.5l-1.125-8.625 6.5 6.125 149.625 107.125 40.25-56.375m1678.125 51h69.25V175h-69.25v327.5Zm.125-392h69.25V48h-69.25v62.5ZM190.908 0C86.033 0 .658 86.25.158 191.125L-.092 510h69.25V338c33 27.375 75.5 43.875 121.625 43.875 105.25 0 190.875-85.625 190.875-190.875S296.158 0 190.908 0Zm0 312.625C123.783 312.625 69.283 258 69.283 191c0-67.125 54.625-121.625 121.625-121.625C258.033 69.375 312.533 124 312.533 191s-54.5 121.625-121.625 121.625m358.625 196c93.75 0 170.125-76.25 170.125-170.125 0-93.75-76.25-170.125-170.125-170.125S379.408 244.625 379.408 338.5s76.25 170.125 170.125 170.125ZM448.658 338.5c0-55.625 45.25-100.875 100.875-100.875s100.875 45.25 100.875 100.875-45.25 100.875-100.875 100.875-100.875-45.25-100.875-100.875m610.75-92.25c-31.5-48.875-85-78-143-78-93.75 0-170.125 76.25-170.125 170.125 0 93.75 76.25 170 170.125 170 62 0 119.125-33.75 149.125-88.125l-60.625-33.375c-17.75 32.25-51.625 52.375-88.375 52.375-55.625 0-100.875-45.25-100.875-100.875S860.908 237.5 916.533 237.5c34.375 0 66.125 17.25 84.75 46.25l58.125-37.5" style="fill:#fff"/>
    <path class="st0" d="M1681.033 373.75c3.5-14.75 3.625-34.5 3.625-34.5 0-93.75-76.25-170.125-170.125-170.125-93.75 0-170.125 76.25-170.125 170.125 0 93.75 76.25 170 170.125 170 61.625 0 118.5-33.5 148.625-87.25l-60.5-33.75c-17.875 31.875-51.625 51.75-88.125 51.75-41.125 0-76.375-24.75-92.125-60-.875-2-3.125-5.125-3.875-7.25l7.625 1.125h223.75l31.125-.125Zm-258.625-74.875c15.625-35.5 51-60.375 92.25-60.375 41.125 0 76.375 24.75 92.125 60.125.875 2 3.125 5 3.875 7.125l-7.625-1h-177.875l-6.25 1c.75-2.125 2.625-5 3.5-6.875m361 34v-88.5h100.75v-69.25h-100.75V100.75h-69.25v232.125c0 93.75 76.25 170.125 170 170.125v-69.25c-55.5 0-100.75-45.25-100.75-100.875m411.375-223.75c-3.625-54.5-63-102.375-127.125-102.375-39.75 0-75.25 13.75-100 38.625-24.375 24.5-37.125 58-36.875 96.875.375 68.25 57.125 118.875 134.875 120.5 68.125 1.375 101.25 29 101.125 84.5 0 64.375-50.25 93.25-100.125 93.25-50.875 0-93.875-38-100.125-88.375l-68.75 8.375c10.375 85 83 149.125 168.75 149.125 98 0 169.25-68.25 169.375-162.375 0-94.125-63.125-151.625-169-153.75-33.25-.625-66.875-16.875-67-51.625-.125-20.375 5.5-36.375 16.75-47.75 11.75-11.75 29.75-18.25 50.875-18.25 30.125 0 57 23.25 58 37.75l69.25-4.5m140.375 223.75v-88.25h100.25v-69.25h-100.25v-69h-69.25v226.5c0 93.75 76.25 170.125 170.125 170.125v-69.25c-55.625 0-100.875-45.25-100.875-100.875m381.5-157.375v20.375l.75 8.375c-1.625-1.25-4-4.5-5.625-5.75-27.375-18.875-60.5-30-96.25-30-93.75 0-170.125 76.25-170.125 170.125 0 93.75 76.25 170.125 170.125 170.125 35.625 0 68.75-11.125 96.125-29.875 1.75-1.125 4.375-4.25 6-5.5l-1 8v21.25h69.25v-327.25l-69.25.125Zm-101.125 264c-55.625 0-100.875-45.25-100.875-100.875s45.25-100.875 100.875-100.875 100.875 45.25 100.875 100.875c0 55.75-45.25 100.875-100.875 100.875m276.25-106.75v-88.375h100.5v-69.25h-100.5V105.75h-69.125v227c0 93.75 76.25 170 170.125 170V433.5c-55.75 0-101-45.125-101-100.75M3299.658 509c93.75 0 170.125-76.25 170.125-170.125 0-93.75-76.25-170-170.125-170-93.75 0-170.125 76.25-170.125 170S3205.783 509 3299.658 509Zm-100.875-170.125c0-55.625 45.25-100.875 100.875-100.875s100.875 45.25 100.875 100.875-45.25 100.875-100.875 100.875-100.875-45.25-100.875-100.875m369.375 163.875V338.625c0-55.625 45.25-100.875 100.875-100.875s100.875 45.25 100.875 100.875v164.5h69.25v-164.5c0-93.75-76.25-170.125-170.125-170.125-93.75 0-170 76.25-170 170.125V502.75h69.125" style="fill:#fff"/>
</svg>
