<svg viewBox="0 0 312 113" xmlns="http://www.w3.org/2000/svg" xml:space="preserve" style="fill-rule:evenodd;clip-rule:evenodd;stroke-linejoin:round;stroke-miterlimit:2">
    <clipPath id="a">
        <path d="M.884.834h310.787v112H.884z"/>
    </clipPath>
    <g clip-path="url(#a)">
        <path d="m287.229 34.646-2.323 9.573-2.144-10.6-28.723-6.323.202 15.972 4.328.969-.313 2.881c-.056-.022-.09-.056-.121-.081-5.366-2.831-12.018-3.12-18.279-.756a25.274 25.274 0 0 0-5.818 3.143l-4.332-27.352h-19.103l-.525 3.145h-20.105l-2.297 14.062-1.667-2.061c-4.872-5.984-11.934-9.282-19.758-9.445l17.07-9.176L171.418.834l-21.507 24.781 3.712 4.526c-3.362 1.374-6.299 3.268-8.733 5.557l-18.44-16.36-6.448 12.357.249-11.875-28.83 9.21.74 15.488 4.904-1.272.725 7.85c-5.605-2.517-12.341-2.455-18.588.185a27.541 27.541 0 0 0-5.168 2.951c1.08-4.781.825-9.496-.998-13.701-2.152-4.968-5.939-9.073-10.58-11.664-3.256-2.168-7.135-3.519-11.195-3.978-9.975-1.745-21.954.047-33.744 5.069-4.335 1.849-8.377 3.947-12.024 6.27L.884 39.151l2.783 4.699 8.638 14.599s2.644 4.474 2.661 4.471l4.671-2.295.651-.3 21.464 47.905 2.07 4.604 4.793-1.544 11.614-3.721 5.089-1.616-1.343-5.181-6.167-23.677a52.342 52.342 0 0 0 4.958-4.164c-.345 2.829-.164 5.693.616 8.434 1.611 5.741 5.37 10.273 10.587 12.786 5.633 2.707 12.506 2.715 18.864.017 3.191-1.352 6.027-3.327 8.429-5.676l.876 9.429 20.338-2.994-.032-18.236 42.497 21.003V77.358a33.503 33.503 0 0 0 5.195-.842c4.68-1.13 8.686-2.681 12.245-4.813l-1.786 10.921 22.913 3.607 1.257-8.245 5.986 11.054 3.658-7.048 1.336 11.573 25.979 4.58-1.378-8.74c3.557.403 7.305-.074 10.925-1.44a23.743 23.743 0 0 0 2.515-1.117l-1.035 9.298 17.289 2.44.129 7.091 18.028 5.659 23.474-70.749-24.442-5.941ZM185.725 45.16l1.19-1.268-1.439 8.921-3.756-3.383 4.005-4.27ZM170.499 8.722l6.295 8.551-17.996 8.921-1.243-1.889 12.944-15.583ZM51.34 74.655l7.179 27.549-11.62 3.71-23.845-53.251c-1.296.682-3.692 1.825-5.891 2.904L8.528 40.98c3.434-2.192 7.199-4.135 11.205-5.829 11.241-4.78 21.967-6.206 30.544-4.691 3.035.342 6.249 1.237 9.063 3.103 3.86 2.176 6.812 5.27 8.515 9.21 4.154 9.597-2.784 23.409-16.515 31.882Zm53.425-4.902c-.134 4.102-1.641 8.211-4.162 11.689a23.28 23.28 0 0 1-9.692 7.833c-10.082 4.272-20.162 0-22.855-9.571-2.609-9.253 3.461-20.271 13.229-24.479 6.239-2.634 12.498-2.009 16.981 1.038 2.769 1.877 4.881 4.702 5.868 8.241.124.376.205.77.289 1.156.281 1.349.394 2.73.342 4.093Zm54.85 19.475L117.448 68.14l.076 22.095-10.909 1.489-.76-9.109c3.368-5.775 4.6-12.581 2.843-18.82-.965-3.431-2.748-6.408-5.17-8.794l-1.565-18.571-4.898 1.27-.216-4.695 17.516-5.216 1.074 18.066 12.905-18.13 12.615 12.014-17.642 18.586 16.574 6.556c1.851 3.509 4.676 6.489 8.219 8.685 3.427 2.115 7.35 3.366 11.502 3.776l.003 11.886ZM137.72 58.675l-5.864-2.264 5.467-5.313a26.232 26.232 0 0 0 .397 7.577Zm45.888 5.524c-4.046 3.347-8.658 5.529-14.753 7.002a29.056 29.056 0 0 1-3.914.64c-9.673.95-17.788-3.491-20.868-10.695a15.601 15.601 0 0 1-.903-2.698c-1.425-6.068-.208-11.491 2.789-15.74a19.099 19.099 0 0 1 3.038-3.386c2.824-2.52 6.429-4.351 10.527-5.336 9.215-2.222 17.329.59 22.305 6.696l-17.56 18.689c1.191.225 3.085-.087 4.482-.421 4.182-1.021 6.522-3.24 8.584-5.66l7.018 6.314 2.125 1.921a37.732 37.732 0 0 1-2.87 2.674Zm37.253 24.942-3.82-25.302-5.401 13.959-8.089-17.447h-.091l-3.197 20.203-13.48-2.346 1.896-11.274a45.872 45.872 0 0 0 1.501-1.464l4.369-4.498-4.246-3.805 4.512-26.847h13.6l3.405 18.585 3.815-21.539h9.729l4.037 26.241c-5.137 5.853-7.633 13.72-5.916 20.918 1.327 5.579 4.757 10.073 9.672 12.697a20.31 20.31 0 0 0 1.535.709l.515 3.401-14.346-2.191Zm33.593-8.243a20.907 20.907 0 0 1-4.881 2.606c-3.472 1.322-6.926 1.597-10.003.986-2.144-.424-4.101-1.26-5.802-2.47-2.706-1.958-4.699-4.849-5.577-8.479-1.024-4.362-.081-9.019 2.265-13.098a23.52 23.52 0 0 1 4.446-5.482c1.98-1.775 4.275-3.229 6.83-4.211 5.943-2.218 11.806-1.453 15.934 1.515 1.518 1.075 2.778 2.444 3.771 4.037a14.519 14.519 0 0 1 1.692 4.155c1.264 5.238-.24 10.847-3.546 15.365a22.775 22.775 0 0 1-5.129 5.076Zm30.354 23.848-9.968-2.97-.869-36.752-5.013 28.352-10.876-1.736.779-8.163c7.101-6.001 10.866-15.466 8.803-24.045-.906-3.798-2.859-7.105-5.613-9.621l.918-9.627-4.111-1.093.275-5.141 18.735 3.765 6.302 29.876 6.461-26.785 14.254 3.15-20.077 60.79Z" style="fill:#fff;fill-rule:nonzero"/>
        <path d="M254.691 57.314c.112.442.17.882.156 1.348-.123 2.791-2.746 4.945-5.872 4.799-3.125-.107-5.581-2.48-5.458-5.263.106-2.609 2.43-4.675 5.302-4.807a9.247 9.247 0 0 0-1.709-.208c-5.231-.225-9.507 3.479-9.687 8.092-.201 4.933 3.752 8.955 8.901 9.179 5.238.208 9.511-3.509 9.719-8.418.061-1.703-.441-3.335-1.352-4.722M95.996 62.948c0 2.802-2.549 5.047-5.669 5.047-3.13 0-5.669-2.247-5.669-5.047 0-2.612 2.233-4.766 5.097-5.014a9.427 9.427 0 0 0-1.709-.159c-5.229 0-9.356 3.88-9.356 8.499 0 4.93 4.127 8.796 9.272 8.796 5.235 0 9.356-3.869 9.356-8.796a7.834 7.834 0 0 0-1.532-4.637c.13.399.21.84.21 1.311" style="fill:#fff;fill-rule:nonzero"/>
        <path d="M174.804 55.836c-.078.07-.15.155-.21.244.081-.073.158-.137.242-.207l-.032-.037Zm-42.948.575.061.025-.061-.025Z" style="fill:#7d7f68;fill-rule:nonzero"/>
        <path d="M165.942 44.163c0 2.803-2.549 5.047-5.671 5.047-3.129 0-5.667-2.246-5.667-5.047 0-2.611 2.233-4.765 5.095-5.015a9.594 9.594 0 0 0-1.709-.157c-5.229 0-9.355 3.879-9.355 8.5 0 4.929 4.128 8.795 9.271 8.795 5.235 0 9.358-3.869 9.358-8.795a7.838 7.838 0 0 0-1.534-4.64c.132.399.212.842.212 1.312M56.436 48.761c0 2.801-2.549 5.047-5.671 5.047-3.129 0-5.669-2.247-5.669-5.047 0-2.612 2.235-4.765 5.097-5.015a9.594 9.594 0 0 0-1.709-.157c-5.229 0-9.355 3.879-9.355 8.499 0 4.929 4.128 8.796 9.271 8.796 5.235 0 9.358-3.869 9.358-8.796a7.838 7.838 0 0 0-1.534-4.639c.131.4.212.841.212 1.312" style="fill:#fff;fill-rule:nonzero"/>
    </g>
</svg>
