<?xml version="1.0" encoding="UTF-8" standalone="no"?>
<!DOCTYPE svg PUBLIC "-//W3C//DTD SVG 1.1//EN" "http://www.w3.org/Graphics/SVG/1.1/DTD/svg11.dtd">
<svg width="100%" height="100%" viewBox="0 0 312 113" version="1.1" xmlns="http://www.w3.org/2000/svg" xmlns:xlink="http://www.w3.org/1999/xlink" xml:space="preserve" xmlns:serif="http://www.serif.com/" style="fill-rule:evenodd;clip-rule:evenodd;stroke-linejoin:round;stroke-miterlimit:2;">
    <g transform="matrix(1,0,0,1,-2544,-1568)">
        <g id="pokemon.afdesign" transform="matrix(1,0,0,1,2700,1624.44)">
            <g transform="matrix(1,0,0,1,-320.312,-60)">
                <clipPath id="_clip1">
                    <rect x="164.918" y="4" width="310.787" height="112"/>
                </clipPath>
                <g clip-path="url(#_clip1)">
                    <g transform="matrix(0.517979,0,0,0.517979,164.918,4)">
                        <path id="path3522" d="M552.813,65.277L548.328,83.757L544.188,63.294L488.736,51.087L489.126,81.921L497.481,83.793L496.878,89.355C496.77,89.313 496.704,89.247 496.644,89.199C486.285,83.733 473.442,83.175 461.355,87.738C457.302,89.289 453.537,91.329 450.123,93.807L441.759,41.001L404.88,41.001L403.866,47.073L365.052,47.073L360.618,74.22L357.399,70.242C347.994,58.689 334.359,52.323 319.254,52.008L352.209,34.293L329.229,0L287.709,47.841L294.876,56.58C288.384,59.232 282.714,62.889 278.016,67.308L242.415,35.724L229.968,59.58L230.448,36.654L174.789,54.435L176.217,84.336L185.685,81.879L187.086,97.035C176.265,92.175 163.26,92.295 151.2,97.392C147.624,98.949 144.294,100.863 141.222,103.089C143.307,93.858 142.815,84.756 139.296,76.638C135.141,67.047 127.83,59.121 118.869,54.12C112.584,49.935 105.096,47.325 97.257,46.44C78,43.071 54.873,46.53 32.112,56.226C23.742,59.796 15.939,63.846 8.898,68.331L0,73.974L5.373,83.046L22.05,111.231C22.05,111.231 27.153,119.868 27.186,119.862L36.204,115.431L37.461,114.852L78.9,207.336L82.896,216.225L92.148,213.243L114.57,206.061L124.395,202.941L121.803,192.939L109.896,147.228C113.319,144.693 116.517,142.002 119.469,139.188C118.803,144.651 119.151,150.18 120.657,155.472C123.768,166.554 131.025,175.305 141.096,180.156C151.971,185.382 165.24,185.397 177.516,180.189C183.675,177.579 189.15,173.766 193.788,169.23L195.48,187.434L234.744,181.653L234.681,146.448L316.725,186.996L316.725,147.735C320.016,147.459 323.376,146.94 326.754,146.109C335.79,143.928 343.524,140.934 350.394,136.818L346.947,157.902L391.182,164.865L393.609,148.947L405.165,170.289L412.227,156.681L414.807,179.025L464.961,187.866L462.3,170.994C469.167,171.771 476.403,170.85 483.393,168.213C485.049,167.601 486.681,166.854 488.247,166.056L486.249,184.008L519.627,188.718L519.876,202.407L554.682,213.333L600,76.746L552.813,65.277ZM356.85,85.575L359.148,83.127L356.37,100.35L349.119,93.819L356.85,85.575ZM327.456,15.228L339.609,31.737L304.866,48.96L302.466,45.312L327.456,15.228ZM97.41,142.518L111.27,195.702L88.836,202.866L42.801,100.059C40.299,101.376 35.673,103.584 31.428,105.666L14.757,77.505C21.387,73.272 28.656,69.522 36.39,66.252C58.092,57.024 78.798,54.27 95.358,57.195C101.217,57.855 107.421,59.583 112.854,63.186C120.306,67.386 126.006,73.359 129.294,80.967C137.313,99.495 123.918,126.159 97.41,142.518ZM200.55,133.053C200.292,140.973 197.382,148.905 192.516,155.619C187.884,162.108 181.416,167.466 173.805,170.742C154.341,178.989 134.88,170.742 129.681,152.265C124.644,134.4 136.362,113.13 155.22,105.006C167.265,99.921 179.349,101.127 188.004,107.01C193.35,110.634 197.427,116.088 199.332,122.919C199.572,123.645 199.728,124.407 199.89,125.151C200.433,127.755 200.652,130.422 200.55,133.053ZM306.444,170.652L225.036,129.939L225.183,172.596L204.123,175.47L202.656,157.884C209.157,146.736 211.536,133.596 208.143,121.551C206.28,114.927 202.839,109.179 198.162,104.574L195.141,68.721L185.685,71.172L185.268,62.109L219.084,52.038L221.157,86.916L246.072,51.915L270.426,75.108L236.367,110.991L268.365,123.648C271.938,130.422 277.392,136.176 284.232,140.415C290.847,144.498 298.422,146.913 306.438,147.705L306.444,170.652ZM264.174,111.666L252.852,107.295L263.406,97.038C262.956,101.745 263.187,106.671 264.174,111.666ZM352.764,122.331C344.952,128.793 336.048,133.005 324.282,135.849C321.711,136.437 319.191,136.866 316.725,137.085C298.05,138.918 282.384,130.344 276.438,116.436C275.697,114.75 275.127,113.046 274.695,111.228C271.944,99.513 274.293,89.043 280.08,80.841C281.748,78.447 283.725,76.266 285.945,74.304C291.396,69.438 298.356,65.904 306.267,64.002C324.057,59.712 339.723,65.142 349.329,76.929L315.429,113.01C317.727,113.445 321.384,112.842 324.081,112.197C332.154,110.226 336.672,105.942 340.653,101.271L354.201,113.46L358.305,117.168C356.526,119.007 354.657,120.744 352.764,122.331ZM424.683,170.484L417.309,121.635L406.881,148.584L391.266,114.903L391.089,114.903L384.918,153.906L358.893,149.376L362.553,127.611C363.534,126.69 364.5,125.763 365.451,124.785L373.887,116.1L365.688,108.756L374.4,56.925L400.656,56.925L407.229,92.805L414.594,51.222L433.377,51.222L441.171,101.883C431.253,113.181 426.435,128.37 429.75,142.266C432.312,153.036 438.933,161.712 448.422,166.779C449.376,167.259 450.366,167.736 451.386,168.147L452.379,174.714L424.683,170.484ZM489.537,154.569C486.669,156.612 483.51,158.349 480.114,159.6C473.412,162.153 466.743,162.684 460.803,161.505C456.663,160.686 452.886,159.072 449.601,156.735C444.378,152.955 440.529,147.375 438.834,140.367C436.857,131.946 438.678,122.955 443.208,115.08C445.467,111.231 448.362,107.613 451.791,104.496C455.613,101.07 460.044,98.262 464.976,96.366C476.451,92.085 487.77,93.561 495.738,99.291C498.669,101.367 501.102,104.01 503.019,107.085C504.471,109.512 505.602,112.188 506.286,115.107C508.725,125.22 505.821,136.047 499.44,144.771C496.71,148.491 493.38,151.833 489.537,154.569ZM548.139,200.61L528.894,194.877L527.217,123.924L517.539,178.659L496.542,175.308L498.045,159.549C511.755,147.963 519.024,129.69 515.04,113.127C513.291,105.795 509.52,99.411 504.204,94.554L505.977,75.969L498.039,73.857L498.57,63.933L534.741,71.202L546.906,128.88L559.38,77.169L586.899,83.25L548.139,200.61Z" style="fill:white;fill-rule:nonzero;"/>
                        <path id="path3500" d="M489.996,109.038C490.212,109.893 490.323,110.742 490.296,111.642C490.059,117.03 484.995,121.188 478.959,120.906C472.926,120.699 468.186,116.118 468.423,110.745C468.627,105.708 473.115,101.721 478.659,101.466C477.606,101.229 476.505,101.103 475.359,101.064C465.261,100.629 457.005,107.781 456.657,116.685C456.27,126.21 463.902,133.974 473.841,134.406C483.954,134.808 492.204,127.632 492.606,118.155C492.723,114.867 491.754,111.717 489.996,109.038" style="fill:white;fill-rule:nonzero;"/>
                        <path id="path3509" d="M183.621,119.916C183.621,125.325 178.701,129.66 172.677,129.66C166.635,129.66 161.733,125.322 161.733,119.916C161.733,114.873 166.044,110.715 171.573,110.235C170.514,110.04 169.41,109.929 168.273,109.929C158.178,109.929 150.21,117.42 150.21,126.336C150.21,135.855 158.178,143.319 168.111,143.319C178.218,143.319 186.174,135.849 186.174,126.336C186.174,123.045 185.088,119.94 183.216,117.384C183.468,118.155 183.621,119.007 183.621,119.916" style="fill:white;fill-rule:nonzero;"/>
                        <path id="path3414" d="M335.766,106.185C335.616,106.32 335.478,106.485 335.361,106.656C335.517,106.515 335.667,106.392 335.829,106.257L335.766,106.185Z" style="fill:rgb(125,127,104);fill-rule:nonzero;"/>
                        <path id="path3420" d="M252.852,107.295L252.969,107.343L252.852,107.295Z" style="fill:rgb(125,127,104);fill-rule:nonzero;"/>
                        <path id="path3509-8" d="M318.657,83.649C318.657,89.061 313.737,93.393 307.71,93.393C301.668,93.393 296.769,89.058 296.769,83.649C296.769,78.609 301.08,74.451 306.606,73.968C305.547,73.776 304.446,73.665 303.306,73.665C293.211,73.665 285.246,81.153 285.246,90.075C285.246,99.591 293.214,107.055 303.144,107.055C313.251,107.055 321.21,99.585 321.21,90.075C321.21,86.778 320.121,83.673 318.249,81.117C318.504,81.888 318.657,82.743 318.657,83.649" style="fill:white;fill-rule:nonzero;"/>
                        <path id="path3509-2" d="M107.247,92.526C107.247,97.935 102.327,102.27 96.3,102.27C90.258,102.27 85.356,97.932 85.356,92.526C85.356,87.483 89.67,83.328 95.196,82.845C94.137,82.653 93.036,82.542 91.896,82.542C81.801,82.542 73.836,90.03 73.836,98.949C73.836,108.465 81.804,115.932 91.734,115.932C101.841,115.932 109.8,108.462 109.8,98.949C109.8,95.655 108.711,92.55 106.839,89.994C107.091,90.765 107.247,91.617 107.247,92.526" style="fill:white;fill-rule:nonzero;"/>
                    </g>
                </g>
            </g>
        </g>
    </g>
</svg>
