<?xml version="1.0" encoding="UTF-8"?>
<svg width="634px" height="113px" viewBox="0 0 634 113" version="1.1" xmlns="http://www.w3.org/2000/svg" xmlns:xlink="http://www.w3.org/1999/xlink">
    <title>ports</title>
    <defs>
        <polygon id="path-1" points="0 0 632.489 0 632.489 112 0 112"></polygon>
    </defs>
    <g id="Page-1" stroke="none" stroke-width="1" fill="none" fill-rule="evenodd" opacity="0.78">
        <g id="Ports" transform="translate(-3.000000, 0.000000)">
            <g id="ports" transform="translate(3.969141, 0.009360)">
                <mask id="mask-2" fill="white">
                    <use xlink:href="#path-1"></use>
                </mask>
                <g id="Path"></g>
                <g id="Group" mask="url(#mask-2)" fill-rule="nonzero">
                    <g transform="translate(0.000000, -0.000500)">
                        <path d="M140.495,80.5765 L140.495,112.0005 L116,112.0005 L116,2.0955 L203.989,2.0955 C211.831,2.0955 218.385,2.7135 223.649,3.9485 C228.913,5.1845 233.157,7.2255 236.38,10.0725 C239.603,12.9195 241.886,16.5995 243.229,21.1115 C244.572,25.6235 245.243,31.1025 245.243,37.5485 L245.243,47.0565 C245.243,53.6105 244.599,59.0355 243.309,63.3335 C242.02,67.6305 239.791,71.0685 236.622,73.6465 C233.452,76.2255 229.236,78.0245 223.971,79.0455 C218.707,80.0655 212.046,80.5765 203.989,80.5765 L140.495,80.5765 Z M220.748,38.5155 C220.748,32.6065 219.486,28.5785 216.961,26.4295 C214.436,24.2805 209.897,23.2065 203.344,23.2065 L140.495,23.2065 L140.495,60.7545 L203.666,60.7545 C210.112,60.7545 214.571,59.7605 217.042,57.7735 C219.513,55.7855 220.748,51.8915 220.748,46.0895 L220.748,38.5155 L220.748,38.5155 Z M301.646,112.0005 C293.589,112.0005 286.874,111.3295 281.502,109.9865 C276.13,108.6435 271.833,106.4945 268.61,103.5405 C265.387,100.5855 263.104,96.7185 261.761,91.9375 C260.418,87.1565 259.747,81.2745 259.747,74.2915 L259.747,62.5275 C259.747,55.5445 260.418,49.6355 261.761,44.8005 C263.104,39.9665 265.387,36.0715 268.61,33.1175 C271.833,30.1625 276.13,28.0145 281.502,26.6715 C286.874,25.3285 293.589,24.6565 301.646,24.6565 L330.814,24.6565 C338.979,24.6565 345.748,25.3285 351.119,26.6715 C356.491,28.0145 360.789,30.1895 364.012,33.1975 C367.235,36.2055 369.518,40.1275 370.86,44.9615 C372.203,49.7965 372.875,55.7055 372.875,62.6885 L372.875,74.2915 C372.875,81.2745 372.203,87.1565 370.86,91.9375 C369.518,96.7185 367.235,100.5855 364.012,103.5405 C360.789,106.4945 356.491,108.6435 351.119,109.9865 C345.748,111.3295 338.979,112.0005 330.814,112.0005 L301.646,112.0005 L301.646,112.0005 Z M348.863,63.3335 C348.863,59.6805 348.568,56.6725 347.977,54.3085 C347.386,51.9455 346.312,50.0915 344.754,48.7485 C343.196,47.4055 341.021,46.4925 338.227,46.0095 C335.434,45.5255 331.889,45.2845 327.591,45.2845 L304.869,45.2845 C300.572,45.2845 297.053,45.5255 294.314,46.0095 C291.574,46.4925 289.425,47.4055 287.868,48.7485 C286.31,50.0915 285.236,51.9455 284.645,54.3085 C284.054,56.6725 283.758,59.6805 283.758,63.3335 L283.758,73.6465 C283.758,77.2995 284.054,80.2805 284.645,82.5905 C285.236,84.9005 286.31,86.7265 287.868,88.0695 C289.425,89.4125 291.574,90.3525 294.314,90.8895 C297.053,91.4275 300.572,91.6955 304.869,91.6955 L327.591,91.6955 C331.889,91.6955 335.434,91.4275 338.227,90.8895 C341.021,90.3525 343.196,89.4125 344.754,88.0695 C346.312,86.7265 347.386,84.9005 347.977,82.5905 C348.568,80.2805 348.863,77.2995 348.863,73.6465 L348.863,63.3335 Z M390.279,112.0005 L390.279,61.3995 C390.279,54.8455 391.031,49.2595 392.535,44.6395 C394.039,40.0195 396.43,36.2325 399.707,33.2785 C402.983,30.3235 407.2,28.1485 412.357,26.7515 C417.514,25.3555 423.799,24.6565 431.212,24.6565 L446.843,24.6565 L446.843,44.1565 L431.856,44.1565 C428.526,44.1565 425.732,44.4245 423.476,44.9615 C421.22,45.4985 419.421,46.4125 418.078,47.7015 C416.735,48.9905 415.768,50.7635 415.177,53.0195 C414.586,55.2755 414.291,58.1225 414.291,61.5605 L414.291,112.0005 L390.279,112.0005 Z M466.181,112.0005 L466.181,44.1565 L453.934,44.1565 L453.934,24.6565 L466.181,24.6565 L466.181,0.0005 L490.676,0.0005 L490.676,24.6565 L518.233,24.6565 L518.233,44.1565 L490.676,44.1565 L490.676,112.0005 L466.181,112.0005 Z M632.489,88.7945 C632.489,93.0925 632.113,96.7185 631.361,99.6725 C630.609,102.6275 629.132,105.0175 626.93,106.8435 C624.727,108.6705 621.719,109.9865 617.905,110.7925 C614.091,111.5975 609.122,112.0005 602.999,112.0005 L527.902,112.0005 L527.902,93.1455 L599.937,93.1455 C603.16,93.1455 605.416,92.6085 606.705,91.5345 C607.994,90.4605 608.639,88.4185 608.639,85.4105 L608.639,82.5105 C608.639,79.2865 608.021,77.2725 606.786,76.4665 C605.55,75.6615 603.482,75.2585 600.581,75.2585 L551.591,75.2585 C546.649,75.2585 542.648,74.7745 539.586,73.8075 C536.524,72.8405 534.133,71.3905 532.414,69.4565 C530.695,67.5225 529.541,65.1325 528.95,62.2855 C528.359,59.4385 528.063,56.0815 528.063,52.2135 L528.063,45.6065 C528.063,41.8465 528.466,38.6235 529.272,35.9375 C530.078,33.2515 531.394,31.0755 533.22,29.4105 C535.047,27.7455 537.518,26.5365 540.633,25.7845 C543.749,25.0325 547.67,24.6565 552.397,24.6565 L585.594,24.6565 L585.594,42.8665 L558.199,42.8665 C555.835,42.8665 554.143,43.2965 553.122,44.1565 C552.102,45.0155 551.591,46.5735 551.591,48.8295 L551.591,52.8585 C551.591,55.3295 552.075,56.9945 553.042,57.8535 C554.009,58.7135 555.566,59.1435 557.715,59.1435 L605.094,59.1435 C610.68,59.1435 615.246,59.5995 618.791,60.5125 C622.337,61.4265 625.13,62.8765 627.171,64.8635 C629.213,66.8515 630.609,69.4295 631.361,72.5995 C632.113,75.7685 632.489,79.6635 632.489,84.2825 L632.489,88.7945 L632.489,88.7945 Z" id="Shape" fill="#FFFFFF"></path>
                        <path d="M81.103,27.0355 C80.0367668,27.0349483 79.1725517,26.1707332 79.172,25.1045 L79.172,15.4485 C79.2055478,14.406222 80.0601822,13.578653 81.103,13.578653 C82.1458178,13.578653 83.0004522,14.406222 83.034,15.4485 L83.034,25.1045 C83.0334483,26.1707332 82.1692332,27.0349483 81.103,27.0355" id="Path" fill="#E6E7E8"></path>
                        <path d="M71.449,34.7595012 C70.6281973,34.7604116 69.8965152,34.2423345 69.6247609,33.4678233 C69.3530065,32.6933121 69.6005743,31.8316435 70.242,31.3195 L79.897,23.5955 C80.4359351,23.1646377 81.1637941,23.054023 81.8063993,23.3053233 C82.4490046,23.5566237 82.9087292,24.1316607 83.0123994,24.8138233 C83.1160695,25.495986 82.8479352,26.1816377 82.309,26.6125 L72.654,34.3365 C72.3121695,34.6105112 71.8870983,34.759727 71.449,34.7595012" id="Path" fill="#E6E7E8"></path>
                        <path d="M90.757,34.7595012 C90.335,34.7595012 89.908,34.6195 89.552,34.3365 L79.897,26.6125 C79.0638785,25.9464446 78.9284447,24.7311216 79.5945001,23.8980001 C80.2605555,23.0648785 81.4758785,22.9294447 82.309,23.5955 L91.964,31.3195 C92.6054257,31.8316435 92.8529935,32.6933121 92.5812391,33.4678233 C92.3094848,34.2423345 91.5778027,34.7604116 90.757,34.7595012 M65.655,112.0005 L98.482,112.0005 L110.739,92.1375 C113.193,88.5925 111.938,83.6955 108.081,81.7665 L86.581,70.4425 C84.355,69.3745 80.35,69.0445 77.251,70.4425 L56.166,81.8705 C52.188,83.7265 50.838,88.7155 53.337,92.3245 L65.655,112.0005 L65.655,112.0005 Z" id="Shape" fill="#E6E7E8"></path>
                        <path d="M60.096,79.7405 L77.252,70.4425 C80.349,69.0445 84.356,69.3745 86.582,70.4425 L103.894,79.5625 L106.206,59.8625 L57.93,59.8625 L60.079,79.7405 L60.096,79.7405 Z" id="Path" fill="#B0B6BB"></path>
                        <polygon id="Path" fill="#6D7CA0" points="9.656 81.1035 40.553 81.1035 40.553 111.9995 9.656 111.9995"></polygon>
                        <polygon id="Path" fill="#434C6D" points="40.552 81.1035 9.655 81.1035 15.448 65.6555 34.758 65.6555 40.552 81.1035"></polygon>
                        <polygon id="Path" fill="#8697CB" points="23.172 56.0005 3.862 56.0005 2.27387553e-14 50.2075 2.27387553e-14 38.6215 23.172 38.6215"></polygon>
                        <path d="M88.827,7.7245 C88.827,3.45837645 85.3686236,3.33066907e-16 81.1025,3.33066907e-16 C76.8363764,3.33066907e-16 73.378,3.45837645 73.378,7.7245 C73.378,11.9906236 76.8363764,15.449 81.1025,15.449 C85.3686236,15.449 88.827,11.9906236 88.827,7.7245" id="Path" fill="#6D7CA0"></path>
                        <path d="M86.896,91.8095 C83.903,90.3735 80.591,90.4445 77.565,91.8095 L58.858,101.1445 L65.655,112.0005 L98.482,112.0005 L105.264,101.0095 L86.896,91.8095 Z" id="Path" fill="#B0B6BB"></path>
                        <polygon id="Path" fill="#E6E7E8" points="54.07 48.2765 108.139 48.2765 108.139 59.8625 54.07 59.8625"></polygon>
                        <polygon id="Path" fill="#6D7CA0" points="23.172 50.2075 23.172 56.0005 15.448 56.0005 15.448 65.6555 34.758 65.6555 34.758 50.2075"></polygon>
                        <path d="M73.379,7.7245 L23.172,38.6215 L23.172,50.2075 L34.759,50.2075 L81.103,15.4485 C76.8371526,15.4485 73.379,11.9903474 73.379,7.7245 M83.034,7.7245 C83.0497584,7.0239609 82.6849732,6.36980373 82.0807175,6.01501028 C81.4764618,5.66021683 80.7274693,5.66041071 80.1233973,6.01551696 C79.5193254,6.37062321 79.1548789,7.02496915 79.171,7.7255 C79.1951544,8.77511183 80.0530991,9.61332288 81.1029888,9.61305117 C82.1528784,9.61277932 83.010389,8.7741242 83.034,7.7245" id="Shape" fill="#434C6D"></path>
                        <polygon id="Path" fill="#EE8472" points="69.518 32.8285 92.69 32.8285 92.69 48.2765 69.518 48.2765"></polygon>
                        <path d="M75.31,44.4145 C74.2437668,44.4139483 73.3795517,43.5497332 73.379,42.4835 L73.379,38.6215 C73.4125478,37.579222 74.2671822,36.751653 75.31,36.751653 C76.3528178,36.751653 77.2074522,37.579222 77.241,38.6215 L77.241,42.4835 C77.2404483,43.5497332 76.3762332,44.4139483 75.31,44.4145 M81.103,44.4145 C80.0367668,44.4139483 79.1725517,43.5497332 79.172,42.4835 L79.172,38.6215 C79.2055478,37.579222 80.0601822,36.751653 81.103,36.751653 C82.1458178,36.751653 83.0004522,37.579222 83.034,38.6215 L83.034,42.4835 C83.0334483,43.5497332 82.1692332,44.4139483 81.103,44.4145 M86.896,44.4145 C85.8297668,44.4139483 84.9655517,43.5497332 84.965,42.4835 L84.965,38.6215 C84.9985478,37.579222 85.8531822,36.751653 86.896,36.751653 C87.9388178,36.751653 88.7934522,37.579222 88.827,38.6215 L88.827,42.4835 C88.8264483,43.5497332 87.9622332,44.4139483 86.896,44.4145" id="Shape" fill="#DB776A"></path>
                        <path d="M21.241,106.2075 C22.283278,106.173952 23.110847,105.319318 23.110847,104.2765 C23.110847,103.233682 22.283278,102.379048 21.241,102.3455 L9.655,102.3455 L9.655,106.2075 L21.241,106.2075 Z M17.379,98.4825 C18.421278,98.4489522 19.248847,97.5943178 19.248847,96.5515 C19.248847,95.5086822 18.421278,94.6540478 17.379,94.6205 L9.655,94.6205 L9.655,98.4825 L17.379,98.4825 L17.379,98.4825 Z" id="Shape" fill="#434C6D"></path>
                    </g>
                </g>
            </g>
        </g>
    </g>
</svg>