<?xml version="1.0" encoding="UTF-8" standalone="no"?>
<!DOCTYPE svg PUBLIC "-//W3C//DTD SVG 1.1//EN" "http://www.w3.org/Graphics/SVG/1.1/DTD/svg11.dtd">
<svg width="100%" height="100%" viewBox="0 0 640 120" version="1.1" xmlns="http://www.w3.org/2000/svg" xmlns:xlink="http://www.w3.org/1999/xlink" xml:space="preserve" xmlns:serif="http://www.serif.com/" style="fill-rule:evenodd;clip-rule:evenodd;stroke-linejoin:round;stroke-miterlimit:2;">
    <rect id="Temp-Background" serif:id="Temp Background" x="0" y="-0" width="640" height="120" style="fill:#7f7f7f;"/>
    <g>
        <g>
            <g>
                <path id="path9" d="M169.855,60.461c6.195,-7.217 15.394,-11.794 25.671,-11.794c2.062,-0 4.079,0.195 6.039,0.545c1.322,-3.601 2.042,-7.491 2.042,-11.551c-0,-18.59 -15.128,-33.661 -33.784,-33.661c-18.659,0 -33.783,15.071 -33.783,33.664c-0,4.064 0.726,7.957 2.051,11.56c1.976,-0.357 4.01,-0.557 6.093,-0.557c10.277,0.002 19.474,4.579 25.671,11.794Zm31.71,-11.247c-4.055,11.062 -13.766,19.402 -25.642,21.564c1.32,3.603 2.044,7.499 2.044,11.554c0,8.354 -3.058,15.989 -8.112,21.872c6.197,7.216 15.394,11.796 25.671,11.796c18.66,0 33.784,-15.073 33.784,-33.668c-0,-16.538 -11.969,-30.279 -27.745,-33.118Zm-37.778,21.57c-11.901,-2.14 -21.633,-10.489 -25.696,-21.558c-15.747,2.858 -27.691,16.589 -27.691,33.106c0,18.595 15.126,33.668 33.784,33.668c10.277,0 19.474,-4.58 25.671,-11.794c-5.052,-5.885 -8.11,-13.52 -8.11,-21.872c-0,-4.057 0.722,-7.949 2.042,-11.55Zm0,0c1.96,0.354 3.975,0.543 6.036,0.543c2.085,0 4.121,-0.191 6.1,-0.551c-1.396,-3.812 -3.472,-7.291 -6.068,-10.317c-2.598,3.026 -4.672,6.516 -6.068,10.325Z" style="fill:#fff;fill-rule:nonzero;"/>
            </g>
        </g>
        <path d="M271.386,72.943l-0,16.492l-12.856,0l-0,-57.681l46.179,-0c4.116,-0 7.556,0.324 10.318,0.972c2.763,0.649 4.991,1.72 6.682,3.214c1.692,1.494 2.89,3.426 3.595,5.794c0.704,2.368 1.057,5.244 1.057,8.627l-0,4.99c-0,3.439 -0.338,6.287 -1.015,8.542c-0.677,2.255 -1.847,4.06 -3.51,5.413c-1.663,1.353 -3.876,2.298 -6.639,2.833c-2.763,0.536 -6.259,0.804 -10.488,0.804l-33.323,-0Zm42.119,-22.075c0,-3.101 -0.662,-5.216 -1.987,-6.343c-1.326,-1.128 -3.708,-1.692 -7.147,-1.692l-32.985,0l-0,19.707l33.154,-0c3.383,-0 5.723,-0.522 7.02,-1.565c1.297,-1.043 1.945,-3.087 1.945,-6.132l0,-3.975Z" style="fill:#fff;fill-rule:nonzero;"/>
        <path d="M355.963,89.435c-4.229,0 -7.753,-0.352 -10.572,-1.057c-2.82,-0.705 -5.075,-1.832 -6.766,-3.383c-1.692,-1.551 -2.89,-3.58 -3.595,-6.09c-0.705,-2.509 -1.057,-5.596 -1.057,-9.261l-0,-6.174c-0,-3.665 0.352,-6.766 1.057,-9.303c0.705,-2.538 1.903,-4.582 3.595,-6.132c1.691,-1.551 3.946,-2.679 6.766,-3.383c2.819,-0.705 6.343,-1.058 10.572,-1.058l15.308,0c4.286,0 7.838,0.353 10.657,1.058c2.819,0.704 5.075,1.846 6.766,3.425c1.692,1.579 2.89,3.637 3.595,6.174c0.705,2.537 1.057,5.639 1.057,9.304l-0,6.089c-0,3.665 -0.352,6.752 -1.057,9.261c-0.705,2.51 -1.903,4.539 -3.595,6.09c-1.691,1.551 -3.947,2.678 -6.766,3.383c-2.819,0.705 -6.371,1.057 -10.657,1.057l-15.308,0Zm24.781,-25.542c-0,-1.917 -0.155,-3.496 -0.465,-4.736c-0.31,-1.241 -0.874,-2.213 -1.692,-2.918c-0.817,-0.705 -1.959,-1.184 -3.425,-1.438c-1.466,-0.254 -3.327,-0.381 -5.582,-0.381l-11.926,0c-2.255,0 -4.102,0.127 -5.539,0.381c-1.438,0.254 -2.566,0.733 -3.383,1.438c-0.818,0.705 -1.382,1.677 -1.692,2.918c-0.31,1.24 -0.465,2.819 -0.465,4.736l-0,5.413c-0,1.917 0.155,3.482 0.465,4.694c0.31,1.212 0.874,2.171 1.692,2.876c0.817,0.704 1.945,1.198 3.383,1.48c1.437,0.282 3.284,0.423 5.539,0.423l11.926,-0c2.255,-0 4.116,-0.141 5.582,-0.423c1.466,-0.282 2.608,-0.776 3.425,-1.48c0.818,-0.705 1.382,-1.664 1.692,-2.876c0.31,-1.212 0.465,-2.777 0.465,-4.694l-0,-5.413Z" style="fill:#fff;fill-rule:nonzero;"/>
        <path d="M402.48,89.435l0,-26.557c0,-3.439 0.395,-6.371 1.184,-8.796c0.79,-2.425 2.044,-4.412 3.764,-5.963c1.72,-1.55 3.933,-2.692 6.639,-3.425c2.707,-0.733 6.005,-1.1 9.896,-1.1l8.204,0l-0,10.234l-7.866,0c-1.748,0 -3.214,0.141 -4.398,0.423c-1.184,0.282 -2.128,0.761 -2.833,1.438c-0.705,0.677 -1.212,1.607 -1.523,2.791c-0.31,1.184 -0.465,2.678 -0.465,4.483l0,26.472l-12.602,0Z" style="fill:#fff;fill-rule:nonzero;"/>
        <path d="M442.316,89.435l0,-35.607l-6.428,0l0,-10.234l6.428,0l0,-12.94l12.856,0l-0,12.94l14.463,0l-0,10.234l-14.463,0l-0,35.607l-12.856,0Z" style="fill:#fff;fill-rule:nonzero;"/>
        <path d="M529.6,77.256c-0,2.256 -0.198,4.159 -0.592,5.709c-0.395,1.551 -1.17,2.805 -2.326,3.764c-1.156,0.958 -2.735,1.649 -4.736,2.072c-2.002,0.423 -4.61,0.634 -7.824,0.634l-39.413,0l0,-9.895l37.806,-0c1.692,-0 2.876,-0.282 3.552,-0.846c0.677,-0.564 1.015,-1.635 1.015,-3.214l0,-1.522c0,-1.692 -0.324,-2.749 -0.972,-3.172c-0.649,-0.423 -1.734,-0.634 -3.256,-0.634l-25.712,-0c-2.594,-0 -4.694,-0.254 -6.301,-0.762c-1.607,-0.507 -2.861,-1.268 -3.764,-2.283c-0.902,-1.015 -1.508,-2.27 -1.818,-3.764c-0.31,-1.494 -0.465,-3.256 -0.465,-5.286l-0,-3.468c-0,-1.973 0.211,-3.665 0.634,-5.074c0.423,-1.41 1.114,-2.552 2.072,-3.426c0.959,-0.874 2.256,-1.508 3.891,-1.903c1.635,-0.394 3.693,-0.592 6.174,-0.592l17.423,0l-0,9.558l-14.378,-0c-1.241,-0 -2.129,0.225 -2.664,0.676c-0.536,0.451 -0.804,1.269 -0.804,2.453l0,2.114c0,1.297 0.254,2.171 0.761,2.622c0.508,0.451 1.325,0.677 2.453,0.677l24.866,-0c2.932,-0 5.328,0.24 7.189,0.719c1.86,0.479 3.326,1.24 4.398,2.283c1.071,1.044 1.804,2.397 2.199,4.06c0.394,1.663 0.592,3.707 0.592,6.132l-0,2.368Z" style="fill:#fff;fill-rule:nonzero;"/>
    </g>
</svg>
