<svg viewBox="0 0 633 113" xmlns="http://www.w3.org/2000/svg" xml:space="preserve" style="fill-rule:evenodd;clip-rule:evenodd;stroke-linejoin:round;stroke-miterlimit:2">
    <clipPath id="a">
        <path d="M.025.834h632.489v112H.025z"/>
    </clipPath>
    <g clip-path="url(#a)">
        <path d="M140.52 81.41v31.424h-24.495V2.929h87.989c7.842 0 14.396.618 19.66 1.853 5.264 1.236 9.508 3.277 12.731 6.124 3.223 2.847 5.506 6.527 6.849 11.039s2.014 9.991 2.014 16.437v9.508c0 6.554-.644 11.979-1.934 16.277-1.289 4.297-3.518 7.735-6.687 10.313-3.17 2.579-7.386 4.378-12.651 5.399-5.264 1.02-11.925 1.531-19.982 1.531H140.52Zm80.253-42.061c0-5.909-1.262-9.937-3.787-12.086-2.525-2.149-7.064-3.223-13.617-3.223H140.52v37.548h63.171c6.446 0 10.905-.994 13.376-2.981 2.471-1.988 3.706-5.882 3.706-11.684v-7.574Zm80.898 73.485c-8.057 0-14.772-.671-20.144-2.014-5.372-1.343-9.669-3.492-12.892-6.446-3.223-2.955-5.506-6.822-6.849-11.603s-2.014-10.663-2.014-17.646V63.361c0-6.983.671-12.892 2.014-17.727 1.343-4.834 3.626-8.729 6.849-11.683 3.223-2.955 7.52-5.103 12.892-6.446s12.087-2.015 20.144-2.015h29.168c8.165 0 14.934.672 20.305 2.015 5.372 1.343 9.67 3.518 12.893 6.526 3.223 3.008 5.506 6.93 6.848 11.764 1.343 4.835 2.015 10.744 2.015 17.727v11.603c0 6.983-.672 12.865-2.015 17.646-1.342 4.781-3.625 8.648-6.848 11.603-3.223 2.954-7.521 5.103-12.893 6.446-5.371 1.343-12.14 2.014-20.305 2.014h-29.168Zm47.217-48.667c0-3.653-.295-6.661-.886-9.025-.591-2.363-1.665-4.217-3.223-5.56-1.558-1.343-3.733-2.256-6.527-2.739-2.793-.484-6.338-.725-10.636-.725h-22.722c-4.297 0-7.816.241-10.555.725-2.74.483-4.889 1.396-6.446 2.739-1.558 1.343-2.632 3.197-3.223 5.56-.591 2.364-.887 5.372-.887 9.025V74.48c0 3.653.296 6.634.887 8.944.591 2.31 1.665 4.136 3.223 5.479 1.557 1.343 3.706 2.283 6.446 2.82 2.739.538 6.258.806 10.555.806h22.722c4.298 0 7.843-.268 10.636-.806 2.794-.537 4.969-1.477 6.527-2.82 1.558-1.343 2.632-3.169 3.223-5.479.591-2.31.886-5.291.886-8.944V64.167Zm41.416 48.667V62.233c0-6.554.752-12.14 2.256-16.76 1.504-4.62 3.895-8.407 7.172-11.361 3.276-2.955 7.493-5.13 12.65-6.527 5.157-1.396 11.442-2.095 18.855-2.095h15.631v19.5h-14.987c-3.33 0-6.124.268-8.38.805-2.256.537-4.055 1.451-5.398 2.74-1.343 1.289-2.31 3.062-2.901 5.318-.591 2.256-.886 5.103-.886 8.541v50.44h-24.012Zm75.902 0V44.99h-12.247v-19.5h12.247V.834h24.495V25.49h27.557v19.5h-27.557v67.844h-24.495Zm166.308-23.206c0 4.298-.376 7.924-1.128 10.878-.752 2.955-2.229 5.345-4.431 7.171-2.203 1.827-5.211 3.143-9.025 3.949-3.814.805-8.783 1.208-14.906 1.208h-75.097V93.979h72.035c3.223 0 5.479-.537 6.768-1.611 1.289-1.074 1.934-3.116 1.934-6.124v-2.9c0-3.224-.618-5.238-1.853-6.044-1.236-.805-3.304-1.208-6.205-1.208h-48.99c-4.942 0-8.943-.484-12.005-1.451-3.062-.967-5.453-2.417-7.172-4.351-1.719-1.934-2.873-4.324-3.464-7.171-.591-2.847-.887-6.204-.887-10.072V46.44c0-3.76.403-6.983 1.209-9.669.806-2.686 2.122-4.862 3.948-6.527 1.827-1.665 4.298-2.874 7.413-3.626 3.116-.752 7.037-1.128 11.764-1.128h33.197V43.7h-27.395c-2.364 0-4.056.43-5.077 1.29-1.02.859-1.531 2.417-1.531 4.673v4.029c0 2.471.484 4.136 1.451 4.995.967.86 2.524 1.29 4.673 1.29h47.379c5.586 0 10.152.456 13.697 1.369 3.546.914 6.339 2.364 8.38 4.351 2.042 1.988 3.438 4.566 4.19 7.736.752 3.169 1.128 7.064 1.128 11.683v4.512Z" style="fill:#fff;fill-rule:nonzero"/>
        <path d="M81.128 27.869a1.932 1.932 0 0 1-1.931-1.931v-9.656a1.932 1.932 0 0 1 3.862 0v9.656a1.932 1.932 0 0 1-1.931 1.931" style="fill:#e6e7e8;fill-rule:nonzero"/>
        <path d="M71.474 35.593a1.931 1.931 0 0 1-1.207-3.44l9.655-7.724a1.93 1.93 0 1 1 2.412 3.017l-9.655 7.724a1.925 1.925 0 0 1-1.205.423" style="fill:#e6e7e8;fill-rule:nonzero"/>
        <path d="M90.782 35.593c-.422 0-.849-.14-1.205-.423l-9.655-7.724a1.931 1.931 0 0 1 2.412-3.017l9.655 7.724a1.931 1.931 0 0 1-1.207 3.44M65.68 112.834h32.827l12.257-19.863c2.454-3.545 1.199-8.442-2.658-10.371l-21.5-11.324c-2.226-1.068-6.231-1.398-9.33 0L56.191 82.704c-3.978 1.856-5.328 6.845-2.829 10.454l12.318 19.676Z" style="fill:#e6e7e8;fill-rule:nonzero"/>
        <path d="m60.121 80.574 17.156-9.298c3.097-1.398 7.104-1.068 9.33 0l17.312 9.12 2.312-19.7H57.955l2.149 19.878h.017Z" style="fill:#b0b6bb;fill-rule:nonzero"/>
        <path style="fill:#6d7ca0;fill-rule:nonzero" d="M9.681 81.937h30.897v30.896H9.681z"/>
        <path d="M40.577 81.937H9.68l5.793-15.448h19.31l5.794 15.448Z" style="fill:#434c6d;fill-rule:nonzero"/>
        <path d="M23.197 56.834H3.887L.025 51.041V39.455h23.172v17.379Z" style="fill:#8697cb;fill-rule:nonzero"/>
        <path d="M88.852 8.558a7.724 7.724 0 1 0-15.449 0 7.724 7.724 0 0 0 15.449 0" style="fill:#6d7ca0;fill-rule:nonzero"/>
        <path d="M86.921 92.643c-2.993-1.436-6.305-1.365-9.331 0l-18.707 9.335 6.797 10.856h32.827l6.782-10.991-18.368-9.2Z" style="fill:#b0b6bb;fill-rule:nonzero"/>
        <path style="fill:#e6e7e8;fill-rule:nonzero" d="M54.095 49.11h54.069v11.586H54.095z"/>
        <path d="M23.197 51.041v5.793h-7.724v9.655h19.31V51.041H23.197Z" style="fill:#6d7ca0;fill-rule:nonzero"/>
        <path d="M73.404 8.558 23.197 39.455v11.586h11.587l46.344-34.759a7.724 7.724 0 0 1-7.724-7.724m9.655 0a1.932 1.932 0 1 0-3.863.001 1.932 1.932 0 0 0 3.863-.001" style="fill:#434c6d;fill-rule:nonzero"/>
        <path style="fill:#ee8472;fill-rule:nonzero" d="M69.543 33.662h23.172V49.11H69.543z"/>
        <path d="M75.335 45.248a1.932 1.932 0 0 1-1.931-1.931v-3.862a1.932 1.932 0 0 1 3.862 0v3.862a1.932 1.932 0 0 1-1.931 1.931m5.793 0a1.932 1.932 0 0 1-1.931-1.931v-3.862a1.932 1.932 0 0 1 3.862 0v3.862a1.932 1.932 0 0 1-1.931 1.931m5.793 0a1.932 1.932 0 0 1-1.931-1.931v-3.862a1.932 1.932 0 0 1 3.862 0v3.862a1.932 1.932 0 0 1-1.931 1.931" style="fill:#db776a;fill-rule:nonzero"/>
        <path d="M21.266 107.041a1.932 1.932 0 0 0 0-3.862H9.68v3.862h11.586Zm-3.862-7.725a1.932 1.932 0 0 0 0-3.862H9.68v3.862h7.724Z" style="fill:#434c6d;fill-rule:nonzero"/>
    </g>
</svg>
