<?xml version="1.0" encoding="UTF-8" standalone="no"?>
<!DOCTYPE svg PUBLIC "-//W3C//DTD SVG 1.1//EN" "http://www.w3.org/Graphics/SVG/1.1/DTD/svg11.dtd">
<svg width="100%" height="100%" viewBox="0 0 420 113" version="1.1" xmlns="http://www.w3.org/2000/svg" xmlns:xlink="http://www.w3.org/1999/xlink" xml:space="preserve" xmlns:serif="http://www.serif.com/" style="fill-rule:evenodd;clip-rule:evenodd;stroke-linejoin:round;stroke-miterlimit:2;">
    <g transform="matrix(1,0,0,1,-3270,-1568)">
        <g id="ports.afdesign" transform="matrix(1,0,0,1,3480,1624.44)">
            <g transform="matrix(1,0,0,1,-320,-60)">
                <clipPath id="_clip1">
                    <rect x="110.4" y="4" width="419.2" height="112"/>
                </clipPath>
                <g clip-path="url(#_clip1)">
                    <g transform="matrix(0.703999,0,0,0.701543,110.4,4)">
                        <g>
                            <g>
                                <path id="path9" d="M84.453,80.481C93.252,70.194 106.32,63.669 120.918,63.669C123.846,63.669 126.711,63.948 129.495,64.446C131.373,59.313 132.396,53.769 132.396,47.982C132.396,21.483 110.907,0 84.408,0C57.903,0 36.42,21.483 36.42,47.985C36.42,53.778 37.452,59.328 39.333,64.464C42.141,63.954 45.03,63.669 47.988,63.669C62.586,63.672 75.651,70.197 84.453,80.481ZM129.495,64.449C123.735,80.217 109.941,92.106 93.072,95.187C94.947,100.323 95.976,105.876 95.976,111.657C95.976,123.564 91.632,134.448 84.453,142.833C93.255,153.12 106.32,159.648 120.918,159.648C147.423,159.648 168.906,138.162 168.906,111.657C168.906,88.083 151.905,68.496 129.495,64.449ZM75.834,95.196C58.929,92.145 45.105,80.244 39.333,64.467C16.965,68.541 0,88.113 0,111.657C0,138.162 21.486,159.648 47.988,159.648C62.586,159.648 75.651,153.12 84.453,142.836C77.277,134.448 72.933,123.564 72.933,111.66C72.933,105.876 73.959,100.329 75.834,95.196ZM75.834,95.196C78.618,95.7 81.48,95.97 84.408,95.97C87.369,95.97 90.261,95.697 93.072,95.184C91.089,89.751 88.14,84.792 84.453,80.478C80.763,84.792 77.817,89.766 75.834,95.196Z" style="fill:white;fill-rule:nonzero;"/>
                            </g>
                        </g>
                        <g transform="matrix(10.0115,0,0,10.0466,-736.489,-454.862)">
                            <g transform="matrix(12,0,0,12,93.8732,57.3971)">
                                <path d="M0.211,-0.195L0.211,-0L0.059,-0L0.059,-0.682L0.605,-0.682C0.654,-0.682 0.694,-0.678 0.727,-0.671C0.76,-0.663 0.786,-0.65 0.806,-0.633C0.826,-0.615 0.84,-0.592 0.849,-0.564C0.857,-0.536 0.861,-0.502 0.861,-0.462L0.861,-0.403C0.861,-0.362 0.857,-0.329 0.849,-0.302C0.841,-0.275 0.827,-0.254 0.808,-0.238C0.788,-0.222 0.762,-0.211 0.729,-0.205C0.696,-0.198 0.655,-0.195 0.605,-0.195L0.211,-0.195ZM0.709,-0.456C0.709,-0.493 0.701,-0.518 0.686,-0.531C0.67,-0.544 0.642,-0.551 0.601,-0.551L0.211,-0.551L0.211,-0.318L0.603,-0.318C0.643,-0.318 0.671,-0.324 0.686,-0.337C0.701,-0.349 0.709,-0.373 0.709,-0.409L0.709,-0.456Z" style="fill:white;fill-rule:nonzero;"/>
                            </g>
                            <g transform="matrix(12,0,0,12,104.637,57.3971)">
                                <path d="M0.314,-0C0.264,-0 0.222,-0.004 0.189,-0.013C0.156,-0.021 0.129,-0.034 0.109,-0.053C0.089,-0.071 0.075,-0.095 0.067,-0.125C0.058,-0.154 0.054,-0.191 0.054,-0.234L0.054,-0.307C0.054,-0.35 0.058,-0.387 0.067,-0.417C0.075,-0.447 0.089,-0.471 0.109,-0.49C0.129,-0.508 0.156,-0.521 0.189,-0.53C0.222,-0.538 0.264,-0.542 0.314,-0.542L0.495,-0.542C0.546,-0.542 0.588,-0.538 0.621,-0.53C0.654,-0.521 0.681,-0.508 0.701,-0.489C0.721,-0.47 0.735,-0.446 0.744,-0.416C0.752,-0.386 0.756,-0.349 0.756,-0.306L0.756,-0.234C0.756,-0.191 0.752,-0.154 0.744,-0.125C0.735,-0.095 0.721,-0.071 0.701,-0.053C0.681,-0.034 0.654,-0.021 0.621,-0.013C0.588,-0.004 0.546,-0 0.495,-0L0.314,-0ZM0.607,-0.302C0.607,-0.325 0.605,-0.343 0.602,-0.358C0.598,-0.373 0.591,-0.384 0.582,-0.393C0.572,-0.401 0.558,-0.407 0.541,-0.41C0.524,-0.413 0.502,-0.414 0.475,-0.414L0.334,-0.414C0.307,-0.414 0.286,-0.413 0.269,-0.41C0.252,-0.407 0.238,-0.401 0.229,-0.393C0.219,-0.384 0.212,-0.373 0.209,-0.358C0.205,-0.343 0.203,-0.325 0.203,-0.302L0.203,-0.238C0.203,-0.215 0.205,-0.197 0.209,-0.183C0.212,-0.168 0.219,-0.157 0.229,-0.149C0.238,-0.14 0.252,-0.134 0.269,-0.131C0.286,-0.128 0.307,-0.126 0.334,-0.126L0.475,-0.126C0.502,-0.126 0.524,-0.128 0.541,-0.131C0.558,-0.134 0.572,-0.14 0.582,-0.149C0.591,-0.157 0.598,-0.168 0.602,-0.183C0.605,-0.197 0.607,-0.215 0.607,-0.238L0.607,-0.302Z" style="fill:white;fill-rule:nonzero;"/>
                            </g>
                            <g transform="matrix(12,0,0,12,114.297,57.3971)">
                                <path d="M0.059,-0L0.059,-0.314C0.059,-0.355 0.064,-0.389 0.073,-0.418C0.082,-0.447 0.097,-0.47 0.118,-0.489C0.138,-0.507 0.164,-0.52 0.196,-0.529C0.228,-0.538 0.267,-0.542 0.313,-0.542L0.41,-0.542L0.41,-0.421L0.317,-0.421C0.296,-0.421 0.279,-0.419 0.265,-0.416C0.251,-0.413 0.24,-0.407 0.232,-0.399C0.223,-0.391 0.217,-0.38 0.214,-0.366C0.21,-0.352 0.208,-0.334 0.208,-0.313L0.208,-0L0.059,-0Z" style="fill:white;fill-rule:nonzero;"/>
                            </g>
                            <g transform="matrix(12,0,0,12,119.577,57.3971)">
                                <path d="M0.09,-0L0.09,-0.421L0.014,-0.421L0.014,-0.542L0.09,-0.542L0.09,-0.695L0.242,-0.695L0.242,-0.542L0.413,-0.542L0.413,-0.421L0.242,-0.421L0.242,-0L0.09,-0Z" style="fill:white;fill-rule:nonzero;"/>
                            </g>
                            <g transform="matrix(12,0,0,12,124.689,57.3971)">
                                <path d="M0.696,-0.144C0.696,-0.117 0.694,-0.095 0.689,-0.077C0.684,-0.058 0.675,-0.043 0.662,-0.032C0.648,-0.021 0.629,-0.012 0.606,-0.008C0.582,-0.003 0.551,-0 0.513,-0L0.047,-0L0.047,-0.117L0.494,-0.117C0.514,-0.117 0.528,-0.12 0.536,-0.127C0.544,-0.134 0.548,-0.146 0.548,-0.165L0.548,-0.183C0.548,-0.203 0.544,-0.216 0.537,-0.221C0.529,-0.226 0.516,-0.228 0.498,-0.228L0.194,-0.228C0.163,-0.228 0.138,-0.231 0.12,-0.237C0.1,-0.243 0.086,-0.252 0.075,-0.264C0.064,-0.276 0.057,-0.291 0.054,-0.309C0.05,-0.326 0.048,-0.347 0.048,-0.371L0.048,-0.412C0.048,-0.435 0.05,-0.455 0.056,-0.472C0.061,-0.489 0.069,-0.502 0.08,-0.513C0.091,-0.523 0.107,-0.53 0.126,-0.535C0.145,-0.54 0.17,-0.542 0.199,-0.542L0.405,-0.542L0.405,-0.429L0.235,-0.429C0.22,-0.429 0.21,-0.426 0.204,-0.421C0.197,-0.416 0.194,-0.406 0.194,-0.392L0.194,-0.367C0.194,-0.352 0.197,-0.341 0.203,-0.336C0.209,-0.331 0.219,-0.328 0.232,-0.328L0.526,-0.328C0.561,-0.328 0.589,-0.325 0.611,-0.32C0.633,-0.314 0.65,-0.305 0.663,-0.293C0.676,-0.28 0.684,-0.264 0.689,-0.245C0.694,-0.225 0.696,-0.201 0.696,-0.172L0.696,-0.144Z" style="fill:white;fill-rule:nonzero;"/>
                            </g>
                        </g>
                    </g>
                </g>
            </g>
        </g>
    </g>
</svg>
