<?xml version="1.0" encoding="UTF-8" standalone="no"?>
<!DOCTYPE svg PUBLIC "-//W3C//DTD SVG 1.1//EN" "http://www.w3.org/Graphics/SVG/1.1/DTD/svg11.dtd">
<svg width="100%" height="100%" viewBox="0 0 633 113" version="1.1" xmlns="http://www.w3.org/2000/svg" xmlns:xlink="http://www.w3.org/1999/xlink" xml:space="preserve" xmlns:serif="http://www.serif.com/" style="fill-rule:evenodd;clip-rule:evenodd;stroke-linejoin:round;stroke-miterlimit:2;">
    <clipPath id="_clip1">
        <rect id="ports.afdesign" x="0.025" y="0.834" width="632.489" height="112"/>
    </clipPath>
    <g clip-path="url(#_clip1)">
        <g>
            <path d="M140.52,81.41l-0,31.424l-24.495,0l0,-109.905l87.989,0c7.842,0 14.396,0.618 19.66,1.853c5.264,1.236 9.508,3.277 12.731,6.124c3.223,2.847 5.506,6.527 6.849,11.039c1.343,4.512 2.014,9.991 2.014,16.437l0,9.508c0,6.554 -0.644,11.979 -1.934,16.277c-1.289,4.297 -3.518,7.735 -6.687,10.313c-3.17,2.579 -7.386,4.378 -12.651,5.399c-5.264,1.02 -11.925,1.531 -19.982,1.531l-63.494,-0Zm80.253,-42.061c0,-5.909 -1.262,-9.937 -3.787,-12.086c-2.525,-2.149 -7.064,-3.223 -13.617,-3.223l-62.849,-0l-0,37.548l63.171,0c6.446,0 10.905,-0.994 13.376,-2.981c2.471,-1.988 3.706,-5.882 3.706,-11.684l0,-7.574Z" style="fill:#fff;fill-rule:nonzero;"/>
            <path d="M301.671,112.834c-8.057,0 -14.772,-0.671 -20.144,-2.014c-5.372,-1.343 -9.669,-3.492 -12.892,-6.446c-3.223,-2.955 -5.506,-6.822 -6.849,-11.603c-1.343,-4.781 -2.014,-10.663 -2.014,-17.646l-0,-11.764c-0,-6.983 0.671,-12.892 2.014,-17.727c1.343,-4.834 3.626,-8.729 6.849,-11.683c3.223,-2.955 7.52,-5.103 12.892,-6.446c5.372,-1.343 12.087,-2.015 20.144,-2.015l29.168,0c8.165,0 14.934,0.672 20.305,2.015c5.372,1.343 9.67,3.518 12.893,6.526c3.223,3.008 5.506,6.93 6.848,11.764c1.343,4.835 2.015,10.744 2.015,17.727l-0,11.603c-0,6.983 -0.672,12.865 -2.015,17.646c-1.342,4.781 -3.625,8.648 -6.848,11.603c-3.223,2.954 -7.521,5.103 -12.893,6.446c-5.371,1.343 -12.14,2.014 -20.305,2.014l-29.168,0Zm47.217,-48.667c0,-3.653 -0.295,-6.661 -0.886,-9.025c-0.591,-2.363 -1.665,-4.217 -3.223,-5.56c-1.558,-1.343 -3.733,-2.256 -6.527,-2.739c-2.793,-0.484 -6.338,-0.725 -10.636,-0.725l-22.722,-0c-4.297,-0 -7.816,0.241 -10.555,0.725c-2.74,0.483 -4.889,1.396 -6.446,2.739c-1.558,1.343 -2.632,3.197 -3.223,5.56c-0.591,2.364 -0.887,5.372 -0.887,9.025l0,10.313c0,3.653 0.296,6.634 0.887,8.944c0.591,2.31 1.665,4.136 3.223,5.479c1.557,1.343 3.706,2.283 6.446,2.82c2.739,0.538 6.258,0.806 10.555,0.806l22.722,0c4.298,0 7.843,-0.268 10.636,-0.806c2.794,-0.537 4.969,-1.477 6.527,-2.82c1.558,-1.343 2.632,-3.169 3.223,-5.479c0.591,-2.31 0.886,-5.291 0.886,-8.944l0,-10.313Z" style="fill:#fff;fill-rule:nonzero;"/>
            <path d="M390.304,112.834l0,-50.601c0,-6.554 0.752,-12.14 2.256,-16.76c1.504,-4.62 3.895,-8.407 7.172,-11.361c3.276,-2.955 7.493,-5.13 12.65,-6.527c5.157,-1.396 11.442,-2.095 18.855,-2.095l15.631,0l0,19.5l-14.987,-0c-3.33,-0 -6.124,0.268 -8.38,0.805c-2.256,0.537 -4.055,1.451 -5.398,2.74c-1.343,1.289 -2.31,3.062 -2.901,5.318c-0.591,2.256 -0.886,5.103 -0.886,8.541l-0,50.44l-24.012,0Z" style="fill:#fff;fill-rule:nonzero;"/>
            <path d="M466.206,112.834l0,-67.844l-12.247,-0l-0,-19.5l12.247,0l0,-24.656l24.495,0l0,24.656l27.557,0l0,19.5l-27.557,-0l0,67.844l-24.495,0Z" style="fill:#fff;fill-rule:nonzero;"/>
            <path d="M632.514,89.628c0,4.298 -0.376,7.924 -1.128,10.878c-0.752,2.955 -2.229,5.345 -4.431,7.171c-2.203,1.827 -5.211,3.143 -9.025,3.949c-3.814,0.805 -8.783,1.208 -14.906,1.208l-75.097,0l0,-18.855l72.035,0c3.223,0 5.479,-0.537 6.768,-1.611c1.289,-1.074 1.934,-3.116 1.934,-6.124l-0,-2.9c-0,-3.224 -0.618,-5.238 -1.853,-6.044c-1.236,-0.805 -3.304,-1.208 -6.205,-1.208l-48.99,-0c-4.942,-0 -8.943,-0.484 -12.005,-1.451c-3.062,-0.967 -5.453,-2.417 -7.172,-4.351c-1.719,-1.934 -2.873,-4.324 -3.464,-7.171c-0.591,-2.847 -0.887,-6.204 -0.887,-10.072l0,-6.607c0,-3.76 0.403,-6.983 1.209,-9.669c0.806,-2.686 2.122,-4.862 3.948,-6.527c1.827,-1.665 4.298,-2.874 7.413,-3.626c3.116,-0.752 7.037,-1.128 11.764,-1.128l33.197,0l0,18.21l-27.395,0c-2.364,0 -4.056,0.43 -5.077,1.29c-1.02,0.859 -1.531,2.417 -1.531,4.673l0,4.029c0,2.471 0.484,4.136 1.451,4.995c0.967,0.86 2.524,1.29 4.673,1.29l47.379,-0c5.586,-0 10.152,0.456 13.697,1.369c3.546,0.914 6.339,2.364 8.38,4.351c2.042,1.988 3.438,4.566 4.19,7.736c0.752,3.169 1.128,7.064 1.128,11.683l0,4.512Z" style="fill:#fff;fill-rule:nonzero;"/>
        </g>
        <g>
            <g>
                <path d="M81.128,27.869c-1.066,-0 -1.931,-0.866 -1.931,-1.931l0,-9.656c0,-1.065 0.865,-1.931 1.931,-1.931c1.066,0 1.931,0.866 1.931,1.931l0,9.656c0,1.065 -0.865,1.931 -1.931,1.931" style="fill:#e6e7e8;fill-rule:nonzero;"/>
                <path d="M71.474,35.593c-0.566,-0 -1.128,-0.248 -1.508,-0.725c-0.666,-0.834 -0.533,-2.048 0.301,-2.715l9.655,-7.724c0.831,-0.664 2.049,-0.531 2.714,0.302c0.666,0.834 0.533,2.048 -0.302,2.715l-9.655,7.724c-0.355,0.284 -0.782,0.423 -1.205,0.423" style="fill:#e6e7e8;fill-rule:nonzero;"/>
                <path d="M90.782,35.593c-0.422,-0 -0.849,-0.14 -1.205,-0.423l-9.655,-7.724c-0.834,-0.667 -0.967,-1.881 -0.301,-2.715c0.666,-0.835 1.883,-0.966 2.713,-0.302l9.655,7.724c0.834,0.667 0.968,1.881 0.302,2.715c-0.381,0.478 -0.943,0.725 -1.509,0.725" style="fill:#e6e7e8;fill-rule:nonzero;"/>
                <path d="M65.68,112.834l32.827,-0l12.257,-19.863c2.454,-3.545 1.199,-8.442 -2.658,-10.371l-21.5,-11.324c-2.226,-1.068 -6.231,-1.398 -9.33,-0l-21.085,11.428c-3.978,1.856 -5.328,6.845 -2.829,10.454l12.318,19.676Z" style="fill:#e6e7e8;fill-rule:nonzero;"/>
            </g>
            <path d="M60.121,80.574l17.156,-9.298c3.097,-1.398 7.104,-1.068 9.33,-0l17.312,9.12l2.312,-19.7l-48.276,-0l2.149,19.878l0.017,-0Z" style="fill:#b0b6bb;fill-rule:nonzero;"/>
            <rect x="9.681" y="81.937" width="30.897" height="30.896" style="fill:#6d7ca0;fill-rule:nonzero;"/>
            <path d="M40.577,81.937l-30.897,0l5.793,-15.448l19.31,0l5.794,15.448Z" style="fill:#434c6d;fill-rule:nonzero;"/>
            <path d="M23.197,56.834l-19.31,-0l-3.862,-5.793l0,-11.586l23.172,-0l0,17.379Z" style="fill:#8697cb;fill-rule:nonzero;"/>
            <path d="M88.852,8.558c0,-4.265 -3.458,-7.724 -7.724,-7.724c-4.265,0 -7.724,3.459 -7.724,7.724c0,4.266 3.459,7.724 7.724,7.724c4.266,0 7.724,-3.458 7.724,-7.724" style="fill:#6d7ca0;fill-rule:nonzero;"/>
            <path d="M86.921,92.643c-2.993,-1.436 -6.305,-1.365 -9.331,0l-18.707,9.335l6.797,10.856l32.827,0l6.782,-10.991l-18.368,-9.2Z" style="fill:#b0b6bb;fill-rule:nonzero;"/>
            <rect x="54.095" y="49.11" width="54.069" height="11.586" style="fill:#e6e7e8;fill-rule:nonzero;"/>
            <path d="M23.197,51.041l0,5.793l-7.724,-0l0,9.655l19.31,0l0,-15.448l-11.586,-0Z" style="fill:#6d7ca0;fill-rule:nonzero;"/>
            <g>
                <path d="M73.404,8.558l-50.207,30.897l0,11.586l11.587,-0l46.344,-34.759c-4.265,0 -7.724,-3.458 -7.724,-7.724" style="fill:#434c6d;fill-rule:nonzero;"/>
                <path d="M83.059,8.558c0,-1.066 -0.865,-1.931 -1.931,-1.931c-1.066,0 -1.931,0.865 -1.931,1.931c0,1.066 0.865,1.931 1.931,1.931c1.066,0 1.931,-0.865 1.931,-1.931" style="fill:#434c6d;fill-rule:nonzero;"/>
            </g>
            <rect x="69.543" y="33.662" width="23.172" height="15.448" style="fill:#ee8472;fill-rule:nonzero;"/>
            <g>
                <path d="M75.335,45.248c-1.066,-0 -1.931,-0.865 -1.931,-1.931l0,-3.862c0,-1.066 0.865,-1.931 1.931,-1.931c1.066,-0 1.931,0.865 1.931,1.931l0,3.862c0,1.066 -0.865,1.931 -1.931,1.931" style="fill:#db776a;fill-rule:nonzero;"/>
                <path d="M81.128,45.248c-1.066,-0 -1.931,-0.865 -1.931,-1.931l0,-3.862c0,-1.066 0.865,-1.931 1.931,-1.931c1.066,-0 1.931,0.865 1.931,1.931l0,3.862c0,1.066 -0.865,1.931 -1.931,1.931" style="fill:#db776a;fill-rule:nonzero;"/>
                <path d="M86.921,45.248c-1.066,-0 -1.931,-0.865 -1.931,-1.931l0,-3.862c0,-1.066 0.865,-1.931 1.931,-1.931c1.066,-0 1.931,0.865 1.931,1.931l0,3.862c0,1.066 -0.865,1.931 -1.931,1.931" style="fill:#db776a;fill-rule:nonzero;"/>
            </g>
            <g>
                <path d="M21.266,107.041c1.066,-0 1.931,-0.866 1.931,-1.931c0,-1.066 -0.865,-1.931 -1.931,-1.931l-11.586,-0l0,3.862l11.586,-0Z" style="fill:#434c6d;fill-rule:nonzero;"/>
                <path d="M17.404,99.316c1.066,0 1.931,-0.865 1.931,-1.931c0,-1.065 -0.865,-1.931 -1.931,-1.931l-7.724,0l0,3.862l7.724,0Z" style="fill:#434c6d;fill-rule:nonzero;"/>
            </g>
        </g>
    </g>
</svg>
