<?xml version="1.0" encoding="UTF-8" standalone="no"?>
<!DOCTYPE svg PUBLIC "-//W3C//DTD SVG 1.1//EN" "http://www.w3.org/Graphics/SVG/1.1/DTD/svg11.dtd">
<svg width="100%" height="100%" viewBox="0 0 632 110" version="1.1" xmlns="http://www.w3.org/2000/svg" xmlns:xlink="http://www.w3.org/1999/xlink" xml:space="preserve" xmlns:serif="http://www.serif.com/" style="fill-rule:evenodd;clip-rule:evenodd;stroke-linejoin:round;stroke-miterlimit:2;">
    <g transform="matrix(1,0,0,1,-4,-5)">
        <g id="Ebene-1" serif:id="Ebene 1" transform="matrix(1.11478,0,0,1.11478,6.58851,-541.55)">
            <path id="path6945" d="M-2.322,490.726L174.31,490.726L174.31,543.106L4.657,543.106L4.657,588.504L-2.322,588.504L-2.322,536.124L167.33,536.124L167.33,497.704L-2.322,497.704L-2.322,490.726" style="fill:white;fill-rule:nonzero;"/>
            <path id="path6947" d="M394.956,543.106L394.956,588.504L387.976,588.504L387.976,536.124L557.626,536.124L557.626,497.704L387.976,497.704L387.976,490.725L564.607,490.725L564.607,543.105L394.956,543.105" style="fill:white;fill-rule:nonzero;"/>
            <path id="path6949" d="M264.371,490.726L264.371,581.524L174.31,581.524L174.31,588.504L271.738,588.504L271.738,497.704L361.8,497.704L361.8,490.725L264.371,490.725" style="fill:white;fill-rule:nonzero;"/>
        </g>
    </g>
</svg>
