<?xml version="1.0" encoding="UTF-8"?>
<svg width="549px" height="114px" viewBox="0 0 549 114" version="1.1" xmlns="http://www.w3.org/2000/svg" xmlns:xlink="http://www.w3.org/1999/xlink">
    <title>psx</title>
    <defs>
        <polygon id="path-1" points="0 0 548.889 0 548.889 113.032 0 113.032"></polygon>
    </defs>
    <g id="Page-1" stroke="none" stroke-width="1" fill="none" fill-rule="evenodd" opacity="0.78">
        <g id="Sony-Playstation" transform="translate(-46.000000, -3.000000)">
            <g id="psx" transform="translate(46.000000, 3.000000)">
                <mask id="mask-2" fill="white">
                    <use xlink:href="#path-1"></use>
                </mask>
                <g id="Path"></g>
                <g id="Group" mask="url(#mask-2)" fill-rule="nonzero">
                    <g transform="translate(0.000648, 0.000000)">
                        <path d="M165.633352,28.918 L165.633352,86.458 L175.711352,86.458 L175.711352,35.095 L181.897352,35.095 C186.358352,35.095 188.372352,35.215 189.130352,35.532 C190.626352,36.157 192.166352,38.061 192.797352,40.053 C193.128352,41.1 193.401352,43.366 193.498352,45.884 C193.698352,51.038 193.100352,54.24 191.527352,56.317 C189.886352,58.485 188.882352,58.827 184.243352,58.827 L180.261352,58.827 L180.261352,65.073 L186.518352,64.952 L192.776352,64.831 L194.990352,63.784 C199.035352,61.876 201.972352,57.973 203.157352,52.944 C203.819352,50.136 203.809352,43.858 203.136352,40.845 C202.490352,37.949 201.145352,35.032 199.632352,33.266 C198.999352,32.528 197.775352,31.469 196.920352,30.919 C193.987352,29.037 192.858352,28.918 178.564352,28.918 L165.633352,28.918 L165.633352,28.918 Z M210.168352,28.918 L210.168352,86.458 L220.245352,86.458 L220.245352,28.918 L210.168352,28.918 Z M336.540352,28.918 C332.026352,28.919 327.382352,29.078 326.220352,29.264 C323.597352,29.682 320.538352,31.069 318.804352,32.636 C317.056352,34.215 315.568352,36.585 314.761352,39.076 C314.259352,40.624 314.101352,42.035 314.081352,45.009 C314.052352,49.112 314.397352,50.86 315.808352,53.623 C316.724352,55.421 319.169352,58.016 320.847352,58.986 C322.796352,60.116 325.288352,60.714 329.574352,61.058 C332.834352,61.322 333.594352,61.484 334.654352,62.187 C335.488352,62.738 336.218352,63.64 336.838352,64.898 C337.707352,66.669 337.756352,67.04 337.752352,70.851 C337.748352,74.652 337.695352,75.027 336.856352,76.622 C336.290352,77.706 335.471352,78.654 334.614352,79.224 L333.260352,80.119 L324.697352,80.222 L316.144352,80.314 L316.144352,86.459 L325.874352,86.459 C331.794352,86.459 336.286352,86.313 337.333352,86.092 C341.317352,85.254 344.632352,82.672 346.241352,79.154 C347.596352,76.191 348.075352,73.146 347.897352,68.578 C347.709352,63.762 346.997352,61.138 345.073352,58.258 C342.682352,54.683 340.009352,53.457 333.218352,52.835 C330.706352,52.605 328.132352,52.2 327.499352,51.931 C326.101352,51.339 324.794352,49.849 324.218352,48.193 C323.650352,46.56 323.657352,41.832 324.239352,39.834 C324.809352,37.861 326.544352,36.044 328.374352,35.496 C329.257352,35.23 332.226352,35.1 337.222352,35.1 L344.749352,35.1 L344.749352,28.92 L336.540352,28.92 L336.540352,28.918 L336.540352,28.918 Z M452.346352,28.918 L452.346352,37.371 L462.424352,37.371 L462.424352,28.918 L452.346352,28.918 L452.346352,28.918 Z M355.444352,35.42 L355.548352,56.143 C355.638352,76.541 355.653352,76.897 356.351352,78.747 C356.742352,79.78 357.578352,81.327 358.208352,82.19 C359.501352,83.95 361.181352,85.184 363.308352,85.928 C364.331352,86.287 366.070352,86.426 369.372352,86.438 L374.005352,86.458 L374.005352,80.282 L370.978352,80.282 C368.097352,80.282 367.908352,80.243 367.087352,79.387 C366.579352,78.858 366.081352,77.824 365.880352,76.867 C365.659352,75.834 365.567352,70.461 365.624352,62.076 L365.716352,48.911 L376.606352,48.727 L376.606352,42.571 L365.554352,42.571 L365.554352,35.42 L355.444352,35.42 L355.444352,35.42 Z M425.040352,35.42 L425.040352,55.889 C425.040352,75.686 425.063352,76.429 425.712352,78.401 C426.483352,80.749 428.050352,83.073 429.755352,84.374 C430.405352,84.872 431.694352,85.54 432.618352,85.856 C433.907352,86.301 435.348352,86.438 438.774352,86.446 L443.243352,86.456 L443.243352,80.28 L440.358352,80.28 C437.948352,80.28 437.338352,80.176 436.631352,79.618 C436.164352,79.253 435.635352,78.413 435.451352,77.751 C435.246352,77.011 435.115352,71.167 435.115352,62.645 L435.115352,48.748 L446.189352,48.748 L446.095352,45.741 L446.003352,42.733 L440.558352,42.643 L435.117352,42.55 L435.117352,35.42 L425.040352,35.42 L425.040352,35.42 Z M416.151352,42.489 L405.393352,42.663 C393.825352,42.841 392.627352,42.983 389.231352,44.705 C385.432352,46.63 382.784352,50.368 381.583352,55.493 C381.081352,57.631 380.993352,59.472 380.993352,67.602 C380.993352,76.832 381.020352,77.263 381.735352,79.03 C383.176352,82.591 385.321352,84.79 388.409352,85.856 C389.770352,86.327 391.190352,86.436 395.866352,86.444 L401.637352,86.456 L401.637352,80.278 L397.594352,80.278 C393.766352,80.278 393.506352,80.231 392.596352,79.465 C391.994352,78.959 391.504352,78.115 391.276352,77.209 C390.823352,75.416 390.801352,61.272 391.245352,57.848 C391.876352,52.983 392.972352,50.702 395.259352,49.477 C396.046352,49.057 397.405352,48.907 401.234352,48.807 L406.191352,48.675 L406.191352,86.456 L416.593352,86.456 L416.593352,74.315 C416.593352,67.641 416.489352,57.749 416.368352,52.333 L416.151352,42.489 L416.151352,42.489 Z M263.479352,42.5 L252.671352,42.662 C240.925352,42.843 239.238352,43.058 236.031352,44.775 C226.555352,50.521 224.438352,75.92 231.429352,83.286 C232.601352,84.478 234.546352,85.654 236.172352,86.15 C236.619352,86.288 239.653352,86.409 242.917352,86.422 L248.849352,86.453 L248.849352,80.28 L244.695352,80.28 C240.009352,80.28 239.392352,80.059 238.509352,78.046 C238.114352,77.149 237.960352,75.384 237.859352,70.63 C237.713352,63.874 238.183352,56.544 238.915352,54.11 C239.572352,51.925 240.796352,50.247 242.236352,49.54 C243.288352,49.024 244.255352,48.927 248.361352,48.92 L253.236352,48.909 L253.318352,67.682 L253.400352,86.453 L263.478352,86.453 L263.478352,64.473 L263.479352,42.5 L263.479352,42.5 Z M274.329352,42.571 C271.401352,42.571 269.010352,42.608 269.016341,42.653 C269.020352,42.698 272.362352,52.51 276.442352,64.464 L283.858352,86.202 L279.682352,96.972 C277.387352,102.899 275.507352,107.79 275.507352,107.841 C275.507352,107.891 277.500352,107.891 279.936352,107.841 L284.366352,107.749 L297.317352,75.241 C304.444352,57.362 310.280353,42.699 310.280353,42.653 C310.282352,42.608 308.178352,42.571 305.596352,42.571 C302.192352,42.571 300.830352,42.684 300.649352,42.979 C300.512352,43.202 298.022352,49.522 295.124352,57.028 C292.227352,64.532 289.727352,70.716 289.559352,70.772 C289.389352,70.829 287.087352,64.506 284.451352,56.723 L279.655352,42.571 L274.329352,42.571 Z M452.346352,42.571 L452.346352,86.455 L462.424352,86.455 L462.424352,42.571 L452.346352,42.571 Z M513.297352,42.733 L513.203352,64.594 L513.215352,64.594 L513.123352,86.455 L523.535352,86.455 L523.535352,48.676 L528.492352,48.809 C533.754352,48.946 534.633352,49.165 536.111352,50.748 C537.269352,51.988 538.097352,54.247 538.466352,57.187 C538.657352,58.726 538.814352,65.79 538.814352,73.197 L538.814352,86.456 L548.888352,86.456 L548.878352,73.534 C548.876352,59.829 548.636352,56.577 547.315352,52.861 C545.518352,47.808 542.211352,44.812 536.833352,43.353 C535.054352,42.87 533.153352,42.786 524.022352,42.763 L513.297352,42.733 L513.297352,42.733 Z M487.819352,42.825 C484.977352,42.825 482.145352,43.182 480.110352,43.882 C477.401352,44.814 475.700352,45.905 473.993352,47.803 C472.141352,49.863 470.800352,52.652 470.013352,56.062 C469.533352,58.152 469.417352,59.907 469.447352,65 C469.472352,70.359 469.580352,71.729 470.158352,73.849 C471.137352,77.445 472.418352,79.866 474.363352,81.834 C476.279352,83.772 479.111352,85.256 482.299352,85.98 C483.733352,86.304 485.721352,86.407 488.760352,86.325 C493.998352,86.185 496.490352,85.511 499.547352,83.421 C502.110352,81.669 504.047352,78.904 505.145352,75.425 C506.715352,70.458 506.991352,62.269 505.786352,56.226 C505.200352,53.29 503.776352,50.107 502.188352,48.17 C500.696352,46.349 498.252352,44.752 495.637352,43.883 C493.522352,43.182 490.661352,42.825 487.819352,42.825 L487.819352,42.825 Z M487.942352,48.879 C489.417352,48.879 490.895352,49.164 492.055352,49.752 C493.569352,50.52 494.520352,51.856 495.346352,54.384 C495.887352,56.037 496.022352,57.542 496.149352,63.009 C496.315352,70.15 495.987352,73.515 494.879352,76.052 C494.098352,77.845 492.834352,79.238 491.445352,79.831 C490.851352,80.085 489.289352,80.277 487.840352,80.277 C485.785352,80.277 484.996352,80.131 483.848352,79.527 C482.946352,79.049 482.075352,78.232 481.512352,77.322 C480.043352,74.952 479.559352,71.843 479.539352,64.839 C479.523352,58.171 479.867352,55.491 481.096352,52.779 C481.512352,51.859 482.352352,50.736 482.975352,50.259 C484.159352,49.356 486.045352,48.879 487.942352,48.879 L487.942352,48.879 Z" id="Shape" fill="#FFFFFF"></path>
                        <path d="M80.2713519,23.506 L80.1723519,113.031 L56.1863519,105.23 L56.1863519,-1.47104551e-15 L86.8043519,8.096 C106.403352,13.363 118.396352,23.603 118.202352,41.546 C118.007352,62.419 108.353352,70.803 89.5353519,65.342 L89.5353519,24.188 C89.5333519,19.212 80.2713519,18.921 80.2713519,23.506 Z" id="Path" fill="#DE0029"></path>
                        <path d="M45.1663519,87.87 L33.8553519,91.675 C26.5413519,94.212 20.3013519,88.263 27.0293519,85.821 L32.4893519,83.874 L11.9143519,77.337 C5.57635188,79.485 -0.373648124,84.067 0.018351876,90.505 C0.408351876,97.038 15.3273519,98.601 26.8333519,100.452 C37.5593519,102.206 47.3103519,101.231 56.1843519,98.11 L56.1843519,91.38 L45.1663519,87.87 L45.1663519,87.87 Z M80.3663519,113.032 L101.331352,105.719 L80.1713519,98.99 L80.1713519,112.548 L80.3663519,113.032 L80.3663519,113.032 Z" id="Shape" fill="#F3C202"></path>
                        <path d="M136.144352,93.431 L136.533352,93.332 C145.700352,90.114 149.600352,85.625 148.625352,81.434 C147.065352,74.413 135.852352,70.608 118.592352,69.34 C106.208352,68.463 94.0203519,71.194 82.1243519,75.287 L80.1743519,75.973 L101.529352,82.606 L114.009352,78.409 C127.076352,75.973 132.342352,80.263 119.764352,84.263 L113.522352,86.409 L136.144352,93.431 L136.144352,93.431 Z M56.1863519,62.418 L46.7273519,65.635 L56.1863519,68.561 L56.1863519,62.418 L56.1863519,62.418 Z" id="Shape" fill="#326DB3"></path>
                        <path d="M101.332352,105.717 L136.144352,93.431 L113.520352,86.409 L80.1723519,97.819 L80.1723519,98.989 L101.332352,105.717 L101.332352,105.717 Z M56.1863519,84.165 L45.1673519,87.87 L56.1863519,91.382 L56.1863519,84.165 Z M80.1713519,89.92 L80.1713519,75.975 L101.526352,82.606 L80.1713519,89.92 L80.1713519,89.92 Z M32.4893519,83.874 L56.1853519,75.389 L56.1853519,68.563 L46.7263519,65.636 L12.4023519,77.241 C12.3053519,77.241 12.1103519,77.337 11.9153519,77.337 L32.4893519,83.874 L32.4893519,83.874 Z" id="Shape" fill="#00AA9E"></path>
                    </g>
                </g>
            </g>
        </g>
    </g>
</svg>