<svg viewBox="0 0 268 68" xmlns="http://www.w3.org/2000/svg">
    <path d="M44.878 14.763a28.843 28.843 0 0 1 1.811 10.05c0 2.999-.468 5.746-1.402 8.238-1.56 4.206-4.033 7.712-7.421 10.516-3.506 2.882-7.442 4.557-11.805 5.024v6.018c0 .235-.175 1.168-.526 2.805-.701 3.233-1.343 6.915-1.927 11.044-1.949-8.649-3.02-13.245-3.215-13.79v-6.136c-4.245-.428-8.084-2.064-11.511-4.906C2.959 38.72 0 32.447 0 24.813c0-3.194.526-6.31 1.578-9.348a23.045 23.045 0 0 1 4.441-7.77c2.142-2.531 4.558-4.285 7.245-5.259-2.843 1.674-5.2 3.798-7.071 6.368-2.531 3.505-3.797 7.5-3.797 11.978 0 1.635.155 3.252.468 4.849.662 3.35 2.279 6.465 4.851 9.346 2.648 3.001 5.588 4.89 8.822 5.668 1.676.584 2.96.899 3.857.936v-6.079c0-.622-.02-1.325-.058-2.103-.272-1.285-1.012-2.025-2.221-2.22a.394.394 0 0 0-.291-.118H28.4c.272 0 .389.04.35.118-1.441.234-2.279.974-2.512 2.22-.119.624-.176 1.345-.176 2.162v6.02c1.988-.43 3.35-.74 4.091-.936 3.156-.817 6.038-2.629 8.648-5.434 3.663-3.974 5.492-8.783 5.492-14.431 0-3.857-.975-7.392-2.922-10.605-1.948-3.213-4.616-5.794-8.005-7.743 5.337 2.03 9.174 6.14 11.512 12.331Zm16.766-7.912c-.351-2.724-1.498-4.357-3.445-4.903h14.198c-2.884.974-4.169 2.647-3.857 5.02v30.233c0 2.141.272 3.989.819 5.545 2.18 4.359 5.394 6.635 9.641 6.83-5.337-.156-9.486-1.77-12.447-4.844-3.273-3.386-4.908-7.159-4.908-11.323l-.001-26.558Zm39.005-.041c.346-2.733 1.565-4.353 3.652-4.863H89.984c2.833.86 4.093 2.48 3.782 4.863v31.049c0 2.071-.295 3.693-.881 4.863-2.23 4.415-5.417 6.699-9.563 6.854 3.239-.078 6.009-.703 8.311-1.873 1.21-.624 2.596-1.62 4.157-2.988 3.238-2.85 4.858-6.6 4.858-11.249l.001-26.656Zm45.749 38.395-2.337-5.727c-1.326-3.272-3.098-5.259-5.319-5.96a85.93 85.93 0 0 0-3.154-.233 8.99 8.99 0 0 0-.644-.059l.991-.292c2.02-.585 3.031-1.558 3.031-2.923 0-.428-.157-1.012-.466-1.753-1.557-3.701-2.703-6.488-3.442-8.357-1.439-3.349-2.526-5.239-3.266-5.667-.584-.311-1.535.858-2.857 3.505-1.401 2.845-2.294 4.754-2.682 5.728l-1.982 5.083c-.272.701-.409 1.305-.409 1.812 0 1.793 1.24 2.748 3.719 2.865-3.272 0-5.532.836-6.776 2.51-1.327 2.263-2.437 4.929-3.332 8.007l-.351 2.045c.235 1.479 1.111 2.357 2.631 2.629h-9.35c1.714-.78 3.798-3.391 6.253-7.834 1.325-2.339 2.94-5.594 4.849-9.765 2.844-6.236 4.52-9.958 5.026-11.168 1.948-4.52 3.233-7.523 3.856-9.004l3.448-9.004 8.24 19.491h-.059a925.385 925.385 0 0 1 1.754 3.739c2.065 4.324 4.693 9.912 7.889 16.769 1.596 3.466 3.466 5.725 5.609 6.776h-13.733c2.143-.116 3.097-1.188 2.863-3.213Zm32.3-1.52c0 2.573 1.098 4.092 3.285 4.559h-13.089c1.877-.468 2.953-1.986 3.229-4.559V6.687c0-2.651-1.057-4.209-3.169-4.676h13.088c-1.602.351-2.717 1.849-3.344 4.499v13.035c0 2.496 1.645 4.267 4.935 5.32-3.29.7-4.935 2.786-4.935 6.254v12.566Zm18.71-21.019c5.61-7.244 11.394-14.8 17.356-22.666l-26.762 24.986h.057l-.057.059h.176c4.244 1.598 7.965 3.507 11.16 5.728 7.596 5.302 11.687 11.73 12.271 19.29.117-1.128.176-2.239.176-3.329 0-7.361-2.065-13.397-6.195-18.11-2.377-2.725-5.104-4.713-8.182-5.958Zm41.558 4.002c-1.091.86-1.636 2.048-1.636 3.567v4.036c0 1.17.331 3.567.995 7.192a13.395 13.395 0 0 0 2.042 3.215c1.906 2.221 4.125 3.41 6.655 3.567-3.889-.117-7.505-1.481-10.849-4.093-3.694-2.807-5.544-6.101-5.544-9.881V6.673c-.669-2.769-1.866-4.443-3.593-5.029h13.734c-2.294.545-3.439 2.28-3.439 5.203v13.215c0 1.792.487 3.08 1.461 3.861.036.388 2.702.699 7.997.934-3.504.116-6.11.721-7.823 1.811Zm10.746-25.024h15.834l.057 15.746c-.469-4.332-2.198-7.883-5.2-10.654-2.685-2.458-6.251-4.155-10.691-5.092Zm2.747 46.776c5.374-.428 10.555-5.491 15.541-15.193V48.42c-.739-1.053-1.908-1.578-3.504-1.578-1.131 0-2.457.263-3.976.787-1.518.527-4.205.791-8.061.791Z" style="fill:#fff"/>
</svg>
