<svg viewBox="0 0 264 54" xmlns="http://www.w3.org/2000/svg">
    <path style="fill-opacity:1;stroke:none;stroke-opacity:1;fill:#fff" d="M213.457 3.58c.005.021.039.08.09.158-.053-.136-.098-.192-.09-.158Zm-.763.736c-.011-.009-.071.126-.107.281.077-.172.114-.274.107-.281Zm1.084 1.029c-.514.03-.958.095-1.287.17-.026.365-.052.805-.077 1.327-.099 2.041-.187 5.279-.278 10.044-.099 5.17-.176 9.064-.302 11.989-.127 2.925-.192 4.714-.737 6.585-.272.935-.589 2.399-2.646 3.433-1.03.516-2.356.562-3.239.328a4.968 4.968 0 0 1-1.839-.919c-1.665-1.265-2.17-2.313-3.182-3.7-2.759-3.785-5.077-8.22-9.646-18.173-1.07-2.332-1.926-4.106-2.57-5.362l.103.937c.183.401.339.782.54 1.289.515 1.294 1.23 3.176 2.106 5.384 1.752 4.417 4.156 10.13 6.464 14.239 1.915 3.408 4.415 7.61 6.541 11.047a187.244 187.244 0 0 0 2.781 4.381c.268.405.548.781.793 1.103.07-.003.117-.003.194-.008.845-.062 2.091-.283 3.053-.536.046-.012.08-.024.125-.036.233-1.199.531-2.978.86-5.196 2.064-13.928 2.821-24.215 2.502-33.27-.079-2.24-.166-3.901-.259-5.056Zm1.738.03c.118.021.195.008.238.019.109.029.041.008-.086-.007-.035-.005-.108-.008-.152-.012Zm-3.598.334c-.036.023-.036.028 0 0Zm-.071 42.725a.812.812 0 0 0-.144.099c.097-.044.169-.107.144-.099Zm-1.389 1.426c-.096.195-.064.277-.074.335l.003-.011c.014-.053.051-.24.071-.324Z"/>
    <path style="font-style:normal;font-variant-ligatures:normal;font-variant-caps:normal;font-weight:700;font-stretch:normal;font-size:205.444px;line-height:125%;font-family:&quot;Comic Sans MS&quot;;text-align:start;writing-mode:lr-tb;text-anchor:start;display:inline;fill-opacity:1;stroke:none;fill:#fff" d="M7.068 10.429c-4.597.426-8.381 1.996-6.633 7.579 1.239 9.966 1.207 21.371-.213 31.468-.89 4.432 10.969 3.732 11.554 1.723-.217-3.416-1.071-5.401 1.579-7.347 2.516-1.094 3.476.064 4.565.991 2.094 2.78.763 4.64 2.341 6.656.882 1.408 9.426 1.932 11.307.294 2.107-1.835.865-4.693-.355-6.805-1.643-3.138-5.192-5.675-5.266-8.441.486-4.03 6.104-4.842 6.375-11.209-.37-9.264-5.043-11.09-11.405-13.279-4.013-1.334-9.256-1.485-13.849-1.63Zm7.893 11.116c3.393.057 4.15 3.047 4.13 4.522.123 1.578-.26 5.377-4.003 5.396-3.387-.205-3.988-3.823-3.967-5.362.077-1.622.722-4.451 3.84-4.556Z"/>
    <path style="font-style:normal;font-variant-ligatures:normal;font-variant-caps:normal;font-weight:700;font-stretch:normal;font-size:176.147px;line-height:125%;font-family:&quot;Comic Sans MS&quot;;text-align:start;writing-mode:lr-tb;text-anchor:start;display:inline;fill-opacity:1;stroke:none;fill:#fff" d="M48.063 25.057a36.78 36.78 0 0 0-2.657.031c-9.231.192-13.105 6.924-13.604 15.551.4 6.101 2.607 9.062 6.629 11.563 1.877.909 3.414 1.409 4.918 1.542 1.928.17 3.801-.272 6.262-1.233 6.081-2.353 10.682-5.81 6.099-10.331-2.027-.92-4.503.544-10.437 2.324-1.62.494-2.881-1.125-.407-1.83 8.921-2.45 12.639-3.43 12.8-9.6-.106-5.959-3.722-7.852-9.603-8.017Zm-2.22 6.269c1.342-.071 2.585.423 2.984 1.677 1.537 3.909-6.265 6.583-7.117 2.445-.625-2.318 1.897-4.002 4.133-4.122Z"/>
    <path style="font-style:normal;font-variant-ligatures:normal;font-variant-caps:normal;font-weight:700;font-stretch:normal;font-size:182.188px;line-height:125%;font-family:&quot;Comic Sans MS&quot;;text-align:start;writing-mode:lr-tb;text-anchor:start;display:inline;fill-opacity:1;stroke:none;fill:#fff" d="M71.004 25.992c-5.017.278-11.571 2.38-11.608 8.274.508 7.198 11.384 8.481 11.914 10.238-.163 2.962-8.367-3.653-10.223-2.015-3.325 3.336-2.082 5.96.529 7.894 1.735 1.284 4.069 2.262 6.058 2.939 4.353 1.152 8.436-.084 10.886-1.305 2.735-1.077 3.718-4.661 3.604-7.657-1.258-5.921-10.373-7.248-11.18-9.447.101-3.488 8.157 4.223 10.294 1.809 4.01-7.364-1.158-8.839-6.068-10.472-1.033-.241-2.534-.35-4.206-.258Z"/>
    <path style="font-style:normal;font-variant-ligatures:normal;font-variant-caps:normal;font-weight:700;font-stretch:normal;font-size:179.688px;line-height:125%;font-family:&quot;Comic Sans MS&quot;;text-align:start;writing-mode:lr-tb;text-anchor:start;display:inline;fill-opacity:1;stroke:none;fill:#fff" d="M89.903 16.444c-3.46.146-5.216 1.945-5.315 4.727.462 3.207 2.125 4.523 5.315 4.708 3.116-.23 4.374-1.289 4.877-4.708-.299-2.698-1.937-4.542-4.877-4.727Zm-.917 11.008c-2.554.131-5.082 1.519-4.724 3.761.868 5.426.839 12.583-.316 18.759-1.339 5.219 11.262 4.922 9.632 0-1.389-5.605-1.014-11.845.316-18.759.226-2.769-2.353-3.892-4.908-3.761Z"/>
    <path style="font-style:normal;font-variant-ligatures:normal;font-variant-caps:normal;font-weight:700;font-stretch:normal;font-size:167.257px;line-height:125%;font-family:&quot;Comic Sans MS&quot;;text-align:start;writing-mode:lr-tb;text-anchor:start;display:inline;fill-opacity:1;stroke:none;fill:#fff" d="M117.038 12.292c-1.15-.071-2.348.249-3.309 1.027-.828.807-1.663.957-.6 5.849.128 3.662.517 5.3-4.878 5.128-8.915.215-13.023 7.526-13.481 15.685.106 7.841 5.337 13.158 12.931 13.722 2.657.328 3.987-.348 5.906-1.727.774.671 1.888 1.675 2.881 1.675 3.157-.107 4.654-1.731 4.471-4.666-3.657-8.521 4.471-31.301-.906-35.378-.761-.786-1.864-1.245-3.015-1.315Zm-9.377 21.645c5.405-.168 4.848 9.489.122 9.765-4.983.098-5.205-9.614-.122-9.765Z"/>
    <path style="font-style:normal;font-variant-ligatures:normal;font-variant-caps:normal;font-weight:700;font-stretch:normal;font-size:166.083px;line-height:125%;font-family:&quot;Comic Sans MS&quot;;text-align:start;writing-mode:lr-tb;text-anchor:start;display:inline;fill-opacity:1;stroke:none;fill:#fff" d="M123.123 26.689c-.98 9.728-3.034 24.885 10.041 25.861 1.691 0 3.349-.837 4.963-1.332.899.849 1.064 1.736 3.623 1.571 5.386.121 4.566-3.909 4.474-7.708-1.401-5.543-.884-12.803-.211-18.995-.251-3.298-8.358-3.682-9.877-.494-1.041 3.339 1.368 15.091-1.59 15.835-2.702-.812.071-13.717-.52-15.699-.312-3.461-9.626-3.344-10.903.961Z"/>
    <path style="font-style:normal;font-variant-ligatures:normal;font-variant-caps:normal;font-weight:700;font-stretch:normal;font-size:162.064px;line-height:125%;font-family:&quot;Comic Sans MS&quot;;text-align:start;writing-mode:lr-tb;text-anchor:start;display:inline;fill-opacity:1;stroke:none;fill:#fff" d="M161.037 24.399c-3.711 0-7.058 1.551-9.724 4.502-2.673 2.94-4.084 6.695-4.084 10.864.087 8.249 3.03 12.904 11.343 13.773 1.922-.054 3.704-.901 5.397-1.747.885.994 1.851 1.866 3.218 1.994 2.626-.106 4.14-2.222 4.337-4.707-.798-3.673-1.408-6.865-1.609-10.7-.089-2.525.103-5.039.245-7.37-.288-4.51-5.368-6.131-9.123-6.609Zm-1.813 9.682c5.21.301 4.828 9.821.051 9.723-4.79-.081-4.605-9.506-.051-9.723Z"/>
    <path style="font-style:normal;font-variant-ligatures:normal;font-variant-caps:normal;font-weight:700;font-stretch:normal;font-size:168px;line-height:125%;font-family:&quot;Comic Sans MS&quot;;text-align:start;writing-mode:lr-tb;text-anchor:start;display:inline;fill-opacity:1;stroke:none;stroke-opacity:1;fill:#fff" d="M177.206 13.555c-2.584-.08-5.219.884-5.356 3.084 1.11 12.609 1.21 23.522.52 31.062l.01 3c.757 4.159 9.742 3.939 10.091.33-.607-5.907-1.386-21.722-.194-34.289.05-1.978-2.486-3.105-5.071-3.187Z"/>
    <path style="display:inline;fill-opacity:1;stroke:none;stroke-opacity:1;fill:#fff" d="M227.444 48.47c-1.162-4.862-6-32.844-6.545-37.195-.875-3.87 3.468-6.017 6.231-4.66 2.118 1.124 5.398 5.143 11.155 13.668 2.944 4.359 3.719 5.124 4.273 4.218.132-.214.757-3.26 1.391-6.768 1.299-7.198 2.599-11.704 4.042-14.011 1.356-2.168 4.383-3.32 6.155-2.227.686.423 1.935 1.89 3.78 11.576 3.534 18.546 6.938 29.33 5.876 32.974-.675 2.318-6.553 2.64-7.727 1.439-2.002-2.051-1.524-2.99-2.276-9.621-.629-5.54-1.906-12.245-2.572-13.509-1.04-1.973-2.012 1.694-3.206 12.086-.356 3.099-.792 5.288-1.122 5.62-.762.769-3.61 1.095-4.326.495-.319-.267-2.181-3.397-4.138-6.957-3.901-7.095-5.101-8.79-5.758-8.139-.531.526.074 5.627 1.144 9.644 2.362 8.861 3.935 10.898 3.598 12.982-.33 2.038-.632 2.726-4.224 3.835-3.518.588-4.874-2.139-5.751-5.45Zm-23.713 2.49c-3.916-5.479-5.519-9.108-9.467-16.155-5.212-9.303-10.952-24.192-10.952-27.13 0-1.847 1.108-2.574 3.92-2.574 3.636 0 3.163-.658 9.864 13.702 4.908 10.519 6.29 13.048 8.456 15.475 1.138 1.275 1.523 1.505 1.806 1.074.455-.691.803-6.72 1.18-20.444.271-9.907.363-10.921 1.124-12.413C210.573.71 211.93 0 214.435 0c1.136 0 1.663.244 2.324 1.079.848 1.071.853 1.166.625 12.064-.126 6.042-.159 14.346-.416 18.129-.697 10.258.227 12.272-2.016 19.271-2.679 3.511-9.066 4.275-11.221.417Z"/>
</svg>
