<svg style="enable-background:new 0 0 564.2 91" viewBox="0 0 264 42" xmlns="http://www.w3.org/2000/svg">
    <path d="M247.877 10.859c.233.889.514 1.731.748 2.573.281 1.029.281 1.076 1.403 1.029.609-.047.702.187.702.748v26.478c0 .421.094.608.562.608a13.696 13.696 0 0 1 1.964 0c.608.047.702-.187.702-.748 0-8.748 0-17.543-.047-26.291 0-.608.094-.842.795-.795a99.14 99.14 0 0 0 5.287 0c.608 0 .748.14.748.748-.047 8.14 0 16.28 0 24.42 0 .701.047 1.45 0 2.152 0 .421.14.514.515.514.655-.047 1.31-.047 1.964 0 .655.047.749-.14.749-.748V1.316c.047-.328-.094-.375-.374-.375-.749 0-1.45.047-2.199 0-.515-.046-.655.141-.655.655.047 2.854 0 5.754.047 8.608 0 .515-.094.702-.655.702a106.237 106.237 0 0 0-5.473 0c-.515 0-.655-.094-.655-.655.047-2.901 0-5.848.047-8.748 0-.468-.141-.608-.562-.562a13.71 13.71 0 0 1-1.965 0c-.514-.046-.701.094-.701.655.046 2.901 0 5.848.046 8.748 0 .421-.093.562-.561.562-.889-.047-1.637-.047-2.432-.047Zm-162.796 0c.281.982.609 1.871.796 2.76.14.748.467.982 1.169.842.608-.094.795.094.749.748-.047 8.327 0 16.701 0 25.028v1.59c0 .375.14.421.467.421h8.842c.374 0 .468-.093.468-.467a22.662 22.662 0 0 1 0-2.527c0-.467-.094-.654-.608-.654-1.778.046-3.509 0-5.287.046-.561 0-.701-.187-.701-.701V15.069c0-.514.14-.655.655-.655 2.152.047 4.303 0 6.455 0 .468 0 .562-.14.375-.561-.281-.795-.609-1.638-.843-2.433-.14-.468-.374-.655-.888-.655-1.731.047-3.415 0-5.146.047-.562 0-.702-.187-.655-.702a95.61 95.61 0 0 0 0-5.192c0-.562.187-.655.702-.655 1.777.047 3.508 0 5.286 0 .514 0 .655-.14.608-.655a17.906 17.906 0 0 1 0-2.246c.047-.514-.187-.608-.655-.608-2.854 0-5.66.047-8.514 0-.561 0-.655.187-.655.655.047 2.901 0 5.848 0 8.748 0 .421-.093.562-.561.562-.562.14-1.263.14-2.059.14Zm139.78 10.245c.046 4.584.935 8.654 3.134 12.303 3.415 5.707 8.514 8.654 15.204 8.888.561 0 .701-.187.654-.702a18.278 18.278 0 0 1 0-2.245c.047-.515-.093-.702-.654-.702-5.988-.187-10.292-3.087-12.959-8.327-2.011-4.023-2.526-8.28-1.684-12.677.655-3.462 2.012-6.596 4.538-9.122 2.76-2.76 6.081-4.164 10.011-4.21.655 0 .795-.187.748-.796a19.05 19.05 0 0 1 0-2.292c0-.421-.093-.561-.514-.561-.655.047-1.357.047-2.012.14-4.444.515-8.233 2.386-11.18 5.754-3.743 4.257-5.146 9.356-5.286 14.549Zm-118.822 2.245V41.5c0 .608.093.889.795.795a10.074 10.074 0 0 1 1.684 0c.655.047.889-.093.889-.842-.047-12.022 0-24.045-.047-36.114 0-.749.234-.889.889-.842.936.047 1.871 0 2.807 0 .374 0 .515-.094.468-.468-.047-.889 0-1.824 0-2.713 0-.328-.094-.421-.421-.421h-10.666c-.374 0-.468.14-.468.467 0 .843.047 1.685 0 2.527 0 .467.094.655.608.608.936-.047 1.871 0 2.807-.047.561-.047.702.14.702.702-.047 6.081-.047 12.163-.047 18.197Zm-46.032 1.778a980.86 980.86 0 0 1-3.134-12.537c-.094-.421-.281-.515-.655-.515a24.36 24.36 0 0 1-2.62 0c-.514-.047-.561.14-.421.562l1.544 6.175c.14.514.094.701-.515.654a87.401 87.401 0 0 0-4.911 0c-.515 0-.702-.14-.796-.608-.514-2.105-1.029-4.163-1.543-6.221-.094-.422-.234-.562-.702-.562-2.573.047-5.099 0-7.672 0-.187 0-.374.094-.515-.14 1.263-1.544 2.526-3.134 3.883-4.772h-3.134c-.374 0-.655.094-.889.421-1.17 1.404-2.386 2.76-3.602 4.117-.234.281-.468.421-.889.421h-6.877c-.374 0-.655-.094-.888-.374-1.17-1.404-2.386-2.76-3.603-4.117-.14-.187-.233-.421-.514-.421h-3.509c1.357 1.684 2.62 3.275 3.977 4.912h-8.234c-.467 0-.701.093-.795.608-.468 2.012-1.029 3.976-1.45 5.941-.14.702-.421.889-1.123.842a76.068 76.068 0 0 0-4.631 0c-.561 0-.702-.093-.515-.655.562-2.058 1.03-4.116 1.591-6.175.14-.468 0-.608-.468-.561-.748.047-1.544.047-2.339 0-.608-.047-.842.14-.982.748-.983 4.024-2.012 8.047-2.994 12.07-.187.795-.187.795.561.795h8.514c.468 0 .608.094.468.608-.374 1.263-.608 2.526-.982 3.789-.141.515 0 .562.467.562h7.813c.234 0 .467-.094.701.093-2.105 2.386-4.21 4.772-6.362 7.251h5.427c.234 0 .327-.234.468-.374a365.01 365.01 0 0 0 5.286-6.549c.28-.328.561-.468.982-.468h12.911c.515 0 .796.14 1.123.514 1.731 2.152 3.462 4.257 5.193 6.363.14.187.28.467.561.467h5.427a484.085 484.085 0 0 1-6.456-7.391H51.4c-.421-1.637-.796-3.228-1.217-4.912h9.216c.515 0 .749 0 .608-.561Zm-37.564-3.181h-5.286c-.328 0-.422-.094-.422-.421v-5.333c0-.328.094-.421.422-.421h5.286c.421 0 .514.187.467.561v5.099c.047.374-.046.562-.467.515Zm20.396 0h-5.286c-.328 0-.421-.047-.421-.421v-5.333c0-.328.093-.421.421-.421h5.286c.374 0 .468.093.468.468v5.239c.046.421-.141.515-.468.468ZM200.254 6.041v-.843c-.14-2.011-1.029-3.555-2.9-4.397-1.684-.748-3.415-.889-5.193-.468-2.619.655-4.023 2.246-4.257 4.865-.14 1.685-.093 3.369-.046 5.053 0 .514-.094.701-.655.655-.655-.047-1.357 0-2.106 0 .281.982.609 1.871.796 2.806.14.702.468.936 1.122.843.702-.141.843.187.796.842 0 8.747 0 17.542-.047 26.29 0 .515.094.749.655.702a13.058 13.058 0 0 1 1.918 0c.655.093.795-.187.795-.796 0-8.747 0-17.542-.047-26.29 0-.655.187-.748.749-.748 1.45.046 2.9.046 4.35 0 .562 0 .702.14.702.701v26.618c0 .421.094.515.515.515a15.73 15.73 0 0 1 2.105 0c.608.047.795-.094.748-.749V6.041Zm-3.929 4.818c-.749-.047-1.544 0-2.339 0h-2.48c-.327 0-.421-.094-.421-.421V5.76c0-.655.328-1.17.936-1.45 1.31-.655 2.62-.655 3.93-.047.654.327.982.842.982 1.59 0 1.497-.047 2.994 0 4.491 0 .468-.187.562-.608.515Zm-25.355-4.21c-6.409-7.345-16.981-8.421-24.607-2.433-5.52 4.351-7.952 10.292-8.139 16.701.047 6.409 1.918 11.601 5.988 15.858 6.268 6.643 15.765 7.719 23.156 2.62 5.426-3.743 8.327-9.076 8.982-15.531.655-6.503-1.076-12.303-5.38-17.215Zm-1.965 26.664c-6.783 8.093-18.385 7.392-24.279-1.403-2.058-3.088-3.134-6.549-3.134-11.414.093-4.632 2.105-9.497 6.643-13.146 6.502-5.192 15.25-4.116 20.723 2.339 5.52 6.596 5.567 17.028.047 23.624ZM134.949 18.39c.14-4.303-1.123-8.326-3.555-11.928-1.778-2.62-4.21-4.445-7.391-5.193-1.918-.468-3.883-.281-5.801-.374-.655 0-.795.187-.795.795v40.137c-.047.328.093.468.421.421a15.363 15.363 0 0 1 2.058 0c.608.047.795-.093.795-.748-.047-2.339 0-4.725 0-7.064 0-.187-.14-.561.234-.561.561-.047 1.076-.094 1.591.468 2.151 2.526 4.35 5.005 6.549 7.484.14.187.28.421.608.421h4.163c-2.853-3.227-5.613-6.408-8.42-9.59 1.31-.467 2.479-1.029 3.508-1.871 3.883-3.181 5.848-7.391 6.035-12.397Zm-12.537 11.649c-.187.047-.374.047-.561.047-1.123 0-1.217-.094-1.217-1.217V4.871c0-.515.141-.655.655-.702 2.059-.187 3.836.421 5.38 1.778 4.023 3.508 6.877 10.806 4.257 17.075-1.591 3.836-4.397 6.268-8.514 7.017ZM81.666 18.344c.141-4.304-1.169-8.28-3.555-11.882-1.778-2.62-4.21-4.491-7.391-5.24-1.918-.468-3.93-.281-5.894-.374-.655 0-.749.187-.749.748v40.231c-.047.328.094.421.374.375.749 0 1.451-.047 2.199 0 .515.046.655-.094.655-.655-.047-2.386 0-4.772 0-7.158 0-.187-.14-.561.187-.561.515-.047 1.076-.187 1.544.374 2.198 2.526 4.397 5.052 6.596 7.532.14.187.234.421.514.421h4.257c-2.853-3.228-5.613-6.409-8.42-9.59 1.357-.468 2.479-1.029 3.508-1.871 3.977-3.088 5.988-7.345 6.175-12.35Zm-12.49 11.695c-.14.047-.281.047-.421.047-1.216.093-1.403-.094-1.403-1.31V4.871c0-.468.093-.608.608-.655 2.058-.187 3.883.421 5.426 1.778 4.023 3.508 6.83 10.806 4.257 16.981-1.59 3.836-4.35 6.268-8.467 7.064Zm152.27-11.649c.14-4.303-1.123-8.326-3.556-11.928-1.777-2.62-4.21-4.445-7.391-5.24-1.918-.468-3.883-.281-5.801-.374-.608 0-.795.14-.795.795v39.95c-.093.515.047.702.608.655a13.341 13.341 0 0 1 1.918 0c.608.047.702-.14.702-.748-.047-2.339 0-4.725 0-7.064 0-.187-.14-.561.187-.561.561-.047 1.076-.141 1.591.468 2.152 2.526 4.35 5.005 6.549 7.484.14.187.281.421.608.421h4.163c-2.853-3.227-5.613-6.408-8.42-9.59 1.31-.467 2.479-1.029 3.509-1.871 3.929-3.181 5.941-7.391 6.128-12.397Zm-12.537 11.649c-.141.047-.281.047-.421.047-1.17.046-1.357-.094-1.357-1.264V4.918c0-.468.094-.655.608-.702 2.058-.187 3.836.421 5.38 1.778 4.023 3.508 6.877 10.806 4.304 17.075-1.591 3.789-4.398 6.174-8.514 6.97Z" style="fill:#fff"/>
</svg>
