<svg viewBox="0 0 631 165" xmlns="http://www.w3.org/2000/svg" width="631.002" height="164.725">
    <path d="M99.679 5.029C90.994 1.83 81.847 0 72.245 0 58.986 0 47.556 2.745 37.95 8.233c-9.598 5.943-14.63 12.344-14.63 20.119l.458.914c.455 10.057 7.316 17.831 21.488 23.319l26.523-23.32c-5.032 0-9.602-.913-13.261-2.745-3.66-1.828-5.488-4.115-5.488-7.315l1.828-4.115c3.204-3.66 9.147-5.488 16.921-5.488 7.771 0 13.259 1.828 16.46 5.488l11.43-10.061" style="fill:#fff"/>
    <path d="M120.715 30.18c-9.606-7.775-20.119-12.803-32.466-15.09l-16.46 14.176c6.857.455 13.259 2.286 18.288 5.942 5.032 4.115 7.319 9.147 7.319 14.631l-.46 3.201c-1.372 5.032-4.114 9.147-8.687 12.348-5.03 3.2-10.517 4.573-16.918 4.573-6.86 0-12.345-1.831-17.373-5.032-5.033-3.2-7.775-7.315-8.692-12.344L0 91.908c3.66 15.09 12.344 27.434 25.606 37.036 13.262 9.603 28.807 14.631 46.183 14.631 20.116 0 37.492-6.398 51.668-18.745 14.176-12.803 21.491-28.349 21.491-46.184 0-19.204-8.233-35.208-24.233-48.466m82.302-16.918c25.15 0 37.495 12.803 37.495 38.864h-25.606c0-11.43-3.2-16.918-10.057-16.918-5.947 0-8.689 3.201-8.689 9.603 0 4.573 3.201 8.688 9.6 12.803l11.433 7.315c7.77 5.032 13.717 10.061 16.918 14.176 4.115 5.946 6.401 13.262 6.401 21.033 0 13.261-2.286 22.405-6.86 28.348-5.029 5.946-14.172 9.147-27.434 9.147-14.172 0-24.692-3.66-30.635-11.43-5.487-6.86-8.233-16.922-8.233-31.094h26.524c-1.373 13.258 2.742 19.66 12.344 19.66 5.029 0 7.774-2.742 7.774-8.689 0-4.57-1.373-8.23-3.66-10.971l-8.229-6.402-11.43-6.86c-14.176-8.685-21.033-19.66-21.033-33.377 0-9.602 2.287-17.376 6.402-23.32 5.943-7.773 14.63-11.888 26.975-11.888m174.211 30.176c9.147 0 15.548 3.204 19.204 10.06 4.574-6.856 10.975-10.515 19.205-10.515 4.114 0 8.688 1.372 12.803 4.114 5.946 3.201 8.688 8.689 8.688 16.004v71.33h-25.606V76.36l-.914-7.771c-.459-2.287-2.287-3.66-5.488-3.66-3.2 0-5.487 1.373-6.401 3.66l-.455 7.77v58.073h-25.607V76.818l-.458-8.23c-.914-2.286-2.742-3.2-5.943-3.2-3.2 0-5.029 1.373-5.488 3.656l-.458 7.316v58.072h-26.062V45.725h24.692v7.774l2.287-2.287c4.57-5.029 10.058-7.774 16-7.774m253.775 1.832-20.119 90.535c-3.2 13.258-8.23 21.946-15.09 26.061-3.66 2.287-9.147 3.2-16.004 2.745l-9.147-.917V144.49l7.775.458c3.66-.458 4.573-5.029 2.286-13.262L561.5 45.27h26.979l7.315 54.41 8.689-54.41h26.52m-137.175-1.373c9.143 0 15.545 3.2 18.745 9.602 5.03-6.857 11.89-10.061 19.664-10.061 4.115 0 8.685 1.373 12.803 3.66 5.943 3.659 8.685 9.143 8.685 16.003v71.33h-26.062V76.819l-.455-7.774c-.459-2.283-2.287-3.656-5.49-3.656-3.202 0-5.485 1.373-6.402 3.656l-.456 7.774v57.614h-25.606V77.277l-.455-8.233c-.459-2.283-2.746-3.656-5.946-3.656-3.201 0-5.03 1.373-5.488 4.115l-.459 7.315v58.073h-26.061V46.183h24.692v7.775l2.287-2.746c4.573-5.029 10.057-7.315 16.004-7.315M318.703 68.13v48.925l.456 11.43c.455 3.201.914 5.488 2.286 7.32H295.84l-3.2-6.402-5.488 3.656c-4.115 3.2-8.23 5.029-12.344 5.029-8.689 0-15.09-2.283-19.664-6.402-5.028-4.114-7.315-9.598-7.315-17.373 0-8.688 1.828-15.09 5.029-20.118 2.745-4.574 7.774-8.233 15.548-10.517l12.344-4.573c6.86-2.287 10.517-5.029 10.975-7.774.456-3.201 0-5.943-1.828-8.23-1.372-2.287-3.66-3.2-5.946-2.742-3.656 0-5.943 1.828-7.315 5.029l-1.373 8.23h-26.975c.455-13.259 5.028-21.947 13.713-26.976 5.491-3.204 13.262-4.573 23.323-4.573 8.688 0 15.545.914 19.66 2.742 9.147 3.66 13.72 11.43 13.72 23.319m-26.065 24.237-10.06 4.57c-5.943 3.2-8.685 7.315-8.23 12.344 0 4.118 1.828 7.32 5.946 8.692 3.198.91 5.943.455 8.23-1.373 2.286-2.287 3.656-5.487 4.114-10.52V92.367" style="fill:#fff"/>
</svg>
