<?xml version="1.0" encoding="UTF-8"?>
<svg width="458px" height="113px" viewBox="0 0 458 113" version="1.1" xmlns="http://www.w3.org/2000/svg" xmlns:xlink="http://www.w3.org/1999/xlink">
    <title>saturn</title>
    <defs>
        <polygon id="path-1" points="0 0 457.474 0 457.474 112 0 112"></polygon>
        <linearGradient x1="48.7172772%" y1="28.5182658%" x2="49.2254609%" y2="65.3377274%" id="linearGradient-3">
            <stop stop-color="#FE2906" offset="0%"></stop>
            <stop stop-color="#FFFFFF" offset="100%"></stop>
        </linearGradient>
    </defs>
    <g id="Page-1" stroke="none" stroke-width="1" fill="none" fill-rule="evenodd" opacity="0.78">
        <g id="Sega-Saturn" transform="translate(-91.000000, -4.000000)">
            <g id="saturn" transform="translate(91.232141, 4.140772)">
                <mask id="mask-2" fill="white">
                    <use xlink:href="#path-1"></use>
                </mask>
                <g id="Path"></g>
                <g id="Group" mask="url(#mask-2)" fill-rule="nonzero">
                    <g transform="translate(0.000000, 1.000263)">
                        <path d="M159.498,29.3283826 C158.765,29.6953826 156.062,34.1393826 151.113,43.1663826 C147.127,50.4513826 143.415,56.8663826 142.911,57.3703826 C142.087,58.2413826 141.308,58.2863826 132.006,58.4243826 C124.355,58.5153826 121.926,58.6993826 121.743,59.1573826 C121.376,60.0733826 121.972,60.6693826 123.896,61.1733826 C129.441,62.7313826 131.961,67.6343826 129.715,72.5823826 C127.654,77.1183826 120.231,79.0433826 115.007,76.3853826 C110.563,74.1403826 108.363,68.5503826 107.859,58.2863826 C107.355,48.7103826 108.73,41.7913826 111.708,38.6763826 C114.687,35.5143826 119.956,34.4603826 125.683,35.7893826 C130.174,36.8433826 132.969,38.4463826 136.955,42.2493826 C140.529,45.6863826 142.499,46.6023826 142.499,44.9073826 C142.499,43.4413826 138.33,31.5743826 137.596,30.9783826 C137.047,30.4743826 136.405,30.5653826 133.931,31.4363826 C131.09,32.4903826 130.769,32.4903826 126.92,31.9403826 C122.064,31.2533826 114.503,31.5283826 110.654,32.5823826 C106.989,33.5903826 101.949,35.9723826 99.566,37.7593826 C98.466,38.5843826 97.504,39.2713826 97.367,39.2713826 C97.229,39.2713826 96.405,37.7593826 95.488,35.9263826 C94.572,34.1393826 93.564,32.4903826 93.289,32.3073826 C93.014,32.1233826 83.621,31.9403826 72.395,31.9403826 C61.169,31.9403826 49.119,31.7113826 45.591,31.4363826 C35.923,30.7033826 19.153,30.6573826 15.533,31.3903826 C11.134,32.3073826 7.423,34.5063826 5.728,37.2093826 C4.582,39.0423826 4.353,39.9133826 4.353,42.2043826 C4.399,48.2983826 8.248,52.1923826 20.344,58.3323826 C29.737,63.1433826 32.99,65.8923826 32.99,69.0083826 C32.99,71.1623826 31.753,72.8573826 29.187,74.2323826 C27.583,75.0563826 26.53,75.2403826 23.139,75.2403826 C17.274,75.1943826 15.625,74.3233826 1.925,63.8763826 C1.283,63.3723826 0,64.2433826 0,65.2513826 C0,65.6173826 1.787,69.1003826 3.986,72.9943826 C8.339,80.6923826 8.614,80.9213826 11.867,80.0513826 C13.196,79.7303826 17.045,79.6383826 24.193,79.8673826 C32.899,80.0963826 35.098,80.0513826 37.71,79.4093826 C45.591,77.5313826 49.027,73.9573826 49.027,67.5423826 C49.027,63.9683826 48.202,61.4483826 46.003,58.4703826 C43.895,55.5833826 40.55,53.2003826 31.157,48.0233826 C22.681,43.3033826 20.161,41.1503826 20.161,38.6763826 C20.161,37.6223826 20.527,36.7973826 21.352,36.0183826 C22.452,34.9643826 22.818,34.9183826 27.858,34.9643826 C34.136,35.0563826 41.925,36.8433826 46.507,39.2253826 C52.555,42.3413826 52.234,41.2413826 52.234,59.1113826 C52.234,69.0543826 52.051,74.4613826 51.73,75.1023826 C51.456,75.6063826 50.356,76.3853826 49.256,76.8893826 C47.148,77.8053826 46.507,78.7223826 47.332,79.5473826 C47.698,79.9133826 54.434,80.0513826 70.791,80.0513826 C89.761,80.0513826 93.884,79.9593826 94.663,79.4093826 C95.167,79.0433826 96.038,77.7143826 96.634,76.4773826 L97.688,74.1863826 L100.208,75.9273826 C101.536,76.8893826 104.011,78.2183826 105.614,78.8593826 C111.617,81.2423826 121.468,82.1133826 127.15,80.7383826 C129.12,80.2803826 132.877,80.0963826 140.758,80.0513826 C151.205,80.0513826 153.954,79.7763826 153.954,78.6303826 C153.954,78.3553826 153.358,77.3933826 152.579,76.5233826 C151.755,75.6063826 151.205,74.4613826 151.205,73.7283826 C151.205,72.3993826 163.622,48.6183826 164.263,48.7563826 C164.859,48.8933826 175.031,71.8493826 175.031,73.0403826 C175.031,74.7813826 174.252,75.8353826 172.282,76.8433826 C170.266,77.8513826 169.945,78.8143826 171.32,79.5923826 C172.282,80.0963826 186.807,80.2343826 188.044,79.7763826 C189.373,79.2723826 188.869,77.8053826 186.99,76.8433826 C185.982,76.3393826 184.516,75.0113826 183.783,73.9113826 C183.004,72.8113826 178.147,62.5483826 172.969,51.0933826 C167.792,39.6843826 163.118,29.9703826 162.568,29.5123826 C161.468,28.5953826 160.964,28.5493826 159.498,29.3283826 L159.498,29.3283826 Z M81.788,36.7513826 C85.087,37.6223826 90.356,40.1883826 92.464,41.9293826 L93.976,43.1663826 L92.831,45.6863826 C92.189,47.0613826 91.41,49.3523826 91.135,50.7263826 C90.402,54.2543826 90.86,61.3103826 92.006,64.7013826 L92.968,67.4503826 L91.502,68.9163826 C86.782,73.6363826 75.098,77.4853826 70.379,75.9273826 C67.767,75.0563826 67.447,74.1863826 67.126,66.7633826 C66.759,59.1573826 67.08,57.5993826 68.959,57.5993826 C70.791,57.5993826 76.381,60.1653826 80.139,62.6853826 C81.971,63.9683826 83.804,64.8843826 84.125,64.7473826 C84.675,64.5183826 84.766,62.8223826 84.675,55.2163826 C84.537,44.4033826 84.812,44.8153826 79.818,48.1603826 C76.198,50.5433826 70.7,53.0173826 68.959,53.0173826 C67.126,53.0173826 66.759,51.4133826 67.126,44.5403826 C67.447,38.2633826 67.905,36.8433826 69.783,36.0183826 C71.158,35.4223826 78.443,35.8813826 81.788,36.7513826 L81.788,36.7513826 Z M209.762,71.8493826 L210.312,80.0513826 L218.285,80.0513826 C222.683,80.0513826 226.578,79.9133826 226.99,79.7763826 C228.044,79.3633826 227.907,78.6303826 226.349,76.8433826 C225.616,75.9733826 225.02,74.6903826 224.974,74.0023826 C224.974,73.0403826 236.613,49.5813826 237.758,48.3433826 C238.262,47.7943826 248.801,71.5743826 248.801,73.3153826 C248.801,74.9653826 248.709,75.1023826 245.181,77.7143826 C244.448,78.2643826 244.173,78.8143826 244.356,79.2723826 C244.631,80.0053826 246.51,80.0513826 265.387,80.0053826 C276.796,80.0053826 286.556,79.8223826 287.06,79.6383826 C287.885,79.3183826 287.747,79.0883826 285.731,77.2563826 C282.066,73.9113826 282.249,75.0563826 282.249,53.9333826 L282.249,35.1023826 L284.677,35.4223826 C291.688,36.2473826 296.865,37.9423826 298.836,40.0503826 C299.889,41.1503826 299.889,41.2873826 300.119,54.5293826 C300.348,66.9923826 300.394,68.0463826 301.356,70.0623826 C304.334,76.5233826 311.161,80.2803826 320.967,80.8303826 C329.26,81.2883826 336.545,79.3183826 340.211,75.6983826 C343.968,71.9413826 344.564,68.5963826 344.564,50.9093826 C344.564,38.6763826 344.609,37.9423826 345.48,36.8433826 C346.763,35.2393826 349.65,34.8273826 352.216,35.8353826 C355.652,37.2093826 355.56,36.7053826 355.56,55.8583826 C355.56,75.2403826 355.652,74.8273826 351.803,76.8893826 C350.52,77.6223826 349.833,78.3103826 349.833,78.9053826 C349.833,79.7763826 350.199,79.8223826 362.204,79.9593826 C369.031,80.0053826 375.034,79.9593826 375.629,79.8223826 C377.279,79.4093826 376.775,78.3553826 374.163,76.7973826 C372.789,75.9733826 371.46,74.8273826 371.185,74.2323826 C370.864,73.4983826 370.681,66.9003826 370.681,54.8503826 L370.681,36.5683826 L371.872,35.6513826 C373.293,34.5523826 377.416,34.3233826 380.532,35.1933826 C382.823,35.8353826 385.114,38.1263826 385.755,40.4173826 C386.534,43.2123826 386.351,47.4733826 385.389,49.6263826 C384.014,52.6053826 382.136,53.6593826 377.554,53.9333826 C373.797,54.1633826 373.659,54.2083826 373.522,55.3543826 C373.43,55.9953826 374.026,58.2413826 374.805,60.3483826 C380.532,76.1103826 392.491,83.2583826 413.064,83.2583826 C420.762,83.2583826 421.907,82.5713826 417.875,80.5093826 C416.867,80.0053826 415.859,79.1803826 415.584,78.6763826 C415.263,78.1263826 415.172,73.4983826 415.217,65.6633826 L415.355,53.5213826 L431.621,66.3963826 C449.857,80.7843826 451.186,81.7463826 451.782,81.1503826 C452.056,80.8753826 452.286,71.7113826 452.331,59.2493826 L452.469,37.8053826 L455.172,35.3773826 C457.784,33.0863826 457.876,32.9483826 456.913,32.4443826 C455.447,31.6653826 443.03,31.7573826 441.884,32.5823826 C441.426,32.9483826 441.106,33.3153826 441.243,33.4063826 C441.38,33.4983826 442.343,34.2313826 443.351,35.0563826 C444.405,35.8353826 445.504,37.0723826 445.779,37.7593826 C446.146,38.6303826 446.283,42.4793826 446.192,49.7643826 L446.054,60.4403826 L438.265,53.9333826 C425.069,42.8913826 419.341,38.9963826 409.765,34.3683826 C403.671,31.4363826 399.547,30.6113826 399.547,32.3523826 C399.547,32.9943826 400.784,34.6893826 402.755,36.7513826 C408.299,42.5703826 408.711,44.4953826 408.711,63.1433826 C408.711,78.2183826 408.711,78.1723826 405.962,77.2563826 C401.38,75.6523826 396.981,71.9413826 393.774,67.0843826 C392.583,65.2513826 390.658,62.5023826 389.421,60.9903826 L387.222,58.1493826 L389.146,57.8743826 C396.34,56.7283826 400.784,51.2303826 400.372,44.0823826 C400.005,38.4013826 397.394,35.1023826 391.758,33.2233826 C388.825,32.2153826 388.184,32.2153826 361.517,32.0783826 C343.006,31.9863826 334.025,32.0783826 333.567,32.3983826 C332.971,32.8113826 333.2,33.1773826 334.758,34.5983826 C335.812,35.5143826 336.912,36.7513826 337.187,37.3013826 C337.507,37.9883826 337.691,42.9373826 337.691,52.5593826 C337.691,66.7633826 337.691,66.8093826 336.545,69.0083826 C335.171,71.8033826 331.688,74.8733826 329.581,75.2853826 C327.015,75.7893826 321.929,75.1483826 319.913,74.1403826 C317.668,72.9943826 315.881,70.9333826 315.239,68.6873826 C314.964,67.6793826 314.781,61.1733826 314.781,52.8803826 C314.781,37.2093826 314.781,37.2553826 317.805,34.8273826 C318.813,34.0023826 319.363,33.2693826 319.18,32.9483826 C318.95,32.5363826 310.016,32.3983826 284.128,32.3983826 C244.494,32.3983826 248.892,31.8483826 246.555,37.0723826 C244.631,41.3793826 245.227,41.6083826 251.137,38.8593826 C254.986,37.0723826 259.11,35.9723826 264.059,35.3773826 L266.67,35.1023826 L266.67,53.9333826 C266.67,69.8333826 266.579,72.9943826 265.983,74.0943826 C265.112,75.7893826 264.013,76.3853826 261.676,76.3853826 C258.239,76.3853826 257.919,75.8353826 247.151,52.3303826 C241.744,40.5083826 236.979,30.4283826 236.567,30.0163826 C235.559,28.8703826 233.818,29.0083826 232.626,30.2913826 C231.756,31.2533826 228.686,36.7973826 213.29,65.2973826 L209.762,71.8493826 L209.762,71.8493826 Z" id="Shape" fill="#FFFFFF"></path>
                        <path d="M202.294,0.7373826 C197.162,2.1113826 194.092,3.4403826 190.518,5.7773826 C186.578,8.3433826 181.263,13.7953826 179.521,17.0953826 C177.139,21.4933826 176.268,29.0533826 177.322,36.0643826 C177.78,39.1343826 185.111,59.7533826 189.006,68.8253826 C193.267,78.9053826 194.459,87.1533826 192.397,92.6053826 C190.976,96.5003826 187.357,101.678383 182.775,106.397383 C179.796,109.467383 178.651,110.933383 178.88,111.483383 C179.246,112.445383 180.392,112.170383 185.89,109.742383 C191.48,107.313383 197.483,103.327383 201.515,99.3413826 C206.097,94.8053826 208.479,89.7193826 210.083,81.2883826 L210.312,80.0513826 C210.371,76.8983826 210.181,74.1773826 209.762,71.8493826 L208.479,68.2753826 C207.792,66.3053826 204.539,58.1033826 201.24,50.0393826 C194.963,34.6433826 192.901,28.0913826 192.901,23.4633826 C192.901,20.0273826 193.909,16.0413826 195.558,12.9713826 C197.024,10.2223826 202.34,4.7693826 205.409,2.8453826 C207.655,1.4243826 208.067,0.1873826 206.417,0.00438259957 C205.913,-0.0416174004 204.081,0.2793826 202.294,0.7373826 Z" id="Path" fill="url(#linearGradient-3)"></path>
                    </g>
                </g>
            </g>
        </g>
    </g>
</svg>