<?xml version="1.0" encoding="UTF-8" standalone="no"?>
<!DOCTYPE svg PUBLIC "-//W3C//DTD SVG 1.1//EN" "http://www.w3.org/Graphics/SVG/1.1/DTD/svg11.dtd">
<svg width="100%" height="100%" viewBox="0 0 458 112" version="1.1" xmlns="http://www.w3.org/2000/svg" xmlns:xlink="http://www.w3.org/1999/xlink" xml:space="preserve" xmlns:serif="http://www.serif.com/" style="fill-rule:evenodd;clip-rule:evenodd;stroke-linejoin:round;stroke-miterlimit:2;">
    <g transform="matrix(1,0,0,1,-91,-4)">
        <g transform="matrix(0.0458196,0,0,-0.0458196,90.8046,116.125)">
            <path d="M3491,1807C3475,1799 3416,1702 3308,1505C3221,1346 3140,1206 3129,1195C3111,1176 3094,1175 2891,1172C2724,1170 2671,1166 2667,1156C2659,1136 2672,1123 2714,1112C2835,1078 2890,971 2841,863C2796,764 2634,722 2520,780C2423,829 2375,951 2364,1175C2353,1384 2383,1535 2448,1603C2513,1672 2628,1695 2753,1666C2851,1643 2912,1608 2999,1525C3077,1450 3120,1430 3120,1467C3120,1499 3029,1758 3013,1771C3001,1782 2987,1780 2933,1761C2871,1738 2864,1738 2780,1750C2674,1765 2509,1759 2425,1736C2345,1714 2235,1662 2183,1623C2159,1605 2138,1590 2135,1590C2132,1590 2114,1623 2094,1663C2074,1702 2052,1738 2046,1742C2040,1746 1835,1750 1590,1750C1345,1750 1082,1755 1005,1761C794,1777 428,1778 349,1762C253,1742 172,1694 135,1635C110,1595 105,1576 105,1526C106,1393 190,1308 454,1174C659,1069 730,1009 730,941C730,894 703,857 647,827C612,809 589,805 515,805C387,806 351,825 52,1053C38,1064 10,1045 10,1023C10,1015 49,939 97,854C192,686 198,681 269,700C298,707 382,709 538,704C728,699 776,700 833,714C1005,755 1080,833 1080,973C1080,1051 1062,1106 1014,1171C968,1234 895,1286 690,1399C505,1502 450,1549 450,1603C450,1626 458,1644 476,1661C500,1684 508,1685 618,1684C755,1682 925,1643 1025,1591C1157,1523 1150,1547 1150,1157C1150,940 1146,822 1139,808C1133,797 1109,780 1085,769C1039,749 1025,729 1043,711C1051,703 1198,700 1555,700C1969,700 2059,702 2076,714C2087,722 2106,751 2119,778L2142,828L2197,790C2226,769 2280,740 2315,726C2446,674 2661,655 2785,685C2828,695 2910,699 3082,700C3310,700 3370,706 3370,731C3370,737 3357,758 3340,777C3322,797 3310,822 3310,838C3310,867 3581,1386 3595,1383C3608,1380 3830,879 3830,853C3830,815 3813,792 3770,770C3726,748 3719,727 3749,710C3770,699 4087,696 4114,706C4143,717 4132,749 4091,770C4069,781 4037,810 4021,834C4004,858 3898,1082 3785,1332C3672,1581 3570,1793 3558,1803C3534,1823 3523,1824 3491,1807ZM1795,1645C1867,1626 1982,1570 2028,1532L2061,1505L2036,1450C2022,1420 2005,1370 1999,1340C1983,1263 1993,1109 2018,1035L2039,975L2007,943C1904,840 1649,756 1546,790C1489,809 1482,828 1475,990C1467,1156 1474,1190 1515,1190C1555,1190 1677,1134 1759,1079C1799,1051 1839,1031 1846,1034C1858,1039 1860,1076 1858,1242C1855,1478 1861,1469 1752,1396C1673,1344 1553,1290 1515,1290C1475,1290 1467,1325 1475,1475C1482,1612 1492,1643 1533,1661C1563,1674 1722,1664 1795,1645Z" style="fill:white;fill-rule:nonzero;"/>
            <g>
                <path d="M4588,879L4600,700L4774,700C4870,700 4955,703 4964,706C4987,715 4984,731 4950,770C4934,789 4921,817 4920,832C4920,853 5174,1365 5199,1392C5210,1404 5440,885 5440,847C5440,811 5438,808 5361,751C5345,739 5339,727 5343,717C5349,701 5390,700 5802,701C6051,701 6264,705 6275,709C6293,716 6290,721 6246,761C6166,834 6170,809 6170,1270L6170,1681L6223,1674C6376,1656 6489,1619 6532,1573C6555,1549 6555,1546 6560,1257C6565,985 6566,962 6587,918C6652,777 6801,695 7015,683C7196,673 7355,716 7435,795C7517,877 7530,950 7530,1336C7530,1603 7531,1619 7550,1643C7578,1678 7641,1687 7697,1665C7772,1635 7770,1646 7770,1228C7770,805 7772,814 7688,769C7660,753 7645,738 7645,725C7645,706 7653,705 7915,702C8064,701 8195,702 8208,705C8244,714 8233,737 8176,771C8146,789 8117,814 8111,827C8104,843 8100,987 8100,1250L8100,1649L8126,1669C8157,1693 8247,1698 8315,1679C8365,1665 8415,1615 8429,1565C8446,1504 8442,1411 8421,1364C8391,1299 8350,1276 8250,1270C8168,1265 8165,1264 8162,1239C8160,1225 8173,1176 8190,1130C8315,786 8576,630 9025,630C9193,630 9218,645 9130,690C9108,701 9086,719 9080,730C9073,742 9071,843 9072,1014L9075,1279L9430,998C9828,684 9857,663 9870,676C9876,682 9881,882 9882,1154L9885,1622L9944,1675C10001,1725 10003,1728 9982,1739C9950,1756 9679,1754 9654,1736C9644,1728 9637,1720 9640,1718C9643,1716 9664,1700 9686,1682C9709,1665 9733,1638 9739,1623C9747,1604 9750,1520 9748,1361L9745,1128L9575,1270C9287,1511 9162,1596 8953,1697C8820,1761 8730,1779 8730,1741C8730,1727 8757,1690 8800,1645C8921,1518 8930,1476 8930,1069C8930,740 8930,741 8870,761C8770,796 8674,877 8604,983C8578,1023 8536,1083 8509,1116L8461,1178L8503,1184C8660,1209 8757,1329 8748,1485C8740,1609 8683,1681 8560,1722C8496,1744 8482,1744 7900,1747C7496,1749 7300,1747 7290,1740C7277,1731 7282,1723 7316,1692C7339,1672 7363,1645 7369,1633C7376,1618 7380,1510 7380,1300C7380,990 7380,989 7355,941C7325,880 7249,813 7203,804C7147,793 7036,807 6992,829C6943,854 6904,899 6890,948C6884,970 6880,1112 6880,1293C6880,1635 6880,1634 6946,1687C6968,1705 6980,1721 6976,1728C6971,1737 6776,1740 6211,1740C5346,1740 5442,1752 5391,1638C5349,1544 5362,1539 5491,1599C5575,1638 5665,1662 5773,1675L5830,1681L5830,1270C5830,923 5828,854 5815,830C5796,793 5772,780 5721,780C5646,780 5639,792 5404,1305C5286,1563 5182,1783 5173,1792C5151,1817 5113,1814 5087,1786C5068,1765 5001,1644 4665,1022L4588,879Z" style="fill:white;fill-rule:nonzero;"/>
                <path d="M4425,2431C4313,2401 4246,2372 4168,2321C4082,2265 3966,2146 3928,2074C3876,1978 3857,1813 3880,1660C3890,1593 4050,1143 4135,945C4228,725 4254,545 4209,426C4178,341 4099,228 3999,125C3934,58 3909,26 3914,14C3922,-7 3947,-1 4067,52C4189,105 4320,192 4408,279C4508,378 4560,489 4595,673L4600,700C4601.29,768.796 4597.13,828.182 4588,879L4560,957C4545,1000 4474,1179 4402,1355C4265,1691 4220,1834 4220,1935C4220,2010 4242,2097 4278,2164C4310,2224 4426,2343 4493,2385C4542,2416 4551,2443 4515,2447C4504,2448 4464,2441 4425,2431Z" style="fill:white;fill-rule:nonzero;"/>
            </g>
        </g>
    </g>
</svg>
