<svg viewBox="0 0 459 113" xmlns="http://www.w3.org/2000/svg" xml:space="preserve" style="fill-rule:evenodd;clip-rule:evenodd;stroke-linejoin:round;stroke-miterlimit:2">
    <clipPath id="a">
        <path d="M.532.984h457.474v112H.532z"/>
    </clipPath>
    <g clip-path="url(#a)">
        <path d="M160.03 30.313c-.733.367-3.436 4.811-8.385 13.838-3.986 7.285-7.698 13.7-8.202 14.204-.824.871-1.603.916-10.905 1.054-7.651.091-10.08.275-10.263.733-.367.916.229 1.512 2.153 2.016 5.545 1.558 8.065 6.461 5.819 11.409-2.061 4.536-9.484 6.461-14.708 3.803-4.444-2.245-6.644-7.835-7.148-18.099-.504-9.576.871-16.495 3.849-19.61 2.979-3.162 8.248-4.216 13.975-2.887 4.491 1.054 7.286 2.657 11.272 6.46 3.574 3.437 5.544 4.353 5.544 2.658 0-1.466-4.169-13.333-4.903-13.929-.549-.504-1.191-.413-3.665.458-2.841 1.054-3.162 1.054-7.011.504-4.856-.687-12.417-.412-16.266.642-3.665 1.008-8.705 3.39-11.088 5.177-1.1.825-2.062 1.512-2.199 1.512-.138 0-.962-1.512-1.879-3.345-.916-1.787-1.924-3.436-2.199-3.619-.275-.184-9.668-.367-20.894-.367-11.226 0-23.276-.229-26.804-.504-9.668-.733-26.438-.779-30.058-.046-4.399.917-8.11 3.116-9.805 5.819-1.146 1.833-1.375 2.704-1.375 4.995.046 6.094 3.895 9.988 15.991 16.128 9.393 4.811 12.646 7.56 12.646 10.676 0 2.154-1.237 3.849-3.803 5.224-1.604.824-2.657 1.008-6.048 1.008-5.865-.046-7.514-.917-21.214-11.364-.642-.504-1.925.367-1.925 1.375 0 .366 1.787 3.849 3.986 7.743 4.353 7.698 4.628 7.927 7.881 7.057 1.329-.321 5.178-.413 12.326-.184 8.706.229 10.905.184 13.517-.458 7.881-1.878 11.317-5.452 11.317-11.867 0-3.574-.825-6.094-3.024-9.072-2.108-2.887-5.453-5.27-14.846-10.447-8.476-4.72-10.996-6.873-10.996-9.347 0-1.054.366-1.879 1.191-2.658 1.1-1.054 1.466-1.1 6.506-1.054 6.278.092 14.067 1.879 18.649 4.261 6.048 3.116 5.727 2.016 5.727 19.886 0 9.943-.183 15.35-.504 15.991-.274.504-1.374 1.283-2.474 1.787-2.108.916-2.749 1.833-1.924 2.658.366.366 7.102.504 23.459.504 18.97 0 23.093-.092 23.872-.642.504-.366 1.375-1.695 1.971-2.932l1.054-2.291 2.52 1.741c1.328.962 3.803 2.291 5.406 2.932 6.003 2.383 15.854 3.254 21.536 1.879 1.97-.458 5.727-.642 13.608-.687 10.447 0 13.196-.275 13.196-1.421 0-.275-.596-1.237-1.375-2.107-.824-.917-1.374-2.062-1.374-2.795 0-1.329 12.417-25.11 13.058-24.972.596.137 10.768 23.093 10.768 24.284 0 1.741-.779 2.795-2.749 3.803-2.016 1.008-2.337 1.971-.962 2.749.962.504 15.487.642 16.724.184 1.329-.504.825-1.971-1.054-2.933-1.008-.504-2.474-1.832-3.207-2.932-.779-1.1-5.636-11.363-10.814-22.818-5.177-11.409-9.851-21.123-10.401-21.581-1.1-.917-1.604-.963-3.07-.184Zm-77.71 7.423c3.299.871 8.568 3.437 10.676 5.178l1.512 1.237-1.145 2.52c-.642 1.375-1.421 3.666-1.696 5.04-.733 3.528-.275 10.584.871 13.975l.962 2.749-1.466 1.466c-4.72 4.72-16.404 8.569-21.123 7.011-2.612-.871-2.932-1.741-3.253-9.164-.367-7.606-.046-9.164 1.833-9.164 1.832 0 7.422 2.566 11.18 5.086 1.832 1.283 3.665 2.199 3.986 2.062.55-.229.641-1.925.55-9.531-.138-10.813.137-10.401-4.857-7.056-3.62 2.383-9.118 4.857-10.859 4.857-1.833 0-2.2-1.604-1.833-8.477.321-6.277.779-7.697 2.657-8.522 1.375-.596 8.66-.137 12.005.733Zm127.974 35.098.55 8.202h7.973c4.398 0 8.293-.138 8.705-.275 1.054-.413.917-1.146-.641-2.933-.733-.87-1.329-2.153-1.375-2.841 0-.962 11.639-24.421 12.784-25.659.504-.549 11.043 23.231 11.043 24.972 0 1.65-.092 1.787-3.62 4.399-.733.55-1.008 1.1-.825 1.558.275.733 2.154.779 21.031.733 11.409 0 21.169-.183 21.673-.367.825-.32.687-.55-1.329-2.382-3.665-3.345-3.482-2.2-3.482-23.323V36.087l2.428.32c7.011.825 12.188 2.52 14.159 4.628 1.053 1.1 1.053 1.237 1.283 14.479.229 12.463.275 13.517 1.237 15.533 2.978 6.461 9.805 10.218 19.611 10.768 8.293.458 15.578-1.512 19.244-5.132 3.757-3.757 4.353-7.102 4.353-24.789 0-12.233.045-12.967.916-14.066 1.283-1.604 4.17-2.016 6.736-1.008 3.436 1.374 3.344.87 3.344 20.023 0 19.382.092 18.969-3.757 21.031-1.283.733-1.97 1.421-1.97 2.016 0 .871.366.917 12.371 1.054 6.827.046 12.83 0 13.425-.137 1.65-.413 1.146-1.467-1.466-3.025-1.374-.824-2.703-1.97-2.978-2.565-.321-.734-.504-7.332-.504-19.382V37.553l1.191-.917c1.421-1.099 5.544-1.328 8.66-.458 2.291.642 4.582 2.933 5.223 5.224.779 2.795.596 7.056-.366 9.209-1.375 2.979-3.253 4.033-7.835 4.307-3.757.23-3.895.275-4.032 1.421-.092.641.504 2.887 1.283 4.994 5.727 15.762 17.686 22.91 38.259 22.91 7.698 0 8.843-.687 4.811-2.749-1.008-.504-2.016-1.329-2.291-1.833-.321-.55-.412-5.178-.367-13.013l.138-12.142 16.266 12.875c18.236 14.388 19.565 15.35 20.161 14.754.274-.275.504-9.439.549-21.901l.138-21.444 2.703-2.428c2.612-2.291 2.704-2.429 1.741-2.933-1.466-.779-13.883-.687-15.029.138-.458.366-.778.733-.641.824.137.092 1.1.825 2.108 1.65 1.054.779 2.153 2.016 2.428 2.703.367.871.504 4.72.413 12.005l-.138 10.676-7.789-6.507c-13.196-11.042-18.924-14.937-28.5-19.565-6.094-2.932-10.218-3.757-10.218-2.016 0 .642 1.237 2.337 3.208 4.399 5.544 5.819 5.956 7.744 5.956 26.392 0 15.075 0 15.029-2.749 14.113-4.582-1.604-8.981-5.315-12.188-10.172-1.191-1.833-3.116-4.582-4.353-6.094l-2.199-2.841 1.924-.275c7.194-1.146 11.638-6.644 11.226-13.792-.367-5.681-2.978-8.98-8.614-10.859-2.933-1.008-3.574-1.008-30.241-1.145-18.511-.092-27.492 0-27.95.32-.596.413-.367.779 1.191 2.2 1.054.916 2.154 2.153 2.429 2.703.32.687.504 5.636.504 15.258 0 14.204 0 14.25-1.146 16.449-1.374 2.795-4.857 5.865-6.964 6.277-2.566.504-7.652-.137-9.668-1.145-2.245-1.146-4.032-3.207-4.674-5.453-.275-1.008-.458-7.514-.458-15.807 0-15.671 0-15.625 3.024-18.053 1.008-.825 1.558-1.558 1.375-1.879-.23-.412-9.164-.55-35.052-.55-39.634 0-35.236-.55-37.573 4.674-1.924 4.307-1.328 4.536 4.582 1.787 3.849-1.787 7.973-2.887 12.922-3.482l2.611-.275v18.831c0 15.9-.091 19.061-.687 20.161-.871 1.695-1.97 2.291-4.307 2.291-3.437 0-3.757-.55-14.525-24.055-5.407-11.822-10.172-21.902-10.584-22.314-1.008-1.146-2.749-1.008-3.941.275-.87.962-3.94 6.506-19.336 35.006l-3.528 6.552Z" style="fill:#fff;fill-rule:nonzero"/>
        <path d="M202.826 1.722c-5.132 1.374-8.202 2.703-11.776 5.04-3.94 2.566-9.255 8.018-10.997 11.318-2.382 4.398-3.253 11.958-2.199 18.969.458 3.07 7.789 23.689 11.684 32.761 4.261 10.08 5.453 18.328 3.391 23.78-1.421 3.895-5.04 9.073-9.622 13.792-2.979 3.07-4.124 4.536-3.895 5.086.366.962 1.512.687 7.01-1.741 5.59-2.429 11.593-6.415 15.625-10.401 4.582-4.536 6.964-9.622 8.568-18.053l.229-1.237c.059-3.153-.131-5.874-.55-8.202l-1.283-3.574c-.687-1.97-3.94-10.172-7.239-18.236-6.277-15.396-8.339-21.948-8.339-26.576 0-3.436 1.008-7.422 2.657-10.492 1.466-2.749 6.782-8.202 9.851-10.126 2.246-1.421 2.658-2.658 1.008-2.841-.504-.046-2.336.275-4.123.733Z" style="fill:#fff;fill-rule:nonzero"/>
    </g>
</svg>
