<?xml version="1.0" encoding="UTF-8" standalone="no"?>
<!DOCTYPE svg PUBLIC "-//W3C//DTD SVG 1.1//EN" "http://www.w3.org/Graphics/SVG/1.1/DTD/svg11.dtd">
<svg width="100%" height="100%" viewBox="0 0 542 112" version="1.1" xmlns="http://www.w3.org/2000/svg" xmlns:xlink="http://www.w3.org/1999/xlink" xml:space="preserve" xmlns:serif="http://www.serif.com/" style="fill-rule:evenodd;clip-rule:evenodd;stroke-linejoin:round;stroke-miterlimit:2;">
    <g>
        <g>
            <g>
                <clipPath id="_clip1">
                    <path d="M29.939,67.035c3.599,-0.804 7.212,-1.595 10.783,-2.526c3.599,-0.932 7.128,-2.089 10.614,-3.359c3.472,-1.271 6.916,-2.626 10.36,-4.009c1.623,-0.649 3.26,-1.242 4.926,-1.821c1.002,-0.352 2.004,-0.705 2.978,-1.115c-0.409,-4.149 -1.764,-8.016 -3.853,-11.39c-3.077,1.101 -6.267,1.877 -9.4,2.795c-3.501,1.03 -6.987,2.075 -10.459,3.218c-3.472,1.143 -6.916,2.329 -10.402,3.416c-3.515,1.1 -7.043,2.131 -10.529,3.274c-2.922,0.96 -5.815,2.061 -8.808,2.809c0.212,3.98 1.299,7.734 3.063,11.065c3.628,-0.48 7.156,-1.552 10.727,-2.357Z"/>
                </clipPath>
                <g clip-path="url(#_clip1)">
                    <path d="M14.046,81.022c-1.298,0 -2.554,-0.028 -3.796,-0.084c-1.863,-0.085 -3.345,-1.637 -3.275,-3.515c0.071,-1.891 1.666,-3.359 3.557,-3.26c10.572,0.536 24.897,-1.553 38.32,-5.575c13.112,-3.952 23.458,-9.104 27.664,-13.818c0.494,-0.55 1.214,-1.454 1.538,-2.371c0.212,-0.621 -0.169,-1.299 -0.832,-1.412c-1.412,-0.225 -4.559,-0.268 -11.348,1.369c-7.198,1.722 -16.161,4.7 -24.827,7.594c-8.977,2.992 -17.445,5.815 -24.22,7.382c-6.789,1.58 -14.03,2.484 -16.147,-2.64c-0.847,-2.018 -1.298,-5.208 1.299,-8.948c5.589,-8.031 22.71,-14.114 32.42,-17.022c14.552,-4.389 30.078,-6.972 39.534,-6.605c1.877,0.07 3.331,1.637 3.26,3.514c-0.07,1.877 -1.637,3.331 -3.514,3.26c-8.779,-0.338 -23.43,2.132 -37.36,6.31c-14.651,4.375 -25.688,9.894 -28.822,14.382c-0.155,0.226 -0.296,0.452 -0.395,0.649c-0.296,0.551 -0.056,1.468 0.932,1.553c1.482,0.127 4.305,-0.212 9.428,-1.595c6.154,-1.637 13.578,-4.051 21.454,-6.676c22.484,-7.495 36.584,-11.771 42.808,-8.003c1.736,1.044 2.837,2.654 3.148,4.658c0.494,3.034 -0.621,6.097 -3.331,9.103c-5.081,5.674 -16.302,11.433 -30.769,15.78c-12.76,3.853 -25.9,5.97 -36.726,5.97Z" style="fill:#fff;fill-rule:nonzero;"/>
                </g>
            </g>
            <g>
                <g>
                    <path d="M63.277,39.428c3.938,-0.466 7.48,-0.664 10.374,-0.551c1.877,0.071 3.444,-1.383 3.514,-3.26c0.071,-1.877 -1.383,-3.444 -3.26,-3.514c-4.686,-0.184 -10.854,0.366 -17.657,1.496c2.682,1.538 5.053,3.514 7.029,5.829Z" style="fill:#fff;fill-rule:nonzero;"/>
                </g>
                <g>
                    <path d="M8.034,61.785c-0.988,-0.085 -1.214,-1.002 -0.932,-1.553c0.099,-0.197 0.226,-0.423 0.395,-0.649c1.44,-2.061 4.531,-4.333 8.878,-6.62c0.466,-3.161 1.468,-6.139 2.936,-8.849c-7.198,3.091 -14.157,7.043 -17.361,11.63c-2.582,3.726 -2.131,6.93 -1.298,8.948c2.117,5.124 9.372,4.206 16.175,2.64c0.409,-0.099 0.819,-0.198 1.242,-0.297c-0.847,-2.075 -1.44,-4.262 -1.75,-6.549c-4.404,1.129 -6.916,1.426 -8.285,1.299Z" style="fill:#fff;fill-rule:nonzero;"/>
                </g>
                <g>
                    <path d="M84.872,50.169c-0.325,-2.004 -1.412,-3.614 -3.148,-4.658c-3.02,-1.821 -7.89,-1.764 -14.679,-0.353c0.988,2.033 1.722,4.206 2.174,6.479c4.545,-0.89 6.874,-0.833 8.031,-0.636c0.649,0.113 1.044,0.791 0.833,1.412c-0.325,0.917 -1.045,1.821 -1.539,2.371c-1.552,1.736 -3.952,3.543 -7,5.307c-0.382,3.204 -1.327,6.239 -2.739,8.991c6.648,-3.091 11.772,-6.465 14.764,-9.795c2.682,-3.021 3.797,-6.084 3.303,-9.118Z" style="fill:#fff;fill-rule:nonzero;"/>
                </g>
                <g>
                    <path d="M22.162,73.852c-4.178,0.381 -8.101,0.494 -11.616,0.311c-1.891,-0.099 -3.486,1.369 -3.557,3.26c-0.07,1.878 1.412,3.43 3.275,3.515c1.228,0.056 2.498,0.084 3.797,0.084c4.671,0 9.767,-0.395 15.074,-1.157c-2.654,-1.595 -5.011,-3.627 -6.973,-6.013Z" style="fill:#fff;fill-rule:nonzero;"/>
                </g>
                <g>
                    <path d="M56.262,33.613c-3.924,-2.259 -8.483,-3.557 -13.352,-3.557c-10.19,-0 -19.054,5.688 -23.585,14.058c5.392,-2.315 10.91,-4.15 15.06,-5.392c7.354,-2.216 14.947,-3.966 21.877,-5.109Z" style="fill:none;fill-rule:nonzero;"/>
                </g>
                <g>
                    <path d="M16.389,52.963c-0.183,1.271 -0.282,2.583 -0.282,3.91c0,1.228 0.085,2.442 0.24,3.627c0.367,-0.098 0.734,-0.197 1.129,-0.296c6.154,-1.637 13.578,-4.051 21.454,-6.676c11.573,-3.853 20.917,-6.86 28.115,-8.356c-1.002,-2.075 -2.272,-3.994 -3.754,-5.73c-7.989,0.931 -17.643,2.964 -26.972,5.759c-7.933,2.357 -14.806,5.067 -19.93,7.762Z" style="fill:none;fill-rule:nonzero;"/>
                </g>
                <g>
                    <path d="M29.135,79.865c4.022,2.414 8.736,3.811 13.789,3.811c10.416,-0 19.435,-5.928 23.881,-14.594c-4.643,2.159 -10.049,4.192 -16.005,5.97c-7.283,2.188 -14.665,3.811 -21.665,4.813Z" style="fill:none;fill-rule:nonzero;"/>
                </g>
                <g>
                    <path d="M69.529,60.091c0.127,-1.059 0.198,-2.131 0.198,-3.218c0,-1.793 -0.169,-3.543 -0.508,-5.222c-0.988,0.197 -2.089,0.437 -3.317,0.72c-7.198,1.721 -16.161,4.7 -24.827,7.593c-8.44,2.809 -16.429,5.476 -22.978,7.085c1.016,2.484 2.4,4.771 4.065,6.818c8.384,-0.763 17.742,-2.583 26.704,-5.265c8.271,-2.512 15.441,-5.476 20.663,-8.511Z" style="fill:none;fill-rule:nonzero;"/>
                </g>
            </g>
            <g>
                <clipPath id="_clip2">
                    <circle cx="42.885" cy="56.976" r="26.81"/>
                </clipPath>
                <g clip-path="url(#_clip2)">
                    <g>
                        <g>
                            <g>
                                <path d="M36.135,83.605l-21.651,-21.82l4.037,8.384l13.281,12.914l4.333,0.522Z" style="fill:#fff;fill-rule:nonzero;"/>
                            </g>
                        </g>
                        <g>
                            <g>
                                <path d="M45.832,19.301c-0,-0 14.678,17.6 18.151,20.96c3.345,3.232 24.107,20.889 24.107,20.889l-0.607,2.808l-45.152,-43.881" style="fill:#fff;fill-rule:nonzero;"/>
                                <path d="M42.995,21.489c-0,-0 14.862,17.586 18.334,20.945c3.345,3.232 23.91,20.946 23.91,20.946l-0.72,2.738l-44.926,-43.797" style="fill:#fff;fill-rule:nonzero;"/>
                                <path d="M40.172,23.676c-0,0 15.031,17.573 18.504,20.932c3.345,3.232 23.712,21.016 23.712,21.016l-0.833,2.667l-44.714,-43.725" style="fill:#fff;fill-rule:nonzero;"/>
                                <path d="M37.335,25.85c-0,-0 15.215,17.572 18.687,20.917c3.345,3.232 23.5,21.073 23.5,21.073l-0.945,2.597l-44.474,-43.627" style="fill:#fff;fill-rule:nonzero;"/>
                                <path d="M34.498,28.038c-0,-0 15.399,17.558 18.857,20.903c3.345,3.232 23.302,21.143 23.302,21.143l-1.058,2.526l-44.249,-43.556" style="fill:#fff;fill-rule:nonzero;"/>
                                <path d="M31.661,30.211c-0,0 15.568,17.544 19.04,20.889c3.345,3.232 23.105,21.2 23.105,21.2l-1.171,2.456l-44.037,-43.472" style="fill:#fff;fill-rule:nonzero;"/>
                                <path d="M28.838,32.399c0,-0 15.752,17.53 19.224,20.889c3.345,3.232 22.893,21.27 22.893,21.27l-1.284,2.385l-43.811,-43.401" style="fill:#fff;fill-rule:nonzero;"/>
                                <path d="M26.001,34.572c0,0 15.921,17.516 19.393,20.875c3.345,3.247 22.696,21.327 22.696,21.327l-1.398,2.315l-43.57,-43.303" style="fill:#fff;fill-rule:nonzero;"/>
                                <path d="M23.164,36.76c0,0 16.105,17.502 19.577,20.861c3.345,3.232 22.498,21.397 22.498,21.397l-1.511,2.244l-43.358,-43.232" style="fill:#fff;fill-rule:nonzero;"/>
                                <path d="M20.341,38.948c0,-0 16.274,17.487 19.746,20.847c3.345,3.232 22.287,21.453 22.287,21.453l-1.624,2.16l-43.119,-43.133" style="fill:#fff;fill-rule:nonzero;"/>
                                <path d="M17.504,41.121c0,0 16.458,17.474 19.93,20.833c3.345,3.232 22.088,21.524 22.088,21.524l-1.736,2.103l-42.907,-43.062" style="fill:#fff;fill-rule:nonzero;"/>
                                <path d="M14.667,43.309c0,0 16.627,17.46 20.099,20.819c3.345,3.232 21.891,21.58 21.891,21.58l-1.849,2.033l-42.667,-42.978" style="fill:#fff;fill-rule:nonzero;"/>
                                <path d="M11.845,45.483c-0,-0 16.81,17.459 20.282,20.804c3.345,3.232 21.679,21.651 21.679,21.651l-1.962,1.962l-42.455,-42.893" style="fill:#fff;fill-rule:nonzero;"/>
                                <path d="M9.008,47.671c-0,-0 16.979,17.445 20.451,20.79c3.345,3.232 21.482,21.707 21.482,21.707l-2.061,1.892l-42.229,-42.809" style="fill:#fff;fill-rule:nonzero;"/>
                                <path d="M6.171,49.858c-0,0 17.163,17.431 20.635,20.776c3.345,3.233 21.284,21.779 21.284,21.779l-2.174,1.82l-42.018,-42.738" style="fill:#fff;fill-rule:nonzero;"/>
                            </g>
                        </g>
                        <g>
                            <path d="M22.302,71.507l-1.574,1.395l5.984,6.748l1.573,-1.395l-5.983,-6.748Z" style="fill:#fff;"/>
                        </g>
                        <g>
                            <path d="M61.378,35.327l-1.357,1.357l4.391,4.391l1.358,-1.357l-4.392,-4.391Z" style="fill:#fff;"/>
                        </g>
                    </g>
                </g>
            </g>
        </g>
        <g>
            <g>
                <path d="M288.596,0.882c0.424,-0.212 0.918,-0.452 1.482,-0.706c1.864,-0.875 3.346,1.736 1.638,2.894c-0.593,0.409 -1.129,0.776 -1.567,1.072c-5.476,3.839 -10.261,8.356 -10.261,23.627c-0,19.182 15.879,37.883 15.879,51.786c-0,10.783 -3.049,20.677 -26.973,32.279c-0.79,0.381 -1.722,0.085 -2.159,-0.664c-0.466,-0.804 -0.156,-1.834 0.649,-2.272c9.555,-5.109 12.364,-15.695 11.955,-24.785c-0.847,-18.913 -16.161,-35.172 -15.879,-50.684c0.17,-9.259 3.839,-21.778 25.236,-32.547Z" style="fill:url(#_Linear3);fill-rule:nonzero;"/>
                <path d="M273.65,77.946c-1.355,-0.509 -4.108,-1.962 -5.844,-5.801l-18.955,-42.033c-0.805,-1.792 -3.317,-1.863 -4.22,-0.127l-14.03,26.634c-0.72,1.383 -2.159,2.244 -3.712,2.244l-17.389,0c-0.564,0 -1.129,0.452 -1.214,1.002c-0.112,0.72 0.41,1.341 1.101,1.398c4.672,0.423 7.481,3.542 7.439,8.581c-0.029,4.644 -3.91,8.454 -8.568,8.454l-1.214,0c-12.462,0 -12.999,-14.311 -12.999,-17.445l0,-10.952c0,-5.378 2.16,-14.806 12.661,-14.806c9.809,-0 15.314,4.516 19.802,10.501c0.734,0.988 2.301,0.169 1.919,-1.002l-3.937,-12.336c-0.381,-1.186 -1.779,-1.708 -2.851,-1.059c-2.894,1.779 -4.588,1.482 -4.588,1.482c-1.425,0.043 -5.956,-1.242 -11.46,-1.242c-8.779,0 -15.879,3.486 -20.734,8.172c-0.48,0.466 -1.285,0.311 -1.524,-0.324l-2.174,-5.293c-0.452,-1.101 -1.03,-1.807 -2.216,-1.807l-25.01,0l-0,-0.014l-13.014,0c-0.832,0 -1.637,-0.028 -2.47,-0.07c-4.46,-0.24 -20.127,-1.059 -28.144,-1.059c-10.049,-0 -17.925,3.147 -18.715,10.557c-0.593,5.576 3.274,8.483 5.49,10.515c1.2,1.101 6.846,4.672 9.739,6.013c3.021,1.397 15.074,7.438 13.832,12.223c-1.242,4.742 -5.321,5.914 -10.021,5.914c-7.382,-0 -15.3,-6.112 -21.171,-11.588c-1.016,-0.96 -2.597,0.226 -1.962,1.482c2.428,4.743 5.533,10.515 7.565,13.564c0.579,0.861 1.623,1.284 2.639,1.016c2.188,-0.55 5.025,-0.847 6.747,-0.762c2.216,0.099 6.86,0.706 8.892,0.706c16.909,-0 22.202,-4.446 22.752,-12.153c0.762,-10.599 -11.898,-17.657 -19.604,-20.748c-6.888,-2.78 -9.556,-6.958 -9.259,-9.033c0.479,-3.599 3.909,-4.206 6.774,-4.093c8.892,0.339 25.66,4.672 25.66,10.769l0,28.299c0,1.581 -1.722,4.432 -3.91,4.432l-0.042,0c-0.395,0 -0.79,0.141 -1.073,0.424c-0.762,0.762 -0.225,1.651 0.494,1.651l45.491,0c0.861,0 1.609,-0.508 1.947,-1.313l1.454,-3.542c0.282,-0.678 1.143,-0.889 1.694,-0.395c4.756,4.304 11.729,7 21.256,7c2.216,0 6.831,-0.607 8.977,-1.397c0.677,-0.24 1.411,-0.381 2.131,-0.381l20.734,-0c1.058,-0 1.566,-1.327 0.776,-2.033c-0.353,-0.31 -0.664,-0.592 -0.889,-0.804c-1.694,-1.539 -1.623,-2.583 -1.666,-3.472c-0.042,-0.875 0.141,-1.736 0.551,-2.527l12.646,-24.022l10.797,23.98c0.367,0.804 0.537,1.68 0.466,2.555c-0.014,0.113 -0.014,0.211 -0.028,0.296c-0.198,1.129 -1.214,3.416 -3.119,3.416l-0.311,-0c-0.466,-0 -0.931,0.155 -1.284,0.465c-1.059,0.946 -0.41,2.132 0.522,2.132l15.991,-0c0.734,-0 1.327,-0.664 1.172,-1.426c-0.071,-0.339 -0.381,-0.677 -0.79,-0.818Zm-92.858,-33.381c-2.174,3.43 -3.359,7.057 -3.359,10.247c-0,4.249 0.79,8.412 2.442,12.139c0.367,0.818 0.197,1.778 -0.424,2.413c-3.063,3.105 -9.753,7.438 -19.322,7.438l-2.343,0c-2.131,0 -3.868,-1.722 -3.868,-3.867l0,-13.719c0,-0.72 1.087,-1.623 2.315,-1.383c1.877,0.367 5.166,1.538 7.805,3.063c1.849,1.072 3.515,2.187 5.434,3.782c0.847,0.692 2.117,0.085 2.117,-1.002l0,-16.274c0,-1.086 -1.284,-1.693 -2.117,-1.002c-1.919,1.581 -3.585,2.696 -5.434,3.783c-2.625,1.51 -6.026,3.105 -7.889,3.543c-1.44,0.338 -1.948,-0.226 -2.216,-0.777l-0,-13.578c-0,-2.032 1.651,-3.683 3.683,-3.683l4.729,-0c7.748,-0 14.82,4.446 18.221,7.381c0.438,0.353 0.536,1.016 0.226,1.496Z" style="fill:#fff;fill-rule:nonzero;"/>
                <path d="M541.82,32.752c-0.113,-0.339 -0.452,-0.551 -0.819,-0.551l-14.41,0c-0.367,0 -0.692,0.212 -0.819,0.551c-0.155,0.466 0.099,0.931 0.522,1.072c1.341,0.438 4.545,1.849 4.545,5.209l0,20.197c0,0.776 -0.903,1.186 -1.496,0.692l-21.228,-17.615c-6.619,-5.504 -16.005,-9.16 -22.202,-11.164c-1.369,-0.438 -2.314,1.369 -1.157,2.23c0.198,0.155 0.409,0.31 0.621,0.466c7.071,5.321 7.834,12.942 7.834,13.803l-0,28.469c-0,1.016 -0.833,1.849 -1.849,1.849c-2.372,-0 -7.664,-3.854 -10.374,-6.676c-2.541,-2.654 -3.755,-6.324 -6.606,-9.669c-2.272,-2.653 -4.192,-3.641 -4.192,-3.641c14.27,-0 14.693,-11.574 14.693,-12.872c0,-1.934 0,-12.929 -17.868,-12.929l-48.243,0c-0.367,0 -0.692,0.212 -0.819,0.551c-0.155,0.465 0.099,0.945 0.523,1.072c1.341,0.438 4.544,1.849 4.544,5.208l0,25.42c0,8.779 -6.139,11.715 -11.065,11.715c-8.977,-0 -12.421,-5.293 -12.421,-11.941l0,-25.194c0,-3.373 3.204,-4.784 4.545,-5.208c0.353,-0.113 0.579,-0.423 0.579,-0.79l-0,-0.014c-0,-0.452 -0.367,-0.833 -0.833,-0.833l-67.537,-0c-1.002,-0 -1.933,0.579 -2.371,1.482l-2.653,5.505c-0.452,0.945 0.621,1.877 1.496,1.298c3.557,-2.414 9.541,-5.18 18.292,-5.519c0.96,-0.028 1.75,0.734 1.75,1.694l0,34.848c0,1.651 -0.607,2.936 -1.44,3.91c-0.635,0.762 -1.594,1.185 -2.597,1.185l-2.145,0c-0.691,0 -1.397,-0.183 -1.99,-0.578c-1.369,-0.89 -2.653,-2.132 -3.444,-3.882l-18.955,-42.032c-0.819,-1.792 -3.317,-1.863 -4.22,-0.127l-19.718,37.417l-5.688,10.783l0.395,2.061l19.153,-0c1.059,-0 1.567,-1.327 0.776,-2.033c0,0 -0.014,0 -0.014,-0.014c-0.353,-0.31 -0.649,-0.578 -0.875,-0.79c-1.679,-1.51 -1.623,-2.555 -1.665,-3.444c-0.043,-0.889 0.141,-1.778 0.55,-2.555l12.661,-24.022l10.797,23.98c0.367,0.804 0.536,1.68 0.466,2.555c-0.014,0.113 -0.014,0.211 -0.028,0.296c-0.198,1.129 -1.214,3.416 -3.12,3.416l-0.028,-0c-0.381,-0 -0.762,0.113 -1.058,0.353c-1.242,0.959 -0.579,2.244 0.381,2.244l40.776,-0c0.649,-0 1.213,-0.494 1.242,-1.144c0.028,-0.522 -0.297,-1.016 -0.777,-1.185c-1.594,-0.607 -5.123,-2.428 -5.123,-6.408l-0,-34.834c-0,-0.988 0.804,-1.736 1.792,-1.694c6.761,0.269 11.885,1.976 15.484,3.868c0.578,0.31 0.945,0.903 0.945,1.552l0,22.456l0.057,-0c0.579,10.317 5.476,18.236 23.415,18.236c10.403,-0 20.141,-5.449 20.141,-15.484l0,-25.73c0,-1.524 0.48,-2.597 1.087,-3.345c0.889,-1.087 2.244,-1.666 3.656,-1.666l2.117,0c1.411,0 2.78,0.579 3.656,1.666c0.606,0.762 1.086,1.835 1.086,3.345l0,31.15c0,4.63 -3.669,6.38 -5.391,6.944c-0.41,0.127 -0.734,0.466 -0.833,0.904c-0.141,0.762 0.423,1.425 1.157,1.425l24.333,0c0.494,0 0.96,-0.296 1.129,-0.762c0.24,-0.663 -0.113,-1.355 -0.719,-1.553c-1.68,-0.55 -5.434,-2.3 -5.434,-6.958l-0,-33.055c-0,-2.64 2.272,-3.6 3.825,-3.6l4.46,0c4.149,0 8.271,3.501 8.271,9.344c-0,8.567 -5.576,10.642 -7.862,10.642c-1.524,0 -2.71,0.028 -3.98,-0.437c-0,-0 -0.014,-0 -0.014,-0.014c-0.805,-0.382 -1.652,0.367 -1.398,1.199c0.014,0.043 0.014,0.071 0.029,0.071c1.34,4.53 3.74,11.461 7.028,15.878c5.096,6.874 14.764,12.35 30.995,12.35l6.973,0c0.437,0 0.847,-0.268 0.974,-0.663c0.183,-0.565 -0.127,-1.129 -0.65,-1.299c-1.397,-0.423 -4.361,-1.679 -4.361,-4.841l0,-22.794c0,-0.777 0.903,-1.186 1.496,-0.692l33.691,27.975c0.974,0.804 2.427,0.112 2.427,-1.144l0,-40.846c0,-3.374 3.204,-4.785 4.545,-5.208c0.466,-0.142 0.734,-0.607 0.579,-1.087Z" style="fill:#fff;fill-rule:nonzero;"/>
            </g>
        </g>
    </g>
    <defs>
        <linearGradient id="_Linear3" x1="0" y1="0" x2="1" y2="0" gradientUnits="userSpaceOnUse" gradientTransform="matrix(6.85799e-15,-111.999,111.999,6.85799e-15,279.552,111.992)"><stop offset="0" style="stop-color:#fff;stop-opacity:1"/><stop offset="0.38" style="stop-color:#fff;stop-opacity:1"/><stop offset="0.4" style="stop-color:#f4e7e9;stop-opacity:1"/><stop offset="0.48" style="stop-color:#d099a4;stop-opacity:1"/><stop offset="0.54" style="stop-color:#b96978;stop-opacity:1"/><stop offset="0.57" style="stop-color:#b05667;stop-opacity:1"/><stop offset="0.78" style="stop-color:#ce0033;stop-opacity:1"/><stop offset="1" style="stop-color:#fd003e;stop-opacity:1"/></linearGradient>
    </defs>
</svg>
