<?xml version="1.0" encoding="UTF-8" standalone="no"?>
<!DOCTYPE svg PUBLIC "-//W3C//DTD SVG 1.1//EN" "http://www.w3.org/Graphics/SVG/1.1/DTD/svg11.dtd">
<svg width="100%" height="100%" viewBox="0 0 459 113" version="1.1" xmlns="http://www.w3.org/2000/svg" xmlns:xlink="http://www.w3.org/1999/xlink" xml:space="preserve" xmlns:serif="http://www.serif.com/" style="fill-rule:evenodd;clip-rule:evenodd;stroke-linejoin:round;stroke-miterlimit:2;">
    <g>
        <path d="M160.03,30.313c-0.733,0.367 -3.436,4.811 -8.385,13.838c-3.986,7.285 -7.698,13.7 -8.202,14.204c-0.824,0.871 -1.603,0.916 -10.905,1.054c-7.651,0.091 -10.08,0.275 -10.263,0.733c-0.367,0.916 0.229,1.512 2.153,2.016c5.545,1.558 8.065,6.461 5.819,11.409c-2.061,4.536 -9.484,6.461 -14.708,3.803c-4.444,-2.245 -6.644,-7.835 -7.148,-18.099c-0.504,-9.576 0.871,-16.495 3.849,-19.61c2.979,-3.162 8.248,-4.216 13.975,-2.887c4.491,1.054 7.286,2.657 11.272,6.46c3.574,3.437 5.544,4.353 5.544,2.658c0,-1.466 -4.169,-13.333 -4.903,-13.929c-0.549,-0.504 -1.191,-0.413 -3.665,0.458c-2.841,1.054 -3.162,1.054 -7.011,0.504c-4.856,-0.687 -12.417,-0.412 -16.266,0.642c-3.665,1.008 -8.705,3.39 -11.088,5.177c-1.1,0.825 -2.062,1.512 -2.199,1.512c-0.138,0 -0.962,-1.512 -1.879,-3.345c-0.916,-1.787 -1.924,-3.436 -2.199,-3.619c-0.275,-0.184 -9.668,-0.367 -20.894,-0.367c-11.226,0 -23.276,-0.229 -26.804,-0.504c-9.668,-0.733 -26.438,-0.779 -30.058,-0.046c-4.399,0.917 -8.11,3.116 -9.805,5.819c-1.146,1.833 -1.375,2.704 -1.375,4.995c0.046,6.094 3.895,9.988 15.991,16.128c9.393,4.811 12.646,7.56 12.646,10.676c0,2.154 -1.237,3.849 -3.803,5.224c-1.604,0.824 -2.657,1.008 -6.048,1.008c-5.865,-0.046 -7.514,-0.917 -21.214,-11.364c-0.642,-0.504 -1.925,0.367 -1.925,1.375c0,0.366 1.787,3.849 3.986,7.743c4.353,7.698 4.628,7.927 7.881,7.057c1.329,-0.321 5.178,-0.413 12.326,-0.184c8.706,0.229 10.905,0.184 13.517,-0.458c7.881,-1.878 11.317,-5.452 11.317,-11.867c0,-3.574 -0.825,-6.094 -3.024,-9.072c-2.108,-2.887 -5.453,-5.27 -14.846,-10.447c-8.476,-4.72 -10.996,-6.873 -10.996,-9.347c-0,-1.054 0.366,-1.879 1.191,-2.658c1.1,-1.054 1.466,-1.1 6.506,-1.054c6.278,0.092 14.067,1.879 18.649,4.261c6.048,3.116 5.727,2.016 5.727,19.886c0,9.943 -0.183,15.35 -0.504,15.991c-0.274,0.504 -1.374,1.283 -2.474,1.787c-2.108,0.916 -2.749,1.833 -1.924,2.658c0.366,0.366 7.102,0.504 23.459,0.504c18.97,-0 23.093,-0.092 23.872,-0.642c0.504,-0.366 1.375,-1.695 1.971,-2.932l1.054,-2.291l2.52,1.741c1.328,0.962 3.803,2.291 5.406,2.932c6.003,2.383 15.854,3.254 21.536,1.879c1.97,-0.458 5.727,-0.642 13.608,-0.687c10.447,-0 13.196,-0.275 13.196,-1.421c0,-0.275 -0.596,-1.237 -1.375,-2.107c-0.824,-0.917 -1.374,-2.062 -1.374,-2.795c-0,-1.329 12.417,-25.11 13.058,-24.972c0.596,0.137 10.768,23.093 10.768,24.284c0,1.741 -0.779,2.795 -2.749,3.803c-2.016,1.008 -2.337,1.971 -0.962,2.749c0.962,0.504 15.487,0.642 16.724,0.184c1.329,-0.504 0.825,-1.971 -1.054,-2.933c-1.008,-0.504 -2.474,-1.832 -3.207,-2.932c-0.779,-1.1 -5.636,-11.363 -10.814,-22.818c-5.177,-11.409 -9.851,-21.123 -10.401,-21.581c-1.1,-0.917 -1.604,-0.963 -3.07,-0.184Zm-77.71,7.423c3.299,0.871 8.568,3.437 10.676,5.178l1.512,1.237l-1.145,2.52c-0.642,1.375 -1.421,3.666 -1.696,5.04c-0.733,3.528 -0.275,10.584 0.871,13.975l0.962,2.749l-1.466,1.466c-4.72,4.72 -16.404,8.569 -21.123,7.011c-2.612,-0.871 -2.932,-1.741 -3.253,-9.164c-0.367,-7.606 -0.046,-9.164 1.833,-9.164c1.832,0 7.422,2.566 11.18,5.086c1.832,1.283 3.665,2.199 3.986,2.062c0.55,-0.229 0.641,-1.925 0.55,-9.531c-0.138,-10.813 0.137,-10.401 -4.857,-7.056c-3.62,2.383 -9.118,4.857 -10.859,4.857c-1.833,0 -2.2,-1.604 -1.833,-8.477c0.321,-6.277 0.779,-7.697 2.657,-8.522c1.375,-0.596 8.66,-0.137 12.005,0.733Z" style="fill:#fff;fill-rule:nonzero;"/>
        <g>
            <path d="M210.294,72.834l0.55,8.202l7.973,-0c4.398,-0 8.293,-0.138 8.705,-0.275c1.054,-0.413 0.917,-1.146 -0.641,-2.933c-0.733,-0.87 -1.329,-2.153 -1.375,-2.841c0,-0.962 11.639,-24.421 12.784,-25.659c0.504,-0.549 11.043,23.231 11.043,24.972c-0,1.65 -0.092,1.787 -3.62,4.399c-0.733,0.55 -1.008,1.1 -0.825,1.558c0.275,0.733 2.154,0.779 21.031,0.733c11.409,-0 21.169,-0.183 21.673,-0.367c0.825,-0.32 0.687,-0.55 -1.329,-2.382c-3.665,-3.345 -3.482,-2.2 -3.482,-23.323l-0,-18.831l2.428,0.32c7.011,0.825 12.188,2.52 14.159,4.628c1.053,1.1 1.053,1.237 1.283,14.479c0.229,12.463 0.275,13.517 1.237,15.533c2.978,6.461 9.805,10.218 19.611,10.768c8.293,0.458 15.578,-1.512 19.244,-5.132c3.757,-3.757 4.353,-7.102 4.353,-24.789c-0,-12.233 0.045,-12.967 0.916,-14.066c1.283,-1.604 4.17,-2.016 6.736,-1.008c3.436,1.374 3.344,0.87 3.344,20.023c0,19.382 0.092,18.969 -3.757,21.031c-1.283,0.733 -1.97,1.421 -1.97,2.016c-0,0.871 0.366,0.917 12.371,1.054c6.827,0.046 12.83,0 13.425,-0.137c1.65,-0.413 1.146,-1.467 -1.466,-3.025c-1.374,-0.824 -2.703,-1.97 -2.978,-2.565c-0.321,-0.734 -0.504,-7.332 -0.504,-19.382l-0,-18.282l1.191,-0.917c1.421,-1.099 5.544,-1.328 8.66,-0.458c2.291,0.642 4.582,2.933 5.223,5.224c0.779,2.795 0.596,7.056 -0.366,9.209c-1.375,2.979 -3.253,4.033 -7.835,4.307c-3.757,0.23 -3.895,0.275 -4.032,1.421c-0.092,0.641 0.504,2.887 1.283,4.994c5.727,15.762 17.686,22.91 38.259,22.91c7.698,0 8.843,-0.687 4.811,-2.749c-1.008,-0.504 -2.016,-1.329 -2.291,-1.833c-0.321,-0.55 -0.412,-5.178 -0.367,-13.013l0.138,-12.142l16.266,12.875c18.236,14.388 19.565,15.35 20.161,14.754c0.274,-0.275 0.504,-9.439 0.549,-21.901l0.138,-21.444l2.703,-2.428c2.612,-2.291 2.704,-2.429 1.741,-2.933c-1.466,-0.779 -13.883,-0.687 -15.029,0.138c-0.458,0.366 -0.778,0.733 -0.641,0.824c0.137,0.092 1.1,0.825 2.108,1.65c1.054,0.779 2.153,2.016 2.428,2.703c0.367,0.871 0.504,4.72 0.413,12.005l-0.138,10.676l-7.789,-6.507c-13.196,-11.042 -18.924,-14.937 -28.5,-19.565c-6.094,-2.932 -10.218,-3.757 -10.218,-2.016c0,0.642 1.237,2.337 3.208,4.399c5.544,5.819 5.956,7.744 5.956,26.392c0,15.075 0,15.029 -2.749,14.113c-4.582,-1.604 -8.981,-5.315 -12.188,-10.172c-1.191,-1.833 -3.116,-4.582 -4.353,-6.094l-2.199,-2.841l1.924,-0.275c7.194,-1.146 11.638,-6.644 11.226,-13.792c-0.367,-5.681 -2.978,-8.98 -8.614,-10.859c-2.933,-1.008 -3.574,-1.008 -30.241,-1.145c-18.511,-0.092 -27.492,-0 -27.95,0.32c-0.596,0.413 -0.367,0.779 1.191,2.2c1.054,0.916 2.154,2.153 2.429,2.703c0.32,0.687 0.504,5.636 0.504,15.258c-0,14.204 -0,14.25 -1.146,16.449c-1.374,2.795 -4.857,5.865 -6.964,6.277c-2.566,0.504 -7.652,-0.137 -9.668,-1.145c-2.245,-1.146 -4.032,-3.207 -4.674,-5.453c-0.275,-1.008 -0.458,-7.514 -0.458,-15.807c-0,-15.671 -0,-15.625 3.024,-18.053c1.008,-0.825 1.558,-1.558 1.375,-1.879c-0.23,-0.412 -9.164,-0.55 -35.052,-0.55c-39.634,0 -35.236,-0.55 -37.573,4.674c-1.924,4.307 -1.328,4.536 4.582,1.787c3.849,-1.787 7.973,-2.887 12.922,-3.482l2.611,-0.275l0,18.831c0,15.9 -0.091,19.061 -0.687,20.161c-0.871,1.695 -1.97,2.291 -4.307,2.291c-3.437,0 -3.757,-0.55 -14.525,-24.055c-5.407,-11.822 -10.172,-21.902 -10.584,-22.314c-1.008,-1.146 -2.749,-1.008 -3.941,0.275c-0.87,0.962 -3.94,6.506 -19.336,35.006l-3.528,6.552Z" style="fill:#fff;fill-rule:nonzero;"/>
            <path d="M202.826,1.722c-5.132,1.374 -8.202,2.703 -11.776,5.04c-3.94,2.566 -9.255,8.018 -10.997,11.318c-2.382,4.398 -3.253,11.958 -2.199,18.969c0.458,3.07 7.789,23.689 11.684,32.761c4.261,10.08 5.453,18.328 3.391,23.78c-1.421,3.895 -5.04,9.073 -9.622,13.792c-2.979,3.07 -4.124,4.536 -3.895,5.086c0.366,0.962 1.512,0.687 7.01,-1.741c5.59,-2.429 11.593,-6.415 15.625,-10.401c4.582,-4.536 6.964,-9.622 8.568,-18.053l0.229,-1.237c0.059,-3.153 -0.131,-5.874 -0.55,-8.202l-1.283,-3.574c-0.687,-1.97 -3.94,-10.172 -7.239,-18.236c-6.277,-15.396 -8.339,-21.948 -8.339,-26.576c-0,-3.436 1.008,-7.422 2.657,-10.492c1.466,-2.749 6.782,-8.202 9.851,-10.126c2.246,-1.421 2.658,-2.658 1.008,-2.841c-0.504,-0.046 -2.336,0.275 -4.123,0.733Z" style="fill:#fff;fill-rule:nonzero;"/>
        </g>
    </g>
</svg>
