<svg viewBox="0 0 264 31" xmlns="http://www.w3.org/2000/svg">
    <path d="M0 12.056V6.889C0 2.296 2.285 0 6.857 0h30.857v6.889H6.857v5.167h24c4.572 0 6.857 2.296 6.857 6.889v5.166c0 4.593-2.285 6.889-6.857 6.889H0v-6.889h30.857v-5.166h-24C2.285 18.945 0 16.649 0 12.056Zm41.143 12.055V6.889C41.143 2.296 43.428 0 48 0h29.143v6.889H48v17.222h29.143V31H48c-4.572 0-6.857-2.296-6.857-6.889Zm39.428-5.166v-6.889h12.001v6.889H80.571Zm54.857 5.166c0 4.593-2.286 6.889-6.856 6.889H96v-6.889h32.572v-6.889h-17.144L120 6.889H96V0h37.714l-8.571 10.333h3.429c4.571 0 6.856 2.297 6.856 6.889v6.889Zm42.857 0c0 4.593-2.285 6.889-6.857 6.889h-25.714c-4.572 0-6.857-2.296-6.857-6.889V6.889c0-4.593 2.285-6.889 6.857-6.889h25.714c4.572 0 6.857 2.296 6.857 6.889v17.222Zm-6.857 0V6.889h-25.714v17.222h25.714Zm49.715 0c0 4.593-2.286 6.889-6.857 6.889h-25.714c-4.572 0-6.857-2.296-6.857-6.889V6.889C181.715 2.296 184 0 188.572 0h25.714c4.571 0 6.857 2.296 6.857 6.889v17.222Zm-6.857 0V6.889h-25.714v17.222h25.714Zm49.714 0c0 4.593-2.285 6.889-6.857 6.889h-25.714c-4.572 0-6.857-2.296-6.857-6.889V6.889c0-4.593 2.285-6.889 6.857-6.889h25.714C261.715 0 264 2.296 264 6.889v17.222Zm-6.857 0V6.889h-25.714v17.222h25.714Z" style="fill:#fff"/>
</svg>
