<svg viewBox="0 0 264 68" xmlns="http://www.w3.org/2000/svg">
    <path d="m262.539 24.974-6.638-.026h-.286l-.074.277-2.238 8.102-.013.049v.052l-.033 11.698h-4.744l1.103-12.829c.058-.69-.176-.763-.52-.165L230.646 64.2c-.342.601-1.188 1.029-1.874.956l-5.319-.567c-.687-.073-1.405-.676-1.598-1.34l-3.832-13.185h2.385V35.918h5.183l3.272 12.158c.179.666.596.717.929.112l17.254-31.582h7.303l.088-.259 3.171-9.535 5.249.457a1.258 1.258 0 0 1 1.138 1.362l-1.456 16.343Zm-2.97 33.399h-3.452l-.102.21-.623 1.265-2.498.331-.303.039-.022.308-.486 6.911-4.189-.435a1.29 1.29 0 0 1-1.14-1.384l1.694-19.738h5.559l.001-.377.032-12.024 2.144-7.774 6.286.025-2.901 32.643Zm-2.116 9.62-4.621-.478.467-6.63 2.393-.315.198-.027.089-.18.61-1.234h2.914l-.689 7.743a1.239 1.239 0 0 1-1.361 1.121ZM211.249 26.75c-.195-.663-.429-.646-.525.039l-2.802 20.195h-5.167l-1.737-.946-.083-.047-.094-.001-3.221-.019 3.904-26.291h5.405l.083-.262 1.481-4.669h11.399l5.492 20.416h-5.733V49.31h-1.852l-6.55-22.56Zm-6.755 35.848-7.977-.699a1.17 1.17 0 0 1-1.066-1.353l1.2-8.069 10.339 1.234-1.075 7.752a1.337 1.337 0 0 1-1.421 1.135Zm-3.751-15.853 1.737.946.085.047h5.254l-.726 5.224-10.332-1.231.746-5.008 3.236.022Zm4.753-45.24 9.89.997c.688.07 1.396.673 1.575 1.341l2.731 10.15h-11.746l-.084.263-1.481 4.67h-4.742l2.424-16.303c.1-.684.746-1.187 1.433-1.118Zm46.533 5.977c.332-.608 1.166-1.056 1.853-.995l2.955.257-3.029 9.107h-6.35l4.571-8.369Zm-49.587-6.466-4.045 23.947h-4.576v2.382l-.99.97-.112.11-.001.158-.024 7.951-.001.378h3.685l-1.374 8.13-2.851 2.245-2.664-.022h-.129l-.102.078-2.136 1.64-.148.112v3.522l-7.476 2.766-8.343-14.087 9.223-7.712 4.454 7.939c.339.603.692.535.785-.149l3.526-25.665h3.684l.106-.088 1.409-1.185.135-.112V8.216l.899-.961.102-.108V5.072l.873-.775.126-.112V1.023l4.944-.998c.676-.138 1.135.31 1.021.991Zm-8.97 27.726.99-.971.113-.111v-1.943h3.695l-1.762 10.44h-3.057l.021-7.415Zm-1.125 32.055c-.114.682-.763 1.346-1.441 1.473l-5.355 1.015c-.676.127-1.522-.254-1.875-.848l-3.785-6.396 7.592-2.808.245-.091v-3.674l1.885-1.446 2.665.021.133.001.104-.081 2.305-1.816-2.473 14.65ZM153.576 9.276l10.573-2.191c.673-.14 1.504.239 1.843.841l2.217 3.954h-2.502l-.115.155-.665.909h-3.925v5.021h-3.662l-4.356-7.354c-.351-.595-.086-1.196.592-1.335Zm7.805 9.443h.378v-5.022h3.553l.113-.154.664-.91h2.544l11.373 20.282-9.237 7.722-12.982-21.918h3.594Zm29.457-15.347c.094-.684.725-1.356 1.4-1.494l3.486-.704v2.67l-.874.774-.127.114v2.115l-.899.961-.101.11v6.053l-1.17.982h-3.308l1.593-11.581Z" style="fill:#fff"/>
    <path d="M28.279 42.866c.771 1.527 1.158 3.344 1.158 5.453 0 2.035-.424 3.796-1.271 5.284a11.27 11.27 0 0 1-3.306 3.672c-1.355.961-2.891 1.676-4.604 2.148a19.445 19.445 0 0 1-5.17.706c-3.466 0-6.375-.64-8.731-1.921-2.353-1.279-4.472-3.22-6.355-5.82l4.014-5.078c.371-.469 1.003-.487 1.4-.042 0 0 .462.516 1.252 1.137a15.692 15.692 0 0 0 2.572 1.639c.921.471 1.864.857 2.825 1.16.961.299 1.854.452 2.683.452.828 0 1.461-.153 1.893-.452.433-.303.651-.867.651-1.696 0-.717-.388-1.394-1.159-2.035-.772-.639-1.733-1.309-2.881-2.006-1.15-.694-2.394-1.449-3.731-2.26a21.72 21.72 0 0 1-3.727-2.854 15.191 15.191 0 0 1-2.883-3.757c-.772-1.413-1.158-3.042-1.158-4.887 0-1.81.34-3.391 1.017-4.747a10.129 10.129 0 0 1 2.741-3.42c1.147-.921 2.476-1.619 3.984-2.091 1.505-.469 3.106-.705 4.802-.705 3.013 0 5.715.556 8.108 1.666 2.392 1.111 4.661 2.76 6.809 4.944l-3.251 5.018c-.325.504-.962.594-1.415.2 0 0-.816-.708-1.72-1.293a24.06 24.06 0 0 0-2.655-1.496 14.743 14.743 0 0 0-2.43-.932c-.754-.208-1.412-.312-1.978-.312-.677 0-1.177.17-1.496.51-.323.339-.481.772-.481 1.299 0 .678.385 1.308 1.158 1.892.771.585 1.741 1.188 2.91 1.81 1.167.622 2.42 1.318 3.758 2.089a20.6 20.6 0 0 1 3.757 2.798c1.167 1.094 2.137 2.403 2.91 3.927Zm13.813-2.187a4.46 4.46 0 0 1 1.463-1.069c.543-.242 1.078-.366 1.605-.366 1.576 0 2.747.396 3.518 1.183.768.789 1.117 1.593 1.117 1.593.237.548.903.878 1.481.735l6.83-1.709c-.713-3.113-2.159-5.629-4.335-7.543-2.176-1.914-5.104-2.871-8.781-2.871-2.252 0-4.259.348-6.024 1.042-1.764.695-3.245 1.688-4.446 2.984-1.201 1.295-2.111 2.853-2.73 4.672-.62 1.822-.929 3.856-.929 6.107 0 1.953.281 3.811.844 5.575.563 1.765 1.436 3.312 2.619 4.644 1.18 1.332 2.671 2.393 4.474 3.181 1.801.787 3.959 1.181 6.472 1.181 1.426 0 2.815-.218 4.166-.647a11.8 11.8 0 0 0 3.716-1.971c1.126-.882 2.11-1.997 2.955-3.35.844-1.351 1.57-3.745 1.57-3.745a1.07 1.07 0 0 0-.726-1.339l-6.614-1.897a3.79 3.79 0 0 1-.731 1.632 6.75 6.75 0 0 1-1.267 1.266c-.47.358-.948.641-1.436.847-.488.206-.938.308-1.351.308-1.463 0-2.655-.563-3.573-1.688-.921-1.128-1.38-2.607-1.38-4.449 0-.974.14-1.819.422-2.534.282-.709.638-1.3 1.071-1.772Zm46.446 4.771c-.095-2.335-.188-4.714-.283-7.142-.093-2.427-.221-6.73-.221-6.73a1.103 1.103 0 0 0-1.119-1.065l-9.245.201c.113 1.808.217 3.37.311 4.687.093 1.318.17 2.579.225 3.782.057 1.205.095 2.448.115 3.726.016 1.281.028 2.787.028 4.518 0 1.318-.433 2.361-1.299 3.132-.865.773-1.899 1.157-3.104 1.157-1.279 0-2.24-.386-2.88-1.157-.641-.771-.959-1.702-.959-2.793 0-1.954.089-3.786.281-5.702.188-1.881.376-3.612.566-5.195.226-1.807.611-4.119.611-4.119.097-.591-.31-1.071-.908-1.063l-9.64.101c-.265 1.882-.49 3.764-.678 5.646a119.698 119.698 0 0 0-.479 5.138 66.707 66.707 0 0 0-.197 4.855c0 2.033.245 3.864.734 5.494.488 1.629 1.242 3.015 2.258 4.155 1.015 1.139 2.324 2.018 3.923 2.635 1.6.615 3.51.926 5.731.926.639 0 1.297-.086 1.976-.256a10.09 10.09 0 0 0 1.948-.705 10.725 10.725 0 0 0 1.721-1.044c.236-.177.652-.74.993-.622.442.156.193 1.15.193 1.48 0 .598.488 1.077 1.086 1.064l8.849-.198a642.592 642.592 0 0 0-.254-7.778l-.283-7.128Zm39.599-9.499c-.863-1.331-2.045-2.372-3.545-3.124-1.502-.75-3.453-1.125-5.855-1.125-1.802 0-3.349.393-4.645 1.181-.344.21-.682.434-1.005.675a9.363 9.363 0 0 0-.838.698c-.196.185-.366.469-.652.52-.072.012-.148.031-.225.023-.26-.024-.333-.199-.467-.394a5.535 5.535 0 0 0-1.4-1.381c-.94-.655-2.12-.986-3.546-.986-.713 0-1.389.114-2.027.339-.64.224-1.21.517-1.716.872-.429.301-.798.665-1.207.988-.201.159-.28.377-.563.36-.289-.019-.249-.391-.268-.589-.026-.237-.052-.473-.074-.709l-.055-.518a1.196 1.196 0 0 0-1.196-1.054l-8.092.2c.113 2.289.198 4.484.255 6.587.056 2.101.093 4.23.112 6.387a432.9 432.9 0 0 1 0 6.84c-.019 2.401-.026 6.851-.026 6.851a1.066 1.066 0 0 0 1.081 1.069l7.853-.134a1.139 1.139 0 0 0 1.105-1.103l.317-15.465c0-.527.131-1.06.393-1.604.261-.545.881-.817 1.857-.817.451 0 .808.167 1.071.507.26.338.477.788.646 1.351.17.562.282 1.21.339 1.941.055.731.083 1.491.083 2.279v4.785c0 1.238-.01 2.317-.028 3.236a102.49 102.49 0 0 1-.084 2.59c-.038.808-.072 1.703-.072 1.703a1.071 1.071 0 0 0 1.042 1.11l9.219.199a32.28 32.28 0 0 1-.197-2.082 54.023 54.023 0 0 1-.113-2.534c-.018-.861-.037-1.688-.056-2.476a77.237 77.237 0 0 1-.028-1.915c0-3.601.149-6.283.451-8.049.3-1.764 1.087-2.647 2.363-2.647.788 0 1.398.329 1.831.987.43.656.647 1.754.647 3.292 0 1.465-.179 3.332-.536 5.602-.356 2.271-1.476 7.189-1.476 7.189a.968.968 0 0 0 .836 1.194l9.282 1.159c.411-2.326.759-4.577 1.041-6.756a49.64 49.64 0 0 0 .423-6.362c0-2.213-.16-4.249-.478-6.108-.321-1.854-.914-3.45-1.777-4.782Zm42.864 4.785c-.319-1.857-.909-3.453-1.771-4.785-.863-1.331-2.047-2.372-3.548-3.124-1.502-.75-3.451-1.125-5.853-1.125-1.8 0-3.348.393-4.645 1.181-.331.203-.654.416-.968.645a9.224 9.224 0 0 0-.843.697c-.219.205-.503.7-.853.599-.247-.073-.465-.35-.611-.551a5.451 5.451 0 0 0-1.311-1.247c-.939-.657-2.122-.988-3.546-.988a6.04 6.04 0 0 0-2.027.339 7.04 7.04 0 0 0-1.716.872 6.092 6.092 0 0 0-1.239 1.126 2.812 2.812 0 0 1-.157.184c-.081.084-.207.198-.334.166-.143-.033-.228-.248-.259-.374-.058-.222-.064-.457-.086-.685-.03-.295-.059-.591-.092-.885a1.198 1.198 0 0 0-1.194-1.054l-8.092.2c.111 2.289.197 4.484.253 6.587a367.767 367.767 0 0 1 .113 13.228c-.019 2.402-.027 6.85-.027 6.85a1.064 1.064 0 0 0 1.083 1.069l7.854-.133a1.139 1.139 0 0 0 1.105-1.104l.315-15.463c0-.527.133-1.06.395-1.605.261-.545.881-.817 1.857-.817.45 0 .807.167 1.07.506.26.339.478.788.647 1.351.169.563.279 1.212.337 1.942.057.732.085 1.492.085 2.28v4.785c0 1.236-.01 2.316-.028 3.235-.019.922-.048 1.784-.085 2.591-.037.808-.072 1.701-.072 1.701a1.068 1.068 0 0 0 1.043 1.11h.017l.895.02c.642.012 1.285.028 1.929.042l2.361.051c.742.016 1.485.031 2.226.049.456.01.989.11 1.437.006.378-.087.294-.387.283-.689-.011-.459-.095-.904-.129-1.361a60.094 60.094 0 0 1-.113-2.533 560.42 560.42 0 0 0-.056-2.477 83.264 83.264 0 0 1-.029-1.914c0-3.602.151-6.284.45-8.05.301-1.763 1.088-2.646 2.365-2.646.788 0 1.398.33 1.831.985.43.656.648 1.755.648 3.294 0 1.463-.177 3.331-.536 5.601-.357 2.273-1.476 7.188-1.476 7.188a.965.965 0 0 0 .835 1.194c.255.03.506.063.757.094l3.806.477c.805.1 1.611.186 2.417.28.489.056.972.164 1.46.221.301.032.685.186.928-.083.232-.259.218-.732.272-1.05.082-.483.131-.968.171-1.454.059-.744.155-1.474.259-2.214.09-.621.171-1.243.252-1.866.281-2.176.422-4.297.422-6.361-.002-2.215-.162-4.251-.482-6.108Z" style="fill:#fff"/>
</svg>
