<?xml version="1.0" encoding="UTF-8"?>
<svg width="477px" height="113px" viewBox="0 0 477 113" version="1.1" xmlns="http://www.w3.org/2000/svg" xmlns:xlink="http://www.w3.org/1999/xlink">
    <title>sega32x</title>
    <defs>
        <polygon id="path-1" points="0 0 476 0 476 112 5.44009282e-15 112"></polygon>
    </defs>
    <g id="Page-1" stroke="none" stroke-width="1" fill="none" fill-rule="evenodd" opacity="0.78">
        <g id="Sega-32X" transform="translate(-81.000000, -3.000000)">
            <g id="sega32x" transform="translate(81.969141, 3.776771)">
                <mask id="mask-2" fill="white">
                    <use xlink:href="#path-1"></use>
                </mask>
                <g id="Path"></g>
                <g id="Group" mask="url(#mask-2)" fill="#FFFFFF">
                    <path d="M99.505,110.557 C94.821,110.271 90.127,109.666 85.498,108.849 C66.671,105.521 57.915,101.069 52.66,99.003 C50.149,98.013 47.695,97.08 44.965,98.082 C44.656,98.196 44.288,98.189 43.948,98.196 C42.215,98.214 41.679,97.542 42.436,95.989 C43.331,94.141 44.386,92.363 45.447,90.601 C48.321,85.826 51.233,81.072 54.134,76.31 C54.267,76.087 54.42,75.881 54.55,75.656 C55.144,74.663 55.791,73.746 57.145,73.939 C58.419,74.114 58.697,75.168 58.961,76.162 C59.545,78.337 60.868,79.956 62.607,81.302 C66.726,84.495 71.375,86.643 76.255,88.346 C82.581,90.558 89.093,91.944 95.71,92.982 C103.541,94.215 111.414,94.373 119.278,93.916 C125.945,93.528 132.509,92.322 138.796,89.86 C142.62,88.362 145.518,85.723 147.845,82.49 C150.923,78.205 149.664,72.316 145.462,68.968 C139.759,64.417 133.124,62.618 126.096,61.41 C119.776,60.327 113.468,60.443 107.142,60.525 C104.171,60.563 97.072,60.844 94.352,63.372 C93.353,64.26 92.554,64.325 92.079,63.896 C91.601,63.463 91.581,62.777 91.576,62.182 C91.524,55.994 91.519,49.806 91.558,43.625 C91.573,41.6 92.516,40.989 94.081,42.088 C96.06,43.474 98.257,44.082 100.552,44.379 C104.36,44.869 116.793,44.435 119.334,44.105 C126.125,43.214 125.53,43.321 129.495,42.257 C133.737,41.12 137.785,38.135 139.898,35.67 C139.93,35.629 139.966,35.589 139.999,35.55 C142.944,31.997 141.955,27.904 139.216,24.977 C136.583,22.162 133.278,20.365 129.597,19.277 C123.56,17.496 117.377,16.518 111.108,16.813 C99.75,17.348 88.618,19.088 78.351,24.375 C76,25.592 73.795,27.112 71.625,28.64 C69.773,29.942 68.839,31.849 68.787,34.146 C68.76,35.341 68.949,36.704 67.533,37.225 C66.104,37.751 65.368,36.508 64.55,35.68 C59.323,30.36 54.116,25.015 48.905,19.678 C48.602,19.371 48.269,19.08 48.048,18.717 C47.417,17.696 47.805,16.85 49.013,16.708 C50.362,16.554 51.81,16.767 53.064,16.358 C54.918,15.752 56.652,14.764 58.416,13.898 C63.107,11.595 67.674,9 72.491,7.013 C80.119,3.869 88.151,2.179 96.354,1.16 C104.202,0.181 118.054,-0.222 128.076,1.26 C134.772,2.276 141.412,3.622 147.63,6.398 C153.114,8.847 158.469,11.582 162.563,16.2 C165.522,19.537 167.51,23.269 168.176,27.796 C168.814,32.133 168.104,36.099 166.25,39.989 C164.977,42.67 163.069,44.402 160.446,45.98 C155.304,49.072 152.256,49.841 151.606,50.238 C150.568,50.873 150.524,51.713 151.579,52.318 C152.529,52.862 153.621,53.184 154.681,53.514 C160.872,55.45 166.19,58.852 170.62,63.522 C173.863,66.925 175.779,71.01 176.423,75.834 C177.084,80.771 175.927,85.139 173.792,89.434 C172.137,92.775 169.386,95.124 166.494,97.257 C160.64,101.575 154.128,104.492 147.14,106.565 C141.943,108.105 136.674,109.148 131.337,109.857 C113.095,111.854 103.776,110.817 99.505,110.557 L99.505,110.557 Z M312.188,111.397 C310.135,109.231 304.614,109.035 303.756,109.035 C265.095,109.035 226.432,109.032 187.769,109.035 C183.836,109.035 183.129,109.517 183.614,104.528 C184.401,96.363 187.396,88.775 193.314,82.912 C194.448,81.759 194.828,81.369 197.418,79.016 C208.394,69.051 230.265,61.063 230.265,61.063 C230.265,61.063 248.566,54.291 258.843,50.238 C263.458,48.421 267.966,46.322 272.078,43.47 C286.984,31.701 279.244,20.017 259.589,17.293 C245.826,15.323 233.284,18.687 221.69,26.095 C220.175,27.063 218.898,28.029 217.437,29.079 C214.846,31.275 212.623,33.834 212.138,36.666 C211.878,38.191 212.128,39.245 212.157,39.493 C212.258,40.287 212.498,41.544 211.913,42.116 C211.206,42.808 209.74,42.114 209.089,41.498 C203.113,35.841 197.13,30.197 191.149,24.551 C190.775,24.196 190.086,23.439 190.086,23.439 C190.086,23.439 189.43,22.681 189.409,22.158 C189.383,21.575 189.955,21.026 190.642,20.811 C193.901,20.207 195.405,20.017 197.359,18.58 C202.625,14.731 208.121,11.285 213.998,8.417 C221.848,4.579 230.107,2.298 238.755,1.129 C245.405,0.235 264.937,-2.814 287.753,7.347 C293.768,9.991 298.929,13.735 302.821,19.017 C305.125,22.142 313.8,39.284 296.119,52.97 C289.796,58.05 282.252,61.191 274.626,63.859 C268.099,66.143 263.312,67.854 252.633,70.949 C244.524,73.36 238.704,75.252 229.426,79.665 C222.047,83.169 217.2,87.434 217.2,87.434 C217.2,87.434 214.784,89.299 215.254,90.76 C215.655,92.029 217.675,91.903 218.862,91.904 C247.408,91.922 275.955,91.916 304.504,91.917 C307.459,91.917 310.322,91.71 312.575,89.388 C312.907,89.048 313.772,88.867 314.166,89.063 C314.541,89.247 314.803,90.029 314.807,90.545 C314.852,97.246 314.853,104.09 314.816,110.789 C314.809,111.44 314.595,111.673 314.275,111.862 C313.787,112.145 312.75,111.997 312.188,111.397 L312.188,111.397 Z M350.808,1.19 C356.891,1.19 362.98,1.19 369.066,1.195 C369.669,1.195 370.274,1.149 370.866,1.218 C372.227,1.38 372.434,1.956 371.581,3.063 C370.059,5.051 370.072,5.266 371.804,7.102 C371.865,7.162 371.928,7.222 371.985,7.281 L397.47,33.106 C397.894,33.535 398.292,34.002 398.778,34.345 C399.63,34.958 400.544,34.97 401.382,34.298 C401.85,33.923 402.261,33.479 402.683,33.048 C411.073755,24.5747373 419.462755,16.0997371 427.85,7.623 C428.15,7.315 428.466,7.021 428.736,6.687 C429.855,5.295 429.827,4.806 428.783,3.312 C427.843,2.043 427.843,1.262 429.759,1.216 C430.18,1.205 430.612,1.195 431.041,1.195 C443.389,1.195 455.738,1.19 468.079,1.198 C468.847,1.198 469.632,1.188 470.375,1.351 C470.691,1.422 471.072,1.895 471.126,2.235 C471.179,2.567 470.945,3.151 470.669,3.289 C469.836,3.709 468.943,4.069 468.031,4.267 C464.575,5.026 461.76,6.735 459.261,9.284 C448.514,20.253 437.657,31.116 426.857,42.037 C424.15,44.779 421.484,47.576 418.83,50.375 C417.148,52.142 417.145,52.982 418.848,54.722 C421.839,57.782 424.913,60.754 427.889,63.827 C430.095,66.099 432.146,68.525 434.368,70.78 C440.277,76.765 446.257,82.677 452.174,88.653 C456.157,92.675 460.103,96.733 464.019,100.819 C466.271,103.179 468.897,104.819 472.065,105.635 C473.217,105.924 474.348,106.366 475.434,106.851 C475.731,106.986 476.04,107.543 475.996,107.858 C475.948,108.182 475.526,108.596 475.184,108.705 C474.63,108.882 474.006,108.884 473.412,108.884 C460.808,108.894 448.207,108.89 435.602,108.884 C435.09,108.884 434.559,108.895 434.075,108.761 C433.272,108.527 432.968,108.046 433.464,107.212 C433.88,106.512 434.539,105.715 434.467,105.026 C434.383,104.298 433.635,103.585 433.053,102.987 C423.274,92.994 413.48,83.018 403.689,73.036 C403.32934,72.6680046 402.964639,72.3049703 402.595,71.947 C400.433,69.849 399.64,69.823 397.475,71.984 C391.215,78.222 384.948,84.459 378.743,90.755 C374.715,94.846 370.789,99.039 366.823,103.197 C365.33,104.762 365.332,104.86 366.464,106.94 C367.112,108.123 366.869,108.644 365.516,108.841 C364.931,108.927 364.321,108.89 363.721,108.89 C351.548,108.894 339.372,108.909 327.197,108.872 C326.107,108.867 324.273,109.163 324.181,107.829 C323.987,106.435 325.668,106.366 326.654,106.133 C331.089,105.094 334.476,102.563 337.61,99.341 C347.603,89.071 357.765,78.968 367.819,68.765 C370.945,65.593 373.928,62.291 377.018,59.086 C378.204,57.848 379.524,56.749 380.742,55.542 C383.283,53.013 383.291,52.341 380.846,49.867 C373.435,42.356 366.004,34.865 358.598,27.345 C352.576,21.243 346.53,15.157 340.588,8.974 C338.297,6.597 335.61,5.111 332.446,4.373 C331.864,4.237 331.291,4.055 330.717,3.879 C329.904,3.627 328.896,3.433 329.009,2.321 C329.121,1.19 330.114,1.19 330.998,1.195 C331.511,1.195 332.027,1.19 332.541,1.19 L350.808,1.19 L350.808,1.19 Z" id="Shape" fill-rule="nonzero"></path>
                    <path d="M24.704,77.036 C26.675,77.036 28.238,75.446 28.218,73.539 L28.218,59.257 L23.822,59.257 L23.822,72.67 L22.59,72.67 L22.59,62.1 L18.216,62.1 L18.216,77.014 L24.704,77.036 Z M10.214,77.014 C8.396,77.014 6.709,75.466 6.71697166,73.539 L6.71697166,59.257 L11.092,59.257 L11.092,72.67 L12.323,72.67 L12.323,62.1 L16.757,62.1 L16.757,77.036 L10.214,77.014 L10.214,77.014 Z" id="Shape"></path>
                    <path d="M0.82,74.048 C0.82,78.896 4.794,82.828 9.691,82.828 L25.219,82.828 C30.118,82.828 34.089,78.896 34.089,74.048 L34.089,59.253 L29.717,59.253 L29.717,73.681 C29.717,76.226 27.278,78.483 24.708,78.483 L10.198,78.483 C7.625,78.483 5.249,76.226 5.249,73.681 L5.249,59.253 L0.814,59.253 L0.814,74.048 L0.82,74.048 Z M23.941,46.037 L11.092,46.037 L11.092,31.928 L6.71697166,31.928 L6.71697166,46.828 C6.709,48.756 8.396,50.304 10.214,50.304 L24.704,50.321 C26.675,50.321 28.238,48.736 28.2181898,46.828 L28.2181898,37.739 L18.138,37.763 L18.138,44.601 L22.473,44.601 L22.473,42.073 L23.939,42.073 L23.939,46.037 L23.941,46.037 Z M0.779,87.012 L0.779,101.185 C0.779,107.157 5.672,112 11.706,112 C17.743,112 22.519,107.157 22.467,101.185 L22.467,96.867 L23.941,96.867 L23.941,111.906 L28.22,111.906 L28.22,97.357 C28.22,94.622 25.977,92.402 23.217,92.402 C21.9002872,92.39721 20.6359479,92.91733 19.7037598,93.847266 C18.7715717,94.7772019 18.2483949,96.0402795 18.25,97.357 L18.234,101.126 C18.234,104.675 15.326,107.552 11.742,107.552 C8.156,107.552 5.249,104.677 5.249,101.126 L5.249,87.002 L0.779,87.012 L0.779,87.012 Z" id="Shape"></path>
                    <path d="M10.974,87.012 L10.974,101.744 L12.441,101.744 L12.449,97.325 C12.4369837,94.4538841 13.5718712,91.696819 15.601605,89.6661464 C17.6313388,87.6354737 20.3878789,86.4993114 23.259,86.5099098 C26.1317254,86.4982593 28.8903119,87.6336336 30.9224972,89.6641292 C32.9546825,91.6946247 34.0923511,94.4522658 34.0830572,97.325 L34.053,111.906 L29.705,111.906 L29.705,97.357 C29.705,93.808 26.799,90.931 23.213,90.931 C19.629,90.931 16.759,93.808 16.759,97.357 L16.745,101.126 C16.745,103.861 14.502,106.081 11.738,106.081 C8.974,106.081 6.733,103.861 6.733,101.126 L6.733,87.002 L10.974,87.012 L10.974,87.012 Z M5.969,15.446 C5.552,15.622 5.452,15.683 5.452,16.157 C5.452,16.633 5.702,16.747 6.119,16.929 L34.089,25.913 L34.095,21.186 L18.589,16.103 L23.826,14.431 L23.826,17.786 L28.238,17.786 L28.238,8.239 L5.969,15.446 Z" id="Shape"></path>
                    <path d="M34.093,47.338 C34.093,52.185 30.12,56.119 25.223,56.119 L9.695,56.119 C4.796,56.119 0.824,52.185 0.824,47.338 L0.824,31.928 L5.259,31.928 L5.259,46.967 C5.259,49.516 7.635,51.773 10.208,51.773 L24.716,51.773 C27.288,51.773 29.725,49.518 29.725,46.967 L29.725,36.314 L16.681,36.314 L16.681,44.597 L12.327,44.597 L12.327,31.91 L33.071,31.91 L4.808,22.872 C2.008,21.901 -5.32907052e-15,19.263 -5.32907052e-15,16.157 C-5.32907052e-15,12.989 2.096,10.3 4.993,9.386 L34.095,-1.77635684e-15 L34.095,17.786 L29.723,17.786 L29.723,6.232 L5.45,14.066 C4.115,14.524 3.958,15.341 3.958,16.157 C3.958,17.01 4.311,17.798 5.53,18.242 L34.095,27.438 L34.095,47.338 L34.093,47.338 Z" id="Path"></path>
                </g>
            </g>
        </g>
    </g>
</svg>