<svg viewBox="0 0 633 90" xmlns="http://www.w3.org/2000/svg" xml:space="preserve" style="fill-rule:evenodd;clip-rule:evenodd;stroke-linejoin:round;stroke-miterlimit:2">
    <clipPath id="a">
        <path d="M.269.697h632v88.576h-632z"/>
    </clipPath>
    <g clip-path="url(#a)">
        <path d="m88.784 31.231-1.798-.824c.114-.367.224-.825.224-1.282 0-1.192-10.554-7.612-28.857-7.612-17.516 0-25.04 4.401-25.04 10.085 0 15.035 66.136-6.966 66.136 26.224 0 12.101-14.372 21.453-43.118 21.453-27.397 0-35.259-7.151-37.841-7.151-.673 0-1.011.458-1.571.734l-1.46-.276 9.319-15.587 1.798.733c0 .37-.227.737-.227 1.467 0 5.411 14.488 9.261 28.86 9.261 20.436 0 27.397-4.765 27.397-9.812 0-17.967-65.238 4.31-65.238-26.127 0-15.403 19.873-21.82 41.658-21.82 19.539 0 33.237 6.966 34.587 6.966 1.459 0 1.684-.364 2.022-.639l1.795.457-8.646 13.75Zm19.308 45.843c2.471 0 2.919-.734 2.919-2.752V15.647c0-2.019-.451-2.749-2.919-2.749v-1.285h72.876c2.695 0 3.817-.734 3.817-2.016h1.57v15.217h-1.57c0-1.649-1.122-2.383-3.817-2.383h-54.011v16.321h35.259c2.692 0 3.817-.733 3.817-2.382h1.571v15.399h-1.571c0-.734-.224-1.283-.9-1.649-.56-.367-1.571-.552-2.917-.552h-35.259v17.973h55.022c2.692 0 3.817-.737 3.817-2.201h1.571v15.035h-1.571c0-1.285-1.125-2.019-3.817-2.019h-73.887v-1.282ZM286.96 43.15v1.286c-1.125.185-2.133.915-2.133 2.934v18.061c0 1.467.56 2.016 2.02 2.291v1.283c-7.073 3.301-24.367 10.27-43.792 10.27-25.826 0-48.509-10.455-48.509-34.291 0-23.838 26.5-34.29 49.855-34.29 9.209 0 17.968 1.743 24.367 3.392 5.954 2.11 10.33 3.762 11.117 3.762 1.011 0 2.022-.461 2.471-1.009l1.571.548-10.89 15.036-1.573-.825c.11-.367.224-.915.224-1.558 0-2.843-12.128-8.527-27.062-8.527-18.862 0-34.135 7.612-34.135 23.108 0 16.226 15.273 23.832 32.564 23.832 14.151 0 22.458-3.941 25.827-5.957v-7.608h-19.314c-2.244 0-3.593.915-3.593 2.197h-1.574V40.953h1.574c0 1.282 1.349 2.197 3.593 2.197h37.392Zm5.606 35.209v-1.285c2.023-.091 2.696-.549 4.266-3.483l30.655-56.292c.563-.918 1.236-1.928 1.236-2.752 0-1.006-.898-1.467-2.361-1.649v-1.285h24.481v1.285c-1.681.182-2.358.73-2.358 1.373 0 .734.449 1.467 1.012 2.386l32.563 56.934c1.571 2.844 2.02 3.483 4.377 3.483v1.285h-22.344v-1.285c1.46 0 2.022-.458 2.022-.915 0-1.01-1.011-2.292-8.535-15.406h-38.514c-6.513 11.92-8.197 13.754-8.197 14.945 0 .827.673 1.285 1.684 1.376v1.282h-19.987v.003Zm58.504-28.058-13.474-24.02-13.253 24.02h26.727Z" style="fill:#fff;fill-rule:nonzero"/>
        <path d="M632.269 89.272h-632V.697h632v88.575ZM5.957 83.632h620.624V6.34H5.957v77.292Z" style="fill:#fff;fill-rule:nonzero"/>
        <path d="M405.906 11.613v66.743h216.106V11.613H405.906Zm9.161 46.852c-1.795-11.882 37.992-27.723 89.829-36.068l-3.435.875-6.5 1.573c-26.443 6.411-44.97 17.961-43.425 28.199 1.587 10.484 23.675 16.161 51.774 14.221 1.561-.11 7.1-.373 8.307-.427-52.032 7.089-94.755 3.515-96.55-8.373Zm129.579 2.567c-11.487 2.59-25.843 4.791-25.843 4.791V36.037l7.401 24.237s17.63-2.837 31.047-8.38c11.663-4.819 18.897-10.863 18.407-17.299-.79-10.458-23.207-16.038-50.886-14.273-1.845.119-7.972.432-9.179.482 52.023-7.091 94.74-3.514 96.538 8.371 1.526 10.107-27.031 23.07-67.485 31.857Z" style="fill:#fff;fill-rule:nonzero"/>
    </g>
</svg>
