<svg viewBox="0 0 3839 1161.9" xmlns="http://www.w3.org/2000/svg">
    <path class="st0" d="M507.8 808.4H0v158.4h507.8c97.5 0 178.7-81.2 178.7-178.7 0-97.5-81.2-178.7-178.7-178.7h-130c-117.8 0-215.3-97.5-215.3-215.3 0-117.8 97.5-215.4 215.3-215.4h503.7V20.3H373.7C166.6 20.3 0 186.9 0 394.1c0 207.2 166.6 373.7 373.7 373.7h130c12.2 0 20.3 8.1 20.3 20.3.1 12.2-8.1 20.3-16.2 20.3Z" style="fill:#fff"/>
    <path class="st0" d="M373.7 377.8h507.8V215.3H373.7C276.2 215.3 195 296.5 195 394c0 97.5 81.2 178.7 178.7 178.7h130C621.5 572.7 719 670.2 719 788c0 117.8-97.5 215.3-215.3 215.3H0v158.4h507.8c207.2 0 373.7-166.6 373.7-373.7S715 414.4 507.8 414.4h-130c-12.2 0-20.3-8.1-20.3-20.3 0-8.2 8.1-16.3 16.2-16.3Zm1824.1-162.5c-69.1 0-121.9 52.8-121.9 121.9V845c0 69.1 52.8 121.9 121.9 121.9h329.1V609.4H2275v158.4h93.4v36.6H2275c-20.3 0-36.6-16.2-36.6-36.6V410.3c0-20.3 16.2-36.6 36.6-36.6h450.9V215.3h-528.1Zm999.3 751.6h369.7l-251.9-747.5c-8.1-20.3-24.4-36.6-48.7-36.6-20.3 0-40.6 16.2-48.7 32.5l-325 946.5h186.9l113.7-337.2v142.2h4Zm65-341.3 52.8 162.5h-109.7l56.9-162.5Z" style="fill:#fff"/>
    <path class="st0" d="M3509.9 186.9C3477.4 81.2 3379.9 0 3262.1 0c-117.8 0-215.3 77.2-243.7 182.8l-296.6 869.4V414.4H2275v158.4h292.5v430.6h-365.6c-89.4 0-158.4-73.1-158.4-158.4V337.2c0-89.4 73.1-158.4 158.4-158.4H2726V20.3h-528.1c-174.7 0-316.9 142.2-316.9 316.9V845c0 174.7 142.2 316.9 316.9 316.9H2852l329.1-954.7c12.2-36.6 44.7-60.9 85.3-60.9 40.6 0 73.1 24.4 85.3 60.9l268.1 796.2h-422.5v158.4H3839l-329.1-974.9Zm-2234.3 816.5c-89.4 0-158.4-73.1-158.4-158.4V337.2c0-89.4 73.1-158.4 158.4-158.4H1820V20.3h-544.4c-174.7 0-316.9 142.2-316.9 316.9V845c0 174.7 142.2 316.9 316.9 316.9H1820v-158.4h-544.4Z" style="fill:#fff"/>
    <path class="st0" d="M1312.2 771.9h394.1V613.4h-552.5V849c0 69.1 52.8 121.9 121.9 121.9H1820V812.5h-471.2c-20.4-4.1-36.6-20.3-36.6-40.6Zm394-357.5h-394.1c0-20.3 16.2-36.6 36.6-36.6h467.2V215.3h-540.3c-69.1 0-121.9 52.8-121.9 121.9v235.6h552.5V414.4Z" style="fill:#fff"/>
</svg>
