<?xml version="1.0" encoding="UTF-8" standalone="no"?>
<!DOCTYPE svg PUBLIC "-//W3C//DTD SVG 1.1//EN" "http://www.w3.org/Graphics/SVG/1.1/DTD/svg11.dtd">
<svg width="100%" height="100%" viewBox="0 0 632 90" version="1.1" xmlns="http://www.w3.org/2000/svg" xmlns:xlink="http://www.w3.org/1999/xlink" xml:space="preserve" xmlns:serif="http://www.serif.com/" style="fill-rule:evenodd;clip-rule:evenodd;stroke-linejoin:round;stroke-miterlimit:2;">
    <g transform="matrix(1,0,0,1,-4,-15)">
        <g transform="matrix(1.05333,0,0,1.04499,4,15.7122)">
            <path id="path7" d="M84.033,29.22L82.326,28.431C82.434,28.08 82.539,27.642 82.539,27.204C82.539,26.064 72.519,19.92 55.143,19.92C38.514,19.92 31.371,24.132 31.371,29.571C31.371,43.959 94.158,22.905 94.158,54.666C94.158,66.246 80.514,75.195 53.223,75.195C27.213,75.195 19.749,68.352 17.298,68.352C16.659,68.352 16.338,68.79 15.807,69.054L14.421,68.79L23.268,53.874L24.975,54.576C24.975,54.93 24.759,55.281 24.759,55.98C24.759,61.158 38.514,64.842 52.158,64.842C71.559,64.842 78.168,60.282 78.168,55.452C78.168,38.259 16.233,59.577 16.233,30.45C16.233,15.711 35.1,9.57 55.782,9.57C74.331,9.57 87.336,16.236 88.617,16.236C90.003,16.236 90.216,15.888 90.537,15.624L92.241,16.062L84.033,29.22Z" style="fill:white;fill-rule:nonzero;"/>
            <path id="path9" d="M102.363,73.089C104.709,73.089 105.135,72.387 105.135,70.455L105.135,14.307C105.135,12.375 104.706,11.676 102.363,11.676L102.363,10.446L171.549,10.446C174.108,10.446 175.173,9.744 175.173,8.517L176.664,8.517L176.664,23.079L175.173,23.079C175.173,21.501 174.108,20.799 171.549,20.799L120.273,20.799L120.273,36.417L153.747,36.417C156.303,36.417 157.371,35.715 157.371,34.137L158.862,34.137L158.862,48.873L157.371,48.873C157.371,48.171 157.158,47.646 156.516,47.295C155.985,46.944 155.025,46.767 153.747,46.767L120.273,46.767L120.273,63.966L172.509,63.966C175.065,63.966 176.133,63.261 176.133,61.86L177.624,61.86L177.624,76.248L176.133,76.248C176.133,75.018 175.065,74.316 172.509,74.316L102.363,74.316L102.363,73.089Z" style="fill:white;fill-rule:nonzero;"/>
            <path id="path11" d="M272.175,40.626L272.175,41.856C271.107,42.033 270.15,42.732 270.15,44.664L270.15,61.947C270.15,63.351 270.681,63.876 272.067,64.14L272.067,65.367C265.353,68.526 248.934,75.195 230.493,75.195C205.974,75.195 184.44,65.19 184.44,42.381C184.44,19.569 209.598,9.567 231.771,9.567C240.513,9.567 248.829,11.235 254.904,12.813C260.556,14.832 264.711,16.413 265.458,16.413C266.418,16.413 267.378,15.972 267.804,15.447L269.295,15.972L258.957,30.36L257.463,29.571C257.568,29.22 257.676,28.695 257.676,28.08C257.676,25.359 246.162,19.92 231.984,19.92C214.077,19.92 199.578,27.204 199.578,42.033C199.578,57.561 214.077,64.839 230.493,64.839C243.927,64.839 251.814,61.068 255.012,59.139L255.012,51.858L236.676,51.858C234.546,51.858 233.265,52.734 233.265,53.961L231.771,53.961L231.771,38.523L233.265,38.523C233.265,39.75 234.546,40.626 236.676,40.626L272.175,40.626Z" style="fill:white;fill-rule:nonzero;"/>
            <path id="path13" d="M277.497,74.319L277.497,73.089C279.417,73.002 280.056,72.564 281.547,69.756L310.65,15.888C311.184,15.009 311.823,14.043 311.823,13.254C311.823,12.291 310.971,11.85 309.582,11.676L309.582,10.446L332.823,10.446L332.823,11.676C331.227,11.85 330.585,12.375 330.585,12.99C330.585,13.692 331.011,14.394 331.545,15.273L362.46,69.756C363.951,72.477 364.377,73.089 366.615,73.089L366.615,74.319L345.402,74.319L345.402,73.089C346.788,73.089 347.322,72.651 347.322,72.213C347.322,71.247 346.362,70.02 339.219,57.471L302.655,57.471C296.472,68.877 294.873,70.632 294.873,71.772C294.873,72.564 295.512,73.002 296.472,73.089L296.472,74.316L277.497,74.316L277.497,74.319ZM333.039,47.469L320.247,24.483L307.665,47.469L333.039,47.469Z" style="fill:white;fill-rule:nonzero;"/>
            <path id="path17" d="M600,84.762L0,84.762L0,0L600,0L600,84.762ZM5.4,79.365L594.6,79.365L594.6,5.4L5.4,5.4L5.4,79.365Z" style="fill:white;fill-rule:nonzero;"/>
            <path id="path25" d="M385.098,10.446L385.098,74.316L590.262,74.316L590.262,10.446L385.098,10.446ZM393.795,55.281C392.091,43.911 429.864,28.752 479.076,20.766C477.966,21.051 475.815,21.603 475.815,21.603C475.815,21.603 470.979,22.782 469.644,23.109C444.54,29.244 426.951,40.296 428.418,50.094C429.924,60.126 450.894,65.559 477.57,63.702C479.052,63.597 484.311,63.345 485.457,63.294C436.059,70.077 395.499,66.657 393.795,55.281ZM516.813,57.738C505.908,60.216 492.279,62.322 492.279,62.322L492.279,33.819L499.305,57.012C499.305,57.012 516.042,54.297 528.78,48.993C539.853,44.382 546.72,38.598 546.255,32.439C545.505,22.431 524.223,17.091 497.946,18.78C496.194,18.894 490.377,19.194 489.231,19.242C538.62,12.456 579.174,15.879 580.881,27.252C582.33,36.924 555.219,49.329 516.813,57.738Z" style="fill:white;fill-rule:nonzero;"/>
        </g>
    </g>
</svg>
