<svg viewBox="0 0 477 113" xmlns="http://www.w3.org/2000/svg" xml:space="preserve" style="fill-rule:evenodd;clip-rule:evenodd;stroke-linejoin:round;stroke-miterlimit:2">
    <clipPath id="a">
        <path d="M.269.984h476v112h-476z"/>
    </clipPath>
    <g clip-path="url(#a)">
        <path d="M99.774 111.541c-4.684-.286-9.378-.891-14.007-1.708-18.827-3.328-27.583-7.78-32.838-9.846-2.511-.99-4.965-1.923-7.695-.921-.309.114-.677.107-1.017.114-1.733.018-2.269-.654-1.512-2.207.895-1.848 1.95-3.626 3.011-5.388 2.874-4.775 5.786-9.529 8.687-14.291.133-.223.286-.429.416-.654.594-.993 1.241-1.91 2.595-1.717 1.274.175 1.552 1.229 1.816 2.223.584 2.175 1.907 3.794 3.646 5.14 4.119 3.193 8.768 5.341 13.648 7.044 6.326 2.212 12.838 3.598 19.455 4.636 7.831 1.233 15.704 1.391 23.568.934 6.667-.388 13.231-1.594 19.518-4.056 3.824-1.498 6.722-4.137 9.049-7.37 3.078-4.285 1.819-10.174-2.383-13.522-5.703-4.551-12.338-6.35-19.366-7.558-6.32-1.083-12.628-.967-18.954-.885-2.971.038-10.07.319-12.79 2.847-.999.888-1.798.953-2.273.524-.478-.433-.498-1.119-.503-1.714-.052-6.188-.057-12.376-.018-18.557.015-2.025.958-2.636 2.523-1.537 1.979 1.386 4.176 1.994 6.471 2.291 3.808.49 16.241.056 18.782-.274 6.791-.891 6.196-.784 10.161-1.848 4.242-1.137 8.29-4.122 10.403-6.587.032-.041.068-.081.101-.12 2.945-3.553 1.956-7.646-.783-10.573-2.633-2.815-5.938-4.612-9.619-5.7-6.037-1.781-12.22-2.759-18.489-2.464-11.358.535-22.49 2.275-32.757 7.562-2.351 1.217-4.556 2.737-6.726 4.265-1.852 1.302-2.786 3.209-2.838 5.506-.027 1.195.162 2.558-1.254 3.079-1.429.526-2.165-.717-2.983-1.545-5.227-5.32-10.434-10.665-15.645-16.002-.303-.307-.636-.598-.857-.961-.631-1.021-.243-1.867.965-2.009 1.349-.154 2.797.059 4.051-.35 1.854-.606 3.588-1.594 5.352-2.46 4.691-2.303 9.258-4.898 14.075-6.885 7.628-3.144 15.66-4.834 23.863-5.853 7.848-.979 21.7-1.382 31.722.1 6.696 1.016 13.336 2.362 19.554 5.138 5.484 2.449 10.839 5.184 14.933 9.802 2.959 3.337 4.947 7.069 5.613 11.596.638 4.337-.072 8.303-1.926 12.193-1.273 2.681-3.181 4.413-5.804 5.991-5.142 3.092-8.19 3.861-8.84 4.258-1.038.635-1.082 1.475-.027 2.08.95.544 2.042.866 3.102 1.196 6.191 1.936 11.509 5.338 15.939 10.008 3.243 3.403 5.159 7.488 5.803 12.312.661 4.937-.496 9.305-2.631 13.6-1.655 3.341-4.406 5.69-7.298 7.823-5.854 4.318-12.366 7.235-19.354 9.308-5.197 1.54-10.466 2.583-15.803 3.292-18.242 1.997-27.561.96-31.832.7Zm212.683.84c-2.053-2.166-7.574-2.362-8.432-2.362-38.661 0-77.324-.003-115.987 0-3.933 0-4.64.482-4.155-4.507.787-8.165 3.782-15.753 9.7-21.616 1.134-1.153 1.514-1.543 4.104-3.896 10.976-9.965 32.847-17.953 32.847-17.953s18.301-6.772 28.578-10.825c4.615-1.817 9.123-3.916 13.235-6.768 14.906-11.769 7.166-23.453-12.489-26.177-13.763-1.97-26.305 1.394-37.899 8.802-1.515.968-2.792 1.934-4.253 2.984-2.591 2.196-4.814 4.755-5.299 7.587-.26 1.525-.01 2.579.019 2.827.101.794.341 2.051-.244 2.623-.707.692-2.173-.002-2.824-.618-5.976-5.657-11.959-11.301-17.94-16.947-.374-.355-1.063-1.112-1.063-1.112s-.656-.758-.677-1.281c-.026-.583.546-1.132 1.233-1.347 3.259-.604 4.763-.794 6.717-2.231 5.266-3.849 10.762-7.295 16.639-10.163 7.85-3.838 16.109-6.119 24.757-7.288 6.65-.894 26.182-3.943 48.998 6.218 6.015 2.644 11.176 6.388 15.068 11.67 2.304 3.125 10.979 20.267-6.702 33.953-6.323 5.08-13.867 8.221-21.493 10.889-6.527 2.284-11.314 3.995-21.993 7.09-8.109 2.411-13.929 4.303-23.207 8.716-7.379 3.504-12.226 7.769-12.226 7.769s-2.416 1.865-1.946 3.326c.401 1.269 2.421 1.143 3.608 1.144 28.546.018 57.093.012 85.642.013 2.955 0 5.818-.207 8.071-2.529.332-.34 1.197-.521 1.591-.325.375.184.637.966.641 1.482.045 6.701.046 13.545.009 20.244-.007.651-.221.884-.541 1.073-.488.283-1.525.135-2.087-.465Zm38.62-110.207c6.083 0 12.172 0 18.258.005.603 0 1.208-.046 1.8.023 1.361.162 1.568.738.715 1.845-1.522 1.988-1.509 2.203.223 4.039.061.06.124.12.181.179l25.485 25.825c.424.429.822.896 1.308 1.239.852.613 1.766.625 2.604-.047.468-.375.879-.819 1.301-1.25a86376.69 86376.69 0 0 0 25.167-25.425c.3-.308.616-.602.886-.936 1.119-1.392 1.091-1.881.047-3.375-.94-1.269-.94-2.05.976-2.096.421-.011.853-.021 1.282-.021 12.348 0 24.697-.005 37.038.003.768 0 1.553-.01 2.296.153.316.071.697.544.751.884.053.332-.181.916-.457 1.054-.833.42-1.726.78-2.638.978-3.456.759-6.271 2.468-8.77 5.017-10.747 10.969-21.604 21.832-32.404 32.753-2.707 2.742-5.373 5.539-8.027 8.338-1.682 1.767-1.685 2.607.018 4.347 2.991 3.06 6.065 6.032 9.041 9.105 2.206 2.272 4.257 4.698 6.479 6.953 5.909 5.985 11.889 11.897 17.806 17.873 3.983 4.022 7.929 8.08 11.845 12.166 2.252 2.36 4.878 4 8.046 4.816 1.152.289 2.283.731 3.369 1.216.297.135.606.692.562 1.007-.048.324-.47.738-.812.847-.554.177-1.178.179-1.772.179-12.604.01-25.205.006-37.81 0-.512 0-1.043.011-1.527-.123-.803-.234-1.107-.715-.611-1.549.416-.7 1.075-1.497 1.003-2.186-.084-.728-.832-1.441-1.414-2.039-9.779-9.993-19.573-19.969-29.364-29.951a56.152 56.152 0 0 0-1.094-1.089c-2.162-2.098-2.955-2.124-5.12.037-6.26 6.238-12.527 12.475-18.732 18.771-4.028 4.091-7.954 8.284-11.92 12.442-1.493 1.565-1.491 1.663-.359 3.743.648 1.183.405 1.704-.948 1.901-.585.086-1.195.049-1.795.049-12.173.004-24.349.019-36.524-.018-1.09-.005-2.924.291-3.016-1.043-.194-1.394 1.487-1.463 2.473-1.696 4.435-1.039 7.822-3.57 10.956-6.792 9.993-10.27 20.155-20.373 30.209-30.576 3.126-3.172 6.109-6.474 9.199-9.679 1.186-1.238 2.506-2.337 3.724-3.544 2.541-2.529 2.549-3.201.104-5.675-7.411-7.511-14.842-15.002-22.248-22.522-6.022-6.102-12.068-12.188-18.01-18.371-2.291-2.377-4.978-3.863-8.142-4.601-.582-.136-1.155-.318-1.729-.494-.813-.252-1.821-.446-1.708-1.558.112-1.131 1.105-1.131 1.989-1.126.513 0 1.029-.005 1.543-.005h18.267Z" style="fill:#fff;fill-rule:nonzero"/>
        <path d="M24.973 78.02c1.971 0 3.534-1.59 3.514-3.497V60.241h-4.396v13.413h-1.232v-10.57h-4.374v14.914l6.488.022Zm-14.49-.022c-1.818 0-3.505-1.548-3.497-3.475V60.241h4.375v13.413h1.231v-10.57h4.434V78.02l-6.543-.022Z" style="fill:#fff"/>
        <path d="M1.089 75.032c0 4.848 3.974 8.78 8.871 8.78h15.528c4.899 0 8.87-3.932 8.87-8.78V60.237h-4.372v14.428c0 2.545-2.439 4.802-5.009 4.802h-14.51c-2.573 0-4.949-2.257-4.949-4.802V60.237H1.083v14.795h.006ZM24.21 47.021H11.361V32.912H6.986v14.9c-.008 1.928 1.679 3.476 3.497 3.476l14.49.017c1.971 0 3.534-1.585 3.514-3.493v-9.089l-10.08.024v6.838h4.335v-2.528h1.466v3.964h.002ZM1.048 87.996v14.173c0 5.972 4.893 10.815 10.927 10.815 6.037 0 10.813-4.843 10.761-10.815v-4.318h1.474v15.039h4.279V98.341c0-2.735-2.243-4.955-5.003-4.955a4.949 4.949 0 0 0-4.967 4.955l-.016 3.769c0 3.549-2.908 6.426-6.492 6.426-3.586 0-6.493-2.875-6.493-6.426V87.986l-4.47.01Z" style="fill:#fff"/>
        <path d="M11.243 87.996v14.732h1.467l.008-4.419a10.77 10.77 0 0 1 10.81-10.815 10.78 10.78 0 0 1 10.824 10.815l-.03 14.581h-4.348V98.341c0-3.549-2.906-6.426-6.492-6.426-3.584 0-6.454 2.877-6.454 6.426l-.014 3.769c0 2.735-2.243 4.955-5.007 4.955s-5.005-2.22-5.005-4.955V87.986l4.241.01ZM6.238 16.43c-.417.176-.517.237-.517.711 0 .476.25.59.667.772l27.97 8.984.006-4.727-15.506-5.083 5.237-1.672v3.355h4.412V9.223L6.238 16.43Z" style="fill:#fff"/>
        <path d="M34.362 48.322c0 4.847-3.973 8.781-8.87 8.781H9.964c-4.899 0-8.871-3.934-8.871-8.781v-15.41h4.435v15.039c0 2.549 2.376 4.806 4.949 4.806h14.508c2.572 0 5.009-2.255 5.009-4.806V37.298H16.95v8.283h-4.354V32.894H33.34L5.077 23.856c-2.8-.971-4.808-3.609-4.808-6.715 0-3.168 2.096-5.857 4.993-6.771L34.364.984V18.77h-4.372V7.216L5.719 15.05c-1.335.458-1.492 1.275-1.492 2.091 0 .853.353 1.641 1.572 2.085l28.565 9.196v19.9h-.002Z" style="fill:#fff"/>
    </g>
</svg>
