<?xml version="1.0" encoding="UTF-8" standalone="no"?>
<!DOCTYPE svg PUBLIC "-//W3C//DTD SVG 1.1//EN" "http://www.w3.org/Graphics/SVG/1.1/DTD/svg11.dtd">
<svg width="100%" height="100%" viewBox="0 0 294 113" version="1.1" xmlns="http://www.w3.org/2000/svg" xmlns:xlink="http://www.w3.org/1999/xlink" xml:space="preserve" xmlns:serif="http://www.serif.com/" style="fill-rule:evenodd;clip-rule:evenodd;stroke-linejoin:round;stroke-miterlimit:2;">
    <g transform="matrix(1,0,0,1,-2553,-1786)">
        <g id="sega32x.afdesign" transform="matrix(1,0,0,1,2700,1842.22)">
            <g transform="matrix(1,0,0,1,-319.871,-60.0487)">
                <g transform="matrix(1.10891,0,0,1.10891,173.625,4)">
                    <g>
                        <path id="path23" d="M34.926,100.122C32.076,99.948 29.22,99.58 26.404,99.083C14.949,97.058 9.621,94.349 6.424,93.092C4.896,92.49 3.403,91.922 1.742,92.532C1.554,92.601 1.33,92.597 1.123,92.601C0.069,92.612 -0.257,92.203 0.203,91.258C0.748,90.134 1.39,89.052 2.035,87.98C3.784,85.075 5.556,82.182 7.321,79.285C7.402,79.149 7.495,79.024 7.574,78.887C7.935,78.283 8.329,77.725 9.153,77.842C9.928,77.949 10.097,78.59 10.258,79.195C10.613,80.518 11.418,81.503 12.476,82.322C14.982,84.265 17.811,85.572 20.78,86.608C24.629,87.954 28.591,88.797 32.617,89.429C37.382,90.179 42.172,90.275 46.957,89.997C51.013,89.761 55.007,89.027 58.832,87.529C61.159,86.618 62.922,85.012 64.338,83.045C66.211,80.438 65.445,76.855 62.888,74.818C59.418,72.049 55.381,70.954 51.105,70.219C47.26,69.56 43.422,69.631 39.573,69.681C37.765,69.704 33.446,69.875 31.791,71.413C31.183,71.953 30.697,71.993 30.408,71.732C30.117,71.468 30.105,71.051 30.102,70.689C30.07,66.924 30.067,63.159 30.091,59.398C30.1,58.166 30.674,57.794 31.626,58.463C32.83,59.306 34.167,59.676 35.563,59.857C37.88,60.155 45.445,59.891 46.991,59.69C51.123,59.148 50.761,59.213 53.173,58.566C55.754,57.874 58.217,56.058 59.503,54.558C59.522,54.533 59.544,54.509 59.564,54.485C61.356,52.323 60.754,49.833 59.088,48.052C57.486,46.339 55.475,45.246 53.235,44.584C49.562,43.5 45.8,42.905 41.986,43.085C35.075,43.41 28.302,44.469 22.055,47.686C20.625,48.426 19.283,49.351 17.963,50.281C16.836,51.073 16.268,52.233 16.236,53.631C16.22,54.358 16.335,55.187 15.473,55.504C14.604,55.824 14.156,55.068 13.658,54.564C10.478,51.327 7.31,48.075 4.139,44.828C3.955,44.641 3.752,44.464 3.618,44.243C3.234,43.622 3.47,43.107 4.205,43.021C5.026,42.927 5.907,43.057 6.67,42.808C7.798,42.439 8.853,41.838 9.926,41.311C12.78,39.91 15.559,38.331 18.49,37.122C23.131,35.209 28.018,34.181 33.009,33.561C37.784,32.965 46.212,32.72 52.31,33.622C56.384,34.24 60.424,35.059 64.207,36.748C67.544,38.238 70.802,39.902 73.293,42.712C75.093,44.742 76.303,47.013 76.708,49.767C77.096,52.406 76.664,54.819 75.536,57.186C74.762,58.817 73.601,59.871 72.005,60.831C68.876,62.712 67.022,63.18 66.626,63.422C65.995,63.808 65.968,64.319 66.61,64.687C67.188,65.018 67.852,65.214 68.497,65.415C72.264,66.593 75.5,68.663 78.195,71.504C80.168,73.575 81.334,76.06 81.726,78.995C82.128,81.999 81.424,84.657 80.125,87.27C79.118,89.303 77.444,90.732 75.685,92.03C72.123,94.657 68.161,96.432 63.909,97.693C60.747,98.63 57.541,99.265 54.294,99.696C43.195,100.911 37.525,100.28 34.926,100.122ZM164.33,100.633C163.081,99.315 159.722,99.196 159.2,99.196C135.677,99.196 112.153,99.194 88.629,99.196C86.236,99.196 85.806,99.489 86.101,96.454C86.58,91.486 88.402,86.869 92.003,83.302C92.693,82.6 92.924,82.363 94.5,80.931C101.178,74.868 114.485,70.008 114.485,70.008C114.485,70.008 125.62,65.888 131.873,63.422C134.681,62.316 137.424,61.039 139.926,59.304C148.995,52.143 144.286,45.034 132.327,43.377C123.953,42.178 116.322,44.225 109.268,48.732C108.346,49.321 107.569,49.909 106.68,50.548C105.104,51.884 103.751,53.441 103.456,55.164C103.298,56.092 103.45,56.733 103.468,56.884C103.529,57.367 103.675,58.132 103.319,58.48C102.889,58.901 101.997,58.479 101.601,58.104C97.965,54.662 94.325,51.228 90.686,47.793C90.458,47.577 90.039,47.116 90.039,47.116C90.039,47.116 89.64,46.655 89.627,46.337C89.611,45.982 89.959,45.648 90.377,45.517C92.36,45.15 93.275,45.034 94.464,44.16C97.668,41.818 101.012,39.721 104.588,37.976C109.364,35.641 114.389,34.253 119.651,33.542C123.697,32.998 135.581,31.143 149.463,37.325C153.123,38.934 156.263,41.212 158.631,44.426C160.033,46.327 165.311,56.757 154.553,65.084C150.706,68.175 146.116,70.086 141.476,71.709C137.505,73.099 134.592,74.14 128.095,76.023C123.161,77.49 119.62,78.641 113.975,81.326C109.485,83.458 106.536,86.053 106.536,86.053C106.536,86.053 105.066,87.188 105.352,88.077C105.596,88.849 106.825,88.772 107.547,88.773C124.916,88.784 142.285,88.78 159.655,88.781C161.453,88.781 163.195,88.655 164.566,87.242C164.768,87.035 165.294,86.925 165.534,87.044C165.762,87.156 165.921,87.632 165.924,87.946C165.951,92.023 165.952,96.187 165.929,100.263C165.925,100.659 165.795,100.801 165.6,100.916C165.303,101.088 164.672,100.998 164.33,100.633ZM187.828,33.579C191.529,33.579 195.234,33.579 198.937,33.582C199.304,33.582 199.672,33.554 200.032,33.596C200.86,33.695 200.986,34.045 200.467,34.719C199.541,35.928 199.549,36.059 200.603,37.176C200.64,37.213 200.678,37.249 200.713,37.285C205.882,42.523 211.051,47.761 216.219,52.998C216.477,53.259 216.719,53.543 217.015,53.752C217.533,54.125 218.089,54.132 218.599,53.723C218.884,53.495 219.134,53.225 219.391,52.963C224.496,47.807 229.599,42.652 234.703,37.493C234.886,37.306 235.078,37.127 235.242,36.924C235.923,36.077 235.906,35.779 235.271,34.87C234.699,34.098 234.699,33.623 235.865,33.595C236.121,33.588 236.384,33.582 236.645,33.582C244.158,33.582 251.671,33.579 259.18,33.584C259.647,33.584 260.125,33.578 260.577,33.677C260.769,33.72 261.001,34.008 261.034,34.215C261.066,34.417 260.924,34.772 260.756,34.856C260.249,35.112 259.706,35.331 259.151,35.451C257.048,35.913 255.335,36.953 253.815,38.504C247.276,45.178 240.67,51.787 234.099,58.432C232.452,60.1 230.83,61.802 229.215,63.505C228.192,64.58 228.19,65.091 229.226,66.15C231.046,68.012 232.916,69.82 234.727,71.69C236.069,73.072 237.317,74.548 238.669,75.92C242.264,79.562 245.903,83.159 249.503,86.795C251.926,89.242 254.327,91.711 256.71,94.197C258.08,95.633 259.678,96.631 261.605,97.127C262.306,97.303 262.994,97.572 263.655,97.867C263.836,97.949 264.024,98.288 263.997,98.48C263.968,98.677 263.711,98.929 263.503,98.995C263.166,99.103 262.786,99.104 262.425,99.104C254.756,99.11 247.089,99.108 239.42,99.104C239.108,99.104 238.785,99.111 238.491,99.029C238.002,98.887 237.817,98.594 238.119,98.087C238.372,97.661 238.773,97.176 238.729,96.757C238.678,96.314 238.223,95.88 237.869,95.516C231.919,89.436 225.96,83.366 220.003,77.293C219.783,77.07 219.562,76.846 219.337,76.63C218.022,75.354 217.539,75.338 216.222,76.653C212.413,80.448 208.6,84.243 204.825,88.074C202.374,90.563 199.985,93.114 197.572,95.644C196.664,96.596 196.665,96.656 197.354,97.921C197.748,98.641 197.6,98.958 196.777,99.078C196.421,99.13 196.05,99.108 195.685,99.108C188.278,99.11 180.87,99.119 173.462,99.097C172.799,99.094 171.683,99.274 171.627,98.462C171.509,97.614 172.532,97.572 173.132,97.43C175.83,96.798 177.891,95.258 179.798,93.298C185.878,87.049 192.061,80.902 198.178,74.694C200.08,72.764 201.895,70.755 203.775,68.805C204.497,68.052 205.3,67.383 206.041,66.649C207.587,65.11 207.592,64.701 206.104,63.196C201.595,58.626 197.074,54.068 192.568,49.493C188.904,45.78 185.225,42.077 181.61,38.315C180.216,36.869 178.581,35.965 176.656,35.516C176.302,35.433 175.953,35.322 175.604,35.215C175.109,35.062 174.496,34.944 174.565,34.267C174.633,33.579 175.237,33.579 175.775,33.582C176.087,33.582 176.401,33.579 176.714,33.579L187.828,33.579Z" style="fill:white;fill-rule:nonzero;"/>
                        <g transform="matrix(1.25917,0,0,1.27255,-23.6258,0)">
                            <g>
                                <path id="path11" d="M109.385,12.379C109.385,13.367 110.19,14.15 111.156,14.14L118.389,14.14L118.389,11.937L111.596,11.937L111.596,11.32L116.949,11.32L116.949,9.128L109.396,9.128L109.385,12.379Z" style="fill:white;"/>
                                <path id="path13" d="M109.396,5.118C109.396,4.207 110.18,3.362 111.156,3.366L118.389,3.366L118.389,5.558L111.596,5.558L111.596,6.175L116.949,6.175L116.949,8.397L109.385,8.397L109.396,5.118Z" style="fill:white;"/>
                                <path id="path29" d="M110.898,0.411C108.443,0.411 106.452,2.402 106.452,4.856L106.452,12.637C106.452,15.092 108.443,17.082 110.898,17.082L118.391,17.082L118.391,14.891L111.084,14.891C109.795,14.891 108.652,13.669 108.652,12.381L108.652,5.11C108.652,3.821 109.795,2.63 111.084,2.63L118.391,2.63L118.391,0.408L110.898,0.408L110.898,0.411Z" style="fill:white;"/>
                                <path id="path31" d="M125.084,11.997L125.084,5.558L132.229,5.558L132.229,3.366L124.683,3.366C123.707,3.362 122.923,4.207 122.923,5.118L122.914,12.379C122.914,13.367 123.717,14.15 124.683,14.14L129.286,14.14L129.274,9.089L125.811,9.089L125.811,11.261L127.091,11.261L127.091,11.996L125.084,11.996L125.084,11.997Z" style="fill:white;"/>
                                <path id="path33" d="M104.333,0.39L97.155,0.39C94.131,0.39 91.678,2.842 91.678,5.866C91.678,8.891 94.131,11.284 97.155,11.258L99.342,11.258L99.342,11.997L91.726,11.997L91.726,14.141L99.094,14.141C100.479,14.141 101.603,13.017 101.603,11.634C101.603,10.249 100.479,9.145 99.094,9.145L97.185,9.137C95.388,9.137 93.931,7.68 93.931,5.884C93.931,4.087 95.387,2.63 97.185,2.63L104.338,2.63L104.333,0.39Z" style="fill:white;"/>
                                <path id="path35" d="M104.333,5.499L96.872,5.499L96.872,6.234L99.11,6.238C102.136,6.238 104.587,8.631 104.587,11.655C104.587,14.68 102.136,17.079 99.11,17.079L91.726,17.064L91.726,14.885L99.094,14.885C100.891,14.885 102.348,13.429 102.348,11.632C102.348,9.836 100.891,8.398 99.094,8.398L97.185,8.391C95.8,8.391 94.676,7.267 94.676,5.882C94.676,4.497 95.8,3.374 97.185,3.374L104.338,3.374L104.333,5.499Z" style="fill:white;"/>
                                <path id="path37" d="M140.576,2.991C140.487,2.782 140.456,2.732 140.216,2.732C139.975,2.732 139.917,2.857 139.825,3.066L135.275,17.082L137.669,17.085L140.243,9.315L141.09,11.939L139.391,11.939L139.391,14.15L144.226,14.15L140.576,2.991Z" style="fill:white;"/>
                                <path id="path39" d="M124.425,17.084C121.97,17.084 119.978,15.093 119.978,12.639L119.978,4.858C119.978,2.403 121.97,0.413 124.425,0.413L132.229,0.413L132.229,2.635L124.613,2.635C123.322,2.635 122.179,3.826 122.179,5.115L122.179,12.385C122.179,13.674 123.321,14.895 124.613,14.895L130.008,14.895L130.008,8.359L125.813,8.359L125.813,6.177L132.238,6.177L132.238,16.572L136.815,2.409C137.307,1.006 138.643,0 140.216,0C141.82,0 143.182,1.05 143.645,2.502L148.398,17.085L139.391,17.085L139.391,14.894L145.242,14.894L141.275,2.731C141.043,2.062 140.629,1.983 140.216,1.983C139.784,1.983 139.385,2.16 139.16,2.771L134.503,17.085L124.425,17.085L124.425,17.084Z" style="fill:white;"/>
                            </g>
                        </g>
                    </g>
                </g>
            </g>
        </g>
    </g>
</svg>
