<?xml version="1.0" encoding="UTF-8"?>
<svg width="633px" height="90px" viewBox="0 0 633 90" version="1.1" xmlns="http://www.w3.org/2000/svg" xmlns:xlink="http://www.w3.org/1999/xlink">
    <title>segacd</title>
    <g id="Page-1" stroke="none" stroke-width="1" fill="none" fill-rule="evenodd" opacity="0.78">
        <g id="Sega-CD" transform="translate(-3.000000, -15.000000)" fill="#FFFFFF" fill-rule="nonzero">
            <g id="Group" transform="translate(3.969141, 15.564972)">
                <path d="M88.5144799,30.5346078 L86.7164456,29.7101107 C86.8302052,29.3433192 86.9408049,28.8856136 86.9408049,28.427908 C86.9408049,27.2366194 76.3864383,20.8162008 58.0837762,20.8162008 C40.5679516,20.8162008 33.0440154,25.2176987 33.0440154,30.9013993 C33.0440154,45.9367154 99.1794461,23.935496 99.1794461,57.1254233 C99.1794461,69.2264075 84.8078116,78.5780231 56.0613826,78.5780231 C28.6642693,78.5780231 20.8022142,71.4271565 18.2205023,71.4271565 C17.5474245,71.4271565 17.2093055,71.8848621 16.6499873,72.1607395 L15.1900719,71.8848621 L24.5088824,56.2977913 L26.3069168,57.0313742 C26.3069168,57.4013007 26.0793975,57.7680922 26.0793975,58.4985402 C26.0793975,63.9094984 40.5679516,67.7592416 54.9395861,67.7592416 C75.3752415,67.7592416 82.3366994,62.9940872 82.3366994,57.9467855 C82.3366994,39.9802724 17.0987059,62.2573692 17.0987059,31.8199455 C17.0987059,16.4178379 36.971883,10.0005543 58.7568541,10.0005543 C78.2950722,10.0005543 91.9936289,16.9664576 93.3429446,16.9664576 C94.80286,16.9664576 95.0272193,16.6028011 95.3653382,16.3269238 L97.1602125,16.7846294 L88.5144799,30.5346078 Z" id="path7"></path>
                <path d="M107.822019,76.3772741 C110.293131,76.3772741 110.74185,75.6436911 110.74185,73.6247705 L110.74185,14.9506719 C110.74185,12.9317513 110.289971,12.2013032 107.822019,12.2013032 L107.822019,10.9159655 L180.697708,10.9159655 C183.39318,10.9159655 184.514976,10.1823826 184.514976,8.90017983 L186.085491,8.90017983 L186.085491,24.1173242 L184.514976,24.1173242 C184.514976,22.46833 183.39318,21.734747 180.697708,21.734747 L126.687159,21.734747 L126.687159,38.0554008 L161.946328,38.0554008 C164.638639,38.0554008 165.763595,37.3218179 165.763595,35.6728236 L167.33411,35.6728236 L167.33411,51.0717963 L165.763595,51.0717963 C165.763595,50.3382133 165.539236,49.7895935 164.862998,49.4228021 C164.30368,49.0560106 163.292483,48.8710473 161.946328,48.8710473 L126.687159,48.8710473 L126.687159,66.8438303 L181.708905,66.8438303 C184.401216,66.8438303 185.526173,66.1071124 185.526173,64.6430814 L187.096688,64.6430814 L187.096688,79.6783975 L185.526173,79.6783975 C185.526173,78.3930598 184.401216,77.6594768 181.708905,77.6594768 L107.822019,77.6594768 L107.822019,76.3772741 Z" id="path9"></path>
                <path d="M286.690093,42.4537637 L286.690093,43.7391014 C285.565136,43.9240647 284.557099,44.6545127 284.557099,46.6734334 L284.557099,64.7339955 C284.557099,66.2011615 285.116418,66.7497812 286.576333,67.0256586 L286.576333,68.3078613 C279.504275,71.6089847 262.20965,78.5780231 242.785192,78.5780231 C216.958593,78.5780231 194.276185,68.1228981 194.276185,44.2877212 C194.276185,20.4494093 220.775861,9.99741933 244.131347,9.99741933 C253.339558,9.99741933 262.099051,11.7404627 268.49803,13.3894569 C274.451451,15.4992917 278.828038,17.1514209 279.614875,17.1514209 C280.626072,17.1514209 281.637269,16.6905803 282.085987,16.1419605 L283.656502,16.6905803 L272.767177,31.7258964 L271.193502,30.9013993 C271.304101,30.5346078 271.417861,29.9859881 271.417861,29.3433192 C271.417861,26.4999014 259.289819,20.8162008 244.355707,20.8162008 C225.493726,20.8162008 210.221495,28.427908 210.221495,43.9240647 C210.221495,60.1506694 225.493726,67.7561066 242.785192,67.7561066 C256.935627,67.7561066 265.243241,63.8154493 268.61179,61.7996636 L268.61179,54.1910914 L249.297931,54.1910914 C247.054338,54.1910914 245.705022,55.1065027 245.705022,56.3887054 L244.131347,56.3887054 L244.131347,40.2561498 L245.705022,40.2561498 C245.705022,41.5383525 247.054338,42.4537637 249.297931,42.4537637 L286.690093,42.4537637 Z" id="path11"></path>
                <path d="M292.295915,77.6626118 L292.295915,76.3772741 C294.318309,76.28636 294.991386,75.8286544 296.561902,72.8943224 L327.216965,16.6028011 C327.779443,15.6842549 328.452521,14.6747946 328.452521,13.8502975 C328.452521,12.8439721 327.555083,12.3831315 326.092008,12.2013032 L326.092008,10.9159655 L350.572451,10.9159655 L350.572451,12.2013032 C348.891336,12.3831315 348.215098,12.9317513 348.215098,13.5744201 C348.215098,14.3080031 348.663817,15.0415861 349.226295,15.9601323 L381.789992,72.8943224 C383.360507,75.7377402 383.809225,76.3772741 386.166578,76.3772741 L386.166578,77.6626118 L363.822289,77.6626118 L363.822289,76.3772741 C365.282204,76.3772741 365.844682,75.9195685 365.844682,75.4618629 C365.844682,74.4524025 364.833485,73.1701998 357.309549,60.0566203 L318.795591,60.0566203 C312.282852,71.9757762 310.598577,73.8097337 310.598577,75.0010223 C310.598577,75.8286544 311.271655,76.28636 312.282852,76.3772741 L312.282852,77.6594768 L292.295915,77.6594768 L292.295915,77.6626118 Z M350.79997,49.6046303 L337.325773,25.5844902 L324.072774,49.6046303 L350.79997,49.6046303 Z" id="path13"></path>
                <path d="M631.998,88.5754424 L0,88.5754424 L0,0 L631.998,0 L631.998,88.5754424 Z M5.687982,82.9356314 L626.310018,82.9356314 L626.310018,5.642946 L5.687982,5.642946 L5.687982,82.9356314 Z" id="path17"></path>
                <path d="M405.635276,10.9159655 L405.635276,77.6594768 L621.740672,77.6594768 L621.740672,10.9159655 L405.635276,10.9159655 Z M414.796087,57.7680922 C413.001213,45.8865559 452.788647,30.0455525 504.625123,21.7002623 C503.455927,21.9980845 501.190214,22.574919 501.190214,22.574919 C501.190214,22.574919 496.09631,23.8069622 494.690115,24.1486739 C468.247318,30.5596876 449.720297,42.108917 451.265532,52.3477291 C452.851847,62.8310687 474.940177,68.5084994 503.038808,66.567953 C504.599843,66.458229 510.139306,66.1948916 511.346422,66.1415971 C459.314026,73.2297642 416.590962,69.6558984 414.796087,57.7680922 Z M544.374637,60.3356326 C532.888074,62.9251178 518.532239,65.1258668 518.532239,65.1258668 L518.532239,35.3405168 L525.932936,59.5769699 C525.932936,59.5769699 543.56252,56.739822 556.979837,51.1971951 C568.64336,46.3787462 575.876578,40.334524 575.386779,33.8984306 C574.596782,23.4401707 552.179813,17.8599241 524.50146,19.6249122 C522.656026,19.7440411 516.528805,20.0575381 515.321689,20.1076976 C567.344605,13.0163954 610.061349,16.5933962 611.859384,28.4780675 C613.385659,38.5852108 584.828829,51.5483117 544.374637,60.3356326 Z" id="path25"></path>
            </g>
        </g>
    </g>
</svg>