<svg viewBox="130 182 240 135" xmlns="http://www.w3.org/2000/svg" xml:space="preserve">
    <path d="M309.12 317.6c-.02-.03-.04-.08-.07-.09-5.76-2.02-7.61-4.65-7.61-10.78v-93.84c0-2.21.39-2.61 2.55-2.61h20.16c2.6 0 2.92.31 2.92 2.87v87.72c0 .56-.03 1.13.06 1.68.19 1.25 1.35 2.16 2.66 2.13 1.23-.03 2.05-.86 2.18-2.25.05-.52.03-1.04.03-1.56v-87.36c0-.4-.01-.8 0-1.2.06-1.46.61-2.01 2.08-2.02 4.72-.01 9.44-.01 14.16-.01h6.72c2.3 0 2.66.36 2.66 2.61v59.4h4.51c1.96 0 3.92.03 5.88-.01 1.01-.02 1.8.26 2.31 1.16v44.16h-13.44c-.99-.86-1.98-1.71-2.79-2.42-1.59.75-3.36 1.58-5.13 2.42h-39.84zm-170.4 0c-.26-.09-.51-.19-.78-.26-4.51-1.13-7.61-5.06-7.62-9.7-.01-8-.01-16 0-24 0-1.62.53-2.18 2.14-2.18 7.12-.01 14.24-.01 21.36 0 1.59 0 2.14.58 2.15 2.2.01 5.92 0 11.84 0 17.76 0 .4-.02.8.02 1.2a2.48 2.48 0 0 0 2.4 2.25c1.24.03 2.29-.87 2.48-2.15.05-.35.05-.72.05-1.08v-26.4c0-2.44-.8-3.22-3.24-3.22-5.72 0-11.44.01-17.16 0-5.91-.01-10.2-4.32-10.2-10.23V220.4c0-6 4.26-10.31 10.25-10.31 12-.01 24-.01 35.99 0 5.87.01 10.17 4.27 10.19 10.12.02 8.84.01 17.68 0 26.52 0 1.68-.54 2.21-2.24 2.21-7.04.01-14.08.01-21.12 0-1.73 0-2.28-.55-2.29-2.32-.01-6 0-12-.01-18 0-.44.01-.88-.04-1.32-.16-1.22-1.16-2.08-2.39-2.09-1.28-.02-2.31.88-2.46 2.15-.04.36-.03.72-.03 1.08V254c0 2.57.81 3.37 3.36 3.37 5.56 0 11.12-.01 16.68 0 6.35.01 10.53 4.17 10.53 10.5v39.23c0 5.44-2.8 9-8.12 10.36-.11.03-.21.11-.32.17-13.18-.03-26.38-.03-39.58-.03zm90.72 0c-.8-.54-1.07-1.28-1.07-2.24.02-26.51.01-53.01.02-79.52 0-1.68.55-2.21 2.25-2.21h26.03c1.76 0 2.3.53 2.3 2.28 0 26.47 0 52.93.02 79.4 0 .97-.3 1.68-.99 2.29h-28.56zm-30 0c-.49-.15-.98-.31-1.47-.46-4.1-1.29-6.93-5.07-6.93-9.37-.01-21.11 0-42.23-.01-63.34 0-5.14 4.4-10.94 10.67-10.66 4.11.18 8.25.23 12.35-.01 6.56-.39 11.08 5.46 11.05 11.05-.03 7.2-.01 14.4-.01 21.59v35.51c0 2.16-.43 2.59-2.6 2.59h-10.44c-.35 0-.7.04-1.11.06v4.34h6.64c1 0 2-.01 3 0 2.33.04 3.99 1.39 4.42 3.61.38 1.98-.71 3.91-2.74 4.81-.18.08-.34.18-.51.27-7.43.01-14.87.01-22.31.01zm11.07-49.12c0-5.56.01-11.11-.01-16.67-.01-1.61-1.17-2.78-2.67-2.81-1.43-.03-2.62 1.09-2.78 2.61-.04.36-.02.72-.02 1.08v20.87c0 3.76.01 7.52 0 11.27 0 1.31.42 2.37 1.67 2.93 1.88.84 3.79-.53 3.8-2.73.02-5.52.01-11.03.01-16.55zm53.97 49.12c-.88-.54-1.12-1.34-1.12-2.34.01-26.43.01-52.87.01-79.3 0-1.82.54-2.33 2.38-2.33h13.68c2.63 0 2.93.31 2.93 2.99v16.98c1.19 0 2.29-.03 3.39.01 1.51.06 3.07-.02 4.53.3 4.32.94 7.18 4.67 7.19 9.26.02 12.44.01 24.87.01 37.31v7.2c-.01 5.1-2.58 8.44-7.5 9.75-.11.03-.2.12-.3.18-8.4-.01-16.8-.01-25.2-.01zm18.7-32.51v-9.23c0-2.6.03-5.2-.01-7.79-.02-1.5-1.09-2.54-2.47-2.55-1.38-.01-2.41 1.03-2.5 2.53-.02.36-.01.72-.01 1.08v29.13c0 1.24-.01 2.48.01 3.72.02 1.09.48 1.93 1.5 2.39 1.75.79 3.48-.48 3.48-2.61.01-5.56 0-11.12 0-16.67zm-36.7-102.85c1.32.29 2.66.51 3.96.87 10.96 3.06 18.03 13.08 17.38 24.56-.62 10.8-9.03 20-19.94 21.8-12.85 2.12-24.97-6.61-27.25-19.62-2.19-12.53 6.36-24.77 18.96-27.17.7-.13 1.4-.29 2.09-.44h4.8z" fill="#fff"/>
</svg>
