<svg viewBox="139 268 272 32" xmlns="http://www.w3.org/2000/svg" xml:space="preserve">
    <path d="M138.95 284.38c2.86-8.98 9.09-13.73 18.34-14.98 7.87-1.06 17.01 2.67 20.26 9.57-4.22-1.05-7.79-1.47-10.98-2.82-7.19-3.05-14.99-1.08-19.17 5.98h10.67c5.74 0 11.49.17 17.22-.06 3.66-.15 4.32 1.53 3.98 4.66-.56 5.15-3.86 8.31-7.84 10.83-7.79 4.94-21.46 3.57-28.22-2.68-.87-.8-1.51-1.85-2.25-2.78.2-.47.39-.94.59-1.41 3.17.84 6.58 1.19 9.45 2.62 8.29 4.13 17.72 1.76 21.03-6.47h-7.16c-6.7 0-13.4.11-20.09-.07-1.96-.05-3.9-.93-5.84-1.43.01-.32.01-.64.01-.96zm262.52-.1c-1.75 3.69-3.25 7.53-5.38 10.99-.96 1.57-3.04 2.75-4.87 3.41-2.7.97-4.4-.65-5.5-3.14-1.74-3.91-3.63-7.74-6.49-11.51v14.18c-7.86 1.16-7.86 1.16-7.85-5.55.01-7.16 0-14.32 0-21.39 8.13-2.23 9.66-1.56 13.05 5.47 2.06 4.28 4.13 8.56 6.7 13.87 2.96-6.12 5.46-11.65 8.33-16.98.75-1.38 2.55-2.89 4.03-3.07 6.71-.83 7.18-.24 7.18 6.72 0 5.75-.14 11.5.05 17.24.11 3.53-1.58 4.23-4.68 4.31-3.47.09-3.42-1.89-3.36-4.31.08-3.31.02-6.63.02-9.95-.41-.1-.82-.19-1.23-.29zm-180.26-13.15c9.22-1.9 10.14-1.45 13.6 6.19 1.87 4.13 3.77 8.25 6.12 13.39 3.03-6.22 5.61-11.43 8.13-16.67 1.47-3.05 7.34-5.14 9.88-3.22.78.59 1.08 2.19 1.1 3.33.1 6.21.04 12.43.05 18.65.01 6.38.01 6.38-7.32 5.58v-14.01l-1.17-.36c-1.76 3.53-3.62 7.02-5.23 10.61-1.19 2.64-2.44 4.31-5.9 4.31-3.75 0-4.37-2.42-5.52-4.83-1.58-3.32-3.21-6.62-4.82-9.93l-1.11.36c0 3.59-.15 7.19.04 10.77.18 3.31-1.68 3.46-4.21 3.5-2.66.05-3.73-.82-3.69-3.57.12-7.94.05-15.9.05-24.1zm123.66 29.34c-3.9-1.4-8.94-2.28-12.92-4.82-9.6-6.12-9.01-17.95.85-23.75 8.38-4.93 17.04-4.86 25.55-.36 5.14 2.72 8.46 7.07 8.18 13.06-.31 6.62-4.64 10.73-10.39 13.12-3.16 1.3-6.71 1.67-11.27 2.75zm.96-26.64c-7.48.02-13.04 3.95-13.34 9.44-.36 6.42 5.22 11.1 13.2 11.07 7.93-.03 13.63-4.27 13.75-10.22.12-5.85-5.78-10.31-13.61-10.29zm-151.99 8c5.76 0 11.64-.14 17.49.11 1.28.05 2.5 1.47 3.75 2.25-1.27.77-2.52 2.16-3.82 2.22-5.85.24-11.72.11-17.86.11v7.92c5.05 0 9.96-.28 14.81.12 2.42.2 5.92-2.12 7.23 2.15-2.33.69-4.64 1.86-6.99 1.96-6.52.27-13.07.22-19.59-.02-1.26-.05-3.51-1.51-3.53-2.38-.27-8.4-.16-16.8-.16-25.83 9.63 0 18.83-.05 28.02.08.77.01 1.52 1.22 2.28 1.87-.99.8-1.94 2.23-2.97 2.28-4.61.25-9.24.12-13.86.09-6.04-.03-6.24.22-4.8 7.07zm126.28-.87c-3.72.82-6.28.77-8.88-2.24-5.24-6.07-15.7-6.26-21.66-.96-5 4.45-3.89 11.77 2.3 15.07 7.07 3.78 14.58 2.21 20.42-3.59 1.59-1.58 4.51-1.84 6.82-2.7.35.47.71.94 1.06 1.4-.69 1.41-1.17 2.98-2.11 4.19-7.58 9.71-25.53 10.78-34.32 2.11-5.79-5.71-5.81-13.69-.05-19.52 9.4-9.52 28.72-7.41 35.77 3.94.3.49.33 1.15.65 2.3zm-46.14-10.07c0 8.63-.11 16.44.05 24.25.06 3.11-1.29 3.68-4.05 3.68-2.71 0-3.7-.87-3.66-3.59.11-7.96.04-15.92.04-24.35 2.63.01 4.99.01 7.62.01z" fill="#fff"/>
</svg>
