<svg data-name="Warstwa 1" xmlns="http://www.w3.org/2000/svg" viewBox="0 0 640 238">
    <path d="M116 0h130l6.14 1.91c19.25 6 31.37 24.35 28.63 43.25-3.06 21.1-18.2 34-40.05 34h-63.44c6.72 3.39 12.45 5.67 17.54 8.95 25.36 16.35 39.48 40 39.5 69.93 0 34.23-26.87 67.23-59.82 76.9-4.12 1.2-8.33 2.07-12.5 3.1H35c-3.25-1.15-6.62-2.06-9.74-3.51-12.88-6-21.58-15.6-25.26-29.49V188c.2-.26.52-.5.58-.79 3.92-21.65 21.48-30.8 39.14-30.34 16.82.44 33.67.09 50.5.09h11.07c-8.39-4.9-16.64-8.89-24-14.15C35.74 113 31.93 38 91.52 7.91 99.09 4.1 107.81 2.58 116 0Zm246 0h168a6.64 6.64 0 0 0 1.33.67c24.7 6.21 36.35 24.53 31.44 49.47-3.67 18.68-19.52 30.8-40.42 30.85h-36v6.26c0 36.46-.13 72.92.07 109.38.07 13.55-4.89 24.48-16 32.05-5.64 3.86-12.28 6.25-18.47 9.31H442a6.1 6.1 0 0 0-1.28-.73c-20.73-5.75-33.67-22.65-33.67-44V81h-5.45c-11.5 0-23 .3-34.49-.09-17.37-.6-29.13-10.06-35.6-25.5-6.41-15.28-3.86-29.6 7.57-42.12C345.37 6.38 353.13 2.31 362 0Z" fill="#fff"/>
    <path d="M372 238h-96a6.37 6.37 0 0 0-1.27-.76c-16.48-5.53-24.63-16.74-24.63-34 0-25.5.48-51-.17-76.49-.46-17.93 16.6-31.48 30-31.48 29.49 0 59-.26 88.49.1 13.43.17 24.3 13.43 22.74 26.46-1.23 10.34-12.53 20.72-23 21-3.27.09-6.54 0-10.89 0 9 6 15.16 12.68 15 23.05-.11 10.14-6.63 16.66-15.06 23.21h10.94c10.52 0 17.24 6 21.09 14.92s3.1 17.84-4.43 24.82C381 232.41 376.31 235 372 238Zm164 0h-11a5.79 5.79 0 0 0-1.24-.77C509.76 232.84 502 222.5 502 208c0-13.65.05-27.3 0-40.95-.1-21.31 7.66-39.09 23.22-53.72 36.45-34.26 98.23-17.4 112 30.69 1 3.63 1.87 7.32 2.8 11v62c-2.59 4.35-4.37 9.61-8 12.8-4.16 3.69-9.93 5.55-15 8.2H607c-12.3-3.27-19.8-11-22-23.65a24.21 24.21 0 0 0-.68-2.59H559.9c-2.12 5.19-3.7 10.11-6.06 14.62-3.69 7.06-11.02 9.05-17.84 11.6Zm35.24-59c1.67 0 3.34.09 5 0 10.65-.63 13.34-4 11.66-14.64A17.64 17.64 0 0 0 571.56 150c-8-.24-16.06 5.39-17.23 13.07-1.89 12.41.06 14.59 11.42 15.89a45.69 45.69 0 0 0 5.49.04Z" fill="#fff"/>
</svg>
