<?xml version="1.0" encoding="UTF-8"?>
<svg width="592px" height="112px" viewBox="0 0 592 112" version="1.1" xmlns="http://www.w3.org/2000/svg" xmlns:xlink="http://www.w3.org/1999/xlink">
    <title>sfc</title>
    <g id="Page-1" stroke="none" stroke-width="1" fill="none" fill-rule="evenodd" opacity="0.78">
        <g id="Nintendo-Super-Famicom" transform="translate(-24.000000, -4.000000)">
            <g id="sfc" transform="translate(24.000000, 4.000000)">
                <path d="M433.389907,64.8745566 L425.058156,64.8745566 L425.058156,36.6444158 L455.735756,36.6444158 C461.037511,36.6444158 465.176833,40.4104052 465.321399,45.7283134 L465.321399,64.8745566 L457.455802,64.8745566 L457.455802,47.3275288 C457.455802,44.7173492 455.921627,42.9112114 453.340083,42.6717725 C451.920971,42.541707 450.487107,42.6481243 448.949982,42.6481243 L448.949982,64.8745566 L440.718543,64.8745566 L440.718543,42.4944104 L433.389907,42.4944104 L433.389907,64.8745566 L433.389907,64.8745566 Z M560.065557,64.8745566 L551.733807,64.8745566 L551.733807,36.6444158 L582.411406,36.6444158 C587.713161,36.6444158 591.852483,40.4104052 592,45.7283134 L592,64.8745566 L584.131452,64.8745566 L584.131452,47.3275288 C584.131452,44.7173492 582.600228,42.9112114 580.015733,42.6717725 C578.599571,42.541707 577.162757,42.6481243 575.628582,42.6481243 L575.628582,64.8745566 L567.394193,64.8745566 L567.394193,42.4944104 L560.065557,42.4944104 L560.065557,64.8745566 L560.065557,64.8745566 Z M332.535602,54.1057186 C335.196805,57.6234011 337.961271,61.2681931 340.687382,64.8745566 L331.331865,64.8745566 L324.165497,54.4072342 L316.196638,54.4072342 L316.196638,64.8745566 L307.988802,64.8745566 L307.988802,36.6444158 L309.180738,36.6444158 C316.355956,36.6444158 323.528224,36.6414597 330.703443,36.6444158 C336.55101,36.6473718 340.737538,41.9268516 339.563304,47.6201763 C338.91423,50.7653983 336.896199,52.6956896 333.91931,53.7007417 C333.506263,53.8396754 333.087315,53.9490487 332.535602,54.1057186 L332.535602,54.1057186 Z M316.21729,49.3405891 L327.042075,49.3405891 C327.60854,49.331721 328.198607,49.08637 328.732618,48.8587552 C329.924554,48.3503171 330.750648,47.5344513 330.756561,46.1155541 C330.759499,44.613888 330.210737,43.4166935 328.765072,42.8698269 C327.944613,42.5547447 327.076631,42.3818127 326.198279,42.3584328 L316.21434,42.3584328 C316.21729,42.3584328 316.21729,47.0496614 316.21729,49.3405891 L316.21729,49.3405891 Z M420.396625,64.8627325 L399.475788,64.8627325 C397.920961,64.8420402 396.315978,64.5612168 394.834909,64.0941632 C390.975868,62.8792325 388.957838,59.8286037 389.185014,55.8852521 C389.418091,51.8502634 391.961281,48.752338 395.781967,47.9335161 C396.680324,47.7430655 397.595741,47.6450079 398.513978,47.6408685 L411.861301,47.6408685 C412.227143,47.6408685 411.495459,47.6408685 411.861301,47.6408685 C411.814096,44.5606794 409.276806,42.0687413 406.028486,42.0569171 L391.436121,42.0569171 L391.436121,36.6444158 L408.509719,36.6444158 C415.068317,36.6444158 420.196002,41.5603031 420.396625,48.1108782 L420.396625,64.8656885 L420.396625,64.8627325 Z M412.123881,52.9528647 L401.886213,52.9528647 C399.714765,52.9528647 398.242547,54.2535204 398.207143,56.1926798 C398.17764,58.0756745 399.596752,59.3231216 401.803604,59.3260776 L412.123881,59.3260776 L412.123881,52.9528647 Z M173.751439,64.8627325 L173.751439,59.3201655 L192.179241,59.3201655 C193.878635,59.3201655 194.917153,58.4717833 195.282995,56.7986671 C195.551476,55.5660002 194.778487,54.3008169 193.294468,53.7509943 C192.608172,53.4971088 191.884004,53.3611901 191.152524,53.3489734 L179.787827,53.3489734 C175.149898,53.2809846 172.441489,50.5170913 172.025492,45.6041599 C171.700955,41.7790498 174.512626,37.410029 178.32151,36.6473718 L202.561475,36.6473718 L202.561475,42.3347845 L201.393142,42.3347845 C195.988125,42.3347845 190.577208,42.3288724 185.172192,42.3377405 C184.658818,42.3385969 184.146488,42.3840935 183.640967,42.4737182 C182.369372,42.713157 181.425264,43.4965065 181.195138,44.7262173 C180.965012,45.9322799 181.501973,47.0585295 182.508038,47.8211867 C182.817823,48.0547135 183.31938,48.1670429 183.735378,48.1699989 L195.982225,48.1699989 C199.018121,48.255724 201.871097,49.0361174 203.414123,52.0276255 C206.104829,57.2479845 204.030743,64.7474471 196.106139,64.8627325 L173.751439,64.8627325 L173.751439,64.8627325 Z M530.453029,36 C533.601038,36.1034612 536.657587,36.4640976 539.519413,37.7854456 C543.502368,39.6211437 546.476307,42.5121466 547.323054,46.8989036 C548.382224,52.4207782 547.411564,57.5820166 542.99491,61.5253682 C540.490074,63.7660432 537.321413,64.7504031 534.078993,65.3090938 C529.039818,66.1781683 524.216018,65.3623025 519.645946,63.0506826 C515.370909,60.8927765 513.580054,57.1533914 513.093249,52.6217887 C512.851321,50.3426852 512.901477,48.0606256 513.609558,45.8465549 C515.285349,40.6321079 519.167992,37.9598517 524.242571,36.8158658 C526.269452,36.3606364 527.437785,36.0679888 530.453029,36 Z M539.625625,50.7565302 C539.602023,50.2421799 539.58137,49.7278297 539.551867,49.2134795 C539.31289,45.358809 537.055882,42.4530259 533.53318,41.5277867 C531.470895,40.9838762 529.373206,41.0459529 527.310921,41.4804902 C524.313379,42.1071697 522.354355,43.94878 521.498758,46.8782113 C520.81428,49.2105235 520.81723,51.6137805 521.215525,53.9904332 C521.678728,56.7425024 523.342718,58.616629 525.995071,59.3526819 C527.588252,59.7960873 529.31715,59.9616253 530.975239,59.9231968 C536.631034,59.7842631 539.761341,56.3996023 539.625625,50.7565302 Z M303.554446,47.9660325 L303.554446,53.3312372 L284.008466,53.3312372 C284.058622,56.7158981 286.442494,59.1250672 289.673112,59.1280232 C293.865541,59.1339353 303.409879,59.1309793 303.409879,59.1309793 L303.409879,64.8479523 L287.607877,64.8479523 C279.74818,64.4843599 274.962734,58.9329249 275.225314,51.6403848 C275.310874,49.2371278 275.470192,46.8693432 276.364144,44.6020639 C278.293664,39.6980006 282.736871,36.6473718 287.973719,36.6473718 L303.560347,36.6473718 L303.560347,42.3554767 C303.560347,42.3554767 292.89193,42.3229603 290.319236,42.3347845 C287.180078,42.3495647 284.56903,44.693701 284.153033,47.9660325 L303.554446,47.9660325 L303.554446,47.9660325 Z M229.226617,59.1014189 L229.226617,36.6473718 L237.257433,36.6473718 L237.257433,64.8656885 L216.115321,64.8746144 C213.504274,64.8834247 211.400684,63.8724605 209.763247,61.8860045 C208.208419,59.9970977 207.25251,57.9574331 207.323318,55.3531656 C207.476736,49.7189616 207.367574,36.6473718 207.367574,36.6473718 L215.424943,36.6473718 L215.392489,54.6851016 C215.333482,57.3366656 216.80275,58.8826723 219.245628,59.1014189 L229.226617,59.1014189 L229.226617,59.1014189 Z M249.914377,55.3324734 L249.914377,64.8656885 L242.078283,64.8656885 L242.078283,36.6473718 L263.462322,36.6473718 C267.247604,36.5439106 271.047638,39.3698807 272.171716,43.5674514 C273.815053,49.6923573 269.548867,55.302913 263.17909,55.3295174 C259.131228,55.3472536 255.083367,55.3324734 251.035505,55.3324734 L249.914377,55.3324734 Z M250.179907,49.8401591 L261.019444,49.8401591 C261.456094,49.834247 261.936998,49.5563797 262.317592,49.2992046 C263.503627,48.5010749 264.326771,46.3136085 263.946178,45.113458 C263.35021,43.2422874 262.158274,42.3406965 260.190399,42.3347845 L250.179907,42.3347845 L250.179907,49.8401591 Z M386.984063,36.6473718 L386.984063,42.0598732 L373.235495,42.0598732 C370.901778,42.1249059 368.904401,43.2304633 367.538395,45.1548425 C367.072242,45.8140385 366.786059,46.6476405 366.721152,47.7768462 L386.635923,47.7768462 L386.635923,53.7509943 L366.647393,53.7509943 L366.647393,64.8775126 L358.528067,64.8775126 L358.528067,48.1906912 C358.528067,42.1574223 363.095188,36.8454262 369.131577,36.6503279 L386.984063,36.6473718 L386.984063,36.6473718 Z M510.603165,59.3379018 L510.603165,64.8745566 L495.74527,64.8745566 C489.587917,64.8745566 484.902783,61.2475008 483.404012,55.2437923 C482.235679,50.5584758 482.77559,45.8229066 485.422042,41.7406213 C487.622993,38.3470923 490.850662,36.6562399 494.907374,36.6473718 L510.762483,36.6473718 L510.762483,42.2313232 L497.300097,42.2313232 C494.659546,42.2313232 492.960152,43.455122 492.083902,45.9529722 C491.063086,48.8676233 490.886066,52.1163066 491.841975,55.0959905 C492.727076,57.8569279 494.833616,59.3379018 497.721995,59.3379018 L510.603165,59.3379018 L510.603165,59.3379018 Z M332.261221,90.586155 L332.261221,85.4929055 L351.845555,85.4929055 L351.845555,77.0711598 L332.618211,77.0711598 L332.618211,72.193701 L356.076337,72.193701 L356.076337,90.586155 L332.261221,90.586155 L332.261221,90.586155 Z M172.686367,76.9470063 L172.686367,71.9749543 L192.25595,71.9749543 C192.757507,75.5488015 192.51853,79.0044072 191.320693,82.3624637 L191.019759,83.2226701 C191.019759,83.2226701 194.651623,88.3395679 196.29201,90.6245835 L190.816185,90.6245835 C190.816185,90.6245835 188.948622,88.097173 188.219889,87.0566484 L187.169569,87.8902505 C184.888959,89.7170805 182.366422,90.7930775 179.36888,90.668924 L172.025492,90.668924 L172.025492,85.6347952 C172.025492,85.6347952 175.456733,85.6525314 177.170879,85.6318392 C179.342327,85.6052349 181.487221,85.4456089 183.549506,84.6326991 C186.73587,83.376384 188.627036,80.5149414 188.458867,76.9470063 L172.686367,76.9470063 L172.686367,76.9470063 Z M470.32812,36.6473718 L479.016862,36.6473718 L479.016862,64.8922928 L470.32812,64.8922928 L470.32812,36.6473718 Z M262.152373,90.5979791 L262.152373,85.5283779 L272.266127,85.5283779 C276.384797,85.7382565 279.615415,83.1251209 279.509203,78.0318714 C279.503302,77.7067075 279.461998,77.3815436 279.429544,76.9765667 L260.927983,76.9765667 L260.927983,72.1730087 L283.306286,72.1730087 L283.306286,81.2421262 C283.285634,82.1023326 283.014203,82.9950554 282.710318,83.8138772 C281.190895,87.8754703 278.113694,90.2432549 273.933067,90.6009352 L262.152373,90.5979791 Z M285.194502,80.7662045 L285.194502,76.3942277 L304.890948,76.3942277 L304.890948,82.8236053 C304.890948,85.3924003 303.088293,86.5038697 295.795061,86.5038697 C295.795061,86.5038697 295.730153,87.6537676 295.500027,87.9759755 C294.729989,89.8885306 293.237119,90.6777921 291.062721,90.6777921 L286.268424,90.6777921 L286.268424,86.1787058 L290.97126,86.1787058 C292.537889,86.1787058 292.942085,85.8328496 293.198765,84.2572826 C293.275473,83.7843169 293.33153,83.3083951 293.414139,82.7467484 C295.43512,82.7467484 297.4502,82.7556165 299.465279,82.7437923 C300.831285,82.7378803 301.241382,82.306299 301.297438,80.7691605 C295.948478,80.7662045 290.599518,80.7662045 285.194502,80.7662045 L285.194502,80.7662045 Z M381.96259,72.3503708 L381.96259,82.717188 C381.124695,88.4991938 375.917351,90.7043964 372.090764,90.586155 L358.584123,90.586155 L358.584123,85.4929055 L372.477258,85.4929055 C375.336134,85.6377513 378.242216,82.9595829 378.197961,79.6103945 C378.171408,77.5116092 378.19501,75.4098678 378.19501,73.3081264 L378.19501,72.3503708 L381.96259,72.3503708 L381.96259,72.3503708 Z M225.246613,71.9601741 L229.530502,71.9601741 L229.530502,78.0230033 C229.530502,78.4279802 229.554104,78.8359131 229.527551,79.237934 C229.217766,84.0148877 232.554597,85.4190046 235.664251,85.4190046 L236.924045,85.4190046 L236.924045,90.4945179 C230.035009,90.8935827 225.535746,87.8193056 225.264315,81.0381597 C225.155153,78.3925078 225.243663,75.7350317 225.243663,73.0834677 C225.246613,72.7228313 225.246613,72.362195 225.246613,71.9601741 L225.246613,71.9601741 Z M330.042568,84.789369 L306.929631,81.8628937 L306.929631,77.3756315 L330.042568,80.1424809 L330.042568,84.789369 Z M330.042568,78.6851553 L306.929631,75.761636 L306.929631,71.2714178 L330.042568,74.0412233 L330.042568,78.6851553 Z M330.06027,86.3708481 L330.06027,91 C322.330388,90.0215522 314.656562,89.0519725 306.914879,88.0735247 L306.914879,83.5182737 C314.603456,84.3636999 322.303835,85.5165538 330.06027,86.3708481 L330.06027,86.3708481 Z M211.751774,90.4560894 L211.751774,85.4071805 C212.763739,85.3303236 213.752102,85.3244115 214.719812,85.1736537 C217.540334,84.7272923 219.183671,82.7674406 219.192522,79.9119101 C219.204324,77.3756315 219.195473,74.8363969 219.195473,72.2143932 L223.500014,72.2143932 C223.500014,74.2895303 223.529517,76.3764915 223.500014,78.4634526 C223.479361,79.8587015 223.547219,81.2864667 223.275788,82.6403311 C222.316929,87.4261529 219.404947,89.8767064 214.401176,90.3023756 C213.536727,90.3792325 212.666378,90.4058368 211.751774,90.4560894 L211.751774,90.4560894 Z" id="Shape" fill="#FFFFFF" fill-rule="nonzero"></path>
                <path d="M128.008246,27.5413735 C110.736564,27.5413735 96.7368186,41.6079004 96.7368186,58.9628607 C96.7368186,59.3493854 96.7427407,59.7388834 96.7575458,60.1194616 C97.1720899,60.1045953 97.5836729,60.0837824 98.0071001,60.0837824 C114.887927,60.0837824 128.647829,73.5318697 129.260762,90.3456954 C145.955043,89.6886034 159.279674,75.8985904 159.279674,58.965834 C159.282635,41.6079004 145.279929,27.5413735 128.008246,27.5413735 Z" id="Shape" fill="#BA2318" fill-rule="nonzero"></path>
                <path d="M68.7906266,0 C51.7647096,0 37.930782,13.6621625 37.528082,30.6751971 C38.2365664,30.6230419 38.9466774,30.5962655 39.6570619,30.5949189 C56.9346663,30.5949189 70.9403337,44.6733388 70.9403337,62.0372189 C70.9403337,62.2958932 70.9284896,62.5486209 70.9225675,62.8043219 C87.2082272,61.7071863 100.070937,48.0896228 100.070937,31.4423 C100.070937,14.0784199 86.068231,0 68.7906266,0 Z" id="Shape" fill="#0A2A8D" fill-rule="nonzero"></path>
                <path d="M125.713449,95.0434575 C125.71641,104.406276 110.597396,112 91.9458737,112 C73.2913907,112 58.1694154,104.409249 58.1664544,95.0464308 L58.1664544,95.0434575 C58.1634934,85.677666 73.2854687,78.086915 91.9369906,78.086915 C110.591474,78.086915 125.710488,85.6746927 125.713449,95.0404842 L125.713449,95.0434575 L125.713449,95.0434575 Z" id="Shape" fill="#FED01B" fill-rule="nonzero"></path>
                <path d="M67.5499554,68.2454007 C67.5499554,77.6111922 52.4309412,85.2049165 33.7764582,85.2049165 C15.1249363,85.2049165 0,77.6141655 0,68.248374 L0,68.2454007 C0,58.8825825 15.1190143,51.2888582 33.7705362,51.2888582 C52.4220581,51.2888582 67.5469944,58.8796092 67.5469944,68.2424275 L67.5499554,68.2454007 L67.5499554,68.2454007 Z" id="Shape" fill="#007544" fill-rule="nonzero"></path>
                <path d="M236.257546,75.9758953 C236.254585,77.8966259 234.708928,79.4397515 232.810908,79.4189386 C230.969148,79.3951525 229.444218,77.875813 229.414608,76.0204943 C229.382036,74.1205766 230.91881,72.5506916 232.819791,72.5417717 C233.731909,72.5302975 234.610261,72.8878398 235.256945,73.5338412 C235.90363,74.1798426 236.264247,75.05996 236.257546,75.9758953 L236.257546,75.9758953 Z" id="Path"></path>
                <path d="M234.175942,75.9312963 C234.149293,75.149327 233.456412,74.4714221 232.727999,74.4743856 C231.958132,74.4803419 231.235641,75.2504181 231.327433,76.0264408 C231.428107,76.8916616 231.975898,77.397117 232.810908,77.3644111 C233.663684,77.3287318 234.095995,76.7340784 234.175942,75.9312963 L234.175942,75.9312963 Z" id="Path"></path>
                <polygon id="Path" points="372 72.9937084 372 77.8995991 357.961761 77.8995991 357.961761 72.9937084"></polygon>
                <polygon id="Path" points="210.925942 79.7668109 210.925942 84.5061987 193.159768 84.5061987 193.159768 79.7668109"></polygon>
                <polygon id="Path" points="236.059157 79.5913881 253.843097 79.5913881 253.843097 84.2504978 236.059157 84.2504978 236.059157 79.5913881"></polygon>
            </g>
        </g>
    </g>
</svg>