<svg viewBox="0 0 264 38" xmlns="http://www.w3.org/2000/svg">
    <path d="M80.217 68.958c0 5.145-1.56 9.297-4.68 12.462-3.123 3.162-7.338 4.743-12.651 4.743H1.395V68.958h61.491V51.75H17.082c-5.061 0-9.174-1.602-12.336-4.809C1.581 43.737 0 39.603 0 34.542V17.205c0-2.445.465-4.722 1.392-6.828.927-2.109 2.172-3.924 3.732-5.442a17.724 17.724 0 0 1 5.439-3.606A16.41 16.41 0 0 1 17.082 0H74.4v17.205H17.082v17.337h45.804c2.445 0 4.722.444 6.831 1.329s3.945 2.088 5.505 3.606c1.56 1.518 2.781 3.33 3.669 5.439.885 2.109 1.326 4.389 1.326 6.834Zm99.963 17.205h-68.955c-11.475 0-17.211-5.733-17.211-17.205V17.205c0-2.445.465-4.722 1.392-6.828.927-2.109 2.172-3.924 3.735-5.442a17.76 17.76 0 0 1 5.439-3.606C106.647.444 108.861 0 111.225 0h66.045v17.205h-66.045v51.753h51.621V51.75h-34.29V34.542h51.624Zm64.737-34.413h-51.624V34.542h51.624Zm59.931 34.413h-51.624V68.958h17.331V17.205h-17.331V0h34.542v68.958h17.082ZM333.471 0c-2.277 0-4.443.441-6.51 1.326a17.724 17.724 0 0 0-5.439 3.606c-1.56 1.518-2.805 3.33-3.735 5.439-.927 2.109-1.392 4.386-1.392 6.831v51.756c0 11.472 5.691 17.205 17.076 17.205h51.63c11.469 0 17.202-5.733 17.202-17.205V17.202c0-2.358-.441-4.587-1.326-6.696-.885-2.106-2.103-3.945-3.663-5.505-1.56-1.563-3.399-2.79-5.508-3.675C389.697.441 387.462 0 385.101 0h-51.63Zm0 17.202h51.63v51.756h-51.63V17.202ZM432.324 0c-2.277 0-4.443.441-6.51 1.326a17.724 17.724 0 0 0-5.439 3.606c-1.56 1.518-2.805 3.33-3.735 5.439-.927 2.109-1.392 4.386-1.392 6.831v51.756c0 11.472 5.691 17.205 17.076 17.205h51.63c11.469 0 17.202-5.733 17.202-17.205V17.202c0-2.358-.438-4.587-1.326-6.696a17.093 17.093 0 0 0-3.672-5.505 17.017 17.017 0 0 0-5.508-3.675C488.541.441 486.315 0 483.954 0h-51.63Zm0 17.202h51.63v51.756h-51.63V17.202ZM531.177 0c-2.274 0-4.452.441-6.522 1.326a17.71 17.71 0 0 0-5.436 3.606c-1.56 1.518-2.805 3.33-3.735 5.439-.927 2.109-1.392 4.386-1.392 6.831v51.756c0 11.472 5.7 17.205 17.085 17.205h51.621c11.469 0 17.202-5.733 17.202-17.205V17.202c0-2.358-.441-4.587-1.326-6.696-.885-2.106-2.103-3.945-3.663-5.505-1.56-1.563-3.399-2.79-5.508-3.675C587.394.441 585.156 0 582.798 0h-51.621Zm0 17.202h51.621v51.756h-51.621V17.202Z" style="fill:#fff" transform="scale(.44 .44103)"/>
</svg>
