<?xml version="1.0" encoding="UTF-8"?>
<svg width="454px" height="113px" viewBox="0 0 454 113" version="1.1" xmlns="http://www.w3.org/2000/svg" xmlns:xlink="http://www.w3.org/1999/xlink">
    <title>snes</title>
    <g id="Page-1" stroke="none" stroke-width="1" fill="none" fill-rule="evenodd" opacity="0.78">
        <g id="Nintendo-Super-Nintendo-Entertainment-System" transform="translate(-93.000000, -3.000000)" fill="#FFFFFF" fill-rule="nonzero">
            <g id="snes" transform="translate(93.549544, 3.808457)">
                <path d="M21.968,0.001 C17.724,0.001 13.599,3.516 12.841,7.872 L12.841,8.106 L12.763,8.184 L12.763,8.418 L12.686,8.574 L12.686,8.73 L12.609,8.886 L12.609,9.119 L12.531,9.275 L12.531,9.509 L12.454,9.743 L12.376,9.977 L12.299,10.444 L12.144,10.99 L12.067,11.535 L11.912,12.081 L11.835,12.703 L11.68,13.327 L11.525,14.029 L11.37,14.653 L11.138,15.977 L10.984,16.678 L10.829,17.302 L10.751,17.925 L10.597,18.549 L10.443,19.173 L10.366,19.796 L10.288,20.341 L10.134,20.809 L10.056,21.354 L10.056,21.588 L9.979,21.744 L9.979,22.134 L9.901,22.368 L9.901,22.679 L9.824,22.835 L9.824,22.99 C9.743,24.895 10.007,27.497 10.597,27.979 C11.347,32.176 25.228,51.599 24.829,54.557 C24.453,57.523 22.817,66.248 22.817,66.248 C22.314,69.191 20.323,71.548 17.403,71.548 C14.483,71.548 12.491,69.198 12.993,66.248 L15.623,51.751 L5.259,51.751 L1.778,71.859 C1.068,75.943 3.812,79.185 7.888,79.185 L22.661,79.185 C26.753,79.185 30.652,75.943 31.402,71.859 C31.402,71.859 35.208,53.076 35.191,51.751 C35.175,50.417 34.804,50.27 34.804,50.27 C34.804,48.743 22.452,28.198 21.191,27.434 C20.648,27.112 20.201,25.079 20.186,23.85 C20.162,22.627 21.81,14.418 21.81,14.418 C22.313,11.477 25.078,9.118 27.997,9.118 C30.917,9.118 32.136,11.476 31.633,14.418 L29.39,27.434 L39.832,27.434 L43.467,7.871 C44.289,3.514 41.523,0 37.28,0 L21.968,0 L21.968,0.001 L21.968,0.001 Z M50.431,0.001 L38.055,71.861 C37.345,75.945 40.09,79.187 44.166,79.187 L58.938,79.187 C63.03,79.187 66.998,75.945 67.756,71.861 L80.982,0.001 L71.7,0.001 L59.092,69.835 C58.909,70.847 57.931,71.705 56.927,71.705 L49.579,71.705 C48.549,71.705 47.864,70.855 48.031,69.835 L60.33,0.001 L50.431,0.001 L50.431,0.001 Z M86.012,0.001 L71.084,79.187 L80.984,79.187 L87.791,43.336 L100.399,43.336 C104.499,43.336 108.39,40.069 109.138,36.008 L114.553,7.872 C115.366,3.507 112.609,0.001 108.366,0.001 L86.012,0.001 L86.012,0.001 Z M121.36,0.001 L105.89,79.187 L128.166,79.187 L129.713,69.367 L118.73,69.367 L123.216,42.633 L134.199,42.633 L135.747,34.372 L124.763,34.372 L129.637,9.821 L140.62,9.821 L142.168,0.001 L121.36,0.001 L121.36,0.001 Z M147.967,0.001 L133.117,79.187 L143.017,79.187 L149.747,43.336 L156.785,43.336 C157.71,44.203 157.817,45.805 157.944,46.608 C158.128,47.773 158.32,49.262 158.176,50.427 C158.049,51.584 152.762,79.186 152.762,79.186 L162.662,79.186 C162.662,79.186 168.231,49.116 168.231,48.634 C168.247,48.143 168.232,46.601 167.69,45.75 C167.33,45.204 166.705,43.948 165.987,43.49 C164.607,42.598 163.048,42.01 163.048,42.01 L162.352,42.01 C165.184,40.884 170.526,39.031 171.092,36.008 L176.506,7.872 C177.328,3.507 174.563,0.001 170.318,0.001 L147.967,0.001 L147.967,0.001 Z M200.951,0.001 L186.023,79.187 L197.393,79.187 L206.597,33.281 L210.232,79.187 L220.134,79.187 L235.062,0.001 L223.692,0.001 L215.957,41.386 L210.853,0.001 L200.951,0.001 L200.951,0.001 Z M240.244,0.001 L225.316,79.187 L235.216,79.187 L250.143,0.001 L240.244,0.001 L240.244,0.001 Z M255.326,0.001 L240.399,79.187 L251.847,79.187 L261.05,33.281 L264.686,79.187 L274.586,79.187 L289.513,0.001 L278.066,0.001 L270.409,41.386 L265.304,0.001 L255.326,0.001 L255.326,0.001 Z M293.692,0.001 L291.835,9.821 L298.023,9.821 L285.801,79.187 L297.094,79.187 L309.548,9.821 L315.504,9.821 L317.051,0.001 L293.692,0.001 L293.692,0.001 Z M320.918,0.001 L305.448,79.187 L327.724,79.187 L329.271,69.367 L318.287,69.367 L322.85,42.633 L333.834,42.633 L335.381,34.372 L324.398,34.372 L329.193,9.821 L340.176,9.821 L341.723,0.001 L320.918,0.001 L320.918,0.001 Z M346.056,0.001 L331.128,79.187 L342.575,79.187 L351.779,33.281 L355.415,79.187 L365.316,79.187 L380.243,0.001 L368.796,0.001 L361.138,41.386 L356.034,0.001 L346.056,0.001 L346.056,0.001 Z M385.426,0.001 L370.498,79.187 L393.084,79.187 C397.184,79.187 401.144,75.945 401.901,71.861 L413.891,7.872 C414.704,3.507 411.947,0.001 407.703,0.001 L385.426,0.001 L385.426,0.001 Z M427.891,0.001 C423.646,0.001 419.599,3.516 418.841,7.872 L407.78,71.861 C407.062,75.945 409.744,79.187 413.812,79.187 L430.134,79.187 C434.226,79.187 438.194,75.945 438.951,71.861 L450.941,7.872 C451.762,3.515 448.989,0.001 444.753,0.001 L427.891,0.001 L427.891,0.001 Z M393.857,9.119 L398.42,9.119 C401.34,9.119 403.332,11.477 402.83,14.419 L393.084,66.25 C392.573,69.193 389.738,71.628 386.818,71.628 L382.332,71.628 L393.857,9.119 Z M433.692,9.119 L434.001,9.119 C436.921,9.119 438.835,11.477 438.332,14.419 L429.05,66.25 C428.547,69.184 425.859,71.628 422.94,71.628 C420.02,71.628 418.801,69.192 419.304,66.25 L428.507,14.419 L428.585,14.186 L428.662,13.952 L428.74,13.64 L428.817,13.407 L428.894,13.095 L428.972,12.861 L429.049,12.627 L429.204,12.394 L429.281,12.16 L429.436,11.926 L429.513,11.692 L429.668,11.459 L429.823,11.303 L429.978,11.068 L430.132,10.835 L430.365,10.679 L430.674,10.367 L431.138,10.056 L431.293,9.9 L431.525,9.744 L431.757,9.666 L431.99,9.51 L432.144,9.432 L432.454,9.355 L432.686,9.276 L432.918,9.276 L433.15,9.199 L433.46,9.199 L433.692,9.119 L433.692,9.119 Z M95.525,9.431 L100.321,9.431 C101.373,9.431 103.606,11.86 103.415,12.938 L99.315,32.5 C99.123,33.513 97.767,35.851 96.762,35.851 L90.806,35.851 L90.729,35.774 L90.419,35.774 L90.419,35.695 L90.265,35.695 L90.187,35.618 L90.11,35.618 L90.032,35.54 L89.955,35.462 L89.878,35.462 L89.878,35.384 L89.8,35.306 L89.723,35.228 L89.723,35.15 L89.646,35.072 L89.568,34.994 L89.568,34.839 L89.491,34.761 L89.491,34.605 L89.413,34.527 L89.413,34.449 C89.413,34.321 89.397,34.126 89.413,33.982 L94.054,10.054 C94.479,9.7 95,9.431 95.525,9.431 L95.525,9.431 Z M157.172,9.431 L161.967,9.431 C163.02,9.431 165.268,11.86 165.061,12.938 L160.962,32.423 C160.779,33.443 158.262,35.851 157.249,35.851 L152.995,35.851 C152.118,35.851 151.513,35.269 151.448,34.449 C151.448,34.321 151.432,34.134 151.448,33.982 L156.012,10.054 L156.09,9.977 L156.167,9.898 L156.322,9.821 L156.399,9.821 L156.476,9.743 L156.554,9.665 L156.631,9.665 L156.709,9.587 L156.786,9.587 L156.941,9.509 L157.173,9.509 L157.173,9.431 L157.172,9.431 L157.172,9.431 Z M0,86.046 L0,112 L452.897,112 L452.897,86.046 L0,86.046 Z M330.724,88.774 L334.588,88.774 C335.523,88.774 336.195,89.515 336.007,90.489 L335.14,94.854 L333.011,94.854 L333.484,91.971 C333.59,91.319 333.204,90.802 332.538,90.802 C331.879,90.802 331.232,91.315 331.119,91.971 L330.725,94.075 C330.66,94.2 330.856,94.792 330.961,94.854 C331.254,95.02 334.036,99.581 334.036,99.92 C334.101,100.09 334.14,100.17 334.116,100.232 C334.034,100.803 333.248,104.675 333.248,104.675 C333.077,105.563 332.203,106.311 331.277,106.311 L327.965,106.311 C327.046,106.311 326.454,105.563 326.625,104.675 L327.412,100.232 L329.698,100.232 L329.146,103.428 C329.041,104.08 329.426,104.675 330.093,104.675 C330.727,104.675 331.406,104.083 331.512,103.428 L331.984,100.856 C331.562,99.779 328.773,95.865 328.595,94.932 C328.472,94.828 328.42,94.265 328.436,93.84 C328.46,93.376 329.067,90.489 329.067,90.489 L329.145,90.489 L329.145,90.255 L329.225,90.099 L329.225,90.022 L329.304,89.943 L329.304,89.866 L329.382,89.787 L329.382,89.71 L329.54,89.554 L329.54,89.475 L329.62,89.475 L329.857,89.242 L329.857,89.164 L329.936,89.164 L330.094,89.008 L330.173,89.008 L330.253,88.93 L330.331,88.93 L330.411,88.853 L330.647,88.853 L330.724,88.774 L330.724,88.774 Z M348.858,88.774 L351.696,88.774 L352.091,95.399 L355.717,88.774 L358.556,88.774 L352.721,98.907 L351.302,106.311 L348.779,106.311 L350.04,98.361 L348.858,88.774 L348.858,88.774 Z M374.641,88.774 L378.507,88.774 C379.442,88.774 380.096,89.515 379.926,90.489 L379.059,94.854 L376.929,94.854 L377.403,91.971 C377.509,91.319 377.124,90.802 376.457,90.802 C375.798,90.802 375.144,91.315 375.038,91.971 L374.643,94.075 C374.563,94.2 374.75,94.792 374.88,94.854 C375.157,95.02 377.955,99.581 377.955,99.92 C378.036,100.09 378.033,100.17 378.033,100.232 C377.927,100.803 377.245,104.675 377.245,104.675 C377.074,105.563 376.192,106.311 375.274,106.311 L371.883,106.311 C370.964,106.311 370.373,105.563 370.542,104.675 L371.331,100.232 L373.617,100.232 L373.065,103.428 C372.959,104.08 373.369,104.675 374.011,104.675 C374.67,104.675 375.3,104.083 375.43,103.428 L375.903,100.856 C375.473,99.779 372.692,95.865 372.513,94.932 C372.391,94.828 372.339,94.265 372.355,93.84 C372.38,93.376 372.985,90.489 372.985,90.489 L373.065,90.411 L373.065,90.255 L373.144,90.099 L373.144,90.022 L373.223,89.943 L373.223,89.866 L373.302,89.787 L373.302,89.71 L373.46,89.554 L373.46,89.475 L373.54,89.475 L373.776,89.242 L373.934,89.086 L374.013,89.008 L374.093,89.008 L374.171,88.93 L374.251,88.93 L374.329,88.853 L374.567,88.853 L374.641,88.774 L374.641,88.774 Z M393.013,88.774 L398.296,88.774 L397.902,90.878 L396.561,90.878 L393.802,106.311 L391.199,106.311 L393.959,90.878 L392.618,90.878 L393.013,88.774 L393.013,88.774 Z M413.67,88.774 L418.4,88.774 L418.007,90.878 L415.562,90.878 L414.459,96.412 L416.981,96.412 L416.588,98.206 L414.143,98.206 L413.118,104.129 L415.562,104.129 L415.247,106.311 L410.2,106.311 L413.67,88.774 L413.67,88.774 Z M433.146,88.774 L436.063,88.774 L436.537,98.907 L441.03,88.853 L443.868,88.774 L440.872,106.311 L438.665,106.311 L440.084,97.036 L436.142,106.311 L434.565,106.311 L434.091,96.802 L432.357,106.311 L429.755,106.311 L433.146,88.774 Z M9.659,89.398 L14.311,89.398 L13.996,91.579 L11.472,91.579 L10.446,97.036 L12.891,97.036 L12.576,98.907 L10.053,98.907 L9.106,104.831 L11.55,104.831 L11.155,107.012 L6.109,107.012 L9.659,89.398 L9.659,89.398 Z M31.421,89.398 L33.628,89.398 L34.812,98.595 L36.546,89.398 L39.149,89.398 L35.758,107.012 L33.55,107.012 L32.683,96.802 L30.632,107.012 L28.03,107.012 L31.421,89.398 L31.421,89.398 Z M55.075,89.398 L60.279,89.398 L59.964,91.579 L58.623,91.579 L55.784,107.012 L53.261,107.012 L56.021,91.579 L54.602,91.579 L55.075,89.398 L55.075,89.398 Z M78.019,89.398 L82.75,89.398 L82.356,91.579 L79.912,91.579 L78.808,97.036 L81.252,97.036 L80.937,98.907 L78.493,98.907 L77.467,104.831 L79.912,104.831 L79.596,107.012 L74.55,107.012 L78.019,89.398 L78.019,89.398 Z M100.255,89.398 L105.301,89.398 C106.237,89.398 106.828,90.217 106.642,91.19 L105.458,97.426 C105.329,98.101 104.13,98.653 103.487,98.907 L103.804,98.907 L103.804,98.984 L104.12,98.984 L104.2,99.062 L104.436,99.062 L104.436,99.14 L104.595,99.14 L104.595,99.218 L104.674,99.218 C104.779,99.407 104.832,99.969 104.832,100.075 C104.832,100.179 103.57,107.012 103.57,107.012 L101.284,107.012 C101.284,107.012 102.505,100.876 102.546,100.621 C102.57,100.348 102.516,100.018 102.467,99.763 C102.451,99.576 102.442,99.254 102.23,99.062 L100.653,99.062 L99.155,107.012 L96.869,107.012 L100.255,89.398 L100.255,89.398 Z M122.805,89.398 L128.087,89.398 L127.772,91.579 L126.432,91.579 L123.594,107.012 L121.07,107.012 L123.829,91.579 L122.41,91.579 L122.805,89.398 L122.805,89.398 Z M149.06,89.398 L152.057,89.398 L151.11,107.012 L148.114,107.012 L148.509,102.96 L146.695,102.96 L145.196,107.012 L142.515,107.012 L149.06,89.398 Z M170.034,89.398 L172.32,89.398 L168.929,107.012 L166.721,107.012 L170.034,89.398 L170.034,89.398 Z M190.377,89.398 L192.584,89.398 L193.768,98.595 L195.502,89.398 L198.026,89.398 L194.714,107.012 L192.428,107.012 L191.64,96.802 L189.589,107.012 L186.986,107.012 L190.377,89.398 L190.377,89.398 Z M216.474,89.398 L219.392,89.398 L219.865,99.607 L224.36,89.475 L227.198,89.475 L224.202,107.012 L221.994,107.012 L223.413,97.738 L219.471,107.012 L217.894,107.012 L217.421,97.503 L215.685,107.012 L213.163,107.012 L216.474,89.398 Z M245.096,89.398 L249.748,89.398 L249.433,91.579 L246.909,91.579 L245.885,97.036 L248.329,97.036 L248.014,98.907 L245.49,98.907 L244.465,104.831 L246.989,104.831 L246.594,107.012 L241.627,107.012 L245.096,89.398 L245.096,89.398 Z M267.961,89.398 L270.169,89.398 L271.351,98.595 L273.086,89.398 L275.609,89.398 L272.298,107.012 L270.09,107.012 L269.223,96.802 L267.173,107.012 L264.571,107.012 L267.961,89.398 L267.961,89.398 Z M291.378,89.398 L296.662,89.398 L296.267,91.579 L294.927,91.579 L292.167,107.012 L289.643,107.012 L292.403,91.579 L290.984,91.579 L291.378,89.398 L291.378,89.398 Z M102.384,91.502 C102.261,91.502 102.157,91.574 102.068,91.658 L101.043,96.958 L101.043,97.036 C101.043,97.205 101.164,97.348 101.358,97.348 L102.305,97.348 C102.541,97.348 103.131,96.879 103.172,96.647 L104.04,92.281 C104.081,92.031 103.646,91.502 103.41,91.502 L102.384,91.502 L102.384,91.502 Z M149.06,96.801 L147.405,101.244 L148.667,101.244 L149.06,96.801 Z" id="Shape"></path>
            </g>
        </g>
    </g>
</svg>