<svg viewBox="0 0 264 95" xmlns="http://www.w3.org/2000/svg">
    <path style="fill-opacity:1;fill-rule:evenodd;stroke:#000;stroke-width:0;stroke-miterlimit:4;stroke-opacity:1;stroke-dasharray:none;fill:#fff" d="M61.875 0 0 61.957h16.5l41.25-41.305v41.305H66l41.25-41.305v41.305h12.375V0h-8.25l-41.25 41.304V0h-8.25Zm80.438 0c-10.251 0-18.563 8.323-18.563 18.587s8.312 18.587 18.563 18.587h16.5c3.415 0 6.187 2.776 6.187 6.196a6.193 6.193 0 0 1-6.187 6.195H123.75v12.392h35.063c10.25 0 18.562-8.323 18.562-18.587s-8.312-18.587-18.562-18.587h-16.5a6.194 6.194 0 0 1-6.188-6.196 6.194 6.194 0 0 1 6.188-6.196h35.062V0h-35.062ZM181.5 0v43.37c0 10.264 8.312 18.587 18.563 18.587h16.5c10.25 0 18.562-8.323 18.562-18.587V0H222.75v43.37a6.193 6.193 0 0 1-6.187 6.195h-16.5a6.193 6.193 0 0 1-6.188-6.195V0H181.5Zm74.25 0-16.5 16.522v8.261h12.375v37.174H264V0h-8.25Z"/>
    <path style="fill-opacity:1;stroke:#000;stroke-width:0;stroke-linecap:butt;stroke-linejoin:miter;stroke-miterlimit:4;stroke-opacity:1;stroke-dasharray:none;fill:#fff" d="M0 66.087v8.261h264v-8.261Z"/>
    <path d="M17.115 78.222h-5.074L9.001 91.2 5.903 78.222H.767v16.344h3.271V80.704l3.127 13.862h3.469l3.209-13.862v13.862h3.272V78.222m15.819 0H20.518v16.344h12.816v-2.891h-9.376v-4.234h8.258V84.55h-8.258v-3.436h8.976v-2.892m3.263 16.344h7.314c1.864 0 3.498-.615 4.615-1.706 1.551-1.569 2.409-3.985 2.409-6.807 0-4.96-2.52-7.831-6.88-7.831h-7.458v16.344m3.444-13.543h3.383c1.147 0 2.009.297 2.611.863.858.843 1.316 2.326 1.316 4.258 0 3.552-1.432 5.622-3.869 5.622h-3.441V81.023m16.768-2.801h-3.526v16.344h3.526V78.222M63.306 91.2h6.225l1.089 3.366h3.845L68.5 78.222h-4.076l-6.022 16.344h3.729l1.175-3.366m3.127-9.359 2.125 6.558h-4.303l2.178-6.558m29.23-3.619H83.247v16.344h12.82v-2.891h-9.38v-4.234h8.262V84.55h-8.262v-3.436h8.976v-2.892m13.592 11.474-6.769-11.474h-3.701v16.344h3.272V82.844l6.967 11.722h3.498V78.222h-3.267v11.474m16.657-2.482v7.352h3.526V78.222h-3.526v6.192h-6.596v-6.192h-3.531v16.344h3.531v-7.352h6.596m10.543 3.986h6.225l1.089 3.366h3.844l-5.965-16.344h-4.071l-6.023 16.344h3.725l1.176-3.366m3.127-9.359 2.124 6.558h-4.302l2.178-6.558m20.583 7.855-6.764-11.474H149.7v16.344h3.267V82.844l6.972 11.722h3.498V78.222h-3.272v11.474m20.96-6.125c-.174-1.297-.429-1.979-1.06-2.891-1.292-1.842-3.498-2.892-6.167-2.892-4.818 0-7.83 3.326-7.83 8.654 0 5.304 2.954 8.558 7.743 8.558 2.236 0 4.129-.727 5.42-2.119.978-1.045 1.436-1.978 1.894-3.916h-3.527c-.26.913-.429 1.322-.805 1.801-.688.843-1.691 1.277-2.924 1.277-2.636 0-4.216-2.099-4.216-5.58 0-3.598 1.605-5.713 4.331-5.713 1.176 0 2.178.409 2.781 1.091.375.478.573.842.833 1.73h3.527m15.077-5.349h-12.417v16.344h12.821v-2.891h-9.38v-4.234h8.262V84.55h-8.262v-3.436h8.976v-2.892m19.47 0h-5.078l-3.04 12.978-3.094-12.978h-5.136v16.344h3.271V80.704l3.127 13.862h3.469l3.209-13.862v13.862h3.272V78.222m15.819 0h-12.42v16.344h12.82v-2.891h-9.376v-4.234h8.258V84.55h-8.258v-3.436h8.976v-2.892m13.588 11.474-6.77-11.474h-3.695v16.344h3.267V82.844l6.967 11.722h3.502V78.222h-3.271v11.474m13.818-8.582H264v-2.892h-13.736v2.892h5.102v13.452h3.531V81.114" style="fill:#fff"/>
</svg>
