<?xml version="1.0" encoding="UTF-8" standalone="no"?>
<!DOCTYPE svg PUBLIC "-//W3C//DTD SVG 1.1//EN" "http://www.w3.org/Graphics/SVG/1.1/DTD/svg11.dtd">
<svg width="100%" height="100%" viewBox="0 0 600 112" version="1.1" xmlns="http://www.w3.org/2000/svg" xmlns:xlink="http://www.w3.org/1999/xlink" xml:space="preserve" xmlns:serif="http://www.serif.com/" style="fill-rule:evenodd;clip-rule:evenodd;stroke-linejoin:round;stroke-miterlimit:2;">
    <g transform="matrix(1,0,0,1,-20,-4)">
        <g transform="matrix(1.13793,0,0,1.13793,289.466,-429.622)">
            <g>
                <path d="M-88.775,381.062C-92.505,381.062 -96.13,384.151 -96.796,387.979L-96.796,388.185L-96.864,388.253L-96.864,388.459L-96.932,388.596L-96.932,388.733L-97,388.87L-97,389.075L-97.068,389.212L-97.068,389.418L-97.136,389.623L-97.204,389.829L-97.272,390.239L-97.408,390.719L-97.476,391.198L-97.612,391.678L-97.68,392.225L-97.816,392.773L-97.952,393.39L-98.088,393.938L-98.292,395.102L-98.428,395.718L-98.564,396.266L-98.632,396.814L-98.768,397.362L-98.903,397.91L-98.971,398.458L-99.039,398.937L-99.175,399.348L-99.243,399.827L-99.243,400.033L-99.311,400.17L-99.311,400.512L-99.379,400.718L-99.379,400.991L-99.447,401.128L-99.447,401.265C-99.518,402.939 -99.286,405.225 -98.768,405.649C-98.109,409.337 -85.91,426.406 -86.261,429.005C-86.591,431.612 -88.029,439.279 -88.029,439.279C-88.471,441.865 -90.221,443.937 -92.787,443.937C-95.353,443.937 -97.103,441.872 -96.662,439.279L-94.351,426.539L-103.459,426.539L-106.518,444.21C-107.142,447.799 -104.73,450.648 -101.148,450.648L-88.166,450.648C-84.57,450.648 -81.144,447.799 -80.485,444.21C-80.485,444.21 -77.14,427.704 -77.155,426.539C-77.169,425.367 -77.495,425.238 -77.495,425.238C-77.495,423.896 -88.35,405.841 -89.458,405.17C-89.935,404.887 -90.328,403.1 -90.341,402.02C-90.362,400.946 -88.914,393.732 -88.914,393.732C-88.472,391.147 -86.042,389.074 -83.477,389.074C-80.911,389.074 -79.84,391.146 -80.282,393.732L-82.253,405.17L-73.076,405.17L-69.882,387.978C-69.16,384.149 -71.59,381.061 -75.319,381.061L-88.775,381.061L-88.775,381.062ZM-63.762,381.062L-74.638,444.212C-75.262,447.801 -72.85,450.65 -69.268,450.65L-56.286,450.65C-52.69,450.65 -49.203,447.801 -48.537,444.212L-36.914,381.062L-45.071,381.062L-56.151,442.431C-56.312,443.321 -57.171,444.075 -58.054,444.075L-64.511,444.075C-65.416,444.075 -66.018,443.328 -65.871,442.431L-55.063,381.062L-63.762,381.062ZM-32.494,381.062L-45.613,450.65L-36.913,450.65L-30.931,419.144L-19.851,419.144C-16.248,419.144 -12.829,416.273 -12.171,412.705L-7.413,387.979C-6.698,384.143 -9.121,381.062 -12.85,381.062L-32.494,381.062ZM-1.431,381.062L-15.026,450.65L4.55,450.65L5.91,442.02L-3.742,442.02L0.2,418.527L9.852,418.527L11.212,411.267L1.56,411.267L5.843,389.692L15.495,389.692L16.855,381.062L-1.431,381.062ZM21.951,381.062L8.901,450.65L17.601,450.65L23.515,419.144L29.7,419.144C30.513,419.906 30.607,421.314 30.719,422.02C30.88,423.044 31.049,424.352 30.923,425.376C30.811,426.393 26.165,450.649 26.165,450.649L34.865,450.649C34.865,450.649 39.759,424.224 39.759,423.8C39.773,423.369 39.76,422.014 39.283,421.266C38.967,420.786 38.418,419.682 37.787,419.28C36.574,418.496 35.204,417.979 35.204,417.979L34.592,417.979C37.081,416.99 41.776,415.361 42.273,412.705L47.031,387.979C47.753,384.143 45.323,381.062 41.593,381.062L21.951,381.062ZM68.513,381.062L55.394,450.65L65.386,450.65L73.474,410.308L76.669,450.65L85.37,450.65L98.489,381.062L88.497,381.062L81.7,417.431L77.214,381.062L68.513,381.062ZM103.043,381.062L89.924,450.65L98.624,450.65L111.742,381.062L103.043,381.062ZM116.297,381.062L103.179,450.65L113.239,450.65L121.327,410.308L124.522,450.65L133.222,450.65L146.34,381.062L136.28,381.062L129.551,417.431L125.065,381.062L116.297,381.062ZM150.012,381.062L148.38,389.692L153.818,389.692L143.078,450.65L153.002,450.65L163.946,389.692L169.18,389.692L170.54,381.062L150.012,381.062ZM173.938,381.062L160.343,450.65L179.919,450.65L181.278,442.02L171.626,442.02L175.636,418.527L185.288,418.527L186.648,411.267L176.996,411.267L181.21,389.692L190.862,389.692L192.221,381.062L173.938,381.062ZM196.029,381.062L182.91,450.65L192.97,450.65L201.058,410.308L204.253,450.65L212.954,450.65L226.072,381.062L216.012,381.062L209.283,417.431L204.797,381.062L196.029,381.062ZM230.627,381.062L217.508,450.65L237.356,450.65C240.959,450.65 244.439,447.801 245.105,444.212L255.641,387.979C256.356,384.143 253.933,381.062 250.203,381.062L230.627,381.062ZM267.944,381.062C264.214,381.062 260.657,384.151 259.991,387.979L250.271,444.212C249.64,447.801 251.997,450.65 255.572,450.65L269.915,450.65C273.511,450.65 276.998,447.801 277.664,444.212L288.2,387.979C288.922,384.15 286.485,381.062 282.762,381.062L267.944,381.062ZM238.036,389.075L242.046,389.075C244.612,389.075 246.362,391.147 245.921,393.733L237.356,439.281C236.907,441.867 234.416,444.007 231.85,444.007L227.908,444.007L238.036,389.075ZM273.042,389.075L273.314,389.075C275.88,389.075 277.562,391.147 277.12,393.733L268.963,439.281C268.521,441.859 266.159,444.007 263.593,444.007C261.027,444.007 259.956,441.866 260.398,439.281L268.486,393.733L268.554,393.528L268.622,393.322L268.69,393.048L268.758,392.843L268.826,392.569L268.894,392.363L268.962,392.158L269.098,391.953L269.166,391.747L269.302,391.542L269.37,391.336L269.506,391.131L269.642,390.994L269.778,390.788L269.914,390.583L270.118,390.446L270.39,390.172L270.798,389.898L270.934,389.761L271.138,389.624L271.342,389.556L271.546,389.419L271.682,389.35L271.954,389.282L272.158,389.213L272.362,389.213L272.566,389.145L272.838,389.145L273.042,389.075ZM-24.134,389.349L-19.92,389.349C-18.995,389.349 -17.033,391.484 -17.201,392.431L-20.804,409.622C-20.972,410.512 -22.164,412.567 -23.047,412.567L-28.281,412.567L-28.349,412.499L-28.621,412.499L-28.621,412.43L-28.757,412.43L-28.825,412.362L-28.893,412.362L-28.961,412.293L-29.029,412.225L-29.097,412.225L-29.097,412.156L-29.165,412.088L-29.233,412.019L-29.233,411.951L-29.301,411.882L-29.369,411.814L-29.369,411.677L-29.437,411.609L-29.437,411.472L-29.505,411.403L-29.505,411.335C-29.505,411.222 -29.519,411.051 -29.505,410.924L-25.427,389.897C-25.053,389.586 -24.596,389.349 -24.134,389.349ZM30.04,389.349L34.254,389.349C35.179,389.349 37.155,391.484 36.973,392.431L33.371,409.554C33.21,410.451 30.998,412.567 30.108,412.567L26.37,412.567C25.599,412.567 25.067,412.055 25.01,411.335C25.01,411.222 24.996,411.058 25.01,410.924L29.021,389.897L29.089,389.829L29.157,389.76L29.293,389.692L29.361,389.692L29.429,389.623L29.497,389.555L29.565,389.555L29.633,389.486L29.701,389.486L29.837,389.418L30.041,389.418L30.041,389.349L30.04,389.349ZM-108.08,456.677L-108.08,479.485L289.919,479.485L289.919,456.677L-108.08,456.677ZM182.555,459.075L185.951,459.075C186.773,459.075 187.363,459.726 187.198,460.582L186.436,464.418L184.565,464.418L184.981,461.884C185.074,461.311 184.735,460.857 184.149,460.857C183.57,460.857 183.002,461.308 182.902,461.884L182.556,463.733C182.499,463.843 182.671,464.363 182.764,464.418C183.021,464.564 185.466,468.572 185.466,468.87C185.523,469.019 185.557,469.089 185.536,469.144C185.464,469.646 184.773,473.048 184.773,473.048C184.623,473.829 183.855,474.486 183.041,474.486L180.131,474.486C179.323,474.486 178.803,473.829 178.953,473.048L179.645,469.144L181.654,469.144L181.169,471.952C181.076,472.525 181.415,473.048 182.001,473.048C182.558,473.048 183.155,472.528 183.248,471.952L183.663,469.692C183.292,468.746 180.841,465.306 180.684,464.486C180.576,464.395 180.531,463.9 180.545,463.527C180.566,463.119 181.099,460.582 181.099,460.582L181.168,460.582L181.168,460.376L181.238,460.239L181.238,460.171L181.307,460.102L181.307,460.034L181.376,459.965L181.376,459.897L181.515,459.76L181.515,459.691L181.585,459.691L181.793,459.486L181.793,459.417L181.863,459.417L182.002,459.28L182.071,459.28L182.141,459.212L182.21,459.212L182.28,459.144L182.488,459.144L182.555,459.075ZM198.491,459.075L200.985,459.075L201.332,464.897L204.519,459.075L207.014,459.075L201.886,467.979L200.639,474.486L198.422,474.486L199.53,467.5L198.491,459.075ZM221.149,459.075L224.546,459.075C225.368,459.075 225.943,459.726 225.793,460.582L225.031,464.418L223.16,464.418L223.576,461.884C223.669,461.311 223.331,460.857 222.745,460.857C222.166,460.857 221.591,461.308 221.498,461.884L221.151,463.733C221.08,463.843 221.245,464.363 221.359,464.418C221.602,464.564 224.061,468.572 224.061,468.87C224.132,469.019 224.13,469.089 224.13,469.144C224.037,469.646 223.437,473.048 223.437,473.048C223.287,473.829 222.512,474.486 221.705,474.486L218.725,474.486C217.918,474.486 217.398,473.829 217.547,473.048L218.24,469.144L220.249,469.144L219.764,471.952C219.671,472.525 220.031,473.048 220.595,473.048C221.174,473.048 221.728,472.528 221.842,471.952L222.258,469.692C221.88,468.746 219.436,465.306 219.279,464.486C219.172,464.395 219.126,463.9 219.14,463.527C219.162,463.119 219.694,460.582 219.694,460.582L219.764,460.513L219.764,460.376L219.833,460.239L219.833,460.171L219.903,460.102L219.903,460.034L219.972,459.965L219.972,459.897L220.111,459.76L220.111,459.691L220.181,459.691L220.389,459.486L220.528,459.349L220.597,459.28L220.667,459.28L220.736,459.212L220.806,459.212L220.875,459.144L221.084,459.144L221.149,459.075ZM237.294,459.075L241.937,459.075L241.59,460.924L240.412,460.924L237.987,474.486L235.7,474.486L238.125,460.924L236.947,460.924L237.294,459.075ZM255.447,459.075L259.604,459.075L259.258,460.924L257.11,460.924L256.14,465.787L258.357,465.787L258.011,467.363L255.863,467.363L254.962,472.568L257.11,472.568L256.833,474.486L252.398,474.486L255.447,459.075ZM272.562,459.075L275.126,459.075L275.542,467.979L279.491,459.144L281.985,459.075L279.352,474.486L277.412,474.486L278.659,466.335L275.195,474.486L273.809,474.486L273.393,466.13L271.869,474.486L269.582,474.486L272.562,459.075ZM-99.592,459.623L-95.504,459.623L-95.781,461.54L-97.999,461.54L-98.9,466.335L-96.752,466.335L-97.029,467.979L-99.246,467.979L-100.078,473.185L-97.93,473.185L-98.277,475.102L-102.712,475.102L-99.592,459.623ZM-80.468,459.623L-78.528,459.623L-77.488,467.705L-75.964,459.623L-73.677,459.623L-76.657,475.102L-78.597,475.102L-79.359,466.13L-81.161,475.102L-83.448,475.102L-80.468,459.623ZM-59.681,459.623L-55.108,459.623L-55.385,461.54L-56.563,461.54L-59.058,475.102L-61.275,475.102L-58.85,461.54L-60.097,461.54L-59.681,459.623ZM-39.518,459.623L-35.361,459.623L-35.707,461.54L-37.855,461.54L-38.825,466.335L-36.677,466.335L-36.954,467.979L-39.102,467.979L-40.003,473.185L-37.855,473.185L-38.132,475.102L-42.567,475.102L-39.518,459.623ZM-19.978,459.623L-15.543,459.623C-14.721,459.623 -14.201,460.343 -14.365,461.198L-15.405,466.678C-15.519,467.271 -16.572,467.756 -17.137,467.979L-16.859,467.979L-16.859,468.047L-16.581,468.047L-16.511,468.116L-16.303,468.116L-16.303,468.184L-16.164,468.184L-16.164,468.253L-16.094,468.253C-16.002,468.419 -15.955,468.913 -15.955,469.006C-15.955,469.097 -17.064,475.102 -17.064,475.102L-19.073,475.102C-19.073,475.102 -18,469.71 -17.964,469.486C-17.943,469.246 -17.991,468.956 -18.034,468.732C-18.048,468.567 -18.056,468.284 -18.242,468.116L-19.628,468.116L-20.944,475.102L-22.953,475.102L-19.978,459.623ZM-0.161,459.623L4.481,459.623L4.204,461.54L3.026,461.54L0.532,475.102L-1.686,475.102L0.739,461.54L-0.508,461.54L-0.161,459.623ZM22.912,459.623L25.545,459.623L24.713,475.102L22.08,475.102L22.427,471.541L20.833,471.541L19.516,475.102L17.16,475.102L22.912,459.623ZM41.343,459.623L43.352,459.623L40.372,475.102L38.432,475.102L41.343,459.623ZM59.22,459.623L61.16,459.623L62.2,467.705L63.724,459.623L65.942,459.623L63.032,475.102L61.023,475.102L60.33,466.13L58.528,475.102L56.24,475.102L59.22,459.623ZM82.154,459.623L84.718,459.623L85.134,468.595L89.084,459.691L91.578,459.691L88.945,475.102L87.005,475.102L88.252,466.952L84.788,475.102L83.402,475.102L82.986,466.746L81.461,475.102L79.244,475.102L82.154,459.623ZM107.307,459.623L111.395,459.623L111.118,461.54L108.9,461.54L108,466.335L110.148,466.335L109.871,467.979L107.653,467.979L106.752,473.185L108.97,473.185L108.623,475.102L104.258,475.102L107.307,459.623ZM127.4,459.623L129.34,459.623L130.379,467.705L131.904,459.623L134.121,459.623L131.211,475.102L129.271,475.102L128.509,466.13L126.708,475.102L124.421,475.102L127.4,459.623ZM147.979,459.623L152.622,459.623L152.275,461.54L151.097,461.54L148.672,475.102L146.454,475.102L148.879,461.54L147.632,461.54L147.979,459.623ZM-18.107,461.472C-18.215,461.472 -18.306,461.535 -18.384,461.609L-19.285,466.267L-19.285,466.335C-19.285,466.484 -19.179,466.609 -19.008,466.609L-18.176,466.609C-17.969,466.609 -17.45,466.197 -17.414,465.993L-16.651,462.157C-16.615,461.937 -16.998,461.472 -17.205,461.472L-18.107,461.472ZM22.912,466.129L21.457,470.033L22.566,470.033L22.912,466.129Z" style="fill:white;fill-rule:nonzero;"/>
            </g>
            <g transform="matrix(1,0,0,1,-236.252,381.062)">
                <g transform="matrix(1,0,0,1,236.252,-381.062)">
                    <ellipse cx="-211.177" cy="440.23" rx="25.076" ry="11.212" style="fill:rgb(0,117,68);"/>
                </g>
                <g transform="matrix(1,0,0,1,236.252,-381.062)">
                    <path d="M-141.212,458.799C-141.212,464.991 -152.439,470.011 -166.288,470.011C-180.137,470.011 -191.364,464.991 -191.364,458.799C-191.364,452.607 -180.137,447.588 -166.288,447.588C-152.438,447.588 -141.212,452.607 -141.212,458.799Z" style="fill:rgb(254,208,27);fill-rule:nonzero;"/>
                </g>
                <g transform="matrix(1,0,0,1,236.252,-381.062)">
                    <path d="M-138.194,451.442C-141.212,438.885 -152.157,425.011 -166.288,431.042C-154.782,404.501 -133.067,408.723 -125.527,417.772C-119.654,424.818 -119.795,448.918 -138.194,451.442Z" style="fill:rgb(186,35,24);fill-rule:nonzero;"/>
                </g>
                <g transform="matrix(1,0,0,1,236.252,-381.062)">
                    <path d="M-182.387,431.14C-185.406,418.583 -196.35,404.709 -210.481,410.74C-198.975,384.199 -177.259,388.421 -169.72,397.47C-163.848,404.517 -163.99,428.616 -182.387,431.14Z" style="fill:rgb(10,42,141);fill-rule:nonzero;"/>
                </g>
            </g>
        </g>
    </g>
</svg>
