<svg viewBox="0 0 641 121" xmlns="http://www.w3.org/2000/svg" xml:space="preserve" style="fill-rule:evenodd;clip-rule:evenodd;stroke-linejoin:round;stroke-miterlimit:2">
    <path d="M188.482 4.084c-4.244 0-8.369 3.515-9.127 7.871v.234l-.078.078v.234l-.077.156v.156l-.077.156v.233l-.078.156v.234l-.077.234-.078.234-.077.467-.155.546-.077.545-.155.546-.077.622-.155.624-.155.702-.155.624-.232 1.324-.154.701-.155.624-.078.623-.154.624-.154.624-.077.623-.078.545-.154.468-.078.545v.234l-.077.156v.39l-.078.234v.311l-.077.156v.155c-.081 1.905.183 4.507.773 4.989.75 4.197 14.631 23.62 14.232 26.578-.376 2.966-2.012 11.691-2.012 11.691-.503 2.943-2.494 5.3-5.414 5.3-2.92 0-4.912-2.35-4.41-5.3l2.63-14.497h-10.364l-3.481 20.108c-.71 4.084 2.034 7.326 6.11 7.326h14.773c4.092 0 7.991-3.242 8.741-7.326 0 0 3.806-18.783 3.789-20.108-.016-1.334-.387-1.481-.387-1.481 0-1.527-12.352-22.072-13.613-22.836-.543-.322-.99-2.355-1.005-3.584-.024-1.223 1.624-9.432 1.624-9.432.503-2.941 3.268-5.3 6.187-5.3 2.92 0 4.139 2.358 3.636 5.3l-2.243 13.016h10.442l3.635-19.563c.822-4.357-1.944-7.871-6.187-7.871h-15.312v.001Zm28.463 0-12.376 71.86c-.71 4.084 2.035 7.326 6.111 7.326h14.772c4.092 0 8.06-3.242 8.818-7.326l13.226-71.86h-9.282l-12.608 69.834c-.183 1.012-1.161 1.87-2.165 1.87h-7.348c-1.03 0-1.715-.85-1.548-1.87l12.299-69.834h-9.899Zm35.581 0L237.598 83.27h9.9l6.807-35.851h12.608c4.1 0 7.991-3.267 8.739-7.328l5.415-28.136c.813-4.365-1.944-7.871-6.187-7.871h-22.354Zm35.348 0-15.47 79.186h22.276l1.547-9.82h-10.983l4.486-26.734h10.983l1.548-8.261h-10.984l4.874-24.551h10.983l1.548-9.82h-20.808Zm26.607 0-14.85 79.186h9.9l6.73-35.851h7.038c.925.867 1.032 2.469 1.159 3.272.184 1.165.376 2.654.232 3.819-.127 1.157-5.414 28.759-5.414 28.759h9.9s5.569-30.07 5.569-30.552c.016-.491.001-2.033-.541-2.884-.36-.546-.985-1.802-1.703-2.26-1.38-.892-2.939-1.48-2.939-1.48h-.696c2.832-1.126 8.174-2.979 8.74-6.002l5.414-28.136c.822-4.365-1.943-7.871-6.188-7.871h-22.351Zm52.984 0L352.537 83.27h11.37l9.204-45.906 3.635 45.906h9.902l14.928-79.186h-11.37l-7.735 41.385-5.104-41.385h-9.902Zm39.293 0L391.83 83.27h9.9l14.927-79.186h-9.899Zm15.082 0L406.913 83.27h11.448l9.203-45.906L431.2 83.27h9.9l14.927-79.186H444.58l-7.657 41.385-5.105-41.385h-9.978Zm38.366 0-1.857 9.82h6.188L452.315 83.27h11.293l12.454-69.366h5.956l1.547-9.82h-23.359Zm27.226 0-15.47 79.186h22.276l1.547-9.82h-10.984l4.563-26.734h10.984l1.547-8.261h-10.983l4.795-24.551h10.983l1.547-9.82h-20.805Zm25.138 0L497.642 83.27h11.447l9.204-45.906 3.636 45.906h9.901l14.927-79.186H535.31l-7.658 41.385-5.104-41.385h-9.978Zm39.37 0L537.012 83.27h22.586c4.1 0 8.06-3.242 8.817-7.326l11.99-63.989c.813-4.365-1.944-7.871-6.188-7.871H551.94Zm42.465 0c-4.245 0-8.292 3.515-9.05 7.871l-11.061 63.989c-.718 4.084 1.964 7.326 6.032 7.326h16.322c4.092 0 8.06-3.242 8.817-7.326l11.99-63.989c.821-4.357-1.952-7.871-6.188-7.871h-16.862Zm-34.034 9.118h4.563c2.92 0 4.912 2.358 4.41 5.3l-9.746 51.831c-.511 2.943-3.346 5.378-6.266 5.378h-4.486l11.525-62.509Zm39.835 0h.309c2.92 0 4.834 2.358 4.331 5.3l-9.282 51.831c-.503 2.934-3.191 5.378-6.11 5.378-2.92 0-4.139-2.436-3.636-5.378l9.203-51.831.078-.233.077-.234.078-.312.077-.233.077-.312.078-.234.077-.234.155-.233.077-.234.155-.234.077-.234.155-.233.155-.156.155-.235.154-.233.233-.156.309-.312.464-.311.155-.156.232-.156.232-.078.233-.156.154-.078.31-.077.232-.079h.232l.232-.077h.31l.232-.08Zm-338.167.312h4.796c1.052 0 3.285 2.429 3.094 3.507l-4.1 19.562c-.192 1.013-1.548 3.351-2.553 3.351h-5.956l-.077-.077h-.31v-.079h-.154l-.078-.077h-.077l-.078-.078-.077-.078h-.077v-.078l-.078-.078-.077-.078v-.078l-.077-.078-.078-.078v-.155l-.077-.078v-.156l-.078-.078v-.078c0-.128-.016-.323 0-.467l4.641-23.928c.425-.354.946-.623 1.471-.623Zm61.647 0h4.795c1.053 0 3.301 2.429 3.094 3.507l-4.099 19.485c-.183 1.02-2.7 3.428-3.713 3.428h-4.254c-.877 0-1.482-.582-1.547-1.402 0-.128-.016-.315 0-.467l4.564-23.928.078-.077.077-.079.155-.077h.077l.077-.078.078-.078h.077l.078-.078h.077l.155-.078h.232v-.078h-.001ZM166.514 90.129v25.954h452.897V90.129H166.514Zm330.724 2.728h3.864c.935 0 1.607.741 1.419 1.715l-.867 4.365h-2.129l.473-2.883c.106-.652-.28-1.169-.946-1.169-.659 0-1.306.513-1.419 1.169l-.394 2.104c-.065.125.131.717.236.779.293.166 3.075 4.727 3.075 5.066.065.17.104.25.08.312-.082.571-.868 4.443-.868 4.443-.171.888-1.045 1.636-1.971 1.636h-3.312c-.919 0-1.511-.748-1.34-1.636l.787-4.443h2.286l-.552 3.196c-.105.652.28 1.247.947 1.247.634 0 1.313-.592 1.419-1.247l.472-2.572c-.422-1.077-3.211-4.991-3.389-5.924-.123-.104-.175-.667-.159-1.092.024-.464.631-3.351.631-3.351h.078v-.234l.08-.156v-.077l.079-.079v-.077l.078-.079v-.077l.158-.156v-.079h.08l.237-.233v-.078h.079l.158-.156h.079l.08-.078h.078l.08-.077h.236l.077-.079Zm18.134 0h2.838l.395 6.625 3.626-6.625h2.839l-5.835 10.133-1.419 7.404h-2.523l1.261-7.95-1.182-9.587Zm25.783 0h3.866c.935 0 1.589.741 1.419 1.715l-.867 4.365h-2.13l.474-2.883c.106-.652-.279-1.169-.946-1.169-.659 0-1.313.513-1.419 1.169l-.395 2.104c-.08.125.107.717.237.779.277.166 3.075 4.727 3.075 5.066.081.17.078.25.078.312-.106.571-.788 4.443-.788 4.443-.171.888-1.053 1.636-1.971 1.636h-3.391c-.919 0-1.51-.748-1.341-1.636l.789-4.443h2.286l-.552 3.196c-.106.652.304 1.247.946 1.247.659 0 1.289-.592 1.419-1.247l.473-2.572c-.43-1.077-3.211-4.991-3.39-5.924-.122-.104-.174-.667-.158-1.092.025-.464.63-3.351.63-3.351l.08-.078v-.156l.079-.156v-.077l.079-.079v-.077l.079-.079v-.077l.158-.156v-.079h.08l.236-.233.158-.156.079-.078h.08l.078-.078h.08l.078-.077h.238l.074-.079Zm18.372 0h5.283l-.394 2.104h-1.341l-2.759 15.433h-2.603l2.76-15.433h-1.341l.395-2.104Zm20.657 0h4.73l-.393 2.104h-2.445l-1.103 5.534h2.522l-.393 1.794h-2.445l-1.025 5.923h2.444l-.315 2.182h-5.047l3.47-17.537Zm19.476 0h2.917l.474 10.133 4.493-10.054 2.838-.079-2.996 17.537h-2.207l1.419-9.275-3.942 9.275h-1.577l-.474-9.509-1.734 9.509h-2.602l3.391-17.537Zm-423.487.624h4.652l-.315 2.181h-2.524l-1.026 5.457h2.445l-.315 1.871h-2.523l-.947 5.924h2.444l-.395 2.181h-5.046l3.55-17.614Zm21.762 0h2.207l1.184 9.197 1.734-9.197h2.603l-3.391 17.614h-2.208l-.867-10.21-2.051 10.21h-2.602l3.391-17.614Zm23.654 0h5.204l-.315 2.181h-1.341l-2.839 15.433h-2.523l2.76-15.433h-1.419l.473-2.181Zm22.944 0h4.731l-.394 2.181h-2.444l-1.104 5.457h2.444l-.315 1.871h-2.444l-1.026 5.924h2.445l-.316 2.181h-5.046l3.469-17.614Zm22.236 0h5.046c.936 0 1.527.819 1.341 1.792l-1.184 6.236c-.129.675-1.328 1.227-1.971 1.481h.317v.077h.316l.08.078h.236v.078h.159v.078h.079c.105.189.158.751.158.857 0 .104-1.262 6.937-1.262 6.937h-2.286s1.221-6.136 1.262-6.391c.024-.273-.03-.603-.079-.858-.016-.187-.025-.509-.237-.701h-1.577l-1.498 7.95h-2.286l3.386-17.614Zm22.55 0h5.282l-.315 2.181h-1.34l-2.838 15.433h-2.524l2.759-15.433h-1.419l.395-2.181Zm26.255 0h2.997l-.947 17.614h-2.996l.395-4.052h-1.814l-1.499 4.052h-2.681l6.545-17.614Zm20.974 0h2.286l-3.391 17.614h-2.208l3.313-17.614Zm20.343 0h2.207l1.184 9.197 1.734-9.197h2.524l-3.312 17.614h-2.286l-.788-10.21-2.051 10.21H353.5l3.391-17.614Zm26.097 0h2.918l.473 10.209 4.495-10.132h2.838l-2.996 17.537h-2.208l1.419-9.274-3.942 9.274h-1.577l-.473-9.509-1.736 9.509h-2.522l3.311-17.614Zm28.622 0h4.652l-.315 2.181h-2.524l-1.024 5.457h2.444l-.315 1.871h-2.524l-1.025 5.924h2.524l-.395 2.181h-4.967l3.469-17.614Zm22.865 0h2.208l1.182 9.197 1.735-9.197h2.523l-3.311 17.614h-2.208l-.867-10.21-2.05 10.21h-2.602l3.39-17.614Zm23.417 0h5.284l-.395 2.181h-1.34l-2.76 15.433h-2.524l2.76-15.433h-1.419l.394-2.181Zm-188.994 2.104c-.123 0-.227.072-.316.156l-1.025 5.3v.078c0 .169.121.312.315.312h.947c.236 0 .826-.469.867-.701l.868-4.366c.041-.25-.394-.779-.63-.779h-1.026Zm46.676 5.299-1.655 4.443h1.262l.393-4.443Z" style="fill:#fff;fill-rule:nonzero"/>
    <ellipse cx="49.197" cy="71.413" rx="28.535" ry="12.759" style="fill:#007544"/>
    <path d="M128.812 92.543c0 7.046-12.775 12.759-28.535 12.759-15.759 0-28.534-5.713-28.534-12.759s12.775-12.757 28.534-12.757c15.761 0 28.535 5.711 28.535 12.757Z" style="fill:#fed01b;fill-rule:nonzero"/>
    <path d="M132.247 84.172c-3.435-14.29-15.889-30.077-31.97-23.214 13.093-30.202 37.804-25.398 46.384-15.101 6.683 8.018 6.522 35.442-14.414 38.315Z" style="fill:#ba2318;fill-rule:nonzero"/>
    <path d="M81.958 61.069C78.522 46.78 66.069 30.992 49.989 37.855c13.093-30.202 37.804-25.397 46.383-15.1 6.682 8.019 6.52 35.442-14.414 38.314Z" style="fill:#0a2a8d;fill-rule:nonzero"/>
</svg>
