<svg viewBox="2 43 499 154" xmlns="http://www.w3.org/2000/svg">
    <path d="M1.961 80.555c0 20.521 13.68 37.134 30.62 37.134h85.016c1.955 0 3.91 1.954 3.91 4.56s-1.63 4.56-3.91 4.56H1.635v32.9h129.643c16.939 0 30.62-16.938 30.62-37.46 0-20.52-13.681-37.46-30.62-37.46H46.587c-1.955 0-3.909-1.954-3.909-4.56 0-2.605 1.629-4.56 3.909-4.56H161.57V43.421H32.586c-16.939 0-30.62 16.612-30.62 37.134zM171.022 43.42v115.64h40.718V86.418l77.526 72.64h42.346V43.421h-40.718v72.314l-77.526-72.314Zm210.754 50.816V43.421h-41.368v115.638h41.368v-51.141l65.801 51.141h53.096l-74.922-57.656 74.922-57.982h-53.096zM13.157 197.208a10.903 10.903 0 0 0 4.598-1.025 10.26 10.26 0 0 0 3.677-2.752l-2.74-2.753a7.489 7.489 0 0 1-2.45 1.94 6.697 6.697 0 0 1-2.97.673 6.56 6.56 0 0 1-4.686-1.903 6.375 6.375 0 0 1-1.38-2.095 6.76 6.76 0 0 1-.504-2.618 7.022 7.022 0 0 1 .49-2.65 6.472 6.472 0 0 1 1.356-2.109 6.251 6.251 0 0 1 2.061-1.406 6.409 6.409 0 0 1 2.552-.512 6.78 6.78 0 0 1 3.047.71 7.376 7.376 0 0 1 2.508 2.066l2.826-2.841a9.933 9.933 0 0 0-3.69-2.796 11.208 11.208 0 0 0-4.695-1.04 10.905 10.905 0 0 0-4.225.82 10.728 10.728 0 0 0-3.415 2.227 10.296 10.296 0 0 0-2.278 3.352 10.883 10.883 0 0 0-.014 8.33 10.15 10.15 0 0 0 2.263 3.338c.986.954 2.146 1.71 3.416 2.226 1.35.553 2.795.83 4.253.818zm54.638.03a10.8 10.8 0 0 0 4.209-.82 10.351 10.351 0 0 0 5.652-5.607 10.682 10.682 0 0 0 0-8.285 10.373 10.373 0 0 0-2.267-3.37 10.338 10.338 0 0 0-3.385-2.238 11.15 11.15 0 0 0-8.391 0 10.37 10.37 0 0 0-5.652 5.608 10.69 10.69 0 0 0 0 8.285 10.351 10.351 0 0 0 5.652 5.608 10.74 10.74 0 0 0 4.183.818zm0-3.894a6.2 6.2 0 0 1-4.54-1.917 6.582 6.582 0 0 1-1.341-2.123 7.366 7.366 0 0 1 0-5.286 6.608 6.608 0 0 1 1.34-2.108 6.224 6.224 0 0 1 4.54-1.917 6.315 6.315 0 0 1 2.538.512 6.133 6.133 0 0 1 2.032 1.405 6.608 6.608 0 0 1 1.34 2.108 7.37 7.37 0 0 1 0 5.286 6.582 6.582 0 0 1-1.34 2.123 6.128 6.128 0 0 1-2.032 1.405 6.31 6.31 0 0 1-2.536.512zm63.374 3.573v-3.747h-11.045v-16.75h-4.177v20.494zm52.709 0v-3.747h-11.045v-16.75h-4.18v20.494zm53.109 0v-3.69H225.54v-4.861h7.47v-3.573h-7.47v-4.68h11.33v-3.69h-15.514v20.496zm46.364.293a10.905 10.905 0 0 0 4.599-1.025 10.291 10.291 0 0 0 3.677-2.752l-2.741-2.752a7.485 7.485 0 0 1-2.451 1.94 6.69 6.69 0 0 1-2.97.673 6.523 6.523 0 0 1-2.53-.482 6.542 6.542 0 0 1-2.153-1.421 6.359 6.359 0 0 1-1.381-2.095 6.772 6.772 0 0 1-.505-2.62 7.019 7.019 0 0 1 .491-2.65c.31-.784.77-1.5 1.355-2.107a6.245 6.245 0 0 1 2.061-1.406 6.402 6.402 0 0 1 2.55-.512 6.782 6.782 0 0 1 3.058.716 7.384 7.384 0 0 1 2.508 2.064l2.826-2.84a9.937 9.937 0 0 0-3.69-2.796 11.22 11.22 0 0 0-4.694-1.04 10.94 10.94 0 0 0-4.225.82 10.716 10.716 0 0 0-3.416 2.226 10.284 10.284 0 0 0-2.28 3.352 10.879 10.879 0 0 0-.013 8.33 10.16 10.16 0 0 0 2.262 3.338 10.737 10.737 0 0 0 3.417 2.225c1.348.55 2.79.826 4.245.812zm55.302-.293v-16.75h6.775v-3.749h-17.76v3.749h6.804v16.747zm47.893 0v-20.495h-4.18v20.495zm48.15.323a10.83 10.83 0 0 0 4.211-.82 10.363 10.363 0 0 0 5.651-5.607 10.69 10.69 0 0 0 0-8.287 10.353 10.353 0 0 0-5.651-5.606 11.151 11.151 0 0 0-8.39 0 10.365 10.365 0 0 0-5.65 5.606 10.67 10.67 0 0 0 0 8.287 10.377 10.377 0 0 0 5.65 5.607 10.75 10.75 0 0 0 4.18.817zm0-3.895a6.185 6.185 0 0 1-2.522-.512 6.13 6.13 0 0 1-2.017-1.406 6.55 6.55 0 0 1-1.343-2.122 7.382 7.382 0 0 1 0-5.285 6.602 6.602 0 0 1 1.343-2.108 6.147 6.147 0 0 1 2.017-1.406 6.195 6.195 0 0 1 2.522-.512 6.31 6.31 0 0 1 2.538.512 6.13 6.13 0 0 1 2.032 1.406 6.614 6.614 0 0 1 1.342 2.108 7.366 7.366 0 0 1 0 5.285 6.545 6.545 0 0 1-1.342 2.122 6.11 6.11 0 0 1-2.032 1.406 6.318 6.318 0 0 1-2.538.51zm52.102 3.574v-13.71l10.294 13.71h3.69v-20.495h-3.921v13.264l-10.034-13.264h-3.98v20.495z" style="fill:#fff;stroke-width:1.51023841"/>
</svg>
