<svg viewBox="0 0 230 60" xmlns="http://www.w3.org/2000/svg">
    <path d="M30.051 0C14.21 0 1.233 12.152 0 27.594l16.162 6.649a8.514 8.514 0 0 1 5.28-1.464l7.187-10.365v-.146c0-6.239 5.1-11.314 11.372-11.314 6.271 0 11.371 5.075 11.371 11.314s-5.1 11.315-11.371 11.315c-.087 0-.173-.003-.259-.005l-10.25 7.277c.005.132.01.267.01.402 0 4.683-3.829 8.492-8.536 8.492-4.131 0-7.586-2.934-8.369-6.819L1.039 38.176C4.618 50.768 16.246 60 30.051 60c16.654 0 30.154-13.432 30.154-29.999C60.205 13.431 46.705 0 30.051 0" style="fill:#ccc"/>
    <path d="m18.896 45.52-3.704-1.522a6.364 6.364 0 0 0 3.3 3.124c3.26 1.351 7.018-.188 8.376-3.434a6.288 6.288 0 0 0 .01-4.875 6.344 6.344 0 0 0-3.458-3.457 6.416 6.416 0 0 0-4.722-.072l3.827 1.575a4.682 4.682 0 0 1 2.538 6.135c-.999 2.393-3.762 3.524-6.167 2.526m28.682-23.252c0-4.157-3.399-7.539-7.578-7.539-4.178 0-7.577 3.382-7.577 7.539s3.399 7.538 7.577 7.538c4.179-.001 7.578-3.381 7.578-7.538m-13.257-.013c0-3.128 2.549-5.662 5.692-5.662 3.144 0 5.693 2.534 5.693 5.662s-2.549 5.662-5.693 5.662c-3.143 0-5.692-2.535-5.692-5.662" style="fill:#ccc"/>
    <path d="m93.63 16.434-2.795 4.887c-2.152-1.496-5.07-2.397-7.617-2.397-2.911 0-4.712 1.199-4.712 3.347 0 2.609 3.2 3.216 7.955 4.914 5.112 1.798 8.05 3.912 8.05 8.57 0 6.372-5.037 9.951-12.277 9.951-3.529 0-7.786-.906-11.058-2.886l2.039-5.419c2.658 1.397 5.838 2.225 8.673 2.225 3.821 0 5.637-1.402 5.637-3.475 0-2.373-2.77-3.086-7.24-4.559-5.095-1.692-8.626-3.913-8.626-9.068 0-5.814 4.68-9.152 11.414-9.152 4.693 0 8.465 1.479 10.557 3.062m21.849 3.089v25.648h-6.581V19.523h-9.552v-5.616h25.657v5.616zm23.397-.017v7.045h12.595v5.615h-12.595v7.337h14.613v5.668h-21.192V13.907h21.192v5.599zm29.301 19.595-2.08 6.071h-6.899l11.783-31.264h6.624l12.116 31.263h-7.132l-2.126-6.071h-12.286Zm6.079-17.736-4.292 12.518h8.672l-4.38-12.518Zm49.239 4.626-8.6 18.269h-3.713l-8.461-18.105v19.016h-6.302V13.907h6.288l10.561 22.568 10.187-22.568h6.342v31.264h-6.301z" style="fill:#fff"/>
</svg>
