<?xml version="1.0" encoding="UTF-8" standalone="no"?>
<!DOCTYPE svg PUBLIC "-//W3C//DTD SVG 1.1//EN" "http://www.w3.org/Graphics/SVG/1.1/DTD/svg11.dtd">
<svg width="100%" height="100%" viewBox="0 0 162 114" version="1.1" xmlns="http://www.w3.org/2000/svg" xmlns:xlink="http://www.w3.org/1999/xlink" xml:space="preserve" xmlns:serif="http://www.serif.com/" style="fill-rule:evenodd;clip-rule:evenodd;stroke-linejoin:round;stroke-miterlimit:2;">
    <g transform="matrix(1,0,0,1,-1059,-2003)">
        <g id="street-fighter.afdesign" transform="matrix(1,0,0,1,1140,2060)">
            <g transform="matrix(1,0,0,1,-320.351,-59.9642)">
                <clipPath id="_clip1">
                    <rect x="240.244" y="3.928" width="160.214" height="112.072"/>
                </clipPath>
                <g clip-path="url(#_clip1)">
                    <g transform="matrix(0.26524,0,0,0.26524,240.244,4)">
                        <path d="M501.492,135.357C497.265,136.764 492.591,137.706 487.899,138.645C478.977,140.523 468.621,143.346 457.827,146.166C446.559,148.98 434.349,152.274 422.151,155.562C416.514,157.44 411.375,159.291 405.729,160.698C365.352,172.908 326.841,186.552 308.055,194.532C303.828,196.41 301.005,198.291 299.127,199.23C295.371,202.047 290.199,210.006 290.199,210.006L285.501,219.405C285.501,219.405 295.845,213.762 308.055,208.599C322.137,202.494 338.568,196.89 343.26,201.582C349.833,207.684 333.396,276.681 339.501,334.902C341.379,328.8 343.26,330.237 343.26,330.237L350.778,345.243L354.537,338.664L363.936,357.93L364.404,346.653L367.224,349.005C363.816,315.321 366.621,202.248 378.852,189.018C382.608,185.262 392.955,180.555 405.636,176.325C410.802,174.447 416.412,172.566 422.055,171.156C434.736,167.4 447.879,164.109 457.731,161.76L476.526,157.092C476.526,157.092 479.352,149.571 487.806,145.815C489.213,145.347 490.155,144.876 491.094,144.876C491.094,144.876 487.782,139.704 501.399,135.477L501.492,135.357ZM487.899,164.928C479.916,165.399 469.095,167.28 457.827,170.097C445.146,172.914 432.003,176.679 422.151,179.964C418.863,180.906 415.569,182.316 413.223,182.784C424.491,187.479 421.68,193.59 421.68,193.59L422.151,194.061L429.201,198.759C429.201,198.759 435.783,196.881 441.891,196.41C445.176,232.095 440.01,271.53 440.01,271.53L422.187,275.76L422.157,275.76L420.309,276.231L422.157,278.988L422.157,279.048L432.963,291.699L431.553,297.81L435.312,297.339C435.312,297.339 433.425,312.825 422.16,333.015L422.16,333.078C419.82,337.752 417.003,342.441 413.265,347.583C415.605,348.519 418.881,348.045 422.16,347.112C422.169,347.109 422.181,347.115 422.19,347.112C428.283,345.234 433.908,341.943 433.908,341.943L454.551,334.896L454.551,340.065L457.839,338.184L462.537,335.367C462.537,335.367 474.285,309.093 474.285,280.455C474.285,280.455 480.87,278.571 487.908,274.344C491.196,272.937 494.46,270.585 497.745,267.768C522.636,295.935 540.006,323.652 540.006,323.652L548.934,322.713L551.283,316.602L559.743,317.544L561.621,313.785L562.563,315.192L571.02,321.771L575.718,316.134L582.267,317.541C582.267,317.541 574.77,309.546 562.56,296.4C551.292,284.193 535.323,267.291 517.95,249.909C525.465,243.336 534.402,235.353 535.332,214.233C535.803,191.226 521.721,167.742 494.013,164.925L487.899,164.928ZM478.938,188.364C482.124,188.313 485.127,188.751 487.899,189.369C497.76,192.183 503.847,199.683 503.847,210.006C502.908,223.62 495.885,233.505 487.899,240.081C484.143,243.366 479.907,246.159 476.622,247.569C476.622,247.569 475.209,212.844 473.802,188.895C475.095,188.661 476.328,188.499 477.561,188.424C478.023,188.397 478.485,188.37 478.941,188.364L478.938,188.364ZM280.359,194.97C278.013,195.912 275.661,196.38 273.312,197.322L273.312,197.352C256.881,202.518 241.383,207.657 228.702,212.358C209.457,219.873 196.785,225.51 196.785,225.51L198.165,216.582C198.165,216.582 185.976,224.571 174.228,226.452C169.917,226.932 165.606,226.932 162.399,225.057C144.054,231.633 68.934,278.085 53.937,301.14C51.588,310.533 42.189,326.04 42.189,326.04L35.61,346.68L40.308,346.209L35.142,356.544L39.372,355.137L39.372,361.245C39.372,361.245 62.376,330.249 83.508,312.408C80.691,328.836 80.688,345.267 80.688,345.267L73.641,352.785L66.624,367.35L72.231,367.35L71.76,372.99L76.458,370.638L74.58,377.187L78.339,377.187C78.339,377.187 79.281,400.221 82.098,413.364L97.134,418.5L99.486,415.713L107.943,422.259L114.489,417.09C114.489,417.09 112.14,372.504 113.082,353.247C120.594,345.264 146.913,330.252 146.913,330.252L149.262,321.792L145.503,312.396L155.337,297.831C136.554,307.692 113.547,321.798 113.547,321.798C113.547,321.798 115.899,290.814 119.187,285.18C122.472,279.543 144.075,265.902 174.129,248.529C190.56,239.139 208.884,229.755 228.6,219.429C243.156,212.388 258.18,205.356 273.207,198.321L273.207,198.288C275.556,197.349 277.908,195.939 280.257,195L280.359,194.97ZM430.623,203.898L382.728,217.992L379.908,324.549L405.75,317.034L420.285,312.333L420.285,283.704L400.116,286.524L400.587,271.485L405.756,270.075L418.878,265.848L418.407,260.208L422.637,244.731L405.756,248.931L400.587,250.338L401.997,234.861L405.756,233.922L411.018,232.386L424.521,228.753L429.222,222.645L424.521,220.764L430.623,203.898ZM325.368,227.385C325.368,227.385 320.667,237.72 315.972,230.205C314.562,235.368 310.8,237.255 307.983,237.723L304.692,237.723L303.285,271.995L292.479,276.693L295.767,239.133L290.598,243.834L286.368,239.133L278.883,250.38L276.531,246.15L273.243,248.97L270.894,251.319C270.894,251.319 262.908,319.887 265.725,349.938C269.013,346.182 270.426,352.758 270.426,352.758L273.243,348.999L274.182,347.589L282.171,366.384L285.429,355.107L290.598,357.456L290.598,303.918L302.817,300.159L303.288,346.65L307.986,349.002L313.098,351.306L314.1,345.192L326.733,358.824C326.733,358.824 321.57,280.875 329.55,229.212C326.733,232.029 325.353,227.331 325.353,227.331L325.368,227.385ZM260.112,247.995C260.112,247.995 244.623,251.292 228.654,260.214C212.226,269.604 194.853,286.047 193.449,312.342C190.632,355.074 223.02,351.306 228.654,350.844C229.125,350.844 230.064,350.373 230.064,350.373L230.064,371.514L231.945,366.348L235.704,368.697L241.311,365.406L247.887,370.575L248.892,366.465L253.119,367.407L255,311.991L263.457,308.703L261.579,290.85L228.717,304.944L221.67,307.764L228.717,319.512L229.188,319.98L232.947,319.041L232.947,327.498C232.947,327.498 231.066,327.969 228.717,327.969C224.022,327.03 216.027,324.198 216.972,309.645C217.44,299.319 222.612,292.284 228.717,287.121C238.581,279.138 251.715,275.373 257.349,270.672L253.119,268.791L259.227,265.971L260.112,247.995ZM180.759,270.549C178.881,276.183 176.529,280.419 174.18,283.239C169.485,290.754 164.313,293.076 164.313,293.076C164.313,293.076 153.978,337.224 157.734,386.052L161.493,384.171L165.255,387.459L169.014,386.052C169.014,386.052 171.363,391.221 174.18,394.509C176.997,397.326 180.291,398.736 183.579,396.858C185.925,395.451 180.297,327.381 191.568,283.686C191.568,283.686 185.454,288.84 180.759,270.534L180.759,270.549Z" style="fill:white;fill-rule:nonzero;"/>
                        <path d="M533.571,0C531.282,0.021 529.032,0.072 526.773,0.219C488.268,2.568 449.274,8.682 411.693,16.668C368.028,25.59 326.247,37.32 290.601,48.585C274.632,53.751 259.134,58.932 245.523,63.624C225.333,71.136 207.981,77.697 195.783,83.331C183.573,88.026 176.514,91.788 175.113,92.727C175.113,92.727 171.81,107.274 154.902,119.484L163.83,118.104L142.719,137.34C142.719,137.34 182.637,115.758 195.789,111.999C197.196,111.531 198.576,111.531 199.518,111.531C202.332,114.816 199.545,129.834 195.789,147.678C191.094,171.624 184.512,201.195 187.8,216.222L195.789,208.704L196.728,208.233C209.16,211.092 211.965,200.787 211.965,200.787L217.134,202.665L218.544,199.848L226.062,199.848C226.062,199.848 225.6,111.093 238.752,96.096C239.22,95.157 242.013,93.744 245.769,91.395C255.159,87.171 271.131,80.61 290.847,73.104C326.535,59.952 373.479,43.992 411.942,33.195C426.024,28.971 439.206,25.677 450.003,23.328C455.637,22.389 454.671,28.032 456.549,33.195C457.959,37.89 453.291,43.512 452.352,51.018C451.881,57.594 449.064,121.44 449.064,121.44L454.2,119.559L460.776,120.03L463.128,113.013L468.297,116.301L470.646,112.542L473.934,115.362L478.635,113.952C478.635,113.952 477.234,27.555 490.854,18.633C498.366,12.999 520.905,12.054 535.461,12.522C560.349,13.932 585.672,15.822 584.268,28.974C582.861,42.126 567.849,47.739 567.849,47.739L571.137,51.969L566.907,52.437L566.907,59.016L558.921,61.365L561.126,63.66L545.619,69.768L551.256,71.178L538.608,77.256C538.608,77.256 593.058,72.09 599.634,34.992C604.035,13.422 567.978,-0.27 533.664,0.03L533.571,0ZM218.307,32.178C210.327,34.527 202.83,36.378 195.783,38.256C103.278,63.144 68.073,93.186 68.073,124.182C68.073,157.524 102.348,168.789 103.752,174.423C114.588,218.079 0,238.758 0,238.758L6.579,244.869L7.047,250.005L16.446,260.811L26.751,262.692L30.039,269.268L48.363,266.919L46.953,273.966C63.384,276.783 139.437,246.72 156.819,213.852C169.5,189.903 162.459,172.533 162.459,172.533C154.038,143.832 118.854,142.449 118.854,117.099C117.915,94.563 159.732,73.422 195.879,58.866C218.415,49.476 241.449,42.468 248.025,40.593C246.321,40.383 229.881,41.565 223.164,41.946L223.164,38.658L216.117,38.658L218.307,32.178ZM441.348,32.178L389.691,45.771L388.281,61.749L385.932,68.799L381.234,136.872L435.243,123.72L436.653,101.196L411.753,108.369L411.753,108.243L405.675,110.124L407.556,92.271L431.493,84.753L434.313,65.985L408.972,71.625L409.911,57.531L411.759,57.531L411.759,57.06L439.014,49.542L441.348,32.178ZM378.396,48.618L331.902,63.654L331.431,80.073L328.614,87.591L326.733,134.544L312.669,121.392C312.669,121.392 316.899,114.366 316.899,101.226C316.899,87.612 305.61,76.353 294.345,76.353C293.406,76.353 291.993,76.794 290.586,76.794C278.847,79.611 254.427,90.897 245.505,95.589L245.163,95.778C243.282,96.714 241.872,97.185 241.872,97.185L244.221,99.066L245.163,101.883L245.976,102.636L249.267,104.985L250.206,111.564L258.663,108.744C258.663,108.744 254.907,127.521 256.314,136.902L245.538,141.132L245.508,141.132L242.721,142.542L245.508,143.481L245.538,143.481L246.918,143.952L246.918,149.589L248.796,151.938L248.796,156.168L253.026,154.758L251.616,186.216L254.436,182.925L258.663,181.047L264.771,181.518L264.771,177.288L271.35,178.227L272.76,174.468L279.339,174.468L280.278,149.598C280.278,149.598 284.949,148.656 290.583,145.839C293.868,143.961 297.162,141.138 299.979,136.911L321.591,159.939L329.55,157.587L330.018,151.95L335.658,154.767L345.483,154.266L344.079,151.911L371.343,143.925L374.634,118.113L346.476,127.011L347.886,109.659L371.352,101.199L372.291,82.875L348.354,89.922L349.764,74.916L377.451,65.049L378.396,48.618ZM290.592,95.109C295.287,95.58 300.459,96.996 299.052,104.037C298.113,109.203 294.348,113.907 290.592,116.727C285.897,120.954 280.755,122.805 280.755,122.805C280.755,108.72 284.484,95.58 284.484,95.58C284.484,95.58 287.304,95.109 290.592,95.109Z" style="fill:rgb(254,254,254);fill-rule:nonzero;"/>
                    </g>
                </g>
            </g>
        </g>
    </g>
</svg>
