<svg viewBox="0 0 160 113" xmlns="http://www.w3.org/2000/svg" xml:space="preserve" style="fill-rule:evenodd;clip-rule:evenodd;stroke-linejoin:round;stroke-miterlimit:2">
    <clipPath id="a">
        <path d="M.697.083h159.144v112H.697z"/>
    </clipPath>
    <g clip-path="url(#a)">
        <path d="M133.713 35.985c-1.121.373-2.361.623-3.605.872-2.367.498-5.114 1.247-7.977 1.995-2.988.746-6.227 1.62-9.462 2.492-1.496.498-2.859.989-4.356 1.362-10.71 3.239-20.924 6.858-25.907 8.974-1.121.498-1.87.997-2.368 1.246-.997.748-2.368 2.859-2.368 2.859l-1.246 2.493s2.743-1.497 5.982-2.867c3.735-1.619 8.093-3.105 9.338-1.861 1.743 1.619-2.617 19.919-.997 35.362.498-1.618.997-1.237.997-1.237l1.994 3.98.997-1.745 2.493 5.11.124-2.991.748.624c-.904-8.935-.16-38.926 3.084-42.435.996-.997 3.741-2.245 7.104-3.367 1.37-.498 2.858-.997 4.355-1.371 3.364-.996 6.85-1.869 9.463-2.492l4.985-1.238s.75-1.995 2.992-2.991c.373-.125.623-.249.872-.249 0 0-.878-1.372 2.733-2.493l.025-.032Zm-3.605 7.843c-2.118.125-4.988.624-7.977 1.371a100.35 100.35 0 0 0-9.462 2.617c-.873.25-1.746.624-2.368.748 2.988 1.246 2.243 2.866 2.243 2.866l.125.125 1.87 1.246s1.745-.498 3.365-.623c.872 9.465-.498 19.925-.498 19.925l-4.728 1.122h-.008l-.49.125.49.731v.016l2.866 3.356-.374 1.621.997-.125s-.5 4.107-3.488 9.463v.016a27.074 27.074 0 0 1-2.359 3.848c.62.248 1.489.122 2.359-.125h.008c1.616-.499 3.108-1.371 3.108-1.371l5.475-1.87v1.371l.872-.498 1.247-.748s3.116-6.969 3.116-14.565c0 0 1.746-.499 3.613-1.62.872-.374 1.738-.997 2.609-1.745 6.602 7.471 11.209 14.823 11.209 14.823l2.369-.249.623-1.621 2.244.25.498-.997.249.373 2.244 1.745 1.246-1.495 1.737.373s-1.989-2.12-5.227-5.607a443.675 443.675 0 0 0-11.833-12.332c1.994-1.743 4.364-3.86 4.611-9.462.125-6.103-3.61-12.332-10.96-13.079l-1.621.001Zm-2.377 6.216c.845-.013 1.641.103 2.377.267 2.615.746 4.23 2.736 4.23 5.474-.249 3.611-2.112 6.232-4.23 7.977-.997.871-2.12 1.612-2.992 1.986 0 0-.374-9.211-.747-15.563a8.46 8.46 0 0 1 1.363-.141h-.001ZM75.06 51.796c-.623.25-1.246.374-1.869.624v.008c-4.359 1.37-8.469 2.734-11.833 3.98-5.104 1.994-8.465 3.489-8.465 3.489l.366-2.368s-3.233 2.119-6.35 2.618c-1.143.127-2.286.127-3.137-.37-4.866 1.744-24.791 14.065-28.769 20.18-.623 2.491-3.116 6.604-3.116 6.604l-1.745 5.475 1.247-.125-1.371 2.741 1.122-.373v1.62s6.102-8.221 11.707-12.953c-.747 4.357-.748 8.715-.748 8.715l-1.869 1.994-1.861 3.864h1.487l-.125 1.495 1.246-.623-.498 1.737h.997s.25 6.109.997 9.595l3.988 1.363.624-.74 2.243 1.737 1.736-1.371s-.623-11.826-.373-16.934c1.993-2.118 8.973-6.099 8.973-6.099l.623-2.244-.997-2.492 2.609-3.864c-4.982 2.616-11.085 6.357-11.085 6.357s.624-8.218 1.496-9.712c.872-1.495 6.602-5.114 14.573-9.722 4.358-2.49 9.219-4.979 14.448-7.718 3.861-1.868 7.846-3.733 11.832-5.599v-.008c.623-.25 1.247-.624 1.87-.873l.027-.008Zm39.856 2.369-12.704 3.738-.748 28.263 6.854-1.993 3.856-1.247v-7.594l-5.35.748.125-3.989 1.371-.374 3.48-1.121-.124-1.496 1.121-4.105-4.477 1.114-1.371.373.374-4.105.997-.249 1.396-.407 3.581-.964 1.247-1.62-1.247-.499 1.619-4.473Zm-27.918 6.229s-1.247 2.741-2.492.748c-.374 1.37-1.372 1.87-2.119 1.994h-.873l-.373 9.091-2.867 1.246.872-9.963-1.371 1.247-1.121-1.247-1.986 2.983-.624-1.122-.872.748-.623.623S70.431 84.929 71.178 92.9c.872-.996 1.247.748 1.247.748l.747-.997.249-.374 2.119 4.985.864-2.991 1.371.623v-14.2l3.241-.997.125 12.331 1.246.624 1.356.611.266-1.622 3.351 3.616s-1.37-20.675.747-34.378c-.747.747-1.113-.499-1.113-.499l.004.014Zm-17.309 5.467s-4.108.874-8.344 3.241c-4.357 2.49-8.965 6.852-9.337 13.826-.748 11.334 7.843 10.335 9.337 10.212.125 0 .374-.124.374-.124v5.607l.499-1.37.997.623 1.488-.873 1.744 1.371.266-1.09 1.122.25.498-14.699 2.244-.872-.499-4.735-8.716 3.738-1.869.748 1.869 3.116.125.124.997-.249v2.243s-.499.125-1.122.125c-1.245-.249-3.366-1-3.115-4.86.124-2.739 1.496-4.605 3.115-5.974 2.616-2.118 6.1-3.116 7.594-4.363l-1.121-.499 1.62-.748.234-4.768Zm-21.047 5.982c-.498 1.494-1.122 2.618-1.745 3.366-1.246 1.993-2.617 2.609-2.617 2.609s-2.742 11.71-1.745 24.661l.997-.499.997.872.998-.373s.623 1.371 1.37 2.243c.747.747 1.621 1.121 2.493.623.622-.373-.871-18.428 2.119-30.018 0 0-1.622 1.368-2.867-3.488v.004Z" style="fill:#fff;fill-rule:nonzero"/>
        <path d="M142.222.083c-.607.005-1.204.019-1.803.058-10.214.623-20.556 2.244-30.524 4.363-11.582 2.366-22.664 5.477-32.119 8.465a683.767 683.767 0 0 0-11.956 3.989c-5.355 1.993-9.958 3.733-13.193 5.227-3.239 1.246-5.111 2.243-5.483 2.493 0 0-.876 3.858-5.361 7.097l2.369-.366-5.6 5.102s10.588-5.725 14.076-6.722c.374-.124.74-.124.989-.124.747.871.008 4.855-.989 9.588-1.245 6.351-2.991 14.195-2.119 18.18l2.119-1.994.249-.125c3.298.759 4.042-1.975 4.042-1.975l1.371.498.374-.747h1.994s-.123-23.541 3.366-27.519c.124-.249.865-.624 1.861-1.247 2.491-1.12 6.727-2.86 11.957-4.851 9.465-3.489 21.917-7.722 32.119-10.586a137.472 137.472 0 0 1 10.095-2.617c1.494-.249 1.238 1.248 1.736 2.617.374 1.246-.864 2.737-1.113 4.728-.125 1.744-.872 18.678-.872 18.678l1.362-.499 1.744.125.624-1.861 1.371.872.623-.997.873.748 1.246-.374s-.371-22.916 3.241-25.282c1.993-1.495 7.971-1.745 11.832-1.621 6.601.374 13.318.875 12.946 4.364-.374 3.488-4.355 4.977-4.355 4.977l.872 1.122-1.122.124v1.745l-2.119.623.585.609-4.113 1.62 1.495.374-3.354 1.612s14.442-1.37 16.186-11.21c1.168-5.721-8.396-9.353-17.498-9.273l-.024-.008ZM58.601 8.617c-2.117.624-4.105 1.114-5.974 1.613-24.536 6.601-33.874 14.569-33.874 22.791 0 8.843 9.091 11.831 9.463 13.326C31.091 57.926.697 63.411.697 63.411l1.745 1.621.124 1.362 2.493 2.866 2.734.499.872 1.744 4.86-.623-.374 1.869c4.358.748 24.531-7.226 29.141-15.944 3.363-6.353 1.496-10.96 1.496-10.96-2.234-7.612-11.566-7.979-11.566-14.703-.249-5.978 10.843-11.585 20.43-15.446 5.978-2.49 12.087-4.349 13.831-4.847-.452-.055-4.812.258-6.594.359v-.872H58.02l.581-1.719Zm59.159 0-13.701 3.606-.374 4.238-.623 1.87-1.246 18.056 14.325-3.489.374-5.974-6.604 1.902v-.033l-1.613.499.499-4.735 6.349-1.995.748-4.978-6.721 1.496.249-3.738h.49v-.125l7.229-1.994.619-4.606Zm-16.697 4.361-12.332 3.988-.125 4.355-.747 1.994-.499 12.454-3.73-3.488s1.122-1.864 1.122-5.349c0-3.611-2.995-6.598-5.983-6.598-.249 0-.624.117-.997.117-3.113.748-9.591 3.741-11.957 4.986l-.091.05c-.499.248-.873.373-.873.373l.623.499.25.747.216.2.873.623.249 1.745 2.243-.748s-.996 4.98-.623 7.468l-2.858 1.122h-.008l-.739.374.739.25h.008l.366.124v1.496l.498.623v1.122l1.122-.374-.374 8.344.748-.873 1.121-.498 1.62.124v-1.122l1.745.25.374-.998h1.745l.249-6.596s1.239-.25 2.733-.997c.872-.498 1.746-1.247 2.493-2.368l5.732 6.108 2.111-.624.124-1.495 1.496.747L92.333 41l-.372-.625 7.231-2.118.873-6.846-7.468 2.36.374-4.602 6.224-2.244.249-4.861-6.349 1.87.374-3.981 7.343-2.617.251-4.358ZM77.774 25.309c1.245.125 2.617.501 2.244 2.368-.249 1.371-1.248 2.618-2.244 3.366-1.245 1.121-2.609 1.612-2.609 1.612 0-3.736.989-7.221.989-7.221s.748-.125 1.62-.125Z" style="fill:#fefefe;fill-rule:nonzero"/>
    </g>
</svg>
