<svg viewBox="0 0 600 292" xmlns="http://www.w3.org/2000/svg">
    <path d="m598.644 184.729-35.334-49.941a5.062 5.062 0 0 0-3.513-2.088l-35.022-4.242 9.666-4.104a2.887 2.887 0 0 0 1.776-2.679v-17.91c0-1.218-.558-2.364-1.461-3.165l-12.207-10.434c.381-.243.624-.627.729-1.077l7.2-43.683c.207-1.251.312-2.538.312-3.825V31.147c0-1.182-.624-2.295-1.635-2.886L489.891 5.167a5.528 5.528 0 0 0-3.546-.696l-58.185 8.904a2.244 2.244 0 0 0-1.878 2.226v3.687L366.81 8.923a2.074 2.074 0 0 0-2.4 1.497l-3.687 12.903-28.275-15.27c-1.077-.591-2.364-.765-3.582-.555l-57.732 10.641c-1.077.21-1.878 1.182-1.878 2.262v10.434c0 .207.036.348.036.555l-35.37-4.626v-8.208c0-1.077-.837-1.98-1.914-2.121L179.7 11.533c-1.041-.105-1.98.696-2.016 1.737l-.279 4.314L155.703.994c-.972-.765-2.226-1.077-3.441-.975L107.64 4.264a3.928 3.928 0 0 0-2.955 1.773L80.652 41.86a6.243 6.243 0 0 0-1.08 3.513v16.866c0 1.182.627 2.295 1.635 2.922l7.617 4.626-12.069 16.068a5.85 5.85 0 0 0-1.146 3.441l.033 16.626c0 1.215.594 2.295 1.461 3.165l11.373 9.666-31.614-4.242a2.943 2.943 0 0 0-3.093 1.773L.87 239.959a10.695 10.695 0 0 0-.87 4.275v14.607c0 1.359.801 2.574 2.052 3.095l60.966 26.05c1.08.453 2.367-.102 2.715-1.251l16.623-54.255 14.607 26.259a1.5 1.5 0 0 0 2.505.207l19.056-23.37 3.27 54.393c.069 1.182 1.182 2.016 2.295 1.773l52.134-10.746 35.925 6.783c1.218.207 2.367-.591 2.541-1.809l4.521-26.745 18.78-2.817 6.015 28.971c.279 1.217 1.428 2.016 2.646 1.773l41.106-7.755.591 5.217a2.307 2.307 0 0 0 2.469 2.016l49.353-4.452c1.251-.102 2.226-1.182 2.226-2.433l-.036-14.295 14.226 21.702a2.577 2.577 0 0 0 3.267.939l36.204-16.206-.207 12.936c-.036 1.218 1.008 2.157 2.19 2.052l47.856-3.267c1.323-.072 2.4-1.08 2.61-2.367l6.153-34.605 8.208 23.652a4.455 4.455 0 0 0 2.853 2.781l57.453 18.747a5.691 5.691 0 0 0 4.14-.246l54.567-24.867a4.684 4.684 0 0 0 2.574-3.093l14.991-59.298c.345-1.461.555-2.922.555-4.383v-11.094c-.069-1.53-.486-2.922-1.356-4.104Z" style="fill:#141414"/>
    <path class="st0" d="m524.775 103.348-26.397-22.503 15.648-9.738c.837-.522 1.428-1.356 1.566-2.328l5.565-33.597a2.255 2.255 0 0 0-1.077-2.295l-32.241-18.99c-.834-.522-1.842-.696-2.817-.555l-47.856 7.338c-.312.033-.555.207-.765.348l5.949 1.041c1.041.21 1.737 1.182 1.563 2.226l-4.938 29.388 6.435 62.637c.105.834.834 1.494 1.668 1.425l23.301-2.052c.837-.069 1.497-.798 1.497-1.668l-.939-30.189 1.113-.207 21.318 32.829a1.82 1.82 0 0 0 2.262.696l28.866-12.207c.696-.279.834-1.113.279-1.599Zm-36.066-37.179-18.258 2.955-.939-31.857 22.362 7.896-3.165 21.006Z" style="fill:#fff"/>
    <path class="st1" d="m427.986 89.365-34.641 5.115-2.469-17.007 27.963 4.242c.591.105 1.182-.348 1.251-.939l2.436-18.606c.069-.591-.348-1.113-.975-1.113l-28.761-.453 4.347-15.999 31.926 9.669c.558.174 1.182-.207 1.251-.765l3.861-22.989c.105-.591-.312-1.182-.939-1.32L372.06 18.556c-.624-.102-1.215.279-1.425.87l-2.295 8.07 3.792 2.052a2.816 2.816 0 0 1 1.425 2.817l-5.913 40.272c-.207 1.218-.765 2.367-1.668 3.234l-9.357 8.973 4.488 27.582a1.316 1.316 0 0 0 1.32 1.113l69.696 2.469c.591.033 1.008-.522.939-1.08l-3.756-24.621c-.138-.594-.729-1.011-1.32-.942Z" style="fill:#fff"/>
    <path class="st2" d="m363.123 34.417-32.484-17.529a4.489 4.489 0 0 0-2.85-.453l-47.577 8.766c-.837.174-1.428.939-1.323 1.809l.696 5.808 6.087.798c1.044.105 1.737 1.113 1.599 2.121l-4.242 25.182 6.642 54.741c.105.834.87 1.461 1.74 1.356l23.892-2.4c.834-.069 1.494-.834 1.425-1.671l-1.392-22.431 22.851-1.251a4.24 4.24 0 0 0 2.643-1.149l17.424-16.659a4.405 4.405 0 0 0 1.323-2.607l4.728-32.172c.069-.903-.381-1.842-1.182-2.259Zm-30.987 32.412-18.156 3.165-1.878-30.465 23.13 7.965-3.096 19.335Z" style="fill:#fff"/>
    <path class="st0" d="m276.108 41.023-35.163-4.659c-.765-.105-1.494.522-1.461 1.323l2.124 46.914-27.756 1.809 9.81-60.549c.102-.834-.453-1.566-1.287-1.635l-35.091-3.27a1.519 1.519 0 0 0-1.635 1.392l-.105 1.599 3.894 2.991a4.598 4.598 0 0 1 1.74 3.06l.21 1.74c.138 1.218-.21 2.469-.942 3.408l-6.12 7.755-1.599 25.878 2.295 1.494c1.008.696 1.773 1.74 2.052 2.922l.348 1.425a5.428 5.428 0 0 1-.312 3.618l-5.844 13.179-.069 1.218a3.045 3.045 0 0 0 1.044 2.541l20.169 18.153a4.187 4.187 0 0 0 2.679 1.077l44.205 1.113a3.199 3.199 0 0 0 2.538-1.113l15.579-17.772c.663-.765 1.113-1.668 1.254-2.676l8.625-51.159c.243-.906-.348-1.704-1.182-1.776Z" style="fill:#fff"/>
    <path class="st3" d="m138.453 31.669 27.198 18.642c.696.486 1.668.348 2.226-.348l13.251-16.8c.519-.66.417-1.632-.279-2.121L152.853 9.583a3.886 3.886 0 0 0-2.748-.765l-38.013 3.618c-.975.105-1.809.627-2.367 1.425L89.484 44.086c-.45.693-.276 1.632.453 2.052l49.422 30.117-10.122 13.737-26.361-22.188c-.627-.522-1.602-.417-2.088.243L85.38 88.567a1.628 1.628 0 0 0 .246 2.226l27.09 23.058c.765.627 1.74.972 2.715.972l44.967-.765a2.47 2.47 0 0 0 2.157-1.425l15.441-34.953c.348-.834.069-1.773-.66-2.259L130.56 44.605l7.893-12.936Z" style="fill:#fff"/>
    <path class="st1" d="m587.931 187.129-30.57-43.194c-.66-.939-1.668-1.566-2.781-1.671l-59.577-7.269c-1.077-.102-2.226.315-2.85 1.182l-26.295 33.216-7.371 41.769 12.45 35.856c.348 1.077 1.218 1.878 2.295 2.226l49.734 16.242a4.628 4.628 0 0 0 3.339-.21l47.334-21.597c1.008-.453 1.773-1.392 2.052-2.469l12.867-50.916c.279-1.077.036-2.262-.627-3.165Zm-69.903 35.787-19.998-21.144 14.364-24.693 26.64 7.128 3.303 26.607-24.309 12.102Z" style="fill:#fff"/>
    <path class="st3" d="m458.868 140.491-45.456-10.851c-.903-.21-1.773.453-1.809 1.356l-3.93 101.658 5.601 4.626c1.077.87 1.599 2.259 1.425 3.651l-.729 5.217a4.029 4.029 0 0 1-2.367 3.096l-4.659 2.085-.279 7.374c-.033.939.765 1.74 1.704 1.671l29.598-2.052a2.26 2.26 0 0 0 2.085-1.878l20.208-113.832c.207-.939-.417-1.878-1.392-2.121Z" style="fill:#fff"/>
    <path class="st0" d="m401.727 240.862-35.091-29.109 22.257-13.008c.975-.555 1.671-1.566 1.878-2.643l7.758-40.377c.207-1.08-.279-2.121-1.218-2.679l-45.213-26.397a4.993 4.993 0 0 0-3.303-.627l-63.855 10.296a1.875 1.875 0 0 0-1.563 2.052l8.901 76.479 15.444 44.376 22.431-2.016c1.008-.072 1.74-.939 1.704-1.95l-1.425-39.576 1.494-.315 28.623 43.683c.558.834 1.671 1.182 2.61.765l38.289-17.145c.765-.279.906-1.287.279-1.809Zm-48.585-50.013-23.373 5.427-1.32-37.632 27.684 7.479-2.991 24.726Z" style="fill:#fff"/>
    <path class="st1" d="m293.913 250.462-38.778-111.327c-.348-1.008-1.287-1.74-2.364-1.878l-53.037-5.427c-1.008-.102-1.983.558-2.295 1.53l-17.496 60.411 13.008 64.41 11.304 2.121a1.75 1.75 0 0 0 2.052-1.425l4.068-24.207 35.544-5.355 6.018 29.039a1.838 1.838 0 0 0 2.121 1.429l38.673-7.305a1.527 1.527 0 0 0 1.182-2.016Zm-78.111-47.787 5.772-34.293 11.895.939 7.128 34.224-24.795-.87Z" style="fill:#fff"/>
    <path class="st2" d="M158.313 137.848a2.52 2.52 0 0 0-2.121-1.983l-29.112-3.894c-1.077-.141-2.121.381-2.607 1.32l-19.302 37.317-13.287-39.576a2.885 2.885 0 0 0-2.328-1.914l-26.955-3.582c-1.044-.105-2.052.453-2.469 1.425L12.729 237.907c-.384.903.036 1.947.939 2.364l43.368 18.501a1.576 1.576 0 0 0 2.157-1.008l20.415-66.636 19.128 34.362a1.192 1.192 0 0 0 1.983.174l26.292-32.31 4.14 69.105c.033.939.939 1.598 1.842 1.425l46.95-9.702a1.84 1.84 0 0 0 1.428-2.121l-23.058-114.213Z" style="fill:#fff"/>
</svg>
