<svg viewBox="0 0 3840 1269.7" xmlns="http://www.w3.org/2000/svg">
    <path class="st2" style="fill:#fff" d="M852.6 392.3H0v166.1h324v686.4h204.5V558.4h324.1zm1964.5 0h-852.8v166.1h324.1v686.4H2493V558.4h324.1V392.3zm-1122.2 0h204.7v852.6h-204.7zm-565.2 852.5h554.1L1314.9 566c-142.5 196.1-208.4 437.5-185.2 678.8Zm-511.6 0h290.3c29.3-285.9 159.7-552 367.8-750.2L1151 264.4l-532.9 980.4ZM1798.2 0c-84.8 0-153.5 68.7-153.5 153.5S1713.4 307 1798.2 307s153.5-68.7 153.5-153.5C1951.8 68.8 1883.2.1 1798.6 0h-.4ZM1570 320.5l-12.8-23.9c-102.7 52.2-197.3 118.9-281 198l38.7 71.4c69.7-96.4 156.1-179.5 255.1-245.5Zm1758.5 44.3c-293.3 0-511.7 182-511.7 452.5s218.4 452.3 511.7 452.3c293.3 0 511.5-182 511.5-452.3s-218.2-452.5-511.5-452.5Zm0 747.5v-.4c-163 0-294.9-117.2-294.9-294.6 0-177.4 132-294.8 294.9-294.8 162.9 0 294.9 117.2 294.9 294.8 0 177.6-131.9 295-294.9 295Z"/>
</svg>
