<svg viewBox="0 0 3839 872.9" xmlns="http://www.w3.org/2000/svg">
    <path class="st1" d="M3839 0h-470.5l-36 30.5-1.2-30.5H2977l8 222.6c-4.7-8.5-10.6-17.1-18-25.5-14.6-16.5-32.9-29.5-54.4-38.6-24.4-10.3-53.1-15.5-85.2-15.5-56.8 0-113.4 15.9-165.2 46.3-41-41.3-99-46.3-124.6-46.3-7.7 0-15.4.3-22.8.8-12.2.8-24.6 2.4-37 4.8h-218.6l69.3-122.3h-531.7l-14.2 25.1c-4.8-3.4-9.8-6.6-15-9.6l-.5-.3c-31.9-18-71.6-27.1-118.2-27.1-31.2 0-62.1 4-91.9 11.9h-420.2l-17 .1H907.3l.1-.1H338.7L163 336.8h80.6L0 766.8h353.2l17-.1h411.3v.1h369.9l25.1-44.3c10.8 10.8 23.3 20.3 37.3 28.2l.5.3c32.4 18 70.9 26.8 117.6 26.8 41 0 81.5-6.9 120.3-20.6l2.1-.8c4.2-1.6 8.4-3.3 12.6-5l-8.8 15.5h167.1l-14.6 25.8 105.5 49.8c21.6 11 46 19.1 72.8 23.8 23.2 4.4 48.8 6.7 74.2 6.7 20.1 0 39.8-1.3 58.9-3.8h319.4l58.5-103.3c35.2-3.4 86.8-11.9 140.3-44 1.2-.7 2.4-1.5 3.7-2.2 6.5 6.6 13.6 12.6 21.3 18 30.6 21.6 69.3 32.5 114.8 32.5 18.3 0 36.3-1.3 53.6-3.9h300.6l68.3-57.9 2.1 57.9H3359l-12.6-349.1L3839 0Zm-806.4 737.3-3.2-89.6-105.8 89.6h-292.1c-16.6 2.6-33.7 3.9-51.5 3.9-39.5 0-72.5-9.2-98.2-27.2-13-9.1-23.8-20.2-32.2-33-7.8 5.7-15.9 11-24.3 16.1-50 30-98.9 37.4-131.2 40.3-3.9.3-7.8.6-11.7.7-17 30-57.9 102.2-57.9 102.2h-298.4l.5-.9c-20.4 3.1-41.6 4.7-63.5 4.7-23.7 0-47.5-2.1-69-6.2-24.1-4.3-46-11.5-65.2-21.3l-77.7-36.7 23.7-41.9h-167.1l37.9-67c-1.9 1.6-3.9 3.1-5.9 4.7-28.2 22.2-60.5 40.3-95.9 53.7l-1.5.6c-35.7 12.6-73 19-110.7 19-41.7 0-75.5-7.6-103.6-23.1l-.4-.2c-24.5-13.8-43.1-33.1-54.6-56.1l-38.8 68.5H830.9v-.1H353.2v.1H49.7l243.6-430h-80.6L355.6 55.3h496l-.1.1h285.2v-.1h424.1c28.6-7.9 58-11.9 88.1-11.9 41.5 0 76.5 7.9 104 23.3l.4.2c14.3 8.2 26.6 18.4 36.6 30.3l23.8-42h465.1l-69.3 122.3h241.7l-.1.1h28.9c12.4-2.5 24.7-4.2 36.8-5 6.8-.5 13.8-.7 20.8-.7 26 0 86.4 5.7 118.3 55.6 53-36.5 111.8-55.6 171.5-55.6 122.1 0 143.3 82.2 146.9 108 4.4 30.9-1.1 65.5-17.2 106.3l61-51.7-11-305.7h296.3l2.2 62.2 73.5-62.2H3760L3317 404l12 333.1h-296.4Z" style="fill:#fff"/>
    <path class="st1" d="m2194.3 249.8-162.2 285.9c-6.4 11.2-14.9 21-25.1 28.8-4.2-12.9-9.8-30.3-12.7-35.5l159.4-279.3H2021L1860.3 534l39 112.1h75.5c-9.7 14.9-19.5 25.7-30.7 32.9-12.5 8.1-28 12.2-47.5 12.2-12.6 0-25.4-1.1-36.3-2.8-12.6-1.8-26.6-4.9-39.2-8.9l-25.2-8.8-43.5 76.9 8.6 4.1c12.7 6.7 28.1 11.8 46.1 15 18.3 3.5 37.8 5 56 5 53.1 0 100.7-11 141.1-33.1 43.4-22.8 76.7-56.6 102.1-99.8l220.8-389h-132.8m403.5 21.8c-8.3-18.2-29.3-27.4-60.2-27.4-5.4 0-10.8.2-16 .5-16.6 1.1-33.1 4.4-49.1 9.3l-21.4 6.6 6.1-10.7h-113.7L2050 768h132.4s59.9-105.7 60.4-106.6c12.6 4.8 31.2 5.2 44.9 4 33.3-3 67-10.2 100.6-30.3 33.4-20 61.6-46.9 83.8-80.2 12.7-18.5 23.8-36 33.6-52.1l32.1-54.8c11.2-19.5 21-38.7 30.8-57.1 9.8-19 16.6-33.8 21-45 13.8-31.6 15.2-56.5 8.2-74.3Zm-169.1 124.6-28 52.8-37.8 63.8-25.3 41.2c-1.5 2.4-4.8 7.6-8.1 12.8-5.9 9.2-16.1 14.8-27.1 14.8h-14.6l137.9-243.4h13.7c7.7 0 12.9 7.9 9.8 15-6 13.6-14.8 33-20.5 43ZM929.1 127.6 702.8 665.5H563.1l47.5-97h-50.4l-62.9 97H356.2l374.5-537.9h198.4M660.8 473.2c28-60.9 62.9-136.4 107.7-226.2-72.7 103.2-124.3 178.6-155.2 226.2h47.5Zm501.8-345.6L857.9 665.5H719.5l304.7-537.9zm-449.3-.1-75.2 108h-83.4L311.1 665.6H173.7l243.6-430.1h-80.7l61.1-108z" style="fill:#fff"/>
    <path class="st1" style="fill:#fff" d="m2154.8 127.5-61.2 108h-80.9l-243.6 430.1h-137.4l243.6-430.1h-80.6l61.1-108zm-408 44.4c-2.7-18.6-12.6-32.7-29.3-42.3-16.8-9.5-40.5-14-68.5-14-29.3 0-58.7 4.9-86.7 14.9-27.8 10.1-54.5 24.3-78.2 43-23.7 18.6-43.3 39.2-57.3 61.7-15.4 22.5-39.2 60.8-69.9 114.7l-51.7 92.3c-30.7 55.3-51.6 94.1-61.4 116.2-11.2 22.1-14.1 42.8-11.2 61.6 2.7 18.9 13.9 32.9 30.7 42.4 16.8 9.3 39.2 14 68.5 14 29.3 0 58.7-5 86.7-14.9 26.5-10 53.1-24.2 76.8-43 23.7-18.5 43.3-39.1 58.7-61.4 15.4-22.7 37.8-60.9 68.4-115l51.9-92.3c32.1-55.2 53-94 62.8-116.4 9.7-22 14-42.5 9.7-61.5ZM1609 224.5l-196.7 345.8c-7.8 13.6-24.9 18.3-38.3 10.4-4.3-2.6-5.8-8.2-3.3-12.6l196.7-345.8c7.8-13.6 24.9-18.3 38.3-10.4 4.4 2.5 5.8 8.1 3.3 12.6Zm-131-97-61.2 108h-80.9l-243.6 430.1H954.9l243.6-430.1h-80.7l61.1-108zm1927.6-26.3-320.8 271.6-345 292.3h157.3l189.5-160.5L3237 377.3l325.9-276.1z"/>
    <path class="st1" style="fill:#fff" d="m3254 665.1-20.3-563.9H3082l20.3 563.9zm-351.2-375c-4.1-30.3-29.2-45.9-75.4-45.9-51.7 0-102.1 18.9-148.2 56-46.1 35.5-88 88-127.2 156.1-39 68.5-55.8 121.1-51.6 156.5 4.1 37.3 30.7 56 79.6 56 41.9 0 79.7-9.2 111.8-27.4 32.2-19 60.1-48.1 82.5-86.3 0 0 5.7-9.7 7.6-12.9.8-1.3 3.1-5.2 3.1-5.2h-102.6l-2.6 4.6-10.7 18.5c-4.8 8.8-9.3 12.4-10.6 13.8-1.7 1.9-3.9 3.2-6.3 3.9l-1.8.5c-5.4 1.5-11.1-.5-14.4-5.1-2.8-3.9-3.4-8.9-1.7-13.4 5-12.5 16.7-36.8 43.5-83.4h150.9l32.2-57.8c32.2-56.2 46.1-99.4 41.9-128.5Zm-119.3 59.2c-3.6 8.3-9.9 21.6-21.8 43h-36.3c13.9-22.9 21.4-34.5 26.1-41.1 17.2-25.5 38.9-19.1 32-1.9Z"/>
</svg>
