<svg xmlns="http://www.w3.org/2000/svg" style="isolation:isolate" viewBox="0 0 264 109" width="352" height="109pt">
    <defs>
        <clipPath id="a">
            <path d="M0 0h264v109H0z"/>
        </clipPath>
    </defs>
    <g fill="#FFF" clip-path="url(#a)">
        <path d="M174.068 84.771v-1.227h2.348l.571-.296c.317-.169.804-.55 1.1-.867l.529-.571.063-4.42.064-4.421h2.093v9.222l-.676 1.142-.698 1.142-.91.656-.93.634-1.777.106-1.777.106v-1.206Zm13.262 1.1-3.152-.106-.592-.656-.592-.676-.148-1.079-.148-1.079.148-.888c.084-.508.296-1.184.465-1.502l.296-.613.719-.296.719-.296h3.406v-1.248c0-.698-.064-1.396-.127-1.586l-.127-.339h-5.457v-2.538h5.732l.74.317.74.296.318.762.296.74-.043 5.457-.063 5.436-3.13-.106Zm1.121-3.49v-1.184l-1.629.063-1.65.064-.063.803-.064.804.254.317.233.296h2.919v-1.163Zm17.851 3.49-3.215-.106-.444-.402-.423-.38-.254-.741-.233-.74.085-1.544.063-1.565.444-.592c.254-.318.677-.719.952-.846l.508-.275h3.511l-.064-1.523-.063-1.544-2.686-.064-2.708-.063v-2.517h5.859l.719.487.719.486.275.804.254.825-.042 5.203-.064 5.203-3.193-.106Zm.973-3.49v-1.163h-2.877l-.254.254-.254.253v.508c0 .275.106.677.212.909l.233.402h2.94v-1.163Zm-101.311-1.692v-5.182h-5.076v-2.538h7.191v12.902h-2.115v-5.182Zm4.568 4.738a4.036 4.036 0 0 1-.867-1.037l-.317-.613V72.969h7.614v2.538h-5.499v2.75h5.288v2.538h-5.288v1.819l.275.38.275.36 2.474.042 2.475.043v2.432h-5.859l-.571-.444Zm10.491.232c-.275-.127-.825-.465-1.227-.782l-.761-.571-.614-1.058-.613-1.078v-5.415l.402-.783.402-.782.825-.783.803-.782.783-.339.783-.317h4.462v2.538h-4.336l-.676.423-.677.402-.339.635-.317.634v4.082l.804.804.782.782 2.179.148 2.157.148.212-.126.211-.127v2.559l-2.369-.021h-2.39l-.486-.191Zm6.514-6.239v-6.451h2.115v5.288h5.499v-5.288h2.327v12.902h-2.327v-5.076h-5.499v5.076h-2.115V79.42Zm10.999 0v-6.451h5.414l1.1.55 1.1.55.655.825.656.846.296.973.296.973v8.185h-2.326v-8.714l-.825-.825-.825-.825h-3.426v10.364h-2.115V79.42Zm13.642 6.112a8.275 8.275 0 0 1-1.354-1.015l-.698-.655-.508-1.058-.507-1.057v-4.675l.529-1.057.528-1.058.571-.55a9.56 9.56 0 0 1 1.439-.994l.846-.444h3.172l.846.402.846.402.698.698.719.698.423.846.444.867.106 1.798.085 1.798-.233 1.205-.254 1.206-.613.846-.635.867-.888.571-.867.592-2.03.064-2.031.042-.634-.339Zm4.991-3.024.825-.825v-4.42l-.444-.571a4.04 4.04 0 0 0-1.037-.868l-.613-.317h-2.771l-.846.762-.846.761v4.801l.741.762.761.74h3.405l.825-.825Zm4.209 2.157v-1.226h3.363l.635-.148.613-.17.127-.338.127-.338-.402-.55c-.233-.318-1.206-1.354-2.2-2.306l-1.798-1.755-.253-.762-.254-.761.106-.867.126-.846.402-.55c.212-.296.635-.677.91-.804l.507-.275h5.394v2.538h-4.146l-.254.254-.253.254v.888l2.03 1.988 2.031 2.01.296.571.296.571v1.755l-.339.719-.359.741-.592.296-.593.317h-5.52v-1.206Zm31.091-5.245v-6.451h5.521l.74.317.74.296.296.741.317.74v3.215l-.296.592c-.169.317-.465.719-.677.888l-.359.297-2.031.105-2.03.106v5.605h-2.221V79.42Zm5.246-1.84.253-.254v-.634c0-.36-.084-.783-.19-.931l-.169-.275-1.46.063-1.459.064-.063.825c-.043.444-.022.93.042 1.1l.106.296h2.686l.254-.254Zm13.79 1.84v-6.451h5.456l1.121.592 1.143.593.676.888.677.909.233.783.211.782v8.355h-2.326v-8.714l-.825-.846-.846-.825-1.608.063-1.607.064.021 5.139.021 5.119h-2.347V79.42Zm15.968 6.091c-.338-.169-.994-.676-1.459-1.099l-.804-.762-.402-.846-.402-.846v-4.991l.297-.698.296-.72.782-.846.762-.867.909-.423.888-.444h4.527v2.538h-4.336l-.614.402a4.464 4.464 0 0 0-.994.994l-.402.613v3.808l.424.676c.211.381.613.825.888.994l.486.318 2.263.063 2.285.064v2.432h-2.369l-2.39-.021-.635-.339Zm9.158-.253-.951-.614-.55-.719c-.318-.402-.698-1.079-.889-1.502l-.317-.761v-2.179l.021-2.178.275-.783.275-.761.677-.846.656-.846 1.1-.55 1.099-.55h3.004l1.1.55 1.121.55.719.952.719.93.254 1.121.253 1.121-.105 2.01-.085 1.988-.571.973-.571.973-.677.571a6.306 6.306 0 0 1-1.375.888l-.677.275h-3.532l-.973-.613Zm5.351-2.75.825-.825v-4.526l-.825-.825-.824-.825H237.9l-.824.825-.825.825v4.315l.338.571.339.592.571.338.549.339 1.566.021h1.544l.824-.825Zm4.632-3.088v-6.451h5.521l.719.296.719.296.296.614.317.592.021 5.562.022 5.542h-2.115v-4.822l-.127-.339-.127-.338h-2.919v5.499h-2.327V79.42Zm5.246-1.84.254-.254v-.571c0-.317-.064-.719-.127-.909l-.127-.339h-2.919v2.327h2.665l.254-.254Zm4.061 1.84v-6.451h5.52l.719.296.719.296.339.677.359.698-.084 1.988-.064 2.01-.698.613-.677.613h-3.807v5.711h-2.326V79.42Zm5.245-1.84.254-.254v-.571c0-.317-.064-.719-.127-.909l-.127-.339h-2.919v2.327h2.665l.254-.254Zm.677 7.191V83.65h2.115v2.221h-2.115v-1.1ZM151.86 71.235v-.804h5.499v1.586h-5.499v-.782Zm-45.473-17.767V40.397H93.908v-6.556h18.401v32.677h-5.922v-13.05Zm20.727 12.944-7.297-.105-1.121-.614-1.121-.634-.761-.825-.74-.846-.571-1.184-.55-1.185-.064-13.579-.063-13.599h19.691v6.556h-13.748v6.557h12.902v6.557h-12.944l.084 2.77.064 2.771.486.381.466.381 1.332.148 1.311.126 5.034-.063 5.013-.063v3.341c0 1.819-.021 3.3-.042 3.279-.043-.021-3.342-.106-7.361-.17Zm24.429 0-6.134-.105-1.374-.656-1.375-.656-1.269-.973-1.269-.951-.931-1.1a18.759 18.759 0 0 1-1.628-2.284l-.741-1.206-.401-1.354-.424-1.332V44.31l.508-1.417.508-1.417.973-1.459.973-1.481 1.374-1.29 1.396-1.29 1.1-.635 1.1-.634 1.354-.423 1.332-.423h11.167v6.535l-5.541.064-5.563.063-1.015.508-1.015.529-1.057 1.12-1.058 1.121-.296.741-.317.719v10.067l.613 1.079.613 1.079.783.655c.402.381 1.248.931 1.861 1.27l1.1.571h10.892v3.341c0 1.819-.021 3.3-.042 3.279-.042-.021-2.813-.106-6.197-.17Zm8.778-16.222V33.841h5.922v13.113h13.324V33.841h5.923v32.677h-5.923V53.511h-13.324v13.007h-5.922V50.19Zm27.495-.021V33.82l7.149.063 7.128.063 1.142.466c.634.254 1.671.825 2.326 1.248l1.185.782 1.205 1.206 1.185 1.205.867 1.312c.465.74 1.079 1.861 1.332 2.538l.487 1.184.063 11.316.064 11.315h-5.943V45.347l-.529-1.079-.55-1.079-.91-.846c-.507-.486-1.353-1.078-1.861-1.353l-.909-.487-3.744-.063-3.765-.085v26.163h-5.922V50.169Zm39.742 16.243-3.701-.105-1.587-.783-1.565-.782-1.121-.952c-1.523-1.312-2.897-2.94-3.743-4.463l-.698-1.269-.339-1.142-.338-1.163v-11.02l.296-1.078.275-1.079.782-1.459.762-1.46 1.269-1.417 1.29-1.417 1.586-1.058 1.587-1.057 1.374-.444 1.396-.423h6.62l1.079.296 1.1.296 1.332.698 1.354.698 1.925 1.925 1.924 1.924.931 1.862.931 1.882.063 6.282.063 6.281-.444 1.354-.465 1.354-.761 1.269-.762 1.269-1.607 1.586-1.587 1.586-1.501.783-1.502.803-1.248.254-1.248.275-3.722-.106Zm4.886-6.916.951-.423 1.1-.994 1.079-.973.444-.909.444-.91V45.029l-.444-.867-.444-.846-.931-.909-.93-.91-.994-.507-1.016-.487-3.003-.063-3.025-.064-1.142.508-1.163.529-.973.909-.994.91-.508 1.015-.507.994v9.856l.423.888.402.889.93.951.952.952.931.465c.486.254 1.248.55 1.649.635l.741.169 2.538-.063 2.538-.043.952-.444Zm12.69 3.744v-3.278l4.251.063 4.273.063 1.121-.232 1.12-.233.55-.634.529-.656v-1.311l-5.266-5.288-5.288-5.309-.592-1.269-.592-1.269v-4.864l.613-1.248.613-1.269.868-.867.867-.846.846-.423.846-.424 7.043-.063 7.022-.063v6.556l-5.119.064-5.139.063-.55.381-.55.359-.233.55c-.148.296-.253.741-.253.994v.466l4.97 4.97 4.991 4.97.614.952.592.952.36 1.248.359 1.248-.084 1.819-.085 1.819-.592 1.311-.614 1.332-1.015.952c-.571.529-1.29 1.079-1.607 1.227l-.593.254-7.148.105-7.128.106V63.24Zm-23.689-33.566v-2.073h13.748v4.125h-13.748v-2.052ZM14.996 93.316l-.719-.635v-3.532l1.459-4.272 1.459-4.294.994.741c.571.423 1.629 1.015 2.369 1.353l1.333.614 1.607.338 1.586.36 2.792-.064 2.771-.063-.254.253c-.148.148-2.622 2.158-5.541 4.505l-5.288 4.252-.93.444-.931.444-.994.106-.994.084-.719-.634Zm56.302.063-1.142-.528-4.547-3.638-4.548-3.638.593-.444a109.72 109.72 0 0 0 1.607-1.206l1.015-.804 1.079-1.417 1.1-1.438.803-1.692c.868-1.777 2.116-5.351 2.116-6.049v-.402h.317l2.919 8.735 2.897 8.714v2.475l-.317.698-.339.677-.528.253-.529.233H72.44l-1.142-.529ZM38.917 85.3l-.74-.381-.191-.782-.19-.762.254-.634.253-.614 1.798-.698 1.777-.698 2.411-1.353 2.411-1.375 2.306-1.713 2.284-1.713 2.348-2.348 2.347-2.327.973-1.353.994-1.333v-2.115l-.825-.825-.824-.825h-2.052l-.571.381c-.296.19-1.036.952-1.608 1.65-2.305 2.813-5.52 5.668-8.777 7.783l-1.84 1.206-1.967.93c-2.263 1.079-4.547 1.862-6.874 2.327l-1.629.36-2.432.105-2.432.127-1.206-.254-1.205-.253-1.269-.635-1.269-.634-.868-.973-.846-.973v-.381c0-.212.487-1.734 1.058-3.384l1.057-3.025-1.036-.909c-.592-.508-1.946-1.946-3.003-3.194l-1.967-2.263-1.438-2.2-1.439-2.22v-1.65l.614-.613.613-.614h.74c.423 0 .91.064 1.1.127l.339.148 1.332 2.031 1.311 2.03 1.819 2.115 1.84 2.115 2.031 1.798c2.538 2.242 5.309 4.251 7.022 5.097l1.311.656.74-.127.719-.148.55-.423c.318-.233.698-.719.868-1.036l.317-.614v-.55c0-.296-.127-.867-.296-1.269l-.296-.719-2.094-1.332c-1.142-.762-2.94-2.073-3.998-2.961l-1.903-1.587-1.671-1.819c-.91-.994-2.2-2.58-2.855-3.511l-1.227-1.692-1.079-2.115-1.079-2.094-.634-1.967-.656-1.967-.317-1.903-.338-1.925.105-1.713.106-1.734.487-1.1.507-1.121 1.438-.021 1.417-.021 1.037-2.369c1.734-3.977 4.843-8.926 6.176-9.878l.486-.338h1.206l.592.317.592.296.275.635.254.656-.148.571-.148.592-.804 1.057c-1.459 1.925-2.792 4.146-4.018 6.747l-1.227 2.56-.762 2.241-.74 2.264-.444 2.178-.444 2.2.127.677.127.676.571.614.592.634.783.212.782.211.719-.19.719-.19.656-.741.634-.74.127-.783c.889-5.287 3.702-11.569 7.192-16.032l1.311-1.692 1.502-1.417c1.755-1.649 3.172-2.728 5.224-3.934l1.48-.867 1.269-.444c.677-.233 1.735-.487 2.327-.55l1.079-.127 1.205.233 1.185.254.549 1.84c.297 1.015.635 2.072.72 2.369l.169.528 1.882.148c2.242.191 5.88.868 7.847 1.46l1.438.423.592.634.571.614v1.248l-.232.528-.254.529-.677.317-.698.339-2.813-.719-2.834-.72-1.903-.232-1.904-.233h-6.43l-1.65.212-1.649.232-.889.318-.909.338-.423.613-.444.614-.127.719-.106.698.36.782.359.762.635.444.613.444.783.021c.423 0 2.051-.084 3.574-.211l2.813-.212 2.75.169 2.749.191 2.158.423c4.103.846 7.825 2.347 10.998 4.42l1.628 1.079 1.65 1.565 1.65 1.565.677 1.121c.359.635.698 1.333.74 1.544l.063.402-2.22 1.417-2.221 1.417.042.296c.021.169.317 1.396.656 2.729l.634 2.432.339 2.601.338 2.623v4.209l-.317.613-.317.614-.402.232-.423.212h-1.544l-.614-.613-.613-.614v-4.039l-.317-2.496-.339-2.496-.528-2.115a82.754 82.754 0 0 0-1.164-4.019l-.655-1.903-1.227-2.559-1.248-2.581-.55-.444-.571-.423-.719-.148-.719-.127-.571.127-.55.148-.698.698-.677.677-.148.782-.148.762 1.163 2.517 1.185 2.538.74 2.221.74 2.22.444 2.115.423 2.137.212 2.517.211 2.516-.211 2.306-.212 2.305-.507 2.115-.529 2.115-.656 1.587c-.359.867-.93 2.009-1.29 2.559l-.634.994-.931.867c-1.036.973-2.221 1.608-3.299 1.819l-.741.148-1.269-1.015c-.677-.55-1.353-1.079-1.48-1.185l-.254-.19-1.967 1.396c-3.553 2.517-8.46 5.013-10.406 5.309l-.677.106-.74-.381ZM7.656 44.543l-5.329-3.426-.868-.847-.867-.824-.296-.677L0 38.092v-1.206l.338-.465.318-.465.888-.487.888-.465 5.034-.106 5.013-.105-.106.296c-.063.169-.211.74-.338 1.269l-.212.973v4.462l.423 2.094c.233 1.163.571 2.559.74 3.13l.296.995-.126-.022c-.085 0-2.56-1.565-5.5-3.447Zm73.794-1.396c-1.459-2.538-3.891-4.97-7.233-7.255l-1.607-1.099 3.088.042c1.692.042 4.991.084 7.318.106l4.23.063.888.465.888.487.318.465.338.465v1.544l-.656.994-.676.995-2.665 1.755c-1.46.973-2.856 1.861-3.088 1.967l-.423.233-.72-1.227ZM36.654 20.178c.084-.212 1.184-4.019 2.474-8.439l2.327-8.038.698-1.374.677-1.375.719-.466.719-.486h1.375l.655.55.656.55.508.888.528.867 1.671 5.669 1.671 5.647h-2.58l-1.375.317a18.557 18.557 0 0 0-4.865 1.882c-1.501.804-4.589 2.898-5.372 3.638l-.592.571.106-.401Z"/>
    </g>
</svg>
