<?xml version="1.0" encoding="UTF-8"?>
<svg width="519px" height="112px" viewBox="0 0 519 112" version="1.1" xmlns="http://www.w3.org/2000/svg" xmlns:xlink="http://www.w3.org/1999/xlink">
    <title>tg16</title>
    <g id="Page-1" stroke="none" stroke-width="1" fill="none" fill-rule="evenodd" opacity="0.78">
        <g id="NEC-TurboGrafx-16" transform="translate(-60.000000, -4.000000)" fill="#FFFFFF" fill-rule="nonzero">
            <g id="tg16" transform="translate(60.000000, 4.000000)">
                <path d="M0,0 L25.6673995,0 L25.6673995,7.58034437 L18.1552293,7.58034437 L18.1552293,110.486411 L9.07663317,110.486411 L9.07663317,7.58034437 L0,7.58034437 L0,0 Z M48.9203832,102.955073 L58.9392274,102.955073 L58.9392274,30.8584901 L67.7017902,30.8584901 L67.7017902,102.955073 C67.7017902,107.622464 63.4795069,110.92551 59.147299,110.92551 L48.9203832,110.92551 C44.3428078,110.92551 40.2598932,107.189245 40.2598932,102.86098 L40.2598932,30.8584901 L48.9203832,30.8584901 L48.9203832,102.955073 Z M237.364557,48.4675497 L250.745917,48.4675497 L250.745917,111 L231.885992,111 C227.854114,111 222.887877,107.898861 222.887877,103.200106 L222.887877,8.67613245 C222.887877,4.70463576 227.033606,0.476344371 231.689698,0.476344371 L241.981391,0.476344371 C246.547189,0.476344371 250.687029,4.66739073 250.687029,8.58596026 L250.687029,30.9780662 L241.667321,30.9780662 L241.667321,8.89764238 L231.41685,8.89764238 L231.41685,103.270675 L241.902874,103.270675 L241.902874,56.1204238 L237.364557,56.1204238 L237.364557,48.4675497 Z M366.777246,72.6219338 L366.777246,110.523656 L358.328753,110.523656 L358.328753,37.9350464 C358.328753,34.6555232 361.577418,31.0819603 365.683888,31.0819603 L379.614871,31.0819603 L379.614871,38.0781457 L366.777246,38.0781457 L366.777246,64.8984901 L377.347676,64.8984901 L377.347676,72.6572185 L366.777246,72.6219338 Z M396.751335,31.1015629 L405.619896,31.1015629 L405.619896,60.0135099 L410.629318,65.0670728 L415.530779,60.154649 L415.530779,31.1015629 L424.295305,31.1015629 L424.295305,58.6099603 C424.295305,61.967894 415.638741,70.8184901 415.638741,70.8184901 C415.638741,70.8184901 424.401303,79.6632053 424.401303,83.2465695 L424.401303,110.684397 L416.156957,110.684397 L416.156957,82.117457 L410.83739,76.7169272 L405.513898,82.0468874 L405.513898,110.684397 L396.751335,110.684397 L396.751335,83.3112583 C396.751335,79.9454834 406.032114,70.7479205 406.032114,70.7479205 C406.032114,70.7479205 396.751335,61.9992583 396.751335,58.4727417 L396.751335,31.1015629 Z M105.68271,72.8022781 C108.654601,72.8022781 112.607962,69.234596 112.607962,64.4593907 L112.607962,38.3682649 C112.607962,34.6163179 108.342494,31.1211656 103.490107,31.1211656 L85.4919127,31.1211656 L85.4919127,110.843179 L93.7892588,110.843179 L93.7892588,73.3864371 L96.9201476,73.3864371 L106.151853,110.70204 L114.290201,110.70204 L105.68271,72.8022781 L105.68271,72.8022781 Z M104.03973,65.0043444 L94.0994033,65.0043444 L94.0994033,38.8446093 L104.03973,38.8446093 L104.03973,65.0043444 Z M289.264683,72.5944901 C292.240499,72.5944901 296.195823,69.0209272 296.195823,64.2476821 L296.195823,38.1585166 C296.195823,34.4046093 291.926429,30.9035762 287.077968,30.9035762 L269.081737,30.9035762 L269.081737,110.635391 L277.369268,110.635391 L277.369268,73.1747285 L280.50212,73.1747285 L289.739714,110.486411 L297.876099,110.486411 L289.264683,72.5944901 Z M287.503926,64.7083444 L277.571451,64.7083444 L277.571451,38.5486093 L287.503926,38.5486093 L287.503926,64.7083444 L287.503926,64.7083444 Z M156.956658,74.6802119 C156.921325,71.106649 153.205481,68.8484238 153.205481,68.8484238 C153.205481,68.8484238 156.956658,66.4098543 156.956658,63.018596 L156.956658,38.679947 C156.956658,34.0870464 152.928706,31.0996026 148.822236,31.0996026 L129.883794,31.0996026 L129.883794,110.684397 L148.822236,110.684397 C152.655857,110.684397 156.956658,108.281113 156.956658,103.106013 C156.956658,103.106013 157.001806,78.247894 156.956658,74.6802119 Z M148.429648,102.886464 L138.493247,102.886464 L138.493247,73.2237351 L148.429648,73.2237351 L148.429648,102.886464 L148.429648,102.886464 Z M148.429648,64.986702 L138.493247,64.986702 L138.493247,38.8269669 L148.429648,38.8269669 L148.429648,64.986702 Z M193.229821,30.5115232 L183.368012,30.5115232 C178.397849,30.5115232 174.782114,34.7750993 174.782114,38.0173775 L174.782114,102.653192 C174.782114,106.830517 179.416614,110.619709 183.328753,110.619709 L194.05033,110.619709 C198.239243,110.619709 202.422268,106.281642 202.422268,102.819815 L202.422268,37.7997881 C202.422268,34.8868344 198.47087,30.5115232 193.229821,30.5115232 Z M193.539965,102.404238 L183.94119,102.404238 L183.94119,38.383947 L193.539965,38.383947 L193.539965,102.404238 L193.539965,102.404238 Z M332.443467,31.0819603 L321.49419,31.0819603 C316.559359,31.0819603 313.665986,35.1612715 313.665986,38.3682649 L313.665986,110.523656 L321.959406,110.523656 L321.959406,72.6219338 L332.443467,72.6219338 L332.443467,110.523656 L340.740813,110.523656 L340.740813,38.805404 C340.736888,34.0458808 337.456815,31.0819603 332.443467,31.0819603 Z M332.205952,64.7534305 L322.273477,64.7534305 L322.273477,39.0994437 L332.205952,39.0994437 L332.205952,64.7534305 L332.205952,64.7534305 Z M474.31886,73.3452715 L500,73.3452715 L500,82.9603709 L474.31886,82.9603709 L474.31886,73.3452715 Z" id="Shape"></path>
                <path d="M478.496096,31 C456.127103,31 438,49.1311979 438,71.4980579 C438,93.8668601 456.127103,112 478.496096,112 C500.863137,112 519,93.8668601 519,71.4980579 C519,49.1311979 500.865089,31 478.496096,31 L478.496096,31 Z M464.712392,88.1377434 L451.869596,88.1377434 L451.869596,83.6399012 L456.011929,83.6399012 L456.011929,59.8728062 L451.947679,59.8728062 L451.947679,55.2273665 L460.653998,55.2273665 L460.653998,83.5641604 L464.712392,83.5641604 L464.712392,88.1377434 L464.712392,88.1377434 Z M505.309997,63.859883 L501.181327,63.859883 L501.181327,59.7252086 L475.120933,59.7252086 L475.120933,69.6142467 L502.951873,69.6142467 L505.309997,71.9796921 L505.309997,85.0459624 L502.358437,87.995972 L473.867692,87.995972 L470.91418,85.0459624 L470.91418,58.1055193 L473.65101,55.3710799 L502.805466,55.3710799 L505.309997,57.8821809 L505.309997,63.859883 L505.309997,63.859883 Z" id="Shape"></path>
            </g>
        </g>
    </g>
</svg>