<?xml version="1.0" encoding="UTF-8"?>
<svg width="519px" height="112px" viewBox="0 0 519 112" version="1.1" xmlns="http://www.w3.org/2000/svg" xmlns:xlink="http://www.w3.org/1999/xlink">
    <title>tg16cd</title>
    <g id="Page-1" stroke="none" stroke-width="1" fill="none" fill-rule="evenodd" opacity="0.78">
        <g id="NEC-TurboGrafx-CD" transform="translate(-60.000000, -4.000000)" fill="#FFFFFF" fill-rule="nonzero">
            <g id="tg16cd" transform="translate(60.000000, 4.000000)">
                <path d="M0,0 L25.7036081,0 L25.7036081,7.58034437 L18.1808406,7.58034437 L18.1808406,110.486411 L9.08943744,110.486411 L9.08943744,7.58034437 L0,7.58034437 L0,0 Z M48.9893944,102.955073 L59.0223721,102.955073 L59.0223721,30.8584901 L67.7972961,30.8584901 L67.7972961,102.955073 C67.7972961,107.622464 63.5690565,110.92551 59.2307372,110.92551 L48.9893944,110.92551 C44.4053615,110.92551 40.3166872,107.189245 40.3166872,102.86098 L40.3166872,30.8584901 L48.9893944,30.8584901 L48.9893944,102.955073 Z M237.699404,48.4675497 L251.099641,48.4675497 L251.099641,111 L232.213111,111 C228.175545,111 223.202301,107.898861 223.202301,103.200106 L223.202301,8.67613245 C223.202301,4.70463576 227.353878,0.476344371 232.01654,0.476344371 L242.322751,0.476344371 C246.89499,0.476344371 251.040669,4.66739073 251.040669,8.58596026 L251.040669,30.9780662 L242.008237,30.9780662 L242.008237,8.89764238 L231.743306,8.89764238 L231.743306,103.270675 L242.244123,103.270675 L242.244123,56.1204238 L237.699404,56.1204238 L237.699404,48.4675497 Z M367.294653,72.6219338 L367.294653,110.523656 L358.834242,110.523656 L358.834242,37.9350464 C358.834242,34.6555232 362.08749,31.0819603 366.199753,31.0819603 L380.150388,31.0819603 L380.150388,38.0781457 L367.294653,38.0781457 L367.294653,64.8984901 L377.879995,64.8984901 L377.879995,72.6572185 L367.294653,72.6219338 Z M397.311026,31.1015629 L406.192098,31.1015629 L406.192098,60.0135099 L411.208587,65.0670728 L416.116962,60.154649 L416.116962,31.1015629 L424.893852,31.1015629 L424.893852,58.6099603 C424.893852,61.967894 416.225076,70.8184901 416.225076,70.8184901 C416.225076,70.8184901 425,79.6632053 425,83.2465695 L425,110.684397 L416.744023,110.684397 L416.744023,82.117457 L411.416952,76.7169272 L406.08595,82.0468874 L406.08595,110.684397 L397.311026,110.684397 L397.311026,83.3112583 C397.311026,79.9454834 406.604897,70.7479205 406.604897,70.7479205 C406.604897,70.7479205 397.311026,61.9992583 397.311026,58.4727417 L397.311026,31.1015629 Z M105.831795,72.8022781 C108.807879,72.8022781 112.766816,69.234596 112.766816,64.4593907 L112.766816,38.3682649 C112.766816,34.6163179 108.495331,31.1211656 103.636099,31.1211656 L85.6125149,31.1211656 L85.6125149,110.843179 L93.9215659,110.843179 L93.9215659,73.3864371 L97.0568714,73.3864371 L106.3016,110.70204 L114.451428,110.70204 L105.831795,72.8022781 L105.831795,72.8022781 Z M104.186497,65.0043444 L94.2321479,65.0043444 L94.2321479,38.8446093 L104.186497,38.8446093 L104.186497,65.0043444 Z M289.672744,72.5944901 C292.652759,72.5944901 296.613662,69.0209272 296.613662,64.2476821 L296.613662,38.1585166 C296.613662,34.4046093 292.338245,30.9035762 287.482945,30.9035762 L269.461326,30.9035762 L269.461326,110.635391 L277.760549,110.635391 L277.760549,73.1747285 L280.89782,73.1747285 L290.148446,110.486411 L298.296309,110.486411 L289.672744,72.5944901 Z M287.909503,64.7083444 L277.963017,64.7083444 L277.963017,38.5486093 L287.909503,38.5486093 L287.909503,64.7083444 L287.909503,64.7083444 Z M157.178075,74.6802119 C157.142692,71.106649 153.421605,68.8484238 153.421605,68.8484238 C153.421605,68.8484238 157.178075,66.4098543 157.178075,63.018596 L157.178075,38.679947 C157.178075,34.0870464 153.14444,31.0996026 149.032177,31.0996026 L130.067019,31.0996026 L130.067019,110.684397 L149.032177,110.684397 C152.871207,110.684397 157.178075,108.281113 157.178075,103.106013 C157.178075,103.106013 157.223286,78.247894 157.178075,74.6802119 Z M148.639036,102.886464 L138.688618,102.886464 L138.688618,73.2237351 L148.639036,73.2237351 L148.639036,102.886464 L148.639036,102.886464 Z M148.639036,64.986702 L138.688618,64.986702 L138.688618,38.8269669 L148.639036,38.8269669 L148.639036,64.986702 Z M193.502407,30.5115232 L183.626686,30.5115232 C178.649512,30.5115232 175.028676,34.7750993 175.028676,38.0173775 L175.028676,102.653192 C175.028676,106.830517 179.669715,110.619709 183.587372,110.619709 L194.324074,110.619709 C198.518896,110.619709 202.707822,106.281642 202.707822,102.819815 L202.707822,37.7997881 C202.707822,34.8868344 198.75085,30.5115232 193.502407,30.5115232 Z M193.812989,102.404238 L184.200673,102.404238 L184.200673,38.383947 L193.812989,38.383947 L193.812989,102.404238 L193.812989,102.404238 Z M332.91244,31.0819603 L321.947717,31.0819603 C317.005925,31.0819603 314.10847,35.1612715 314.10847,38.3682649 L314.10847,110.523656 L322.41359,110.523656 L322.41359,72.6219338 L332.91244,72.6219338 L332.91244,110.523656 L341.221491,110.523656 L341.221491,38.805404 C341.21756,34.0458808 337.932861,31.0819603 332.91244,31.0819603 Z M332.67459,64.7534305 L322.728103,64.7534305 L322.728103,39.0994437 L332.67459,39.0994437 L332.67459,64.7534305 L332.67459,64.7534305 Z" id="Shape"></path>
                <path d="M478.5,31 C456.130337,31 438,49.1327338 438,71.4980576 C438,93.8672662 456.134241,112 478.5,112 C500.867711,112 519,93.8672662 519,71.4980576 C519,49.1327338 500.867711,31 478.5,31 Z M476.474024,61.3759712 L472.424024,61.3759712 L472.424024,59.35 L470.4,57.3259712 L454.198048,57.3259712 L454.198048,87.6980576 L470.4,87.6980576 L472.424024,85.6740288 L472.424024,83.65 L476.474024,83.65 L476.474024,87.6980576 L472.424024,91.75 L452.174024,91.75 L450.15,89.7240288 L450.15,55.3 L452.174024,53.2759712 L472.424024,53.2759712 L476.474024,57.3259712 L476.474024,61.3759712 Z M506.848048,87.6980576 L502.8,91.75 L480.524024,91.75 L480.524024,87.6980576 L482.551952,87.6980576 L482.551952,57.3259712 L480.524024,57.3259712 L480.524024,53.2740288 L502.8,53.2740288 L506.848048,57.3259712 L506.848048,87.6980576 Z M486.601952,87.6980576 L502.8,87.6980576 L502.8,57.3259712 L486.601952,57.3259712 L486.601952,87.6980576 Z" id="Shape"></path>
            </g>
        </g>
    </g>
</svg>