<svg viewBox="1 2 599 242" xmlns="http://www.w3.org/2000/svg">
    <path style="fill-opacity:1;fill:#fff" d="M220.698 219.519c-6.381-1.626-33.357-2.538-68.1-2.307l-26.511.174-.192-1.668c-.171-1.494.129-1.776 2.877-2.697 4.311-1.443 8.445-4.236 9.984-6.747 2.316-3.783 2.697-9.045 3.069-42.402.366-32.964 0-41.082-1.989-44.142-1.662-2.562-5.058-4.638-9.312-5.697-4.095-1.017-5.799-2.388-5.205-4.185.189-.57 9.045-.765 36.729-.807 38.514-.06 50.958-.645 58.212-2.745 2.334-.675 4.623-1.083 5.088-.903 1.269.492 1.512 2.916 1.974 19.818l.426 15.486-1.494.402c-3.306.891-3.513.678-8.043-8.328-5.832-11.583-8.166-14.745-12.501-16.917-3.36-1.683-3.684-1.722-14.676-1.722-10.536 0-11.382.09-13.476 1.404-1.23.768-2.583 2.175-3.012 3.12-1.269 2.811-2.055 12.462-1.83 22.551.18 8.148.384 9.744 1.488 11.646 2.142 3.684 3.834 3.933 21.381 3.141 16.917-.765 17.001-.75 16.983 3.075-.018 4.2.195 4.143-12.579 3.327-19.965-1.275-22.722-.942-25.677 3.123-1.641 2.262-2.529 13.881-2.181 28.572.372 15.858 1.254 17.37 10.674 18.3 5.814.576 17.211-.615 20.673-2.16 5.424-2.418 9.93-8.127 19.815-25.11 3.279-5.634 3.966-6.453 5.418-6.444 3.474.015 4.476.639 4.476 2.775 0 2.025-5.385 37.143-5.919 38.61-.354.972-.747.939-6.57-.543Zm-112.098-.987c-4.908-1.521-5.475-1.554-32.472-1.854-15.114-.168-37.734-.066-50.271.228-12.96.303-23.289.297-23.943-.018-1.914-.918-.807-3.087 6.006-11.754a5301.61 5301.61 0 0 0 14.814-18.975c10.065-12.96 16.545-20.955 31.575-38.982 17.184-20.607 24.006-29.466 24.006-31.182 0-2.628-1.65-2.928-13.623-2.481-20.484.765-24.333 1.617-29.364 6.507-2.61 2.538-6.273 7.998-11.46 17.091-3.099 5.433-3.6 6-5.436 6.183-2.904.288-3.831-.744-3.489-3.882.75-6.87 2.166-22.08 2.52-27.054.303-4.254.627-5.643 1.392-5.937.549-.213 2.841.159 5.094.825 3.849 1.14 6.759 1.221 48.744 1.365 24.558.084 45.003.156 45.432.162.456.006.78.825.78 1.968 0 1.605-1.665 3.957-9.21 13.011-13.02 15.615-32.196 39.156-35.754 43.878-.858 1.143-5.238 6.855-9.732 12.693-15.699 20.403-20.241 26.835-20.241 28.662 0 2.391 1.977 2.613 19.947 2.214 18.891-.42 21.615-.78 27.309-3.588 6.252-3.087 12.096-10.689 19.131-24.888 1.209-2.445 2.649-4.818 3.195-5.277 1.032-.864 5.079-.57 6.081.441.285.288.12 3.909-.369 8.049s-1.359 12.342-1.932 18.228c-1.347 13.809-1.683 15.708-2.814 15.822-.507.051-3.168-.603-5.916-1.455Zm221.382.744c-4.545-1.137-25.458-1.731-63.813-1.818l-30.798-.072-.195-1.725c-.159-1.392.144-1.866 1.56-2.451 6.132-2.523 8.271-3.876 9.912-6.261 3.036-4.419 3.342-7.74 3.795-41.505.6-44.391.486-44.919-10.854-50.622-4.02-2.022-4.53-2.478-4.53-4.056v-1.779l30.756.054 30.756.057v1.851c0 1.674-.348 1.986-3.651 3.276-8.493 3.318-11.028 7.128-12.294 18.48-1.026 9.216-1.527 64.449-.633 69.753 1.38 8.169 3.801 9.576 16.464 9.576 15.669 0 20.865-2.664 28.839-14.793 3.039-4.623 4.74-7.59 8.847-15.426 2.145-4.098 3.444-5.022 6.183-4.398 1.236.279 2.376.642 2.539.804.324.327-.46 5.34-3.811 24.372-3.231 18.369-2.961 17.295-4.389 17.427-.687.063-2.793-.27-4.683-.744Zm14.415-1.575c-.936-.645-1.233-2.532-.497-3.186.416-.372 2.444-1.599 4.506-2.727 3.317-1.812 3.978-2.511 5.754-6.093 2.751-5.55 3.297-12.51 3.297-42.204.003-27.141-.675-38.52-2.511-42.15-1.512-2.991-4.494-5.337-8.485-6.675-3.981-1.338-4.614-1.896-4.614-4.071v-1.812l25.45-.132c67.284-.348 70.503-.297 76.887 1.23 13.866 3.312 23.082 10.293 28.896 21.882 6.108 12.177 6.48 35.352.84 52.254-4.602 13.8-14.799 25.464-26.421 30.225-9.015 3.693-9.567 3.729-58.092 3.753-24.504.012-44.757-.12-45.01-.294Zm73.828-5.682c4.218-1.32 9.153-4.407 12.591-7.875 5.226-5.265 9.87-15.984 11.862-27.366 1.413-8.061.924-29.814-.84-37.461-2.943-12.771-9.75-21.846-18.642-24.858-7.842-2.658-24.48-2.292-30.228.663-2.388 1.23-4.281 4.05-5.142 7.665-.741 3.105-.597 79.872.153 82.668.687 2.547 2.901 5.154 5.547 6.525 4.146 2.151 17.892 2.175 24.699.039Zm42.93 3.873c-.912-1.644.384-3.057 4.077-4.449 10.521-3.969 13.668-7.311 21.972-23.331 2.424-4.677 6.984-13.458 10.134-19.518 7.665-14.745 13.353-26.622 18.39-38.406 2.295-5.367 4.443-10.326 4.776-11.019.333-.69 1.38-3.384 2.328-5.979l1.722-4.722 12.156-.387c8.655-.273 12.378-.18 12.927.327.423.393 1.749 4.32 2.949 8.727 7.62 28.032 27.156 79.995 33.054 87.918 2.121 2.847 5.886 5.292 9.813 6.369 3.399.933 4.032 1.65 3.465 3.921l-.351 1.413h-62.19v-1.572c0-1.332.762-1.968 4.974-4.137 5.418-2.793 7.194-4.854 7.2-8.352.006-4.173-4.314-19.332-6.342-22.251-2.022-2.913-4.548-3.348-19.26-3.318-21.057.045-22.683.915-26.913 14.37-3.597 11.451-2.97 14.964 3.249 18.138 1.854.945 4.296 2.055 5.43 2.466 1.806.651 2.04.99 1.875 2.7l-.189 1.956-22.347.063c-19.71.054-22.413-.057-22.899-.93Zm73.281-44.13c2.619-.87 3.777-2.973 3.177-5.769-.489-2.295-9.279-28.782-11.514-34.704-2.127-5.64-4.011-4.893-7.593 3.021-4.932 10.887-13.668 32.931-13.668 34.485 0 2.121 1.716 3.147 5.997 3.585 5.955.612 21.105.213 23.601-.618Zm-273.643-70.275c-.876-.684-2.034-2.529-2.571-4.098-.837-2.439-.861-3.207-.153-5.241 1.701-4.899 4.578-8.646 13.053-16.98l8.709-8.565 1.614-7.161c2.34-10.392 1.557-11.259-4.875-5.385-8.367 7.641-9.744 8.475-13.107 7.941-1.761-.279-2.568-.111-3.21.66-.471.57-2.919 1.968-5.442 3.111-6.678 3.027-9.783 2.775-15.411-1.248-1.527-1.095-1.701-1.098-3.666-.078-7.674 3.981-11.157 5.472-13.353 5.721-6.894.78-10.077-4.815-7.548-13.266.504-1.692 5.67-12.465 11.475-23.94 5.805-11.478 11.379-22.689 12.384-24.915 2.853-6.306 4.128-7.359 4.953-4.092.297 1.179-2.472 7.269-12.105 26.637-15.81 31.782-16.659 34.251-11.904 34.644 1.719.144 3.603-.501 7.71-2.634 8.229-4.275 9.456-5.379 10.263-9.234.375-1.8.87-4.65 1.095-6.336.324-2.415.933-3.609 2.862-5.607 1.35-1.398 3.39-3.867 4.533-5.49 4.725-6.693 12.093-13.245 15.555-13.83 2.592-.438 3.963.495 5.262 3.585 2.52 5.985-.366 14.037-7.677 21.423-4.416 4.461-10.671 8.28-13.563 8.28-1.269 0-1.911.555-2.931 2.538-1.539 2.997-1.023 4.062 2.268 4.674 2.991.558 8.04-.762 12.918-3.378 3.555-1.908 4.299-2.604 4.986-4.671 2.556-7.692 19.374-24.768 25.821-26.214 1.341-.303 2.094-.036 3.294 1.152 1.92 1.908 1.995 4.263.186 5.934-1.263 1.17-1.452 1.188-2.484.261-1.035-.93-1.323-.9-3.81.375-3.309 1.698-12.414 10.503-12.414 12.003 0 1.635.804 1.356 4.167-1.437 1.677-1.395 3.852-2.955 4.83-3.471 1.599-.843 1.896-.84 2.877.042 2.001 1.797 2.4 4.611 1.455 10.218-1.197 7.101-.465 8.571 2.697 5.427 1.182-1.17 1.542-2.187 1.542-4.338 0-6.189 5.043-16.782 11.256-23.649 2.568-2.838 7.281-5.991 8.952-5.991 1.722 0 3.759 3.651 3.3 5.916a81.673 81.673 0 0 0-.642 3.735c-.753 5.361-2.397 8.526-7.215 13.899-2.67 2.979-6.339 6.765-8.151 8.418-3.006 2.736-3.207 3.087-2.301 3.984 1.236 1.23 3.219.528 9.228-3.267 7.647-4.83 18.363-15.261 21.255-20.694 1.497-2.805 3.84-.978 3.84 2.988 0 1.092-1.125 4.503-2.505 7.584-2.436 5.454-2.631 6.714-1.041 6.714.96 0 5.01-4.176 11.328-11.682 6.339-7.527 7.894-8.367 8.806-4.761.308 1.23-.352 3.189-2.677 7.947-3.753 7.677-4.32 9.129-5.433 13.842-.759 3.219-.75 3.87.069 5.127 1.128 1.722.912 4.167-.366 4.167-.504 0-1.59-.981-2.412-2.181-1.326-1.929-1.464-2.7-1.218-6.696.255-4.122.177-4.515-.915-4.515-.657 0-3.474 2.241-6.258 4.983-5.565 5.472-7.179 6.072-8.982 3.339-1.065-1.614-1.065-4.602 0-7.227.288-.708.105-1.215-.528-1.455-.615-.234-2.763 1.08-5.898 3.615-5.817 4.701-11.223 7.896-14.166 8.37-1.755.285-2.505 0-4.419-1.668l-2.307-2.01-2.361 1.623c-4.95 3.408-6.834 5.988-8.466 11.61-4.32 14.88-11.406 26.163-16.428 26.163-1.119 0-2.754-.558-3.63-1.245Zm6.651-6.864c2.298-2.541 8.577-13.644 8.577-15.171 0-.216-.648-.393-1.44-.393-2.874 0-12.894 13.035-12.969 16.872-.06 2.916 2.532 2.334 5.832-1.308Zm35.253-47.49c4.497-4.569 6.945-8.58 7.314-11.991.168-1.566-.042-1.905-1.293-2.079-2.214-.312-7.812 5.835-10.491 11.52-2.142 4.539-2.487 5.883-1.713 6.651.909.903 1.905.243 6.183-4.101Zm-52.53.771c6.147-2.949 12.909-11.163 14.226-17.28.426-1.98.387-2.025-1.755-2.025-3.57 0-9.156 4.878-14.406 12.576-3.378 4.95-4.047 6.684-2.862 7.428 1.248.786 1.902.69 4.797-.699ZM404.992 95.31c-1.734-1.902-1.02-3.894 1.986-5.538 3.669-2.004 12.327-10.221 15.189-14.412 2.634-3.855 5.691-9.66 7.542-14.328 1.155-2.907 1.164-3.141.147-4.305-2.235-2.565-3.492-2.262-6.696 1.605-4.041 4.884-10.179 9.99-13.062 10.869-2.082.636-2.58.573-4.038-.51-3.429-2.541-4.254-4.329-4.221-9.147.024-3.603.414-5.343 2.013-8.991 2.229-5.085 4.86-9.171 8.412-13.062 1.323-1.449 2.403-2.88 2.403-3.18 0-.3.693-1.287 1.539-2.193 1.152-1.233 2.148-1.65 3.954-1.65 2.823 0 3.918.873 3.918 3.117 0 .891.267 1.884.597 2.211 1.008 1.002 2.541 7.839 2.541 11.331 0 3.819.717 4.41 4.275 3.525l2.256-.558 2.61-8.724c7.122-23.787 13.878-34.053 23.334-35.442 3.228-.477 5.967.942 5.667 2.934-.147.99-1.161 1.515-4.785 2.478-3.861 1.026-5.07 1.692-7.53 4.14-1.611 1.605-4.275 5.283-5.919 8.175-3.42 6.018-8.901 21.765-8.265 23.754.432 1.347.615 1.35 8.244.141 2.499-.396 2.658-.327 3.072 1.317.564 2.232-.552 3.066-6.336 4.719-7.569 2.163-8.115 2.532-9.735 6.573-2.229 5.571-7.887 16.746-10.134 20.022-3.39 4.938-15.705 16.323-17.661 16.323-.126 0-.72-.537-1.317-1.194Zm8.424-34.317c7.08-4.776 10.674-10.629 10.653-17.358-.018-6.147-3.396-8.256-6.678-4.17-.981 1.221-2.064 2.217-2.409 2.217-1.074 0-4.236 4.41-7.038 9.819-2.184 4.212-2.685 5.811-2.685 8.532 0 4.935 1.926 5.16 8.157.96Zm-269.419 8.583c-.537-.759-.978-1.89-.978-2.508 0-2.136 7.329-15.963 19.233-36.288 7.245-12.366 7.386-13.605 1.35-11.865-3.729 1.077-3.657 1.005-9.738 9.996-3.354 4.962-20.001 32.304-22.938 37.68-1.083 1.98-1.152 2.007-2.352.93-2.502-2.25-2.658-1.935 14.52-29.073 10.167-16.059 10.47-16.611 9.495-17.22-.432-.267-2.832-.249-5.334.045-5.832.684-10.821 1.02-17.058 1.155-4.839.105-5.028.054-6.726-1.836-2.457-2.73-1.827-4.074 1.596-3.402 4.023.792 20.829.552 26.631-.378 3.636-.585 5.748-1.272 6.924-2.256 1.305-1.092 1.956-1.272 2.829-.789 1.326.738 5.775.186 8.877-1.101 1.68-.696 2.607-1.77 4.125-4.785 3.66-7.266 5.46-7.881 3.651-1.251-.642 2.346-1.008 5.184-.825 6.396.285 1.902.099 2.307-1.44 3.174-.969.546-2.328 2.088-3.018 3.426s-3.03 5.652-5.202 9.588c-2.169 3.933-4.098 7.758-4.284 8.496-.648 2.553.984 2.139 4.287-1.092 1.824-1.785 4.548-4.332 6.057-5.661 2.577-2.274 2.805-2.358 3.885-1.389 2.16 1.941 2.028 3.981-.675 10.566l-2.553 6.222 1.752 1.398c.963.768 1.92 1.398 2.127 1.401.207.003 1.236-1.371 2.289-3.051 6.261-9.999 15.249-20.022 18.735-20.892 2.118-.528 4.383 1.449 5.259 4.587 2.712 9.687-3.933 18.753-19.467 26.562-5.373 2.7-5.697 3.027-5.475 5.568.162 1.836.234 1.872 4.065 2.055 3.417.162 4.476-.096 8.58-2.082 2.577-1.248 5.169-2.802 5.766-3.456 1.374-1.509 1.932-1.497 2.769.057.738 1.368-.021 3.387-1.827 4.86-2.202 1.797-13.017 6.459-15.72 6.78-4.062.477-6.531-1.602-7.614-6.408-.522-2.304-1.287-3.843-2.322-4.65-3.063-2.391-4.887-1.146-6.444 4.401-1.041 3.702-1.689 4.356-2.814 2.841-1.818-2.445-1.02-5.448 5.4-20.331 1.71-3.966 3.111-7.68 3.111-8.253 0-2.28-2.784-1.059-6.576 2.883-3.6 3.747-5.898 7.092-10.932 15.909-3.231 5.658-3.237 5.67-6.249 10.254-1.506 2.295-2.973 4.173-3.258 4.173-.285 0-.957-.624-1.494-1.386Zm48.648-23.328c4.224-2.991 7.902-7.212 8.67-9.951 1.05-3.762.888-4.581-.906-4.581-2.019 0-6.171 3.768-10.572 9.591-4.965 6.573-5.277 7.155-4.215 7.812 1.104.681 3.228-.186 7.023-2.871ZM345.69 66.189c-2.733-3.453-2.517-6.564.961-13.773 1.898-3.933 3.435-5.901 8.385-10.734 6.654-6.498 10.515-8.811 14.937-8.946l2.883-.087 2.355-4.32c1.296-2.376 3.222-6.72 4.281-9.657 2.514-6.963 6.51-14.628 7.755-14.871.543-.108 1.299.381 1.677 1.086.867 1.608-2.151 12.372-5.409 19.29-2.499 5.304-8.901 16.635-12.69 22.455-2.664 4.092-4.659 9.396-4.089 10.872.495 1.275 3.159 2.244 6.177 2.244 3.198 0 9.828-1.938 12.756-3.726 2.538-1.554 3.276-1.581 3.276-.12 0 2.457-6.411 6.579-12.369 7.95-5.526 1.272-7.914.774-10.962-2.28-1.341-1.347-2.733-2.445-3.093-2.445-.363 0-2.542 1.644-4.839 3.654-4.893 4.281-6.259 5.067-8.799 5.067-1.288 0-2.293-.522-3.193-1.659Zm7.051-5.859c4.965-3.267 11.808-11.097 14.028-16.053 1.611-3.594 1.824-4.539 1.146-5.097-2.04-1.683-10.665 5.187-15.783 12.576-3.946 5.691-5.284 9.045-3.946 9.885 1.3.819 1.33.81 4.555-1.311Z"/>
    <path style="fill-opacity:1;stroke:none;fill:#fff" transform="translate(61.673 -430.227)" d="M-59.706 513.062H194.16v2.502H-59.706zm283.614 0h116.895v2.502H223.908zm142.852 0h171.567v2.502H366.76z"/>
    <path style="fill-opacity:1;stroke:none;fill:#fff" d="M1.965 241.167H597.97v2.502H1.965z"/>
</svg>
