<svg viewBox="1 72 497 126" xmlns="http://www.w3.org/2000/svg" xmlns:xlink="http://www.w3.org/1999/xlink">
    <defs>
        <clipPath clipPathUnits="userSpaceOnUse" id="b">
            <use xlink:href="#a" width="100%" height="100%"/>
        </clipPath>
    </defs>
    <path style="opacity:1;fill:#fff;fill-opacity:1;fill-rule:nonzero;stroke:none;stroke-width:2.80646539;stroke-linecap:round;stroke-linejoin:miter;stroke-miterlimit:4;stroke-dasharray:none;stroke-opacity:1;paint-order:stroke fill markers" d="M30.59 71.697V85.23h13.53V71.697zm2.682 2.67h8.162v8.21h-8.162z"/>
    <path style="color:#000;font-style:normal;font-variant:normal;font-weight:400;font-stretch:normal;font-size:medium;line-height:normal;font-family:sans-serif;font-variant-ligatures:normal;font-variant-position:normal;font-variant-caps:normal;font-variant-numeric:normal;font-variant-alternates:normal;font-feature-settings:normal;text-indent:0;text-align:start;text-decoration:none;text-decoration-line:none;text-decoration-style:solid;text-decoration-color:#000;letter-spacing:normal;word-spacing:normal;text-transform:none;writing-mode:lr-tb;direction:ltr;text-orientation:mixed;dominant-baseline:auto;baseline-shift:baseline;text-anchor:start;white-space:normal;shape-padding:0;clip-rule:nonzero;display:inline;overflow:visible;visibility:visible;opacity:1;isolation:auto;mix-blend-mode:normal;color-interpolation:sRGB;color-interpolation-filters:linearRGB;solid-color:#000;solid-opacity:1;vector-effect:none;fill:#fff;fill-opacity:1;fill-rule:nonzero;stroke:none;stroke-width:2.66693449;stroke-linecap:round;stroke-linejoin:miter;stroke-miterlimit:4;stroke-dasharray:none;stroke-dashoffset:0;stroke-opacity:1;paint-order:stroke fill markers;color-rendering:auto;image-rendering:auto;shape-rendering:auto;text-rendering:auto;enable-background:accumulate" d="M45.423 85.229h13.688v-1.326c0-6.726-5.544-12.206-12.346-12.206h-1.342v1.325zm2.683-2.651v-8.21c4.227.602 7.553 4.03 8.162 8.21z"/>
    <path style="opacity:1;fill:#fff;fill-opacity:1;fill-rule:nonzero;stroke:none;stroke-width:2.80646539;stroke-linecap:round;stroke-linejoin:miter;stroke-miterlimit:4;stroke-dasharray:none;stroke-opacity:1;paint-order:stroke fill markers" d="M30.59 100.063V86.531h13.53v13.532zm2.682-2.67h8.162v-8.21h-8.162z"/>
    <path style="color:#000;font-style:normal;font-variant:normal;font-weight:400;font-stretch:normal;font-size:medium;line-height:normal;font-family:sans-serif;font-variant-ligatures:normal;font-variant-position:normal;font-variant-caps:normal;font-variant-numeric:normal;font-variant-alternates:normal;font-feature-settings:normal;text-indent:0;text-align:start;text-decoration:none;text-decoration-line:none;text-decoration-style:solid;text-decoration-color:#000;letter-spacing:normal;word-spacing:normal;text-transform:none;writing-mode:lr-tb;direction:ltr;text-orientation:mixed;dominant-baseline:auto;baseline-shift:baseline;text-anchor:start;white-space:normal;shape-padding:0;clip-rule:nonzero;display:inline;overflow:visible;visibility:visible;opacity:1;isolation:auto;mix-blend-mode:normal;color-interpolation:sRGB;color-interpolation-filters:linearRGB;solid-color:#000;solid-opacity:1;vector-effect:none;fill:#fff;fill-opacity:1;fill-rule:nonzero;stroke:none;stroke-width:2.66693449;stroke-linecap:round;stroke-linejoin:miter;stroke-miterlimit:4;stroke-dasharray:none;stroke-dashoffset:0;stroke-opacity:1;paint-order:stroke fill markers;color-rendering:auto;image-rendering:auto;shape-rendering:auto;text-rendering:auto;enable-background:accumulate" d="M45.423 86.532h13.688v1.326c0 6.726-5.544 12.205-12.346 12.205h-1.342v-1.325zm2.683 2.65v8.21c4.227-.602 7.553-4.03 8.162-8.21z"/>
    <path style="opacity:1;fill:#fff;fill-opacity:1;fill-rule:nonzero;stroke:none;stroke-width:2.80646539;stroke-linecap:round;stroke-linejoin:miter;stroke-miterlimit:4;stroke-dasharray:none;stroke-opacity:1;paint-order:stroke fill markers" d="M15.755 71.697V85.23h13.532V71.697zm2.683 2.67H26.6v8.21h-8.162zm-2.683 25.696V86.531h13.532v13.532zm2.683-2.67H26.6v-8.21h-8.162z"/>
    <path style="color:#000;font-style:normal;font-variant:normal;font-weight:400;font-stretch:normal;font-size:medium;line-height:normal;font-family:sans-serif;font-variant-ligatures:normal;font-variant-position:normal;font-variant-caps:normal;font-variant-numeric:normal;font-variant-alternates:normal;font-feature-settings:normal;text-indent:0;text-align:start;text-decoration:none;text-decoration-line:none;text-decoration-style:solid;text-decoration-color:#000;letter-spacing:normal;word-spacing:normal;text-transform:none;writing-mode:lr-tb;direction:ltr;text-orientation:mixed;dominant-baseline:auto;baseline-shift:baseline;text-anchor:start;white-space:normal;shape-padding:0;clip-rule:nonzero;display:inline;overflow:visible;visibility:visible;opacity:1;isolation:auto;mix-blend-mode:normal;color-interpolation:sRGB;color-interpolation-filters:linearRGB;solid-color:#000;solid-opacity:1;vector-effect:none;fill:#fff;fill-opacity:1;fill-rule:nonzero;stroke:none;stroke-width:2.66693449;stroke-linecap:round;stroke-linejoin:miter;stroke-miterlimit:4;stroke-dasharray:none;stroke-dashoffset:0;stroke-opacity:1;paint-order:stroke fill markers;color-rendering:auto;image-rendering:auto;shape-rendering:auto;text-rendering:auto;enable-background:accumulate" d="M14.453 85.229H.765v-1.326c0-6.726 5.544-12.206 12.346-12.206h1.342v1.325zm-2.683-2.651v-8.21c-4.227.602-7.554 4.03-8.162 8.21z"/>
    <path style="opacity:1;fill:#fff;fill-opacity:1;fill-rule:nonzero;stroke:none;stroke-width:2.80646539;stroke-linecap:round;stroke-linejoin:miter;stroke-miterlimit:4;stroke-dasharray:none;stroke-opacity:1;paint-order:stroke fill markers" d="M.921 100.063V86.532h13.532v13.531Zm2.683-2.67h8.162v-8.21H3.604Zm12.151 17.505v-13.532h13.532v13.532zm2.683-2.67H26.6v-8.21h-8.162zm-17.517 2.67v-13.532h13.532v13.532zm2.683-2.67h8.162v-8.21H3.604Zm26.986 17.504V116.2h13.53v13.532zm2.682-2.67h8.162v-8.21h-8.162z"/>
    <path style="color:#000;font-style:normal;font-variant:normal;font-weight:400;font-stretch:normal;font-size:medium;line-height:normal;font-family:sans-serif;font-variant-ligatures:normal;font-variant-position:normal;font-variant-caps:normal;font-variant-numeric:normal;font-variant-alternates:normal;font-feature-settings:normal;text-indent:0;text-align:start;text-decoration:none;text-decoration-line:none;text-decoration-style:solid;text-decoration-color:#000;letter-spacing:normal;word-spacing:normal;text-transform:none;writing-mode:lr-tb;direction:ltr;text-orientation:mixed;dominant-baseline:auto;baseline-shift:baseline;text-anchor:start;white-space:normal;shape-padding:0;clip-rule:nonzero;display:inline;overflow:visible;visibility:visible;opacity:1;isolation:auto;mix-blend-mode:normal;color-interpolation:sRGB;color-interpolation-filters:linearRGB;solid-color:#000;solid-opacity:1;vector-effect:none;fill:#fff;fill-opacity:1;fill-rule:nonzero;stroke:none;stroke-width:2.66693449;stroke-linecap:round;stroke-linejoin:miter;stroke-miterlimit:4;stroke-dasharray:none;stroke-dashoffset:0;stroke-opacity:1;paint-order:stroke fill markers;color-rendering:auto;image-rendering:auto;shape-rendering:auto;text-rendering:auto;enable-background:accumulate" d="M45.423 116.2h13.688v1.327c0 6.725-5.544 12.205-12.346 12.205h-1.342v-1.325zm2.683 2.651v8.21c4.227-.602 7.553-4.03 8.162-8.21z"/>
    <path style="opacity:1;fill:#fff;fill-opacity:1;fill-rule:nonzero;stroke:none;stroke-width:2.80646539;stroke-linecap:round;stroke-linejoin:miter;stroke-miterlimit:4;stroke-dasharray:none;stroke-opacity:1;paint-order:stroke fill markers" d="M15.755 129.732V116.2h13.532v13.532zm2.683-2.67H26.6v-8.21h-8.162z"/>
    <path style="color:#000;font-style:normal;font-variant:normal;font-weight:400;font-stretch:normal;font-size:medium;line-height:normal;font-family:sans-serif;font-variant-ligatures:normal;font-variant-position:normal;font-variant-caps:normal;font-variant-numeric:normal;font-variant-alternates:normal;font-feature-settings:normal;text-indent:0;text-align:start;text-decoration:none;text-decoration-line:none;text-decoration-style:solid;text-decoration-color:#000;letter-spacing:normal;word-spacing:normal;text-transform:none;writing-mode:lr-tb;direction:ltr;text-orientation:mixed;dominant-baseline:auto;baseline-shift:baseline;text-anchor:start;white-space:normal;shape-padding:0;clip-rule:nonzero;display:inline;overflow:visible;visibility:visible;opacity:1;isolation:auto;mix-blend-mode:normal;color-interpolation:sRGB;color-interpolation-filters:linearRGB;solid-color:#000;solid-opacity:1;vector-effect:none;fill:#fff;fill-opacity:1;fill-rule:nonzero;stroke:none;stroke-width:2.66693449;stroke-linecap:round;stroke-linejoin:miter;stroke-miterlimit:4;stroke-dasharray:none;stroke-dashoffset:0;stroke-opacity:1;paint-order:stroke fill markers;color-rendering:auto;image-rendering:auto;shape-rendering:auto;text-rendering:auto;enable-background:accumulate" d="M14.453 116.2H.765v1.327c0 6.725 5.544 12.205 12.346 12.205h1.342v-1.325zm-2.683 2.651v8.21c-4.227-.602-7.554-4.03-8.162-8.21z"/>
    <g clip-path="url(#b)" style="fill:#fff;stroke:none" transform="translate(713.355 -410.069) scale(5.18894)">
        <g style="fill:#fff;stroke:none" id="a">
            <path style="font-style:normal;font-variant:normal;font-weight:400;font-stretch:normal;font-size:medium;line-height:1.25;font-family:Eurostile;-inkscape-font-specification:Eurostile;letter-spacing:0;word-spacing:0;fill:#fff;fill-opacity:1;stroke:none;stroke-width:.35733205;stroke-miterlimit:4;stroke-dasharray:none;stroke-opacity:1" d="M-146.652 109.06v4.304h-1.165v-4.304h-1.771v-.881h4.77v.881zm4.978-.927q1.673 0 2.154.471.48.468.48 2.097 0 1.782-.485 2.245-.48.464-2.338.464-1.673 0-2.163-.456-.49-.46-.49-2.017 0-1.854.481-2.329.481-.475 2.36-.475zm-.09.844q-1.174 0-1.372.254-.197.255-.197 1.763 0 1.116.229 1.344.234.228 1.367.228 1.084 0 1.3-.254.215-.259.215-1.558 0-1.303-.207-1.538-.202-.24-1.335-.24zm7.226 3.392h-2.649l-.382.995h-1.232l2.042-5.185h1.749l2.073 5.185h-1.21zm-.27-.726-1.061-2.7-1.043 2.7zm2.401 1.721v-5.185h2.779q1.246 0 1.678.368.436.365.436 1.413 0 1.041-.414 1.383-.414.342-1.673.342l-.27.004h-1.371v1.675zm1.165-2.503h1.327q.791 0 1.002-.152.216-.156.216-.73 0-.657-.18-.812-.175-.16-.922-.16h-1.443zm5.63-2.682v4.304h2.878v.881h-4.043v-5.185zm7.83 4.19h-2.649l-.382.995h-1.232l2.042-5.185h1.749l2.073 5.185h-1.21zm-.27-.726-1.061-2.7-1.043 2.7zm8.389-3.464v5.185h-1.974l-1.753-2.845q-.13-.213-.41-.745l-.198-.372-.193-.372h-.045l.018.342.014.338.009.68v2.974h-1.165v-5.185h1.974l1.596 2.629q.212.349.49.847l.234.421.234.426h.04l-.013-.335-.013-.334-.01-.668v-2.986z" transform="translate(186.003 -131.992) scale(2.07943)"/>
        </g>
    </g>
    <path d="M17.459 196.786c-1.484.693-3.008 1.038-4.576 1.038-1.512 0-2.922-.277-4.232-.831a10.663 10.663 0 0 1-3.399-2.253A10.285 10.285 0 0 1 3 191.362c-.546-1.304-.816-2.708-.816-4.21 0-1.501.278-2.91.831-4.225.556-1.313 1.31-2.445 2.267-3.393.957-.949 2.089-1.7 3.4-2.253a10.687 10.687 0 0 1 4.202-.831c1.605 0 3.165.352 4.675 1.053 1.512.702 2.736 1.644 3.672 2.831l-2.81 2.874c-.708-.91-1.541-1.605-2.496-2.09a6.656 6.656 0 0 0-3.04-.726c-.9 0-1.747.174-2.54.52a6.222 6.222 0 0 0-2.05 1.423 6.588 6.588 0 0 0-1.35 2.135c-.326.819-.488 1.714-.488 2.683 0 .949.17 1.833.502 2.652a6.46 6.46 0 0 0 1.379 2.119 6.475 6.475 0 0 0 2.066 1.41 6.42 6.42 0 0 0 2.594.518 6.598 6.598 0 0 0 2.956-.68c.918-.455 1.73-1.108 2.438-1.957L21.115 194c-.956 1.167-2.174 2.095-3.656 2.786zm53.971.237c-1.3.554-2.697.83-4.189.83a10.5 10.5 0 0 1-4.16-.83 10.412 10.412 0 0 1-3.37-2.269 10.704 10.704 0 0 1-2.25-3.409 10.653 10.653 0 0 1-.834-4.193c0-1.483.278-2.88.833-4.195a10.716 10.716 0 0 1 2.251-3.409 10.406 10.406 0 0 1 3.37-2.267c1.3-.554 2.687-.832 4.16-.832 1.492 0 2.889.278 4.19.832 1.3.553 2.423 1.308 3.37 2.267a10.728 10.728 0 0 1 2.252 3.41 10.69 10.69 0 0 1 .832 4.194c0 1.481-.278 2.88-.832 4.193a10.749 10.749 0 0 1-2.253 3.41 10.412 10.412 0 0 1-3.37 2.268zm-4.189-3.112a6.095 6.095 0 0 1-2.51-.519 6.17 6.17 0 0 1-2.008-1.424 6.66 6.66 0 0 1-1.333-2.15 7.233 7.233 0 0 1-.487-2.666c0-.97.163-1.864.487-2.683.325-.82.77-1.533 1.333-2.135a6.15 6.15 0 0 1 4.518-1.943c.9 0 1.74.173 2.525.521a6.104 6.104 0 0 1 2.022 1.422 6.713 6.713 0 0 1 1.333 2.135c.326.819.488 1.714.488 2.683 0 .949-.163 1.837-.488 2.666a6.653 6.653 0 0 1-1.333 2.15 6.194 6.194 0 0 1-4.547 1.942zm63.051-.18v3.796h-15.146v-20.75h4.16v16.955zm52.437 3.796v-3.795h-10.987v-16.955h-4.158v20.75zm52.84-3.736v3.736H220.02v-20.75h15.433v3.734H224.18v4.742h7.43v3.617h-7.43v4.921zm46.127 4.033c1.567 0 3.092-.345 4.575-1.04 1.482-.69 2.702-1.618 3.656-2.785l-2.724-2.786c-.707.85-1.52 1.502-2.438 1.957a6.596 6.596 0 0 1-2.954.68 6.436 6.436 0 0 1-2.597-.518 6.461 6.461 0 0 1-2.065-1.41 6.41 6.41 0 0 1-1.377-2.118 6.928 6.928 0 0 1-.502-2.652c0-.97.163-1.864.487-2.683a6.577 6.577 0 0 1 1.348-2.136 6.227 6.227 0 0 1 2.051-1.421 6.298 6.298 0 0 1 2.539-.522c1.07 0 2.084.244 3.04.726.957.486 1.789 1.181 2.496 2.09l2.81-2.873c-.935-1.187-2.16-2.13-3.67-2.831-1.512-.702-3.07-1.054-4.676-1.054a10.68 10.68 0 0 0-4.203.832 10.686 10.686 0 0 0-3.399 2.253c-.956.948-1.712 2.08-2.265 3.392-.556 1.315-.834 2.724-.834 4.226 0 1.502.274 2.905.819 4.21a10.27 10.27 0 0 0 2.25 3.378c.957.948 2.091 1.7 3.4 2.253 1.31.553 2.721.831 4.232.831zm55.018-17.254v16.957h-4.16V180.57h-6.769v-3.793h17.671v3.793zm47.647 16.957v-20.75h-4.16v20.75zm52.094-.504c-1.3.554-2.698.83-4.19.83-1.47 0-2.857-.276-4.157-.83a10.42 10.42 0 0 1-3.372-2.27 10.705 10.705 0 0 1-2.251-3.408 10.649 10.649 0 0 1-.832-4.193c0-1.484.276-2.88.832-4.195a10.716 10.716 0 0 1 2.25-3.41 10.415 10.415 0 0 1 3.373-2.267c1.3-.553 2.687-.831 4.158-.831 1.491 0 2.888.278 4.189.831 1.3.554 2.423 1.309 3.37 2.268a10.734 10.734 0 0 1 2.252 3.409c.554 1.314.832 2.711.832 4.195 0 1.481-.278 2.88-.832 4.193a10.752 10.752 0 0 1-2.252 3.409 10.41 10.41 0 0 1-3.37 2.27zm-4.19-3.113a6.094 6.094 0 0 1-2.51-.518 6.193 6.193 0 0 1-2.007-1.424 6.666 6.666 0 0 1-1.333-2.15 7.234 7.234 0 0 1-.488-2.666c0-.97.163-1.864.488-2.683.325-.82.77-1.533 1.333-2.136a6.169 6.169 0 0 1 2.008-1.421 6.065 6.065 0 0 1 2.51-.522c.899 0 1.74.173 2.524.522a6.09 6.09 0 0 1 2.023 1.421 6.705 6.705 0 0 1 1.335 2.136c.325.819.487 1.714.487 2.683a7.26 7.26 0 0 1-.487 2.666 6.673 6.673 0 0 1-1.335 2.15 6.195 6.195 0 0 1-4.547 1.942zm51.837-10.258v13.875h-3.93v-20.75h3.959l9.982 13.428v-13.429h3.9v20.751h-3.672z" style="clip-rule:evenodd;fill:#fff;fill-rule:evenodd;stroke-width:2.05739188"/>
</svg>
