<?xml version="1.0" encoding="UTF-8" standalone="no"?>
<!DOCTYPE svg PUBLIC "-//W3C//DTD SVG 1.1//EN" "http://www.w3.org/Graphics/SVG/1.1/DTD/svg11.dtd">
<svg width="100%" height="100%" viewBox="0 0 421 114" version="1.1" xmlns="http://www.w3.org/2000/svg" xmlns:xlink="http://www.w3.org/1999/xlink" xml:space="preserve" xmlns:serif="http://www.serif.com/" style="fill-rule:evenodd;clip-rule:evenodd;stroke-linejoin:round;stroke-miterlimit:2;">
    <g transform="matrix(1,0,0,1,-109,-3)">
        <g transform="matrix(0.834947,0,0,0.834947,52.9387,12.4082)">
            <g transform="matrix(2.05144,0,0,2.05144,220.961,39.133)">
                <g transform="matrix(4.47134,0,0,4.47134,-167.342,-30.2334)">
                    <path d="M39.444,14.474L39.444,7.862L36.012,7.862L36.012,6.29L44.712,6.29L44.712,7.862L41.28,7.862L41.28,14.474L39.444,14.474Z" style="fill:white;fill-rule:nonzero;"/>
                </g>
                <g transform="matrix(4.47134,0,0,4.47134,-167.342,-30.2334)">
                    <path d="M48.312,14.474C47.712,14.474 47.212,14.424 46.812,14.324C46.412,14.224 46.092,14.064 45.852,13.844C45.612,13.624 45.442,13.336 45.342,12.98C45.242,12.624 45.192,12.186 45.192,11.666L45.192,10.79C45.192,10.27 45.242,9.83 45.342,9.47C45.442,9.11 45.612,8.82 45.852,8.6C46.092,8.38 46.412,8.22 46.812,8.12C47.212,8.02 47.712,7.97 48.312,7.97L50.484,7.97C51.092,7.97 51.596,8.02 51.996,8.12C52.396,8.22 52.716,8.382 52.956,8.606C53.196,8.83 53.366,9.122 53.466,9.482C53.566,9.842 53.616,10.282 53.616,10.802L53.616,11.666C53.616,12.186 53.566,12.624 53.466,12.98C53.366,13.336 53.196,13.624 52.956,13.844C52.716,14.064 52.396,14.224 51.996,14.324C51.596,14.424 51.092,14.474 50.484,14.474L48.312,14.474ZM51.828,10.85C51.828,10.578 51.806,10.354 51.762,10.178C51.718,10.002 51.638,9.864 51.522,9.764C51.406,9.664 51.244,9.596 51.036,9.56C50.828,9.524 50.564,9.506 50.244,9.506L48.552,9.506C48.232,9.506 47.97,9.524 47.766,9.56C47.562,9.596 47.402,9.664 47.286,9.764C47.17,9.864 47.09,10.002 47.046,10.178C47.002,10.354 46.98,10.578 46.98,10.85L46.98,11.618C46.98,11.89 47.002,12.112 47.046,12.284C47.09,12.456 47.17,12.592 47.286,12.692C47.402,12.792 47.562,12.862 47.766,12.902C47.97,12.942 48.232,12.962 48.552,12.962L50.244,12.962C50.564,12.962 50.828,12.942 51.036,12.902C51.244,12.862 51.406,12.792 51.522,12.692C51.638,12.592 51.718,12.456 51.762,12.284C51.806,12.112 51.828,11.89 51.828,11.618L51.828,10.85Z" style="fill:white;fill-rule:nonzero;"/>
                </g>
                <g transform="matrix(4.47134,0,0,4.47134,-167.342,-30.2334)">
                    <path d="M58.032,14.474C57.432,14.474 56.932,14.424 56.532,14.324C56.132,14.224 55.812,14.064 55.572,13.844C55.332,13.624 55.162,13.336 55.062,12.98C54.962,12.624 54.912,12.186 54.912,11.666L54.912,10.79C54.912,10.27 54.962,9.83 55.062,9.47C55.162,9.11 55.332,8.82 55.572,8.6C55.812,8.38 56.132,8.22 56.532,8.12C56.932,8.02 57.432,7.97 58.032,7.97L60.204,7.97C60.812,7.97 61.316,8.02 61.716,8.12C62.116,8.22 62.436,8.382 62.676,8.606C62.916,8.83 63.086,9.122 63.186,9.482C63.286,9.842 63.336,10.282 63.336,10.802L63.336,11.666C63.336,12.186 63.286,12.624 63.186,12.98C63.086,13.336 62.916,13.624 62.676,13.844C62.436,14.064 62.116,14.224 61.716,14.324C61.316,14.424 60.812,14.474 60.204,14.474L58.032,14.474ZM61.548,10.85C61.548,10.578 61.526,10.354 61.482,10.178C61.438,10.002 61.358,9.864 61.242,9.764C61.126,9.664 60.964,9.596 60.756,9.56C60.548,9.524 60.284,9.506 59.964,9.506L58.272,9.506C57.952,9.506 57.69,9.524 57.486,9.56C57.282,9.596 57.122,9.664 57.006,9.764C56.89,9.864 56.81,10.002 56.766,10.178C56.722,10.354 56.7,10.578 56.7,10.85L56.7,11.618C56.7,11.89 56.722,12.112 56.766,12.284C56.81,12.456 56.89,12.592 57.006,12.692C57.122,12.792 57.282,12.862 57.486,12.902C57.69,12.942 57.952,12.962 58.272,12.962L59.964,12.962C60.284,12.962 60.548,12.942 60.756,12.902C60.964,12.862 61.126,12.792 61.242,12.692C61.358,12.592 61.438,12.456 61.482,12.284C61.526,12.112 61.548,11.89 61.548,11.618L61.548,10.85Z" style="fill:white;fill-rule:nonzero;"/>
                </g>
                <g transform="matrix(4.47134,0,0,4.47134,-167.342,-30.2334)">
                    <rect x="64.692" y="5.87" width="1.824" height="8.604" style="fill:white;"/>
                </g>
                <g transform="matrix(4.47134,0,0,4.47134,-167.342,-30.2334)">
                    <path d="M75.576,12.746C75.576,13.066 75.548,13.336 75.492,13.556C75.436,13.776 75.326,13.954 75.162,14.09C74.998,14.226 74.774,14.324 74.49,14.384C74.206,14.444 73.836,14.474 73.38,14.474L67.788,14.474L67.788,13.07L73.152,13.07C73.392,13.07 73.56,13.03 73.656,12.95C73.752,12.87 73.8,12.718 73.8,12.494L73.8,12.278C73.8,12.038 73.754,11.888 73.662,11.828C73.57,11.768 73.416,11.738 73.2,11.738L69.552,11.738C69.184,11.738 68.886,11.702 68.658,11.63C68.43,11.558 68.252,11.45 68.124,11.306C67.996,11.162 67.91,10.984 67.866,10.772C67.822,10.56 67.8,10.31 67.8,10.022L67.8,9.53C67.8,9.25 67.83,9.01 67.89,8.81C67.95,8.61 68.048,8.448 68.184,8.324C68.32,8.2 68.504,8.11 68.736,8.054C68.968,7.998 69.26,7.97 69.612,7.97L72.084,7.97L72.084,9.326L70.044,9.326C69.868,9.326 69.742,9.358 69.666,9.422C69.59,9.486 69.552,9.602 69.552,9.77L69.552,10.07C69.552,10.254 69.588,10.378 69.66,10.442C69.732,10.506 69.848,10.538 70.008,10.538L73.536,10.538C73.952,10.538 74.292,10.572 74.556,10.64C74.82,10.708 75.028,10.816 75.18,10.964C75.332,11.112 75.436,11.304 75.492,11.54C75.548,11.776 75.576,12.066 75.576,12.41L75.576,12.746Z" style="fill:white;fill-rule:nonzero;"/>
                </g>
            </g>
            <g transform="matrix(4.47134,0,0,4.47134,-126.629,-19.013)">
                <path d="M65.644,22.24L65.644,19.613L63.256,18.738C63.048,17.935 62.771,17.18 62.358,16.482L62.382,16.479L63.517,14.117L61.663,12.26L59.299,13.385L59.296,13.388C58.599,12.976 57.842,12.715 57.039,12.507L56.163,10.1L53.531,10.1L52.655,12.507C51.85,12.715 51.093,13.005 50.396,13.417L50.391,13.398L48.025,12.266L46.165,14.12L47.292,16.481L47.295,16.484C46.882,17.18 46.473,17.937 46.266,18.74L43.708,19.613L43.708,22.24L46.266,23.115C46.473,23.917 46.839,24.675 47.251,25.37L47.269,25.373L46.155,27.736L48.02,29.593L50.39,28.469L50.395,28.467C51.091,28.877 51.85,29.262 52.653,29.469L53.531,32L56.163,32L57.039,29.469C57.843,29.262 58.601,28.91 59.297,28.498L59.302,28.486L61.669,29.601L63.528,27.74L62.401,25.375L62.399,25.372C62.811,24.675 63.048,23.917 63.256,23.115L65.644,22.24ZM54.846,25.304C52.425,25.304 50.461,23.344 50.461,20.927C50.461,18.51 52.425,16.549 54.846,16.549C57.27,16.549 59.232,18.51 59.232,20.927C59.232,23.344 57.27,25.304 54.846,25.304Z" style="fill:rgb(166,166,166);fill-rule:nonzero;stroke:rgb(127,127,127);stroke-width:0.27px;"/>
                <path d="M74.053,6.37L73.478,4.984L71.989,5.058C71.703,4.679 71.373,4.349 71.003,4.072L71.004,4.069L71.083,2.576L69.694,2L68.691,3.111L68.691,3.113C68.232,3.049 67.761,3.044 67.293,3.111L66.289,2L64.9,2.574L64.978,4.067C64.6,4.352 64.27,4.686 63.991,5.056L63.99,5.055L62.493,4.978L61.92,6.364L63.03,7.364L63.033,7.366C62.98,7.795 62.958,8.297 63.024,8.765L61.903,9.77L62.479,11.157L63.982,11.075C64.267,11.454 64.606,11.782 64.976,12.059L64.976,12.062L64.9,13.555L66.423,14.129L67.559,13.018L67.559,13.016C67.853,13.07 68.355,13.083 68.824,13.018L69.761,14.129L71.116,13.555L71.022,12.062C71.401,11.778 71.724,11.442 72.001,11.073L72,11.074L73.493,11.151L74.068,9.763L72.955,8.764L72.951,8.762C73.017,8.304 73.013,7.837 72.948,7.369L74.053,6.37ZM68.95,10.376C67.672,10.903 66.208,10.298 65.678,9.021C65.147,7.745 65.755,6.283 67.033,5.754C68.312,5.225 69.777,5.831 70.307,7.107C70.836,8.385 70.228,9.847 68.95,10.376Z" style="fill:rgb(166,166,166);fill-rule:nonzero;stroke:rgb(127,127,127);stroke-width:0.27px;"/>
            </g>
        </g>
    </g>
</svg>
