<svg viewBox="0 0 408 113" xmlns="http://www.w3.org/2000/svg" xml:space="preserve" style="fill-rule:evenodd;clip-rule:evenodd;stroke-linejoin:round;stroke-miterlimit:2">
    <path d="M122.697 87.839V35.684H95.625v-12.4h68.626v12.4h-27.072v52.155h-14.482Zm69.95 0c-4.732 0-8.676-.394-11.832-1.183-3.155-.789-5.679-2.051-7.572-3.786-1.893-1.736-3.234-4.007-4.023-6.816-.789-2.808-1.183-6.263-1.183-10.364v-6.91c0-4.102.394-7.573 1.183-10.412.789-2.84 2.13-5.128 4.023-6.863 1.893-1.735 4.417-2.997 7.572-3.786 3.156-.789 7.1-1.183 11.832-1.183h17.133c4.796 0 8.772.394 11.927 1.183 3.155.789 5.679 2.066 7.572 3.833 1.893 1.767 3.234 4.071 4.023 6.91.789 2.84 1.183 6.311 1.183 10.412v6.816c0 4.101-.394 7.556-1.183 10.364-.789 2.809-2.13 5.08-4.023 6.816-1.893 1.735-4.417 2.997-7.572 3.786-3.155.789-7.131 1.183-11.927 1.183h-17.133Zm27.735-28.586c0-2.146-.174-3.912-.521-5.301-.347-1.388-.978-2.477-1.893-3.265-.915-.789-2.193-1.326-3.834-1.609-1.64-.284-3.723-.426-6.247-.426h-13.346c-2.525 0-4.591.142-6.2.426-1.61.283-2.872.82-3.787 1.609-.915.788-1.546 1.877-1.893 3.265-.347 1.389-.52 3.155-.52 5.301v6.058c0 2.146.173 3.897.52 5.253.347 1.357.978 2.43 1.893 3.219.915.788 2.177 1.341 3.787 1.656 1.609.316 3.675.473 6.2.473h13.346c2.524 0 4.607-.157 6.247-.473 1.641-.315 2.919-.868 3.834-1.656.915-.789 1.546-1.862 1.893-3.219.347-1.356.521-3.107.521-5.253v-6.058Zm48.937 28.586c-4.733 0-8.677-.394-11.832-1.183-3.155-.789-5.68-2.051-7.573-3.786-1.893-1.736-3.234-4.007-4.023-6.816-.788-2.808-1.183-6.263-1.183-10.364v-6.91c0-4.102.395-7.573 1.183-10.412.789-2.84 2.13-5.128 4.023-6.863 1.893-1.735 4.418-2.997 7.573-3.786 3.155-.789 7.099-1.183 11.832-1.183h17.132c4.796 0 8.772.394 11.927 1.183 3.155.789 5.679 2.066 7.573 3.833 1.893 1.767 3.234 4.071 4.022 6.91.789 2.84 1.184 6.311 1.184 10.412v6.816c0 4.101-.395 7.556-1.184 10.364-.788 2.809-2.129 5.08-4.022 6.816-1.894 1.735-4.418 2.997-7.573 3.786-3.155.789-7.131 1.183-11.927 1.183h-17.132Zm27.734-28.586c0-2.146-.174-3.912-.521-5.301-.347-1.388-.978-2.477-1.893-3.265-.915-.789-2.193-1.326-3.833-1.609-1.641-.284-3.724-.426-6.248-.426h-13.346c-2.524 0-4.591.142-6.2.426-1.609.283-2.871.82-3.786 1.609-.915.788-1.546 1.877-1.894 3.265-.347 1.389-.52 3.155-.52 5.301v6.058c0 2.146.173 3.897.52 5.253.348 1.357.979 2.43 1.894 3.219.915.788 2.177 1.341 3.786 1.656 1.609.316 3.676.473 6.2.473h13.346c2.524 0 4.607-.157 6.248-.473 1.64-.315 2.918-.868 3.833-1.656.915-.789 1.546-1.862 1.893-3.219.347-1.356.521-3.107.521-5.253v-6.058Z" style="fill:#fff;fill-rule:nonzero"/>
    <path style="fill:#fff" d="M321.853 19.971h14.388v67.868h-14.388z"/>
    <path d="M407.706 74.209c0 2.524-.221 4.654-.663 6.389-.442 1.735-1.309 3.139-2.603 4.212-1.294 1.073-3.061 1.846-5.301 2.319-2.24.473-5.159.71-8.755.71h-44.11V76.764h42.311c1.893 0 3.218-.315 3.976-.946.757-.631 1.135-1.83 1.135-3.597v-1.704c0-1.893-.362-3.076-1.088-3.55-.726-.473-1.941-.709-3.644-.709h-28.776c-2.902 0-5.253-.284-7.052-.852-1.798-.568-3.202-1.42-4.212-2.556-1.009-1.136-1.688-2.54-2.035-4.212-.347-1.673-.52-3.645-.52-5.916v-3.881c0-2.209.236-4.102.709-5.679.474-1.578 1.247-2.856 2.32-3.834 1.072-.978 2.524-1.688 4.354-2.13 1.83-.442 4.133-.662 6.91-.662h19.499v10.696h-16.092c-1.388 0-2.382.252-2.981.757-.6.505-.9 1.42-.9 2.745V53.1c0 1.452.284 2.43.852 2.935.568.505 1.483.757 2.745.757h27.829c3.281 0 5.963.268 8.046.805 2.082.536 3.723 1.388 4.922 2.555 1.199 1.168 2.019 2.682 2.461 4.544.442 1.861.663 4.149.663 6.862v2.651Z" style="fill:#fff;fill-rule:nonzero"/>
    <path d="M19.343 104.391c-14.314-13.66 3.727-36.57 3.727-36.57 9.491 5.625 12.384 3.983 12.384 3.983l4.006 2.312s.026 3.325 9.641 8.734c0 0-10.82 27.079-29.807 21.513" style="fill:#363636;fill-rule:nonzero"/>
    <path d="m66.739 26.868-4.006-2.313-22.61 39.162 4.006 2.313 22.61-39.162Z" style="fill:#b4b1b2"/>
    <path d="M40.903 62.367 27.541 85.51a2.314 2.314 0 0 0 4.006 2.312L44.908 64.68l-4.005-2.313Z" style="fill:#565656;fill-rule:nonzero"/>
    <path d="M81.46 10.846 69.248 3.795a1.741 1.741 0 0 0-2.378.637l-3.199 5.542c-.27.467-.432.989-.458 1.527-.148 2.964.601 5.67 2.177 7.596l-.055-.032-3.273 5.668 4.858 2.805 3.273-5.669-.055-.032c2.457.404 5.174-.301 7.667-1.911a3.42 3.42 0 0 0 1.093-1.16l3.199-5.542a1.74 1.74 0 0 0-.637-2.378Zm-5.054 6.369a2.252 2.252 0 0 1-.727.773c-2.285 1.475-4.853 1.816-6.863.656-2.009-1.16-2.998-3.555-2.862-6.271.017-.357.126-.706.305-1.017l2.133-3.694a1.162 1.162 0 0 1 1.587-.425l8.137 4.698c.556.32.746 1.031.426 1.586l-2.136 3.694Z" style="fill:#fec602;fill-rule:nonzero"/>
    <path d="m21.246 18.187 4.003-4.003a1.052 1.052 0 0 1 1.488 0l63.915 63.914a1.053 1.053 0 0 1 0 1.489l-4.003 4.002a1.05 1.05 0 0 1-1.488 0L21.246 19.675a1.056 1.056 0 0 1 0-1.488Z" style="fill:#006c80;fill-rule:nonzero"/>
    <path d="M52.248 6.796c-10.595.283-21.797 8.549-21.797 8.549l-8.742 8.742S8.169 36.139 8.642 52.248c.022.715.597 1.29 1.311 1.324l10.736.502a1.377 1.377 0 0 0 1.436-1.497l-1.683-18.731a1.366 1.366 0 0 1 .358-1.053l4.602-5.013 8.742-8.742c6.508-5.906 14.989-10.116 18.252-11.62.318-.147.203-.63-.148-.622Z" style="fill:#565656;fill-rule:nonzero"/>
    <path d="m21.243 22.528 8.347-8.347a.28.28 0 0 1 .395 0l5.423 5.423c.11.109.11.286 0 .395l-8.347 8.347a.278.278 0 0 1-.394 0l-5.424-5.423a.28.28 0 0 1 0-.395Z" style="fill:#878787;fill-rule:nonzero"/>
    <path d="M47.698 74.788c1.063-1.616 2.102-3.666 2.979-5.981 1.252-3.309 1.918-6.492 1.966-8.884a8.57 8.57 0 0 1 4.732-.804c1.681.199 3.2.886 4.46 1.923-.505 2.334-.597 5.572-.153 9.066.309 2.433.835 4.65 1.484 6.46-2.017 2.593-5.073 4.092-8.293 3.711-3.201-.377-5.812-2.526-7.175-5.491Z" style="fill:#7f7f7f;fill-rule:nonzero"/>
    <path d="M55.133 78.21c3.835.587 7.502-3.315 7.502-3.315.165.589.343 1.149.532 1.674-2.017 2.593-5.073 4.092-8.293 3.711-3.201-.378-5.811-2.524-7.175-5.49.316-.479.63-.997.938-1.549-.002-.001 2.226 4.316 6.496 4.969Z" style="fill:#b4b1b2;fill-rule:nonzero"/>
    <path d="m71.951 67.196.379-3.207-20.271-2.397a1.614 1.614 0 1 0-.379 3.208l20.271 2.396Z" style="fill:#7f7f7f;fill-rule:nonzero"/>
    <path d="M81.913 68.901a71.499 71.499 0 0 0-9.764-.494.386.386 0 0 1-.392-.431l.567-4.792a.385.385 0 0 1 .482-.328 71.547 71.547 0 0 0 9.609 1.797c3.604.426 7.106.575 10.42.476l.011.002c.327.038.56.334.521.661l-.538 4.557a.597.597 0 0 1-.662.522 70.788 70.788 0 0 0-10.254-1.97Z" style="fill:#b64242;fill-rule:nonzero"/>
</svg>
