<?xml version="1.0" encoding="UTF-8"?>
<svg width="400px" height="103px" viewBox="0 0 400 103" version="1.1" xmlns="http://www.w3.org/2000/svg" xmlns:xlink="http://www.w3.org/1999/xlink">
    <title>tools</title>
    <g id="Page-1" stroke="none" stroke-width="1" fill="none" fill-rule="evenodd" opacity="0.78">
        <g id="Tools" transform="translate(-120.000000, -8.000000)">
            <g id="tools" transform="translate(120.913000, 8.969070)">
                <path d="M114.06711,84.2774944 L114.06711,32.1224944 L86.9951102,32.1224944 L86.9951102,19.7224944 L155.62111,19.7224944 L155.62111,32.1224944 L128.54911,32.1224944 L128.54911,84.2774944 L114.06711,84.2774944 Z M184.01711,84.2774944 C179.28511,84.2774944 175.34111,83.8834944 172.18511,83.0944944 C169.03011,82.3054944 166.50611,81.0434944 164.61311,79.3084944 C162.72011,77.5724944 161.37911,75.3014944 160.59011,72.4924944 C159.80111,69.6844944 159.40711,66.2294944 159.40711,62.1284944 L159.40711,55.2184944 C159.40711,51.1164944 159.80111,47.6454944 160.59011,44.8064944 C161.37911,41.9664944 162.72011,39.6784944 164.61311,37.9434944 C166.50611,36.2084944 169.03011,34.9464944 172.18511,34.1574944 C175.34111,33.3684944 179.28511,32.9744944 184.01711,32.9744944 L201.15011,32.9744944 C205.94611,32.9744944 209.92211,33.3684944 213.07711,34.1574944 C216.23211,34.9464944 218.75611,36.2234944 220.64911,37.9904944 C222.54211,39.7574944 223.88311,42.0614944 224.67211,44.9004944 C225.46111,47.7404944 225.85511,51.2114944 225.85511,55.3124944 L225.85511,62.1284944 C225.85511,66.2294944 225.46111,69.6844944 224.67211,72.4924944 C223.88311,75.3014944 222.54211,77.5724944 220.64911,79.3084944 C218.75611,81.0434944 216.23211,82.3054944 213.07711,83.0944944 C209.92211,83.8834944 205.94611,84.2774944 201.15011,84.2774944 L184.01711,84.2774944 Z M211.75211,55.6914944 C211.75211,53.5454944 211.57811,51.7794944 211.23111,50.3904944 C210.88411,49.0024944 210.25311,47.9134944 209.33811,47.1254944 C208.42311,46.3364944 207.14511,45.7994944 205.50411,45.5164944 C203.86411,45.2324944 201.78111,45.0904944 199.25711,45.0904944 L185.91111,45.0904944 C183.38611,45.0904944 181.32011,45.2324944 179.71111,45.5164944 C178.10111,45.7994944 176.83911,46.3364944 175.92411,47.1254944 C175.00911,47.9134944 174.37811,49.0024944 174.03111,50.3904944 C173.68411,51.7794944 173.51111,53.5454944 173.51111,55.6914944 L173.51111,61.7494944 C173.51111,63.8954944 173.68411,65.6464944 174.03111,67.0024944 C174.37811,68.3594944 175.00911,69.4324944 175.92411,70.2214944 C176.83911,71.0094944 178.10111,71.5624944 179.71111,71.8774944 C181.32011,72.1934944 183.38611,72.3504944 185.91111,72.3504944 L199.25711,72.3504944 C201.78111,72.3504944 203.86411,72.1934944 205.50411,71.8774944 C207.14511,71.5624944 208.42311,71.0094944 209.33811,70.2214944 C210.25311,69.4324944 210.88411,68.3594944 211.23111,67.0024944 C211.57811,65.6464944 211.75211,63.8954944 211.75211,61.7494944 L211.75211,55.6914944 L211.75211,55.6914944 Z M260.68911,84.2774944 C255.95611,84.2774944 252.01211,83.8834944 248.85711,83.0944944 C245.70211,82.3054944 243.17711,81.0434944 241.28411,79.3084944 C239.39111,77.5724944 238.05011,75.3014944 237.26111,72.4924944 C236.47311,69.6844944 236.07811,66.2294944 236.07811,62.1284944 L236.07811,55.2184944 C236.07811,51.1164944 236.47311,47.6454944 237.26111,44.8064944 C238.05011,41.9664944 239.39111,39.6784944 241.28411,37.9434944 C243.17711,36.2084944 245.70211,34.9464944 248.85711,34.1574944 C252.01211,33.3684944 255.95611,32.9744944 260.68911,32.9744944 L277.82111,32.9744944 C282.61711,32.9744944 286.59311,33.3684944 289.74811,34.1574944 C292.90311,34.9464944 295.42711,36.2234944 297.32111,37.9904944 C299.21411,39.7574944 300.55511,42.0614944 301.34311,44.9004944 C302.13211,47.7404944 302.52711,51.2114944 302.52711,55.3124944 L302.52711,62.1284944 C302.52711,66.2294944 302.13211,69.6844944 301.34311,72.4924944 C300.55511,75.3014944 299.21411,77.5724944 297.32111,79.3084944 C295.42711,81.0434944 292.90311,82.3054944 289.74811,83.0944944 C286.59311,83.8834944 282.61711,84.2774944 277.82111,84.2774944 L260.68911,84.2774944 Z M288.42311,55.6914944 C288.42311,53.5454944 288.24911,51.7794944 287.90211,50.3904944 C287.55511,49.0024944 286.92411,47.9134944 286.00911,47.1254944 C285.09411,46.3364944 283.81611,45.7994944 282.17611,45.5164944 C280.53511,45.2324944 278.45211,45.0904944 275.92811,45.0904944 L262.58211,45.0904944 C260.05811,45.0904944 257.99111,45.2324944 256.38211,45.5164944 C254.77311,45.7994944 253.51111,46.3364944 252.59611,47.1254944 C251.68111,47.9134944 251.05011,49.0024944 250.70211,50.3904944 C250.35511,51.7794944 250.18211,53.5454944 250.18211,55.6914944 L250.18211,61.7494944 C250.18211,63.8954944 250.35511,65.6464944 250.70211,67.0024944 C251.05011,68.3594944 251.68111,69.4324944 252.59611,70.2214944 C253.51111,71.0094944 254.77311,71.5624944 256.38211,71.8774944 C257.99111,72.1934944 260.05811,72.3504944 262.58211,72.3504944 L275.92811,72.3504944 C278.45211,72.3504944 280.53511,72.1934944 282.17611,71.8774944 C283.81611,71.5624944 285.09411,71.0094944 286.00911,70.2214944 C286.92411,69.4324944 287.55511,68.3594944 287.90211,67.0024944 C288.24911,65.6464944 288.42311,63.8954944 288.42311,61.7494944 L288.42311,55.6914944 L288.42311,55.6914944 Z" id="Shape" fill="#FFFFFF" fill-rule="nonzero"></path>
                <polygon id="Path" fill="#FFFFFF" points="313.22311 16.4094944 327.61111 16.4094944 327.61111 84.2774944 313.22311 84.2774944"></polygon>
                <path d="M399.07611,70.6474944 C399.07611,73.1714944 398.85511,75.3014944 398.41311,77.0364944 C397.97111,78.7714944 397.10411,80.1754944 395.81011,81.2484944 C394.51611,82.3214944 392.74911,83.0944944 390.50911,83.5674944 C388.26911,84.0404944 385.35011,84.2774944 381.75411,84.2774944 L337.64411,84.2774944 L337.64411,73.2024944 L379.95511,73.2024944 C381.84811,73.2024944 383.17311,72.8874944 383.93111,72.2564944 C384.68811,71.6254944 385.06611,70.4264944 385.06611,68.6594944 L385.06611,66.9554944 C385.06611,65.0624944 384.70411,63.8794944 383.97811,63.4054944 C383.25211,62.9324944 382.03711,62.6964944 380.33411,62.6964944 L351.55811,62.6964944 C348.65611,62.6964944 346.30511,62.4124944 344.50611,61.8444944 C342.70811,61.2764944 341.30411,60.4244944 340.29411,59.2884944 C339.28511,58.1524944 338.60611,56.7484944 338.25911,55.0764944 C337.91211,53.4034944 337.73911,51.4314944 337.73911,49.1604944 L337.73911,45.2794944 C337.73911,43.0704944 337.97511,41.1774944 338.44811,39.6004944 C338.92211,38.0224944 339.69511,36.7444944 340.76811,35.7664944 C341.84011,34.7884944 343.29211,34.0784944 345.12211,33.6364944 C346.95211,33.1944944 349.25511,32.9744944 352.03211,32.9744944 L371.53111,32.9744944 L371.53111,43.6704944 L355.43911,43.6704944 C354.05111,43.6704944 353.05711,43.9224944 352.45811,44.4274944 C351.85811,44.9324944 351.55811,45.8474944 351.55811,47.1724944 L351.55811,49.5384944 C351.55811,50.9904944 351.84211,51.9684944 352.41011,52.4734944 C352.97811,52.9784944 353.89311,53.2304944 355.15511,53.2304944 L382.98411,53.2304944 C386.26511,53.2304944 388.94711,53.4984944 391.03011,54.0354944 C393.11211,54.5714944 394.75311,55.4234944 395.95211,56.5904944 C397.15111,57.7584944 397.97111,59.2724944 398.41311,61.1344944 C398.85511,62.9954944 399.07611,65.2834944 399.07611,67.9964944 L399.07611,70.6474944 L399.07611,70.6474944 Z" id="Path" fill="#FFFFFF" fill-rule="nonzero"></path>
                <path d="M10.7131102,100.829494 C-3.60088977,87.1694944 14.4401102,64.2594944 14.4401102,64.2594944 C23.9311102,69.8844944 26.8241102,68.2424944 26.8241102,68.2424944 L30.8301102,70.5544944 C30.8301102,70.5544944 30.8561102,73.8794944 40.4711102,79.2884944 C40.4711102,79.2884944 29.6511102,106.367494 10.6641102,100.801494" id="Path" fill="#363636" fill-rule="nonzero"></path>
                <polygon id="Path" fill="#B4B1B2" points="58.1091102 23.3064944 54.1031102 20.9934944 31.4931102 60.1554944 35.4991102 62.4684944"></polygon>
                <path d="M32.2731102,58.8054944 L18.9111102,81.9484944 C18.324951,83.0493838 18.7167363,84.4167559 19.7969554,85.0401874 C20.8771745,85.6636188 22.2571345,85.3187817 22.9171102,84.2604944 L36.2781102,61.1184944 L32.2731102,58.8054944 L32.2731102,58.8054944 Z" id="Path" fill="#565656" fill-rule="nonzero"></path>
                <path d="M72.8301102,7.28449437 L60.6181102,0.233494371 C59.7855241,-0.247141102 58.7209529,0.0380278666 58.2401102,0.870494371 L55.0411102,6.41249437 C54.7711102,6.87949437 54.6091102,7.40149437 54.5831102,7.93949437 C54.4351102,10.9034944 55.1841102,13.6094944 56.7601102,15.5354944 L56.7051102,15.5034944 L53.4321102,21.1714944 L58.2901102,23.9764944 L61.5631102,18.3074944 L61.5081102,18.2754944 C63.9651102,18.6794944 66.6821102,17.9744944 69.1751102,16.3644944 C69.6257153,16.0693033 70.0002174,15.6718445 70.2681102,15.2044944 L73.4671102,9.66249437 C73.6981931,9.26272931 73.760901,8.78750642 73.6414238,8.34148333 C73.5219466,7.89546024 73.2300832,7.51521713 72.8301102,7.28449437 L72.8301102,7.28449437 Z M67.7761102,13.6534944 C67.5988104,13.9653922 67.3495578,14.230416 67.0491102,14.4264944 C64.7641102,15.9014944 62.1961102,16.2424944 60.1861102,15.0824944 C58.1771102,13.9224944 57.1881102,11.5274944 57.3241102,8.81149437 C57.3411102,8.45449437 57.4501102,8.10549437 57.6291102,7.79449437 L59.7621102,4.10049437 C60.0830889,3.54502792 60.79349,3.35478188 61.3491102,3.67549437 L69.4861102,8.37349437 C70.0421102,8.69349437 70.2321102,9.40449437 69.9121102,9.95949437 L67.7761102,13.6534944 L67.7761102,13.6534944 Z" id="Shape" fill="#FEC602" fill-rule="nonzero"></path>
                <path d="M12.6161102,14.6254944 L16.6191102,10.6224944 C16.8164085,10.4251304 17.0840419,10.314247 17.3631102,10.314247 C17.6421786,10.314247 17.9098119,10.4251304 18.1071102,10.6224944 L82.0221102,74.5364944 C82.4332211,74.9476974 82.4332211,75.6142914 82.0221102,76.0254944 L78.0191102,80.0274944 C77.8220733,80.2253501 77.5543421,80.3365733 77.2751102,80.3365733 C76.9958784,80.3365733 76.7281471,80.2253501 76.5311102,80.0274944 L12.6161102,16.1134944 C12.2073099,15.7017271 12.2073099,15.0372617 12.6161102,14.6254944 Z" id="Path" fill="#006C80" fill-rule="nonzero"></path>
                <path d="M43.6181102,3.23439616 C33.0231102,3.51749437 21.8211102,11.7834944 21.8211102,11.7834944 L13.0791102,20.5254944 C13.0791102,20.5254944 -0.460889771,32.5774944 0.0121102287,48.6864944 C0.0341102287,49.4014944 0.609110229,49.9764944 1.32311023,50.0104944 L12.0591102,50.5124944 C12.4562271,50.5310789 12.8419978,50.377125 13.1172032,50.0902291 C13.3924085,49.8033333 13.5301899,49.4114952 13.4951102,49.0154944 L11.8121102,30.2844944 C11.7766815,29.898604 11.9068189,29.5158256 12.1701102,29.2314944 L16.7721102,24.2184944 L25.5141102,15.4764944 C32.0221102,9.57049437 40.5031102,5.36049437 43.7661102,3.85649437 C44.0841102,3.70949437 43.9691102,3.22649437 43.6181102,3.23439616 Z" id="Path" fill="#565656" fill-rule="nonzero"></path>
                <path d="M12.6131102,18.9664944 L20.9601102,10.6194944 C21.069344,10.5107992 21.2458764,10.5107992 21.3551102,10.6194944 L26.7781102,16.0424944 C26.8881102,16.1514944 26.8881102,16.3284944 26.7781102,16.4374944 L18.4311102,24.7844944 C18.378941,24.8368895 18.3080486,24.8663439 18.2341102,24.8663439 C18.1601719,24.8663439 18.0892795,24.8368895 18.0371102,24.7844944 L12.6131102,19.3614944 C12.504415,19.2522606 12.504415,19.0757282 12.6131102,18.9664944 L12.6131102,18.9664944 Z" id="Path" fill="#878787" fill-rule="nonzero"></path>
                <path d="M39.0681102,71.2264944 C40.1311102,69.6104944 41.1701102,67.5604944 42.0471102,65.2454944 C43.2991102,61.9364944 43.9651102,58.7534944 44.0131102,56.3614944 C45.4816628,55.6482382 47.1233943,55.3692965 48.7451102,55.5574944 C50.4261102,55.7564944 51.9451102,56.4434944 53.2051102,57.4804944 C52.7001102,59.8144944 52.6081102,63.0524944 53.0521102,66.5464944 C53.3611102,68.9794944 53.8871102,71.1964944 54.5361102,73.0064944 C52.5191102,75.5994944 49.4631102,77.0984944 46.2431102,76.7174944 C43.0421102,76.3404944 40.4311102,74.1914944 39.0681102,71.2264944 L39.0681102,71.2264944 Z" id="Path" fill="#7F7F7F" fill-rule="nonzero"></path>
                <path d="M46.5031102,74.6484944 C50.3381102,75.2354944 54.0051102,71.3334944 54.0051102,71.3334944 C54.1701102,71.9224944 54.3481102,72.4824944 54.5371102,73.0074944 C52.5201102,75.6004944 49.4641102,77.0994944 46.2441102,76.7184944 C43.0431102,76.3404944 40.4331102,74.1944944 39.0691102,71.2284944 C39.3851102,70.7494944 39.6991102,70.2314944 40.0071102,69.6794942 C40.0051102,69.6784944 42.2331102,73.9954944 46.5031102,74.6484944 L46.5031102,74.6484944 Z" id="Path" fill="#B4B1B2" fill-rule="nonzero"></path>
                <path d="M63.3211102,63.6344944 L63.7001102,60.4274944 L43.4291102,58.0304944 C42.8560562,57.9627925 42.290414,58.2059541 41.9452555,58.6683826 C41.600097,59.130811 41.52786,59.7422523 41.7557555,60.2723826 C41.983651,60.8025128 42.4770562,61.1707925 43.0501102,61.2384944 L63.3211102,63.6344944 Z" id="Path" fill="#7F7F7F" fill-rule="nonzero"></path>
                <path d="M73.2831102,65.3394944 C70.0435268,64.9522449 66.7812359,64.7871925 63.5191102,64.8454944 C63.4074022,64.8479964 63.3000908,64.8019694 63.2249099,64.7193088 C63.149729,64.6366482 63.114056,64.5254653 63.1271102,64.4144944 L63.6941102,59.6224944 C63.7068814,59.5112656 63.7674386,59.4111057 63.8599995,59.3481183 C63.9525604,59.2851308 64.0679553,59.2655556 64.1761102,59.2944944 C67.3343953,60.1118654 70.5448871,60.7122664 73.7851102,61.0914944 C77.3891102,61.5174944 80.8911102,61.6664944 84.2051102,61.5674944 L84.2161102,61.5694944 C84.5431102,61.6074944 84.7761102,61.9034944 84.7371102,62.2304944 L84.1991102,66.7874944 C84.1599948,67.1141917 83.8639208,67.3476518 83.5371102,67.3094944 C80.1722674,66.4012948 76.7449462,65.7428373 73.2831102,65.3394944 L73.2831102,65.3394944 Z" id="Path" fill="#B64242" fill-rule="nonzero"></path>
            </g>
        </g>
    </g>
</svg>