<?xml version="1.0" encoding="UTF-8" standalone="no"?>
<!DOCTYPE svg PUBLIC "-//W3C//DTD SVG 1.1//EN" "http://www.w3.org/Graphics/SVG/1.1/DTD/svg11.dtd">
<svg width="100%" height="100%" viewBox="0 0 408 113" version="1.1" xmlns="http://www.w3.org/2000/svg" xmlns:xlink="http://www.w3.org/1999/xlink" xml:space="preserve" xmlns:serif="http://www.serif.com/" style="fill-rule:evenodd;clip-rule:evenodd;stroke-linejoin:round;stroke-miterlimit:2;">
    <g>
        <g>
            <g>
                <path d="M122.697,87.839l-0,-52.155l-27.072,-0l0,-12.4l68.626,-0l-0,12.4l-27.072,-0l0,52.155l-14.482,0Z" style="fill:#fff;fill-rule:nonzero;"/>
            </g>
            <g>
                <path d="M192.647,87.839c-4.732,0 -8.676,-0.394 -11.832,-1.183c-3.155,-0.789 -5.679,-2.051 -7.572,-3.786c-1.893,-1.736 -3.234,-4.007 -4.023,-6.816c-0.789,-2.808 -1.183,-6.263 -1.183,-10.364l-0,-6.91c-0,-4.102 0.394,-7.573 1.183,-10.412c0.789,-2.84 2.13,-5.128 4.023,-6.863c1.893,-1.735 4.417,-2.997 7.572,-3.786c3.156,-0.789 7.1,-1.183 11.832,-1.183l17.133,-0c4.796,-0 8.772,0.394 11.927,1.183c3.155,0.789 5.679,2.066 7.572,3.833c1.893,1.767 3.234,4.071 4.023,6.91c0.789,2.84 1.183,6.311 1.183,10.412l0,6.816c0,4.101 -0.394,7.556 -1.183,10.364c-0.789,2.809 -2.13,5.08 -4.023,6.816c-1.893,1.735 -4.417,2.997 -7.572,3.786c-3.155,0.789 -7.131,1.183 -11.927,1.183l-17.133,0Zm27.735,-28.586c-0,-2.146 -0.174,-3.912 -0.521,-5.301c-0.347,-1.388 -0.978,-2.477 -1.893,-3.265c-0.915,-0.789 -2.193,-1.326 -3.834,-1.609c-1.64,-0.284 -3.723,-0.426 -6.247,-0.426l-13.346,-0c-2.525,-0 -4.591,0.142 -6.2,0.426c-1.61,0.283 -2.872,0.82 -3.787,1.609c-0.915,0.788 -1.546,1.877 -1.893,3.265c-0.347,1.389 -0.52,3.155 -0.52,5.301l-0,6.058c-0,2.146 0.173,3.897 0.52,5.253c0.347,1.357 0.978,2.43 1.893,3.219c0.915,0.788 2.177,1.341 3.787,1.656c1.609,0.316 3.675,0.473 6.2,0.473l13.346,0c2.524,0 4.607,-0.157 6.247,-0.473c1.641,-0.315 2.919,-0.868 3.834,-1.656c0.915,-0.789 1.546,-1.862 1.893,-3.219c0.347,-1.356 0.521,-3.107 0.521,-5.253l-0,-6.058Z" style="fill:#fff;fill-rule:nonzero;"/>
            </g>
            <g>
                <path d="M269.319,87.839c-4.733,0 -8.677,-0.394 -11.832,-1.183c-3.155,-0.789 -5.68,-2.051 -7.573,-3.786c-1.893,-1.736 -3.234,-4.007 -4.023,-6.816c-0.788,-2.808 -1.183,-6.263 -1.183,-10.364l0,-6.91c0,-4.102 0.395,-7.573 1.183,-10.412c0.789,-2.84 2.13,-5.128 4.023,-6.863c1.893,-1.735 4.418,-2.997 7.573,-3.786c3.155,-0.789 7.099,-1.183 11.832,-1.183l17.132,-0c4.796,-0 8.772,0.394 11.927,1.183c3.155,0.789 5.679,2.066 7.573,3.833c1.893,1.767 3.234,4.071 4.022,6.91c0.789,2.84 1.184,6.311 1.184,10.412l-0,6.816c-0,4.101 -0.395,7.556 -1.184,10.364c-0.788,2.809 -2.129,5.08 -4.022,6.816c-1.894,1.735 -4.418,2.997 -7.573,3.786c-3.155,0.789 -7.131,1.183 -11.927,1.183l-17.132,0Zm27.734,-28.586c-0,-2.146 -0.174,-3.912 -0.521,-5.301c-0.347,-1.388 -0.978,-2.477 -1.893,-3.265c-0.915,-0.789 -2.193,-1.326 -3.833,-1.609c-1.641,-0.284 -3.724,-0.426 -6.248,-0.426l-13.346,-0c-2.524,-0 -4.591,0.142 -6.2,0.426c-1.609,0.283 -2.871,0.82 -3.786,1.609c-0.915,0.788 -1.546,1.877 -1.894,3.265c-0.347,1.389 -0.52,3.155 -0.52,5.301l-0,6.058c-0,2.146 0.173,3.897 0.52,5.253c0.348,1.357 0.979,2.43 1.894,3.219c0.915,0.788 2.177,1.341 3.786,1.656c1.609,0.316 3.676,0.473 6.2,0.473l13.346,0c2.524,0 4.607,-0.157 6.248,-0.473c1.64,-0.315 2.918,-0.868 3.833,-1.656c0.915,-0.789 1.546,-1.862 1.893,-3.219c0.347,-1.356 0.521,-3.107 0.521,-5.253l-0,-6.058Z" style="fill:#fff;fill-rule:nonzero;"/>
            </g>
            <g>
                <rect x="321.853" y="19.971" width="14.388" height="67.868" style="fill:#fff;"/>
            </g>
            <g>
                <path d="M407.706,74.209c-0,2.524 -0.221,4.654 -0.663,6.389c-0.442,1.735 -1.309,3.139 -2.603,4.212c-1.294,1.073 -3.061,1.846 -5.301,2.319c-2.24,0.473 -5.159,0.71 -8.755,0.71l-44.11,0l-0,-11.075l42.311,0c1.893,0 3.218,-0.315 3.976,-0.946c0.757,-0.631 1.135,-1.83 1.135,-3.597l0,-1.704c0,-1.893 -0.362,-3.076 -1.088,-3.55c-0.726,-0.473 -1.941,-0.709 -3.644,-0.709l-28.776,-0c-2.902,-0 -5.253,-0.284 -7.052,-0.852c-1.798,-0.568 -3.202,-1.42 -4.212,-2.556c-1.009,-1.136 -1.688,-2.54 -2.035,-4.212c-0.347,-1.673 -0.52,-3.645 -0.52,-5.916l-0,-3.881c-0,-2.209 0.236,-4.102 0.709,-5.679c0.474,-1.578 1.247,-2.856 2.32,-3.834c1.072,-0.978 2.524,-1.688 4.354,-2.13c1.83,-0.442 4.133,-0.662 6.91,-0.662l19.499,-0l-0,10.696l-16.092,-0c-1.388,-0 -2.382,0.252 -2.981,0.757c-0.6,0.505 -0.9,1.42 -0.9,2.745l0,2.366c0,1.452 0.284,2.43 0.852,2.935c0.568,0.505 1.483,0.757 2.745,0.757l27.829,-0c3.281,-0 5.963,0.268 8.046,0.805c2.082,0.536 3.723,1.388 4.922,2.555c1.199,1.168 2.019,2.682 2.461,4.544c0.442,1.861 0.663,4.149 0.663,6.862l-0,2.651Z" style="fill:#fff;fill-rule:nonzero;"/>
            </g>
        </g>
        <g>
            <g id="spade">
                <path d="M19.343,104.391c-14.314,-13.66 3.727,-36.57 3.727,-36.57c9.491,5.625 12.384,3.983 12.384,3.983l4.006,2.312c-0,0 0.026,3.325 9.641,8.734c0,0 -10.82,27.079 -29.807,21.513" style="fill:#363636;fill-rule:nonzero;"/>
                <g>
                    <g>
                        <path d="M66.739,26.868l-4.006,-2.313l-22.61,39.162l4.006,2.313l22.61,-39.162Z" style="fill:#b4b1b2;"/>
                        <path d="M40.903,62.367l-13.362,23.143c-0.638,1.105 -0.259,2.52 0.847,3.159c1.105,0.638 2.52,0.259 3.159,-0.847l13.361,-23.142l-4.005,-2.313Z" style="fill:#565656;fill-rule:nonzero;"/>
                    </g>
                    <path d="M81.46,10.846l-12.212,-7.051c-0.832,-0.481 -1.897,-0.195 -2.378,0.637l-3.199,5.542c-0.27,0.467 -0.432,0.989 -0.458,1.527c-0.148,2.964 0.601,5.67 2.177,7.596l-0.055,-0.032l-3.273,5.668l4.858,2.805l3.273,-5.669l-0.055,-0.032c2.457,0.404 5.174,-0.301 7.667,-1.911c0.452,-0.293 0.823,-0.694 1.093,-1.16l3.199,-5.542c0.481,-0.833 0.196,-1.898 -0.637,-2.378Zm-5.054,6.369c-0.179,0.311 -0.426,0.579 -0.727,0.773c-2.285,1.475 -4.853,1.816 -6.863,0.656c-2.009,-1.16 -2.998,-3.555 -2.862,-6.271c0.017,-0.357 0.126,-0.706 0.305,-1.017l2.133,-3.694c0.321,-0.555 1.032,-0.746 1.587,-0.425l8.137,4.698c0.556,0.32 0.746,1.031 0.426,1.586l-2.136,3.694Z" style="fill:#fec602;fill-rule:nonzero;"/>
                </g>
            </g>
            <g id="pickaxe">
                <path d="M21.246,18.187l4.003,-4.003c0.411,-0.411 1.077,-0.411 1.488,0l63.915,63.914c0.411,0.412 0.411,1.078 -0,1.489l-4.003,4.002c-0.411,0.412 -1.077,0.412 -1.488,0l-63.915,-63.914c-0.409,-0.413 -0.409,-1.079 0,-1.488Z" style="fill:#006c80;fill-rule:nonzero;"/>
                <g>
                    <path d="M52.248,6.796c-10.595,0.283 -21.797,8.549 -21.797,8.549l-8.742,8.742c-0,0 -13.54,12.052 -13.067,28.161c0.022,0.715 0.597,1.29 1.311,1.324l10.736,0.502c0.834,0.039 1.509,-0.666 1.436,-1.497l-1.683,-18.731c-0.036,-0.386 0.095,-0.768 0.358,-1.053l4.602,-5.013l8.742,-8.742c6.508,-5.906 14.989,-10.116 18.252,-11.62c0.318,-0.147 0.203,-0.63 -0.148,-0.622Z" style="fill:#565656;fill-rule:nonzero;"/>
                    <path d="M21.243,22.528l8.347,-8.347c0.109,-0.109 0.286,-0.109 0.395,0l5.423,5.423c0.11,0.109 0.11,0.286 0,0.395l-8.347,8.347c-0.109,0.109 -0.285,0.109 -0.394,0l-5.424,-5.423c-0.109,-0.109 -0.109,-0.286 0,-0.395Z" style="fill:#878787;fill-rule:nonzero;"/>
                </g>
            </g>
        </g>
    </g>
    <g id="axe">
        <g>
            <path d="M47.698,74.788c1.063,-1.616 2.102,-3.666 2.979,-5.981c1.252,-3.309 1.918,-6.492 1.966,-8.884c1.453,-0.696 3.071,-1 4.732,-0.804c1.681,0.199 3.2,0.886 4.46,1.923c-0.505,2.334 -0.597,5.572 -0.153,9.066c0.309,2.433 0.835,4.65 1.484,6.46c-2.017,2.593 -5.073,4.092 -8.293,3.711c-3.201,-0.377 -5.812,-2.526 -7.175,-5.491Z" style="fill:#7f7f7f;fill-rule:nonzero;"/>
            <path d="M55.133,78.21c3.835,0.587 7.502,-3.315 7.502,-3.315c0.165,0.589 0.343,1.149 0.532,1.674c-2.017,2.593 -5.073,4.092 -8.293,3.711c-3.201,-0.378 -5.811,-2.524 -7.175,-5.49c0.316,-0.479 0.63,-0.997 0.938,-1.549c-0.002,-0.001 2.226,4.316 6.496,4.969Z" style="fill:#b4b1b2;fill-rule:nonzero;"/>
        </g>
        <g>
            <path d="M71.951,67.196l0.379,-3.207l-20.271,-2.397c-0.886,-0.105 -1.688,0.528 -1.793,1.414c-0.105,0.886 0.528,1.689 1.414,1.794l20.271,2.396Z" style="fill:#7f7f7f;fill-rule:nonzero;"/>
            <path d="M81.913,68.901c-3.366,-0.398 -6.645,-0.555 -9.764,-0.494c-0.235,0.005 -0.419,-0.198 -0.392,-0.431l0.567,-4.792c0.027,-0.234 0.254,-0.388 0.482,-0.328c3.018,0.787 6.242,1.398 9.609,1.797c3.604,0.426 7.106,0.575 10.42,0.476l0.011,0.002c0.327,0.038 0.56,0.334 0.521,0.661l-0.538,4.557c-0.039,0.327 -0.335,0.56 -0.662,0.522c-3.204,-0.872 -6.648,-1.544 -10.254,-1.97Z" style="fill:#b64242;fill-rule:nonzero;"/>
        </g>
    </g>
</svg>
