<svg viewBox="-318 89 1133 345" xmlns="http://www.w3.org/2000/svg" xml:space="preserve">
    <path d="M-142.7 154.67v137.07h14.89v71.98h-53.87v-71.64h12.44V163.01h-12.57V94.33h59.55c13.12 60.95 26.26 122.03 39.41 183.11.21-.01.41-.03.62-.04V163.07h-14.79V94.29h53.94v68.42H-55.8V364h-29.81c-11.87 0-11.83-.01-14.27-11.44-13.75-64.6-27.52-129.21-41.29-193.81-.3-1.41-.75-2.8-1.13-4.19-.13.04-.27.07-.4.11zm500.09 85.38v51.63h13.78v72.05h-64.82v-71.81h12.7V163.05h-12.78V94.1c1.3-.06 2.42-.16 3.55-.16 20.99.02 41.99-.22 62.97.21 7.25.15 14.61 1.4 21.66 3.18 12.21 3.09 20.44 10.94 23.72 23.28 6.3 23.71 7.27 47.72 2.18 71.7-3.53 16.63-12.78 28.76-31.75 32.79 4.07 1.27 6.82 2.01 9.49 2.98 11.38 4.14 17.53 12.05 17.84 24.4.23 8.99.75 17.97 1.29 26.95.2 3.31.32 6.78 1.43 9.82.72 1.96 3.11 4.48 4.87 4.57 1.75.09 4.77-2.22 5.27-4.02 1.54-5.56 2.3-11.35 3.04-17.1.38-2.92.07-5.93.07-9.21h9.29c.46 5.31 1.04 10.57 1.34 15.84 1.08 19.48 2.1 39.02-2.69 58.16-1.58 6.34-4.1 12.81-7.72 18.2-9.7 14.45-28.98 13.7-38.17-1.06-5.88-9.43-8.28-20.1-8.78-30.92-.86-18.45-.77-36.95-1.08-55.42-.05-3.16.12-6.35-.18-9.49-1.37-13.87-12.49-21.85-26.52-18.75zm.04-76.96v49.65c9.9.16 19.8.25 25.6-8.97 6.36-10.12 5.48-21.22-.2-31.33-5.44-9.68-15.17-10.1-25.4-9.35zM179.5 94.07h108.07v107.55h-30.86v-38.45h-26.33v47.98h32.38v27.73h-32.31v52.52h26.17v-39.09c10.84 0 20.97-.1 31.09.16.95.02 2.53 2.25 2.62 3.54.33 4.47.13 8.99.13 13.49v94.19H179.44v-71.65h12.25V163.12h-12.2c.01-23.1.01-45.8.01-69.05zm-417.13 68.88h-8V94.22h50.14v68.75h-13.46v5.37c.04 47.15.27 94.29-.02 141.44-.06 9.91-.96 20.07-3.36 29.65-4.42 17.66-17.73 27.66-35.91 28.57-4.97.25-10.05.3-14.95-.42-16.86-2.46-28.13-12.26-32.49-28.46-2.69-10-4.04-20.63-4.14-31-.43-46.14-.19-92.29-.19-138.44v-6.49h-12.81V94.24h59.49v68.46h-8.37c-.17 1.79-.4 3.07-.4 4.34.01 31.32-.15 62.64.22 93.96.09 7.57 1.62 15.19 3.15 22.65.84 4.08 3.12 8.1 8.17 8.22 5.14.12 8.13-3.61 9.16-7.87 1.86-7.71 3.76-15.65 3.88-23.51.48-31.81.29-63.63.34-95.45-.01-.49-.2-.96-.45-2.09zm890.24-68.84c9.26 66.06 18.46 131.63 27.72 197.64h11.39v71.98h-64.88v-71.81h13.63c-1.42-12.65-2.75-24.51-4.11-36.57h-29.32c-1.43 11.96-2.86 23.91-4.34 36.35h14.89v71.96h-54.05v-71.72h12.14c9.03-66.27 17.99-132.01 26.96-197.83h49.97zm-20.08 132.97c-3.54-26.88-6.99-53.16-10.45-79.44-.29.03-.58.06-.87.1-3.56 26.31-7.12 52.61-10.74 79.35 7.49-.01 14.37-.01 22.06-.01zm-179.12 34.37h33.15c.46 5.2.88 10.13 1.33 15.06.07.83.17 1.66.36 2.47 2.02 8.91 6.93 13.47 13.93 12.94 6.99-.53 11.11-5.72 11.77-14.92 1.06-14.63-3.78-26.45-16.43-34.62-4.75-3.07-9.25-6.54-14.04-9.55-18.05-11.33-28.61-27.69-31.81-48.53-3.61-23.47-2.74-46.85 4.45-69.66 1.52-4.83 4.02-9.57 6.98-13.7 10.87-15.15 31.46-15.73 43.31-1.36 2.79 3.38 4.98 7.26 7.98 11.7V94.31h33.53v94.39h-35.13c-1.01-6.03-1.56-12.01-3.09-17.72-1.67-6.24-6.06-8.49-11.77-6.95-4.2 1.13-6.19 4.22-6.99 8.26-2.23 11.2 2.32 19.88 10.43 27.01 3.36 2.95 7.25 5.29 10.91 7.89 5.02 3.57 10.07 7.09 15.08 10.68 16.04 11.49 25.53 26.73 27.3 46.67 2.14 24.15 3.19 48.27-2.85 72.01-1.61 6.34-4.29 12.72-7.82 18.21-10.05 15.64-30.81 18.36-44.75 6.03-4.49-3.97-7.96-9.11-12.19-14.05v17.25h-33.63c-.01-34.2-.01-68.1-.01-102.54zM132.63 363.73H87.21C77.84 296.78 68.5 230.06 59.1 162.95H47.69V94.12h59.61v68.76H96.15c7.03 46.1 13.97 91.6 20.91 137.09.28-.02.56-.03.84-.05 4.87-45.46 9.75-90.92 14.68-136.9h-14.62V94.19h49.85v68.53c-2.96.15-5.89.3-9.28.47-8.63 66.75-17.23 133.39-25.9 200.54zm570.52-.08v-71.73h12.77V163.17h-12.59V94.23H768v68.63h-13.56v128.62h26.34v-52.14h33.6v124.32c-37-.01-73.9-.01-111.23-.01zM22.39 291.73h13.45v71.92h-64.76v-71.56h12.63v-129.1h-12.57V94.31h64.82v68.41H22.39v129.01zm436.48 101.41v38.56h-8.85v-25.45c-6.89 6.54-13.24 12.55-19.97 18.94-5.21-5.63-10.68-11.54-16.92-18.28v24.92h-8.41v-38.97c4.34-1.15 7.45-.4 10.23 3.2 4.87 6.31 10.24 12.23 15.83 18.82 4.88-5.83 9.93-11.13 14.11-17.05 3.67-5.19 8.06-6.28 13.98-4.69zm-330.28 23.79c4.29 5.08 8.11 9.61 12.2 14.46-6.57 1.49-11.64.99-14.46-5.47-3.83-8.78-10.56-12.08-19.92-10.28-1.28.25-2.63.15-4.47.24v15.68h-9.43v-38.82c1.16-.15 2.42-.46 3.67-.46 8.83-.01 17.67-.22 26.49.18 3.88.18 7.96 1.09 11.5 2.68 4.83 2.17 7.26 7.4 6.42 11.93-.96 5.18-4.2 8.14-9.34 9.1-.64.12-1.24.35-2.66.76zm-27.36-6.48c8.3 0 16.1.4 23.8-.26 2.15-.18 5.32-3.2 5.76-5.38.78-3.84-3.03-5.49-6.15-5.64-7.72-.38-15.48-.12-23.42-.12.01 4.01.01 7.59.01 11.4zm-266.2 4.67v10.48h33.57c1.55 6.88 1.37 7.14-4.84 7.14-11.16.01-22.31.01-33.47-.01-1.62 0-3.24-.14-5.08-.23v-39.6h43.05v6.78h-33.44v9.21h19.87v6.21c-6.36.02-12.76.02-19.66.02zm649.08-22.32h42.74v6.86h-33.39v9.31h20.14c.09 2.13.16 3.74.27 6.13H493.8v10.67h34.08v6.67h-43.77V392.8zM26.17 431.88v-39.56h43.17v6.6H35.85v9.5h19.88v6.44h-19.6v10.22h33.82v6.8H26.17zm568.54 1.81c-11.39-8.76-22.07-16.97-33.7-25.92v25.61h-9.39V392.2c2.86 1.18 5.66 1.64 7.49 3.21 8.8 7.56 17.35 15.43 26.79 23.92v-25.9h8.8c.01 13.06.01 26.24.01 40.26zm-913.35-34.45h124.36v7.8h-5.41c-34.32 0-68.63-.23-102.94.19-6.88.08-11.08-2.89-16.01-7.99zm1000.12 7.51v-7.63H806.2c-4.77 3.67-7.48 7.79-13.73 7.75-35.12-.25-70.25-.12-105.38-.12h-5.61zM368.09 418.7v-25.57h8.72v40.07c-11.36-8.73-22.1-16.98-33.87-26.02v25.62h-9.43v-41.45c3.09 1.38 5.81 1.94 7.67 3.53 7.46 6.38 14.65 13.09 21.95 19.66 1.31 1.17 2.69 2.26 4.96 4.16zm-431.91 14.82c-11.74-9.01-22.48-17.24-34.12-26.16v25.62h-9.04v-41.14c3.05 1.35 5.8 1.92 7.67 3.52 7.46 6.37 14.64 13.07 21.94 19.63 1.18 1.06 2.44 2.02 4.47 3.69v-25.37h9.08v40.21zm338.37-2.07c-6.49 1.59-10.7.2-13.49-5.39-.78-1.56-3.51-2.89-5.43-3.01-6.14-.38-12.33.07-18.49-.23-3.33-.16-5.5.92-6.67 3.89-2.34 5.9-6.76 7.08-12.91 5.59.69-1.37 1.24-2.68 1.98-3.88a9397.18 9397.18 0 0 1 19.54-31.96c3.52-5.73 9.1-5.74 12.81-.02 7.49 11.54 14.96 23.11 22.66 35.01zm-28.78-28.54c-2.67 4.27-4.93 7.89-7.42 11.88h15.34l-7.92-11.88zm399.42 30.93h-10.66v-33.8h-20.24v-7.4h50.52v6.98H645.2c-.01 11.6-.01 22.66-.01 34.22zm-932.39-14.62h93.28v7.82h-5.27c-25.12 0-50.25-.27-75.36.19-6.29.11-9.17-2.96-12.65-8.01zm265.16-19.45h-20.63v-7.44H7.84v6.91h-19.75v34.39h-10.14c.01-11.01.01-22.04.01-33.86zm796.4 19.37c-3.3 5.72-7.33 7.88-13.66 7.78-24.61-.41-49.24-.17-73.86-.17h-5.63v-7.61h93.15zm-595.19-19.98h-20.56v-7.01h50.7v6.72h-19.84v34.14h-10.31c.01-10.93.01-22 .01-33.85zm125.85 34.17h-8.22v-40.34h8.22v40.34z" fill="#fff"/>
</svg>
