<svg viewBox="0 0 264 36" xmlns="http://www.w3.org/2000/svg">
    <path d="M55.377 59.865 43.719 81.609 0 0h23.316Zm-8.742-27.222L64.122 0h23.316L58.293 54.387ZM93.384 0h20.46l-.057 81.609H93.384Zm29.145 0h20.463l-.06 81.609h-20.403Zm26.232 20.403V0h8.745c11.268 0 20.886 3.984 28.854 11.949 7.965 7.968 11.949 17.586 11.949 28.857 0 11.268-3.984 20.886-11.949 28.854-7.968 7.965-17.586 11.949-28.854 11.949h-8.745V61.206h8.745c5.634 0 10.443-1.992 14.427-5.973 3.984-3.984 5.976-8.793 5.976-14.427 0-5.637-1.992-10.446-5.976-14.43-3.984-3.981-8.793-5.973-14.427-5.973ZM207.171 0h20.46l-.057 81.609h-20.403Zm26.232 0h32.058v20.403h-32.058Zm0 61.206h32.058v20.403h-32.058Zm0-30.603h32.058v20.403h-32.058Zm101.952 13.116h20.517c-.621 10.026-4.584 18.672-11.889 25.941-7.968 7.965-17.586 11.949-28.857 11.949-11.268 0-20.886-3.984-28.854-11.949-7.266-7.269-11.211-15.915-11.832-25.941h20.517c.585 4.392 2.508 8.22 5.772 11.484 3.963 4.002 8.763 6.003 14.397 6.003 5.637 0 10.455-2.001 14.457-6.003 3.264-3.264 5.19-7.092 5.772-11.484Zm-40.398-5.829H274.44c.621-10.026 4.566-18.672 11.832-25.941C294.24 3.984 303.858 0 315.126 0c11.271 0 20.889 3.984 28.857 11.949 7.305 7.269 11.268 15.915 11.889 25.941h-20.517c-.582-4.392-2.508-8.238-5.772-11.541-4.002-3.966-8.82-5.946-14.457-5.946-5.634 0-10.434 1.98-14.397 5.946-3.264 3.303-5.187 7.149-5.772 11.541ZM364.791 0h20.403v81.609h-20.403Zm26.232 20.403V0h10.959c7.035 0 13.038 2.487 18.012 7.461s7.461 10.98 7.461 18.012c0 7.074-2.487 13.098-7.461 18.072-4.974 4.974-10.977 7.461-18.012 7.461h-10.959V30.603h10.959c1.398 0 2.595-.495 3.585-1.485.99-.993 1.488-2.205 1.488-3.645 0-1.398-.498-2.592-1.488-3.585-.99-.99-2.187-1.485-3.585-1.485Zm81.609 28.563-17.487 32.643h-23.316l29.145-54.387Z" style="font-size:40px;font-style:normal;font-weight:400;line-height:125%;letter-spacing:0;word-spacing:0;fill-opacity:1;stroke-opacity:1;font-family:Videopac;fill:#fff" transform="scale(.44 .44113)"/>
    <path d="M481.143 53.919 463.89 21.744 475.548 0l43.719 81.609h-23.319l-3.903-7.287H464.88l10.899-20.403Zm81.96 7.113v20.46c-10.026-.621-18.675-4.566-25.941-11.832-7.968-7.968-11.949-17.586-11.949-28.854 0-11.271 3.981-20.889 11.949-28.857C544.428 4.683 553.077.738 563.103.117v20.46c-4.392.582-8.22 2.508-11.484 5.772-4.002 4.002-6.006 8.82-6.006 14.457 0 5.634 2.004 10.434 6.006 14.397 3.264 3.303 7.092 5.247 11.484 5.829Zm19.935-31.593a21.145 21.145 0 0 0-2.565-3.09c-3.303-3.264-7.152-5.19-11.541-5.772V.117c10.026.621 18.672 4.566 25.938 11.832a42.448 42.448 0 0 1 5.13 6.18ZM600 63.48a42.29 42.29 0 0 1-5.13 6.18c-7.266 7.266-15.912 11.211-25.938 11.832v-20.46c4.389-.582 8.238-2.526 11.541-5.829a23.172 23.172 0 0 0 2.565-3.03Z" style="font-size:40px;font-style:normal;font-weight:400;line-height:125%;letter-spacing:0;word-spacing:0;fill-opacity:1;stroke-opacity:1;font-family:Videopac;fill:#fff" transform="scale(.44 .44113)"/>
</svg>
