<svg viewBox="134 224 233 52" xmlns="http://www.w3.org/2000/svg" xml:space="preserve">
    <g fill="#fff">
        <path d="M341.03 224.32c8.76.3 16.85 4.2 22.27 12.74 6.85 10.78 4.31 24.65-5.79 32.84-11.22 9.08-28.18 8-37.89-2.42-11.77-12.64-8.1-32.28 7.5-40.13 4-2.01 8.24-2.98 13.91-3.03zm7.18 25.28c0-3.8.06-7.6-.01-11.4-.13-6.5-6.58-10.46-12.1-7.43-3.07 1.69-4.31 4.49-4.32 7.89-.02 7.52-.01 15.04 0 22.56 0 .64.06 1.28.16 1.91.69 4.5 5.24 7.57 9.67 6.53 3.89-.91 6.56-4.42 6.6-8.78.03-3.76 0-7.52 0-11.28zm-112.06 26.9c-5.04-.18-10.04-.62-14.61-2.87-2-.98-3.98-2.31-5.5-3.92-4.72-4.97-2.96-11.78 3.51-14.07 2.91-1.03 5.88-1 8.84-.22.64.17 1.27.5 1.8.91 1.04.8 1.17 1.91.38 2.95-.61.79-1.33 1.49-1.98 2.25-2.1 2.41-2.08 5.06.04 7.42 4.4 4.9 13.86 3.06 16.08-3.14 1.1-3.06.1-5.98-2.8-7.43-1.84-.92-3.85-1.51-5.81-2.17-4.46-1.48-8.98-2.81-13.41-4.39-5.61-2-9.5-7.52-9.29-13.12.17-4.67 2.55-8.16 6.32-10.73 4.18-2.85 8.88-3.35 13.77-2.9 2.66.24 5.17.96 7.52 2.23 2.62 1.41 5.42 1.66 8.26 1 1.09-.25 2.05-1.01 3.1-1.44.7-.29 1.58-.73 2.17-.52.47.17.84 1.2.9 1.88.45 5.19-2.71 10.18-7.17 11.51-4.09 1.21-7.18.17-9.64-3.3-.97-1.37-1.83-2.82-2.87-4.13-1.77-2.22-4.4-2.96-7.12-2.12-2.34.72-3.25 2.62-2.31 4.89.76 1.86 2.16 3.04 4.07 3.61 6.5 1.93 12.96 4.02 19.51 5.73 8.7 2.26 15.25 13.59 7.11 23.73-3.64 4.54-8.6 6.77-14.19 7.72-2.21.34-4.45.42-6.68.64z"/>
        <path d="M279.63 247.59c.17 5.8.41 10.76 2.18 15.46.66 1.76 1.61 3.5 2.77 4.98 2.16 2.72 6.13 3.28 9.27 1.58 2.81-1.52 4.32-5 3.49-8.07-.76-2.83-2.55-3.75-5.36-2.89-.61.19-1.57.16-1.97-.21-.39-.36-.51-1.36-.31-1.93.38-1.06.95-2.12 1.67-2.99 2.44-2.92 5.47-4.95 9.35-5.27 5.56-.46 10.03 3.17 11.05 8.8.86 4.79-1.03 8.7-4.06 12.17-3.3 3.77-7.62 5.76-12.5 6.5-8.31 1.27-16.09-.13-23-5.14-5.93-4.3-8.89-10.32-9.67-17.49-.46-4.21-.22-8.4 1.03-12.46 2.66-8.64 8.65-13.58 17.42-15.18 5.72-1.04 11.37-.7 16.84 1.51 3.54 1.43 6.87 1.24 9.81-1.47.2-.19.44-.35.68-.49 1.63-.98 2.98-.41 2.98 1.5.01 4.57-1.09 8.83-4.61 12.04-3.09 2.82-7.65 2.7-10.63-.23-1.3-1.28-2.33-2.84-3.57-4.2-1.04-1.15-2.08-2.37-3.34-3.23-2.84-1.93-5.46-1.3-6.75 1.86-1.07 2.63-1.73 5.47-2.24 8.27-.42 2.43-.41 4.94-.53 6.58zm-142.2-20.24c.8.11 2.1.3 3.4.48 4.48.61 8.84-.25 13.2-1.08.98-.19 1.96-.38 2.94-.56.84-.15 1.62-.06 2.12.74.5.81.81 1.7.26 2.6-.48.78-1.04 1.51-1.59 2.24-1.79 2.38-2.28 5.02-1.34 7.82 2.41 7.14 4.89 14.26 7.37 21.38.15.43.62.75.95 1.12.34-.47.86-.89 1-1.41 1.12-4.2 2.19-8.41 3.21-12.64.72-2.98 1.51-5.97 1.96-9 .47-3.12-.25-5.93-3.06-7.93-1.46-1.04-1.81-2.21-1.29-3.13.51-.9 1.96-1.2 3.49-.62 2.83 1.07 5.62.98 8.42-.08.97-.37 1.94-.74 2.95-.97 1.14-.26 2.23.35 2.82 1.36.6 1.02.19 1.83-.49 2.59-.21.24-.39.51-.63.72-3.34 2.99-5.11 6.85-6.35 11.05-1.71 5.81-3.64 11.56-5.22 17.41-.98 3.64-.36 7.19 1.74 10.45.7 1.08 1.23 2.35 1.51 3.6.47 2.17-.59 3.23-2.78 2.94-2.49-.33-4.96-.85-7.46-1.12-4.03-.43-8.05-.35-12.01.72-1.2.32-2.54.41-3.77.26-1.79-.22-2.53-2.13-1.56-3.68.21-.34.47-.65.75-.93 1.67-1.65 1.94-3.54 1.17-5.72-2.34-6.62-4.62-13.25-6.94-19.88-.76-2.18-1.65-4.33-2.31-6.54-.85-2.84-2.44-5.07-4.83-6.8-.51-.37-.97-1-1.14-1.59-.63-2.31.61-3.83 3.51-3.8zm73.83 47.79c-1.8-.37-3.87-.8-5.94-1.21-4.46-.88-8.81-.45-13.08 1.1-1.08.39-2.22.7-3.36.8-1.69.15-2.52-1.05-1.91-2.64.21-.54.61-1.02 1-1.46.64-.72 1.35-1.36 2.01-2.06 1.71-1.83 2.51-3.95 2.48-6.52-.1-6.91-.08-13.83-.01-20.75.03-3.45-1-6.42-3.35-8.95-.76-.82-1.48-1.68-2.12-2.6-.94-1.33-.98-2.38-.26-3.31.79-1.03 2.56-1.62 3.77-1.26.15.05.31.08.45.15 4.46 2.39 9.26 1.73 13.96 1.34 1.74-.14 3.42-1.01 5.14-1.54 1.24-.38 2.5-.81 3.53.42.87 1.04.88 2.79-.07 4.13-.81 1.14-1.71 2.21-2.63 3.26-2.38 2.69-3.61 5.71-3.48 9.39.16 4.55.19 9.12 0 13.67-.22 5.14 1.62 9.42 4.78 13.3.6.74 1.06 1.71 1.27 2.64.27 1.36-.53 2.13-2.18 2.1z"/>
    </g>
</svg>
