<svg viewBox="0 0 600 287" xmlns="http://www.w3.org/2000/svg">
    <path d="M414.066 32.676c0 18.018 15.168 32.64 33.84 32.64 19.41 0 34.65-14.322 34.65-32.64C482.553 14.355 467.316 0 447.906 0c-18.672 0-33.84 14.643-33.84 32.676m5.616 65.355h57.774v186.927h-57.774zM531.51 32.676c0 18.018 15.198 32.64 33.861 32.64 19.419 0 34.629-14.322 34.629-32.64C600 14.355 584.79 0 565.371 0c-18.663 0-33.861 14.643-33.861 32.676m5.598 65.355h57.789v186.927h-57.789zM327.81 15.72l-50.661 198.621S238.413 65.253 232.113 44.106c-6.3-21.183-19.272-30.462-37.662-30.462-18.402 0-31.392 9.279-37.692 30.462-6.279 21.147-45.021 170.235-45.021 170.235L61.041 15.72H0s58.626 211.92 66.597 236.457c6.198 19.158 20.883 34.821 42.654 34.821 24.888 0 36.528-18.147 41.916-34.821 5.334-16.572 43.284-156.537 43.284-156.537s37.947 139.965 43.266 156.537c5.388 16.674 17.028 34.821 41.91 34.821 21.786 0 36.444-15.663 42.684-34.821 7.95-24.537 66.537-236.457 66.537-236.457H327.81Z" style="fill:#fff"/>
</svg>
