<svg viewBox="0 0 600 181" xmlns="http://www.w3.org/2000/svg">
    <path d="M70.08 134.778c1.708-6.551 3.305-12.724 4.928-18.928 7.503-28.568 14.868-57.166 22.695-85.653.813-3.007 1.786-5.957 3.196-8.748 3.575-7.122 9.151-11.51 17.167-12.482 7.341-.894 14.246.135 19.957 5.333 4.01 3.628 6.285 8.34 7.746 13.433 5.661 20.093 10.859 40.294 16.168 60.471 4.006 15.272 7.962 30.545 11.941 45.791.027.081.081.162.135.27.571-.054.381-.567.462-.867 6.498-25.429 12.971-50.828 19.469-76.256 3.901-15.246 7.8-30.492 11.644-45.738.301-1.164.733-1.546 1.978-1.546 11.645.054 23.289.027 34.961.027 1.923 0 1.896 0 1.38 1.897-6.797 24.454-13.565 48.934-20.417 73.387-6.824 24.346-13.46 48.772-20.798 72.979-2.464 8.098-6.878 14.895-14.408 19.202-10.207 5.822-26.239 4.604-34.58-9.127-2.98-4.901-4.63-10.291-6.173-15.732-8.559-30.221-16.764-60.551-24.996-90.881-.082-.327-.19-.624-.325-1.029-.57.867-.651 1.759-.894 2.599-7.608 28.001-15.192 56.001-23.073 83.948-1.65 5.849-2.977 11.78-5.63 17.305-2.791 5.795-6.609 10.615-12.485 13.595-10.156 5.117-23.397 2.437-30.927-6.068-4.603-5.198-7.04-11.399-8.934-17.926C29.352 116.393 18.926 78.615 8.419 40.839 5.658 30.984 2.923 21.071.132 11.188c-.324-1.138-.081-1.33 1.03-1.33 11.887.027 23.778.027 35.666 0 1.137 0 1.488.409 1.758 1.438 8.448 33.226 16.927 66.454 25.402 99.68l5.687 22.314c.081.381.189.732.405 1.488Zm440.945.679h-58.276c-4.199 0-8.368-.514-12.431-1.732-11.453-3.385-17.791-11.293-19.985-22.803a51.794 51.794 0 0 1-.864-9.558V24.267c0-5.174.891-10.156 3.763-14.571 4.061-6.227 10.126-8.988 17.305-9.45 7.392-.487 14.811-.081 22.205-.189 1.138-.027 1.03.624 1.03 1.353 0 8.83-.03 17.629 0 26.458.054 13.349-.354 26.702.189 40.024.405 10.507 3.358 20.254 10.399 28.406 5.414 6.284 12.32 10.129 20.309 12.133 10.02 2.491 20.092 2.572 30.086 0 16.086-4.171 25.645-14.678 29.409-30.708 1.137-4.849 1.515-9.777 1.515-14.732-.027-20.42 0-40.837-.027-61.257 0-1.38.381-1.704 1.708-1.677 7.013.135 14.054-.243 21.068.189 13.187.786 21.446 9.477 21.527 22.721.081 16.168.027 32.359.027 48.526 0 10.48.027 20.933-.027 31.413-.027 4.685-.729 9.316-2.356 13.73-3.601 9.937-10.885 15.543-20.987 17.764-3.358.76-6.797 1.084-10.237 1.084-18.466-.027-36.908-.027-55.35-.027Zm-247.241-15.084c0-19.009.027-37.992-.027-57.004 0-1.354.351-1.705 1.707-1.705 11.021.054 22.071.054 33.091 0 1.273 0 1.543.378 1.543 1.597-.027 38.184-.027 76.394 0 114.575 0 1.245-.324 1.573-1.57 1.573a3407.941 3407.941 0 0 0-33.229 0c-1.272 0-1.542-.382-1.542-1.6.027-19.144.027-38.289.027-57.436Zm73.846 0c0-19.009.027-37.992-.027-57.004 0-1.381.354-1.705 1.708-1.705 10.993.054 21.962.054 32.956 0 1.218 0 1.68.189 1.68 1.57-.054 38.184-.027 76.394 0 114.575 0 1.245-.327 1.573-1.572 1.573a3407.326 3407.326 0 0 0-33.226 0c-1.3 0-1.546-.382-1.546-1.6.054-19.117.027-38.262.027-57.409Z" style="fill:#fff"/>
    <path d="M533.447 33.501c0 10.643.216 21.312-.081 31.954-.19 7.311-2.816 13.838-8.368 18.874-10.507 9.532-30.572 7.665-37.073-9.586a31.504 31.504 0 0 1-2.032-10.912c-.027-20.852-.027-41.677-.054-62.529 0-.975.273-1.272 1.246-1.272 15.03.027 30.086.027 45.116 0 1.083 0 1.327.324 1.327 1.353-.027 10.696-.027 21.392-.027 32.118h-.054ZM260.182 21.044C260.209 10.05 269.039.816 279.519.165c7.743-.46 14.378 1.815 19.306 7.908 7.908 9.747 5.009 24.045-5.957 30.113-10.75 5.958-23.829 2.653-29.924-7.557-1.867-3.085-2.681-6.47-2.762-9.585Zm117.039-.598c-.027 9.805-6.713 17.767-16.734 20.15-10.264 2.437-20.987-2.899-24.859-12.431-4.957-12.13 2.762-25.155 15.246-27.568 9.046-1.759 16.789.894 22.53 8.343 2.626 3.439 3.682 7.473 3.817 11.506Z" style="fill:#fff"/>
</svg>
