<svg viewBox="0 0 3839 789.4" xmlns="http://www.w3.org/2000/svg">
    <path class="st1" d="M1600.2 366.2c29.6 13.1 58.8-5.4 70.8-32.6 12.8-28.9 3.7-58.1-20.3-68.7-18.4-8.1-54.5-2.1-72.4 38.2-12.3 28-.5 53.2 21.9 63.1Zm-674.6 0c29.6 13.1 58.8-5.4 70.8-32.6 12.8-28.9 3.7-58.1-20.3-68.7-18.4-8.1-54.5-2.1-72.4 38.2-12.3 28-.5 53.2 21.9 63.1Z" style="fill:#fff"/>
    <path class="st1" d="M2931.5 630.3c-33.3 42.3-53.4 69.6-48.5 50.4 24.5-96.2-57.1-177-57.1-219.2 0-39.2 34.4-53.8 27.7-65-6.5-10.9-39.4 13.3-53.9 53.3-52.5 60.4-110.1 136.2-158.4 201-49.8 62.2-78.7 103.2-105.8 103.2-5.2 0-10.5-3.8-10.5-9.6 0-6.7 14.9-43.1 40.2-82.4 30.6-47.9 48.1-88.2 48.1-128.4 0-47-21.9-74.7-54.2-74.7-56.8 0-122.4 93.9-202.8 199.3 25.4-57.5 49-98.7 49-140.9 0-33.5-21-57.5-44.6-57.5-53.3 0-116.3 71.9-202 192.6 24.5-53.7 50.7-94.9 50.7-138.9 0-29.7-15.7-49.8-40.2-49.8-54.2 0-110.5 75.6-193.2 188-52.1 70.7-81 103.3-106.4 103.3-6.1 0-10.5-5.7-10.5-12.5 0-15.3 28.8-63.2 76.1-146.6 14.9-25.9 38.5-63.2 64.7-116.9-23.6-1-50.7-2.9-76.1-2.9-5.2 0-9.6 1-14.9 1l-24.5 41.2c-13.1-38.3-40.2-53.7-66.4-53.7-66.4 0-160.4 58.1-251.3 185-52.9 72.1-82.9 104.4-107.4 104.4-5.2 0-9.6-1.9-9.6-8.6 0-15.3 48.1-103.5 143.4-275h-99.7c-52.5 66.1-100.5 129.4-136.4 170.6-28 32.2-111.9 118.8-122.4 118.8-6.1 0-9.6-6.7-9.6-12.5 0-24.9 59.5-121.7 153.9-293.2 86.2-155.7 159.6-285.4 159.6-285.4h-86.7l-176 265.3s-90.5 139.1-157.5 223.2c-57.5 72.1-100.9 102.6-111.4 102.6-6.1 0-9.6-6.7-9.6-12.5 0-24.9 59.5-121.7 153.9-293.2 86.2-155.7 159.6-285.4 159.6-285.4H1224S1091.8 367.5 1048 434c-37.4 56.8-92.5 136.1-155.7 223.2C841.6 726.9 813.5 754 789 754c-5.2 0-9.6-1.9-9.6-8.6 0-15.3 48.1-103.5 143.4-275h-99.7c-52.5 66.1-96.5 120.8-134.1 167.7l3.2 24.8c42-51.7 73.2-86.2 99.4-114-54.2 70-86.6 126.5-86.6 172.5 0 37.4 18.4 66.1 55.1 66.1 58.6 0 78.1-29 132-102.6 30.5-41.6 81.4-123.6 159.2-217.5-7.9 15.3-44.6 76.7-103.2 189.7-7.9 15.3-14 41.2-14 58.5 0 38.3 23.6 70.9 54.2 70.9 41.1 0 71.6-26.7 129.7-101.6 31.7-40.8 83.2-123.6 161-217.5-7.9 15.3-44.6 76.7-103.2 189.7-7.9 15.3-14 41.2-14 58.5 0 38.3 23.6 70.9 54.2 70.9 41.1 0 111.2-82 140.8-116.9 25.9-30.5 78.7-92.9 104.9-120.7-54.2 70-86.6 126.5-86.6 172.5 0 37.4 18.4 66.1 55.1 66.1 58.6 0 81.3-33.3 136.2-109.2 15.7-23 39.6-51.4 38.1-47.7-9.6 22.1-14.1 45.7-14.1 63 0 42.2 26.2 91 77.8 91 48.1 0 83.1-35.5 133.8-90.1-2.6 8.6-3.5 24.9-3.5 34.5 0 32.6 21 56.5 51.6 56.5 37.6 0 100.2-73.1 125.6-105.2 37.9-48 136.4-183.2 161.8-183.2 5.2 0 8.7 3.8 8.7 9.6 0 29.7-91.8 155.2-146 273.1H2101c57.7-94.9 109.3-180.2 171.4-243.4 43.7-45 72.6-55.6 72.6-31.6 0 15.3-23.6 54.6-57.7 118.8-42 78.6-72.6 129.4-85.7 156.2h97.9c111.9-188.8 212.4-290.4 244.8-290.4 3.5 0 6.1 1.9 6.1 6.7 0 5.8-6.1 19.2-9.6 25.9-55.1 101.6-83.1 142.8-83.1 188.8 0 43.1 25.4 73.8 60.3 73.8 42.8 0 82.5-56.1 137.9-122.1 51.2-69.8 82-113.1 135.3-171.5.7 1.3 14.6-16.8 15.2-15.2 8.3 21.9 4.8 88.5 2.7 109.2-4 38.9-46.6 170.2-87.1 170.2-9.6 0-25.6-7-25.6-21.4 25.4-1.9 40.2-14.4 40.2-39.3s-15.7-42.2-36.7-42.2c-23.6 0-45.5 21.1-45.5 52.7 0 53.2 102.8 120.4 196.7 47.3 52.2-40.7 91.8-108.8 91.8-108.8l-11.4-13.2Zm-1131 28.8c-47.2 63.2-85.7 98.7-114.5 98.7-12.2 0-17.5-7.7-17.5-21.1 0-47 83.1-186.9 132-227.1 12.2-9.6 23.6-14.4 32.3-14.4 18.4 0 28.8 16.3 28.8 41.2.1 33.6-22.6 71-61.1 122.7Zm-924-377.9c2.2-1.6 3.6-2.9 3.4-3.3-1.6-3.1-11-15.2-11-15.2-17.5 9.2-97.2 83.9-136 132.8-71.9 90.6-119.6 182.6-168 264.8 38.7-158.7 92.4-280.1 128.4-372.9 14.1-37.3 29.9-86 49.3-139.6-4.4-3.8-14.1-9.6-18.5-11.5-49.3 79.4-142.5 184.5-256 333.7-42.2 55.5-150.4 164.4-236.7 215.1C387.2 537 482.2 418.4 482.2 291.3c0-82.2-61.6-150.1-153.1-150.1C174.3 141.2 0 319 0 451.9c0 55.5 31.7 98.5 88.9 98.5 105.6 0 199.7-102.3 199.7-233.3 0-38.2-11.4-67.9-21.1-94.6-4.4 1.9-12.3 4.8-17.6 7.7 2.6 8.6 3.5 21 3.5 30.6 0 104.2-85.3 268.6-173.3 268.6-35.2 0-58.1-30.6-58.1-77.4 0-134.8 178.7-289.7 297.4-289.7 47.5 0 72.1 37.3 72.1 77.4 0 67.9-32.6 145.3-83.6 243.8-88.8 170.1-165.3 235.1-213.7 286.7 2.6 7.7 5.3 12.4 12.3 19.1 229.6-114.7 378.3-311.7 535.8-505.8-99.4 158.7-167.2 272.5-167.2 369 0 46.8 16.7 105.2 44.9 136.7h13.2c44.9-123.2 104.4-219 172.4-321.1 72.5-108.7 153.6-173.8 170.9-186.9ZM3444.8 0c-217.7 0-394.2 176.5-394.2 394.2s176.5 394.2 394.2 394.2S3839 611.8 3839 394.2 3662.5 0 3444.8 0Zm117.3 625.4L3445 346.3l-117.4 279.6L3160 212.2 3327.6 389l96.2-93.2-29.3-69.8 50.6 49.1 50.1-48.6-29 69 95.9 92.9 167.6-176.8-167.6 413.8Z" style="fill:#fff"/>
</svg>
