<?xml version="1.0" encoding="UTF-8" standalone="no"?>
<!DOCTYPE svg PUBLIC "-//W3C//DTD SVG 1.1//EN" "http://www.w3.org/Graphics/SVG/1.1/DTD/svg11.dtd">
<svg width="100%" height="100%" viewBox="0 0 575 112" version="1.1" xmlns="http://www.w3.org/2000/svg" xmlns:xlink="http://www.w3.org/1999/xlink" xml:space="preserve" xmlns:serif="http://www.serif.com/" style="fill-rule:evenodd;clip-rule:evenodd;stroke-linejoin:round;stroke-miterlimit:2;">
    <g>
        <path d="M129.356,50.811c-30.609,-58.164 -89.731,-59.961 -110.128,-37.363c-4.972,5.526 -21.953,37.123 25.159,66.804c-24.5,7.248 -44.387,-20.95 -44.387,-20.95c30.594,58.164 89.702,59.961 110.113,37.348c4.972,-5.511 21.954,-37.123 -25.173,-66.789c24.529,-7.233 44.416,20.95 44.416,20.95Zm-37.243,29.037c-9.285,10.273 -29.097,7.518 -44.237,-6.185c-15.17,-13.687 -19.932,-33.095 -10.662,-43.383c9.269,-10.288 29.096,-7.518 44.251,6.17c15.155,13.687 19.933,33.11 10.648,43.398Z" style="fill:#f00;fill-rule:nonzero;"/>
        <path d="M61.809,52.471c5.117,-5.669 16.066,-4.138 24.434,3.417c8.369,7.554 11.008,18.29 5.89,23.958c-5.117,5.669 -16.066,4.139 -24.434,-3.416c-8.369,-7.554 -11.008,-18.29 -5.89,-23.959Z" style="fill:#f00;"/>
        <path d="M230.664,12.699l-23.152,0l-10.662,7.458l-2.576,12.07c-0.374,1.737 0.959,3.369 2.726,3.369l23.166,0l10.663,-7.457l2.575,-12.071c0.345,-1.737 -0.973,-3.369 -2.74,-3.369Zm-8.85,5.092l-2.142,10.018l-6.289,4.403l-6.17,-0c-0.899,-0 -1.558,-0.824 -1.378,-1.692l2.141,-10.034l6.275,-4.388l6.17,0c0.913,0 1.572,0.824 1.393,1.693Z" style="fill:#fff;fill-rule:nonzero;"/>
        <path d="M266.365,12.699l-27.21,0l-4.882,22.897l5.87,0l6.275,-4.388l3.22,-15.11l10.138,0c1.602,0 2.785,1.468 2.456,3.04l-3.519,16.473l11.201,0l3.504,-16.458c0.704,-3.324 -2.62,-6.454 -7.053,-6.454Z" style="fill:#fff;fill-rule:nonzero;"/>
        <path d="M567.757,12.699l-27.225,0l-4.867,22.882l5.87,0l6.275,-4.388l3.22,-15.11l10.138,0c1.602,0 2.785,1.468 2.456,3.04l-3.519,16.473l11.201,0l3.505,-16.458c0.718,-3.309 -2.606,-6.439 -7.054,-6.439Z" style="fill:#fff;fill-rule:nonzero;"/>
        <path d="M189.392,0l-6.274,4.388l-4.987,23.421l-6.29,4.388l-3.13,-0l5.931,-27.809l0.943,-4.388l-5.87,0l-6.275,4.388l-5.002,23.421l-6.274,4.388l-3.13,-0l5.93,-27.809l0.943,-4.388l-5.87,0l-6.259,4.388l-6.664,31.193l41.496,0l0.195,-0.135l10.452,-7.307l6.005,-28.139l-5.87,0Z" style="fill:#fff;fill-rule:nonzero;"/>
        <path d="M482.922,16.098l-2.501,11.711l-6.289,4.388l-2.261,-0l4.163,-19.498l-7.069,0l-4.852,3.399l-2.5,11.711l-6.29,4.388l-2.261,-0l4.163,-19.498l-7.069,0l-4.852,3.399l-4.163,19.483l39.745,0l10.662,-7.442l3.295,-15.44l-7.069,0l-4.852,3.399Z" style="fill:#fff;fill-rule:nonzero;"/>
        <path d="M314.166,13.073c0.869,-0.569 1.677,-1.213 2.411,-1.946c3.01,-3.025 5.256,-7.039 5.256,-7.039l-11.905,0c0,0 -2.246,3.999 -5.256,7.039c-0.569,0.584 -1.213,1.093 -1.872,1.572l-13.897,0l-10.663,7.458l-2.575,12.07c-0.375,1.737 0.958,3.369 2.725,3.369l32.212,0l4.358,-20.456c0.194,-0.839 -0.165,-1.617 -0.794,-2.067Zm-10.962,4.718l-3.07,14.421l-11.516,-0c-0.898,-0 -1.557,-0.824 -1.377,-1.692l2.141,-10.034l6.275,-4.388l6.184,0c0.884,0 1.558,0.824 1.363,1.693Z" style="fill:#fff;fill-rule:nonzero;"/>
        <path d="M352.353,12.699l-22.747,0l-10.663,7.458l-2.576,12.07c-0.374,1.737 0.959,3.369 2.726,3.369l22.867,0l4.717,-3.399l-17.371,-0c-0.898,-0 -1.557,-0.824 -1.378,-1.692l0.779,-3.669l16.368,-0l10.887,-7.623l0.344,-1.632c0.555,-2.501 -1.377,-4.882 -3.953,-4.882Zm-6.05,5.092l-0.449,2.096l-4.762,3.37l-11.621,-0l0.584,-2.771l6.274,-4.388l8.596,0c0.899,0 1.573,0.824 1.378,1.693Z" style="fill:#fff;fill-rule:nonzero;"/>
        <path d="M384.774,20.621c-0.149,0.434 -0.344,0.854 -0.584,1.243l-0.883,1.393l7.592,-0l5.182,-3.624c-0,-2.831 -1.528,-6.919 -8.012,-6.919l-17.791,-0l-10.662,7.458l-3.295,15.439l11.202,0l3.22,-15.11l6.274,-4.388l4.493,0c2.336,-0.015 3.998,2.277 3.264,4.508Z" style="fill:#fff;fill-rule:nonzero;"/>
        <path d="M433.803,14.376l-14.63,0c-1.468,-0.045 -2.471,-0.988 -2.232,-2.875c0.539,-4.238 4.163,-6.469 5.99,-6.469l16.308,-0l7.174,-5.032l-27.031,0c-8.581,0 -13.313,6.35 -14.316,14.601c-0.734,3.399 1.872,6.619 5.346,6.619l14.631,-0c1.467,0.045 2.471,0.988 2.246,2.875c-0.524,4.163 -4.028,6.38 -5.87,6.47l-33.29,-0l-7.188,5.031l16.892,0l-0.015,0.015l27.03,0c8.581,0 13.313,-6.349 14.317,-14.601c0.718,-3.414 -1.872,-6.634 -5.362,-6.634Z" style="fill:#fff;fill-rule:nonzero;"/>
        <path d="M524.329,12.699l-13.253,0c-6.529,0 -12.205,4.567 -13.538,10.962c-1.378,6.559 -0.569,12.384 8.656,11.935l6.559,0l4.837,-3.384l-5.316,-0c-2.756,-0 -4.807,-2.546 -4.238,-5.242l0.779,-3.624c0.898,-4.238 4.642,-7.263 8.97,-7.263l5.825,0l-4.163,19.498l11.201,0l4.882,-22.897l-9.494,0l-1.707,0.015Z" style="fill:#fff;fill-rule:nonzero;"/>
        <g>
            <path d="M287.63,49.433l-5.631,20.621c-1.273,4.613 -8.042,3.699 -8.042,-1.093l0,-7.068c0,-6.979 -7.877,-7.802 -7.877,-7.802c-17.011,-0 -27.928,19.827 -27.839,30.19c0,9.449 4.942,19.543 17.746,17.251c8.341,-1.482 15.679,-8.371 15.679,-8.371c0.21,-0.21 0.435,-0.434 0.629,-0.644c3.939,-4.013 10.363,0.839 7.593,5.721c-8.985,14.076 -61.668,22.567 -61.668,-15.904c-0,-15.05 16.637,-44.372 69.919,-34.743l-0.509,1.842Z" style="fill:#02a5f4;fill-rule:nonzero;"/>
            <path d="M383.022,103l-5.87,4.268c-11.696,7.383 -28.797,2.561 -28.453,-12.729c0.03,-1.662 0.344,-3.31 0.779,-4.927l9.599,-35.102c0.898,-3.34 3.1,-6.245 6.185,-7.802c6.649,-3.385 11.441,2.201 10.333,7.098l-9.689,35.417c-3.864,13.388 3.429,15.11 6.604,13.028l7.532,-5.481l5.766,0.075l-0.644,4.867l-2.142,1.288Z" style="fill:#f00;fill-rule:nonzero;"/>
            <path d="M461.642,84.326l1.962,-7.173c1.108,-4.882 -3.684,-10.483 -10.333,-7.099c-3.085,1.558 -5.271,4.463 -6.184,7.802l-6.036,22.134l-0.404,1.482c-1.587,5.766 2.86,8.207 7.293,8.821c6.2,0.868 7.443,-2.037 7.847,-4.029c0.18,-0.853 0.449,-1.707 0.869,-2.485c3.669,-6.649 8.85,-12.43 13.328,-16.593c3.519,-3.265 9.239,-1.962 10.947,2.516l0.614,1.587c0.973,2.546 4.627,2.366 5.346,-0.269l6.319,-23.107c-9.09,-1.123 -20.95,2.471 -31.568,16.413Z" style="fill:#f65ba6;fill-rule:nonzero;"/>
            <path d="M404.557,65.741c3.714,-0.733 6.08,3.789 3.369,6.44c-11.246,11.007 -13.627,32.256 -0.15,32.256c13.598,0 17.237,-26.116 6.2,-28.932c-4.088,-0.823 -1.497,-2.006 -0.344,-2.59c9.898,-5.017 26.206,-6.979 25.697,10.752c-0.329,11.007 -13.687,28.333 -35.641,28.333c-14.466,0 -24.35,-8.326 -24.35,-20.531c0.03,-10.543 11.247,-22.957 25.219,-25.728Z" style="fill:#6784e7;fill-rule:nonzero;"/>
            <path d="M310.258,65.741c3.713,-0.733 6.079,3.789 3.369,6.44c-11.246,11.007 -13.628,32.256 -0.15,32.256c13.598,0 17.237,-26.116 6.2,-28.932c-4.088,-0.823 -1.498,-2.006 -0.344,-2.59c9.898,-5.017 26.206,-6.979 25.697,10.752c-0.329,11.007 -13.687,28.333 -35.641,28.333c-14.466,0 -24.35,-8.326 -24.35,-20.531c0.015,-10.543 11.232,-22.957 25.219,-25.728Z" style="fill:#ffd52f;fill-rule:nonzero;"/>
        </g>
    </g>
</svg>
