<svg viewBox="0 0 575 112" xmlns="http://www.w3.org/2000/svg" xml:space="preserve" style="fill-rule:evenodd;clip-rule:evenodd;stroke-linejoin:round;stroke-miterlimit:2">
    <path d="M129.356 50.811C98.747-7.353 39.625-9.15 19.228 13.448c-4.972 5.526-21.953 37.123 25.159 66.804C19.887 87.5 0 59.302 0 59.302c30.594 58.164 89.702 59.961 110.113 37.348 4.972-5.511 21.954-37.123-25.173-66.789 24.529-7.233 44.416 20.95 44.416 20.95ZM92.113 79.848c-9.285 10.273-29.097 7.518-44.237-6.185-15.17-13.687-19.932-33.095-10.662-43.383 9.269-10.288 29.096-7.518 44.251 6.17 15.155 13.687 19.933 33.11 10.648 43.398Z" style="fill:red;fill-rule:nonzero"/>
    <path d="M61.809 52.471c5.117-5.669 16.066-4.138 24.434 3.417 8.369 7.554 11.008 18.29 5.89 23.958-5.117 5.669-16.066 4.139-24.434-3.416-8.369-7.554-11.008-18.29-5.89-23.959Z" style="fill:red"/>
    <path d="M230.664 12.699h-23.152l-10.662 7.458-2.576 12.07c-.374 1.737.959 3.369 2.726 3.369h23.166l10.663-7.457 2.575-12.071c.345-1.737-.973-3.369-2.74-3.369Zm-8.85 5.092-2.142 10.018-6.289 4.403h-6.17a1.406 1.406 0 0 1-1.378-1.692l2.141-10.034 6.275-4.388h6.17a1.41 1.41 0 0 1 1.393 1.693Zm44.551-5.092h-27.21l-4.882 22.897h5.87l6.275-4.388 3.22-15.11h10.138a2.512 2.512 0 0 1 2.456 3.04l-3.519 16.473h11.201l3.504-16.458c.704-3.324-2.62-6.454-7.053-6.454Zm301.392 0h-27.225l-4.867 22.882h5.87l6.275-4.388 3.22-15.11h10.138a2.512 2.512 0 0 1 2.456 3.04l-3.519 16.473h11.201l3.505-16.458c.718-3.309-2.606-6.439-7.054-6.439ZM189.392 0l-6.274 4.388-4.987 23.421-6.29 4.388h-3.13l5.931-27.809.943-4.388h-5.87l-6.275 4.388-5.002 23.421-6.274 4.388h-3.13l5.93-27.809.943-4.388h-5.87l-6.259 4.388-6.664 31.193h41.496l.195-.135 10.452-7.307L195.262 0h-5.87Zm293.53 16.098-2.501 11.711-6.289 4.388h-2.261l4.163-19.498h-7.069l-4.852 3.399-2.5 11.711-6.29 4.388h-2.261l4.163-19.498h-7.069l-4.852 3.399-4.163 19.483h39.745l10.662-7.442 3.295-15.44h-7.069l-4.852 3.399Zm-168.756-3.025a15.105 15.105 0 0 0 2.411-1.946c3.01-3.025 5.256-7.039 5.256-7.039h-11.905s-2.246 3.999-5.256 7.039c-.569.584-1.213 1.093-1.872 1.572h-13.897l-10.663 7.458-2.575 12.07c-.375 1.737.958 3.369 2.725 3.369h32.212l4.358-20.456c.194-.839-.165-1.617-.794-2.067Zm-10.962 4.718-3.07 14.421h-11.516a1.406 1.406 0 0 1-1.377-1.692l2.141-10.034 6.275-4.388h6.184c.884 0 1.558.824 1.363 1.693Zm49.149-5.092h-22.747l-10.663 7.458-2.576 12.07c-.374 1.737.959 3.369 2.726 3.369h22.867l4.717-3.399h-17.371a1.407 1.407 0 0 1-1.378-1.692l.779-3.669h16.368l10.887-7.623.344-1.632c.555-2.501-1.377-4.882-3.953-4.882Zm-6.05 5.092-.449 2.096-4.762 3.37h-11.621l.584-2.771 6.274-4.388h8.596c.899 0 1.573.824 1.378 1.693Zm38.471 2.83a6.213 6.213 0 0 1-.584 1.243l-.883 1.393h7.592l5.182-3.624c0-2.831-1.528-6.919-8.012-6.919h-17.791l-10.662 7.458-3.295 15.439h11.202l3.22-15.11 6.274-4.388h4.493c2.336-.015 3.998 2.277 3.264 4.508Z" style="fill:#fff;fill-rule:nonzero"/>
    <path d="M433.803 14.376h-14.63c-1.468-.045-2.471-.988-2.232-2.875.539-4.238 4.163-6.469 5.99-6.469h16.308L446.413 0h-27.031c-8.581 0-13.313 6.35-14.316 14.601-.734 3.399 1.872 6.619 5.346 6.619h14.631c1.467.045 2.471.988 2.246 2.875-.524 4.163-4.028 6.38-5.87 6.47h-33.29l-7.188 5.031h16.892l-.015.015h27.03c8.581 0 13.313-6.349 14.317-14.601.718-3.414-1.872-6.634-5.362-6.634Zm90.526-1.677h-13.253c-6.529 0-12.205 4.567-13.538 10.962-1.378 6.559-.569 12.384 8.656 11.935h6.559l4.837-3.384h-5.316c-2.756 0-4.807-2.546-4.238-5.242l.779-3.624a9.167 9.167 0 0 1 8.97-7.263h5.825l-4.163 19.498h11.201l4.882-22.897h-9.494l-1.707.015Z" style="fill:#fff;fill-rule:nonzero"/>
    <path d="m287.63 49.433-5.631 20.621c-1.273 4.613-8.042 3.699-8.042-1.093v-7.068c0-6.979-7.877-7.802-7.877-7.802-17.011 0-27.928 19.827-27.839 30.19 0 9.449 4.942 19.543 17.746 17.251 8.341-1.482 15.679-8.371 15.679-8.371.21-.21.435-.434.629-.644 3.939-4.013 10.363.839 7.593 5.721-8.985 14.076-61.668 22.567-61.668-15.904 0-15.05 16.637-44.372 69.919-34.743l-.509 1.842Z" style="fill:#02a5f4;fill-rule:nonzero"/>
    <path d="m383.022 103-5.87 4.268c-11.696 7.383-28.797 2.561-28.453-12.729.03-1.662.344-3.31.779-4.927l9.599-35.102c.898-3.34 3.1-6.245 6.185-7.802 6.649-3.385 11.441 2.201 10.333 7.098l-9.689 35.417c-3.864 13.388 3.429 15.11 6.604 13.028l7.532-5.481 5.766.075-.644 4.867-2.142 1.288Z" style="fill:red;fill-rule:nonzero"/>
    <path d="m461.642 84.326 1.962-7.173c1.108-4.882-3.684-10.483-10.333-7.099-3.085 1.558-5.271 4.463-6.184 7.802l-6.036 22.134-.404 1.482c-1.587 5.766 2.86 8.207 7.293 8.821 6.2.868 7.443-2.037 7.847-4.029.18-.853.449-1.707.869-2.485 3.669-6.649 8.85-12.43 13.328-16.593 3.519-3.265 9.239-1.962 10.947 2.516l.614 1.587c.973 2.546 4.627 2.366 5.346-.269l6.319-23.107c-9.09-1.123-20.95 2.471-31.568 16.413Z" style="fill:#f65ba6;fill-rule:nonzero"/>
    <path d="M404.557 65.741c3.714-.733 6.08 3.789 3.369 6.44-11.246 11.007-13.627 32.256-.15 32.256 13.598 0 17.237-26.116 6.2-28.932-4.088-.823-1.497-2.006-.344-2.59 9.898-5.017 26.206-6.979 25.697 10.752C439 94.674 425.642 112 403.688 112c-14.466 0-24.35-8.326-24.35-20.531.03-10.543 11.247-22.957 25.219-25.728Z" style="fill:#6784e7;fill-rule:nonzero"/>
    <path d="M310.258 65.741c3.713-.733 6.079 3.789 3.369 6.44-11.246 11.007-13.628 32.256-.15 32.256 13.598 0 17.237-26.116 6.2-28.932-4.088-.823-1.498-2.006-.344-2.59 9.898-5.017 26.206-6.979 25.697 10.752C344.701 94.674 331.343 112 309.389 112c-14.466 0-24.35-8.326-24.35-20.531.015-10.543 11.232-22.957 25.219-25.728Z" style="fill:#ffd52f;fill-rule:nonzero"/>
</svg>
