<svg viewBox="0 0 264 41" xmlns="http://www.w3.org/2000/svg">
    <path d="M.6 55.395v-8.184h64.098v-9.342H.6L.195 12.66H73.02v8.163H8.922l.402 8.883h64.098v25.692H.6v-.003Zm78.096 0V12.819h8.724v42.576h-8.724Zm13.407 0V12.819h72.825v42.576h-8.727V20.982h-55.374v34.419l-8.724-.006Zm77.481 0V12.819h72.876v8.166h-64.095v26.226h64.095v8.19h-72.876v-.006Zm78.684 0V0h8.727v55.398h-8.727v-.003Zm91.452 0V12.819h8.778v42.576h-8.778Zm14.049 0V12.819h72.822v8.166h-64.095v34.416h-8.727v-.006Zm-92.118-42.576v8.166h64.095v9.336h-64.095v25.077h72.876V12.819h-72.876Zm64.095 34.392h-55.32v-9.342h55.32v9.342ZM78.696 8.19V0h8.724v8.19h-8.724Zm261.024 0V0h8.778v8.19h-8.778ZM0 84.9l10.254-12.261H.804v-3.531h15.045v3.318L5.595 84.687h10.521v3.534H0V84.9Zm23.268-6.693-6.159-9.102h4.872l3.75 6.105 3.882-6.105h4.605l-6.132 9.129 6.666 9.987h-5.004l-4.179-6.612-4.257 6.612h-4.74l6.696-10.014Zm23.481 3.672c0 2.541 1.98 3.531 4.23 3.531 1.473 0 3.723-.426 3.723-2.382 0-2.061-2.865-2.409-5.676-3.159-2.838-.75-5.703-1.845-5.703-5.436 0-3.909 3.696-5.781 7.149-5.781 3.99 0 7.656 1.737 7.656 6.156H54.06c-.135-2.304-1.767-2.889-3.774-2.889-1.341 0-2.892.561-2.892 2.169 0 1.473.912 1.659 5.703 2.889 1.392.348 5.676 1.233 5.676 5.568 0 3.507-2.757 6.132-7.953 6.132-4.23 0-8.19-2.088-8.136-6.798h4.065Zm14.109-7.497h3.615v1.767h.054c.909-1.473 2.409-2.142 4.122-2.142 4.338 0 6.291 3.507 6.291 7.44 0 3.696-2.034 7.149-6.075 7.149-1.662 0-3.24-.723-4.152-2.088h-.054v6.588h-3.801V74.382Zm10.281 6.957c0-2.193-.885-4.47-3.321-4.47-2.49 0-3.291 2.223-3.291 4.47 0 2.25.855 4.392 3.321 4.392 2.487 0 3.291-2.142 3.291-4.392Zm9.213.885c.105 2.409 1.284 3.507 3.399 3.507 1.524 0 2.757-.936 2.997-1.794h3.345c-1.071 3.264-3.345 4.656-6.477 4.656-4.365 0-7.068-2.997-7.068-7.281 0-4.152 2.865-7.311 7.068-7.311 4.71 0 6.987 3.966 6.72 8.22l-9.984.003Zm6.183-2.409c-.348-1.929-1.179-2.943-3.027-2.943-2.409 0-3.105 1.872-3.159 2.943h6.186Zm15.474-.564c-.243-1.551-1.23-2.379-2.811-2.379-2.436 0-3.24 2.46-3.24 4.494 0 1.983.774 4.365 3.159 4.365 1.767 0 2.784-1.125 3.024-2.808h3.666c-.483 3.666-3.024 5.673-6.666 5.673-4.176 0-6.99-2.943-6.99-7.095 0-4.308 2.571-7.497 7.068-7.497 3.27 0 6.267 1.713 6.507 5.25l-3.717-.003Zm10.764-4.869h2.784v2.541h-2.784v6.855c0 1.287.321 1.608 1.605 1.608.405 0 .777-.027 1.179-.111v2.973c-.642.108-1.473.135-2.22.135-2.331 0-4.365-.537-4.365-3.294v-8.163h-2.304v-2.544h2.304V70.23h3.801v4.152Zm4.605 0h3.615v2.571h.054c.696-1.743 2.571-2.946 4.419-2.946.267 0 .588.054.828.138v3.531a6.87 6.87 0 0 0-1.365-.135c-2.781 0-3.747 2.007-3.747 4.443v6.24h-3.801l-.003-13.842Zm23.4 13.839h-3.615v-1.929h-.081c-.963 1.554-2.625 2.304-4.23 2.304-4.044 0-5.061-2.274-5.061-5.7v-8.514h3.804V82.2c0 2.274.669 3.399 2.436 3.399 2.061 0 2.943-1.152 2.943-3.963v-7.254h3.801l.003 13.839Zm3-13.839h3.588v1.872h.054c.99-1.422 2.436-2.25 4.23-2.25 1.74 0 3.291.642 4.041 2.304.804-1.206 2.25-2.304 4.176-2.304 2.946 0 5.061 1.365 5.061 4.953v9.264h-3.801v-7.845c0-1.845-.159-3.372-2.328-3.372-2.142 0-2.544 1.767-2.544 3.507v7.71h-3.804v-7.764c0-1.608.108-3.453-2.304-3.453-.747 0-2.568.48-2.568 3.186v8.031h-3.801V74.382Z" style="fill-opacity:1;stroke-opacity:1;fill:#fff" transform="scale(.44)"/>
    <path style="fill-opacity:1;stroke-opacity:1;fill:#ccc" d="m455.04 2.301-63.609 63.618h36.201l63.612-63.618z" transform="scale(.44)"/>
    <path style="fill-opacity:1;stroke-opacity:1;fill:#ddd" d="m491.325 2.301-63.612 63.618h36.204l63.612-63.618z" transform="scale(.44)"/>
    <path style="fill-opacity:1;stroke-opacity:1;fill:#eee" d="m527.58 2.301-63.609 63.618h36.204l63.609-63.618z" transform="scale(.44)"/>
    <path style="fill-opacity:1;stroke-opacity:1;fill:#fff" d="m563.799 2.301-63.612 63.618h36.204L600 2.301z" transform="scale(.44)"/>
</svg>
