<?xml version="1.0" encoding="UTF-8" standalone="no"?>
<!DOCTYPE svg PUBLIC "-//W3C//DTD SVG 1.1//EN" "http://www.w3.org/Graphics/SVG/1.1/DTD/svg11.dtd">
<svg width="100%" height="100%" viewBox="0 0 16 16" version="1.1" xmlns="http://www.w3.org/2000/svg" xmlns:xlink="http://www.w3.org/1999/xlink" xml:space="preserve" xmlns:serif="http://www.serif.com/" style="fill-rule:evenodd;clip-rule:evenodd;stroke-linejoin:round;stroke-miterlimit:2;">
    <path id="path2" d="M4,14.412c0,0.871 0.717,1.588 1.588,1.588l4.824,0c0.871,0 1.588,-0.717 1.588,-1.588l0,-10.824c0,-0.871 -0.717,-1.588 -1.588,-1.588l-0.412,0l0,-1c0,-0.547 -0.453,-1 -1,-1l-2,0c-0.547,0 -1,0.453 -1,1l0,1l-0.412,0c-0.871,0 -1.588,0.717 -1.588,1.588l0,10.824Zm1,0l0,-10.824c0,-0.33 0.258,-0.588 0.588,-0.588l4.824,0c0.33,0 0.588,0.258 0.588,0.588l0,10.824c0,0.33 -0.258,0.588 -0.588,0.588l-4.824,0c-0.33,0 -0.588,-0.258 -0.588,-0.588Zm1,-0.412l4,0l0,-5l-4,0l0,5Zm1,-12l0,-1l2,0l0,1l-2,0Z" style="fill:#fff;fill-rule:nonzero;"/>
</svg>
