<?xml version="1.0" encoding="UTF-8" standalone="no"?>
<!DOCTYPE svg PUBLIC "-//W3C//DTD SVG 1.1//EN" "http://www.w3.org/Graphics/SVG/1.1/DTD/svg11.dtd">
<svg width="100%" height="100%" viewBox="0 0 16 16" version="1.1" xmlns="http://www.w3.org/2000/svg" xmlns:xlink="http://www.w3.org/1999/xlink" xml:space="preserve" xmlns:serif="http://www.serif.com/" style="fill-rule:evenodd;clip-rule:evenodd;stroke-linejoin:round;stroke-miterlimit:2;">
    <g>
        <g>
            <path d="M12.789,8.974c-0.22,0 -0.437,-0.084 -0.605,-0.252c-2.31,-2.308 -6.064,-2.308 -8.375,-0c-0.333,0.333 -0.876,0.333 -1.21,-0c-0.333,-0.334 -0.333,-0.877 0,-1.211c2.977,-2.977 7.818,-2.977 10.795,0c0.334,0.334 0.334,0.877 0,1.211c-0.168,0.168 -0.388,0.252 -0.605,0.252Z" style="fill:#fff;fill-rule:nonzero;"/>
        </g>
        <g>
            <path d="M10.472,11.288c-0.22,-0 -0.437,-0.084 -0.605,-0.253c-0.498,-0.498 -1.165,-0.773 -1.87,-0.773c-0.706,-0 -1.372,0.275 -1.871,0.773c-0.333,0.334 -0.877,0.334 -1.21,0c-0.333,-0.333 -0.333,-0.877 0,-1.21c0.822,-0.822 1.916,-1.275 3.081,-1.275c1.165,0 2.258,0.453 3.08,1.278c0.334,0.334 0.334,0.877 0,1.211c-0.165,0.165 -0.385,0.249 -0.605,0.249Z" style="fill:#fff;fill-rule:nonzero;"/>
        </g>
        <g>
            <circle cx="7.997" cy="12.909" r="1.142" style="fill:#fff;"/>
        </g>
        <g>
            <path d="M15.142,6.621c-0.22,0 -0.437,-0.084 -0.605,-0.252c-3.608,-3.605 -9.472,-3.605 -13.077,0c-0.333,0.333 -0.877,0.333 -1.21,0c-0.333,-0.333 -0.333,-0.877 -0,-1.21c2.071,-2.071 4.821,-3.21 7.75,-3.21c2.929,-0 5.679,1.139 7.75,3.21c0.333,0.333 0.333,0.877 0,1.21c-0.171,0.168 -0.392,0.252 -0.608,0.252Z" style="fill:#fff;fill-rule:nonzero;"/>
        </g>
    </g>
</svg>
